<?xml version="1.0" encoding="UTF-8"?>
<svg width="800" height="400" xmlns="http://www.w3.org/2000/svg">
  <defs>
    <!-- Gradient for area fill -->
    <linearGradient id="areaGradient" x1="0%" y1="0%" x2="0%" y2="100%">
      <stop offset="0%" style="stop-color:#3b82f6;stop-opacity:0.3" />
      <stop offset="100%" style="stop-color:#3b82f6;stop-opacity:0.05" />
    </linearGradient>

    <!-- Glow filter for line -->
    <filter id="glow">
      <feGaussianBlur stdDeviation="2" result="coloredBlur"/>
      <feMerge>
        <feMergeNode in="coloredBlur"/>
        <feMergeNode in="SourceGraphic"/>
      </feMerge>
    </filter>

    <!-- Animation -->
    <style>
      @keyframes draw {
        from { stroke-dashoffset: 2000; }
        to { stroke-dashoffset: 0; }
      }
      @keyframes fadeIn {
        from { opacity: 0; }
        to { opacity: 1; }
      }
      .line-path {
        stroke-dasharray: 2000;
        stroke-dashoffset: 2000;
        animation: draw 1.5s ease-out forwards;
      }
      .area-path {
        opacity: 0;
        animation: fadeIn 1s ease-out 0.5s forwards;
      }
      .data-point {
        opacity: 0;
        animation: fadeIn 0.5s ease-out 1s forwards;
      }
    </style>
  </defs>

  <!-- Background -->
  <rect width="800" height="400" fill="#0d1117" rx="8"/>

  <!-- Title -->
  <text x="400" y="25" text-anchor="middle" fill="#c9d1d9" font-family="system-ui, -apple-system, sans-serif" font-size="16" font-weight="600">
    zxcloli666/SoundCloud-Desktop Downloads
  </text>

  <!-- Stats -->
  <text x="780" y="25" text-anchor="end" fill="#58a6ff" font-family="system-ui, -apple-system, sans-serif" font-size="14" font-weight="600">
    185.0K total
  </text>
  <text x="780" y="42" text-anchor="end" fill="#3fb950" font-family="system-ui, -apple-system, sans-serif" font-size="12">
    +2.2K (+1.2%)
  </text>

  <!-- Grid lines -->
  <g opacity="0.1">
    
      <line x1="60" y1="340" x2="760" y2="340"
            stroke="#c9d1d9" stroke-width="1"/>
    
      <line x1="60" y1="268.75" x2="760" y2="268.75"
            stroke="#c9d1d9" stroke-width="1"/>
    
      <line x1="60" y1="197.5" x2="760" y2="197.5"
            stroke="#c9d1d9" stroke-width="1"/>
    
      <line x1="60" y1="126.25" x2="760" y2="126.25"
            stroke="#c9d1d9" stroke-width="1"/>
    
      <line x1="60" y1="55" x2="760" y2="55"
            stroke="#c9d1d9" stroke-width="1"/>
    
  </g>

  <!-- Y-axis labels -->
  
    <text x="50" y="344" text-anchor="end"
          fill="#8b949e" font-family="system-ui, -apple-system, sans-serif" font-size="11">
      60.2K
    </text>
  
    <text x="50" y="272.75" text-anchor="end"
          fill="#8b949e" font-family="system-ui, -apple-system, sans-serif" font-size="11">
      91.4K
    </text>
  
    <text x="50" y="201.5" text-anchor="end"
          fill="#8b949e" font-family="system-ui, -apple-system, sans-serif" font-size="11">
      122.6K
    </text>
  
    <text x="50" y="130.25" text-anchor="end"
          fill="#8b949e" font-family="system-ui, -apple-system, sans-serif" font-size="11">
      153.8K
    </text>
  
    <text x="50" y="59" text-anchor="end"
          fill="#8b949e" font-family="system-ui, -apple-system, sans-serif" font-size="11">
      185.0K
    </text>
  

  <!-- X-axis labels -->
  
    <text x="60" y="360" text-anchor="middle"
          fill="#8b949e" font-family="system-ui, -apple-system, sans-serif" font-size="11">
      Nov 25
    </text>
  
    <text x="144.71337579617835" y="360" text-anchor="middle"
          fill="#8b949e" font-family="system-ui, -apple-system, sans-serif" font-size="11">
      Dec 14
    </text>
  
    <text x="229.42675159235668" y="360" text-anchor="middle"
          fill="#8b949e" font-family="system-ui, -apple-system, sans-serif" font-size="11">
      Jan 2
    </text>
  
    <text x="314.140127388535" y="360" text-anchor="middle"
          fill="#8b949e" font-family="system-ui, -apple-system, sans-serif" font-size="11">
      Jan 21
    </text>
  
    <text x="398.85350318471336" y="360" text-anchor="middle"
          fill="#8b949e" font-family="system-ui, -apple-system, sans-serif" font-size="11">
      Feb 9
    </text>
  
    <text x="483.5668789808917" y="360" text-anchor="middle"
          fill="#8b949e" font-family="system-ui, -apple-system, sans-serif" font-size="11">
      Feb 28
    </text>
  
    <text x="568.28025477707" y="360" text-anchor="middle"
          fill="#8b949e" font-family="system-ui, -apple-system, sans-serif" font-size="11">
      Mar 19
    </text>
  
    <text x="652.9936305732484" y="360" text-anchor="middle"
          fill="#8b949e" font-family="system-ui, -apple-system, sans-serif" font-size="11">
      Apr 7
    </text>
  
    <text x="737.7070063694267" y="360" text-anchor="middle"
          fill="#8b949e" font-family="system-ui, -apple-system, sans-serif" font-size="11">
      Apr 26
    </text>
  
    <text x="760" y="360" text-anchor="middle"
          fill="#8b949e" font-family="system-ui, -apple-system, sans-serif" font-size="11">
      May 1
    </text>
  

  <!-- Area under line -->
  <path d="M 60 340
    L 60.00 340.00 L 64.46 339.66 L 68.92 339.09 L 73.38 338.56 L 77.83 337.51 L 82.29 336.43 L 86.75 335.57 L 91.21 334.77 L 95.67 334.06 L 100.13 333.23 L 104.59 332.30 L 109.04 331.31 L 113.50 330.40 L 117.96 329.44 L 122.42 328.74 L 126.88 328.02 L 131.34 327.03 L 135.80 326.37 L 140.25 325.46 L 144.71 324.40 L 149.17 323.61 L 153.63 322.96 L 158.09 322.53 L 162.55 322.18 L 167.01 321.53 L 171.46 321.07 L 175.92 320.05 L 180.38 319.65 L 184.84 319.14 L 189.30 318.47 L 193.76 318.02 L 198.22 317.55 L 202.68 317.07 L 207.13 316.73 L 211.59 316.44 L 216.05 315.99 L 220.51 315.45 L 224.97 314.95 L 229.43 314.32 L 233.89 313.64 L 238.34 313.01 L 242.80 312.25 L 247.26 311.50 L 251.72 310.75 L 256.18 309.94 L 260.64 309.16 L 265.10 308.27 L 269.55 307.47 L 274.01 306.80 L 278.47 306.26 L 282.93 305.50 L 287.39 304.64 L 291.85 303.86 L 296.31 302.94 L 300.76 301.80 L 305.22 300.96 L 309.68 300.26 L 314.14 299.59 L 318.60 298.79 L 323.06 297.86 L 327.52 296.83 L 331.97 295.74 L 336.43 294.70 L 340.89 293.79 L 345.35 292.88 L 349.81 292.08 L 354.27 291.26 L 358.73 290.35 L 363.18 289.21 L 367.64 288.37 L 372.10 287.61 L 376.56 286.77 L 381.02 285.98 L 385.48 285.12 L 389.94 284.22 L 394.39 283.28 L 398.85 282.46 L 403.31 281.75 L 407.77 280.98 L 412.23 280.14 L 416.69 279.36 L 421.15 278.35 L 425.61 277.48 L 430.06 276.65 L 434.52 275.95 L 438.98 275.28 L 443.44 274.60 L 447.90 273.79 L 452.36 272.95 L 456.82 271.94 L 461.27 271.12 L 465.73 270.46 L 470.19 269.77 L 474.65 269.11 L 479.11 268.30 L 483.57 267.47 L 488.03 265.62 L 492.48 261.96 L 496.94 257.59 L 501.40 253.62 L 505.86 251.60 L 510.32 248.56 L 514.78 246.54 L 519.24 244.77 L 523.69 243.04 L 528.15 241.41 L 532.61 238.87 L 537.07 236.85 L 541.53 234.27 L 545.99 233.75 L 550.45 233.68 L 554.90 233.59 L 559.36 233.51 L 563.82 233.42 L 568.28 233.33 L 572.74 233.29 L 577.20 233.17 L 581.66 233.05 L 586.11 232.97 L 590.57 232.94 L 595.03 232.80 L 599.49 229.50 L 603.95 224.31 L 608.41 220.84 L 612.87 216.81 L 617.32 212.66 L 621.78 209.40 L 626.24 205.76 L 630.70 200.20 L 635.16 192.72 L 639.62 187.84 L 644.08 182.03 L 648.54 175.55 L 652.99 170.36 L 657.45 164.72 L 661.91 159.72 L 666.37 154.77 L 670.83 149.83 L 675.29 143.10 L 679.75 136.35 L 684.20 130.73 L 688.66 126.01 L 693.12 121.44 L 697.58 115.37 L 702.04 110.66 L 706.50 106.00 L 710.96 101.65 L 715.41 97.54 L 719.87 93.34 L 724.33 89.75 L 728.79 86.03 L 733.25 82.23 L 737.71 78.21 L 742.17 74.52 L 746.62 71.15 L 751.08 65.03 L 755.54 59.92 L 760.00 55.00
    L 760 340
    Z" fill="url(#areaGradient)" class="area-path"/>

  <!-- Main line with glow -->
  <path d="M 60.00 340.00 L 64.46 339.66 L 68.92 339.09 L 73.38 338.56 L 77.83 337.51 L 82.29 336.43 L 86.75 335.57 L 91.21 334.77 L 95.67 334.06 L 100.13 333.23 L 104.59 332.30 L 109.04 331.31 L 113.50 330.40 L 117.96 329.44 L 122.42 328.74 L 126.88 328.02 L 131.34 327.03 L 135.80 326.37 L 140.25 325.46 L 144.71 324.40 L 149.17 323.61 L 153.63 322.96 L 158.09 322.53 L 162.55 322.18 L 167.01 321.53 L 171.46 321.07 L 175.92 320.05 L 180.38 319.65 L 184.84 319.14 L 189.30 318.47 L 193.76 318.02 L 198.22 317.55 L 202.68 317.07 L 207.13 316.73 L 211.59 316.44 L 216.05 315.99 L 220.51 315.45 L 224.97 314.95 L 229.43 314.32 L 233.89 313.64 L 238.34 313.01 L 242.80 312.25 L 247.26 311.50 L 251.72 310.75 L 256.18 309.94 L 260.64 309.16 L 265.10 308.27 L 269.55 307.47 L 274.01 306.80 L 278.47 306.26 L 282.93 305.50 L 287.39 304.64 L 291.85 303.86 L 296.31 302.94 L 300.76 301.80 L 305.22 300.96 L 309.68 300.26 L 314.14 299.59 L 318.60 298.79 L 323.06 297.86 L 327.52 296.83 L 331.97 295.74 L 336.43 294.70 L 340.89 293.79 L 345.35 292.88 L 349.81 292.08 L 354.27 291.26 L 358.73 290.35 L 363.18 289.21 L 367.64 288.37 L 372.10 287.61 L 376.56 286.77 L 381.02 285.98 L 385.48 285.12 L 389.94 284.22 L 394.39 283.28 L 398.85 282.46 L 403.31 281.75 L 407.77 280.98 L 412.23 280.14 L 416.69 279.36 L 421.15 278.35 L 425.61 277.48 L 430.06 276.65 L 434.52 275.95 L 438.98 275.28 L 443.44 274.60 L 447.90 273.79 L 452.36 272.95 L 456.82 271.94 L 461.27 271.12 L 465.73 270.46 L 470.19 269.77 L 474.65 269.11 L 479.11 268.30 L 483.57 267.47 L 488.03 265.62 L 492.48 261.96 L 496.94 257.59 L 501.40 253.62 L 505.86 251.60 L 510.32 248.56 L 514.78 246.54 L 519.24 244.77 L 523.69 243.04 L 528.15 241.41 L 532.61 238.87 L 537.07 236.85 L 541.53 234.27 L 545.99 233.75 L 550.45 233.68 L 554.90 233.59 L 559.36 233.51 L 563.82 233.42 L 568.28 233.33 L 572.74 233.29 L 577.20 233.17 L 581.66 233.05 L 586.11 232.97 L 590.57 232.94 L 595.03 232.80 L 599.49 229.50 L 603.95 224.31 L 608.41 220.84 L 612.87 216.81 L 617.32 212.66 L 621.78 209.40 L 626.24 205.76 L 630.70 200.20 L 635.16 192.72 L 639.62 187.84 L 644.08 182.03 L 648.54 175.55 L 652.99 170.36 L 657.45 164.72 L 661.91 159.72 L 666.37 154.77 L 670.83 149.83 L 675.29 143.10 L 679.75 136.35 L 684.20 130.73 L 688.66 126.01 L 693.12 121.44 L 697.58 115.37 L 702.04 110.66 L 706.50 106.00 L 710.96 101.65 L 715.41 97.54 L 719.87 93.34 L 724.33 89.75 L 728.79 86.03 L 733.25 82.23 L 737.71 78.21 L 742.17 74.52 L 746.62 71.15 L 751.08 65.03 L 755.54 59.92 L 760.00 55.00" fill="none" stroke="#3b82f6" stroke-width="3"
        stroke-linecap="round" stroke-linejoin="round" filter="url(#glow)" class="line-path"/>

  <!-- Data points -->
  
    <circle cx="60" cy="340" r="4" fill="#3b82f6" stroke="#0d1117" stroke-width="2" class="data-point"/>
  
    <circle cx="64.45859872611464" cy="339.66455554310056" r="4" fill="#3b82f6" stroke="#0d1117" stroke-width="2" class="data-point"/>
  
    <circle cx="68.9171974522293" cy="339.0940717728634" r="4" fill="#3b82f6" stroke="#0d1117" stroke-width="2" class="data-point"/>
  
    <circle cx="73.37579617834395" cy="338.5646628340833" r="4" fill="#3b82f6" stroke="#0d1117" stroke-width="2" class="data-point"/>
  
    <circle cx="77.8343949044586" cy="337.51269076176595" r="4" fill="#3b82f6" stroke="#0d1117" stroke-width="2" class="data-point"/>
  
    <circle cx="82.29299363057325" cy="336.4264896632344" r="4" fill="#3b82f6" stroke="#0d1117" stroke-width="2" class="data-point"/>
  
    <circle cx="86.7515923566879" cy="335.57076400787867" r="4" fill="#3b82f6" stroke="#0d1117" stroke-width="2" class="data-point"/>
  
    <circle cx="91.21019108280254" cy="334.77208672954663" r="4" fill="#3b82f6" stroke="#0d1117" stroke-width="2" class="data-point"/>
  
    <circle cx="95.6687898089172" cy="334.0624049193716" r="4" fill="#3b82f6" stroke="#0d1117" stroke-width="2" class="data-point"/>
  
    <circle cx="100.12738853503186" cy="333.2294986148254" r="4" fill="#3b82f6" stroke="#0d1117" stroke-width="2" class="data-point"/>
  
    <circle cx="104.5859872611465" cy="332.30075103687926" r="4" fill="#3b82f6" stroke="#0d1117" stroke-width="2" class="data-point"/>
  
    <circle cx="109.04458598726114" cy="331.30582734158565" r="4" fill="#3b82f6" stroke="#0d1117" stroke-width="2" class="data-point"/>
  
    <circle cx="113.50318471337579" cy="330.40218104953" r="4" fill="#3b82f6" stroke="#0d1117" stroke-width="2" class="data-point"/>
  
    <circle cx="117.96178343949043" cy="329.4414863804506" r="4" fill="#3b82f6" stroke="#0d1117" stroke-width="2" class="data-point"/>
  
    <circle cx="122.42038216560509" cy="328.74093231059936" r="4" fill="#3b82f6" stroke="#0d1117" stroke-width="2" class="data-point"/>
  
    <circle cx="126.87898089171975" cy="328.0152769548577" r="4" fill="#3b82f6" stroke="#0d1117" stroke-width="2" class="data-point"/>
  
    <circle cx="131.3375796178344" cy="327.0294809998879" r="4" fill="#3b82f6" stroke="#0d1117" stroke-width="2" class="data-point"/>
  
    <circle cx="135.79617834394907" cy="326.37000176149377" r="4" fill="#3b82f6" stroke="#0d1117" stroke-width="2" class="data-point"/>
  
    <circle cx="140.2547770700637" cy="325.45722772911427" r="4" fill="#3b82f6" stroke="#0d1117" stroke-width="2" class="data-point"/>
  
    <circle cx="144.71337579617835" cy="324.402973721716" r="4" fill="#3b82f6" stroke="#0d1117" stroke-width="2" class="data-point"/>
  
    <circle cx="149.171974522293" cy="323.6088603135459" r="4" fill="#3b82f6" stroke="#0d1117" stroke-width="2" class="data-point"/>
  
    <circle cx="153.63057324840764" cy="322.9562268803946" r="4" fill="#3b82f6" stroke="#0d1117" stroke-width="2" class="data-point"/>
  
    <circle cx="158.0891719745223" cy="322.53406889041906" r="4" fill="#3b82f6" stroke="#0d1117" stroke-width="2" class="data-point"/>
  
    <circle cx="162.54777070063693" cy="322.182650887953" r="4" fill="#3b82f6" stroke="#0d1117" stroke-width="2" class="data-point"/>
  
    <circle cx="167.00636942675158" cy="321.5322993898826" r="4" fill="#3b82f6" stroke="#0d1117" stroke-width="2" class="data-point"/>
  
    <circle cx="171.46496815286622" cy="321.06906656845007" r="4" fill="#3b82f6" stroke="#0d1117" stroke-width="2" class="data-point"/>
  
    <circle cx="175.92356687898086" cy="320.0536054574279" r="4" fill="#3b82f6" stroke="#0d1117" stroke-width="2" class="data-point"/>
  
    <circle cx="180.38216560509554" cy="319.6542668182619" r="4" fill="#3b82f6" stroke="#0d1117" stroke-width="2" class="data-point"/>
  
    <circle cx="184.84076433121018" cy="319.1385494899675" r="4" fill="#3b82f6" stroke="#0d1117" stroke-width="2" class="data-point"/>
  
    <circle cx="189.29936305732483" cy="318.4722244463305" r="4" fill="#3b82f6" stroke="#0d1117" stroke-width="2" class="data-point"/>
  
    <circle cx="193.7579617834395" cy="318.0158374301408" r="4" fill="#3b82f6" stroke="#0d1117" stroke-width="2" class="data-point"/>
  
    <circle cx="198.21656050955414" cy="317.5526046087082" r="4" fill="#3b82f6" stroke="#0d1117" stroke-width="2" class="data-point"/>
  
    <circle cx="202.6751592356688" cy="317.0665524364661" r="4" fill="#3b82f6" stroke="#0d1117" stroke-width="2" class="data-point"/>
  
    <circle cx="207.13375796178346" cy="316.72882604448574" r="4" fill="#3b82f6" stroke="#0d1117" stroke-width="2" class="data-point"/>
  
    <circle cx="211.5923566878981" cy="316.4367383541243" r="4" fill="#3b82f6" stroke="#0d1117" stroke-width="2" class="data-point"/>
  
    <circle cx="216.05095541401275" cy="315.9917610133393" r="4" fill="#3b82f6" stroke="#0d1117" stroke-width="2" class="data-point"/>
  
    <circle cx="220.5095541401274" cy="315.4509423991545" r="4" fill="#3b82f6" stroke="#0d1117" stroke-width="2" class="data-point"/>
  
    <circle cx="224.96815286624204" cy="314.95348055150765" r="4" fill="#3b82f6" stroke="#0d1117" stroke-width="2" class="data-point"/>
  
    <circle cx="229.42675159235668" cy="314.32366646916586" r="4" fill="#3b82f6" stroke="#0d1117" stroke-width="2" class="data-point"/>
  
    <circle cx="233.88535031847132" cy="313.6368040098003" r="4" fill="#3b82f6" stroke="#0d1117" stroke-width="2" class="data-point"/>
  
    <circle cx="238.343949044586" cy="313.0069899274585" r="4" fill="#3b82f6" stroke="#0d1117" stroke-width="2" class="data-point"/>
  
    <circle cx="242.80254777070064" cy="312.24710554550256" r="4" fill="#3b82f6" stroke="#0d1117" stroke-width="2" class="data-point"/>
  
    <circle cx="247.2611464968153" cy="311.5009127740324" r="4" fill="#3b82f6" stroke="#0d1117" stroke-width="2" class="data-point"/>
  
    <circle cx="251.71974522292993" cy="310.7547200025622" r="4" fill="#3b82f6" stroke="#0d1117" stroke-width="2" class="data-point"/>
  
    <circle cx="256.1783439490446" cy="309.93778724358253" r="4" fill="#3b82f6" stroke="#0d1117" stroke-width="2" class="data-point"/>
  
    <circle cx="260.6369426751592" cy="309.1573654458981" r="4" fill="#3b82f6" stroke="#0d1117" stroke-width="2" class="data-point"/>
  
    <circle cx="265.09554140127386" cy="308.2651288292472" r="4" fill="#3b82f6" stroke="#0d1117" stroke-width="2" class="data-point"/>
  
    <circle cx="269.55414012738856" cy="307.46873348599615" r="4" fill="#3b82f6" stroke="#0d1117" stroke-width="2" class="data-point"/>
  
    <circle cx="274.01273885350315" cy="306.7955626371163" r="4" fill="#3b82f6" stroke="#0d1117" stroke-width="2" class="data-point"/>
  
    <circle cx="278.47133757961785" cy="306.2570259580124" r="4" fill="#3b82f6" stroke="#0d1117" stroke-width="2" class="data-point"/>
  
    <circle cx="282.92993630573244" cy="305.50398738129934" r="4" fill="#3b82f6" stroke="#0d1117" stroke-width="2" class="data-point"/>
  
    <circle cx="287.38853503184714" cy="304.6436978557817" r="4" fill="#3b82f6" stroke="#0d1117" stroke-width="2" class="data-point"/>
  
    <circle cx="291.8471337579617" cy="303.8564302528544" r="4" fill="#3b82f6" stroke="#0d1117" stroke-width="2" class="data-point"/>
  
    <circle cx="296.30573248407643" cy="302.9368104152321" r="4" fill="#3b82f6" stroke="#0d1117" stroke-width="2" class="data-point"/>
  
    <circle cx="300.7643312101911" cy="301.80268868000064" r="4" fill="#3b82f6" stroke="#0d1117" stroke-width="2" class="data-point"/>
  
    <circle cx="305.2229299363057" cy="300.95837270004967" r="4" fill="#3b82f6" stroke="#0d1117" stroke-width="2" class="data-point"/>
  
    <circle cx="309.68152866242036" cy="300.2578186301984" r="4" fill="#3b82f6" stroke="#0d1117" stroke-width="2" class="data-point"/>
  
    <circle cx="314.140127388535" cy="299.5914935865614" r="4" fill="#3b82f6" stroke="#0d1117" stroke-width="2" class="data-point"/>
  
    <circle cx="318.59872611464965" cy="298.79053437314843" r="4" fill="#3b82f6" stroke="#0d1117" stroke-width="2" class="data-point"/>
  
    <circle cx="323.05732484076435" cy="297.8595048601214" r="4" fill="#3b82f6" stroke="#0d1117" stroke-width="2" class="data-point"/>
  
    <circle cx="327.515923566879" cy="296.8280702035326" r="4" fill="#3b82f6" stroke="#0d1117" stroke-width="2" class="data-point"/>
  
    <circle cx="331.97452229299364" cy="295.744151040082" r="4" fill="#3b82f6" stroke="#0d1117" stroke-width="2" class="data-point"/>
  
    <circle cx="336.4331210191083" cy="294.7035886431694" r="4" fill="#3b82f6" stroke="#0d1117" stroke-width="2" class="data-point"/>
  
    <circle cx="340.89171974522293" cy="293.788532675709" r="4" fill="#3b82f6" stroke="#0d1117" stroke-width="2" class="data-point"/>
  
    <circle cx="345.3503184713376" cy="292.8803225134914" r="4" fill="#3b82f6" stroke="#0d1117" stroke-width="2" class="data-point"/>
  
    <circle cx="349.8089171974522" cy="292.07936330007846" r="4" fill="#3b82f6" stroke="#0d1117" stroke-width="2" class="data-point"/>
  
    <circle cx="354.2675159235669" cy="291.26243054109887" r="4" fill="#3b82f6" stroke="#0d1117" stroke-width="2" class="data-point"/>
  
    <circle cx="358.72611464968156" cy="290.34965650871936" r="4" fill="#3b82f6" stroke="#0d1117" stroke-width="2" class="data-point"/>
  
    <circle cx="363.1847133757962" cy="289.21325283840696" r="4" fill="#3b82f6" stroke="#0d1117" stroke-width="2" class="data-point"/>
  
    <circle cx="367.64331210191085" cy="288.366654923375" r="4" fill="#3b82f6" stroke="#0d1117" stroke-width="2" class="data-point"/>
  
    <circle cx="372.1019108280255" cy="287.6090524765001" r="4" fill="#3b82f6" stroke="#0d1117" stroke-width="2" class="data-point"/>
  
    <circle cx="376.56050955414014" cy="286.76701843163005" r="4" fill="#3b82f6" stroke="#0d1117" stroke-width="2" class="data-point"/>
  
    <circle cx="381.0191082802548" cy="285.9820327637837" r="4" fill="#3b82f6" stroke="#0d1117" stroke-width="2" class="data-point"/>
  
    <circle cx="385.4777070063694" cy="285.1194613031851" r="4" fill="#3b82f6" stroke="#0d1117" stroke-width="2" class="data-point"/>
  
    <circle cx="389.9363057324841" cy="284.22037888129137" r="4" fill="#3b82f6" stroke="#0d1117" stroke-width="2" class="data-point"/>
  
    <circle cx="394.3949044585987" cy="283.2802216279405" r="4" fill="#3b82f6" stroke="#0d1117" stroke-width="2" class="data-point"/>
  
    <circle cx="398.85350318471336" cy="282.45644306371804" r="4" fill="#3b82f6" stroke="#0d1117" stroke-width="2" class="data-point"/>
  
    <circle cx="403.312101910828" cy="281.7513251237049" r="4" fill="#3b82f6" stroke="#0d1117" stroke-width="2" class="data-point"/>
  
    <circle cx="407.77070063694265" cy="280.9777491312633" r="4" fill="#3b82f6" stroke="#0d1117" stroke-width="2" class="data-point"/>
  
    <circle cx="412.22929936305735" cy="280.14027895655516" r="4" fill="#3b82f6" stroke="#0d1117" stroke-width="2" class="data-point"/>
  
    <circle cx="416.687898089172" cy="279.3644210290326" r="4" fill="#3b82f6" stroke="#0d1117" stroke-width="2" class="data-point"/>
  
    <circle cx="421.14649681528664" cy="278.35352378817237" r="4" fill="#3b82f6" stroke="#0d1117" stroke-width="2" class="data-point"/>
  
    <circle cx="425.6050955414013" cy="277.48410652233093" r="4" fill="#3b82f6" stroke="#0d1117" stroke-width="2" class="data-point"/>
  
    <circle cx="430.0636942675159" cy="276.6466363476228" r="4" fill="#3b82f6" stroke="#0d1117" stroke-width="2" class="data-point"/>
  
    <circle cx="434.5222929936306" cy="275.9506461479334" r="4" fill="#3b82f6" stroke="#0d1117" stroke-width="2" class="data-point"/>
  
    <circle cx="438.9808917197452" cy="275.2751933639727" r="4" fill="#3b82f6" stroke="#0d1117" stroke-width="2" class="data-point"/>
  
    <circle cx="443.43949044585986" cy="274.5974586449309" r="4" fill="#3b82f6" stroke="#0d1117" stroke-width="2" class="data-point"/>
  
    <circle cx="447.8980891719745" cy="273.78737169119415" r="4" fill="#3b82f6" stroke="#0d1117" stroke-width="2" class="data-point"/>
  
    <circle cx="452.35668789808915" cy="272.9544653866479" r="4" fill="#3b82f6" stroke="#0d1117" stroke-width="2" class="data-point"/>
  
    <circle cx="456.8152866242038" cy="271.94356814578765" r="4" fill="#3b82f6" stroke="#0d1117" stroke-width="2" class="data-point"/>
  
    <circle cx="461.27388535031844" cy="271.1243534517271" r="4" fill="#3b82f6" stroke="#0d1117" stroke-width="2" class="data-point"/>
  
    <circle cx="465.7324840764331" cy="270.4557464730091" r="4" fill="#3b82f6" stroke="#0d1117" stroke-width="2" class="data-point"/>
  
    <circle cx="470.1910828025478" cy="269.76888401364357" r="4" fill="#3b82f6" stroke="#0d1117" stroke-width="2" class="data-point"/>
  
    <circle cx="474.6496815286624" cy="269.11168671033033" r="4" fill="#3b82f6" stroke="#0d1117" stroke-width="2" class="data-point"/>
  
    <circle cx="479.10828025477707" cy="268.29931782151266" r="4" fill="#3b82f6" stroke="#0d1117" stroke-width="2" class="data-point"/>
  
    <circle cx="483.5668789808917" cy="267.4664115169664" r="4" fill="#3b82f6" stroke="#0d1117" stroke-width="2" class="data-point"/>
  
    <circle cx="488.02547770700636" cy="265.6248899066408" r="4" fill="#3b82f6" stroke="#0d1117" stroke-width="2" class="data-point"/>
  
    <circle cx="492.484076433121" cy="261.9601021666373" r="4" fill="#3b82f6" stroke="#0d1117" stroke-width="2" class="data-point"/>
  
    <circle cx="496.94267515923565" cy="257.59476035678256" r="4" fill="#3b82f6" stroke="#0d1117" stroke-width="2" class="data-point"/>
  
    <circle cx="501.4012738853503" cy="253.61734751068906" r="4" fill="#3b82f6" stroke="#0d1117" stroke-width="2" class="data-point"/>
  
    <circle cx="505.85987261146494" cy="251.60011689913046" r="4" fill="#3b82f6" stroke="#0d1117" stroke-width="2" class="data-point"/>
  
    <circle cx="510.3184713375796" cy="248.56057937130686" r="4" fill="#3b82f6" stroke="#0d1117" stroke-width="2" class="data-point"/>
  
    <circle cx="514.7770700636943" cy="246.54106682466733" r="4" fill="#3b82f6" stroke="#0d1117" stroke-width="2" class="data-point"/>
  
    <circle cx="519.2356687898089" cy="244.77028520185118" r="4" fill="#3b82f6" stroke="#0d1117" stroke-width="2" class="data-point"/>
  
    <circle cx="523.6942675159235" cy="243.03829647541113" r="4" fill="#3b82f6" stroke="#0d1117" stroke-width="2" class="data-point"/>
  
    <circle cx="528.1528662420383" cy="241.40671289253288" r="4" fill="#3b82f6" stroke="#0d1117" stroke-width="2" class="data-point"/>
  
    <circle cx="532.6114649681529" cy="238.86920108251798" r="4" fill="#3b82f6" stroke="#0d1117" stroke-width="2" class="data-point"/>
  
    <circle cx="537.0700636942674" cy="236.85197047095937" r="4" fill="#3b82f6" stroke="#0d1117" stroke-width="2" class="data-point"/>
  
    <circle cx="541.5286624203821" cy="234.27338382948741" r="4" fill="#3b82f6" stroke="#0d1117" stroke-width="2" class="data-point"/>
  
    <circle cx="545.9872611464968" cy="233.74625682578827" r="4" fill="#3b82f6" stroke="#0d1117" stroke-width="2" class="data-point"/>
  
    <circle cx="550.4458598726114" cy="233.67779877335983" r="4" fill="#3b82f6" stroke="#0d1117" stroke-width="2" class="data-point"/>
  
    <circle cx="554.904458598726" cy="233.58880330520282" r="4" fill="#3b82f6" stroke="#0d1117" stroke-width="2" class="data-point"/>
  
    <circle cx="559.3630573248407" cy="233.5134994475315" r="4" fill="#3b82f6" stroke="#0d1117" stroke-width="2" class="data-point"/>
  
    <circle cx="563.8216560509554" cy="233.41537623905072" r="4" fill="#3b82f6" stroke="#0d1117" stroke-width="2" class="data-point"/>
  
    <circle cx="568.28025477707" cy="233.32866270597466" r="4" fill="#3b82f6" stroke="#0d1117" stroke-width="2" class="data-point"/>
  
    <circle cx="572.7388535031847" cy="233.29443367976043" r="4" fill="#3b82f6" stroke="#0d1117" stroke-width="2" class="data-point"/>
  
    <circle cx="577.1974522292993" cy="233.16892725030826" r="4" fill="#3b82f6" stroke="#0d1117" stroke-width="2" class="data-point"/>
  
    <circle cx="581.656050955414" cy="233.04798469101797" r="4" fill="#3b82f6" stroke="#0d1117" stroke-width="2" class="data-point"/>
  
    <circle cx="586.1146496815287" cy="232.9681169631848" r="4" fill="#3b82f6" stroke="#0d1117" stroke-width="2" class="data-point"/>
  
    <circle cx="590.5732484076434" cy="232.93845180713242" r="4" fill="#3b82f6" stroke="#0d1117" stroke-width="2" class="data-point"/>
  
    <circle cx="595.031847133758" cy="232.80381763735647" r="4" fill="#3b82f6" stroke="#0d1117" stroke-width="2" class="data-point"/>
  
    <circle cx="599.4904458598727" cy="229.49501176998095" r="4" fill="#3b82f6" stroke="#0d1117" stroke-width="2" class="data-point"/>
  
    <circle cx="603.9490445859873" cy="224.31273720114655" r="4" fill="#3b82f6" stroke="#0d1117" stroke-width="2" class="data-point"/>
  
    <circle cx="608.407643312102" cy="220.84191394302368" r="4" fill="#3b82f6" stroke="#0d1117" stroke-width="2" class="data-point"/>
  
    <circle cx="612.8662420382166" cy="216.81201659006837" r="4" fill="#3b82f6" stroke="#0d1117" stroke-width="2" class="data-point"/>
  
    <circle cx="617.3248407643313" cy="212.65889474274184" r="4" fill="#3b82f6" stroke="#0d1117" stroke-width="2" class="data-point"/>
  
    <circle cx="621.7834394904459" cy="209.4002914471472" r="4" fill="#3b82f6" stroke="#0d1117" stroke-width="2" class="data-point"/>
  
    <circle cx="626.2420382165606" cy="205.75604112287218" r="4" fill="#3b82f6" stroke="#0d1117" stroke-width="2" class="data-point"/>
  
    <circle cx="630.7006369426751" cy="200.20409307092416" r="4" fill="#3b82f6" stroke="#0d1117" stroke-width="2" class="data-point"/>
  
    <circle cx="635.1592356687898" cy="192.72162794049353" r="4" fill="#3b82f6" stroke="#0d1117" stroke-width="2" class="data-point"/>
  
    <circle cx="639.6178343949044" cy="187.83828686726343" r="4" fill="#3b82f6" stroke="#0d1117" stroke-width="2" class="data-point"/>
  
    <circle cx="644.0764331210191" cy="182.02619821608724" r="4" fill="#3b82f6" stroke="#0d1117" stroke-width="2" class="data-point"/>
  
    <circle cx="648.5350318471338" cy="175.55006645635498" r="4" fill="#3b82f6" stroke="#0d1117" stroke-width="2" class="data-point"/>
  
    <circle cx="652.9936305732484" cy="170.35638221211585" r="4" fill="#3b82f6" stroke="#0d1117" stroke-width="2" class="data-point"/>
  
    <circle cx="657.4522292993631" cy="164.7200025621727" r="4" fill="#3b82f6" stroke="#0d1117" stroke-width="2" class="data-point"/>
  
    <circle cx="661.9108280254777" cy="159.72028279981424" r="4" fill="#3b82f6" stroke="#0d1117" stroke-width="2" class="data-point"/>
  
    <circle cx="666.3694267515924" cy="154.76620173907475" r="4" fill="#3b82f6" stroke="#0d1117" stroke-width="2" class="data-point"/>
  
    <circle cx="670.828025477707" cy="149.8258122888209" r="4" fill="#3b82f6" stroke="#0d1117" stroke-width="2" class="data-point"/>
  
    <circle cx="675.2866242038217" cy="143.0986676701843" r="4" fill="#3b82f6" stroke="#0d1117" stroke-width="2" class="data-point"/>
  
    <circle cx="679.7452229299363" cy="136.35098563581917" r="4" fill="#3b82f6" stroke="#0d1117" stroke-width="2" class="data-point"/>
  
    <circle cx="684.203821656051" cy="130.72601566128077" r="4" fill="#3b82f6" stroke="#0d1117" stroke-width="2" class="data-point"/>
  
    <circle cx="688.6624203821656" cy="126.01153778404085" r="4" fill="#3b82f6" stroke="#0d1117" stroke-width="2" class="data-point"/>
  
    <circle cx="693.1210191082803" cy="121.43853988181976" r="4" fill="#3b82f6" stroke="#0d1117" stroke-width="2" class="data-point"/>
  
    <circle cx="697.5796178343949" cy="115.36859256649637" r="4" fill="#3b82f6" stroke="#0d1117" stroke-width="2" class="data-point"/>
  
    <circle cx="702.0382165605096" cy="110.66096049449934" r="4" fill="#3b82f6" stroke="#0d1117" stroke-width="2" class="data-point"/>
  
    <circle cx="706.4968152866243" cy="106.00353099428315" r="4" fill="#3b82f6" stroke="#0d1117" stroke-width="2" class="data-point"/>
  
    <circle cx="710.9554140127389" cy="101.6473169247522" r="4" fill="#3b82f6" stroke="#0d1117" stroke-width="2" class="data-point"/>
  
    <circle cx="715.4140127388536" cy="97.54439764920653" r="4" fill="#3b82f6" stroke="#0d1117" stroke-width="2" class="data-point"/>
  
    <circle cx="719.8726114649681" cy="93.34107323009911" r="4" fill="#3b82f6" stroke="#0d1117" stroke-width="2" class="data-point"/>
  
    <circle cx="724.3312101910828" cy="89.747025477605" r="4" fill="#3b82f6" stroke="#0d1117" stroke-width="2" class="data-point"/>
  
    <circle cx="728.7898089171974" cy="86.02518936057777" r="4" fill="#3b82f6" stroke="#0d1117" stroke-width="2" class="data-point"/>
  
    <circle cx="733.2484076433121" cy="82.22576745079829" r="4" fill="#3b82f6" stroke="#0d1117" stroke-width="2" class="data-point"/>
  
    <circle cx="737.7070063694267" cy="78.20956170832864" r="4" fill="#3b82f6" stroke="#0d1117" stroke-width="2" class="data-point"/>
  
    <circle cx="742.1656050955414" cy="74.52423655259662" r="4" fill="#3b82f6" stroke="#0d1117" stroke-width="2" class="data-point"/>
  
    <circle cx="746.624203821656" cy="71.14925456787353" r="4" fill="#3b82f6" stroke="#0d1117" stroke-width="2" class="data-point"/>
  
    <circle cx="751.0828025477707" cy="65.03366855093117" r="4" fill="#3b82f6" stroke="#0d1117" stroke-width="2" class="data-point"/>
  
    <circle cx="755.5414012738853" cy="59.9152881643634" r="4" fill="#3b82f6" stroke="#0d1117" stroke-width="2" class="data-point"/>
  
    <circle cx="760" cy="55" r="4" fill="#3b82f6" stroke="#0d1117" stroke-width="2" class="data-point"/>
  

  <!-- Axis lines -->
  <line x1="60" y1="55" x2="60" y2="340"
        stroke="#30363d" stroke-width="2"/>
  <line x1="60" y1="340" x2="760" y2="340"
        stroke="#30363d" stroke-width="2"/>
</svg>