<?xml version="1.0" encoding="UTF-8"?>
<svg width="800" height="400" xmlns="http://www.w3.org/2000/svg">
  <defs>
    <!-- Gradient for area fill -->
    <linearGradient id="areaGradient" x1="0%" y1="0%" x2="0%" y2="100%">
      <stop offset="0%" style="stop-color:#3b82f6;stop-opacity:0.3" />
      <stop offset="100%" style="stop-color:#3b82f6;stop-opacity:0.05" />
    </linearGradient>

    <!-- Glow filter for line -->
    <filter id="glow">
      <feGaussianBlur stdDeviation="2" result="coloredBlur"/>
      <feMerge>
        <feMergeNode in="coloredBlur"/>
        <feMergeNode in="SourceGraphic"/>
      </feMerge>
    </filter>

    <!-- Animation -->
    <style>
      @keyframes draw {
        from { stroke-dashoffset: 2000; }
        to { stroke-dashoffset: 0; }
      }
      @keyframes fadeIn {
        from { opacity: 0; }
        to { opacity: 1; }
      }
      .line-path {
        stroke-dasharray: 2000;
        stroke-dashoffset: 2000;
        animation: draw 1.5s ease-out forwards;
      }
      .area-path {
        opacity: 0;
        animation: fadeIn 1s ease-out 0.5s forwards;
      }
      .data-point {
        opacity: 0;
        animation: fadeIn 0.5s ease-out 1s forwards;
      }
    </style>
  </defs>

  <!-- Background -->
  <rect width="800" height="400" fill="#0d1117" rx="8"/>

  <!-- Title -->
  <text x="400" y="25" text-anchor="middle" fill="#c9d1d9" font-family="system-ui, -apple-system, sans-serif" font-size="16" font-weight="600">
    zxcloli666/SoundCloud-Desktop Downloads
  </text>

  <!-- Stats -->
  <text x="780" y="25" text-anchor="end" fill="#58a6ff" font-family="system-ui, -apple-system, sans-serif" font-size="14" font-weight="600">
    137.0K total
  </text>
  <text x="780" y="42" text-anchor="end" fill="#3fb950" font-family="system-ui, -apple-system, sans-serif" font-size="12">
    +2.5K (+1.8%)
  </text>

  <!-- Grid lines -->
  <g opacity="0.1">
    
      <line x1="60" y1="340" x2="760" y2="340"
            stroke="#c9d1d9" stroke-width="1"/>
    
      <line x1="60" y1="268.75" x2="760" y2="268.75"
            stroke="#c9d1d9" stroke-width="1"/>
    
      <line x1="60" y1="197.5" x2="760" y2="197.5"
            stroke="#c9d1d9" stroke-width="1"/>
    
      <line x1="60" y1="126.25" x2="760" y2="126.25"
            stroke="#c9d1d9" stroke-width="1"/>
    
      <line x1="60" y1="55" x2="760" y2="55"
            stroke="#c9d1d9" stroke-width="1"/>
    
  </g>

  <!-- Y-axis labels -->
  
    <text x="50" y="344" text-anchor="end"
          fill="#8b949e" font-family="system-ui, -apple-system, sans-serif" font-size="11">
      60.2K
    </text>
  
    <text x="50" y="272.75" text-anchor="end"
          fill="#8b949e" font-family="system-ui, -apple-system, sans-serif" font-size="11">
      79.4K
    </text>
  
    <text x="50" y="201.5" text-anchor="end"
          fill="#8b949e" font-family="system-ui, -apple-system, sans-serif" font-size="11">
      98.6K
    </text>
  
    <text x="50" y="130.25" text-anchor="end"
          fill="#8b949e" font-family="system-ui, -apple-system, sans-serif" font-size="11">
      117.8K
    </text>
  
    <text x="50" y="59" text-anchor="end"
          fill="#8b949e" font-family="system-ui, -apple-system, sans-serif" font-size="11">
      137.0K
    </text>
  

  <!-- X-axis labels -->
  
    <text x="60" y="360" text-anchor="middle"
          fill="#8b949e" font-family="system-ui, -apple-system, sans-serif" font-size="11">
      Nov 25
    </text>
  
    <text x="143.5820895522388" y="360" text-anchor="middle"
          fill="#8b949e" font-family="system-ui, -apple-system, sans-serif" font-size="11">
      Dec 11
    </text>
  
    <text x="227.1641791044776" y="360" text-anchor="middle"
          fill="#8b949e" font-family="system-ui, -apple-system, sans-serif" font-size="11">
      Dec 27
    </text>
  
    <text x="310.74626865671644" y="360" text-anchor="middle"
          fill="#8b949e" font-family="system-ui, -apple-system, sans-serif" font-size="11">
      Jan 12
    </text>
  
    <text x="394.3283582089552" y="360" text-anchor="middle"
          fill="#8b949e" font-family="system-ui, -apple-system, sans-serif" font-size="11">
      Jan 28
    </text>
  
    <text x="477.910447761194" y="360" text-anchor="middle"
          fill="#8b949e" font-family="system-ui, -apple-system, sans-serif" font-size="11">
      Feb 13
    </text>
  
    <text x="561.4925373134329" y="360" text-anchor="middle"
          fill="#8b949e" font-family="system-ui, -apple-system, sans-serif" font-size="11">
      Mar 1
    </text>
  
    <text x="645.0746268656716" y="360" text-anchor="middle"
          fill="#8b949e" font-family="system-ui, -apple-system, sans-serif" font-size="11">
      Mar 17
    </text>
  
    <text x="728.6567164179104" y="360" text-anchor="middle"
          fill="#8b949e" font-family="system-ui, -apple-system, sans-serif" font-size="11">
      Apr 2
    </text>
  
    <text x="760" y="360" text-anchor="middle"
          fill="#8b949e" font-family="system-ui, -apple-system, sans-serif" font-size="11">
      Apr 8
    </text>
  

  <!-- Area under line -->
  <path d="M 60 340
    L 60.00 340.00 L 65.22 339.45 L 70.45 338.53 L 75.67 337.67 L 80.90 335.96 L 86.12 334.19 L 91.34 332.80 L 96.57 331.50 L 101.79 330.35 L 107.01 328.99 L 112.24 327.48 L 117.46 325.86 L 122.69 324.39 L 127.91 322.83 L 133.13 321.69 L 138.36 320.51 L 143.58 318.91 L 148.81 317.84 L 154.03 316.35 L 159.25 314.64 L 164.48 313.35 L 169.70 312.29 L 174.93 311.60 L 180.15 311.03 L 185.37 309.97 L 190.60 309.22 L 195.82 307.57 L 201.04 306.92 L 206.27 306.08 L 211.49 305.00 L 216.72 304.25 L 221.94 303.50 L 227.16 302.71 L 232.39 302.16 L 237.61 301.69 L 242.84 300.96 L 248.06 300.08 L 253.28 299.28 L 258.51 298.25 L 263.73 297.13 L 268.96 296.11 L 274.18 294.87 L 279.40 293.66 L 284.63 292.45 L 289.85 291.12 L 295.07 289.85 L 300.30 288.40 L 305.52 287.11 L 310.75 286.01 L 315.97 285.13 L 321.19 283.91 L 326.42 282.51 L 331.64 281.23 L 336.87 279.74 L 342.09 277.89 L 347.31 276.52 L 352.54 275.38 L 357.76 274.30 L 362.99 272.99 L 368.21 271.48 L 373.43 269.80 L 378.66 268.04 L 383.88 266.35 L 389.10 264.86 L 394.33 263.38 L 399.55 262.08 L 404.78 260.75 L 410.00 259.27 L 415.22 257.42 L 420.45 256.05 L 425.67 254.81 L 430.90 253.44 L 436.12 252.17 L 441.34 250.77 L 446.57 249.30 L 451.79 247.78 L 457.01 246.44 L 462.24 245.29 L 467.46 244.03 L 472.69 242.67 L 477.91 241.41 L 483.13 239.76 L 488.36 238.35 L 493.58 236.99 L 498.81 235.86 L 504.03 234.76 L 509.25 233.66 L 514.48 232.34 L 519.70 230.99 L 524.93 229.34 L 530.15 228.01 L 535.37 226.92 L 540.60 225.81 L 545.82 224.74 L 551.04 223.42 L 556.27 222.06 L 561.49 219.07 L 566.72 213.11 L 571.94 206.01 L 577.16 199.54 L 582.39 196.26 L 587.61 191.32 L 592.84 188.04 L 598.06 185.16 L 603.28 182.34 L 608.51 179.69 L 613.73 175.56 L 618.96 172.28 L 624.18 168.09 L 629.40 167.23 L 634.63 167.12 L 639.85 166.98 L 645.07 166.86 L 650.30 166.70 L 655.52 166.56 L 660.75 166.50 L 665.97 166.30 L 671.19 166.10 L 676.42 165.97 L 681.64 165.92 L 686.87 165.70 L 692.09 160.32 L 697.31 151.90 L 702.54 146.25 L 707.76 139.70 L 712.99 132.95 L 718.21 127.65 L 723.43 121.72 L 728.66 112.70 L 733.88 100.53 L 739.10 92.59 L 744.33 83.14 L 749.55 72.61 L 754.78 64.16 L 760.00 55.00
    L 760 340
    Z" fill="url(#areaGradient)" class="area-path"/>

  <!-- Main line with glow -->
  <path d="M 60.00 340.00 L 65.22 339.45 L 70.45 338.53 L 75.67 337.67 L 80.90 335.96 L 86.12 334.19 L 91.34 332.80 L 96.57 331.50 L 101.79 330.35 L 107.01 328.99 L 112.24 327.48 L 117.46 325.86 L 122.69 324.39 L 127.91 322.83 L 133.13 321.69 L 138.36 320.51 L 143.58 318.91 L 148.81 317.84 L 154.03 316.35 L 159.25 314.64 L 164.48 313.35 L 169.70 312.29 L 174.93 311.60 L 180.15 311.03 L 185.37 309.97 L 190.60 309.22 L 195.82 307.57 L 201.04 306.92 L 206.27 306.08 L 211.49 305.00 L 216.72 304.25 L 221.94 303.50 L 227.16 302.71 L 232.39 302.16 L 237.61 301.69 L 242.84 300.96 L 248.06 300.08 L 253.28 299.28 L 258.51 298.25 L 263.73 297.13 L 268.96 296.11 L 274.18 294.87 L 279.40 293.66 L 284.63 292.45 L 289.85 291.12 L 295.07 289.85 L 300.30 288.40 L 305.52 287.11 L 310.75 286.01 L 315.97 285.13 L 321.19 283.91 L 326.42 282.51 L 331.64 281.23 L 336.87 279.74 L 342.09 277.89 L 347.31 276.52 L 352.54 275.38 L 357.76 274.30 L 362.99 272.99 L 368.21 271.48 L 373.43 269.80 L 378.66 268.04 L 383.88 266.35 L 389.10 264.86 L 394.33 263.38 L 399.55 262.08 L 404.78 260.75 L 410.00 259.27 L 415.22 257.42 L 420.45 256.05 L 425.67 254.81 L 430.90 253.44 L 436.12 252.17 L 441.34 250.77 L 446.57 249.30 L 451.79 247.78 L 457.01 246.44 L 462.24 245.29 L 467.46 244.03 L 472.69 242.67 L 477.91 241.41 L 483.13 239.76 L 488.36 238.35 L 493.58 236.99 L 498.81 235.86 L 504.03 234.76 L 509.25 233.66 L 514.48 232.34 L 519.70 230.99 L 524.93 229.34 L 530.15 228.01 L 535.37 226.92 L 540.60 225.81 L 545.82 224.74 L 551.04 223.42 L 556.27 222.06 L 561.49 219.07 L 566.72 213.11 L 571.94 206.01 L 577.16 199.54 L 582.39 196.26 L 587.61 191.32 L 592.84 188.04 L 598.06 185.16 L 603.28 182.34 L 608.51 179.69 L 613.73 175.56 L 618.96 172.28 L 624.18 168.09 L 629.40 167.23 L 634.63 167.12 L 639.85 166.98 L 645.07 166.86 L 650.30 166.70 L 655.52 166.56 L 660.75 166.50 L 665.97 166.30 L 671.19 166.10 L 676.42 165.97 L 681.64 165.92 L 686.87 165.70 L 692.09 160.32 L 697.31 151.90 L 702.54 146.25 L 707.76 139.70 L 712.99 132.95 L 718.21 127.65 L 723.43 121.72 L 728.66 112.70 L 733.88 100.53 L 739.10 92.59 L 744.33 83.14 L 749.55 72.61 L 754.78 64.16 L 760.00 55.00" fill="none" stroke="#3b82f6" stroke-width="3"
        stroke-linecap="round" stroke-linejoin="round" filter="url(#glow)" class="line-path"/>

  <!-- Data points -->
  
    <circle cx="60" cy="340" r="4" fill="#3b82f6" stroke="#0d1117" stroke-width="2" class="data-point"/>
  
    <circle cx="65.22388059701493" cy="339.45457740977974" r="4" fill="#3b82f6" stroke="#0d1117" stroke-width="2" class="data-point"/>
  
    <circle cx="70.44776119402985" cy="338.5269879706296" r="4" fill="#3b82f6" stroke="#0d1117" stroke-width="2" class="data-point"/>
  
    <circle cx="75.67164179104478" cy="337.6661849710983" r="4" fill="#3b82f6" stroke="#0d1117" stroke-width="2" class="data-point"/>
  
    <circle cx="80.8955223880597" cy="335.9557100453054" r="4" fill="#3b82f6" stroke="#0d1117" stroke-width="2" class="data-point"/>
  
    <circle cx="86.11940298507463" cy="334.18957975316357" r="4" fill="#3b82f6" stroke="#0d1117" stroke-width="2" class="data-point"/>
  
    <circle cx="91.34328358208955" cy="332.79819559443837" r="4" fill="#3b82f6" stroke="#0d1117" stroke-width="2" class="data-point"/>
  
    <circle cx="96.56716417910448" cy="331.4995703796282" r="4" fill="#3b82f6" stroke="#0d1117" stroke-width="2" class="data-point"/>
  
    <circle cx="101.7910447761194" cy="330.3456491173254" r="4" fill="#3b82f6" stroke="#0d1117" stroke-width="2" class="data-point"/>
  
    <circle cx="107.01492537313433" cy="328.99136853616625" r="4" fill="#3b82f6" stroke="#0d1117" stroke-width="2" class="data-point"/>
  
    <circle cx="112.23880597014926" cy="327.4812529292298" r="4" fill="#3b82f6" stroke="#0d1117" stroke-width="2" class="data-point"/>
  
    <circle cx="117.46268656716418" cy="325.863536947352" r="4" fill="#3b82f6" stroke="#0d1117" stroke-width="2" class="data-point"/>
  
    <circle cx="122.68656716417911" cy="324.39423527573814" r="4" fill="#3b82f6" stroke="#0d1117" stroke-width="2" class="data-point"/>
  
    <circle cx="127.91044776119404" cy="322.8321746602093" r="4" fill="#3b82f6" stroke="#0d1117" stroke-width="2" class="data-point"/>
  
    <circle cx="133.13432835820896" cy="321.693094828933" r="4" fill="#3b82f6" stroke="#0d1117" stroke-width="2" class="data-point"/>
  
    <circle cx="138.3582089552239" cy="320.513201062334" r="4" fill="#3b82f6" stroke="#0d1117" stroke-width="2" class="data-point"/>
  
    <circle cx="143.5820895522388" cy="318.9103265114826" r="4" fill="#3b82f6" stroke="#0d1117" stroke-width="2" class="data-point"/>
  
    <circle cx="148.80597014925374" cy="317.838033119825" r="4" fill="#3b82f6" stroke="#0d1117" stroke-width="2" class="data-point"/>
  
    <circle cx="154.02985074626866" cy="316.3538900171848" r="4" fill="#3b82f6" stroke="#0d1117" stroke-width="2" class="data-point"/>
  
    <circle cx="159.25373134328356" cy="314.63970473363537" r="4" fill="#3b82f6" stroke="#0d1117" stroke-width="2" class="data-point"/>
  
    <circle cx="164.47761194029852" cy="313.34850023433836" r="4" fill="#3b82f6" stroke="#0d1117" stroke-width="2" class="data-point"/>
  
    <circle cx="169.70149253731344" cy="312.2873379159506" r="4" fill="#3b82f6" stroke="#0d1117" stroke-width="2" class="data-point"/>
  
    <circle cx="174.92537313432837" cy="311.6009217309795" r="4" fill="#3b82f6" stroke="#0d1117" stroke-width="2" class="data-point"/>
  
    <circle cx="180.14925373134326" cy="311.02952663646306" r="4" fill="#3b82f6" stroke="#0d1117" stroke-width="2" class="data-point"/>
  
    <circle cx="185.37313432835822" cy="309.9720746758319" r="4" fill="#3b82f6" stroke="#0d1117" stroke-width="2" class="data-point"/>
  
    <circle cx="190.59701492537314" cy="309.218872051242" r="4" fill="#3b82f6" stroke="#0d1117" stroke-width="2" class="data-point"/>
  
    <circle cx="195.82089552238807" cy="307.56776284955475" r="4" fill="#3b82f6" stroke="#0d1117" stroke-width="2" class="data-point"/>
  
    <circle cx="201.044776119403" cy="306.9184502421497" r="4" fill="#3b82f6" stroke="#0d1117" stroke-width="2" class="data-point"/>
  
    <circle cx="206.2686567164179" cy="306.07990938915793" r="4" fill="#3b82f6" stroke="#0d1117" stroke-width="2" class="data-point"/>
  
    <circle cx="211.49253731343282" cy="304.9964849242306" r="4" fill="#3b82f6" stroke="#0d1117" stroke-width="2" class="data-point"/>
  
    <circle cx="216.71641791044777" cy="304.25441337291045" r="4" fill="#3b82f6" stroke="#0d1117" stroke-width="2" class="data-point"/>
  
    <circle cx="221.9402985074627" cy="303.5012107483206" r="4" fill="#3b82f6" stroke="#0d1117" stroke-width="2" class="data-point"/>
  
    <circle cx="227.1641791044776" cy="302.71090454616467" r="4" fill="#3b82f6" stroke="#0d1117" stroke-width="2" class="data-point"/>
  
    <circle cx="232.38805970149252" cy="302.1617715981878" r="4" fill="#3b82f6" stroke="#0d1117" stroke-width="2" class="data-point"/>
  
    <circle cx="237.61194029850748" cy="301.6868458053429" r="4" fill="#3b82f6" stroke="#0d1117" stroke-width="2" class="data-point"/>
  
    <circle cx="242.83582089552237" cy="300.9633260428058" r="4" fill="#3b82f6" stroke="#0d1117" stroke-width="2" class="data-point"/>
  
    <circle cx="248.0597014925373" cy="300.0839712544915" r="4" fill="#3b82f6" stroke="#0d1117" stroke-width="2" class="data-point"/>
  
    <circle cx="253.28358208955225" cy="299.27511326355256" r="4" fill="#3b82f6" stroke="#0d1117" stroke-width="2" class="data-point"/>
  
    <circle cx="258.5074626865671" cy="298.25105452273084" r="4" fill="#3b82f6" stroke="#0d1117" stroke-width="2" class="data-point"/>
  
    <circle cx="263.7313432835821" cy="297.1342368379941" r="4" fill="#3b82f6" stroke="#0d1117" stroke-width="2" class="data-point"/>
  
    <circle cx="268.95522388059703" cy="296.1101780971723" r="4" fill="#3b82f6" stroke="#0d1117" stroke-width="2" class="data-point"/>
  
    <circle cx="274.17910447761193" cy="294.87462896422437" r="4" fill="#3b82f6" stroke="#0d1117" stroke-width="2" class="data-point"/>
  
    <circle cx="279.4029850746269" cy="293.66134197781594" r="4" fill="#3b82f6" stroke="#0d1117" stroke-width="2" class="data-point"/>
  
    <circle cx="284.6268656716418" cy="292.4480549914076" r="4" fill="#3b82f6" stroke="#0d1117" stroke-width="2" class="data-point"/>
  
    <circle cx="289.85074626865674" cy="291.11974691454463" r="4" fill="#3b82f6" stroke="#0d1117" stroke-width="2" class="data-point"/>
  
    <circle cx="295.0746268656717" cy="289.85080456178724" r="4" fill="#3b82f6" stroke="#0d1117" stroke-width="2" class="data-point"/>
  
    <circle cx="300.29850746268653" cy="288.4000546789564" r="4" fill="#3b82f6" stroke="#0d1117" stroke-width="2" class="data-point"/>
  
    <circle cx="305.5223880597015" cy="287.1051398219028" r="4" fill="#3b82f6" stroke="#0d1117" stroke-width="2" class="data-point"/>
  
    <circle cx="310.74626865671644" cy="286.01058428370567" r="4" fill="#3b82f6" stroke="#0d1117" stroke-width="2" class="data-point"/>
  
    <circle cx="315.97014925373134" cy="285.13493985314796" r="4" fill="#3b82f6" stroke="#0d1117" stroke-width="2" class="data-point"/>
  
    <circle cx="321.1940298507463" cy="283.9105217934698" r="4" fill="#3b82f6" stroke="#0d1117" stroke-width="2" class="data-point"/>
  
    <circle cx="326.4179104477612" cy="282.5117169192314" r="4" fill="#3b82f6" stroke="#0d1117" stroke-width="2" class="data-point"/>
  
    <circle cx="331.64179104477614" cy="281.23164349320416" r="4" fill="#3b82f6" stroke="#0d1117" stroke-width="2" class="data-point"/>
  
    <circle cx="336.86567164179104" cy="279.7363693172942" r="4" fill="#3b82f6" stroke="#0d1117" stroke-width="2" class="data-point"/>
  
    <circle cx="342.089552238806" cy="277.8923215122637" r="4" fill="#3b82f6" stroke="#0d1117" stroke-width="2" class="data-point"/>
  
    <circle cx="347.3134328358209" cy="276.5194891423215" r="4" fill="#3b82f6" stroke="#0d1117" stroke-width="2" class="data-point"/>
  
    <circle cx="352.5373134328358" cy="275.3804093110451" r="4" fill="#3b82f6" stroke="#0d1117" stroke-width="2" class="data-point"/>
  
    <circle cx="357.76119402985074" cy="274.29698484611777" r="4" fill="#3b82f6" stroke="#0d1117" stroke-width="2" class="data-point"/>
  
    <circle cx="362.98507462686564" cy="272.994649273551" r="4" fill="#3b82f6" stroke="#0d1117" stroke-width="2" class="data-point"/>
  
    <circle cx="368.2089552238806" cy="271.480823308858" r="4" fill="#3b82f6" stroke="#0d1117" stroke-width="2" class="data-point"/>
  
    <circle cx="373.43283582089555" cy="269.80374160287454" r="4" fill="#3b82f6" stroke="#0d1117" stroke-width="2" class="data-point"/>
  
    <circle cx="378.65671641791045" cy="268.0413216684893" r="4" fill="#3b82f6" stroke="#0d1117" stroke-width="2" class="data-point"/>
  
    <circle cx="383.8805970149254" cy="266.34939853147944" r="4" fill="#3b82f6" stroke="#0d1117" stroke-width="2" class="data-point"/>
  
    <circle cx="389.1044776119403" cy="264.8615450710827" r="4" fill="#3b82f6" stroke="#0d1117" stroke-width="2" class="data-point"/>
  
    <circle cx="394.3283582089552" cy="263.38482268395563" r="4" fill="#3b82f6" stroke="#0d1117" stroke-width="2" class="data-point"/>
  
    <circle cx="399.55223880597015" cy="262.08248711138884" r="4" fill="#3b82f6" stroke="#0d1117" stroke-width="2" class="data-point"/>
  
    <circle cx="404.77611940298505" cy="260.75417903452586" r="4" fill="#3b82f6" stroke="#0d1117" stroke-width="2" class="data-point"/>
  
    <circle cx="410" cy="259.2700359318857" r="4" fill="#3b82f6" stroke="#0d1117" stroke-width="2" class="data-point"/>
  
    <circle cx="415.22388059701495" cy="257.42227776909857" r="4" fill="#3b82f6" stroke="#0d1117" stroke-width="2" class="data-point"/>
  
    <circle cx="420.4477611940299" cy="256.0457350413998" r="4" fill="#3b82f6" stroke="#0d1117" stroke-width="2" class="data-point"/>
  
    <circle cx="425.67164179104475" cy="254.81389626620842" r="4" fill="#3b82f6" stroke="#0d1117" stroke-width="2" class="data-point"/>
  
    <circle cx="430.8955223880597" cy="253.4447742540228" r="4" fill="#3b82f6" stroke="#0d1117" stroke-width="2" class="data-point"/>
  
    <circle cx="436.1194029850746" cy="252.16841118575223" r="4" fill="#3b82f6" stroke="#0d1117" stroke-width="2" class="data-point"/>
  
    <circle cx="441.34328358208955" cy="250.76589595375722" r="4" fill="#3b82f6" stroke="#0d1117" stroke-width="2" class="data-point"/>
  
    <circle cx="446.5671641791045" cy="249.30401499765662" r="4" fill="#3b82f6" stroke="#0d1117" stroke-width="2" class="data-point"/>
  
    <circle cx="451.79104477611935" cy="247.7753476019372" r="4" fill="#3b82f6" stroke="#0d1117" stroke-width="2" class="data-point"/>
  
    <circle cx="457.0149253731343" cy="246.4359084518044" r="4" fill="#3b82f6" stroke="#0d1117" stroke-width="2" class="data-point"/>
  
    <circle cx="462.23880597014926" cy="245.28940790501485" r="4" fill="#3b82f6" stroke="#0d1117" stroke-width="2" class="data-point"/>
  
    <circle cx="467.4626865671642" cy="244.03159662552727" r="4" fill="#3b82f6" stroke="#0d1117" stroke-width="2" class="data-point"/>
  
    <circle cx="472.6865671641791" cy="242.66989532885486" r="4" fill="#3b82f6" stroke="#0d1117" stroke-width="2" class="data-point"/>
  
    <circle cx="477.910447761194" cy="241.40837369161068" r="4" fill="#3b82f6" stroke="#0d1117" stroke-width="2" class="data-point"/>
  
    <circle cx="483.13432835820896" cy="239.76468520543665" r="4" fill="#3b82f6" stroke="#0d1117" stroke-width="2" class="data-point"/>
  
    <circle cx="488.35820895522386" cy="238.35103890017183" r="4" fill="#3b82f6" stroke="#0d1117" stroke-width="2" class="data-point"/>
  
    <circle cx="493.5820895522388" cy="236.98933760349945" r="4" fill="#3b82f6" stroke="#0d1117" stroke-width="2" class="data-point"/>
  
    <circle cx="498.80597014925377" cy="235.85767848773628" r="4" fill="#3b82f6" stroke="#0d1117" stroke-width="2" class="data-point"/>
  
    <circle cx="504.0298507462687" cy="234.75941259178254" r="4" fill="#3b82f6" stroke="#0d1117" stroke-width="2" class="data-point"/>
  
    <circle cx="509.25373134328356" cy="233.65743633807216" r="4" fill="#3b82f6" stroke="#0d1117" stroke-width="2" class="data-point"/>
  
    <circle cx="514.4776119402985" cy="232.340259334479" r="4" fill="#3b82f6" stroke="#0d1117" stroke-width="2" class="data-point"/>
  
    <circle cx="519.7014925373135" cy="230.98597875331978" r="4" fill="#3b82f6" stroke="#0d1117" stroke-width="2" class="data-point"/>
  
    <circle cx="524.9253731343283" cy="229.34229026714576" r="4" fill="#3b82f6" stroke="#0d1117" stroke-width="2" class="data-point"/>
  
    <circle cx="530.1492537313434" cy="228.01027183252617" r="4" fill="#3b82f6" stroke="#0d1117" stroke-width="2" class="data-point"/>
  
    <circle cx="535.3731343283582" cy="226.9231370098422" r="4" fill="#3b82f6" stroke="#0d1117" stroke-width="2" class="data-point"/>
  
    <circle cx="540.5970149253731" cy="225.80631932510545" r="4" fill="#3b82f6" stroke="#0d1117" stroke-width="2" class="data-point"/>
  
    <circle cx="545.8208955223881" cy="224.7377362912045" r="4" fill="#3b82f6" stroke="#0d1117" stroke-width="2" class="data-point"/>
  
    <circle cx="551.044776119403" cy="223.41684892985472" r="4" fill="#3b82f6" stroke="#0d1117" stroke-width="2" class="data-point"/>
  
    <circle cx="556.2686567164179" cy="222.06256834869552" r="4" fill="#3b82f6" stroke="#0d1117" stroke-width="2" class="data-point"/>
  
    <circle cx="561.4925373134329" cy="219.0683096391189" r="4" fill="#3b82f6" stroke="#0d1117" stroke-width="2" class="data-point"/>
  
    <circle cx="566.7164179104477" cy="213.10947508201843" r="4" fill="#3b82f6" stroke="#0d1117" stroke-width="2" class="data-point"/>
  
    <circle cx="571.9402985074627" cy="206.01156069364163" r="4" fill="#3b82f6" stroke="#0d1117" stroke-width="2" class="data-point"/>
  
    <circle cx="577.1641791044776" cy="199.54440712388688" r="4" fill="#3b82f6" stroke="#0d1117" stroke-width="2" class="data-point"/>
  
    <circle cx="582.3880597014926" cy="196.26445086705203" r="4" fill="#3b82f6" stroke="#0d1117" stroke-width="2" class="data-point"/>
  
    <circle cx="587.6119402985074" cy="191.3222543352601" r="4" fill="#3b82f6" stroke="#0d1117" stroke-width="2" class="data-point"/>
  
    <circle cx="592.8358208955224" cy="188.03858772066866" r="4" fill="#3b82f6" stroke="#0d1117" stroke-width="2" class="data-point"/>
  
    <circle cx="598.0597014925373" cy="185.15935010154664" r="4" fill="#3b82f6" stroke="#0d1117" stroke-width="2" class="data-point"/>
  
    <circle cx="603.2835820895523" cy="182.34318856428683" r="4" fill="#3b82f6" stroke="#0d1117" stroke-width="2" class="data-point"/>
  
    <circle cx="608.5074626865672" cy="179.69028276831745" r="4" fill="#3b82f6" stroke="#0d1117" stroke-width="2" class="data-point"/>
  
    <circle cx="613.7313432835821" cy="175.56436494297768" r="4" fill="#3b82f6" stroke="#0d1117" stroke-width="2" class="data-point"/>
  
    <circle cx="618.955223880597" cy="172.28440868614277" r="4" fill="#3b82f6" stroke="#0d1117" stroke-width="2" class="data-point"/>
  
    <circle cx="624.179104477612" cy="168.09170442118418" r="4" fill="#3b82f6" stroke="#0d1117" stroke-width="2" class="data-point"/>
  
    <circle cx="629.4029850746268" cy="167.23461177940948" r="4" fill="#3b82f6" stroke="#0d1117" stroke-width="2" class="data-point"/>
  
    <circle cx="634.6268656716418" cy="167.12330104671145" r="4" fill="#3b82f6" stroke="#0d1117" stroke-width="2" class="data-point"/>
  
    <circle cx="639.8507462686567" cy="166.97859709420405" r="4" fill="#3b82f6" stroke="#0d1117" stroke-width="2" class="data-point"/>
  
    <circle cx="645.0746268656716" cy="166.8561552882362" r="4" fill="#3b82f6" stroke="#0d1117" stroke-width="2" class="data-point"/>
  
    <circle cx="650.2985074626865" cy="166.69660990470237" r="4" fill="#3b82f6" stroke="#0d1117" stroke-width="2" class="data-point"/>
  
    <circle cx="655.5223880597015" cy="166.55561630995157" r="4" fill="#3b82f6" stroke="#0d1117" stroke-width="2" class="data-point"/>
  
    <circle cx="660.7462686567164" cy="166.49996094360256" r="4" fill="#3b82f6" stroke="#0d1117" stroke-width="2" class="data-point"/>
  
    <circle cx="665.9701492537313" cy="166.29589126698954" r="4" fill="#3b82f6" stroke="#0d1117" stroke-width="2" class="data-point"/>
  
    <circle cx="671.1940298507462" cy="166.0992423058897" r="4" fill="#3b82f6" stroke="#0d1117" stroke-width="2" class="data-point"/>
  
    <circle cx="676.4179104477612" cy="165.9693797844087" r="4" fill="#3b82f6" stroke="#0d1117" stroke-width="2" class="data-point"/>
  
    <circle cx="681.6417910447761" cy="165.92114513357288" r="4" fill="#3b82f6" stroke="#0d1117" stroke-width="2" class="data-point"/>
  
    <circle cx="686.8656716417911" cy="165.70223402593345" r="4" fill="#3b82f6" stroke="#0d1117" stroke-width="2" class="data-point"/>
  
    <circle cx="692.089552238806" cy="160.32221527886267" r="4" fill="#3b82f6" stroke="#0d1117" stroke-width="2" class="data-point"/>
  
    <circle cx="697.3134328358209" cy="151.89599281362288" r="4" fill="#3b82f6" stroke="#0d1117" stroke-width="2" class="data-point"/>
  
    <circle cx="702.5373134328358" cy="146.25253866583344" r="4" fill="#3b82f6" stroke="#0d1117" stroke-width="2" class="data-point"/>
  
    <circle cx="707.7611940298508" cy="139.70004686767692" r="4" fill="#3b82f6" stroke="#0d1117" stroke-width="2" class="data-point"/>
  
    <circle cx="712.9850746268656" cy="132.94719575066395" r="4" fill="#3b82f6" stroke="#0d1117" stroke-width="2" class="data-point"/>
  
    <circle cx="718.2089552238806" cy="127.64880487423841" r="4" fill="#3b82f6" stroke="#0d1117" stroke-width="2" class="data-point"/>
  
    <circle cx="723.4328358208955" cy="121.72336353694735" r="4" fill="#3b82f6" stroke="#0d1117" stroke-width="2" class="data-point"/>
  
    <circle cx="728.6567164179104" cy="112.69606311513826" r="4" fill="#3b82f6" stroke="#0d1117" stroke-width="2" class="data-point"/>
  
    <circle cx="733.8805970149253" cy="100.52980003124512" r="4" fill="#3b82f6" stroke="#0d1117" stroke-width="2" class="data-point"/>
  
    <circle cx="739.1044776119403" cy="92.58963443212" r="4" fill="#3b82f6" stroke="#0d1117" stroke-width="2" class="data-point"/>
  
    <circle cx="744.3283582089553" cy="83.1393532260584" r="4" fill="#3b82f6" stroke="#0d1117" stroke-width="2" class="data-point"/>
  
    <circle cx="749.5522388059701" cy="72.60935791282611" r="4" fill="#3b82f6" stroke="#0d1117" stroke-width="2" class="data-point"/>
  
    <circle cx="754.776119402985" cy="64.16458365880328" r="4" fill="#3b82f6" stroke="#0d1117" stroke-width="2" class="data-point"/>
  
    <circle cx="760" cy="55" r="4" fill="#3b82f6" stroke="#0d1117" stroke-width="2" class="data-point"/>
  

  <!-- Axis lines -->
  <line x1="60" y1="55" x2="60" y2="340"
        stroke="#30363d" stroke-width="2"/>
  <line x1="60" y1="340" x2="760" y2="340"
        stroke="#30363d" stroke-width="2"/>
</svg>