<?xml version="1.0" encoding="UTF-8"?>
<svg width="800" height="400" xmlns="http://www.w3.org/2000/svg">
  <defs>
    <!-- Gradient for area fill -->
    <linearGradient id="areaGradient" x1="0%" y1="0%" x2="0%" y2="100%">
      <stop offset="0%" style="stop-color:#3b82f6;stop-opacity:0.3" />
      <stop offset="100%" style="stop-color:#3b82f6;stop-opacity:0.05" />
    </linearGradient>

    <!-- Glow filter for line -->
    <filter id="glow">
      <feGaussianBlur stdDeviation="2" result="coloredBlur"/>
      <feMerge>
        <feMergeNode in="coloredBlur"/>
        <feMergeNode in="SourceGraphic"/>
      </feMerge>
    </filter>

    <!-- Animation -->
    <style>
      @keyframes draw {
        from { stroke-dashoffset: 2000; }
        to { stroke-dashoffset: 0; }
      }
      @keyframes fadeIn {
        from { opacity: 0; }
        to { opacity: 1; }
      }
      .line-path {
        stroke-dasharray: 2000;
        stroke-dashoffset: 2000;
        animation: draw 1.5s ease-out forwards;
      }
      .area-path {
        opacity: 0;
        animation: fadeIn 1s ease-out 0.5s forwards;
      }
      .data-point {
        opacity: 0;
        animation: fadeIn 0.5s ease-out 1s forwards;
      }
    </style>
  </defs>

  <!-- Background -->
  <rect width="800" height="400" fill="#0d1117" rx="8"/>

  <!-- Title -->
  <text x="400" y="25" text-anchor="middle" fill="#c9d1d9" font-family="system-ui, -apple-system, sans-serif" font-size="16" font-weight="600">
    zxcloli666/SoundCloud-Desktop Downloads
  </text>

  <!-- Stats -->
  <text x="780" y="25" text-anchor="end" fill="#58a6ff" font-family="system-ui, -apple-system, sans-serif" font-size="14" font-weight="600">
    292.2K total
  </text>
  <text x="780" y="42" text-anchor="end" fill="#3fb950" font-family="system-ui, -apple-system, sans-serif" font-size="12">
    +830 (+0.3%)
  </text>

  <!-- Grid lines -->
  <g opacity="0.1">
    
      <line x1="60" y1="340" x2="760" y2="340"
            stroke="#c9d1d9" stroke-width="1"/>
    
      <line x1="60" y1="268.75" x2="760" y2="268.75"
            stroke="#c9d1d9" stroke-width="1"/>
    
      <line x1="60" y1="197.5" x2="760" y2="197.5"
            stroke="#c9d1d9" stroke-width="1"/>
    
      <line x1="60" y1="126.25" x2="760" y2="126.25"
            stroke="#c9d1d9" stroke-width="1"/>
    
      <line x1="60" y1="55" x2="760" y2="55"
            stroke="#c9d1d9" stroke-width="1"/>
    
  </g>

  <!-- Y-axis labels -->
  
    <text x="50" y="344" text-anchor="end"
          fill="#8b949e" font-family="system-ui, -apple-system, sans-serif" font-size="11">
      60.2K
    </text>
  
    <text x="50" y="272.75" text-anchor="end"
          fill="#8b949e" font-family="system-ui, -apple-system, sans-serif" font-size="11">
      118.2K
    </text>
  
    <text x="50" y="201.5" text-anchor="end"
          fill="#8b949e" font-family="system-ui, -apple-system, sans-serif" font-size="11">
      176.2K
    </text>
  
    <text x="50" y="130.25" text-anchor="end"
          fill="#8b949e" font-family="system-ui, -apple-system, sans-serif" font-size="11">
      234.2K
    </text>
  
    <text x="50" y="59" text-anchor="end"
          fill="#8b949e" font-family="system-ui, -apple-system, sans-serif" font-size="11">
      292.2K
    </text>
  

  <!-- X-axis labels -->
  
    <text x="60" y="360" text-anchor="middle"
          fill="#8b949e" font-family="system-ui, -apple-system, sans-serif" font-size="11">
      Nov 25
    </text>
  
    <text x="147.5" y="360" text-anchor="middle"
          fill="#8b949e" font-family="system-ui, -apple-system, sans-serif" font-size="11">
      Dec 25
    </text>
  
    <text x="235" y="360" text-anchor="middle"
          fill="#8b949e" font-family="system-ui, -apple-system, sans-serif" font-size="11">
      Jan 24
    </text>
  
    <text x="322.5" y="360" text-anchor="middle"
          fill="#8b949e" font-family="system-ui, -apple-system, sans-serif" font-size="11">
      Feb 23
    </text>
  
    <text x="410" y="360" text-anchor="middle"
          fill="#8b949e" font-family="system-ui, -apple-system, sans-serif" font-size="11">
      Mar 25
    </text>
  
    <text x="497.5" y="360" text-anchor="middle"
          fill="#8b949e" font-family="system-ui, -apple-system, sans-serif" font-size="11">
      Apr 24
    </text>
  
    <text x="585" y="360" text-anchor="middle"
          fill="#8b949e" font-family="system-ui, -apple-system, sans-serif" font-size="11">
      May 24
    </text>
  
    <text x="672.5" y="360" text-anchor="middle"
          fill="#8b949e" font-family="system-ui, -apple-system, sans-serif" font-size="11">
      Jun 23
    </text>
  
    <text x="760" y="360" text-anchor="middle"
          fill="#8b949e" font-family="system-ui, -apple-system, sans-serif" font-size="11">
      Jul 23
    </text>
  

  <!-- Area under line -->
  <path d="M 60 340
    L 60.00 340.00 L 62.92 339.82 L 65.83 339.51 L 68.75 339.23 L 71.67 338.66 L 74.58 338.08 L 77.50 337.62 L 80.42 337.19 L 83.33 336.80 L 86.25 336.36 L 89.17 335.86 L 92.08 335.32 L 95.00 334.83 L 97.92 334.32 L 100.83 333.94 L 103.75 333.55 L 106.67 333.02 L 109.58 332.66 L 112.50 332.17 L 115.42 331.61 L 118.33 331.18 L 121.25 330.83 L 124.17 330.60 L 127.08 330.41 L 130.00 330.06 L 132.92 329.81 L 135.83 329.26 L 138.75 329.05 L 141.67 328.77 L 144.58 328.41 L 147.50 328.17 L 150.42 327.92 L 153.33 327.66 L 156.25 327.48 L 159.17 327.32 L 162.08 327.08 L 165.00 326.79 L 167.92 326.52 L 170.83 326.18 L 173.75 325.81 L 176.67 325.47 L 179.58 325.06 L 182.50 324.66 L 185.42 324.26 L 188.33 323.82 L 191.25 323.40 L 194.17 322.92 L 197.08 322.49 L 200.00 322.13 L 202.92 321.84 L 205.83 321.43 L 208.75 320.97 L 211.67 320.55 L 214.58 320.05 L 217.50 319.44 L 220.42 318.99 L 223.33 318.61 L 226.25 318.25 L 229.17 317.82 L 232.08 317.32 L 235.00 316.76 L 237.92 316.18 L 240.83 315.62 L 243.75 315.13 L 246.67 314.64 L 249.58 314.21 L 252.50 313.77 L 255.42 313.28 L 258.33 312.67 L 261.25 312.21 L 264.17 311.80 L 267.08 311.35 L 270.00 310.93 L 272.92 310.46 L 275.83 309.98 L 278.75 309.47 L 281.67 309.03 L 284.58 308.65 L 287.50 308.23 L 290.42 307.78 L 293.33 307.37 L 296.25 306.82 L 299.17 306.35 L 302.08 305.90 L 305.00 305.53 L 307.92 305.16 L 310.83 304.80 L 313.75 304.36 L 316.67 303.92 L 319.58 303.37 L 322.50 302.93 L 325.42 302.57 L 328.33 302.20 L 331.25 301.85 L 334.17 301.41 L 337.08 300.96 L 340.00 299.97 L 342.92 298.00 L 345.83 295.65 L 348.75 293.51 L 351.67 292.42 L 354.58 290.79 L 357.50 289.70 L 360.42 288.75 L 363.33 287.81 L 366.25 286.94 L 369.17 285.57 L 372.08 284.48 L 375.00 283.10 L 377.92 282.81 L 380.83 282.78 L 383.75 282.73 L 386.67 282.69 L 389.58 282.63 L 392.50 282.59 L 395.42 282.57 L 398.33 282.50 L 401.25 282.44 L 404.17 282.39 L 407.08 282.38 L 410.00 282.31 L 412.92 280.52 L 415.83 277.74 L 418.75 275.87 L 421.67 273.70 L 424.58 271.46 L 427.50 269.71 L 430.42 267.75 L 433.33 264.76 L 436.25 260.73 L 439.17 258.10 L 442.08 254.98 L 445.00 251.49 L 447.92 248.70 L 450.83 245.66 L 453.75 242.97 L 456.67 240.30 L 459.58 237.65 L 462.50 234.03 L 465.42 230.39 L 468.33 227.37 L 471.25 224.83 L 474.17 222.37 L 477.08 219.10 L 480.00 216.57 L 482.92 214.06 L 485.83 211.72 L 488.75 209.51 L 491.67 207.24 L 494.58 205.31 L 497.50 203.31 L 500.42 201.26 L 503.33 199.10 L 506.25 197.12 L 509.17 195.30 L 512.08 192.01 L 515.00 189.25 L 517.92 186.61 L 520.83 184.07 L 523.75 180.06 L 526.67 177.52 L 529.58 175.32 L 532.50 172.72 L 535.42 168.90 L 538.33 166.15 L 541.25 163.82 L 544.17 161.86 L 547.08 159.99 L 550.00 158.47 L 552.92 156.77 L 555.83 155.37 L 558.75 153.73 L 561.67 151.36 L 564.58 149.33 L 567.50 147.56 L 570.42 146.04 L 573.33 144.46 L 576.25 143.13 L 579.17 140.90 L 582.08 138.99 L 585.00 137.09 L 587.92 135.53 L 590.83 134.10 L 593.75 132.82 L 596.67 130.64 L 599.58 128.87 L 602.50 127.25 L 605.42 125.71 L 608.33 124.36 L 611.25 123.05 L 614.17 121.85 L 617.08 120.70 L 620.00 119.65 L 622.92 118.33 L 625.83 116.92 L 628.75 115.62 L 631.67 113.60 L 634.58 112.14 L 637.50 110.74 L 640.42 109.51 L 643.33 108.06 L 646.25 106.29 L 649.17 104.72 L 652.08 103.32 L 655.00 101.80 L 657.92 99.70 L 660.83 97.98 L 663.75 96.13 L 666.67 94.29 L 669.58 92.57 L 672.50 90.89 L 675.42 89.11 L 678.33 87.51 L 681.25 86.11 L 684.17 84.81 L 687.08 83.44 L 690.00 82.10 L 692.92 80.89 L 695.83 79.68 L 698.75 78.52 L 701.67 77.36 L 704.58 76.21 L 707.50 75.20 L 710.42 74.02 L 713.33 72.80 L 716.25 71.41 L 719.17 70.07 L 722.08 68.88 L 725.00 67.82 L 727.92 66.74 L 730.83 65.76 L 733.75 64.62 L 736.67 63.50 L 739.58 62.44 L 742.50 61.35 L 745.42 60.18 L 748.33 59.06 L 751.25 57.95 L 754.17 57.00 L 757.08 56.02 L 760.00 55.00
    L 760 340
    Z" fill="url(#areaGradient)" class="area-path"/>

  <!-- Main line with glow -->
  <path d="M 60.00 340.00 L 62.92 339.82 L 65.83 339.51 L 68.75 339.23 L 71.67 338.66 L 74.58 338.08 L 77.50 337.62 L 80.42 337.19 L 83.33 336.80 L 86.25 336.36 L 89.17 335.86 L 92.08 335.32 L 95.00 334.83 L 97.92 334.32 L 100.83 333.94 L 103.75 333.55 L 106.67 333.02 L 109.58 332.66 L 112.50 332.17 L 115.42 331.61 L 118.33 331.18 L 121.25 330.83 L 124.17 330.60 L 127.08 330.41 L 130.00 330.06 L 132.92 329.81 L 135.83 329.26 L 138.75 329.05 L 141.67 328.77 L 144.58 328.41 L 147.50 328.17 L 150.42 327.92 L 153.33 327.66 L 156.25 327.48 L 159.17 327.32 L 162.08 327.08 L 165.00 326.79 L 167.92 326.52 L 170.83 326.18 L 173.75 325.81 L 176.67 325.47 L 179.58 325.06 L 182.50 324.66 L 185.42 324.26 L 188.33 323.82 L 191.25 323.40 L 194.17 322.92 L 197.08 322.49 L 200.00 322.13 L 202.92 321.84 L 205.83 321.43 L 208.75 320.97 L 211.67 320.55 L 214.58 320.05 L 217.50 319.44 L 220.42 318.99 L 223.33 318.61 L 226.25 318.25 L 229.17 317.82 L 232.08 317.32 L 235.00 316.76 L 237.92 316.18 L 240.83 315.62 L 243.75 315.13 L 246.67 314.64 L 249.58 314.21 L 252.50 313.77 L 255.42 313.28 L 258.33 312.67 L 261.25 312.21 L 264.17 311.80 L 267.08 311.35 L 270.00 310.93 L 272.92 310.46 L 275.83 309.98 L 278.75 309.47 L 281.67 309.03 L 284.58 308.65 L 287.50 308.23 L 290.42 307.78 L 293.33 307.37 L 296.25 306.82 L 299.17 306.35 L 302.08 305.90 L 305.00 305.53 L 307.92 305.16 L 310.83 304.80 L 313.75 304.36 L 316.67 303.92 L 319.58 303.37 L 322.50 302.93 L 325.42 302.57 L 328.33 302.20 L 331.25 301.85 L 334.17 301.41 L 337.08 300.96 L 340.00 299.97 L 342.92 298.00 L 345.83 295.65 L 348.75 293.51 L 351.67 292.42 L 354.58 290.79 L 357.50 289.70 L 360.42 288.75 L 363.33 287.81 L 366.25 286.94 L 369.17 285.57 L 372.08 284.48 L 375.00 283.10 L 377.92 282.81 L 380.83 282.78 L 383.75 282.73 L 386.67 282.69 L 389.58 282.63 L 392.50 282.59 L 395.42 282.57 L 398.33 282.50 L 401.25 282.44 L 404.17 282.39 L 407.08 282.38 L 410.00 282.31 L 412.92 280.52 L 415.83 277.74 L 418.75 275.87 L 421.67 273.70 L 424.58 271.46 L 427.50 269.71 L 430.42 267.75 L 433.33 264.76 L 436.25 260.73 L 439.17 258.10 L 442.08 254.98 L 445.00 251.49 L 447.92 248.70 L 450.83 245.66 L 453.75 242.97 L 456.67 240.30 L 459.58 237.65 L 462.50 234.03 L 465.42 230.39 L 468.33 227.37 L 471.25 224.83 L 474.17 222.37 L 477.08 219.10 L 480.00 216.57 L 482.92 214.06 L 485.83 211.72 L 488.75 209.51 L 491.67 207.24 L 494.58 205.31 L 497.50 203.31 L 500.42 201.26 L 503.33 199.10 L 506.25 197.12 L 509.17 195.30 L 512.08 192.01 L 515.00 189.25 L 517.92 186.61 L 520.83 184.07 L 523.75 180.06 L 526.67 177.52 L 529.58 175.32 L 532.50 172.72 L 535.42 168.90 L 538.33 166.15 L 541.25 163.82 L 544.17 161.86 L 547.08 159.99 L 550.00 158.47 L 552.92 156.77 L 555.83 155.37 L 558.75 153.73 L 561.67 151.36 L 564.58 149.33 L 567.50 147.56 L 570.42 146.04 L 573.33 144.46 L 576.25 143.13 L 579.17 140.90 L 582.08 138.99 L 585.00 137.09 L 587.92 135.53 L 590.83 134.10 L 593.75 132.82 L 596.67 130.64 L 599.58 128.87 L 602.50 127.25 L 605.42 125.71 L 608.33 124.36 L 611.25 123.05 L 614.17 121.85 L 617.08 120.70 L 620.00 119.65 L 622.92 118.33 L 625.83 116.92 L 628.75 115.62 L 631.67 113.60 L 634.58 112.14 L 637.50 110.74 L 640.42 109.51 L 643.33 108.06 L 646.25 106.29 L 649.17 104.72 L 652.08 103.32 L 655.00 101.80 L 657.92 99.70 L 660.83 97.98 L 663.75 96.13 L 666.67 94.29 L 669.58 92.57 L 672.50 90.89 L 675.42 89.11 L 678.33 87.51 L 681.25 86.11 L 684.17 84.81 L 687.08 83.44 L 690.00 82.10 L 692.92 80.89 L 695.83 79.68 L 698.75 78.52 L 701.67 77.36 L 704.58 76.21 L 707.50 75.20 L 710.42 74.02 L 713.33 72.80 L 716.25 71.41 L 719.17 70.07 L 722.08 68.88 L 725.00 67.82 L 727.92 66.74 L 730.83 65.76 L 733.75 64.62 L 736.67 63.50 L 739.58 62.44 L 742.50 61.35 L 745.42 60.18 L 748.33 59.06 L 751.25 57.95 L 754.17 57.00 L 757.08 56.02 L 760.00 55.00" fill="none" stroke="#3b82f6" stroke-width="3"
        stroke-linecap="round" stroke-linejoin="round" filter="url(#glow)" class="line-path"/>

  <!-- Data points -->
  
    <circle cx="60" cy="340" r="4" fill="#3b82f6" stroke="#0d1117" stroke-width="2" class="data-point"/>
  
    <circle cx="62.916666666666664" cy="339.819459347649" r="4" fill="#3b82f6" stroke="#0d1117" stroke-width="2" class="data-point"/>
  
    <circle cx="65.83333333333333" cy="339.51241742188205" r="4" fill="#3b82f6" stroke="#0d1117" stroke-width="2" class="data-point"/>
  
    <circle cx="68.75" cy="339.2274825147703" r="4" fill="#3b82f6" stroke="#0d1117" stroke-width="2" class="data-point"/>
  
    <circle cx="71.66666666666667" cy="338.66129720365603" r="4" fill="#3b82f6" stroke="#0d1117" stroke-width="2" class="data-point"/>
  
    <circle cx="74.58333333333333" cy="338.0766893769958" r="4" fill="#3b82f6" stroke="#0d1117" stroke-width="2" class="data-point"/>
  
    <circle cx="77.5" cy="337.61612648834534" r="4" fill="#3b82f6" stroke="#0d1117" stroke-width="2" class="data-point"/>
  
    <circle cx="80.41666666666667" cy="337.18626779227156" r="4" fill="#3b82f6" stroke="#0d1117" stroke-width="2" class="data-point"/>
  
    <circle cx="83.33333333333333" cy="336.8043076366175" r="4" fill="#3b82f6" stroke="#0d1117" stroke-width="2" class="data-point"/>
  
    <circle cx="86.25" cy="336.35602642499776" r="4" fill="#3b82f6" stroke="#0d1117" stroke-width="2" class="data-point"/>
  
    <circle cx="89.16666666666666" cy="335.85616216984914" r="4" fill="#3b82f6" stroke="#0d1117" stroke-width="2" class="data-point"/>
  
    <circle cx="92.08333333333333" cy="335.32068105131157" r="4" fill="#3b82f6" stroke="#0d1117" stroke-width="2" class="data-point"/>
  
    <circle cx="95" cy="334.8343266408967" r="4" fill="#3b82f6" stroke="#0d1117" stroke-width="2" class="data-point"/>
  
    <circle cx="97.91666666666667" cy="334.31726803790514" r="4" fill="#3b82f6" stroke="#0d1117" stroke-width="2" class="data-point"/>
  
    <circle cx="100.83333333333334" cy="333.9402205530633" r="4" fill="#3b82f6" stroke="#0d1117" stroke-width="2" class="data-point"/>
  
    <circle cx="103.75" cy="333.54966322348776" r="4" fill="#3b82f6" stroke="#0d1117" stroke-width="2" class="data-point"/>
  
    <circle cx="106.66666666666666" cy="333.0190947757624" r="4" fill="#3b82f6" stroke="#0d1117" stroke-width="2" class="data-point"/>
  
    <circle cx="109.58333333333333" cy="332.66415430957585" r="4" fill="#3b82f6" stroke="#0d1117" stroke-width="2" class="data-point"/>
  
    <circle cx="112.5" cy="332.1728872283487" r="4" fill="#3b82f6" stroke="#0d1117" stroke-width="2" class="data-point"/>
  
    <circle cx="115.41666666666666" cy="331.60547374953137" r="4" fill="#3b82f6" stroke="#0d1117" stroke-width="2" class="data-point"/>
  
    <circle cx="118.33333333333333" cy="331.17807138886377" r="4" fill="#3b82f6" stroke="#0d1117" stroke-width="2" class="data-point"/>
  
    <circle cx="121.25" cy="330.8268154257864" r="4" fill="#3b82f6" stroke="#0d1117" stroke-width="2" class="data-point"/>
  
    <circle cx="124.16666666666666" cy="330.5996044007188" r="4" fill="#3b82f6" stroke="#0d1117" stroke-width="2" class="data-point"/>
  
    <circle cx="127.08333333333334" cy="330.41046657444633" r="4" fill="#3b82f6" stroke="#0d1117" stroke-width="2" class="data-point"/>
  
    <circle cx="130" cy="330.060438779072" r="4" fill="#3b82f6" stroke="#0d1117" stroke-width="2" class="data-point"/>
  
    <circle cx="132.91666666666669" cy="329.8111207353493" r="4" fill="#3b82f6" stroke="#0d1117" stroke-width="2" class="data-point"/>
  
    <circle cx="135.83333333333334" cy="329.2645861074841" r="4" fill="#3b82f6" stroke="#0d1117" stroke-width="2" class="data-point"/>
  
    <circle cx="138.75" cy="329.0496567594472" r="4" fill="#3b82f6" stroke="#0d1117" stroke-width="2" class="data-point"/>
  
    <circle cx="141.66666666666669" cy="328.77209085855384" r="4" fill="#3b82f6" stroke="#0d1117" stroke-width="2" class="data-point"/>
  
    <circle cx="144.58333333333331" cy="328.4134658892581" r="4" fill="#3b82f6" stroke="#0d1117" stroke-width="2" class="data-point"/>
  
    <circle cx="147.5" cy="328.1678323486445" r="4" fill="#3b82f6" stroke="#0d1117" stroke-width="2" class="data-point"/>
  
    <circle cx="150.41666666666669" cy="327.9185143049217" r="4" fill="#3b82f6" stroke="#0d1117" stroke-width="2" class="data-point"/>
  
    <circle cx="153.33333333333331" cy="327.65691458416825" r="4" fill="#3b82f6" stroke="#0d1117" stroke-width="2" class="data-point"/>
  
    <circle cx="156.25" cy="327.47514576411425" r="4" fill="#3b82f6" stroke="#0d1117" stroke-width="2" class="data-point"/>
  
    <circle cx="159.16666666666666" cy="327.3179402981215" r="4" fill="#3b82f6" stroke="#0d1117" stroke-width="2" class="data-point"/>
  
    <circle cx="162.08333333333334" cy="327.07844759602335" r="4" fill="#3b82f6" stroke="#0d1117" stroke-width="2" class="data-point"/>
  
    <circle cx="165" cy="326.78737185039626" r="4" fill="#3b82f6" stroke="#0d1117" stroke-width="2" class="data-point"/>
  
    <circle cx="167.91666666666669" cy="326.51963129112744" r="4" fill="#3b82f6" stroke="#0d1117" stroke-width="2" class="data-point"/>
  
    <circle cx="170.83333333333331" cy="326.1806570050807" r="4" fill="#3b82f6" stroke="#0d1117" stroke-width="2" class="data-point"/>
  
    <circle cx="173.75" cy="325.8109785264573" r="4" fill="#3b82f6" stroke="#0d1117" stroke-width="2" class="data-point"/>
  
    <circle cx="176.66666666666666" cy="325.47200424041057" r="4" fill="#3b82f6" stroke="#0d1117" stroke-width="2" class="data-point"/>
  
    <circle cx="179.58333333333334" cy="325.063024395289" r="4" fill="#3b82f6" stroke="#0d1117" stroke-width="2" class="data-point"/>
  
    <circle cx="182.5" cy="324.6614135563858" r="4" fill="#3b82f6" stroke="#0d1117" stroke-width="2" class="data-point"/>
  
    <circle cx="185.41666666666669" cy="324.25980271748267" r="4" fill="#3b82f6" stroke="#0d1117" stroke-width="2" class="data-point"/>
  
    <circle cx="188.33333333333331" cy="323.82011867978434" r="4" fill="#3b82f6" stroke="#0d1117" stroke-width="2" class="data-point"/>
  
    <circle cx="191.25" cy="323.40008532533517" r="4" fill="#3b82f6" stroke="#0d1117" stroke-width="2" class="data-point"/>
  
    <circle cx="194.16666666666669" cy="322.91987175343564" r="4" fill="#3b82f6" stroke="#0d1117" stroke-width="2" class="data-point"/>
  
    <circle cx="197.08333333333334" cy="322.491241225065" r="4" fill="#3b82f6" stroke="#0d1117" stroke-width="2" class="data-point"/>
  
    <circle cx="200" cy="322.1289317526599" r="4" fill="#3b82f6" stroke="#0d1117" stroke-width="2" class="data-point"/>
  
    <circle cx="202.91666666666666" cy="321.83908417473594" r="4" fill="#3b82f6" stroke="#0d1117" stroke-width="2" class="data-point"/>
  
    <circle cx="205.83333333333334" cy="321.43378883272356" r="4" fill="#3b82f6" stroke="#0d1117" stroke-width="2" class="data-point"/>
  
    <circle cx="208.75" cy="320.97076960866696" r="4" fill="#3b82f6" stroke="#0d1117" stroke-width="2" class="data-point"/>
  
    <circle cx="211.66666666666669" cy="320.5470517511086" r="4" fill="#3b82f6" stroke="#0d1117" stroke-width="2" class="data-point"/>
  
    <circle cx="214.58333333333331" cy="320.0521001667722" r="4" fill="#3b82f6" stroke="#0d1117" stroke-width="2" class="data-point"/>
  
    <circle cx="217.5" cy="319.44170081834756" r="4" fill="#3b82f6" stroke="#0d1117" stroke-width="2" class="data-point"/>
  
    <circle cx="220.41666666666666" cy="318.98727876821243" r="4" fill="#3b82f6" stroke="#0d1117" stroke-width="2" class="data-point"/>
  
    <circle cx="223.33333333333334" cy="318.6102312833706" r="4" fill="#3b82f6" stroke="#0d1117" stroke-width="2" class="data-point"/>
  
    <circle cx="226.25" cy="318.2516063140748" r="4" fill="#3b82f6" stroke="#0d1117" stroke-width="2" class="data-point"/>
  
    <circle cx="229.16666666666666" cy="317.820519450298" r="4" fill="#3b82f6" stroke="#0d1117" stroke-width="2" class="data-point"/>
  
    <circle cx="232.08333333333331" cy="317.3194270274463" r="4" fill="#3b82f6" stroke="#0d1117" stroke-width="2" class="data-point"/>
  
    <circle cx="235" cy="316.7642952256597" r="4" fill="#3b82f6" stroke="#0d1117" stroke-width="2" class="data-point"/>
  
    <circle cx="237.91666666666666" cy="316.1809155667024" r="4" fill="#3b82f6" stroke="#0d1117" stroke-width="2" class="data-point"/>
  
    <circle cx="240.83333333333334" cy="315.6208710941035" r="4" fill="#3b82f6" stroke="#0d1117" stroke-width="2" class="data-point"/>
  
    <circle cx="243.75" cy="315.1283758451733" r="4" fill="#3b82f6" stroke="#0d1117" stroke-width="2" class="data-point"/>
  
    <circle cx="246.66666666666666" cy="314.6395650993523" r="4" fill="#3b82f6" stroke="#0d1117" stroke-width="2" class="data-point"/>
  
    <circle cx="249.58333333333331" cy="314.2084782355755" r="4" fill="#3b82f6" stroke="#0d1117" stroke-width="2" class="data-point"/>
  
    <circle cx="252.50000000000003" cy="313.7687941978772" r="4" fill="#3b82f6" stroke="#0d1117" stroke-width="2" class="data-point"/>
  
    <circle cx="255.41666666666669" cy="313.27752711665005" r="4" fill="#3b82f6" stroke="#0d1117" stroke-width="2" class="data-point"/>
  
    <circle cx="258.3333333333333" cy="312.66589960052227" r="4" fill="#3b82f6" stroke="#0d1117" stroke-width="2" class="data-point"/>
  
    <circle cx="261.25" cy="312.21024938268414" r="4" fill="#3b82f6" stroke="#0d1117" stroke-width="2" class="data-point"/>
  
    <circle cx="264.1666666666667" cy="311.80249770526564" r="4" fill="#3b82f6" stroke="#0d1117" stroke-width="2" class="data-point"/>
  
    <circle cx="267.08333333333337" cy="311.3493038228336" r="4" fill="#3b82f6" stroke="#0d1117" stroke-width="2" class="data-point"/>
  
    <circle cx="270" cy="310.9268141329782" r="4" fill="#3b82f6" stroke="#0d1117" stroke-width="2" class="data-point"/>
  
    <circle cx="272.91666666666663" cy="310.4625667412186" r="4" fill="#3b82f6" stroke="#0d1117" stroke-width="2" class="data-point"/>
  
    <circle cx="275.83333333333337" cy="309.9786686662099" r="4" fill="#3b82f6" stroke="#0d1117" stroke-width="2" class="data-point"/>
  
    <circle cx="278.75" cy="309.4726635725459" r="4" fill="#3b82f6" stroke="#0d1117" stroke-width="2" class="data-point"/>
  
    <circle cx="281.66666666666663" cy="309.02929503173846" r="4" fill="#3b82f6" stroke="#0d1117" stroke-width="2" class="data-point"/>
  
    <circle cx="284.58333333333337" cy="308.6497912114905" r="4" fill="#3b82f6" stroke="#0d1117" stroke-width="2" class="data-point"/>
  
    <circle cx="287.5" cy="308.2334423601505" r="4" fill="#3b82f6" stroke="#0d1117" stroke-width="2" class="data-point"/>
  
    <circle cx="290.41666666666663" cy="307.7827048131246" r="4" fill="#3b82f6" stroke="#0d1117" stroke-width="2" class="data-point"/>
  
    <circle cx="293.3333333333333" cy="307.3651277940815" r="4" fill="#3b82f6" stroke="#0d1117" stroke-width="2" class="data-point"/>
  
    <circle cx="296.25" cy="306.8210495016225" r="4" fill="#3b82f6" stroke="#0d1117" stroke-width="2" class="data-point"/>
  
    <circle cx="299.1666666666667" cy="306.35311760675364" r="4" fill="#3b82f6" stroke="#0d1117" stroke-width="2" class="data-point"/>
  
    <circle cx="302.0833333333333" cy="305.90238005972776" r="4" fill="#3b82f6" stroke="#0d1117" stroke-width="2" class="data-point"/>
  
    <circle cx="305" cy="305.52778891029203" r="4" fill="#3b82f6" stroke="#0d1117" stroke-width="2" class="data-point"/>
  
    <circle cx="307.9166666666667" cy="305.16425127018397" r="4" fill="#3b82f6" stroke="#0d1117" stroke-width="2" class="data-point"/>
  
    <circle cx="310.83333333333337" cy="304.79948546237284" r="4" fill="#3b82f6" stroke="#0d1117" stroke-width="2" class="data-point"/>
  
    <circle cx="313.75" cy="304.36348592778376" r="4" fill="#3b82f6" stroke="#0d1117" stroke-width="2" class="data-point"/>
  
    <circle cx="316.66666666666663" cy="303.915204716164" r="4" fill="#3b82f6" stroke="#0d1117" stroke-width="2" class="data-point"/>
  
    <circle cx="319.58333333333337" cy="303.37112642370494" r="4" fill="#3b82f6" stroke="#0d1117" stroke-width="2" class="data-point"/>
  
    <circle cx="322.5" cy="302.9302142183036" r="4" fill="#3b82f6" stroke="#0d1117" stroke-width="2" class="data-point"/>
  
    <circle cx="325.41666666666663" cy="302.5703610813047" r="4" fill="#3b82f6" stroke="#0d1117" stroke-width="2" class="data-point"/>
  
    <circle cx="328.33333333333337" cy="302.2006826026813" r="4" fill="#3b82f6" stroke="#0d1117" stroke-width="2" class="data-point"/>
  
    <circle cx="331.25" cy="301.8469703041977" r="4" fill="#3b82f6" stroke="#0d1117" stroke-width="2" class="data-point"/>
  
    <circle cx="334.1666666666667" cy="301.4097426019056" r="4" fill="#3b82f6" stroke="#0d1117" stroke-width="2" class="data-point"/>
  
    <circle cx="337.0833333333333" cy="300.9614613902858" r="4" fill="#3b82f6" stroke="#0d1117" stroke-width="2" class="data-point"/>
  
    <circle cx="340" cy="299.9703300539101" r="4" fill="#3b82f6" stroke="#0d1117" stroke-width="2" class="data-point"/>
  
    <circle cx="342.9166666666667" cy="297.99789272278315" r="4" fill="#3b82f6" stroke="#0d1117" stroke-width="2" class="data-point"/>
  
    <circle cx="345.8333333333333" cy="295.6484079068144" r="4" fill="#3b82f6" stroke="#0d1117" stroke-width="2" class="data-point"/>
  
    <circle cx="348.75" cy="293.50771160036714" r="4" fill="#3b82f6" stroke="#0d1117" stroke-width="2" class="data-point"/>
  
    <circle cx="351.6666666666667" cy="292.4220113508552" r="4" fill="#3b82f6" stroke="#0d1117" stroke-width="2" class="data-point"/>
  
    <circle cx="354.5833333333333" cy="290.78609197036883" r="4" fill="#3b82f6" stroke="#0d1117" stroke-width="2" class="data-point"/>
  
    <circle cx="357.5" cy="289.6991635531538" r="4" fill="#3b82f6" stroke="#0d1117" stroke-width="2" class="data-point"/>
  
    <circle cx="360.41666666666663" cy="288.7461054155732" r="4" fill="#3b82f6" stroke="#0d1117" stroke-width="2" class="data-point"/>
  
    <circle cx="363.33333333333337" cy="287.8139261289447" r="4" fill="#3b82f6" stroke="#0d1117" stroke-width="2" class="data-point"/>
  
    <circle cx="366.25" cy="286.9357862212512" r="4" fill="#3b82f6" stroke="#0d1117" stroke-width="2" class="data-point"/>
  
    <circle cx="369.16666666666663" cy="285.57006373543976" r="4" fill="#3b82f6" stroke="#0d1117" stroke-width="2" class="data-point"/>
  
    <circle cx="372.08333333333337" cy="284.48436348592776" r="4" fill="#3b82f6" stroke="#0d1117" stroke-width="2" class="data-point"/>
  
    <circle cx="375" cy="283.0965339814611" r="4" fill="#3b82f6" stroke="#0d1117" stroke-width="2" class="data-point"/>
  
    <circle cx="377.9166666666667" cy="282.81282724205244" r="4" fill="#3b82f6" stroke="#0d1117" stroke-width="2" class="data-point"/>
  
    <circle cx="380.8333333333333" cy="282.7759822109604" r="4" fill="#3b82f6" stroke="#0d1117" stroke-width="2" class="data-point"/>
  
    <circle cx="383.75" cy="282.7280836705408" r="4" fill="#3b82f6" stroke="#0d1117" stroke-width="2" class="data-point"/>
  
    <circle cx="386.6666666666667" cy="282.68755413633954" r="4" fill="#3b82f6" stroke="#0d1117" stroke-width="2" class="data-point"/>
  
    <circle cx="389.5833333333333" cy="282.6347429251076" r="4" fill="#3b82f6" stroke="#0d1117" stroke-width="2" class="data-point"/>
  
    <circle cx="392.5" cy="282.58807255239105" r="4" fill="#3b82f6" stroke="#0d1117" stroke-width="2" class="data-point"/>
  
    <circle cx="395.4166666666667" cy="282.569650036845" r="4" fill="#3b82f6" stroke="#0d1117" stroke-width="2" class="data-point"/>
  
    <circle cx="398.3333333333333" cy="282.5021008131763" r="4" fill="#3b82f6" stroke="#0d1117" stroke-width="2" class="data-point"/>
  
    <circle cx="401.25" cy="282.4370079249137" r="4" fill="#3b82f6" stroke="#0d1117" stroke-width="2" class="data-point"/>
  
    <circle cx="404.16666666666663" cy="282.3940220553063" r="4" fill="#3b82f6" stroke="#0d1117" stroke-width="2" class="data-point"/>
  
    <circle cx="407.08333333333337" cy="282.37805587516647" r="4" fill="#3b82f6" stroke="#0d1117" stroke-width="2" class="data-point"/>
  
    <circle cx="410" cy="282.30559398068544" r="4" fill="#3b82f6" stroke="#0d1117" stroke-width="2" class="data-point"/>
  
    <circle cx="412.91666666666663" cy="280.5247508112371" r="4" fill="#3b82f6" stroke="#0d1117" stroke-width="2" class="data-point"/>
  
    <circle cx="415.8333333333333" cy="277.73558195757005" r="4" fill="#3b82f6" stroke="#0d1117" stroke-width="2" class="data-point"/>
  
    <circle cx="418.74999999999994" cy="275.86753888120387" r="4" fill="#3b82f6" stroke="#0d1117" stroke-width="2" class="data-point"/>
  
    <circle cx="421.6666666666667" cy="273.69859471758605" r="4" fill="#3b82f6" stroke="#0d1117" stroke-width="2" class="data-point"/>
  
    <circle cx="424.58333333333337" cy="271.4633294980026" r="4" fill="#3b82f6" stroke="#0d1117" stroke-width="2" class="data-point"/>
  
    <circle cx="427.5" cy="269.7095060180217" r="4" fill="#3b82f6" stroke="#0d1117" stroke-width="2" class="data-point"/>
  
    <circle cx="430.4166666666667" cy="267.7481221962224" r="4" fill="#3b82f6" stroke="#0d1117" stroke-width="2" class="data-point"/>
  
    <circle cx="433.3333333333333" cy="264.75999017465836" r="4" fill="#3b82f6" stroke="#0d1117" stroke-width="2" class="data-point"/>
  
    <circle cx="436.25" cy="260.73282827629896" r="4" fill="#3b82f6" stroke="#0d1117" stroke-width="2" class="data-point"/>
  
    <circle cx="439.16666666666663" cy="258.10454939173377" r="4" fill="#3b82f6" stroke="#0d1117" stroke-width="2" class="data-point"/>
  
    <circle cx="442.0833333333333" cy="254.97640625202" r="4" fill="#3b82f6" stroke="#0d1117" stroke-width="2" class="data-point"/>
  
    <circle cx="445.00000000000006" cy="251.4908663107135" r="4" fill="#3b82f6" stroke="#0d1117" stroke-width="2" class="data-point"/>
  
    <circle cx="447.9166666666667" cy="248.6955566185311" r="4" fill="#3b82f6" stroke="#0d1117" stroke-width="2" class="data-point"/>
  
    <circle cx="450.83333333333337" cy="245.66198239195356" r="4" fill="#3b82f6" stroke="#0d1117" stroke-width="2" class="data-point"/>
  
    <circle cx="453.75" cy="242.97106695453192" r="4" fill="#3b82f6" stroke="#0d1117" stroke-width="2" class="data-point"/>
  
    <circle cx="456.66666666666663" cy="240.30471487117168" r="4" fill="#3b82f6" stroke="#0d1117" stroke-width="2" class="data-point"/>
  
    <circle cx="459.5833333333333" cy="237.6457317940298" r="4" fill="#3b82f6" stroke="#0d1117" stroke-width="2" class="data-point"/>
  
    <circle cx="462.49999999999994" cy="234.02509340538586" r="4" fill="#3b82f6" stroke="#0d1117" stroke-width="2" class="data-point"/>
  
    <circle cx="465.4166666666667" cy="230.39340150741424" r="4" fill="#3b82f6" stroke="#0d1117" stroke-width="2" class="data-point"/>
  
    <circle cx="468.33333333333337" cy="227.36596811935203" r="4" fill="#3b82f6" stroke="#0d1117" stroke-width="2" class="data-point"/>
  
    <circle cx="471.25" cy="224.8285736448139" r="4" fill="#3b82f6" stroke="#0d1117" stroke-width="2" class="data-point"/>
  
    <circle cx="474.1666666666667" cy="222.36732556786598" r="4" fill="#3b82f6" stroke="#0d1117" stroke-width="2" class="data-point"/>
  
    <circle cx="477.0833333333333" cy="219.10039947770554" r="4" fill="#3b82f6" stroke="#0d1117" stroke-width="2" class="data-point"/>
  
    <circle cx="480" cy="216.5666895062766" r="4" fill="#3b82f6" stroke="#0d1117" stroke-width="2" class="data-point"/>
  
    <circle cx="482.91666666666663" cy="214.05999922431513" r="4" fill="#3b82f6" stroke="#0d1117" stroke-width="2" class="data-point"/>
  
    <circle cx="485.8333333333333" cy="211.71542707915864" r="4" fill="#3b82f6" stroke="#0d1117" stroke-width="2" class="data-point"/>
  
    <circle cx="488.75000000000006" cy="209.50718154904268" r="4" fill="#3b82f6" stroke="#0d1117" stroke-width="2" class="data-point"/>
  
    <circle cx="491.6666666666667" cy="207.24489663999174" r="4" fill="#3b82f6" stroke="#0d1117" stroke-width="2" class="data-point"/>
  
    <circle cx="494.58333333333337" cy="205.3105325076599" r="4" fill="#3b82f6" stroke="#0d1117" stroke-width="2" class="data-point"/>
  
    <circle cx="497.5" cy="203.30739098395625" r="4" fill="#3b82f6" stroke="#0d1117" stroke-width="2" class="data-point"/>
  
    <circle cx="500.41666666666663" cy="201.2624917583483" r="4" fill="#3b82f6" stroke="#0d1117" stroke-width="2" class="data-point"/>
  
    <circle cx="503.3333333333333" cy="199.10091660094892" r="4" fill="#3b82f6" stroke="#0d1117" stroke-width="2" class="data-point"/>
  
    <circle cx="506.24999999999994" cy="197.11742576049437" r="4" fill="#3b82f6" stroke="#0d1117" stroke-width="2" class="data-point"/>
  
    <circle cx="509.1666666666667" cy="195.30096572765706" r="4" fill="#3b82f6" stroke="#0d1117" stroke-width="2" class="data-point"/>
  
    <circle cx="512.0833333333334" cy="192.00947628343525" r="4" fill="#3b82f6" stroke="#0d1117" stroke-width="2" class="data-point"/>
  
    <circle cx="515" cy="189.2546961254541" r="4" fill="#3b82f6" stroke="#0d1117" stroke-width="2" class="data-point"/>
  
    <circle cx="517.9166666666667" cy="186.609222893046" r="4" fill="#3b82f6" stroke="#0d1117" stroke-width="2" class="data-point"/>
  
    <circle cx="520.8333333333333" cy="184.06814391539865" r="4" fill="#3b82f6" stroke="#0d1117" stroke-width="2" class="data-point"/>
  
    <circle cx="523.75" cy="180.05572002947602" r="4" fill="#3b82f6" stroke="#0d1117" stroke-width="2" class="data-point"/>
  
    <circle cx="526.6666666666666" cy="177.5170973872348" r="4" fill="#3b82f6" stroke="#0d1117" stroke-width="2" class="data-point"/>
  
    <circle cx="529.5833333333333" cy="175.31990536644648" r="4" fill="#3b82f6" stroke="#0d1117" stroke-width="2" class="data-point"/>
  
    <circle cx="532.5" cy="172.72478700986412" r="4" fill="#3b82f6" stroke="#0d1117" stroke-width="2" class="data-point"/>
  
    <circle cx="535.4166666666667" cy="168.89904461480785" r="4" fill="#3b82f6" stroke="#0d1117" stroke-width="2" class="data-point"/>
  
    <circle cx="538.3333333333334" cy="166.1467207922328" r="4" fill="#3b82f6" stroke="#0d1117" stroke-width="2" class="data-point"/>
  
    <circle cx="541.25" cy="163.82302749802847" r="4" fill="#3b82f6" stroke="#0d1117" stroke-width="2" class="data-point"/>
  
    <circle cx="544.1666666666666" cy="161.85673100541686" r="4" fill="#3b82f6" stroke="#0d1117" stroke-width="2" class="data-point"/>
  
    <circle cx="547.0833333333333" cy="159.99114426445684" r="4" fill="#3b82f6" stroke="#0d1117" stroke-width="2" class="data-point"/>
  
    <circle cx="550" cy="158.47435715116805" r="4" fill="#3b82f6" stroke="#0d1117" stroke-width="2" class="data-point"/>
  
    <circle cx="552.9166666666667" cy="156.76597587620068" r="4" fill="#3b82f6" stroke="#0d1117" stroke-width="2" class="data-point"/>
  
    <circle cx="555.8333333333334" cy="155.3732337009218" r="4" fill="#3b82f6" stroke="#0d1117" stroke-width="2" class="data-point"/>
  
    <circle cx="558.75" cy="153.729945314217" r="4" fill="#3b82f6" stroke="#0d1117" stroke-width="2" class="data-point"/>
  
    <circle cx="561.6666666666667" cy="151.36449431810837" r="4" fill="#3b82f6" stroke="#0d1117" stroke-width="2" class="data-point"/>
  
    <circle cx="564.5833333333333" cy="149.3318767695311" r="4" fill="#3b82f6" stroke="#0d1117" stroke-width="2" class="data-point"/>
  
    <circle cx="567.5" cy="147.56454344481648" r="4" fill="#3b82f6" stroke="#0d1117" stroke-width="2" class="data-point"/>
  
    <circle cx="570.4166666666666" cy="146.03670282220008" r="4" fill="#3b82f6" stroke="#0d1117" stroke-width="2" class="data-point"/>
  
    <circle cx="573.3333333333333" cy="144.46096365916407" r="4" fill="#3b82f6" stroke="#0d1117" stroke-width="2" class="data-point"/>
  
    <circle cx="576.25" cy="143.13208620444468" r="4" fill="#3b82f6" stroke="#0d1117" stroke-width="2" class="data-point"/>
  
    <circle cx="579.1666666666667" cy="140.89804915256428" r="4" fill="#3b82f6" stroke="#0d1117" stroke-width="2" class="data-point"/>
  
    <circle cx="582.0833333333334" cy="138.9882483742938" r="4" fill="#3b82f6" stroke="#0d1117" stroke-width="2" class="data-point"/>
  
    <circle cx="585" cy="137.0944137761632" r="4" fill="#3b82f6" stroke="#0d1117" stroke-width="2" class="data-point"/>
  
    <circle cx="587.9166666666666" cy="135.53095629015786" r="4" fill="#3b82f6" stroke="#0d1117" stroke-width="2" class="data-point"/>
  
    <circle cx="590.8333333333333" cy="134.09645641297462" r="4" fill="#3b82f6" stroke="#0d1117" stroke-width="2" class="data-point"/>
  
    <circle cx="593.75" cy="132.82284650489328" r="4" fill="#3b82f6" stroke="#0d1117" stroke-width="2" class="data-point"/>
  
    <circle cx="596.6666666666667" cy="130.63916432883866" r="4" fill="#3b82f6" stroke="#0d1117" stroke-width="2" class="data-point"/>
  
    <circle cx="599.5833333333334" cy="128.86569016560873" r="4" fill="#3b82f6" stroke="#0d1117" stroke-width="2" class="data-point"/>
  
    <circle cx="602.5" cy="127.24942146837145" r="4" fill="#3b82f6" stroke="#0d1117" stroke-width="2" class="data-point"/>
  
    <circle cx="605.4166666666666" cy="125.7056146656152" r="4" fill="#3b82f6" stroke="#0d1117" stroke-width="2" class="data-point"/>
  
    <circle cx="608.3333333333334" cy="124.35831469534978" r="4" fill="#3b82f6" stroke="#0d1117" stroke-width="2" class="data-point"/>
  
    <circle cx="611.25" cy="123.05031609158252" r="4" fill="#3b82f6" stroke="#0d1117" stroke-width="2" class="data-point"/>
  
    <circle cx="614.1666666666666" cy="121.85162441338832" r="4" fill="#3b82f6" stroke="#0d1117" stroke-width="2" class="data-point"/>
  
    <circle cx="617.0833333333333" cy="120.70205944331684" r="4" fill="#3b82f6" stroke="#0d1117" stroke-width="2" class="data-point"/>
  
    <circle cx="620" cy="119.64829155408464" r="4" fill="#3b82f6" stroke="#0d1117" stroke-width="2" class="data-point"/>
  
    <circle cx="622.9166666666667" cy="118.33292394409898" r="4" fill="#3b82f6" stroke="#0d1117" stroke-width="2" class="data-point"/>
  
    <circle cx="625.8333333333334" cy="116.92053108557099" r="4" fill="#3b82f6" stroke="#0d1117" stroke-width="2" class="data-point"/>
  
    <circle cx="628.75" cy="115.62112965572518" r="4" fill="#3b82f6" stroke="#0d1117" stroke-width="2" class="data-point"/>
  
    <circle cx="631.6666666666666" cy="113.60202195188168" r="4" fill="#3b82f6" stroke="#0d1117" stroke-width="2" class="data-point"/>
  
    <circle cx="634.5833333333333" cy="112.13681788212176" r="4" fill="#3b82f6" stroke="#0d1117" stroke-width="2" class="data-point"/>
  
    <circle cx="637.5" cy="110.73547853292135" r="4" fill="#3b82f6" stroke="#0d1117" stroke-width="2" class="data-point"/>
  
    <circle cx="640.4166666666667" cy="109.50608266215045" r="4" fill="#3b82f6" stroke="#0d1117" stroke-width="2" class="data-point"/>
  
    <circle cx="643.3333333333334" cy="108.06421377874881" r="4" fill="#3b82f6" stroke="#0d1117" stroke-width="2" class="data-point"/>
  
    <circle cx="646.25" cy="106.293195950925" r="4" fill="#3b82f6" stroke="#0d1117" stroke-width="2" class="data-point"/>
  
    <circle cx="649.1666666666666" cy="104.72359762640431" r="4" fill="#3b82f6" stroke="#0d1117" stroke-width="2" class="data-point"/>
  
    <circle cx="652.0833333333334" cy="103.3222582772039" r="4" fill="#3b82f6" stroke="#0d1117" stroke-width="2" class="data-point"/>
  
    <circle cx="655" cy="101.80055849310287" r="4" fill="#3b82f6" stroke="#0d1117" stroke-width="2" class="data-point"/>
  
    <circle cx="657.9166666666666" cy="99.70161988855995" r="4" fill="#3b82f6" stroke="#0d1117" stroke-width="2" class="data-point"/>
  
    <circle cx="660.8333333333333" cy="97.97850060115576" r="4" fill="#3b82f6" stroke="#0d1117" stroke-width="2" class="data-point"/>
  
    <circle cx="663.75" cy="96.13010820803868" r="4" fill="#3b82f6" stroke="#0d1117" stroke-width="2" class="data-point"/>
  
    <circle cx="666.6666666666667" cy="94.28785665343693" r="4" fill="#3b82f6" stroke="#0d1117" stroke-width="2" class="data-point"/>
  
    <circle cx="669.5833333333334" cy="92.57210637225117" r="4" fill="#3b82f6" stroke="#0d1117" stroke-width="2" class="data-point"/>
  
    <circle cx="672.5" cy="90.88828845134518" r="4" fill="#3b82f6" stroke="#0d1117" stroke-width="2" class="data-point"/>
  
    <circle cx="675.4166666666666" cy="89.10621711419375" r="4" fill="#3b82f6" stroke="#0d1117" stroke-width="2" class="data-point"/>
  
    <circle cx="678.3333333333333" cy="87.50837093250252" r="4" fill="#3b82f6" stroke="#0d1117" stroke-width="2" class="data-point"/>
  
    <circle cx="681.25" cy="86.10825975100514" r="4" fill="#3b82f6" stroke="#0d1117" stroke-width="2" class="data-point"/>
  
    <circle cx="684.1666666666667" cy="84.81131465656551" r="4" fill="#3b82f6" stroke="#0d1117" stroke-width="2" class="data-point"/>
  
    <circle cx="687.0833333333334" cy="83.43945133223878" r="4" fill="#3b82f6" stroke="#0d1117" stroke-width="2" class="data-point"/>
  
    <circle cx="690" cy="82.10074853589481" r="4" fill="#3b82f6" stroke="#0d1117" stroke-width="2" class="data-point"/>
  
    <circle cx="692.9166666666666" cy="80.89100334837298" r="4" fill="#3b82f6" stroke="#0d1117" stroke-width="2" class="data-point"/>
  
    <circle cx="695.8333333333334" cy="79.67880182544508" r="4" fill="#3b82f6" stroke="#0d1117" stroke-width="2" class="data-point"/>
  
    <circle cx="698.75" cy="78.51818334604593" r="4" fill="#3b82f6" stroke="#0d1117" stroke-width="2" class="data-point"/>
  
    <circle cx="701.6666666666666" cy="77.36493387286527" r="4" fill="#3b82f6" stroke="#0d1117" stroke-width="2" class="data-point"/>
  
    <circle cx="704.5833333333333" cy="76.21414073509067" r="4" fill="#3b82f6" stroke="#0d1117" stroke-width="2" class="data-point"/>
  
    <circle cx="707.5" cy="75.19844604465362" r="4" fill="#3b82f6" stroke="#0d1117" stroke-width="2" class="data-point"/>
  
    <circle cx="710.4166666666667" cy="74.01694871430237" r="4" fill="#3b82f6" stroke="#0d1117" stroke-width="2" class="data-point"/>
  
    <circle cx="713.3333333333334" cy="72.79860635285905" r="4" fill="#3b82f6" stroke="#0d1117" stroke-width="2" class="data-point"/>
  
    <circle cx="716.25" cy="71.4107768483924" r="4" fill="#3b82f6" stroke="#0d1117" stroke-width="2" class="data-point"/>
  
    <circle cx="719.1666666666666" cy="70.07330221975155" r="4" fill="#3b82f6" stroke="#0d1117" stroke-width="2" class="data-point"/>
  
    <circle cx="722.0833333333333" cy="68.87583870926039" r="4" fill="#3b82f6" stroke="#0d1117" stroke-width="2" class="data-point"/>
  
    <circle cx="725" cy="67.82452715543434" r="4" fill="#3b82f6" stroke="#0d1117" stroke-width="2" class="data-point"/>
  
    <circle cx="727.9166666666667" cy="66.7400550736254" r="4" fill="#3b82f6" stroke="#0d1117" stroke-width="2" class="data-point"/>
  
    <circle cx="730.8333333333334" cy="65.75506457576506" r="4" fill="#3b82f6" stroke="#0d1117" stroke-width="2" class="data-point"/>
  
    <circle cx="733.75" cy="64.6177812827242" r="4" fill="#3b82f6" stroke="#0d1117" stroke-width="2" class="data-point"/>
  
    <circle cx="736.6666666666666" cy="63.502605008338605" r="4" fill="#3b82f6" stroke="#0d1117" stroke-width="2" class="data-point"/>
  
    <circle cx="739.5833333333334" cy="62.435327274372696" r="4" fill="#3b82f6" stroke="#0d1117" stroke-width="2" class="data-point"/>
  
    <circle cx="742.5" cy="61.349627024860695" r="4" fill="#3b82f6" stroke="#0d1117" stroke-width="2" class="data-point"/>
  
    <circle cx="745.4166666666666" cy="60.18409587464936" r="4" fill="#3b82f6" stroke="#0d1117" stroke-width="2" class="data-point"/>
  
    <circle cx="748.3333333333333" cy="59.0578660909361" r="4" fill="#3b82f6" stroke="#0d1117" stroke-width="2" class="data-point"/>
  
    <circle cx="751.25" cy="57.951286990472" r="4" fill="#3b82f6" stroke="#0d1117" stroke-width="2" class="data-point"/>
  
    <circle cx="754.1666666666667" cy="56.99700068518831" r="4" fill="#3b82f6" stroke="#0d1117" stroke-width="2" class="data-point"/>
  
    <circle cx="757.0833333333334" cy="56.019379193546285" r="4" fill="#3b82f6" stroke="#0d1117" stroke-width="2" class="data-point"/>
  
    <circle cx="760" cy="55" r="4" fill="#3b82f6" stroke="#0d1117" stroke-width="2" class="data-point"/>
  

  <!-- Axis lines -->
  <line x1="60" y1="55" x2="60" y2="340"
        stroke="#30363d" stroke-width="2"/>
  <line x1="60" y1="340" x2="760" y2="340"
        stroke="#30363d" stroke-width="2"/>
</svg>