<?xml version="1.0" encoding="UTF-8"?>
<svg width="800" height="400" xmlns="http://www.w3.org/2000/svg">
  <defs>
    <!-- Gradient for area fill -->
    <linearGradient id="areaGradient" x1="0%" y1="0%" x2="0%" y2="100%">
      <stop offset="0%" style="stop-color:#3b82f6;stop-opacity:0.3" />
      <stop offset="100%" style="stop-color:#3b82f6;stop-opacity:0.05" />
    </linearGradient>

    <!-- Glow filter for line -->
    <filter id="glow">
      <feGaussianBlur stdDeviation="2" result="coloredBlur"/>
      <feMerge>
        <feMergeNode in="coloredBlur"/>
        <feMergeNode in="SourceGraphic"/>
      </feMerge>
    </filter>

    <!-- Animation -->
    <style>
      @keyframes draw {
        from { stroke-dashoffset: 2000; }
        to { stroke-dashoffset: 0; }
      }
      @keyframes fadeIn {
        from { opacity: 0; }
        to { opacity: 1; }
      }
      .line-path {
        stroke-dasharray: 2000;
        stroke-dashoffset: 2000;
        animation: draw 1.5s ease-out forwards;
      }
      .area-path {
        opacity: 0;
        animation: fadeIn 1s ease-out 0.5s forwards;
      }
      .data-point {
        opacity: 0;
        animation: fadeIn 0.5s ease-out 1s forwards;
      }
    </style>
  </defs>

  <!-- Background -->
  <rect width="800" height="400" fill="#0d1117" rx="8"/>

  <!-- Title -->
  <text x="400" y="25" text-anchor="middle" fill="#c9d1d9" font-family="system-ui, -apple-system, sans-serif" font-size="16" font-weight="600">
    zxcloli666/SoundCloud-Desktop Downloads
  </text>

  <!-- Stats -->
  <text x="780" y="25" text-anchor="end" fill="#58a6ff" font-family="system-ui, -apple-system, sans-serif" font-size="14" font-weight="600">
    219.4K total
  </text>
  <text x="780" y="42" text-anchor="end" fill="#3fb950" font-family="system-ui, -apple-system, sans-serif" font-size="12">
    +1.3K (+0.6%)
  </text>

  <!-- Grid lines -->
  <g opacity="0.1">
    
      <line x1="60" y1="340" x2="760" y2="340"
            stroke="#c9d1d9" stroke-width="1"/>
    
      <line x1="60" y1="268.75" x2="760" y2="268.75"
            stroke="#c9d1d9" stroke-width="1"/>
    
      <line x1="60" y1="197.5" x2="760" y2="197.5"
            stroke="#c9d1d9" stroke-width="1"/>
    
      <line x1="60" y1="126.25" x2="760" y2="126.25"
            stroke="#c9d1d9" stroke-width="1"/>
    
      <line x1="60" y1="55" x2="760" y2="55"
            stroke="#c9d1d9" stroke-width="1"/>
    
  </g>

  <!-- Y-axis labels -->
  
    <text x="50" y="344" text-anchor="end"
          fill="#8b949e" font-family="system-ui, -apple-system, sans-serif" font-size="11">
      60.2K
    </text>
  
    <text x="50" y="272.75" text-anchor="end"
          fill="#8b949e" font-family="system-ui, -apple-system, sans-serif" font-size="11">
      100.0K
    </text>
  
    <text x="50" y="201.5" text-anchor="end"
          fill="#8b949e" font-family="system-ui, -apple-system, sans-serif" font-size="11">
      139.8K
    </text>
  
    <text x="50" y="130.25" text-anchor="end"
          fill="#8b949e" font-family="system-ui, -apple-system, sans-serif" font-size="11">
      179.6K
    </text>
  
    <text x="50" y="59" text-anchor="end"
          fill="#8b949e" font-family="system-ui, -apple-system, sans-serif" font-size="11">
      219.4K
    </text>
  

  <!-- X-axis labels -->
  
    <text x="60" y="360" text-anchor="middle"
          fill="#8b949e" font-family="system-ui, -apple-system, sans-serif" font-size="11">
      Nov 25
    </text>
  
    <text x="147.5" y="360" text-anchor="middle"
          fill="#8b949e" font-family="system-ui, -apple-system, sans-serif" font-size="11">
      Dec 17
    </text>
  
    <text x="235" y="360" text-anchor="middle"
          fill="#8b949e" font-family="system-ui, -apple-system, sans-serif" font-size="11">
      Jan 8
    </text>
  
    <text x="322.5" y="360" text-anchor="middle"
          fill="#8b949e" font-family="system-ui, -apple-system, sans-serif" font-size="11">
      Jan 30
    </text>
  
    <text x="410" y="360" text-anchor="middle"
          fill="#8b949e" font-family="system-ui, -apple-system, sans-serif" font-size="11">
      Feb 21
    </text>
  
    <text x="497.5" y="360" text-anchor="middle"
          fill="#8b949e" font-family="system-ui, -apple-system, sans-serif" font-size="11">
      Mar 15
    </text>
  
    <text x="585" y="360" text-anchor="middle"
          fill="#8b949e" font-family="system-ui, -apple-system, sans-serif" font-size="11">
      Apr 6
    </text>
  
    <text x="672.5" y="360" text-anchor="middle"
          fill="#8b949e" font-family="system-ui, -apple-system, sans-serif" font-size="11">
      Apr 28
    </text>
  
    <text x="760" y="360" text-anchor="middle"
          fill="#8b949e" font-family="system-ui, -apple-system, sans-serif" font-size="11">
      May 20
    </text>
  

  <!-- Area under line -->
  <path d="M 60 340
    L 60.00 340.00 L 63.98 339.74 L 67.95 339.29 L 71.93 338.87 L 75.91 338.05 L 79.89 337.20 L 83.86 336.53 L 87.84 335.90 L 91.82 335.34 L 95.80 334.69 L 99.77 333.96 L 103.75 333.18 L 107.73 332.47 L 111.70 331.72 L 115.68 331.17 L 119.66 330.60 L 123.64 329.83 L 127.61 329.31 L 131.59 328.59 L 135.57 327.76 L 139.55 327.14 L 143.52 326.63 L 147.50 326.30 L 151.48 326.02 L 155.45 325.51 L 159.43 325.15 L 163.41 324.35 L 167.39 324.04 L 171.36 323.64 L 175.34 323.11 L 179.32 322.75 L 183.30 322.39 L 187.27 322.01 L 191.25 321.74 L 195.23 321.52 L 199.20 321.17 L 203.18 320.74 L 207.16 320.35 L 211.14 319.86 L 215.11 319.32 L 219.09 318.83 L 223.07 318.23 L 227.05 317.64 L 231.02 317.06 L 235.00 316.42 L 238.98 315.81 L 242.95 315.11 L 246.93 314.48 L 250.91 313.95 L 254.89 313.53 L 258.86 312.94 L 262.84 312.26 L 266.82 311.65 L 270.80 310.93 L 274.77 310.04 L 278.75 309.37 L 282.73 308.82 L 286.70 308.30 L 290.68 307.67 L 294.66 306.94 L 298.64 306.13 L 302.61 305.28 L 306.59 304.47 L 310.57 303.75 L 314.55 303.04 L 318.52 302.41 L 322.50 301.77 L 326.48 301.05 L 330.45 300.16 L 334.43 299.50 L 338.41 298.90 L 342.39 298.24 L 346.36 297.63 L 350.34 296.95 L 354.32 296.24 L 358.30 295.51 L 362.27 294.86 L 366.25 294.31 L 370.23 293.70 L 374.20 293.04 L 378.18 292.43 L 382.16 291.64 L 386.14 290.96 L 390.11 290.30 L 394.09 289.76 L 398.07 289.23 L 402.05 288.69 L 406.02 288.06 L 410.00 287.41 L 413.98 286.61 L 417.95 285.97 L 421.93 285.45 L 425.91 284.91 L 429.89 284.39 L 433.86 283.75 L 437.84 283.10 L 441.82 281.66 L 445.80 278.78 L 449.77 275.36 L 453.75 272.24 L 457.73 270.65 L 461.70 268.27 L 465.68 266.69 L 469.66 265.30 L 473.64 263.94 L 477.61 262.66 L 481.59 260.67 L 485.57 259.09 L 489.55 257.06 L 493.52 256.65 L 497.50 256.60 L 501.48 256.53 L 505.45 256.47 L 509.43 256.39 L 513.41 256.32 L 517.39 256.29 L 521.36 256.20 L 525.34 256.10 L 529.32 256.04 L 533.30 256.02 L 537.27 255.91 L 541.25 253.31 L 545.23 249.25 L 549.20 246.53 L 553.18 243.37 L 557.16 240.11 L 561.14 237.55 L 565.11 234.69 L 569.09 230.34 L 573.07 224.47 L 577.05 220.64 L 581.02 216.08 L 585.00 211.00 L 588.98 206.92 L 592.95 202.50 L 596.93 198.58 L 600.91 194.69 L 604.89 190.82 L 608.86 185.54 L 612.84 180.25 L 616.82 175.83 L 620.80 172.14 L 624.77 168.55 L 628.75 163.79 L 632.73 160.09 L 636.70 156.44 L 640.68 153.02 L 644.66 149.81 L 648.64 146.51 L 652.61 143.69 L 656.59 140.77 L 660.57 137.79 L 664.55 134.64 L 668.52 131.75 L 672.50 129.10 L 676.48 124.30 L 680.45 120.29 L 684.43 116.43 L 688.41 112.73 L 692.39 106.88 L 696.36 103.18 L 700.34 99.98 L 704.32 96.19 L 708.30 90.62 L 712.27 86.61 L 716.25 83.22 L 720.23 80.35 L 724.20 77.64 L 728.18 75.42 L 732.16 72.93 L 736.14 70.90 L 740.11 68.51 L 744.09 65.06 L 748.07 62.10 L 752.05 59.52 L 756.02 57.30 L 760.00 55.00
    L 760 340
    Z" fill="url(#areaGradient)" class="area-path"/>

  <!-- Main line with glow -->
  <path d="M 60.00 340.00 L 63.98 339.74 L 67.95 339.29 L 71.93 338.87 L 75.91 338.05 L 79.89 337.20 L 83.86 336.53 L 87.84 335.90 L 91.82 335.34 L 95.80 334.69 L 99.77 333.96 L 103.75 333.18 L 107.73 332.47 L 111.70 331.72 L 115.68 331.17 L 119.66 330.60 L 123.64 329.83 L 127.61 329.31 L 131.59 328.59 L 135.57 327.76 L 139.55 327.14 L 143.52 326.63 L 147.50 326.30 L 151.48 326.02 L 155.45 325.51 L 159.43 325.15 L 163.41 324.35 L 167.39 324.04 L 171.36 323.64 L 175.34 323.11 L 179.32 322.75 L 183.30 322.39 L 187.27 322.01 L 191.25 321.74 L 195.23 321.52 L 199.20 321.17 L 203.18 320.74 L 207.16 320.35 L 211.14 319.86 L 215.11 319.32 L 219.09 318.83 L 223.07 318.23 L 227.05 317.64 L 231.02 317.06 L 235.00 316.42 L 238.98 315.81 L 242.95 315.11 L 246.93 314.48 L 250.91 313.95 L 254.89 313.53 L 258.86 312.94 L 262.84 312.26 L 266.82 311.65 L 270.80 310.93 L 274.77 310.04 L 278.75 309.37 L 282.73 308.82 L 286.70 308.30 L 290.68 307.67 L 294.66 306.94 L 298.64 306.13 L 302.61 305.28 L 306.59 304.47 L 310.57 303.75 L 314.55 303.04 L 318.52 302.41 L 322.50 301.77 L 326.48 301.05 L 330.45 300.16 L 334.43 299.50 L 338.41 298.90 L 342.39 298.24 L 346.36 297.63 L 350.34 296.95 L 354.32 296.24 L 358.30 295.51 L 362.27 294.86 L 366.25 294.31 L 370.23 293.70 L 374.20 293.04 L 378.18 292.43 L 382.16 291.64 L 386.14 290.96 L 390.11 290.30 L 394.09 289.76 L 398.07 289.23 L 402.05 288.69 L 406.02 288.06 L 410.00 287.41 L 413.98 286.61 L 417.95 285.97 L 421.93 285.45 L 425.91 284.91 L 429.89 284.39 L 433.86 283.75 L 437.84 283.10 L 441.82 281.66 L 445.80 278.78 L 449.77 275.36 L 453.75 272.24 L 457.73 270.65 L 461.70 268.27 L 465.68 266.69 L 469.66 265.30 L 473.64 263.94 L 477.61 262.66 L 481.59 260.67 L 485.57 259.09 L 489.55 257.06 L 493.52 256.65 L 497.50 256.60 L 501.48 256.53 L 505.45 256.47 L 509.43 256.39 L 513.41 256.32 L 517.39 256.29 L 521.36 256.20 L 525.34 256.10 L 529.32 256.04 L 533.30 256.02 L 537.27 255.91 L 541.25 253.31 L 545.23 249.25 L 549.20 246.53 L 553.18 243.37 L 557.16 240.11 L 561.14 237.55 L 565.11 234.69 L 569.09 230.34 L 573.07 224.47 L 577.05 220.64 L 581.02 216.08 L 585.00 211.00 L 588.98 206.92 L 592.95 202.50 L 596.93 198.58 L 600.91 194.69 L 604.89 190.82 L 608.86 185.54 L 612.84 180.25 L 616.82 175.83 L 620.80 172.14 L 624.77 168.55 L 628.75 163.79 L 632.73 160.09 L 636.70 156.44 L 640.68 153.02 L 644.66 149.81 L 648.64 146.51 L 652.61 143.69 L 656.59 140.77 L 660.57 137.79 L 664.55 134.64 L 668.52 131.75 L 672.50 129.10 L 676.48 124.30 L 680.45 120.29 L 684.43 116.43 L 688.41 112.73 L 692.39 106.88 L 696.36 103.18 L 700.34 99.98 L 704.32 96.19 L 708.30 90.62 L 712.27 86.61 L 716.25 83.22 L 720.23 80.35 L 724.20 77.64 L 728.18 75.42 L 732.16 72.93 L 736.14 70.90 L 740.11 68.51 L 744.09 65.06 L 748.07 62.10 L 752.05 59.52 L 756.02 57.30 L 760.00 55.00" fill="none" stroke="#3b82f6" stroke-width="3"
        stroke-linecap="round" stroke-linejoin="round" filter="url(#glow)" class="line-path"/>

  <!-- Data points -->
  
    <circle cx="60" cy="340" r="4" fill="#3b82f6" stroke="#0d1117" stroke-width="2" class="data-point"/>
  
    <circle cx="63.97727272727273" cy="339.73686028691304" r="4" fill="#3b82f6" stroke="#0d1117" stroke-width="2" class="data-point"/>
  
    <circle cx="67.95454545454545" cy="339.2893437680577" r="4" fill="#3b82f6" stroke="#0d1117" stroke-width="2" class="data-point"/>
  
    <circle cx="71.93181818181819" cy="338.8740484385599" r="4" fill="#3b82f6" stroke="#0d1117" stroke-width="2" class="data-point"/>
  
    <circle cx="75.9090909090909" cy="338.0488279777906" r="4" fill="#3b82f6" stroke="#0d1117" stroke-width="2" class="data-point"/>
  
    <circle cx="79.88636363636364" cy="337.19675652589" r="4" fill="#3b82f6" stroke="#0d1117" stroke-width="2" class="data-point"/>
  
    <circle cx="83.86363636363636" cy="336.525481747607" r="4" fill="#3b82f6" stroke="#0d1117" stroke-width="2" class="data-point"/>
  
    <circle cx="87.8409090909091" cy="335.89895862120943" r="4" fill="#3b82f6" stroke="#0d1117" stroke-width="2" class="data-point"/>
  
    <circle cx="91.81818181818181" cy="335.3422480717534" r="4" fill="#3b82f6" stroke="#0d1117" stroke-width="2" class="data-point"/>
  
    <circle cx="95.79545454545455" cy="334.68887395422456" r="4" fill="#3b82f6" stroke="#0d1117" stroke-width="2" class="data-point"/>
  
    <circle cx="99.77272727272728" cy="333.96031706152803" r="4" fill="#3b82f6" stroke="#0d1117" stroke-width="2" class="data-point"/>
  
    <circle cx="103.75" cy="333.17984825264426" r="4" fill="#3b82f6" stroke="#0d1117" stroke-width="2" class="data-point"/>
  
    <circle cx="107.72727272727272" cy="332.4709820867774" r="4" fill="#3b82f6" stroke="#0d1117" stroke-width="2" class="data-point"/>
  
    <circle cx="111.70454545454547" cy="331.7173642690249" r="4" fill="#3b82f6" stroke="#0d1117" stroke-width="2" class="data-point"/>
  
    <circle cx="115.68181818181819" cy="331.1678139838706" r="4" fill="#3b82f6" stroke="#0d1117" stroke-width="2" class="data-point"/>
  
    <circle cx="119.6590909090909" cy="330.59857297188654" r="4" fill="#3b82f6" stroke="#0d1117" stroke-width="2" class="data-point"/>
  
    <circle cx="123.63636363636364" cy="329.8252644273045" r="4" fill="#3b82f6" stroke="#0d1117" stroke-width="2" class="data-point"/>
  
    <circle cx="127.61363636363636" cy="329.3079353315077" r="4" fill="#3b82f6" stroke="#0d1117" stroke-width="2" class="data-point"/>
  
    <circle cx="131.5909090909091" cy="328.5919089013391" r="4" fill="#3b82f6" stroke="#0d1117" stroke-width="2" class="data-point"/>
  
    <circle cx="135.5681818181818" cy="327.7648983744944" r="4" fill="#3b82f6" stroke="#0d1117" stroke-width="2" class="data-point"/>
  
    <circle cx="139.54545454545456" cy="327.14195538024774" r="4" fill="#3b82f6" stroke="#0d1117" stroke-width="2" class="data-point"/>
  
    <circle cx="143.52272727272728" cy="326.6299964826772" r="4" fill="#3b82f6" stroke="#0d1117" stroke-width="2" class="data-point"/>
  
    <circle cx="147.5" cy="326.29883425872424" r="4" fill="#3b82f6" stroke="#0d1117" stroke-width="2" class="data-point"/>
  
    <circle cx="151.47727272727272" cy="326.0231640831093" r="4" fill="#3b82f6" stroke="#0d1117" stroke-width="2" class="data-point"/>
  
    <circle cx="155.45454545454544" cy="325.5129952516142" r="4" fill="#3b82f6" stroke="#0d1117" stroke-width="2" class="data-point"/>
  
    <circle cx="159.4318181818182" cy="325.14961183830366" r="4" fill="#3b82f6" stroke="#0d1117" stroke-width="2" class="data-point"/>
  
    <circle cx="163.40909090909093" cy="324.3530324347411" r="4" fill="#3b82f6" stroke="#0d1117" stroke-width="2" class="data-point"/>
  
    <circle cx="167.38636363636363" cy="324.0397708715424" r="4" fill="#3b82f6" stroke="#0d1117" stroke-width="2" class="data-point"/>
  
    <circle cx="171.36363636363637" cy="323.6352159384971" r="4" fill="#3b82f6" stroke="#0d1117" stroke-width="2" class="data-point"/>
  
    <circle cx="175.34090909090907" cy="323.11251664447406" r="4" fill="#3b82f6" stroke="#0d1117" stroke-width="2" class="data-point"/>
  
    <circle cx="179.3181818181818" cy="322.75450342938973" r="4" fill="#3b82f6" stroke="#0d1117" stroke-width="2" class="data-point"/>
  
    <circle cx="183.29545454545456" cy="322.3911200160792" r="4" fill="#3b82f6" stroke="#0d1117" stroke-width="2" class="data-point"/>
  
    <circle cx="187.27272727272728" cy="322.00983594201443" r="4" fill="#3b82f6" stroke="#0d1117" stroke-width="2" class="data-point"/>
  
    <circle cx="191.25" cy="321.74490616285203" r="4" fill="#3b82f6" stroke="#0d1117" stroke-width="2" class="data-point"/>
  
    <circle cx="195.22727272727272" cy="321.5157777051981" r="4" fill="#3b82f6" stroke="#0d1117" stroke-width="2" class="data-point"/>
  
    <circle cx="199.20454545454544" cy="321.16671482049094" r="4" fill="#3b82f6" stroke="#0d1117" stroke-width="2" class="data-point"/>
  
    <circle cx="203.1818181818182" cy="320.74246916061605" r="4" fill="#3b82f6" stroke="#0d1117" stroke-width="2" class="data-point"/>
  
    <circle cx="207.1590909090909" cy="320.35223475617414" r="4" fill="#3b82f6" stroke="#0d1117" stroke-width="2" class="data-point"/>
  
    <circle cx="211.13636363636363" cy="319.8581765193578" r="4" fill="#3b82f6" stroke="#0d1117" stroke-width="2" class="data-point"/>
  
    <circle cx="215.11363636363637" cy="319.31936663065596" r="4" fill="#3b82f6" stroke="#0d1117" stroke-width="2" class="data-point"/>
  
    <circle cx="219.0909090909091" cy="318.8253083938397" r="4" fill="#3b82f6" stroke="#0d1117" stroke-width="2" class="data-point"/>
  
    <circle cx="223.0681818181818" cy="318.22921639072433" r="4" fill="#3b82f6" stroke="#0d1117" stroke-width="2" class="data-point"/>
  
    <circle cx="227.04545454545456" cy="317.6438647840615" r="4" fill="#3b82f6" stroke="#0d1117" stroke-width="2" class="data-point"/>
  
    <circle cx="231.02272727272728" cy="317.0585131773987" r="4" fill="#3b82f6" stroke="#0d1117" stroke-width="2" class="data-point"/>
  
    <circle cx="235" cy="316.41766952239783" r="4" fill="#3b82f6" stroke="#0d1117" stroke-width="2" class="data-point"/>
  
    <circle cx="238.97727272727272" cy="315.80546692460365" r="4" fill="#3b82f6" stroke="#0d1117" stroke-width="2" class="data-point"/>
  
    <circle cx="242.95454545454544" cy="315.1055510891139" r="4" fill="#3b82f6" stroke="#0d1117" stroke-width="2" class="data-point"/>
  
    <circle cx="246.93181818181816" cy="314.4808180287918" r="4" fill="#3b82f6" stroke="#0d1117" stroke-width="2" class="data-point"/>
  
    <circle cx="250.9090909090909" cy="313.95274853654246" r="4" fill="#3b82f6" stroke="#0d1117" stroke-width="2" class="data-point"/>
  
    <circle cx="254.88636363636363" cy="313.530292942743" r="4" fill="#3b82f6" stroke="#0d1117" stroke-width="2" class="data-point"/>
  
    <circle cx="258.8636363636364" cy="312.93957113785393" r="4" fill="#3b82f6" stroke="#0d1117" stroke-width="2" class="data-point"/>
  
    <circle cx="262.8409090909091" cy="312.26471622742" r="4" fill="#3b82f6" stroke="#0d1117" stroke-width="2" class="data-point"/>
  
    <circle cx="266.81818181818187" cy="311.6471434313996" r="4" fill="#3b82f6" stroke="#0d1117" stroke-width="2" class="data-point"/>
  
    <circle cx="270.79545454545456" cy="310.9257468030048" r="4" fill="#3b82f6" stroke="#0d1117" stroke-width="2" class="data-point"/>
  
    <circle cx="274.77272727272725" cy="310.03608396352035" r="4" fill="#3b82f6" stroke="#0d1117" stroke-width="2" class="data-point"/>
  
    <circle cx="278.75" cy="309.3737595156144" r="4" fill="#3b82f6" stroke="#0d1117" stroke-width="2" class="data-point"/>
  
    <circle cx="282.72727272727275" cy="308.82420923046004" r="4" fill="#3b82f6" stroke="#0d1117" stroke-width="2" class="data-point"/>
  
    <circle cx="286.70454545454544" cy="308.30150993643696" r="4" fill="#3b82f6" stroke="#0d1117" stroke-width="2" class="data-point"/>
  
    <circle cx="290.68181818181813" cy="307.673196743964" r="4" fill="#3b82f6" stroke="#0d1117" stroke-width="2" class="data-point"/>
  
    <circle cx="294.6590909090909" cy="306.9428497851921" r="4" fill="#3b82f6" stroke="#0d1117" stroke-width="2" class="data-point"/>
  
    <circle cx="298.6363636363636" cy="306.1337399191016" r="4" fill="#3b82f6" stroke="#0d1117" stroke-width="2" class="data-point"/>
  
    <circle cx="302.6136363636364" cy="305.2834585332764" r="4" fill="#3b82f6" stroke="#0d1117" stroke-width="2" class="data-point"/>
  
    <circle cx="306.5909090909091" cy="304.4671884028842" r="4" fill="#3b82f6" stroke="#0d1117" stroke-width="2" class="data-point"/>
  
    <circle cx="310.56818181818187" cy="303.7493719066402" r="4" fill="#3b82f6" stroke="#0d1117" stroke-width="2" class="data-point"/>
  
    <circle cx="314.54545454545456" cy="303.0369256086225" r="4" fill="#3b82f6" stroke="#0d1117" stroke-width="2" class="data-point"/>
  
    <circle cx="318.52272727272725" cy="302.40861241614954" r="4" fill="#3b82f6" stroke="#0d1117" stroke-width="2" class="data-point"/>
  
    <circle cx="322.5" cy="301.76776876114866" r="4" fill="#3b82f6" stroke="#0d1117" stroke-width="2" class="data-point"/>
  
    <circle cx="326.47727272727275" cy="301.05174233098006" r="4" fill="#3b82f6" stroke="#0d1117" stroke-width="2" class="data-point"/>
  
    <circle cx="330.45454545454544" cy="300.16028942542016" r="4" fill="#3b82f6" stroke="#0d1117" stroke-width="2" class="data-point"/>
  
    <circle cx="334.4318181818182" cy="299.49617491143886" r="4" fill="#3b82f6" stroke="#0d1117" stroke-width="2" class="data-point"/>
  
    <circle cx="338.4090909090909" cy="298.9018729743989" r="4" fill="#3b82f6" stroke="#0d1117" stroke-width="2" class="data-point"/>
  
    <circle cx="342.3863636363636" cy="298.2413385925684" r="4" fill="#3b82f6" stroke="#0d1117" stroke-width="2" class="data-point"/>
  
    <circle cx="346.3636363636364" cy="297.6255558626234" r="4" fill="#3b82f6" stroke="#0d1117" stroke-width="2" class="data-point"/>
  
    <circle cx="350.3409090909091" cy="296.9489108861141" r="4" fill="#3b82f6" stroke="#0d1117" stroke-width="2" class="data-point"/>
  
    <circle cx="354.3181818181818" cy="296.24362485239806" r="4" fill="#3b82f6" stroke="#0d1117" stroke-width="2" class="data-point"/>
  
    <circle cx="358.29545454545456" cy="295.5061176293244" r="4" fill="#3b82f6" stroke="#0d1117" stroke-width="2" class="data-point"/>
  
    <circle cx="362.27272727272725" cy="294.85990377609727" r="4" fill="#3b82f6" stroke="#0d1117" stroke-width="2" class="data-point"/>
  
    <circle cx="366.25" cy="294.30677335879204" r="4" fill="#3b82f6" stroke="#0d1117" stroke-width="2" class="data-point"/>
  
    <circle cx="370.22727272727275" cy="293.6999409592242" r="4" fill="#3b82f6" stroke="#0d1117" stroke-width="2" class="data-point"/>
  
    <circle cx="374.20454545454544" cy="293.0429867095445" r="4" fill="#3b82f6" stroke="#0d1117" stroke-width="2" class="data-point"/>
  
    <circle cx="378.1818181818182" cy="292.4343642439012" r="4" fill="#3b82f6" stroke="#0d1117" stroke-width="2" class="data-point"/>
  
    <circle cx="382.1590909090909" cy="291.6413649724895" r="4" fill="#3b82f6" stroke="#0d1117" stroke-width="2" class="data-point"/>
  
    <circle cx="386.1363636363636" cy="290.95934979775393" r="4" fill="#3b82f6" stroke="#0d1117" stroke-width="2" class="data-point"/>
  
    <circle cx="390.1136363636364" cy="290.3023955480743" r="4" fill="#3b82f6" stroke="#0d1117" stroke-width="2" class="data-point"/>
  
    <circle cx="394.0909090909091" cy="289.7564253950707" r="4" fill="#3b82f6" stroke="#0d1117" stroke-width="2" class="data-point"/>
  
    <circle cx="398.0681818181818" cy="289.226565836746" r="4" fill="#3b82f6" stroke="#0d1117" stroke-width="2" class="data-point"/>
  
    <circle cx="402.04545454545456" cy="288.6949162123458" r="4" fill="#3b82f6" stroke="#0d1117" stroke-width="2" class="data-point"/>
  
    <circle cx="406.02272727272725" cy="288.0594427555712" r="4" fill="#3b82f6" stroke="#0d1117" stroke-width="2" class="data-point"/>
  
    <circle cx="410" cy="287.40606863804237" r="4" fill="#3b82f6" stroke="#0d1117" stroke-width="2" class="data-point"/>
  
    <circle cx="413.97727272727275" cy="286.61306936663067" r="4" fill="#3b82f6" stroke="#0d1117" stroke-width="2" class="data-point"/>
  
    <circle cx="417.95454545454544" cy="285.97043564555435" r="4" fill="#3b82f6" stroke="#0d1117" stroke-width="2" class="data-point"/>
  
    <circle cx="421.9318181818182" cy="285.4459462854559" r="4" fill="#3b82f6" stroke="#0d1117" stroke-width="2" class="data-point"/>
  
    <circle cx="425.9090909090909" cy="284.907136396754" r="4" fill="#3b82f6" stroke="#0d1117" stroke-width="2" class="data-point"/>
  
    <circle cx="429.8863636363637" cy="284.39159736703266" r="4" fill="#3b82f6" stroke="#0d1117" stroke-width="2" class="data-point"/>
  
    <circle cx="433.8636363636363" cy="283.7543338441826" r="4" fill="#3b82f6" stroke="#0d1117" stroke-width="2" class="data-point"/>
  
    <circle cx="437.8409090909091" cy="283.10095972665374" r="4" fill="#3b82f6" stroke="#0d1117" stroke-width="2" class="data-point"/>
  
    <circle cx="441.8181818181818" cy="281.65637640378867" r="4" fill="#3b82f6" stroke="#0d1117" stroke-width="2" class="data-point"/>
  
    <circle cx="445.79545454545456" cy="278.7815302866618" r="4" fill="#3b82f6" stroke="#0d1117" stroke-width="2" class="data-point"/>
  
    <circle cx="449.77272727272725" cy="275.3571338843806" r="4" fill="#3b82f6" stroke="#0d1117" stroke-width="2" class="data-point"/>
  
    <circle cx="453.75" cy="272.237048714921" r="4" fill="#3b82f6" stroke="#0d1117" stroke-width="2" class="data-point"/>
  
    <circle cx="457.72727272727275" cy="270.6546303042484" r="4" fill="#3b82f6" stroke="#0d1117" stroke-width="2" class="data-point"/>
  
    <circle cx="461.70454545454544" cy="268.27026229178705" r="4" fill="#3b82f6" stroke="#0d1117" stroke-width="2" class="data-point"/>
  
    <circle cx="465.6818181818182" cy="266.6860538150391" r="4" fill="#3b82f6" stroke="#0d1117" stroke-width="2" class="data-point"/>
  
    <circle cx="469.6590909090909" cy="265.296962540512" r="4" fill="#3b82f6" stroke="#0d1117" stroke-width="2" class="data-point"/>
  
    <circle cx="473.6363636363637" cy="263.93830238926716" r="4" fill="#3b82f6" stroke="#0d1117" stroke-width="2" class="data-point"/>
  
    <circle cx="477.6136363636363" cy="262.6584051453408" r="4" fill="#3b82f6" stroke="#0d1117" stroke-width="2" class="data-point"/>
  
    <circle cx="481.5909090909091" cy="260.66785166947216" r="4" fill="#3b82f6" stroke="#0d1117" stroke-width="2" class="data-point"/>
  
    <circle cx="485.5681818181818" cy="259.0854332587996" r="4" fill="#3b82f6" stroke="#0d1117" stroke-width="2" class="data-point"/>
  
    <circle cx="489.54545454545456" cy="257.06265859357336" r="4" fill="#3b82f6" stroke="#0d1117" stroke-width="2" class="data-point"/>
  
    <circle cx="493.52272727272725" cy="256.64915333015097" r="4" fill="#3b82f6" stroke="#0d1117" stroke-width="2" class="data-point"/>
  
    <circle cx="497.5" cy="256.59545134788834" r="4" fill="#3b82f6" stroke="#0d1117" stroke-width="2" class="data-point"/>
  
    <circle cx="501.47727272727275" cy="256.5256387709469" r="4" fill="#3b82f6" stroke="#0d1117" stroke-width="2" class="data-point"/>
  
    <circle cx="505.45454545454544" cy="256.466566590458" r="4" fill="#3b82f6" stroke="#0d1117" stroke-width="2" class="data-point"/>
  
    <circle cx="509.4318181818182" cy="256.3895937492149" r="4" fill="#3b82f6" stroke="#0d1117" stroke-width="2" class="data-point"/>
  
    <circle cx="513.4090909090909" cy="256.32157123834884" r="4" fill="#3b82f6" stroke="#0d1117" stroke-width="2" class="data-point"/>
  
    <circle cx="517.3863636363637" cy="256.2947202472175" r="4" fill="#3b82f6" stroke="#0d1117" stroke-width="2" class="data-point"/>
  
    <circle cx="521.3636363636363" cy="256.1962666130694" r="4" fill="#3b82f6" stroke="#0d1117" stroke-width="2" class="data-point"/>
  
    <circle cx="525.3409090909091" cy="256.101393111072" r="4" fill="#3b82f6" stroke="#0d1117" stroke-width="2" class="data-point"/>
  
    <circle cx="529.3181818181818" cy="256.0387407984323" r="4" fill="#3b82f6" stroke="#0d1117" stroke-width="2" class="data-point"/>
  
    <circle cx="533.2954545454545" cy="256.0154699394518" r="4" fill="#3b82f6" stroke="#0d1117" stroke-width="2" class="data-point"/>
  
    <circle cx="537.2727272727273" cy="255.90985604100194" r="4" fill="#3b82f6" stroke="#0d1117" stroke-width="2" class="data-point"/>
  
    <circle cx="541.25" cy="253.31426023164084" r="4" fill="#3b82f6" stroke="#0d1117" stroke-width="2" class="data-point"/>
  
    <circle cx="545.2272727272727" cy="249.24902017435872" r="4" fill="#3b82f6" stroke="#0d1117" stroke-width="2" class="data-point"/>
  
    <circle cx="549.2045454545455" cy="246.5263296736427" r="4" fill="#3b82f6" stroke="#0d1117" stroke-width="2" class="data-point"/>
  
    <circle cx="553.1818181818182" cy="243.3650729844484" r="4" fill="#3b82f6" stroke="#0d1117" stroke-width="2" class="data-point"/>
  
    <circle cx="557.1590909090909" cy="240.10715272718136" r="4" fill="#3b82f6" stroke="#0d1117" stroke-width="2" class="data-point"/>
  
    <circle cx="561.1363636363637" cy="237.55093837147953" r="4" fill="#3b82f6" stroke="#0d1117" stroke-width="2" class="data-point"/>
  
    <circle cx="565.1136363636363" cy="234.6922028490315" r="4" fill="#3b82f6" stroke="#0d1117" stroke-width="2" class="data-point"/>
  
    <circle cx="569.0909090909091" cy="230.33697208753108" r="4" fill="#3b82f6" stroke="#0d1117" stroke-width="2" class="data-point"/>
  
    <circle cx="573.0681818181818" cy="224.46734542622414" r="4" fill="#3b82f6" stroke="#0d1117" stroke-width="2" class="data-point"/>
  
    <circle cx="577.0454545454545" cy="220.63660402482225" r="4" fill="#3b82f6" stroke="#0d1117" stroke-width="2" class="data-point"/>
  
    <circle cx="581.0227272727273" cy="216.07730573072382" r="4" fill="#3b82f6" stroke="#0d1117" stroke-width="2" class="data-point"/>
  
    <circle cx="585" cy="210.99709820867773" r="4" fill="#3b82f6" stroke="#0d1117" stroke-width="2" class="data-point"/>
  
    <circle cx="588.9772727272727" cy="206.92290782101853" r="4" fill="#3b82f6" stroke="#0d1117" stroke-width="2" class="data-point"/>
  
    <circle cx="592.9545454545455" cy="202.50144461472755" r="4" fill="#3b82f6" stroke="#0d1117" stroke-width="2" class="data-point"/>
  
    <circle cx="596.9318181818182" cy="198.57940984347914" r="4" fill="#3b82f6" stroke="#0d1117" stroke-width="2" class="data-point"/>
  
    <circle cx="600.9090909090909" cy="194.69317639373918" r="4" fill="#3b82f6" stroke="#0d1117" stroke-width="2" class="data-point"/>
  
    <circle cx="604.8863636363636" cy="190.8176833404517" r="4" fill="#3b82f6" stroke="#0d1117" stroke-width="2" class="data-point"/>
  
    <circle cx="608.8636363636364" cy="185.5405685501093" r="4" fill="#3b82f6" stroke="#0d1117" stroke-width="2" class="data-point"/>
  
    <circle cx="612.8409090909091" cy="180.24734316508807" r="4" fill="#3b82f6" stroke="#0d1117" stroke-width="2" class="data-point"/>
  
    <circle cx="616.8181818181818" cy="175.8348302891742" r="4" fill="#3b82f6" stroke="#0d1117" stroke-width="2" class="data-point"/>
  
    <circle cx="620.7954545454545" cy="172.13655377735347" r="4" fill="#3b82f6" stroke="#0d1117" stroke-width="2" class="data-point"/>
  
    <circle cx="624.7727272727273" cy="168.54926136220888" r="4" fill="#3b82f6" stroke="#0d1117" stroke-width="2" class="data-point"/>
  
    <circle cx="628.75" cy="163.7876856015878" r="4" fill="#3b82f6" stroke="#0d1117" stroke-width="2" class="data-point"/>
  
    <circle cx="632.7272727272727" cy="160.09477928799336" r="4" fill="#3b82f6" stroke="#0d1117" stroke-width="2" class="data-point"/>
  
    <circle cx="636.7045454545455" cy="156.44125442805822" r="4" fill="#3b82f6" stroke="#0d1117" stroke-width="2" class="data-point"/>
  
    <circle cx="640.6818181818182" cy="153.02401829007863" r="4" fill="#3b82f6" stroke="#0d1117" stroke-width="2" class="data-point"/>
  
    <circle cx="644.6590909090909" cy="149.80547948647086" r="4" fill="#3b82f6" stroke="#0d1117" stroke-width="2" class="data-point"/>
  
    <circle cx="648.6363636363636" cy="146.50817777554457" r="4" fill="#3b82f6" stroke="#0d1117" stroke-width="2" class="data-point"/>
  
    <circle cx="652.6136363636364" cy="143.68882370675578" r="4" fill="#3b82f6" stroke="#0d1117" stroke-width="2" class="data-point"/>
  
    <circle cx="656.5909090909091" cy="140.76922593774339" r="4" fill="#3b82f6" stroke="#0d1117" stroke-width="2" class="data-point"/>
  
    <circle cx="660.5681818181818" cy="137.78876592216665" r="4" fill="#3b82f6" stroke="#0d1117" stroke-width="2" class="data-point"/>
  
    <circle cx="664.5454545454545" cy="134.6382496294249" r="4" fill="#3b82f6" stroke="#0d1117" stroke-width="2" class="data-point"/>
  
    <circle cx="668.5227272727273" cy="131.7472929176193" r="4" fill="#3b82f6" stroke="#0d1117" stroke-width="2" class="data-point"/>
  
    <circle cx="672.5" cy="129.09978519207095" r="4" fill="#3b82f6" stroke="#0d1117" stroke-width="2" class="data-point"/>
  
    <circle cx="676.4772727272727" cy="124.30240810994147" r="4" fill="#3b82f6" stroke="#0d1117" stroke-width="2" class="data-point"/>
  
    <circle cx="680.4545454545455" cy="120.28728990277116" r="4" fill="#3b82f6" stroke="#0d1117" stroke-width="2" class="data-point"/>
  
    <circle cx="684.4318181818182" cy="116.43148757631334" r="4" fill="#3b82f6" stroke="#0d1117" stroke-width="2" class="data-point"/>
  
    <circle cx="688.4090909090909" cy="112.72784086626638" r="4" fill="#3b82f6" stroke="#0d1117" stroke-width="2" class="data-point"/>
  
    <circle cx="692.3863636363636" cy="106.87969499786448" r="4" fill="#3b82f6" stroke="#0d1117" stroke-width="2" class="data-point"/>
  
    <circle cx="696.3636363636364" cy="103.17962841996834" r="4" fill="#3b82f6" stroke="#0d1117" stroke-width="2" class="data-point"/>
  
    <circle cx="700.3409090909091" cy="99.97720021103936" r="4" fill="#3b82f6" stroke="#0d1117" stroke-width="2" class="data-point"/>
  
    <circle cx="704.3181818181818" cy="96.19479059367384" r="4" fill="#3b82f6" stroke="#0d1117" stroke-width="2" class="data-point"/>
  
    <circle cx="708.2954545454545" cy="90.61873476873603" r="4" fill="#3b82f6" stroke="#0d1117" stroke-width="2" class="data-point"/>
  
    <circle cx="712.2727272727273" cy="86.60719669371656" r="4" fill="#3b82f6" stroke="#0d1117" stroke-width="2" class="data-point"/>
  
    <circle cx="716.25" cy="83.22039167901914" r="4" fill="#3b82f6" stroke="#0d1117" stroke-width="2" class="data-point"/>
  
    <circle cx="720.2272727272727" cy="80.35449589226943" r="4" fill="#3b82f6" stroke="#0d1117" stroke-width="2" class="data-point"/>
  
    <circle cx="724.2045454545455" cy="77.63538552370426" r="4" fill="#3b82f6" stroke="#0d1117" stroke-width="2" class="data-point"/>
  
    <circle cx="728.1818181818182" cy="75.42465392055874" r="4" fill="#3b82f6" stroke="#0d1117" stroke-width="2" class="data-point"/>
  
    <circle cx="732.1590909090909" cy="72.9346720096475" r="4" fill="#3b82f6" stroke="#0d1117" stroke-width="2" class="data-point"/>
  
    <circle cx="736.1363636363636" cy="70.90473708011962" r="4" fill="#3b82f6" stroke="#0d1117" stroke-width="2" class="data-point"/>
  
    <circle cx="740.1136363636364" cy="68.50962867120569" r="4" fill="#3b82f6" stroke="#0d1117" stroke-width="2" class="data-point"/>
  
    <circle cx="744.0909090909091" cy="65.06196140994399" r="4" fill="#3b82f6" stroke="#0d1117" stroke-width="2" class="data-point"/>
  
    <circle cx="748.0681818181818" cy="62.09940205512146" r="4" fill="#3b82f6" stroke="#0d1117" stroke-width="2" class="data-point"/>
  
    <circle cx="752.0454545454545" cy="59.52349697259001" r="4" fill="#3b82f6" stroke="#0d1117" stroke-width="2" class="data-point"/>
  
    <circle cx="756.0227272727273" cy="57.29665477476573" r="4" fill="#3b82f6" stroke="#0d1117" stroke-width="2" class="data-point"/>
  
    <circle cx="760" cy="55" r="4" fill="#3b82f6" stroke="#0d1117" stroke-width="2" class="data-point"/>
  

  <!-- Axis lines -->
  <line x1="60" y1="55" x2="60" y2="340"
        stroke="#30363d" stroke-width="2"/>
  <line x1="60" y1="340" x2="760" y2="340"
        stroke="#30363d" stroke-width="2"/>
</svg>