<?xml version="1.0" encoding="UTF-8"?>
<svg width="800" height="400" xmlns="http://www.w3.org/2000/svg">
  <defs>
    <!-- Gradient for area fill -->
    <linearGradient id="areaGradient" x1="0%" y1="0%" x2="0%" y2="100%">
      <stop offset="0%" style="stop-color:#3b82f6;stop-opacity:0.3" />
      <stop offset="100%" style="stop-color:#3b82f6;stop-opacity:0.05" />
    </linearGradient>

    <!-- Glow filter for line -->
    <filter id="glow">
      <feGaussianBlur stdDeviation="2" result="coloredBlur"/>
      <feMerge>
        <feMergeNode in="coloredBlur"/>
        <feMergeNode in="SourceGraphic"/>
      </feMerge>
    </filter>

    <!-- Animation -->
    <style>
      @keyframes draw {
        from { stroke-dashoffset: 2000; }
        to { stroke-dashoffset: 0; }
      }
      @keyframes fadeIn {
        from { opacity: 0; }
        to { opacity: 1; }
      }
      .line-path {
        stroke-dasharray: 2000;
        stroke-dashoffset: 2000;
        animation: draw 1.5s ease-out forwards;
      }
      .area-path {
        opacity: 0;
        animation: fadeIn 1s ease-out 0.5s forwards;
      }
      .data-point {
        opacity: 0;
        animation: fadeIn 0.5s ease-out 1s forwards;
      }
    </style>
  </defs>

  <!-- Background -->
  <rect width="800" height="400" fill="#0d1117" rx="8"/>

  <!-- Title -->
  <text x="400" y="25" text-anchor="middle" fill="#c9d1d9" font-family="system-ui, -apple-system, sans-serif" font-size="16" font-weight="600">
    zxcloli666/SoundCloud-Desktop Downloads
  </text>

  <!-- Stats -->
  <text x="780" y="25" text-anchor="end" fill="#58a6ff" font-family="system-ui, -apple-system, sans-serif" font-size="14" font-weight="600">
    139.2K total
  </text>
  <text x="780" y="42" text-anchor="end" fill="#3fb950" font-family="system-ui, -apple-system, sans-serif" font-size="12">
    +2.2K (+1.6%)
  </text>

  <!-- Grid lines -->
  <g opacity="0.1">
    
      <line x1="60" y1="340" x2="760" y2="340"
            stroke="#c9d1d9" stroke-width="1"/>
    
      <line x1="60" y1="268.75" x2="760" y2="268.75"
            stroke="#c9d1d9" stroke-width="1"/>
    
      <line x1="60" y1="197.5" x2="760" y2="197.5"
            stroke="#c9d1d9" stroke-width="1"/>
    
      <line x1="60" y1="126.25" x2="760" y2="126.25"
            stroke="#c9d1d9" stroke-width="1"/>
    
      <line x1="60" y1="55" x2="760" y2="55"
            stroke="#c9d1d9" stroke-width="1"/>
    
  </g>

  <!-- Y-axis labels -->
  
    <text x="50" y="344" text-anchor="end"
          fill="#8b949e" font-family="system-ui, -apple-system, sans-serif" font-size="11">
      60.2K
    </text>
  
    <text x="50" y="272.75" text-anchor="end"
          fill="#8b949e" font-family="system-ui, -apple-system, sans-serif" font-size="11">
      79.9K
    </text>
  
    <text x="50" y="201.5" text-anchor="end"
          fill="#8b949e" font-family="system-ui, -apple-system, sans-serif" font-size="11">
      99.7K
    </text>
  
    <text x="50" y="130.25" text-anchor="end"
          fill="#8b949e" font-family="system-ui, -apple-system, sans-serif" font-size="11">
      119.4K
    </text>
  
    <text x="50" y="59" text-anchor="end"
          fill="#8b949e" font-family="system-ui, -apple-system, sans-serif" font-size="11">
      139.2K
    </text>
  

  <!-- X-axis labels -->
  
    <text x="60" y="360" text-anchor="middle"
          fill="#8b949e" font-family="system-ui, -apple-system, sans-serif" font-size="11">
      Nov 25
    </text>
  
    <text x="148.14814814814815" y="360" text-anchor="middle"
          fill="#8b949e" font-family="system-ui, -apple-system, sans-serif" font-size="11">
      Dec 12
    </text>
  
    <text x="236.29629629629628" y="360" text-anchor="middle"
          fill="#8b949e" font-family="system-ui, -apple-system, sans-serif" font-size="11">
      Dec 29
    </text>
  
    <text x="324.44444444444446" y="360" text-anchor="middle"
          fill="#8b949e" font-family="system-ui, -apple-system, sans-serif" font-size="11">
      Jan 15
    </text>
  
    <text x="412.59259259259255" y="360" text-anchor="middle"
          fill="#8b949e" font-family="system-ui, -apple-system, sans-serif" font-size="11">
      Feb 1
    </text>
  
    <text x="500.74074074074076" y="360" text-anchor="middle"
          fill="#8b949e" font-family="system-ui, -apple-system, sans-serif" font-size="11">
      Feb 18
    </text>
  
    <text x="588.8888888888889" y="360" text-anchor="middle"
          fill="#8b949e" font-family="system-ui, -apple-system, sans-serif" font-size="11">
      Mar 7
    </text>
  
    <text x="677.0370370370371" y="360" text-anchor="middle"
          fill="#8b949e" font-family="system-ui, -apple-system, sans-serif" font-size="11">
      Mar 24
    </text>
  
    <text x="760" y="360" text-anchor="middle"
          fill="#8b949e" font-family="system-ui, -apple-system, sans-serif" font-size="11">
      Apr 9
    </text>
  

  <!-- Area under line -->
  <path d="M 60 340
    L 60.00 340.00 L 65.19 339.47 L 70.37 338.57 L 75.56 337.73 L 80.74 336.07 L 85.93 334.35 L 91.11 333.00 L 96.30 331.74 L 101.48 330.61 L 106.67 329.30 L 111.85 327.83 L 117.04 326.26 L 122.22 324.83 L 127.41 323.31 L 132.59 322.20 L 137.78 321.05 L 142.96 319.50 L 148.15 318.45 L 153.33 317.01 L 158.52 315.34 L 163.70 314.09 L 168.89 313.06 L 174.07 312.39 L 179.26 311.83 L 184.44 310.80 L 189.63 310.07 L 194.81 308.47 L 200.00 307.84 L 205.19 307.02 L 210.37 305.97 L 215.56 305.25 L 220.74 304.51 L 225.93 303.75 L 231.11 303.21 L 236.30 302.75 L 241.48 302.05 L 246.67 301.19 L 251.85 300.40 L 257.04 299.41 L 262.22 298.32 L 267.41 297.33 L 272.59 296.13 L 277.78 294.95 L 282.96 293.77 L 288.15 292.48 L 293.33 291.24 L 298.52 289.83 L 303.70 288.57 L 308.89 287.51 L 314.07 286.66 L 319.26 285.47 L 324.44 284.11 L 329.63 282.86 L 334.81 281.41 L 340.00 279.61 L 345.19 278.28 L 350.37 277.17 L 355.56 276.12 L 360.74 274.85 L 365.93 273.38 L 371.11 271.75 L 376.30 270.04 L 381.48 268.39 L 386.67 266.95 L 391.85 265.51 L 397.04 264.24 L 402.22 262.95 L 407.41 261.51 L 412.59 259.71 L 417.78 258.37 L 422.96 257.18 L 428.15 255.85 L 433.33 254.60 L 438.52 253.24 L 443.70 251.82 L 448.89 250.33 L 454.07 249.03 L 459.26 247.92 L 464.44 246.69 L 469.63 245.37 L 474.81 244.14 L 480.00 242.54 L 485.19 241.17 L 490.37 239.85 L 495.56 238.75 L 500.74 237.68 L 505.93 236.61 L 511.11 235.33 L 516.30 234.01 L 521.48 232.41 L 526.67 231.12 L 531.85 230.06 L 537.04 228.97 L 542.22 227.93 L 547.41 226.65 L 552.59 225.33 L 557.78 222.42 L 562.96 216.63 L 568.15 209.73 L 573.33 203.44 L 578.52 200.25 L 583.70 195.45 L 588.89 192.25 L 594.07 189.45 L 599.26 186.72 L 604.44 184.14 L 609.63 180.12 L 614.81 176.94 L 620.00 172.86 L 625.19 172.03 L 630.37 171.92 L 635.56 171.78 L 640.74 171.66 L 645.93 171.50 L 651.11 171.37 L 656.30 171.31 L 661.48 171.11 L 666.67 170.92 L 671.85 170.80 L 677.04 170.75 L 682.22 170.54 L 687.41 165.31 L 692.59 157.11 L 697.78 151.63 L 702.96 145.25 L 708.15 138.69 L 713.33 133.54 L 718.52 127.78 L 723.70 119.00 L 728.89 107.17 L 734.07 99.45 L 739.26 90.26 L 744.44 80.02 L 749.63 71.81 L 754.81 62.90 L 760.00 55.00
    L 760 340
    Z" fill="url(#areaGradient)" class="area-path"/>

  <!-- Main line with glow -->
  <path d="M 60.00 340.00 L 65.19 339.47 L 70.37 338.57 L 75.56 337.73 L 80.74 336.07 L 85.93 334.35 L 91.11 333.00 L 96.30 331.74 L 101.48 330.61 L 106.67 329.30 L 111.85 327.83 L 117.04 326.26 L 122.22 324.83 L 127.41 323.31 L 132.59 322.20 L 137.78 321.05 L 142.96 319.50 L 148.15 318.45 L 153.33 317.01 L 158.52 315.34 L 163.70 314.09 L 168.89 313.06 L 174.07 312.39 L 179.26 311.83 L 184.44 310.80 L 189.63 310.07 L 194.81 308.47 L 200.00 307.84 L 205.19 307.02 L 210.37 305.97 L 215.56 305.25 L 220.74 304.51 L 225.93 303.75 L 231.11 303.21 L 236.30 302.75 L 241.48 302.05 L 246.67 301.19 L 251.85 300.40 L 257.04 299.41 L 262.22 298.32 L 267.41 297.33 L 272.59 296.13 L 277.78 294.95 L 282.96 293.77 L 288.15 292.48 L 293.33 291.24 L 298.52 289.83 L 303.70 288.57 L 308.89 287.51 L 314.07 286.66 L 319.26 285.47 L 324.44 284.11 L 329.63 282.86 L 334.81 281.41 L 340.00 279.61 L 345.19 278.28 L 350.37 277.17 L 355.56 276.12 L 360.74 274.85 L 365.93 273.38 L 371.11 271.75 L 376.30 270.04 L 381.48 268.39 L 386.67 266.95 L 391.85 265.51 L 397.04 264.24 L 402.22 262.95 L 407.41 261.51 L 412.59 259.71 L 417.78 258.37 L 422.96 257.18 L 428.15 255.85 L 433.33 254.60 L 438.52 253.24 L 443.70 251.82 L 448.89 250.33 L 454.07 249.03 L 459.26 247.92 L 464.44 246.69 L 469.63 245.37 L 474.81 244.14 L 480.00 242.54 L 485.19 241.17 L 490.37 239.85 L 495.56 238.75 L 500.74 237.68 L 505.93 236.61 L 511.11 235.33 L 516.30 234.01 L 521.48 232.41 L 526.67 231.12 L 531.85 230.06 L 537.04 228.97 L 542.22 227.93 L 547.41 226.65 L 552.59 225.33 L 557.78 222.42 L 562.96 216.63 L 568.15 209.73 L 573.33 203.44 L 578.52 200.25 L 583.70 195.45 L 588.89 192.25 L 594.07 189.45 L 599.26 186.72 L 604.44 184.14 L 609.63 180.12 L 614.81 176.94 L 620.00 172.86 L 625.19 172.03 L 630.37 171.92 L 635.56 171.78 L 640.74 171.66 L 645.93 171.50 L 651.11 171.37 L 656.30 171.31 L 661.48 171.11 L 666.67 170.92 L 671.85 170.80 L 677.04 170.75 L 682.22 170.54 L 687.41 165.31 L 692.59 157.11 L 697.78 151.63 L 702.96 145.25 L 708.15 138.69 L 713.33 133.54 L 718.52 127.78 L 723.70 119.00 L 728.89 107.17 L 734.07 99.45 L 739.26 90.26 L 744.44 80.02 L 749.63 71.81 L 754.81 62.90 L 760.00 55.00" fill="none" stroke="#3b82f6" stroke-width="3"
        stroke-linecap="round" stroke-linejoin="round" filter="url(#glow)" class="line-path"/>

  <!-- Data points -->
  
    <circle cx="60" cy="340" r="4" fill="#3b82f6" stroke="#0d1117" stroke-width="2" class="data-point"/>
  
    <circle cx="65.18518518518519" cy="339.46970368213863" r="4" fill="#3b82f6" stroke="#0d1117" stroke-width="2" class="data-point"/>
  
    <circle cx="70.37037037037037" cy="338.5678391959799" r="4" fill="#3b82f6" stroke="#0d1117" stroke-width="2" class="data-point"/>
  
    <circle cx="75.55555555555556" cy="337.73090895282456" r="4" fill="#3b82f6" stroke="#0d1117" stroke-width="2" class="data-point"/>
  
    <circle cx="80.74074074074073" cy="336.06787084034784" r="4" fill="#3b82f6" stroke="#0d1117" stroke-width="2" class="data-point"/>
  
    <circle cx="85.92592592592592" cy="334.35072085870155" r="4" fill="#3b82f6" stroke="#0d1117" stroke-width="2" class="data-point"/>
  
    <circle cx="91.11111111111111" cy="332.99792412946346" r="4" fill="#3b82f6" stroke="#0d1117" stroke-width="2" class="data-point"/>
  
    <circle cx="96.2962962962963" cy="331.7353138488412" r="4" fill="#3b82f6" stroke="#0d1117" stroke-width="2" class="data-point"/>
  
    <circle cx="101.48148148148148" cy="330.6133944280597" r="4" fill="#3b82f6" stroke="#0d1117" stroke-width="2" class="data-point"/>
  
    <circle cx="106.66666666666666" cy="329.2966722782679" r="4" fill="#3b82f6" stroke="#0d1117" stroke-width="2" class="data-point"/>
  
    <circle cx="111.85185185185185" cy="327.8284368948015" r="4" fill="#3b82f6" stroke="#0d1117" stroke-width="2" class="data-point"/>
  
    <circle cx="117.03703703703704" cy="326.2555852309406" r="4" fill="#3b82f6" stroke="#0d1117" stroke-width="2" class="data-point"/>
  
    <circle cx="122.22222222222223" cy="324.8270318848651" r="4" fill="#3b82f6" stroke="#0d1117" stroke-width="2" class="data-point"/>
  
    <circle cx="127.4074074074074" cy="323.3082920901738" r="4" fill="#3b82f6" stroke="#0d1117" stroke-width="2" class="data-point"/>
  
    <circle cx="132.5925925925926" cy="322.20080250117087" r="4" fill="#3b82f6" stroke="#0d1117" stroke-width="2" class="data-point"/>
  
    <circle cx="137.77777777777777" cy="321.0536308747769" r="4" fill="#3b82f6" stroke="#0d1117" stroke-width="2" class="data-point"/>
  
    <circle cx="142.96296296296296" cy="319.49520904269457" r="4" fill="#3b82f6" stroke="#0d1117" stroke-width="2" class="data-point"/>
  
    <circle cx="148.14814814814815" cy="318.45265369669505" r="4" fill="#3b82f6" stroke="#0d1117" stroke-width="2" class="data-point"/>
  
    <circle cx="153.33333333333331" cy="317.00967051884106" r="4" fill="#3b82f6" stroke="#0d1117" stroke-width="2" class="data-point"/>
  
    <circle cx="158.51851851851853" cy="315.34302494841967" r="4" fill="#3b82f6" stroke="#0d1117" stroke-width="2" class="data-point"/>
  
    <circle cx="163.7037037037037" cy="314.0876295836867" r="4" fill="#3b82f6" stroke="#0d1117" stroke-width="2" class="data-point"/>
  
    <circle cx="168.88888888888889" cy="313.05589661152106" r="4" fill="#3b82f6" stroke="#0d1117" stroke-width="2" class="data-point"/>
  
    <circle cx="174.07407407407408" cy="312.38851689176363" r="4" fill="#3b82f6" stroke="#0d1117" stroke-width="2" class="data-point"/>
  
    <circle cx="179.25925925925924" cy="311.8329683682898" r="4" fill="#3b82f6" stroke="#0d1117" stroke-width="2" class="data-point"/>
  
    <circle cx="184.44444444444446" cy="310.80484285406885" r="4" fill="#3b82f6" stroke="#0d1117" stroke-width="2" class="data-point"/>
  
    <circle cx="189.62962962962962" cy="310.0725288913079" r="4" fill="#3b82f6" stroke="#0d1117" stroke-width="2" class="data-point"/>
  
    <circle cx="194.8148148148148" cy="308.46721010594536" r="4" fill="#3b82f6" stroke="#0d1117" stroke-width="2" class="data-point"/>
  
    <circle cx="200" cy="307.8359049656342" r="4" fill="#3b82f6" stroke="#0d1117" stroke-width="2" class="data-point"/>
  
    <circle cx="205.1851851851852" cy="307.0206194701467" r="4" fill="#3b82f6" stroke="#0d1117" stroke-width="2" class="data-point"/>
  
    <circle cx="210.37037037037038" cy="305.9672417503133" r="4" fill="#3b82f6" stroke="#0d1117" stroke-width="2" class="data-point"/>
  
    <circle cx="215.55555555555554" cy="305.2457501613863" r="4" fill="#3b82f6" stroke="#0d1117" stroke-width="2" class="data-point"/>
  
    <circle cx="220.74074074074073" cy="304.51343619862536" r="4" fill="#3b82f6" stroke="#0d1117" stroke-width="2" class="data-point"/>
  
    <circle cx="225.92592592592592" cy="303.74504765641814" r="4" fill="#3b82f6" stroke="#0d1117" stroke-width="2" class="data-point"/>
  
    <circle cx="231.11111111111111" cy="303.2111438806121" r="4" fill="#3b82f6" stroke="#0d1117" stroke-width="2" class="data-point"/>
  
    <circle cx="236.29629629629628" cy="302.74938926369884" r="4" fill="#3b82f6" stroke="#0d1117" stroke-width="2" class="data-point"/>
  
    <circle cx="241.48148148148147" cy="302.045934964495" r="4" fill="#3b82f6" stroke="#0d1117" stroke-width="2" class="data-point"/>
  
    <circle cx="246.66666666666666" cy="301.1909674316165" r="4" fill="#3b82f6" stroke="#0d1117" stroke-width="2" class="data-point"/>
  
    <circle cx="251.85185185185185" cy="300.40454159968607" r="4" fill="#3b82f6" stroke="#0d1117" stroke-width="2" class="data-point"/>
  
    <circle cx="257.03703703703707" cy="299.40888320696683" r="4" fill="#3b82f6" stroke="#0d1117" stroke-width="2" class="data-point"/>
  
    <circle cx="262.2222222222222" cy="298.3230383656317" r="4" fill="#3b82f6" stroke="#0d1117" stroke-width="2" class="data-point"/>
  
    <circle cx="267.4074074074074" cy="297.3273799729124" r="4" fill="#3b82f6" stroke="#0d1117" stroke-width="2" class="data-point"/>
  
    <circle cx="272.5925925925926" cy="296.12609647734894" r="4" fill="#3b82f6" stroke="#0d1117" stroke-width="2" class="data-point"/>
  
    <circle cx="277.77777777777777" cy="294.9464577294533" r="4" fill="#3b82f6" stroke="#0d1117" stroke-width="2" class="data-point"/>
  
    <circle cx="282.96296296296293" cy="293.76681898155766" r="4" fill="#3b82f6" stroke="#0d1117" stroke-width="2" class="data-point"/>
  
    <circle cx="288.14814814814815" cy="292.47534903737835" r="4" fill="#3b82f6" stroke="#0d1117" stroke-width="2" class="data-point"/>
  
    <circle cx="293.3333333333333" cy="291.24159842031315" r="4" fill="#3b82f6" stroke="#0d1117" stroke-width="2" class="data-point"/>
  
    <circle cx="298.5185185185185" cy="289.83108236396083" r="4" fill="#3b82f6" stroke="#0d1117" stroke-width="2" class="data-point"/>
  
    <circle cx="303.7037037037037" cy="288.57207954128324" r="4" fill="#3b82f6" stroke="#0d1117" stroke-width="2" class="data-point"/>
  
    <circle cx="308.8888888888889" cy="287.5078794476159" r="4" fill="#3b82f6" stroke="#0d1117" stroke-width="2" class="data-point"/>
  
    <circle cx="314.07407407407413" cy="286.65651937268206" r="4" fill="#3b82f6" stroke="#0d1117" stroke-width="2" class="data-point"/>
  
    <circle cx="319.25925925925924" cy="285.4660582509525" r="4" fill="#3b82f6" stroke="#0d1117" stroke-width="2" class="data-point"/>
  
    <circle cx="324.44444444444446" cy="284.1060466058251" r="4" fill="#3b82f6" stroke="#0d1117" stroke-width="2" class="data-point"/>
  
    <circle cx="329.6296296296296" cy="282.861473614926" r="4" fill="#3b82f6" stroke="#0d1117" stroke-width="2" class="data-point"/>
  
    <circle cx="334.81481481481484" cy="281.40766806323813" r="4" fill="#3b82f6" stroke="#0d1117" stroke-width="2" class="data-point"/>
  
    <circle cx="340" cy="279.6147614647545" r="4" fill="#3b82f6" stroke="#0d1117" stroke-width="2" class="data-point"/>
  
    <circle cx="345.18518518518516" cy="278.2800020252395" r="4" fill="#3b82f6" stroke="#0d1117" stroke-width="2" class="data-point"/>
  
    <circle cx="350.3703703703704" cy="277.1725124362366" r="4" fill="#3b82f6" stroke="#0d1117" stroke-width="2" class="data-point"/>
  
    <circle cx="355.55555555555554" cy="276.11913471640315" r="4" fill="#3b82f6" stroke="#0d1117" stroke-width="2" class="data-point"/>
  
    <circle cx="360.74074074074076" cy="274.8529169778363" r="4" fill="#3b82f6" stroke="#0d1117" stroke-width="2" class="data-point"/>
  
    <circle cx="365.9259259259259" cy="273.3810741364252" r="4" fill="#3b82f6" stroke="#0d1117" stroke-width="2" class="data-point"/>
  
    <circle cx="371.1111111111111" cy="271.7505031454502" r="4" fill="#3b82f6" stroke="#0d1117" stroke-width="2" class="data-point"/>
  
    <circle cx="376.2962962962963" cy="270.03696062174856" r="4" fill="#3b82f6" stroke="#0d1117" stroke-width="2" class="data-point"/>
  
    <circle cx="381.48148148148147" cy="268.391959798995" r="4" fill="#3b82f6" stroke="#0d1117" stroke-width="2" class="data-point"/>
  
    <circle cx="386.6666666666667" cy="266.94536916319635" r="4" fill="#3b82f6" stroke="#0d1117" stroke-width="2" class="data-point"/>
  
    <circle cx="391.85185185185185" cy="265.5096009012316" r="4" fill="#3b82f6" stroke="#0d1117" stroke-width="2" class="data-point"/>
  
    <circle cx="397.037037037037" cy="264.2433831626647" r="4" fill="#3b82f6" stroke="#0d1117" stroke-width="2" class="data-point"/>
  
    <circle cx="402.22222222222223" cy="262.9519132184854" r="4" fill="#3b82f6" stroke="#0d1117" stroke-width="2" class="data-point"/>
  
    <circle cx="407.4074074074074" cy="261.50893004063136" r="4" fill="#3b82f6" stroke="#0d1117" stroke-width="2" class="data-point"/>
  
    <circle cx="412.59259259259255" cy="259.7124159842031" r="4" fill="#3b82f6" stroke="#0d1117" stroke-width="2" class="data-point"/>
  
    <circle cx="417.77777777777777" cy="258.3740490867435" r="4" fill="#3b82f6" stroke="#0d1117" stroke-width="2" class="data-point"/>
  
    <circle cx="422.96296296296293" cy="257.1763730491247" r="4" fill="#3b82f6" stroke="#0d1117" stroke-width="2" class="data-point"/>
  
    <circle cx="428.14814814814815" cy="255.8452210675544" r="4" fill="#3b82f6" stroke="#0d1117" stroke-width="2" class="data-point"/>
  
    <circle cx="433.3333333333333" cy="254.60425553459996" r="4" fill="#3b82f6" stroke="#0d1117" stroke-width="2" class="data-point"/>
  
    <circle cx="438.51851851851853" cy="253.24063643152792" r="4" fill="#3b82f6" stroke="#0d1117" stroke-width="2" class="data-point"/>
  
    <circle cx="443.7037037037037" cy="251.81929800134174" r="4" fill="#3b82f6" stroke="#0d1117" stroke-width="2" class="data-point"/>
  
    <circle cx="448.8888888888889" cy="250.33302532815208" r="4" fill="#3b82f6" stroke="#0d1117" stroke-width="2" class="data-point"/>
  
    <circle cx="454.0740740740741" cy="249.03073301013885" r="4" fill="#3b82f6" stroke="#0d1117" stroke-width="2" class="data-point"/>
  
    <circle cx="459.2592592592593" cy="247.91602850524663" r="4" fill="#3b82f6" stroke="#0d1117" stroke-width="2" class="data-point"/>
  
    <circle cx="464.4444444444444" cy="246.69310026201538" r="4" fill="#3b82f6" stroke="#0d1117" stroke-width="2" class="data-point"/>
  
    <circle cx="469.6296296296296" cy="245.3691631963343" r="4" fill="#3b82f6" stroke="#0d1117" stroke-width="2" class="data-point"/>
  
    <circle cx="474.8148148148148" cy="244.14262749515842" r="4" fill="#3b82f6" stroke="#0d1117" stroke-width="2" class="data-point"/>
  
    <circle cx="480" cy="242.5445236256851" r="4" fill="#3b82f6" stroke="#0d1117" stroke-width="2" class="data-point"/>
  
    <circle cx="485.18518518518516" cy="241.17008214877916" r="4" fill="#3b82f6" stroke="#0d1117" stroke-width="2" class="data-point"/>
  
    <circle cx="490.3703703703704" cy="239.84614508309812" r="4" fill="#3b82f6" stroke="#0d1117" stroke-width="2" class="data-point"/>
  
    <circle cx="495.55555555555554" cy="238.74587040998443" r="4" fill="#3b82f6" stroke="#0d1117" stroke-width="2" class="data-point"/>
  
    <circle cx="500.74074074074076" cy="237.67806285837247" r="4" fill="#3b82f6" stroke="#0d1117" stroke-width="2" class="data-point"/>
  
    <circle cx="505.9259259259259" cy="236.60664784881587" r="4" fill="#3b82f6" stroke="#0d1117" stroke-width="2" class="data-point"/>
  
    <circle cx="511.11111111111114" cy="235.32600027847042" r="4" fill="#3b82f6" stroke="#0d1117" stroke-width="2" class="data-point"/>
  
    <circle cx="516.2962962962963" cy="234.00927812867866" r="4" fill="#3b82f6" stroke="#0d1117" stroke-width="2" class="data-point"/>
  
    <circle cx="521.4814814814815" cy="232.41117425920532" r="4" fill="#3b82f6" stroke="#0d1117" stroke-width="2" class="data-point"/>
  
    <circle cx="526.6666666666666" cy="231.1160968570814" r="4" fill="#3b82f6" stroke="#0d1117" stroke-width="2" class="data-point"/>
  
    <circle cx="531.8518518518518" cy="230.05911167930333" r="4" fill="#3b82f6" stroke="#0d1117" stroke-width="2" class="data-point"/>
  
    <circle cx="537.037037037037" cy="228.9732668379682" r="4" fill="#3b82f6" stroke="#0d1117" stroke-width="2" class="data-point"/>
  
    <circle cx="542.2222222222222" cy="227.9343189499133" r="4" fill="#3b82f6" stroke="#0d1117" stroke-width="2" class="data-point"/>
  
    <circle cx="547.4074074074074" cy="226.65006392162323" r="4" fill="#3b82f6" stroke="#0d1117" stroke-width="2" class="data-point"/>
  
    <circle cx="552.5925925925926" cy="225.33334177183144" r="4" fill="#3b82f6" stroke="#0d1117" stroke-width="2" class="data-point"/>
  
    <circle cx="557.7777777777778" cy="222.42212321051102" r="4" fill="#3b82f6" stroke="#0d1117" stroke-width="2" class="data-point"/>
  
    <circle cx="562.962962962963" cy="216.62854575142717" r="4" fill="#3b82f6" stroke="#0d1117" stroke-width="2" class="data-point"/>
  
    <circle cx="568.1481481481483" cy="209.72747870334038" r="4" fill="#3b82f6" stroke="#0d1117" stroke-width="2" class="data-point"/>
  
    <circle cx="573.3333333333333" cy="203.43967950584155" r="4" fill="#3b82f6" stroke="#0d1117" stroke-width="2" class="data-point"/>
  
    <circle cx="578.5185185185185" cy="200.2506866827842" r="4" fill="#3b82f6" stroke="#0d1117" stroke-width="2" class="data-point"/>
  
    <circle cx="583.7037037037037" cy="195.44555270053036" r="4" fill="#3b82f6" stroke="#0d1117" stroke-width="2" class="data-point"/>
  
    <circle cx="588.8888888888889" cy="192.25295241952838" r="4" fill="#3b82f6" stroke="#0d1117" stroke-width="2" class="data-point"/>
  
    <circle cx="594.074074074074" cy="189.4535650544916" r="4" fill="#3b82f6" stroke="#0d1117" stroke-width="2" class="data-point"/>
  
    <circle cx="599.2592592592592" cy="186.71550447451364" r="4" fill="#3b82f6" stroke="#0d1117" stroke-width="2" class="data-point"/>
  
    <circle cx="604.4444444444445" cy="184.1361720440996" r="4" fill="#3b82f6" stroke="#0d1117" stroke-width="2" class="data-point"/>
  
    <circle cx="609.6296296296297" cy="180.12467880966545" r="4" fill="#3b82f6" stroke="#0d1117" stroke-width="2" class="data-point"/>
  
    <circle cx="614.8148148148149" cy="176.93568598660812" r="4" fill="#3b82f6" stroke="#0d1117" stroke-width="2" class="data-point"/>
  
    <circle cx="620" cy="172.85925850917056" r="4" fill="#3b82f6" stroke="#0d1117" stroke-width="2" class="data-point"/>
  
    <circle cx="625.1851851851852" cy="172.02593572395986" r="4" fill="#3b82f6" stroke="#0d1117" stroke-width="2" class="data-point"/>
  
    <circle cx="630.3703703703703" cy="171.9177119856208" r="4" fill="#3b82f6" stroke="#0d1117" stroke-width="2" class="data-point"/>
  
    <circle cx="635.5555555555555" cy="171.77702112578004" r="4" fill="#3b82f6" stroke="#0d1117" stroke-width="2" class="data-point"/>
  
    <circle cx="640.7407407407408" cy="171.65797501360706" r="4" fill="#3b82f6" stroke="#0d1117" stroke-width="2" class="data-point"/>
  
    <circle cx="645.9259259259259" cy="171.50285432198777" r="4" fill="#3b82f6" stroke="#0d1117" stroke-width="2" class="data-point"/>
  
    <circle cx="651.1111111111111" cy="171.36577092009165" r="4" fill="#3b82f6" stroke="#0d1117" stroke-width="2" class="data-point"/>
  
    <circle cx="656.2962962962963" cy="171.31165905092212" r="4" fill="#3b82f6" stroke="#0d1117" stroke-width="2" class="data-point"/>
  
    <circle cx="661.4814814814815" cy="171.1132488639672" r="4" fill="#3b82f6" stroke="#0d1117" stroke-width="2" class="data-point"/>
  
    <circle cx="666.6666666666667" cy="170.92205359290153" r="4" fill="#3b82f6" stroke="#0d1117" stroke-width="2" class="data-point"/>
  
    <circle cx="671.8518518518518" cy="170.7957925648393" r="4" fill="#3b82f6" stroke="#0d1117" stroke-width="2" class="data-point"/>
  
    <circle cx="677.0370370370371" cy="170.74889561155905" r="4" fill="#3b82f6" stroke="#0d1117" stroke-width="2" class="data-point"/>
  
    <circle cx="682.2222222222222" cy="170.5360555928256" r="4" fill="#3b82f6" stroke="#0d1117" stroke-width="2" class="data-point"/>
  
    <circle cx="687.4074074074074" cy="165.3052415731048" r="4" fill="#3b82f6" stroke="#0d1117" stroke-width="2" class="data-point"/>
  
    <circle cx="692.5925925925926" cy="157.11270458083868" r="4" fill="#3b82f6" stroke="#0d1117" stroke-width="2" class="data-point"/>
  
    <circle cx="697.7777777777777" cy="151.62576104704885" r="4" fill="#3b82f6" stroke="#0d1117" stroke-width="2" class="data-point"/>
  
    <circle cx="702.9629629629629" cy="145.2549903168234" r="4" fill="#3b82f6" stroke="#0d1117" stroke-width="2" class="data-point"/>
  
    <circle cx="708.1481481481482" cy="138.6894168575877" r="4" fill="#3b82f6" stroke="#0d1117" stroke-width="2" class="data-point"/>
  
    <circle cx="713.3333333333334" cy="133.5379669126489" r="4" fill="#3b82f6" stroke="#0d1117" stroke-width="2" class="data-point"/>
  
    <circle cx="718.5185185185186" cy="127.77685657506674" r="4" fill="#3b82f6" stroke="#0d1117" stroke-width="2" class="data-point"/>
  
    <circle cx="723.7037037037037" cy="118.99991139576977" r="4" fill="#3b82f6" stroke="#0d1117" stroke-width="2" class="data-point"/>
  
    <circle cx="728.8888888888889" cy="107.17105679531159" r="4" fill="#3b82f6" stroke="#0d1117" stroke-width="2" class="data-point"/>
  
    <circle cx="734.074074074074" cy="99.45109679379266" r="4" fill="#3b82f6" stroke="#0d1117" stroke-width="2" class="data-point"/>
  
    <circle cx="739.2592592592592" cy="90.26290140880727" r="4" fill="#3b82f6" stroke="#0d1117" stroke-width="2" class="data-point"/>
  
    <circle cx="744.4444444444445" cy="80.02493576193308" r="4" fill="#3b82f6" stroke="#0d1117" stroke-width="2" class="data-point"/>
  
    <circle cx="749.6296296296296" cy="71.81436147994378" r="4" fill="#3b82f6" stroke="#0d1117" stroke-width="2" class="data-point"/>
  
    <circle cx="754.8148148148148" cy="62.90394035669533" r="4" fill="#3b82f6" stroke="#0d1117" stroke-width="2" class="data-point"/>
  
    <circle cx="760" cy="55" r="4" fill="#3b82f6" stroke="#0d1117" stroke-width="2" class="data-point"/>
  

  <!-- Axis lines -->
  <line x1="60" y1="55" x2="60" y2="340"
        stroke="#30363d" stroke-width="2"/>
  <line x1="60" y1="340" x2="760" y2="340"
        stroke="#30363d" stroke-width="2"/>
</svg>