<?xml version="1.0" encoding="UTF-8"?>
<svg width="800" height="400" xmlns="http://www.w3.org/2000/svg">
  <defs>
    <!-- Gradient for area fill -->
    <linearGradient id="areaGradient" x1="0%" y1="0%" x2="0%" y2="100%">
      <stop offset="0%" style="stop-color:#3b82f6;stop-opacity:0.3" />
      <stop offset="100%" style="stop-color:#3b82f6;stop-opacity:0.05" />
    </linearGradient>

    <!-- Glow filter for line -->
    <filter id="glow">
      <feGaussianBlur stdDeviation="2" result="coloredBlur"/>
      <feMerge>
        <feMergeNode in="coloredBlur"/>
        <feMergeNode in="SourceGraphic"/>
      </feMerge>
    </filter>

    <!-- Animation -->
    <style>
      @keyframes draw {
        from { stroke-dashoffset: 2000; }
        to { stroke-dashoffset: 0; }
      }
      @keyframes fadeIn {
        from { opacity: 0; }
        to { opacity: 1; }
      }
      .line-path {
        stroke-dasharray: 2000;
        stroke-dashoffset: 2000;
        animation: draw 1.5s ease-out forwards;
      }
      .area-path {
        opacity: 0;
        animation: fadeIn 1s ease-out 0.5s forwards;
      }
      .data-point {
        opacity: 0;
        animation: fadeIn 0.5s ease-out 1s forwards;
      }
    </style>
  </defs>

  <!-- Background -->
  <rect width="800" height="400" fill="#0d1117" rx="8"/>

  <!-- Title -->
  <text x="400" y="25" text-anchor="middle" fill="#c9d1d9" font-family="system-ui, -apple-system, sans-serif" font-size="16" font-weight="600">
    zxcloli666/SoundCloud-Desktop Downloads
  </text>

  <!-- Stats -->
  <text x="780" y="25" text-anchor="end" fill="#58a6ff" font-family="system-ui, -apple-system, sans-serif" font-size="14" font-weight="600">
    272.1K total
  </text>
  <text x="780" y="42" text-anchor="end" fill="#3fb950" font-family="system-ui, -apple-system, sans-serif" font-size="12">
    +987 (+0.4%)
  </text>

  <!-- Grid lines -->
  <g opacity="0.1">
    
      <line x1="60" y1="340" x2="760" y2="340"
            stroke="#c9d1d9" stroke-width="1"/>
    
      <line x1="60" y1="268.75" x2="760" y2="268.75"
            stroke="#c9d1d9" stroke-width="1"/>
    
      <line x1="60" y1="197.5" x2="760" y2="197.5"
            stroke="#c9d1d9" stroke-width="1"/>
    
      <line x1="60" y1="126.25" x2="760" y2="126.25"
            stroke="#c9d1d9" stroke-width="1"/>
    
      <line x1="60" y1="55" x2="760" y2="55"
            stroke="#c9d1d9" stroke-width="1"/>
    
  </g>

  <!-- Y-axis labels -->
  
    <text x="50" y="344" text-anchor="end"
          fill="#8b949e" font-family="system-ui, -apple-system, sans-serif" font-size="11">
      60.2K
    </text>
  
    <text x="50" y="272.75" text-anchor="end"
          fill="#8b949e" font-family="system-ui, -apple-system, sans-serif" font-size="11">
      113.1K
    </text>
  
    <text x="50" y="201.5" text-anchor="end"
          fill="#8b949e" font-family="system-ui, -apple-system, sans-serif" font-size="11">
      166.1K
    </text>
  
    <text x="50" y="130.25" text-anchor="end"
          fill="#8b949e" font-family="system-ui, -apple-system, sans-serif" font-size="11">
      219.1K
    </text>
  
    <text x="50" y="59" text-anchor="end"
          fill="#8b949e" font-family="system-ui, -apple-system, sans-serif" font-size="11">
      272.1K
    </text>
  

  <!-- X-axis labels -->
  
    <text x="60" y="360" text-anchor="middle"
          fill="#8b949e" font-family="system-ui, -apple-system, sans-serif" font-size="11">
      Nov 25
    </text>
  
    <text x="146.69724770642202" y="360" text-anchor="middle"
          fill="#8b949e" font-family="system-ui, -apple-system, sans-serif" font-size="11">
      Dec 22
    </text>
  
    <text x="233.39449541284404" y="360" text-anchor="middle"
          fill="#8b949e" font-family="system-ui, -apple-system, sans-serif" font-size="11">
      Jan 18
    </text>
  
    <text x="320.091743119266" y="360" text-anchor="middle"
          fill="#8b949e" font-family="system-ui, -apple-system, sans-serif" font-size="11">
      Feb 14
    </text>
  
    <text x="406.7889908256881" y="360" text-anchor="middle"
          fill="#8b949e" font-family="system-ui, -apple-system, sans-serif" font-size="11">
      Mar 13
    </text>
  
    <text x="493.48623853211006" y="360" text-anchor="middle"
          fill="#8b949e" font-family="system-ui, -apple-system, sans-serif" font-size="11">
      Apr 9
    </text>
  
    <text x="580.183486238532" y="360" text-anchor="middle"
          fill="#8b949e" font-family="system-ui, -apple-system, sans-serif" font-size="11">
      May 6
    </text>
  
    <text x="666.8807339449542" y="360" text-anchor="middle"
          fill="#8b949e" font-family="system-ui, -apple-system, sans-serif" font-size="11">
      Jun 2
    </text>
  
    <text x="753.5779816513761" y="360" text-anchor="middle"
          fill="#8b949e" font-family="system-ui, -apple-system, sans-serif" font-size="11">
      Jun 29
    </text>
  
    <text x="760" y="360" text-anchor="middle"
          fill="#8b949e" font-family="system-ui, -apple-system, sans-serif" font-size="11">
      Jul 1
    </text>
  

  <!-- Area under line -->
  <path d="M 60 340
    L 60.00 340.00 L 63.21 339.80 L 66.42 339.47 L 69.63 339.15 L 72.84 338.53 L 76.06 337.89 L 79.27 337.39 L 82.48 336.92 L 85.69 336.50 L 88.90 336.01 L 92.11 335.46 L 95.32 334.88 L 98.53 334.34 L 101.74 333.78 L 104.95 333.37 L 108.17 332.94 L 111.38 332.36 L 114.59 331.97 L 117.80 331.43 L 121.01 330.81 L 124.22 330.34 L 127.43 329.96 L 130.64 329.71 L 133.85 329.50 L 137.06 329.12 L 140.28 328.85 L 143.49 328.25 L 146.70 328.01 L 149.91 327.71 L 153.12 327.32 L 156.33 327.05 L 159.54 326.77 L 162.75 326.49 L 165.96 326.29 L 169.17 326.12 L 172.39 325.85 L 175.60 325.53 L 178.81 325.24 L 182.02 324.87 L 185.23 324.47 L 188.44 324.09 L 191.65 323.65 L 194.86 323.21 L 198.07 322.77 L 201.28 322.29 L 204.50 321.83 L 207.71 321.30 L 210.92 320.83 L 214.13 320.43 L 217.34 320.12 L 220.55 319.67 L 223.76 319.17 L 226.97 318.70 L 230.18 318.16 L 233.39 317.49 L 236.61 317.00 L 239.82 316.58 L 243.03 316.19 L 246.24 315.72 L 249.45 315.17 L 252.66 314.56 L 255.87 313.92 L 259.08 313.31 L 262.29 312.77 L 265.50 312.24 L 268.72 311.76 L 271.93 311.28 L 275.14 310.74 L 278.35 310.07 L 281.56 309.58 L 284.77 309.13 L 287.98 308.63 L 291.19 308.17 L 294.40 307.66 L 297.61 307.13 L 300.83 306.58 L 304.04 306.09 L 307.25 305.68 L 310.46 305.22 L 313.67 304.73 L 316.88 304.27 L 320.09 303.68 L 323.30 303.16 L 326.51 302.67 L 329.72 302.26 L 332.94 301.86 L 336.15 301.46 L 339.36 300.99 L 342.57 300.49 L 345.78 299.90 L 348.99 299.42 L 352.20 299.02 L 355.41 298.62 L 358.62 298.23 L 361.83 297.75 L 365.05 297.26 L 368.26 296.18 L 371.47 294.02 L 374.68 291.44 L 377.89 289.10 L 381.10 287.91 L 384.31 286.12 L 387.52 284.93 L 390.73 283.89 L 393.94 282.87 L 397.16 281.91 L 400.37 280.41 L 403.58 279.22 L 406.79 277.70 L 410.00 277.39 L 413.21 277.35 L 416.42 277.30 L 419.63 277.25 L 422.84 277.20 L 426.06 277.15 L 429.27 277.13 L 432.48 277.05 L 435.69 276.98 L 438.90 276.93 L 442.11 276.92 L 445.32 276.84 L 448.53 274.89 L 451.74 271.83 L 454.95 269.79 L 458.17 267.41 L 461.38 264.97 L 464.59 263.05 L 467.80 260.90 L 471.01 257.63 L 474.22 253.22 L 477.43 250.34 L 480.64 246.92 L 483.85 243.10 L 487.06 240.04 L 490.28 236.72 L 493.49 233.77 L 496.70 230.85 L 499.91 227.94 L 503.12 223.98 L 506.33 220.00 L 509.54 216.69 L 512.75 213.91 L 515.96 211.22 L 519.17 207.64 L 522.39 204.87 L 525.60 202.12 L 528.81 199.55 L 532.02 197.14 L 535.23 194.66 L 538.44 192.54 L 541.65 190.35 L 544.86 188.11 L 548.07 185.74 L 551.28 183.57 L 554.50 181.58 L 557.71 177.98 L 560.92 174.96 L 564.13 172.07 L 567.34 169.29 L 570.55 164.89 L 573.76 162.11 L 576.97 159.71 L 580.18 156.87 L 583.39 152.68 L 586.61 149.67 L 589.82 147.12 L 593.03 144.97 L 596.24 142.93 L 599.45 141.27 L 602.66 139.40 L 605.87 137.87 L 609.08 136.07 L 612.29 133.48 L 615.50 131.26 L 618.72 129.32 L 621.93 127.65 L 625.14 125.92 L 628.35 124.47 L 631.56 122.02 L 634.77 119.93 L 637.98 117.86 L 641.19 116.15 L 644.40 114.58 L 647.61 113.18 L 650.83 110.79 L 654.04 108.85 L 657.25 107.08 L 660.46 105.39 L 663.67 103.92 L 666.88 102.48 L 670.09 101.17 L 673.30 99.91 L 676.51 98.76 L 679.72 97.32 L 682.94 95.77 L 686.15 94.35 L 689.36 92.14 L 692.57 90.54 L 695.78 89.00 L 698.99 87.65 L 702.20 86.08 L 705.41 84.14 L 708.62 82.42 L 711.83 80.88 L 715.05 79.22 L 718.26 76.92 L 721.47 75.03 L 724.68 73.01 L 727.89 70.99 L 731.10 69.12 L 734.31 67.27 L 737.52 65.32 L 740.73 63.57 L 743.94 62.04 L 747.16 60.62 L 750.37 59.12 L 753.58 57.65 L 756.79 56.33 L 760.00 55.00
    L 760 340
    Z" fill="url(#areaGradient)" class="area-path"/>

  <!-- Main line with glow -->
  <path d="M 60.00 340.00 L 63.21 339.80 L 66.42 339.47 L 69.63 339.15 L 72.84 338.53 L 76.06 337.89 L 79.27 337.39 L 82.48 336.92 L 85.69 336.50 L 88.90 336.01 L 92.11 335.46 L 95.32 334.88 L 98.53 334.34 L 101.74 333.78 L 104.95 333.37 L 108.17 332.94 L 111.38 332.36 L 114.59 331.97 L 117.80 331.43 L 121.01 330.81 L 124.22 330.34 L 127.43 329.96 L 130.64 329.71 L 133.85 329.50 L 137.06 329.12 L 140.28 328.85 L 143.49 328.25 L 146.70 328.01 L 149.91 327.71 L 153.12 327.32 L 156.33 327.05 L 159.54 326.77 L 162.75 326.49 L 165.96 326.29 L 169.17 326.12 L 172.39 325.85 L 175.60 325.53 L 178.81 325.24 L 182.02 324.87 L 185.23 324.47 L 188.44 324.09 L 191.65 323.65 L 194.86 323.21 L 198.07 322.77 L 201.28 322.29 L 204.50 321.83 L 207.71 321.30 L 210.92 320.83 L 214.13 320.43 L 217.34 320.12 L 220.55 319.67 L 223.76 319.17 L 226.97 318.70 L 230.18 318.16 L 233.39 317.49 L 236.61 317.00 L 239.82 316.58 L 243.03 316.19 L 246.24 315.72 L 249.45 315.17 L 252.66 314.56 L 255.87 313.92 L 259.08 313.31 L 262.29 312.77 L 265.50 312.24 L 268.72 311.76 L 271.93 311.28 L 275.14 310.74 L 278.35 310.07 L 281.56 309.58 L 284.77 309.13 L 287.98 308.63 L 291.19 308.17 L 294.40 307.66 L 297.61 307.13 L 300.83 306.58 L 304.04 306.09 L 307.25 305.68 L 310.46 305.22 L 313.67 304.73 L 316.88 304.27 L 320.09 303.68 L 323.30 303.16 L 326.51 302.67 L 329.72 302.26 L 332.94 301.86 L 336.15 301.46 L 339.36 300.99 L 342.57 300.49 L 345.78 299.90 L 348.99 299.42 L 352.20 299.02 L 355.41 298.62 L 358.62 298.23 L 361.83 297.75 L 365.05 297.26 L 368.26 296.18 L 371.47 294.02 L 374.68 291.44 L 377.89 289.10 L 381.10 287.91 L 384.31 286.12 L 387.52 284.93 L 390.73 283.89 L 393.94 282.87 L 397.16 281.91 L 400.37 280.41 L 403.58 279.22 L 406.79 277.70 L 410.00 277.39 L 413.21 277.35 L 416.42 277.30 L 419.63 277.25 L 422.84 277.20 L 426.06 277.15 L 429.27 277.13 L 432.48 277.05 L 435.69 276.98 L 438.90 276.93 L 442.11 276.92 L 445.32 276.84 L 448.53 274.89 L 451.74 271.83 L 454.95 269.79 L 458.17 267.41 L 461.38 264.97 L 464.59 263.05 L 467.80 260.90 L 471.01 257.63 L 474.22 253.22 L 477.43 250.34 L 480.64 246.92 L 483.85 243.10 L 487.06 240.04 L 490.28 236.72 L 493.49 233.77 L 496.70 230.85 L 499.91 227.94 L 503.12 223.98 L 506.33 220.00 L 509.54 216.69 L 512.75 213.91 L 515.96 211.22 L 519.17 207.64 L 522.39 204.87 L 525.60 202.12 L 528.81 199.55 L 532.02 197.14 L 535.23 194.66 L 538.44 192.54 L 541.65 190.35 L 544.86 188.11 L 548.07 185.74 L 551.28 183.57 L 554.50 181.58 L 557.71 177.98 L 560.92 174.96 L 564.13 172.07 L 567.34 169.29 L 570.55 164.89 L 573.76 162.11 L 576.97 159.71 L 580.18 156.87 L 583.39 152.68 L 586.61 149.67 L 589.82 147.12 L 593.03 144.97 L 596.24 142.93 L 599.45 141.27 L 602.66 139.40 L 605.87 137.87 L 609.08 136.07 L 612.29 133.48 L 615.50 131.26 L 618.72 129.32 L 621.93 127.65 L 625.14 125.92 L 628.35 124.47 L 631.56 122.02 L 634.77 119.93 L 637.98 117.86 L 641.19 116.15 L 644.40 114.58 L 647.61 113.18 L 650.83 110.79 L 654.04 108.85 L 657.25 107.08 L 660.46 105.39 L 663.67 103.92 L 666.88 102.48 L 670.09 101.17 L 673.30 99.91 L 676.51 98.76 L 679.72 97.32 L 682.94 95.77 L 686.15 94.35 L 689.36 92.14 L 692.57 90.54 L 695.78 89.00 L 698.99 87.65 L 702.20 86.08 L 705.41 84.14 L 708.62 82.42 L 711.83 80.88 L 715.05 79.22 L 718.26 76.92 L 721.47 75.03 L 724.68 73.01 L 727.89 70.99 L 731.10 69.12 L 734.31 67.27 L 737.52 65.32 L 740.73 63.57 L 743.94 62.04 L 747.16 60.62 L 750.37 59.12 L 753.58 57.65 L 756.79 56.33 L 760.00 55.00" fill="none" stroke="#3b82f6" stroke-width="3"
        stroke-linecap="round" stroke-linejoin="round" filter="url(#glow)" class="line-path"/>

  <!-- Data points -->
  
    <circle cx="60" cy="340" r="4" fill="#3b82f6" stroke="#0d1117" stroke-width="2" class="data-point"/>
  
    <circle cx="63.211009174311926" cy="339.8023438495181" r="4" fill="#3b82f6" stroke="#0d1117" stroke-width="2" class="data-point"/>
  
    <circle cx="66.42201834862385" cy="339.4661939337325" r="4" fill="#3b82f6" stroke="#0d1117" stroke-width="2" class="data-point"/>
  
    <circle cx="69.63302752293578" cy="339.1542468118834" r="4" fill="#3b82f6" stroke="#0d1117" stroke-width="2" class="data-point"/>
  
    <circle cx="72.8440366972477" cy="338.53438636717476" r="4" fill="#3b82f6" stroke="#0d1117" stroke-width="2" class="data-point"/>
  
    <circle cx="76.05504587155963" cy="337.894356927519" r="4" fill="#3b82f6" stroke="#0d1117" stroke-width="2" class="data-point"/>
  
    <circle cx="79.26605504587155" cy="337.3901320538406" r="4" fill="#3b82f6" stroke="#0d1117" stroke-width="2" class="data-point"/>
  
    <circle cx="82.47706422018348" cy="336.91952217174077" r="4" fill="#3b82f6" stroke="#0d1117" stroke-width="2" class="data-point"/>
  
    <circle cx="85.68807339449542" cy="336.5013516765035" r="4" fill="#3b82f6" stroke="#0d1117" stroke-width="2" class="data-point"/>
  
    <circle cx="88.89908256880734" cy="336.0105727994565" r="4" fill="#3b82f6" stroke="#0d1117" stroke-width="2" class="data-point"/>
  
    <circle cx="92.11009174311927" cy="335.46332073655753" r="4" fill="#3b82f6" stroke="#0d1117" stroke-width="2" class="data-point"/>
  
    <circle cx="95.3211009174312" cy="334.8770752834275" r="4" fill="#3b82f6" stroke="#0d1117" stroke-width="2" class="data-point"/>
  
    <circle cx="98.53211009174312" cy="334.3446138168231" r="4" fill="#3b82f6" stroke="#0d1117" stroke-width="2" class="data-point"/>
  
    <circle cx="101.74311926605505" cy="333.7785373586401" r="4" fill="#3b82f6" stroke="#0d1117" stroke-width="2" class="data-point"/>
  
    <circle cx="104.95412844036697" cy="333.3657452620554" r="4" fill="#3b82f6" stroke="#0d1117" stroke-width="2" class="data-point"/>
  
    <circle cx="108.16513761467891" cy="332.93816256917614" r="4" fill="#3b82f6" stroke="#0d1117" stroke-width="2" class="data-point"/>
  
    <circle cx="111.37614678899084" cy="332.3572955146986" r="4" fill="#3b82f6" stroke="#0d1117" stroke-width="2" class="data-point"/>
  
    <circle cx="114.58715596330276" cy="331.96870621205045" r="4" fill="#3b82f6" stroke="#0d1117" stroke-width="2" class="data-point"/>
  
    <circle cx="117.79816513761469" cy="331.4308663467935" r="4" fill="#3b82f6" stroke="#0d1117" stroke-width="2" class="data-point"/>
  
    <circle cx="121.00917431192661" cy="330.8096613024217" r="4" fill="#3b82f6" stroke="#0d1117" stroke-width="2" class="data-point"/>
  
    <circle cx="124.22018348623854" cy="330.34174061964814" r="4" fill="#3b82f6" stroke="#0d1117" stroke-width="2" class="data-point"/>
  
    <circle cx="127.43119266055047" cy="329.95718511598943" r="4" fill="#3b82f6" stroke="#0d1117" stroke-width="2" class="data-point"/>
  
    <circle cx="130.6422018348624" cy="329.7084341783081" r="4" fill="#3b82f6" stroke="#0d1117" stroke-width="2" class="data-point"/>
  
    <circle cx="133.85321100917432" cy="329.5013658301841" r="4" fill="#3b82f6" stroke="#0d1117" stroke-width="2" class="data-point"/>
  
    <circle cx="137.06422018348624" cy="329.11815492618854" r="4" fill="#3b82f6" stroke="#0d1117" stroke-width="2" class="data-point"/>
  
    <circle cx="140.27522935779817" cy="328.8452011945706" r="4" fill="#3b82f6" stroke="#0d1117" stroke-width="2" class="data-point"/>
  
    <circle cx="143.4862385321101" cy="328.2468543444723" r="4" fill="#3b82f6" stroke="#0d1117" stroke-width="2" class="data-point"/>
  
    <circle cx="146.69724770642202" cy="328.01154940342235" r="4" fill="#3b82f6" stroke="#0d1117" stroke-width="2" class="data-point"/>
  
    <circle cx="149.90825688073394" cy="327.70766987955216" r="4" fill="#3b82f6" stroke="#0d1117" stroke-width="2" class="data-point"/>
  
    <circle cx="153.11926605504587" cy="327.3150467779146" r="4" fill="#3b82f6" stroke="#0d1117" stroke-width="2" class="data-point"/>
  
    <circle cx="156.33027522935782" cy="327.0461268452861" r="4" fill="#3b82f6" stroke="#0d1117" stroke-width="2" class="data-point"/>
  
    <circle cx="159.54128440366975" cy="326.77317311366824" r="4" fill="#3b82f6" stroke="#0d1117" stroke-width="2" class="data-point"/>
  
    <circle cx="162.75229357798167" cy="326.48677338541887" r="4" fill="#3b82f6" stroke="#0d1117" stroke-width="2" class="data-point"/>
  
    <circle cx="165.9633027522936" cy="326.2877726352738" r="4" fill="#3b82f6" stroke="#0d1117" stroke-width="2" class="data-point"/>
  
    <circle cx="169.17431192660553" cy="326.11566387839156" r="4" fill="#3b82f6" stroke="#0d1117" stroke-width="2" class="data-point"/>
  
    <circle cx="172.38532110091745" cy="325.85346694407883" r="4" fill="#3b82f6" stroke="#0d1117" stroke-width="2" class="data-point"/>
  
    <circle cx="175.59633027522938" cy="325.53479682391406" r="4" fill="#3b82f6" stroke="#0d1117" stroke-width="2" class="data-point"/>
  
    <circle cx="178.8073394495413" cy="325.241674097349" r="4" fill="#3b82f6" stroke="#0d1117" stroke-width="2" class="data-point"/>
  
    <circle cx="182.01834862385323" cy="324.8705645903217" r="4" fill="#3b82f6" stroke="#0d1117" stroke-width="2" class="data-point"/>
  
    <circle cx="185.22935779816515" cy="324.46584009171585" r="4" fill="#3b82f6" stroke="#0d1117" stroke-width="2" class="data-point"/>
  
    <circle cx="188.44036697247708" cy="324.09473058468853" r="4" fill="#3b82f6" stroke="#0d1117" stroke-width="2" class="data-point"/>
  
    <circle cx="191.651376146789" cy="323.64697889686215" r="4" fill="#3b82f6" stroke="#0d1117" stroke-width="2" class="data-point"/>
  
    <circle cx="194.86238532110093" cy="323.2072948070146" r="4" fill="#3b82f6" stroke="#0d1117" stroke-width="2" class="data-point"/>
  
    <circle cx="198.07339449541286" cy="322.767610717167" r="4" fill="#3b82f6" stroke="#0d1117" stroke-width="2" class="data-point"/>
  
    <circle cx="201.28440366972478" cy="322.286244037762" r="4" fill="#3b82f6" stroke="#0d1117" stroke-width="2" class="data-point"/>
  
    <circle cx="204.4954128440367" cy="321.8263909529673" r="4" fill="#3b82f6" stroke="#0d1117" stroke-width="2" class="data-point"/>
  
    <circle cx="207.70642201834863" cy="321.30065248467866" r="4" fill="#3b82f6" stroke="#0d1117" stroke-width="2" class="data-point"/>
  
    <circle cx="210.91743119266056" cy="320.83138720224196" r="4" fill="#3b82f6" stroke="#0d1117" stroke-width="2" class="data-point"/>
  
    <circle cx="214.12844036697248" cy="320.43473030161493" r="4" fill="#3b82f6" stroke="#0d1117" stroke-width="2" class="data-point"/>
  
    <circle cx="217.3394495412844" cy="320.11740478111335" r="4" fill="#3b82f6" stroke="#0d1117" stroke-width="2" class="data-point"/>
  
    <circle cx="220.55045871559633" cy="319.67368689227635" r="4" fill="#3b82f6" stroke="#0d1117" stroke-width="2" class="data-point"/>
  
    <circle cx="223.76146788990826" cy="319.16677281927167" r="4" fill="#3b82f6" stroke="#0d1117" stroke-width="2" class="data-point"/>
  
    <circle cx="226.9724770642202" cy="318.70288593548753" r="4" fill="#3b82f6" stroke="#0d1117" stroke-width="2" class="data-point"/>
  
    <circle cx="230.1834862385321" cy="318.16101227124113" r="4" fill="#3b82f6" stroke="#0d1117" stroke-width="2" class="data-point"/>
  
    <circle cx="233.39449541284404" cy="317.4927462386594" r="4" fill="#3b82f6" stroke="#0d1117" stroke-width="2" class="data-point"/>
  
    <circle cx="236.60550458715596" cy="316.99524436329665" r="4" fill="#3b82f6" stroke="#0d1117" stroke-width="2" class="data-point"/>
  
    <circle cx="239.8165137614679" cy="316.582452266712" r="4" fill="#3b82f6" stroke="#0d1117" stroke-width="2" class="data-point"/>
  
    <circle cx="243.0275229357798" cy="316.1898291650744" r="4" fill="#3b82f6" stroke="#0d1117" stroke-width="2" class="data-point"/>
  
    <circle cx="246.23853211009174" cy="315.7178746833114" r="4" fill="#3b82f6" stroke="#0d1117" stroke-width="2" class="data-point"/>
  
    <circle cx="249.44954128440367" cy="315.1692780207493" r="4" fill="#3b82f6" stroke="#0d1117" stroke-width="2" class="data-point"/>
  
    <circle cx="252.66055045871562" cy="314.56151897300896" r="4" fill="#3b82f6" stroke="#0d1117" stroke-width="2" class="data-point"/>
  
    <circle cx="255.87155963302752" cy="313.9228341330163" r="4" fill="#3b82f6" stroke="#0d1117" stroke-width="2" class="data-point"/>
  
    <circle cx="259.0825688073395" cy="313.30969668662334" r="4" fill="#3b82f6" stroke="#0d1117" stroke-width="2" class="data-point"/>
  
    <circle cx="262.29357798165137" cy="312.77051222170326" r="4" fill="#3b82f6" stroke="#0d1117" stroke-width="2" class="data-point"/>
  
    <circle cx="265.50458715596335" cy="312.23536155577256" r="4" fill="#3b82f6" stroke="#0d1117" stroke-width="2" class="data-point"/>
  
    <circle cx="268.7155963302752" cy="311.7634070740096" r="4" fill="#3b82f6" stroke="#0d1117" stroke-width="2" class="data-point"/>
  
    <circle cx="271.9266055045872" cy="311.2820403946046" r="4" fill="#3b82f6" stroke="#0d1117" stroke-width="2" class="data-point"/>
  
    <circle cx="275.13761467889907" cy="310.74420052934767" r="4" fill="#3b82f6" stroke="#0d1117" stroke-width="2" class="data-point"/>
  
    <circle cx="278.34862385321105" cy="310.0745898971027" r="4" fill="#3b82f6" stroke="#0d1117" stroke-width="2" class="data-point"/>
  
    <circle cx="281.5596330275229" cy="309.5757434220769" r="4" fill="#3b82f6" stroke="#0d1117" stroke-width="2" class="data-point"/>
  
    <circle cx="284.7706422018349" cy="309.1293363339136" r="4" fill="#3b82f6" stroke="#0d1117" stroke-width="2" class="data-point"/>
  
    <circle cx="287.9816513761468" cy="308.63317905821407" r="4" fill="#3b82f6" stroke="#0d1117" stroke-width="2" class="data-point"/>
  
    <circle cx="291.19266055045875" cy="308.1706367740931" r="4" fill="#3b82f6" stroke="#0d1117" stroke-width="2" class="data-point"/>
  
    <circle cx="294.4036697247706" cy="307.66237810142525" r="4" fill="#3b82f6" stroke="#0d1117" stroke-width="2" class="data-point"/>
  
    <circle cx="297.6146788990826" cy="307.13260583414717" r="4" fill="#3b82f6" stroke="#0d1117" stroke-width="2" class="data-point"/>
  
    <circle cx="300.82568807339453" cy="306.5786307729325" r="4" fill="#3b82f6" stroke="#0d1117" stroke-width="2" class="data-point"/>
  
    <circle cx="304.03669724770646" cy="306.0932302945381" r="4" fill="#3b82f6" stroke="#0d1117" stroke-width="2" class="data-point"/>
  
    <circle cx="307.2477064220184" cy="305.67774899862707" r="4" fill="#3b82f6" stroke="#0d1117" stroke-width="2" class="data-point"/>
  
    <circle cx="310.4587155963303" cy="305.2219297128218" r="4" fill="#3b82f6" stroke="#0d1117" stroke-width="2" class="data-point"/>
  
    <circle cx="313.66972477064223" cy="304.72846163644857" r="4" fill="#3b82f6" stroke="#0d1117" stroke-width="2" class="data-point"/>
  
    <circle cx="316.88073394495416" cy="304.2712977509801" r="4" fill="#3b82f6" stroke="#0d1117" stroke-width="2" class="data-point"/>
  
    <circle cx="320.091743119266" cy="303.67564010020806" r="4" fill="#3b82f6" stroke="#0d1117" stroke-width="2" class="data-point"/>
  
    <circle cx="323.302752293578" cy="303.1633476285508" r="4" fill="#3b82f6" stroke="#0d1117" stroke-width="2" class="data-point"/>
  
    <circle cx="326.5137614678899" cy="302.6698795521775" r="4" fill="#3b82f6" stroke="#0d1117" stroke-width="2" class="data-point"/>
  
    <circle cx="329.72477064220186" cy="302.2597766549191" r="4" fill="#3b82f6" stroke="#0d1117" stroke-width="2" class="data-point"/>
  
    <circle cx="332.93577981651373" cy="301.86177515462896" r="4" fill="#3b82f6" stroke="#0d1117" stroke-width="2" class="data-point"/>
  
    <circle cx="336.1467889908257" cy="301.4624290546757" r="4" fill="#3b82f6" stroke="#0d1117" stroke-width="2" class="data-point"/>
  
    <circle cx="339.35779816513764" cy="300.9850961742601" r="4" fill="#3b82f6" stroke="#0d1117" stroke-width="2" class="data-point"/>
  
    <circle cx="342.56880733944956" cy="300.4943172972131" r="4" fill="#3b82f6" stroke="#0d1117" stroke-width="2" class="data-point"/>
  
    <circle cx="345.7798165137615" cy="299.89865964644105" r="4" fill="#3b82f6" stroke="#0d1117" stroke-width="2" class="data-point"/>
  
    <circle cx="348.9908256880734" cy="299.41594836737295" r="4" fill="#3b82f6" stroke="#0d1117" stroke-width="2" class="data-point"/>
  
    <circle cx="352.20183486238534" cy="299.02198066607224" r="4" fill="#3b82f6" stroke="#0d1117" stroke-width="2" class="data-point"/>
  
    <circle cx="355.41284403669727" cy="298.61725616746634" r="4" fill="#3b82f6" stroke="#0d1117" stroke-width="2" class="data-point"/>
  
    <circle cx="358.6238532110092" cy="298.2300114644813" r="4" fill="#3b82f6" stroke="#0d1117" stroke-width="2" class="data-point"/>
  
    <circle cx="361.8348623853211" cy="297.75133398440266" r="4" fill="#3b82f6" stroke="#0d1117" stroke-width="2" class="data-point"/>
  
    <circle cx="365.04587155963304" cy="297.2605551073557" r="4" fill="#3b82f6" stroke="#0d1117" stroke-width="2" class="data-point"/>
  
    <circle cx="368.25688073394497" cy="296.17546317919977" r="4" fill="#3b82f6" stroke="#0d1117" stroke-width="2" class="data-point"/>
  
    <circle cx="371.4678899082569" cy="294.01603612019306" r="4" fill="#3b82f6" stroke="#0d1117" stroke-width="2" class="data-point"/>
  
    <circle cx="374.6788990825688" cy="291.44381696460164" r="4" fill="#3b82f6" stroke="#0d1117" stroke-width="2" class="data-point"/>
  
    <circle cx="377.88990825688074" cy="289.10017975174446" r="4" fill="#3b82f6" stroke="#0d1117" stroke-width="2" class="data-point"/>
  
    <circle cx="381.10091743119267" cy="287.9115536495266" r="4" fill="#3b82f6" stroke="#0d1117" stroke-width="2" class="data-point"/>
  
    <circle cx="384.3119266055046" cy="286.1205468982209" r="4" fill="#3b82f6" stroke="#0d1117" stroke-width="2" class="data-point"/>
  
    <circle cx="387.5229357798165" cy="284.93057619633987" r="4" fill="#3b82f6" stroke="#0d1117" stroke-width="2" class="data-point"/>
  
    <circle cx="390.73394495412845" cy="283.88716685774136" r="4" fill="#3b82f6" stroke="#0d1117" stroke-width="2" class="data-point"/>
  
    <circle cx="393.9449541284404" cy="282.86661571341625" r="4" fill="#3b82f6" stroke="#0d1117" stroke-width="2" class="data-point"/>
  
    <circle cx="397.1559633027523" cy="281.90522695426944" r="4" fill="#3b82f6" stroke="#0d1117" stroke-width="2" class="data-point"/>
  
    <circle cx="400.3669724770642" cy="280.4100321288551" r="4" fill="#3b82f6" stroke="#0d1117" stroke-width="2" class="data-point"/>
  
    <circle cx="403.57798165137615" cy="279.2214060266372" r="4" fill="#3b82f6" stroke="#0d1117" stroke-width="2" class="data-point"/>
  
    <circle cx="406.7889908256881" cy="277.7020084072863" r="4" fill="#3b82f6" stroke="#0d1117" stroke-width="2" class="data-point"/>
  
    <circle cx="410" cy="277.3914058851004" r="4" fill="#3b82f6" stroke="#0d1117" stroke-width="2" class="data-point"/>
  
    <circle cx="413.2110091743119" cy="277.35106789520614" r="4" fill="#3b82f6" stroke="#0d1117" stroke-width="2" class="data-point"/>
  
    <circle cx="416.4220183486238" cy="277.2986285083436" r="4" fill="#3b82f6" stroke="#0d1117" stroke-width="2" class="data-point"/>
  
    <circle cx="419.6330275229358" cy="277.2542567194599" r="4" fill="#3b82f6" stroke="#0d1117" stroke-width="2" class="data-point"/>
  
    <circle cx="422.8440366972477" cy="277.19643893394476" r="4" fill="#3b82f6" stroke="#0d1117" stroke-width="2" class="data-point"/>
  
    <circle cx="426.0550458715596" cy="277.14534414674534" r="4" fill="#3b82f6" stroke="#0d1117" stroke-width="2" class="data-point"/>
  
    <circle cx="429.2660550458715" cy="277.1251751517982" r="4" fill="#3b82f6" stroke="#0d1117" stroke-width="2" class="data-point"/>
  
    <circle cx="432.4770642201835" cy="277.0512221703254" r="4" fill="#3b82f6" stroke="#0d1117" stroke-width="2" class="data-point"/>
  
    <circle cx="435.6880733944954" cy="276.97995838817883" r="4" fill="#3b82f6" stroke="#0d1117" stroke-width="2" class="data-point"/>
  
    <circle cx="438.89908256880733" cy="276.93289739996885" r="4" fill="#3b82f6" stroke="#0d1117" stroke-width="2" class="data-point"/>
  
    <circle cx="442.11009174311926" cy="276.915417604348" r="4" fill="#3b82f6" stroke="#0d1117" stroke-width="2" class="data-point"/>
  
    <circle cx="445.32110091743124" cy="276.8360862242226" r="4" fill="#3b82f6" stroke="#0d1117" stroke-width="2" class="data-point"/>
  
    <circle cx="448.5321100917431" cy="274.8864167126661" r="4" fill="#3b82f6" stroke="#0d1117" stroke-width="2" class="data-point"/>
  
    <circle cx="451.74311926605503" cy="271.8328308776697" r="4" fill="#3b82f6" stroke="#0d1117" stroke-width="2" class="data-point"/>
  
    <circle cx="454.95412844036696" cy="269.7876947900302" r="4" fill="#3b82f6" stroke="#0d1117" stroke-width="2" class="data-point"/>
  
    <circle cx="458.16513761467894" cy="267.41313178492067" r="4" fill="#3b82f6" stroke="#0d1117" stroke-width="2" class="data-point"/>
  
    <circle cx="461.3761467889908" cy="264.96596039800147" r="4" fill="#3b82f6" stroke="#0d1117" stroke-width="2" class="data-point"/>
  
    <circle cx="464.58715596330273" cy="263.04587207903415" r="4" fill="#3b82f6" stroke="#0d1117" stroke-width="2" class="data-point"/>
  
    <circle cx="467.79816513761466" cy="260.8985464169957" r="4" fill="#3b82f6" stroke="#0d1117" stroke-width="2" class="data-point"/>
  
    <circle cx="471.00917431192664" cy="257.62713543657026" r="4" fill="#3b82f6" stroke="#0d1117" stroke-width="2" class="data-point"/>
  
    <circle cx="474.2201834862385" cy="253.21819314112633" r="4" fill="#3b82f6" stroke="#0d1117" stroke-width="2" class="data-point"/>
  
    <circle cx="477.43119266055044" cy="250.34074986200162" r="4" fill="#3b82f6" stroke="#0d1117" stroke-width="2" class="data-point"/>
  
    <circle cx="480.64220183486236" cy="246.91605451997793" r="4" fill="#3b82f6" stroke="#0d1117" stroke-width="2" class="data-point"/>
  
    <circle cx="483.85321100917434" cy="243.1000806759798" r="4" fill="#3b82f6" stroke="#0d1117" stroke-width="2" class="data-point"/>
  
    <circle cx="487.06422018348627" cy="240.03977184266768" r="4" fill="#3b82f6" stroke="#0d1117" stroke-width="2" class="data-point"/>
  
    <circle cx="490.27522935779814" cy="236.71861067470596" r="4" fill="#3b82f6" stroke="#0d1117" stroke-width="2" class="data-point"/>
  
    <circle cx="493.48623853211006" cy="233.77259281276096" r="4" fill="#3b82f6" stroke="#0d1117" stroke-width="2" class="data-point"/>
  
    <circle cx="496.69724770642205" cy="230.8534669440788" r="4" fill="#3b82f6" stroke="#0d1117" stroke-width="2" class="data-point"/>
  
    <circle cx="499.908256880734" cy="227.9424086733755" r="4" fill="#3b82f6" stroke="#0d1117" stroke-width="2" class="data-point"/>
  
    <circle cx="503.11926605504584" cy="223.9785288664317" r="4" fill="#3b82f6" stroke="#0d1117" stroke-width="2" class="data-point"/>
  
    <circle cx="506.33027522935777" cy="220.00254766251965" r="4" fill="#3b82f6" stroke="#0d1117" stroke-width="2" class="data-point"/>
  
    <circle cx="509.54128440366975" cy="216.68810949287362" r="4" fill="#3b82f6" stroke="#0d1117" stroke-width="2" class="data-point"/>
  
    <circle cx="512.7522935779816" cy="213.91016658882143" r="4" fill="#3b82f6" stroke="#0d1117" stroke-width="2" class="data-point"/>
  
    <circle cx="515.9633027522935" cy="211.21558886388405" r="4" fill="#3b82f6" stroke="#0d1117" stroke-width="2" class="data-point"/>
  
    <circle cx="519.1743119266055" cy="207.63895375992527" r="4" fill="#3b82f6" stroke="#0d1117" stroke-width="2" class="data-point"/>
  
    <circle cx="522.3853211009175" cy="204.8650446548625" r="4" fill="#3b82f6" stroke="#0d1117" stroke-width="2" class="data-point"/>
  
    <circle cx="525.5963302752293" cy="202.12071674238885" r="4" fill="#3b82f6" stroke="#0d1117" stroke-width="2" class="data-point"/>
  
    <circle cx="528.8073394495412" cy="199.55387598545002" r="4" fill="#3b82f6" stroke="#0d1117" stroke-width="2" class="data-point"/>
  
    <circle cx="532.0183486238532" cy="197.13628579112" r="4" fill="#3b82f6" stroke="#0d1117" stroke-width="2" class="data-point"/>
  
    <circle cx="535.2293577981652" cy="194.6595332116117" r="4" fill="#3b82f6" stroke="#0d1117" stroke-width="2" class="data-point"/>
  
    <circle cx="538.440366972477" cy="192.5417887421624" r="4" fill="#3b82f6" stroke="#0d1117" stroke-width="2" class="data-point"/>
  
    <circle cx="541.6513761467891" cy="190.34874669157713" r="4" fill="#3b82f6" stroke="#0d1117" stroke-width="2" class="data-point"/>
  
    <circle cx="544.8623853211009" cy="188.10998825244505" r="4" fill="#3b82f6" stroke="#0d1117" stroke-width="2" class="data-point"/>
  
    <circle cx="548.0733944954129" cy="185.74349284531442" r="4" fill="#3b82f6" stroke="#0d1117" stroke-width="2" class="data-point"/>
  
    <circle cx="551.2844036697247" cy="183.57196438933943" r="4" fill="#3b82f6" stroke="#0d1117" stroke-width="2" class="data-point"/>
  
    <circle cx="554.4954128440368" cy="181.58330148755184" r="4" fill="#3b82f6" stroke="#0d1117" stroke-width="2" class="data-point"/>
  
    <circle cx="557.7064220183486" cy="177.9797743903302" r="4" fill="#3b82f6" stroke="#0d1117" stroke-width="2" class="data-point"/>
  
    <circle cx="560.9174311926606" cy="174.96383734590182" r="4" fill="#3b82f6" stroke="#0d1117" stroke-width="2" class="data-point"/>
  
    <circle cx="564.1284403669724" cy="172.0675696714931" r="4" fill="#3b82f6" stroke="#0d1117" stroke-width="2" class="data-point"/>
  
    <circle cx="567.3394495412845" cy="169.28559296845145" r="4" fill="#3b82f6" stroke="#0d1117" stroke-width="2" class="data-point"/>
  
    <circle cx="570.5504587155963" cy="164.89278586896523" r="4" fill="#3b82f6" stroke="#0d1117" stroke-width="2" class="data-point"/>
  
    <circle cx="573.7614678899083" cy="162.11349836524988" r="4" fill="#3b82f6" stroke="#0d1117" stroke-width="2" class="data-point"/>
  
    <circle cx="576.9724770642202" cy="159.70800956788813" r="4" fill="#3b82f6" stroke="#0d1117" stroke-width="2" class="data-point"/>
  
    <circle cx="580.183486238532" cy="156.86687047966825" r="4" fill="#3b82f6" stroke="#0d1117" stroke-width="2" class="data-point"/>
  
    <circle cx="583.394495412844" cy="152.67844252897967" r="4" fill="#3b82f6" stroke="#0d1117" stroke-width="2" class="data-point"/>
  
    <circle cx="586.605504587156" cy="149.66519468387756" r="4" fill="#3b82f6" stroke="#0d1117" stroke-width="2" class="data-point"/>
  
    <circle cx="589.816513761468" cy="147.12121212121212" r="4" fill="#3b82f6" stroke="#0d1117" stroke-width="2" class="data-point"/>
  
    <circle cx="593.0275229357798" cy="144.96850806052115" r="4" fill="#3b82f6" stroke="#0d1117" stroke-width="2" class="data-point"/>
  
    <circle cx="596.2385321100917" cy="142.92606117220785" r="4" fill="#3b82f6" stroke="#0d1117" stroke-width="2" class="data-point"/>
  
    <circle cx="599.4495412844037" cy="141.26548058822698" r="4" fill="#3b82f6" stroke="#0d1117" stroke-width="2" class="data-point"/>
  
    <circle cx="602.6605504587156" cy="139.39514245679587" r="4" fill="#3b82f6" stroke="#0d1117" stroke-width="2" class="data-point"/>
  
    <circle cx="605.8715596330275" cy="137.87036643879242" r="4" fill="#3b82f6" stroke="#0d1117" stroke-width="2" class="data-point"/>
  
    <circle cx="609.0825688073394" cy="136.07129208950786" r="4" fill="#3b82f6" stroke="#0d1117" stroke-width="2" class="data-point"/>
  
    <circle cx="612.2935779816514" cy="133.4815931382956" r="4" fill="#3b82f6" stroke="#0d1117" stroke-width="2" class="data-point"/>
  
    <circle cx="615.5045871559633" cy="131.25628069579494" r="4" fill="#3b82f6" stroke="#0d1117" stroke-width="2" class="data-point"/>
  
    <circle cx="618.7155963302753" cy="129.32140178053305" r="4" fill="#3b82f6" stroke="#0d1117" stroke-width="2" class="data-point"/>
  
    <circle cx="621.9266055045871" cy="127.64871979958386" r="4" fill="#3b82f6" stroke="#0d1117" stroke-width="2" class="data-point"/>
  
    <circle cx="625.1376146788991" cy="125.92359843177218" r="4" fill="#3b82f6" stroke="#0d1117" stroke-width="2" class="data-point"/>
  
    <circle cx="628.348623853211" cy="124.4687415962521" r="4" fill="#3b82f6" stroke="#0d1117" stroke-width="2" class="data-point"/>
  
    <circle cx="631.559633027523" cy="122.02291480899609" r="4" fill="#3b82f6" stroke="#0d1117" stroke-width="2" class="data-point"/>
  
    <circle cx="634.7706422018348" cy="119.93206233280964" r="4" fill="#3b82f6" stroke="#0d1117" stroke-width="2" class="data-point"/>
  
    <circle cx="637.9816513761468" cy="117.85868965224407" r="4" fill="#3b82f6" stroke="#0d1117" stroke-width="2" class="data-point"/>
  
    <circle cx="641.1926605504588" cy="116.1470142810638" r="4" fill="#3b82f6" stroke="#0d1117" stroke-width="2" class="data-point"/>
  
    <circle cx="644.4036697247707" cy="114.57652187451347" r="4" fill="#3b82f6" stroke="#0d1117" stroke-width="2" class="data-point"/>
  
    <circle cx="647.6146788990825" cy="113.1821720238348" r="4" fill="#3b82f6" stroke="#0d1117" stroke-width="2" class="data-point"/>
  
    <circle cx="650.8256880733945" cy="110.79147382276759" r="4" fill="#3b82f6" stroke="#0d1117" stroke-width="2" class="data-point"/>
  
    <circle cx="654.0366972477065" cy="108.84987190919" r="4" fill="#3b82f6" stroke="#0d1117" stroke-width="2" class="data-point"/>
  
    <circle cx="657.2477064220184" cy="107.08037875249457" r="4" fill="#3b82f6" stroke="#0d1117" stroke-width="2" class="data-point"/>
  
    <circle cx="660.4587155963302" cy="105.3902169759246" r="4" fill="#3b82f6" stroke="#0d1117" stroke-width="2" class="data-point"/>
  
    <circle cx="663.6697247706422" cy="103.91519114545738" r="4" fill="#3b82f6" stroke="#0d1117" stroke-width="2" class="data-point"/>
  
    <circle cx="666.8807339449542" cy="102.4831925042107" r="4" fill="#3b82f6" stroke="#0d1117" stroke-width="2" class="data-point"/>
  
    <circle cx="670.0917431192661" cy="101.17086323298375" r="4" fill="#3b82f6" stroke="#0d1117" stroke-width="2" class="data-point"/>
  
    <circle cx="673.302752293578" cy="99.91231794828244" r="4" fill="#3b82f6" stroke="#0d1117" stroke-width="2" class="data-point"/>
  
    <circle cx="676.5137614678899" cy="98.75865143730627" r="4" fill="#3b82f6" stroke="#0d1117" stroke-width="2" class="data-point"/>
  
    <circle cx="679.7247706422019" cy="97.31858519808077" r="4" fill="#3b82f6" stroke="#0d1117" stroke-width="2" class="data-point"/>
  
    <circle cx="682.9357798165138" cy="95.77229558546699" r="4" fill="#3b82f6" stroke="#0d1117" stroke-width="2" class="data-point"/>
  
    <circle cx="686.1467889908257" cy="94.34970914186235" r="4" fill="#3b82f6" stroke="#0d1117" stroke-width="2" class="data-point"/>
  
    <circle cx="689.3577981651376" cy="92.13918729565626" r="4" fill="#3b82f6" stroke="#0d1117" stroke-width="2" class="data-point"/>
  
    <circle cx="692.5688073394496" cy="90.53507989752737" r="4" fill="#3b82f6" stroke="#0d1117" stroke-width="2" class="data-point"/>
  
    <circle cx="695.7798165137615" cy="89.00089168188185" r="4" fill="#3b82f6" stroke="#0d1117" stroke-width="2" class="data-point"/>
  
    <circle cx="698.9908256880734" cy="87.65494741907634" r="4" fill="#3b82f6" stroke="#0d1117" stroke-width="2" class="data-point"/>
  
    <circle cx="702.2018348623853" cy="86.07638741454716" r="4" fill="#3b82f6" stroke="#0d1117" stroke-width="2" class="data-point"/>
  
    <circle cx="705.4128440366973" cy="84.13747470029583" r="4" fill="#3b82f6" stroke="#0d1117" stroke-width="2" class="data-point"/>
  
    <circle cx="708.6238532110092" cy="82.41907633079984" r="4" fill="#3b82f6" stroke="#0d1117" stroke-width="2" class="data-point"/>
  
    <circle cx="711.8348623853211" cy="80.88488811515435" r="4" fill="#3b82f6" stroke="#0d1117" stroke-width="2" class="data-point"/>
  
    <circle cx="715.045871559633" cy="79.21892913252094" r="4" fill="#3b82f6" stroke="#0d1117" stroke-width="2" class="data-point"/>
  
    <circle cx="718.256880733945" cy="76.92100830821056" r="4" fill="#3b82f6" stroke="#0d1117" stroke-width="2" class="data-point"/>
  
    <circle cx="721.4678899082569" cy="75.03453498082177" r="4" fill="#3b82f6" stroke="#0d1117" stroke-width="2" class="data-point"/>
  
    <circle cx="724.6788990825688" cy="73.01091248779244" r="4" fill="#3b82f6" stroke="#0d1117" stroke-width="2" class="data-point"/>
  
    <circle cx="727.8899082568807" cy="70.99401299307885" r="4" fill="#3b82f6" stroke="#0d1117" stroke-width="2" class="data-point"/>
  
    <circle cx="731.1009174311927" cy="69.11560726366895" r="4" fill="#3b82f6" stroke="#0d1117" stroke-width="2" class="data-point"/>
  
    <circle cx="734.3119266055046" cy="67.27216112550065" r="4" fill="#3b82f6" stroke="#0d1117" stroke-width="2" class="data-point"/>
  
    <circle cx="737.5229357798165" cy="65.32114701428105" r="4" fill="#3b82f6" stroke="#0d1117" stroke-width="2" class="data-point"/>
  
    <circle cx="740.7339449541284" cy="63.57182285253282" r="4" fill="#3b82f6" stroke="#0d1117" stroke-width="2" class="data-point"/>
  
    <circle cx="743.9449541284404" cy="62.03897923655046" r="4" fill="#3b82f6" stroke="#0d1117" stroke-width="2" class="data-point"/>
  
    <circle cx="747.1559633027523" cy="60.61908199227207" r="4" fill="#3b82f6" stroke="#0d1117" stroke-width="2" class="data-point"/>
  
    <circle cx="750.3669724770642" cy="59.11716416854205" r="4" fill="#3b82f6" stroke="#0d1117" stroke-width="2" class="data-point"/>
  
    <circle cx="753.5779816513761" cy="57.65155053571681" r="4" fill="#3b82f6" stroke="#0d1117" stroke-width="2" class="data-point"/>
  
    <circle cx="756.7889908256881" cy="56.32711986752156" r="4" fill="#3b82f6" stroke="#0d1117" stroke-width="2" class="data-point"/>
  
    <circle cx="760" cy="55" r="4" fill="#3b82f6" stroke="#0d1117" stroke-width="2" class="data-point"/>
  

  <!-- Axis lines -->
  <line x1="60" y1="55" x2="60" y2="340"
        stroke="#30363d" stroke-width="2"/>
  <line x1="60" y1="340" x2="760" y2="340"
        stroke="#30363d" stroke-width="2"/>
</svg>