<?xml version="1.0" encoding="UTF-8"?>
<svg width="800" height="400" xmlns="http://www.w3.org/2000/svg">
  <defs>
    <!-- Gradient for area fill -->
    <linearGradient id="areaGradient" x1="0%" y1="0%" x2="0%" y2="100%">
      <stop offset="0%" style="stop-color:#3b82f6;stop-opacity:0.3" />
      <stop offset="100%" style="stop-color:#3b82f6;stop-opacity:0.05" />
    </linearGradient>

    <!-- Glow filter for line -->
    <filter id="glow">
      <feGaussianBlur stdDeviation="2" result="coloredBlur"/>
      <feMerge>
        <feMergeNode in="coloredBlur"/>
        <feMergeNode in="SourceGraphic"/>
      </feMerge>
    </filter>

    <!-- Animation -->
    <style>
      @keyframes draw {
        from { stroke-dashoffset: 2000; }
        to { stroke-dashoffset: 0; }
      }
      @keyframes fadeIn {
        from { opacity: 0; }
        to { opacity: 1; }
      }
      .line-path {
        stroke-dasharray: 2000;
        stroke-dashoffset: 2000;
        animation: draw 1.5s ease-out forwards;
      }
      .area-path {
        opacity: 0;
        animation: fadeIn 1s ease-out 0.5s forwards;
      }
      .data-point {
        opacity: 0;
        animation: fadeIn 0.5s ease-out 1s forwards;
      }
    </style>
  </defs>

  <!-- Background -->
  <rect width="800" height="400" fill="#0d1117" rx="8"/>

  <!-- Title -->
  <text x="400" y="25" text-anchor="middle" fill="#c9d1d9" font-family="system-ui, -apple-system, sans-serif" font-size="16" font-weight="600">
    zxcloli666/SoundCloud-Desktop Downloads
  </text>

  <!-- Stats -->
  <text x="780" y="25" text-anchor="end" fill="#58a6ff" font-family="system-ui, -apple-system, sans-serif" font-size="14" font-weight="600">
    236.8K total
  </text>
  <text x="780" y="42" text-anchor="end" fill="#3fb950" font-family="system-ui, -apple-system, sans-serif" font-size="12">
    +1.1K (+0.5%)
  </text>

  <!-- Grid lines -->
  <g opacity="0.1">
    
      <line x1="60" y1="340" x2="760" y2="340"
            stroke="#c9d1d9" stroke-width="1"/>
    
      <line x1="60" y1="268.75" x2="760" y2="268.75"
            stroke="#c9d1d9" stroke-width="1"/>
    
      <line x1="60" y1="197.5" x2="760" y2="197.5"
            stroke="#c9d1d9" stroke-width="1"/>
    
      <line x1="60" y1="126.25" x2="760" y2="126.25"
            stroke="#c9d1d9" stroke-width="1"/>
    
      <line x1="60" y1="55" x2="760" y2="55"
            stroke="#c9d1d9" stroke-width="1"/>
    
  </g>

  <!-- Y-axis labels -->
  
    <text x="50" y="344" text-anchor="end"
          fill="#8b949e" font-family="system-ui, -apple-system, sans-serif" font-size="11">
      60.2K
    </text>
  
    <text x="50" y="272.75" text-anchor="end"
          fill="#8b949e" font-family="system-ui, -apple-system, sans-serif" font-size="11">
      104.3K
    </text>
  
    <text x="50" y="201.5" text-anchor="end"
          fill="#8b949e" font-family="system-ui, -apple-system, sans-serif" font-size="11">
      148.5K
    </text>
  
    <text x="50" y="130.25" text-anchor="end"
          fill="#8b949e" font-family="system-ui, -apple-system, sans-serif" font-size="11">
      192.6K
    </text>
  
    <text x="50" y="59" text-anchor="end"
          fill="#8b949e" font-family="system-ui, -apple-system, sans-serif" font-size="11">
      236.8K
    </text>
  

  <!-- X-axis labels -->
  
    <text x="60" y="360" text-anchor="middle"
          fill="#8b949e" font-family="system-ui, -apple-system, sans-serif" font-size="11">
      Nov 25
    </text>
  
    <text x="145.18518518518516" y="360" text-anchor="middle"
          fill="#8b949e" font-family="system-ui, -apple-system, sans-serif" font-size="11">
      Dec 18
    </text>
  
    <text x="230.37037037037035" y="360" text-anchor="middle"
          fill="#8b949e" font-family="system-ui, -apple-system, sans-serif" font-size="11">
      Jan 10
    </text>
  
    <text x="315.55555555555554" y="360" text-anchor="middle"
          fill="#8b949e" font-family="system-ui, -apple-system, sans-serif" font-size="11">
      Feb 2
    </text>
  
    <text x="400.7407407407407" y="360" text-anchor="middle"
          fill="#8b949e" font-family="system-ui, -apple-system, sans-serif" font-size="11">
      Feb 25
    </text>
  
    <text x="485.9259259259259" y="360" text-anchor="middle"
          fill="#8b949e" font-family="system-ui, -apple-system, sans-serif" font-size="11">
      Mar 20
    </text>
  
    <text x="571.1111111111111" y="360" text-anchor="middle"
          fill="#8b949e" font-family="system-ui, -apple-system, sans-serif" font-size="11">
      Apr 12
    </text>
  
    <text x="656.2962962962963" y="360" text-anchor="middle"
          fill="#8b949e" font-family="system-ui, -apple-system, sans-serif" font-size="11">
      May 5
    </text>
  
    <text x="741.4814814814814" y="360" text-anchor="middle"
          fill="#8b949e" font-family="system-ui, -apple-system, sans-serif" font-size="11">
      May 28
    </text>
  
    <text x="760" y="360" text-anchor="middle"
          fill="#8b949e" font-family="system-ui, -apple-system, sans-serif" font-size="11">
      Jun 2
    </text>
  

  <!-- Area under line -->
  <path d="M 60 340
    L 60.00 340.00 L 63.70 339.76 L 67.41 339.36 L 71.11 338.99 L 74.81 338.24 L 78.52 337.47 L 82.22 336.87 L 85.93 336.30 L 89.63 335.80 L 93.33 335.21 L 97.04 334.56 L 100.74 333.85 L 104.44 333.21 L 108.15 332.53 L 111.85 332.04 L 115.56 331.53 L 119.26 330.83 L 122.96 330.36 L 126.67 329.72 L 130.37 328.97 L 134.07 328.41 L 137.78 327.95 L 141.48 327.65 L 145.19 327.40 L 148.89 326.94 L 152.59 326.62 L 156.30 325.90 L 160.00 325.61 L 163.70 325.25 L 167.41 324.78 L 171.11 324.46 L 174.81 324.13 L 178.52 323.79 L 182.22 323.55 L 185.93 323.34 L 189.63 323.03 L 193.33 322.64 L 197.04 322.29 L 200.74 321.85 L 204.44 321.36 L 208.15 320.92 L 211.85 320.38 L 215.56 319.85 L 219.26 319.32 L 222.96 318.74 L 226.67 318.19 L 230.37 317.56 L 234.07 317.00 L 237.78 316.52 L 241.48 316.14 L 245.19 315.61 L 248.89 315.00 L 252.59 314.45 L 256.30 313.80 L 260.00 312.99 L 263.70 312.40 L 267.41 311.90 L 271.11 311.43 L 274.81 310.86 L 278.52 310.21 L 282.22 309.48 L 285.93 308.71 L 289.63 307.97 L 293.33 307.33 L 297.04 306.68 L 300.74 306.12 L 304.44 305.54 L 308.15 304.90 L 311.85 304.09 L 315.56 303.49 L 319.26 302.96 L 322.96 302.36 L 326.67 301.81 L 330.37 301.20 L 334.07 300.56 L 337.78 299.90 L 341.48 299.31 L 345.19 298.82 L 348.89 298.27 L 352.59 297.68 L 356.30 297.13 L 360.00 296.41 L 363.70 295.80 L 367.41 295.21 L 371.11 294.71 L 374.81 294.24 L 378.52 293.76 L 382.22 293.19 L 385.93 292.60 L 389.63 291.88 L 393.33 291.30 L 397.04 290.83 L 400.74 290.34 L 404.44 289.88 L 408.15 289.31 L 411.85 288.72 L 415.56 287.41 L 419.26 284.82 L 422.96 281.74 L 426.67 278.92 L 430.37 277.50 L 434.07 275.35 L 437.78 273.92 L 441.48 272.67 L 445.19 271.44 L 448.89 270.29 L 452.59 268.50 L 456.30 267.07 L 460.00 265.25 L 463.70 264.88 L 467.41 264.83 L 471.11 264.76 L 474.81 264.71 L 478.52 264.64 L 482.22 264.58 L 485.93 264.56 L 489.63 264.47 L 493.33 264.38 L 497.04 264.32 L 500.74 264.30 L 504.44 264.21 L 508.15 261.87 L 511.85 258.21 L 515.56 255.75 L 519.26 252.90 L 522.96 249.97 L 526.67 247.66 L 530.37 245.08 L 534.07 241.16 L 537.78 235.87 L 541.48 232.42 L 545.19 228.31 L 548.89 223.73 L 552.59 220.06 L 556.30 216.07 L 560.00 212.54 L 563.70 209.03 L 567.41 205.54 L 571.11 200.78 L 574.81 196.01 L 578.52 192.04 L 582.22 188.70 L 585.93 185.47 L 589.63 181.18 L 593.33 177.85 L 597.04 174.56 L 600.74 171.48 L 604.44 168.58 L 608.15 165.60 L 611.85 163.06 L 615.56 160.43 L 619.26 157.74 L 622.96 154.91 L 626.67 152.30 L 630.37 149.91 L 634.07 145.59 L 637.78 141.97 L 641.48 138.50 L 645.19 135.16 L 648.89 129.89 L 652.59 126.55 L 656.30 123.66 L 660.00 120.26 L 663.70 115.23 L 667.41 111.61 L 671.11 108.56 L 674.81 105.98 L 678.52 103.53 L 682.22 101.54 L 685.93 99.29 L 689.63 97.46 L 693.33 95.30 L 697.04 92.20 L 700.74 89.53 L 704.44 87.20 L 708.15 85.20 L 711.85 83.13 L 715.56 81.38 L 719.26 78.45 L 722.96 75.94 L 726.67 73.45 L 730.37 71.40 L 734.07 69.51 L 737.78 67.84 L 741.48 64.97 L 745.19 62.64 L 748.89 60.52 L 752.59 58.49 L 756.30 56.72 L 760.00 55.00
    L 760 340
    Z" fill="url(#areaGradient)" class="area-path"/>

  <!-- Main line with glow -->
  <path d="M 60.00 340.00 L 63.70 339.76 L 67.41 339.36 L 71.11 338.99 L 74.81 338.24 L 78.52 337.47 L 82.22 336.87 L 85.93 336.30 L 89.63 335.80 L 93.33 335.21 L 97.04 334.56 L 100.74 333.85 L 104.44 333.21 L 108.15 332.53 L 111.85 332.04 L 115.56 331.53 L 119.26 330.83 L 122.96 330.36 L 126.67 329.72 L 130.37 328.97 L 134.07 328.41 L 137.78 327.95 L 141.48 327.65 L 145.19 327.40 L 148.89 326.94 L 152.59 326.62 L 156.30 325.90 L 160.00 325.61 L 163.70 325.25 L 167.41 324.78 L 171.11 324.46 L 174.81 324.13 L 178.52 323.79 L 182.22 323.55 L 185.93 323.34 L 189.63 323.03 L 193.33 322.64 L 197.04 322.29 L 200.74 321.85 L 204.44 321.36 L 208.15 320.92 L 211.85 320.38 L 215.56 319.85 L 219.26 319.32 L 222.96 318.74 L 226.67 318.19 L 230.37 317.56 L 234.07 317.00 L 237.78 316.52 L 241.48 316.14 L 245.19 315.61 L 248.89 315.00 L 252.59 314.45 L 256.30 313.80 L 260.00 312.99 L 263.70 312.40 L 267.41 311.90 L 271.11 311.43 L 274.81 310.86 L 278.52 310.21 L 282.22 309.48 L 285.93 308.71 L 289.63 307.97 L 293.33 307.33 L 297.04 306.68 L 300.74 306.12 L 304.44 305.54 L 308.15 304.90 L 311.85 304.09 L 315.56 303.49 L 319.26 302.96 L 322.96 302.36 L 326.67 301.81 L 330.37 301.20 L 334.07 300.56 L 337.78 299.90 L 341.48 299.31 L 345.19 298.82 L 348.89 298.27 L 352.59 297.68 L 356.30 297.13 L 360.00 296.41 L 363.70 295.80 L 367.41 295.21 L 371.11 294.71 L 374.81 294.24 L 378.52 293.76 L 382.22 293.19 L 385.93 292.60 L 389.63 291.88 L 393.33 291.30 L 397.04 290.83 L 400.74 290.34 L 404.44 289.88 L 408.15 289.31 L 411.85 288.72 L 415.56 287.41 L 419.26 284.82 L 422.96 281.74 L 426.67 278.92 L 430.37 277.50 L 434.07 275.35 L 437.78 273.92 L 441.48 272.67 L 445.19 271.44 L 448.89 270.29 L 452.59 268.50 L 456.30 267.07 L 460.00 265.25 L 463.70 264.88 L 467.41 264.83 L 471.11 264.76 L 474.81 264.71 L 478.52 264.64 L 482.22 264.58 L 485.93 264.56 L 489.63 264.47 L 493.33 264.38 L 497.04 264.32 L 500.74 264.30 L 504.44 264.21 L 508.15 261.87 L 511.85 258.21 L 515.56 255.75 L 519.26 252.90 L 522.96 249.97 L 526.67 247.66 L 530.37 245.08 L 534.07 241.16 L 537.78 235.87 L 541.48 232.42 L 545.19 228.31 L 548.89 223.73 L 552.59 220.06 L 556.30 216.07 L 560.00 212.54 L 563.70 209.03 L 567.41 205.54 L 571.11 200.78 L 574.81 196.01 L 578.52 192.04 L 582.22 188.70 L 585.93 185.47 L 589.63 181.18 L 593.33 177.85 L 597.04 174.56 L 600.74 171.48 L 604.44 168.58 L 608.15 165.60 L 611.85 163.06 L 615.56 160.43 L 619.26 157.74 L 622.96 154.91 L 626.67 152.30 L 630.37 149.91 L 634.07 145.59 L 637.78 141.97 L 641.48 138.50 L 645.19 135.16 L 648.89 129.89 L 652.59 126.55 L 656.30 123.66 L 660.00 120.26 L 663.70 115.23 L 667.41 111.61 L 671.11 108.56 L 674.81 105.98 L 678.52 103.53 L 682.22 101.54 L 685.93 99.29 L 689.63 97.46 L 693.33 95.30 L 697.04 92.20 L 700.74 89.53 L 704.44 87.20 L 708.15 85.20 L 711.85 83.13 L 715.56 81.38 L 719.26 78.45 L 722.96 75.94 L 726.67 73.45 L 730.37 71.40 L 734.07 69.51 L 737.78 67.84 L 741.48 64.97 L 745.19 62.64 L 748.89 60.52 L 752.59 58.49 L 756.30 56.72 L 760.00 55.00" fill="none" stroke="#3b82f6" stroke-width="3"
        stroke-linecap="round" stroke-linejoin="round" filter="url(#glow)" class="line-path"/>

  <!-- Data points -->
  
    <circle cx="60" cy="340" r="4" fill="#3b82f6" stroke="#0d1117" stroke-width="2" class="data-point"/>
  
    <circle cx="63.7037037037037" cy="339.7628294036061" r="4" fill="#3b82f6" stroke="#0d1117" stroke-width="2" class="data-point"/>
  
    <circle cx="67.4074074074074" cy="339.3594780491947" r="4" fill="#3b82f6" stroke="#0d1117" stroke-width="2" class="data-point"/>
  
    <circle cx="71.11111111111111" cy="338.98516799230094" r="4" fill="#3b82f6" stroke="#0d1117" stroke-width="2" class="data-point"/>
  
    <circle cx="74.81481481481481" cy="338.24138809476636" r="4" fill="#3b82f6" stroke="#0d1117" stroke-width="2" class="data-point"/>
  
    <circle cx="78.51851851851852" cy="337.47340711596706" r="4" fill="#3b82f6" stroke="#0d1117" stroke-width="2" class="data-point"/>
  
    <circle cx="82.22222222222223" cy="336.86838008434995" r="4" fill="#3b82f6" stroke="#0d1117" stroke-width="2" class="data-point"/>
  
    <circle cx="85.92592592592592" cy="336.303688188174" r="4" fill="#3b82f6" stroke="#0d1117" stroke-width="2" class="data-point"/>
  
    <circle cx="89.62962962962962" cy="335.80191910328625" r="4" fill="#3b82f6" stroke="#0d1117" stroke-width="2" class="data-point"/>
  
    <circle cx="93.33333333333333" cy="335.2130261258456" r="4" fill="#3b82f6" stroke="#0d1117" stroke-width="2" class="data-point"/>
  
    <circle cx="97.03703703703704" cy="334.5563701208639" r="4" fill="#3b82f6" stroke="#0d1117" stroke-width="2" class="data-point"/>
  
    <circle cx="100.74074074074073" cy="333.8529253587704" r="4" fill="#3b82f6" stroke="#0d1117" stroke-width="2" class="data-point"/>
  
    <circle cx="104.44444444444444" cy="333.2140168133828" r="4" fill="#3b82f6" stroke="#0d1117" stroke-width="2" class="data-point"/>
  
    <circle cx="108.14814814814815" cy="332.534773132554" r="4" fill="#3b82f6" stroke="#0d1117" stroke-width="2" class="data-point"/>
  
    <circle cx="111.85185185185185" cy="332.0394576693368" r="4" fill="#3b82f6" stroke="#0d1117" stroke-width="2" class="data-point"/>
  
    <circle cx="115.55555555555554" cy="331.5263947465255" r="4" fill="#3b82f6" stroke="#0d1117" stroke-width="2" class="data-point"/>
  
    <circle cx="119.25925925925925" cy="330.82940360610263" r="4" fill="#3b82f6" stroke="#0d1117" stroke-width="2" class="data-point"/>
  
    <circle cx="122.96296296296296" cy="330.36312944040304" r="4" fill="#3b82f6" stroke="#0d1117" stroke-width="2" class="data-point"/>
  
    <circle cx="126.66666666666666" cy="329.71776727334486" r="4" fill="#3b82f6" stroke="#0d1117" stroke-width="2" class="data-point"/>
  
    <circle cx="130.37037037037038" cy="328.9723739703926" r="4" fill="#3b82f6" stroke="#0d1117" stroke-width="2" class="data-point"/>
  
    <circle cx="134.07407407407408" cy="328.4109088850519" r="4" fill="#3b82f6" stroke="#0d1117" stroke-width="2" class="data-point"/>
  
    <circle cx="137.77777777777777" cy="327.9494749356053" r="4" fill="#3b82f6" stroke="#0d1117" stroke-width="2" class="data-point"/>
  
    <circle cx="141.48148148148147" cy="327.6509949333409" r="4" fill="#3b82f6" stroke="#0d1117" stroke-width="2" class="data-point"/>
  
    <circle cx="145.18518518518516" cy="327.40253049902344" r="4" fill="#3b82f6" stroke="#0d1117" stroke-width="2" class="data-point"/>
  
    <circle cx="148.88888888888889" cy="326.9427099549945" r="4" fill="#3b82f6" stroke="#0d1117" stroke-width="2" class="data-point"/>
  
    <circle cx="152.59259259259258" cy="326.6151886552124" r="4" fill="#3b82f6" stroke="#0d1117" stroke-width="2" class="data-point"/>
  
    <circle cx="156.2962962962963" cy="325.89722324436013" r="4" fill="#3b82f6" stroke="#0d1117" stroke-width="2" class="data-point"/>
  
    <circle cx="160" cy="325.6148772962722" r="4" fill="#3b82f6" stroke="#0d1117" stroke-width="2" class="data-point"/>
  
    <circle cx="163.7037037037037" cy="325.25024767188427" r="4" fill="#3b82f6" stroke="#0d1117" stroke-width="2" class="data-point"/>
  
    <circle cx="167.4074074074074" cy="324.7791332899318" r="4" fill="#3b82f6" stroke="#0d1117" stroke-width="2" class="data-point"/>
  
    <circle cx="171.1111111111111" cy="324.4564522064027" r="4" fill="#3b82f6" stroke="#0d1117" stroke-width="2" class="data-point"/>
  
    <circle cx="174.8148148148148" cy="324.1289309066206" r="4" fill="#3b82f6" stroke="#0d1117" stroke-width="2" class="data-point"/>
  
    <circle cx="178.5185185185185" cy="323.78527555266214" r="4" fill="#3b82f6" stroke="#0d1117" stroke-width="2" class="data-point"/>
  
    <circle cx="182.22222222222223" cy="323.5464915508506" r="4" fill="#3b82f6" stroke="#0d1117" stroke-width="2" class="data-point"/>
  
    <circle cx="185.92592592592592" cy="323.33997565739196" r="4" fill="#3b82f6" stroke="#0d1117" stroke-width="2" class="data-point"/>
  
    <circle cx="189.62962962962962" cy="323.02536160095104" r="4" fill="#3b82f6" stroke="#0d1117" stroke-width="2" class="data-point"/>
  
    <circle cx="193.33333333333331" cy="322.6429845169691" r="4" fill="#3b82f6" stroke="#0d1117" stroke-width="2" class="data-point"/>
  
    <circle cx="197.03703703703704" cy="322.29126213592235" r="4" fill="#3b82f6" stroke="#0d1117" stroke-width="2" class="data-point"/>
  
    <circle cx="200.74074074074073" cy="321.84596224065217" r="4" fill="#3b82f6" stroke="#0d1117" stroke-width="2" class="data-point"/>
  
    <circle cx="204.44444444444443" cy="321.36032720994086" r="4" fill="#3b82f6" stroke="#0d1117" stroke-width="2" class="data-point"/>
  
    <circle cx="208.14814814814815" cy="320.9150273146707" r="4" fill="#3b82f6" stroke="#0d1117" stroke-width="2" class="data-point"/>
  
    <circle cx="211.85185185185185" cy="320.3777633105947" r="4" fill="#3b82f6" stroke="#0d1117" stroke-width="2" class="data-point"/>
  
    <circle cx="215.55555555555554" cy="319.8501797390246" r="4" fill="#3b82f6" stroke="#0d1117" stroke-width="2" class="data-point"/>
  
    <circle cx="219.25925925925924" cy="319.3225961674545" r="4" fill="#3b82f6" stroke="#0d1117" stroke-width="2" class="data-point"/>
  
    <circle cx="222.96296296296296" cy="318.7449970279374" r="4" fill="#3b82f6" stroke="#0d1117" stroke-width="2" class="data-point"/>
  
    <circle cx="226.66666666666666" cy="318.1932123751026" r="4" fill="#3b82f6" stroke="#0d1117" stroke-width="2" class="data-point"/>
  
    <circle cx="230.37037037037035" cy="317.56237085680317" r="4" fill="#3b82f6" stroke="#0d1117" stroke-width="2" class="data-point"/>
  
    <circle cx="234.07407407407408" cy="316.99929236604487" r="4" fill="#3b82f6" stroke="#0d1117" stroke-width="2" class="data-point"/>
  
    <circle cx="237.77777777777777" cy="316.52333776783945" r="4" fill="#3b82f6" stroke="#0d1117" stroke-width="2" class="data-point"/>
  
    <circle cx="241.48148148148147" cy="316.1425740892751" r="4" fill="#3b82f6" stroke="#0d1117" stroke-width="2" class="data-point"/>
  
    <circle cx="245.18518518518516" cy="315.61015030145205" r="4" fill="#3b82f6" stroke="#0d1117" stroke-width="2" class="data-point"/>
  
    <circle cx="248.88888888888889" cy="315.0018964589997" r="4" fill="#3b82f6" stroke="#0d1117" stroke-width="2" class="data-point"/>
  
    <circle cx="252.59259259259258" cy="314.44527158991195" r="4" fill="#3b82f6" stroke="#0d1117" stroke-width="2" class="data-point"/>
  
    <circle cx="256.2962962962963" cy="313.79506920660083" r="4" fill="#3b82f6" stroke="#0d1117" stroke-width="2" class="data-point"/>
  
    <circle cx="260" cy="312.993206714031" r="4" fill="#3b82f6" stroke="#0d1117" stroke-width="2" class="data-point"/>
  
    <circle cx="263.7037037037037" cy="312.3962467095021" r="4" fill="#3b82f6" stroke="#0d1117" stroke-width="2" class="data-point"/>
  
    <circle cx="267.4074074074074" cy="311.9009312462849" r="4" fill="#3b82f6" stroke="#0d1117" stroke-width="2" class="data-point"/>
  
    <circle cx="271.1111111111111" cy="311.4298168643324" r="4" fill="#3b82f6" stroke="#0d1117" stroke-width="2" class="data-point"/>
  
    <circle cx="274.8148148148148" cy="310.86351156273884" r="4" fill="#3b82f6" stroke="#0d1117" stroke-width="2" class="data-point"/>
  
    <circle cx="278.5185185185185" cy="310.20524215233945" r="4" fill="#3b82f6" stroke="#0d1117" stroke-width="2" class="data-point"/>
  
    <circle cx="282.2222222222222" cy="309.47598290356365" r="4" fill="#3b82f6" stroke="#0d1117" stroke-width="2" class="data-point"/>
  
    <circle cx="285.9259259259259" cy="308.70961533018203" r="4" fill="#3b82f6" stroke="#0d1117" stroke-width="2" class="data-point"/>
  
    <circle cx="289.6296296296296" cy="307.97390245973565" r="4" fill="#3b82f6" stroke="#0d1117" stroke-width="2" class="data-point"/>
  
    <circle cx="293.3333333333333" cy="307.3269268872598" r="4" fill="#3b82f6" stroke="#0d1117" stroke-width="2" class="data-point"/>
  
    <circle cx="297.037037037037" cy="306.6847915310368" r="4" fill="#3b82f6" stroke="#0d1117" stroke-width="2" class="data-point"/>
  
    <circle cx="300.74074074074076" cy="306.11848622944325" r="4" fill="#3b82f6" stroke="#0d1117" stroke-width="2" class="data-point"/>
  
    <circle cx="304.44444444444446" cy="305.5408870899261" r="4" fill="#3b82f6" stroke="#0d1117" stroke-width="2" class="data-point"/>
  
    <circle cx="308.14814814814815" cy="304.8955249228679" r="4" fill="#3b82f6" stroke="#0d1117" stroke-width="2" class="data-point"/>
  
    <circle cx="311.85185185185185" cy="304.0920490248804" r="4" fill="#3b82f6" stroke="#0d1117" stroke-width="2" class="data-point"/>
  
    <circle cx="315.55555555555554" cy="303.4934756149339" r="4" fill="#3b82f6" stroke="#0d1117" stroke-width="2" class="data-point"/>
  
    <circle cx="319.25925925925924" cy="302.9578250162756" r="4" fill="#3b82f6" stroke="#0d1117" stroke-width="2" class="data-point"/>
  
    <circle cx="322.96296296296293" cy="302.36247841716437" r="4" fill="#3b82f6" stroke="#0d1117" stroke-width="2" class="data-point"/>
  
    <circle cx="326.66666666666663" cy="301.8074669534943" r="4" fill="#3b82f6" stroke="#0d1117" stroke-width="2" class="data-point"/>
  
    <circle cx="330.3703703703704" cy="301.19759970562427" r="4" fill="#3b82f6" stroke="#0d1117" stroke-width="2" class="data-point"/>
  
    <circle cx="334.0740740740741" cy="300.5619179710719" r="4" fill="#3b82f6" stroke="#0d1117" stroke-width="2" class="data-point"/>
  
    <circle cx="337.77777777777777" cy="299.89719493900196" r="4" fill="#3b82f6" stroke="#0d1117" stroke-width="2" class="data-point"/>
  
    <circle cx="341.48148148148147" cy="299.3147555832319" r="4" fill="#3b82f6" stroke="#0d1117" stroke-width="2" class="data-point"/>
  
    <circle cx="345.18518518518516" cy="298.81621330917943" r="4" fill="#3b82f6" stroke="#0d1117" stroke-width="2" class="data-point"/>
  
    <circle cx="348.88888888888886" cy="298.2692688725976" r="4" fill="#3b82f6" stroke="#0d1117" stroke-width="2" class="data-point"/>
  
    <circle cx="352.59259259259255" cy="297.6771490843217" r="4" fill="#3b82f6" stroke="#0d1117" stroke-width="2" class="data-point"/>
  
    <circle cx="356.2962962962963" cy="297.12859124232216" r="4" fill="#3b82f6" stroke="#0d1117" stroke-width="2" class="data-point"/>
  
    <circle cx="360" cy="296.4138526423052" r="4" fill="#3b82f6" stroke="#0d1117" stroke-width="2" class="data-point"/>
  
    <circle cx="363.7037037037037" cy="295.79914517818224" r="4" fill="#3b82f6" stroke="#0d1117" stroke-width="2" class="data-point"/>
  
    <circle cx="367.4074074074074" cy="295.20702538990633" r="4" fill="#3b82f6" stroke="#0d1117" stroke-width="2" class="data-point"/>
  
    <circle cx="371.1111111111111" cy="294.7149367375244" r="4" fill="#3b82f6" stroke="#0d1117" stroke-width="2" class="data-point"/>
  
    <circle cx="374.8148148148148" cy="294.23736873390135" r="4" fill="#3b82f6" stroke="#0d1117" stroke-width="2" class="data-point"/>
  
    <circle cx="378.5185185185185" cy="293.7581873248606" r="4" fill="#3b82f6" stroke="#0d1117" stroke-width="2" class="data-point"/>
  
    <circle cx="382.22222222222223" cy="293.1854284015964" r="4" fill="#3b82f6" stroke="#0d1117" stroke-width="2" class="data-point"/>
  
    <circle cx="385.9259259259259" cy="292.5965354241558" r="4" fill="#3b82f6" stroke="#0d1117" stroke-width="2" class="data-point"/>
  
    <circle cx="389.6296296296296" cy="291.8817968241388" r="4" fill="#3b82f6" stroke="#0d1117" stroke-width="2" class="data-point"/>
  
    <circle cx="393.3333333333333" cy="291.30258427920404" r="4" fill="#3b82f6" stroke="#0d1117" stroke-width="2" class="data-point"/>
  
    <circle cx="397.037037037037" cy="290.8298564918339" r="4" fill="#3b82f6" stroke="#0d1117" stroke-width="2" class="data-point"/>
  
    <circle cx="400.7407407407407" cy="290.3442214611226" r="4" fill="#3b82f6" stroke="#0d1117" stroke-width="2" class="data-point"/>
  
    <circle cx="404.4444444444444" cy="289.87956070084067" r="4" fill="#3b82f6" stroke="#0d1117" stroke-width="2" class="data-point"/>
  
    <circle cx="408.14814814814815" cy="289.30518837215885" r="4" fill="#3b82f6" stroke="#0d1117" stroke-width="2" class="data-point"/>
  
    <circle cx="411.85185185185185" cy="288.7162953947182" r="4" fill="#3b82f6" stroke="#0d1117" stroke-width="2" class="data-point"/>
  
    <circle cx="415.55555555555554" cy="287.41427722267827" r="4" fill="#3b82f6" stroke="#0d1117" stroke-width="2" class="data-point"/>
  
    <circle cx="419.2592592592593" cy="284.8231481219395" r="4" fill="#3b82f6" stroke="#0d1117" stroke-width="2" class="data-point"/>
  
    <circle cx="422.96296296296293" cy="281.7367035579835" r="4" fill="#3b82f6" stroke="#0d1117" stroke-width="2" class="data-point"/>
  
    <circle cx="426.6666666666667" cy="278.9245379150273" r="4" fill="#3b82f6" stroke="#0d1117" stroke-width="2" class="data-point"/>
  
    <circle cx="430.3703703703703" cy="277.49828752582863" r="4" fill="#3b82f6" stroke="#0d1117" stroke-width="2" class="data-point"/>
  
    <circle cx="434.0740740740741" cy="275.34923150952477" r="4" fill="#3b82f6" stroke="#0d1117" stroke-width="2" class="data-point"/>
  
    <circle cx="437.77777777777777" cy="273.92136771490846" r="4" fill="#3b82f6" stroke="#0d1117" stroke-width="2" class="data-point"/>
  
    <circle cx="441.4814814814815" cy="272.6693651108155" r="4" fill="#3b82f6" stroke="#0d1117" stroke-width="2" class="data-point"/>
  
    <circle cx="445.18518518518516" cy="271.4447903988225" r="4" fill="#3b82f6" stroke="#0d1117" stroke-width="2" class="data-point"/>
  
    <circle cx="448.8888888888889" cy="270.2912055252059" r="4" fill="#3b82f6" stroke="#0d1117" stroke-width="2" class="data-point"/>
  
    <circle cx="452.59259259259255" cy="268.4970987007841" r="4" fill="#3b82f6" stroke="#0d1117" stroke-width="2" class="data-point"/>
  
    <circle cx="456.2962962962963" cy="267.0708483115854" r="4" fill="#3b82f6" stroke="#0d1117" stroke-width="2" class="data-point"/>
  
    <circle cx="460" cy="265.2477001896459" r="4" fill="#3b82f6" stroke="#0d1117" stroke-width="2" class="data-point"/>
  
    <circle cx="463.7037037037037" cy="264.8750035381698" r="4" fill="#3b82f6" stroke="#0d1117" stroke-width="2" class="data-point"/>
  
    <circle cx="467.4074074074074" cy="264.8266013756404" r="4" fill="#3b82f6" stroke="#0d1117" stroke-width="2" class="data-point"/>
  
    <circle cx="471.11111111111114" cy="264.76367856435223" r="4" fill="#3b82f6" stroke="#0d1117" stroke-width="2" class="data-point"/>
  
    <circle cx="474.8148148148148" cy="264.71043618556996" r="4" fill="#3b82f6" stroke="#0d1117" stroke-width="2" class="data-point"/>
  
    <circle cx="478.51851851851853" cy="264.64105975261117" r="4" fill="#3b82f6" stroke="#0d1117" stroke-width="2" class="data-point"/>
  
    <circle cx="482.2222222222222" cy="264.57975034674064" r="4" fill="#3b82f6" stroke="#0d1117" stroke-width="2" class="data-point"/>
  
    <circle cx="485.9259259259259" cy="264.555549265476" r="4" fill="#3b82f6" stroke="#0d1117" stroke-width="2" class="data-point"/>
  
    <circle cx="489.6296296296296" cy="264.46681196750546" r="4" fill="#3b82f6" stroke="#0d1117" stroke-width="2" class="data-point"/>
  
    <circle cx="493.33333333333337" cy="264.3813014803702" r="4" fill="#3b82f6" stroke="#0d1117" stroke-width="2" class="data-point"/>
  
    <circle cx="497.037037037037" cy="264.3248322907526" r="4" fill="#3b82f6" stroke="#0d1117" stroke-width="2" class="data-point"/>
  
    <circle cx="500.74074074074076" cy="264.3038580203232" r="4" fill="#3b82f6" stroke="#0d1117" stroke-width="2" class="data-point"/>
  
    <circle cx="504.4444444444444" cy="264.20866710068213" r="4" fill="#3b82f6" stroke="#0d1117" stroke-width="2" class="data-point"/>
  
    <circle cx="508.14814814814815" cy="261.8692292450961" r="4" fill="#3b82f6" stroke="#0d1117" stroke-width="2" class="data-point"/>
  
    <circle cx="511.85185185185185" cy="258.205185541623" r="4" fill="#3b82f6" stroke="#0d1117" stroke-width="2" class="data-point"/>
  
    <circle cx="515.5555555555555" cy="255.75119590138414" r="4" fill="#3b82f6" stroke="#0d1117" stroke-width="2" class="data-point"/>
  
    <circle cx="519.2592592592592" cy="252.90192193382205" r="4" fill="#3b82f6" stroke="#0d1117" stroke-width="2" class="data-point"/>
  
    <circle cx="522.962962962963" cy="249.96552407370714" r="4" fill="#3b82f6" stroke="#0d1117" stroke-width="2" class="data-point"/>
  
    <circle cx="526.6666666666666" cy="247.6615811373093" r="4" fill="#3b82f6" stroke="#0d1117" stroke-width="2" class="data-point"/>
  
    <circle cx="530.3703703703704" cy="245.08497268532932" r="4" fill="#3b82f6" stroke="#0d1117" stroke-width="2" class="data-point"/>
  
    <circle cx="534.074074074074" cy="241.15955730419768" r="4" fill="#3b82f6" stroke="#0d1117" stroke-width="2" class="data-point"/>
  
    <circle cx="537.7777777777778" cy="235.86920093973788" r="4" fill="#3b82f6" stroke="#0d1117" stroke-width="2" class="data-point"/>
  
    <circle cx="541.4814814814815" cy="232.4165133459764" r="4" fill="#3b82f6" stroke="#0d1117" stroke-width="2" class="data-point"/>
  
    <circle cx="545.1851851851852" cy="228.30716974723316" r="4" fill="#3b82f6" stroke="#0d1117" stroke-width="2" class="data-point"/>
  
    <circle cx="548.8888888888889" cy="223.72832517195505" r="4" fill="#3b82f6" stroke="#0d1117" stroke-width="2" class="data-point"/>
  
    <circle cx="552.5925925925926" cy="220.05621444139376" r="4" fill="#3b82f6" stroke="#0d1117" stroke-width="2" class="data-point"/>
  
    <circle cx="556.2962962962963" cy="216.07110305980922" r="4" fill="#3b82f6" stroke="#0d1117" stroke-width="2" class="data-point"/>
  
    <circle cx="560" cy="212.5361317897478" r="4" fill="#3b82f6" stroke="#0d1117" stroke-width="2" class="data-point"/>
  
    <circle cx="563.7037037037037" cy="209.0334286280393" r="4" fill="#3b82f6" stroke="#0d1117" stroke-width="2" class="data-point"/>
  
    <circle cx="567.4074074074074" cy="205.54040589883664" r="4" fill="#3b82f6" stroke="#0d1117" stroke-width="2" class="data-point"/>
  
    <circle cx="571.1111111111111" cy="200.78408672761753" r="4" fill="#3b82f6" stroke="#0d1117" stroke-width="2" class="data-point"/>
  
    <circle cx="574.8148148148148" cy="196.0132469076396" r="4" fill="#3b82f6" stroke="#0d1117" stroke-width="2" class="data-point"/>
  
    <circle cx="578.5185185185185" cy="192.0362025531433" r="4" fill="#3b82f6" stroke="#0d1117" stroke-width="2" class="data-point"/>
  
    <circle cx="582.2222222222223" cy="188.70290696028758" r="4" fill="#3b82f6" stroke="#0d1117" stroke-width="2" class="data-point"/>
  
    <circle cx="585.9259259259259" cy="185.46964250332587" r="4" fill="#3b82f6" stroke="#0d1117" stroke-width="2" class="data-point"/>
  
    <circle cx="589.6296296296297" cy="181.1779840923887" r="4" fill="#3b82f6" stroke="#0d1117" stroke-width="2" class="data-point"/>
  
    <circle cx="593.3333333333333" cy="177.84952871578588" r="4" fill="#3b82f6" stroke="#0d1117" stroke-width="2" class="data-point"/>
  
    <circle cx="597.0370370370371" cy="174.5565682583713" r="4" fill="#3b82f6" stroke="#0d1117" stroke-width="2" class="data-point"/>
  
    <circle cx="600.7407407407408" cy="171.47657731608592" r="4" fill="#3b82f6" stroke="#0d1117" stroke-width="2" class="data-point"/>
  
    <circle cx="604.4444444444445" cy="168.57567437515922" r="4" fill="#3b82f6" stroke="#0d1117" stroke-width="2" class="data-point"/>
  
    <circle cx="608.1481481481482" cy="165.60378159585608" r="4" fill="#3b82f6" stroke="#0d1117" stroke-width="2" class="data-point"/>
  
    <circle cx="611.8518518518518" cy="163.06266806306434" r="4" fill="#3b82f6" stroke="#0d1117" stroke-width="2" class="data-point"/>
  
    <circle cx="615.5555555555555" cy="160.43120382688443" r="4" fill="#3b82f6" stroke="#0d1117" stroke-width="2" class="data-point"/>
  
    <circle cx="619.2592592592592" cy="157.7448838065046" r="4" fill="#3b82f6" stroke="#0d1117" stroke-width="2" class="data-point"/>
  
    <circle cx="622.9629629629629" cy="154.90529027144837" r="4" fill="#3b82f6" stroke="#0d1117" stroke-width="2" class="data-point"/>
  
    <circle cx="626.6666666666666" cy="152.2996405219508" r="4" fill="#3b82f6" stroke="#0d1117" stroke-width="2" class="data-point"/>
  
    <circle cx="630.3703703703703" cy="149.91341390925302" r="4" fill="#3b82f6" stroke="#0d1117" stroke-width="2" class="data-point"/>
  
    <circle cx="634.0740740740741" cy="145.58948738996293" r="4" fill="#3b82f6" stroke="#0d1117" stroke-width="2" class="data-point"/>
  
    <circle cx="637.7777777777777" cy="141.9706190381839" r="4" fill="#3b82f6" stroke="#0d1117" stroke-width="2" class="data-point"/>
  
    <circle cx="641.4814814814815" cy="138.4953437685754" r="4" fill="#3b82f6" stroke="#0d1117" stroke-width="2" class="data-point"/>
  
    <circle cx="645.1851851851851" cy="135.15720795946672" r="4" fill="#3b82f6" stroke="#0d1117" stroke-width="2" class="data-point"/>
  
    <circle cx="648.8888888888889" cy="129.8862124600187" r="4" fill="#3b82f6" stroke="#0d1117" stroke-width="2" class="data-point"/>
  
    <circle cx="652.5925925925926" cy="126.5513034617453" r="4" fill="#3b82f6" stroke="#0d1117" stroke-width="2" class="data-point"/>
  
    <circle cx="656.2962962962963" cy="123.66492116957741" r="4" fill="#3b82f6" stroke="#0d1117" stroke-width="2" class="data-point"/>
  
    <circle cx="660" cy="120.25579552209234" r="4" fill="#3b82f6" stroke="#0d1117" stroke-width="2" class="data-point"/>
  
    <circle cx="663.7037037037037" cy="115.23003764612642" r="4" fill="#3b82f6" stroke="#0d1117" stroke-width="2" class="data-point"/>
  
    <circle cx="667.4074074074074" cy="111.61439610518272" r="4" fill="#3b82f6" stroke="#0d1117" stroke-width="2" class="data-point"/>
  
    <circle cx="671.1111111111111" cy="108.56183305499732" r="4" fill="#3b82f6" stroke="#0d1117" stroke-width="2" class="data-point"/>
  
    <circle cx="674.8148148148148" cy="105.97877098134677" r="4" fill="#3b82f6" stroke="#0d1117" stroke-width="2" class="data-point"/>
  
    <circle cx="678.5185185185185" cy="103.52800815194317" r="4" fill="#3b82f6" stroke="#0d1117" stroke-width="2" class="data-point"/>
  
    <circle cx="682.2222222222222" cy="101.5354524611509" r="4" fill="#3b82f6" stroke="#0d1117" stroke-width="2" class="data-point"/>
  
    <circle cx="685.925925925926" cy="99.29120552520592" r="4" fill="#3b82f6" stroke="#0d1117" stroke-width="2" class="data-point"/>
  
    <circle cx="689.6296296296296" cy="97.46160378159587" r="4" fill="#3b82f6" stroke="#0d1117" stroke-width="2" class="data-point"/>
  
    <circle cx="693.3333333333334" cy="95.30286733278612" r="4" fill="#3b82f6" stroke="#0d1117" stroke-width="2" class="data-point"/>
  
    <circle cx="697.037037037037" cy="92.19544849840074" r="4" fill="#3b82f6" stroke="#0d1117" stroke-width="2" class="data-point"/>
  
    <circle cx="700.7407407407408" cy="89.52526253219733" r="4" fill="#3b82f6" stroke="#0d1117" stroke-width="2" class="data-point"/>
  
    <circle cx="704.4444444444445" cy="87.2035721362054" r="4" fill="#3b82f6" stroke="#0d1117" stroke-width="2" class="data-point"/>
  
    <circle cx="708.1481481481482" cy="85.19649579665429" r="4" fill="#3b82f6" stroke="#0d1117" stroke-width="2" class="data-point"/>
  
    <circle cx="711.8518518518518" cy="83.12649664581505" r="4" fill="#3b82f6" stroke="#0d1117" stroke-width="2" class="data-point"/>
  
    <circle cx="715.5555555555555" cy="81.38079198392256" r="4" fill="#3b82f6" stroke="#0d1117" stroke-width="2" class="data-point"/>
  
    <circle cx="719.2592592592592" cy="78.44600752922531" r="4" fill="#3b82f6" stroke="#0d1117" stroke-width="2" class="data-point"/>
  
    <circle cx="722.9629629629629" cy="75.93716210478641" r="4" fill="#3b82f6" stroke="#0d1117" stroke-width="2" class="data-point"/>
  
    <circle cx="726.6666666666666" cy="73.44929095077697" r="4" fill="#3b82f6" stroke="#0d1117" stroke-width="2" class="data-point"/>
  
    <circle cx="730.3703703703703" cy="71.3954258541142" r="4" fill="#3b82f6" stroke="#0d1117" stroke-width="2" class="data-point"/>
  
    <circle cx="734.074074074074" cy="69.51096832630418" r="4" fill="#3b82f6" stroke="#0d1117" stroke-width="2" class="data-point"/>
  
    <circle cx="737.7777777777778" cy="67.83786690820574" r="4" fill="#3b82f6" stroke="#0d1117" stroke-width="2" class="data-point"/>
  
    <circle cx="741.4814814814814" cy="64.96923207563191" r="4" fill="#3b82f6" stroke="#0d1117" stroke-width="2" class="data-point"/>
  
    <circle cx="745.1851851851852" cy="62.63947465255171" r="4" fill="#3b82f6" stroke="#0d1117" stroke-width="2" class="data-point"/>
  
    <circle cx="748.8888888888888" cy="60.516233122930146" r="4" fill="#3b82f6" stroke="#0d1117" stroke-width="2" class="data-point"/>
  
    <circle cx="752.5925925925926" cy="58.48818251294972" r="4" fill="#3b82f6" stroke="#0d1117" stroke-width="2" class="data-point"/>
  
    <circle cx="756.2962962962963" cy="56.71827676979251" r="4" fill="#3b82f6" stroke="#0d1117" stroke-width="2" class="data-point"/>
  
    <circle cx="760" cy="55" r="4" fill="#3b82f6" stroke="#0d1117" stroke-width="2" class="data-point"/>
  

  <!-- Axis lines -->
  <line x1="60" y1="55" x2="60" y2="340"
        stroke="#30363d" stroke-width="2"/>
  <line x1="60" y1="340" x2="760" y2="340"
        stroke="#30363d" stroke-width="2"/>
</svg>