<?xml version="1.0" encoding="UTF-8"?>
<svg width="800" height="400" xmlns="http://www.w3.org/2000/svg">
  <defs>
    <!-- Gradient for area fill -->
    <linearGradient id="areaGradient" x1="0%" y1="0%" x2="0%" y2="100%">
      <stop offset="0%" style="stop-color:#3b82f6;stop-opacity:0.3" />
      <stop offset="100%" style="stop-color:#3b82f6;stop-opacity:0.05" />
    </linearGradient>

    <!-- Glow filter for line -->
    <filter id="glow">
      <feGaussianBlur stdDeviation="2" result="coloredBlur"/>
      <feMerge>
        <feMergeNode in="coloredBlur"/>
        <feMergeNode in="SourceGraphic"/>
      </feMerge>
    </filter>

    <!-- Animation -->
    <style>
      @keyframes draw {
        from { stroke-dashoffset: 2000; }
        to { stroke-dashoffset: 0; }
      }
      @keyframes fadeIn {
        from { opacity: 0; }
        to { opacity: 1; }
      }
      .line-path {
        stroke-dasharray: 2000;
        stroke-dashoffset: 2000;
        animation: draw 1.5s ease-out forwards;
      }
      .area-path {
        opacity: 0;
        animation: fadeIn 1s ease-out 0.5s forwards;
      }
      .data-point {
        opacity: 0;
        animation: fadeIn 0.5s ease-out 1s forwards;
      }
    </style>
  </defs>

  <!-- Background -->
  <rect width="800" height="400" fill="#0d1117" rx="8"/>

  <!-- Title -->
  <text x="400" y="25" text-anchor="middle" fill="#c9d1d9" font-family="system-ui, -apple-system, sans-serif" font-size="16" font-weight="600">
    zxcloli666/SoundCloud-Desktop Downloads
  </text>

  <!-- Stats -->
  <text x="780" y="25" text-anchor="end" fill="#58a6ff" font-family="system-ui, -apple-system, sans-serif" font-size="14" font-weight="600">
    242.8K total
  </text>
  <text x="780" y="42" text-anchor="end" fill="#3fb950" font-family="system-ui, -apple-system, sans-serif" font-size="12">
    +1.1K (+0.4%)
  </text>

  <!-- Grid lines -->
  <g opacity="0.1">
    
      <line x1="60" y1="340" x2="760" y2="340"
            stroke="#c9d1d9" stroke-width="1"/>
    
      <line x1="60" y1="268.75" x2="760" y2="268.75"
            stroke="#c9d1d9" stroke-width="1"/>
    
      <line x1="60" y1="197.5" x2="760" y2="197.5"
            stroke="#c9d1d9" stroke-width="1"/>
    
      <line x1="60" y1="126.25" x2="760" y2="126.25"
            stroke="#c9d1d9" stroke-width="1"/>
    
      <line x1="60" y1="55" x2="760" y2="55"
            stroke="#c9d1d9" stroke-width="1"/>
    
  </g>

  <!-- Y-axis labels -->
  
    <text x="50" y="344" text-anchor="end"
          fill="#8b949e" font-family="system-ui, -apple-system, sans-serif" font-size="11">
      60.2K
    </text>
  
    <text x="50" y="272.75" text-anchor="end"
          fill="#8b949e" font-family="system-ui, -apple-system, sans-serif" font-size="11">
      105.8K
    </text>
  
    <text x="50" y="201.5" text-anchor="end"
          fill="#8b949e" font-family="system-ui, -apple-system, sans-serif" font-size="11">
      151.5K
    </text>
  
    <text x="50" y="130.25" text-anchor="end"
          fill="#8b949e" font-family="system-ui, -apple-system, sans-serif" font-size="11">
      197.2K
    </text>
  
    <text x="50" y="59" text-anchor="end"
          fill="#8b949e" font-family="system-ui, -apple-system, sans-serif" font-size="11">
      242.8K
    </text>
  

  <!-- X-axis labels -->
  
    <text x="60" y="360" text-anchor="middle"
          fill="#8b949e" font-family="system-ui, -apple-system, sans-serif" font-size="11">
      Nov 25
    </text>
  
    <text x="146.15384615384616" y="360" text-anchor="middle"
          fill="#8b949e" font-family="system-ui, -apple-system, sans-serif" font-size="11">
      Dec 19
    </text>
  
    <text x="232.30769230769232" y="360" text-anchor="middle"
          fill="#8b949e" font-family="system-ui, -apple-system, sans-serif" font-size="11">
      Jan 12
    </text>
  
    <text x="318.46153846153845" y="360" text-anchor="middle"
          fill="#8b949e" font-family="system-ui, -apple-system, sans-serif" font-size="11">
      Feb 5
    </text>
  
    <text x="404.61538461538464" y="360" text-anchor="middle"
          fill="#8b949e" font-family="system-ui, -apple-system, sans-serif" font-size="11">
      Mar 1
    </text>
  
    <text x="490.7692307692308" y="360" text-anchor="middle"
          fill="#8b949e" font-family="system-ui, -apple-system, sans-serif" font-size="11">
      Mar 25
    </text>
  
    <text x="576.9230769230769" y="360" text-anchor="middle"
          fill="#8b949e" font-family="system-ui, -apple-system, sans-serif" font-size="11">
      Apr 18
    </text>
  
    <text x="663.0769230769231" y="360" text-anchor="middle"
          fill="#8b949e" font-family="system-ui, -apple-system, sans-serif" font-size="11">
      May 12
    </text>
  
    <text x="749.2307692307693" y="360" text-anchor="middle"
          fill="#8b949e" font-family="system-ui, -apple-system, sans-serif" font-size="11">
      Jun 5
    </text>
  
    <text x="760" y="360" text-anchor="middle"
          fill="#8b949e" font-family="system-ui, -apple-system, sans-serif" font-size="11">
      Jun 8
    </text>
  

  <!-- Area under line -->
  <path d="M 60 340
    L 60.00 340.00 L 63.59 339.77 L 67.18 339.38 L 70.77 339.02 L 74.36 338.30 L 77.95 337.56 L 81.54 336.97 L 85.13 336.43 L 88.72 335.94 L 92.31 335.37 L 95.90 334.74 L 99.49 334.06 L 103.08 333.44 L 106.67 332.78 L 110.26 332.30 L 113.85 331.81 L 117.44 331.13 L 121.03 330.68 L 124.62 330.06 L 128.21 329.34 L 131.79 328.79 L 135.38 328.35 L 138.97 328.06 L 142.56 327.82 L 146.15 327.38 L 149.74 327.06 L 153.33 326.36 L 156.92 326.09 L 160.51 325.74 L 164.10 325.28 L 167.69 324.97 L 171.28 324.65 L 174.87 324.32 L 178.46 324.09 L 182.05 323.89 L 185.64 323.59 L 189.23 323.22 L 192.82 322.88 L 196.41 322.45 L 200.00 321.98 L 203.59 321.55 L 207.18 321.03 L 210.77 320.52 L 214.36 320.01 L 217.95 319.45 L 221.54 318.92 L 225.13 318.31 L 228.72 317.76 L 232.31 317.30 L 235.90 316.93 L 239.49 316.42 L 243.08 315.83 L 246.67 315.29 L 250.26 314.66 L 253.85 313.89 L 257.44 313.31 L 261.03 312.83 L 264.62 312.38 L 268.21 311.83 L 271.79 311.19 L 275.38 310.49 L 278.97 309.75 L 282.56 309.03 L 286.15 308.41 L 289.74 307.79 L 293.33 307.24 L 296.92 306.68 L 300.51 306.06 L 304.10 305.28 L 307.69 304.70 L 311.28 304.18 L 314.87 303.61 L 318.46 303.07 L 322.05 302.48 L 325.64 301.87 L 329.23 301.22 L 332.82 300.66 L 336.41 300.18 L 340.00 299.65 L 343.59 299.08 L 347.18 298.55 L 350.77 297.86 L 354.36 297.26 L 357.95 296.69 L 361.54 296.21 L 365.13 295.75 L 368.72 295.29 L 372.31 294.74 L 375.90 294.17 L 379.49 293.47 L 383.08 292.91 L 386.67 292.46 L 390.26 291.99 L 393.85 291.54 L 397.44 290.98 L 401.03 290.41 L 404.62 289.16 L 408.21 286.65 L 411.79 283.67 L 415.38 280.95 L 418.97 279.57 L 422.56 277.49 L 426.15 276.11 L 429.74 274.90 L 433.33 273.71 L 436.92 272.60 L 440.51 270.86 L 444.10 269.49 L 447.69 267.72 L 451.28 267.36 L 454.87 267.32 L 458.46 267.25 L 462.05 267.20 L 465.64 267.14 L 469.23 267.08 L 472.82 267.05 L 476.41 266.97 L 480.00 266.89 L 483.59 266.83 L 487.18 266.81 L 490.77 266.72 L 494.36 264.46 L 497.95 260.91 L 501.54 258.54 L 505.13 255.79 L 508.72 252.95 L 512.31 250.72 L 515.90 248.23 L 519.49 244.43 L 523.08 239.32 L 526.67 235.98 L 530.26 232.01 L 533.85 227.58 L 537.44 224.03 L 541.03 220.17 L 544.62 216.76 L 548.21 213.37 L 551.79 209.99 L 555.38 205.39 L 558.97 200.78 L 562.56 196.94 L 566.15 193.71 L 569.74 190.59 L 573.33 186.44 L 576.92 183.22 L 580.51 180.03 L 584.10 177.06 L 587.69 174.25 L 591.28 171.38 L 594.87 168.92 L 598.46 166.38 L 602.05 163.78 L 605.64 161.03 L 609.23 158.51 L 612.82 156.21 L 616.41 152.03 L 620.00 148.53 L 623.59 145.17 L 627.18 141.94 L 630.77 136.84 L 634.36 133.62 L 637.95 130.83 L 641.54 127.53 L 645.13 122.67 L 648.72 119.18 L 652.31 116.22 L 655.90 113.73 L 659.49 111.36 L 663.08 109.43 L 666.67 107.26 L 670.26 105.49 L 673.85 103.40 L 677.44 100.40 L 681.03 97.82 L 684.62 95.57 L 688.21 93.63 L 691.79 91.63 L 695.38 89.94 L 698.97 87.11 L 702.56 84.68 L 706.15 82.27 L 709.74 80.29 L 713.33 78.47 L 716.92 76.85 L 720.51 74.08 L 724.10 71.82 L 727.69 69.77 L 731.28 67.81 L 734.87 66.10 L 738.46 64.44 L 742.05 62.91 L 745.64 61.45 L 749.23 60.12 L 752.82 58.44 L 756.41 56.65 L 760.00 55.00
    L 760 340
    Z" fill="url(#areaGradient)" class="area-path"/>

  <!-- Main line with glow -->
  <path d="M 60.00 340.00 L 63.59 339.77 L 67.18 339.38 L 70.77 339.02 L 74.36 338.30 L 77.95 337.56 L 81.54 336.97 L 85.13 336.43 L 88.72 335.94 L 92.31 335.37 L 95.90 334.74 L 99.49 334.06 L 103.08 333.44 L 106.67 332.78 L 110.26 332.30 L 113.85 331.81 L 117.44 331.13 L 121.03 330.68 L 124.62 330.06 L 128.21 329.34 L 131.79 328.79 L 135.38 328.35 L 138.97 328.06 L 142.56 327.82 L 146.15 327.38 L 149.74 327.06 L 153.33 326.36 L 156.92 326.09 L 160.51 325.74 L 164.10 325.28 L 167.69 324.97 L 171.28 324.65 L 174.87 324.32 L 178.46 324.09 L 182.05 323.89 L 185.64 323.59 L 189.23 323.22 L 192.82 322.88 L 196.41 322.45 L 200.00 321.98 L 203.59 321.55 L 207.18 321.03 L 210.77 320.52 L 214.36 320.01 L 217.95 319.45 L 221.54 318.92 L 225.13 318.31 L 228.72 317.76 L 232.31 317.30 L 235.90 316.93 L 239.49 316.42 L 243.08 315.83 L 246.67 315.29 L 250.26 314.66 L 253.85 313.89 L 257.44 313.31 L 261.03 312.83 L 264.62 312.38 L 268.21 311.83 L 271.79 311.19 L 275.38 310.49 L 278.97 309.75 L 282.56 309.03 L 286.15 308.41 L 289.74 307.79 L 293.33 307.24 L 296.92 306.68 L 300.51 306.06 L 304.10 305.28 L 307.69 304.70 L 311.28 304.18 L 314.87 303.61 L 318.46 303.07 L 322.05 302.48 L 325.64 301.87 L 329.23 301.22 L 332.82 300.66 L 336.41 300.18 L 340.00 299.65 L 343.59 299.08 L 347.18 298.55 L 350.77 297.86 L 354.36 297.26 L 357.95 296.69 L 361.54 296.21 L 365.13 295.75 L 368.72 295.29 L 372.31 294.74 L 375.90 294.17 L 379.49 293.47 L 383.08 292.91 L 386.67 292.46 L 390.26 291.99 L 393.85 291.54 L 397.44 290.98 L 401.03 290.41 L 404.62 289.16 L 408.21 286.65 L 411.79 283.67 L 415.38 280.95 L 418.97 279.57 L 422.56 277.49 L 426.15 276.11 L 429.74 274.90 L 433.33 273.71 L 436.92 272.60 L 440.51 270.86 L 444.10 269.49 L 447.69 267.72 L 451.28 267.36 L 454.87 267.32 L 458.46 267.25 L 462.05 267.20 L 465.64 267.14 L 469.23 267.08 L 472.82 267.05 L 476.41 266.97 L 480.00 266.89 L 483.59 266.83 L 487.18 266.81 L 490.77 266.72 L 494.36 264.46 L 497.95 260.91 L 501.54 258.54 L 505.13 255.79 L 508.72 252.95 L 512.31 250.72 L 515.90 248.23 L 519.49 244.43 L 523.08 239.32 L 526.67 235.98 L 530.26 232.01 L 533.85 227.58 L 537.44 224.03 L 541.03 220.17 L 544.62 216.76 L 548.21 213.37 L 551.79 209.99 L 555.38 205.39 L 558.97 200.78 L 562.56 196.94 L 566.15 193.71 L 569.74 190.59 L 573.33 186.44 L 576.92 183.22 L 580.51 180.03 L 584.10 177.06 L 587.69 174.25 L 591.28 171.38 L 594.87 168.92 L 598.46 166.38 L 602.05 163.78 L 605.64 161.03 L 609.23 158.51 L 612.82 156.21 L 616.41 152.03 L 620.00 148.53 L 623.59 145.17 L 627.18 141.94 L 630.77 136.84 L 634.36 133.62 L 637.95 130.83 L 641.54 127.53 L 645.13 122.67 L 648.72 119.18 L 652.31 116.22 L 655.90 113.73 L 659.49 111.36 L 663.08 109.43 L 666.67 107.26 L 670.26 105.49 L 673.85 103.40 L 677.44 100.40 L 681.03 97.82 L 684.62 95.57 L 688.21 93.63 L 691.79 91.63 L 695.38 89.94 L 698.97 87.11 L 702.56 84.68 L 706.15 82.27 L 709.74 80.29 L 713.33 78.47 L 716.92 76.85 L 720.51 74.08 L 724.10 71.82 L 727.69 69.77 L 731.28 67.81 L 734.87 66.10 L 738.46 64.44 L 742.05 62.91 L 745.64 61.45 L 749.23 60.12 L 752.82 58.44 L 756.41 56.65 L 760.00 55.00" fill="none" stroke="#3b82f6" stroke-width="3"
        stroke-linecap="round" stroke-linejoin="round" filter="url(#glow)" class="line-path"/>

  <!-- Data points -->
  
    <circle cx="60" cy="340" r="4" fill="#3b82f6" stroke="#0d1117" stroke-width="2" class="data-point"/>
  
    <circle cx="63.58974358974359" cy="339.77068212420767" r="4" fill="#3b82f6" stroke="#0d1117" stroke-width="2" class="data-point"/>
  
    <circle cx="67.17948717948718" cy="339.3806857368058" r="4" fill="#3b82f6" stroke="#0d1117" stroke-width="2" class="data-point"/>
  
    <circle cx="70.76923076923077" cy="339.0187690892969" r="4" fill="#3b82f6" stroke="#0d1117" stroke-width="2" class="data-point"/>
  
    <circle cx="74.35897435897436" cy="338.2996157509278" r="4" fill="#3b82f6" stroke="#0d1117" stroke-width="2" class="data-point"/>
  
    <circle cx="77.94871794871796" cy="337.5570626293146" r="4" fill="#3b82f6" stroke="#0d1117" stroke-width="2" class="data-point"/>
  
    <circle cx="81.53846153846155" cy="336.9720680482118" r="4" fill="#3b82f6" stroke="#0d1117" stroke-width="2" class="data-point"/>
  
    <circle cx="85.12820512820512" cy="336.4260731058491" r="4" fill="#3b82f6" stroke="#0d1117" stroke-width="2" class="data-point"/>
  
    <circle cx="88.71794871794872" cy="335.9409175999212" r="4" fill="#3b82f6" stroke="#0d1117" stroke-width="2" class="data-point"/>
  
    <circle cx="92.3076923076923" cy="335.37152287431445" r="4" fill="#3b82f6" stroke="#0d1117" stroke-width="2" class="data-point"/>
  
    <circle cx="95.8974358974359" cy="334.73660875562416" r="4" fill="#3b82f6" stroke="#0d1117" stroke-width="2" class="data-point"/>
  
    <circle cx="99.48717948717949" cy="334.0564550559953" r="4" fill="#3b82f6" stroke="#0d1117" stroke-width="2" class="data-point"/>
  
    <circle cx="103.07692307692308" cy="333.43870077835066" r="4" fill="#3b82f6" stroke="#0d1117" stroke-width="2" class="data-point"/>
  
    <circle cx="106.66666666666666" cy="332.78194686196593" r="4" fill="#3b82f6" stroke="#0d1117" stroke-width="2" class="data-point"/>
  
    <circle cx="110.25641025641025" cy="332.3030312982364" r="4" fill="#3b82f6" stroke="#0d1117" stroke-width="2" class="data-point"/>
  
    <circle cx="113.84615384615384" cy="331.8069558934612" r="4" fill="#3b82f6" stroke="#0d1117" stroke-width="2" class="data-point"/>
  
    <circle cx="117.43589743589743" cy="331.1330421360307" r="4" fill="#3b82f6" stroke="#0d1117" stroke-width="2" class="data-point"/>
  
    <circle cx="121.02564102564102" cy="330.6822063121942" r="4" fill="#3b82f6" stroke="#0d1117" stroke-width="2" class="data-point"/>
  
    <circle cx="124.61538461538461" cy="330.05821209235114" r="4" fill="#3b82f6" stroke="#0d1117" stroke-width="2" class="data-point"/>
  
    <circle cx="128.2051282051282" cy="329.33749876843245" r="4" fill="#3b82f6" stroke="#0d1117" stroke-width="2" class="data-point"/>
  
    <circle cx="131.7948717948718" cy="328.79462379716904" r="4" fill="#3b82f6" stroke="#0d1117" stroke-width="2" class="data-point"/>
  
    <circle cx="135.3846153846154" cy="328.34846792998127" r="4" fill="#3b82f6" stroke="#0d1117" stroke-width="2" class="data-point"/>
  
    <circle cx="138.97435897435898" cy="328.05987060330386" r="4" fill="#3b82f6" stroke="#0d1117" stroke-width="2" class="data-point"/>
  
    <circle cx="142.56410256410257" cy="327.81963282866434" r="4" fill="#3b82f6" stroke="#0d1117" stroke-width="2" class="data-point"/>
  
    <circle cx="146.15384615384616" cy="327.37503694702616" r="4" fill="#3b82f6" stroke="#0d1117" stroke-width="2" class="data-point"/>
  
    <circle cx="149.74358974358972" cy="327.05835988045584" r="4" fill="#3b82f6" stroke="#0d1117" stroke-width="2" class="data-point"/>
  
    <circle cx="153.33333333333331" cy="326.3641663108805" r="4" fill="#3b82f6" stroke="#0d1117" stroke-width="2" class="data-point"/>
  
    <circle cx="156.92307692307693" cy="326.09116883969915" r="4" fill="#3b82f6" stroke="#0d1117" stroke-width="2" class="data-point"/>
  
    <circle cx="160.5128205128205" cy="325.73861210548785" r="4" fill="#3b82f6" stroke="#0d1117" stroke-width="2" class="data-point"/>
  
    <circle cx="164.1025641025641" cy="325.2830963250025" r="4" fill="#3b82f6" stroke="#0d1117" stroke-width="2" class="data-point"/>
  
    <circle cx="167.69230769230768" cy="324.9710992150809" r="4" fill="#3b82f6" stroke="#0d1117" stroke-width="2" class="data-point"/>
  
    <circle cx="171.28205128205127" cy="324.6544221485106" r="4" fill="#3b82f6" stroke="#0d1117" stroke-width="2" class="data-point"/>
  
    <circle cx="174.87179487179486" cy="324.3221452264442" r="4" fill="#3b82f6" stroke="#0d1117" stroke-width="2" class="data-point"/>
  
    <circle cx="178.46153846153845" cy="324.0912673651023" r="4" fill="#3b82f6" stroke="#0d1117" stroke-width="2" class="data-point"/>
  
    <circle cx="182.05128205128204" cy="323.8915892147525" r="4" fill="#3b82f6" stroke="#0d1117" stroke-width="2" class="data-point"/>
  
    <circle cx="185.64102564102564" cy="323.5873920325791" r="4" fill="#3b82f6" stroke="#0d1117" stroke-width="2" class="data-point"/>
  
    <circle cx="189.23076923076923" cy="323.21767545732206" r="4" fill="#3b82f6" stroke="#0d1117" stroke-width="2" class="data-point"/>
  
    <circle cx="192.82051282051282" cy="322.87759860750765" r="4" fill="#3b82f6" stroke="#0d1117" stroke-width="2" class="data-point"/>
  
    <circle cx="196.4102564102564" cy="322.44704259581596" r="4" fill="#3b82f6" stroke="#0d1117" stroke-width="2" class="data-point"/>
  
    <circle cx="200" cy="321.9774869453841" r="4" fill="#3b82f6" stroke="#0d1117" stroke-width="2" class="data-point"/>
  
    <circle cx="203.5897435897436" cy="321.5469309336924" r="4" fill="#3b82f6" stroke="#0d1117" stroke-width="2" class="data-point"/>
  
    <circle cx="207.17948717948718" cy="321.0274557456731" r="4" fill="#3b82f6" stroke="#0d1117" stroke-width="2" class="data-point"/>
  
    <circle cx="210.76923076923077" cy="320.5173404709514" r="4" fill="#3b82f6" stroke="#0d1117" stroke-width="2" class="data-point"/>
  
    <circle cx="214.35897435897436" cy="320.00722519622974" r="4" fill="#3b82f6" stroke="#0d1117" stroke-width="2" class="data-point"/>
  
    <circle cx="217.94871794871796" cy="319.44875036947025" r="4" fill="#3b82f6" stroke="#0d1117" stroke-width="2" class="data-point"/>
  
    <circle cx="221.53846153846155" cy="318.9152353115045" r="4" fill="#3b82f6" stroke="#0d1117" stroke-width="2" class="data-point"/>
  
    <circle cx="225.12820512820514" cy="318.30528096160793" r="4" fill="#3b82f6" stroke="#0d1117" stroke-width="2" class="data-point"/>
  
    <circle cx="228.71794871794873" cy="317.7608460047949" r="4" fill="#3b82f6" stroke="#0d1117" stroke-width="2" class="data-point"/>
  
    <circle cx="232.30769230769232" cy="317.30065026766067" r="4" fill="#3b82f6" stroke="#0d1117" stroke-width="2" class="data-point"/>
  
    <circle cx="235.89743589743588" cy="316.9324936779533" r="4" fill="#3b82f6" stroke="#0d1117" stroke-width="2" class="data-point"/>
  
    <circle cx="239.48717948717947" cy="316.4176984465828" r="4" fill="#3b82f6" stroke="#0d1117" stroke-width="2" class="data-point"/>
  
    <circle cx="243.0769230769231" cy="315.8295838943808" r="4" fill="#3b82f6" stroke="#0d1117" stroke-width="2" class="data-point"/>
  
    <circle cx="246.66666666666666" cy="315.29138887976615" r="4" fill="#3b82f6" stroke="#0d1117" stroke-width="2" class="data-point"/>
  
    <circle cx="250.25641025641025" cy="314.66271470327433" r="4" fill="#3b82f6" stroke="#0d1117" stroke-width="2" class="data-point"/>
  
    <circle cx="253.84615384615387" cy="313.8874018851194" r="4" fill="#3b82f6" stroke="#0d1117" stroke-width="2" class="data-point"/>
  
    <circle cx="257.43589743589746" cy="313.3102072317646" r="4" fill="#3b82f6" stroke="#0d1117" stroke-width="2" class="data-point"/>
  
    <circle cx="261.025641025641" cy="312.8312916680351" r="4" fill="#3b82f6" stroke="#0d1117" stroke-width="2" class="data-point"/>
  
    <circle cx="264.61538461538464" cy="312.37577588754965" r="4" fill="#3b82f6" stroke="#0d1117" stroke-width="2" class="data-point"/>
  
    <circle cx="268.2051282051282" cy="311.8282209596374" r="4" fill="#3b82f6" stroke="#0d1117" stroke-width="2" class="data-point"/>
  
    <circle cx="271.79487179487177" cy="311.1917468553975" r="4" fill="#3b82f6" stroke="#0d1117" stroke-width="2" class="data-point"/>
  
    <circle cx="275.38461538461536" cy="310.486633386975" r="4" fill="#3b82f6" stroke="#0d1117" stroke-width="2" class="data-point"/>
  
    <circle cx="278.974358974359" cy="309.7456402509114" r="4" fill="#3b82f6" stroke="#0d1117" stroke-width="2" class="data-point"/>
  
    <circle cx="282.56410256410254" cy="309.0342868402903" r="4" fill="#3b82f6" stroke="#0d1117" stroke-width="2" class="data-point"/>
  
    <circle cx="286.1538461538462" cy="308.4087326348977" r="4" fill="#3b82f6" stroke="#0d1117" stroke-width="2" class="data-point"/>
  
    <circle cx="289.7435897435897" cy="307.7878583861539" r="4" fill="#3b82f6" stroke="#0d1117" stroke-width="2" class="data-point"/>
  
    <circle cx="293.3333333333333" cy="307.24030345824167" r="4" fill="#3b82f6" stroke="#0d1117" stroke-width="2" class="data-point"/>
  
    <circle cx="296.9230769230769" cy="306.6818286314822" r="4" fill="#3b82f6" stroke="#0d1117" stroke-width="2" class="data-point"/>
  
    <circle cx="300.51282051282055" cy="306.05783441163913" r="4" fill="#3b82f6" stroke="#0d1117" stroke-width="2" class="data-point"/>
  
    <circle cx="304.1025641025641" cy="305.28096160793456" r="4" fill="#3b82f6" stroke="#0d1117" stroke-width="2" class="data-point"/>
  
    <circle cx="307.69230769230774" cy="304.70220696903016" r="4" fill="#3b82f6" stroke="#0d1117" stroke-width="2" class="data-point"/>
  
    <circle cx="311.28205128205127" cy="304.1842917665605" r="4" fill="#3b82f6" stroke="#0d1117" stroke-width="2" class="data-point"/>
  
    <circle cx="314.87179487179486" cy="303.6086570987553" r="4" fill="#3b82f6" stroke="#0d1117" stroke-width="2" class="data-point"/>
  
    <circle cx="318.46153846153845" cy="303.0720220696903" r="4" fill="#3b82f6" stroke="#0d1117" stroke-width="2" class="data-point"/>
  
    <circle cx="322.05128205128204" cy="302.4823475319387" r="4" fill="#3b82f6" stroke="#0d1117" stroke-width="2" class="data-point"/>
  
    <circle cx="325.64102564102564" cy="301.8677132253933" r="4" fill="#3b82f6" stroke="#0d1117" stroke-width="2" class="data-point"/>
  
    <circle cx="329.2307692307692" cy="301.224999178955" r="4" fill="#3b82f6" stroke="#0d1117" stroke-width="2" class="data-point"/>
  
    <circle cx="332.8205128205128" cy="300.66184439554667" r="4" fill="#3b82f6" stroke="#0d1117" stroke-width="2" class="data-point"/>
  
    <circle cx="336.4102564102564" cy="300.1798088607179" r="4" fill="#3b82f6" stroke="#0d1117" stroke-width="2" class="data-point"/>
  
    <circle cx="340" cy="299.650973759401" r="4" fill="#3b82f6" stroke="#0d1117" stroke-width="2" class="data-point"/>
  
    <circle cx="343.5897435897436" cy="299.078459062695" r="4" fill="#3b82f6" stroke="#0d1117" stroke-width="2" class="data-point"/>
  
    <circle cx="347.1794871794872" cy="298.5480639758284" r="4" fill="#3b82f6" stroke="#0d1117" stroke-width="2" class="data-point"/>
  
    <circle cx="350.7692307692308" cy="297.8569903773523" r="4" fill="#3b82f6" stroke="#0d1117" stroke-width="2" class="data-point"/>
  
    <circle cx="354.35897435897436" cy="297.2626358829518" r="4" fill="#3b82f6" stroke="#0d1117" stroke-width="2" class="data-point"/>
  
    <circle cx="357.94871794871796" cy="296.69012118624585" r="4" fill="#3b82f6" stroke="#0d1117" stroke-width="2" class="data-point"/>
  
    <circle cx="361.53846153846155" cy="296.21432559361557" r="4" fill="#3b82f6" stroke="#0d1117" stroke-width="2" class="data-point"/>
  
    <circle cx="365.12820512820514" cy="295.7525698709317" r="4" fill="#3b82f6" stroke="#0d1117" stroke-width="2" class="data-point"/>
  
    <circle cx="368.71794871794873" cy="295.2892541626983" r="4" fill="#3b82f6" stroke="#0d1117" stroke-width="2" class="data-point"/>
  
    <circle cx="372.3076923076923" cy="294.7354592925876" r="4" fill="#3b82f6" stroke="#0d1117" stroke-width="2" class="data-point"/>
  
    <circle cx="375.8974358974359" cy="294.1660645669808" r="4" fill="#3b82f6" stroke="#0d1117" stroke-width="2" class="data-point"/>
  
    <circle cx="379.4871794871795" cy="293.4749909685047" r="4" fill="#3b82f6" stroke="#0d1117" stroke-width="2" class="data-point"/>
  
    <circle cx="383.0769230769231" cy="292.9149561561956" r="4" fill="#3b82f6" stroke="#0d1117" stroke-width="2" class="data-point"/>
  
    <circle cx="386.6666666666667" cy="292.4578803901606" r="4" fill="#3b82f6" stroke="#0d1117" stroke-width="2" class="data-point"/>
  
    <circle cx="390.2564102564103" cy="291.98832473972874" r="4" fill="#3b82f6" stroke="#0d1117" stroke-width="2" class="data-point"/>
  
    <circle cx="393.84615384615387" cy="291.5390489014418" r="4" fill="#3b82f6" stroke="#0d1117" stroke-width="2" class="data-point"/>
  
    <circle cx="397.43589743589746" cy="290.9836940457815" r="4" fill="#3b82f6" stroke="#0d1117" stroke-width="2" class="data-point"/>
  
    <circle cx="401.025641025641" cy="290.41429932017473" r="4" fill="#3b82f6" stroke="#0d1117" stroke-width="2" class="data-point"/>
  
    <circle cx="404.61538461538464" cy="289.1553909816414" r="4" fill="#3b82f6" stroke="#0d1117" stroke-width="2" class="data-point"/>
  
    <circle cx="408.20512820512823" cy="286.65005418897175" r="4" fill="#3b82f6" stroke="#0d1117" stroke-width="2" class="data-point"/>
  
    <circle cx="411.79487179487177" cy="283.66580183257247" r="4" fill="#3b82f6" stroke="#0d1117" stroke-width="2" class="data-point"/>
  
    <circle cx="415.38461538461536" cy="280.94674701960656" r="4" fill="#3b82f6" stroke="#0d1117" stroke-width="2" class="data-point"/>
  
    <circle cx="418.97435897435895" cy="279.5677197937535" r="4" fill="#3b82f6" stroke="#0d1117" stroke-width="2" class="data-point"/>
  
    <circle cx="422.5641025641026" cy="277.48981904167624" r="4" fill="#3b82f6" stroke="#0d1117" stroke-width="2" class="data-point"/>
  
    <circle cx="426.1538461538462" cy="276.1092318302736" r="4" fill="#3b82f6" stroke="#0d1117" stroke-width="2" class="data-point"/>
  
    <circle cx="429.7435897435897" cy="274.89868304377814" r="4" fill="#3b82f6" stroke="#0d1117" stroke-width="2" class="data-point"/>
  
    <circle cx="433.3333333333333" cy="273.714654011626" r="4" fill="#3b82f6" stroke="#0d1117" stroke-width="2" class="data-point"/>
  
    <circle cx="436.9230769230769" cy="272.5992643436566" r="4" fill="#3b82f6" stroke="#0d1117" stroke-width="2" class="data-point"/>
  
    <circle cx="440.5128205128205" cy="270.864560412493" r="4" fill="#3b82f6" stroke="#0d1117" stroke-width="2" class="data-point"/>
  
    <circle cx="444.10256410256414" cy="269.48553318663994" r="4" fill="#3b82f6" stroke="#0d1117" stroke-width="2" class="data-point"/>
  
    <circle cx="447.69230769230774" cy="267.7227495155835" r="4" fill="#3b82f6" stroke="#0d1117" stroke-width="2" class="data-point"/>
  
    <circle cx="451.28205128205127" cy="267.3623928536241" r="4" fill="#3b82f6" stroke="#0d1117" stroke-width="2" class="data-point"/>
  
    <circle cx="454.87179487179486" cy="267.31559328713587" r="4" fill="#3b82f6" stroke="#0d1117" stroke-width="2" class="data-point"/>
  
    <circle cx="458.46153846153845" cy="267.25475385070115" r="4" fill="#3b82f6" stroke="#0d1117" stroke-width="2" class="data-point"/>
  
    <circle cx="462.05128205128204" cy="267.20327432756415" r="4" fill="#3b82f6" stroke="#0d1117" stroke-width="2" class="data-point"/>
  
    <circle cx="465.6410256410257" cy="267.136194948931" r="4" fill="#3b82f6" stroke="#0d1117" stroke-width="2" class="data-point"/>
  
    <circle cx="469.2307692307692" cy="267.07691549804593" r="4" fill="#3b82f6" stroke="#0d1117" stroke-width="2" class="data-point"/>
  
    <circle cx="472.8205128205128" cy="267.0535157148018" r="4" fill="#3b82f6" stroke="#0d1117" stroke-width="2" class="data-point"/>
  
    <circle cx="476.4102564102564" cy="266.9677165095734" r="4" fill="#3b82f6" stroke="#0d1117" stroke-width="2" class="data-point"/>
  
    <circle cx="480" cy="266.8850372754442" r="4" fill="#3b82f6" stroke="#0d1117" stroke-width="2" class="data-point"/>
  
    <circle cx="483.58974358974353" cy="266.83043778120793" r="4" fill="#3b82f6" stroke="#0d1117" stroke-width="2" class="data-point"/>
  
    <circle cx="487.17948717948724" cy="266.810157969063" r="4" fill="#3b82f6" stroke="#0d1117" stroke-width="2" class="data-point"/>
  
    <circle cx="490.7692307692308" cy="266.71811882163615" r="4" fill="#3b82f6" stroke="#0d1117" stroke-width="2" class="data-point"/>
  
    <circle cx="494.35897435897436" cy="264.45613977470526" r="4" fill="#3b82f6" stroke="#0d1117" stroke-width="2" class="data-point"/>
  
    <circle cx="497.94871794871796" cy="260.9134125915465" r="4" fill="#3b82f6" stroke="#0d1117" stroke-width="2" class="data-point"/>
  
    <circle cx="501.53846153846155" cy="258.5406745705934" r="4" fill="#3b82f6" stroke="#0d1117" stroke-width="2" class="data-point"/>
  
    <circle cx="505.1282051282051" cy="255.78574008998652" r="4" fill="#3b82f6" stroke="#0d1117" stroke-width="2" class="data-point"/>
  
    <circle cx="508.71794871794873" cy="252.94656638970082" r="4" fill="#3b82f6" stroke="#0d1117" stroke-width="2" class="data-point"/>
  
    <circle cx="512.3076923076924" cy="250.71890702486127" r="4" fill="#3b82f6" stroke="#0d1117" stroke-width="2" class="data-point"/>
  
    <circle cx="515.8974358974359" cy="248.227610102138" r="4" fill="#3b82f6" stroke="#0d1117" stroke-width="2" class="data-point"/>
  
    <circle cx="519.4871794871794" cy="244.43216525994285" r="4" fill="#3b82f6" stroke="#0d1117" stroke-width="2" class="data-point"/>
  
    <circle cx="523.0769230769231" cy="239.31697264277972" r="4" fill="#3b82f6" stroke="#0d1117" stroke-width="2" class="data-point"/>
  
    <circle cx="526.6666666666666" cy="235.9786035666196" r="4" fill="#3b82f6" stroke="#0d1117" stroke-width="2" class="data-point"/>
  
    <circle cx="530.2564102564102" cy="232.0053203717692" r="4" fill="#3b82f6" stroke="#0d1117" stroke-width="2" class="data-point"/>
  
    <circle cx="533.8461538461538" cy="227.578081381983" r="4" fill="#3b82f6" stroke="#0d1117" stroke-width="2" class="data-point"/>
  
    <circle cx="537.4358974358975" cy="224.0275542710762" r="4" fill="#3b82f6" stroke="#0d1117" stroke-width="2" class="data-point"/>
  
    <circle cx="541.0256410256411" cy="220.1743899635456" r="4" fill="#3b82f6" stroke="#0d1117" stroke-width="2" class="data-point"/>
  
    <circle cx="544.6153846153845" cy="216.7564616243555" r="4" fill="#3b82f6" stroke="#0d1117" stroke-width="2" class="data-point"/>
  
    <circle cx="548.2051282051282" cy="213.3697329961575" r="4" fill="#3b82f6" stroke="#0d1117" stroke-width="2" class="data-point"/>
  
    <circle cx="551.7948717948718" cy="209.99236428125718" r="4" fill="#3b82f6" stroke="#0d1117" stroke-width="2" class="data-point"/>
  
    <circle cx="555.3846153846155" cy="205.39352688101417" r="4" fill="#3b82f6" stroke="#0d1117" stroke-width="2" class="data-point"/>
  
    <circle cx="558.974358974359" cy="200.78064961082467" r="4" fill="#3b82f6" stroke="#0d1117" stroke-width="2" class="data-point"/>
  
    <circle cx="562.5641025641025" cy="196.93528523104206" r="4" fill="#3b82f6" stroke="#0d1117" stroke-width="2" class="data-point"/>
  
    <circle cx="566.1538461538462" cy="193.7123550855529" r="4" fill="#3b82f6" stroke="#0d1117" stroke-width="2" class="data-point"/>
  
    <circle cx="569.7435897435897" cy="190.5861440441394" r="4" fill="#3b82f6" stroke="#0d1117" stroke-width="2" class="data-point"/>
  
    <circle cx="573.3333333333333" cy="186.43658248218333" r="4" fill="#3b82f6" stroke="#0d1117" stroke-width="2" class="data-point"/>
  
    <circle cx="576.9230769230769" cy="183.21833229334297" r="4" fill="#3b82f6" stroke="#0d1117" stroke-width="2" class="data-point"/>
  
    <circle cx="580.5128205128206" cy="180.03440178659397" r="4" fill="#3b82f6" stroke="#0d1117" stroke-width="2" class="data-point"/>
  
    <circle cx="584.1025641025641" cy="177.0563893723932" r="4" fill="#3b82f6" stroke="#0d1117" stroke-width="2" class="data-point"/>
  
    <circle cx="587.6923076923077" cy="174.25153535419884" r="4" fill="#3b82f6" stroke="#0d1117" stroke-width="2" class="data-point"/>
  
    <circle cx="591.2820512820513" cy="171.37804197182174" r="4" fill="#3b82f6" stroke="#0d1117" stroke-width="2" class="data-point"/>
  
    <circle cx="594.8717948717948" cy="168.92106473118986" r="4" fill="#3b82f6" stroke="#0d1117" stroke-width="2" class="data-point"/>
  
    <circle cx="598.4615384615385" cy="166.37672829977998" r="4" fill="#3b82f6" stroke="#0d1117" stroke-width="2" class="data-point"/>
  
    <circle cx="602.0512820512821" cy="163.7793523596834" r="4" fill="#3b82f6" stroke="#0d1117" stroke-width="2" class="data-point"/>
  
    <circle cx="605.6410256410256" cy="161.03377779237414" r="4" fill="#3b82f6" stroke="#0d1117" stroke-width="2" class="data-point"/>
  
    <circle cx="609.2307692307692" cy="158.51440112975797" r="4" fill="#3b82f6" stroke="#0d1117" stroke-width="2" class="data-point"/>
  
    <circle cx="612.8205128205128" cy="156.20718250188838" r="4" fill="#3b82f6" stroke="#0d1117" stroke-width="2" class="data-point"/>
  
    <circle cx="616.4102564102564" cy="152.0264212289402" r="4" fill="#3b82f6" stroke="#0d1117" stroke-width="2" class="data-point"/>
  
    <circle cx="620" cy="148.52737364117047" r="4" fill="#3b82f6" stroke="#0d1117" stroke-width="2" class="data-point"/>
  
    <circle cx="623.5897435897436" cy="145.16716476731582" r="4" fill="#3b82f6" stroke="#0d1117" stroke-width="2" class="data-point"/>
  
    <circle cx="627.1794871794872" cy="141.93955466517784" r="4" fill="#3b82f6" stroke="#0d1117" stroke-width="2" class="data-point"/>
  
    <circle cx="630.7692307692307" cy="136.84308187461002" r="4" fill="#3b82f6" stroke="#0d1117" stroke-width="2" class="data-point"/>
  
    <circle cx="634.3589743589744" cy="133.61859174357122" r="4" fill="#3b82f6" stroke="#0d1117" stroke-width="2" class="data-point"/>
  
    <circle cx="637.9487179487179" cy="130.82777759532334" r="4" fill="#3b82f6" stroke="#0d1117" stroke-width="2" class="data-point"/>
  
    <circle cx="641.5384615384615" cy="127.5315281290026" r="4" fill="#3b82f6" stroke="#0d1117" stroke-width="2" class="data-point"/>
  
    <circle cx="645.1282051282052" cy="122.67217314197512" r="4" fill="#3b82f6" stroke="#0d1117" stroke-width="2" class="data-point"/>
  
    <circle cx="648.7179487179487" cy="119.17624552530458" r="4" fill="#3b82f6" stroke="#0d1117" stroke-width="2" class="data-point"/>
  
    <circle cx="652.3076923076923" cy="116.22475286544713" r="4" fill="#3b82f6" stroke="#0d1117" stroke-width="2" class="data-point"/>
  
    <circle cx="655.8974358974359" cy="113.72721600052549" r="4" fill="#3b82f6" stroke="#0d1117" stroke-width="2" class="data-point"/>
  
    <circle cx="659.4871794871794" cy="111.35759795067162" r="4" fill="#3b82f6" stroke="#0d1117" stroke-width="2" class="data-point"/>
  
    <circle cx="663.0769230769231" cy="109.43101579690631" r="4" fill="#3b82f6" stroke="#0d1117" stroke-width="2" class="data-point"/>
  
    <circle cx="666.6666666666667" cy="107.26107589740221" r="4" fill="#3b82f6" stroke="#0d1117" stroke-width="2" class="data-point"/>
  
    <circle cx="670.2564102564103" cy="105.49205228414726" r="4" fill="#3b82f6" stroke="#0d1117" stroke-width="2" class="data-point"/>
  
    <circle cx="673.8461538461538" cy="103.40479161877238" r="4" fill="#3b82f6" stroke="#0d1117" stroke-width="2" class="data-point"/>
  
    <circle cx="677.4358974358975" cy="100.40025945022828" r="4" fill="#3b82f6" stroke="#0d1117" stroke-width="2" class="data-point"/>
  
    <circle cx="681.025641025641" cy="97.81848336562777" r="4" fill="#3b82f6" stroke="#0d1117" stroke-width="2" class="data-point"/>
  
    <circle cx="684.6153846153846" cy="95.57366415974252" r="4" fill="#3b82f6" stroke="#0d1117" stroke-width="2" class="data-point"/>
  
    <circle cx="688.2051282051282" cy="93.63304213603075" r="4" fill="#3b82f6" stroke="#0d1117" stroke-width="2" class="data-point"/>
  
    <circle cx="691.7948717948718" cy="91.63158067588427" r="4" fill="#3b82f6" stroke="#0d1117" stroke-width="2" class="data-point"/>
  
    <circle cx="695.3846153846154" cy="89.94367631120889" r="4" fill="#3b82f6" stroke="#0d1117" stroke-width="2" class="data-point"/>
  
    <circle cx="698.974358974359" cy="87.10606259647278" r="4" fill="#3b82f6" stroke="#0d1117" stroke-width="2" class="data-point"/>
  
    <circle cx="702.5641025641025" cy="84.68028506683308" r="4" fill="#3b82f6" stroke="#0d1117" stroke-width="2" class="data-point"/>
  
    <circle cx="706.1538461538462" cy="82.27478734933823" r="4" fill="#3b82f6" stroke="#0d1117" stroke-width="2" class="data-point"/>
  
    <circle cx="709.7435897435897" cy="80.28892574468784" r="4" fill="#3b82f6" stroke="#0d1117" stroke-width="2" class="data-point"/>
  
    <circle cx="713.3333333333334" cy="78.46686262274625" r="4" fill="#3b82f6" stroke="#0d1117" stroke-width="2" class="data-point"/>
  
    <circle cx="716.9230769230769" cy="76.84915760780319" r="4" fill="#3b82f6" stroke="#0d1117" stroke-width="2" class="data-point"/>
  
    <circle cx="720.5128205128206" cy="74.07550330060099" r="4" fill="#3b82f6" stroke="#0d1117" stroke-width="2" class="data-point"/>
  
    <circle cx="724.1025641025641" cy="71.8228841669677" r="4" fill="#3b82f6" stroke="#0d1117" stroke-width="2" class="data-point"/>
  
    <circle cx="727.6923076923077" cy="69.76994318368418" r="4" fill="#3b82f6" stroke="#0d1117" stroke-width="2" class="data-point"/>
  
    <circle cx="731.2820512820513" cy="67.80904134782753" r="4" fill="#3b82f6" stroke="#0d1117" stroke-width="2" class="data-point"/>
  
    <circle cx="734.8717948717949" cy="66.09773719990807" r="4" fill="#3b82f6" stroke="#0d1117" stroke-width="2" class="data-point"/>
  
    <circle cx="738.4615384615385" cy="64.43635258957602" r="4" fill="#3b82f6" stroke="#0d1117" stroke-width="2" class="data-point"/>
  
    <circle cx="742.051282051282" cy="62.91380669315902" r="4" fill="#3b82f6" stroke="#0d1117" stroke-width="2" class="data-point"/>
  
    <circle cx="745.6410256410256" cy="61.453660218726384" r="4" fill="#3b82f6" stroke="#0d1117" stroke-width="2" class="data-point"/>
  
    <circle cx="749.2307692307693" cy="60.11519261716313" r="4" fill="#3b82f6" stroke="#0d1117" stroke-width="2" class="data-point"/>
  
    <circle cx="752.8205128205128" cy="58.44444809353348" r="4" fill="#3b82f6" stroke="#0d1117" stroke-width="2" class="data-point"/>
  
    <circle cx="756.4102564102565" cy="56.650464711484744" r="4" fill="#3b82f6" stroke="#0d1117" stroke-width="2" class="data-point"/>
  
    <circle cx="760" cy="55" r="4" fill="#3b82f6" stroke="#0d1117" stroke-width="2" class="data-point"/>
  

  <!-- Axis lines -->
  <line x1="60" y1="55" x2="60" y2="340"
        stroke="#30363d" stroke-width="2"/>
  <line x1="60" y1="340" x2="760" y2="340"
        stroke="#30363d" stroke-width="2"/>
</svg>