<?xml version="1.0" encoding="UTF-8"?>
<svg width="800" height="400" xmlns="http://www.w3.org/2000/svg">
  <defs>
    <!-- Gradient for area fill -->
    <linearGradient id="areaGradient" x1="0%" y1="0%" x2="0%" y2="100%">
      <stop offset="0%" style="stop-color:#3b82f6;stop-opacity:0.3" />
      <stop offset="100%" style="stop-color:#3b82f6;stop-opacity:0.05" />
    </linearGradient>

    <!-- Glow filter for line -->
    <filter id="glow">
      <feGaussianBlur stdDeviation="2" result="coloredBlur"/>
      <feMerge>
        <feMergeNode in="coloredBlur"/>
        <feMergeNode in="SourceGraphic"/>
      </feMerge>
    </filter>

    <!-- Animation -->
    <style>
      @keyframes draw {
        from { stroke-dashoffset: 2000; }
        to { stroke-dashoffset: 0; }
      }
      @keyframes fadeIn {
        from { opacity: 0; }
        to { opacity: 1; }
      }
      .line-path {
        stroke-dasharray: 2000;
        stroke-dashoffset: 2000;
        animation: draw 1.5s ease-out forwards;
      }
      .area-path {
        opacity: 0;
        animation: fadeIn 1s ease-out 0.5s forwards;
      }
      .data-point {
        opacity: 0;
        animation: fadeIn 0.5s ease-out 1s forwards;
      }
    </style>
  </defs>

  <!-- Background -->
  <rect width="800" height="400" fill="#0d1117" rx="8"/>

  <!-- Title -->
  <text x="400" y="25" text-anchor="middle" fill="#c9d1d9" font-family="system-ui, -apple-system, sans-serif" font-size="16" font-weight="600">
    zxcloli666/SoundCloud-Desktop Downloads
  </text>

  <!-- Stats -->
  <text x="780" y="25" text-anchor="end" fill="#58a6ff" font-family="system-ui, -apple-system, sans-serif" font-size="14" font-weight="600">
    215.4K total
  </text>
  <text x="780" y="42" text-anchor="end" fill="#3fb950" font-family="system-ui, -apple-system, sans-serif" font-size="12">
    +1.7K (+0.8%)
  </text>

  <!-- Grid lines -->
  <g opacity="0.1">
    
      <line x1="60" y1="340" x2="760" y2="340"
            stroke="#c9d1d9" stroke-width="1"/>
    
      <line x1="60" y1="268.75" x2="760" y2="268.75"
            stroke="#c9d1d9" stroke-width="1"/>
    
      <line x1="60" y1="197.5" x2="760" y2="197.5"
            stroke="#c9d1d9" stroke-width="1"/>
    
      <line x1="60" y1="126.25" x2="760" y2="126.25"
            stroke="#c9d1d9" stroke-width="1"/>
    
      <line x1="60" y1="55" x2="760" y2="55"
            stroke="#c9d1d9" stroke-width="1"/>
    
  </g>

  <!-- Y-axis labels -->
  
    <text x="50" y="344" text-anchor="end"
          fill="#8b949e" font-family="system-ui, -apple-system, sans-serif" font-size="11">
      60.2K
    </text>
  
    <text x="50" y="272.75" text-anchor="end"
          fill="#8b949e" font-family="system-ui, -apple-system, sans-serif" font-size="11">
      99.0K
    </text>
  
    <text x="50" y="201.5" text-anchor="end"
          fill="#8b949e" font-family="system-ui, -apple-system, sans-serif" font-size="11">
      137.8K
    </text>
  
    <text x="50" y="130.25" text-anchor="end"
          fill="#8b949e" font-family="system-ui, -apple-system, sans-serif" font-size="11">
      176.6K
    </text>
  
    <text x="50" y="59" text-anchor="end"
          fill="#8b949e" font-family="system-ui, -apple-system, sans-serif" font-size="11">
      215.4K
    </text>
  

  <!-- X-axis labels -->
  
    <text x="60" y="360" text-anchor="middle"
          fill="#8b949e" font-family="system-ui, -apple-system, sans-serif" font-size="11">
      Nov 25
    </text>
  
    <text x="144.97109826589593" y="360" text-anchor="middle"
          fill="#8b949e" font-family="system-ui, -apple-system, sans-serif" font-size="11">
      Dec 16
    </text>
  
    <text x="229.9421965317919" y="360" text-anchor="middle"
          fill="#8b949e" font-family="system-ui, -apple-system, sans-serif" font-size="11">
      Jan 6
    </text>
  
    <text x="314.91329479768785" y="360" text-anchor="middle"
          fill="#8b949e" font-family="system-ui, -apple-system, sans-serif" font-size="11">
      Jan 27
    </text>
  
    <text x="399.8843930635838" y="360" text-anchor="middle"
          fill="#8b949e" font-family="system-ui, -apple-system, sans-serif" font-size="11">
      Feb 17
    </text>
  
    <text x="484.8554913294798" y="360" text-anchor="middle"
          fill="#8b949e" font-family="system-ui, -apple-system, sans-serif" font-size="11">
      Mar 10
    </text>
  
    <text x="569.8265895953757" y="360" text-anchor="middle"
          fill="#8b949e" font-family="system-ui, -apple-system, sans-serif" font-size="11">
      Mar 31
    </text>
  
    <text x="654.7976878612717" y="360" text-anchor="middle"
          fill="#8b949e" font-family="system-ui, -apple-system, sans-serif" font-size="11">
      Apr 21
    </text>
  
    <text x="739.7687861271676" y="360" text-anchor="middle"
          fill="#8b949e" font-family="system-ui, -apple-system, sans-serif" font-size="11">
      May 12
    </text>
  
    <text x="760" y="360" text-anchor="middle"
          fill="#8b949e" font-family="system-ui, -apple-system, sans-serif" font-size="11">
      May 17
    </text>
  

  <!-- Area under line -->
  <path d="M 60 340
    L 60.00 340.00 L 64.05 339.73 L 68.09 339.27 L 72.14 338.85 L 76.18 338.00 L 80.23 337.13 L 84.28 336.44 L 88.32 335.79 L 92.37 335.22 L 96.42 334.55 L 100.46 333.81 L 104.51 333.01 L 108.55 332.28 L 112.60 331.51 L 116.65 330.94 L 120.69 330.36 L 124.74 329.57 L 128.79 329.03 L 132.83 328.30 L 136.88 327.45 L 140.92 326.81 L 144.97 326.29 L 149.02 325.95 L 153.06 325.67 L 157.11 325.14 L 161.16 324.77 L 165.20 323.95 L 169.25 323.63 L 173.29 323.22 L 177.34 322.68 L 181.39 322.31 L 185.43 321.94 L 189.48 321.55 L 193.53 321.28 L 197.57 321.04 L 201.62 320.69 L 205.66 320.25 L 209.71 319.85 L 213.76 319.34 L 217.80 318.79 L 221.85 318.28 L 225.90 317.67 L 229.94 317.07 L 233.99 316.47 L 238.03 315.82 L 242.08 315.19 L 246.13 314.47 L 250.17 313.83 L 254.22 313.29 L 258.27 312.85 L 262.31 312.25 L 266.36 311.56 L 270.40 310.92 L 274.45 310.18 L 278.50 309.27 L 282.54 308.59 L 286.59 308.03 L 290.64 307.49 L 294.68 306.85 L 298.73 306.10 L 302.77 305.27 L 306.82 304.40 L 310.87 303.56 L 314.91 302.82 L 318.96 302.09 L 323.01 301.45 L 327.05 300.79 L 331.10 300.06 L 335.14 299.14 L 339.19 298.46 L 343.24 297.85 L 347.28 297.17 L 351.33 296.54 L 355.38 295.85 L 359.42 295.13 L 363.47 294.37 L 367.51 293.71 L 371.56 293.14 L 375.61 292.52 L 379.65 291.84 L 383.70 291.22 L 387.75 290.41 L 391.79 289.71 L 395.84 289.03 L 399.88 288.47 L 403.93 287.93 L 407.98 287.38 L 412.02 286.73 L 416.07 286.06 L 420.12 285.25 L 424.16 284.59 L 428.21 284.05 L 432.25 283.50 L 436.30 282.97 L 440.35 282.32 L 444.39 281.65 L 448.44 280.17 L 452.49 277.22 L 456.53 273.71 L 460.58 270.51 L 464.62 268.88 L 468.67 266.44 L 472.72 264.81 L 476.76 263.39 L 480.81 262.00 L 484.86 260.68 L 488.90 258.64 L 492.95 257.02 L 496.99 254.94 L 501.04 254.52 L 505.09 254.46 L 509.13 254.39 L 513.18 254.33 L 517.23 254.25 L 521.27 254.18 L 525.32 254.16 L 529.36 254.06 L 533.41 253.96 L 537.46 253.89 L 541.50 253.87 L 545.55 253.76 L 549.60 251.10 L 553.64 246.93 L 557.69 244.14 L 561.73 240.90 L 565.78 237.56 L 569.83 234.93 L 573.87 232.00 L 577.92 227.54 L 581.97 221.52 L 586.01 217.59 L 590.06 212.91 L 594.10 207.70 L 598.15 203.52 L 602.20 198.99 L 606.24 194.97 L 610.29 190.98 L 614.34 187.01 L 618.38 181.59 L 622.43 176.17 L 626.47 171.64 L 630.52 167.85 L 634.57 164.17 L 638.61 159.29 L 642.66 155.50 L 646.71 151.75 L 650.75 148.25 L 654.80 144.95 L 658.84 141.57 L 662.89 138.67 L 666.94 135.68 L 670.98 132.62 L 675.03 129.39 L 679.08 126.43 L 683.12 123.71 L 687.17 118.79 L 691.21 114.67 L 695.26 110.72 L 699.31 106.92 L 703.35 100.92 L 707.40 97.13 L 711.45 93.85 L 715.49 89.97 L 719.54 84.25 L 723.58 80.13 L 727.63 76.66 L 731.68 73.72 L 735.72 70.93 L 739.77 68.67 L 743.82 66.11 L 747.86 64.03 L 751.91 61.57 L 755.95 58.04 L 760.00 55.00
    L 760 340
    Z" fill="url(#areaGradient)" class="area-path"/>

  <!-- Main line with glow -->
  <path d="M 60.00 340.00 L 64.05 339.73 L 68.09 339.27 L 72.14 338.85 L 76.18 338.00 L 80.23 337.13 L 84.28 336.44 L 88.32 335.79 L 92.37 335.22 L 96.42 334.55 L 100.46 333.81 L 104.51 333.01 L 108.55 332.28 L 112.60 331.51 L 116.65 330.94 L 120.69 330.36 L 124.74 329.57 L 128.79 329.03 L 132.83 328.30 L 136.88 327.45 L 140.92 326.81 L 144.97 326.29 L 149.02 325.95 L 153.06 325.67 L 157.11 325.14 L 161.16 324.77 L 165.20 323.95 L 169.25 323.63 L 173.29 323.22 L 177.34 322.68 L 181.39 322.31 L 185.43 321.94 L 189.48 321.55 L 193.53 321.28 L 197.57 321.04 L 201.62 320.69 L 205.66 320.25 L 209.71 319.85 L 213.76 319.34 L 217.80 318.79 L 221.85 318.28 L 225.90 317.67 L 229.94 317.07 L 233.99 316.47 L 238.03 315.82 L 242.08 315.19 L 246.13 314.47 L 250.17 313.83 L 254.22 313.29 L 258.27 312.85 L 262.31 312.25 L 266.36 311.56 L 270.40 310.92 L 274.45 310.18 L 278.50 309.27 L 282.54 308.59 L 286.59 308.03 L 290.64 307.49 L 294.68 306.85 L 298.73 306.10 L 302.77 305.27 L 306.82 304.40 L 310.87 303.56 L 314.91 302.82 L 318.96 302.09 L 323.01 301.45 L 327.05 300.79 L 331.10 300.06 L 335.14 299.14 L 339.19 298.46 L 343.24 297.85 L 347.28 297.17 L 351.33 296.54 L 355.38 295.85 L 359.42 295.13 L 363.47 294.37 L 367.51 293.71 L 371.56 293.14 L 375.61 292.52 L 379.65 291.84 L 383.70 291.22 L 387.75 290.41 L 391.79 289.71 L 395.84 289.03 L 399.88 288.47 L 403.93 287.93 L 407.98 287.38 L 412.02 286.73 L 416.07 286.06 L 420.12 285.25 L 424.16 284.59 L 428.21 284.05 L 432.25 283.50 L 436.30 282.97 L 440.35 282.32 L 444.39 281.65 L 448.44 280.17 L 452.49 277.22 L 456.53 273.71 L 460.58 270.51 L 464.62 268.88 L 468.67 266.44 L 472.72 264.81 L 476.76 263.39 L 480.81 262.00 L 484.86 260.68 L 488.90 258.64 L 492.95 257.02 L 496.99 254.94 L 501.04 254.52 L 505.09 254.46 L 509.13 254.39 L 513.18 254.33 L 517.23 254.25 L 521.27 254.18 L 525.32 254.16 L 529.36 254.06 L 533.41 253.96 L 537.46 253.89 L 541.50 253.87 L 545.55 253.76 L 549.60 251.10 L 553.64 246.93 L 557.69 244.14 L 561.73 240.90 L 565.78 237.56 L 569.83 234.93 L 573.87 232.00 L 577.92 227.54 L 581.97 221.52 L 586.01 217.59 L 590.06 212.91 L 594.10 207.70 L 598.15 203.52 L 602.20 198.99 L 606.24 194.97 L 610.29 190.98 L 614.34 187.01 L 618.38 181.59 L 622.43 176.17 L 626.47 171.64 L 630.52 167.85 L 634.57 164.17 L 638.61 159.29 L 642.66 155.50 L 646.71 151.75 L 650.75 148.25 L 654.80 144.95 L 658.84 141.57 L 662.89 138.67 L 666.94 135.68 L 670.98 132.62 L 675.03 129.39 L 679.08 126.43 L 683.12 123.71 L 687.17 118.79 L 691.21 114.67 L 695.26 110.72 L 699.31 106.92 L 703.35 100.92 L 707.40 97.13 L 711.45 93.85 L 715.49 89.97 L 719.54 84.25 L 723.58 80.13 L 727.63 76.66 L 731.68 73.72 L 735.72 70.93 L 739.77 68.67 L 743.82 66.11 L 747.86 64.03 L 751.91 61.57 L 755.95 58.04 L 760.00 55.00" fill="none" stroke="#3b82f6" stroke-width="3"
        stroke-linecap="round" stroke-linejoin="round" filter="url(#glow)" class="line-path"/>

  <!-- Data points -->
  
    <circle cx="60" cy="340" r="4" fill="#3b82f6" stroke="#0d1117" stroke-width="2" class="data-point"/>
  
    <circle cx="64.04624277456648" cy="339.7301379745694" r="4" fill="#3b82f6" stroke="#0d1117" stroke-width="2" class="data-point"/>
  
    <circle cx="68.09248554913295" cy="339.2711889517282" r="4" fill="#3b82f6" stroke="#0d1117" stroke-width="2" class="data-point"/>
  
    <circle cx="72.13872832369943" cy="338.84528425853165" r="4" fill="#3b82f6" stroke="#0d1117" stroke-width="2" class="data-point"/>
  
    <circle cx="76.18497109826589" cy="337.9989822604125" r="4" fill="#3b82f6" stroke="#0d1117" stroke-width="2" class="data-point"/>
  
    <circle cx="80.23121387283237" cy="337.1251433209229" r="4" fill="#3b82f6" stroke="#0d1117" stroke-width="2" class="data-point"/>
  
    <circle cx="84.27745664739885" cy="336.4367197866612" r="4" fill="#3b82f6" stroke="#0d1117" stroke-width="2" class="data-point"/>
  
    <circle cx="88.32369942196532" cy="335.7941911546835" r="4" fill="#3b82f6" stroke="#0d1117" stroke-width="2" class="data-point"/>
  
    <circle cx="92.36994219653178" cy="335.22325857026914" r="4" fill="#3b82f6" stroke="#0d1117" stroke-width="2" class="data-point"/>
  
    <circle cx="96.41618497109826" cy="334.55319299692104" r="4" fill="#3b82f6" stroke="#0d1117" stroke-width="2" class="data-point"/>
  
    <circle cx="100.46242774566474" cy="333.8060239877356" r="4" fill="#3b82f6" stroke="#0d1117" stroke-width="2" class="data-point"/>
  
    <circle cx="104.50867052023122" cy="333.0056168919006" r="4" fill="#3b82f6" stroke="#0d1117" stroke-width="2" class="data-point"/>
  
    <circle cx="108.55491329479769" cy="332.2786416397202" r="4" fill="#3b82f6" stroke="#0d1117" stroke-width="2" class="data-point"/>
  
    <circle cx="112.60115606936417" cy="331.50577148525565" r="4" fill="#3b82f6" stroke="#0d1117" stroke-width="2" class="data-point"/>
  
    <circle cx="116.64739884393063" cy="330.9421820852067" r="4" fill="#3b82f6" stroke="#0d1117" stroke-width="2" class="data-point"/>
  
    <circle cx="120.69364161849711" cy="330.3583989281527" r="4" fill="#3b82f6" stroke="#0d1117" stroke-width="2" class="data-point"/>
  
    <circle cx="124.73988439306358" cy="329.5653350166832" r="4" fill="#3b82f6" stroke="#0d1117" stroke-width="2" class="data-point"/>
  
    <circle cx="128.78612716763007" cy="329.0347899462788" r="4" fill="#3b82f6" stroke="#0d1117" stroke-width="2" class="data-point"/>
  
    <circle cx="132.83236994219652" cy="328.3004715097329" r="4" fill="#3b82f6" stroke="#0d1117" stroke-width="2" class="data-point"/>
  
    <circle cx="136.878612716763" cy="327.45233371552246" r="4" fill="#3b82f6" stroke="#0d1117" stroke-width="2" class="data-point"/>
  
    <circle cx="140.92485549132948" cy="326.81347667572754" r="4" fill="#3b82f6" stroke="#0d1117" stroke-width="2" class="data-point"/>
  
    <circle cx="144.97109826589593" cy="326.28843899359725" r="4" fill="#3b82f6" stroke="#0d1117" stroke-width="2" class="data-point"/>
  
    <circle cx="149.01734104046244" cy="325.9488167166948" r="4" fill="#3b82f6" stroke="#0d1117" stroke-width="2" class="data-point"/>
  
    <circle cx="153.0635838150289" cy="325.6661041186246" r="4" fill="#3b82f6" stroke="#0d1117" stroke-width="2" class="data-point"/>
  
    <circle cx="157.10982658959537" cy="325.1429022325857" r="4" fill="#3b82f6" stroke="#0d1117" stroke-width="2" class="data-point"/>
  
    <circle cx="161.15606936416185" cy="324.7702356260387" r="4" fill="#3b82f6" stroke="#0d1117" stroke-width="2" class="data-point"/>
  
    <circle cx="165.20231213872833" cy="323.9533063653814" r="4" fill="#3b82f6" stroke="#0d1117" stroke-width="2" class="data-point"/>
  
    <circle cx="169.2485549132948" cy="323.63204204939257" r="4" fill="#3b82f6" stroke="#0d1117" stroke-width="2" class="data-point"/>
  
    <circle cx="173.29479768786126" cy="323.21715213274416" r="4" fill="#3b82f6" stroke="#0d1117" stroke-width="2" class="data-point"/>
  
    <circle cx="177.34104046242774" cy="322.68109967406565" r="4" fill="#3b82f6" stroke="#0d1117" stroke-width="2" class="data-point"/>
  
    <circle cx="181.38728323699422" cy="322.31394045579276" r="4" fill="#3b82f6" stroke="#0d1117" stroke-width="2" class="data-point"/>
  
    <circle cx="185.43352601156067" cy="321.9412738492457" r="4" fill="#3b82f6" stroke="#0d1117" stroke-width="2" class="data-point"/>
  
    <circle cx="189.47976878612715" cy="321.55024928178506" r="4" fill="#3b82f6" stroke="#0d1117" stroke-width="2" class="data-point"/>
  
    <circle cx="193.52601156069363" cy="321.2785514602631" r="4" fill="#3b82f6" stroke="#0d1117" stroke-width="2" class="data-point"/>
  
    <circle cx="197.5722543352601" cy="321.0435695605684" r="4" fill="#3b82f6" stroke="#0d1117" stroke-width="2" class="data-point"/>
  
    <circle cx="201.6184971098266" cy="320.68558932275226" r="4" fill="#3b82f6" stroke="#0d1117" stroke-width="2" class="data-point"/>
  
    <circle cx="205.66473988439307" cy="320.25050564909884" r="4" fill="#3b82f6" stroke="#0d1117" stroke-width="2" class="data-point"/>
  
    <circle cx="209.71098265895955" cy="319.85030210118134" r="4" fill="#3b82f6" stroke="#0d1117" stroke-width="2" class="data-point"/>
  
    <circle cx="213.757225433526" cy="319.3436223799647" r="4" fill="#3b82f6" stroke="#0d1117" stroke-width="2" class="data-point"/>
  
    <circle cx="217.80346820809248" cy="318.7910477564639" r="4" fill="#3b82f6" stroke="#0d1117" stroke-width="2" class="data-point"/>
  
    <circle cx="221.84971098265896" cy="318.28436803524727" r="4" fill="#3b82f6" stroke="#0d1117" stroke-width="2" class="data-point"/>
  
    <circle cx="225.89595375722544" cy="317.67304793682285" r="4" fill="#3b82f6" stroke="#0d1117" stroke-width="2" class="data-point"/>
  
    <circle cx="229.9421965317919" cy="317.0727426149466" r="4" fill="#3b82f6" stroke="#0d1117" stroke-width="2" class="data-point"/>
  
    <circle cx="233.98843930635837" cy="316.47243729307036" r="4" fill="#3b82f6" stroke="#0d1117" stroke-width="2" class="data-point"/>
  
    <circle cx="238.03468208092485" cy="315.8152222923618" r="4" fill="#3b82f6" stroke="#0d1117" stroke-width="2" class="data-point"/>
  
    <circle cx="242.0809248554913" cy="315.1873800291151" r="4" fill="#3b82f6" stroke="#0d1117" stroke-width="2" class="data-point"/>
  
    <circle cx="246.12716763005778" cy="314.4695837573915" r="4" fill="#3b82f6" stroke="#0d1117" stroke-width="2" class="data-point"/>
  
    <circle cx="250.17341040462426" cy="313.8288909215052" r="4" fill="#3b82f6" stroke="#0d1117" stroke-width="2" class="data-point"/>
  
    <circle cx="254.21965317919074" cy="313.28733107455264" r="4" fill="#3b82f6" stroke="#0d1117" stroke-width="2" class="data-point"/>
  
    <circle cx="258.26589595375725" cy="312.8540831969906" r="4" fill="#3b82f6" stroke="#0d1117" stroke-width="2" class="data-point"/>
  
    <circle cx="262.3121387283237" cy="312.2482704868402" r="4" fill="#3b82f6" stroke="#0d1117" stroke-width="2" class="data-point"/>
  
    <circle cx="266.3583815028902" cy="311.55617536039574" r="4" fill="#3b82f6" stroke="#0d1117" stroke-width="2" class="data-point"/>
  
    <circle cx="270.40462427745666" cy="310.92282570887494" r="4" fill="#3b82f6" stroke="#0d1117" stroke-width="2" class="data-point"/>
  
    <circle cx="274.4508670520231" cy="310.182999884055" r="4" fill="#3b82f6" stroke="#0d1117" stroke-width="2" class="data-point"/>
  
    <circle cx="278.4971098265896" cy="309.27060922664674" r="4" fill="#3b82f6" stroke="#0d1117" stroke-width="2" class="data-point"/>
  
    <circle cx="282.5433526011561" cy="308.5913646728418" r="4" fill="#3b82f6" stroke="#0d1117" stroke-width="2" class="data-point"/>
  
    <circle cx="286.5895953757225" cy="308.02777527279284" r="4" fill="#3b82f6" stroke="#0d1117" stroke-width="2" class="data-point"/>
  
    <circle cx="290.63583815028903" cy="307.4917228141144" r="4" fill="#3b82f6" stroke="#0d1117" stroke-width="2" class="data-point"/>
  
    <circle cx="294.6820809248555" cy="306.84735838604536" r="4" fill="#3b82f6" stroke="#0d1117" stroke-width="2" class="data-point"/>
  
    <circle cx="298.72832369942194" cy="306.0983535807686" r="4" fill="#3b82f6" stroke="#0d1117" stroke-width="2" class="data-point"/>
  
    <circle cx="302.77456647398844" cy="305.26857374747175" r="4" fill="#3b82f6" stroke="#0d1117" stroke-width="2" class="data-point"/>
  
    <circle cx="306.8208092485549" cy="304.39657060407353" r="4" fill="#3b82f6" stroke="#0d1117" stroke-width="2" class="data-point"/>
  
    <circle cx="310.86705202312135" cy="303.55944758641124" r="4" fill="#3b82f6" stroke="#0d1117" stroke-width="2" class="data-point"/>
  
    <circle cx="314.91329479768785" cy="302.82329335377403" r="4" fill="#3b82f6" stroke="#0d1117" stroke-width="2" class="data-point"/>
  
    <circle cx="318.9595375722543" cy="302.0926465094109" r="4" fill="#3b82f6" stroke="#0d1117" stroke-width="2" class="data-point"/>
  
    <circle cx="323.0057803468208" cy="301.44828208134186" r="4" fill="#3b82f6" stroke="#0d1117" stroke-width="2" class="data-point"/>
  
    <circle cx="327.05202312138726" cy="300.7910670806333" r="4" fill="#3b82f6" stroke="#0d1117" stroke-width="2" class="data-point"/>
  
    <circle cx="331.0982658959537" cy="300.05674864408746" r="4" fill="#3b82f6" stroke="#0d1117" stroke-width="2" class="data-point"/>
  
    <circle cx="335.1445086705202" cy="299.14252219058784" r="4" fill="#3b82f6" stroke="#0d1117" stroke-width="2" class="data-point"/>
  
    <circle cx="339.19075144508673" cy="298.4614418406916" r="4" fill="#3b82f6" stroke="#0d1117" stroke-width="2" class="data-point"/>
  
    <circle cx="343.2369942196532" cy="297.8519575383585" r="4" fill="#3b82f6" stroke="#0d1117" stroke-width="2" class="data-point"/>
  
    <circle cx="347.2832369942197" cy="297.1745487806449" r="4" fill="#3b82f6" stroke="#0d1117" stroke-width="2" class="data-point"/>
  
    <circle cx="351.32947976878614" cy="296.54303492521547" r="4" fill="#3b82f6" stroke="#0d1117" stroke-width="2" class="data-point"/>
  
    <circle cx="355.3757225433526" cy="295.8491040026796" r="4" fill="#3b82f6" stroke="#0d1117" stroke-width="2" class="data-point"/>
  
    <circle cx="359.4219653179191" cy="295.12580034268194" r="4" fill="#3b82f6" stroke="#0d1117" stroke-width="2" class="data-point"/>
  
    <circle cx="363.46820809248555" cy="294.3694523530397" r="4" fill="#3b82f6" stroke="#0d1117" stroke-width="2" class="data-point"/>
  
    <circle cx="367.514450867052" cy="293.70672996405705" r="4" fill="#3b82f6" stroke="#0d1117" stroke-width="2" class="data-point"/>
  
    <circle cx="371.5606936416185" cy="293.13946897182535" r="4" fill="#3b82f6" stroke="#0d1117" stroke-width="2" class="data-point"/>
  
    <circle cx="375.60693641618496" cy="292.5171340968527" r="4" fill="#3b82f6" stroke="#0d1117" stroke-width="2" class="data-point"/>
  
    <circle cx="379.6531791907514" cy="291.8433969313219" r="4" fill="#3b82f6" stroke="#0d1117" stroke-width="2" class="data-point"/>
  
    <circle cx="383.6994219653179" cy="291.2192262602579" r="4" fill="#3b82f6" stroke="#0d1117" stroke-width="2" class="data-point"/>
  
    <circle cx="387.7456647398844" cy="290.40596859178333" r="4" fill="#3b82f6" stroke="#0d1117" stroke-width="2" class="data-point"/>
  
    <circle cx="391.7919075144509" cy="289.7065302809734" r="4" fill="#3b82f6" stroke="#0d1117" stroke-width="2" class="data-point"/>
  
    <circle cx="395.83815028901734" cy="289.0327931154426" r="4" fill="#3b82f6" stroke="#0d1117" stroke-width="2" class="data-point"/>
  
    <circle cx="399.8843930635838" cy="288.4728753075764" r="4" fill="#3b82f6" stroke="#0d1117" stroke-width="2" class="data-point"/>
  
    <circle cx="403.9306358381503" cy="287.92947966453244" r="4" fill="#3b82f6" stroke="#0d1117" stroke-width="2" class="data-point"/>
  
    <circle cx="407.97687861271675" cy="287.38424822539713" r="4" fill="#3b82f6" stroke="#0d1117" stroke-width="2" class="data-point"/>
  
    <circle cx="412.02312138728325" cy="286.7325406129627" r="4" fill="#3b82f6" stroke="#0d1117" stroke-width="2" class="data-point"/>
  
    <circle cx="416.0693641618497" cy="286.0624750396145" r="4" fill="#3b82f6" stroke="#0d1117" stroke-width="2" class="data-point"/>
  
    <circle cx="420.1156069364162" cy="285.24921737114" r="4" fill="#3b82f6" stroke="#0d1117" stroke-width="2" class="data-point"/>
  
    <circle cx="424.1618497109826" cy="284.59016657434006" r="4" fill="#3b82f6" stroke="#0d1117" stroke-width="2" class="data-point"/>
  
    <circle cx="428.2080924855491" cy="284.05227831957023" r="4" fill="#3b82f6" stroke="#0d1117" stroke-width="2" class="data-point"/>
  
    <circle cx="432.25433526011557" cy="283.49970369606945" r="4" fill="#3b82f6" stroke="#0d1117" stroke-width="2" class="data-point"/>
  
    <circle cx="436.3005780346821" cy="282.9709944217564" r="4" fill="#3b82f6" stroke="#0d1117" stroke-width="2" class="data-point"/>
  
    <circle cx="440.3468208092485" cy="282.3174510132306" r="4" fill="#3b82f6" stroke="#0d1117" stroke-width="2" class="data-point"/>
  
    <circle cx="444.39306358381504" cy="281.6473854398825" r="4" fill="#3b82f6" stroke="#0d1117" stroke-width="2" class="data-point"/>
  
    <circle cx="448.4393063583815" cy="280.16589799415124" r="4" fill="#3b82f6" stroke="#0d1117" stroke-width="2" class="data-point"/>
  
    <circle cx="452.485549132948" cy="277.21760947141956" r="4" fill="#3b82f6" stroke="#0d1117" stroke-width="2" class="data-point"/>
  
    <circle cx="456.5317919075145" cy="273.70573154863894" r="4" fill="#3b82f6" stroke="#0d1117" stroke-width="2" class="data-point"/>
  
    <circle cx="460.5780346820809" cy="270.5059389613903" r="4" fill="#3b82f6" stroke="#0d1117" stroke-width="2" class="data-point"/>
  
    <circle cx="464.6242774566474" cy="268.88309521662393" r="4" fill="#3b82f6" stroke="#0d1117" stroke-width="2" class="data-point"/>
  
    <circle cx="468.67052023121386" cy="266.43781482292616" r="4" fill="#3b82f6" stroke="#0d1117" stroke-width="2" class="data-point"/>
  
    <circle cx="472.71676300578036" cy="264.81313528206846" r="4" fill="#3b82f6" stroke="#0d1117" stroke-width="2" class="data-point"/>
  
    <circle cx="476.7630057803468" cy="263.38855751516945" r="4" fill="#3b82f6" stroke="#0d1117" stroke-width="2" class="data-point"/>
  
    <circle cx="480.8092485549133" cy="261.9951882818237" r="4" fill="#3b82f6" stroke="#0d1117" stroke-width="2" class="data-point"/>
  
    <circle cx="484.8554913294798" cy="260.68259407649794" r="4" fill="#3b82f6" stroke="#0d1117" stroke-width="2" class="data-point"/>
  
    <circle cx="488.9017341040463" cy="258.6411888229004" r="4" fill="#3b82f6" stroke="#0d1117" stroke-width="2" class="data-point"/>
  
    <circle cx="492.9479768786127" cy="257.0183450781341" r="4" fill="#3b82f6" stroke="#0d1117" stroke-width="2" class="data-point"/>
  
    <circle cx="496.9942196531792" cy="254.943895494892" r="4" fill="#3b82f6" stroke="#0d1117" stroke-width="2" class="data-point"/>
  
    <circle cx="501.04046242774564" cy="254.51982659778673" r="4" fill="#3b82f6" stroke="#0d1117" stroke-width="2" class="data-point"/>
  
    <circle cx="505.08670520231215" cy="254.4647527150458" r="4" fill="#3b82f6" stroke="#0d1117" stroke-width="2" class="data-point"/>
  
    <circle cx="509.1329479768786" cy="254.39315666748257" r="4" fill="#3b82f6" stroke="#0d1117" stroke-width="2" class="data-point"/>
  
    <circle cx="513.179190751445" cy="254.33257539646752" r="4" fill="#3b82f6" stroke="#0d1117" stroke-width="2" class="data-point"/>
  
    <circle cx="517.2254335260116" cy="254.25363616453888" r="4" fill="#3b82f6" stroke="#0d1117" stroke-width="2" class="data-point"/>
  
    <circle cx="521.2716763005781" cy="254.18387591306703" r="4" fill="#3b82f6" stroke="#0d1117" stroke-width="2" class="data-point"/>
  
    <circle cx="525.3179190751445" cy="254.15633897169653" r="4" fill="#3b82f6" stroke="#0d1117" stroke-width="2" class="data-point"/>
  
    <circle cx="529.364161849711" cy="254.0553701866715" r="4" fill="#3b82f6" stroke="#0d1117" stroke-width="2" class="data-point"/>
  
    <circle cx="533.4104046242775" cy="253.95807299382915" r="4" fill="#3b82f6" stroke="#0d1117" stroke-width="2" class="data-point"/>
  
    <circle cx="537.4566473988439" cy="253.89382013063138" r="4" fill="#3b82f6" stroke="#0d1117" stroke-width="2" class="data-point"/>
  
    <circle cx="541.5028901734104" cy="253.86995478144365" r="4" fill="#3b82f6" stroke="#0d1117" stroke-width="2" class="data-point"/>
  
    <circle cx="545.5491329479769" cy="253.76164281205314" r="4" fill="#3b82f6" stroke="#0d1117" stroke-width="2" class="data-point"/>
  
    <circle cx="549.5953757225434" cy="251.09973847957434" r="4" fill="#3b82f6" stroke="#0d1117" stroke-width="2" class="data-point"/>
  
    <circle cx="553.6416184971098" cy="246.93064555608518" r="4" fill="#3b82f6" stroke="#0d1117" stroke-width="2" class="data-point"/>
  
    <circle cx="557.6878612716763" cy="244.1383997011195" r="4" fill="#3b82f6" stroke="#0d1117" stroke-width="2" class="data-point"/>
  
    <circle cx="561.7341040462427" cy="240.89638380376948" r="4" fill="#3b82f6" stroke="#0d1117" stroke-width="2" class="data-point"/>
  
    <circle cx="565.7803468208092" cy="237.5552349174858" r="4" fill="#3b82f6" stroke="#0d1117" stroke-width="2" class="data-point"/>
  
    <circle cx="569.8265895953757" cy="234.93371809901703" r="4" fill="#3b82f6" stroke="#0d1117" stroke-width="2" class="data-point"/>
  
    <circle cx="573.8728323699422" cy="232.00195174110766" r="4" fill="#3b82f6" stroke="#0d1117" stroke-width="2" class="data-point"/>
  
    <circle cx="577.9190751445086" cy="227.5354598508174" r="4" fill="#3b82f6" stroke="#0d1117" stroke-width="2" class="data-point"/>
  
    <circle cx="581.9653179190751" cy="221.51588446723264" r="4" fill="#3b82f6" stroke="#0d1117" stroke-width="2" class="data-point"/>
  
    <circle cx="586.0115606936416" cy="217.58728083171223" r="4" fill="#3b82f6" stroke="#0d1117" stroke-width="2" class="data-point"/>
  
    <circle cx="590.0578034682081" cy="212.91150818700643" r="4" fill="#3b82f6" stroke="#0d1117" stroke-width="2" class="data-point"/>
  
    <circle cx="594.1040462427745" cy="207.7015188797135" r="4" fill="#3b82f6" stroke="#0d1117" stroke-width="2" class="data-point"/>
  
    <circle cx="598.150289017341" cy="203.5232469757675" r="4" fill="#3b82f6" stroke="#0d1117" stroke-width="2" class="data-point"/>
  
    <circle cx="602.1965317919074" cy="198.98883063009674" r="4" fill="#3b82f6" stroke="#0d1117" stroke-width="2" class="data-point"/>
  
    <circle cx="606.2427745664739" cy="194.96660139391673" r="4" fill="#3b82f6" stroke="#0d1117" stroke-width="2" class="data-point"/>
  
    <circle cx="610.2890173410404" cy="190.98108807956405" r="4" fill="#3b82f6" stroke="#0d1117" stroke-width="2" class="data-point"/>
  
    <circle cx="614.335260115607" cy="187.00658954175952" r="4" fill="#3b82f6" stroke="#0d1117" stroke-width="2" class="data-point"/>
  
    <circle cx="618.3815028901735" cy="181.59466266441646" r="4" fill="#3b82f6" stroke="#0d1117" stroke-width="2" class="data-point"/>
  
    <circle cx="622.4277456647399" cy="176.16621362225112" r="4" fill="#3b82f6" stroke="#0d1117" stroke-width="2" class="data-point"/>
  
    <circle cx="626.4739884393064" cy="171.64097625703724" r="4" fill="#3b82f6" stroke="#0d1117" stroke-width="2" class="data-point"/>
  
    <circle cx="630.5202312138729" cy="167.8482215322778" r="4" fill="#3b82f6" stroke="#0d1117" stroke-width="2" class="data-point"/>
  
    <circle cx="634.5664739884394" cy="164.16928616518302" r="4" fill="#3b82f6" stroke="#0d1117" stroke-width="2" class="data-point"/>
  
    <circle cx="638.6127167630058" cy="159.28606856215296" r="4" fill="#3b82f6" stroke="#0d1117" stroke-width="2" class="data-point"/>
  
    <circle cx="642.6589595375723" cy="155.49882122566765" r="4" fill="#3b82f6" stroke="#0d1117" stroke-width="2" class="data-point"/>
  
    <circle cx="646.7052023121387" cy="151.75196140319235" r="4" fill="#3b82f6" stroke="#0d1117" stroke-width="2" class="data-point"/>
  
    <circle cx="650.7514450867052" cy="148.2474266647772" r="4" fill="#3b82f6" stroke="#0d1117" stroke-width="2" class="data-point"/>
  
    <circle cx="654.7976878612717" cy="144.94666529250352" r="4" fill="#3b82f6" stroke="#0d1117" stroke-width="2" class="data-point"/>
  
    <circle cx="658.8439306358382" cy="141.5651288922098" r="4" fill="#3b82f6" stroke="#0d1117" stroke-width="2" class="data-point"/>
  
    <circle cx="662.8901734104046" cy="138.6737500483104" r="4" fill="#3b82f6" stroke="#0d1117" stroke-width="2" class="data-point"/>
  
    <circle cx="666.9364161849711" cy="135.67956662329465" r="4" fill="#3b82f6" stroke="#0d1117" stroke-width="2" class="data-point"/>
  
    <circle cx="670.9826589595375" cy="132.62296613117246" r="4" fill="#3b82f6" stroke="#0d1117" stroke-width="2" class="data-point"/>
  
    <circle cx="675.028901734104" cy="129.39196501037063" r="4" fill="#3b82f6" stroke="#0d1117" stroke-width="2" class="data-point"/>
  
    <circle cx="679.0751445086705" cy="126.4271543228167" r="4" fill="#3b82f6" stroke="#0d1117" stroke-width="2" class="data-point"/>
  
    <circle cx="683.121387283237" cy="123.71201190368834" r="4" fill="#3b82f6" stroke="#0d1117" stroke-width="2" class="data-point"/>
  
    <circle cx="687.1676300578035" cy="118.79207837883104" r="4" fill="#3b82f6" stroke="#0d1117" stroke-width="2" class="data-point"/>
  
    <circle cx="691.2138728323699" cy="114.67438774590005" r="4" fill="#3b82f6" stroke="#0d1117" stroke-width="2" class="data-point"/>
  
    <circle cx="695.2601156069364" cy="110.72008296510057" r="4" fill="#3b82f6" stroke="#0d1117" stroke-width="2" class="data-point"/>
  
    <circle cx="699.3063583815028" cy="106.92182085206704" r="4" fill="#3b82f6" stroke="#0d1117" stroke-width="2" class="data-point"/>
  
    <circle cx="703.3526011560693" cy="100.92427502157864" r="4" fill="#3b82f6" stroke="#0d1117" stroke-width="2" class="data-point"/>
  
    <circle cx="707.3988439306358" cy="97.12968450072788" r="4" fill="#3b82f6" stroke="#0d1117" stroke-width="2" class="data-point"/>
  
    <circle cx="711.4450867052024" cy="93.84544529327647" r="4" fill="#3b82f6" stroke="#0d1117" stroke-width="2" class="data-point"/>
  
    <circle cx="715.4913294797688" cy="89.96640815222293" r="4" fill="#3b82f6" stroke="#0d1117" stroke-width="2" class="data-point"/>
  
    <circle cx="719.5375722543353" cy="84.24790332762197" r="4" fill="#3b82f6" stroke="#0d1117" stroke-width="2" class="data-point"/>
  
    <circle cx="723.5838150289018" cy="80.13388428687375" r="4" fill="#3b82f6" stroke="#0d1117" stroke-width="2" class="data-point"/>
  
    <circle cx="727.6300578034683" cy="76.66055808201179" r="4" fill="#3b82f6" stroke="#0d1117" stroke-width="2" class="data-point"/>
  
    <circle cx="731.6763005780347" cy="73.72144853973691" r="4" fill="#3b82f6" stroke="#0d1117" stroke-width="2" class="data-point"/>
  
    <circle cx="735.7225433526012" cy="70.93287427695401" r="4" fill="#3b82f6" stroke="#0d1117" stroke-width="2" class="data-point"/>
  
    <circle cx="739.7687861271676" cy="68.66566610411866" r="4" fill="#3b82f6" stroke="#0d1117" stroke-width="2" class="data-point"/>
  
    <circle cx="743.8150289017341" cy="66.11207374103037" r="4" fill="#3b82f6" stroke="#0d1117" stroke-width="2" class="data-point"/>
  
    <circle cx="747.8612716763006" cy="64.0302809734228" r="4" fill="#3b82f6" stroke="#0d1117" stroke-width="2" class="data-point"/>
  
    <circle cx="751.9075144508671" cy="61.573985803176924" r="4" fill="#3b82f6" stroke="#0d1117" stroke-width="2" class="data-point"/>
  
    <circle cx="755.9537572254335" cy="58.03824253120854" r="4" fill="#3b82f6" stroke="#0d1117" stroke-width="2" class="data-point"/>
  
    <circle cx="760" cy="55" r="4" fill="#3b82f6" stroke="#0d1117" stroke-width="2" class="data-point"/>
  

  <!-- Axis lines -->
  <line x1="60" y1="55" x2="60" y2="340"
        stroke="#30363d" stroke-width="2"/>
  <line x1="60" y1="340" x2="760" y2="340"
        stroke="#30363d" stroke-width="2"/>
</svg>