<?xml version="1.0" encoding="UTF-8"?>
<svg width="800" height="400" xmlns="http://www.w3.org/2000/svg">
  <defs>
    <!-- Gradient for area fill -->
    <linearGradient id="areaGradient" x1="0%" y1="0%" x2="0%" y2="100%">
      <stop offset="0%" style="stop-color:#3b82f6;stop-opacity:0.3" />
      <stop offset="100%" style="stop-color:#3b82f6;stop-opacity:0.05" />
    </linearGradient>

    <!-- Glow filter for line -->
    <filter id="glow">
      <feGaussianBlur stdDeviation="2" result="coloredBlur"/>
      <feMerge>
        <feMergeNode in="coloredBlur"/>
        <feMergeNode in="SourceGraphic"/>
      </feMerge>
    </filter>

    <!-- Animation -->
    <style>
      @keyframes draw {
        from { stroke-dashoffset: 2000; }
        to { stroke-dashoffset: 0; }
      }
      @keyframes fadeIn {
        from { opacity: 0; }
        to { opacity: 1; }
      }
      .line-path {
        stroke-dasharray: 2000;
        stroke-dashoffset: 2000;
        animation: draw 1.5s ease-out forwards;
      }
      .area-path {
        opacity: 0;
        animation: fadeIn 1s ease-out 0.5s forwards;
      }
      .data-point {
        opacity: 0;
        animation: fadeIn 0.5s ease-out 1s forwards;
      }
    </style>
  </defs>

  <!-- Background -->
  <rect width="800" height="400" fill="#0d1117" rx="8"/>

  <!-- Title -->
  <text x="400" y="25" text-anchor="middle" fill="#c9d1d9" font-family="system-ui, -apple-system, sans-serif" font-size="16" font-weight="600">
    zxcloli666/SoundCloud-Desktop Downloads
  </text>

  <!-- Stats -->
  <text x="780" y="25" text-anchor="end" fill="#58a6ff" font-family="system-ui, -apple-system, sans-serif" font-size="14" font-weight="600">
    245.7K total
  </text>
  <text x="780" y="42" text-anchor="end" fill="#3fb950" font-family="system-ui, -apple-system, sans-serif" font-size="12">
    +1.2K (+0.5%)
  </text>

  <!-- Grid lines -->
  <g opacity="0.1">
    
      <line x1="60" y1="340" x2="760" y2="340"
            stroke="#c9d1d9" stroke-width="1"/>
    
      <line x1="60" y1="268.75" x2="760" y2="268.75"
            stroke="#c9d1d9" stroke-width="1"/>
    
      <line x1="60" y1="197.5" x2="760" y2="197.5"
            stroke="#c9d1d9" stroke-width="1"/>
    
      <line x1="60" y1="126.25" x2="760" y2="126.25"
            stroke="#c9d1d9" stroke-width="1"/>
    
      <line x1="60" y1="55" x2="760" y2="55"
            stroke="#c9d1d9" stroke-width="1"/>
    
  </g>

  <!-- Y-axis labels -->
  
    <text x="50" y="344" text-anchor="end"
          fill="#8b949e" font-family="system-ui, -apple-system, sans-serif" font-size="11">
      60.2K
    </text>
  
    <text x="50" y="272.75" text-anchor="end"
          fill="#8b949e" font-family="system-ui, -apple-system, sans-serif" font-size="11">
      106.5K
    </text>
  
    <text x="50" y="201.5" text-anchor="end"
          fill="#8b949e" font-family="system-ui, -apple-system, sans-serif" font-size="11">
      152.9K
    </text>
  
    <text x="50" y="130.25" text-anchor="end"
          fill="#8b949e" font-family="system-ui, -apple-system, sans-serif" font-size="11">
      199.3K
    </text>
  
    <text x="50" y="59" text-anchor="end"
          fill="#8b949e" font-family="system-ui, -apple-system, sans-serif" font-size="11">
      245.7K
    </text>
  

  <!-- X-axis labels -->
  
    <text x="60" y="360" text-anchor="middle"
          fill="#8b949e" font-family="system-ui, -apple-system, sans-serif" font-size="11">
      Nov 25
    </text>
  
    <text x="145.2791878172589" y="360" text-anchor="middle"
          fill="#8b949e" font-family="system-ui, -apple-system, sans-serif" font-size="11">
      Dec 19
    </text>
  
    <text x="230.55837563451777" y="360" text-anchor="middle"
          fill="#8b949e" font-family="system-ui, -apple-system, sans-serif" font-size="11">
      Jan 12
    </text>
  
    <text x="315.83756345177665" y="360" text-anchor="middle"
          fill="#8b949e" font-family="system-ui, -apple-system, sans-serif" font-size="11">
      Feb 5
    </text>
  
    <text x="401.11675126903555" y="360" text-anchor="middle"
          fill="#8b949e" font-family="system-ui, -apple-system, sans-serif" font-size="11">
      Mar 1
    </text>
  
    <text x="486.39593908629445" y="360" text-anchor="middle"
          fill="#8b949e" font-family="system-ui, -apple-system, sans-serif" font-size="11">
      Mar 25
    </text>
  
    <text x="571.6751269035533" y="360" text-anchor="middle"
          fill="#8b949e" font-family="system-ui, -apple-system, sans-serif" font-size="11">
      Apr 18
    </text>
  
    <text x="656.9543147208121" y="360" text-anchor="middle"
          fill="#8b949e" font-family="system-ui, -apple-system, sans-serif" font-size="11">
      May 12
    </text>
  
    <text x="742.2335025380711" y="360" text-anchor="middle"
          fill="#8b949e" font-family="system-ui, -apple-system, sans-serif" font-size="11">
      Jun 5
    </text>
  
    <text x="760" y="360" text-anchor="middle"
          fill="#8b949e" font-family="system-ui, -apple-system, sans-serif" font-size="11">
      Jun 10
    </text>
  

  <!-- Area under line -->
  <path d="M 60 340
    L 60.00 340.00 L 63.55 339.77 L 67.11 339.39 L 70.66 339.03 L 74.21 338.33 L 77.77 337.59 L 81.32 337.02 L 84.87 336.48 L 88.43 336.00 L 91.98 335.44 L 95.53 334.82 L 99.09 334.15 L 102.64 333.54 L 106.19 332.89 L 109.75 332.42 L 113.30 331.93 L 116.85 331.27 L 120.41 330.82 L 123.96 330.21 L 127.51 329.50 L 131.07 328.97 L 134.62 328.53 L 138.17 328.24 L 141.73 328.01 L 145.28 327.57 L 148.83 327.26 L 152.39 326.57 L 155.94 326.30 L 159.49 325.96 L 163.05 325.51 L 166.60 325.20 L 170.15 324.89 L 173.71 324.56 L 177.26 324.33 L 180.81 324.14 L 184.37 323.84 L 187.92 323.47 L 191.47 323.14 L 195.03 322.72 L 198.58 322.25 L 202.13 321.83 L 205.69 321.32 L 209.24 320.82 L 212.79 320.31 L 216.35 319.76 L 219.90 319.24 L 223.45 318.64 L 227.01 318.10 L 230.56 317.65 L 234.11 317.29 L 237.66 316.78 L 241.22 316.20 L 244.77 315.67 L 248.32 315.05 L 251.88 314.29 L 255.43 313.72 L 258.98 313.25 L 262.54 312.80 L 266.09 312.26 L 269.64 311.63 L 273.20 310.94 L 276.75 310.21 L 280.30 309.51 L 283.86 308.89 L 287.41 308.28 L 290.96 307.74 L 294.52 307.19 L 298.07 306.58 L 301.62 305.81 L 305.18 305.24 L 308.73 304.73 L 312.28 304.17 L 315.84 303.64 L 319.39 303.06 L 322.94 302.45 L 326.50 301.82 L 330.05 301.26 L 333.60 300.79 L 337.16 300.27 L 340.71 299.70 L 344.26 299.18 L 347.82 298.50 L 351.37 297.92 L 354.92 297.35 L 358.48 296.88 L 362.03 296.43 L 365.58 295.97 L 369.14 295.43 L 372.69 294.87 L 376.24 294.19 L 379.80 293.63 L 383.35 293.18 L 386.90 292.72 L 390.46 292.28 L 394.01 291.73 L 397.56 291.17 L 401.12 289.93 L 404.67 287.47 L 408.22 284.53 L 411.78 281.85 L 415.33 280.49 L 418.88 278.45 L 422.44 277.09 L 425.99 275.89 L 429.54 274.73 L 433.10 273.63 L 436.65 271.92 L 440.20 270.56 L 443.76 268.83 L 447.31 268.47 L 450.86 268.43 L 454.42 268.37 L 457.97 268.32 L 461.52 268.25 L 465.08 268.19 L 468.63 268.17 L 472.18 268.08 L 475.74 268.00 L 479.29 267.95 L 482.84 267.93 L 486.40 267.84 L 489.95 265.61 L 493.50 262.12 L 497.06 259.79 L 500.61 257.07 L 504.16 254.28 L 507.72 252.08 L 511.27 249.63 L 514.82 245.89 L 518.38 240.86 L 521.93 237.57 L 525.48 233.66 L 529.04 229.30 L 532.59 225.80 L 536.14 222.01 L 539.70 218.64 L 543.25 215.31 L 546.80 211.98 L 550.36 207.45 L 553.91 202.91 L 557.46 199.12 L 561.02 195.95 L 564.57 192.87 L 568.12 188.78 L 571.68 185.62 L 575.23 182.48 L 578.78 179.55 L 582.34 176.79 L 585.89 173.96 L 589.44 171.54 L 592.99 169.03 L 596.55 166.47 L 600.10 163.77 L 603.65 161.29 L 607.21 159.02 L 610.76 154.90 L 614.31 151.46 L 617.87 148.15 L 621.42 144.97 L 624.97 139.95 L 628.53 136.77 L 632.08 134.03 L 635.63 130.78 L 639.19 126.00 L 642.74 122.55 L 646.29 119.65 L 649.85 117.19 L 653.40 114.85 L 656.95 112.96 L 660.51 110.82 L 664.06 109.08 L 667.61 107.02 L 671.17 104.06 L 674.72 101.52 L 678.27 99.31 L 681.83 97.40 L 685.38 95.43 L 688.93 93.77 L 692.49 90.97 L 696.04 88.58 L 699.59 86.22 L 703.15 84.26 L 706.70 82.47 L 710.25 80.87 L 713.81 78.14 L 717.36 75.92 L 720.91 73.90 L 724.47 71.97 L 728.02 70.29 L 731.57 68.65 L 735.13 67.15 L 738.68 65.71 L 742.23 64.39 L 745.79 62.75 L 749.34 60.98 L 752.89 59.36 L 756.45 56.83 L 760.00 55.00
    L 760 340
    Z" fill="url(#areaGradient)" class="area-path"/>

  <!-- Main line with glow -->
  <path d="M 60.00 340.00 L 63.55 339.77 L 67.11 339.39 L 70.66 339.03 L 74.21 338.33 L 77.77 337.59 L 81.32 337.02 L 84.87 336.48 L 88.43 336.00 L 91.98 335.44 L 95.53 334.82 L 99.09 334.15 L 102.64 333.54 L 106.19 332.89 L 109.75 332.42 L 113.30 331.93 L 116.85 331.27 L 120.41 330.82 L 123.96 330.21 L 127.51 329.50 L 131.07 328.97 L 134.62 328.53 L 138.17 328.24 L 141.73 328.01 L 145.28 327.57 L 148.83 327.26 L 152.39 326.57 L 155.94 326.30 L 159.49 325.96 L 163.05 325.51 L 166.60 325.20 L 170.15 324.89 L 173.71 324.56 L 177.26 324.33 L 180.81 324.14 L 184.37 323.84 L 187.92 323.47 L 191.47 323.14 L 195.03 322.72 L 198.58 322.25 L 202.13 321.83 L 205.69 321.32 L 209.24 320.82 L 212.79 320.31 L 216.35 319.76 L 219.90 319.24 L 223.45 318.64 L 227.01 318.10 L 230.56 317.65 L 234.11 317.29 L 237.66 316.78 L 241.22 316.20 L 244.77 315.67 L 248.32 315.05 L 251.88 314.29 L 255.43 313.72 L 258.98 313.25 L 262.54 312.80 L 266.09 312.26 L 269.64 311.63 L 273.20 310.94 L 276.75 310.21 L 280.30 309.51 L 283.86 308.89 L 287.41 308.28 L 290.96 307.74 L 294.52 307.19 L 298.07 306.58 L 301.62 305.81 L 305.18 305.24 L 308.73 304.73 L 312.28 304.17 L 315.84 303.64 L 319.39 303.06 L 322.94 302.45 L 326.50 301.82 L 330.05 301.26 L 333.60 300.79 L 337.16 300.27 L 340.71 299.70 L 344.26 299.18 L 347.82 298.50 L 351.37 297.92 L 354.92 297.35 L 358.48 296.88 L 362.03 296.43 L 365.58 295.97 L 369.14 295.43 L 372.69 294.87 L 376.24 294.19 L 379.80 293.63 L 383.35 293.18 L 386.90 292.72 L 390.46 292.28 L 394.01 291.73 L 397.56 291.17 L 401.12 289.93 L 404.67 287.47 L 408.22 284.53 L 411.78 281.85 L 415.33 280.49 L 418.88 278.45 L 422.44 277.09 L 425.99 275.89 L 429.54 274.73 L 433.10 273.63 L 436.65 271.92 L 440.20 270.56 L 443.76 268.83 L 447.31 268.47 L 450.86 268.43 L 454.42 268.37 L 457.97 268.32 L 461.52 268.25 L 465.08 268.19 L 468.63 268.17 L 472.18 268.08 L 475.74 268.00 L 479.29 267.95 L 482.84 267.93 L 486.40 267.84 L 489.95 265.61 L 493.50 262.12 L 497.06 259.79 L 500.61 257.07 L 504.16 254.28 L 507.72 252.08 L 511.27 249.63 L 514.82 245.89 L 518.38 240.86 L 521.93 237.57 L 525.48 233.66 L 529.04 229.30 L 532.59 225.80 L 536.14 222.01 L 539.70 218.64 L 543.25 215.31 L 546.80 211.98 L 550.36 207.45 L 553.91 202.91 L 557.46 199.12 L 561.02 195.95 L 564.57 192.87 L 568.12 188.78 L 571.68 185.62 L 575.23 182.48 L 578.78 179.55 L 582.34 176.79 L 585.89 173.96 L 589.44 171.54 L 592.99 169.03 L 596.55 166.47 L 600.10 163.77 L 603.65 161.29 L 607.21 159.02 L 610.76 154.90 L 614.31 151.46 L 617.87 148.15 L 621.42 144.97 L 624.97 139.95 L 628.53 136.77 L 632.08 134.03 L 635.63 130.78 L 639.19 126.00 L 642.74 122.55 L 646.29 119.65 L 649.85 117.19 L 653.40 114.85 L 656.95 112.96 L 660.51 110.82 L 664.06 109.08 L 667.61 107.02 L 671.17 104.06 L 674.72 101.52 L 678.27 99.31 L 681.83 97.40 L 685.38 95.43 L 688.93 93.77 L 692.49 90.97 L 696.04 88.58 L 699.59 86.22 L 703.15 84.26 L 706.70 82.47 L 710.25 80.87 L 713.81 78.14 L 717.36 75.92 L 720.91 73.90 L 724.47 71.97 L 728.02 70.29 L 731.57 68.65 L 735.13 67.15 L 738.68 65.71 L 742.23 64.39 L 745.79 62.75 L 749.34 60.98 L 752.89 59.36 L 756.45 56.83 L 760.00 55.00" fill="none" stroke="#3b82f6" stroke-width="3"
        stroke-linecap="round" stroke-linejoin="round" filter="url(#glow)" class="line-path"/>

  <!-- Data points -->
  
    <circle cx="60" cy="340" r="4" fill="#3b82f6" stroke="#0d1117" stroke-width="2" class="data-point"/>
  
    <circle cx="63.55329949238579" cy="339.77418868005884" r="4" fill="#3b82f6" stroke="#0d1117" stroke-width="2" class="data-point"/>
  
    <circle cx="67.10659898477158" cy="339.3901558230161" r="4" fill="#3b82f6" stroke="#0d1117" stroke-width="2" class="data-point"/>
  
    <circle cx="70.65989847715736" cy="339.03377333168044" r="4" fill="#3b82f6" stroke="#0d1117" stroke-width="2" class="data-point"/>
  
    <circle cx="74.21319796954315" cy="338.32561674329355" r="4" fill="#3b82f6" stroke="#0d1117" stroke-width="2" class="data-point"/>
  
    <circle cx="77.76649746192894" cy="337.59441818348415" r="4" fill="#3b82f6" stroke="#0d1117" stroke-width="2" class="data-point"/>
  
    <circle cx="81.31979695431473" cy="337.01836889792" r="4" fill="#3b82f6" stroke="#0d1117" stroke-width="2" class="data-point"/>
  
    <circle cx="84.87309644670052" cy="336.48072289806015" r="4" fill="#3b82f6" stroke="#0d1117" stroke-width="2" class="data-point"/>
  
    <circle cx="88.42639593908629" cy="336.002986023899" r="4" fill="#3b82f6" stroke="#0d1117" stroke-width="2" class="data-point"/>
  
    <circle cx="91.97969543147208" cy="335.44229805261654" r="4" fill="#3b82f6" stroke="#0d1117" stroke-width="2" class="data-point"/>
  
    <circle cx="95.53299492385787" cy="334.81709256135093" r="4" fill="#3b82f6" stroke="#0d1117" stroke-width="2" class="data-point"/>
  
    <circle cx="99.08629441624365" cy="334.14733925866835" r="4" fill="#3b82f6" stroke="#0d1117" stroke-width="2" class="data-point"/>
  
    <circle cx="102.63959390862945" cy="333.53903121311265" r="4" fill="#3b82f6" stroke="#0d1117" stroke-width="2" class="data-point"/>
  
    <circle cx="106.19289340101523" cy="332.89231988185264" r="4" fill="#3b82f6" stroke="#0d1117" stroke-width="2" class="data-point"/>
  
    <circle cx="109.74619289340102" cy="332.42072753340415" r="4" fill="#3b82f6" stroke="#0d1117" stroke-width="2" class="data-point"/>
  
    <circle cx="113.2994923857868" cy="331.93223773924575" r="4" fill="#3b82f6" stroke="#0d1117" stroke-width="2" class="data-point"/>
  
    <circle cx="116.85279187817258" cy="331.26862896227584" r="4" fill="#3b82f6" stroke="#0d1117" stroke-width="2" class="data-point"/>
  
    <circle cx="120.40609137055837" cy="330.8246869795344" r="4" fill="#3b82f6" stroke="#0d1117" stroke-width="2" class="data-point"/>
  
    <circle cx="123.95939086294416" cy="330.210234408266" r="4" fill="#3b82f6" stroke="#0d1117" stroke-width="2" class="data-point"/>
  
    <circle cx="127.51269035532995" cy="329.500541688451" r="4" fill="#3b82f6" stroke="#0d1117" stroke-width="2" class="data-point"/>
  
    <circle cx="131.06598984771574" cy="328.96596795144745" r="4" fill="#3b82f6" stroke="#0d1117" stroke-width="2" class="data-point"/>
  
    <circle cx="134.61928934010152" cy="328.52663436299054" r="4" fill="#3b82f6" stroke="#0d1117" stroke-width="2" class="data-point"/>
  
    <circle cx="138.1725888324873" cy="328.2424500487789" r="4" fill="#3b82f6" stroke="#0d1117" stroke-width="2" class="data-point"/>
  
    <circle cx="141.7258883248731" cy="328.00588580884056" r="4" fill="#3b82f6" stroke="#0d1117" stroke-width="2" class="data-point"/>
  
    <circle cx="145.2791878172589" cy="327.5680883518118" r="4" fill="#3b82f6" stroke="#0d1117" stroke-width="2" class="data-point"/>
  
    <circle cx="148.83248730964465" cy="327.2562536718931" r="4" fill="#3b82f6" stroke="#0d1117" stroke-width="2" class="data-point"/>
  
    <circle cx="152.38578680203045" cy="326.572675186357" r="4" fill="#3b82f6" stroke="#0d1117" stroke-width="2" class="data-point"/>
  
    <circle cx="155.93908629441626" cy="326.3038521864271" r="4" fill="#3b82f6" stroke="#0d1117" stroke-width="2" class="data-point"/>
  
    <circle cx="159.49238578680203" cy="325.9566864836604" r="4" fill="#3b82f6" stroke="#0d1117" stroke-width="2" class="data-point"/>
  
    <circle cx="163.0456852791878" cy="325.5081361066345" r="4" fill="#3b82f6" stroke="#0d1117" stroke-width="2" class="data-point"/>
  
    <circle cx="166.5989847715736" cy="325.20090982100027" r="4" fill="#3b82f6" stroke="#0d1117" stroke-width="2" class="data-point"/>
  
    <circle cx="170.1522842639594" cy="324.88907514108155" r="4" fill="#3b82f6" stroke="#0d1117" stroke-width="2" class="data-point"/>
  
    <circle cx="173.70558375634516" cy="324.5618791468811" r="4" fill="#3b82f6" stroke="#0d1117" stroke-width="2" class="data-point"/>
  
    <circle cx="177.25888324873097" cy="324.3345316955118" r="4" fill="#3b82f6" stroke="#0d1117" stroke-width="2" class="data-point"/>
  
    <circle cx="180.81218274111674" cy="324.1379068727059" r="4" fill="#3b82f6" stroke="#0d1117" stroke-width="2" class="data-point"/>
  
    <circle cx="184.36548223350255" cy="323.83836124421254" r="4" fill="#3b82f6" stroke="#0d1117" stroke-width="2" class="data-point"/>
  
    <circle cx="187.91878172588832" cy="323.474298095736" r="4" fill="#3b82f6" stroke="#0d1117" stroke-width="2" class="data-point"/>
  
    <circle cx="191.47208121827413" cy="323.1394214443947" r="4" fill="#3b82f6" stroke="#0d1117" stroke-width="2" class="data-point"/>
  
    <circle cx="195.0253807106599" cy="322.71544917021953" r="4" fill="#3b82f6" stroke="#0d1117" stroke-width="2" class="data-point"/>
  
    <circle cx="198.5786802030457" cy="322.25307361034004" r="4" fill="#3b82f6" stroke="#0d1117" stroke-width="2" class="data-point"/>
  
    <circle cx="202.13197969543148" cy="321.82910133616485" r="4" fill="#3b82f6" stroke="#0d1117" stroke-width="2" class="data-point"/>
  
    <circle cx="205.68527918781726" cy="321.3175695705839" r="4" fill="#3b82f6" stroke="#0d1117" stroke-width="2" class="data-point"/>
  
    <circle cx="209.23857868020303" cy="320.815254593572" r="4" fill="#3b82f6" stroke="#0d1117" stroke-width="2" class="data-point"/>
  
    <circle cx="212.79187817258884" cy="320.31293961656" r="4" fill="#3b82f6" stroke="#0d1117" stroke-width="2" class="data-point"/>
  
    <circle cx="216.3451776649746" cy="319.7630045652748" r="4" fill="#3b82f6" stroke="#0d1117" stroke-width="2" class="data-point"/>
  
    <circle cx="219.8984771573604" cy="319.2376476168403" r="4" fill="#3b82f6" stroke="#0d1117" stroke-width="2" class="data-point"/>
  
    <circle cx="223.4517766497462" cy="318.63702022842546" r="4" fill="#3b82f6" stroke="#0d1117" stroke-width="2" class="data-point"/>
  
    <circle cx="227.00507614213197" cy="318.10091035999375" r="4" fill="#3b82f6" stroke="#0d1117" stroke-width="2" class="data-point"/>
  
    <circle cx="230.55837563451777" cy="317.64775158868326" r="4" fill="#3b82f6" stroke="#0d1117" stroke-width="2" class="data-point"/>
  
    <circle cx="234.11167512690355" cy="317.2852245716349" r="4" fill="#3b82f6" stroke="#0d1117" stroke-width="2" class="data-point"/>
  
    <circle cx="237.66497461928932" cy="316.7783012003385" r="4" fill="#3b82f6" stroke="#0d1117" stroke-width="2" class="data-point"/>
  
    <circle cx="241.21827411167513" cy="316.19917965191803" r="4" fill="#3b82f6" stroke="#0d1117" stroke-width="2" class="data-point"/>
  
    <circle cx="244.77157360406093" cy="315.669214309199" r="4" fill="#3b82f6" stroke="#0d1117" stroke-width="2" class="data-point"/>
  
    <circle cx="248.32487309644668" cy="315.05015334364606" r="4" fill="#3b82f6" stroke="#0d1117" stroke-width="2" class="data-point"/>
  
    <circle cx="251.87817258883248" cy="314.2866960238451" r="4" fill="#3b82f6" stroke="#0d1117" stroke-width="2" class="data-point"/>
  
    <circle cx="255.4314720812183" cy="313.7183273954218" r="4" fill="#3b82f6" stroke="#0d1117" stroke-width="2" class="data-point"/>
  
    <circle cx="258.98477157360406" cy="313.2467350469733" r="4" fill="#3b82f6" stroke="#0d1117" stroke-width="2" class="data-point"/>
  
    <circle cx="262.5380710659898" cy="312.7981846699473" r="4" fill="#3b82f6" stroke="#0d1117" stroke-width="2" class="data-point"/>
  
    <circle cx="266.0913705583756" cy="312.25900253865933" r="4" fill="#3b82f6" stroke="#0d1117" stroke-width="2" class="data-point"/>
  
    <circle cx="269.6446700507614" cy="311.6322609159655" r="4" fill="#3b82f6" stroke="#0d1117" stroke-width="2" class="data-point"/>
  
    <circle cx="273.1979695431472" cy="310.93792951043224" r="4" fill="#3b82f6" stroke="#0d1117" stroke-width="2" class="data-point"/>
  
    <circle cx="276.75126903553297" cy="310.20826708205095" r="4" fill="#3b82f6" stroke="#0d1117" stroke-width="2" class="data-point"/>
  
    <circle cx="280.3045685279188" cy="309.50779115080496" r="4" fill="#3b82f6" stroke="#0d1117" stroke-width="2" class="data-point"/>
  
    <circle cx="283.8578680203046" cy="308.8918024481084" r="4" fill="#3b82f6" stroke="#0d1117" stroke-width="2" class="data-point"/>
  
    <circle cx="287.4111675126903" cy="308.2804221396963" r="4" fill="#3b82f6" stroke="#0d1117" stroke-width="2" class="data-point"/>
  
    <circle cx="290.96446700507613" cy="307.7412400084083" r="4" fill="#3b82f6" stroke="#0d1117" stroke-width="2" class="data-point"/>
  
    <circle cx="294.51776649746193" cy="307.19130495712307" r="4" fill="#3b82f6" stroke="#0d1117" stroke-width="2" class="data-point"/>
  
    <circle cx="298.07106598984774" cy="306.57685238585464" r="4" fill="#3b82f6" stroke="#0d1117" stroke-width="2" class="data-point"/>
  
    <circle cx="301.6243654822335" cy="305.8118589346255" r="4" fill="#3b82f6" stroke="#0d1117" stroke-width="2" class="data-point"/>
  
    <circle cx="305.1776649746193" cy="305.24195417477404" r="4" fill="#3b82f6" stroke="#0d1117" stroke-width="2" class="data-point"/>
  
    <circle cx="308.7309644670051" cy="304.73195854062124" r="4" fill="#3b82f6" stroke="#0d1117" stroke-width="2" class="data-point"/>
  
    <circle cx="312.28426395939084" cy="304.1651260436261" r="4" fill="#3b82f6" stroke="#0d1117" stroke-width="2" class="data-point"/>
  
    <circle cx="315.83756345177665" cy="303.6366968323353" r="4" fill="#3b82f6" stroke="#0d1117" stroke-width="2" class="data-point"/>
  
    <circle cx="319.39086294416245" cy="303.0560391524866" r="4" fill="#3b82f6" stroke="#0d1117" stroke-width="2" class="data-point"/>
  
    <circle cx="322.94416243654825" cy="302.45080336978725" r="4" fill="#3b82f6" stroke="#0d1117" stroke-width="2" class="data-point"/>
  
    <circle cx="326.497461928934" cy="301.8179172213808" r="4" fill="#3b82f6" stroke="#0d1117" stroke-width="2" class="data-point"/>
  
    <circle cx="330.0507614213198" cy="301.26337377581103" r="4" fill="#3b82f6" stroke="#0d1117" stroke-width="2" class="data-point"/>
  
    <circle cx="333.6040609137056" cy="300.7887091645062" r="4" fill="#3b82f6" stroke="#0d1117" stroke-width="2" class="data-point"/>
  
    <circle cx="337.1573604060914" cy="300.2679606103562" r="4" fill="#3b82f6" stroke="#0d1117" stroke-width="2" class="data-point"/>
  
    <circle cx="340.71065989847716" cy="299.70420037621744" r="4" fill="#3b82f6" stroke="#0d1117" stroke-width="2" class="data-point"/>
  
    <circle cx="344.26395939086296" cy="299.1819156906393" r="4" fill="#3b82f6" stroke="#0d1117" stroke-width="2" class="data-point"/>
  
    <circle cx="347.8172588832487" cy="298.50140946795955" r="4" fill="#3b82f6" stroke="#0d1117" stroke-width="2" class="data-point"/>
  
    <circle cx="351.3705583756345" cy="297.91614339382636" r="4" fill="#3b82f6" stroke="#0d1117" stroke-width="2" class="data-point"/>
  
    <circle cx="354.9238578680203" cy="297.3523831596876" r="4" fill="#3b82f6" stroke="#0d1117" stroke-width="2" class="data-point"/>
  
    <circle cx="358.47715736040607" cy="296.8838630740954" r="4" fill="#3b82f6" stroke="#0d1117" stroke-width="2" class="data-point"/>
  
    <circle cx="362.0304568527919" cy="296.4291681713568" r="4" fill="#3b82f6" stroke="#0d1117" stroke-width="2" class="data-point"/>
  
    <circle cx="365.5837563451777" cy="295.97293713719" r="4" fill="#3b82f6" stroke="#0d1117" stroke-width="2" class="data-point"/>
  
    <circle cx="369.1370558375634" cy="295.4276104801893" r="4" fill="#3b82f6" stroke="#0d1117" stroke-width="2" class="data-point"/>
  
    <circle cx="372.6903553299492" cy="294.8669225089069" r="4" fill="#3b82f6" stroke="#0d1117" stroke-width="2" class="data-point"/>
  
    <circle cx="376.24365482233503" cy="294.1864162862271" r="4" fill="#3b82f6" stroke="#0d1117" stroke-width="2" class="data-point"/>
  
    <circle cx="379.7969543147208" cy="293.6349451035137" r="4" fill="#3b82f6" stroke="#0d1117" stroke-width="2" class="data-point"/>
  
    <circle cx="383.3502538071066" cy="293.1848585950596" r="4" fill="#3b82f6" stroke="#0d1117" stroke-width="2" class="data-point"/>
  
    <circle cx="386.9035532994924" cy="292.7224830351801" r="4" fill="#3b82f6" stroke="#0d1117" stroke-width="2" class="data-point"/>
  
    <circle cx="390.4568527918782" cy="292.28007718386687" r="4" fill="#3b82f6" stroke="#0d1117" stroke-width="2" class="data-point"/>
  
    <circle cx="394.01015228426394" cy="291.733214395438" r="4" fill="#3b82f6" stroke="#0d1117" stroke-width="2" class="data-point"/>
  
    <circle cx="397.56345177664974" cy="291.17252642415554" r="4" fill="#3b82f6" stroke="#0d1117" stroke-width="2" class="data-point"/>
  
    <circle cx="401.11675126903555" cy="289.9328683616215" r="4" fill="#3b82f6" stroke="#0d1117" stroke-width="2" class="data-point"/>
  
    <circle cx="404.6700507614213" cy="287.46584128797883" r="4" fill="#3b82f6" stroke="#0d1117" stroke-width="2" class="data-point"/>
  
    <circle cx="408.2233502538071" cy="284.52722186588767" r="4" fill="#3b82f6" stroke="#0d1117" stroke-width="2" class="data-point"/>
  
    <circle cx="411.77664974619285" cy="281.8497447865855" r="4" fill="#3b82f6" stroke="#0d1117" stroke-width="2" class="data-point"/>
  
    <circle cx="415.32994923857865" cy="280.49180460408235" r="4" fill="#3b82f6" stroke="#0d1117" stroke-width="2" class="data-point"/>
  
    <circle cx="418.88324873096445" cy="278.4456775417585" r="4" fill="#3b82f6" stroke="#0d1117" stroke-width="2" class="data-point"/>
  
    <circle cx="422.43654822335026" cy="277.08620122782713" r="4" fill="#3b82f6" stroke="#0d1117" stroke-width="2" class="data-point"/>
  
    <circle cx="425.98984771573606" cy="275.8941632395664" r="4" fill="#3b82f6" stroke="#0d1117" stroke-width="2" class="data-point"/>
  
    <circle cx="429.54314720812187" cy="274.7282394855846" r="4" fill="#3b82f6" stroke="#0d1117" stroke-width="2" class="data-point"/>
  
    <circle cx="433.09644670050767" cy="273.6299055144423" r="4" fill="#3b82f6" stroke="#0d1117" stroke-width="2" class="data-point"/>
  
    <circle cx="436.64974619289336" cy="271.92172736631613" r="4" fill="#3b82f6" stroke="#0d1117" stroke-width="2" class="data-point"/>
  
    <circle cx="440.20304568527916" cy="270.56378718381296" r="4" fill="#3b82f6" stroke="#0d1117" stroke-width="2" class="data-point"/>
  
    <circle cx="443.75634517766497" cy="268.8279586699797" r="4" fill="#3b82f6" stroke="#0d1117" stroke-width="2" class="data-point"/>
  
    <circle cx="447.3096446700508" cy="268.47311231007217" r="4" fill="#3b82f6" stroke="#0d1117" stroke-width="2" class="data-point"/>
  
    <circle cx="450.8629441624366" cy="268.427028367227" r="4" fill="#3b82f6" stroke="#0d1117" stroke-width="2" class="data-point"/>
  
    <circle cx="454.4162436548223" cy="268.36711924152837" r="4" fill="#3b82f6" stroke="#0d1117" stroke-width="2" class="data-point"/>
  
    <circle cx="457.9695431472081" cy="268.3164269043987" r="4" fill="#3b82f6" stroke="#0d1117" stroke-width="2" class="data-point"/>
  
    <circle cx="461.52284263959393" cy="268.2503732529874" r="4" fill="#3b82f6" stroke="#0d1117" stroke-width="2" class="data-point"/>
  
    <circle cx="465.0761421319797" cy="268.19200025871686" r="4" fill="#3b82f6" stroke="#0d1117" stroke-width="2" class="data-point"/>
  
    <circle cx="468.6294416243655" cy="268.1689582872943" r="4" fill="#3b82f6" stroke="#0d1117" stroke-width="2" class="data-point"/>
  
    <circle cx="472.1827411167513" cy="268.0844710587449" r="4" fill="#3b82f6" stroke="#0d1117" stroke-width="2" class="data-point"/>
  
    <circle cx="475.73604060913704" cy="268.00305609305184" r="4" fill="#3b82f6" stroke="#0d1117" stroke-width="2" class="data-point"/>
  
    <circle cx="479.28934010152284" cy="267.94929149306586" r="4" fill="#3b82f6" stroke="#0d1117" stroke-width="2" class="data-point"/>
  
    <circle cx="482.84263959390864" cy="267.9293217844996" r="4" fill="#3b82f6" stroke="#0d1117" stroke-width="2" class="data-point"/>
  
    <circle cx="486.39593908629445" cy="267.83869003023756" r="4" fill="#3b82f6" stroke="#0d1117" stroke-width="2" class="data-point"/>
  
    <circle cx="489.9492385786802" cy="265.61129945938956" r="4" fill="#3b82f6" stroke="#0d1117" stroke-width="2" class="data-point"/>
  
    <circle cx="493.50253807106594" cy="262.1227449860131" r="4" fill="#3b82f6" stroke="#0d1117" stroke-width="2" class="data-point"/>
  
    <circle cx="497.05583756345175" cy="259.786289083765" r="4" fill="#3b82f6" stroke="#0d1117" stroke-width="2" class="data-point"/>
  
    <circle cx="500.60913705583755" cy="257.0734809816149" r="4" fill="#3b82f6" stroke="#0d1117" stroke-width="2" class="data-point"/>
  
    <circle cx="504.16243654822335" cy="254.27772178234363" r="4" fill="#3b82f6" stroke="#0d1117" stroke-width="2" class="data-point"/>
  
    <circle cx="507.71573604060916" cy="252.08412610291543" r="4" fill="#3b82f6" stroke="#0d1117" stroke-width="2" class="data-point"/>
  
    <circle cx="511.26903553299496" cy="249.63092421212627" r="4" fill="#3b82f6" stroke="#0d1117" stroke-width="2" class="data-point"/>
  
    <circle cx="514.8223350253807" cy="245.89351644738616" r="4" fill="#3b82f6" stroke="#0d1117" stroke-width="2" class="data-point"/>
  
    <circle cx="518.3756345177665" cy="240.85654149441334" r="4" fill="#3b82f6" stroke="#0d1117" stroke-width="2" class="data-point"/>
  
    <circle cx="521.9289340101523" cy="237.56922023812731" r="4" fill="#3b82f6" stroke="#0d1117" stroke-width="2" class="data-point"/>
  
    <circle cx="525.4822335025381" cy="233.65669349057572" r="4" fill="#3b82f6" stroke="#0d1117" stroke-width="2" class="data-point"/>
  
    <circle cx="529.0355329949239" cy="229.2971524974263" r="4" fill="#3b82f6" stroke="#0d1117" stroke-width="2" class="data-point"/>
  
    <circle cx="532.5888324873097" cy="225.80091736690903" r="4" fill="#3b82f6" stroke="#0d1117" stroke-width="2" class="data-point"/>
  
    <circle cx="536.1421319796955" cy="222.00667273932658" r="4" fill="#3b82f6" stroke="#0d1117" stroke-width="2" class="data-point"/>
  
    <circle cx="539.6954314720812" cy="218.64100878020383" r="4" fill="#3b82f6" stroke="#0d1117" stroke-width="2" class="data-point"/>
  
    <circle cx="543.248730964467" cy="215.30606744964453" r="4" fill="#3b82f6" stroke="#0d1117" stroke-width="2" class="data-point"/>
  
    <circle cx="546.8020304568528" cy="211.98034290765426" r="4" fill="#3b82f6" stroke="#0d1117" stroke-width="2" class="data-point"/>
  
    <circle cx="550.3553299492386" cy="207.45182745740604" r="4" fill="#3b82f6" stroke="#0d1117" stroke-width="2" class="data-point"/>
  
    <circle cx="553.9086294416244" cy="202.9094868243043" r="4" fill="#3b82f6" stroke="#0d1117" stroke-width="2" class="data-point"/>
  
    <circle cx="557.4619289340102" cy="199.1229228538627" r="4" fill="#3b82f6" stroke="#0d1117" stroke-width="2" class="data-point"/>
  
    <circle cx="561.015228426396" cy="195.94927532326133" r="4" fill="#3b82f6" stroke="#0d1117" stroke-width="2" class="data-point"/>
  
    <circle cx="564.5685279187817" cy="192.8708679412066" r="4" fill="#3b82f6" stroke="#0d1117" stroke-width="2" class="data-point"/>
  
    <circle cx="568.1218274111675" cy="188.78475834227163" r="4" fill="#3b82f6" stroke="#0d1117" stroke-width="2" class="data-point"/>
  
    <circle cx="571.6751269035533" cy="185.6157192059548" r="4" fill="#3b82f6" stroke="#0d1117" stroke-width="2" class="data-point"/>
  
    <circle cx="575.2284263959391" cy="182.48047496105772" r="4" fill="#3b82f6" stroke="#0d1117" stroke-width="2" class="data-point"/>
  
    <circle cx="578.7817258883249" cy="179.54800006467923" r="4" fill="#3b82f6" stroke="#0d1117" stroke-width="2" class="data-point"/>
  
    <circle cx="582.3350253807107" cy="176.7860357568277" r="4" fill="#3b82f6" stroke="#0d1117" stroke-width="2" class="data-point"/>
  
    <circle cx="585.8883248730965" cy="173.95648166613665" r="4" fill="#3b82f6" stroke="#0d1117" stroke-width="2" class="data-point"/>
  
    <circle cx="589.4416243654823" cy="171.53707466676727" r="4" fill="#3b82f6" stroke="#0d1117" stroke-width="2" class="data-point"/>
  
    <circle cx="592.994923857868" cy="169.03164430742032" r="4" fill="#3b82f6" stroke="#0d1117" stroke-width="2" class="data-point"/>
  
    <circle cx="596.5482233502538" cy="166.47398547951556" r="4" fill="#3b82f6" stroke="#0d1117" stroke-width="2" class="data-point"/>
  
    <circle cx="600.1015228426396" cy="163.77039416593453" r="4" fill="#3b82f6" stroke="#0d1117" stroke-width="2" class="data-point"/>
  
    <circle cx="603.6548223350254" cy="161.28954190943833" r="4" fill="#3b82f6" stroke="#0d1117" stroke-width="2" class="data-point"/>
  
    <circle cx="607.2081218274112" cy="159.01760352717335" r="4" fill="#3b82f6" stroke="#0d1117" stroke-width="2" class="data-point"/>
  
    <circle cx="610.761421319797" cy="154.90077129967497" r="4" fill="#3b82f6" stroke="#0d1117" stroke-width="2" class="data-point"/>
  
    <circle cx="614.3147208121828" cy="151.45522850628737" r="4" fill="#3b82f6" stroke="#0d1117" stroke-width="2" class="data-point"/>
  
    <circle cx="617.8680203045685" cy="148.14640141000697" r="4" fill="#3b82f6" stroke="#0d1117" stroke-width="2" class="data-point"/>
  
    <circle cx="621.4213197969543" cy="144.96814548512108" r="4" fill="#3b82f6" stroke="#0d1117" stroke-width="2" class="data-point"/>
  
    <circle cx="624.9746192893401" cy="139.94960410928633" r="4" fill="#3b82f6" stroke="#0d1117" stroke-width="2" class="data-point"/>
  
    <circle cx="628.5279187817259" cy="136.77442044725677" r="4" fill="#3b82f6" stroke="#0d1117" stroke-width="2" class="data-point"/>
  
    <circle cx="632.0812182741117" cy="134.02628132225882" r="4" fill="#3b82f6" stroke="#0d1117" stroke-width="2" class="data-point"/>
  
    <circle cx="635.6345177664974" cy="130.78043561453342" r="4" fill="#3b82f6" stroke="#0d1117" stroke-width="2" class="data-point"/>
  
    <circle cx="639.1878172588832" cy="125.99538621578066" r="4" fill="#3b82f6" stroke="#0d1117" stroke-width="2" class="data-point"/>
  
    <circle cx="642.741116751269" cy="122.55291568524936" r="4" fill="#3b82f6" stroke="#0d1117" stroke-width="2" class="data-point"/>
  
    <circle cx="646.2944162436548" cy="119.64655502314977" r="4" fill="#3b82f6" stroke="#0d1117" stroke-width="2" class="data-point"/>
  
    <circle cx="649.8477157360406" cy="117.18720860664794" r="4" fill="#3b82f6" stroke="#0d1117" stroke-width="2" class="data-point"/>
  
    <circle cx="653.4010152284263" cy="114.85382496725614" r="4" fill="#3b82f6" stroke="#0d1117" stroke-width="2" class="data-point"/>
  
    <circle cx="656.9543147208121" cy="112.95670265346493" r="4" fill="#3b82f6" stroke="#0d1117" stroke-width="2" class="data-point"/>
  
    <circle cx="660.5076142131979" cy="110.81994383687902" r="4" fill="#3b82f6" stroke="#0d1117" stroke-width="2" class="data-point"/>
  
    <circle cx="664.0609137055837" cy="109.07797079733305" r="4" fill="#3b82f6" stroke="#0d1117" stroke-width="2" class="data-point"/>
  
    <circle cx="667.6142131979695" cy="107.02262694644023" r="4" fill="#3b82f6" stroke="#0d1117" stroke-width="2" class="data-point"/>
  
    <circle cx="671.1675126903554" cy="104.0640378157828" r="4" fill="#3b82f6" stroke="#0d1117" stroke-width="2" class="data-point"/>
  
    <circle cx="674.720812182741" cy="101.52174030215974" r="4" fill="#3b82f6" stroke="#0d1117" stroke-width="2" class="data-point"/>
  
    <circle cx="678.2741116751268" cy="99.31124717702164" r="4" fill="#3b82f6" stroke="#0d1117" stroke-width="2" class="data-point"/>
  
    <circle cx="681.8274111675127" cy="97.40029968037686" r="4" fill="#3b82f6" stroke="#0d1117" stroke-width="2" class="data-point"/>
  
    <circle cx="685.3807106598985" cy="95.42944305803343" r="4" fill="#3b82f6" stroke="#0d1117" stroke-width="2" class="data-point"/>
  
    <circle cx="688.9340101522843" cy="93.76734885275238" r="4" fill="#3b82f6" stroke="#0d1117" stroke-width="2" class="data-point"/>
  
    <circle cx="692.4873096446701" cy="90.97312578490926" r="4" fill="#3b82f6" stroke="#0d1117" stroke-width="2" class="data-point"/>
  
    <circle cx="696.0406091370558" cy="88.58444141410331" r="4" fill="#3b82f6" stroke="#0d1117" stroke-width="2" class="data-point"/>
  
    <circle cx="699.5939086294416" cy="86.21572675186357" r="4" fill="#3b82f6" stroke="#0d1117" stroke-width="2" class="data-point"/>
  
    <circle cx="703.1472081218274" cy="84.26023144380184" r="4" fill="#3b82f6" stroke="#0d1117" stroke-width="2" class="data-point"/>
  
    <circle cx="706.7005076142132" cy="82.46602993569809" r="4" fill="#3b82f6" stroke="#0d1117" stroke-width="2" class="data-point"/>
  
    <circle cx="710.253807106599" cy="80.87306164468475" r="4" fill="#3b82f6" stroke="#0d1117" stroke-width="2" class="data-point"/>
  
    <circle cx="713.8071065989848" cy="78.14181996539662" r="4" fill="#3b82f6" stroke="#0d1117" stroke-width="2" class="data-point"/>
  
    <circle cx="717.3604060913706" cy="75.92364618311763" r="4" fill="#3b82f6" stroke="#0d1117" stroke-width="2" class="data-point"/>
  
    <circle cx="720.9137055837564" cy="73.90209722364455" r="4" fill="#3b82f6" stroke="#0d1117" stroke-width="2" class="data-point"/>
  
    <circle cx="724.4670050761421" cy="71.97118001843359" r="4" fill="#3b82f6" stroke="#0d1117" stroke-width="2" class="data-point"/>
  
    <circle cx="728.0203045685279" cy="70.28604384172996" r="4" fill="#3b82f6" stroke="#0d1117" stroke-width="2" class="data-point"/>
  
    <circle cx="731.5736040609137" cy="68.65006387072776" r="4" fill="#3b82f6" stroke="#0d1117" stroke-width="2" class="data-point"/>
  
    <circle cx="735.1269035532995" cy="67.15079959683288" r="4" fill="#3b82f6" stroke="#0d1117" stroke-width="2" class="data-point"/>
  
    <circle cx="738.6802030456853" cy="65.71298058006477" r="4" fill="#3b82f6" stroke="#0d1117" stroke-width="2" class="data-point"/>
  
    <circle cx="742.2335025380711" cy="64.39497981469407" r="4" fill="#3b82f6" stroke="#0d1117" stroke-width="2" class="data-point"/>
  
    <circle cx="745.7868020304569" cy="62.74978305512286" r="4" fill="#3b82f6" stroke="#0d1117" stroke-width="2" class="data-point"/>
  
    <circle cx="749.3401015228426" cy="60.98323191272618" r="4" fill="#3b82f6" stroke="#0d1117" stroke-width="2" class="data-point"/>
  
    <circle cx="752.8934010152284" cy="59.35800486172121" r="4" fill="#3b82f6" stroke="#0d1117" stroke-width="2" class="data-point"/>
  
    <circle cx="756.4467005076142" cy="56.83260479380806" r="4" fill="#3b82f6" stroke="#0d1117" stroke-width="2" class="data-point"/>
  
    <circle cx="760" cy="55" r="4" fill="#3b82f6" stroke="#0d1117" stroke-width="2" class="data-point"/>
  

  <!-- Axis lines -->
  <line x1="60" y1="55" x2="60" y2="340"
        stroke="#30363d" stroke-width="2"/>
  <line x1="60" y1="340" x2="760" y2="340"
        stroke="#30363d" stroke-width="2"/>
</svg>