<?xml version="1.0" encoding="UTF-8"?>
<svg width="800" height="400" xmlns="http://www.w3.org/2000/svg">
  <defs>
    <!-- Gradient for area fill -->
    <linearGradient id="areaGradient" x1="0%" y1="0%" x2="0%" y2="100%">
      <stop offset="0%" style="stop-color:#3b82f6;stop-opacity:0.3" />
      <stop offset="100%" style="stop-color:#3b82f6;stop-opacity:0.05" />
    </linearGradient>

    <!-- Glow filter for line -->
    <filter id="glow">
      <feGaussianBlur stdDeviation="2" result="coloredBlur"/>
      <feMerge>
        <feMergeNode in="coloredBlur"/>
        <feMergeNode in="SourceGraphic"/>
      </feMerge>
    </filter>

    <!-- Animation -->
    <style>
      @keyframes draw {
        from { stroke-dashoffset: 2000; }
        to { stroke-dashoffset: 0; }
      }
      @keyframes fadeIn {
        from { opacity: 0; }
        to { opacity: 1; }
      }
      .line-path {
        stroke-dasharray: 2000;
        stroke-dashoffset: 2000;
        animation: draw 1.5s ease-out forwards;
      }
      .area-path {
        opacity: 0;
        animation: fadeIn 1s ease-out 0.5s forwards;
      }
      .data-point {
        opacity: 0;
        animation: fadeIn 0.5s ease-out 1s forwards;
      }
    </style>
  </defs>

  <!-- Background -->
  <rect width="800" height="400" fill="#0d1117" rx="8"/>

  <!-- Title -->
  <text x="400" y="25" text-anchor="middle" fill="#c9d1d9" font-family="system-ui, -apple-system, sans-serif" font-size="16" font-weight="600">
    zxcloli666/SoundCloud-Desktop Downloads
  </text>

  <!-- Stats -->
  <text x="780" y="25" text-anchor="end" fill="#58a6ff" font-family="system-ui, -apple-system, sans-serif" font-size="14" font-weight="600">
    91.6K total
  </text>
  <text x="780" y="42" text-anchor="end" fill="#3fb950" font-family="system-ui, -apple-system, sans-serif" font-size="12">
    +356 (+0.4%)
  </text>

  <!-- Grid lines -->
  <g opacity="0.1">
    
      <line x1="60" y1="340" x2="760" y2="340"
            stroke="#c9d1d9" stroke-width="1"/>
    
      <line x1="60" y1="268.75" x2="760" y2="268.75"
            stroke="#c9d1d9" stroke-width="1"/>
    
      <line x1="60" y1="197.5" x2="760" y2="197.5"
            stroke="#c9d1d9" stroke-width="1"/>
    
      <line x1="60" y1="126.25" x2="760" y2="126.25"
            stroke="#c9d1d9" stroke-width="1"/>
    
      <line x1="60" y1="55" x2="760" y2="55"
            stroke="#c9d1d9" stroke-width="1"/>
    
  </g>

  <!-- Y-axis labels -->
  
    <text x="50" y="344" text-anchor="end"
          fill="#8b949e" font-family="system-ui, -apple-system, sans-serif" font-size="11">
      60.2K
    </text>
  
    <text x="50" y="272.75" text-anchor="end"
          fill="#8b949e" font-family="system-ui, -apple-system, sans-serif" font-size="11">
      68.0K
    </text>
  
    <text x="50" y="201.5" text-anchor="end"
          fill="#8b949e" font-family="system-ui, -apple-system, sans-serif" font-size="11">
      75.9K
    </text>
  
    <text x="50" y="130.25" text-anchor="end"
          fill="#8b949e" font-family="system-ui, -apple-system, sans-serif" font-size="11">
      83.7K
    </text>
  
    <text x="50" y="59" text-anchor="end"
          fill="#8b949e" font-family="system-ui, -apple-system, sans-serif" font-size="11">
      91.6K
    </text>
  

  <!-- X-axis labels -->
  
    <text x="60" y="360" text-anchor="middle"
          fill="#8b949e" font-family="system-ui, -apple-system, sans-serif" font-size="11">
      Nov 25
    </text>
  
    <text x="141.91489361702128" y="360" text-anchor="middle"
          fill="#8b949e" font-family="system-ui, -apple-system, sans-serif" font-size="11">
      Dec 6
    </text>
  
    <text x="223.82978723404256" y="360" text-anchor="middle"
          fill="#8b949e" font-family="system-ui, -apple-system, sans-serif" font-size="11">
      Dec 17
    </text>
  
    <text x="305.74468085106383" y="360" text-anchor="middle"
          fill="#8b949e" font-family="system-ui, -apple-system, sans-serif" font-size="11">
      Dec 28
    </text>
  
    <text x="387.6595744680851" y="360" text-anchor="middle"
          fill="#8b949e" font-family="system-ui, -apple-system, sans-serif" font-size="11">
      Jan 8
    </text>
  
    <text x="469.5744680851064" y="360" text-anchor="middle"
          fill="#8b949e" font-family="system-ui, -apple-system, sans-serif" font-size="11">
      Jan 19
    </text>
  
    <text x="551.4893617021277" y="360" text-anchor="middle"
          fill="#8b949e" font-family="system-ui, -apple-system, sans-serif" font-size="11">
      Jan 30
    </text>
  
    <text x="633.404255319149" y="360" text-anchor="middle"
          fill="#8b949e" font-family="system-ui, -apple-system, sans-serif" font-size="11">
      Feb 10
    </text>
  
    <text x="715.3191489361702" y="360" text-anchor="middle"
          fill="#8b949e" font-family="system-ui, -apple-system, sans-serif" font-size="11">
      Feb 21
    </text>
  
    <text x="760" y="360" text-anchor="middle"
          fill="#8b949e" font-family="system-ui, -apple-system, sans-serif" font-size="11">
      Feb 27
    </text>
  

  <!-- Area under line -->
  <path d="M 60 340
    L 60.00 340.00 L 67.45 338.67 L 74.89 336.40 L 82.34 334.29 L 89.79 330.11 L 97.23 325.80 L 104.68 322.39 L 112.13 319.22 L 119.57 316.40 L 127.02 313.09 L 134.47 309.40 L 141.91 305.44 L 149.36 301.85 L 156.81 298.03 L 164.26 295.25 L 171.70 292.36 L 179.15 288.44 L 186.60 285.82 L 194.04 282.19 L 201.49 278.00 L 208.94 274.85 L 216.38 272.25 L 223.83 270.58 L 231.28 269.18 L 238.72 266.59 L 246.17 264.75 L 253.62 260.72 L 261.06 259.13 L 268.51 257.08 L 275.96 254.43 L 283.40 252.62 L 290.85 250.77 L 298.30 248.84 L 305.74 247.50 L 313.19 246.34 L 320.64 244.57 L 328.09 242.42 L 335.53 240.44 L 342.98 237.94 L 350.43 235.21 L 357.87 232.71 L 365.32 229.69 L 372.77 226.72 L 380.21 223.75 L 387.66 220.51 L 395.11 217.40 L 402.55 213.86 L 410.00 210.69 L 417.45 208.02 L 424.89 205.88 L 432.34 202.88 L 439.79 199.46 L 447.23 196.33 L 454.68 192.68 L 462.13 188.17 L 469.57 184.82 L 477.02 182.03 L 484.47 179.38 L 491.91 176.20 L 499.36 172.50 L 506.81 168.40 L 514.26 164.09 L 521.70 159.95 L 529.15 156.32 L 536.60 152.71 L 544.04 149.52 L 551.49 146.28 L 558.94 142.65 L 566.38 138.13 L 573.83 134.76 L 581.28 131.75 L 588.72 128.41 L 596.17 125.29 L 603.62 121.86 L 611.06 118.28 L 618.51 114.55 L 625.96 111.27 L 633.40 108.47 L 640.85 105.39 L 648.30 102.07 L 655.74 98.98 L 663.19 94.96 L 670.64 91.51 L 678.09 88.18 L 685.53 85.41 L 692.98 82.73 L 700.43 80.03 L 707.87 76.81 L 715.32 73.50 L 722.77 69.49 L 730.21 66.23 L 737.66 63.57 L 745.11 60.84 L 752.55 58.23 L 760.00 55.00
    L 760 340
    Z" fill="url(#areaGradient)" class="area-path"/>

  <!-- Main line with glow -->
  <path d="M 60.00 340.00 L 67.45 338.67 L 74.89 336.40 L 82.34 334.29 L 89.79 330.11 L 97.23 325.80 L 104.68 322.39 L 112.13 319.22 L 119.57 316.40 L 127.02 313.09 L 134.47 309.40 L 141.91 305.44 L 149.36 301.85 L 156.81 298.03 L 164.26 295.25 L 171.70 292.36 L 179.15 288.44 L 186.60 285.82 L 194.04 282.19 L 201.49 278.00 L 208.94 274.85 L 216.38 272.25 L 223.83 270.58 L 231.28 269.18 L 238.72 266.59 L 246.17 264.75 L 253.62 260.72 L 261.06 259.13 L 268.51 257.08 L 275.96 254.43 L 283.40 252.62 L 290.85 250.77 L 298.30 248.84 L 305.74 247.50 L 313.19 246.34 L 320.64 244.57 L 328.09 242.42 L 335.53 240.44 L 342.98 237.94 L 350.43 235.21 L 357.87 232.71 L 365.32 229.69 L 372.77 226.72 L 380.21 223.75 L 387.66 220.51 L 395.11 217.40 L 402.55 213.86 L 410.00 210.69 L 417.45 208.02 L 424.89 205.88 L 432.34 202.88 L 439.79 199.46 L 447.23 196.33 L 454.68 192.68 L 462.13 188.17 L 469.57 184.82 L 477.02 182.03 L 484.47 179.38 L 491.91 176.20 L 499.36 172.50 L 506.81 168.40 L 514.26 164.09 L 521.70 159.95 L 529.15 156.32 L 536.60 152.71 L 544.04 149.52 L 551.49 146.28 L 558.94 142.65 L 566.38 138.13 L 573.83 134.76 L 581.28 131.75 L 588.72 128.41 L 596.17 125.29 L 603.62 121.86 L 611.06 118.28 L 618.51 114.55 L 625.96 111.27 L 633.40 108.47 L 640.85 105.39 L 648.30 102.07 L 655.74 98.98 L 663.19 94.96 L 670.64 91.51 L 678.09 88.18 L 685.53 85.41 L 692.98 82.73 L 700.43 80.03 L 707.87 76.81 L 715.32 73.50 L 722.77 69.49 L 730.21 66.23 L 737.66 63.57 L 745.11 60.84 L 752.55 58.23 L 760.00 55.00" fill="none" stroke="#3b82f6" stroke-width="3"
        stroke-linecap="round" stroke-linejoin="round" filter="url(#glow)" class="line-path"/>

  <!-- Data points -->
  
    <circle cx="60" cy="340" r="4" fill="#3b82f6" stroke="#0d1117" stroke-width="2" class="data-point"/>
  
    <circle cx="67.44680851063829" cy="338.66665605805036" r="4" fill="#3b82f6" stroke="#0d1117" stroke-width="2" class="data-point"/>
  
    <circle cx="74.8936170212766" cy="336.39906432004074" r="4" fill="#3b82f6" stroke="#0d1117" stroke-width="2" class="data-point"/>
  
    <circle cx="82.34042553191489" cy="334.2947391871678" r="4" fill="#3b82f6" stroke="#0d1117" stroke-width="2" class="data-point"/>
  
    <circle cx="89.7872340425532" cy="330.1133000222781" r="4" fill="#3b82f6" stroke="#0d1117" stroke-width="2" class="data-point"/>
  
    <circle cx="97.2340425531915" cy="325.79580535310777" r="4" fill="#3b82f6" stroke="#0d1117" stroke-width="2" class="data-point"/>
  
    <circle cx="104.68085106382978" cy="322.3944177460934" r="4" fill="#3b82f6" stroke="#0d1117" stroke-width="2" class="data-point"/>
  
    <circle cx="112.12765957446808" cy="319.2197893128799" r="4" fill="#3b82f6" stroke="#0d1117" stroke-width="2" class="data-point"/>
  
    <circle cx="119.57446808510639" cy="316.398905190796" r="4" fill="#3b82f6" stroke="#0d1117" stroke-width="2" class="data-point"/>
  
    <circle cx="127.02127659574468" cy="313.0882212533019" r="4" fill="#3b82f6" stroke="#0d1117" stroke-width="2" class="data-point"/>
  
    <circle cx="134.468085106383" cy="309.39658190382227" r="4" fill="#3b82f6" stroke="#0d1117" stroke-width="2" class="data-point"/>
  
    <circle cx="141.91489361702128" cy="305.4419019127335" r="4" fill="#3b82f6" stroke="#0d1117" stroke-width="2" class="data-point"/>
  
    <circle cx="149.36170212765956" cy="301.8500365997263" r="4" fill="#3b82f6" stroke="#0d1117" stroke-width="2" class="data-point"/>
  
    <circle cx="156.8085106382979" cy="298.03141211291813" r="4" fill="#3b82f6" stroke="#0d1117" stroke-width="2" class="data-point"/>
  
    <circle cx="164.25531914893617" cy="295.2468094586423" r="4" fill="#3b82f6" stroke="#0d1117" stroke-width="2" class="data-point"/>
  
    <circle cx="171.70212765957447" cy="292.36243276789406" r="4" fill="#3b82f6" stroke="#0d1117" stroke-width="2" class="data-point"/>
  
    <circle cx="179.14893617021278" cy="288.4440342446135" r="4" fill="#3b82f6" stroke="#0d1117" stroke-width="2" class="data-point"/>
  
    <circle cx="186.59574468085106" cy="285.82269819547435" r="4" fill="#3b82f6" stroke="#0d1117" stroke-width="2" class="data-point"/>
  
    <circle cx="194.04255319148936" cy="282.194551414659" r="4" fill="#3b82f6" stroke="#0d1117" stroke-width="2" class="data-point"/>
  
    <circle cx="201.48936170212764" cy="278.0040418828172" r="4" fill="#3b82f6" stroke="#0d1117" stroke-width="2" class="data-point"/>
  
    <circle cx="208.93617021276597" cy="274.84755418350784" r="4" fill="#3b82f6" stroke="#0d1117" stroke-width="2" class="data-point"/>
  
    <circle cx="216.38297872340425" cy="272.25342923522487" r="4" fill="#3b82f6" stroke="#0d1117" stroke-width="2" class="data-point"/>
  
    <circle cx="223.82978723404256" cy="270.57541134909775" r="4" fill="#3b82f6" stroke="#0d1117" stroke-width="2" class="data-point"/>
  
    <circle cx="231.27659574468083" cy="269.1785748384838" r="4" fill="#3b82f6" stroke="#0d1117" stroke-width="2" class="data-point"/>
  
    <circle cx="238.72340425531914" cy="266.5935202571529" r="4" fill="#3b82f6" stroke="#0d1117" stroke-width="2" class="data-point"/>
  
    <circle cx="246.17021276595744" cy="264.75223576588905" r="4" fill="#3b82f6" stroke="#0d1117" stroke-width="2" class="data-point"/>
  
    <circle cx="253.61702127659575" cy="260.7159224722319" r="4" fill="#3b82f6" stroke="#0d1117" stroke-width="2" class="data-point"/>
  
    <circle cx="261.06382978723406" cy="259.1286082556252" r="4" fill="#3b82f6" stroke="#0d1117" stroke-width="2" class="data-point"/>
  
    <circle cx="268.51063829787233" cy="257.0787053244645" r="4" fill="#3b82f6" stroke="#0d1117" stroke-width="2" class="data-point"/>
  
    <circle cx="275.95744680851067" cy="254.43015817446928" r="4" fill="#3b82f6" stroke="#0d1117" stroke-width="2" class="data-point"/>
  
    <circle cx="283.40425531914894" cy="252.61608478406163" r="4" fill="#3b82f6" stroke="#0d1117" stroke-width="2" class="data-point"/>
  
    <circle cx="290.8510638297872" cy="250.7748002927978" r="4" fill="#3b82f6" stroke="#0d1117" stroke-width="2" class="data-point"/>
  
    <circle cx="298.29787234042556" cy="248.84281213201362" r="4" fill="#3b82f6" stroke="#0d1117" stroke-width="2" class="data-point"/>
  
    <circle cx="305.74468085106383" cy="247.50039782311194" r="4" fill="#3b82f6" stroke="#0d1117" stroke-width="2" class="data-point"/>
  
    <circle cx="313.1914893617021" cy="246.33939085325102" r="4" fill="#3b82f6" stroke="#0d1117" stroke-width="2" class="data-point"/>
  
    <circle cx="320.6382978723404" cy="244.5706692976035" r="4" fill="#3b82f6" stroke="#0d1117" stroke-width="2" class="data-point"/>
  
    <circle cx="328.0851063829787" cy="242.4209923299704" r="4" fill="#3b82f6" stroke="#0d1117" stroke-width="2" class="data-point"/>
  
    <circle cx="335.53191489361706" cy="240.44365233442602" r="4" fill="#3b82f6" stroke="#0d1117" stroke-width="2" class="data-point"/>
  
    <circle cx="342.9787234042553" cy="237.9402310556634" r="4" fill="#3b82f6" stroke="#0d1117" stroke-width="2" class="data-point"/>
  
    <circle cx="350.4255319148936" cy="235.21005060309983" r="4" fill="#3b82f6" stroke="#0d1117" stroke-width="2" class="data-point"/>
  
    <circle cx="357.87234042553195" cy="232.70662932433723" r="4" fill="#3b82f6" stroke="#0d1117" stroke-width="2" class="data-point"/>
  
    <circle cx="365.3191489361702" cy="229.68619712930843" r="4" fill="#3b82f6" stroke="#0d1117" stroke-width="2" class="data-point"/>
  
    <circle cx="372.7659574468085" cy="226.72018713599186" r="4" fill="#3b82f6" stroke="#0d1117" stroke-width="2" class="data-point"/>
  
    <circle cx="380.2127659574468" cy="223.7541771426753" r="4" fill="#3b82f6" stroke="#0d1117" stroke-width="2" class="data-point"/>
  
    <circle cx="387.6595744680851" cy="220.50698577384554" r="4" fill="#3b82f6" stroke="#0d1117" stroke-width="2" class="data-point"/>
  
    <circle cx="395.10638297872345" cy="217.40492027624836" r="4" fill="#3b82f6" stroke="#0d1117" stroke-width="2" class="data-point"/>
  
    <circle cx="402.55319148936167" cy="213.85840679800134" r="4" fill="#3b82f6" stroke="#0d1117" stroke-width="2" class="data-point"/>
  
    <circle cx="410" cy="210.69284873173993" r="4" fill="#3b82f6" stroke="#0d1117" stroke-width="2" class="data-point"/>
  
    <circle cx="417.4468085106383" cy="208.01709048088858" r="4" fill="#3b82f6" stroke="#0d1117" stroke-width="2" class="data-point"/>
  
    <circle cx="424.8936170212766" cy="205.8764838802075" r="4" fill="#3b82f6" stroke="#0d1117" stroke-width="2" class="data-point"/>
  
    <circle cx="432.3404255319149" cy="202.8832627860348" r="4" fill="#3b82f6" stroke="#0d1117" stroke-width="2" class="data-point"/>
  
    <circle cx="439.78723404255317" cy="199.46373444511633" r="4" fill="#3b82f6" stroke="#0d1117" stroke-width="2" class="data-point"/>
  
    <circle cx="447.2340425531915" cy="196.33445784666304" r="4" fill="#3b82f6" stroke="#0d1117" stroke-width="2" class="data-point"/>
  
    <circle cx="454.6808510638298" cy="192.67909996499156" r="4" fill="#3b82f6" stroke="#0d1117" stroke-width="2" class="data-point"/>
  
    <circle cx="462.1276595744681" cy="188.17112758982847" r="4" fill="#3b82f6" stroke="#0d1117" stroke-width="2" class="data-point"/>
  
    <circle cx="469.5744680851064" cy="184.81509181757423" r="4" fill="#3b82f6" stroke="#0d1117" stroke-width="2" class="data-point"/>
  
    <circle cx="477.02127659574467" cy="182.03048916329843" r="4" fill="#3b82f6" stroke="#0d1117" stroke-width="2" class="data-point"/>
  
    <circle cx="484.468085106383" cy="179.3819420133032" r="4" fill="#3b82f6" stroke="#0d1117" stroke-width="2" class="data-point"/>
  
    <circle cx="491.9148936170213" cy="176.19824321313772" r="4" fill="#3b82f6" stroke="#0d1117" stroke-width="2" class="data-point"/>
  
    <circle cx="499.36170212765956" cy="172.49753349670604" r="4" fill="#3b82f6" stroke="#0d1117" stroke-width="2" class="data-point"/>
  
    <circle cx="506.8085106382979" cy="168.39772763438464" r="4" fill="#3b82f6" stroke="#0d1117" stroke-width="2" class="data-point"/>
  
    <circle cx="514.2553191489362" cy="164.0893033321664" r="4" fill="#3b82f6" stroke="#0d1117" stroke-width="2" class="data-point"/>
  
    <circle cx="521.7021276595744" cy="159.95321600203684" r="4" fill="#3b82f6" stroke="#0d1117" stroke-width="2" class="data-point"/>
  
    <circle cx="529.1489361702128" cy="156.31599885426945" r="4" fill="#3b82f6" stroke="#0d1117" stroke-width="2" class="data-point"/>
  
    <circle cx="536.5957446808511" cy="152.70599280735814" r="4" fill="#3b82f6" stroke="#0d1117" stroke-width="2" class="data-point"/>
  
    <circle cx="544.0425531914893" cy="149.52229400719264" r="4" fill="#3b82f6" stroke="#0d1117" stroke-width="2" class="data-point"/>
  
    <circle cx="551.4893617021277" cy="146.27510263836285" r="4" fill="#3b82f6" stroke="#0d1117" stroke-width="2" class="data-point"/>
  
    <circle cx="558.936170212766" cy="142.6469558575475" r="4" fill="#3b82f6" stroke="#0d1117" stroke-width="2" class="data-point"/>
  
    <circle cx="566.3829787234042" cy="138.12991311543234" r="4" fill="#3b82f6" stroke="#0d1117" stroke-width="2" class="data-point"/>
  
    <circle cx="573.8297872340426" cy="134.76480697622608" r="4" fill="#3b82f6" stroke="#0d1117" stroke-width="2" class="data-point"/>
  
    <circle cx="581.2765957446808" cy="131.75344514814932" r="4" fill="#3b82f6" stroke="#0d1117" stroke-width="2" class="data-point"/>
  
    <circle cx="588.7234042553192" cy="128.40647974284715" r="4" fill="#3b82f6" stroke="#0d1117" stroke-width="2" class="data-point"/>
  
    <circle cx="596.1702127659574" cy="125.28627351134591" r="4" fill="#3b82f6" stroke="#0d1117" stroke-width="2" class="data-point"/>
  
    <circle cx="603.6170212765957" cy="121.85767480347539" r="4" fill="#3b82f6" stroke="#0d1117" stroke-width="2" class="data-point"/>
  
    <circle cx="611.0638297872341" cy="118.28395022437223" r="4" fill="#3b82f6" stroke="#0d1117" stroke-width="2" class="data-point"/>
  
    <circle cx="618.5106382978723" cy="114.5469590401324" r="4" fill="#3b82f6" stroke="#0d1117" stroke-width="2" class="data-point"/>
  
    <circle cx="625.9574468085106" cy="111.27255657044654" r="4" fill="#3b82f6" stroke="#0d1117" stroke-width="2" class="data-point"/>
  
    <circle cx="633.404255319149" cy="108.46981318226665" r="4" fill="#3b82f6" stroke="#0d1117" stroke-width="2" class="data-point"/>
  
    <circle cx="640.8510638297872" cy="105.3949587855256" r="4" fill="#3b82f6" stroke="#0d1117" stroke-width="2" class="data-point"/>
  
    <circle cx="648.2978723404256" cy="102.0661341141275" r="4" fill="#3b82f6" stroke="#0d1117" stroke-width="2" class="data-point"/>
  
    <circle cx="655.7446808510639" cy="98.98220935043443" r="4" fill="#3b82f6" stroke="#0d1117" stroke-width="2" class="data-point"/>
  
    <circle cx="663.1914893617021" cy="94.9640367906814" r="4" fill="#3b82f6" stroke="#0d1117" stroke-width="2" class="data-point"/>
  
    <circle cx="670.6382978723404" cy="91.50822698195475" r="4" fill="#3b82f6" stroke="#0d1117" stroke-width="2" class="data-point"/>
  
    <circle cx="678.0851063829787" cy="88.17940231055664" r="4" fill="#3b82f6" stroke="#0d1117" stroke-width="2" class="data-point"/>
  
    <circle cx="685.531914893617" cy="85.4129403901849" r="4" fill="#3b82f6" stroke="#0d1117" stroke-width="2" class="data-point"/>
  
    <circle cx="692.9787234042553" cy="82.72811177238157" r="4" fill="#3b82f6" stroke="#0d1117" stroke-width="2" class="data-point"/>
  
    <circle cx="700.4255319148936" cy="80.03421278762613" r="4" fill="#3b82f6" stroke="#0d1117" stroke-width="2" class="data-point"/>
  
    <circle cx="707.8723404255319" cy="76.81423251965248" r="4" fill="#3b82f6" stroke="#0d1117" stroke-width="2" class="data-point"/>
  
    <circle cx="715.3191489361702" cy="73.50354858215843" r="4" fill="#3b82f6" stroke="#0d1117" stroke-width="2" class="data-point"/>
  
    <circle cx="722.7659574468084" cy="69.48537602240543" r="4" fill="#3b82f6" stroke="#0d1117" stroke-width="2" class="data-point"/>
  
    <circle cx="730.2127659574469" cy="66.2291142866236" r="4" fill="#3b82f6" stroke="#0d1117" stroke-width="2" class="data-point"/>
  
    <circle cx="737.6595744680851" cy="63.571496769676344" r="4" fill="#3b82f6" stroke="#0d1117" stroke-width="2" class="data-point"/>
  
    <circle cx="745.1063829787233" cy="60.841316317112785" r="4" fill="#3b82f6" stroke="#0d1117" stroke-width="2" class="data-point"/>
  
    <circle cx="752.5531914893618" cy="58.22905063492567" r="4" fill="#3b82f6" stroke="#0d1117" stroke-width="2" class="data-point"/>
  
    <circle cx="760" cy="55" r="4" fill="#3b82f6" stroke="#0d1117" stroke-width="2" class="data-point"/>
  

  <!-- Axis lines -->
  <line x1="60" y1="55" x2="60" y2="340"
        stroke="#30363d" stroke-width="2"/>
  <line x1="60" y1="340" x2="760" y2="340"
        stroke="#30363d" stroke-width="2"/>
</svg>