<?xml version="1.0" encoding="UTF-8"?>
<svg width="800" height="400" xmlns="http://www.w3.org/2000/svg">
  <defs>
    <!-- Gradient for area fill -->
    <linearGradient id="areaGradient" x1="0%" y1="0%" x2="0%" y2="100%">
      <stop offset="0%" style="stop-color:#3b82f6;stop-opacity:0.3" />
      <stop offset="100%" style="stop-color:#3b82f6;stop-opacity:0.05" />
    </linearGradient>

    <!-- Glow filter for line -->
    <filter id="glow">
      <feGaussianBlur stdDeviation="2" result="coloredBlur"/>
      <feMerge>
        <feMergeNode in="coloredBlur"/>
        <feMergeNode in="SourceGraphic"/>
      </feMerge>
    </filter>

    <!-- Animation -->
    <style>
      @keyframes draw {
        from { stroke-dashoffset: 2000; }
        to { stroke-dashoffset: 0; }
      }
      @keyframes fadeIn {
        from { opacity: 0; }
        to { opacity: 1; }
      }
      .line-path {
        stroke-dasharray: 2000;
        stroke-dashoffset: 2000;
        animation: draw 1.5s ease-out forwards;
      }
      .area-path {
        opacity: 0;
        animation: fadeIn 1s ease-out 0.5s forwards;
      }
      .data-point {
        opacity: 0;
        animation: fadeIn 0.5s ease-out 1s forwards;
      }
    </style>
  </defs>

  <!-- Background -->
  <rect width="800" height="400" fill="#0d1117" rx="8"/>

  <!-- Title -->
  <text x="400" y="25" text-anchor="middle" fill="#c9d1d9" font-family="system-ui, -apple-system, sans-serif" font-size="16" font-weight="600">
    zxcloli666/SoundCloud-Desktop Downloads
  </text>

  <!-- Stats -->
  <text x="780" y="25" text-anchor="end" fill="#58a6ff" font-family="system-ui, -apple-system, sans-serif" font-size="14" font-weight="600">
    149.4K total
  </text>
  <text x="780" y="42" text-anchor="end" fill="#3fb950" font-family="system-ui, -apple-system, sans-serif" font-size="12">
    +3.0K (+2.0%)
  </text>

  <!-- Grid lines -->
  <g opacity="0.1">
    
      <line x1="60" y1="340" x2="760" y2="340"
            stroke="#c9d1d9" stroke-width="1"/>
    
      <line x1="60" y1="268.75" x2="760" y2="268.75"
            stroke="#c9d1d9" stroke-width="1"/>
    
      <line x1="60" y1="197.5" x2="760" y2="197.5"
            stroke="#c9d1d9" stroke-width="1"/>
    
      <line x1="60" y1="126.25" x2="760" y2="126.25"
            stroke="#c9d1d9" stroke-width="1"/>
    
      <line x1="60" y1="55" x2="760" y2="55"
            stroke="#c9d1d9" stroke-width="1"/>
    
  </g>

  <!-- Y-axis labels -->
  
    <text x="50" y="344" text-anchor="end"
          fill="#8b949e" font-family="system-ui, -apple-system, sans-serif" font-size="11">
      60.2K
    </text>
  
    <text x="50" y="272.75" text-anchor="end"
          fill="#8b949e" font-family="system-ui, -apple-system, sans-serif" font-size="11">
      82.5K
    </text>
  
    <text x="50" y="201.5" text-anchor="end"
          fill="#8b949e" font-family="system-ui, -apple-system, sans-serif" font-size="11">
      104.8K
    </text>
  
    <text x="50" y="130.25" text-anchor="end"
          fill="#8b949e" font-family="system-ui, -apple-system, sans-serif" font-size="11">
      127.1K
    </text>
  
    <text x="50" y="59" text-anchor="end"
          fill="#8b949e" font-family="system-ui, -apple-system, sans-serif" font-size="11">
      149.4K
    </text>
  

  <!-- X-axis labels -->
  
    <text x="60" y="360" text-anchor="middle"
          fill="#8b949e" font-family="system-ui, -apple-system, sans-serif" font-size="11">
      Nov 25
    </text>
  
    <text x="145.61151079136692" y="360" text-anchor="middle"
          fill="#8b949e" font-family="system-ui, -apple-system, sans-serif" font-size="11">
      Dec 12
    </text>
  
    <text x="231.22302158273382" y="360" text-anchor="middle"
          fill="#8b949e" font-family="system-ui, -apple-system, sans-serif" font-size="11">
      Dec 29
    </text>
  
    <text x="316.8345323741007" y="360" text-anchor="middle"
          fill="#8b949e" font-family="system-ui, -apple-system, sans-serif" font-size="11">
      Jan 15
    </text>
  
    <text x="402.44604316546764" y="360" text-anchor="middle"
          fill="#8b949e" font-family="system-ui, -apple-system, sans-serif" font-size="11">
      Feb 1
    </text>
  
    <text x="488.0575539568345" y="360" text-anchor="middle"
          fill="#8b949e" font-family="system-ui, -apple-system, sans-serif" font-size="11">
      Feb 18
    </text>
  
    <text x="573.6690647482014" y="360" text-anchor="middle"
          fill="#8b949e" font-family="system-ui, -apple-system, sans-serif" font-size="11">
      Mar 7
    </text>
  
    <text x="659.2805755395683" y="360" text-anchor="middle"
          fill="#8b949e" font-family="system-ui, -apple-system, sans-serif" font-size="11">
      Mar 24
    </text>
  
    <text x="744.8920863309353" y="360" text-anchor="middle"
          fill="#8b949e" font-family="system-ui, -apple-system, sans-serif" font-size="11">
      Apr 10
    </text>
  
    <text x="760" y="360" text-anchor="middle"
          fill="#8b949e" font-family="system-ui, -apple-system, sans-serif" font-size="11">
      Apr 13
    </text>
  

  <!-- Area under line -->
  <path d="M 60 340
    L 60.00 340.00 L 65.04 339.53 L 70.07 338.73 L 75.11 337.99 L 80.14 336.52 L 85.18 335.00 L 90.22 333.80 L 95.25 332.68 L 100.29 331.69 L 105.32 330.52 L 110.36 329.23 L 115.40 327.83 L 120.43 326.57 L 125.47 325.22 L 130.50 324.24 L 135.54 323.23 L 140.58 321.85 L 145.61 320.93 L 150.65 319.65 L 155.68 318.17 L 160.72 317.06 L 165.76 316.15 L 170.79 315.56 L 175.83 315.07 L 180.86 314.16 L 185.90 313.51 L 190.94 312.09 L 195.97 311.53 L 201.01 310.81 L 206.04 309.87 L 211.08 309.23 L 216.12 308.59 L 221.15 307.91 L 226.19 307.43 L 231.22 307.02 L 236.26 306.40 L 241.29 305.64 L 246.33 304.95 L 251.37 304.07 L 256.40 303.11 L 261.44 302.22 L 266.47 301.16 L 271.51 300.12 L 276.55 299.07 L 281.58 297.93 L 286.62 296.84 L 291.65 295.59 L 296.69 294.47 L 301.73 293.53 L 306.76 292.78 L 311.80 291.72 L 316.83 290.52 L 321.87 289.42 L 326.91 288.13 L 331.94 286.54 L 336.98 285.36 L 342.01 284.38 L 347.05 283.45 L 352.09 282.33 L 357.12 281.03 L 362.16 279.58 L 367.19 278.07 L 372.23 276.61 L 377.27 275.33 L 382.30 274.06 L 387.34 272.94 L 392.37 271.79 L 397.41 270.52 L 402.45 268.93 L 407.48 267.74 L 412.52 266.68 L 417.55 265.50 L 422.59 264.40 L 427.63 263.20 L 432.66 261.94 L 437.70 260.62 L 442.73 259.47 L 447.77 258.48 L 452.81 257.40 L 457.84 256.23 L 462.88 255.14 L 467.91 253.73 L 472.95 252.51 L 477.99 251.34 L 483.02 250.37 L 488.06 249.42 L 493.09 248.47 L 498.13 247.34 L 503.17 246.17 L 508.20 244.76 L 513.24 243.61 L 518.27 242.68 L 523.31 241.71 L 528.35 240.79 L 533.38 239.66 L 538.42 238.49 L 543.45 235.91 L 548.49 230.79 L 553.53 224.68 L 558.56 219.11 L 563.60 216.29 L 568.63 212.03 L 573.67 209.21 L 578.71 206.73 L 583.74 204.31 L 588.78 202.02 L 593.81 198.47 L 598.85 195.65 L 603.88 192.04 L 608.92 191.30 L 613.96 191.21 L 618.99 191.08 L 624.03 190.98 L 629.06 190.84 L 634.10 190.72 L 639.14 190.67 L 644.17 190.49 L 649.21 190.32 L 654.24 190.21 L 659.28 190.17 L 664.32 189.98 L 669.35 185.35 L 674.39 178.10 L 679.42 173.24 L 684.46 167.60 L 689.50 161.79 L 694.53 157.23 L 699.57 152.13 L 704.60 144.36 L 709.64 133.89 L 714.68 127.05 L 719.71 118.92 L 724.75 109.86 L 729.78 102.59 L 734.82 94.70 L 739.86 87.70 L 744.89 80.77 L 749.93 73.86 L 754.96 64.44 L 760.00 55.00
    L 760 340
    Z" fill="url(#areaGradient)" class="area-path"/>

  <!-- Main line with glow -->
  <path d="M 60.00 340.00 L 65.04 339.53 L 70.07 338.73 L 75.11 337.99 L 80.14 336.52 L 85.18 335.00 L 90.22 333.80 L 95.25 332.68 L 100.29 331.69 L 105.32 330.52 L 110.36 329.23 L 115.40 327.83 L 120.43 326.57 L 125.47 325.22 L 130.50 324.24 L 135.54 323.23 L 140.58 321.85 L 145.61 320.93 L 150.65 319.65 L 155.68 318.17 L 160.72 317.06 L 165.76 316.15 L 170.79 315.56 L 175.83 315.07 L 180.86 314.16 L 185.90 313.51 L 190.94 312.09 L 195.97 311.53 L 201.01 310.81 L 206.04 309.87 L 211.08 309.23 L 216.12 308.59 L 221.15 307.91 L 226.19 307.43 L 231.22 307.02 L 236.26 306.40 L 241.29 305.64 L 246.33 304.95 L 251.37 304.07 L 256.40 303.11 L 261.44 302.22 L 266.47 301.16 L 271.51 300.12 L 276.55 299.07 L 281.58 297.93 L 286.62 296.84 L 291.65 295.59 L 296.69 294.47 L 301.73 293.53 L 306.76 292.78 L 311.80 291.72 L 316.83 290.52 L 321.87 289.42 L 326.91 288.13 L 331.94 286.54 L 336.98 285.36 L 342.01 284.38 L 347.05 283.45 L 352.09 282.33 L 357.12 281.03 L 362.16 279.58 L 367.19 278.07 L 372.23 276.61 L 377.27 275.33 L 382.30 274.06 L 387.34 272.94 L 392.37 271.79 L 397.41 270.52 L 402.45 268.93 L 407.48 267.74 L 412.52 266.68 L 417.55 265.50 L 422.59 264.40 L 427.63 263.20 L 432.66 261.94 L 437.70 260.62 L 442.73 259.47 L 447.77 258.48 L 452.81 257.40 L 457.84 256.23 L 462.88 255.14 L 467.91 253.73 L 472.95 252.51 L 477.99 251.34 L 483.02 250.37 L 488.06 249.42 L 493.09 248.47 L 498.13 247.34 L 503.17 246.17 L 508.20 244.76 L 513.24 243.61 L 518.27 242.68 L 523.31 241.71 L 528.35 240.79 L 533.38 239.66 L 538.42 238.49 L 543.45 235.91 L 548.49 230.79 L 553.53 224.68 L 558.56 219.11 L 563.60 216.29 L 568.63 212.03 L 573.67 209.21 L 578.71 206.73 L 583.74 204.31 L 588.78 202.02 L 593.81 198.47 L 598.85 195.65 L 603.88 192.04 L 608.92 191.30 L 613.96 191.21 L 618.99 191.08 L 624.03 190.98 L 629.06 190.84 L 634.10 190.72 L 639.14 190.67 L 644.17 190.49 L 649.21 190.32 L 654.24 190.21 L 659.28 190.17 L 664.32 189.98 L 669.35 185.35 L 674.39 178.10 L 679.42 173.24 L 684.46 167.60 L 689.50 161.79 L 694.53 157.23 L 699.57 152.13 L 704.60 144.36 L 709.64 133.89 L 714.68 127.05 L 719.71 118.92 L 724.75 109.86 L 729.78 102.59 L 734.82 94.70 L 739.86 87.70 L 744.89 80.77 L 749.93 73.86 L 754.96 64.44 L 760.00 55.00" fill="none" stroke="#3b82f6" stroke-width="3"
        stroke-linecap="round" stroke-linejoin="round" filter="url(#glow)" class="line-path"/>

  <!-- Data points -->
  
    <circle cx="60" cy="340" r="4" fill="#3b82f6" stroke="#0d1117" stroke-width="2" class="data-point"/>
  
    <circle cx="65.03597122302159" cy="339.5305566760791" r="4" fill="#3b82f6" stroke="#0d1117" stroke-width="2" class="data-point"/>
  
    <circle cx="70.07194244604317" cy="338.73218367621354" r="4" fill="#3b82f6" stroke="#0d1117" stroke-width="2" class="data-point"/>
  
    <circle cx="75.10791366906474" cy="337.9912935323383" r="4" fill="#3b82f6" stroke="#0d1117" stroke-width="2" class="data-point"/>
  
    <circle cx="80.14388489208633" cy="336.5190937205863" r="4" fill="#3b82f6" stroke="#0d1117" stroke-width="2" class="data-point"/>
  
    <circle cx="85.17985611510791" cy="334.9989915288423" r="4" fill="#3b82f6" stroke="#0d1117" stroke-width="2" class="data-point"/>
  
    <circle cx="90.2158273381295" cy="333.80143202904395" r="4" fill="#3b82f6" stroke="#0d1117" stroke-width="2" class="data-point"/>
  
    <circle cx="95.25179856115108" cy="332.6837098292322" r="4" fill="#3b82f6" stroke="#0d1117" stroke-width="2" class="data-point"/>
  
    <circle cx="100.28776978417267" cy="331.6905338173995" r="4" fill="#3b82f6" stroke="#0d1117" stroke-width="2" class="data-point"/>
  
    <circle cx="105.32374100719424" cy="330.5249092375958" r="4" fill="#3b82f6" stroke="#0d1117" stroke-width="2" class="data-point"/>
  
    <circle cx="110.35971223021582" cy="329.2251579938147" r="4" fill="#3b82f6" stroke="#0d1117" stroke-width="2" class="data-point"/>
  
    <circle cx="115.39568345323741" cy="327.8327954820492" r="4" fill="#3b82f6" stroke="#0d1117" stroke-width="2" class="data-point"/>
  
    <circle cx="120.431654676259" cy="326.5681726502622" r="4" fill="#3b82f6" stroke="#0d1117" stroke-width="2" class="data-point"/>
  
    <circle cx="125.46762589928058" cy="325.22371251848864" r="4" fill="#3b82f6" stroke="#0d1117" stroke-width="2" class="data-point"/>
  
    <circle cx="130.50359712230215" cy="324.24331047465375" r="4" fill="#3b82f6" stroke="#0d1117" stroke-width="2" class="data-point"/>
  
    <circle cx="135.53956834532374" cy="323.2277800188248" r="4" fill="#3b82f6" stroke="#0d1117" stroke-width="2" class="data-point"/>
  
    <circle cx="140.57553956834533" cy="321.84819147505715" r="4" fill="#3b82f6" stroke="#0d1117" stroke-width="2" class="data-point"/>
  
    <circle cx="145.61151079136692" cy="320.9252722872126" r="4" fill="#3b82f6" stroke="#0d1117" stroke-width="2" class="data-point"/>
  
    <circle cx="150.6474820143885" cy="319.6478754874277" r="4" fill="#3b82f6" stroke="#0d1117" stroke-width="2" class="data-point"/>
  
    <circle cx="155.68345323741008" cy="318.1724821836762" r="4" fill="#3b82f6" stroke="#0d1117" stroke-width="2" class="data-point"/>
  
    <circle cx="160.71942446043164" cy="317.0611469678634" r="4" fill="#3b82f6" stroke="#0d1117" stroke-width="2" class="data-point"/>
  
    <circle cx="165.75539568345323" cy="316.14780825601724" r="4" fill="#3b82f6" stroke="#0d1117" stroke-width="2" class="data-point"/>
  
    <circle cx="170.79136690647482" cy="315.5570122361167" r="4" fill="#3b82f6" stroke="#0d1117" stroke-width="2" class="data-point"/>
  
    <circle cx="175.8273381294964" cy="315.06521446819954" r="4" fill="#3b82f6" stroke="#0d1117" stroke-width="2" class="data-point"/>
  
    <circle cx="180.863309352518" cy="314.15506924835285" r="4" fill="#3b82f6" stroke="#0d1117" stroke-width="2" class="data-point"/>
  
    <circle cx="185.89928057553956" cy="313.50679037246204" r="4" fill="#3b82f6" stroke="#0d1117" stroke-width="2" class="data-point"/>
  
    <circle cx="190.93525179856115" cy="312.0856864327014" r="4" fill="#3b82f6" stroke="#0d1117" stroke-width="2" class="data-point"/>
  
    <circle cx="195.97122302158274" cy="311.5268253327955" r="4" fill="#3b82f6" stroke="#0d1117" stroke-width="2" class="data-point"/>
  
    <circle cx="201.0071942446043" cy="310.80509614091704" r="4" fill="#3b82f6" stroke="#0d1117" stroke-width="2" class="data-point"/>
  
    <circle cx="206.0431654676259" cy="309.87259647707407" r="4" fill="#3b82f6" stroke="#0d1117" stroke-width="2" class="data-point"/>
  
    <circle cx="211.0791366906475" cy="309.23389807718166" r="4" fill="#3b82f6" stroke="#0d1117" stroke-width="2" class="data-point"/>
  
    <circle cx="216.11510791366908" cy="308.58561920129085" r="4" fill="#3b82f6" stroke="#0d1117" stroke-width="2" class="data-point"/>
  
    <circle cx="221.15107913669067" cy="307.9054054054054" r="4" fill="#3b82f6" stroke="#0d1117" stroke-width="2" class="data-point"/>
  
    <circle cx="226.18705035971223" cy="307.432768589485" r="4" fill="#3b82f6" stroke="#0d1117" stroke-width="2" class="data-point"/>
  
    <circle cx="231.22302158273382" cy="307.0240016135539" r="4" fill="#3b82f6" stroke="#0d1117" stroke-width="2" class="data-point"/>
  
    <circle cx="236.25899280575538" cy="306.40127067365876" r="4" fill="#3b82f6" stroke="#0d1117" stroke-width="2" class="data-point"/>
  
    <circle cx="241.29496402877697" cy="305.6444130697862" r="4" fill="#3b82f6" stroke="#0d1117" stroke-width="2" class="data-point"/>
  
    <circle cx="246.33093525179856" cy="304.9482318139035" r="4" fill="#3b82f6" stroke="#0d1117" stroke-width="2" class="data-point"/>
  
    <circle cx="251.36690647482015" cy="304.0668280220519" r="4" fill="#3b82f6" stroke="#0d1117" stroke-width="2" class="data-point"/>
  
    <circle cx="256.40287769784175" cy="303.1055869302138" r="4" fill="#3b82f6" stroke="#0d1117" stroke-width="2" class="data-point"/>
  
    <circle cx="261.4388489208633" cy="302.22418313836226" r="4" fill="#3b82f6" stroke="#0d1117" stroke-width="2" class="data-point"/>
  
    <circle cx="266.4748201438849" cy="301.1607503025414" r="4" fill="#3b82f6" stroke="#0d1117" stroke-width="2" class="data-point"/>
  
    <circle cx="271.51079136690646" cy="300.11647841871724" r="4" fill="#3b82f6" stroke="#0d1117" stroke-width="2" class="data-point"/>
  
    <circle cx="276.5467625899281" cy="299.0722065348931" r="4" fill="#3b82f6" stroke="#0d1117" stroke-width="2" class="data-point"/>
  
    <circle cx="281.58273381294964" cy="297.92893639908567" r="4" fill="#3b82f6" stroke="#0d1117" stroke-width="2" class="data-point"/>
  
    <circle cx="286.6187050359712" cy="296.8367621352696" r="4" fill="#3b82f6" stroke="#0d1117" stroke-width="2" class="data-point"/>
  
    <circle cx="291.6546762589928" cy="295.5881067634799" r="4" fill="#3b82f6" stroke="#0d1117" stroke-width="2" class="data-point"/>
  
    <circle cx="296.69064748201436" cy="294.4735780556676" r="4" fill="#3b82f6" stroke="#0d1117" stroke-width="2" class="data-point"/>
  
    <circle cx="301.726618705036" cy="293.53149791582626" r="4" fill="#3b82f6" stroke="#0d1117" stroke-width="2" class="data-point"/>
  
    <circle cx="306.76258992805754" cy="292.77783380395323" r="4" fill="#3b82f6" stroke="#0d1117" stroke-width="2" class="data-point"/>
  
    <circle cx="311.7985611510791" cy="291.7239814441307" r="4" fill="#3b82f6" stroke="#0d1117" stroke-width="2" class="data-point"/>
  
    <circle cx="316.8345323741007" cy="290.5200349603335" r="4" fill="#3b82f6" stroke="#0d1117" stroke-width="2" class="data-point"/>
  
    <circle cx="321.8705035971223" cy="289.418280220519" r="4" fill="#3b82f6" stroke="#0d1117" stroke-width="2" class="data-point"/>
  
    <circle cx="326.9064748201439" cy="288.1313029447358" r="4" fill="#3b82f6" stroke="#0d1117" stroke-width="2" class="data-point"/>
  
    <circle cx="331.9424460431655" cy="286.5441374210031" r="4" fill="#3b82f6" stroke="#0d1117" stroke-width="2" class="data-point"/>
  
    <circle cx="336.978417266187" cy="285.3625453812021" r="4" fill="#3b82f6" stroke="#0d1117" stroke-width="2" class="data-point"/>
  
    <circle cx="342.0143884892086" cy="284.3821433373672" r="4" fill="#3b82f6" stroke="#0d1117" stroke-width="2" class="data-point"/>
  
    <circle cx="347.0503597122302" cy="283.4496436735243" r="4" fill="#3b82f6" stroke="#0d1117" stroke-width="2" class="data-point"/>
  
    <circle cx="352.0863309352518" cy="282.3287279817131" r="4" fill="#3b82f6" stroke="#0d1117" stroke-width="2" class="data-point"/>
  
    <circle cx="357.1223021582734" cy="281.02578324593253" r="4" fill="#3b82f6" stroke="#0d1117" stroke-width="2" class="data-point"/>
  
    <circle cx="362.158273381295" cy="279.5823248621756" r="4" fill="#3b82f6" stroke="#0d1117" stroke-width="2" class="data-point"/>
  
    <circle cx="367.19424460431657" cy="278.06541616243106" r="4" fill="#3b82f6" stroke="#0d1117" stroke-width="2" class="data-point"/>
  
    <circle cx="372.23021582733816" cy="276.60918381067637" r="4" fill="#3b82f6" stroke="#0d1117" stroke-width="2" class="data-point"/>
  
    <circle cx="377.26618705035975" cy="275.32859351889203" r="4" fill="#3b82f6" stroke="#0d1117" stroke-width="2" class="data-point"/>
  
    <circle cx="382.30215827338134" cy="274.0575837031061" r="4" fill="#3b82f6" stroke="#0d1117" stroke-width="2" class="data-point"/>
  
    <circle cx="387.33812949640287" cy="272.9366680112949" r="4" fill="#3b82f6" stroke="#0d1117" stroke-width="2" class="data-point"/>
  
    <circle cx="392.37410071942446" cy="271.7933978754874" r="4" fill="#3b82f6" stroke="#0d1117" stroke-width="2" class="data-point"/>
  
    <circle cx="397.41007194244605" cy="270.51600107570255" r="4" fill="#3b82f6" stroke="#0d1117" stroke-width="2" class="data-point"/>
  
    <circle cx="402.44604316546764" cy="268.9256420599704" r="4" fill="#3b82f6" stroke="#0d1117" stroke-width="2" class="data-point"/>
  
    <circle cx="407.48201438848923" cy="267.74085652816996" r="4" fill="#3b82f6" stroke="#0d1117" stroke-width="2" class="data-point"/>
  
    <circle cx="412.51798561151077" cy="266.68061718434853" r="4" fill="#3b82f6" stroke="#0d1117" stroke-width="2" class="data-point"/>
  
    <circle cx="417.5539568345324" cy="265.502218636547" r="4" fill="#3b82f6" stroke="#0d1117" stroke-width="2" class="data-point"/>
  
    <circle cx="422.58992805755395" cy="264.40365738873203" r="4" fill="#3b82f6" stroke="#0d1117" stroke-width="2" class="data-point"/>
  
    <circle cx="427.6258992805755" cy="263.19651741293535" r="4" fill="#3b82f6" stroke="#0d1117" stroke-width="2" class="data-point"/>
  
    <circle cx="432.66187050359713" cy="261.93828156514724" r="4" fill="#3b82f6" stroke="#0d1117" stroke-width="2" class="data-point"/>
  
    <circle cx="437.69784172661866" cy="260.6225628613688" r="4" fill="#3b82f6" stroke="#0d1117" stroke-width="2" class="data-point"/>
  
    <circle cx="442.7338129496403" cy="259.469712249563" r="4" fill="#3b82f6" stroke="#0d1117" stroke-width="2" class="data-point"/>
  
    <circle cx="447.76978417266184" cy="258.4829232217292" r="4" fill="#3b82f6" stroke="#0d1117" stroke-width="2" class="data-point"/>
  
    <circle cx="452.80575539568343" cy="257.40032943391157" r="4" fill="#3b82f6" stroke="#0d1117" stroke-width="2" class="data-point"/>
  
    <circle cx="457.841726618705" cy="256.2283178701089" r="4" fill="#3b82f6" stroke="#0d1117" stroke-width="2" class="data-point"/>
  
    <circle cx="462.8776978417266" cy="255.14253059029178" r="4" fill="#3b82f6" stroke="#0d1117" stroke-width="2" class="data-point"/>
  
    <circle cx="467.9136690647482" cy="253.72781363453004" r="4" fill="#3b82f6" stroke="#0d1117" stroke-width="2" class="data-point"/>
  
    <circle cx="472.9496402877698" cy="252.51109318273495" r="4" fill="#3b82f6" stroke="#0d1117" stroke-width="2" class="data-point"/>
  
    <circle cx="477.98561151079133" cy="251.33908161893237" r="4" fill="#3b82f6" stroke="#0d1117" stroke-width="2" class="data-point"/>
  
    <circle cx="483.021582733813" cy="250.36506655909642" r="4" fill="#3b82f6" stroke="#0d1117" stroke-width="2" class="data-point"/>
  
    <circle cx="488.0575539568345" cy="249.41979292725563" r="4" fill="#3b82f6" stroke="#0d1117" stroke-width="2" class="data-point"/>
  
    <circle cx="493.09352517985616" cy="248.47132580341537" r="4" fill="#3b82f6" stroke="#0d1117" stroke-width="2" class="data-point"/>
  
    <circle cx="498.1294964028777" cy="247.3376361436063" r="4" fill="#3b82f6" stroke="#0d1117" stroke-width="2" class="data-point"/>
  
    <circle cx="503.1654676258992" cy="246.17201156380258" r="4" fill="#3b82f6" stroke="#0d1117" stroke-width="2" class="data-point"/>
  
    <circle cx="508.2014388489209" cy="244.75729460804087" r="4" fill="#3b82f6" stroke="#0d1117" stroke-width="2" class="data-point"/>
  
    <circle cx="513.2374100719423" cy="243.61083098023397" r="4" fill="#3b82f6" stroke="#0d1117" stroke-width="2" class="data-point"/>
  
    <circle cx="518.2733812949641" cy="242.67513782439156" r="4" fill="#3b82f6" stroke="#0d1117" stroke-width="2" class="data-point"/>
  
    <circle cx="523.3093525179856" cy="241.71389673255345" r="4" fill="#3b82f6" stroke="#0d1117" stroke-width="2" class="data-point"/>
  
    <circle cx="528.3453237410072" cy="240.79417103670835" r="4" fill="#3b82f6" stroke="#0d1117" stroke-width="2" class="data-point"/>
  
    <circle cx="533.3812949640287" cy="239.65728788489983" r="4" fill="#3b82f6" stroke="#0d1117" stroke-width="2" class="data-point"/>
  
    <circle cx="538.4172661870504" cy="238.49166330509615" r="4" fill="#3b82f6" stroke="#0d1117" stroke-width="2" class="data-point"/>
  
    <circle cx="543.453237410072" cy="235.9145152615302" r="4" fill="#3b82f6" stroke="#0d1117" stroke-width="2" class="data-point"/>
  
    <circle cx="548.4892086330935" cy="230.78576711039398" r="4" fill="#3b82f6" stroke="#0d1117" stroke-width="2" class="data-point"/>
  
    <circle cx="553.5251798561151" cy="224.67661691542287" r="4" fill="#3b82f6" stroke="#0d1117" stroke-width="2" class="data-point"/>
  
    <circle cx="558.5611510791367" cy="219.11036036036035" r="4" fill="#3b82f6" stroke="#0d1117" stroke-width="2" class="data-point"/>
  
    <circle cx="563.5971223021583" cy="216.28731343283582" r="4" fill="#3b82f6" stroke="#0d1117" stroke-width="2" class="data-point"/>
  
    <circle cx="568.6330935251799" cy="212.03358208955223" r="4" fill="#3b82f6" stroke="#0d1117" stroke-width="2" class="data-point"/>
  
    <circle cx="573.6690647482014" cy="209.20734167002823" r="4" fill="#3b82f6" stroke="#0d1117" stroke-width="2" class="data-point"/>
  
    <circle cx="578.705035971223" cy="206.72919187844562" r="4" fill="#3b82f6" stroke="#0d1117" stroke-width="2" class="data-point"/>
  
    <circle cx="583.7410071942446" cy="204.30533145085383" r="4" fill="#3b82f6" stroke="#0d1117" stroke-width="2" class="data-point"/>
  
    <circle cx="588.7769784172662" cy="202.02198467123839" r="4" fill="#3b82f6" stroke="#0d1117" stroke-width="2" class="data-point"/>
  
    <circle cx="593.8129496402878" cy="198.47082156783648" r="4" fill="#3b82f6" stroke="#0d1117" stroke-width="2" class="data-point"/>
  
    <circle cx="598.8489208633093" cy="195.64777464031195" r="4" fill="#3b82f6" stroke="#0d1117" stroke-width="2" class="data-point"/>
  
    <circle cx="603.884892086331" cy="192.0391286809197" r="4" fill="#3b82f6" stroke="#0d1117" stroke-width="2" class="data-point"/>
  
    <circle cx="608.9208633093525" cy="191.30143202904398" r="4" fill="#3b82f6" stroke="#0d1117" stroke-width="2" class="data-point"/>
  
    <circle cx="613.956834532374" cy="191.2056272690601" r="4" fill="#3b82f6" stroke="#0d1117" stroke-width="2" class="data-point"/>
  
    <circle cx="618.9928057553957" cy="191.0810810810811" r="4" fill="#3b82f6" stroke="#0d1117" stroke-width="2" class="data-point"/>
  
    <circle cx="624.0287769784172" cy="190.97569584509884" r="4" fill="#3b82f6" stroke="#0d1117" stroke-width="2" class="data-point"/>
  
    <circle cx="629.0647482014389" cy="190.83837568912196" r="4" fill="#3b82f6" stroke="#0d1117" stroke-width="2" class="data-point"/>
  
    <circle cx="634.1007194244604" cy="190.7170229931424" r="4" fill="#3b82f6" stroke="#0d1117" stroke-width="2" class="data-point"/>
  
    <circle cx="639.1366906474819" cy="190.66912061315048" r="4" fill="#3b82f6" stroke="#0d1117" stroke-width="2" class="data-point"/>
  
    <circle cx="644.1726618705036" cy="190.49347855318004" r="4" fill="#3b82f6" stroke="#0d1117" stroke-width="2" class="data-point"/>
  
    <circle cx="649.2086330935251" cy="190.32422347720856" r="4" fill="#3b82f6" stroke="#0d1117" stroke-width="2" class="data-point"/>
  
    <circle cx="654.2446043165468" cy="190.21245125722737" r="4" fill="#3b82f6" stroke="#0d1117" stroke-width="2" class="data-point"/>
  
    <circle cx="659.2805755395683" cy="190.17093586123437" r="4" fill="#3b82f6" stroke="#0d1117" stroke-width="2" class="data-point"/>
  
    <circle cx="664.31654676259" cy="189.9825198332661" r="4" fill="#3b82f6" stroke="#0d1117" stroke-width="2" class="data-point"/>
  
    <circle cx="669.3525179856115" cy="185.351956434046" r="4" fill="#3b82f6" stroke="#0d1117" stroke-width="2" class="data-point"/>
  
    <circle cx="674.3884892086331" cy="178.09953610326744" r="4" fill="#3b82f6" stroke="#0d1117" stroke-width="2" class="data-point"/>
  
    <circle cx="679.4244604316547" cy="173.2422347720855" r="4" fill="#3b82f6" stroke="#0d1117" stroke-width="2" class="data-point"/>
  
    <circle cx="684.4604316546763" cy="167.60252790103536" r="4" fill="#3b82f6" stroke="#0d1117" stroke-width="2" class="data-point"/>
  
    <circle cx="689.4964028776978" cy="161.79037246201426" r="4" fill="#3b82f6" stroke="#0d1117" stroke-width="2" class="data-point"/>
  
    <circle cx="694.5323741007195" cy="157.2300658867823" r="4" fill="#3b82f6" stroke="#0d1117" stroke-width="2" class="data-point"/>
  
    <circle cx="699.568345323741" cy="152.13005916364125" r="4" fill="#3b82f6" stroke="#0d1117" stroke-width="2" class="data-point"/>
  
    <circle cx="704.6043165467627" cy="144.36029312894985" r="4" fill="#3b82f6" stroke="#0d1117" stroke-width="2" class="data-point"/>
  
    <circle cx="709.6402877697842" cy="133.88883286271346" r="4" fill="#3b82f6" stroke="#0d1117" stroke-width="2" class="data-point"/>
  
    <circle cx="714.6762589928057" cy="127.05475998386447" r="4" fill="#3b82f6" stroke="#0d1117" stroke-width="2" class="data-point"/>
  
    <circle cx="719.7122302158274" cy="118.92093586123437" r="4" fill="#3b82f6" stroke="#0d1117" stroke-width="2" class="data-point"/>
  
    <circle cx="724.7482014388489" cy="109.85780556676079" r="4" fill="#3b82f6" stroke="#0d1117" stroke-width="2" class="data-point"/>
  
    <circle cx="729.7841726618706" cy="102.58941777598494" r="4" fill="#3b82f6" stroke="#0d1117" stroke-width="2" class="data-point"/>
  
    <circle cx="734.8201438848921" cy="94.70149253731344" r="4" fill="#3b82f6" stroke="#0d1117" stroke-width="2" class="data-point"/>
  
    <circle cx="739.8561151079136" cy="87.70455156649189" r="4" fill="#3b82f6" stroke="#0d1117" stroke-width="2" class="data-point"/>
  
    <circle cx="744.8920863309353" cy="80.77148043565956" r="4" fill="#3b82f6" stroke="#0d1117" stroke-width="2" class="data-point"/>
  
    <circle cx="749.9280575539568" cy="73.85757025682398" r="4" fill="#3b82f6" stroke="#0d1117" stroke-width="2" class="data-point"/>
  
    <circle cx="754.9640287769785" cy="64.44315584240957" r="4" fill="#3b82f6" stroke="#0d1117" stroke-width="2" class="data-point"/>
  
    <circle cx="760" cy="55" r="4" fill="#3b82f6" stroke="#0d1117" stroke-width="2" class="data-point"/>
  

  <!-- Axis lines -->
  <line x1="60" y1="55" x2="60" y2="340"
        stroke="#30363d" stroke-width="2"/>
  <line x1="60" y1="340" x2="760" y2="340"
        stroke="#30363d" stroke-width="2"/>
</svg>