<?xml version="1.0" encoding="UTF-8"?>
<svg width="800" height="400" xmlns="http://www.w3.org/2000/svg">
  <defs>
    <!-- Gradient for area fill -->
    <linearGradient id="areaGradient" x1="0%" y1="0%" x2="0%" y2="100%">
      <stop offset="0%" style="stop-color:#3b82f6;stop-opacity:0.3" />
      <stop offset="100%" style="stop-color:#3b82f6;stop-opacity:0.05" />
    </linearGradient>

    <!-- Glow filter for line -->
    <filter id="glow">
      <feGaussianBlur stdDeviation="2" result="coloredBlur"/>
      <feMerge>
        <feMergeNode in="coloredBlur"/>
        <feMergeNode in="SourceGraphic"/>
      </feMerge>
    </filter>

    <!-- Animation -->
    <style>
      @keyframes draw {
        from { stroke-dashoffset: 2000; }
        to { stroke-dashoffset: 0; }
      }
      @keyframes fadeIn {
        from { opacity: 0; }
        to { opacity: 1; }
      }
      .line-path {
        stroke-dasharray: 2000;
        stroke-dashoffset: 2000;
        animation: draw 1.5s ease-out forwards;
      }
      .area-path {
        opacity: 0;
        animation: fadeIn 1s ease-out 0.5s forwards;
      }
      .data-point {
        opacity: 0;
        animation: fadeIn 0.5s ease-out 1s forwards;
      }
    </style>
  </defs>

  <!-- Background -->
  <rect width="800" height="400" fill="#0d1117" rx="8"/>

  <!-- Title -->
  <text x="400" y="25" text-anchor="middle" fill="#c9d1d9" font-family="system-ui, -apple-system, sans-serif" font-size="16" font-weight="600">
    zxcloli666/SoundCloud-Desktop Downloads
  </text>

  <!-- Stats -->
  <text x="780" y="25" text-anchor="end" fill="#58a6ff" font-family="system-ui, -apple-system, sans-serif" font-size="14" font-weight="600">
    291.4K total
  </text>
  <text x="780" y="42" text-anchor="end" fill="#3fb950" font-family="system-ui, -apple-system, sans-serif" font-size="12">
    +796 (+0.3%)
  </text>

  <!-- Grid lines -->
  <g opacity="0.1">
    
      <line x1="60" y1="340" x2="760" y2="340"
            stroke="#c9d1d9" stroke-width="1"/>
    
      <line x1="60" y1="268.75" x2="760" y2="268.75"
            stroke="#c9d1d9" stroke-width="1"/>
    
      <line x1="60" y1="197.5" x2="760" y2="197.5"
            stroke="#c9d1d9" stroke-width="1"/>
    
      <line x1="60" y1="126.25" x2="760" y2="126.25"
            stroke="#c9d1d9" stroke-width="1"/>
    
      <line x1="60" y1="55" x2="760" y2="55"
            stroke="#c9d1d9" stroke-width="1"/>
    
  </g>

  <!-- Y-axis labels -->
  
    <text x="50" y="344" text-anchor="end"
          fill="#8b949e" font-family="system-ui, -apple-system, sans-serif" font-size="11">
      60.2K
    </text>
  
    <text x="50" y="272.75" text-anchor="end"
          fill="#8b949e" font-family="system-ui, -apple-system, sans-serif" font-size="11">
      118.0K
    </text>
  
    <text x="50" y="201.5" text-anchor="end"
          fill="#8b949e" font-family="system-ui, -apple-system, sans-serif" font-size="11">
      175.8K
    </text>
  
    <text x="50" y="130.25" text-anchor="end"
          fill="#8b949e" font-family="system-ui, -apple-system, sans-serif" font-size="11">
      233.6K
    </text>
  
    <text x="50" y="59" text-anchor="end"
          fill="#8b949e" font-family="system-ui, -apple-system, sans-serif" font-size="11">
      291.4K
    </text>
  

  <!-- X-axis labels -->
  
    <text x="60" y="360" text-anchor="middle"
          fill="#8b949e" font-family="system-ui, -apple-system, sans-serif" font-size="11">
      Nov 25
    </text>
  
    <text x="147.86610878661088" y="360" text-anchor="middle"
          fill="#8b949e" font-family="system-ui, -apple-system, sans-serif" font-size="11">
      Dec 25
    </text>
  
    <text x="235.73221757322176" y="360" text-anchor="middle"
          fill="#8b949e" font-family="system-ui, -apple-system, sans-serif" font-size="11">
      Jan 24
    </text>
  
    <text x="323.59832635983264" y="360" text-anchor="middle"
          fill="#8b949e" font-family="system-ui, -apple-system, sans-serif" font-size="11">
      Feb 23
    </text>
  
    <text x="411.4644351464435" y="360" text-anchor="middle"
          fill="#8b949e" font-family="system-ui, -apple-system, sans-serif" font-size="11">
      Mar 25
    </text>
  
    <text x="499.3305439330544" y="360" text-anchor="middle"
          fill="#8b949e" font-family="system-ui, -apple-system, sans-serif" font-size="11">
      Apr 24
    </text>
  
    <text x="587.1966527196653" y="360" text-anchor="middle"
          fill="#8b949e" font-family="system-ui, -apple-system, sans-serif" font-size="11">
      May 24
    </text>
  
    <text x="675.0627615062762" y="360" text-anchor="middle"
          fill="#8b949e" font-family="system-ui, -apple-system, sans-serif" font-size="11">
      Jun 23
    </text>
  
    <text x="760" y="360" text-anchor="middle"
          fill="#8b949e" font-family="system-ui, -apple-system, sans-serif" font-size="11">
      Jul 22
    </text>
  

  <!-- Area under line -->
  <path d="M 60 340
    L 60.00 340.00 L 62.93 339.82 L 65.86 339.51 L 68.79 339.22 L 71.72 338.66 L 74.64 338.07 L 77.57 337.61 L 80.50 337.18 L 83.43 336.79 L 86.36 336.34 L 89.29 335.84 L 92.22 335.30 L 95.15 334.82 L 98.08 334.30 L 101.00 333.92 L 103.93 333.53 L 106.86 332.99 L 109.79 332.64 L 112.72 332.14 L 115.65 331.58 L 118.58 331.15 L 121.51 330.79 L 124.44 330.57 L 127.36 330.38 L 130.29 330.02 L 133.22 329.77 L 136.15 329.23 L 139.08 329.01 L 142.01 328.73 L 144.94 328.37 L 147.87 328.13 L 150.79 327.88 L 153.72 327.61 L 156.65 327.43 L 159.58 327.27 L 162.51 327.03 L 165.44 326.74 L 168.37 326.47 L 171.30 326.13 L 174.23 325.76 L 177.15 325.42 L 180.08 325.01 L 183.01 324.61 L 185.94 324.20 L 188.87 323.76 L 191.80 323.34 L 194.73 322.86 L 197.66 322.43 L 200.59 322.06 L 203.51 321.77 L 206.44 321.37 L 209.37 320.90 L 212.30 320.48 L 215.23 319.98 L 218.16 319.37 L 221.09 318.91 L 224.02 318.53 L 226.95 318.17 L 229.87 317.74 L 232.80 317.24 L 235.73 316.68 L 238.66 316.10 L 241.59 315.53 L 244.52 315.04 L 247.45 314.55 L 250.38 314.12 L 253.31 313.67 L 256.23 313.18 L 259.16 312.57 L 262.09 312.11 L 265.02 311.70 L 267.95 311.25 L 270.88 310.82 L 273.81 310.36 L 276.74 309.87 L 279.67 309.36 L 282.59 308.92 L 285.52 308.54 L 288.45 308.12 L 291.38 307.67 L 294.31 307.25 L 297.24 306.70 L 300.17 306.23 L 303.10 305.78 L 306.03 305.40 L 308.95 305.04 L 311.88 304.67 L 314.81 304.24 L 317.74 303.79 L 320.67 303.24 L 323.60 302.80 L 326.53 302.44 L 329.46 302.06 L 332.38 301.71 L 335.31 301.27 L 338.24 300.82 L 341.17 299.83 L 344.10 297.85 L 347.03 295.49 L 349.96 293.34 L 352.89 292.25 L 355.82 290.61 L 358.74 289.52 L 361.67 288.56 L 364.60 287.63 L 367.53 286.75 L 370.46 285.37 L 373.39 284.29 L 376.32 282.89 L 379.25 282.61 L 382.18 282.57 L 385.10 282.52 L 388.03 282.48 L 390.96 282.43 L 393.89 282.38 L 396.82 282.36 L 399.75 282.30 L 402.68 282.23 L 405.61 282.19 L 408.54 282.17 L 411.46 282.10 L 414.39 280.31 L 417.32 277.51 L 420.25 275.64 L 423.18 273.46 L 426.11 271.22 L 429.04 269.46 L 431.97 267.49 L 434.90 264.49 L 437.82 260.45 L 440.75 257.81 L 443.68 254.67 L 446.61 251.17 L 449.54 248.37 L 452.47 245.32 L 455.40 242.62 L 458.33 239.95 L 461.26 237.28 L 464.18 233.64 L 467.11 230.00 L 470.04 226.96 L 472.97 224.42 L 475.90 221.95 L 478.83 218.67 L 481.76 216.12 L 484.69 213.61 L 487.62 211.25 L 490.54 209.04 L 493.47 206.77 L 496.40 204.83 L 499.33 202.82 L 502.26 200.76 L 505.19 198.60 L 508.12 196.60 L 511.05 194.78 L 513.97 191.48 L 516.90 188.71 L 519.83 186.06 L 522.76 183.51 L 525.69 179.48 L 528.62 176.93 L 531.55 174.73 L 534.48 172.12 L 537.41 168.28 L 540.33 165.52 L 543.26 163.19 L 546.19 161.22 L 549.12 159.34 L 552.05 157.82 L 554.98 156.11 L 557.91 154.71 L 560.84 153.06 L 563.77 150.69 L 566.69 148.65 L 569.62 146.87 L 572.55 145.34 L 575.48 143.76 L 578.41 142.43 L 581.34 140.18 L 584.27 138.27 L 587.20 136.37 L 590.13 134.80 L 593.05 133.36 L 595.98 132.08 L 598.91 129.89 L 601.84 128.11 L 604.77 126.49 L 607.70 124.94 L 610.63 123.58 L 613.56 122.27 L 616.49 121.07 L 619.41 119.91 L 622.34 118.86 L 625.27 117.54 L 628.20 116.12 L 631.13 114.82 L 634.06 112.79 L 636.99 111.32 L 639.92 109.91 L 642.85 108.68 L 645.77 107.23 L 648.70 105.45 L 651.63 103.88 L 654.56 102.47 L 657.49 100.95 L 660.42 98.84 L 663.35 97.11 L 666.28 95.25 L 669.21 93.41 L 672.13 91.68 L 675.06 89.99 L 677.99 88.21 L 680.92 86.60 L 683.85 85.20 L 686.78 83.90 L 689.71 82.52 L 692.64 81.17 L 695.56 79.96 L 698.49 78.74 L 701.42 77.58 L 704.35 76.42 L 707.28 75.27 L 710.21 74.25 L 713.14 73.06 L 716.07 71.84 L 719.00 70.45 L 721.92 69.10 L 724.85 67.90 L 727.78 66.85 L 730.71 65.76 L 733.64 64.77 L 736.57 63.63 L 739.50 62.51 L 742.43 61.44 L 745.36 60.35 L 748.28 59.18 L 751.21 58.05 L 754.14 56.94 L 757.07 55.98 L 760.00 55.00
    L 760 340
    Z" fill="url(#areaGradient)" class="area-path"/>

  <!-- Main line with glow -->
  <path d="M 60.00 340.00 L 62.93 339.82 L 65.86 339.51 L 68.79 339.22 L 71.72 338.66 L 74.64 338.07 L 77.57 337.61 L 80.50 337.18 L 83.43 336.79 L 86.36 336.34 L 89.29 335.84 L 92.22 335.30 L 95.15 334.82 L 98.08 334.30 L 101.00 333.92 L 103.93 333.53 L 106.86 332.99 L 109.79 332.64 L 112.72 332.14 L 115.65 331.58 L 118.58 331.15 L 121.51 330.79 L 124.44 330.57 L 127.36 330.38 L 130.29 330.02 L 133.22 329.77 L 136.15 329.23 L 139.08 329.01 L 142.01 328.73 L 144.94 328.37 L 147.87 328.13 L 150.79 327.88 L 153.72 327.61 L 156.65 327.43 L 159.58 327.27 L 162.51 327.03 L 165.44 326.74 L 168.37 326.47 L 171.30 326.13 L 174.23 325.76 L 177.15 325.42 L 180.08 325.01 L 183.01 324.61 L 185.94 324.20 L 188.87 323.76 L 191.80 323.34 L 194.73 322.86 L 197.66 322.43 L 200.59 322.06 L 203.51 321.77 L 206.44 321.37 L 209.37 320.90 L 212.30 320.48 L 215.23 319.98 L 218.16 319.37 L 221.09 318.91 L 224.02 318.53 L 226.95 318.17 L 229.87 317.74 L 232.80 317.24 L 235.73 316.68 L 238.66 316.10 L 241.59 315.53 L 244.52 315.04 L 247.45 314.55 L 250.38 314.12 L 253.31 313.67 L 256.23 313.18 L 259.16 312.57 L 262.09 312.11 L 265.02 311.70 L 267.95 311.25 L 270.88 310.82 L 273.81 310.36 L 276.74 309.87 L 279.67 309.36 L 282.59 308.92 L 285.52 308.54 L 288.45 308.12 L 291.38 307.67 L 294.31 307.25 L 297.24 306.70 L 300.17 306.23 L 303.10 305.78 L 306.03 305.40 L 308.95 305.04 L 311.88 304.67 L 314.81 304.24 L 317.74 303.79 L 320.67 303.24 L 323.60 302.80 L 326.53 302.44 L 329.46 302.06 L 332.38 301.71 L 335.31 301.27 L 338.24 300.82 L 341.17 299.83 L 344.10 297.85 L 347.03 295.49 L 349.96 293.34 L 352.89 292.25 L 355.82 290.61 L 358.74 289.52 L 361.67 288.56 L 364.60 287.63 L 367.53 286.75 L 370.46 285.37 L 373.39 284.29 L 376.32 282.89 L 379.25 282.61 L 382.18 282.57 L 385.10 282.52 L 388.03 282.48 L 390.96 282.43 L 393.89 282.38 L 396.82 282.36 L 399.75 282.30 L 402.68 282.23 L 405.61 282.19 L 408.54 282.17 L 411.46 282.10 L 414.39 280.31 L 417.32 277.51 L 420.25 275.64 L 423.18 273.46 L 426.11 271.22 L 429.04 269.46 L 431.97 267.49 L 434.90 264.49 L 437.82 260.45 L 440.75 257.81 L 443.68 254.67 L 446.61 251.17 L 449.54 248.37 L 452.47 245.32 L 455.40 242.62 L 458.33 239.95 L 461.26 237.28 L 464.18 233.64 L 467.11 230.00 L 470.04 226.96 L 472.97 224.42 L 475.90 221.95 L 478.83 218.67 L 481.76 216.12 L 484.69 213.61 L 487.62 211.25 L 490.54 209.04 L 493.47 206.77 L 496.40 204.83 L 499.33 202.82 L 502.26 200.76 L 505.19 198.60 L 508.12 196.60 L 511.05 194.78 L 513.97 191.48 L 516.90 188.71 L 519.83 186.06 L 522.76 183.51 L 525.69 179.48 L 528.62 176.93 L 531.55 174.73 L 534.48 172.12 L 537.41 168.28 L 540.33 165.52 L 543.26 163.19 L 546.19 161.22 L 549.12 159.34 L 552.05 157.82 L 554.98 156.11 L 557.91 154.71 L 560.84 153.06 L 563.77 150.69 L 566.69 148.65 L 569.62 146.87 L 572.55 145.34 L 575.48 143.76 L 578.41 142.43 L 581.34 140.18 L 584.27 138.27 L 587.20 136.37 L 590.13 134.80 L 593.05 133.36 L 595.98 132.08 L 598.91 129.89 L 601.84 128.11 L 604.77 126.49 L 607.70 124.94 L 610.63 123.58 L 613.56 122.27 L 616.49 121.07 L 619.41 119.91 L 622.34 118.86 L 625.27 117.54 L 628.20 116.12 L 631.13 114.82 L 634.06 112.79 L 636.99 111.32 L 639.92 109.91 L 642.85 108.68 L 645.77 107.23 L 648.70 105.45 L 651.63 103.88 L 654.56 102.47 L 657.49 100.95 L 660.42 98.84 L 663.35 97.11 L 666.28 95.25 L 669.21 93.41 L 672.13 91.68 L 675.06 89.99 L 677.99 88.21 L 680.92 86.60 L 683.85 85.20 L 686.78 83.90 L 689.71 82.52 L 692.64 81.17 L 695.56 79.96 L 698.49 78.74 L 701.42 77.58 L 704.35 76.42 L 707.28 75.27 L 710.21 74.25 L 713.14 73.06 L 716.07 71.84 L 719.00 70.45 L 721.92 69.10 L 724.85 67.90 L 727.78 66.85 L 730.71 65.76 L 733.64 64.77 L 736.57 63.63 L 739.50 62.51 L 742.43 61.44 L 745.36 60.35 L 748.28 59.18 L 751.21 58.05 L 754.14 56.94 L 757.07 55.98 L 760.00 55.00" fill="none" stroke="#3b82f6" stroke-width="3"
        stroke-linecap="round" stroke-linejoin="round" filter="url(#glow)" class="line-path"/>

  <!-- Data points -->
  
    <circle cx="60" cy="340" r="4" fill="#3b82f6" stroke="#0d1117" stroke-width="2" class="data-point"/>
  
    <circle cx="62.92887029288703" cy="339.8188112774248" r="4" fill="#3b82f6" stroke="#0d1117" stroke-width="2" class="data-point"/>
  
    <circle cx="65.85774058577405" cy="339.5106671914126" r="4" fill="#3b82f6" stroke="#0d1117" stroke-width="2" class="data-point"/>
  
    <circle cx="68.7866108786611" cy="339.2247094795933" r="4" fill="#3b82f6" stroke="#0d1117" stroke-width="2" class="data-point"/>
  
    <circle cx="71.71548117154812" cy="338.65649178498677" r="4" fill="#3b82f6" stroke="#0d1117" stroke-width="2" class="data-point"/>
  
    <circle cx="74.64435146443515" cy="338.06978544521957" r="4" fill="#3b82f6" stroke="#0d1117" stroke-width="2" class="data-point"/>
  
    <circle cx="77.57322175732217" cy="337.60756931620125" r="4" fill="#3b82f6" stroke="#0d1117" stroke-width="2" class="data-point"/>
  
    <circle cx="80.5020920502092" cy="337.17616759578414" r="4" fill="#3b82f6" stroke="#0d1117" stroke-width="2" class="data-point"/>
  
    <circle cx="83.43096234309624" cy="336.79283635278495" r="4" fill="#3b82f6" stroke="#0d1117" stroke-width="2" class="data-point"/>
  
    <circle cx="86.35983263598327" cy="336.34294598720714" r="4" fill="#3b82f6" stroke="#0d1117" stroke-width="2" class="data-point"/>
  
    <circle cx="89.2887029288703" cy="335.8412874151793" r="4" fill="#3b82f6" stroke="#0d1117" stroke-width="2" class="data-point"/>
  
    <circle cx="92.21757322175733" cy="335.303884129174" r="4" fill="#3b82f6" stroke="#0d1117" stroke-width="2" class="data-point"/>
  
    <circle cx="95.14644351464435" cy="334.81578389693067" r="4" fill="#3b82f6" stroke="#0d1117" stroke-width="2" class="data-point"/>
  
    <circle cx="98.07531380753139" cy="334.2968692560861" r="4" fill="#3b82f6" stroke="#0d1117" stroke-width="2" class="data-point"/>
  
    <circle cx="101.00418410041841" cy="333.9184683184631" r="4" fill="#3b82f6" stroke="#0d1117" stroke-width="2" class="data-point"/>
  
    <circle cx="103.93305439330544" cy="333.5265090410556" r="4" fill="#3b82f6" stroke="#0d1117" stroke-width="2" class="data-point"/>
  
    <circle cx="106.86192468619247" cy="332.99403606042654" r="4" fill="#3b82f6" stroke="#0d1117" stroke-width="2" class="data-point"/>
  
    <circle cx="109.7907949790795" cy="332.6378214969964" r="4" fill="#3b82f6" stroke="#0d1117" stroke-width="2" class="data-point"/>
  
    <circle cx="112.71966527196653" cy="332.1447909593769" r="4" fill="#3b82f6" stroke="#0d1117" stroke-width="2" class="data-point"/>
  
    <circle cx="115.64853556485355" cy="331.5753406884263" r="4" fill="#3b82f6" stroke="#0d1117" stroke-width="2" class="data-point"/>
  
    <circle cx="118.57740585774059" cy="331.14640412069735" r="4" fill="#3b82f6" stroke="#0d1117" stroke-width="2" class="data-point"/>
  
    <circle cx="121.50627615062761" cy="330.79388728629937" r="4" fill="#3b82f6" stroke="#0d1117" stroke-width="2" class="data-point"/>
  
    <circle cx="124.43514644351465" cy="330.5658606626503" r="4" fill="#3b82f6" stroke="#0d1117" stroke-width="2" class="data-point"/>
  
    <circle cx="127.36401673640168" cy="330.37604390566685" r="4" fill="#3b82f6" stroke="#0d1117" stroke-width="2" class="data-point"/>
  
    <circle cx="130.2928870292887" cy="330.0247596476129" r="4" fill="#3b82f6" stroke="#0d1117" stroke-width="2" class="data-point"/>
  
    <circle cx="133.22175732217573" cy="329.774546649771" r="4" fill="#3b82f6" stroke="#0d1117" stroke-width="2" class="data-point"/>
  
    <circle cx="136.15062761506277" cy="329.2260501766693" r="4" fill="#3b82f6" stroke="#0d1117" stroke-width="2" class="data-point"/>
  
    <circle cx="139.0794979079498" cy="329.01034931646075" r="4" fill="#3b82f6" stroke="#0d1117" stroke-width="2" class="data-point"/>
  
    <circle cx="142.00836820083683" cy="328.7317870627057" r="4" fill="#3b82f6" stroke="#0d1117" stroke-width="2" class="data-point"/>
  
    <circle cx="144.93723849372384" cy="328.37187477024344" r="4" fill="#3b82f6" stroke="#0d1117" stroke-width="2" class="data-point"/>
  
    <circle cx="147.86610878661088" cy="328.1253595014337" r="4" fill="#3b82f6" stroke="#0d1117" stroke-width="2" class="data-point"/>
  
    <circle cx="150.79497907949792" cy="327.8751465035918" r="4" fill="#3b82f6" stroke="#0d1117" stroke-width="2" class="data-point"/>
  
    <circle cx="153.72384937238493" cy="327.61260774230936" r="4" fill="#3b82f6" stroke="#0d1117" stroke-width="2" class="data-point"/>
  
    <circle cx="156.65271966527195" cy="327.43018644339014" r="4" fill="#3b82f6" stroke="#0d1117" stroke-width="2" class="data-point"/>
  
    <circle cx="159.581589958159" cy="327.2724166713519" r="4" fill="#3b82f6" stroke="#0d1117" stroke-width="2" class="data-point"/>
  
    <circle cx="162.51046025104603" cy="327.0320642842624" r="4" fill="#3b82f6" stroke="#0d1117" stroke-width="2" class="data-point"/>
  
    <circle cx="165.43933054393307" cy="326.7399436907228" r="4" fill="#3b82f6" stroke="#0d1117" stroke-width="2" class="data-point"/>
  
    <circle cx="168.36820083682008" cy="326.4712420477202" r="4" fill="#3b82f6" stroke="#0d1117" stroke-width="2" class="data-point"/>
  
    <circle cx="171.2970711297071" cy="326.1310509767627" r="4" fill="#3b82f6" stroke="#0d1117" stroke-width="2" class="data-point"/>
  
    <circle cx="174.22594142259413" cy="325.760045497204" r="4" fill="#3b82f6" stroke="#0d1117" stroke-width="2" class="data-point"/>
  
    <circle cx="177.15481171548117" cy="325.4198544262465" r="4" fill="#3b82f6" stroke="#0d1117" stroke-width="2" class="data-point"/>
  
    <circle cx="180.0836820083682" cy="325.0094065036783" r="4" fill="#3b82f6" stroke="#0d1117" stroke-width="2" class="data-point"/>
  
    <circle cx="183.01255230125523" cy="324.6063540391743" r="4" fill="#3b82f6" stroke="#0d1117" stroke-width="2" class="data-point"/>
  
    <circle cx="185.94142259414224" cy="324.2033015746703" r="4" fill="#3b82f6" stroke="#0d1117" stroke-width="2" class="data-point"/>
  
    <circle cx="188.8702928870293" cy="323.76203924350085" r="4" fill="#3b82f6" stroke="#0d1117" stroke-width="2" class="data-point"/>
  
    <circle cx="191.79916317991632" cy="323.34049813383615" r="4" fill="#3b82f6" stroke="#0d1117" stroke-width="2" class="data-point"/>
  
    <circle cx="194.72803347280336" cy="322.85856078331307" r="4" fill="#3b82f6" stroke="#0d1117" stroke-width="2" class="data-point"/>
  
    <circle cx="197.65690376569037" cy="322.42839163924003" r="4" fill="#3b82f6" stroke="#0d1117" stroke-width="2" class="data-point"/>
  
    <circle cx="200.5857740585774" cy="322.06478161774567" r="4" fill="#3b82f6" stroke="#0d1117" stroke-width="2" class="data-point"/>
  
    <circle cx="203.51464435146445" cy="321.77389360055014" r="4" fill="#3b82f6" stroke="#0d1117" stroke-width="2" class="data-point"/>
  
    <circle cx="206.44351464435147" cy="321.367143407014" r="4" fill="#3b82f6" stroke="#0d1117" stroke-width="2" class="data-point"/>
  
    <circle cx="209.3723849372385" cy="320.9024621253076" r="4" fill="#3b82f6" stroke="#0d1117" stroke-width="2" class="data-point"/>
  
    <circle cx="212.30125523012552" cy="320.47722328661075" r="4" fill="#3b82f6" stroke="#0d1117" stroke-width="2" class="data-point"/>
  
    <circle cx="215.23012552301256" cy="319.9804950199591" r="4" fill="#3b82f6" stroke="#0d1117" stroke-width="2" class="data-point"/>
  
    <circle cx="218.15899581589957" cy="319.3679045769668" r="4" fill="#3b82f6" stroke="#0d1117" stroke-width="2" class="data-point"/>
  
    <circle cx="221.0878661087866" cy="318.91185132966876" r="4" fill="#3b82f6" stroke="#0d1117" stroke-width="2" class="data-point"/>
  
    <circle cx="224.01673640167365" cy="318.5334503920458" r="4" fill="#3b82f6" stroke="#0d1117" stroke-width="2" class="data-point"/>
  
    <circle cx="226.94560669456067" cy="318.17353809958354" r="4" fill="#3b82f6" stroke="#0d1117" stroke-width="2" class="data-point"/>
  
    <circle cx="229.8744769874477" cy="317.7409038028224" r="4" fill="#3b82f6" stroke="#0d1117" stroke-width="2" class="data-point"/>
  
    <circle cx="232.80334728033472" cy="317.2380126544505" r="4" fill="#3b82f6" stroke="#0d1117" stroke-width="2" class="data-point"/>
  
    <circle cx="235.73221757322176" cy="316.6808881469404" r="4" fill="#3b82f6" stroke="#0d1117" stroke-width="2" class="data-point"/>
  
    <circle cx="238.66108786610877" cy="316.0954143835172" r="4" fill="#3b82f6" stroke="#0d1117" stroke-width="2" class="data-point"/>
  
    <circle cx="241.5899581589958" cy="315.533359570631" r="4" fill="#3b82f6" stroke="#0d1117" stroke-width="2" class="data-point"/>
  
    <circle cx="244.51882845188285" cy="315.0390964566674" r="4" fill="#3b82f6" stroke="#0d1117" stroke-width="2" class="data-point"/>
  
    <circle cx="247.44769874476987" cy="314.54853107173597" r="4" fill="#3b82f6" stroke="#0d1117" stroke-width="2" class="data-point"/>
  
    <circle cx="250.3765690376569" cy="314.11589677497483" r="4" fill="#3b82f6" stroke="#0d1117" stroke-width="2" class="data-point"/>
  
    <circle cx="253.30543933054392" cy="313.6746344438053" r="4" fill="#3b82f6" stroke="#0d1117" stroke-width="2" class="data-point"/>
  
    <circle cx="256.23430962343093" cy="313.1816039061858" r="4" fill="#3b82f6" stroke="#0d1117" stroke-width="2" class="data-point"/>
  
    <circle cx="259.163179916318" cy="312.5677808868495" r="4" fill="#3b82f6" stroke="#0d1117" stroke-width="2" class="data-point"/>
  
    <circle cx="262.092050209205" cy="312.1104950632074" r="4" fill="#3b82f6" stroke="#0d1117" stroke-width="2" class="data-point"/>
  
    <circle cx="265.02092050209205" cy="311.70127971698315" r="4" fill="#3b82f6" stroke="#0d1117" stroke-width="2" class="data-point"/>
  
    <circle cx="267.9497907949791" cy="311.24645904602914" r="4" fill="#3b82f6" stroke="#0d1117" stroke-width="2" class="data-point"/>
  
    <circle cx="270.87866108786613" cy="310.82245278367634" r="4" fill="#3b82f6" stroke="#0d1117" stroke-width="2" class="data-point"/>
  
    <circle cx="273.8075313807532" cy="310.3565389256259" r="4" fill="#3b82f6" stroke="#0d1117" stroke-width="2" class="data-point"/>
  
    <circle cx="276.73640167364016" cy="309.8709038460707" r="4" fill="#3b82f6" stroke="#0d1117" stroke-width="2" class="data-point"/>
  
    <circle cx="279.6652719665272" cy="309.36308239232255" r="4" fill="#3b82f6" stroke="#0d1117" stroke-width="2" class="data-point"/>
  
    <circle cx="282.5941422594142" cy="308.91812233212096" r="4" fill="#3b82f6" stroke="#0d1117" stroke-width="2" class="data-point"/>
  
    <circle cx="285.5230125523012" cy="308.53725624180987" r="4" fill="#3b82f6" stroke="#0d1117" stroke-width="2" class="data-point"/>
  
    <circle cx="288.45188284518827" cy="308.1194128611773" r="4" fill="#3b82f6" stroke="#0d1117" stroke-width="2" class="data-point"/>
  
    <circle cx="291.3807531380753" cy="307.6670573429114" r="4" fill="#3b82f6" stroke="#0d1117" stroke-width="2" class="data-point"/>
  
    <circle cx="294.30962343096235" cy="307.2479813859348" r="4" fill="#3b82f6" stroke="#0d1117" stroke-width="2" class="data-point"/>
  
    <circle cx="297.2384937238494" cy="306.70195006552115" r="4" fill="#3b82f6" stroke="#0d1117" stroke-width="2" class="data-point"/>
  
    <circle cx="300.1673640167364" cy="306.2323384784386" r="4" fill="#3b82f6" stroke="#0d1117" stroke-width="2" class="data-point"/>
  
    <circle cx="303.09623430962347" cy="305.7799829601727" r="4" fill="#3b82f6" stroke="#0d1117" stroke-width="2" class="data-point"/>
  
    <circle cx="306.02510460251045" cy="305.40404717523774" r="4" fill="#3b82f6" stroke="#0d1117" stroke-width="2" class="data-point"/>
  
    <circle cx="308.95397489539744" cy="305.0392045773993" r="4" fill="#3b82f6" stroke="#0d1117" stroke-width="2" class="data-point"/>
  
    <circle cx="311.8828451882845" cy="304.6731294032168" r="4" fill="#3b82f6" stroke="#0d1117" stroke-width="2" class="data-point"/>
  
    <circle cx="314.8117154811715" cy="304.2355648010795" r="4" fill="#3b82f6" stroke="#0d1117" stroke-width="2" class="data-point"/>
  
    <circle cx="317.7405857740586" cy="303.7856744355017" r="4" fill="#3b82f6" stroke="#0d1117" stroke-width="2" class="data-point"/>
  
    <circle cx="320.6694560669456" cy="303.23964311508803" r="4" fill="#3b82f6" stroke="#0d1117" stroke-width="2" class="data-point"/>
  
    <circle cx="323.59832635983264" cy="302.7971482075745" r="4" fill="#3b82f6" stroke="#0d1117" stroke-width="2" class="data-point"/>
  
    <circle cx="326.5271966527197" cy="302.4360033387682" r="4" fill="#3b82f6" stroke="#0d1117" stroke-width="2" class="data-point"/>
  
    <circle cx="329.4560669456067" cy="302.0649978592095" r="4" fill="#3b82f6" stroke="#0d1117" stroke-width="2" class="data-point"/>
  
    <circle cx="332.38493723849376" cy="301.71001587212345" r="4" fill="#3b82f6" stroke="#0d1117" stroke-width="2" class="data-point"/>
  
    <circle cx="335.31380753138075" cy="301.2712186936421" r="4" fill="#3b82f6" stroke="#0d1117" stroke-width="2" class="data-point"/>
  
    <circle cx="338.2426778242678" cy="300.8213283280643" r="4" fill="#3b82f6" stroke="#0d1117" stroke-width="2" class="data-point"/>
  
    <circle cx="341.1715481171548" cy="299.82663921841686" r="4" fill="#3b82f6" stroke="#0d1117" stroke-width="2" class="data-point"/>
  
    <circle cx="344.10041841004187" cy="297.8471216098744" r="4" fill="#3b82f6" stroke="#0d1117" stroke-width="2" class="data-point"/>
  
    <circle cx="347.0292887029289" cy="295.48920306370906" r="4" fill="#3b82f6" stroke="#0d1117" stroke-width="2" class="data-point"/>
  
    <circle cx="349.9581589958159" cy="293.340822496032" r="4" fill="#3b82f6" stroke="#0d1117" stroke-width="2" class="data-point"/>
  
    <circle cx="352.88702928870293" cy="292.2512250078928" r="4" fill="#3b82f6" stroke="#0d1117" stroke-width="2" class="data-point"/>
  
    <circle cx="355.81589958159" cy="290.6094333176198" r="4" fill="#3b82f6" stroke="#0d1117" stroke-width="2" class="data-point"/>
  
    <circle cx="358.744769874477" cy="289.5186032531366" r="4" fill="#3b82f6" stroke="#0d1117" stroke-width="2" class="data-point"/>
  
    <circle cx="361.673640167364" cy="288.5621240101547" r="4" fill="#3b82f6" stroke="#0d1117" stroke-width="2" class="data-point"/>
  
    <circle cx="364.60251046025104" cy="287.62659856502165" r="4" fill="#3b82f6" stroke="#0d1117" stroke-width="2" class="data-point"/>
  
    <circle cx="367.5313807531381" cy="286.74530647902674" r="4" fill="#3b82f6" stroke="#0d1117" stroke-width="2" class="data-point"/>
  
    <circle cx="370.4602510460251" cy="285.3746815844445" r="4" fill="#3b82f6" stroke="#0d1117" stroke-width="2" class="data-point"/>
  
    <circle cx="373.38912133891216" cy="284.2850840963053" r="4" fill="#3b82f6" stroke="#0d1117" stroke-width="2" class="data-point"/>
  
    <circle cx="376.31799163179915" cy="282.8922728275301" r="4" fill="#3b82f6" stroke="#0d1117" stroke-width="2" class="data-point"/>
  
    <circle cx="379.2468619246862" cy="282.6075476920549" r="4" fill="#3b82f6" stroke="#0d1117" stroke-width="2" class="data-point"/>
  
    <circle cx="382.1757322175732" cy="282.5705704017334" r="4" fill="#3b82f6" stroke="#0d1117" stroke-width="2" class="data-point"/>
  
    <circle cx="385.10460251046027" cy="282.52249992431547" r="4" fill="#3b82f6" stroke="#0d1117" stroke-width="2" class="data-point"/>
  
    <circle cx="388.0334728033473" cy="282.48182490496185" r="4" fill="#3b82f6" stroke="#0d1117" stroke-width="2" class="data-point"/>
  
    <circle cx="390.9623430962343" cy="282.4288241221678" r="4" fill="#3b82f6" stroke="#0d1117" stroke-width="2" class="data-point"/>
  
    <circle cx="393.89121338912133" cy="282.38198622109394" r="4" fill="#3b82f6" stroke="#0d1117" stroke-width="2" class="data-point"/>
  
    <circle cx="396.8200836820084" cy="282.3634975759332" r="4" fill="#3b82f6" stroke="#0d1117" stroke-width="2" class="data-point"/>
  
    <circle cx="399.7489539748954" cy="282.2957058770105" r="4" fill="#3b82f6" stroke="#0d1117" stroke-width="2" class="data-point"/>
  
    <circle cx="402.67782426778246" cy="282.2303793307759" r="4" fill="#3b82f6" stroke="#0d1117" stroke-width="2" class="data-point"/>
  
    <circle cx="405.60669456066944" cy="282.1872391587342" r="4" fill="#3b82f6" stroke="#0d1117" stroke-width="2" class="data-point"/>
  
    <circle cx="408.5355648535565" cy="282.17121566626156" r="4" fill="#3b82f6" stroke="#0d1117" stroke-width="2" class="data-point"/>
  
    <circle cx="411.4644351464435" cy="282.0984936619627" r="4" fill="#3b82f6" stroke="#0d1117" stroke-width="2" class="data-point"/>
  
    <circle cx="414.39330543933056" cy="280.3112579630919" r="4" fill="#3b82f6" stroke="#0d1117" stroke-width="2" class="data-point"/>
  
    <circle cx="417.32217573221754" cy="277.512077085757" r="4" fill="#3b82f6" stroke="#0d1117" stroke-width="2" class="data-point"/>
  
    <circle cx="420.2510460251046" cy="275.63732846645877" r="4" fill="#3b82f6" stroke="#0d1117" stroke-width="2" class="data-point"/>
  
    <circle cx="423.1799163179916" cy="273.4605986428686" r="4" fill="#3b82f6" stroke="#0d1117" stroke-width="2" class="data-point"/>
  
    <circle cx="426.10878661087867" cy="271.2173096966997" r="4" fill="#3b82f6" stroke="#0d1117" stroke-width="2" class="data-point"/>
  
    <circle cx="429.0376569037657" cy="269.457190677398" r="4" fill="#3b82f6" stroke="#0d1117" stroke-width="2" class="data-point"/>
  
    <circle cx="431.9665271966527" cy="267.48876625595204" r="4" fill="#3b82f6" stroke="#0d1117" stroke-width="2" class="data-point"/>
  
    <circle cx="434.89539748953973" cy="264.48990801088127" r="4" fill="#3b82f6" stroke="#0d1117" stroke-width="2" class="data-point"/>
  
    <circle cx="437.8242677824268" cy="260.4482901787452" r="4" fill="#3b82f6" stroke="#0d1117" stroke-width="2" class="data-point"/>
  
    <circle cx="440.7531380753138" cy="257.81057680248074" r="4" fill="#3b82f6" stroke="#0d1117" stroke-width="2" class="data-point"/>
  
    <circle cx="443.68200836820085" cy="254.67120485418837" r="4" fill="#3b82f6" stroke="#0d1117" stroke-width="2" class="data-point"/>
  
    <circle cx="446.61087866108784" cy="251.17315318977785" r="4" fill="#3b82f6" stroke="#0d1117" stroke-width="2" class="data-point"/>
  
    <circle cx="449.5397489539749" cy="248.36780943072273" r="4" fill="#3b82f6" stroke="#0d1117" stroke-width="2" class="data-point"/>
  
    <circle cx="452.4686192468619" cy="245.32334586092213" r="4" fill="#3b82f6" stroke="#0d1117" stroke-width="2" class="data-point"/>
  
    <circle cx="455.39748953974896" cy="242.6227710911112" r="4" fill="#3b82f6" stroke="#0d1117" stroke-width="2" class="data-point"/>
  
    <circle cx="458.326359832636" cy="239.9468478481812" r="4" fill="#3b82f6" stroke="#0d1117" stroke-width="2" class="data-point"/>
  
    <circle cx="461.255230125523" cy="237.2783200633155" r="4" fill="#3b82f6" stroke="#0d1117" stroke-width="2" class="data-point"/>
  
    <circle cx="464.18410041841" cy="233.6446850010596" r="4" fill="#3b82f6" stroke="#0d1117" stroke-width="2" class="data-point"/>
  
    <circle cx="467.11297071129707" cy="229.9999567517072" r="4" fill="#3b82f6" stroke="#0d1117" stroke-width="2" class="data-point"/>
  
    <circle cx="470.0418410041841" cy="226.9616560636269" r="4" fill="#3b82f6" stroke="#0d1117" stroke-width="2" class="data-point"/>
  
    <circle cx="472.97071129707115" cy="224.41515333682202" r="4" fill="#3b82f6" stroke="#0d1117" stroke-width="2" class="data-point"/>
  
    <circle cx="475.89958158995813" cy="221.9450703433482" r="4" fill="#3b82f6" stroke="#0d1117" stroke-width="2" class="data-point"/>
  
    <circle cx="478.8284518828452" cy="218.66641726817835" r="4" fill="#3b82f6" stroke="#0d1117" stroke-width="2" class="data-point"/>
  
    <circle cx="481.7573221757322" cy="216.12361227040563" r="4" fill="#3b82f6" stroke="#0d1117" stroke-width="2" class="data-point"/>
  
    <circle cx="484.68619246861925" cy="213.607923952202" r="4" fill="#3b82f6" stroke="#0d1117" stroke-width="2" class="data-point"/>
  
    <circle cx="487.6150627615063" cy="211.2549357114128" r="4" fill="#3b82f6" stroke="#0d1117" stroke-width="2" class="data-point"/>
  
    <circle cx="490.5439330543933" cy="209.03876344481301" r="4" fill="#3b82f6" stroke="#0d1117" stroke-width="2" class="data-point"/>
  
    <circle cx="493.4728033472803" cy="206.76835781907508" r="4" fill="#3b82f6" stroke="#0d1117" stroke-width="2" class="data-point"/>
  
    <circle cx="496.40167364016736" cy="204.8270500771982" r="4" fill="#3b82f6" stroke="#0d1117" stroke-width="2" class="data-point"/>
  
    <circle cx="499.3305439330544" cy="202.8167180600546" r="4" fill="#3b82f6" stroke="#0d1117" stroke-width="2" class="data-point"/>
  
    <circle cx="502.25941422594144" cy="200.7644784472133" r="4" fill="#3b82f6" stroke="#0d1117" stroke-width="2" class="data-point"/>
  
    <circle cx="505.1882845188284" cy="198.59514408168738" r="4" fill="#3b82f6" stroke="#0d1117" stroke-width="2" class="data-point"/>
  
    <circle cx="508.11715481171547" cy="196.60453328604854" r="4" fill="#3b82f6" stroke="#0d1117" stroke-width="2" class="data-point"/>
  
    <circle cx="511.0460251046025" cy="194.78155287320035" r="4" fill="#3b82f6" stroke="#0d1117" stroke-width="2" class="data-point"/>
  
    <circle cx="513.9748953974895" cy="191.47824827114948" r="4" fill="#3b82f6" stroke="#0d1117" stroke-width="2" class="data-point"/>
  
    <circle cx="516.9037656903765" cy="188.713579531448" r="4" fill="#3b82f6" stroke="#0d1117" stroke-width="2" class="data-point"/>
  
    <circle cx="519.8326359832636" cy="186.05861008636683" r="4" fill="#3b82f6" stroke="#0d1117" stroke-width="2" class="data-point"/>
  
    <circle cx="522.7615062761506" cy="183.50840963052983" r="4" fill="#3b82f6" stroke="#0d1117" stroke-width="2" class="data-point"/>
  
    <circle cx="525.6903765690377" cy="179.48158271452235" r="4" fill="#3b82f6" stroke="#0d1117" stroke-width="2" class="data-point"/>
  
    <circle cx="528.6192468619247" cy="176.93384741137345" r="4" fill="#3b82f6" stroke="#0d1117" stroke-width="2" class="data-point"/>
  
    <circle cx="531.5481171548117" cy="174.7287683318701" r="4" fill="#3b82f6" stroke="#0d1117" stroke-width="2" class="data-point"/>
  
    <circle cx="534.4769874476988" cy="172.12433451689495" r="4" fill="#3b82f6" stroke="#0d1117" stroke-width="2" class="data-point"/>
  
    <circle cx="537.4058577405858" cy="168.2848592051829" r="4" fill="#3b82f6" stroke="#0d1117" stroke-width="2" class="data-point"/>
  
    <circle cx="540.3347280334729" cy="165.52265561816947" r="4" fill="#3b82f6" stroke="#0d1117" stroke-width="2" class="data-point"/>
  
    <circle cx="543.2635983263598" cy="163.1906211752291" r="4" fill="#3b82f6" stroke="#0d1117" stroke-width="2" class="data-point"/>
  
    <circle cx="546.1924686192469" cy="161.21726644840695" r="4" fill="#3b82f6" stroke="#0d1117" stroke-width="2" class="data-point"/>
  
    <circle cx="549.1213389121339" cy="159.34498298179682" r="4" fill="#3b82f6" stroke="#0d1117" stroke-width="2" class="data-point"/>
  
    <circle cx="552.0502092050209" cy="157.8227511968965" r="4" fill="#3b82f6" stroke="#0d1117" stroke-width="2" class="data-point"/>
  
    <circle cx="554.979079497908" cy="156.10823750232458" r="4" fill="#3b82f6" stroke="#0d1117" stroke-width="2" class="data-point"/>
  
    <circle cx="557.9079497907949" cy="154.71049592817323" r="4" fill="#3b82f6" stroke="#0d1117" stroke-width="2" class="data-point"/>
  
    <circle cx="560.836820083682" cy="153.0613087798359" r="4" fill="#3b82f6" stroke="#0d1117" stroke-width="2" class="data-point"/>
  
    <circle cx="563.765690376569" cy="150.6873667411979" r="4" fill="#3b82f6" stroke="#0d1117" stroke-width="2" class="data-point"/>
  
    <circle cx="566.694560669456" cy="148.6474528917971" r="4" fill="#3b82f6" stroke="#0d1117" stroke-width="2" class="data-point"/>
  
    <circle cx="569.623430962343" cy="146.87377553271082" r="4" fill="#3b82f6" stroke="#0d1117" stroke-width="2" class="data-point"/>
  
    <circle cx="572.5523012552301" cy="145.34045056071412" r="4" fill="#3b82f6" stroke="#0d1117" stroke-width="2" class="data-point"/>
  
    <circle cx="575.4811715481172" cy="143.7590551112995" r="4" fill="#3b82f6" stroke="#0d1117" stroke-width="2" class="data-point"/>
  
    <circle cx="578.4100418410042" cy="142.42540750703867" r="4" fill="#3b82f6" stroke="#0d1117" stroke-width="2" class="data-point"/>
  
    <circle cx="581.3389121338912" cy="140.18335113721386" r="4" fill="#3b82f6" stroke="#0d1117" stroke-width="2" class="data-point"/>
  
    <circle cx="584.2677824267782" cy="138.26669492221794" r="4" fill="#3b82f6" stroke="#0d1117" stroke-width="2" class="data-point"/>
  
    <circle cx="587.1966527196653" cy="136.36606219969465" r="4" fill="#3b82f6" stroke="#0d1117" stroke-width="2" class="data-point"/>
  
    <circle cx="590.1255230125523" cy="134.79699251372054" r="4" fill="#3b82f6" stroke="#0d1117" stroke-width="2" class="data-point"/>
  
    <circle cx="593.0543933054394" cy="133.3573433438715" r="4" fill="#3b82f6" stroke="#0d1117" stroke-width="2" class="data-point"/>
  
    <circle cx="595.9832635983264" cy="132.07916167509288" r="4" fill="#3b82f6" stroke="#0d1117" stroke-width="2" class="data-point"/>
  
    <circle cx="598.9121338912134" cy="129.8876409353741" r="4" fill="#3b82f6" stroke="#0d1117" stroke-width="2" class="data-point"/>
  
    <circle cx="601.8410041841004" cy="128.10780069456757" r="4" fill="#3b82f6" stroke="#0d1117" stroke-width="2" class="data-point"/>
  
    <circle cx="604.7698744769875" cy="126.48573022579933" r="4" fill="#3b82f6" stroke="#0d1117" stroke-width="2" class="data-point"/>
  
    <circle cx="607.6987447698745" cy="124.93638176132995" r="4" fill="#3b82f6" stroke="#0d1117" stroke-width="2" class="data-point"/>
  
    <circle cx="610.6276150627615" cy="123.58424551190842" r="4" fill="#3b82f6" stroke="#0d1117" stroke-width="2" class="data-point"/>
  
    <circle cx="613.5564853556485" cy="122.27155170549642" r="4" fill="#3b82f6" stroke="#0d1117" stroke-width="2" class="data-point"/>
  
    <circle cx="616.4853556485356" cy="121.0685571937048" r="4" fill="#3b82f6" stroke="#0d1117" stroke-width="2" class="data-point"/>
  
    <circle cx="619.4142259414226" cy="119.91486573567508" r="4" fill="#3b82f6" stroke="#0d1117" stroke-width="2" class="data-point"/>
  
    <circle cx="622.3430962343097" cy="118.8573152324812" r="4" fill="#3b82f6" stroke="#0d1117" stroke-width="2" class="data-point"/>
  
    <circle cx="625.2719665271967" cy="117.53722596800492" r="4" fill="#3b82f6" stroke="#0d1117" stroke-width="2" class="data-point"/>
  
    <circle cx="628.2008368200837" cy="116.11976317234877" r="4" fill="#3b82f6" stroke="#0d1117" stroke-width="2" class="data-point"/>
  
    <circle cx="631.1297071129707" cy="114.81569740034513" r="4" fill="#3b82f6" stroke="#0d1117" stroke-width="2" class="data-point"/>
  
    <circle cx="634.0585774058578" cy="112.78934189072888" r="4" fill="#3b82f6" stroke="#0d1117" stroke-width="2" class="data-point"/>
  
    <circle cx="636.9874476987447" cy="111.3188783122786" r="4" fill="#3b82f6" stroke="#0d1117" stroke-width="2" class="data-point"/>
  
    <circle cx="639.9163179916318" cy="109.91250870371891" r="4" fill="#3b82f6" stroke="#0d1117" stroke-width="2" class="data-point"/>
  
    <circle cx="642.8451882845188" cy="108.67869978332604" r="4" fill="#3b82f6" stroke="#0d1117" stroke-width="2" class="data-point"/>
  
    <circle cx="645.7740585774059" cy="107.23165515541274" r="4" fill="#3b82f6" stroke="#0d1117" stroke-width="2" class="data-point"/>
  
    <circle cx="648.7029288702929" cy="105.45428006729435" r="4" fill="#3b82f6" stroke="#0d1117" stroke-width="2" class="data-point"/>
  
    <circle cx="651.63179916318" cy="103.87904749959995" r="4" fill="#3b82f6" stroke="#0d1117" stroke-width="2" class="data-point"/>
  
    <circle cx="654.560669456067" cy="102.47267789104023" r="4" fill="#3b82f6" stroke="#0d1117" stroke-width="2" class="data-point"/>
  
    <circle cx="657.489539748954" cy="100.94551580076376" r="4" fill="#3b82f6" stroke="#0d1117" stroke-width="2" class="data-point"/>
  
    <circle cx="660.418410041841" cy="98.83904282878433" r="4" fill="#3b82f6" stroke="#0d1117" stroke-width="2" class="data-point"/>
  
    <circle cx="663.347280334728" cy="97.10973821808383" r="4" fill="#3b82f6" stroke="#0d1117" stroke-width="2" class="data-point"/>
  
    <circle cx="666.276150627615" cy="95.25471082029037" r="4" fill="#3b82f6" stroke="#0d1117" stroke-width="2" class="data-point"/>
  
    <circle cx="669.2050209205021" cy="93.40584630421716" r="4" fill="#3b82f6" stroke="#0d1117" stroke-width="2" class="data-point"/>
  
    <circle cx="672.1338912133891" cy="91.68393715158095" r="4" fill="#3b82f6" stroke="#0d1117" stroke-width="2" class="data-point"/>
  
    <circle cx="675.0627615062762" cy="89.99407498389002" r="4" fill="#3b82f6" stroke="#0d1117" stroke-width="2" class="data-point"/>
  
    <circle cx="677.9916317991632" cy="88.20560670867519" r="4" fill="#3b82f6" stroke="#0d1117" stroke-width="2" class="data-point"/>
  
    <circle cx="680.9205020920502" cy="86.60202488506766" r="4" fill="#3b82f6" stroke="#0d1117" stroke-width="2" class="data-point"/>
  
    <circle cx="683.8493723849373" cy="85.19688785285203" r="4" fill="#3b82f6" stroke="#0d1117" stroke-width="2" class="data-point"/>
  
    <circle cx="686.7782426778243" cy="83.89528723353646" r="4" fill="#3b82f6" stroke="#0d1117" stroke-width="2" class="data-point"/>
  
    <circle cx="689.7071129707113" cy="82.51849945723393" r="4" fill="#3b82f6" stroke="#0d1117" stroke-width="2" class="data-point"/>
  
    <circle cx="692.6359832635983" cy="81.1749912422207" r="4" fill="#3b82f6" stroke="#0d1117" stroke-width="2" class="data-point"/>
  
    <circle cx="695.5648535564853" cy="79.96090354333262" r="4" fill="#3b82f6" stroke="#0d1117" stroke-width="2" class="data-point"/>
  
    <circle cx="698.4937238493724" cy="78.74435069175644" r="4" fill="#3b82f6" stroke="#0d1117" stroke-width="2" class="data-point"/>
  
    <circle cx="701.4225941422594" cy="77.5795660466303" r="4" fill="#3b82f6" stroke="#0d1117" stroke-width="2" class="data-point"/>
  
    <circle cx="704.3514644351465" cy="76.42217685956848" r="4" fill="#3b82f6" stroke="#0d1117" stroke-width="2" class="data-point"/>
  
    <circle cx="707.2803347280335" cy="75.26725282519476" r="4" fill="#3b82f6" stroke="#0d1117" stroke-width="2" class="data-point"/>
  
    <circle cx="710.2092050209205" cy="74.24791218866636" r="4" fill="#3b82f6" stroke="#0d1117" stroke-width="2" class="data-point"/>
  
    <circle cx="713.1380753138076" cy="73.06217374569138" r="4" fill="#3b82f6" stroke="#0d1117" stroke-width="2" class="data-point"/>
  
    <circle cx="716.0669456066946" cy="71.83945801239497" r="4" fill="#3b82f6" stroke="#0d1117" stroke-width="2" class="data-point"/>
  
    <circle cx="718.9958158995815" cy="70.4466467436198" r="4" fill="#3b82f6" stroke="#0d1117" stroke-width="2" class="data-point"/>
  
    <circle cx="721.9246861924686" cy="69.10437110495064" r="4" fill="#3b82f6" stroke="#0d1117" stroke-width="2" class="data-point"/>
  
    <circle cx="724.8535564853556" cy="67.90260916950302" r="4" fill="#3b82f6" stroke="#0d1117" stroke-width="2" class="data-point"/>
  
    <circle cx="727.7824267782427" cy="66.84752381899727" r="4" fill="#3b82f6" stroke="#0d1117" stroke-width="2" class="data-point"/>
  
    <circle cx="730.7112970711297" cy="65.7591589072021" r="4" fill="#3b82f6" stroke="#0d1117" stroke-width="2" class="data-point"/>
  
    <circle cx="733.6401673640167" cy="64.77063267927497" r="4" fill="#3b82f6" stroke="#0d1117" stroke-width="2" class="data-point"/>
  
    <circle cx="736.5690376569038" cy="63.629266984685785" r="4" fill="#3b82f6" stroke="#0d1117" stroke-width="2" class="data-point"/>
  
    <circle cx="739.4979079497908" cy="62.51008766428947" r="4" fill="#3b82f6" stroke="#0d1117" stroke-width="2" class="data-point"/>
  
    <circle cx="742.4267782426779" cy="61.438978821311025" r="4" fill="#3b82f6" stroke="#0d1117" stroke-width="2" class="data-point"/>
  
    <circle cx="745.3556485355649" cy="60.34938133317189" r="4" fill="#3b82f6" stroke="#0d1117" stroke-width="2" class="data-point"/>
  
    <circle cx="748.2845188284518" cy="59.17966638266955" r="4" fill="#3b82f6" stroke="#0d1117" stroke-width="2" class="data-point"/>
  
    <circle cx="751.2133891213389" cy="58.049393875176804" r="4" fill="#3b82f6" stroke="#0d1117" stroke-width="2" class="data-point"/>
  
    <circle cx="754.1422594142259" cy="56.938842589188766" r="4" fill="#3b82f6" stroke="#0d1117" stroke-width="2" class="data-point"/>
  
    <circle cx="757.071129707113" cy="55.98113076986283" r="4" fill="#3b82f6" stroke="#0d1117" stroke-width="2" class="data-point"/>
  
    <circle cx="760" cy="55" r="4" fill="#3b82f6" stroke="#0d1117" stroke-width="2" class="data-point"/>
  

  <!-- Axis lines -->
  <line x1="60" y1="55" x2="60" y2="340"
        stroke="#30363d" stroke-width="2"/>
  <line x1="60" y1="340" x2="760" y2="340"
        stroke="#30363d" stroke-width="2"/>
</svg>