<?xml version="1.0" encoding="UTF-8"?>
<svg width="800" height="400" xmlns="http://www.w3.org/2000/svg">
  <defs>
    <!-- Gradient for area fill -->
    <linearGradient id="areaGradient" x1="0%" y1="0%" x2="0%" y2="100%">
      <stop offset="0%" style="stop-color:#3b82f6;stop-opacity:0.3" />
      <stop offset="100%" style="stop-color:#3b82f6;stop-opacity:0.05" />
    </linearGradient>

    <!-- Glow filter for line -->
    <filter id="glow">
      <feGaussianBlur stdDeviation="2" result="coloredBlur"/>
      <feMerge>
        <feMergeNode in="coloredBlur"/>
        <feMergeNode in="SourceGraphic"/>
      </feMerge>
    </filter>

    <!-- Animation -->
    <style>
      @keyframes draw {
        from { stroke-dashoffset: 2000; }
        to { stroke-dashoffset: 0; }
      }
      @keyframes fadeIn {
        from { opacity: 0; }
        to { opacity: 1; }
      }
      .line-path {
        stroke-dasharray: 2000;
        stroke-dashoffset: 2000;
        animation: draw 1.5s ease-out forwards;
      }
      .area-path {
        opacity: 0;
        animation: fadeIn 1s ease-out 0.5s forwards;
      }
      .data-point {
        opacity: 0;
        animation: fadeIn 0.5s ease-out 1s forwards;
      }
    </style>
  </defs>

  <!-- Background -->
  <rect width="800" height="400" fill="#0d1117" rx="8"/>

  <!-- Title -->
  <text x="400" y="25" text-anchor="middle" fill="#c9d1d9" font-family="system-ui, -apple-system, sans-serif" font-size="16" font-weight="600">
    zxcloli666/SoundCloud-Desktop Downloads
  </text>

  <!-- Stats -->
  <text x="780" y="25" text-anchor="end" fill="#58a6ff" font-family="system-ui, -apple-system, sans-serif" font-size="14" font-weight="600">
    178.0K total
  </text>
  <text x="780" y="42" text-anchor="end" fill="#3fb950" font-family="system-ui, -apple-system, sans-serif" font-size="12">
    +1.5K (+0.8%)
  </text>

  <!-- Grid lines -->
  <g opacity="0.1">
    
      <line x1="60" y1="340" x2="760" y2="340"
            stroke="#c9d1d9" stroke-width="1"/>
    
      <line x1="60" y1="268.75" x2="760" y2="268.75"
            stroke="#c9d1d9" stroke-width="1"/>
    
      <line x1="60" y1="197.5" x2="760" y2="197.5"
            stroke="#c9d1d9" stroke-width="1"/>
    
      <line x1="60" y1="126.25" x2="760" y2="126.25"
            stroke="#c9d1d9" stroke-width="1"/>
    
      <line x1="60" y1="55" x2="760" y2="55"
            stroke="#c9d1d9" stroke-width="1"/>
    
  </g>

  <!-- Y-axis labels -->
  
    <text x="50" y="344" text-anchor="end"
          fill="#8b949e" font-family="system-ui, -apple-system, sans-serif" font-size="11">
      60.2K
    </text>
  
    <text x="50" y="272.75" text-anchor="end"
          fill="#8b949e" font-family="system-ui, -apple-system, sans-serif" font-size="11">
      89.6K
    </text>
  
    <text x="50" y="201.5" text-anchor="end"
          fill="#8b949e" font-family="system-ui, -apple-system, sans-serif" font-size="11">
      119.1K
    </text>
  
    <text x="50" y="130.25" text-anchor="end"
          fill="#8b949e" font-family="system-ui, -apple-system, sans-serif" font-size="11">
      148.5K
    </text>
  
    <text x="50" y="59" text-anchor="end"
          fill="#8b949e" font-family="system-ui, -apple-system, sans-serif" font-size="11">
      178.0K
    </text>
  

  <!-- X-axis labels -->
  
    <text x="60" y="360" text-anchor="middle"
          fill="#8b949e" font-family="system-ui, -apple-system, sans-serif" font-size="11">
      Nov 25
    </text>
  
    <text x="146.36363636363637" y="360" text-anchor="middle"
          fill="#8b949e" font-family="system-ui, -apple-system, sans-serif" font-size="11">
      Dec 14
    </text>
  
    <text x="232.72727272727272" y="360" text-anchor="middle"
          fill="#8b949e" font-family="system-ui, -apple-system, sans-serif" font-size="11">
      Jan 2
    </text>
  
    <text x="319.0909090909091" y="360" text-anchor="middle"
          fill="#8b949e" font-family="system-ui, -apple-system, sans-serif" font-size="11">
      Jan 21
    </text>
  
    <text x="405.45454545454544" y="360" text-anchor="middle"
          fill="#8b949e" font-family="system-ui, -apple-system, sans-serif" font-size="11">
      Feb 9
    </text>
  
    <text x="491.81818181818187" y="360" text-anchor="middle"
          fill="#8b949e" font-family="system-ui, -apple-system, sans-serif" font-size="11">
      Feb 28
    </text>
  
    <text x="578.1818181818182" y="360" text-anchor="middle"
          fill="#8b949e" font-family="system-ui, -apple-system, sans-serif" font-size="11">
      Mar 19
    </text>
  
    <text x="664.5454545454545" y="360" text-anchor="middle"
          fill="#8b949e" font-family="system-ui, -apple-system, sans-serif" font-size="11">
      Apr 7
    </text>
  
    <text x="750.9090909090909" y="360" text-anchor="middle"
          fill="#8b949e" font-family="system-ui, -apple-system, sans-serif" font-size="11">
      Apr 26
    </text>
  
    <text x="760" y="360" text-anchor="middle"
          fill="#8b949e" font-family="system-ui, -apple-system, sans-serif" font-size="11">
      Apr 28
    </text>
  

  <!-- Area under line -->
  <path d="M 60 340
    L 60.00 340.00 L 64.55 339.64 L 69.09 339.04 L 73.64 338.48 L 78.18 337.36 L 82.73 336.21 L 87.27 335.30 L 91.82 334.46 L 96.36 333.71 L 100.91 332.82 L 105.45 331.84 L 110.00 330.78 L 114.55 329.83 L 119.09 328.81 L 123.64 328.06 L 128.18 327.30 L 132.73 326.25 L 137.27 325.55 L 141.82 324.58 L 146.36 323.47 L 150.91 322.62 L 155.45 321.93 L 160.00 321.48 L 164.55 321.11 L 169.09 320.42 L 173.64 319.93 L 178.18 318.86 L 182.73 318.43 L 187.27 317.89 L 191.82 317.18 L 196.36 316.70 L 200.91 316.20 L 205.45 315.69 L 210.00 315.33 L 214.55 315.02 L 219.09 314.55 L 223.64 313.98 L 228.18 313.45 L 232.73 312.78 L 237.27 312.05 L 241.82 311.39 L 246.36 310.58 L 250.91 309.79 L 255.45 309.00 L 260.00 308.13 L 264.55 307.30 L 269.09 306.36 L 273.64 305.51 L 278.18 304.80 L 282.73 304.23 L 287.27 303.43 L 291.82 302.52 L 296.36 301.69 L 300.91 300.71 L 305.45 299.51 L 310.00 298.61 L 314.55 297.87 L 319.09 297.16 L 323.64 296.32 L 328.18 295.33 L 332.73 294.23 L 337.27 293.09 L 341.82 291.98 L 346.36 291.01 L 350.91 290.05 L 355.45 289.20 L 360.00 288.33 L 364.55 287.37 L 369.09 286.16 L 373.64 285.27 L 378.18 284.46 L 382.73 283.57 L 387.27 282.74 L 391.82 281.82 L 396.36 280.87 L 400.91 279.87 L 405.45 279.00 L 410.00 278.25 L 414.55 277.43 L 419.09 276.54 L 423.64 275.72 L 428.18 274.65 L 432.73 273.73 L 437.27 272.84 L 441.82 272.10 L 446.36 271.39 L 450.91 270.67 L 455.45 269.81 L 460.00 268.93 L 464.55 267.86 L 469.09 266.99 L 473.64 266.28 L 478.18 265.55 L 482.73 264.85 L 487.27 263.99 L 491.82 263.11 L 496.36 261.16 L 500.91 257.27 L 505.45 252.64 L 510.00 248.43 L 514.55 246.29 L 519.09 243.07 L 523.64 240.93 L 528.18 239.05 L 532.73 237.21 L 537.27 235.48 L 541.82 232.79 L 546.36 230.66 L 550.91 227.92 L 555.45 227.36 L 560.00 227.29 L 564.55 227.20 L 569.09 227.12 L 573.64 227.01 L 578.18 226.92 L 582.73 226.88 L 587.27 226.75 L 591.82 226.62 L 596.36 226.54 L 600.91 226.51 L 605.45 226.36 L 610.00 222.86 L 614.55 217.36 L 619.09 213.68 L 623.64 209.41 L 628.18 205.01 L 632.73 201.56 L 637.27 197.69 L 641.82 191.81 L 646.36 183.87 L 650.91 178.70 L 655.45 172.54 L 660.00 165.67 L 664.55 160.17 L 669.09 154.19 L 673.64 148.89 L 678.18 143.64 L 682.73 138.40 L 687.27 131.27 L 691.82 124.12 L 696.36 118.16 L 700.91 113.16 L 705.45 108.31 L 710.00 101.88 L 714.55 96.89 L 719.09 91.95 L 723.64 87.33 L 728.18 82.98 L 732.73 78.52 L 737.27 74.71 L 741.82 70.77 L 746.36 66.74 L 750.91 62.48 L 755.45 58.58 L 760.00 55.00
    L 760 340
    Z" fill="url(#areaGradient)" class="area-path"/>

  <!-- Main line with glow -->
  <path d="M 60.00 340.00 L 64.55 339.64 L 69.09 339.04 L 73.64 338.48 L 78.18 337.36 L 82.73 336.21 L 87.27 335.30 L 91.82 334.46 L 96.36 333.71 L 100.91 332.82 L 105.45 331.84 L 110.00 330.78 L 114.55 329.83 L 119.09 328.81 L 123.64 328.06 L 128.18 327.30 L 132.73 326.25 L 137.27 325.55 L 141.82 324.58 L 146.36 323.47 L 150.91 322.62 L 155.45 321.93 L 160.00 321.48 L 164.55 321.11 L 169.09 320.42 L 173.64 319.93 L 178.18 318.86 L 182.73 318.43 L 187.27 317.89 L 191.82 317.18 L 196.36 316.70 L 200.91 316.20 L 205.45 315.69 L 210.00 315.33 L 214.55 315.02 L 219.09 314.55 L 223.64 313.98 L 228.18 313.45 L 232.73 312.78 L 237.27 312.05 L 241.82 311.39 L 246.36 310.58 L 250.91 309.79 L 255.45 309.00 L 260.00 308.13 L 264.55 307.30 L 269.09 306.36 L 273.64 305.51 L 278.18 304.80 L 282.73 304.23 L 287.27 303.43 L 291.82 302.52 L 296.36 301.69 L 300.91 300.71 L 305.45 299.51 L 310.00 298.61 L 314.55 297.87 L 319.09 297.16 L 323.64 296.32 L 328.18 295.33 L 332.73 294.23 L 337.27 293.09 L 341.82 291.98 L 346.36 291.01 L 350.91 290.05 L 355.45 289.20 L 360.00 288.33 L 364.55 287.37 L 369.09 286.16 L 373.64 285.27 L 378.18 284.46 L 382.73 283.57 L 387.27 282.74 L 391.82 281.82 L 396.36 280.87 L 400.91 279.87 L 405.45 279.00 L 410.00 278.25 L 414.55 277.43 L 419.09 276.54 L 423.64 275.72 L 428.18 274.65 L 432.73 273.73 L 437.27 272.84 L 441.82 272.10 L 446.36 271.39 L 450.91 270.67 L 455.45 269.81 L 460.00 268.93 L 464.55 267.86 L 469.09 266.99 L 473.64 266.28 L 478.18 265.55 L 482.73 264.85 L 487.27 263.99 L 491.82 263.11 L 496.36 261.16 L 500.91 257.27 L 505.45 252.64 L 510.00 248.43 L 514.55 246.29 L 519.09 243.07 L 523.64 240.93 L 528.18 239.05 L 532.73 237.21 L 537.27 235.48 L 541.82 232.79 L 546.36 230.66 L 550.91 227.92 L 555.45 227.36 L 560.00 227.29 L 564.55 227.20 L 569.09 227.12 L 573.64 227.01 L 578.18 226.92 L 582.73 226.88 L 587.27 226.75 L 591.82 226.62 L 596.36 226.54 L 600.91 226.51 L 605.45 226.36 L 610.00 222.86 L 614.55 217.36 L 619.09 213.68 L 623.64 209.41 L 628.18 205.01 L 632.73 201.56 L 637.27 197.69 L 641.82 191.81 L 646.36 183.87 L 650.91 178.70 L 655.45 172.54 L 660.00 165.67 L 664.55 160.17 L 669.09 154.19 L 673.64 148.89 L 678.18 143.64 L 682.73 138.40 L 687.27 131.27 L 691.82 124.12 L 696.36 118.16 L 700.91 113.16 L 705.45 108.31 L 710.00 101.88 L 714.55 96.89 L 719.09 91.95 L 723.64 87.33 L 728.18 82.98 L 732.73 78.52 L 737.27 74.71 L 741.82 70.77 L 746.36 66.74 L 750.91 62.48 L 755.45 58.58 L 760.00 55.00" fill="none" stroke="#3b82f6" stroke-width="3"
        stroke-linecap="round" stroke-linejoin="round" filter="url(#glow)" class="line-path"/>

  <!-- Data points -->
  
    <circle cx="60" cy="340" r="4" fill="#3b82f6" stroke="#0d1117" stroke-width="2" class="data-point"/>
  
    <circle cx="64.54545454545455" cy="339.6444061553087" r="4" fill="#3b82f6" stroke="#0d1117" stroke-width="2" class="data-point"/>
  
    <circle cx="69.0909090909091" cy="339.03965471875875" r="4" fill="#3b82f6" stroke="#0d1117" stroke-width="2" class="data-point"/>
  
    <circle cx="73.63636363636364" cy="338.47844538564044" r="4" fill="#3b82f6" stroke="#0d1117" stroke-width="2" class="data-point"/>
  
    <circle cx="78.18181818181819" cy="337.3632837366424" r="4" fill="#3b82f6" stroke="#0d1117" stroke-width="2" class="data-point"/>
  
    <circle cx="82.72727272727272" cy="336.2118370014514" r="4" fill="#3b82f6" stroke="#0d1117" stroke-width="2" class="data-point"/>
  
    <circle cx="87.27272727272728" cy="335.30470984662657" r="4" fill="#3b82f6" stroke="#0d1117" stroke-width="2" class="data-point"/>
  
    <circle cx="91.81818181818181" cy="334.45805783545666" r="4" fill="#3b82f6" stroke="#0d1117" stroke-width="2" class="data-point"/>
  
    <circle cx="96.36363636363637" cy="333.7057470483886" r="4" fill="#3b82f6" stroke="#0d1117" stroke-width="2" class="data-point"/>
  
    <circle cx="100.9090909090909" cy="332.82280995102576" r="4" fill="#3b82f6" stroke="#0d1117" stroke-width="2" class="data-point"/>
  
    <circle cx="105.45454545454545" cy="331.8382746123225" r="4" fill="#3b82f6" stroke="#0d1117" stroke-width="2" class="data-point"/>
  
    <circle cx="110" cy="330.7835881069795" r="4" fill="#3b82f6" stroke="#0d1117" stroke-width="2" class="data-point"/>
  
    <circle cx="114.54545454545455" cy="329.8256618314844" r="4" fill="#3b82f6" stroke="#0d1117" stroke-width="2" class="data-point"/>
  
    <circle cx="119.0909090909091" cy="328.80726041233436" r="4" fill="#3b82f6" stroke="#0d1117" stroke-width="2" class="data-point"/>
  
    <circle cx="123.63636363636364" cy="328.0646256482511" r="4" fill="#3b82f6" stroke="#0d1117" stroke-width="2" class="data-point"/>
  
    <circle cx="128.1818181818182" cy="327.2953818209596" r="4" fill="#3b82f6" stroke="#0d1117" stroke-width="2" class="data-point"/>
  
    <circle cx="132.72727272727275" cy="326.2503713386014" r="4" fill="#3b82f6" stroke="#0d1117" stroke-width="2" class="data-point"/>
  
    <circle cx="137.27272727272725" cy="325.5512786779497" r="4" fill="#3b82f6" stroke="#0d1117" stroke-width="2" class="data-point"/>
  
    <circle cx="141.8181818181818" cy="324.58367637946986" r="4" fill="#3b82f6" stroke="#0d1117" stroke-width="2" class="data-point"/>
  
    <circle cx="146.36363636363637" cy="323.4660957247256" r="4" fill="#3b82f6" stroke="#0d1117" stroke-width="2" class="data-point"/>
  
    <circle cx="150.9090909090909" cy="322.62428172504815" r="4" fill="#3b82f6" stroke="#0d1117" stroke-width="2" class="data-point"/>
  
    <circle cx="155.45454545454544" cy="321.9324460816351" r="4" fill="#3b82f6" stroke="#0d1117" stroke-width="2" class="data-point"/>
  
    <circle cx="160" cy="321.48493001858816" r="4" fill="#3b82f6" stroke="#0d1117" stroke-width="2" class="data-point"/>
  
    <circle cx="164.54545454545456" cy="321.1124031336734" r="4" fill="#3b82f6" stroke="#0d1117" stroke-width="2" class="data-point"/>
  
    <circle cx="169.0909090909091" cy="320.4229864960065" r="4" fill="#3b82f6" stroke="#0d1117" stroke-width="2" class="data-point"/>
  
    <circle cx="173.63636363636363" cy="319.931928329528" r="4" fill="#3b82f6" stroke="#0d1117" stroke-width="2" class="data-point"/>
  
    <circle cx="178.1818181818182" cy="318.8554707724692" r="4" fill="#3b82f6" stroke="#0d1117" stroke-width="2" class="data-point"/>
  
    <circle cx="182.72727272727275" cy="318.4321447668842" r="4" fill="#3b82f6" stroke="#0d1117" stroke-width="2" class="data-point"/>
  
    <circle cx="187.27272727272728" cy="317.8854494682431" r="4" fill="#3b82f6" stroke="#0d1117" stroke-width="2" class="data-point"/>
  
    <circle cx="191.8181818181818" cy="317.17909979035284" r="4" fill="#3b82f6" stroke="#0d1117" stroke-width="2" class="data-point"/>
  
    <circle cx="196.36363636363637" cy="316.6952986411129" r="4" fill="#3b82f6" stroke="#0d1117" stroke-width="2" class="data-point"/>
  
    <circle cx="200.9090909090909" cy="316.2042404746344" r="4" fill="#3b82f6" stroke="#0d1117" stroke-width="2" class="data-point"/>
  
    <circle cx="205.45454545454547" cy="315.6889922506939" r="4" fill="#3b82f6" stroke="#0d1117" stroke-width="2" class="data-point"/>
  
    <circle cx="210" cy="315.33097940025635" r="4" fill="#3b82f6" stroke="#0d1117" stroke-width="2" class="data-point"/>
  
    <circle cx="214.54545454545453" cy="315.0213466647428" r="4" fill="#3b82f6" stroke="#0d1117" stroke-width="2" class="data-point"/>
  
    <circle cx="219.0909090909091" cy="314.54964054423385" r="4" fill="#3b82f6" stroke="#0d1117" stroke-width="2" class="data-point"/>
  
    <circle cx="223.63636363636363" cy="313.97633618238456" r="4" fill="#3b82f6" stroke="#0d1117" stroke-width="2" class="data-point"/>
  
    <circle cx="228.1818181818182" cy="313.44899292971303" r="4" fill="#3b82f6" stroke="#0d1117" stroke-width="2" class="data-point"/>
  
    <circle cx="232.72727272727272" cy="312.7813473437619" r="4" fill="#3b82f6" stroke="#0d1117" stroke-width="2" class="data-point"/>
  
    <circle cx="237.27272727272725" cy="312.05322661415585" r="4" fill="#3b82f6" stroke="#0d1117" stroke-width="2" class="data-point"/>
  
    <circle cx="241.8181818181818" cy="311.38558102820474" r="4" fill="#3b82f6" stroke="#0d1117" stroke-width="2" class="data-point"/>
  
    <circle cx="246.36363636363635" cy="310.5800521147203" r="4" fill="#3b82f6" stroke="#0d1117" stroke-width="2" class="data-point"/>
  
    <circle cx="250.9090909090909" cy="309.789037235713" r="4" fill="#3b82f6" stroke="#0d1117" stroke-width="2" class="data-point"/>
  
    <circle cx="255.45454545454544" cy="308.99802235670575" r="4" fill="#3b82f6" stroke="#0d1117" stroke-width="2" class="data-point"/>
  
    <circle cx="260" cy="308.13201829956625" r="4" fill="#3b82f6" stroke="#0d1117" stroke-width="2" class="data-point"/>
  
    <circle cx="264.5454545454545" cy="307.304718334366" r="4" fill="#3b82f6" stroke="#0d1117" stroke-width="2" class="data-point"/>
  
    <circle cx="269.0909090909091" cy="306.35888708760194" r="4" fill="#3b82f6" stroke="#0d1117" stroke-width="2" class="data-point"/>
  
    <circle cx="273.6363636363636" cy="305.5146540821783" r="4" fill="#3b82f6" stroke="#0d1117" stroke-width="2" class="data-point"/>
  
    <circle cx="278.1818181818182" cy="304.8010473870494" r="4" fill="#3b82f6" stroke="#0d1117" stroke-width="2" class="data-point"/>
  
    <circle cx="282.72727272727275" cy="304.2301620309463" r="4" fill="#3b82f6" stroke="#0d1117" stroke-width="2" class="data-point"/>
  
    <circle cx="287.27272727272725" cy="303.43189013470044" r="4" fill="#3b82f6" stroke="#0d1117" stroke-width="2" class="data-point"/>
  
    <circle cx="291.8181818181818" cy="302.5199249683832" r="4" fill="#3b82f6" stroke="#0d1117" stroke-width="2" class="data-point"/>
  
    <circle cx="296.3636363636364" cy="301.6853679859443" r="4" fill="#3b82f6" stroke="#0d1117" stroke-width="2" class="data-point"/>
  
    <circle cx="300.9090909090909" cy="300.71050867022586" r="4" fill="#3b82f6" stroke="#0d1117" stroke-width="2" class="data-point"/>
  
    <circle cx="305.4545454545455" cy="299.5082628143646" r="4" fill="#3b82f6" stroke="#0d1117" stroke-width="2" class="data-point"/>
  
    <circle cx="310" cy="298.6132306882708" r="4" fill="#3b82f6" stroke="#0d1117" stroke-width="2" class="data-point"/>
  
    <circle cx="314.54545454545456" cy="297.8705959241875" r="4" fill="#3b82f6" stroke="#0d1117" stroke-width="2" class="data-point"/>
  
    <circle cx="319.0909090909091" cy="297.16424624629724" r="4" fill="#3b82f6" stroke="#0d1117" stroke-width="2" class="data-point"/>
  
    <circle cx="323.6363636363636" cy="296.31517522938117" r="4" fill="#3b82f6" stroke="#0d1117" stroke-width="2" class="data-point"/>
  
    <circle cx="328.1818181818182" cy="295.32822088493174" r="4" fill="#3b82f6" stroke="#0d1117" stroke-width="2" class="data-point"/>
  
    <circle cx="332.72727272727275" cy="294.2348302876495" r="4" fill="#3b82f6" stroke="#0d1117" stroke-width="2" class="data-point"/>
  
    <circle cx="337.2727272727273" cy="293.0858025582047" r="4" fill="#3b82f6" stroke="#0d1117" stroke-width="2" class="data-point"/>
  
    <circle cx="341.8181818181818" cy="291.98273593793766" r="4" fill="#3b82f6" stroke="#0d1117" stroke-width="2" class="data-point"/>
  
    <circle cx="346.3636363636364" cy="291.0127146337116" r="4" fill="#3b82f6" stroke="#0d1117" stroke-width="2" class="data-point"/>
  
    <circle cx="350.90909090909093" cy="290.04995034672413" r="4" fill="#3b82f6" stroke="#0d1117" stroke-width="2" class="data-point"/>
  
    <circle cx="355.45454545454544" cy="289.2008793298081" r="4" fill="#3b82f6" stroke="#0d1117" stroke-width="2" class="data-point"/>
  
    <circle cx="360" cy="288.3348752726686" r="4" fill="#3b82f6" stroke="#0d1117" stroke-width="2" class="data-point"/>
  
    <circle cx="364.5454545454545" cy="287.3672729741888" r="4" fill="#3b82f6" stroke="#0d1117" stroke-width="2" class="data-point"/>
  
    <circle cx="369.09090909090907" cy="286.1626081125814" r="4" fill="#3b82f6" stroke="#0d1117" stroke-width="2" class="data-point"/>
  
    <circle cx="373.6363636363636" cy="285.2651569807413" r="4" fill="#3b82f6" stroke="#0d1117" stroke-width="2" class="data-point"/>
  
    <circle cx="378.1818181818182" cy="284.4620470730031" r="4" fill="#3b82f6" stroke="#0d1117" stroke-width="2" class="data-point"/>
  
    <circle cx="382.7272727272727" cy="283.5694339526554" r="4" fill="#3b82f6" stroke="#0d1117" stroke-width="2" class="data-point"/>
  
    <circle cx="387.27272727272725" cy="282.73729597596275" r="4" fill="#3b82f6" stroke="#0d1117" stroke-width="2" class="data-point"/>
  
    <circle cx="391.8181818181818" cy="281.8229118038993" r="4" fill="#3b82f6" stroke="#0d1117" stroke-width="2" class="data-point"/>
  
    <circle cx="396.3636363636364" cy="280.86982353989663" r="4" fill="#3b82f6" stroke="#0d1117" stroke-width="2" class="data-point"/>
  
    <circle cx="400.9090909090909" cy="279.8731931724624" r="4" fill="#3b82f6" stroke="#0d1117" stroke-width="2" class="data-point"/>
  
    <circle cx="405.45454545454544" cy="278.99993209808434" r="4" fill="#3b82f6" stroke="#0d1117" stroke-width="2" class="data-point"/>
  
    <circle cx="410" cy="278.2524593225086" r="4" fill="#3b82f6" stroke="#0d1117" stroke-width="2" class="data-point"/>
  
    <circle cx="414.5454545454545" cy="277.43241637454696" r="4" fill="#3b82f6" stroke="#0d1117" stroke-width="2" class="data-point"/>
  
    <circle cx="419.0909090909091" cy="276.5446412656917" r="4" fill="#3b82f6" stroke="#0d1117" stroke-width="2" class="data-point"/>
  
    <circle cx="423.6363636363636" cy="275.72217931198384" r="4" fill="#3b82f6" stroke="#0d1117" stroke-width="2" class="data-point"/>
  
    <circle cx="428.1818181818182" cy="274.6505597664174" r="4" fill="#3b82f6" stroke="#0d1117" stroke-width="2" class="data-point"/>
  
    <circle cx="432.7272727272727" cy="273.72891857711534" r="4" fill="#3b82f6" stroke="#0d1117" stroke-width="2" class="data-point"/>
  
    <circle cx="437.2727272727273" cy="272.8411434682601" r="4" fill="#3b82f6" stroke="#0d1117" stroke-width="2" class="data-point"/>
  
    <circle cx="441.8181818181818" cy="272.1033467156692" r="4" fill="#3b82f6" stroke="#0d1117" stroke-width="2" class="data-point"/>
  
    <circle cx="446.3636363636364" cy="271.3873210147941" r="4" fill="#3b82f6" stroke="#0d1117" stroke-width="2" class="data-point"/>
  
    <circle cx="450.9090909090909" cy="270.66887630817286" r="4" fill="#3b82f6" stroke="#0d1117" stroke-width="2" class="data-point"/>
  
    <circle cx="455.4545454545455" cy="269.81012926827196" r="4" fill="#3b82f6" stroke="#0d1117" stroke-width="2" class="data-point"/>
  
    <circle cx="460" cy="268.9271921709091" r="4" fill="#3b82f6" stroke="#0d1117" stroke-width="2" class="data-point"/>
  
    <circle cx="464.54545454545456" cy="267.8555726253427" r="4" fill="#3b82f6" stroke="#0d1117" stroke-width="2" class="data-point"/>
  
    <circle cx="469.09090909090907" cy="266.98714956245703" r="4" fill="#3b82f6" stroke="#0d1117" stroke-width="2" class="data-point"/>
  
    <circle cx="473.6363636363637" cy="266.27838087882054" r="4" fill="#3b82f6" stroke="#0d1117" stroke-width="2" class="data-point"/>
  
    <circle cx="478.1818181818182" cy="265.55026014921447" r="4" fill="#3b82f6" stroke="#0d1117" stroke-width="2" class="data-point"/>
  
    <circle cx="482.72727272727275" cy="264.85358649430896" r="4" fill="#3b82f6" stroke="#0d1117" stroke-width="2" class="data-point"/>
  
    <circle cx="487.27272727272725" cy="263.9924204486619" r="4" fill="#3b82f6" stroke="#0d1117" stroke-width="2" class="data-point"/>
  
    <circle cx="491.81818181818187" cy="263.10948335129905" r="4" fill="#3b82f6" stroke="#0d1117" stroke-width="2" class="data-point"/>
  
    <circle cx="496.3636363636364" cy="261.157345714116" r="4" fill="#3b82f6" stroke="#0d1117" stroke-width="2" class="data-point"/>
  
    <circle cx="500.90909090909093" cy="257.2724224857194" r="4" fill="#3b82f6" stroke="#0d1117" stroke-width="2" class="data-point"/>
  
    <circle cx="505.45454545454544" cy="252.64486449323954" r="4" fill="#3b82f6" stroke="#0d1117" stroke-width="2" class="data-point"/>
  
    <circle cx="510.00000000000006" cy="248.4285374776136" r="4" fill="#3b82f6" stroke="#0d1117" stroke-width="2" class="data-point"/>
  
    <circle cx="514.5454545454545" cy="246.29013639797313" r="4" fill="#3b82f6" stroke="#0d1117" stroke-width="2" class="data-point"/>
  
    <circle cx="519.0909090909091" cy="243.06802074403524" r="4" fill="#3b82f6" stroke="#0d1117" stroke-width="2" class="data-point"/>
  
    <circle cx="523.6363636363636" cy="240.9272006586486" r="4" fill="#3b82f6" stroke="#0d1117" stroke-width="2" class="data-point"/>
  
    <circle cx="528.1818181818181" cy="239.0500521995977" r="4" fill="#3b82f6" stroke="#0d1117" stroke-width="2" class="data-point"/>
  
    <circle cx="532.7272727272727" cy="237.2140268382322" r="4" fill="#3b82f6" stroke="#0d1117" stroke-width="2" class="data-point"/>
  
    <circle cx="537.2727272727273" cy="235.48443772969944" r="4" fill="#3b82f6" stroke="#0d1117" stroke-width="2" class="data-point"/>
  
    <circle cx="541.8181818181818" cy="232.79450333992548" r="4" fill="#3b82f6" stroke="#0d1117" stroke-width="2" class="data-point"/>
  
    <circle cx="546.3636363636363" cy="230.65610226028502" r="4" fill="#3b82f6" stroke="#0d1117" stroke-width="2" class="data-point"/>
  
    <circle cx="550.909090909091" cy="227.92262576707947" r="4" fill="#3b82f6" stroke="#0d1117" stroke-width="2" class="data-point"/>
  
    <circle cx="555.4545454545455" cy="227.36383543970734" r="4" fill="#3b82f6" stroke="#0d1117" stroke-width="2" class="data-point"/>
  
    <circle cx="560" cy="227.29126526732136" r="4" fill="#3b82f6" stroke="#0d1117" stroke-width="2" class="data-point"/>
  
    <circle cx="564.5454545454545" cy="227.19692404321955" r="4" fill="#3b82f6" stroke="#0d1117" stroke-width="2" class="data-point"/>
  
    <circle cx="569.0909090909091" cy="227.117096853595" r="4" fill="#3b82f6" stroke="#0d1117" stroke-width="2" class="data-point"/>
  
    <circle cx="573.6363636363636" cy="227.0130796065084" r="4" fill="#3b82f6" stroke="#0d1117" stroke-width="2" class="data-point"/>
  
    <circle cx="578.1818181818182" cy="226.9211573881528" r="4" fill="#3b82f6" stroke="#0d1117" stroke-width="2" class="data-point"/>
  
    <circle cx="582.7272727272727" cy="226.88487230195983" r="4" fill="#3b82f6" stroke="#0d1117" stroke-width="2" class="data-point"/>
  
    <circle cx="587.2727272727273" cy="226.75182698591885" r="4" fill="#3b82f6" stroke="#0d1117" stroke-width="2" class="data-point"/>
  
    <circle cx="591.8181818181818" cy="226.62361968137026" r="4" fill="#3b82f6" stroke="#0d1117" stroke-width="2" class="data-point"/>
  
    <circle cx="596.3636363636364" cy="226.53895448025327" r="4" fill="#3b82f6" stroke="#0d1117" stroke-width="2" class="data-point"/>
  
    <circle cx="600.9090909090909" cy="226.50750740555267" r="4" fill="#3b82f6" stroke="#0d1117" stroke-width="2" class="data-point"/>
  
    <circle cx="605.4545454545455" cy="226.3647860665269" r="4" fill="#3b82f6" stroke="#0d1117" stroke-width="2" class="data-point"/>
  
    <circle cx="610" cy="222.85722773453745" r="4" fill="#3b82f6" stroke="#0d1117" stroke-width="2" class="data-point"/>
  
    <circle cx="614.5454545454546" cy="217.36366568491815" r="4" fill="#3b82f6" stroke="#0d1117" stroke-width="2" class="data-point"/>
  
    <circle cx="619.0909090909091" cy="213.68435794494854" r="4" fill="#3b82f6" stroke="#0d1117" stroke-width="2" class="data-point"/>
  
    <circle cx="623.6363636363636" cy="209.41239379716" r="4" fill="#3b82f6" stroke="#0d1117" stroke-width="2" class="data-point"/>
  
    <circle cx="628.1818181818181" cy="205.0098033390767" r="4" fill="#3b82f6" stroke="#0d1117" stroke-width="2" class="data-point"/>
  
    <circle cx="632.7272727272727" cy="201.55546313350365" r="4" fill="#3b82f6" stroke="#0d1117" stroke-width="2" class="data-point"/>
  
    <circle cx="637.2727272727273" cy="197.69231095682287" r="4" fill="#3b82f6" stroke="#0d1117" stroke-width="2" class="data-point"/>
  
    <circle cx="641.8181818181819" cy="191.80686997631923" r="4" fill="#3b82f6" stroke="#0d1117" stroke-width="2" class="data-point"/>
  
    <circle cx="646.3636363636364" cy="183.87495013453068" r="4" fill="#3b82f6" stroke="#0d1117" stroke-width="2" class="data-point"/>
  
    <circle cx="650.9090909090909" cy="178.69827783766348" r="4" fill="#3b82f6" stroke="#0d1117" stroke-width="2" class="data-point"/>
  
    <circle cx="655.4545454545455" cy="172.53707020209308" r="4" fill="#3b82f6" stroke="#0d1117" stroke-width="2" class="data-point"/>
  
    <circle cx="660" cy="165.6719318943786" r="4" fill="#3b82f6" stroke="#0d1117" stroke-width="2" class="data-point"/>
  
    <circle cx="664.5454545454545" cy="160.16627481602825" r="4" fill="#3b82f6" stroke="#0d1117" stroke-width="2" class="data-point"/>
  
    <circle cx="669.090909090909" cy="154.19133062291522" r="4" fill="#3b82f6" stroke="#0d1117" stroke-width="2" class="data-point"/>
  
    <circle cx="673.6363636363636" cy="148.89128903299186" r="4" fill="#3b82f6" stroke="#0d1117" stroke-width="2" class="data-point"/>
  
    <circle cx="678.1818181818181" cy="143.6396275579925" r="4" fill="#3b82f6" stroke="#0d1117" stroke-width="2" class="data-point"/>
  
    <circle cx="682.7272727272727" cy="138.4024801174703" r="4" fill="#3b82f6" stroke="#0d1117" stroke-width="2" class="data-point"/>
  
    <circle cx="687.2727272727273" cy="131.27125117767383" r="4" fill="#3b82f6" stroke="#0d1117" stroke-width="2" class="data-point"/>
  
    <circle cx="691.8181818181819" cy="124.11825118616159" r="4" fill="#3b82f6" stroke="#0d1117" stroke-width="2" class="data-point"/>
  
    <circle cx="696.3636363636364" cy="118.15540202177954" r="4" fill="#3b82f6" stroke="#0d1117" stroke-width="2" class="data-point"/>
  
    <circle cx="700.9090909090909" cy="113.15773615013114" r="4" fill="#3b82f6" stroke="#0d1117" stroke-width="2" class="data-point"/>
  
    <circle cx="705.4545454545454" cy="108.31004863474709" r="4" fill="#3b82f6" stroke="#0d1117" stroke-width="2" class="data-point"/>
  
    <circle cx="710" cy="101.87549334985613" r="4" fill="#3b82f6" stroke="#0d1117" stroke-width="2" class="data-point"/>
  
    <circle cx="714.5454545454545" cy="96.8850844954463" r="4" fill="#3b82f6" stroke="#0d1117" stroke-width="2" class="data-point"/>
  
    <circle cx="719.0909090909091" cy="91.94789376745291" r="4" fill="#3b82f6" stroke="#0d1117" stroke-width="2" class="data-point"/>
  
    <circle cx="723.6363636363636" cy="87.33001179795784" r="4" fill="#3b82f6" stroke="#0d1117" stroke-width="2" class="data-point"/>
  
    <circle cx="728.1818181818182" cy="82.98063946629094" r="4" fill="#3b82f6" stroke="#0d1117" stroke-width="2" class="data-point"/>
  
    <circle cx="732.7272727272727" cy="78.52483088179127" r="4" fill="#3b82f6" stroke="#0d1117" stroke-width="2" class="data-point"/>
  
    <circle cx="737.2727272727273" cy="74.71489683152686" r="4" fill="#3b82f6" stroke="#0d1117" stroke-width="2" class="data-point"/>
  
    <circle cx="741.8181818181818" cy="70.7694984594753" r="4" fill="#3b82f6" stroke="#0d1117" stroke-width="2" class="data-point"/>
  
    <circle cx="746.3636363636364" cy="66.74185389205292" r="4" fill="#3b82f6" stroke="#0d1117" stroke-width="2" class="data-point"/>
  
    <circle cx="750.9090909090909" cy="62.48440377874158" r="4" fill="#3b82f6" stroke="#0d1117" stroke-width="2" class="data-point"/>
  
    <circle cx="755.4545454545455" cy="58.57770949862925" r="4" fill="#3b82f6" stroke="#0d1117" stroke-width="2" class="data-point"/>
  
    <circle cx="760" cy="55" r="4" fill="#3b82f6" stroke="#0d1117" stroke-width="2" class="data-point"/>
  

  <!-- Axis lines -->
  <line x1="60" y1="55" x2="60" y2="340"
        stroke="#30363d" stroke-width="2"/>
  <line x1="60" y1="340" x2="760" y2="340"
        stroke="#30363d" stroke-width="2"/>
</svg>