<?xml version="1.0" encoding="UTF-8"?>
<svg width="800" height="400" xmlns="http://www.w3.org/2000/svg">
  <defs>
    <!-- Gradient for area fill -->
    <linearGradient id="areaGradient" x1="0%" y1="0%" x2="0%" y2="100%">
      <stop offset="0%" style="stop-color:#3b82f6;stop-opacity:0.3" />
      <stop offset="100%" style="stop-color:#3b82f6;stop-opacity:0.05" />
    </linearGradient>

    <!-- Glow filter for line -->
    <filter id="glow">
      <feGaussianBlur stdDeviation="2" result="coloredBlur"/>
      <feMerge>
        <feMergeNode in="coloredBlur"/>
        <feMergeNode in="SourceGraphic"/>
      </feMerge>
    </filter>

    <!-- Animation -->
    <style>
      @keyframes draw {
        from { stroke-dashoffset: 2000; }
        to { stroke-dashoffset: 0; }
      }
      @keyframes fadeIn {
        from { opacity: 0; }
        to { opacity: 1; }
      }
      .line-path {
        stroke-dasharray: 2000;
        stroke-dashoffset: 2000;
        animation: draw 1.5s ease-out forwards;
      }
      .area-path {
        opacity: 0;
        animation: fadeIn 1s ease-out 0.5s forwards;
      }
      .data-point {
        opacity: 0;
        animation: fadeIn 0.5s ease-out 1s forwards;
      }
    </style>
  </defs>

  <!-- Background -->
  <rect width="800" height="400" fill="#0d1117" rx="8"/>

  <!-- Title -->
  <text x="400" y="25" text-anchor="middle" fill="#c9d1d9" font-family="system-ui, -apple-system, sans-serif" font-size="16" font-weight="600">
    zxcloli666/SoundCloud-Desktop Downloads
  </text>

  <!-- Stats -->
  <text x="780" y="25" text-anchor="end" fill="#58a6ff" font-family="system-ui, -apple-system, sans-serif" font-size="14" font-weight="600">
    106.9K total
  </text>
  <text x="780" y="42" text-anchor="end" fill="#3fb950" font-family="system-ui, -apple-system, sans-serif" font-size="12">
    +43 (+0.0%)
  </text>

  <!-- Grid lines -->
  <g opacity="0.1">
    
      <line x1="60" y1="340" x2="760" y2="340"
            stroke="#c9d1d9" stroke-width="1"/>
    
      <line x1="60" y1="268.75" x2="760" y2="268.75"
            stroke="#c9d1d9" stroke-width="1"/>
    
      <line x1="60" y1="197.5" x2="760" y2="197.5"
            stroke="#c9d1d9" stroke-width="1"/>
    
      <line x1="60" y1="126.25" x2="760" y2="126.25"
            stroke="#c9d1d9" stroke-width="1"/>
    
      <line x1="60" y1="55" x2="760" y2="55"
            stroke="#c9d1d9" stroke-width="1"/>
    
  </g>

  <!-- Y-axis labels -->
  
    <text x="50" y="344" text-anchor="end"
          fill="#8b949e" font-family="system-ui, -apple-system, sans-serif" font-size="11">
      60.2K
    </text>
  
    <text x="50" y="272.75" text-anchor="end"
          fill="#8b949e" font-family="system-ui, -apple-system, sans-serif" font-size="11">
      71.8K
    </text>
  
    <text x="50" y="201.5" text-anchor="end"
          fill="#8b949e" font-family="system-ui, -apple-system, sans-serif" font-size="11">
      83.5K
    </text>
  
    <text x="50" y="130.25" text-anchor="end"
          fill="#8b949e" font-family="system-ui, -apple-system, sans-serif" font-size="11">
      95.2K
    </text>
  
    <text x="50" y="59" text-anchor="end"
          fill="#8b949e" font-family="system-ui, -apple-system, sans-serif" font-size="11">
      106.9K
    </text>
  

  <!-- X-axis labels -->
  
    <text x="60" y="360" text-anchor="middle"
          fill="#8b949e" font-family="system-ui, -apple-system, sans-serif" font-size="11">
      Nov 25
    </text>
  
    <text x="146.72566371681415" y="360" text-anchor="middle"
          fill="#8b949e" font-family="system-ui, -apple-system, sans-serif" font-size="11">
      Dec 9
    </text>
  
    <text x="233.4513274336283" y="360" text-anchor="middle"
          fill="#8b949e" font-family="system-ui, -apple-system, sans-serif" font-size="11">
      Dec 23
    </text>
  
    <text x="320.1769911504425" y="360" text-anchor="middle"
          fill="#8b949e" font-family="system-ui, -apple-system, sans-serif" font-size="11">
      Jan 6
    </text>
  
    <text x="406.9026548672566" y="360" text-anchor="middle"
          fill="#8b949e" font-family="system-ui, -apple-system, sans-serif" font-size="11">
      Jan 20
    </text>
  
    <text x="493.62831858407077" y="360" text-anchor="middle"
          fill="#8b949e" font-family="system-ui, -apple-system, sans-serif" font-size="11">
      Feb 3
    </text>
  
    <text x="580.353982300885" y="360" text-anchor="middle"
          fill="#8b949e" font-family="system-ui, -apple-system, sans-serif" font-size="11">
      Feb 17
    </text>
  
    <text x="667.0796460176991" y="360" text-anchor="middle"
          fill="#8b949e" font-family="system-ui, -apple-system, sans-serif" font-size="11">
      Mar 3
    </text>
  
    <text x="753.8053097345132" y="360" text-anchor="middle"
          fill="#8b949e" font-family="system-ui, -apple-system, sans-serif" font-size="11">
      Mar 17
    </text>
  
    <text x="760" y="360" text-anchor="middle"
          fill="#8b949e" font-family="system-ui, -apple-system, sans-serif" font-size="11">
      Mar 18
    </text>
  

  <!-- Area under line -->
  <path d="M 60 340
    L 60.00 340.00 L 66.19 339.10 L 72.39 337.58 L 78.58 336.16 L 84.78 333.35 L 90.97 330.44 L 97.17 328.16 L 103.36 326.02 L 109.56 324.12 L 115.75 321.90 L 121.95 319.41 L 128.14 316.75 L 134.34 314.34 L 140.53 311.77 L 146.73 309.89 L 152.92 307.95 L 159.12 305.32 L 165.31 303.55 L 171.50 301.11 L 177.70 298.29 L 183.89 296.17 L 190.09 294.43 L 196.28 293.30 L 202.48 292.36 L 208.67 290.62 L 214.87 289.38 L 221.06 286.66 L 227.26 285.60 L 233.45 284.22 L 239.65 282.44 L 245.84 281.22 L 252.04 279.98 L 258.23 278.68 L 264.42 277.77 L 270.62 276.99 L 276.81 275.80 L 283.01 274.36 L 289.20 273.03 L 295.40 271.34 L 301.59 269.51 L 307.79 267.82 L 313.98 265.79 L 320.18 263.80 L 326.37 261.80 L 332.57 259.62 L 338.76 257.53 L 344.96 255.14 L 351.15 253.01 L 357.35 251.21 L 363.54 249.77 L 369.73 247.76 L 375.93 245.46 L 382.12 243.35 L 388.32 240.90 L 394.51 237.86 L 400.71 235.61 L 406.90 233.73 L 413.10 231.95 L 419.29 229.81 L 425.49 227.32 L 431.68 224.56 L 437.88 221.66 L 444.07 218.88 L 450.27 216.43 L 456.46 214.01 L 462.65 211.86 L 468.85 209.68 L 475.04 207.24 L 481.24 204.20 L 487.43 201.94 L 493.63 199.91 L 499.82 197.66 L 506.02 195.56 L 512.21 193.25 L 518.41 190.85 L 524.60 188.34 L 530.80 186.13 L 536.99 184.25 L 543.19 182.18 L 549.38 179.94 L 555.58 177.86 L 561.77 175.16 L 567.96 172.84 L 574.16 170.60 L 580.35 168.74 L 586.55 166.93 L 592.74 165.12 L 598.94 162.95 L 605.13 160.72 L 611.33 158.02 L 617.52 155.83 L 623.72 154.04 L 629.91 152.21 L 636.11 150.45 L 642.30 148.28 L 648.50 146.05 L 654.69 141.13 L 660.88 131.33 L 667.08 119.65 L 673.27 109.02 L 679.47 103.62 L 685.66 95.50 L 691.86 90.10 L 698.05 85.36 L 704.25 80.73 L 710.44 76.37 L 716.64 69.58 L 722.83 64.19 L 729.03 57.29 L 735.22 55.88 L 741.42 55.70 L 747.61 55.46 L 753.81 55.26 L 760.00 55.00
    L 760 340
    Z" fill="url(#areaGradient)" class="area-path"/>

  <!-- Main line with glow -->
  <path d="M 60.00 340.00 L 66.19 339.10 L 72.39 337.58 L 78.58 336.16 L 84.78 333.35 L 90.97 330.44 L 97.17 328.16 L 103.36 326.02 L 109.56 324.12 L 115.75 321.90 L 121.95 319.41 L 128.14 316.75 L 134.34 314.34 L 140.53 311.77 L 146.73 309.89 L 152.92 307.95 L 159.12 305.32 L 165.31 303.55 L 171.50 301.11 L 177.70 298.29 L 183.89 296.17 L 190.09 294.43 L 196.28 293.30 L 202.48 292.36 L 208.67 290.62 L 214.87 289.38 L 221.06 286.66 L 227.26 285.60 L 233.45 284.22 L 239.65 282.44 L 245.84 281.22 L 252.04 279.98 L 258.23 278.68 L 264.42 277.77 L 270.62 276.99 L 276.81 275.80 L 283.01 274.36 L 289.20 273.03 L 295.40 271.34 L 301.59 269.51 L 307.79 267.82 L 313.98 265.79 L 320.18 263.80 L 326.37 261.80 L 332.57 259.62 L 338.76 257.53 L 344.96 255.14 L 351.15 253.01 L 357.35 251.21 L 363.54 249.77 L 369.73 247.76 L 375.93 245.46 L 382.12 243.35 L 388.32 240.90 L 394.51 237.86 L 400.71 235.61 L 406.90 233.73 L 413.10 231.95 L 419.29 229.81 L 425.49 227.32 L 431.68 224.56 L 437.88 221.66 L 444.07 218.88 L 450.27 216.43 L 456.46 214.01 L 462.65 211.86 L 468.85 209.68 L 475.04 207.24 L 481.24 204.20 L 487.43 201.94 L 493.63 199.91 L 499.82 197.66 L 506.02 195.56 L 512.21 193.25 L 518.41 190.85 L 524.60 188.34 L 530.80 186.13 L 536.99 184.25 L 543.19 182.18 L 549.38 179.94 L 555.58 177.86 L 561.77 175.16 L 567.96 172.84 L 574.16 170.60 L 580.35 168.74 L 586.55 166.93 L 592.74 165.12 L 598.94 162.95 L 605.13 160.72 L 611.33 158.02 L 617.52 155.83 L 623.72 154.04 L 629.91 152.21 L 636.11 150.45 L 642.30 148.28 L 648.50 146.05 L 654.69 141.13 L 660.88 131.33 L 667.08 119.65 L 673.27 109.02 L 679.47 103.62 L 685.66 95.50 L 691.86 90.10 L 698.05 85.36 L 704.25 80.73 L 710.44 76.37 L 716.64 69.58 L 722.83 64.19 L 729.03 57.29 L 735.22 55.88 L 741.42 55.70 L 747.61 55.46 L 753.81 55.26 L 760.00 55.00" fill="none" stroke="#3b82f6" stroke-width="3"
        stroke-linecap="round" stroke-linejoin="round" filter="url(#glow)" class="line-path"/>

  <!-- Data points -->
  
    <circle cx="60" cy="340" r="4" fill="#3b82f6" stroke="#0d1117" stroke-width="2" class="data-point"/>
  
    <circle cx="66.19469026548673" cy="339.1030444463475" r="4" fill="#3b82f6" stroke="#0d1117" stroke-width="2" class="data-point"/>
  
    <circle cx="72.38938053097345" cy="337.5776098312923" r="4" fill="#3b82f6" stroke="#0d1117" stroke-width="2" class="data-point"/>
  
    <circle cx="78.58407079646018" cy="336.162006508521" r="4" fill="#3b82f6" stroke="#0d1117" stroke-width="2" class="data-point"/>
  
    <circle cx="84.77876106194691" cy="333.3491050783592" r="4" fill="#3b82f6" stroke="#0d1117" stroke-width="2" class="data-point"/>
  
    <circle cx="90.97345132743362" cy="330.444677571294" r="4" fill="#3b82f6" stroke="#0d1117" stroke-width="2" class="data-point"/>
  
    <circle cx="97.16814159292036" cy="328.1565256487111" r="4" fill="#3b82f6" stroke="#0d1117" stroke-width="2" class="data-point"/>
  
    <circle cx="103.36283185840708" cy="326.0209171876338" r="4" fill="#3b82f6" stroke="#0d1117" stroke-width="2" class="data-point"/>
  
    <circle cx="109.5575221238938" cy="324.1232765265051" r="4" fill="#3b82f6" stroke="#0d1117" stroke-width="2" class="data-point"/>
  
    <circle cx="115.75221238938053" cy="321.89614198852445" r="4" fill="#3b82f6" stroke="#0d1117" stroke-width="2" class="data-point"/>
  
    <circle cx="121.94690265486726" cy="319.41273443521453" r="4" fill="#3b82f6" stroke="#0d1117" stroke-width="2" class="data-point"/>
  
    <circle cx="128.141592920354" cy="316.7523764665582" r="4" fill="#3b82f6" stroke="#0d1117" stroke-width="2" class="data-point"/>
  
    <circle cx="134.33628318584073" cy="314.3360880363107" r="4" fill="#3b82f6" stroke="#0d1117" stroke-width="2" class="data-point"/>
  
    <circle cx="140.53097345132744" cy="311.7672561445577" r="4" fill="#3b82f6" stroke="#0d1117" stroke-width="2" class="data-point"/>
  
    <circle cx="146.72566371681415" cy="309.8940224372698" r="4" fill="#3b82f6" stroke="#0d1117" stroke-width="2" class="data-point"/>
  
    <circle cx="152.9203539823009" cy="307.95366960691956" r="4" fill="#3b82f6" stroke="#0d1117" stroke-width="2" class="data-point"/>
  
    <circle cx="159.1150442477876" cy="305.31771859210414" r="4" fill="#3b82f6" stroke="#0d1117" stroke-width="2" class="data-point"/>
  
    <circle cx="165.30973451327435" cy="303.5543161771003" r="4" fill="#3b82f6" stroke="#0d1117" stroke-width="2" class="data-point"/>
  
    <circle cx="171.50442477876106" cy="301.11362079301193" r="4" fill="#3b82f6" stroke="#0d1117" stroke-width="2" class="data-point"/>
  
    <circle cx="177.69911504424778" cy="298.29461762438984" r="4" fill="#3b82f6" stroke="#0d1117" stroke-width="2" class="data-point"/>
  
    <circle cx="183.89380530973452" cy="296.17121264023297" r="4" fill="#3b82f6" stroke="#0d1117" stroke-width="2" class="data-point"/>
  
    <circle cx="190.08849557522126" cy="294.42611544060975" r="4" fill="#3b82f6" stroke="#0d1117" stroke-width="2" class="data-point"/>
  
    <circle cx="196.28318584070797" cy="293.29729382546884" r="4" fill="#3b82f6" stroke="#0d1117" stroke-width="2" class="data-point"/>
  
    <circle cx="202.47787610619469" cy="292.35762610259485" r="4" fill="#3b82f6" stroke="#0d1117" stroke-width="2" class="data-point"/>
  
    <circle cx="208.67256637168143" cy="290.6186306414319" r="4" fill="#3b82f6" stroke="#0d1117" stroke-width="2" class="data-point"/>
  
    <circle cx="214.86725663716814" cy="289.379977734007" r="4" fill="#3b82f6" stroke="#0d1117" stroke-width="2" class="data-point"/>
  
    <circle cx="221.06194690265485" cy="286.6647041192087" r="4" fill="#3b82f6" stroke="#0d1117" stroke-width="2" class="data-point"/>
  
    <circle cx="227.2566371681416" cy="285.59689988867" r="4" fill="#3b82f6" stroke="#0d1117" stroke-width="2" class="data-point"/>
  
    <circle cx="233.4513274336283" cy="284.2179069966601" r="4" fill="#3b82f6" stroke="#0d1117" stroke-width="2" class="data-point"/>
  
    <circle cx="239.64601769911505" cy="282.43619936627556" r="4" fill="#3b82f6" stroke="#0d1117" stroke-width="2" class="data-point"/>
  
    <circle cx="245.8407079646018" cy="281.2158516742314" r="4" fill="#3b82f6" stroke="#0d1117" stroke-width="2" class="data-point"/>
  
    <circle cx="252.03539823008848" cy="279.97719876680657" r="4" fill="#3b82f6" stroke="#0d1117" stroke-width="2" class="data-point"/>
  
    <circle cx="258.2300884955752" cy="278.6775284747795" r="4" fill="#3b82f6" stroke="#0d1117" stroke-width="2" class="data-point"/>
  
    <circle cx="264.42477876106193" cy="277.7744711826668" r="4" fill="#3b82f6" stroke="#0d1117" stroke-width="2" class="data-point"/>
  
    <circle cx="270.6194690265487" cy="276.9934486597585" r="4" fill="#3b82f6" stroke="#0d1117" stroke-width="2" class="data-point"/>
  
    <circle cx="276.81415929203536" cy="275.8036096600154" r="4" fill="#3b82f6" stroke="#0d1117" stroke-width="2" class="data-point"/>
  
    <circle cx="283.0088495575221" cy="274.35749764494307" r="4" fill="#3b82f6" stroke="#0d1117" stroke-width="2" class="data-point"/>
  
    <circle cx="289.2035398230089" cy="273.02731866061487" r="4" fill="#3b82f6" stroke="#0d1117" stroke-width="2" class="data-point"/>
  
    <circle cx="295.39823008849555" cy="271.3432388455939" r="4" fill="#3b82f6" stroke="#0d1117" stroke-width="2" class="data-point"/>
  
    <circle cx="301.5929203539823" cy="269.5066155690674" r="4" fill="#3b82f6" stroke="#0d1117" stroke-width="2" class="data-point"/>
  
    <circle cx="307.78761061946904" cy="267.8225357540464" r="4" fill="#3b82f6" stroke="#0d1117" stroke-width="2" class="data-point"/>
  
    <circle cx="313.98230088495575" cy="265.79065684679284" r="4" fill="#3b82f6" stroke="#0d1117" stroke-width="2" class="data-point"/>
  
    <circle cx="320.1769911504425" cy="263.7953883703006" r="4" fill="#3b82f6" stroke="#0d1117" stroke-width="2" class="data-point"/>
  
    <circle cx="326.3716814159292" cy="261.80011989380836" r="4" fill="#3b82f6" stroke="#0d1117" stroke-width="2" class="data-point"/>
  
    <circle cx="332.56637168141594" cy="259.61569752504926" r="4" fill="#3b82f6" stroke="#0d1117" stroke-width="2" class="data-point"/>
  
    <circle cx="338.76106194690266" cy="257.5289029716537" r="4" fill="#3b82f6" stroke="#0d1117" stroke-width="2" class="data-point"/>
  
    <circle cx="344.95575221238937" cy="255.14312323370729" r="4" fill="#3b82f6" stroke="#0d1117" stroke-width="2" class="data-point"/>
  
    <circle cx="351.1504424778761" cy="253.01361651109016" r="4" fill="#3b82f6" stroke="#0d1117" stroke-width="2" class="data-point"/>
  
    <circle cx="357.34513274336285" cy="251.213603665325" r="4" fill="#3b82f6" stroke="#0d1117" stroke-width="2" class="data-point"/>
  
    <circle cx="363.53982300884957" cy="249.77359338871287" r="4" fill="#3b82f6" stroke="#0d1117" stroke-width="2" class="data-point"/>
  
    <circle cx="369.7345132743363" cy="247.76001969683995" r="4" fill="#3b82f6" stroke="#0d1117" stroke-width="2" class="data-point"/>
  
    <circle cx="375.929203539823" cy="245.45966429733664" r="4" fill="#3b82f6" stroke="#0d1117" stroke-width="2" class="data-point"/>
  
    <circle cx="382.1238938053097" cy="243.35456452856042" r="4" fill="#3b82f6" stroke="#0d1117" stroke-width="2" class="data-point"/>
  
    <circle cx="388.3185840707965" cy="240.8955639290914" r="4" fill="#3b82f6" stroke="#0d1117" stroke-width="2" class="data-point"/>
  
    <circle cx="394.5132743362832" cy="237.86299991436158" r="4" fill="#3b82f6" stroke="#0d1117" stroke-width="2" class="data-point"/>
  
    <circle cx="400.7079646017699" cy="235.60535668407982" r="4" fill="#3b82f6" stroke="#0d1117" stroke-width="2" class="data-point"/>
  
    <circle cx="406.9026548672566" cy="233.73212297679197" r="4" fill="#3b82f6" stroke="#0d1117" stroke-width="2" class="data-point"/>
  
    <circle cx="413.0973451327434" cy="231.95041534640745" r="4" fill="#3b82f6" stroke="#0d1117" stroke-width="2" class="data-point"/>
  
    <circle cx="419.2920353982301" cy="229.80870514686993" r="4" fill="#3b82f6" stroke="#0d1117" stroke-width="2" class="data-point"/>
  
    <circle cx="425.4867256637168" cy="227.3191958550998" r="4" fill="#3b82f6" stroke="#0d1117" stroke-width="2" class="data-point"/>
  
    <circle cx="431.6814159292036" cy="224.5612100710799" r="4" fill="#3b82f6" stroke="#0d1117" stroke-width="2" class="data-point"/>
  
    <circle cx="437.87610619469024" cy="221.66288430247496" r="4" fill="#3b82f6" stroke="#0d1117" stroke-width="2" class="data-point"/>
  
    <circle cx="444.07079646017695" cy="218.8804915646142" r="4" fill="#3b82f6" stroke="#0d1117" stroke-width="2" class="data-point"/>
  
    <circle cx="450.2654867256637" cy="216.4336944420656" r="4" fill="#3b82f6" stroke="#0d1117" stroke-width="2" class="data-point"/>
  
    <circle cx="456.46017699115043" cy="214.00520253489765" r="4" fill="#3b82f6" stroke="#0d1117" stroke-width="2" class="data-point"/>
  
    <circle cx="462.65486725663715" cy="211.8634923353601" r="4" fill="#3b82f6" stroke="#0d1117" stroke-width="2" class="data-point"/>
  
    <circle cx="468.8495575221239" cy="209.67906996660102" r="4" fill="#3b82f6" stroke="#0d1117" stroke-width="2" class="data-point"/>
  
    <circle cx="475.04424778761063" cy="207.23837458251265" r="4" fill="#3b82f6" stroke="#0d1117" stroke-width="2" class="data-point"/>
  
    <circle cx="481.2389380530974" cy="204.1997088293226" r="4" fill="#3b82f6" stroke="#0d1117" stroke-width="2" class="data-point"/>
  
    <circle cx="487.43362831858406" cy="201.9359638605806" r="4" fill="#3b82f6" stroke="#0d1117" stroke-width="2" class="data-point"/>
  
    <circle cx="493.62831858407077" cy="199.91018669178726" r="4" fill="#3b82f6" stroke="#0d1117" stroke-width="2" class="data-point"/>
  
    <circle cx="499.8230088495575" cy="197.65864519996575" r="4" fill="#3b82f6" stroke="#0d1117" stroke-width="2" class="data-point"/>
  
    <circle cx="506.01769911504425" cy="195.55964716964974" r="4" fill="#3b82f6" stroke="#0d1117" stroke-width="2" class="data-point"/>
  
    <circle cx="512.212389380531" cy="193.25319003168624" r="4" fill="#3b82f6" stroke="#0d1117" stroke-width="2" class="data-point"/>
  
    <circle cx="518.4070796460178" cy="190.84910507835917" r="4" fill="#3b82f6" stroke="#0d1117" stroke-width="2" class="data-point"/>
  
    <circle cx="524.6017699115044" cy="188.33518883274814" r="4" fill="#3b82f6" stroke="#0d1117" stroke-width="2" class="data-point"/>
  
    <circle cx="530.7964601769911" cy="186.13246124860837" r="4" fill="#3b82f6" stroke="#0d1117" stroke-width="2" class="data-point"/>
  
    <circle cx="536.9911504424779" cy="184.24702406440008" r="4" fill="#3b82f6" stroke="#0d1117" stroke-width="2" class="data-point"/>
  
    <circle cx="543.1858407079646" cy="182.17853472638518" r="4" fill="#3b82f6" stroke="#0d1117" stroke-width="2" class="data-point"/>
  
    <circle cx="549.3805309734513" cy="179.93919671148413" r="4" fill="#3b82f6" stroke="#0d1117" stroke-width="2" class="data-point"/>
  
    <circle cx="555.5752212389381" cy="177.86460563500899" r="4" fill="#3b82f6" stroke="#0d1117" stroke-width="2" class="data-point"/>
  
    <circle cx="561.7699115044247" cy="175.16153549713113" r="4" fill="#3b82f6" stroke="#0d1117" stroke-width="2" class="data-point"/>
  
    <circle cx="567.9646017699115" cy="172.83677314378693" r="4" fill="#3b82f6" stroke="#0d1117" stroke-width="2" class="data-point"/>
  
    <circle cx="574.1592920353983" cy="170.59743512888585" r="4" fill="#3b82f6" stroke="#0d1117" stroke-width="2" class="data-point"/>
  
    <circle cx="580.353982300885" cy="168.73640489851846" r="4" fill="#3b82f6" stroke="#0d1117" stroke-width="2" class="data-point"/>
  
    <circle cx="586.5486725663717" cy="166.93029031429305" r="4" fill="#3b82f6" stroke="#0d1117" stroke-width="2" class="data-point"/>
  
    <circle cx="592.7433628318583" cy="165.11807399160742" r="4" fill="#3b82f6" stroke="#0d1117" stroke-width="2" class="data-point"/>
  
    <circle cx="598.9380530973451" cy="162.951956838229" r="4" fill="#3b82f6" stroke="#0d1117" stroke-width="2" class="data-point"/>
  
    <circle cx="605.1327433628319" cy="160.72482230024835" r="4" fill="#3b82f6" stroke="#0d1117" stroke-width="2" class="data-point"/>
  
    <circle cx="611.3274336283185" cy="158.02175216237046" r="4" fill="#3b82f6" stroke="#0d1117" stroke-width="2" class="data-point"/>
  
    <circle cx="617.5221238938053" cy="155.83122805515114" r="4" fill="#3b82f6" stroke="#0d1117" stroke-width="2" class="data-point"/>
  
    <circle cx="623.7168141592921" cy="154.0434186863064" r="4" fill="#3b82f6" stroke="#0d1117" stroke-width="2" class="data-point"/>
  
    <circle cx="629.9115044247787" cy="152.20679540977991" r="4" fill="#3b82f6" stroke="#0d1117" stroke-width="2" class="data-point"/>
  
    <circle cx="636.1061946902654" cy="150.4494947332363" r="4" fill="#3b82f6" stroke="#0d1117" stroke-width="2" class="data-point"/>
  
    <circle cx="642.3008849557522" cy="148.27727584139762" r="4" fill="#3b82f6" stroke="#0d1117" stroke-width="2" class="data-point"/>
  
    <circle cx="648.4955752212389" cy="146.05014130341698" r="4" fill="#3b82f6" stroke="#0d1117" stroke-width="2" class="data-point"/>
  
    <circle cx="654.6902654867257" cy="141.12603836601866" r="4" fill="#3b82f6" stroke="#0d1117" stroke-width="2" class="data-point"/>
  
    <circle cx="660.8849557522124" cy="131.32664639890382" r="4" fill="#3b82f6" stroke="#0d1117" stroke-width="2" class="data-point"/>
  
    <circle cx="667.0796460176991" cy="119.65402072450115" r="4" fill="#3b82f6" stroke="#0d1117" stroke-width="2" class="data-point"/>
  
    <circle cx="673.2743362831859" cy="109.01869058833606" r="4" fill="#3b82f6" stroke="#0d1117" stroke-width="2" class="data-point"/>
  
    <circle cx="679.4690265486726" cy="103.62475378950074" r="4" fill="#3b82f6" stroke="#0d1117" stroke-width="2" class="data-point"/>
  
    <circle cx="685.6637168141592" cy="95.49723816048643" r="4" fill="#3b82f6" stroke="#0d1117" stroke-width="2" class="data-point"/>
  
    <circle cx="691.858407079646" cy="90.09719962319087" r="4" fill="#3b82f6" stroke="#0d1117" stroke-width="2" class="data-point"/>
  
    <circle cx="698.0530973451328" cy="85.36225057805945" r="4" fill="#3b82f6" stroke="#0d1117" stroke-width="2" class="data-point"/>
  
    <circle cx="704.2477876106194" cy="80.73103108675173" r="4" fill="#3b82f6" stroke="#0d1117" stroke-width="2" class="data-point"/>
  
    <circle cx="710.4424778761062" cy="76.36828808769377" r="4" fill="#3b82f6" stroke="#0d1117" stroke-width="2" class="data-point"/>
  
    <circle cx="716.637168141593" cy="69.58315491992806" r="4" fill="#3b82f6" stroke="#0d1117" stroke-width="2" class="data-point"/>
  
    <circle cx="722.8318584070797" cy="64.18921812109272" r="4" fill="#3b82f6" stroke="#0d1117" stroke-width="2" class="data-point"/>
  
    <circle cx="729.0265486725664" cy="57.294253661043115" r="4" fill="#3b82f6" stroke="#0d1117" stroke-width="2" class="data-point"/>
  
    <circle cx="735.221238938053" cy="55.88475207673201" r="4" fill="#3b82f6" stroke="#0d1117" stroke-width="2" class="data-point"/>
  
    <circle cx="741.4159292035398" cy="55.7016999229254" r="4" fill="#3b82f6" stroke="#0d1117" stroke-width="2" class="data-point"/>
  
    <circle cx="747.6106194690266" cy="55.46373212297675" r="4" fill="#3b82f6" stroke="#0d1117" stroke-width="2" class="data-point"/>
  
    <circle cx="753.8053097345132" cy="55.262374753789516" r="4" fill="#3b82f6" stroke="#0d1117" stroke-width="2" class="data-point"/>
  
    <circle cx="760" cy="55" r="4" fill="#3b82f6" stroke="#0d1117" stroke-width="2" class="data-point"/>
  

  <!-- Axis lines -->
  <line x1="60" y1="55" x2="60" y2="340"
        stroke="#30363d" stroke-width="2"/>
  <line x1="60" y1="340" x2="760" y2="340"
        stroke="#30363d" stroke-width="2"/>
</svg>