<?xml version="1.0" encoding="UTF-8"?>
<svg width="800" height="400" xmlns="http://www.w3.org/2000/svg">
  <defs>
    <!-- Gradient for area fill -->
    <linearGradient id="areaGradient" x1="0%" y1="0%" x2="0%" y2="100%">
      <stop offset="0%" style="stop-color:#3b82f6;stop-opacity:0.3" />
      <stop offset="100%" style="stop-color:#3b82f6;stop-opacity:0.05" />
    </linearGradient>

    <!-- Glow filter for line -->
    <filter id="glow">
      <feGaussianBlur stdDeviation="2" result="coloredBlur"/>
      <feMerge>
        <feMergeNode in="coloredBlur"/>
        <feMergeNode in="SourceGraphic"/>
      </feMerge>
    </filter>

    <!-- Animation -->
    <style>
      @keyframes draw {
        from { stroke-dashoffset: 2000; }
        to { stroke-dashoffset: 0; }
      }
      @keyframes fadeIn {
        from { opacity: 0; }
        to { opacity: 1; }
      }
      .line-path {
        stroke-dasharray: 2000;
        stroke-dashoffset: 2000;
        animation: draw 1.5s ease-out forwards;
      }
      .area-path {
        opacity: 0;
        animation: fadeIn 1s ease-out 0.5s forwards;
      }
      .data-point {
        opacity: 0;
        animation: fadeIn 0.5s ease-out 1s forwards;
      }
    </style>
  </defs>

  <!-- Background -->
  <rect width="800" height="400" fill="#0d1117" rx="8"/>

  <!-- Title -->
  <text x="400" y="25" text-anchor="middle" fill="#c9d1d9" font-family="system-ui, -apple-system, sans-serif" font-size="16" font-weight="600">
    zxcloli666/SoundCloud-Desktop Downloads
  </text>

  <!-- Stats -->
  <text x="780" y="25" text-anchor="end" fill="#58a6ff" font-family="system-ui, -apple-system, sans-serif" font-size="14" font-weight="600">
    238.7K total
  </text>
  <text x="780" y="42" text-anchor="end" fill="#3fb950" font-family="system-ui, -apple-system, sans-serif" font-size="12">
    +936 (+0.4%)
  </text>

  <!-- Grid lines -->
  <g opacity="0.1">
    
      <line x1="60" y1="340" x2="760" y2="340"
            stroke="#c9d1d9" stroke-width="1"/>
    
      <line x1="60" y1="268.75" x2="760" y2="268.75"
            stroke="#c9d1d9" stroke-width="1"/>
    
      <line x1="60" y1="197.5" x2="760" y2="197.5"
            stroke="#c9d1d9" stroke-width="1"/>
    
      <line x1="60" y1="126.25" x2="760" y2="126.25"
            stroke="#c9d1d9" stroke-width="1"/>
    
      <line x1="60" y1="55" x2="760" y2="55"
            stroke="#c9d1d9" stroke-width="1"/>
    
  </g>

  <!-- Y-axis labels -->
  
    <text x="50" y="344" text-anchor="end"
          fill="#8b949e" font-family="system-ui, -apple-system, sans-serif" font-size="11">
      60.2K
    </text>
  
    <text x="50" y="272.75" text-anchor="end"
          fill="#8b949e" font-family="system-ui, -apple-system, sans-serif" font-size="11">
      104.8K
    </text>
  
    <text x="50" y="201.5" text-anchor="end"
          fill="#8b949e" font-family="system-ui, -apple-system, sans-serif" font-size="11">
      149.4K
    </text>
  
    <text x="50" y="130.25" text-anchor="end"
          fill="#8b949e" font-family="system-ui, -apple-system, sans-serif" font-size="11">
      194.1K
    </text>
  
    <text x="50" y="59" text-anchor="end"
          fill="#8b949e" font-family="system-ui, -apple-system, sans-serif" font-size="11">
      238.7K
    </text>
  

  <!-- X-axis labels -->
  
    <text x="60" y="360" text-anchor="middle"
          fill="#8b949e" font-family="system-ui, -apple-system, sans-serif" font-size="11">
      Nov 25
    </text>
  
    <text x="147.95811518324606" y="360" text-anchor="middle"
          fill="#8b949e" font-family="system-ui, -apple-system, sans-serif" font-size="11">
      Dec 19
    </text>
  
    <text x="235.91623036649213" y="360" text-anchor="middle"
          fill="#8b949e" font-family="system-ui, -apple-system, sans-serif" font-size="11">
      Jan 12
    </text>
  
    <text x="323.8743455497382" y="360" text-anchor="middle"
          fill="#8b949e" font-family="system-ui, -apple-system, sans-serif" font-size="11">
      Feb 5
    </text>
  
    <text x="411.83246073298426" y="360" text-anchor="middle"
          fill="#8b949e" font-family="system-ui, -apple-system, sans-serif" font-size="11">
      Mar 1
    </text>
  
    <text x="499.79057591623035" y="360" text-anchor="middle"
          fill="#8b949e" font-family="system-ui, -apple-system, sans-serif" font-size="11">
      Mar 25
    </text>
  
    <text x="587.7486910994764" y="360" text-anchor="middle"
          fill="#8b949e" font-family="system-ui, -apple-system, sans-serif" font-size="11">
      Apr 18
    </text>
  
    <text x="675.7068062827226" y="360" text-anchor="middle"
          fill="#8b949e" font-family="system-ui, -apple-system, sans-serif" font-size="11">
      May 12
    </text>
  
    <text x="760" y="360" text-anchor="middle"
          fill="#8b949e" font-family="system-ui, -apple-system, sans-serif" font-size="11">
      Jun 4
    </text>
  

  <!-- Area under line -->
  <path d="M 60 340
    L 60.00 340.00 L 63.66 339.77 L 67.33 339.37 L 70.99 339.00 L 74.66 338.26 L 78.32 337.50 L 81.99 336.90 L 85.65 336.34 L 89.32 335.85 L 92.98 335.26 L 96.65 334.61 L 100.31 333.92 L 103.98 333.29 L 107.64 332.61 L 111.31 332.12 L 114.97 331.62 L 118.64 330.93 L 122.30 330.47 L 125.97 329.83 L 129.63 329.09 L 133.30 328.54 L 136.96 328.08 L 140.63 327.78 L 144.29 327.54 L 147.96 327.08 L 151.62 326.76 L 155.29 326.05 L 158.95 325.77 L 162.62 325.41 L 166.28 324.94 L 169.95 324.62 L 173.61 324.30 L 177.28 323.96 L 180.94 323.72 L 184.61 323.52 L 188.27 323.21 L 191.94 322.83 L 195.60 322.48 L 199.27 322.04 L 202.93 321.56 L 206.60 321.12 L 210.26 320.59 L 213.93 320.07 L 217.59 319.54 L 221.26 318.97 L 224.92 318.43 L 228.59 317.80 L 232.25 317.25 L 235.92 316.77 L 239.58 316.40 L 243.25 315.87 L 246.91 315.27 L 250.58 314.72 L 254.24 314.08 L 257.91 313.28 L 261.57 312.69 L 265.24 312.20 L 268.90 311.74 L 272.57 311.18 L 276.23 310.52 L 279.90 309.80 L 283.56 309.04 L 287.23 308.32 L 290.89 307.68 L 294.55 307.04 L 298.22 306.48 L 301.88 305.91 L 305.55 305.27 L 309.21 304.48 L 312.88 303.88 L 316.54 303.35 L 320.21 302.77 L 323.87 302.22 L 327.54 301.61 L 331.20 300.98 L 334.87 300.33 L 338.53 299.75 L 342.20 299.26 L 345.86 298.72 L 349.53 298.13 L 353.19 297.59 L 356.86 296.88 L 360.52 296.27 L 364.19 295.69 L 367.85 295.20 L 371.52 294.73 L 375.18 294.25 L 378.85 293.69 L 382.51 293.10 L 386.18 292.40 L 389.84 291.82 L 393.51 291.36 L 397.17 290.88 L 400.84 290.42 L 404.50 289.85 L 408.17 289.27 L 411.83 287.98 L 415.50 285.41 L 419.16 282.36 L 422.83 279.58 L 426.49 278.17 L 430.16 276.04 L 433.82 274.63 L 437.49 273.39 L 441.15 272.18 L 444.82 271.04 L 448.48 269.26 L 452.15 267.85 L 455.81 266.05 L 459.48 265.68 L 463.14 265.63 L 466.81 265.57 L 470.47 265.52 L 474.14 265.45 L 477.80 265.39 L 481.47 265.36 L 485.13 265.28 L 488.80 265.19 L 492.46 265.14 L 496.13 265.11 L 499.79 265.02 L 503.46 262.71 L 507.12 259.08 L 510.79 256.65 L 514.45 253.83 L 518.12 250.93 L 521.78 248.65 L 525.45 246.10 L 529.11 242.22 L 532.77 236.98 L 536.44 233.57 L 540.10 229.50 L 543.77 224.97 L 547.43 221.34 L 551.10 217.40 L 554.76 213.90 L 558.43 210.44 L 562.09 206.98 L 565.76 202.27 L 569.42 197.56 L 573.09 193.62 L 576.75 190.32 L 580.42 187.12 L 584.08 182.88 L 587.75 179.59 L 591.41 176.33 L 595.08 173.28 L 598.74 170.41 L 602.41 167.47 L 606.07 164.96 L 609.74 162.35 L 613.40 159.70 L 617.07 156.89 L 620.73 154.31 L 624.40 151.95 L 628.06 147.67 L 631.73 144.09 L 635.39 140.65 L 639.06 137.35 L 642.72 132.14 L 646.39 128.84 L 650.05 125.98 L 653.72 122.61 L 657.38 117.64 L 661.05 114.06 L 664.71 111.04 L 668.38 108.48 L 672.04 106.06 L 675.71 104.09 L 679.37 101.87 L 683.04 100.06 L 686.70 97.92 L 690.37 94.85 L 694.03 92.21 L 697.70 89.91 L 701.36 87.92 L 705.03 85.88 L 708.69 84.15 L 712.36 81.25 L 716.02 78.76 L 719.69 76.30 L 723.35 74.27 L 727.02 72.41 L 730.68 70.75 L 734.35 67.91 L 738.01 65.61 L 741.68 63.51 L 745.34 61.50 L 749.01 59.75 L 752.67 58.05 L 756.34 56.49 L 760.00 55.00
    L 760 340
    Z" fill="url(#areaGradient)" class="area-path"/>

  <!-- Main line with glow -->
  <path d="M 60.00 340.00 L 63.66 339.77 L 67.33 339.37 L 70.99 339.00 L 74.66 338.26 L 78.32 337.50 L 81.99 336.90 L 85.65 336.34 L 89.32 335.85 L 92.98 335.26 L 96.65 334.61 L 100.31 333.92 L 103.98 333.29 L 107.64 332.61 L 111.31 332.12 L 114.97 331.62 L 118.64 330.93 L 122.30 330.47 L 125.97 329.83 L 129.63 329.09 L 133.30 328.54 L 136.96 328.08 L 140.63 327.78 L 144.29 327.54 L 147.96 327.08 L 151.62 326.76 L 155.29 326.05 L 158.95 325.77 L 162.62 325.41 L 166.28 324.94 L 169.95 324.62 L 173.61 324.30 L 177.28 323.96 L 180.94 323.72 L 184.61 323.52 L 188.27 323.21 L 191.94 322.83 L 195.60 322.48 L 199.27 322.04 L 202.93 321.56 L 206.60 321.12 L 210.26 320.59 L 213.93 320.07 L 217.59 319.54 L 221.26 318.97 L 224.92 318.43 L 228.59 317.80 L 232.25 317.25 L 235.92 316.77 L 239.58 316.40 L 243.25 315.87 L 246.91 315.27 L 250.58 314.72 L 254.24 314.08 L 257.91 313.28 L 261.57 312.69 L 265.24 312.20 L 268.90 311.74 L 272.57 311.18 L 276.23 310.52 L 279.90 309.80 L 283.56 309.04 L 287.23 308.32 L 290.89 307.68 L 294.55 307.04 L 298.22 306.48 L 301.88 305.91 L 305.55 305.27 L 309.21 304.48 L 312.88 303.88 L 316.54 303.35 L 320.21 302.77 L 323.87 302.22 L 327.54 301.61 L 331.20 300.98 L 334.87 300.33 L 338.53 299.75 L 342.20 299.26 L 345.86 298.72 L 349.53 298.13 L 353.19 297.59 L 356.86 296.88 L 360.52 296.27 L 364.19 295.69 L 367.85 295.20 L 371.52 294.73 L 375.18 294.25 L 378.85 293.69 L 382.51 293.10 L 386.18 292.40 L 389.84 291.82 L 393.51 291.36 L 397.17 290.88 L 400.84 290.42 L 404.50 289.85 L 408.17 289.27 L 411.83 287.98 L 415.50 285.41 L 419.16 282.36 L 422.83 279.58 L 426.49 278.17 L 430.16 276.04 L 433.82 274.63 L 437.49 273.39 L 441.15 272.18 L 444.82 271.04 L 448.48 269.26 L 452.15 267.85 L 455.81 266.05 L 459.48 265.68 L 463.14 265.63 L 466.81 265.57 L 470.47 265.52 L 474.14 265.45 L 477.80 265.39 L 481.47 265.36 L 485.13 265.28 L 488.80 265.19 L 492.46 265.14 L 496.13 265.11 L 499.79 265.02 L 503.46 262.71 L 507.12 259.08 L 510.79 256.65 L 514.45 253.83 L 518.12 250.93 L 521.78 248.65 L 525.45 246.10 L 529.11 242.22 L 532.77 236.98 L 536.44 233.57 L 540.10 229.50 L 543.77 224.97 L 547.43 221.34 L 551.10 217.40 L 554.76 213.90 L 558.43 210.44 L 562.09 206.98 L 565.76 202.27 L 569.42 197.56 L 573.09 193.62 L 576.75 190.32 L 580.42 187.12 L 584.08 182.88 L 587.75 179.59 L 591.41 176.33 L 595.08 173.28 L 598.74 170.41 L 602.41 167.47 L 606.07 164.96 L 609.74 162.35 L 613.40 159.70 L 617.07 156.89 L 620.73 154.31 L 624.40 151.95 L 628.06 147.67 L 631.73 144.09 L 635.39 140.65 L 639.06 137.35 L 642.72 132.14 L 646.39 128.84 L 650.05 125.98 L 653.72 122.61 L 657.38 117.64 L 661.05 114.06 L 664.71 111.04 L 668.38 108.48 L 672.04 106.06 L 675.71 104.09 L 679.37 101.87 L 683.04 100.06 L 686.70 97.92 L 690.37 94.85 L 694.03 92.21 L 697.70 89.91 L 701.36 87.92 L 705.03 85.88 L 708.69 84.15 L 712.36 81.25 L 716.02 78.76 L 719.69 76.30 L 723.35 74.27 L 727.02 72.41 L 730.68 70.75 L 734.35 67.91 L 738.01 65.61 L 741.68 63.51 L 745.34 61.50 L 749.01 59.75 L 752.67 58.05 L 756.34 56.49 L 760.00 55.00" fill="none" stroke="#3b82f6" stroke-width="3"
        stroke-linecap="round" stroke-linejoin="round" filter="url(#glow)" class="line-path"/>

  <!-- Data points -->
  
    <circle cx="60" cy="340" r="4" fill="#3b82f6" stroke="#0d1117" stroke-width="2" class="data-point"/>
  
    <circle cx="63.66492146596859" cy="339.7653690418186" r="4" fill="#3b82f6" stroke="#0d1117" stroke-width="2" class="data-point"/>
  
    <circle cx="67.32984293193718" cy="339.3663368000134" r="4" fill="#3b82f6" stroke="#0d1117" stroke-width="2" class="data-point"/>
  
    <circle cx="70.99476439790575" cy="338.99603487961826" r="4" fill="#3b82f6" stroke="#0d1117" stroke-width="2" class="data-point"/>
  
    <circle cx="74.65968586387434" cy="338.2602194257296" r="4" fill="#3b82f6" stroke="#0d1117" stroke-width="2" class="data-point"/>
  
    <circle cx="78.32460732984293" cy="337.5004620373326" r="4" fill="#3b82f6" stroke="#0d1117" stroke-width="2" class="data-point"/>
  
    <circle cx="81.98952879581151" cy="336.9019136746249" r="4" fill="#3b82f6" stroke="#0d1117" stroke-width="2" class="data-point"/>
  
    <circle cx="85.6544502617801" cy="336.3432685360977" r="4" fill="#3b82f6" stroke="#0d1117" stroke-width="2" class="data-point"/>
  
    <circle cx="89.31937172774869" cy="335.8468724272921" r="4" fill="#3b82f6" stroke="#0d1117" stroke-width="2" class="data-point"/>
  
    <circle cx="92.98429319371728" cy="335.26428535425663" r="4" fill="#3b82f6" stroke="#0d1117" stroke-width="2" class="data-point"/>
  
    <circle cx="96.64921465968587" cy="334.61466086459785" r="4" fill="#3b82f6" stroke="#0d1117" stroke-width="2" class="data-point"/>
  
    <circle cx="100.31413612565444" cy="333.9187486348897" r="4" fill="#3b82f6" stroke="#0d1117" stroke-width="2" class="data-point"/>
  
    <circle cx="103.97905759162303" cy="333.2866815638704" r="4" fill="#3b82f6" stroke="#0d1117" stroke-width="2" class="data-point"/>
  
    <circle cx="107.64397905759162" cy="332.61471126867053" r="4" fill="#3b82f6" stroke="#0d1117" stroke-width="2" class="data-point"/>
  
    <circle cx="111.3089005235602" cy="332.1246996757338" r="4" fill="#3b82f6" stroke="#0d1117" stroke-width="2" class="data-point"/>
  
    <circle cx="114.9738219895288" cy="331.6171306641577" r="4" fill="#3b82f6" stroke="#0d1117" stroke-width="2" class="data-point"/>
  
    <circle cx="118.63874345549738" cy="330.9276029503184" r="4" fill="#3b82f6" stroke="#0d1117" stroke-width="2" class="data-point"/>
  
    <circle cx="122.30366492146597" cy="330.46632167879164" r="4" fill="#3b82f6" stroke="#0d1117" stroke-width="2" class="data-point"/>
  
    <circle cx="125.96858638743456" cy="329.82787009190343" r="4" fill="#3b82f6" stroke="#0d1117" stroke-width="2" class="data-point"/>
  
    <circle cx="129.63350785340313" cy="329.09045850904755" r="4" fill="#3b82f6" stroke="#0d1117" stroke-width="2" class="data-point"/>
  
    <circle cx="133.29842931937173" cy="328.53500562845477" r="4" fill="#3b82f6" stroke="#0d1117" stroke-width="2" class="data-point"/>
  
    <circle cx="136.9633507853403" cy="328.0785127438297" r="4" fill="#3b82f6" stroke="#0d1117" stroke-width="2" class="data-point"/>
  
    <circle cx="140.62827225130889" cy="327.7832288848939" r="4" fill="#3b82f6" stroke="#0d1117" stroke-width="2" class="data-point"/>
  
    <circle cx="144.2931937172775" cy="327.5374250239419" r="4" fill="#3b82f6" stroke="#0d1117" stroke-width="2" class="data-point"/>
  
    <circle cx="147.95811518324606" cy="327.0825282682841" r="4" fill="#3b82f6" stroke="#0d1117" stroke-width="2" class="data-point"/>
  
    <circle cx="151.62303664921467" cy="326.7585140879383" r="4" fill="#3b82f6" stroke="#0d1117" stroke-width="2" class="data-point"/>
  
    <circle cx="155.28795811518324" cy="326.04823669752517" r="4" fill="#3b82f6" stroke="#0d1117" stroke-width="2" class="data-point"/>
  
    <circle cx="158.95287958115182" cy="325.76891412826154" r="4" fill="#3b82f6" stroke="#0d1117" stroke-width="2" class="data-point"/>
  
    <circle cx="162.6178010471204" cy="325.4081889816697" r="4" fill="#3b82f6" stroke="#0d1117" stroke-width="2" class="data-point"/>
  
    <circle cx="166.282722513089" cy="324.94211932324134" r="4" fill="#3b82f6" stroke="#0d1117" stroke-width="2" class="data-point"/>
  
    <circle cx="169.9476439790576" cy="324.6228935297972" r="4" fill="#3b82f6" stroke="#0d1117" stroke-width="2" class="data-point"/>
  
    <circle cx="173.61256544502618" cy="324.29887934945145" r="4" fill="#3b82f6" stroke="#0d1117" stroke-width="2" class="data-point"/>
  
    <circle cx="177.27748691099475" cy="323.9589038794335" r="4" fill="#3b82f6" stroke="#0d1117" stroke-width="2" class="data-point"/>
  
    <circle cx="180.94240837696333" cy="323.7226767922848" r="4" fill="#3b82f6" stroke="#0d1117" stroke-width="2" class="data-point"/>
  
    <circle cx="184.60732984293193" cy="323.51837228448056" r="4" fill="#3b82f6" stroke="#0d1117" stroke-width="2" class="data-point"/>
  
    <circle cx="188.27225130890054" cy="323.20712713587255" r="4" fill="#3b82f6" stroke="#0d1117" stroke-width="2" class="data-point"/>
  
    <circle cx="191.9371727748691" cy="322.8288445706413" r="4" fill="#3b82f6" stroke="#0d1117" stroke-width="2" class="data-point"/>
  
    <circle cx="195.60209424083772" cy="322.48088845578724" r="4" fill="#3b82f6" stroke="#0d1117" stroke-width="2" class="data-point"/>
  
    <circle cx="199.26701570680626" cy="322.0403568608344" r="4" fill="#3b82f6" stroke="#0d1117" stroke-width="2" class="data-point"/>
  
    <circle cx="202.93193717277487" cy="321.559922041701" r="4" fill="#3b82f6" stroke="#0d1117" stroke-width="2" class="data-point"/>
  
    <circle cx="206.59685863874344" cy="321.11939044674807" r="4" fill="#3b82f6" stroke="#0d1117" stroke-width="2" class="data-point"/>
  
    <circle cx="210.26178010471205" cy="320.58787950066363" r="4" fill="#3b82f6" stroke="#0d1117" stroke-width="2" class="data-point"/>
  
    <circle cx="213.92670157068065" cy="320.06594532838255" r="4" fill="#3b82f6" stroke="#0d1117" stroke-width="2" class="data-point"/>
  
    <circle cx="217.5916230366492" cy="319.5440111561014" r="4" fill="#3b82f6" stroke="#0d1117" stroke-width="2" class="data-point"/>
  
    <circle cx="221.2565445026178" cy="318.97259698583645" r="4" fill="#3b82f6" stroke="#0d1117" stroke-width="2" class="data-point"/>
  
    <circle cx="224.92146596858638" cy="318.426720879047" r="4" fill="#3b82f6" stroke="#0d1117" stroke-width="2" class="data-point"/>
  
    <circle cx="228.58638743455498" cy="317.8026344528638" r="4" fill="#3b82f6" stroke="#0d1117" stroke-width="2" class="data-point"/>
  
    <circle cx="232.25130890052355" cy="317.2455854433038" r="4" fill="#3b82f6" stroke="#0d1117" stroke-width="2" class="data-point"/>
  
    <circle cx="235.91623036649213" cy="316.7747273979738" r="4" fill="#3b82f6" stroke="#0d1117" stroke-width="2" class="data-point"/>
  
    <circle cx="239.58115183246073" cy="316.3980409617097" r="4" fill="#3b82f6" stroke="#0d1117" stroke-width="2" class="data-point"/>
  
    <circle cx="243.2460732984293" cy="315.8713184025269" r="4" fill="#3b82f6" stroke="#0d1117" stroke-width="2" class="data-point"/>
  
    <circle cx="246.9109947643979" cy="315.2695777818848" r="4" fill="#3b82f6" stroke="#0d1117" stroke-width="2" class="data-point"/>
  
    <circle cx="250.5759162303665" cy="314.7189132881937" r="4" fill="#3b82f6" stroke="#0d1117" stroke-width="2" class="data-point"/>
  
    <circle cx="254.2408376963351" cy="314.0756733144038" r="4" fill="#3b82f6" stroke="#0d1117" stroke-width="2" class="data-point"/>
  
    <circle cx="257.90575916230364" cy="313.2823972176952" r="4" fill="#3b82f6" stroke="#0d1117" stroke-width="2" class="data-point"/>
  
    <circle cx="261.57068062827227" cy="312.6918294998236" r="4" fill="#3b82f6" stroke="#0d1117" stroke-width="2" class="data-point"/>
  
    <circle cx="265.2356020942408" cy="312.2018179068869" r="4" fill="#3b82f6" stroke="#0d1117" stroke-width="2" class="data-point"/>
  
    <circle cx="268.9005235602094" cy="311.7357482484585" r="4" fill="#3b82f6" stroke="#0d1117" stroke-width="2" class="data-point"/>
  
    <circle cx="272.565445026178" cy="311.1755069809641" r="4" fill="#3b82f6" stroke="#0d1117" stroke-width="2" class="data-point"/>
  
    <circle cx="276.2303664921466" cy="310.5242863623381" r="4" fill="#3b82f6" stroke="#0d1117" stroke-width="2" class="data-point"/>
  
    <circle cx="279.8952879581152" cy="309.8028360691544" r="4" fill="#3b82f6" stroke="#0d1117" stroke-width="2" class="data-point"/>
  
    <circle cx="283.5602094240838" cy="309.0446748097246" r="4" fill="#3b82f6" stroke="#0d1117" stroke-width="2" class="data-point"/>
  
    <circle cx="287.22513089005236" cy="308.3168400006721" r="4" fill="#3b82f6" stroke="#0d1117" stroke-width="2" class="data-point"/>
  
    <circle cx="290.890052356021" cy="307.6767922848166" r="4" fill="#3b82f6" stroke="#0d1117" stroke-width="2" class="data-point"/>
  
    <circle cx="294.5549738219895" cy="307.04153295586286" r="4" fill="#3b82f6" stroke="#0d1117" stroke-width="2" class="data-point"/>
  
    <circle cx="298.21989528795814" cy="306.4812916883684" r="4" fill="#3b82f6" stroke="#0d1117" stroke-width="2" class="data-point"/>
  
    <circle cx="301.88481675392666" cy="305.9098775181035" r="4" fill="#3b82f6" stroke="#0d1117" stroke-width="2" class="data-point"/>
  
    <circle cx="305.5497382198953" cy="305.2714259312152" r="4" fill="#3b82f6" stroke="#0d1117" stroke-width="2" class="data-point"/>
  
    <circle cx="309.21465968586386" cy="304.4765537055394" r="4" fill="#3b82f6" stroke="#0d1117" stroke-width="2" class="data-point"/>
  
    <circle cx="312.87958115183244" cy="303.8843898587006" r="4" fill="#3b82f6" stroke="#0d1117" stroke-width="2" class="data-point"/>
  
    <circle cx="316.5445026178011" cy="303.3544750415833" r="4" fill="#3b82f6" stroke="#0d1117" stroke-width="2" class="data-point"/>
  
    <circle cx="320.20942408376965" cy="302.76550345267896" r="4" fill="#3b82f6" stroke="#0d1117" stroke-width="2" class="data-point"/>
  
    <circle cx="323.8743455497382" cy="302.2164350879551" r="4" fill="#3b82f6" stroke="#0d1117" stroke-width="2" class="data-point"/>
  
    <circle cx="327.5392670157068" cy="301.61309833834576" r="4" fill="#3b82f6" stroke="#0d1117" stroke-width="2" class="data-point"/>
  
    <circle cx="331.20418848167543" cy="300.98422352526086" r="4" fill="#3b82f6" stroke="#0d1117" stroke-width="2" class="data-point"/>
  
    <circle cx="334.869109947644" cy="300.326618390766" r="4" fill="#3b82f6" stroke="#0d1117" stroke-width="2" class="data-point"/>
  
    <circle cx="338.5340314136125" cy="299.75041583359933" r="4" fill="#3b82f6" stroke="#0d1117" stroke-width="2" class="data-point"/>
  
    <circle cx="342.19895287958116" cy="299.2572119827282" r="4" fill="#3b82f6" stroke="#0d1117" stroke-width="2" class="data-point"/>
  
    <circle cx="345.86387434554973" cy="298.7161242628404" r="4" fill="#3b82f6" stroke="#0d1117" stroke-width="2" class="data-point"/>
  
    <circle cx="349.5287958115183" cy="298.13034493187047" r="4" fill="#3b82f6" stroke="#0d1117" stroke-width="2" class="data-point"/>
  
    <circle cx="353.1937172774869" cy="297.5876610830155" r="4" fill="#3b82f6" stroke="#0d1117" stroke-width="2" class="data-point"/>
  
    <circle cx="356.8586387434555" cy="296.8805759505368" r="4" fill="#3b82f6" stroke="#0d1117" stroke-width="2" class="data-point"/>
  
    <circle cx="360.5235602094241" cy="296.2724508140258" r="4" fill="#3b82f6" stroke="#0d1117" stroke-width="2" class="data-point"/>
  
    <circle cx="364.18848167539267" cy="295.6866714830558" r="4" fill="#3b82f6" stroke="#0d1117" stroke-width="2" class="data-point"/>
  
    <circle cx="367.8534031413613" cy="295.19985214805354" r="4" fill="#3b82f6" stroke="#0d1117" stroke-width="2" class="data-point"/>
  
    <circle cx="371.5183246073299" cy="294.7273979737563" r="4" fill="#3b82f6" stroke="#0d1117" stroke-width="2" class="data-point"/>
  
    <circle cx="375.1832460732984" cy="294.2533476704918" r="4" fill="#3b82f6" stroke="#0d1117" stroke-width="2" class="data-point"/>
  
    <circle cx="378.848167539267" cy="293.6867218871285" r="4" fill="#3b82f6" stroke="#0d1117" stroke-width="2" class="data-point"/>
  
    <circle cx="382.5130890052356" cy="293.10413481409296" r="4" fill="#3b82f6" stroke="#0d1117" stroke-width="2" class="data-point"/>
  
    <circle cx="386.1780104712042" cy="292.39704968161425" r="4" fill="#3b82f6" stroke="#0d1117" stroke-width="2" class="data-point"/>
  
    <circle cx="389.84293193717275" cy="291.8240393823821" r="4" fill="#3b82f6" stroke="#0d1117" stroke-width="2" class="data-point"/>
  
    <circle cx="393.5078534031414" cy="291.3563735949865" r="4" fill="#3b82f6" stroke="#0d1117" stroke-width="2" class="data-point"/>
  
    <circle cx="397.17277486910996" cy="290.8759387758531" r="4" fill="#3b82f6" stroke="#0d1117" stroke-width="2" class="data-point"/>
  
    <circle cx="400.83769633507853" cy="290.41625363329354" r="4" fill="#3b82f6" stroke="#0d1117" stroke-width="2" class="data-point"/>
  
    <circle cx="404.5026178010471" cy="289.84803172096304" r="4" fill="#3b82f6" stroke="#0d1117" stroke-width="2" class="data-point"/>
  
    <circle cx="408.16753926701574" cy="289.26544464792755" r="4" fill="#3b82f6" stroke="#0d1117" stroke-width="2" class="data-point"/>
  
    <circle cx="411.83246073298426" cy="287.97736857138057" r="4" fill="#3b82f6" stroke="#0d1117" stroke-width="2" class="data-point"/>
  
    <circle cx="415.4973821989529" cy="285.41398545002437" r="4" fill="#3b82f6" stroke="#0d1117" stroke-width="2" class="data-point"/>
  
    <circle cx="419.16230366492147" cy="282.3605907357314" r="4" fill="#3b82f6" stroke="#0d1117" stroke-width="2" class="data-point"/>
  
    <circle cx="422.8272251308901" cy="279.57853794586606" r="4" fill="#3b82f6" stroke="#0d1117" stroke-width="2" class="data-point"/>
  
    <circle cx="426.4921465968586" cy="278.16755993884306" r="4" fill="#3b82f6" stroke="#0d1117" stroke-width="2" class="data-point"/>
  
    <circle cx="430.1570680628272" cy="276.0415161545053" r="4" fill="#3b82f6" stroke="#0d1117" stroke-width="2" class="data-point"/>
  
    <circle cx="433.8219895287958" cy="274.6289420185151" r="4" fill="#3b82f6" stroke="#0d1117" stroke-width="2" class="data-point"/>
  
    <circle cx="437.48691099476434" cy="273.39034593995194" r="4" fill="#3b82f6" stroke="#0d1117" stroke-width="2" class="data-point"/>
  
    <circle cx="441.151832460733" cy="272.17888405383155" r="4" fill="#3b82f6" stroke="#0d1117" stroke-width="2" class="data-point"/>
  
    <circle cx="444.81675392670155" cy="271.0376518422689" r="4" fill="#3b82f6" stroke="#0d1117" stroke-width="2" class="data-point"/>
  
    <circle cx="448.4816753926702" cy="269.2627564307196" r="4" fill="#3b82f6" stroke="#0d1117" stroke-width="2" class="data-point"/>
  
    <circle cx="452.1465968586387" cy="267.8517784236966" r="4" fill="#3b82f6" stroke="#0d1117" stroke-width="2" class="data-point"/>
  
    <circle cx="455.81151832460733" cy="266.0481526907374" r="4" fill="#3b82f6" stroke="#0d1117" stroke-width="2" class="data-point"/>
  
    <circle cx="459.4764397905759" cy="265.6794468993095" r="4" fill="#3b82f6" stroke="#0d1117" stroke-width="2" class="data-point"/>
  
    <circle cx="463.14136125654454" cy="265.63156303029285" r="4" fill="#3b82f6" stroke="#0d1117" stroke-width="2" class="data-point"/>
  
    <circle cx="466.8062827225131" cy="265.56931400057124" r="4" fill="#3b82f6" stroke="#0d1117" stroke-width="2" class="data-point"/>
  
    <circle cx="470.47120418848164" cy="265.51664174465293" r="4" fill="#3b82f6" stroke="#0d1117" stroke-width="2" class="data-point"/>
  
    <circle cx="474.13612565445027" cy="265.4480081990625" r="4" fill="#3b82f6" stroke="#0d1117" stroke-width="2" class="data-point"/>
  
    <circle cx="477.80104712041884" cy="265.3873552983081" r="4" fill="#3b82f6" stroke="#0d1117" stroke-width="2" class="data-point"/>
  
    <circle cx="481.4659685863875" cy="265.3634133637998" r="4" fill="#3b82f6" stroke="#0d1117" stroke-width="2" class="data-point"/>
  
    <circle cx="485.130890052356" cy="265.27562627060263" r="4" fill="#3b82f6" stroke="#0d1117" stroke-width="2" class="data-point"/>
  
    <circle cx="488.7958115183246" cy="265.19103143534" r="4" fill="#3b82f6" stroke="#0d1117" stroke-width="2" class="data-point"/>
  
    <circle cx="492.4607329842932" cy="265.13516692148727" r="4" fill="#3b82f6" stroke="#0d1117" stroke-width="2" class="data-point"/>
  
    <circle cx="496.12565445026183" cy="265.1144172449134" r="4" fill="#3b82f6" stroke="#0d1117" stroke-width="2" class="data-point"/>
  
    <circle cx="499.79057591623035" cy="265.0202456358474" r="4" fill="#3b82f6" stroke="#0d1117" stroke-width="2" class="data-point"/>
  
    <circle cx="503.4554973821989" cy="262.7058586333776" r="4" fill="#3b82f6" stroke="#0d1117" stroke-width="2" class="data-point"/>
  
    <circle cx="507.12041884816756" cy="259.08104974881974" r="4" fill="#3b82f6" stroke="#0d1117" stroke-width="2" class="data-point"/>
  
    <circle cx="510.7853403141361" cy="256.6533375896772" r="4" fill="#3b82f6" stroke="#0d1117" stroke-width="2" class="data-point"/>
  
    <circle cx="514.4502617801047" cy="253.83457383356574" r="4" fill="#3b82f6" stroke="#0d1117" stroke-width="2" class="data-point"/>
  
    <circle cx="518.1151832460732" cy="250.92961911322436" r="4" fill="#3b82f6" stroke="#0d1117" stroke-width="2" class="data-point"/>
  
    <circle cx="521.780104712042" cy="248.65034694803342" r="4" fill="#3b82f6" stroke="#0d1117" stroke-width="2" class="data-point"/>
  
    <circle cx="525.4450261780105" cy="246.1013289873822" r="4" fill="#3b82f6" stroke="#0d1117" stroke-width="2" class="data-point"/>
  
    <circle cx="529.109947643979" cy="242.21794721013458" r="4" fill="#3b82f6" stroke="#0d1117" stroke-width="2" class="data-point"/>
  
    <circle cx="532.7748691099476" cy="236.9842403266184" r="4" fill="#3b82f6" stroke="#0d1117" stroke-width="2" class="data-point"/>
  
    <circle cx="536.4397905759163" cy="233.56852433676642" r="4" fill="#3b82f6" stroke="#0d1117" stroke-width="2" class="data-point"/>
  
    <circle cx="540.1047120418848" cy="229.50318385725566" r="4" fill="#3b82f6" stroke="#0d1117" stroke-width="2" class="data-point"/>
  
    <circle cx="543.7696335078533" cy="224.97336984828377" r="4" fill="#3b82f6" stroke="#0d1117" stroke-width="2" class="data-point"/>
  
    <circle cx="547.4345549738221" cy="221.34058031888975" r="4" fill="#3b82f6" stroke="#0d1117" stroke-width="2" class="data-point"/>
  
    <circle cx="551.0994764397906" cy="217.398141769855" r="4" fill="#3b82f6" stroke="#0d1117" stroke-width="2" class="data-point"/>
  
    <circle cx="554.7643979057591" cy="213.90102320267476" r="4" fill="#3b82f6" stroke="#0d1117" stroke-width="2" class="data-point"/>
  
    <circle cx="558.4293193717277" cy="210.43582721483895" r="4" fill="#3b82f6" stroke="#0d1117" stroke-width="2" class="data-point"/>
  
    <circle cx="562.0942408376964" cy="206.98020800080647" r="4" fill="#3b82f6" stroke="#0d1117" stroke-width="2" class="data-point"/>
  
    <circle cx="565.7591623036649" cy="202.27481980544027" r="4" fill="#3b82f6" stroke="#0d1117" stroke-width="2" class="data-point"/>
  
    <circle cx="569.4240837696335" cy="197.55506644936912" r="4" fill="#3b82f6" stroke="#0d1117" stroke-width="2" class="data-point"/>
  
    <circle cx="573.0890052356021" cy="193.62060854517043" r="4" fill="#3b82f6" stroke="#0d1117" stroke-width="2" class="data-point"/>
  
    <circle cx="576.7539267015707" cy="190.3230060988928" r="4" fill="#3b82f6" stroke="#0d1117" stroke-width="2" class="data-point"/>
  
    <circle cx="580.4188481675393" cy="187.1243636485828" r="4" fill="#3b82f6" stroke="#0d1117" stroke-width="2" class="data-point"/>
  
    <circle cx="584.0837696335078" cy="182.87866059577615" r="4" fill="#3b82f6" stroke="#0d1117" stroke-width="2" class="data-point"/>
  
    <circle cx="587.7486910994764" cy="179.58584653640014" r="4" fill="#3b82f6" stroke="#0d1117" stroke-width="2" class="data-point"/>
  
    <circle cx="591.413612565445" cy="176.32814731430298" r="4" fill="#3b82f6" stroke="#0d1117" stroke-width="2" class="data-point"/>
  
    <circle cx="595.0785340314136" cy="173.28113711587898" r="4" fill="#3b82f6" stroke="#0d1117" stroke-width="2" class="data-point"/>
  
    <circle cx="598.7434554973822" cy="170.41129723281642" r="4" fill="#3b82f6" stroke="#0d1117" stroke-width="2" class="data-point"/>
  
    <circle cx="602.4083769633509" cy="167.47122767519616" r="4" fill="#3b82f6" stroke="#0d1117" stroke-width="2" class="data-point"/>
  
    <circle cx="606.0732984293194" cy="164.95732455182377" r="4" fill="#3b82f6" stroke="#0d1117" stroke-width="2" class="data-point"/>
  
    <circle cx="609.738219895288" cy="162.35403820628707" r="4" fill="#3b82f6" stroke="#0d1117" stroke-width="2" class="data-point"/>
  
    <circle cx="613.4031413612565" cy="159.69648347586482" r="4" fill="#3b82f6" stroke="#0d1117" stroke-width="2" class="data-point"/>
  
    <circle cx="617.068062827225" cy="156.8872964935567" r="4" fill="#3b82f6" stroke="#0d1117" stroke-width="2" class="data-point"/>
  
    <circle cx="620.7329842931937" cy="154.3095482114955" r="4" fill="#3b82f6" stroke="#0d1117" stroke-width="2" class="data-point"/>
  
    <circle cx="624.3979057591623" cy="151.9488734689763" r="4" fill="#3b82f6" stroke="#0d1117" stroke-width="2" class="data-point"/>
  
    <circle cx="628.062827225131" cy="147.67124783682522" r="4" fill="#3b82f6" stroke="#0d1117" stroke-width="2" class="data-point"/>
  
    <circle cx="631.7277486910995" cy="144.0911305633495" r="4" fill="#3b82f6" stroke="#0d1117" stroke-width="2" class="data-point"/>
  
    <circle cx="635.3926701570681" cy="140.65306876795646" r="4" fill="#3b82f6" stroke="#0d1117" stroke-width="2" class="data-point"/>
  
    <circle cx="639.0575916230366" cy="137.35067793477714" r="4" fill="#3b82f6" stroke="#0d1117" stroke-width="2" class="data-point"/>
  
    <circle cx="642.7225130890052" cy="132.13612459886758" r="4" fill="#3b82f6" stroke="#0d1117" stroke-width="2" class="data-point"/>
  
    <circle cx="646.3874345549738" cy="128.8369260236227" r="4" fill="#3b82f6" stroke="#0d1117" stroke-width="2" class="data-point"/>
  
    <circle cx="650.0523560209424" cy="125.98145130126514" r="4" fill="#3b82f6" stroke="#0d1117" stroke-width="2" class="data-point"/>
  
    <circle cx="653.717277486911" cy="122.60883079352814" r="4" fill="#3b82f6" stroke="#0d1117" stroke-width="2" class="data-point"/>
  
    <circle cx="657.3821989528795" cy="117.63688906063612" r="4" fill="#3b82f6" stroke="#0d1117" stroke-width="2" class="data-point"/>
  
    <circle cx="661.0471204188482" cy="114.05996404509486" r="4" fill="#3b82f6" stroke="#0d1117" stroke-width="2" class="data-point"/>
  
    <circle cx="664.7120418848167" cy="111.04008803911358" r="4" fill="#3b82f6" stroke="#0d1117" stroke-width="2" class="data-point"/>
  
    <circle cx="668.3769633507853" cy="108.48468556259346" r="4" fill="#3b82f6" stroke="#0d1117" stroke-width="2" class="data-point"/>
  
    <circle cx="672.041884816754" cy="106.06016566138544" r="4" fill="#3b82f6" stroke="#0d1117" stroke-width="2" class="data-point"/>
  
    <circle cx="675.7068062827226" cy="104.08894638686806" r="4" fill="#3b82f6" stroke="#0d1117" stroke-width="2" class="data-point"/>
  
    <circle cx="679.3717277486911" cy="101.86873099346428" r="4" fill="#3b82f6" stroke="#0d1117" stroke-width="2" class="data-point"/>
  
    <circle cx="683.0366492146597" cy="100.05872074463619" r="4" fill="#3b82f6" stroke="#0d1117" stroke-width="2" class="data-point"/>
  
    <circle cx="686.7015706806283" cy="97.92310018649505" r="4" fill="#3b82f6" stroke="#0d1117" stroke-width="2" class="data-point"/>
  
    <circle cx="690.3664921465968" cy="94.84895579562829" r="4" fill="#3b82f6" stroke="#0d1117" stroke-width="2" class="data-point"/>
  
    <circle cx="694.0314136125654" cy="92.20736235487828" r="4" fill="#3b82f6" stroke="#0d1117" stroke-width="2" class="data-point"/>
  
    <circle cx="697.696335078534" cy="89.91053277104788" r="4" fill="#3b82f6" stroke="#0d1117" stroke-width="2" class="data-point"/>
  
    <circle cx="701.3612565445027" cy="87.92494833582552" r="4" fill="#3b82f6" stroke="#0d1117" stroke-width="2" class="data-point"/>
  
    <circle cx="705.0261780104712" cy="85.87711487088157" r="4" fill="#3b82f6" stroke="#0d1117" stroke-width="2" class="data-point"/>
  
    <circle cx="708.6910994764398" cy="84.15010332834893" r="4" fill="#3b82f6" stroke="#0d1117" stroke-width="2" class="data-point"/>
  
    <circle cx="712.3560209424083" cy="81.24674473697473" r="4" fill="#3b82f6" stroke="#0d1117" stroke-width="2" class="data-point"/>
  
    <circle cx="716.020942408377" cy="78.76476419294681" r="4" fill="#3b82f6" stroke="#0d1117" stroke-width="2" class="data-point"/>
  
    <circle cx="719.6858638743455" cy="76.30353332549271" r="4" fill="#3b82f6" stroke="#0d1117" stroke-width="2" class="data-point"/>
  
    <circle cx="723.3507853403141" cy="74.27166115022095" r="4" fill="#3b82f6" stroke="#0d1117" stroke-width="2" class="data-point"/>
  
    <circle cx="727.0157068062828" cy="72.40738251650731" r="4" fill="#3b82f6" stroke="#0d1117" stroke-width="2" class="data-point"/>
  
    <circle cx="730.6806282722513" cy="70.75219677749965" r="4" fill="#3b82f6" stroke="#0d1117" stroke-width="2" class="data-point"/>
  
    <circle cx="734.3455497382199" cy="67.91427947378145" r="4" fill="#3b82f6" stroke="#0d1117" stroke-width="2" class="data-point"/>
  
    <circle cx="738.0104712041884" cy="65.60946924511501" r="4" fill="#3b82f6" stroke="#0d1117" stroke-width="2" class="data-point"/>
  
    <circle cx="741.6753926701571" cy="63.50896352425275" r="4" fill="#3b82f6" stroke="#0d1117" stroke-width="2" class="data-point"/>
  
    <circle cx="745.3403141361256" cy="61.50262941245654" r="4" fill="#3b82f6" stroke="#0d1117" stroke-width="2" class="data-point"/>
  
    <circle cx="749.0052356020942" cy="59.75167593541562" r="4" fill="#3b82f6" stroke="#0d1117" stroke-width="2" class="data-point"/>
  
    <circle cx="752.6701570680628" cy="58.051798585325685" r="4" fill="#3b82f6" stroke="#0d1117" stroke-width="2" class="data-point"/>
  
    <circle cx="756.3350785340315" cy="56.49397671331843" r="4" fill="#3b82f6" stroke="#0d1117" stroke-width="2" class="data-point"/>
  
    <circle cx="760" cy="55" r="4" fill="#3b82f6" stroke="#0d1117" stroke-width="2" class="data-point"/>
  

  <!-- Axis lines -->
  <line x1="60" y1="55" x2="60" y2="340"
        stroke="#30363d" stroke-width="2"/>
  <line x1="60" y1="340" x2="760" y2="340"
        stroke="#30363d" stroke-width="2"/>
</svg>