<?xml version="1.0" encoding="UTF-8"?>
<svg width="800" height="400" xmlns="http://www.w3.org/2000/svg">
  <defs>
    <!-- Gradient for area fill -->
    <linearGradient id="areaGradient" x1="0%" y1="0%" x2="0%" y2="100%">
      <stop offset="0%" style="stop-color:#3b82f6;stop-opacity:0.3" />
      <stop offset="100%" style="stop-color:#3b82f6;stop-opacity:0.05" />
    </linearGradient>

    <!-- Glow filter for line -->
    <filter id="glow">
      <feGaussianBlur stdDeviation="2" result="coloredBlur"/>
      <feMerge>
        <feMergeNode in="coloredBlur"/>
        <feMergeNode in="SourceGraphic"/>
      </feMerge>
    </filter>

    <!-- Animation -->
    <style>
      @keyframes draw {
        from { stroke-dashoffset: 2000; }
        to { stroke-dashoffset: 0; }
      }
      @keyframes fadeIn {
        from { opacity: 0; }
        to { opacity: 1; }
      }
      .line-path {
        stroke-dasharray: 2000;
        stroke-dashoffset: 2000;
        animation: draw 1.5s ease-out forwards;
      }
      .area-path {
        opacity: 0;
        animation: fadeIn 1s ease-out 0.5s forwards;
      }
      .data-point {
        opacity: 0;
        animation: fadeIn 0.5s ease-out 1s forwards;
      }
    </style>
  </defs>

  <!-- Background -->
  <rect width="800" height="400" fill="#0d1117" rx="8"/>

  <!-- Title -->
  <text x="400" y="25" text-anchor="middle" fill="#c9d1d9" font-family="system-ui, -apple-system, sans-serif" font-size="16" font-weight="600">
    zxcloli666/SoundCloud-Desktop Downloads
  </text>

  <!-- Stats -->
  <text x="780" y="25" text-anchor="end" fill="#58a6ff" font-family="system-ui, -apple-system, sans-serif" font-size="14" font-weight="600">
    225.4K total
  </text>
  <text x="780" y="42" text-anchor="end" fill="#3fb950" font-family="system-ui, -apple-system, sans-serif" font-size="12">
    +1.5K (+0.7%)
  </text>

  <!-- Grid lines -->
  <g opacity="0.1">
    
      <line x1="60" y1="340" x2="760" y2="340"
            stroke="#c9d1d9" stroke-width="1"/>
    
      <line x1="60" y1="268.75" x2="760" y2="268.75"
            stroke="#c9d1d9" stroke-width="1"/>
    
      <line x1="60" y1="197.5" x2="760" y2="197.5"
            stroke="#c9d1d9" stroke-width="1"/>
    
      <line x1="60" y1="126.25" x2="760" y2="126.25"
            stroke="#c9d1d9" stroke-width="1"/>
    
      <line x1="60" y1="55" x2="760" y2="55"
            stroke="#c9d1d9" stroke-width="1"/>
    
  </g>

  <!-- Y-axis labels -->
  
    <text x="50" y="344" text-anchor="end"
          fill="#8b949e" font-family="system-ui, -apple-system, sans-serif" font-size="11">
      60.2K
    </text>
  
    <text x="50" y="272.75" text-anchor="end"
          fill="#8b949e" font-family="system-ui, -apple-system, sans-serif" font-size="11">
      101.5K
    </text>
  
    <text x="50" y="201.5" text-anchor="end"
          fill="#8b949e" font-family="system-ui, -apple-system, sans-serif" font-size="11">
      142.8K
    </text>
  
    <text x="50" y="130.25" text-anchor="end"
          fill="#8b949e" font-family="system-ui, -apple-system, sans-serif" font-size="11">
      184.1K
    </text>
  
    <text x="50" y="59" text-anchor="end"
          fill="#8b949e" font-family="system-ui, -apple-system, sans-serif" font-size="11">
      225.4K
    </text>
  

  <!-- X-axis labels -->
  
    <text x="60" y="360" text-anchor="middle"
          fill="#8b949e" font-family="system-ui, -apple-system, sans-serif" font-size="11">
      Nov 25
    </text>
  
    <text x="145.55555555555554" y="360" text-anchor="middle"
          fill="#8b949e" font-family="system-ui, -apple-system, sans-serif" font-size="11">
      Dec 17
    </text>
  
    <text x="231.11111111111111" y="360" text-anchor="middle"
          fill="#8b949e" font-family="system-ui, -apple-system, sans-serif" font-size="11">
      Jan 8
    </text>
  
    <text x="316.66666666666663" y="360" text-anchor="middle"
          fill="#8b949e" font-family="system-ui, -apple-system, sans-serif" font-size="11">
      Jan 30
    </text>
  
    <text x="402.22222222222223" y="360" text-anchor="middle"
          fill="#8b949e" font-family="system-ui, -apple-system, sans-serif" font-size="11">
      Feb 21
    </text>
  
    <text x="487.7777777777778" y="360" text-anchor="middle"
          fill="#8b949e" font-family="system-ui, -apple-system, sans-serif" font-size="11">
      Mar 15
    </text>
  
    <text x="573.3333333333333" y="360" text-anchor="middle"
          fill="#8b949e" font-family="system-ui, -apple-system, sans-serif" font-size="11">
      Apr 6
    </text>
  
    <text x="658.8888888888889" y="360" text-anchor="middle"
          fill="#8b949e" font-family="system-ui, -apple-system, sans-serif" font-size="11">
      Apr 28
    </text>
  
    <text x="744.4444444444445" y="360" text-anchor="middle"
          fill="#8b949e" font-family="system-ui, -apple-system, sans-serif" font-size="11">
      May 20
    </text>
  
    <text x="760" y="360" text-anchor="middle"
          fill="#8b949e" font-family="system-ui, -apple-system, sans-serif" font-size="11">
      May 24
    </text>
  

  <!-- Area under line -->
  <path d="M 60 340
    L 60.00 340.00 L 63.89 339.75 L 67.78 339.32 L 71.67 338.91 L 75.56 338.12 L 79.44 337.30 L 83.33 336.65 L 87.22 336.05 L 91.11 335.51 L 95.00 334.88 L 98.89 334.18 L 102.78 333.43 L 106.67 332.74 L 110.56 332.02 L 114.44 331.49 L 118.33 330.94 L 122.22 330.19 L 126.11 329.70 L 130.00 329.01 L 133.89 328.21 L 137.78 327.61 L 141.67 327.12 L 145.56 326.80 L 149.44 326.53 L 153.33 326.04 L 157.22 325.69 L 161.11 324.92 L 165.00 324.62 L 168.89 324.23 L 172.78 323.73 L 176.67 323.38 L 180.56 323.03 L 184.44 322.66 L 188.33 322.41 L 192.22 322.19 L 196.11 321.85 L 200.00 321.44 L 203.89 321.07 L 207.78 320.59 L 211.67 320.07 L 215.56 319.59 L 219.44 319.02 L 223.33 318.46 L 227.22 317.89 L 231.11 317.27 L 235.00 316.68 L 238.89 316.01 L 242.78 315.41 L 246.67 314.90 L 250.56 314.49 L 254.44 313.92 L 258.33 313.27 L 262.22 312.68 L 266.11 311.98 L 270.00 311.12 L 273.89 310.49 L 277.78 309.96 L 281.67 309.45 L 285.56 308.85 L 289.44 308.14 L 293.33 307.36 L 297.22 306.54 L 301.11 305.76 L 305.00 305.07 L 308.89 304.38 L 312.78 303.77 L 316.67 303.16 L 320.56 302.47 L 324.44 301.61 L 328.33 300.97 L 332.22 300.39 L 336.11 299.76 L 340.00 299.16 L 343.89 298.51 L 347.78 297.83 L 351.67 297.12 L 355.56 296.50 L 359.44 295.97 L 363.33 295.38 L 367.22 294.75 L 371.11 294.16 L 375.00 293.40 L 378.89 292.74 L 382.78 292.11 L 386.67 291.58 L 390.56 291.07 L 394.44 290.56 L 398.33 289.95 L 402.22 289.32 L 406.11 288.55 L 410.00 287.93 L 413.89 287.43 L 417.78 286.91 L 421.67 286.41 L 425.56 285.80 L 429.44 285.17 L 433.33 283.77 L 437.22 281.00 L 441.11 277.70 L 445.00 274.70 L 448.89 273.17 L 452.78 270.87 L 456.67 269.35 L 460.56 268.01 L 464.44 266.70 L 468.33 265.47 L 472.22 263.55 L 476.11 262.02 L 480.00 260.07 L 483.89 259.68 L 487.78 259.62 L 491.67 259.56 L 495.56 259.50 L 499.44 259.43 L 503.33 259.36 L 507.22 259.33 L 511.11 259.24 L 515.00 259.15 L 518.89 259.09 L 522.78 259.06 L 526.67 258.96 L 530.56 256.46 L 534.44 252.54 L 538.33 249.92 L 542.22 246.87 L 546.11 243.73 L 550.00 241.27 L 553.89 238.52 L 557.78 234.32 L 561.67 228.66 L 565.56 224.97 L 569.44 220.58 L 573.33 215.68 L 577.22 211.75 L 581.11 207.49 L 585.00 203.71 L 588.89 199.97 L 592.78 196.23 L 596.67 191.15 L 600.56 186.05 L 604.44 181.79 L 608.33 178.23 L 612.22 174.77 L 616.11 170.19 L 620.00 166.63 L 623.89 163.11 L 627.78 159.81 L 631.67 156.71 L 635.56 153.53 L 639.44 150.82 L 643.33 148.00 L 647.22 145.13 L 651.11 142.09 L 655.00 139.31 L 658.89 136.76 L 662.78 132.13 L 666.67 128.26 L 670.56 124.55 L 674.44 120.98 L 678.33 115.34 L 682.22 111.78 L 686.11 108.69 L 690.00 105.05 L 693.89 99.67 L 697.78 95.81 L 701.67 92.54 L 705.56 89.78 L 709.44 87.16 L 713.33 85.03 L 717.22 82.63 L 721.11 80.67 L 725.00 78.37 L 728.89 75.04 L 732.78 72.19 L 736.67 69.71 L 740.56 67.56 L 744.44 65.35 L 748.33 63.48 L 752.22 60.34 L 756.11 57.66 L 760.00 55.00
    L 760 340
    Z" fill="url(#areaGradient)" class="area-path"/>

  <!-- Main line with glow -->
  <path d="M 60.00 340.00 L 63.89 339.75 L 67.78 339.32 L 71.67 338.91 L 75.56 338.12 L 79.44 337.30 L 83.33 336.65 L 87.22 336.05 L 91.11 335.51 L 95.00 334.88 L 98.89 334.18 L 102.78 333.43 L 106.67 332.74 L 110.56 332.02 L 114.44 331.49 L 118.33 330.94 L 122.22 330.19 L 126.11 329.70 L 130.00 329.01 L 133.89 328.21 L 137.78 327.61 L 141.67 327.12 L 145.56 326.80 L 149.44 326.53 L 153.33 326.04 L 157.22 325.69 L 161.11 324.92 L 165.00 324.62 L 168.89 324.23 L 172.78 323.73 L 176.67 323.38 L 180.56 323.03 L 184.44 322.66 L 188.33 322.41 L 192.22 322.19 L 196.11 321.85 L 200.00 321.44 L 203.89 321.07 L 207.78 320.59 L 211.67 320.07 L 215.56 319.59 L 219.44 319.02 L 223.33 318.46 L 227.22 317.89 L 231.11 317.27 L 235.00 316.68 L 238.89 316.01 L 242.78 315.41 L 246.67 314.90 L 250.56 314.49 L 254.44 313.92 L 258.33 313.27 L 262.22 312.68 L 266.11 311.98 L 270.00 311.12 L 273.89 310.49 L 277.78 309.96 L 281.67 309.45 L 285.56 308.85 L 289.44 308.14 L 293.33 307.36 L 297.22 306.54 L 301.11 305.76 L 305.00 305.07 L 308.89 304.38 L 312.78 303.77 L 316.67 303.16 L 320.56 302.47 L 324.44 301.61 L 328.33 300.97 L 332.22 300.39 L 336.11 299.76 L 340.00 299.16 L 343.89 298.51 L 347.78 297.83 L 351.67 297.12 L 355.56 296.50 L 359.44 295.97 L 363.33 295.38 L 367.22 294.75 L 371.11 294.16 L 375.00 293.40 L 378.89 292.74 L 382.78 292.11 L 386.67 291.58 L 390.56 291.07 L 394.44 290.56 L 398.33 289.95 L 402.22 289.32 L 406.11 288.55 L 410.00 287.93 L 413.89 287.43 L 417.78 286.91 L 421.67 286.41 L 425.56 285.80 L 429.44 285.17 L 433.33 283.77 L 437.22 281.00 L 441.11 277.70 L 445.00 274.70 L 448.89 273.17 L 452.78 270.87 L 456.67 269.35 L 460.56 268.01 L 464.44 266.70 L 468.33 265.47 L 472.22 263.55 L 476.11 262.02 L 480.00 260.07 L 483.89 259.68 L 487.78 259.62 L 491.67 259.56 L 495.56 259.50 L 499.44 259.43 L 503.33 259.36 L 507.22 259.33 L 511.11 259.24 L 515.00 259.15 L 518.89 259.09 L 522.78 259.06 L 526.67 258.96 L 530.56 256.46 L 534.44 252.54 L 538.33 249.92 L 542.22 246.87 L 546.11 243.73 L 550.00 241.27 L 553.89 238.52 L 557.78 234.32 L 561.67 228.66 L 565.56 224.97 L 569.44 220.58 L 573.33 215.68 L 577.22 211.75 L 581.11 207.49 L 585.00 203.71 L 588.89 199.97 L 592.78 196.23 L 596.67 191.15 L 600.56 186.05 L 604.44 181.79 L 608.33 178.23 L 612.22 174.77 L 616.11 170.19 L 620.00 166.63 L 623.89 163.11 L 627.78 159.81 L 631.67 156.71 L 635.56 153.53 L 639.44 150.82 L 643.33 148.00 L 647.22 145.13 L 651.11 142.09 L 655.00 139.31 L 658.89 136.76 L 662.78 132.13 L 666.67 128.26 L 670.56 124.55 L 674.44 120.98 L 678.33 115.34 L 682.22 111.78 L 686.11 108.69 L 690.00 105.05 L 693.89 99.67 L 697.78 95.81 L 701.67 92.54 L 705.56 89.78 L 709.44 87.16 L 713.33 85.03 L 717.22 82.63 L 721.11 80.67 L 725.00 78.37 L 728.89 75.04 L 732.78 72.19 L 736.67 69.71 L 740.56 67.56 L 744.44 65.35 L 748.33 63.48 L 752.22 60.34 L 756.11 57.66 L 760.00 55.00" fill="none" stroke="#3b82f6" stroke-width="3"
        stroke-linecap="round" stroke-linejoin="round" filter="url(#glow)" class="line-path"/>

  <!-- Data points -->
  
    <circle cx="60" cy="340" r="4" fill="#3b82f6" stroke="#0d1117" stroke-width="2" class="data-point"/>
  
    <circle cx="63.888888888888886" cy="339.74641365534774" r="4" fill="#3b82f6" stroke="#0d1117" stroke-width="2" class="data-point"/>
  
    <circle cx="67.77777777777777" cy="339.3151443617214" r="4" fill="#3b82f6" stroke="#0d1117" stroke-width="2" class="data-point"/>
  
    <circle cx="71.66666666666667" cy="338.9149264572362" r="4" fill="#3b82f6" stroke="#0d1117" stroke-width="2" class="data-point"/>
  
    <circle cx="75.55555555555556" cy="338.11966587978935" r="4" fill="#3b82f6" stroke="#0d1117" stroke-width="2" class="data-point"/>
  
    <circle cx="79.44444444444444" cy="337.2985291447249" r="4" fill="#3b82f6" stroke="#0d1117" stroke-width="2" class="data-point"/>
  
    <circle cx="83.33333333333333" cy="336.65162520428544" r="4" fill="#3b82f6" stroke="#0d1117" stroke-width="2" class="data-point"/>
  
    <circle cx="87.22222222222223" cy="336.04784819320867" r="4" fill="#3b82f6" stroke="#0d1117" stroke-width="2" class="data-point"/>
  
    <circle cx="91.11111111111111" cy="335.51134919193754" r="4" fill="#3b82f6" stroke="#0d1117" stroke-width="2" class="data-point"/>
  
    <circle cx="95" cy="334.88169602324314" r="4" fill="#3b82f6" stroke="#0d1117" stroke-width="2" class="data-point"/>
  
    <circle cx="98.88888888888889" cy="334.17958961321955" r="4" fill="#3b82f6" stroke="#0d1117" stroke-width="2" class="data-point"/>
  
    <circle cx="102.77777777777777" cy="333.42745596513527" r="4" fill="#3b82f6" stroke="#0d1117" stroke-width="2" class="data-point"/>
  
    <circle cx="106.66666666666666" cy="332.74432540403126" r="4" fill="#3b82f6" stroke="#0d1117" stroke-width="2" class="data-point"/>
  
    <circle cx="110.55555555555554" cy="332.01806791356455" r="4" fill="#3b82f6" stroke="#0d1117" stroke-width="2" class="data-point"/>
  
    <circle cx="114.44444444444444" cy="331.4884692209915" r="4" fill="#3b82f6" stroke="#0d1117" stroke-width="2" class="data-point"/>
  
    <circle cx="118.33333333333333" cy="330.9398946794988" r="4" fill="#3b82f6" stroke="#0d1117" stroke-width="2" class="data-point"/>
  
    <circle cx="122.22222222222223" cy="330.1946613401126" r="4" fill="#3b82f6" stroke="#0d1117" stroke-width="2" class="data-point"/>
  
    <circle cx="126.11111111111111" cy="329.69611403668057" r="4" fill="#3b82f6" stroke="#0d1117" stroke-width="2" class="data-point"/>
  
    <circle cx="130" cy="329.0060831668785" r="4" fill="#3b82f6" stroke="#0d1117" stroke-width="2" class="data-point"/>
  
    <circle cx="133.88888888888889" cy="328.20909751225713" r="4" fill="#3b82f6" stroke="#0d1117" stroke-width="2" class="data-point"/>
  
    <circle cx="137.77777777777777" cy="327.6087706555293" r="4" fill="#3b82f6" stroke="#0d1117" stroke-width="2" class="data-point"/>
  
    <circle cx="141.66666666666669" cy="327.11539858362084" r="4" fill="#3b82f6" stroke="#0d1117" stroke-width="2" class="data-point"/>
  
    <circle cx="145.55555555555554" cy="326.7962593063374" r="4" fill="#3b82f6" stroke="#0d1117" stroke-width="2" class="data-point"/>
  
    <circle cx="149.44444444444446" cy="326.5305974214636" r="4" fill="#3b82f6" stroke="#0d1117" stroke-width="2" class="data-point"/>
  
    <circle cx="153.33333333333331" cy="326.0389504267296" r="4" fill="#3b82f6" stroke="#0d1117" stroke-width="2" class="data-point"/>
  
    <circle cx="157.22222222222223" cy="325.68875976030506" r="4" fill="#3b82f6" stroke="#0d1117" stroke-width="2" class="data-point"/>
  
    <circle cx="161.1111111111111" cy="324.9211004176503" r="4" fill="#3b82f6" stroke="#0d1117" stroke-width="2" class="data-point"/>
  
    <circle cx="165" cy="324.61921191211184" r="4" fill="#3b82f6" stroke="#0d1117" stroke-width="2" class="data-point"/>
  
    <circle cx="168.88888888888889" cy="324.2293444706737" r="4" fill="#3b82f6" stroke="#0d1117" stroke-width="2" class="data-point"/>
  
    <circle cx="172.77777777777777" cy="323.72562193571815" r="4" fill="#3b82f6" stroke="#0d1117" stroke-width="2" class="data-point"/>
  
    <circle cx="176.66666666666666" cy="323.3806065008171" r="4" fill="#3b82f6" stroke="#0d1117" stroke-width="2" class="data-point"/>
  
    <circle cx="180.55555555555554" cy="323.0304158343926" r="4" fill="#3b82f6" stroke="#0d1117" stroke-width="2" class="data-point"/>
  
    <circle cx="184.44444444444446" cy="322.662974396223" r="4" fill="#3b82f6" stroke="#0d1117" stroke-width="2" class="data-point"/>
  
    <circle cx="188.33333333333331" cy="322.4076629743962" r="4" fill="#3b82f6" stroke="#0d1117" stroke-width="2" class="data-point"/>
  
    <circle cx="192.22222222222223" cy="322.18685309605956" r="4" fill="#3b82f6" stroke="#0d1117" stroke-width="2" class="data-point"/>
  
    <circle cx="196.11111111111111" cy="321.85046304703104" r="4" fill="#3b82f6" stroke="#0d1117" stroke-width="2" class="data-point"/>
  
    <circle cx="200" cy="321.44161975667333" r="4" fill="#3b82f6" stroke="#0d1117" stroke-width="2" class="data-point"/>
  
    <circle cx="203.88888888888889" cy="321.0655529326312" r="4" fill="#3b82f6" stroke="#0d1117" stroke-width="2" class="data-point"/>
  
    <circle cx="207.77777777777777" cy="320.5894316324678" r="4" fill="#3b82f6" stroke="#0d1117" stroke-width="2" class="data-point"/>
  
    <circle cx="211.66666666666669" cy="320.0701834029417" r="4" fill="#3b82f6" stroke="#0d1117" stroke-width="2" class="data-point"/>
  
    <circle cx="215.55555555555554" cy="319.59406210277825" r="4" fill="#3b82f6" stroke="#0d1117" stroke-width="2" class="data-point"/>
  
    <circle cx="219.44444444444443" cy="319.0196114036681" r="4" fill="#3b82f6" stroke="#0d1117" stroke-width="2" class="data-point"/>
  
    <circle cx="223.33333333333334" cy="318.45551116760487" r="4" fill="#3b82f6" stroke="#0d1117" stroke-width="2" class="data-point"/>
  
    <circle cx="227.22222222222223" cy="317.89141093154166" r="4" fill="#3b82f6" stroke="#0d1117" stroke-width="2" class="data-point"/>
  
    <circle cx="231.11111111111111" cy="317.27383330306884" r="4" fill="#3b82f6" stroke="#0d1117" stroke-width="2" class="data-point"/>
  
    <circle cx="235" cy="316.68385690938806" r="4" fill="#3b82f6" stroke="#0d1117" stroke-width="2" class="data-point"/>
  
    <circle cx="238.88888888888889" cy="316.00935173415655" r="4" fill="#3b82f6" stroke="#0d1117" stroke-width="2" class="data-point"/>
  
    <circle cx="242.7777777777778" cy="315.40729980025424" r="4" fill="#3b82f6" stroke="#0d1117" stroke-width="2" class="data-point"/>
  
    <circle cx="246.66666666666666" cy="314.8984020337752" r="4" fill="#3b82f6" stroke="#0d1117" stroke-width="2" class="data-point"/>
  
    <circle cx="250.55555555555554" cy="314.49128382059195" r="4" fill="#3b82f6" stroke="#0d1117" stroke-width="2" class="data-point"/>
  
    <circle cx="254.44444444444446" cy="313.92200835300525" r="4" fill="#3b82f6" stroke="#0d1117" stroke-width="2" class="data-point"/>
  
    <circle cx="258.3333333333333" cy="313.2716542582168" r="4" fill="#3b82f6" stroke="#0d1117" stroke-width="2" class="data-point"/>
  
    <circle cx="262.2222222222222" cy="312.67650263301255" r="4" fill="#3b82f6" stroke="#0d1117" stroke-width="2" class="data-point"/>
  
    <circle cx="266.1111111111111" cy="311.98129653168695" r="4" fill="#3b82f6" stroke="#0d1117" stroke-width="2" class="data-point"/>
  
    <circle cx="270" cy="311.12393317595786" r="4" fill="#3b82f6" stroke="#0d1117" stroke-width="2" class="data-point"/>
  
    <circle cx="273.8888888888889" cy="310.48565462139095" r="4" fill="#3b82f6" stroke="#0d1117" stroke-width="2" class="data-point"/>
  
    <circle cx="277.77777777777777" cy="309.9560559288179" r="4" fill="#3b82f6" stroke="#0d1117" stroke-width="2" class="data-point"/>
  
    <circle cx="281.66666666666663" cy="309.4523333938624" r="4" fill="#3b82f6" stroke="#0d1117" stroke-width="2" class="data-point"/>
  
    <circle cx="285.55555555555554" cy="308.84683130561103" r="4" fill="#3b82f6" stroke="#0d1117" stroke-width="2" class="data-point"/>
  
    <circle cx="289.44444444444446" cy="308.14299981841293" r="4" fill="#3b82f6" stroke="#0d1117" stroke-width="2" class="data-point"/>
  
    <circle cx="293.3333333333333" cy="307.36326493553656" r="4" fill="#3b82f6" stroke="#0d1117" stroke-width="2" class="data-point"/>
  
    <circle cx="297.22222222222223" cy="306.54385327764663" r="4" fill="#3b82f6" stroke="#0d1117" stroke-width="2" class="data-point"/>
  
    <circle cx="301.1111111111111" cy="305.75721808607227" r="4" fill="#3b82f6" stroke="#0d1117" stroke-width="2" class="data-point"/>
  
    <circle cx="305" cy="305.0654621390957" r="4" fill="#3b82f6" stroke="#0d1117" stroke-width="2" class="data-point"/>
  
    <circle cx="308.8888888888889" cy="304.3788814236426" r="4" fill="#3b82f6" stroke="#0d1117" stroke-width="2" class="data-point"/>
  
    <circle cx="312.77777777777777" cy="303.7733793353913" r="4" fill="#3b82f6" stroke="#0d1117" stroke-width="2" class="data-point"/>
  
    <circle cx="316.66666666666663" cy="303.15580170691845" r="4" fill="#3b82f6" stroke="#0d1117" stroke-width="2" class="data-point"/>
  
    <circle cx="320.55555555555554" cy="302.4657708371164" r="4" fill="#3b82f6" stroke="#0d1117" stroke-width="2" class="data-point"/>
  
    <circle cx="324.44444444444446" cy="301.60668240421285" r="4" fill="#3b82f6" stroke="#0d1117" stroke-width="2" class="data-point"/>
  
    <circle cx="328.33333333333337" cy="300.96667877247137" r="4" fill="#3b82f6" stroke="#0d1117" stroke-width="2" class="data-point"/>
  
    <circle cx="332.22222222222223" cy="300.3939531505357" r="4" fill="#3b82f6" stroke="#0d1117" stroke-width="2" class="data-point"/>
  
    <circle cx="336.1111111111111" cy="299.75739967314325" r="4" fill="#3b82f6" stroke="#0d1117" stroke-width="2" class="data-point"/>
  
    <circle cx="340" cy="299.1639731251135" r="4" fill="#3b82f6" stroke="#0d1117" stroke-width="2" class="data-point"/>
  
    <circle cx="343.8888888888889" cy="298.51189395315055" r="4" fill="#3b82f6" stroke="#0d1117" stroke-width="2" class="data-point"/>
  
    <circle cx="347.77777777777777" cy="297.8322135463955" r="4" fill="#3b82f6" stroke="#0d1117" stroke-width="2" class="data-point"/>
  
    <circle cx="351.6666666666667" cy="297.12148175049936" r="4" fill="#3b82f6" stroke="#0d1117" stroke-width="2" class="data-point"/>
  
    <circle cx="355.55555555555554" cy="296.498728890503" r="4" fill="#3b82f6" stroke="#0d1117" stroke-width="2" class="data-point"/>
  
    <circle cx="359.44444444444446" cy="295.9656800435809" r="4" fill="#3b82f6" stroke="#0d1117" stroke-width="2" class="data-point"/>
  
    <circle cx="363.33333333333337" cy="295.38087888142366" r="4" fill="#3b82f6" stroke="#0d1117" stroke-width="2" class="data-point"/>
  
    <circle cx="367.22222222222223" cy="294.7477755583802" r="4" fill="#3b82f6" stroke="#0d1117" stroke-width="2" class="data-point"/>
  
    <circle cx="371.1111111111111" cy="294.16124931904847" r="4" fill="#3b82f6" stroke="#0d1117" stroke-width="2" class="data-point"/>
  
    <circle cx="375" cy="293.3970401307427" r="4" fill="#3b82f6" stroke="#0d1117" stroke-width="2" class="data-point"/>
  
    <circle cx="378.88888888888886" cy="292.7397857272562" r="4" fill="#3b82f6" stroke="#0d1117" stroke-width="2" class="data-point"/>
  
    <circle cx="382.77777777777777" cy="292.10668240421285" r="4" fill="#3b82f6" stroke="#0d1117" stroke-width="2" class="data-point"/>
  
    <circle cx="386.6666666666667" cy="291.58053386598874" r="4" fill="#3b82f6" stroke="#0d1117" stroke-width="2" class="data-point"/>
  
    <circle cx="390.55555555555554" cy="291.0699110223352" r="4" fill="#3b82f6" stroke="#0d1117" stroke-width="2" class="data-point"/>
  
    <circle cx="394.44444444444446" cy="290.5575631015072" r="4" fill="#3b82f6" stroke="#0d1117" stroke-width="2" class="data-point"/>
  
    <circle cx="398.3333333333333" cy="289.94516070455785" r="4" fill="#3b82f6" stroke="#0d1117" stroke-width="2" class="data-point"/>
  
    <circle cx="402.22222222222223" cy="289.31550753586345" r="4" fill="#3b82f6" stroke="#0d1117" stroke-width="2" class="data-point"/>
  
    <circle cx="406.11111111111114" cy="288.55129834755763" r="4" fill="#3b82f6" stroke="#0d1117" stroke-width="2" class="data-point"/>
  
    <circle cx="410" cy="287.9319956419103" r="4" fill="#3b82f6" stroke="#0d1117" stroke-width="2" class="data-point"/>
  
    <circle cx="413.88888888888886" cy="287.4265480297803" r="4" fill="#3b82f6" stroke="#0d1117" stroke-width="2" class="data-point"/>
  
    <circle cx="417.77777777777777" cy="286.90729980025424" r="4" fill="#3b82f6" stroke="#0d1117" stroke-width="2" class="data-point"/>
  
    <circle cx="421.6666666666667" cy="286.41047757399673" r="4" fill="#3b82f6" stroke="#0d1117" stroke-width="2" class="data-point"/>
  
    <circle cx="425.5555555555556" cy="285.7963500998729" r="4" fill="#3b82f6" stroke="#0d1117" stroke-width="2" class="data-point"/>
  
    <circle cx="429.44444444444446" cy="285.1666969311785" r="4" fill="#3b82f6" stroke="#0d1117" stroke-width="2" class="data-point"/>
  
    <circle cx="433.3333333333333" cy="283.77455965135283" r="4" fill="#3b82f6" stroke="#0d1117" stroke-width="2" class="data-point"/>
  
    <circle cx="437.22222222222223" cy="281.0040857090975" r="4" fill="#3b82f6" stroke="#0d1117" stroke-width="2" class="data-point"/>
  
    <circle cx="441.1111111111111" cy="277.70401307426914" r="4" fill="#3b82f6" stroke="#0d1117" stroke-width="2" class="data-point"/>
  
    <circle cx="445.00000000000006" cy="274.6972035591066" r="4" fill="#3b82f6" stroke="#0d1117" stroke-width="2" class="data-point"/>
  
    <circle cx="448.8888888888889" cy="273.172235336844" r="4" fill="#3b82f6" stroke="#0d1117" stroke-width="2" class="data-point"/>
  
    <circle cx="452.77777777777777" cy="270.8744325404031" r="4" fill="#3b82f6" stroke="#0d1117" stroke-width="2" class="data-point"/>
  
    <circle cx="456.66666666666663" cy="269.34773924096606" r="4" fill="#3b82f6" stroke="#0d1117" stroke-width="2" class="data-point"/>
  
    <circle cx="460.55555555555554" cy="268.00907935355" r="4" fill="#3b82f6" stroke="#0d1117" stroke-width="2" class="data-point"/>
  
    <circle cx="464.4444444444444" cy="266.6997457781006" r="4" fill="#3b82f6" stroke="#0d1117" stroke-width="2" class="data-point"/>
  
    <circle cx="468.33333333333337" cy="265.4663155983294" r="4" fill="#3b82f6" stroke="#0d1117" stroke-width="2" class="data-point"/>
  
    <circle cx="472.22222222222223" cy="263.54802978027965" r="4" fill="#3b82f6" stroke="#0d1117" stroke-width="2" class="data-point"/>
  
    <circle cx="476.1111111111111" cy="262.02306155801705" r="4" fill="#3b82f6" stroke="#0d1117" stroke-width="2" class="data-point"/>
  
    <circle cx="480" cy="260.0737243508262" r="4" fill="#3b82f6" stroke="#0d1117" stroke-width="2" class="data-point"/>
  
    <circle cx="483.88888888888886" cy="259.67523152351555" r="4" fill="#3b82f6" stroke="#0d1117" stroke-width="2" class="data-point"/>
  
    <circle cx="487.7777777777778" cy="259.6234792082804" r="4" fill="#3b82f6" stroke="#0d1117" stroke-width="2" class="data-point"/>
  
    <circle cx="491.6666666666667" cy="259.5562011984747" r="4" fill="#3b82f6" stroke="#0d1117" stroke-width="2" class="data-point"/>
  
    <circle cx="495.55555555555554" cy="259.499273651716" r="4" fill="#3b82f6" stroke="#0d1117" stroke-width="2" class="data-point"/>
  
    <circle cx="499.44444444444446" cy="259.42509533321225" r="4" fill="#3b82f6" stroke="#0d1117" stroke-width="2" class="data-point"/>
  
    <circle cx="503.3333333333333" cy="259.35954240058106" r="4" fill="#3b82f6" stroke="#0d1117" stroke-width="2" class="data-point"/>
  
    <circle cx="507.2222222222222" cy="259.3336662429635" r="4" fill="#3b82f6" stroke="#0d1117" stroke-width="2" class="data-point"/>
  
    <circle cx="511.11111111111114" cy="259.2387869983657" r="4" fill="#3b82f6" stroke="#0d1117" stroke-width="2" class="data-point"/>
  
    <circle cx="515" cy="259.14735790811693" r="4" fill="#3b82f6" stroke="#0d1117" stroke-width="2" class="data-point"/>
  
    <circle cx="518.8888888888889" cy="259.0869802070093" r="4" fill="#3b82f6" stroke="#0d1117" stroke-width="2" class="data-point"/>
  
    <circle cx="522.7777777777778" cy="259.0645542037407" r="4" fill="#3b82f6" stroke="#0d1117" stroke-width="2" class="data-point"/>
  
    <circle cx="526.6666666666666" cy="258.9627746504449" r="4" fill="#3b82f6" stroke="#0d1117" stroke-width="2" class="data-point"/>
  
    <circle cx="530.5555555555557" cy="256.4614127474124" r="4" fill="#3b82f6" stroke="#0d1117" stroke-width="2" class="data-point"/>
  
    <circle cx="534.4444444444445" cy="252.54376248411114" r="4" fill="#3b82f6" stroke="#0d1117" stroke-width="2" class="data-point"/>
  
    <circle cx="538.3333333333334" cy="249.91992010168877" r="4" fill="#3b82f6" stroke="#0d1117" stroke-width="2" class="data-point"/>
  
    <circle cx="542.2222222222222" cy="246.8734338115126" r="4" fill="#3b82f6" stroke="#0d1117" stroke-width="2" class="data-point"/>
  
    <circle cx="546.1111111111111" cy="243.7337933539132" r="4" fill="#3b82f6" stroke="#0d1117" stroke-width="2" class="data-point"/>
  
    <circle cx="550" cy="241.27038314871982" r="4" fill="#3b82f6" stroke="#0d1117" stroke-width="2" class="data-point"/>
  
    <circle cx="553.8888888888889" cy="238.51543490103506" r="4" fill="#3b82f6" stroke="#0d1117" stroke-width="2" class="data-point"/>
  
    <circle cx="557.7777777777778" cy="234.31832213546394" r="4" fill="#3b82f6" stroke="#0d1117" stroke-width="2" class="data-point"/>
  
    <circle cx="561.6666666666667" cy="228.66179408026147" r="4" fill="#3b82f6" stroke="#0d1117" stroke-width="2" class="data-point"/>
  
    <circle cx="565.5555555555555" cy="224.9701289268204" r="4" fill="#3b82f6" stroke="#0d1117" stroke-width="2" class="data-point"/>
  
    <circle cx="569.4444444444443" cy="220.57635736335573" r="4" fill="#3b82f6" stroke="#0d1117" stroke-width="2" class="data-point"/>
  
    <circle cx="573.3333333333333" cy="215.68058834211004" r="4" fill="#3b82f6" stroke="#0d1117" stroke-width="2" class="data-point"/>
  
    <circle cx="577.2222222222223" cy="211.75431269293625" r="4" fill="#3b82f6" stroke="#0d1117" stroke-width="2" class="data-point"/>
  
    <circle cx="581.1111111111111" cy="207.49337207190848" r="4" fill="#3b82f6" stroke="#0d1117" stroke-width="2" class="data-point"/>
  
    <circle cx="585" cy="203.71372798256763" r="4" fill="#3b82f6" stroke="#0d1117" stroke-width="2" class="data-point"/>
  
    <circle cx="588.8888888888889" cy="199.96858543671692" r="4" fill="#3b82f6" stroke="#0d1117" stroke-width="2" class="data-point"/>
  
    <circle cx="592.7777777777777" cy="196.2337933539132" r="4" fill="#3b82f6" stroke="#0d1117" stroke-width="2" class="data-point"/>
  
    <circle cx="596.6666666666667" cy="191.14826584347196" r="4" fill="#3b82f6" stroke="#0d1117" stroke-width="2" class="data-point"/>
  
    <circle cx="600.5555555555555" cy="186.04721263846014" r="4" fill="#3b82f6" stroke="#0d1117" stroke-width="2" class="data-point"/>
  
    <circle cx="604.4444444444445" cy="181.7948974033049" r="4" fill="#3b82f6" stroke="#0d1117" stroke-width="2" class="data-point"/>
  
    <circle cx="608.3333333333334" cy="178.23088796077718" r="4" fill="#3b82f6" stroke="#0d1117" stroke-width="2" class="data-point"/>
  
    <circle cx="612.2222222222222" cy="174.7738333030688" r="4" fill="#3b82f6" stroke="#0d1117" stroke-width="2" class="data-point"/>
  
    <circle cx="616.1111111111111" cy="170.18512801888505" r="4" fill="#3b82f6" stroke="#0d1117" stroke-width="2" class="data-point"/>
  
    <circle cx="620" cy="166.62629380788087" r="4" fill="#3b82f6" stroke="#0d1117" stroke-width="2" class="data-point"/>
  
    <circle cx="623.8888888888889" cy="163.10541129471582" r="4" fill="#3b82f6" stroke="#0d1117" stroke-width="2" class="data-point"/>
  
    <circle cx="627.7777777777778" cy="159.81223896858543" r="4" fill="#3b82f6" stroke="#0d1117" stroke-width="2" class="data-point"/>
  
    <circle cx="631.6666666666666" cy="156.7105502088251" r="4" fill="#3b82f6" stroke="#0d1117" stroke-width="2" class="data-point"/>
  
    <circle cx="635.5555555555555" cy="153.53295805338658" r="4" fill="#3b82f6" stroke="#0d1117" stroke-width="2" class="data-point"/>
  
    <circle cx="639.4444444444445" cy="150.81596150354093" r="4" fill="#3b82f6" stroke="#0d1117" stroke-width="2" class="data-point"/>
  
    <circle cx="643.3333333333334" cy="148.002360631923" r="4" fill="#3b82f6" stroke="#0d1117" stroke-width="2" class="data-point"/>
  
    <circle cx="647.2222222222223" cy="145.1301071363719" r="4" fill="#3b82f6" stroke="#0d1117" stroke-width="2" class="data-point"/>
  
    <circle cx="651.1111111111111" cy="142.0939713092428" r="4" fill="#3b82f6" stroke="#0d1117" stroke-width="2" class="data-point"/>
  
    <circle cx="655" cy="139.30797167241693" r="4" fill="#3b82f6" stroke="#0d1117" stroke-width="2" class="data-point"/>
  
    <circle cx="658.8888888888889" cy="136.75658253132377" r="4" fill="#3b82f6" stroke="#0d1117" stroke-width="2" class="data-point"/>
  
    <circle cx="662.7777777777778" cy="132.13337570364988" r="4" fill="#3b82f6" stroke="#0d1117" stroke-width="2" class="data-point"/>
  
    <circle cx="666.6666666666667" cy="128.2640276012348" r="4" fill="#3b82f6" stroke="#0d1117" stroke-width="2" class="data-point"/>
  
    <circle cx="670.5555555555555" cy="124.54821136735063" r="4" fill="#3b82f6" stroke="#0d1117" stroke-width="2" class="data-point"/>
  
    <circle cx="674.4444444444445" cy="120.97902669329943" r="4" fill="#3b82f6" stroke="#0d1117" stroke-width="2" class="data-point"/>
  
    <circle cx="678.3333333333333" cy="115.34319956419105" r="4" fill="#3b82f6" stroke="#0d1117" stroke-width="2" class="data-point"/>
  
    <circle cx="682.2222222222222" cy="111.77746504448885" r="4" fill="#3b82f6" stroke="#0d1117" stroke-width="2" class="data-point"/>
  
    <circle cx="686.1111111111111" cy="108.69130197929908" r="4" fill="#3b82f6" stroke="#0d1117" stroke-width="2" class="data-point"/>
  
    <circle cx="690" cy="105.04621390956962" r="4" fill="#3b82f6" stroke="#0d1117" stroke-width="2" class="data-point"/>
  
    <circle cx="693.8888888888889" cy="99.672598510986" r="4" fill="#3b82f6" stroke="#0d1117" stroke-width="2" class="data-point"/>
  
    <circle cx="697.7777777777777" cy="95.80670056291993" r="4" fill="#3b82f6" stroke="#0d1117" stroke-width="2" class="data-point"/>
  
    <circle cx="701.6666666666666" cy="92.54285454875614" r="4" fill="#3b82f6" stroke="#0d1117" stroke-width="2" class="data-point"/>
  
    <circle cx="705.5555555555555" cy="89.78100599237334" r="4" fill="#3b82f6" stroke="#0d1117" stroke-width="2" class="data-point"/>
  
    <circle cx="709.4444444444445" cy="87.1606137643" r="4" fill="#3b82f6" stroke="#0d1117" stroke-width="2" class="data-point"/>
  
    <circle cx="713.3333333333334" cy="85.03014345378608" r="4" fill="#3b82f6" stroke="#0d1117" stroke-width="2" class="data-point"/>
  
    <circle cx="717.2222222222222" cy="82.63056110404943" r="4" fill="#3b82f6" stroke="#0d1117" stroke-width="2" class="data-point"/>
  
    <circle cx="721.1111111111111" cy="80.67432358816052" r="4" fill="#3b82f6" stroke="#0d1117" stroke-width="2" class="data-point"/>
  
    <circle cx="725" cy="78.36617032867258" r="4" fill="#3b82f6" stroke="#0d1117" stroke-width="2" class="data-point"/>
  
    <circle cx="728.8888888888889" cy="75.0436716905756" r="4" fill="#3b82f6" stroke="#0d1117" stroke-width="2" class="data-point"/>
  
    <circle cx="732.7777777777778" cy="72.18866896676957" r="4" fill="#3b82f6" stroke="#0d1117" stroke-width="2" class="data-point"/>
  
    <circle cx="736.6666666666666" cy="69.7062829126566" r="4" fill="#3b82f6" stroke="#0d1117" stroke-width="2" class="data-point"/>
  
    <circle cx="740.5555555555555" cy="67.56028690757222" r="4" fill="#3b82f6" stroke="#0d1117" stroke-width="2" class="data-point"/>
  
    <circle cx="744.4444444444445" cy="65.34701289268207" r="4" fill="#3b82f6" stroke="#0d1117" stroke-width="2" class="data-point"/>
  
    <circle cx="748.3333333333333" cy="63.48047938986747" r="4" fill="#3b82f6" stroke="#0d1117" stroke-width="2" class="data-point"/>
  
    <circle cx="752.2222222222223" cy="60.342564009442526" r="4" fill="#3b82f6" stroke="#0d1117" stroke-width="2" class="data-point"/>
  
    <circle cx="756.1111111111111" cy="57.66006900308702" r="4" fill="#3b82f6" stroke="#0d1117" stroke-width="2" class="data-point"/>
  
    <circle cx="760" cy="55" r="4" fill="#3b82f6" stroke="#0d1117" stroke-width="2" class="data-point"/>
  

  <!-- Axis lines -->
  <line x1="60" y1="55" x2="60" y2="340"
        stroke="#30363d" stroke-width="2"/>
  <line x1="60" y1="340" x2="760" y2="340"
        stroke="#30363d" stroke-width="2"/>
</svg>