<?xml version="1.0" encoding="UTF-8"?>
<svg width="800" height="400" xmlns="http://www.w3.org/2000/svg">
  <defs>
    <!-- Gradient for area fill -->
    <linearGradient id="areaGradient" x1="0%" y1="0%" x2="0%" y2="100%">
      <stop offset="0%" style="stop-color:#3b82f6;stop-opacity:0.3" />
      <stop offset="100%" style="stop-color:#3b82f6;stop-opacity:0.05" />
    </linearGradient>

    <!-- Glow filter for line -->
    <filter id="glow">
      <feGaussianBlur stdDeviation="2" result="coloredBlur"/>
      <feMerge>
        <feMergeNode in="coloredBlur"/>
        <feMergeNode in="SourceGraphic"/>
      </feMerge>
    </filter>

    <!-- Animation -->
    <style>
      @keyframes draw {
        from { stroke-dashoffset: 2000; }
        to { stroke-dashoffset: 0; }
      }
      @keyframes fadeIn {
        from { opacity: 0; }
        to { opacity: 1; }
      }
      .line-path {
        stroke-dasharray: 2000;
        stroke-dashoffset: 2000;
        animation: draw 1.5s ease-out forwards;
      }
      .area-path {
        opacity: 0;
        animation: fadeIn 1s ease-out 0.5s forwards;
      }
      .data-point {
        opacity: 0;
        animation: fadeIn 0.5s ease-out 1s forwards;
      }
    </style>
  </defs>

  <!-- Background -->
  <rect width="800" height="400" fill="#0d1117" rx="8"/>

  <!-- Title -->
  <text x="400" y="25" text-anchor="middle" fill="#c9d1d9" font-family="system-ui, -apple-system, sans-serif" font-size="16" font-weight="600">
    zxcloli666/SoundCloud-Desktop Downloads
  </text>

  <!-- Stats -->
  <text x="780" y="25" text-anchor="end" fill="#58a6ff" font-family="system-ui, -apple-system, sans-serif" font-size="14" font-weight="600">
    169.8K total
  </text>
  <text x="780" y="42" text-anchor="end" fill="#3fb950" font-family="system-ui, -apple-system, sans-serif" font-size="12">
    +1.6K (+0.9%)
  </text>

  <!-- Grid lines -->
  <g opacity="0.1">
    
      <line x1="60" y1="340" x2="760" y2="340"
            stroke="#c9d1d9" stroke-width="1"/>
    
      <line x1="60" y1="268.75" x2="760" y2="268.75"
            stroke="#c9d1d9" stroke-width="1"/>
    
      <line x1="60" y1="197.5" x2="760" y2="197.5"
            stroke="#c9d1d9" stroke-width="1"/>
    
      <line x1="60" y1="126.25" x2="760" y2="126.25"
            stroke="#c9d1d9" stroke-width="1"/>
    
      <line x1="60" y1="55" x2="760" y2="55"
            stroke="#c9d1d9" stroke-width="1"/>
    
  </g>

  <!-- Y-axis labels -->
  
    <text x="50" y="344" text-anchor="end"
          fill="#8b949e" font-family="system-ui, -apple-system, sans-serif" font-size="11">
      60.2K
    </text>
  
    <text x="50" y="272.75" text-anchor="end"
          fill="#8b949e" font-family="system-ui, -apple-system, sans-serif" font-size="11">
      87.6K
    </text>
  
    <text x="50" y="201.5" text-anchor="end"
          fill="#8b949e" font-family="system-ui, -apple-system, sans-serif" font-size="11">
      115.0K
    </text>
  
    <text x="50" y="130.25" text-anchor="end"
          fill="#8b949e" font-family="system-ui, -apple-system, sans-serif" font-size="11">
      142.4K
    </text>
  
    <text x="50" y="59" text-anchor="end"
          fill="#8b949e" font-family="system-ui, -apple-system, sans-serif" font-size="11">
      169.8K
    </text>
  

  <!-- X-axis labels -->
  
    <text x="60" y="360" text-anchor="middle"
          fill="#8b949e" font-family="system-ui, -apple-system, sans-serif" font-size="11">
      Nov 25
    </text>
  
    <text x="144.56375838926175" y="360" text-anchor="middle"
          fill="#8b949e" font-family="system-ui, -apple-system, sans-serif" font-size="11">
      Dec 13
    </text>
  
    <text x="229.1275167785235" y="360" text-anchor="middle"
          fill="#8b949e" font-family="system-ui, -apple-system, sans-serif" font-size="11">
      Dec 31
    </text>
  
    <text x="313.6912751677852" y="360" text-anchor="middle"
          fill="#8b949e" font-family="system-ui, -apple-system, sans-serif" font-size="11">
      Jan 18
    </text>
  
    <text x="398.255033557047" y="360" text-anchor="middle"
          fill="#8b949e" font-family="system-ui, -apple-system, sans-serif" font-size="11">
      Feb 5
    </text>
  
    <text x="482.81879194630875" y="360" text-anchor="middle"
          fill="#8b949e" font-family="system-ui, -apple-system, sans-serif" font-size="11">
      Feb 23
    </text>
  
    <text x="567.3825503355704" y="360" text-anchor="middle"
          fill="#8b949e" font-family="system-ui, -apple-system, sans-serif" font-size="11">
      Mar 13
    </text>
  
    <text x="651.9463087248322" y="360" text-anchor="middle"
          fill="#8b949e" font-family="system-ui, -apple-system, sans-serif" font-size="11">
      Mar 31
    </text>
  
    <text x="736.510067114094" y="360" text-anchor="middle"
          fill="#8b949e" font-family="system-ui, -apple-system, sans-serif" font-size="11">
      Apr 18
    </text>
  
    <text x="760" y="360" text-anchor="middle"
          fill="#8b949e" font-family="system-ui, -apple-system, sans-serif" font-size="11">
      Apr 23
    </text>
  

  <!-- Area under line -->
  <path d="M 60 340
    L 60.00 340.00 L 64.70 339.62 L 69.40 338.97 L 74.09 338.37 L 78.79 337.17 L 83.49 335.93 L 88.19 334.96 L 92.89 334.05 L 97.58 333.24 L 102.28 332.29 L 106.98 331.23 L 111.68 330.10 L 116.38 329.07 L 121.07 327.98 L 125.77 327.18 L 130.47 326.35 L 135.17 325.23 L 139.87 324.48 L 144.56 323.44 L 149.26 322.24 L 153.96 321.33 L 158.66 320.59 L 163.36 320.11 L 168.05 319.71 L 172.75 318.97 L 177.45 318.44 L 182.15 317.28 L 186.85 316.83 L 191.54 316.24 L 196.24 315.48 L 200.94 314.96 L 205.64 314.44 L 210.34 313.88 L 215.03 313.50 L 219.73 313.17 L 224.43 312.66 L 229.13 312.04 L 233.83 311.48 L 238.52 310.76 L 243.22 309.98 L 247.92 309.26 L 252.62 308.39 L 257.32 307.54 L 262.01 306.69 L 266.71 305.76 L 271.41 304.87 L 276.11 303.86 L 280.81 302.95 L 285.50 302.19 L 290.20 301.57 L 294.90 300.71 L 299.60 299.73 L 304.30 298.84 L 308.99 297.79 L 313.69 296.50 L 318.39 295.54 L 323.09 294.74 L 327.79 293.98 L 332.48 293.07 L 337.18 292.01 L 341.88 290.83 L 346.58 289.60 L 351.28 288.41 L 355.97 287.37 L 360.67 286.34 L 365.37 285.43 L 370.07 284.50 L 374.77 283.46 L 379.46 282.16 L 384.16 281.20 L 388.86 280.33 L 393.56 279.38 L 398.26 278.48 L 402.95 277.50 L 407.65 276.48 L 412.35 275.40 L 417.05 274.47 L 421.74 273.66 L 426.44 272.78 L 431.14 271.83 L 435.84 270.95 L 440.54 269.79 L 445.23 268.80 L 449.93 267.85 L 454.63 267.06 L 459.33 266.29 L 464.03 265.52 L 468.72 264.59 L 473.42 263.65 L 478.12 262.49 L 482.82 261.56 L 487.52 260.80 L 492.21 260.02 L 496.91 259.27 L 501.61 258.34 L 506.31 257.40 L 511.01 255.30 L 515.70 251.12 L 520.40 246.15 L 525.10 241.62 L 529.80 239.33 L 534.50 235.86 L 539.19 233.56 L 543.89 231.55 L 548.59 229.58 L 553.29 227.72 L 557.99 224.83 L 562.68 222.53 L 567.38 219.59 L 572.08 218.99 L 576.78 218.92 L 581.48 218.81 L 586.17 218.73 L 590.87 218.62 L 595.57 218.52 L 600.27 218.48 L 604.97 218.34 L 609.66 218.20 L 614.36 218.11 L 619.06 218.07 L 623.76 217.92 L 628.46 214.15 L 633.15 208.25 L 637.85 204.30 L 642.55 199.71 L 647.25 194.98 L 651.95 191.27 L 656.64 187.12 L 661.34 180.79 L 666.04 172.27 L 670.74 166.71 L 675.44 160.09 L 680.13 152.72 L 684.83 146.80 L 689.53 140.38 L 694.23 134.69 L 698.93 129.05 L 703.62 123.42 L 708.32 115.76 L 713.02 108.07 L 717.72 101.67 L 722.42 96.30 L 727.11 91.09 L 731.81 84.18 L 736.51 78.82 L 741.21 73.51 L 745.91 68.55 L 750.60 63.88 L 755.30 59.09 L 760.00 55.00
    L 760 340
    Z" fill="url(#areaGradient)" class="area-path"/>

  <!-- Main line with glow -->
  <path d="M 60.00 340.00 L 64.70 339.62 L 69.40 338.97 L 74.09 338.37 L 78.79 337.17 L 83.49 335.93 L 88.19 334.96 L 92.89 334.05 L 97.58 333.24 L 102.28 332.29 L 106.98 331.23 L 111.68 330.10 L 116.38 329.07 L 121.07 327.98 L 125.77 327.18 L 130.47 326.35 L 135.17 325.23 L 139.87 324.48 L 144.56 323.44 L 149.26 322.24 L 153.96 321.33 L 158.66 320.59 L 163.36 320.11 L 168.05 319.71 L 172.75 318.97 L 177.45 318.44 L 182.15 317.28 L 186.85 316.83 L 191.54 316.24 L 196.24 315.48 L 200.94 314.96 L 205.64 314.44 L 210.34 313.88 L 215.03 313.50 L 219.73 313.17 L 224.43 312.66 L 229.13 312.04 L 233.83 311.48 L 238.52 310.76 L 243.22 309.98 L 247.92 309.26 L 252.62 308.39 L 257.32 307.54 L 262.01 306.69 L 266.71 305.76 L 271.41 304.87 L 276.11 303.86 L 280.81 302.95 L 285.50 302.19 L 290.20 301.57 L 294.90 300.71 L 299.60 299.73 L 304.30 298.84 L 308.99 297.79 L 313.69 296.50 L 318.39 295.54 L 323.09 294.74 L 327.79 293.98 L 332.48 293.07 L 337.18 292.01 L 341.88 290.83 L 346.58 289.60 L 351.28 288.41 L 355.97 287.37 L 360.67 286.34 L 365.37 285.43 L 370.07 284.50 L 374.77 283.46 L 379.46 282.16 L 384.16 281.20 L 388.86 280.33 L 393.56 279.38 L 398.26 278.48 L 402.95 277.50 L 407.65 276.48 L 412.35 275.40 L 417.05 274.47 L 421.74 273.66 L 426.44 272.78 L 431.14 271.83 L 435.84 270.95 L 440.54 269.79 L 445.23 268.80 L 449.93 267.85 L 454.63 267.06 L 459.33 266.29 L 464.03 265.52 L 468.72 264.59 L 473.42 263.65 L 478.12 262.49 L 482.82 261.56 L 487.52 260.80 L 492.21 260.02 L 496.91 259.27 L 501.61 258.34 L 506.31 257.40 L 511.01 255.30 L 515.70 251.12 L 520.40 246.15 L 525.10 241.62 L 529.80 239.33 L 534.50 235.86 L 539.19 233.56 L 543.89 231.55 L 548.59 229.58 L 553.29 227.72 L 557.99 224.83 L 562.68 222.53 L 567.38 219.59 L 572.08 218.99 L 576.78 218.92 L 581.48 218.81 L 586.17 218.73 L 590.87 218.62 L 595.57 218.52 L 600.27 218.48 L 604.97 218.34 L 609.66 218.20 L 614.36 218.11 L 619.06 218.07 L 623.76 217.92 L 628.46 214.15 L 633.15 208.25 L 637.85 204.30 L 642.55 199.71 L 647.25 194.98 L 651.95 191.27 L 656.64 187.12 L 661.34 180.79 L 666.04 172.27 L 670.74 166.71 L 675.44 160.09 L 680.13 152.72 L 684.83 146.80 L 689.53 140.38 L 694.23 134.69 L 698.93 129.05 L 703.62 123.42 L 708.32 115.76 L 713.02 108.07 L 717.72 101.67 L 722.42 96.30 L 727.11 91.09 L 731.81 84.18 L 736.51 78.82 L 741.21 73.51 L 745.91 68.55 L 750.60 63.88 L 755.30 59.09 L 760.00 55.00" fill="none" stroke="#3b82f6" stroke-width="3"
        stroke-linecap="round" stroke-linejoin="round" filter="url(#glow)" class="line-path"/>

  <!-- Data points -->
  
    <circle cx="60" cy="340" r="4" fill="#3b82f6" stroke="#0d1117" stroke-width="2" class="data-point"/>
  
    <circle cx="64.69798657718121" cy="339.61797988455965" r="4" fill="#3b82f6" stroke="#0d1117" stroke-width="2" class="data-point"/>
  
    <circle cx="69.39597315436242" cy="338.96828581068144" r="4" fill="#3b82f6" stroke="#0d1117" stroke-width="2" class="data-point"/>
  
    <circle cx="74.09395973154362" cy="338.3653697101225" r="4" fill="#3b82f6" stroke="#0d1117" stroke-width="2" class="data-point"/>
  
    <circle cx="78.79194630872483" cy="337.1673338378911" r="4" fill="#3b82f6" stroke="#0d1117" stroke-width="2" class="data-point"/>
  
    <circle cx="83.48993288590604" cy="335.930316321227" r="4" fill="#3b82f6" stroke="#0d1117" stroke-width="2" class="data-point"/>
  
    <circle cx="88.18791946308724" cy="334.9557752104097" r="4" fill="#3b82f6" stroke="#0d1117" stroke-width="2" class="data-point"/>
  
    <circle cx="92.88590604026845" cy="334.04620350698025" r="4" fill="#3b82f6" stroke="#0d1117" stroke-width="2" class="data-point"/>
  
    <circle cx="97.58389261744966" cy="333.2379840790758" r="4" fill="#3b82f6" stroke="#0d1117" stroke-width="2" class="data-point"/>
  
    <circle cx="102.28187919463087" cy="332.2894307312136" r="4" fill="#3b82f6" stroke="#0d1117" stroke-width="2" class="data-point"/>
  
    <circle cx="106.97986577181209" cy="331.2317287789399" r="4" fill="#3b82f6" stroke="#0d1117" stroke-width="2" class="data-point"/>
  
    <circle cx="111.6778523489933" cy="330.0986623140963" r="4" fill="#3b82f6" stroke="#0d1117" stroke-width="2" class="data-point"/>
  
    <circle cx="116.3758389261745" cy="329.06954690107324" r="4" fill="#3b82f6" stroke="#0d1117" stroke-width="2" class="data-point"/>
  
    <circle cx="121.0738255033557" cy="327.9754620806624" r="4" fill="#3b82f6" stroke="#0d1117" stroke-width="2" class="data-point"/>
  
    <circle cx="125.77181208053692" cy="327.1776377579399" r="4" fill="#3b82f6" stroke="#0d1117" stroke-width="2" class="data-point"/>
  
    <circle cx="130.46979865771812" cy="326.3512268959669" r="4" fill="#3b82f6" stroke="#0d1117" stroke-width="2" class="data-point"/>
  
    <circle cx="135.16778523489933" cy="325.22855553630535" r="4" fill="#3b82f6" stroke="#0d1117" stroke-width="2" class="data-point"/>
  
    <circle cx="139.86577181208054" cy="324.4775091869022" r="4" fill="#3b82f6" stroke="#0d1117" stroke-width="2" class="data-point"/>
  
    <circle cx="144.56375838926175" cy="323.43799866869705" r="4" fill="#3b82f6" stroke="#0d1117" stroke-width="2" class="data-point"/>
  
    <circle cx="149.26174496644296" cy="322.23736402017016" r="4" fill="#3b82f6" stroke="#0d1117" stroke-width="2" class="data-point"/>
  
    <circle cx="153.95973154362417" cy="321.3329898693317" r="4" fill="#3b82f6" stroke="#0d1117" stroke-width="2" class="data-point"/>
  
    <circle cx="158.65771812080536" cy="320.58973984881504" r="4" fill="#3b82f6" stroke="#0d1117" stroke-width="2" class="data-point"/>
  
    <circle cx="163.3557046979866" cy="320.1089662341452" r="4" fill="#3b82f6" stroke="#0d1117" stroke-width="2" class="data-point"/>
  
    <circle cx="168.05369127516778" cy="319.70875468463623" r="4" fill="#3b82f6" stroke="#0d1117" stroke-width="2" class="data-point"/>
  
    <circle cx="172.751677852349" cy="318.96810344041506" r="4" fill="#3b82f6" stroke="#0d1117" stroke-width="2" class="data-point"/>
  
    <circle cx="177.4496644295302" cy="318.440551852426" r="4" fill="#3b82f6" stroke="#0d1117" stroke-width="2" class="data-point"/>
  
    <circle cx="182.1476510067114" cy="317.2840964009228" r="4" fill="#3b82f6" stroke="#0d1117" stroke-width="2" class="data-point"/>
  
    <circle cx="186.8456375838926" cy="316.82931054920806" r="4" fill="#3b82f6" stroke="#0d1117" stroke-width="2" class="data-point"/>
  
    <circle cx="191.54362416107384" cy="316.2419871064222" r="4" fill="#3b82f6" stroke="#0d1117" stroke-width="2" class="data-point"/>
  
    <circle cx="196.24161073825502" cy="315.48314442813245" r="4" fill="#3b82f6" stroke="#0d1117" stroke-width="2" class="data-point"/>
  
    <circle cx="200.93959731543623" cy="314.9633891690299" r="4" fill="#3b82f6" stroke="#0d1117" stroke-width="2" class="data-point"/>
  
    <circle cx="205.63758389261744" cy="314.4358375810408" r="4" fill="#3b82f6" stroke="#0d1117" stroke-width="2" class="data-point"/>
  
    <circle cx="210.33557046979865" cy="313.8822982300966" r="4" fill="#3b82f6" stroke="#0d1117" stroke-width="2" class="data-point"/>
  
    <circle cx="215.03355704697987" cy="313.4976793383607" r="4" fill="#3b82f6" stroke="#0d1117" stroke-width="2" class="data-point"/>
  
    <circle cx="219.73154362416108" cy="313.16503597253507" r="4" fill="#3b82f6" stroke="#0d1117" stroke-width="2" class="data-point"/>
  
    <circle cx="224.4295302013423" cy="312.65827459491004" r="4" fill="#3b82f6" stroke="#0d1117" stroke-width="2" class="data-point"/>
  
    <circle cx="229.1275167785235" cy="312.04236461287354" r="4" fill="#3b82f6" stroke="#0d1117" stroke-width="2" class="data-point"/>
  
    <circle cx="233.8255033557047" cy="311.4758313804517" r="4" fill="#3b82f6" stroke="#0d1117" stroke-width="2" class="data-point"/>
  
    <circle cx="238.52348993288592" cy="310.7585691228902" r="4" fill="#3b82f6" stroke="#0d1117" stroke-width="2" class="data-point"/>
  
    <circle cx="243.22147651006713" cy="309.9763374579409" r="4" fill="#3b82f6" stroke="#0d1117" stroke-width="2" class="data-point"/>
  
    <circle cx="247.91946308724832" cy="309.25907520037936" r="4" fill="#3b82f6" stroke="#0d1117" stroke-width="2" class="data-point"/>
  
    <circle cx="252.61744966442953" cy="308.3936826939736" r="4" fill="#3b82f6" stroke="#0d1117" stroke-width="2" class="data-point"/>
  
    <circle cx="257.3154362416107" cy="307.5438828453409" r="4" fill="#3b82f6" stroke="#0d1117" stroke-width="2" class="data-point"/>
  
    <circle cx="262.0134228187919" cy="306.69408299670823" r="4" fill="#3b82f6" stroke="#0d1117" stroke-width="2" class="data-point"/>
  
    <circle cx="266.7114093959732" cy="305.7637210829146" r="4" fill="#3b82f6" stroke="#0d1117" stroke-width="2" class="data-point"/>
  
    <circle cx="271.40939597315435" cy="304.87493958984925" r="4" fill="#3b82f6" stroke="#0d1117" stroke-width="2" class="data-point"/>
  
    <circle cx="276.10738255033556" cy="303.85881805830377" r="4" fill="#3b82f6" stroke="#0d1117" stroke-width="2" class="data-point"/>
  
    <circle cx="280.80536912751677" cy="302.9518451311698" r="4" fill="#3b82f6" stroke="#0d1117" stroke-width="2" class="data-point"/>
  
    <circle cx="285.503355704698" cy="302.18520612399357" r="4" fill="#3b82f6" stroke="#0d1117" stroke-width="2" class="data-point"/>
  
    <circle cx="290.2013422818792" cy="301.5718949182525" r="4" fill="#3b82f6" stroke="#0d1117" stroke-width="2" class="data-point"/>
  
    <circle cx="294.8993288590604" cy="300.7142987407333" r="4" fill="#3b82f6" stroke="#0d1117" stroke-width="2" class="data-point"/>
  
    <circle cx="299.5973154362416" cy="299.734560077325" r="4" fill="#3b82f6" stroke="#0d1117" stroke-width="2" class="data-point"/>
  
    <circle cx="304.2953020134228" cy="298.8379822553731" r="4" fill="#3b82f6" stroke="#0d1117" stroke-width="2" class="data-point"/>
  
    <circle cx="308.99328859060404" cy="297.79067540828146" r="4" fill="#3b82f6" stroke="#0d1117" stroke-width="2" class="data-point"/>
  
    <circle cx="313.6912751677852" cy="296.4990835894116" r="4" fill="#3b82f6" stroke="#0d1117" stroke-width="2" class="data-point"/>
  
    <circle cx="318.38926174496646" cy="295.53753636007184" r="4" fill="#3b82f6" stroke="#0d1117" stroke-width="2" class="data-point"/>
  
    <circle cx="323.0872483221477" cy="294.7397120373494" r="4" fill="#3b82f6" stroke="#0d1117" stroke-width="2" class="data-point"/>
  
    <circle cx="327.7852348993289" cy="293.9808693590597" r="4" fill="#3b82f6" stroke="#0d1117" stroke-width="2" class="data-point"/>
  
    <circle cx="332.48322147651004" cy="293.0686988793347" r="4" fill="#3b82f6" stroke="#0d1117" stroke-width="2" class="data-point"/>
  
    <circle cx="337.18120805369125" cy="292.0083981507655" r="4" fill="#3b82f6" stroke="#0d1117" stroke-width="2" class="data-point"/>
  
    <circle cx="341.87919463087246" cy="290.8337512651937" r="4" fill="#3b82f6" stroke="#0d1117" stroke-width="2" class="data-point"/>
  
    <circle cx="346.57718120805373" cy="289.5993325248252" r="4" fill="#3b82f6" stroke="#0d1117" stroke-width="2" class="data-point"/>
  
    <circle cx="351.2751677852349" cy="288.4142905340713" r="4" fill="#3b82f6" stroke="#0d1117" stroke-width="2" class="data-point"/>
  
    <circle cx="355.9731543624161" cy="287.3721812395707" r="4" fill="#3b82f6" stroke="#0d1117" stroke-width="2" class="data-point"/>
  
    <circle cx="360.6711409395973" cy="286.3378682739566" r="4" fill="#3b82f6" stroke="#0d1117" stroke-width="2" class="data-point"/>
  
    <circle cx="365.3691275167785" cy="285.4256977942316" r="4" fill="#3b82f6" stroke="#0d1117" stroke-width="2" class="data-point"/>
  
    <circle cx="370.06711409395973" cy="284.49533588043806" r="4" fill="#3b82f6" stroke="#0d1117" stroke-width="2" class="data-point"/>
  
    <circle cx="374.76510067114094" cy="283.45582536223293" r="4" fill="#3b82f6" stroke="#0d1117" stroke-width="2" class="data-point"/>
  
    <circle cx="379.46308724832215" cy="282.1616347670676" r="4" fill="#3b82f6" stroke="#0d1117" stroke-width="2" class="data-point"/>
  
    <circle cx="384.16107382550337" cy="281.19748876143234" r="4" fill="#3b82f6" stroke="#0d1117" stroke-width="2" class="data-point"/>
  
    <circle cx="388.8590604026846" cy="280.3346950313221" r="4" fill="#3b82f6" stroke="#0d1117" stroke-width="2" class="data-point"/>
  
    <circle cx="393.55704697986573" cy="279.37574657827787" r="4" fill="#3b82f6" stroke="#0d1117" stroke-width="2" class="data-point"/>
  
    <circle cx="398.255033557047" cy="278.48176753262146" r="4" fill="#3b82f6" stroke="#0d1117" stroke-width="2" class="data-point"/>
  
    <circle cx="402.9530201342282" cy="277.49943009291763" r="4" fill="#3b82f6" stroke="#0d1117" stroke-width="2" class="data-point"/>
  
    <circle cx="407.6510067114094" cy="276.4755122324856" r="4" fill="#3b82f6" stroke="#0d1117" stroke-width="2" class="data-point"/>
  
    <circle cx="412.34899328859063" cy="275.40481639873434" r="4" fill="#3b82f6" stroke="#0d1117" stroke-width="2" class="data-point"/>
  
    <circle cx="417.04697986577185" cy="274.4666581560542" r="4" fill="#3b82f6" stroke="#0d1117" stroke-width="2" class="data-point"/>
  
    <circle cx="421.74496644295306" cy="273.6636362807408" r="4" fill="#3b82f6" stroke="#0d1117" stroke-width="2" class="data-point"/>
  
    <circle cx="426.44295302013427" cy="272.78265111656196" r="4" fill="#3b82f6" stroke="#0d1117" stroke-width="2" class="data-point"/>
  
    <circle cx="431.1409395973154" cy="271.82890021610876" r="4" fill="#3b82f6" stroke="#0d1117" stroke-width="2" class="data-point"/>
  
    <circle cx="435.83892617449663" cy="270.9453162756344" r="4" fill="#3b82f6" stroke="#0d1117" stroke-width="2" class="data-point"/>
  
    <circle cx="440.53691275167785" cy="269.79405837672226" r="4" fill="#3b82f6" stroke="#0d1117" stroke-width="2" class="data-point"/>
  
    <circle cx="445.23489932885906" cy="268.80392460813187" r="4" fill="#3b82f6" stroke="#0d1117" stroke-width="2" class="data-point"/>
  
    <circle cx="449.93288590604027" cy="267.85017370767866" r="4" fill="#3b82f6" stroke="#0d1117" stroke-width="2" class="data-point"/>
  
    <circle cx="454.6308724832214" cy="267.0575469375473" r="4" fill="#3b82f6" stroke="#0d1117" stroke-width="2" class="data-point"/>
  
    <circle cx="459.32885906040264" cy="266.2883091540755" r="4" fill="#3b82f6" stroke="#0d1117" stroke-width="2" class="data-point"/>
  
    <circle cx="464.0268456375839" cy="265.5164725943082" r="4" fill="#3b82f6" stroke="#0d1117" stroke-width="2" class="data-point"/>
  
    <circle cx="468.7248322147651" cy="264.59390700940116" r="4" fill="#3b82f6" stroke="#0d1117" stroke-width="2" class="data-point"/>
  
    <circle cx="473.4228187919463" cy="263.64535366153905" r="4" fill="#3b82f6" stroke="#0d1117" stroke-width="2" class="data-point"/>
  
    <circle cx="478.12080536912754" cy="262.4940957626269" r="4" fill="#3b82f6" stroke="#0d1117" stroke-width="2" class="data-point"/>
  
    <circle cx="482.81879194630875" cy="261.5611350725378" r="4" fill="#3b82f6" stroke="#0d1117" stroke-width="2" class="data-point"/>
  
    <circle cx="487.51677852348996" cy="260.7996936179525" r="4" fill="#3b82f6" stroke="#0d1117" stroke-width="2" class="data-point"/>
  
    <circle cx="492.2147651006711" cy="260.0174619530032" r="4" fill="#3b82f6" stroke="#0d1117" stroke-width="2" class="data-point"/>
  
    <circle cx="496.9127516778523" cy="259.2690143798955" r="4" fill="#3b82f6" stroke="#0d1117" stroke-width="2" class="data-point"/>
  
    <circle cx="501.61073825503354" cy="258.34385001869293" r="4" fill="#3b82f6" stroke="#0d1117" stroke-width="2" class="data-point"/>
  
    <circle cx="506.30872483221475" cy="257.3952966708308" r="4" fill="#3b82f6" stroke="#0d1117" stroke-width="2" class="data-point"/>
  
    <circle cx="511.00671140939596" cy="255.29808420035198" r="4" fill="#3b82f6" stroke="#0d1117" stroke-width="2" class="data-point"/>
  
    <circle cx="515.7046979865772" cy="251.12444946975847" r="4" fill="#3b82f6" stroke="#0d1117" stroke-width="2" class="data-point"/>
  
    <circle cx="520.4026845637584" cy="246.1529904164425" r="4" fill="#3b82f6" stroke="#0d1117" stroke-width="2" class="data-point"/>
  
    <circle cx="525.1006711409397" cy="241.62332333336371" r="4" fill="#3b82f6" stroke="#0d1117" stroke-width="2" class="data-point"/>
  
    <circle cx="529.7986577181208" cy="239.32600508813044" r="4" fill="#3b82f6" stroke="#0d1117" stroke-width="2" class="data-point"/>
  
    <circle cx="534.4966442953021" cy="235.8644350625074" r="4" fill="#3b82f6" stroke="#0d1117" stroke-width="2" class="data-point"/>
  
    <circle cx="539.1946308724832" cy="233.5645180409786" r="4" fill="#3b82f6" stroke="#0d1117" stroke-width="2" class="data-point"/>
  
    <circle cx="543.8926174496644" cy="231.54786763566068" r="4" fill="#3b82f6" stroke="#0d1117" stroke-width="2" class="data-point"/>
  
    <circle cx="548.5906040268457" cy="229.57539642736648" r="4" fill="#3b82f6" stroke="#0d1117" stroke-width="2" class="data-point"/>
  
    <circle cx="553.2885906040268" cy="227.71727137607485" r="4" fill="#3b82f6" stroke="#0d1117" stroke-width="2" class="data-point"/>
  
    <circle cx="557.9865771812081" cy="224.82743213546462" r="4" fill="#3b82f6" stroke="#0d1117" stroke-width="2" class="data-point"/>
  
    <circle cx="562.6845637583892" cy="222.53011389023135" r="4" fill="#3b82f6" stroke="#0d1117" stroke-width="2" class="data-point"/>
  
    <circle cx="567.3825503355704" cy="219.5934966763019" r="4" fill="#3b82f6" stroke="#0d1117" stroke-width="2" class="data-point"/>
  
    <circle cx="572.0805369127518" cy="218.99317935203845" r="4" fill="#3b82f6" stroke="#0d1117" stroke-width="2" class="data-point"/>
  
    <circle cx="576.7785234899329" cy="218.91521606317303" r="4" fill="#3b82f6" stroke="#0d1117" stroke-width="2" class="data-point"/>
  
    <circle cx="581.4765100671141" cy="218.81386378764807" r="4" fill="#3b82f6" stroke="#0d1117" stroke-width="2" class="data-point"/>
  
    <circle cx="586.1744966442953" cy="218.72810416989614" r="4" fill="#3b82f6" stroke="#0d1117" stroke-width="2" class="data-point"/>
  
    <circle cx="590.8724832214765" cy="218.61635678918907" r="4" fill="#3b82f6" stroke="#0d1117" stroke-width="2" class="data-point"/>
  
    <circle cx="595.5704697986578" cy="218.5176032899596" r="4" fill="#3b82f6" stroke="#0d1117" stroke-width="2" class="data-point"/>
  
    <circle cx="600.2684563758389" cy="218.4786216455269" r="4" fill="#3b82f6" stroke="#0d1117" stroke-width="2" class="data-point"/>
  
    <circle cx="604.9664429530201" cy="218.33568894927373" r="4" fill="#3b82f6" stroke="#0d1117" stroke-width="2" class="data-point"/>
  
    <circle cx="609.6644295302013" cy="218.19795380561152" r="4" fill="#3b82f6" stroke="#0d1117" stroke-width="2" class="data-point"/>
  
    <circle cx="614.3624161073825" cy="218.1069966352686" r="4" fill="#3b82f6" stroke="#0d1117" stroke-width="2" class="data-point"/>
  
    <circle cx="619.0604026845638" cy="218.0732125434269" r="4" fill="#3b82f6" stroke="#0d1117" stroke-width="2" class="data-point"/>
  
    <circle cx="623.7583892617449" cy="217.91988474199167" r="4" fill="#3b82f6" stroke="#0d1117" stroke-width="2" class="data-point"/>
  
    <circle cx="628.4563758389262" cy="214.15165911349814" r="4" fill="#3b82f6" stroke="#0d1117" stroke-width="2" class="data-point"/>
  
    <circle cx="633.1543624161075" cy="208.2498381463886" r="4" fill="#3b82f6" stroke="#0d1117" stroke-width="2" class="data-point"/>
  
    <circle cx="637.8523489932886" cy="204.29709940091368" r="4" fill="#3b82f6" stroke="#0d1117" stroke-width="2" class="data-point"/>
  
    <circle cx="642.5503355704698" cy="199.7076604630381" r="4" fill="#3b82f6" stroke="#0d1117" stroke-width="2" class="data-point"/>
  
    <circle cx="647.248322147651" cy="194.97788760520484" r="4" fill="#3b82f6" stroke="#0d1117" stroke-width="2" class="data-point"/>
  
    <circle cx="651.9463087248322" cy="191.2668350552126" r="4" fill="#3b82f6" stroke="#0d1117" stroke-width="2" class="data-point"/>
  
    <circle cx="656.6442953020135" cy="187.1165893112787" r="4" fill="#3b82f6" stroke="#0d1117" stroke-width="2" class="data-point"/>
  
    <circle cx="661.3422818791946" cy="180.7937665842961" r="4" fill="#3b82f6" stroke="#0d1117" stroke-width="2" class="data-point"/>
  
    <circle cx="666.0402684563758" cy="172.2723791113097" r="4" fill="#3b82f6" stroke="#0d1117" stroke-width="2" class="data-point"/>
  
    <circle cx="670.738255033557" cy="166.71099783891233" r="4" fill="#3b82f6" stroke="#0d1117" stroke-width="2" class="data-point"/>
  
    <circle cx="675.4362416107382" cy="160.0919146142413" r="4" fill="#3b82f6" stroke="#0d1117" stroke-width="2" class="data-point"/>
  
    <circle cx="680.1342281879195" cy="152.71658748757602" r="4" fill="#3b82f6" stroke="#0d1117" stroke-width="2" class="data-point"/>
  
    <circle cx="684.8322147651007" cy="146.80177263898895" r="4" fill="#3b82f6" stroke="#0d1117" stroke-width="2" class="data-point"/>
  
    <circle cx="689.5302013422819" cy="140.38279518907237" r="4" fill="#3b82f6" stroke="#0d1117" stroke-width="2" class="data-point"/>
  
    <circle cx="694.2281879194632" cy="134.68887632560387" r="4" fill="#3b82f6" stroke="#0d1117" stroke-width="2" class="data-point"/>
  
    <circle cx="698.9261744966443" cy="129.04693298804563" r="4" fill="#3b82f6" stroke="#0d1117" stroke-width="2" class="data-point"/>
  
    <circle cx="703.6241610738255" cy="123.42058230826046" r="4" fill="#3b82f6" stroke="#0d1117" stroke-width="2" class="data-point"/>
  
    <circle cx="708.3221476510067" cy="115.7593897890888" r="4" fill="#3b82f6" stroke="#0d1117" stroke-width="2" class="data-point"/>
  
    <circle cx="713.0201342281879" cy="108.07480828325751" r="4" fill="#3b82f6" stroke="#0d1117" stroke-width="2" class="data-point"/>
  
    <circle cx="717.7181208053692" cy="101.6688247148185" r="4" fill="#3b82f6" stroke="#0d1117" stroke-width="2" class="data-point"/>
  
    <circle cx="722.4161073825503" cy="96.2997528882891" r="4" fill="#3b82f6" stroke="#0d1117" stroke-width="2" class="data-point"/>
  
    <circle cx="727.1140939597315" cy="91.09180519208147" r="4" fill="#3b82f6" stroke="#0d1117" stroke-width="2" class="data-point"/>
  
    <circle cx="731.8120805369127" cy="84.17906024601749" r="4" fill="#3b82f6" stroke="#0d1117" stroke-width="2" class="data-point"/>
  
    <circle cx="736.510067114094" cy="78.8177847483746" r="4" fill="#3b82f6" stroke="#0d1117" stroke-width="2" class="data-point"/>
  
    <circle cx="741.2080536912752" cy="73.51368232923306" r="4" fill="#3b82f6" stroke="#0d1117" stroke-width="2" class="data-point"/>
  
    <circle cx="745.9060402684564" cy="68.55261838109914" r="4" fill="#3b82f6" stroke="#0d1117" stroke-width="2" class="data-point"/>
  
    <circle cx="750.6040268456376" cy="63.880018601767176" r="4" fill="#3b82f6" stroke="#0d1117" stroke-width="2" class="data-point"/>
  
    <circle cx="755.3020134228188" cy="59.09307266543266" r="4" fill="#3b82f6" stroke="#0d1117" stroke-width="2" class="data-point"/>
  
    <circle cx="760" cy="55" r="4" fill="#3b82f6" stroke="#0d1117" stroke-width="2" class="data-point"/>
  

  <!-- Axis lines -->
  <line x1="60" y1="55" x2="60" y2="340"
        stroke="#30363d" stroke-width="2"/>
  <line x1="60" y1="340" x2="760" y2="340"
        stroke="#30363d" stroke-width="2"/>
</svg>