<?xml version="1.0" encoding="UTF-8"?>
<svg width="800" height="400" xmlns="http://www.w3.org/2000/svg">
  <defs>
    <!-- Gradient for area fill -->
    <linearGradient id="areaGradient" x1="0%" y1="0%" x2="0%" y2="100%">
      <stop offset="0%" style="stop-color:#3b82f6;stop-opacity:0.3" />
      <stop offset="100%" style="stop-color:#3b82f6;stop-opacity:0.05" />
    </linearGradient>

    <!-- Glow filter for line -->
    <filter id="glow">
      <feGaussianBlur stdDeviation="2" result="coloredBlur"/>
      <feMerge>
        <feMergeNode in="coloredBlur"/>
        <feMergeNode in="SourceGraphic"/>
      </feMerge>
    </filter>

    <!-- Animation -->
    <style>
      @keyframes draw {
        from { stroke-dashoffset: 2000; }
        to { stroke-dashoffset: 0; }
      }
      @keyframes fadeIn {
        from { opacity: 0; }
        to { opacity: 1; }
      }
      .line-path {
        stroke-dasharray: 2000;
        stroke-dashoffset: 2000;
        animation: draw 1.5s ease-out forwards;
      }
      .area-path {
        opacity: 0;
        animation: fadeIn 1s ease-out 0.5s forwards;
      }
      .data-point {
        opacity: 0;
        animation: fadeIn 0.5s ease-out 1s forwards;
      }
    </style>
  </defs>

  <!-- Background -->
  <rect width="800" height="400" fill="#0d1117" rx="8"/>

  <!-- Title -->
  <text x="400" y="25" text-anchor="middle" fill="#c9d1d9" font-family="system-ui, -apple-system, sans-serif" font-size="16" font-weight="600">
    zxcloli666/SoundCloud-Desktop Downloads
  </text>

  <!-- Stats -->
  <text x="780" y="25" text-anchor="end" fill="#58a6ff" font-family="system-ui, -apple-system, sans-serif" font-size="14" font-weight="600">
    108.6K total
  </text>
  <text x="780" y="42" text-anchor="end" fill="#3fb950" font-family="system-ui, -apple-system, sans-serif" font-size="12">
    +1.4K (+1.4%)
  </text>

  <!-- Grid lines -->
  <g opacity="0.1">
    
      <line x1="60" y1="340" x2="760" y2="340"
            stroke="#c9d1d9" stroke-width="1"/>
    
      <line x1="60" y1="268.75" x2="760" y2="268.75"
            stroke="#c9d1d9" stroke-width="1"/>
    
      <line x1="60" y1="197.5" x2="760" y2="197.5"
            stroke="#c9d1d9" stroke-width="1"/>
    
      <line x1="60" y1="126.25" x2="760" y2="126.25"
            stroke="#c9d1d9" stroke-width="1"/>
    
      <line x1="60" y1="55" x2="760" y2="55"
            stroke="#c9d1d9" stroke-width="1"/>
    
  </g>

  <!-- Y-axis labels -->
  
    <text x="50" y="344" text-anchor="end"
          fill="#8b949e" font-family="system-ui, -apple-system, sans-serif" font-size="11">
      60.2K
    </text>
  
    <text x="50" y="272.75" text-anchor="end"
          fill="#8b949e" font-family="system-ui, -apple-system, sans-serif" font-size="11">
      72.3K
    </text>
  
    <text x="50" y="201.5" text-anchor="end"
          fill="#8b949e" font-family="system-ui, -apple-system, sans-serif" font-size="11">
      84.4K
    </text>
  
    <text x="50" y="130.25" text-anchor="end"
          fill="#8b949e" font-family="system-ui, -apple-system, sans-serif" font-size="11">
      96.5K
    </text>
  
    <text x="50" y="59" text-anchor="end"
          fill="#8b949e" font-family="system-ui, -apple-system, sans-serif" font-size="11">
      108.6K
    </text>
  

  <!-- X-axis labels -->
  
    <text x="60" y="360" text-anchor="middle"
          fill="#8b949e" font-family="system-ui, -apple-system, sans-serif" font-size="11">
      Nov 25
    </text>
  
    <text x="146.77685950413223" y="360" text-anchor="middle"
          fill="#8b949e" font-family="system-ui, -apple-system, sans-serif" font-size="11">
      Dec 10
    </text>
  
    <text x="233.55371900826447" y="360" text-anchor="middle"
          fill="#8b949e" font-family="system-ui, -apple-system, sans-serif" font-size="11">
      Dec 25
    </text>
  
    <text x="320.3305785123967" y="360" text-anchor="middle"
          fill="#8b949e" font-family="system-ui, -apple-system, sans-serif" font-size="11">
      Jan 9
    </text>
  
    <text x="407.10743801652893" y="360" text-anchor="middle"
          fill="#8b949e" font-family="system-ui, -apple-system, sans-serif" font-size="11">
      Jan 24
    </text>
  
    <text x="493.88429752066116" y="360" text-anchor="middle"
          fill="#8b949e" font-family="system-ui, -apple-system, sans-serif" font-size="11">
      Feb 8
    </text>
  
    <text x="580.6611570247934" y="360" text-anchor="middle"
          fill="#8b949e" font-family="system-ui, -apple-system, sans-serif" font-size="11">
      Feb 23
    </text>
  
    <text x="667.4380165289256" y="360" text-anchor="middle"
          fill="#8b949e" font-family="system-ui, -apple-system, sans-serif" font-size="11">
      Mar 10
    </text>
  
    <text x="754.2148760330579" y="360" text-anchor="middle"
          fill="#8b949e" font-family="system-ui, -apple-system, sans-serif" font-size="11">
      Mar 25
    </text>
  
    <text x="760" y="360" text-anchor="middle"
          fill="#8b949e" font-family="system-ui, -apple-system, sans-serif" font-size="11">
      Mar 26
    </text>
  

  <!-- Area under line -->
  <path d="M 60 340
    L 60.00 340.00 L 65.79 339.13 L 71.57 337.66 L 77.36 336.30 L 83.14 333.59 L 88.93 330.78 L 94.71 328.58 L 100.50 326.52 L 106.28 324.69 L 112.07 322.54 L 117.85 320.14 L 123.64 317.58 L 129.42 315.25 L 135.21 312.77 L 140.99 310.96 L 146.78 309.09 L 152.56 306.55 L 158.35 304.85 L 164.13 302.49 L 169.92 299.77 L 175.70 297.73 L 181.49 296.04 L 187.27 294.95 L 193.06 294.05 L 198.84 292.37 L 204.63 291.18 L 210.41 288.56 L 216.20 287.53 L 221.98 286.20 L 227.77 284.48 L 233.55 283.30 L 239.34 282.11 L 245.12 280.85 L 250.91 279.98 L 256.69 279.23 L 262.48 278.08 L 268.26 276.69 L 274.05 275.40 L 279.83 273.78 L 285.62 272.01 L 291.40 270.38 L 297.19 268.42 L 302.98 266.50 L 308.76 264.57 L 314.55 262.47 L 320.33 260.45 L 326.12 258.15 L 331.90 256.10 L 337.69 254.36 L 343.47 252.97 L 349.26 251.03 L 355.04 248.81 L 360.83 246.78 L 366.61 244.41 L 372.40 241.49 L 378.18 239.31 L 383.97 237.50 L 389.75 235.78 L 395.54 233.72 L 401.32 231.32 L 407.11 228.66 L 412.89 225.86 L 418.68 223.18 L 424.46 220.82 L 430.25 218.48 L 436.03 216.41 L 441.82 214.30 L 447.60 211.95 L 453.39 209.02 L 459.17 206.83 L 464.96 204.88 L 470.74 202.71 L 476.53 200.68 L 482.31 198.46 L 488.10 196.14 L 493.88 193.72 L 499.67 191.59 L 505.45 189.77 L 511.24 187.78 L 517.02 185.62 L 522.81 183.62 L 528.60 181.01 L 534.38 178.77 L 540.17 176.61 L 545.95 174.81 L 551.74 173.07 L 557.52 171.32 L 563.31 169.23 L 569.09 167.08 L 574.88 164.48 L 580.66 162.36 L 586.45 160.64 L 592.23 158.87 L 598.02 157.17 L 603.80 155.08 L 609.59 152.93 L 615.37 148.18 L 621.16 138.73 L 626.94 127.47 L 632.73 117.21 L 638.51 112.01 L 644.30 104.17 L 650.08 98.96 L 655.87 94.40 L 661.65 89.93 L 667.44 85.72 L 673.22 79.18 L 679.01 73.97 L 684.79 67.32 L 690.58 65.96 L 696.36 65.79 L 702.15 65.56 L 707.93 65.36 L 713.72 65.11 L 719.50 64.89 L 725.29 64.80 L 731.07 64.48 L 736.86 64.16 L 742.64 63.96 L 748.43 63.88 L 754.21 63.53 L 760.00 55.00
    L 760 340
    Z" fill="url(#areaGradient)" class="area-path"/>

  <!-- Main line with glow -->
  <path d="M 60.00 340.00 L 65.79 339.13 L 71.57 337.66 L 77.36 336.30 L 83.14 333.59 L 88.93 330.78 L 94.71 328.58 L 100.50 326.52 L 106.28 324.69 L 112.07 322.54 L 117.85 320.14 L 123.64 317.58 L 129.42 315.25 L 135.21 312.77 L 140.99 310.96 L 146.78 309.09 L 152.56 306.55 L 158.35 304.85 L 164.13 302.49 L 169.92 299.77 L 175.70 297.73 L 181.49 296.04 L 187.27 294.95 L 193.06 294.05 L 198.84 292.37 L 204.63 291.18 L 210.41 288.56 L 216.20 287.53 L 221.98 286.20 L 227.77 284.48 L 233.55 283.30 L 239.34 282.11 L 245.12 280.85 L 250.91 279.98 L 256.69 279.23 L 262.48 278.08 L 268.26 276.69 L 274.05 275.40 L 279.83 273.78 L 285.62 272.01 L 291.40 270.38 L 297.19 268.42 L 302.98 266.50 L 308.76 264.57 L 314.55 262.47 L 320.33 260.45 L 326.12 258.15 L 331.90 256.10 L 337.69 254.36 L 343.47 252.97 L 349.26 251.03 L 355.04 248.81 L 360.83 246.78 L 366.61 244.41 L 372.40 241.49 L 378.18 239.31 L 383.97 237.50 L 389.75 235.78 L 395.54 233.72 L 401.32 231.32 L 407.11 228.66 L 412.89 225.86 L 418.68 223.18 L 424.46 220.82 L 430.25 218.48 L 436.03 216.41 L 441.82 214.30 L 447.60 211.95 L 453.39 209.02 L 459.17 206.83 L 464.96 204.88 L 470.74 202.71 L 476.53 200.68 L 482.31 198.46 L 488.10 196.14 L 493.88 193.72 L 499.67 191.59 L 505.45 189.77 L 511.24 187.78 L 517.02 185.62 L 522.81 183.62 L 528.60 181.01 L 534.38 178.77 L 540.17 176.61 L 545.95 174.81 L 551.74 173.07 L 557.52 171.32 L 563.31 169.23 L 569.09 167.08 L 574.88 164.48 L 580.66 162.36 L 586.45 160.64 L 592.23 158.87 L 598.02 157.17 L 603.80 155.08 L 609.59 152.93 L 615.37 148.18 L 621.16 138.73 L 626.94 127.47 L 632.73 117.21 L 638.51 112.01 L 644.30 104.17 L 650.08 98.96 L 655.87 94.40 L 661.65 89.93 L 667.44 85.72 L 673.22 79.18 L 679.01 73.97 L 684.79 67.32 L 690.58 65.96 L 696.36 65.79 L 702.15 65.56 L 707.93 65.36 L 713.72 65.11 L 719.50 64.89 L 725.29 64.80 L 731.07 64.48 L 736.86 64.16 L 742.64 63.96 L 748.43 63.88 L 754.21 63.53 L 760.00 55.00" fill="none" stroke="#3b82f6" stroke-width="3"
        stroke-linecap="round" stroke-linejoin="round" filter="url(#glow)" class="line-path"/>

  <!-- Data points -->
  
    <circle cx="60" cy="340" r="4" fill="#3b82f6" stroke="#0d1117" stroke-width="2" class="data-point"/>
  
    <circle cx="65.78512396694215" cy="339.1348655680833" r="4" fill="#3b82f6" stroke="#0d1117" stroke-width="2" class="data-point"/>
  
    <circle cx="71.5702479338843" cy="337.66354850700037" r="4" fill="#3b82f6" stroke="#0d1117" stroke-width="2" class="data-point"/>
  
    <circle cx="77.35537190082644" cy="336.29816627431546" r="4" fill="#3b82f6" stroke="#0d1117" stroke-width="2" class="data-point"/>
  
    <circle cx="83.14049586776859" cy="333.5850576136786" r="4" fill="#3b82f6" stroke="#0d1117" stroke-width="2" class="data-point"/>
  
    <circle cx="88.92561983471074" cy="330.7836699293768" r="4" fill="#3b82f6" stroke="#0d1117" stroke-width="2" class="data-point"/>
  
    <circle cx="94.7107438016529" cy="328.57669433775243" r="4" fill="#3b82f6" stroke="#0d1117" stroke-width="2" class="data-point"/>
  
    <circle cx="100.49586776859505" cy="326.5168504522364" r="4" fill="#3b82f6" stroke="#0d1117" stroke-width="2" class="data-point"/>
  
    <circle cx="106.28099173553719" cy="324.6865320282493" r="4" fill="#3b82f6" stroke="#0d1117" stroke-width="2" class="data-point"/>
  
    <circle cx="112.06611570247934" cy="322.53840911906826" r="4" fill="#3b82f6" stroke="#0d1117" stroke-width="2" class="data-point"/>
  
    <circle cx="117.85123966942149" cy="320.1431049436253" r="4" fill="#3b82f6" stroke="#0d1117" stroke-width="2" class="data-point"/>
  
    <circle cx="123.63636363636364" cy="317.57712798909677" r="4" fill="#3b82f6" stroke="#0d1117" stroke-width="2" class="data-point"/>
  
    <circle cx="129.4214876033058" cy="315.2465617643415" r="4" fill="#3b82f6" stroke="#0d1117" stroke-width="2" class="data-point"/>
  
    <circle cx="135.20661157024793" cy="312.7688638334779" r="4" fill="#3b82f6" stroke="#0d1117" stroke-width="2" class="data-point"/>
  
    <circle cx="140.9917355371901" cy="310.96208648246807" r="4" fill="#3b82f6" stroke="#0d1117" stroke-width="2" class="data-point"/>
  
    <circle cx="146.77685950413223" cy="309.09057118077067" r="4" fill="#3b82f6" stroke="#0d1117" stroke-width="2" class="data-point"/>
  
    <circle cx="152.56198347107437" cy="306.54813529921944" r="4" fill="#3b82f6" stroke="#0d1117" stroke-width="2" class="data-point"/>
  
    <circle cx="158.34710743801654" cy="304.8472927766076" r="4" fill="#3b82f6" stroke="#0d1117" stroke-width="2" class="data-point"/>
  
    <circle cx="164.13223140495867" cy="302.493185478875" r="4" fill="#3b82f6" stroke="#0d1117" stroke-width="2" class="data-point"/>
  
    <circle cx="169.91735537190084" cy="299.7741915499938" r="4" fill="#3b82f6" stroke="#0d1117" stroke-width="2" class="data-point"/>
  
    <circle cx="175.70247933884298" cy="297.7261182009664" r="4" fill="#3b82f6" stroke="#0d1117" stroke-width="2" class="data-point"/>
  
    <circle cx="181.48760330578511" cy="296.0429314830876" r="4" fill="#3b82f6" stroke="#0d1117" stroke-width="2" class="data-point"/>
  
    <circle cx="187.27272727272728" cy="294.95415685788623" r="4" fill="#3b82f6" stroke="#0d1117" stroke-width="2" class="data-point"/>
  
    <circle cx="193.05785123966942" cy="294.0478255482592" r="4" fill="#3b82f6" stroke="#0d1117" stroke-width="2" class="data-point"/>
  
    <circle cx="198.84297520661158" cy="292.3705240986247" r="4" fill="#3b82f6" stroke="#0d1117" stroke-width="2" class="data-point"/>
  
    <circle cx="204.62809917355372" cy="291.1758146450254" r="4" fill="#3b82f6" stroke="#0d1117" stroke-width="2" class="data-point"/>
  
    <circle cx="210.41322314049586" cy="288.55687027629784" r="4" fill="#3b82f6" stroke="#0d1117" stroke-width="2" class="data-point"/>
  
    <circle cx="216.19834710743802" cy="287.52694833353985" r="4" fill="#3b82f6" stroke="#0d1117" stroke-width="2" class="data-point"/>
  
    <circle cx="221.98347107438016" cy="286.1968777103209" r="4" fill="#3b82f6" stroke="#0d1117" stroke-width="2" class="data-point"/>
  
    <circle cx="227.76859504132233" cy="284.4783793829761" r="4" fill="#3b82f6" stroke="#0d1117" stroke-width="2" class="data-point"/>
  
    <circle cx="233.55371900826447" cy="283.30132573410975" r="4" fill="#3b82f6" stroke="#0d1117" stroke-width="2" class="data-point"/>
  
    <circle cx="239.3388429752066" cy="282.1066162805105" r="4" fill="#3b82f6" stroke="#0d1117" stroke-width="2" class="data-point"/>
  
    <circle cx="245.12396694214877" cy="280.8530541444678" r="4" fill="#3b82f6" stroke="#0d1117" stroke-width="2" class="data-point"/>
  
    <circle cx="250.9090909090909" cy="279.9820344443068" r="4" fill="#3b82f6" stroke="#0d1117" stroke-width="2" class="data-point"/>
  
    <circle cx="256.6942148760331" cy="279.22872010903234" r="4" fill="#3b82f6" stroke="#0d1117" stroke-width="2" class="data-point"/>
  
    <circle cx="262.47933884297515" cy="278.0810928013877" r="4" fill="#3b82f6" stroke="#0d1117" stroke-width="2" class="data-point"/>
  
    <circle cx="268.26446280991735" cy="276.6862842274811" r="4" fill="#3b82f6" stroke="#0d1117" stroke-width="2" class="data-point"/>
  
    <circle cx="274.0495867768595" cy="275.40329575021684" r="4" fill="#3b82f6" stroke="#0d1117" stroke-width="2" class="data-point"/>
  
    <circle cx="279.8347107438017" cy="273.7789617147813" r="4" fill="#3b82f6" stroke="#0d1117" stroke-width="2" class="data-point"/>
  
    <circle cx="285.6198347107438" cy="272.0074959732375" r="4" fill="#3b82f6" stroke="#0d1117" stroke-width="2" class="data-point"/>
  
    <circle cx="291.40495867768595" cy="270.383161937802" r="4" fill="#3b82f6" stroke="#0d1117" stroke-width="2" class="data-point"/>
  
    <circle cx="297.1900826446281" cy="268.4233676124396" r="4" fill="#3b82f6" stroke="#0d1117" stroke-width="2" class="data-point"/>
  
    <circle cx="302.97520661157023" cy="266.4988848965432" r="4" fill="#3b82f6" stroke="#0d1117" stroke-width="2" class="data-point"/>
  
    <circle cx="308.76033057851237" cy="264.57440218064676" r="4" fill="#3b82f6" stroke="#0d1117" stroke-width="2" class="data-point"/>
  
    <circle cx="314.54545454545456" cy="262.46747614917604" r="4" fill="#3b82f6" stroke="#0d1117" stroke-width="2" class="data-point"/>
  
    <circle cx="320.3305785123967" cy="260.45471440961467" r="4" fill="#3b82f6" stroke="#0d1117" stroke-width="2" class="data-point"/>
  
    <circle cx="326.11570247933884" cy="258.153574526081" r="4" fill="#3b82f6" stroke="#0d1117" stroke-width="2" class="data-point"/>
  
    <circle cx="331.900826446281" cy="256.0996159088093" r="4" fill="#3b82f6" stroke="#0d1117" stroke-width="2" class="data-point"/>
  
    <circle cx="337.68595041322317" cy="254.3634617767315" r="4" fill="#3b82f6" stroke="#0d1117" stroke-width="2" class="data-point"/>
  
    <circle cx="343.4710743801653" cy="252.97453847106925" r="4" fill="#3b82f6" stroke="#0d1117" stroke-width="2" class="data-point"/>
  
    <circle cx="349.25619834710744" cy="251.03239995043987" r="4" fill="#3b82f6" stroke="#0d1117" stroke-width="2" class="data-point"/>
  
    <circle cx="355.0413223140496" cy="248.81365382232684" r="4" fill="#3b82f6" stroke="#0d1117" stroke-width="2" class="data-point"/>
  
    <circle cx="360.8264462809917" cy="246.78323627803246" r="4" fill="#3b82f6" stroke="#0d1117" stroke-width="2" class="data-point"/>
  
    <circle cx="366.61157024793386" cy="244.41147317556684" r="4" fill="#3b82f6" stroke="#0d1117" stroke-width="2" class="data-point"/>
  
    <circle cx="372.39669421487605" cy="241.48649485813405" r="4" fill="#3b82f6" stroke="#0d1117" stroke-width="2" class="data-point"/>
  
    <circle cx="378.1818181818182" cy="239.30894560773137" r="4" fill="#3b82f6" stroke="#0d1117" stroke-width="2" class="data-point"/>
  
    <circle cx="383.9669421487603" cy="237.50216825672157" r="4" fill="#3b82f6" stroke="#0d1117" stroke-width="2" class="data-point"/>
  
    <circle cx="389.75206611570246" cy="235.78366992937677" r="4" fill="#3b82f6" stroke="#0d1117" stroke-width="2" class="data-point"/>
  
    <circle cx="395.53719008264466" cy="233.7179407756164" r="4" fill="#3b82f6" stroke="#0d1117" stroke-width="2" class="data-point"/>
  
    <circle cx="401.3223140495868" cy="231.31675133192914" r="4" fill="#3b82f6" stroke="#0d1117" stroke-width="2" class="data-point"/>
  
    <circle cx="407.10743801652893" cy="228.65661008549125" r="4" fill="#3b82f6" stroke="#0d1117" stroke-width="2" class="data-point"/>
  
    <circle cx="412.89256198347107" cy="225.86110766943375" r="4" fill="#3b82f6" stroke="#0d1117" stroke-width="2" class="data-point"/>
  
    <circle cx="418.6776859504132" cy="223.1774253500186" r="4" fill="#3b82f6" stroke="#0d1117" stroke-width="2" class="data-point"/>
  
    <circle cx="424.4628099173554" cy="220.8174327840416" r="4" fill="#3b82f6" stroke="#0d1117" stroke-width="2" class="data-point"/>
  
    <circle cx="430.24793388429754" cy="218.4750960227977" r="4" fill="#3b82f6" stroke="#0d1117" stroke-width="2" class="data-point"/>
  
    <circle cx="436.0330578512397" cy="216.40936686903729" r="4" fill="#3b82f6" stroke="#0d1117" stroke-width="2" class="data-point"/>
  
    <circle cx="441.8181818181818" cy="214.3024408375666" r="4" fill="#3b82f6" stroke="#0d1117" stroke-width="2" class="data-point"/>
  
    <circle cx="447.603305785124" cy="211.94833353983398" r="4" fill="#3b82f6" stroke="#0d1117" stroke-width="2" class="data-point"/>
  
    <circle cx="453.38842975206614" cy="209.01746995415687" r="4" fill="#3b82f6" stroke="#0d1117" stroke-width="2" class="data-point"/>
  
    <circle cx="459.1735537190083" cy="206.83403543550986" r="4" fill="#3b82f6" stroke="#0d1117" stroke-width="2" class="data-point"/>
  
    <circle cx="464.95867768595036" cy="204.88012637839176" r="4" fill="#3b82f6" stroke="#0d1117" stroke-width="2" class="data-point"/>
  
    <circle cx="470.7438016528926" cy="202.70846239623341" r="4" fill="#3b82f6" stroke="#0d1117" stroke-width="2" class="data-point"/>
  
    <circle cx="476.5289256198347" cy="200.68393012018336" r="4" fill="#3b82f6" stroke="#0d1117" stroke-width="2" class="data-point"/>
  
    <circle cx="482.31404958677683" cy="198.45929872382604" r="4" fill="#3b82f6" stroke="#0d1117" stroke-width="2" class="data-point"/>
  
    <circle cx="488.09917355371897" cy="196.14050303555942" r="4" fill="#3b82f6" stroke="#0d1117" stroke-width="2" class="data-point"/>
  
    <circle cx="493.88429752066116" cy="193.7157725188948" r="4" fill="#3b82f6" stroke="#0d1117" stroke-width="2" class="data-point"/>
  
    <circle cx="499.6694214876033" cy="191.59119068269112" r="4" fill="#3b82f6" stroke="#0d1117" stroke-width="2" class="data-point"/>
  
    <circle cx="505.45454545454544" cy="189.77264279519267" r="4" fill="#3b82f6" stroke="#0d1117" stroke-width="2" class="data-point"/>
  
    <circle cx="511.2396694214876" cy="187.77753686036428" r="4" fill="#3b82f6" stroke="#0d1117" stroke-width="2" class="data-point"/>
  
    <circle cx="517.0247933884298" cy="185.6176434146946" r="4" fill="#3b82f6" stroke="#0d1117" stroke-width="2" class="data-point"/>
  
    <circle cx="522.8099173553719" cy="183.61665221162187" r="4" fill="#3b82f6" stroke="#0d1117" stroke-width="2" class="data-point"/>
  
    <circle cx="528.595041322314" cy="181.00947837938298" r="4" fill="#3b82f6" stroke="#0d1117" stroke-width="2" class="data-point"/>
  
    <circle cx="534.3801652892562" cy="178.76719117829265" r="4" fill="#3b82f6" stroke="#0d1117" stroke-width="2" class="data-point"/>
  
    <circle cx="540.1652892561983" cy="176.60729773262295" r="4" fill="#3b82f6" stroke="#0d1117" stroke-width="2" class="data-point"/>
  
    <circle cx="545.9504132231405" cy="174.81229091810184" r="4" fill="#3b82f6" stroke="#0d1117" stroke-width="2" class="data-point"/>
  
    <circle cx="551.7355371900826" cy="173.07025151777972" r="4" fill="#3b82f6" stroke="#0d1117" stroke-width="2" class="data-point"/>
  
    <circle cx="557.5206611570247" cy="171.32232684921323" r="4" fill="#3b82f6" stroke="#0d1117" stroke-width="2" class="data-point"/>
  
    <circle cx="563.305785123967" cy="169.23305662247554" r="4" fill="#3b82f6" stroke="#0d1117" stroke-width="2" class="data-point"/>
  
    <circle cx="569.0909090909091" cy="167.08493371329453" r="4" fill="#3b82f6" stroke="#0d1117" stroke-width="2" class="data-point"/>
  
    <circle cx="574.8760330578513" cy="164.47775988105565" r="4" fill="#3b82f6" stroke="#0d1117" stroke-width="2" class="data-point"/>
  
    <circle cx="580.6611570247934" cy="162.3649485813406" r="4" fill="#3b82f6" stroke="#0d1117" stroke-width="2" class="data-point"/>
  
    <circle cx="586.4462809917355" cy="160.64056498575147" r="4" fill="#3b82f6" stroke="#0d1117" stroke-width="2" class="data-point"/>
  
    <circle cx="592.2314049586777" cy="158.86909924420766" r="4" fill="#3b82f6" stroke="#0d1117" stroke-width="2" class="data-point"/>
  
    <circle cx="598.0165289256198" cy="157.17414198984017" r="4" fill="#3b82f6" stroke="#0d1117" stroke-width="2" class="data-point"/>
  
    <circle cx="603.801652892562" cy="155.07898649485813" r="4" fill="#3b82f6" stroke="#0d1117" stroke-width="2" class="data-point"/>
  
    <circle cx="609.5867768595042" cy="152.93086358567712" r="4" fill="#3b82f6" stroke="#0d1117" stroke-width="2" class="data-point"/>
  
    <circle cx="615.3719008264463" cy="148.18145211250155" r="4" fill="#3b82f6" stroke="#0d1117" stroke-width="2" class="data-point"/>
  
    <circle cx="621.1570247933885" cy="138.72971131210505" r="4" fill="#3b82f6" stroke="#0d1117" stroke-width="2" class="data-point"/>
  
    <circle cx="626.9421487603306" cy="127.47119316069879" r="4" fill="#3b82f6" stroke="#0d1117" stroke-width="2" class="data-point"/>
  
    <circle cx="632.7272727272727" cy="117.21317061082888" r="4" fill="#3b82f6" stroke="#0d1117" stroke-width="2" class="data-point"/>
  
    <circle cx="638.5123966942149" cy="112.0105934828398" r="4" fill="#3b82f6" stroke="#0d1117" stroke-width="2" class="data-point"/>
  
    <circle cx="644.297520661157" cy="104.17141618139016" r="4" fill="#3b82f6" stroke="#0d1117" stroke-width="2" class="data-point"/>
  
    <circle cx="650.0826446280992" cy="98.96295378515674" r="4" fill="#3b82f6" stroke="#0d1117" stroke-width="2" class="data-point"/>
  
    <circle cx="655.8677685950414" cy="94.39598562755546" r="4" fill="#3b82f6" stroke="#0d1117" stroke-width="2" class="data-point"/>
  
    <circle cx="661.6528925619834" cy="89.92906703010777" r="4" fill="#3b82f6" stroke="#0d1117" stroke-width="2" class="data-point"/>
  
    <circle cx="667.4380165289256" cy="85.72110023541072" r="4" fill="#3b82f6" stroke="#0d1117" stroke-width="2" class="data-point"/>
  
    <circle cx="673.2231404958677" cy="79.17668194771403" r="4" fill="#3b82f6" stroke="#0d1117" stroke-width="2" class="data-point"/>
  
    <circle cx="679.00826446281" cy="73.97410481972497" r="4" fill="#3b82f6" stroke="#0d1117" stroke-width="2" class="data-point"/>
  
    <circle cx="684.7933884297521" cy="67.32375170363025" r="4" fill="#3b82f6" stroke="#0d1117" stroke-width="2" class="data-point"/>
  
    <circle cx="690.5785123966942" cy="65.9642547391897" r="4" fill="#3b82f6" stroke="#0d1117" stroke-width="2" class="data-point"/>
  
    <circle cx="696.3636363636364" cy="65.78769669185976" r="4" fill="#3b82f6" stroke="#0d1117" stroke-width="2" class="data-point"/>
  
    <circle cx="702.1487603305785" cy="65.5581712303308" r="4" fill="#3b82f6" stroke="#0d1117" stroke-width="2" class="data-point"/>
  
    <circle cx="707.9338842975206" cy="65.36395737826786" r="4" fill="#3b82f6" stroke="#0d1117" stroke-width="2" class="data-point"/>
  
    <circle cx="713.7190082644628" cy="65.11089084376164" r="4" fill="#3b82f6" stroke="#0d1117" stroke-width="2" class="data-point"/>
  
    <circle cx="719.5041322314049" cy="64.88725065047703" r="4" fill="#3b82f6" stroke="#0d1117" stroke-width="2" class="data-point"/>
  
    <circle cx="725.2892561983472" cy="64.79897162681203" r="4" fill="#3b82f6" stroke="#0d1117" stroke-width="2" class="data-point"/>
  
    <circle cx="731.0743801652893" cy="64.47528187337377" r="4" fill="#3b82f6" stroke="#0d1117" stroke-width="2" class="data-point"/>
  
    <circle cx="736.8595041322315" cy="64.16336265642423" r="4" fill="#3b82f6" stroke="#0d1117" stroke-width="2" class="data-point"/>
  
    <circle cx="742.6446280991736" cy="63.95737826787263" r="4" fill="#3b82f6" stroke="#0d1117" stroke-width="2" class="data-point"/>
  
    <circle cx="748.4297520661157" cy="63.88086978069629" r="4" fill="#3b82f6" stroke="#0d1117" stroke-width="2" class="data-point"/>
  
    <circle cx="754.2148760330579" cy="63.53363895428072" r="4" fill="#3b82f6" stroke="#0d1117" stroke-width="2" class="data-point"/>
  
    <circle cx="760" cy="55" r="4" fill="#3b82f6" stroke="#0d1117" stroke-width="2" class="data-point"/>
  

  <!-- Axis lines -->
  <line x1="60" y1="55" x2="60" y2="340"
        stroke="#30363d" stroke-width="2"/>
  <line x1="60" y1="340" x2="760" y2="340"
        stroke="#30363d" stroke-width="2"/>
</svg>