<?xml version="1.0" encoding="UTF-8"?>
<svg width="800" height="400" xmlns="http://www.w3.org/2000/svg">
  <defs>
    <!-- Gradient for area fill -->
    <linearGradient id="areaGradient" x1="0%" y1="0%" x2="0%" y2="100%">
      <stop offset="0%" style="stop-color:#3b82f6;stop-opacity:0.3" />
      <stop offset="100%" style="stop-color:#3b82f6;stop-opacity:0.05" />
    </linearGradient>

    <!-- Glow filter for line -->
    <filter id="glow">
      <feGaussianBlur stdDeviation="2" result="coloredBlur"/>
      <feMerge>
        <feMergeNode in="coloredBlur"/>
        <feMergeNode in="SourceGraphic"/>
      </feMerge>
    </filter>

    <!-- Animation -->
    <style>
      @keyframes draw {
        from { stroke-dashoffset: 2000; }
        to { stroke-dashoffset: 0; }
      }
      @keyframes fadeIn {
        from { opacity: 0; }
        to { opacity: 1; }
      }
      .line-path {
        stroke-dasharray: 2000;
        stroke-dashoffset: 2000;
        animation: draw 1.5s ease-out forwards;
      }
      .area-path {
        opacity: 0;
        animation: fadeIn 1s ease-out 0.5s forwards;
      }
      .data-point {
        opacity: 0;
        animation: fadeIn 0.5s ease-out 1s forwards;
      }
    </style>
  </defs>

  <!-- Background -->
  <rect width="800" height="400" fill="#0d1117" rx="8"/>

  <!-- Title -->
  <text x="400" y="25" text-anchor="middle" fill="#c9d1d9" font-family="system-ui, -apple-system, sans-serif" font-size="16" font-weight="600">
    zxcloli666/SoundCloud-Desktop Downloads
  </text>

  <!-- Stats -->
  <text x="780" y="25" text-anchor="end" fill="#58a6ff" font-family="system-ui, -apple-system, sans-serif" font-size="14" font-weight="600">
    232.1K total
  </text>
  <text x="780" y="42" text-anchor="end" fill="#3fb950" font-family="system-ui, -apple-system, sans-serif" font-size="12">
    +1.4K (+0.6%)
  </text>

  <!-- Grid lines -->
  <g opacity="0.1">
    
      <line x1="60" y1="340" x2="760" y2="340"
            stroke="#c9d1d9" stroke-width="1"/>
    
      <line x1="60" y1="268.75" x2="760" y2="268.75"
            stroke="#c9d1d9" stroke-width="1"/>
    
      <line x1="60" y1="197.5" x2="760" y2="197.5"
            stroke="#c9d1d9" stroke-width="1"/>
    
      <line x1="60" y1="126.25" x2="760" y2="126.25"
            stroke="#c9d1d9" stroke-width="1"/>
    
      <line x1="60" y1="55" x2="760" y2="55"
            stroke="#c9d1d9" stroke-width="1"/>
    
  </g>

  <!-- Y-axis labels -->
  
    <text x="50" y="344" text-anchor="end"
          fill="#8b949e" font-family="system-ui, -apple-system, sans-serif" font-size="11">
      60.2K
    </text>
  
    <text x="50" y="272.75" text-anchor="end"
          fill="#8b949e" font-family="system-ui, -apple-system, sans-serif" font-size="11">
      103.1K
    </text>
  
    <text x="50" y="201.5" text-anchor="end"
          fill="#8b949e" font-family="system-ui, -apple-system, sans-serif" font-size="11">
      146.1K
    </text>
  
    <text x="50" y="130.25" text-anchor="end"
          fill="#8b949e" font-family="system-ui, -apple-system, sans-serif" font-size="11">
      189.1K
    </text>
  
    <text x="50" y="59" text-anchor="end"
          fill="#8b949e" font-family="system-ui, -apple-system, sans-serif" font-size="11">
      232.1K
    </text>
  

  <!-- X-axis labels -->
  
    <text x="60" y="360" text-anchor="middle"
          fill="#8b949e" font-family="system-ui, -apple-system, sans-serif" font-size="11">
      Nov 25
    </text>
  
    <text x="147.02702702702703" y="360" text-anchor="middle"
          fill="#8b949e" font-family="system-ui, -apple-system, sans-serif" font-size="11">
      Dec 18
    </text>
  
    <text x="234.05405405405406" y="360" text-anchor="middle"
          fill="#8b949e" font-family="system-ui, -apple-system, sans-serif" font-size="11">
      Jan 10
    </text>
  
    <text x="321.0810810810811" y="360" text-anchor="middle"
          fill="#8b949e" font-family="system-ui, -apple-system, sans-serif" font-size="11">
      Feb 2
    </text>
  
    <text x="408.1081081081081" y="360" text-anchor="middle"
          fill="#8b949e" font-family="system-ui, -apple-system, sans-serif" font-size="11">
      Feb 25
    </text>
  
    <text x="495.1351351351351" y="360" text-anchor="middle"
          fill="#8b949e" font-family="system-ui, -apple-system, sans-serif" font-size="11">
      Mar 20
    </text>
  
    <text x="582.1621621621622" y="360" text-anchor="middle"
          fill="#8b949e" font-family="system-ui, -apple-system, sans-serif" font-size="11">
      Apr 12
    </text>
  
    <text x="669.1891891891892" y="360" text-anchor="middle"
          fill="#8b949e" font-family="system-ui, -apple-system, sans-serif" font-size="11">
      May 5
    </text>
  
    <text x="756.2162162162163" y="360" text-anchor="middle"
          fill="#8b949e" font-family="system-ui, -apple-system, sans-serif" font-size="11">
      May 28
    </text>
  
    <text x="760" y="360" text-anchor="middle"
          fill="#8b949e" font-family="system-ui, -apple-system, sans-serif" font-size="11">
      May 29
    </text>
  

  <!-- Area under line -->
  <path d="M 60 340
    L 60.00 340.00 L 63.78 339.76 L 67.57 339.34 L 71.35 338.96 L 75.14 338.19 L 78.92 337.40 L 82.70 336.78 L 86.49 336.20 L 90.27 335.69 L 94.05 335.08 L 97.84 334.41 L 101.62 333.68 L 105.41 333.03 L 109.19 332.33 L 112.97 331.82 L 116.76 331.29 L 120.54 330.58 L 124.32 330.10 L 128.11 329.43 L 131.89 328.67 L 135.68 328.09 L 139.46 327.62 L 143.24 327.31 L 147.03 327.06 L 150.81 326.58 L 154.59 326.25 L 158.38 325.51 L 162.16 325.22 L 165.95 324.84 L 169.73 324.36 L 173.51 324.03 L 177.30 323.69 L 181.08 323.34 L 184.86 323.09 L 188.65 322.88 L 192.43 322.56 L 196.22 322.16 L 200.00 321.80 L 203.78 321.35 L 207.57 320.85 L 211.35 320.39 L 215.14 319.84 L 218.92 319.30 L 222.70 318.75 L 226.49 318.16 L 230.27 317.59 L 234.05 316.94 L 237.84 316.37 L 241.62 315.88 L 245.41 315.49 L 249.19 314.94 L 252.97 314.31 L 256.76 313.74 L 260.54 313.07 L 264.32 312.25 L 268.11 311.64 L 271.89 311.13 L 275.68 310.64 L 279.46 310.06 L 283.24 309.38 L 287.03 308.64 L 290.81 307.85 L 294.59 307.09 L 298.38 306.43 L 302.16 305.77 L 305.95 305.19 L 309.73 304.59 L 313.51 303.93 L 317.30 303.10 L 321.08 302.49 L 324.86 301.94 L 328.65 301.33 L 332.43 300.76 L 336.22 300.13 L 340.00 299.48 L 343.78 298.79 L 347.57 298.19 L 351.35 297.68 L 355.14 297.12 L 358.92 296.51 L 362.70 295.95 L 366.49 295.21 L 370.27 294.58 L 374.05 293.97 L 377.84 293.47 L 381.62 292.98 L 385.41 292.48 L 389.19 291.90 L 392.97 291.29 L 396.76 290.56 L 400.54 289.96 L 404.32 289.48 L 408.11 288.98 L 411.89 288.50 L 415.68 287.91 L 419.46 287.30 L 423.24 285.97 L 427.03 283.30 L 430.81 280.13 L 434.59 277.24 L 438.38 275.78 L 442.16 273.57 L 445.95 272.10 L 449.73 270.81 L 453.51 269.56 L 457.30 268.37 L 461.08 266.53 L 464.86 265.06 L 468.65 263.19 L 472.43 262.81 L 476.22 262.76 L 480.00 262.69 L 483.78 262.64 L 487.57 262.57 L 491.35 262.50 L 495.14 262.48 L 498.92 262.39 L 502.70 262.30 L 506.49 262.24 L 510.27 262.22 L 514.05 262.12 L 517.84 259.72 L 521.62 255.95 L 525.41 253.43 L 529.19 250.50 L 532.97 247.49 L 536.76 245.12 L 540.54 242.47 L 544.32 238.44 L 548.11 233.00 L 551.89 229.45 L 555.68 225.23 L 559.46 220.53 L 563.24 216.75 L 567.03 212.66 L 570.81 209.03 L 574.59 205.43 L 578.38 201.84 L 582.16 196.95 L 585.95 192.05 L 589.73 187.96 L 593.51 184.54 L 597.30 181.21 L 601.08 176.80 L 604.86 173.38 L 608.65 170.00 L 612.43 166.83 L 616.22 163.85 L 620.00 160.80 L 623.78 158.19 L 627.57 155.49 L 631.35 152.72 L 635.14 149.81 L 638.92 147.13 L 642.70 144.68 L 646.49 140.23 L 650.27 136.52 L 654.05 132.95 L 657.84 129.52 L 661.62 124.10 L 665.41 120.67 L 669.19 117.71 L 672.97 114.20 L 676.76 109.04 L 680.54 105.32 L 684.32 102.19 L 688.11 99.53 L 691.89 97.01 L 695.68 94.97 L 699.46 92.66 L 703.24 90.78 L 707.03 88.56 L 710.81 85.37 L 714.59 82.63 L 718.38 80.24 L 722.16 78.18 L 725.95 76.05 L 729.73 74.26 L 733.51 71.24 L 737.30 68.66 L 741.08 66.11 L 744.86 64.00 L 748.65 62.06 L 752.43 60.34 L 756.22 57.39 L 760.00 55.00
    L 760 340
    Z" fill="url(#areaGradient)" class="area-path"/>

  <!-- Main line with glow -->
  <path d="M 60.00 340.00 L 63.78 339.76 L 67.57 339.34 L 71.35 338.96 L 75.14 338.19 L 78.92 337.40 L 82.70 336.78 L 86.49 336.20 L 90.27 335.69 L 94.05 335.08 L 97.84 334.41 L 101.62 333.68 L 105.41 333.03 L 109.19 332.33 L 112.97 331.82 L 116.76 331.29 L 120.54 330.58 L 124.32 330.10 L 128.11 329.43 L 131.89 328.67 L 135.68 328.09 L 139.46 327.62 L 143.24 327.31 L 147.03 327.06 L 150.81 326.58 L 154.59 326.25 L 158.38 325.51 L 162.16 325.22 L 165.95 324.84 L 169.73 324.36 L 173.51 324.03 L 177.30 323.69 L 181.08 323.34 L 184.86 323.09 L 188.65 322.88 L 192.43 322.56 L 196.22 322.16 L 200.00 321.80 L 203.78 321.35 L 207.57 320.85 L 211.35 320.39 L 215.14 319.84 L 218.92 319.30 L 222.70 318.75 L 226.49 318.16 L 230.27 317.59 L 234.05 316.94 L 237.84 316.37 L 241.62 315.88 L 245.41 315.49 L 249.19 314.94 L 252.97 314.31 L 256.76 313.74 L 260.54 313.07 L 264.32 312.25 L 268.11 311.64 L 271.89 311.13 L 275.68 310.64 L 279.46 310.06 L 283.24 309.38 L 287.03 308.64 L 290.81 307.85 L 294.59 307.09 L 298.38 306.43 L 302.16 305.77 L 305.95 305.19 L 309.73 304.59 L 313.51 303.93 L 317.30 303.10 L 321.08 302.49 L 324.86 301.94 L 328.65 301.33 L 332.43 300.76 L 336.22 300.13 L 340.00 299.48 L 343.78 298.79 L 347.57 298.19 L 351.35 297.68 L 355.14 297.12 L 358.92 296.51 L 362.70 295.95 L 366.49 295.21 L 370.27 294.58 L 374.05 293.97 L 377.84 293.47 L 381.62 292.98 L 385.41 292.48 L 389.19 291.90 L 392.97 291.29 L 396.76 290.56 L 400.54 289.96 L 404.32 289.48 L 408.11 288.98 L 411.89 288.50 L 415.68 287.91 L 419.46 287.30 L 423.24 285.97 L 427.03 283.30 L 430.81 280.13 L 434.59 277.24 L 438.38 275.78 L 442.16 273.57 L 445.95 272.10 L 449.73 270.81 L 453.51 269.56 L 457.30 268.37 L 461.08 266.53 L 464.86 265.06 L 468.65 263.19 L 472.43 262.81 L 476.22 262.76 L 480.00 262.69 L 483.78 262.64 L 487.57 262.57 L 491.35 262.50 L 495.14 262.48 L 498.92 262.39 L 502.70 262.30 L 506.49 262.24 L 510.27 262.22 L 514.05 262.12 L 517.84 259.72 L 521.62 255.95 L 525.41 253.43 L 529.19 250.50 L 532.97 247.49 L 536.76 245.12 L 540.54 242.47 L 544.32 238.44 L 548.11 233.00 L 551.89 229.45 L 555.68 225.23 L 559.46 220.53 L 563.24 216.75 L 567.03 212.66 L 570.81 209.03 L 574.59 205.43 L 578.38 201.84 L 582.16 196.95 L 585.95 192.05 L 589.73 187.96 L 593.51 184.54 L 597.30 181.21 L 601.08 176.80 L 604.86 173.38 L 608.65 170.00 L 612.43 166.83 L 616.22 163.85 L 620.00 160.80 L 623.78 158.19 L 627.57 155.49 L 631.35 152.72 L 635.14 149.81 L 638.92 147.13 L 642.70 144.68 L 646.49 140.23 L 650.27 136.52 L 654.05 132.95 L 657.84 129.52 L 661.62 124.10 L 665.41 120.67 L 669.19 117.71 L 672.97 114.20 L 676.76 109.04 L 680.54 105.32 L 684.32 102.19 L 688.11 99.53 L 691.89 97.01 L 695.68 94.97 L 699.46 92.66 L 703.24 90.78 L 707.03 88.56 L 710.81 85.37 L 714.59 82.63 L 718.38 80.24 L 722.16 78.18 L 725.95 76.05 L 729.73 74.26 L 733.51 71.24 L 737.30 68.66 L 741.08 66.11 L 744.86 64.00 L 748.65 62.06 L 752.43 60.34 L 756.22 57.39 L 760.00 55.00" fill="none" stroke="#3b82f6" stroke-width="3"
        stroke-linecap="round" stroke-linejoin="round" filter="url(#glow)" class="line-path"/>

  <!-- Data points -->
  
    <circle cx="60" cy="340" r="4" fill="#3b82f6" stroke="#0d1117" stroke-width="2" class="data-point"/>
  
    <circle cx="63.78378378378378" cy="339.7562968995405" r="4" fill="#3b82f6" stroke="#0d1117" stroke-width="2" class="data-point"/>
  
    <circle cx="67.56756756756756" cy="339.34183584433714" r="4" fill="#3b82f6" stroke="#0d1117" stroke-width="2" class="data-point"/>
  
    <circle cx="71.35135135135135" cy="338.95721598510846" r="4" fill="#3b82f6" stroke="#0d1117" stroke-width="2" class="data-point"/>
  
    <circle cx="75.13513513513513" cy="338.19294979931357" r="4" fill="#3b82f6" stroke="#0d1117" stroke-width="2" class="data-point"/>
  
    <circle cx="78.91891891891892" cy="337.4038159502065" r="4" fill="#3b82f6" stroke="#0d1117" stroke-width="2" class="data-point"/>
  
    <circle cx="82.70270270270271" cy="336.78212436740154" r="4" fill="#3b82f6" stroke="#0d1117" stroke-width="2" class="data-point"/>
  
    <circle cx="86.48648648648648" cy="336.2018788901169" r="4" fill="#3b82f6" stroke="#0d1117" stroke-width="2" class="data-point"/>
  
    <circle cx="90.27027027027027" cy="335.686289337444" r="4" fill="#3b82f6" stroke="#0d1117" stroke-width="2" class="data-point"/>
  
    <circle cx="94.05405405405406" cy="335.0811761968472" r="4" fill="#3b82f6" stroke="#0d1117" stroke-width="2" class="data-point"/>
  
    <circle cx="97.83783783783784" cy="334.4064335989762" r="4" fill="#3b82f6" stroke="#0d1117" stroke-width="2" class="data-point"/>
  
    <circle cx="101.62162162162161" cy="333.68361351870163" r="4" fill="#3b82f6" stroke="#0d1117" stroke-width="2" class="data-point"/>
  
    <circle cx="105.40540540540542" cy="333.02710720725963" r="4" fill="#3b82f6" stroke="#0d1117" stroke-width="2" class="data-point"/>
  
    <circle cx="109.1891891891892" cy="332.32915479029725" r="4" fill="#3b82f6" stroke="#0d1117" stroke-width="2" class="data-point"/>
  
    <circle cx="112.97297297297297" cy="331.8201966145076" r="4" fill="#3b82f6" stroke="#0d1117" stroke-width="2" class="data-point"/>
  
    <circle cx="116.75675675675676" cy="331.293002152289" r="4" fill="#3b82f6" stroke="#0d1117" stroke-width="2" class="data-point"/>
  
    <circle cx="120.54054054054055" cy="330.57681344889767" r="4" fill="#3b82f6" stroke="#0d1117" stroke-width="2" class="data-point"/>
  
    <circle cx="124.32432432432432" cy="330.0976964690827" r="4" fill="#3b82f6" stroke="#0d1117" stroke-width="2" class="data-point"/>
  
    <circle cx="128.10810810810813" cy="329.43455878075736" r="4" fill="#3b82f6" stroke="#0d1117" stroke-width="2" class="data-point"/>
  
    <circle cx="131.8918918918919" cy="328.66863475074166" r="4" fill="#3b82f6" stroke="#0d1117" stroke-width="2" class="data-point"/>
  
    <circle cx="135.67567567567568" cy="328.09170496189864" r="4" fill="#3b82f6" stroke="#0d1117" stroke-width="2" class="data-point"/>
  
    <circle cx="139.45945945945948" cy="327.6175615147461" r="4" fill="#3b82f6" stroke="#0d1117" stroke-width="2" class="data-point"/>
  
    <circle cx="143.24324324324323" cy="327.3108603338956" r="4" fill="#3b82f6" stroke="#0d1117" stroke-width="2" class="data-point"/>
  
    <circle cx="147.02702702702703" cy="327.0555523238904" r="4" fill="#3b82f6" stroke="#0d1117" stroke-width="2" class="data-point"/>
  
    <circle cx="150.81081081081084" cy="326.58306672095864" r="4" fill="#3b82f6" stroke="#0d1117" stroke-width="2" class="data-point"/>
  
    <circle cx="154.59459459459458" cy="326.24652434413355" r="4" fill="#3b82f6" stroke="#0d1117" stroke-width="2" class="data-point"/>
  
    <circle cx="158.3783783783784" cy="325.5087836658717" r="4" fill="#3b82f6" stroke="#0d1117" stroke-width="2" class="data-point"/>
  
    <circle cx="162.16216216216216" cy="325.2186609272294" r="4" fill="#3b82f6" stroke="#0d1117" stroke-width="2" class="data-point"/>
  
    <circle cx="165.94594594594594" cy="324.8439881333256" r="4" fill="#3b82f6" stroke="#0d1117" stroke-width="2" class="data-point"/>
  
    <circle cx="169.72972972972974" cy="324.35989762084813" r="4" fill="#3b82f6" stroke="#0d1117" stroke-width="2" class="data-point"/>
  
    <circle cx="173.51351351351352" cy="324.0283287766855" r="4" fill="#3b82f6" stroke="#0d1117" stroke-width="2" class="data-point"/>
  
    <circle cx="177.2972972972973" cy="323.6917863998604" r="4" fill="#3b82f6" stroke="#0d1117" stroke-width="2" class="data-point"/>
  
    <circle cx="181.0810810810811" cy="323.3386655808272" r="4" fill="#3b82f6" stroke="#0d1117" stroke-width="2" class="data-point"/>
  
    <circle cx="184.86486486486487" cy="323.0933046361468" r="4" fill="#3b82f6" stroke="#0d1117" stroke-width="2" class="data-point"/>
  
    <circle cx="188.64864864864865" cy="322.8811005758827" r="4" fill="#3b82f6" stroke="#0d1117" stroke-width="2" class="data-point"/>
  
    <circle cx="192.43243243243245" cy="322.55782095282416" r="4" fill="#3b82f6" stroke="#0d1117" stroke-width="2" class="data-point"/>
  
    <circle cx="196.21621621621622" cy="322.1649118724914" r="4" fill="#3b82f6" stroke="#0d1117" stroke-width="2" class="data-point"/>
  
    <circle cx="200" cy="321.80350183235413" r="4" fill="#3b82f6" stroke="#0d1117" stroke-width="2" class="data-point"/>
  
    <circle cx="203.7837837837838" cy="321.3459368274097" r="4" fill="#3b82f6" stroke="#0d1117" stroke-width="2" class="data-point"/>
  
    <circle cx="207.56756756756758" cy="320.8469257169449" r="4" fill="#3b82f6" stroke="#0d1117" stroke-width="2" class="data-point"/>
  
    <circle cx="211.35135135135135" cy="320.38936071200044" r="4" fill="#3b82f6" stroke="#0d1117" stroke-width="2" class="data-point"/>
  
    <circle cx="215.13513513513513" cy="319.8372985864697" r="4" fill="#3b82f6" stroke="#0d1117" stroke-width="2" class="data-point"/>
  
    <circle cx="218.91891891891893" cy="319.2951835262637" r="4" fill="#3b82f6" stroke="#0d1117" stroke-width="2" class="data-point"/>
  
    <circle cx="222.7027027027027" cy="318.7530684660578" r="4" fill="#3b82f6" stroke="#0d1117" stroke-width="2" class="data-point"/>
  
    <circle cx="226.48648648648648" cy="318.15956023500667" r="4" fill="#3b82f6" stroke="#0d1117" stroke-width="2" class="data-point"/>
  
    <circle cx="230.2702702702703" cy="317.59257751148857" r="4" fill="#3b82f6" stroke="#0d1117" stroke-width="2" class="data-point"/>
  
    <circle cx="234.05405405405406" cy="316.9443604211506" r="4" fill="#3b82f6" stroke="#0d1117" stroke-width="2" class="data-point"/>
  
    <circle cx="237.83783783783784" cy="316.3657727880868" r="4" fill="#3b82f6" stroke="#0d1117" stroke-width="2" class="data-point"/>
  
    <circle cx="241.62162162162164" cy="315.8767087429469" r="4" fill="#3b82f6" stroke="#0d1117" stroke-width="2" class="data-point"/>
  
    <circle cx="245.40540540540542" cy="315.48545750683496" r="4" fill="#3b82f6" stroke="#0d1117" stroke-width="2" class="data-point"/>
  
    <circle cx="249.1891891891892" cy="314.9383689139666" r="4" fill="#3b82f6" stroke="#0d1117" stroke-width="2" class="data-point"/>
  
    <circle cx="252.972972972973" cy="314.31336164272005" r="4" fill="#3b82f6" stroke="#0d1117" stroke-width="2" class="data-point"/>
  
    <circle cx="256.7567567567568" cy="313.74140538653944" r="4" fill="#3b82f6" stroke="#0d1117" stroke-width="2" class="data-point"/>
  
    <circle cx="260.5405405405405" cy="313.0732941655517" r="4" fill="#3b82f6" stroke="#0d1117" stroke-width="2" class="data-point"/>
  
    <circle cx="264.3243243243243" cy="312.24934558780757" r="4" fill="#3b82f6" stroke="#0d1117" stroke-width="2" class="data-point"/>
  
    <circle cx="268.1081081081081" cy="311.6359432261067" r="4" fill="#3b82f6" stroke="#0d1117" stroke-width="2" class="data-point"/>
  
    <circle cx="271.8918918918919" cy="311.12698505031705" r="4" fill="#3b82f6" stroke="#0d1117" stroke-width="2" class="data-point"/>
  
    <circle cx="275.6756756756757" cy="310.64289453783954" r="4" fill="#3b82f6" stroke="#0d1117" stroke-width="2" class="data-point"/>
  
    <circle cx="279.4594594594595" cy="310.0609912163341" r="4" fill="#3b82f6" stroke="#0d1117" stroke-width="2" class="data-point"/>
  
    <circle cx="283.2432432432432" cy="309.3845907742423" r="4" fill="#3b82f6" stroke="#0d1117" stroke-width="2" class="data-point"/>
  
    <circle cx="287.02702702702703" cy="308.63524518643476" r="4" fill="#3b82f6" stroke="#0d1117" stroke-width="2" class="data-point"/>
  
    <circle cx="290.81081081081084" cy="307.8477691815485" r="4" fill="#3b82f6" stroke="#0d1117" stroke-width="2" class="data-point"/>
  
    <circle cx="294.5945945945946" cy="307.09179221685764" r="4" fill="#3b82f6" stroke="#0d1117" stroke-width="2" class="data-point"/>
  
    <circle cx="298.3783783783784" cy="306.4269966843116" r="4" fill="#3b82f6" stroke="#0d1117" stroke-width="2" class="data-point"/>
  
    <circle cx="302.1621621621622" cy="305.7671746844279" r="4" fill="#3b82f6" stroke="#0d1117" stroke-width="2" class="data-point"/>
  
    <circle cx="305.94594594594594" cy="305.18527136292244" r="4" fill="#3b82f6" stroke="#0d1117" stroke-width="2" class="data-point"/>
  
    <circle cx="309.72972972972974" cy="304.59176313187135" r="4" fill="#3b82f6" stroke="#0d1117" stroke-width="2" class="data-point"/>
  
    <circle cx="313.51351351351354" cy="303.928625443546" r="4" fill="#3b82f6" stroke="#0d1117" stroke-width="2" class="data-point"/>
  
    <circle cx="317.2972972972973" cy="303.1030190215811" r="4" fill="#3b82f6" stroke="#0d1117" stroke-width="2" class="data-point"/>
  
    <circle cx="321.0810810810811" cy="302.48795881565934" r="4" fill="#3b82f6" stroke="#0d1117" stroke-width="2" class="data-point"/>
  
    <circle cx="324.8648648648649" cy="301.9375545343494" r="4" fill="#3b82f6" stroke="#0d1117" stroke-width="2" class="data-point"/>
  
    <circle cx="328.64864864864865" cy="301.3258100168693" r="4" fill="#3b82f6" stroke="#0d1117" stroke-width="2" class="data-point"/>
  
    <circle cx="332.43243243243245" cy="300.75551160490954" r="4" fill="#3b82f6" stroke="#0d1117" stroke-width="2" class="data-point"/>
  
    <circle cx="336.21621621621625" cy="300.12884648944214" r="4" fill="#3b82f6" stroke="#0d1117" stroke-width="2" class="data-point"/>
  
    <circle cx="340" cy="299.47565586644174" r="4" fill="#3b82f6" stroke="#0d1117" stroke-width="2" class="data-point"/>
  
    <circle cx="343.7837837837838" cy="298.7926240474667" r="4" fill="#3b82f6" stroke="#0d1117" stroke-width="2" class="data-point"/>
  
    <circle cx="347.5675675675676" cy="298.19414228375314" r="4" fill="#3b82f6" stroke="#0d1117" stroke-width="2" class="data-point"/>
  
    <circle cx="351.35135135135135" cy="297.68186841952183" r="4" fill="#3b82f6" stroke="#0d1117" stroke-width="2" class="data-point"/>
  
    <circle cx="355.13513513513516" cy="297.11985922866614" r="4" fill="#3b82f6" stroke="#0d1117" stroke-width="2" class="data-point"/>
  
    <circle cx="358.91891891891896" cy="296.5114303996277" r="4" fill="#3b82f6" stroke="#0d1117" stroke-width="2" class="data-point"/>
  
    <circle cx="362.7027027027027" cy="295.94776336455124" r="4" fill="#3b82f6" stroke="#0d1117" stroke-width="2" class="data-point"/>
  
    <circle cx="366.4864864864865" cy="295.21333837473094" r="4" fill="#3b82f6" stroke="#0d1117" stroke-width="2" class="data-point"/>
  
    <circle cx="370.27027027027026" cy="294.58169972660113" r="4" fill="#3b82f6" stroke="#0d1117" stroke-width="2" class="data-point"/>
  
    <circle cx="374.05405405405406" cy="293.97327089756266" r="4" fill="#3b82f6" stroke="#0d1117" stroke-width="2" class="data-point"/>
  
    <circle cx="377.83783783783787" cy="293.4676284102147" r="4" fill="#3b82f6" stroke="#0d1117" stroke-width="2" class="data-point"/>
  
    <circle cx="381.6216216216216" cy="292.97690652085396" r="4" fill="#3b82f6" stroke="#0d1117" stroke-width="2" class="data-point"/>
  
    <circle cx="385.4054054054054" cy="292.4845267872724" r="4" fill="#3b82f6" stroke="#0d1117" stroke-width="2" class="data-point"/>
  
    <circle cx="389.1891891891892" cy="291.8959920888837" r="4" fill="#3b82f6" stroke="#0d1117" stroke-width="2" class="data-point"/>
  
    <circle cx="392.97297297297297" cy="291.2908789482869" r="4" fill="#3b82f6" stroke="#0d1117" stroke-width="2" class="data-point"/>
  
    <circle cx="396.7567567567568" cy="290.55645395846665" r="4" fill="#3b82f6" stroke="#0d1117" stroke-width="2" class="data-point"/>
  
    <circle cx="400.5405405405406" cy="289.9612878831947" r="4" fill="#3b82f6" stroke="#0d1117" stroke-width="2" class="data-point"/>
  
    <circle cx="404.3243243243243" cy="289.4755395264964" r="4" fill="#3b82f6" stroke="#0d1117" stroke-width="2" class="data-point"/>
  
    <circle cx="408.1081081081081" cy="288.97652841603167" r="4" fill="#3b82f6" stroke="#0d1117" stroke-width="2" class="data-point"/>
  
    <circle cx="411.8918918918919" cy="288.4990692804374" r="4" fill="#3b82f6" stroke="#0d1117" stroke-width="2" class="data-point"/>
  
    <circle cx="415.6756756756757" cy="287.90887673782794" r="4" fill="#3b82f6" stroke="#0d1117" stroke-width="2" class="data-point"/>
  
    <circle cx="419.4594594594594" cy="287.3037635972311" r="4" fill="#3b82f6" stroke="#0d1117" stroke-width="2" class="data-point"/>
  
    <circle cx="423.2432432432433" cy="285.9658833110349" r="4" fill="#3b82f6" stroke="#0d1117" stroke-width="2" class="data-point"/>
  
    <circle cx="427.02702702702703" cy="283.30338549240884" r="4" fill="#3b82f6" stroke="#0d1117" stroke-width="2" class="data-point"/>
  
    <circle cx="430.81081081081084" cy="280.13192949799316" r="4" fill="#3b82f6" stroke="#0d1117" stroke-width="2" class="data-point"/>
  
    <circle cx="434.5945945945946" cy="277.2423070211157" r="4" fill="#3b82f6" stroke="#0d1117" stroke-width="2" class="data-point"/>
  
    <circle cx="438.3783783783784" cy="275.77677272991684" r="4" fill="#3b82f6" stroke="#0d1117" stroke-width="2" class="data-point"/>
  
    <circle cx="442.16216216216213" cy="273.5685242277936" r="4" fill="#3b82f6" stroke="#0d1117" stroke-width="2" class="data-point"/>
  
    <circle cx="445.945945945946" cy="272.1013320923739" r="4" fill="#3b82f6" stroke="#0d1117" stroke-width="2" class="data-point"/>
  
    <circle cx="449.72972972972974" cy="270.81484497702286" r="4" fill="#3b82f6" stroke="#0d1117" stroke-width="2" class="data-point"/>
  
    <circle cx="453.51351351351354" cy="269.55654121342565" r="4" fill="#3b82f6" stroke="#0d1117" stroke-width="2" class="data-point"/>
  
    <circle cx="457.2972972972973" cy="268.37118259554416" r="4" fill="#3b82f6" stroke="#0d1117" stroke-width="2" class="data-point"/>
  
    <circle cx="461.0810810810811" cy="266.52765982199986" r="4" fill="#3b82f6" stroke="#0d1117" stroke-width="2" class="data-point"/>
  
    <circle cx="464.86486486486484" cy="265.062125530801" r="4" fill="#3b82f6" stroke="#0d1117" stroke-width="2" class="data-point"/>
  
    <circle cx="468.64864864864865" cy="263.18876156128204" r="4" fill="#3b82f6" stroke="#0d1117" stroke-width="2" class="data-point"/>
  
    <circle cx="472.4324324324324" cy="262.8057995462742" r="4" fill="#3b82f6" stroke="#0d1117" stroke-width="2" class="data-point"/>
  
    <circle cx="476.21621621621625" cy="262.75606421964983" r="4" fill="#3b82f6" stroke="#0d1117" stroke-width="2" class="data-point"/>
  
    <circle cx="480" cy="262.6914082950381" r="4" fill="#3b82f6" stroke="#0d1117" stroke-width="2" class="data-point"/>
  
    <circle cx="483.7837837837838" cy="262.63669943575127" r="4" fill="#3b82f6" stroke="#0d1117" stroke-width="2" class="data-point"/>
  
    <circle cx="487.56756756756755" cy="262.5654121342563" r="4" fill="#3b82f6" stroke="#0d1117" stroke-width="2" class="data-point"/>
  
    <circle cx="491.35135135135135" cy="262.50241405386544" r="4" fill="#3b82f6" stroke="#0d1117" stroke-width="2" class="data-point"/>
  
    <circle cx="495.1351351351351" cy="262.4775463905532" r="4" fill="#3b82f6" stroke="#0d1117" stroke-width="2" class="data-point"/>
  
    <circle cx="498.91891891891896" cy="262.3863649584085" r="4" fill="#3b82f6" stroke="#0d1117" stroke-width="2" class="data-point"/>
  
    <circle cx="502.7027027027027" cy="262.2984992147054" r="4" fill="#3b82f6" stroke="#0d1117" stroke-width="2" class="data-point"/>
  
    <circle cx="506.4864864864865" cy="262.24047466697687" r="4" fill="#3b82f6" stroke="#0d1117" stroke-width="2" class="data-point"/>
  
    <circle cx="510.27027027027026" cy="262.21892269210633" r="4" fill="#3b82f6" stroke="#0d1117" stroke-width="2" class="data-point"/>
  
    <circle cx="514.0540540540541" cy="262.12110988307836" r="4" fill="#3b82f6" stroke="#0d1117" stroke-width="2" class="data-point"/>
  
    <circle cx="517.8378378378378" cy="259.7172357628992" r="4" fill="#3b82f6" stroke="#0d1117" stroke-width="2" class="data-point"/>
  
    <circle cx="521.6216216216217" cy="255.95227153743238" r="4" fill="#3b82f6" stroke="#0d1117" stroke-width="2" class="data-point"/>
  
    <circle cx="525.4054054054054" cy="253.43069047757547" r="4" fill="#3b82f6" stroke="#0d1117" stroke-width="2" class="data-point"/>
  
    <circle cx="529.1891891891892" cy="250.50293758361934" r="4" fill="#3b82f6" stroke="#0d1117" stroke-width="2" class="data-point"/>
  
    <circle cx="532.9729729729729" cy="247.48566110173928" r="4" fill="#3b82f6" stroke="#0d1117" stroke-width="2" class="data-point"/>
  
    <circle cx="536.7567567567568" cy="245.11825955441802" r="4" fill="#3b82f6" stroke="#0d1117" stroke-width="2" class="data-point"/>
  
    <circle cx="540.5405405405405" cy="242.4706823337793" r="4" fill="#3b82f6" stroke="#0d1117" stroke-width="2" class="data-point"/>
  
    <circle cx="544.3243243243244" cy="238.43714734454073" r="4" fill="#3b82f6" stroke="#0d1117" stroke-width="2" class="data-point"/>
  
    <circle cx="548.1081081081081" cy="233.00107614449422" r="4" fill="#3b82f6" stroke="#0d1117" stroke-width="2" class="data-point"/>
  
    <circle cx="551.8918918918919" cy="229.45328951195393" r="4" fill="#3b82f6" stroke="#0d1117" stroke-width="2" class="data-point"/>
  
    <circle cx="555.6756756756756" cy="225.23076028154267" r="4" fill="#3b82f6" stroke="#0d1117" stroke-width="2" class="data-point"/>
  
    <circle cx="559.4594594594595" cy="220.52579838287477" r="4" fill="#3b82f6" stroke="#0d1117" stroke-width="2" class="data-point"/>
  
    <circle cx="563.2432432432432" cy="216.75254493630388" r="4" fill="#3b82f6" stroke="#0d1117" stroke-width="2" class="data-point"/>
  
    <circle cx="567.0270270270271" cy="212.65766971089522" r="4" fill="#3b82f6" stroke="#0d1117" stroke-width="2" class="data-point"/>
  
    <circle cx="570.8108108108108" cy="209.02533302309348" r="4" fill="#3b82f6" stroke="#0d1117" stroke-width="2" class="data-point"/>
  
    <circle cx="574.5945945945946" cy="205.426153219708" r="4" fill="#3b82f6" stroke="#0d1117" stroke-width="2" class="data-point"/>
  
    <circle cx="578.3783783783783" cy="201.83692048164738" r="4" fill="#3b82f6" stroke="#0d1117" stroke-width="2" class="data-point"/>
  
    <circle cx="582.1621621621622" cy="196.94959571869" r="4" fill="#3b82f6" stroke="#0d1117" stroke-width="2" class="data-point"/>
  
    <circle cx="585.9459459459459" cy="192.04735035774533" r="4" fill="#3b82f6" stroke="#0d1117" stroke-width="2" class="data-point"/>
  
    <circle cx="589.7297297297298" cy="187.96076435344074" r="4" fill="#3b82f6" stroke="#0d1117" stroke-width="2" class="data-point"/>
  
    <circle cx="593.5135135135135" cy="184.53565819324066" r="4" fill="#3b82f6" stroke="#0d1117" stroke-width="2" class="data-point"/>
  
    <circle cx="597.2972972972973" cy="181.21333837473097" r="4" fill="#3b82f6" stroke="#0d1117" stroke-width="2" class="data-point"/>
  
    <circle cx="601.081081081081" cy="176.80347274736783" r="4" fill="#3b82f6" stroke="#0d1117" stroke-width="2" class="data-point"/>
  
    <circle cx="604.8648648648649" cy="173.38334011983014" r="4" fill="#3b82f6" stroke="#0d1117" stroke-width="2" class="data-point"/>
  
    <circle cx="608.6486486486486" cy="169.9996800651504" r="4" fill="#3b82f6" stroke="#0d1117" stroke-width="2" class="data-point"/>
  
    <circle cx="612.4324324324325" cy="166.83485544761794" r="4" fill="#3b82f6" stroke="#0d1117" stroke-width="2" class="data-point"/>
  
    <circle cx="616.2162162162163" cy="163.85405153859577" r="4" fill="#3b82f6" stroke="#0d1117" stroke-width="2" class="data-point"/>
  
    <circle cx="620" cy="160.80030248385782" r="4" fill="#3b82f6" stroke="#0d1117" stroke-width="2" class="data-point"/>
  
    <circle cx="623.7837837837837" cy="158.18919783607703" r="4" fill="#3b82f6" stroke="#0d1117" stroke-width="2" class="data-point"/>
  
    <circle cx="627.5675675675676" cy="155.48525391193064" r="4" fill="#3b82f6" stroke="#0d1117" stroke-width="2" class="data-point"/>
  
    <circle cx="631.3513513513514" cy="152.72494328427666" r="4" fill="#3b82f6" stroke="#0d1117" stroke-width="2" class="data-point"/>
  
    <circle cx="635.1351351351352" cy="149.8071374556454" r="4" fill="#3b82f6" stroke="#0d1117" stroke-width="2" class="data-point"/>
  
    <circle cx="638.918918918919" cy="147.12971903903204" r="4" fill="#3b82f6" stroke="#0d1117" stroke-width="2" class="data-point"/>
  
    <circle cx="642.7027027027027" cy="144.67776743644933" r="4" fill="#3b82f6" stroke="#0d1117" stroke-width="2" class="data-point"/>
  
    <circle cx="646.4864864864865" cy="140.23474492466988" r="4" fill="#3b82f6" stroke="#0d1117" stroke-width="2" class="data-point"/>
  
    <circle cx="650.2702702702703" cy="136.51620033738584" r="4" fill="#3b82f6" stroke="#0d1117" stroke-width="2" class="data-point"/>
  
    <circle cx="654.0540540540541" cy="132.94520388575418" r="4" fill="#3b82f6" stroke="#0d1117" stroke-width="2" class="data-point"/>
  
    <circle cx="657.8378378378379" cy="129.51512419289162" r="4" fill="#3b82f6" stroke="#0d1117" stroke-width="2" class="data-point"/>
  
    <circle cx="661.6216216216217" cy="124.09894712349487" r="4" fill="#3b82f6" stroke="#0d1117" stroke-width="2" class="data-point"/>
  
    <circle cx="665.4054054054054" cy="120.67218311907394" r="4" fill="#3b82f6" stroke="#0d1117" stroke-width="2" class="data-point"/>
  
    <circle cx="669.1891891891892" cy="117.70629980803909" r="4" fill="#3b82f6" stroke="#0d1117" stroke-width="2" class="data-point"/>
  
    <circle cx="672.972972972973" cy="114.20327496946078" r="4" fill="#3b82f6" stroke="#0d1117" stroke-width="2" class="data-point"/>
  
    <circle cx="676.7567567567568" cy="109.03909022162759" r="4" fill="#3b82f6" stroke="#0d1117" stroke-width="2" class="data-point"/>
  
    <circle cx="680.5405405405405" cy="105.32386132278518" r="4" fill="#3b82f6" stroke="#0d1117" stroke-width="2" class="data-point"/>
  
    <circle cx="684.3243243243243" cy="102.18722005700658" r="4" fill="#3b82f6" stroke="#0d1117" stroke-width="2" class="data-point"/>
  
    <circle cx="688.1081081081081" cy="99.53301145948461" r="4" fill="#3b82f6" stroke="#0d1117" stroke-width="2" class="data-point"/>
  
    <circle cx="691.8918918918919" cy="97.01474608806936" r="4" fill="#3b82f6" stroke="#0d1117" stroke-width="2" class="data-point"/>
  
    <circle cx="695.6756756756757" cy="94.967308475365" r="4" fill="#3b82f6" stroke="#0d1117" stroke-width="2" class="data-point"/>
  
    <circle cx="699.4594594594595" cy="92.66124716421382" r="4" fill="#3b82f6" stroke="#0d1117" stroke-width="2" class="data-point"/>
  
    <circle cx="703.2432432432432" cy="90.78125181781164" r="4" fill="#3b82f6" stroke="#0d1117" stroke-width="2" class="data-point"/>
  
    <circle cx="707.027027027027" cy="88.56305625036356" r="4" fill="#3b82f6" stroke="#0d1117" stroke-width="2" class="data-point"/>
  
    <circle cx="710.8108108108108" cy="85.37004828107732" r="4" fill="#3b82f6" stroke="#0d1117" stroke-width="2" class="data-point"/>
  
    <circle cx="714.5945945945946" cy="82.62631609563141" r="4" fill="#3b82f6" stroke="#0d1117" stroke-width="2" class="data-point"/>
  
    <circle cx="718.3783783783784" cy="80.24067826188121" r="4" fill="#3b82f6" stroke="#0d1117" stroke-width="2" class="data-point"/>
  
    <circle cx="722.1621621621622" cy="78.17832005118959" r="4" fill="#3b82f6" stroke="#0d1117" stroke-width="2" class="data-point"/>
  
    <circle cx="725.9459459459459" cy="76.05130591588619" r="4" fill="#3b82f6" stroke="#0d1117" stroke-width="2" class="data-point"/>
  
    <circle cx="729.7297297297297" cy="74.25751846896634" r="4" fill="#3b82f6" stroke="#0d1117" stroke-width="2" class="data-point"/>
  
    <circle cx="733.5135135135135" cy="71.24189983130708" r="4" fill="#3b82f6" stroke="#0d1117" stroke-width="2" class="data-point"/>
  
    <circle cx="737.2972972972973" cy="68.66395206794255" r="4" fill="#3b82f6" stroke="#0d1117" stroke-width="2" class="data-point"/>
  
    <circle cx="741.0810810810812" cy="66.10755627944854" r="4" fill="#3b82f6" stroke="#0d1117" stroke-width="2" class="data-point"/>
  
    <circle cx="744.8648648648649" cy="63.99712058635333" r="4" fill="#3b82f6" stroke="#0d1117" stroke-width="2" class="data-point"/>
  
    <circle cx="748.6486486486486" cy="62.06075853644347" r="4" fill="#3b82f6" stroke="#0d1117" stroke-width="2" class="data-point"/>
  
    <circle cx="752.4324324324324" cy="60.3415740794602" r="4" fill="#3b82f6" stroke="#0d1117" stroke-width="2" class="data-point"/>
  
    <circle cx="756.2162162162163" cy="57.39392705485426" r="4" fill="#3b82f6" stroke="#0d1117" stroke-width="2" class="data-point"/>
  
    <circle cx="760" cy="55" r="4" fill="#3b82f6" stroke="#0d1117" stroke-width="2" class="data-point"/>
  

  <!-- Axis lines -->
  <line x1="60" y1="55" x2="60" y2="340"
        stroke="#30363d" stroke-width="2"/>
  <line x1="60" y1="340" x2="760" y2="340"
        stroke="#30363d" stroke-width="2"/>
</svg>