<?xml version="1.0" encoding="UTF-8"?>
<svg width="800" height="400" xmlns="http://www.w3.org/2000/svg">
  <defs>
    <!-- Gradient for area fill -->
    <linearGradient id="areaGradient" x1="0%" y1="0%" x2="0%" y2="100%">
      <stop offset="0%" style="stop-color:#3b82f6;stop-opacity:0.3" />
      <stop offset="100%" style="stop-color:#3b82f6;stop-opacity:0.05" />
    </linearGradient>

    <!-- Glow filter for line -->
    <filter id="glow">
      <feGaussianBlur stdDeviation="2" result="coloredBlur"/>
      <feMerge>
        <feMergeNode in="coloredBlur"/>
        <feMergeNode in="SourceGraphic"/>
      </feMerge>
    </filter>

    <!-- Animation -->
    <style>
      @keyframes draw {
        from { stroke-dashoffset: 2000; }
        to { stroke-dashoffset: 0; }
      }
      @keyframes fadeIn {
        from { opacity: 0; }
        to { opacity: 1; }
      }
      .line-path {
        stroke-dasharray: 2000;
        stroke-dashoffset: 2000;
        animation: draw 1.5s ease-out forwards;
      }
      .area-path {
        opacity: 0;
        animation: fadeIn 1s ease-out 0.5s forwards;
      }
      .data-point {
        opacity: 0;
        animation: fadeIn 0.5s ease-out 1s forwards;
      }
    </style>
  </defs>

  <!-- Background -->
  <rect width="800" height="400" fill="#0d1117" rx="8"/>

  <!-- Title -->
  <text x="400" y="25" text-anchor="middle" fill="#c9d1d9" font-family="system-ui, -apple-system, sans-serif" font-size="16" font-weight="600">
    zxcloli666/SoundCloud-Desktop Downloads
  </text>

  <!-- Stats -->
  <text x="780" y="25" text-anchor="end" fill="#58a6ff" font-family="system-ui, -apple-system, sans-serif" font-size="14" font-weight="600">
    160.7K total
  </text>
  <text x="780" y="42" text-anchor="end" fill="#3fb950" font-family="system-ui, -apple-system, sans-serif" font-size="12">
    +2.1K (+1.3%)
  </text>

  <!-- Grid lines -->
  <g opacity="0.1">
    
      <line x1="60" y1="340" x2="760" y2="340"
            stroke="#c9d1d9" stroke-width="1"/>
    
      <line x1="60" y1="268.75" x2="760" y2="268.75"
            stroke="#c9d1d9" stroke-width="1"/>
    
      <line x1="60" y1="197.5" x2="760" y2="197.5"
            stroke="#c9d1d9" stroke-width="1"/>
    
      <line x1="60" y1="126.25" x2="760" y2="126.25"
            stroke="#c9d1d9" stroke-width="1"/>
    
      <line x1="60" y1="55" x2="760" y2="55"
            stroke="#c9d1d9" stroke-width="1"/>
    
  </g>

  <!-- Y-axis labels -->
  
    <text x="50" y="344" text-anchor="end"
          fill="#8b949e" font-family="system-ui, -apple-system, sans-serif" font-size="11">
      60.2K
    </text>
  
    <text x="50" y="272.75" text-anchor="end"
          fill="#8b949e" font-family="system-ui, -apple-system, sans-serif" font-size="11">
      85.3K
    </text>
  
    <text x="50" y="201.5" text-anchor="end"
          fill="#8b949e" font-family="system-ui, -apple-system, sans-serif" font-size="11">
      110.4K
    </text>
  
    <text x="50" y="130.25" text-anchor="end"
          fill="#8b949e" font-family="system-ui, -apple-system, sans-serif" font-size="11">
      135.5K
    </text>
  
    <text x="50" y="59" text-anchor="end"
          fill="#8b949e" font-family="system-ui, -apple-system, sans-serif" font-size="11">
      160.7K
    </text>
  

  <!-- X-axis labels -->
  
    <text x="60" y="360" text-anchor="middle"
          fill="#8b949e" font-family="system-ui, -apple-system, sans-serif" font-size="11">
      Nov 25
    </text>
  
    <text x="147.5" y="360" text-anchor="middle"
          fill="#8b949e" font-family="system-ui, -apple-system, sans-serif" font-size="11">
      Dec 13
    </text>
  
    <text x="235" y="360" text-anchor="middle"
          fill="#8b949e" font-family="system-ui, -apple-system, sans-serif" font-size="11">
      Dec 31
    </text>
  
    <text x="322.5" y="360" text-anchor="middle"
          fill="#8b949e" font-family="system-ui, -apple-system, sans-serif" font-size="11">
      Jan 18
    </text>
  
    <text x="410" y="360" text-anchor="middle"
          fill="#8b949e" font-family="system-ui, -apple-system, sans-serif" font-size="11">
      Feb 5
    </text>
  
    <text x="497.5" y="360" text-anchor="middle"
          fill="#8b949e" font-family="system-ui, -apple-system, sans-serif" font-size="11">
      Feb 23
    </text>
  
    <text x="585" y="360" text-anchor="middle"
          fill="#8b949e" font-family="system-ui, -apple-system, sans-serif" font-size="11">
      Mar 13
    </text>
  
    <text x="672.5" y="360" text-anchor="middle"
          fill="#8b949e" font-family="system-ui, -apple-system, sans-serif" font-size="11">
      Mar 31
    </text>
  
    <text x="760" y="360" text-anchor="middle"
          fill="#8b949e" font-family="system-ui, -apple-system, sans-serif" font-size="11">
      Apr 18
    </text>
  

  <!-- Area under line -->
  <path d="M 60 340
    L 60.00 340.00 L 64.86 339.58 L 69.72 338.87 L 74.58 338.22 L 79.44 336.91 L 84.31 335.56 L 89.17 334.50 L 94.03 333.50 L 98.89 332.62 L 103.75 331.59 L 108.61 330.43 L 113.47 329.20 L 118.33 328.07 L 123.19 326.88 L 128.06 326.01 L 132.92 325.11 L 137.78 323.88 L 142.64 323.06 L 147.50 321.93 L 152.36 320.62 L 157.22 319.63 L 162.08 318.82 L 166.94 318.30 L 171.81 317.86 L 176.67 317.05 L 181.53 316.47 L 186.39 315.21 L 191.25 314.72 L 196.11 314.08 L 200.97 313.25 L 205.83 312.68 L 210.69 312.10 L 215.56 311.50 L 220.42 311.08 L 225.28 310.72 L 230.14 310.16 L 235.00 309.49 L 239.86 308.87 L 244.72 308.09 L 249.58 307.24 L 254.44 306.46 L 259.31 305.51 L 264.17 304.58 L 269.03 303.66 L 273.89 302.64 L 278.75 301.67 L 283.61 300.56 L 288.47 299.57 L 293.33 298.74 L 298.19 298.07 L 303.06 297.13 L 307.92 296.06 L 312.78 295.08 L 317.64 293.94 L 322.50 292.53 L 327.36 291.48 L 332.22 290.61 L 337.08 289.78 L 341.94 288.79 L 346.81 287.63 L 351.67 286.35 L 356.53 285.00 L 361.39 283.71 L 366.25 282.57 L 371.11 281.44 L 375.97 280.45 L 380.83 279.43 L 385.69 278.30 L 390.56 276.89 L 395.42 275.84 L 400.28 274.89 L 405.14 273.85 L 410.00 272.87 L 414.86 271.80 L 419.72 270.68 L 424.58 269.51 L 429.44 268.49 L 434.31 267.61 L 439.17 266.65 L 444.03 265.61 L 448.89 264.65 L 453.75 263.39 L 458.61 262.31 L 463.47 261.27 L 468.33 260.41 L 473.19 259.57 L 478.06 258.72 L 482.92 257.72 L 487.78 256.68 L 492.64 255.43 L 497.50 254.41 L 502.36 253.58 L 507.22 252.72 L 512.08 251.91 L 516.94 250.90 L 521.81 249.86 L 526.67 247.57 L 531.53 243.02 L 536.39 237.59 L 541.25 232.65 L 546.11 230.15 L 550.97 226.37 L 555.83 223.86 L 560.69 221.66 L 565.56 219.51 L 570.42 217.48 L 575.28 214.32 L 580.14 211.82 L 585.00 208.61 L 589.86 207.96 L 594.72 207.87 L 599.58 207.76 L 604.44 207.67 L 609.31 207.55 L 614.17 207.44 L 619.03 207.40 L 623.89 207.24 L 628.75 207.09 L 633.61 206.99 L 638.47 206.95 L 643.33 206.79 L 648.19 202.68 L 653.06 196.24 L 657.92 191.92 L 662.78 186.91 L 667.64 181.75 L 672.50 177.70 L 677.36 173.17 L 682.22 166.28 L 687.08 156.98 L 691.94 150.91 L 696.81 143.69 L 701.67 135.64 L 706.53 129.18 L 711.39 122.18 L 716.25 115.97 L 721.11 109.81 L 725.97 103.67 L 730.83 95.31 L 735.69 86.93 L 740.56 79.93 L 745.42 74.08 L 750.28 68.39 L 755.14 60.85 L 760.00 55.00
    L 760 340
    Z" fill="url(#areaGradient)" class="area-path"/>

  <!-- Main line with glow -->
  <path d="M 60.00 340.00 L 64.86 339.58 L 69.72 338.87 L 74.58 338.22 L 79.44 336.91 L 84.31 335.56 L 89.17 334.50 L 94.03 333.50 L 98.89 332.62 L 103.75 331.59 L 108.61 330.43 L 113.47 329.20 L 118.33 328.07 L 123.19 326.88 L 128.06 326.01 L 132.92 325.11 L 137.78 323.88 L 142.64 323.06 L 147.50 321.93 L 152.36 320.62 L 157.22 319.63 L 162.08 318.82 L 166.94 318.30 L 171.81 317.86 L 176.67 317.05 L 181.53 316.47 L 186.39 315.21 L 191.25 314.72 L 196.11 314.08 L 200.97 313.25 L 205.83 312.68 L 210.69 312.10 L 215.56 311.50 L 220.42 311.08 L 225.28 310.72 L 230.14 310.16 L 235.00 309.49 L 239.86 308.87 L 244.72 308.09 L 249.58 307.24 L 254.44 306.46 L 259.31 305.51 L 264.17 304.58 L 269.03 303.66 L 273.89 302.64 L 278.75 301.67 L 283.61 300.56 L 288.47 299.57 L 293.33 298.74 L 298.19 298.07 L 303.06 297.13 L 307.92 296.06 L 312.78 295.08 L 317.64 293.94 L 322.50 292.53 L 327.36 291.48 L 332.22 290.61 L 337.08 289.78 L 341.94 288.79 L 346.81 287.63 L 351.67 286.35 L 356.53 285.00 L 361.39 283.71 L 366.25 282.57 L 371.11 281.44 L 375.97 280.45 L 380.83 279.43 L 385.69 278.30 L 390.56 276.89 L 395.42 275.84 L 400.28 274.89 L 405.14 273.85 L 410.00 272.87 L 414.86 271.80 L 419.72 270.68 L 424.58 269.51 L 429.44 268.49 L 434.31 267.61 L 439.17 266.65 L 444.03 265.61 L 448.89 264.65 L 453.75 263.39 L 458.61 262.31 L 463.47 261.27 L 468.33 260.41 L 473.19 259.57 L 478.06 258.72 L 482.92 257.72 L 487.78 256.68 L 492.64 255.43 L 497.50 254.41 L 502.36 253.58 L 507.22 252.72 L 512.08 251.91 L 516.94 250.90 L 521.81 249.86 L 526.67 247.57 L 531.53 243.02 L 536.39 237.59 L 541.25 232.65 L 546.11 230.15 L 550.97 226.37 L 555.83 223.86 L 560.69 221.66 L 565.56 219.51 L 570.42 217.48 L 575.28 214.32 L 580.14 211.82 L 585.00 208.61 L 589.86 207.96 L 594.72 207.87 L 599.58 207.76 L 604.44 207.67 L 609.31 207.55 L 614.17 207.44 L 619.03 207.40 L 623.89 207.24 L 628.75 207.09 L 633.61 206.99 L 638.47 206.95 L 643.33 206.79 L 648.19 202.68 L 653.06 196.24 L 657.92 191.92 L 662.78 186.91 L 667.64 181.75 L 672.50 177.70 L 677.36 173.17 L 682.22 166.28 L 687.08 156.98 L 691.94 150.91 L 696.81 143.69 L 701.67 135.64 L 706.53 129.18 L 711.39 122.18 L 716.25 115.97 L 721.11 109.81 L 725.97 103.67 L 730.83 95.31 L 735.69 86.93 L 740.56 79.93 L 745.42 74.08 L 750.28 68.39 L 755.14 60.85 L 760.00 55.00" fill="none" stroke="#3b82f6" stroke-width="3"
        stroke-linecap="round" stroke-linejoin="round" filter="url(#glow)" class="line-path"/>

  <!-- Data points -->
  
    <circle cx="60" cy="340" r="4" fill="#3b82f6" stroke="#0d1117" stroke-width="2" class="data-point"/>
  
    <circle cx="64.86111111111111" cy="339.5831426240274" r="4" fill="#3b82f6" stroke="#0d1117" stroke-width="2" class="data-point"/>
  
    <circle cx="69.72222222222223" cy="338.8742015084277" r="4" fill="#3b82f6" stroke="#0d1117" stroke-width="2" class="data-point"/>
  
    <circle cx="74.58333333333333" cy="338.21630415315116" r="4" fill="#3b82f6" stroke="#0d1117" stroke-width="2" class="data-point"/>
  
    <circle cx="79.44444444444444" cy="336.90901673598535" r="4" fill="#3b82f6" stroke="#0d1117" stroke-width="2" class="data-point"/>
  
    <circle cx="84.30555555555556" cy="335.55919285188355" r="4" fill="#3b82f6" stroke="#0d1117" stroke-width="2" class="data-point"/>
  
    <circle cx="89.16666666666666" cy="334.49578117848404" r="4" fill="#3b82f6" stroke="#0d1117" stroke-width="2" class="data-point"/>
  
    <circle cx="94.02777777777777" cy="333.50326361664446" r="4" fill="#3b82f6" stroke="#0d1117" stroke-width="2" class="data-point"/>
  
    <circle cx="98.88888888888889" cy="332.62134086883844" r="4" fill="#3b82f6" stroke="#0d1117" stroke-width="2" class="data-point"/>
  
    <circle cx="103.75" cy="331.5862868400629" r="4" fill="#3b82f6" stroke="#0d1117" stroke-width="2" class="data-point"/>
  
    <circle cx="108.61111111111111" cy="330.4321307038666" r="4" fill="#3b82f6" stroke="#0d1117" stroke-width="2" class="data-point"/>
  
    <circle cx="113.47222222222223" cy="329.19573739826075" r="4" fill="#3b82f6" stroke="#0d1117" stroke-width="2" class="data-point"/>
  
    <circle cx="118.33333333333333" cy="328.0727746711508" r="4" fill="#3b82f6" stroke="#0d1117" stroke-width="2" class="data-point"/>
  
    <circle cx="123.19444444444444" cy="326.87891783248097" r="4" fill="#3b82f6" stroke="#0d1117" stroke-width="2" class="data-point"/>
  
    <circle cx="128.05555555555554" cy="326.0083381425245" r="4" fill="#3b82f6" stroke="#0d1117" stroke-width="2" class="data-point"/>
  
    <circle cx="132.91666666666669" cy="325.10656504348174" r="4" fill="#3b82f6" stroke="#0d1117" stroke-width="2" class="data-point"/>
  
    <circle cx="137.77777777777777" cy="323.8815147957255" r="4" fill="#3b82f6" stroke="#0d1117" stroke-width="2" class="data-point"/>
  
    <circle cx="142.63888888888889" cy="323.0619788660922" r="4" fill="#3b82f6" stroke="#0d1117" stroke-width="2" class="data-point"/>
  
    <circle cx="147.5" cy="321.9276730811327" r="4" fill="#3b82f6" stroke="#0d1117" stroke-width="2" class="data-point"/>
  
    <circle cx="152.36111111111111" cy="320.61754989950447" r="4" fill="#3b82f6" stroke="#0d1117" stroke-width="2" class="data-point"/>
  
    <circle cx="157.22222222222223" cy="319.6307038665897" r="4" fill="#3b82f6" stroke="#0d1117" stroke-width="2" class="data-point"/>
  
    <circle cx="162.08333333333334" cy="318.8196752303437" r="4" fill="#3b82f6" stroke="#0d1117" stroke-width="2" class="data-point"/>
  
    <circle cx="166.94444444444446" cy="318.2950588047999" r="4" fill="#3b82f6" stroke="#0d1117" stroke-width="2" class="data-point"/>
  
    <circle cx="171.80555555555554" cy="317.8583510775905" r="4" fill="#3b82f6" stroke="#0d1117" stroke-width="2" class="data-point"/>
  
    <circle cx="176.66666666666666" cy="317.05015820580684" r="4" fill="#3b82f6" stroke="#0d1117" stroke-width="2" class="data-point"/>
  
    <circle cx="181.52777777777777" cy="316.4744980199399" r="4" fill="#3b82f6" stroke="#0d1117" stroke-width="2" class="data-point"/>
  
    <circle cx="186.38888888888889" cy="315.21258283417245" r="4" fill="#3b82f6" stroke="#0d1117" stroke-width="2" class="data-point"/>
  
    <circle cx="191.25" cy="314.71632405325266" r="4" fill="#3b82f6" stroke="#0d1117" stroke-width="2" class="data-point"/>
  
    <circle cx="196.11111111111111" cy="314.0754412847506" r="4" fill="#3b82f6" stroke="#0d1117" stroke-width="2" class="data-point"/>
  
    <circle cx="200.97222222222223" cy="313.2473980617301" r="4" fill="#3b82f6" stroke="#0d1117" stroke-width="2" class="data-point"/>
  
    <circle cx="205.83333333333334" cy="312.6802451692504" r="4" fill="#3b82f6" stroke="#0d1117" stroke-width="2" class="data-point"/>
  
    <circle cx="210.69444444444446" cy="312.1045849833834" r="4" fill="#3b82f6" stroke="#0d1117" stroke-width="2" class="data-point"/>
  
    <circle cx="215.55555555555554" cy="311.5005671528925" r="4" fill="#3b82f6" stroke="#0d1117" stroke-width="2" class="data-point"/>
  
    <circle cx="220.41666666666666" cy="311.08087401245746" r="4" fill="#3b82f6" stroke="#0d1117" stroke-width="2" class="data-point"/>
  
    <circle cx="225.27777777777777" cy="310.7178961612704" r="4" fill="#3b82f6" stroke="#0d1117" stroke-width="2" class="data-point"/>
  
    <circle cx="230.13888888888889" cy="310.16492209110265" r="4" fill="#3b82f6" stroke="#0d1117" stroke-width="2" class="data-point"/>
  
    <circle cx="235" cy="309.49284591351415" r="4" fill="#3b82f6" stroke="#0d1117" stroke-width="2" class="data-point"/>
  
    <circle cx="239.8611111111111" cy="308.87464926071124" r="4" fill="#3b82f6" stroke="#0d1117" stroke-width="2" class="data-point"/>
  
    <circle cx="244.72222222222223" cy="308.09197826908917" r="4" fill="#3b82f6" stroke="#0d1117" stroke-width="2" class="data-point"/>
  
    <circle cx="249.58333333333331" cy="307.23841316590716" r="4" fill="#3b82f6" stroke="#0d1117" stroke-width="2" class="data-point"/>
  
    <circle cx="254.44444444444446" cy="306.4557421742851" r="4" fill="#3b82f6" stroke="#0d1117" stroke-width="2" class="data-point"/>
  
    <circle cx="259.30555555555554" cy="305.5114326083063" r="4" fill="#3b82f6" stroke="#0d1117" stroke-width="2" class="data-point"/>
  
    <circle cx="264.1666666666667" cy="304.5841376291019" r="4" fill="#3b82f6" stroke="#0d1117" stroke-width="2" class="data-point"/>
  
    <circle cx="269.02777777777777" cy="303.6568426498975" r="4" fill="#3b82f6" stroke="#0d1117" stroke-width="2" class="data-point"/>
  
    <circle cx="273.8888888888889" cy="302.64163897235875" r="4" fill="#3b82f6" stroke="#0d1117" stroke-width="2" class="data-point"/>
  
    <circle cx="278.75" cy="301.6718075262184" r="4" fill="#3b82f6" stroke="#0d1117" stroke-width="2" class="data-point"/>
  
    <circle cx="283.6111111111111" cy="300.5630236214205" r="4" fill="#3b82f6" stroke="#0d1117" stroke-width="2" class="data-point"/>
  
    <circle cx="288.47222222222223" cy="299.5733418240433" r="4" fill="#3b82f6" stroke="#0d1117" stroke-width="2" class="data-point"/>
  
    <circle cx="293.3333333333333" cy="298.73679130763566" r="4" fill="#3b82f6" stroke="#0d1117" stroke-width="2" class="data-point"/>
  
    <circle cx="298.19444444444446" cy="298.06755089450957" r="4" fill="#3b82f6" stroke="#0d1117" stroke-width="2" class="data-point"/>
  
    <circle cx="303.05555555555554" cy="297.13174862191795" r="4" fill="#3b82f6" stroke="#0d1117" stroke-width="2" class="data-point"/>
  
    <circle cx="307.9166666666667" cy="296.06266541959366" r="4" fill="#3b82f6" stroke="#0d1117" stroke-width="2" class="data-point"/>
  
    <circle cx="312.77777777777777" cy="295.08432668006606" r="4" fill="#3b82f6" stroke="#0d1117" stroke-width="2" class="data-point"/>
  
    <circle cx="317.6388888888889" cy="293.94151360171935" r="4" fill="#3b82f6" stroke="#0d1117" stroke-width="2" class="data-point"/>
  
    <circle cx="322.5" cy="292.5321386639072" r="4" fill="#3b82f6" stroke="#0d1117" stroke-width="2" class="data-point"/>
  
    <circle cx="327.3611111111111" cy="291.48290581281964" r="4" fill="#3b82f6" stroke="#0d1117" stroke-width="2" class="data-point"/>
  
    <circle cx="332.22222222222223" cy="290.61232612286324" r="4" fill="#3b82f6" stroke="#0d1117" stroke-width="2" class="data-point"/>
  
    <circle cx="337.0833333333333" cy="289.78428289984276" r="4" fill="#3b82f6" stroke="#0d1117" stroke-width="2" class="data-point"/>
  
    <circle cx="341.94444444444446" cy="288.7889295735408" r="4" fill="#3b82f6" stroke="#0d1117" stroke-width="2" class="data-point"/>
  
    <circle cx="346.80555555555554" cy="287.63193767288215" r="4" fill="#3b82f6" stroke="#0d1117" stroke-width="2" class="data-point"/>
  
    <circle cx="351.6666666666667" cy="286.35017213587787" r="4" fill="#3b82f6" stroke="#0d1117" stroke-width="2" class="data-point"/>
  
    <circle cx="356.52777777777777" cy="285.0031840162385" r="4" fill="#3b82f6" stroke="#0d1117" stroke-width="2" class="data-point"/>
  
    <circle cx="361.3888888888889" cy="283.71007542138466" r="4" fill="#3b82f6" stroke="#0d1117" stroke-width="2" class="data-point"/>
  
    <circle cx="366.25" cy="282.57293387196273" r="4" fill="#3b82f6" stroke="#0d1117" stroke-width="2" class="data-point"/>
  
    <circle cx="371.1111111111111" cy="281.44429961592806" r="4" fill="#3b82f6" stroke="#0d1117" stroke-width="2" class="data-point"/>
  
    <circle cx="375.97222222222223" cy="280.44894628962606" r="4" fill="#3b82f6" stroke="#0d1117" stroke-width="2" class="data-point"/>
  
    <circle cx="380.8333333333333" cy="279.4337426120873" r="4" fill="#3b82f6" stroke="#0d1117" stroke-width="2" class="data-point"/>
  
    <circle cx="385.69444444444446" cy="278.2994368271278" r="4" fill="#3b82f6" stroke="#0d1117" stroke-width="2" class="data-point"/>
  
    <circle cx="390.55555555555554" cy="276.8872261248532" r="4" fill="#3b82f6" stroke="#0d1117" stroke-width="2" class="data-point"/>
  
    <circle cx="395.4166666666667" cy="275.8351575093033" r="4" fill="#3b82f6" stroke="#0d1117" stroke-width="2" class="data-point"/>
  
    <circle cx="400.27777777777777" cy="274.8936837077869" r="4" fill="#3b82f6" stroke="#0d1117" stroke-width="2" class="data-point"/>
  
    <circle cx="405.1388888888889" cy="273.84728662116174" r="4" fill="#3b82f6" stroke="#0d1117" stroke-width="2" class="data-point"/>
  
    <circle cx="410" cy="272.87178364609656" r="4" fill="#3b82f6" stroke="#0d1117" stroke-width="2" class="data-point"/>
  
    <circle cx="414.8611111111111" cy="271.79986467930985" r="4" fill="#3b82f6" stroke="#0d1117" stroke-width="2" class="data-point"/>
  
    <circle cx="419.7222222222222" cy="270.68257348112473" r="4" fill="#3b82f6" stroke="#0d1117" stroke-width="2" class="data-point"/>
  
    <circle cx="424.58333333333337" cy="269.51423852261644" r="4" fill="#3b82f6" stroke="#0d1117" stroke-width="2" class="data-point"/>
  
    <circle cx="429.44444444444446" cy="268.49052755169055" r="4" fill="#3b82f6" stroke="#0d1117" stroke-width="2" class="data-point"/>
  
    <circle cx="434.30555555555554" cy="267.6142763328093" r="4" fill="#3b82f6" stroke="#0d1117" stroke-width="2" class="data-point"/>
  
    <circle cx="439.16666666666663" cy="266.6529521800561" r="4" fill="#3b82f6" stroke="#0d1117" stroke-width="2" class="data-point"/>
  
    <circle cx="444.0277777777778" cy="265.61222662235576" r="4" fill="#3b82f6" stroke="#0d1117" stroke-width="2" class="data-point"/>
  
    <circle cx="448.8888888888889" cy="264.6480667051402" r="4" fill="#3b82f6" stroke="#0d1117" stroke-width="2" class="data-point"/>
  
    <circle cx="453.75" cy="263.3918230482975" r="4" fill="#3b82f6" stroke="#0d1117" stroke-width="2" class="data-point"/>
  
    <circle cx="458.6111111111111" cy="262.3113967881236" r="4" fill="#3b82f6" stroke="#0d1117" stroke-width="2" class="data-point"/>
  
    <circle cx="463.4722222222222" cy="261.27067123042326" r="4" fill="#3b82f6" stroke="#0d1117" stroke-width="2" class="data-point"/>
  
    <circle cx="468.33333333333337" cy="260.40576306939164" r="4" fill="#3b82f6" stroke="#0d1117" stroke-width="2" class="data-point"/>
  
    <circle cx="473.19444444444446" cy="259.5663767885216" r="4" fill="#3b82f6" stroke="#0d1117" stroke-width="2" class="data-point"/>
  
    <circle cx="478.05555555555554" cy="258.72415474318916" r="4" fill="#3b82f6" stroke="#0d1117" stroke-width="2" class="data-point"/>
  
    <circle cx="482.91666666666663" cy="257.7174583590376" r="4" fill="#3b82f6" stroke="#0d1117" stroke-width="2" class="data-point"/>
  
    <circle cx="487.7777777777778" cy="256.6824043302621" r="4" fill="#3b82f6" stroke="#0d1117" stroke-width="2" class="data-point"/>
  
    <circle cx="492.6388888888889" cy="255.42616067341942" r="4" fill="#3b82f6" stroke="#0d1117" stroke-width="2" class="data-point"/>
  
    <circle cx="497.5" cy="254.40812123141828" r="4" fill="#3b82f6" stroke="#0d1117" stroke-width="2" class="data-point"/>
  
    <circle cx="502.3611111111111" cy="253.57724224393544" r="4" fill="#3b82f6" stroke="#0d1117" stroke-width="2" class="data-point"/>
  
    <circle cx="507.2222222222222" cy="252.7236771407534" r="4" fill="#3b82f6" stroke="#0d1117" stroke-width="2" class="data-point"/>
  
    <circle cx="512.0833333333334" cy="251.90697697558255" r="4" fill="#3b82f6" stroke="#0d1117" stroke-width="2" class="data-point"/>
  
    <circle cx="516.9444444444445" cy="250.8974448269686" r="4" fill="#3b82f6" stroke="#0d1117" stroke-width="2" class="data-point"/>
  
    <circle cx="521.8055555555555" cy="249.86239079819308" r="4" fill="#3b82f6" stroke="#0d1117" stroke-width="2" class="data-point"/>
  
    <circle cx="526.6666666666666" cy="247.57392887703728" r="4" fill="#3b82f6" stroke="#0d1117" stroke-width="2" class="data-point"/>
  
    <circle cx="531.5277777777778" cy="243.01969115042488" r="4" fill="#3b82f6" stroke="#0d1117" stroke-width="2" class="data-point"/>
  
    <circle cx="536.3888888888889" cy="237.59487373385605" r="4" fill="#3b82f6" stroke="#0d1117" stroke-width="2" class="data-point"/>
  
    <circle cx="541.25" cy="232.652136275895" r="4" fill="#3b82f6" stroke="#0d1117" stroke-width="2" class="data-point"/>
  
    <circle cx="546.1111111111111" cy="230.1453204911345" r="4" fill="#3b82f6" stroke="#0d1117" stroke-width="2" class="data-point"/>
  
    <circle cx="550.9722222222222" cy="226.36808222721936" r="4" fill="#3b82f6" stroke="#0d1117" stroke-width="2" class="data-point"/>
  
    <circle cx="555.8333333333334" cy="223.85843067799647" r="4" fill="#3b82f6" stroke="#0d1117" stroke-width="2" class="data-point"/>
  
    <circle cx="560.6944444444445" cy="221.65787745517503" r="4" fill="#3b82f6" stroke="#0d1117" stroke-width="2" class="data-point"/>
  
    <circle cx="565.5555555555555" cy="219.50553222821438" r="4" fill="#3b82f6" stroke="#0d1117" stroke-width="2" class="data-point"/>
  
    <circle cx="570.4166666666666" cy="217.47796063759924" r="4" fill="#3b82f6" stroke="#0d1117" stroke-width="2" class="data-point"/>
  
    <circle cx="575.2777777777778" cy="214.32459055541182" r="4" fill="#3b82f6" stroke="#0d1117" stroke-width="2" class="data-point"/>
  
    <circle cx="580.1388888888889" cy="211.81777477065134" r="4" fill="#3b82f6" stroke="#0d1117" stroke-width="2" class="data-point"/>
  
    <circle cx="585" cy="208.61336092814074" r="4" fill="#3b82f6" stroke="#0d1117" stroke-width="2" class="data-point"/>
  
    <circle cx="589.8611111111111" cy="207.95829933732662" r="4" fill="#3b82f6" stroke="#0d1117" stroke-width="2" class="data-point"/>
  
    <circle cx="594.7222222222222" cy="207.87322640345465" r="4" fill="#3b82f6" stroke="#0d1117" stroke-width="2" class="data-point"/>
  
    <circle cx="599.5833333333334" cy="207.7626315894211" r="4" fill="#3b82f6" stroke="#0d1117" stroke-width="2" class="data-point"/>
  
    <circle cx="604.4444444444445" cy="207.66905136216195" r="4" fill="#3b82f6" stroke="#0d1117" stroke-width="2" class="data-point"/>
  
    <circle cx="609.3055555555555" cy="207.5471134902788" r="4" fill="#3b82f6" stroke="#0d1117" stroke-width="2" class="data-point"/>
  
    <circle cx="614.1666666666666" cy="207.43935444070763" r="4" fill="#3b82f6" stroke="#0d1117" stroke-width="2" class="data-point"/>
  
    <circle cx="619.0277777777778" cy="207.39681797377168" r="4" fill="#3b82f6" stroke="#0d1117" stroke-width="2" class="data-point"/>
  
    <circle cx="623.8888888888889" cy="207.24085092833974" r="4" fill="#3b82f6" stroke="#0d1117" stroke-width="2" class="data-point"/>
  
    <circle cx="628.75" cy="207.0905554118326" r="4" fill="#3b82f6" stroke="#0d1117" stroke-width="2" class="data-point"/>
  
    <circle cx="633.6111111111111" cy="206.99130365564864" r="4" fill="#3b82f6" stroke="#0d1117" stroke-width="2" class="data-point"/>
  
    <circle cx="638.4722222222222" cy="206.95443871763746" r="4" fill="#3b82f6" stroke="#0d1117" stroke-width="2" class="data-point"/>
  
    <circle cx="643.3333333333334" cy="206.78712861435594" r="4" fill="#3b82f6" stroke="#0d1117" stroke-width="2" class="data-point"/>
  
    <circle cx="648.1944444444445" cy="202.67527014387773" r="4" fill="#3b82f6" stroke="#0d1117" stroke-width="2" class="data-point"/>
  
    <circle cx="653.0555555555555" cy="196.23524904977018" r="4" fill="#3b82f6" stroke="#0d1117" stroke-width="2" class="data-point"/>
  
    <circle cx="657.9166666666666" cy="191.92205130246165" r="4" fill="#3b82f6" stroke="#0d1117" stroke-width="2" class="data-point"/>
  
    <circle cx="662.7777777777778" cy="186.91409126186545" r="4" fill="#3b82f6" stroke="#0d1117" stroke-width="2" class="data-point"/>
  
    <circle cx="667.6388888888889" cy="181.7529999402997" r="4" fill="#3b82f6" stroke="#0d1117" stroke-width="2" class="data-point"/>
  
    <circle cx="672.5" cy="177.70352828799426" r="4" fill="#3b82f6" stroke="#0d1117" stroke-width="2" class="data-point"/>
  
    <circle cx="677.3611111111111" cy="173.17481244154345" r="4" fill="#3b82f6" stroke="#0d1117" stroke-width="2" class="data-point"/>
  
    <circle cx="682.2222222222222" cy="166.27539750452726" r="4" fill="#3b82f6" stroke="#0d1117" stroke-width="2" class="data-point"/>
  
    <circle cx="687.0833333333334" cy="156.97692583232177" r="4" fill="#3b82f6" stroke="#0d1117" stroke-width="2" class="data-point"/>
  
    <circle cx="691.9444444444445" cy="150.9083898827884" r="4" fill="#3b82f6" stroke="#0d1117" stroke-width="2" class="data-point"/>
  
    <circle cx="696.8055555555555" cy="143.68569779705876" r="4" fill="#3b82f6" stroke="#0d1117" stroke-width="2" class="data-point"/>
  
    <circle cx="701.6666666666666" cy="135.6377982527711" r="4" fill="#3b82f6" stroke="#0d1117" stroke-width="2" class="data-point"/>
  
    <circle cx="706.5277777777778" cy="129.1835983363515" r="4" fill="#3b82f6" stroke="#0d1117" stroke-width="2" class="data-point"/>
  
    <circle cx="711.3888888888889" cy="122.1792601142266" r="4" fill="#3b82f6" stroke="#0d1117" stroke-width="2" class="data-point"/>
  
    <circle cx="716.25" cy="115.96610017711089" r="4" fill="#3b82f6" stroke="#0d1117" stroke-width="2" class="data-point"/>
  
    <circle cx="721.1111111111111" cy="109.8096555292432" r="4" fill="#3b82f6" stroke="#0d1117" stroke-width="2" class="data-point"/>
  
    <circle cx="725.9722222222222" cy="103.67022546814988" r="4" fill="#3b82f6" stroke="#0d1117" stroke-width="2" class="data-point"/>
  
    <circle cx="730.8333333333334" cy="95.31039183299836" r="4" fill="#3b82f6" stroke="#0d1117" stroke-width="2" class="data-point"/>
  
    <circle cx="735.6944444444445" cy="86.92503631768523" r="4" fill="#3b82f6" stroke="#0d1117" stroke-width="2" class="data-point"/>
  
    <circle cx="740.5555555555555" cy="79.93487691787232" r="4" fill="#3b82f6" stroke="#0d1117" stroke-width="2" class="data-point"/>
  
    <circle cx="745.4166666666666" cy="74.07618753855644" r="4" fill="#3b82f6" stroke="#0d1117" stroke-width="2" class="data-point"/>
  
    <circle cx="750.2777777777778" cy="68.39331555590934" r="4" fill="#3b82f6" stroke="#0d1117" stroke-width="2" class="data-point"/>
  
    <circle cx="755.1388888888889" cy="60.85018208592862" r="4" fill="#3b82f6" stroke="#0d1117" stroke-width="2" class="data-point"/>
  
    <circle cx="760" cy="55" r="4" fill="#3b82f6" stroke="#0d1117" stroke-width="2" class="data-point"/>
  

  <!-- Axis lines -->
  <line x1="60" y1="55" x2="60" y2="340"
        stroke="#30363d" stroke-width="2"/>
  <line x1="60" y1="340" x2="760" y2="340"
        stroke="#30363d" stroke-width="2"/>
</svg>