<?xml version="1.0" encoding="UTF-8"?>
<svg width="800" height="400" xmlns="http://www.w3.org/2000/svg">
  <defs>
    <!-- Gradient for area fill -->
    <linearGradient id="areaGradient" x1="0%" y1="0%" x2="0%" y2="100%">
      <stop offset="0%" style="stop-color:#3b82f6;stop-opacity:0.3" />
      <stop offset="100%" style="stop-color:#3b82f6;stop-opacity:0.05" />
    </linearGradient>

    <!-- Glow filter for line -->
    <filter id="glow">
      <feGaussianBlur stdDeviation="2" result="coloredBlur"/>
      <feMerge>
        <feMergeNode in="coloredBlur"/>
        <feMergeNode in="SourceGraphic"/>
      </feMerge>
    </filter>

    <!-- Animation -->
    <style>
      @keyframes draw {
        from { stroke-dashoffset: 2000; }
        to { stroke-dashoffset: 0; }
      }
      @keyframes fadeIn {
        from { opacity: 0; }
        to { opacity: 1; }
      }
      .line-path {
        stroke-dasharray: 2000;
        stroke-dashoffset: 2000;
        animation: draw 1.5s ease-out forwards;
      }
      .area-path {
        opacity: 0;
        animation: fadeIn 1s ease-out 0.5s forwards;
      }
      .data-point {
        opacity: 0;
        animation: fadeIn 0.5s ease-out 1s forwards;
      }
    </style>
  </defs>

  <!-- Background -->
  <rect width="800" height="400" fill="#0d1117" rx="8"/>

  <!-- Title -->
  <text x="400" y="25" text-anchor="middle" fill="#c9d1d9" font-family="system-ui, -apple-system, sans-serif" font-size="16" font-weight="600">
    zxcloli666/SoundCloud-Desktop Downloads
  </text>

  <!-- Stats -->
  <text x="780" y="25" text-anchor="end" fill="#58a6ff" font-family="system-ui, -apple-system, sans-serif" font-size="14" font-weight="600">
    87.2K total
  </text>
  <text x="780" y="42" text-anchor="end" fill="#3fb950" font-family="system-ui, -apple-system, sans-serif" font-size="12">
    +443 (+0.5%)
  </text>

  <!-- Grid lines -->
  <g opacity="0.1">
    
      <line x1="60" y1="340" x2="760" y2="340"
            stroke="#c9d1d9" stroke-width="1"/>
    
      <line x1="60" y1="268.75" x2="760" y2="268.75"
            stroke="#c9d1d9" stroke-width="1"/>
    
      <line x1="60" y1="197.5" x2="760" y2="197.5"
            stroke="#c9d1d9" stroke-width="1"/>
    
      <line x1="60" y1="126.25" x2="760" y2="126.25"
            stroke="#c9d1d9" stroke-width="1"/>
    
      <line x1="60" y1="55" x2="760" y2="55"
            stroke="#c9d1d9" stroke-width="1"/>
    
  </g>

  <!-- Y-axis labels -->
  
    <text x="50" y="344" text-anchor="end"
          fill="#8b949e" font-family="system-ui, -apple-system, sans-serif" font-size="11">
      60.2K
    </text>
  
    <text x="50" y="272.75" text-anchor="end"
          fill="#8b949e" font-family="system-ui, -apple-system, sans-serif" font-size="11">
      66.9K
    </text>
  
    <text x="50" y="201.5" text-anchor="end"
          fill="#8b949e" font-family="system-ui, -apple-system, sans-serif" font-size="11">
      73.7K
    </text>
  
    <text x="50" y="130.25" text-anchor="end"
          fill="#8b949e" font-family="system-ui, -apple-system, sans-serif" font-size="11">
      80.4K
    </text>
  
    <text x="50" y="59" text-anchor="end"
          fill="#8b949e" font-family="system-ui, -apple-system, sans-serif" font-size="11">
      87.2K
    </text>
  

  <!-- X-axis labels -->
  
    <text x="60" y="360" text-anchor="middle"
          fill="#8b949e" font-family="system-ui, -apple-system, sans-serif" font-size="11">
      Nov 25
    </text>
  
    <text x="146.41975308641975" y="360" text-anchor="middle"
          fill="#8b949e" font-family="system-ui, -apple-system, sans-serif" font-size="11">
      Dec 5
    </text>
  
    <text x="232.8395061728395" y="360" text-anchor="middle"
          fill="#8b949e" font-family="system-ui, -apple-system, sans-serif" font-size="11">
      Dec 15
    </text>
  
    <text x="319.25925925925924" y="360" text-anchor="middle"
          fill="#8b949e" font-family="system-ui, -apple-system, sans-serif" font-size="11">
      Dec 25
    </text>
  
    <text x="405.679012345679" y="360" text-anchor="middle"
          fill="#8b949e" font-family="system-ui, -apple-system, sans-serif" font-size="11">
      Jan 4
    </text>
  
    <text x="492.09876543209873" y="360" text-anchor="middle"
          fill="#8b949e" font-family="system-ui, -apple-system, sans-serif" font-size="11">
      Jan 14
    </text>
  
    <text x="578.5185185185185" y="360" text-anchor="middle"
          fill="#8b949e" font-family="system-ui, -apple-system, sans-serif" font-size="11">
      Jan 24
    </text>
  
    <text x="664.9382716049382" y="360" text-anchor="middle"
          fill="#8b949e" font-family="system-ui, -apple-system, sans-serif" font-size="11">
      Feb 3
    </text>
  
    <text x="751.358024691358" y="360" text-anchor="middle"
          fill="#8b949e" font-family="system-ui, -apple-system, sans-serif" font-size="11">
      Feb 13
    </text>
  
    <text x="760" y="360" text-anchor="middle"
          fill="#8b949e" font-family="system-ui, -apple-system, sans-serif" font-size="11">
      Feb 14
    </text>
  

  <!-- Area under line -->
  <path d="M 60 340
    L 60.00 340.00 L 68.64 338.45 L 77.28 335.81 L 85.93 333.36 L 94.57 328.50 L 103.21 323.48 L 111.85 319.52 L 120.49 315.83 L 129.14 312.55 L 137.78 308.70 L 146.42 304.41 L 155.06 299.81 L 163.70 295.63 L 172.35 291.19 L 180.99 287.95 L 189.63 284.59 L 198.27 280.04 L 206.91 276.99 L 215.56 272.77 L 224.20 267.89 L 232.84 264.22 L 241.48 261.20 L 250.12 259.25 L 258.77 257.63 L 267.41 254.62 L 276.05 252.48 L 284.69 247.79 L 293.33 245.94 L 301.98 243.55 L 310.62 240.47 L 319.26 238.36 L 327.90 236.22 L 336.54 233.98 L 345.19 232.41 L 353.83 231.06 L 362.47 229.01 L 371.11 226.51 L 379.75 224.21 L 388.40 221.29 L 397.04 218.12 L 405.68 215.21 L 414.32 211.69 L 422.96 208.24 L 431.60 204.80 L 440.25 201.02 L 448.89 197.41 L 457.53 193.29 L 466.17 189.60 L 474.81 186.49 L 483.46 184.00 L 492.10 180.52 L 500.74 176.54 L 509.38 172.90 L 518.02 168.65 L 526.67 163.41 L 535.31 159.51 L 543.95 156.27 L 552.59 153.19 L 561.23 149.48 L 569.88 145.18 L 578.52 140.41 L 587.16 135.40 L 595.80 130.59 L 604.44 126.36 L 613.09 122.16 L 621.73 118.46 L 630.37 114.68 L 639.01 110.46 L 647.65 105.21 L 656.30 101.29 L 664.94 97.79 L 673.58 93.90 L 682.22 90.27 L 690.86 86.28 L 699.51 82.12 L 708.15 77.78 L 716.79 73.97 L 725.43 70.71 L 734.07 67.13 L 742.72 63.26 L 751.36 59.67 L 760.00 55.00
    L 760 340
    Z" fill="url(#areaGradient)" class="area-path"/>

  <!-- Main line with glow -->
  <path d="M 60.00 340.00 L 68.64 338.45 L 77.28 335.81 L 85.93 333.36 L 94.57 328.50 L 103.21 323.48 L 111.85 319.52 L 120.49 315.83 L 129.14 312.55 L 137.78 308.70 L 146.42 304.41 L 155.06 299.81 L 163.70 295.63 L 172.35 291.19 L 180.99 287.95 L 189.63 284.59 L 198.27 280.04 L 206.91 276.99 L 215.56 272.77 L 224.20 267.89 L 232.84 264.22 L 241.48 261.20 L 250.12 259.25 L 258.77 257.63 L 267.41 254.62 L 276.05 252.48 L 284.69 247.79 L 293.33 245.94 L 301.98 243.55 L 310.62 240.47 L 319.26 238.36 L 327.90 236.22 L 336.54 233.98 L 345.19 232.41 L 353.83 231.06 L 362.47 229.01 L 371.11 226.51 L 379.75 224.21 L 388.40 221.29 L 397.04 218.12 L 405.68 215.21 L 414.32 211.69 L 422.96 208.24 L 431.60 204.80 L 440.25 201.02 L 448.89 197.41 L 457.53 193.29 L 466.17 189.60 L 474.81 186.49 L 483.46 184.00 L 492.10 180.52 L 500.74 176.54 L 509.38 172.90 L 518.02 168.65 L 526.67 163.41 L 535.31 159.51 L 543.95 156.27 L 552.59 153.19 L 561.23 149.48 L 569.88 145.18 L 578.52 140.41 L 587.16 135.40 L 595.80 130.59 L 604.44 126.36 L 613.09 122.16 L 621.73 118.46 L 630.37 114.68 L 639.01 110.46 L 647.65 105.21 L 656.30 101.29 L 664.94 97.79 L 673.58 93.90 L 682.22 90.27 L 690.86 86.28 L 699.51 82.12 L 708.15 77.78 L 716.79 73.97 L 725.43 70.71 L 734.07 67.13 L 742.72 63.26 L 751.36 59.67 L 760.00 55.00" fill="none" stroke="#3b82f6" stroke-width="3"
        stroke-linecap="round" stroke-linejoin="round" filter="url(#glow)" class="line-path"/>

  <!-- Data points -->
  
    <circle cx="60" cy="340" r="4" fill="#3b82f6" stroke="#0d1117" stroke-width="2" class="data-point"/>
  
    <circle cx="68.64197530864197" cy="338.4491948917268" r="4" fill="#3b82f6" stroke="#0d1117" stroke-width="2" class="data-point"/>
  
    <circle cx="77.28395061728395" cy="335.811771238201" r="4" fill="#3b82f6" stroke="#0d1117" stroke-width="2" class="data-point"/>
  
    <circle cx="85.92592592592592" cy="333.36424208772905" r="4" fill="#3b82f6" stroke="#0d1117" stroke-width="2" class="data-point"/>
  
    <circle cx="94.5679012345679" cy="328.50083287062745" r="4" fill="#3b82f6" stroke="#0d1117" stroke-width="2" class="data-point"/>
  
    <circle cx="103.20987654320987" cy="323.47917823431425" r="4" fill="#3b82f6" stroke="#0d1117" stroke-width="2" class="data-point"/>
  
    <circle cx="111.85185185185185" cy="319.52304275402554" r="4" fill="#3b82f6" stroke="#0d1117" stroke-width="2" class="data-point"/>
  
    <circle cx="120.49382716049382" cy="315.8306496390894" r="4" fill="#3b82f6" stroke="#0d1117" stroke-width="2" class="data-point"/>
  
    <circle cx="129.1358024691358" cy="312.54969461410326" r="4" fill="#3b82f6" stroke="#0d1117" stroke-width="2" class="data-point"/>
  
    <circle cx="137.77777777777777" cy="308.6990560799556" r="4" fill="#3b82f6" stroke="#0d1117" stroke-width="2" class="data-point"/>
  
    <circle cx="146.41975308641975" cy="304.40533037201556" r="4" fill="#3b82f6" stroke="#0d1117" stroke-width="2" class="data-point"/>
  
    <circle cx="155.06172839506172" cy="299.80566352026653" r="4" fill="#3b82f6" stroke="#0d1117" stroke-width="2" class="data-point"/>
  
    <circle cx="163.7037037037037" cy="295.62798445308164" r="4" fill="#3b82f6" stroke="#0d1117" stroke-width="2" class="data-point"/>
  
    <circle cx="172.34567901234567" cy="291.18656302054416" r="4" fill="#3b82f6" stroke="#0d1117" stroke-width="2" class="data-point"/>
  
    <circle cx="180.98765432098764" cy="287.94780677401445" r="4" fill="#3b82f6" stroke="#0d1117" stroke-width="2" class="data-point"/>
  
    <circle cx="189.62962962962962" cy="284.5930038867296" r="4" fill="#3b82f6" stroke="#0d1117" stroke-width="2" class="data-point"/>
  
    <circle cx="198.2716049382716" cy="280.035535813437" r="4" fill="#3b82f6" stroke="#0d1117" stroke-width="2" class="data-point"/>
  
    <circle cx="206.91358024691357" cy="276.9866740699611" r="4" fill="#3b82f6" stroke="#0d1117" stroke-width="2" class="data-point"/>
  
    <circle cx="215.55555555555554" cy="272.7667962243198" r="4" fill="#3b82f6" stroke="#0d1117" stroke-width="2" class="data-point"/>
  
    <circle cx="224.19753086419752" cy="267.8928373126041" r="4" fill="#3b82f6" stroke="#0d1117" stroke-width="2" class="data-point"/>
  
    <circle cx="232.8395061728395" cy="264.22154358689613" r="4" fill="#3b82f6" stroke="#0d1117" stroke-width="2" class="data-point"/>
  
    <circle cx="241.48148148148147" cy="261.2043309272626" r="4" fill="#3b82f6" stroke="#0d1117" stroke-width="2" class="data-point"/>
  
    <circle cx="250.12345679012344" cy="259.25263742365354" r="4" fill="#3b82f6" stroke="#0d1117" stroke-width="2" class="data-point"/>
  
    <circle cx="258.7654320987654" cy="257.62798445308164" r="4" fill="#3b82f6" stroke="#0d1117" stroke-width="2" class="data-point"/>
  
    <circle cx="267.4074074074074" cy="254.6213214880622" r="4" fill="#3b82f6" stroke="#0d1117" stroke-width="2" class="data-point"/>
  
    <circle cx="276.04938271604937" cy="252.47973348139922" r="4" fill="#3b82f6" stroke="#0d1117" stroke-width="2" class="data-point"/>
  
    <circle cx="284.69135802469134" cy="247.78511937812328" r="4" fill="#3b82f6" stroke="#0d1117" stroke-width="2" class="data-point"/>
  
    <circle cx="293.3333333333333" cy="245.9389228206552" r="4" fill="#3b82f6" stroke="#0d1117" stroke-width="2" class="data-point"/>
  
    <circle cx="301.9753086419753" cy="243.55469183786784" r="4" fill="#3b82f6" stroke="#0d1117" stroke-width="2" class="data-point"/>
  
    <circle cx="310.61728395061726" cy="240.4741810105497" r="4" fill="#3b82f6" stroke="#0d1117" stroke-width="2" class="data-point"/>
  
    <circle cx="319.25925925925924" cy="238.36424208772902" r="4" fill="#3b82f6" stroke="#0d1117" stroke-width="2" class="data-point"/>
  
    <circle cx="327.9012345679012" cy="236.22265408106608" r="4" fill="#3b82f6" stroke="#0d1117" stroke-width="2" class="data-point"/>
  
    <circle cx="336.5432098765432" cy="233.97556912826207" r="4" fill="#3b82f6" stroke="#0d1117" stroke-width="2" class="data-point"/>
  
    <circle cx="345.18518518518516" cy="232.4142143253748" r="4" fill="#3b82f6" stroke="#0d1117" stroke-width="2" class="data-point"/>
  
    <circle cx="353.82716049382714" cy="231.0638534147696" r="4" fill="#3b82f6" stroke="#0d1117" stroke-width="2" class="data-point"/>
  
    <circle cx="362.4691358024691" cy="229.00666296501944" r="4" fill="#3b82f6" stroke="#0d1117" stroke-width="2" class="data-point"/>
  
    <circle cx="371.1111111111111" cy="226.50638534147697" r="4" fill="#3b82f6" stroke="#0d1117" stroke-width="2" class="data-point"/>
  
    <circle cx="379.75308641975306" cy="224.20655191560243" r="4" fill="#3b82f6" stroke="#0d1117" stroke-width="2" class="data-point"/>
  
    <circle cx="388.39506172839504" cy="221.29483620210993" r="4" fill="#3b82f6" stroke="#0d1117" stroke-width="2" class="data-point"/>
  
    <circle cx="397.037037037037" cy="218.11937812326488" r="4" fill="#3b82f6" stroke="#0d1117" stroke-width="2" class="data-point"/>
  
    <circle cx="405.679012345679" cy="215.20766240977235" r="4" fill="#3b82f6" stroke="#0d1117" stroke-width="2" class="data-point"/>
  
    <circle cx="414.320987654321" cy="211.69461410327594" r="4" fill="#3b82f6" stroke="#0d1117" stroke-width="2" class="data-point"/>
  
    <circle cx="422.96296296296293" cy="208.2448639644642" r="4" fill="#3b82f6" stroke="#0d1117" stroke-width="2" class="data-point"/>
  
    <circle cx="431.60493827160496" cy="204.7951138256524" r="4" fill="#3b82f6" stroke="#0d1117" stroke-width="2" class="data-point"/>
  
    <circle cx="440.2469135802469" cy="201.01832315380344" r="4" fill="#3b82f6" stroke="#0d1117" stroke-width="2" class="data-point"/>
  
    <circle cx="448.8888888888889" cy="197.4103275957801" r="4" fill="#3b82f6" stroke="#0d1117" stroke-width="2" class="data-point"/>
  
    <circle cx="457.53086419753083" cy="193.28539700166576" r="4" fill="#3b82f6" stroke="#0d1117" stroke-width="2" class="data-point"/>
  
    <circle cx="466.17283950617286" cy="189.6035535813437" r="4" fill="#3b82f6" stroke="#0d1117" stroke-width="2" class="data-point"/>
  
    <circle cx="474.8148148148148" cy="186.49139367018324" r="4" fill="#3b82f6" stroke="#0d1117" stroke-width="2" class="data-point"/>
  
    <circle cx="483.4567901234568" cy="184.00166574125484" r="4" fill="#3b82f6" stroke="#0d1117" stroke-width="2" class="data-point"/>
  
    <circle cx="492.09876543209873" cy="180.52026651860078" r="4" fill="#3b82f6" stroke="#0d1117" stroke-width="2" class="data-point"/>
  
    <circle cx="500.74074074074076" cy="176.54303164908384" r="4" fill="#3b82f6" stroke="#0d1117" stroke-width="2" class="data-point"/>
  
    <circle cx="509.3827160493827" cy="172.9033870072182" r="4" fill="#3b82f6" stroke="#0d1117" stroke-width="2" class="data-point"/>
  
    <circle cx="518.0246913580247" cy="168.6518600777346" r="4" fill="#3b82f6" stroke="#0d1117" stroke-width="2" class="data-point"/>
  
    <circle cx="526.6666666666666" cy="163.40866185452526" r="4" fill="#3b82f6" stroke="#0d1117" stroke-width="2" class="data-point"/>
  
    <circle cx="535.3086419753087" cy="159.50527484730708" r="4" fill="#3b82f6" stroke="#0d1117" stroke-width="2" class="data-point"/>
  
    <circle cx="543.9506172839506" cy="156.26651860077735" r="4" fill="#3b82f6" stroke="#0d1117" stroke-width="2" class="data-point"/>
  
    <circle cx="552.5925925925926" cy="153.18600777345918" r="4" fill="#3b82f6" stroke="#0d1117" stroke-width="2" class="data-point"/>
  
    <circle cx="561.2345679012345" cy="149.48306496390893" r="4" fill="#3b82f6" stroke="#0d1117" stroke-width="2" class="data-point"/>
  
    <circle cx="569.8765432098766" cy="145.1787895613548" r="4" fill="#3b82f6" stroke="#0d1117" stroke-width="2" class="data-point"/>
  
    <circle cx="578.5185185185185" cy="140.41032759578013" r="4" fill="#3b82f6" stroke="#0d1117" stroke-width="2" class="data-point"/>
  
    <circle cx="587.1604938271605" cy="135.39922265408106" r="4" fill="#3b82f6" stroke="#0d1117" stroke-width="2" class="data-point"/>
  
    <circle cx="595.8024691358024" cy="130.58856191004998" r="4" fill="#3b82f6" stroke="#0d1117" stroke-width="2" class="data-point"/>
  
    <circle cx="604.4444444444445" cy="126.35813436979456" r="4" fill="#3b82f6" stroke="#0d1117" stroke-width="2" class="data-point"/>
  
    <circle cx="613.0864197530864" cy="122.15935591338143" r="4" fill="#3b82f6" stroke="#0d1117" stroke-width="2" class="data-point"/>
  
    <circle cx="621.7283950617284" cy="118.45641310383121" r="4" fill="#3b82f6" stroke="#0d1117" stroke-width="2" class="data-point"/>
  
    <circle cx="630.3703703703703" cy="114.67962243198224" r="4" fill="#3b82f6" stroke="#0d1117" stroke-width="2" class="data-point"/>
  
    <circle cx="639.0123456790124" cy="110.45974458634092" r="4" fill="#3b82f6" stroke="#0d1117" stroke-width="2" class="data-point"/>
  
    <circle cx="647.6543209876543" cy="105.20599666851749" r="4" fill="#3b82f6" stroke="#0d1117" stroke-width="2" class="data-point"/>
  
    <circle cx="656.2962962962963" cy="101.29205996668517" r="4" fill="#3b82f6" stroke="#0d1117" stroke-width="2" class="data-point"/>
  
    <circle cx="664.9382716049382" cy="97.78956135480288" r="4" fill="#3b82f6" stroke="#0d1117" stroke-width="2" class="data-point"/>
  
    <circle cx="673.5802469135803" cy="93.89672404219877" r="4" fill="#3b82f6" stroke="#0d1117" stroke-width="2" class="data-point"/>
  
    <circle cx="682.2222222222222" cy="90.26762909494727" r="4" fill="#3b82f6" stroke="#0d1117" stroke-width="2" class="data-point"/>
  
    <circle cx="690.8641975308642" cy="86.2798445308162" r="4" fill="#3b82f6" stroke="#0d1117" stroke-width="2" class="data-point"/>
  
    <circle cx="699.5061728395061" cy="82.1232648528595" r="4" fill="#3b82f6" stroke="#0d1117" stroke-width="2" class="data-point"/>
  
    <circle cx="708.1481481481482" cy="77.77679067184897" r="4" fill="#3b82f6" stroke="#0d1117" stroke-width="2" class="data-point"/>
  
    <circle cx="716.7901234567901" cy="73.9683509161577" r="4" fill="#3b82f6" stroke="#0d1117" stroke-width="2" class="data-point"/>
  
    <circle cx="725.4320987654321" cy="70.7084952803998" r="4" fill="#3b82f6" stroke="#0d1117" stroke-width="2" class="data-point"/>
  
    <circle cx="734.074074074074" cy="67.13214880621877" r="4" fill="#3b82f6" stroke="#0d1117" stroke-width="2" class="data-point"/>
  
    <circle cx="742.716049382716" cy="63.26041088284285" r="4" fill="#3b82f6" stroke="#0d1117" stroke-width="2" class="data-point"/>
  
    <circle cx="751.358024691358" cy="59.67351471404777" r="4" fill="#3b82f6" stroke="#0d1117" stroke-width="2" class="data-point"/>
  
    <circle cx="760" cy="55" r="4" fill="#3b82f6" stroke="#0d1117" stroke-width="2" class="data-point"/>
  

  <!-- Axis lines -->
  <line x1="60" y1="55" x2="60" y2="340"
        stroke="#30363d" stroke-width="2"/>
  <line x1="60" y1="340" x2="760" y2="340"
        stroke="#30363d" stroke-width="2"/>
</svg>