<?xml version="1.0" encoding="UTF-8"?>
<svg width="800" height="400" xmlns="http://www.w3.org/2000/svg">
  <defs>
    <!-- Gradient for area fill -->
    <linearGradient id="areaGradient" x1="0%" y1="0%" x2="0%" y2="100%">
      <stop offset="0%" style="stop-color:#3b82f6;stop-opacity:0.3" />
      <stop offset="100%" style="stop-color:#3b82f6;stop-opacity:0.05" />
    </linearGradient>

    <!-- Glow filter for line -->
    <filter id="glow">
      <feGaussianBlur stdDeviation="2" result="coloredBlur"/>
      <feMerge>
        <feMergeNode in="coloredBlur"/>
        <feMergeNode in="SourceGraphic"/>
      </feMerge>
    </filter>

    <!-- Animation -->
    <style>
      @keyframes draw {
        from { stroke-dashoffset: 2000; }
        to { stroke-dashoffset: 0; }
      }
      @keyframes fadeIn {
        from { opacity: 0; }
        to { opacity: 1; }
      }
      .line-path {
        stroke-dasharray: 2000;
        stroke-dashoffset: 2000;
        animation: draw 1.5s ease-out forwards;
      }
      .area-path {
        opacity: 0;
        animation: fadeIn 1s ease-out 0.5s forwards;
      }
      .data-point {
        opacity: 0;
        animation: fadeIn 0.5s ease-out 1s forwards;
      }
    </style>
  </defs>

  <!-- Background -->
  <rect width="800" height="400" fill="#0d1117" rx="8"/>

  <!-- Title -->
  <text x="400" y="25" text-anchor="middle" fill="#c9d1d9" font-family="system-ui, -apple-system, sans-serif" font-size="16" font-weight="600">
    zxcloli666/SoundCloud-Desktop Downloads
  </text>

  <!-- Stats -->
  <text x="780" y="25" text-anchor="end" fill="#58a6ff" font-family="system-ui, -apple-system, sans-serif" font-size="14" font-weight="600">
    288.0K total
  </text>
  <text x="780" y="42" text-anchor="end" fill="#3fb950" font-family="system-ui, -apple-system, sans-serif" font-size="12">
    +949 (+0.3%)
  </text>

  <!-- Grid lines -->
  <g opacity="0.1">
    
      <line x1="60" y1="340" x2="760" y2="340"
            stroke="#c9d1d9" stroke-width="1"/>
    
      <line x1="60" y1="268.75" x2="760" y2="268.75"
            stroke="#c9d1d9" stroke-width="1"/>
    
      <line x1="60" y1="197.5" x2="760" y2="197.5"
            stroke="#c9d1d9" stroke-width="1"/>
    
      <line x1="60" y1="126.25" x2="760" y2="126.25"
            stroke="#c9d1d9" stroke-width="1"/>
    
      <line x1="60" y1="55" x2="760" y2="55"
            stroke="#c9d1d9" stroke-width="1"/>
    
  </g>

  <!-- Y-axis labels -->
  
    <text x="50" y="344" text-anchor="end"
          fill="#8b949e" font-family="system-ui, -apple-system, sans-serif" font-size="11">
      60.2K
    </text>
  
    <text x="50" y="272.75" text-anchor="end"
          fill="#8b949e" font-family="system-ui, -apple-system, sans-serif" font-size="11">
      117.1K
    </text>
  
    <text x="50" y="201.5" text-anchor="end"
          fill="#8b949e" font-family="system-ui, -apple-system, sans-serif" font-size="11">
      174.1K
    </text>
  
    <text x="50" y="130.25" text-anchor="end"
          fill="#8b949e" font-family="system-ui, -apple-system, sans-serif" font-size="11">
      231.0K
    </text>
  
    <text x="50" y="59" text-anchor="end"
          fill="#8b949e" font-family="system-ui, -apple-system, sans-serif" font-size="11">
      288.0K
    </text>
  

  <!-- X-axis labels -->
  
    <text x="60" y="360" text-anchor="middle"
          fill="#8b949e" font-family="system-ui, -apple-system, sans-serif" font-size="11">
      Nov 25
    </text>
  
    <text x="146.38297872340425" y="360" text-anchor="middle"
          fill="#8b949e" font-family="system-ui, -apple-system, sans-serif" font-size="11">
      Dec 24
    </text>
  
    <text x="232.7659574468085" y="360" text-anchor="middle"
          fill="#8b949e" font-family="system-ui, -apple-system, sans-serif" font-size="11">
      Jan 22
    </text>
  
    <text x="319.1489361702128" y="360" text-anchor="middle"
          fill="#8b949e" font-family="system-ui, -apple-system, sans-serif" font-size="11">
      Feb 20
    </text>
  
    <text x="405.531914893617" y="360" text-anchor="middle"
          fill="#8b949e" font-family="system-ui, -apple-system, sans-serif" font-size="11">
      Mar 21
    </text>
  
    <text x="491.9148936170213" y="360" text-anchor="middle"
          fill="#8b949e" font-family="system-ui, -apple-system, sans-serif" font-size="11">
      Apr 19
    </text>
  
    <text x="578.2978723404256" y="360" text-anchor="middle"
          fill="#8b949e" font-family="system-ui, -apple-system, sans-serif" font-size="11">
      May 18
    </text>
  
    <text x="664.6808510638298" y="360" text-anchor="middle"
          fill="#8b949e" font-family="system-ui, -apple-system, sans-serif" font-size="11">
      Jun 16
    </text>
  
    <text x="751.063829787234" y="360" text-anchor="middle"
          fill="#8b949e" font-family="system-ui, -apple-system, sans-serif" font-size="11">
      Jul 15
    </text>
  
    <text x="760" y="360" text-anchor="middle"
          fill="#8b949e" font-family="system-ui, -apple-system, sans-serif" font-size="11">
      Jul 18
    </text>
  

  <!-- Area under line -->
  <path d="M 60 340
    L 60.00 340.00 L 62.98 339.82 L 65.96 339.50 L 68.94 339.21 L 71.91 338.64 L 74.89 338.04 L 77.87 337.57 L 80.85 337.13 L 83.83 336.75 L 86.81 336.29 L 89.79 335.78 L 92.77 335.23 L 95.74 334.74 L 98.72 334.21 L 101.70 333.83 L 104.68 333.43 L 107.66 332.89 L 110.64 332.53 L 113.62 332.03 L 116.60 331.45 L 119.57 331.01 L 122.55 330.66 L 125.53 330.43 L 128.51 330.23 L 131.49 329.88 L 134.47 329.62 L 137.45 329.07 L 140.43 328.85 L 143.40 328.56 L 146.38 328.20 L 149.36 327.95 L 152.34 327.69 L 155.32 327.43 L 158.30 327.24 L 161.28 327.08 L 164.26 326.84 L 167.23 326.54 L 170.21 326.27 L 173.19 325.92 L 176.17 325.55 L 179.15 325.20 L 182.13 324.79 L 185.11 324.38 L 188.09 323.97 L 191.06 323.52 L 194.04 323.09 L 197.02 322.60 L 200.00 322.17 L 202.98 321.80 L 205.96 321.50 L 208.94 321.09 L 211.91 320.62 L 214.89 320.19 L 217.87 319.68 L 220.85 319.06 L 223.83 318.60 L 226.81 318.21 L 229.79 317.85 L 232.77 317.41 L 235.74 316.90 L 238.72 316.33 L 241.70 315.74 L 244.68 315.17 L 247.66 314.67 L 250.64 314.17 L 253.62 313.73 L 256.60 313.28 L 259.57 312.78 L 262.55 312.16 L 265.53 311.70 L 268.51 311.28 L 271.49 310.82 L 274.47 310.39 L 277.45 309.92 L 280.43 309.42 L 283.40 308.91 L 286.38 308.46 L 289.36 308.07 L 292.34 307.64 L 295.32 307.19 L 298.30 306.76 L 301.28 306.21 L 304.26 305.73 L 307.23 305.27 L 310.21 304.89 L 313.19 304.52 L 316.17 304.15 L 319.15 303.70 L 322.13 303.25 L 325.11 302.69 L 328.09 302.24 L 331.06 301.88 L 334.04 301.50 L 337.02 301.14 L 340.00 300.69 L 342.98 300.24 L 345.96 299.23 L 348.94 297.22 L 351.91 294.83 L 354.89 292.65 L 357.87 291.54 L 360.85 289.87 L 363.83 288.77 L 366.81 287.80 L 369.79 286.85 L 372.77 285.95 L 375.74 284.56 L 378.72 283.46 L 381.70 282.04 L 384.68 281.75 L 387.66 281.72 L 390.64 281.67 L 393.62 281.63 L 396.60 281.57 L 399.57 281.52 L 402.55 281.51 L 405.53 281.44 L 408.51 281.37 L 411.49 281.33 L 414.47 281.31 L 417.45 281.24 L 420.43 279.42 L 423.40 276.58 L 426.38 274.68 L 429.36 272.47 L 432.34 270.19 L 435.32 268.41 L 438.30 266.41 L 441.28 263.37 L 444.26 259.26 L 447.23 256.59 L 450.21 253.40 L 453.19 249.85 L 456.17 247.00 L 459.15 243.91 L 462.13 241.17 L 465.11 238.46 L 468.09 235.75 L 471.06 232.06 L 474.04 228.36 L 477.02 225.28 L 480.00 222.69 L 482.98 220.19 L 485.96 216.86 L 488.94 214.28 L 491.91 211.73 L 494.89 209.34 L 497.87 207.09 L 500.85 204.79 L 503.83 202.82 L 506.81 200.77 L 509.79 198.69 L 512.77 196.49 L 515.74 194.47 L 518.72 192.62 L 521.70 189.27 L 524.68 186.46 L 527.66 183.77 L 530.64 181.18 L 533.62 177.09 L 536.60 174.51 L 539.57 172.27 L 542.55 169.63 L 545.53 165.73 L 548.51 162.93 L 551.49 160.56 L 554.47 158.56 L 557.45 156.66 L 560.43 155.11 L 563.40 153.37 L 566.38 151.95 L 569.36 150.28 L 572.34 147.87 L 575.32 145.80 L 578.30 144.00 L 581.28 142.44 L 584.26 140.84 L 587.23 139.48 L 590.21 137.21 L 593.19 135.26 L 596.17 133.34 L 599.15 131.74 L 602.13 130.28 L 605.11 128.98 L 608.09 126.76 L 611.06 124.95 L 614.04 123.31 L 617.02 121.74 L 620.00 120.36 L 622.98 119.03 L 625.96 117.81 L 628.94 116.64 L 631.91 115.57 L 634.89 114.23 L 637.87 112.79 L 640.85 111.46 L 643.83 109.41 L 646.81 107.92 L 649.79 106.49 L 652.77 105.24 L 655.74 103.77 L 658.72 101.96 L 661.70 100.36 L 664.68 98.94 L 667.66 97.39 L 670.64 95.25 L 673.62 93.49 L 676.60 91.61 L 679.57 89.74 L 682.55 87.99 L 685.53 86.27 L 688.51 84.46 L 691.49 82.83 L 694.47 81.40 L 697.45 80.08 L 700.43 78.69 L 703.40 77.32 L 706.38 76.09 L 709.36 74.86 L 712.34 73.67 L 715.32 72.50 L 718.30 71.33 L 721.28 70.29 L 724.26 69.09 L 727.23 67.85 L 730.21 66.43 L 733.19 65.07 L 736.17 63.85 L 739.15 62.78 L 742.13 61.68 L 745.11 60.67 L 748.09 59.52 L 751.06 58.38 L 754.04 57.29 L 757.02 56.19 L 760.00 55.00
    L 760 340
    Z" fill="url(#areaGradient)" class="area-path"/>

  <!-- Main line with glow -->
  <path d="M 60.00 340.00 L 62.98 339.82 L 65.96 339.50 L 68.94 339.21 L 71.91 338.64 L 74.89 338.04 L 77.87 337.57 L 80.85 337.13 L 83.83 336.75 L 86.81 336.29 L 89.79 335.78 L 92.77 335.23 L 95.74 334.74 L 98.72 334.21 L 101.70 333.83 L 104.68 333.43 L 107.66 332.89 L 110.64 332.53 L 113.62 332.03 L 116.60 331.45 L 119.57 331.01 L 122.55 330.66 L 125.53 330.43 L 128.51 330.23 L 131.49 329.88 L 134.47 329.62 L 137.45 329.07 L 140.43 328.85 L 143.40 328.56 L 146.38 328.20 L 149.36 327.95 L 152.34 327.69 L 155.32 327.43 L 158.30 327.24 L 161.28 327.08 L 164.26 326.84 L 167.23 326.54 L 170.21 326.27 L 173.19 325.92 L 176.17 325.55 L 179.15 325.20 L 182.13 324.79 L 185.11 324.38 L 188.09 323.97 L 191.06 323.52 L 194.04 323.09 L 197.02 322.60 L 200.00 322.17 L 202.98 321.80 L 205.96 321.50 L 208.94 321.09 L 211.91 320.62 L 214.89 320.19 L 217.87 319.68 L 220.85 319.06 L 223.83 318.60 L 226.81 318.21 L 229.79 317.85 L 232.77 317.41 L 235.74 316.90 L 238.72 316.33 L 241.70 315.74 L 244.68 315.17 L 247.66 314.67 L 250.64 314.17 L 253.62 313.73 L 256.60 313.28 L 259.57 312.78 L 262.55 312.16 L 265.53 311.70 L 268.51 311.28 L 271.49 310.82 L 274.47 310.39 L 277.45 309.92 L 280.43 309.42 L 283.40 308.91 L 286.38 308.46 L 289.36 308.07 L 292.34 307.64 L 295.32 307.19 L 298.30 306.76 L 301.28 306.21 L 304.26 305.73 L 307.23 305.27 L 310.21 304.89 L 313.19 304.52 L 316.17 304.15 L 319.15 303.70 L 322.13 303.25 L 325.11 302.69 L 328.09 302.24 L 331.06 301.88 L 334.04 301.50 L 337.02 301.14 L 340.00 300.69 L 342.98 300.24 L 345.96 299.23 L 348.94 297.22 L 351.91 294.83 L 354.89 292.65 L 357.87 291.54 L 360.85 289.87 L 363.83 288.77 L 366.81 287.80 L 369.79 286.85 L 372.77 285.95 L 375.74 284.56 L 378.72 283.46 L 381.70 282.04 L 384.68 281.75 L 387.66 281.72 L 390.64 281.67 L 393.62 281.63 L 396.60 281.57 L 399.57 281.52 L 402.55 281.51 L 405.53 281.44 L 408.51 281.37 L 411.49 281.33 L 414.47 281.31 L 417.45 281.24 L 420.43 279.42 L 423.40 276.58 L 426.38 274.68 L 429.36 272.47 L 432.34 270.19 L 435.32 268.41 L 438.30 266.41 L 441.28 263.37 L 444.26 259.26 L 447.23 256.59 L 450.21 253.40 L 453.19 249.85 L 456.17 247.00 L 459.15 243.91 L 462.13 241.17 L 465.11 238.46 L 468.09 235.75 L 471.06 232.06 L 474.04 228.36 L 477.02 225.28 L 480.00 222.69 L 482.98 220.19 L 485.96 216.86 L 488.94 214.28 L 491.91 211.73 L 494.89 209.34 L 497.87 207.09 L 500.85 204.79 L 503.83 202.82 L 506.81 200.77 L 509.79 198.69 L 512.77 196.49 L 515.74 194.47 L 518.72 192.62 L 521.70 189.27 L 524.68 186.46 L 527.66 183.77 L 530.64 181.18 L 533.62 177.09 L 536.60 174.51 L 539.57 172.27 L 542.55 169.63 L 545.53 165.73 L 548.51 162.93 L 551.49 160.56 L 554.47 158.56 L 557.45 156.66 L 560.43 155.11 L 563.40 153.37 L 566.38 151.95 L 569.36 150.28 L 572.34 147.87 L 575.32 145.80 L 578.30 144.00 L 581.28 142.44 L 584.26 140.84 L 587.23 139.48 L 590.21 137.21 L 593.19 135.26 L 596.17 133.34 L 599.15 131.74 L 602.13 130.28 L 605.11 128.98 L 608.09 126.76 L 611.06 124.95 L 614.04 123.31 L 617.02 121.74 L 620.00 120.36 L 622.98 119.03 L 625.96 117.81 L 628.94 116.64 L 631.91 115.57 L 634.89 114.23 L 637.87 112.79 L 640.85 111.46 L 643.83 109.41 L 646.81 107.92 L 649.79 106.49 L 652.77 105.24 L 655.74 103.77 L 658.72 101.96 L 661.70 100.36 L 664.68 98.94 L 667.66 97.39 L 670.64 95.25 L 673.62 93.49 L 676.60 91.61 L 679.57 89.74 L 682.55 87.99 L 685.53 86.27 L 688.51 84.46 L 691.49 82.83 L 694.47 81.40 L 697.45 80.08 L 700.43 78.69 L 703.40 77.32 L 706.38 76.09 L 709.36 74.86 L 712.34 73.67 L 715.32 72.50 L 718.30 71.33 L 721.28 70.29 L 724.26 69.09 L 727.23 67.85 L 730.21 66.43 L 733.19 65.07 L 736.17 63.85 L 739.15 62.78 L 742.13 61.68 L 745.11 60.67 L 748.09 59.52 L 751.06 58.38 L 754.04 57.29 L 757.02 56.19 L 760.00 55.00" fill="none" stroke="#3b82f6" stroke-width="3"
        stroke-linecap="round" stroke-linejoin="round" filter="url(#glow)" class="line-path"/>

  <!-- Data points -->
  
    <circle cx="60" cy="340" r="4" fill="#3b82f6" stroke="#0d1117" stroke-width="2" class="data-point"/>
  
    <circle cx="62.97872340425532" cy="339.81611450542505" r="4" fill="#3b82f6" stroke="#0d1117" stroke-width="2" class="data-point"/>
  
    <circle cx="65.95744680851064" cy="339.50338407247443" r="4" fill="#3b82f6" stroke="#0d1117" stroke-width="2" class="data-point"/>
  
    <circle cx="68.93617021276596" cy="339.2131702306963" r="4" fill="#3b82f6" stroke="#0d1117" stroke-width="2" class="data-point"/>
  
    <circle cx="71.91489361702128" cy="338.6364953123354" r="4" fill="#3b82f6" stroke="#0d1117" stroke-width="2" class="data-point"/>
  
    <circle cx="74.8936170212766" cy="338.0410565679975" r="4" fill="#3b82f6" stroke="#0d1117" stroke-width="2" class="data-point"/>
  
    <circle cx="77.87234042553192" cy="337.57196091857156" r="4" fill="#3b82f6" stroke="#0d1117" stroke-width="2" class="data-point"/>
  
    <circle cx="80.85106382978724" cy="337.13413831244077" r="4" fill="#3b82f6" stroke="#0d1117" stroke-width="2" class="data-point"/>
  
    <circle cx="83.82978723404256" cy="336.7451016538502" r="4" fill="#3b82f6" stroke="#0d1117" stroke-width="2" class="data-point"/>
  
    <circle cx="86.80851063829788" cy="336.28851522174233" r="4" fill="#3b82f6" stroke="#0d1117" stroke-width="2" class="data-point"/>
  
    <circle cx="89.7872340425532" cy="335.7793900768988" r="4" fill="#3b82f6" stroke="#0d1117" stroke-width="2" class="data-point"/>
  
    <circle cx="92.7659574468085" cy="335.2339882018329" r="4" fill="#3b82f6" stroke="#0d1117" stroke-width="2" class="data-point"/>
  
    <circle cx="95.74468085106383" cy="334.7386231960392" r="4" fill="#3b82f6" stroke="#0d1117" stroke-width="2" class="data-point"/>
  
    <circle cx="98.72340425531914" cy="334.2119851469504" r="4" fill="#3b82f6" stroke="#0d1117" stroke-width="2" class="data-point"/>
  
    <circle cx="101.70212765957447" cy="333.82795217528707" r="4" fill="#3b82f6" stroke="#0d1117" stroke-width="2" class="data-point"/>
  
    <circle cx="104.68085106382978" cy="333.4301590645739" r="4" fill="#3b82f6" stroke="#0d1117" stroke-width="2" class="data-point"/>
  
    <circle cx="107.65957446808511" cy="332.8897608764353" r="4" fill="#3b82f6" stroke="#0d1117" stroke-width="2" class="data-point"/>
  
    <circle cx="110.63829787234042" cy="332.52824449594436" r="4" fill="#3b82f6" stroke="#0d1117" stroke-width="2" class="data-point"/>
  
    <circle cx="113.61702127659575" cy="332.0278758032234" r="4" fill="#3b82f6" stroke="#0d1117" stroke-width="2" class="data-point"/>
  
    <circle cx="116.59574468085107" cy="331.44994996313073" r="4" fill="#3b82f6" stroke="#0d1117" stroke-width="2" class="data-point"/>
  
    <circle cx="119.57446808510639" cy="331.0146292004635" r="4" fill="#3b82f6" stroke="#0d1117" stroke-width="2" class="data-point"/>
  
    <circle cx="122.55319148936171" cy="330.656865585168" r="4" fill="#3b82f6" stroke="#0d1117" stroke-width="2" class="data-point"/>
  
    <circle cx="125.53191489361701" cy="330.4254450647846" r="4" fill="#3b82f6" stroke="#0d1117" stroke-width="2" class="data-point"/>
  
    <circle cx="128.51063829787233" cy="330.232803118087" r="4" fill="#3b82f6" stroke="#0d1117" stroke-width="2" class="data-point"/>
  
    <circle cx="131.48936170212767" cy="329.87629042452335" r="4" fill="#3b82f6" stroke="#0d1117" stroke-width="2" class="data-point"/>
  
    <circle cx="134.468085106383" cy="329.62235331296745" r="4" fill="#3b82f6" stroke="#0d1117" stroke-width="2" class="data-point"/>
  
    <circle cx="137.44680851063828" cy="329.0656931423154" r="4" fill="#3b82f6" stroke="#0d1117" stroke-width="2" class="data-point"/>
  
    <circle cx="140.4255319148936" cy="328.84678183924996" r="4" fill="#3b82f6" stroke="#0d1117" stroke-width="2" class="data-point"/>
  
    <circle cx="143.40425531914894" cy="328.56407352786266" r="4" fill="#3b82f6" stroke="#0d1117" stroke-width="2" class="data-point"/>
  
    <circle cx="146.38297872340425" cy="328.1988043821763" r="4" fill="#3b82f6" stroke="#0d1117" stroke-width="2" class="data-point"/>
  
    <circle cx="149.36170212765956" cy="327.94862003581585" r="4" fill="#3b82f6" stroke="#0d1117" stroke-width="2" class="data-point"/>
  
    <circle cx="152.3404255319149" cy="327.69468292426" r="4" fill="#3b82f6" stroke="#0d1117" stroke-width="2" class="data-point"/>
  
    <circle cx="155.31914893617022" cy="327.42823659538607" r="4" fill="#3b82f6" stroke="#0d1117" stroke-width="2" class="data-point"/>
  
    <circle cx="158.29787234042556" cy="327.2431001790793" r="4" fill="#3b82f6" stroke="#0d1117" stroke-width="2" class="data-point"/>
  
    <circle cx="161.27659574468083" cy="327.0829821974086" r="4" fill="#3b82f6" stroke="#0d1117" stroke-width="2" class="data-point"/>
  
    <circle cx="164.25531914893617" cy="326.83905245970715" r="4" fill="#3b82f6" stroke="#0d1117" stroke-width="2" class="data-point"/>
  
    <circle cx="167.2340425531915" cy="326.54258400927" r="4" fill="#3b82f6" stroke="#0d1117" stroke-width="2" class="data-point"/>
  
    <circle cx="170.2127659574468" cy="326.26988307173707" r="4" fill="#3b82f6" stroke="#0d1117" stroke-width="2" class="data-point"/>
  
    <circle cx="173.19148936170214" cy="325.9246286737596" r="4" fill="#3b82f6" stroke="#0d1117" stroke-width="2" class="data-point"/>
  
    <circle cx="176.17021276595744" cy="325.5481012324871" r="4" fill="#3b82f6" stroke="#0d1117" stroke-width="2" class="data-point"/>
  
    <circle cx="179.14893617021278" cy="325.2028468345096" r="4" fill="#3b82f6" stroke="#0d1117" stroke-width="2" class="data-point"/>
  
    <circle cx="182.12765957446808" cy="324.7862898978195" r="4" fill="#3b82f6" stroke="#0d1117" stroke-width="2" class="data-point"/>
  
    <circle cx="185.10638297872342" cy="324.3772384915201" r="4" fill="#3b82f6" stroke="#0d1117" stroke-width="2" class="data-point"/>
  
    <circle cx="188.08510638297872" cy="323.9681870852207" r="4" fill="#3b82f6" stroke="#0d1117" stroke-width="2" class="data-point"/>
  
    <circle cx="191.06382978723403" cy="323.52035710523546" r="4" fill="#3b82f6" stroke="#0d1117" stroke-width="2" class="data-point"/>
  
    <circle cx="194.04255319148936" cy="323.09254187295903" r="4" fill="#3b82f6" stroke="#0d1117" stroke-width="2" class="data-point"/>
  
    <circle cx="197.0212765957447" cy="322.60343147582427" r="4" fill="#3b82f6" stroke="#0d1117" stroke-width="2" class="data-point"/>
  
    <circle cx="200" cy="322.1668597914253" r="4" fill="#3b82f6" stroke="#0d1117" stroke-width="2" class="data-point"/>
  
    <circle cx="202.9787234042553" cy="321.79783788054357" r="4" fill="#3b82f6" stroke="#0d1117" stroke-width="2" class="data-point"/>
  
    <circle cx="205.95744680851064" cy="321.5026203518382" r="4" fill="#3b82f6" stroke="#0d1117" stroke-width="2" class="data-point"/>
  
    <circle cx="208.93617021276597" cy="321.0898161803434" r="4" fill="#3b82f6" stroke="#0d1117" stroke-width="2" class="data-point"/>
  
    <circle cx="211.91489361702128" cy="320.6182186874539" r="4" fill="#3b82f6" stroke="#0d1117" stroke-width="2" class="data-point"/>
  
    <circle cx="214.89361702127658" cy="320.1866506899821" r="4" fill="#3b82f6" stroke="#0d1117" stroke-width="2" class="data-point"/>
  
    <circle cx="217.87234042553192" cy="319.68252923206575" r="4" fill="#3b82f6" stroke="#0d1117" stroke-width="2" class="data-point"/>
  
    <circle cx="220.85106382978722" cy="319.06082113135994" r="4" fill="#3b82f6" stroke="#0d1117" stroke-width="2" class="data-point"/>
  
    <circle cx="223.82978723404256" cy="318.59798009059307" r="4" fill="#3b82f6" stroke="#0d1117" stroke-width="2" class="data-point"/>
  
    <circle cx="226.8085106382979" cy="318.21394711892975" r="4" fill="#3b82f6" stroke="#0d1117" stroke-width="2" class="data-point"/>
  
    <circle cx="229.7872340425532" cy="317.84867797324347" r="4" fill="#3b82f6" stroke="#0d1117" stroke-width="2" class="data-point"/>
  
    <circle cx="232.7659574468085" cy="317.4096044453808" r="4" fill="#3b82f6" stroke="#0d1117" stroke-width="2" class="data-point"/>
  
    <circle cx="235.7446808510638" cy="316.89922837880545" r="4" fill="#3b82f6" stroke="#0d1117" stroke-width="2" class="data-point"/>
  
    <circle cx="238.72340425531914" cy="316.33381175603074" r="4" fill="#3b82f6" stroke="#0d1117" stroke-width="2" class="data-point"/>
  
    <circle cx="241.70212765957447" cy="315.73962393342464" r="4" fill="#3b82f6" stroke="#0d1117" stroke-width="2" class="data-point"/>
  
    <circle cx="244.68085106382978" cy="315.16920362372275" r="4" fill="#3b82f6" stroke="#0d1117" stroke-width="2" class="data-point"/>
  
    <circle cx="247.6595744680851" cy="314.66758400927" r="4" fill="#3b82f6" stroke="#0d1117" stroke-width="2" class="data-point"/>
  
    <circle cx="250.63829787234042" cy="314.1697171600126" r="4" fill="#3b82f6" stroke="#0d1117" stroke-width="2" class="data-point"/>
  
    <circle cx="253.61702127659575" cy="313.73064363215" r="4" fill="#3b82f6" stroke="#0d1117" stroke-width="2" class="data-point"/>
  
    <circle cx="256.5957446808511" cy="313.28281365216475" r="4" fill="#3b82f6" stroke="#0d1117" stroke-width="2" class="data-point"/>
  
    <circle cx="259.5744680851064" cy="312.7824449594438" r="4" fill="#3b82f6" stroke="#0d1117" stroke-width="2" class="data-point"/>
  
    <circle cx="262.55319148936167" cy="312.1594859370062" r="4" fill="#3b82f6" stroke="#0d1117" stroke-width="2" class="data-point"/>
  
    <circle cx="265.531914893617" cy="311.6953939745075" r="4" fill="#3b82f6" stroke="#0d1117" stroke-width="2" class="data-point"/>
  
    <circle cx="268.51063829787233" cy="311.2800879595491" r="4" fill="#3b82f6" stroke="#0d1117" stroke-width="2" class="data-point"/>
  
    <circle cx="271.48936170212767" cy="310.81849784051406" r="4" fill="#3b82f6" stroke="#0d1117" stroke-width="2" class="data-point"/>
  
    <circle cx="274.468085106383" cy="310.38818076477406" r="4" fill="#3b82f6" stroke="#0d1117" stroke-width="2" class="data-point"/>
  
    <circle cx="277.44680851063833" cy="309.91533235015277" r="4" fill="#3b82f6" stroke="#0d1117" stroke-width="2" class="data-point"/>
  
    <circle cx="280.4255319148936" cy="309.4224691878226" r="4" fill="#3b82f6" stroke="#0d1117" stroke-width="2" class="data-point"/>
  
    <circle cx="283.40425531914894" cy="308.90708943432" r="4" fill="#3b82f6" stroke="#0d1117" stroke-width="2" class="data-point"/>
  
    <circle cx="286.3829787234043" cy="308.4555066891394" r="4" fill="#3b82f6" stroke="#0d1117" stroke-width="2" class="data-point"/>
  
    <circle cx="289.36170212765956" cy="308.06897187401245" r="4" fill="#3b82f6" stroke="#0d1117" stroke-width="2" class="data-point"/>
  
    <circle cx="292.3404255319149" cy="307.64490940693145" r="4" fill="#3b82f6" stroke="#0d1117" stroke-width="2" class="data-point"/>
  
    <circle cx="295.3191489361702" cy="307.18582113135994" r="4" fill="#3b82f6" stroke="#0d1117" stroke-width="2" class="data-point"/>
  
    <circle cx="298.29787234042556" cy="306.76050774254713" r="4" fill="#3b82f6" stroke="#0d1117" stroke-width="2" class="data-point"/>
  
    <circle cx="301.2765957446809" cy="306.20634941535866" r="4" fill="#3b82f6" stroke="#0d1117" stroke-width="2" class="data-point"/>
  
    <circle cx="304.25531914893617" cy="305.729748235542" r="4" fill="#3b82f6" stroke="#0d1117" stroke-width="2" class="data-point"/>
  
    <circle cx="307.2340425531915" cy="305.2706599599705" r="4" fill="#3b82f6" stroke="#0d1117" stroke-width="2" class="data-point"/>
  
    <circle cx="310.21276595744683" cy="304.8891288317708" r="4" fill="#3b82f6" stroke="#0d1117" stroke-width="2" class="data-point"/>
  
    <circle cx="313.1914893617021" cy="304.51885599915727" r="4" fill="#3b82f6" stroke="#0d1117" stroke-width="2" class="data-point"/>
  
    <circle cx="316.17021276595744" cy="304.147332244812" r="4" fill="#3b82f6" stroke="#0d1117" stroke-width="2" class="data-point"/>
  
    <circle cx="319.1489361702128" cy="303.7032550300221" r="4" fill="#3b82f6" stroke="#0d1117" stroke-width="2" class="data-point"/>
  
    <circle cx="322.12765957446805" cy="303.24666859791427" r="4" fill="#3b82f6" stroke="#0d1117" stroke-width="2" class="data-point"/>
  
    <circle cx="325.1063829787234" cy="302.6925102707258" r="4" fill="#3b82f6" stroke="#0d1117" stroke-width="2" class="data-point"/>
  
    <circle cx="328.0851063829787" cy="302.24342936900877" r="4" fill="#3b82f6" stroke="#0d1117" stroke-width="2" class="data-point"/>
  
    <circle cx="331.06382978723406" cy="301.8769093015907" r="4" fill="#3b82f6" stroke="#0d1117" stroke-width="2" class="data-point"/>
  
    <circle cx="334.0425531914894" cy="301.50038186031816" r="4" fill="#3b82f6" stroke="#0d1117" stroke-width="2" class="data-point"/>
  
    <circle cx="337.02127659574467" cy="301.14011640155906" r="4" fill="#3b82f6" stroke="#0d1117" stroke-width="2" class="data-point"/>
  
    <circle cx="340" cy="300.6947882650374" r="4" fill="#3b82f6" stroke="#0d1117" stroke-width="2" class="data-point"/>
  
    <circle cx="342.9787234042553" cy="300.2382018329295" r="4" fill="#3b82f6" stroke="#0d1117" stroke-width="2" class="data-point"/>
  
    <circle cx="345.9574468085106" cy="299.228707995365" r="4" fill="#3b82f6" stroke="#0d1117" stroke-width="2" class="data-point"/>
  
    <circle cx="348.93617021276594" cy="297.21972769409035" r="4" fill="#3b82f6" stroke="#0d1117" stroke-width="2" class="data-point"/>
  
    <circle cx="351.9148936170213" cy="294.8267144211524" r="4" fill="#3b82f6" stroke="#0d1117" stroke-width="2" class="data-point"/>
  
    <circle cx="354.8936170212766" cy="292.6463578426209" r="4" fill="#3b82f6" stroke="#0d1117" stroke-width="2" class="data-point"/>
  
    <circle cx="357.87234042553195" cy="291.54054303170756" r="4" fill="#3b82f6" stroke="#0d1117" stroke-width="2" class="data-point"/>
  
    <circle cx="360.8510638297872" cy="289.8743152849468" r="4" fill="#3b82f6" stroke="#0d1117" stroke-width="2" class="data-point"/>
  
    <circle cx="363.82978723404256" cy="288.7672495523017" r="4" fill="#3b82f6" stroke="#0d1117" stroke-width="2" class="data-point"/>
  
    <circle cx="366.8085106382979" cy="287.79653428842306" r="4" fill="#3b82f6" stroke="#0d1117" stroke-width="2" class="data-point"/>
  
    <circle cx="369.78723404255317" cy="286.84708469398504" r="4" fill="#3b82f6" stroke="#0d1117" stroke-width="2" class="data-point"/>
  
    <circle cx="372.7659574468085" cy="285.95267565574636" r="4" fill="#3b82f6" stroke="#0d1117" stroke-width="2" class="data-point"/>
  
    <circle cx="375.74468085106383" cy="284.5616506899821" r="4" fill="#3b82f6" stroke="#0d1117" stroke-width="2" class="data-point"/>
  
    <circle cx="378.72340425531917" cy="283.4558358790688" r="4" fill="#3b82f6" stroke="#0d1117" stroke-width="2" class="data-point"/>
  
    <circle cx="381.70212765957444" cy="282.0422943221321" r="4" fill="#3b82f6" stroke="#0d1117" stroke-width="2" class="data-point"/>
  
    <circle cx="384.6808510638298" cy="281.75333140208573" r="4" fill="#3b82f6" stroke="#0d1117" stroke-width="2" class="data-point"/>
  
    <circle cx="387.6595744680851" cy="281.71580375013167" r="4" fill="#3b82f6" stroke="#0d1117" stroke-width="2" class="data-point"/>
  
    <circle cx="390.63829787234044" cy="281.6670178025914" r="4" fill="#3b82f6" stroke="#0d1117" stroke-width="2" class="data-point"/>
  
    <circle cx="393.6170212765958" cy="281.6257373854419" r="4" fill="#3b82f6" stroke="#0d1117" stroke-width="2" class="data-point"/>
  
    <circle cx="396.59574468085106" cy="281.5719477509744" r="4" fill="#3b82f6" stroke="#0d1117" stroke-width="2" class="data-point"/>
  
    <circle cx="399.5744680851064" cy="281.5244127251659" r="4" fill="#3b82f6" stroke="#0d1117" stroke-width="2" class="data-point"/>
  
    <circle cx="402.55319148936167" cy="281.5056488991889" r="4" fill="#3b82f6" stroke="#0d1117" stroke-width="2" class="data-point"/>
  
    <circle cx="405.531914893617" cy="281.43684820393975" r="4" fill="#3b82f6" stroke="#0d1117" stroke-width="2" class="data-point"/>
  
    <circle cx="408.51063829787233" cy="281.3705493521542" r="4" fill="#3b82f6" stroke="#0d1117" stroke-width="2" class="data-point"/>
  
    <circle cx="411.4893617021276" cy="281.3267670915411" r="4" fill="#3b82f6" stroke="#0d1117" stroke-width="2" class="data-point"/>
  
    <circle cx="414.46808510638294" cy="281.3105051090277" r="4" fill="#3b82f6" stroke="#0d1117" stroke-width="2" class="data-point"/>
  
    <circle cx="417.4468085106383" cy="281.2367007268514" r="4" fill="#3b82f6" stroke="#0d1117" stroke-width="2" class="data-point"/>
  
    <circle cx="420.4255319148936" cy="279.42286421573795" r="4" fill="#3b82f6" stroke="#0d1117" stroke-width="2" class="data-point"/>
  
    <circle cx="423.40425531914894" cy="276.5820209628147" r="4" fill="#3b82f6" stroke="#0d1117" stroke-width="2" class="data-point"/>
  
    <circle cx="426.3829787234042" cy="274.67936900874327" r="4" fill="#3b82f6" stroke="#0d1117" stroke-width="2" class="data-point"/>
  
    <circle cx="429.36170212765956" cy="272.4702412303803" r="4" fill="#3b82f6" stroke="#0d1117" stroke-width="2" class="data-point"/>
  
    <circle cx="432.3404255319149" cy="270.19356367849997" r="4" fill="#3b82f6" stroke="#0d1117" stroke-width="2" class="data-point"/>
  
    <circle cx="435.3191489361702" cy="268.4072474454862" r="4" fill="#3b82f6" stroke="#0d1117" stroke-width="2" class="data-point"/>
  
    <circle cx="438.29787234042556" cy="266.40952543979773" r="4" fill="#3b82f6" stroke="#0d1117" stroke-width="2" class="data-point"/>
  
    <circle cx="441.27659574468083" cy="263.36603286632254" r="4" fill="#3b82f6" stroke="#0d1117" stroke-width="2" class="data-point"/>
  
    <circle cx="444.25531914893617" cy="259.26426050774256" r="4" fill="#3b82f6" stroke="#0d1117" stroke-width="2" class="data-point"/>
  
    <circle cx="447.2340425531915" cy="256.58728800168547" r="4" fill="#3b82f6" stroke="#0d1117" stroke-width="2" class="data-point"/>
  
    <circle cx="450.21276595744683" cy="253.4011903507848" r="4" fill="#3b82f6" stroke="#0d1117" stroke-width="2" class="data-point"/>
  
    <circle cx="453.19148936170217" cy="249.85107447592964" r="4" fill="#3b82f6" stroke="#0d1117" stroke-width="2" class="data-point"/>
  
    <circle cx="456.1702127659575" cy="247.0039766143474" r="4" fill="#3b82f6" stroke="#0d1117" stroke-width="2" class="data-point"/>
  
    <circle cx="459.1489361702128" cy="243.9141999367955" r="4" fill="#3b82f6" stroke="#0d1117" stroke-width="2" class="data-point"/>
  
    <circle cx="462.1276595744681" cy="241.17343042241652" r="4" fill="#3b82f6" stroke="#0d1117" stroke-width="2" class="data-point"/>
  
    <circle cx="465.1063829787234" cy="238.45767934267354" r="4" fill="#3b82f6" stroke="#0d1117" stroke-width="2" class="data-point"/>
  
    <circle cx="468.08510638297867" cy="235.7494337933214" r="4" fill="#3b82f6" stroke="#0d1117" stroke-width="2" class="data-point"/>
  
    <circle cx="471.063829787234" cy="232.06171652796797" r="4" fill="#3b82f6" stroke="#0d1117" stroke-width="2" class="data-point"/>
  
    <circle cx="474.04255319148933" cy="228.36274096702834" r="4" fill="#3b82f6" stroke="#0d1117" stroke-width="2" class="data-point"/>
  
    <circle cx="477.02127659574467" cy="225.27921889813547" r="4" fill="#3b82f6" stroke="#0d1117" stroke-width="2" class="data-point"/>
  
    <circle cx="480" cy="222.69481460023175" r="4" fill="#3b82f6" stroke="#0d1117" stroke-width="2" class="data-point"/>
  
    <circle cx="482.97872340425533" cy="220.18796744969978" r="4" fill="#3b82f6" stroke="#0d1117" stroke-width="2" class="data-point"/>
  
    <circle cx="485.9574468085106" cy="216.86051564310543" r="4" fill="#3b82f6" stroke="#0d1117" stroke-width="2" class="data-point"/>
  
    <circle cx="488.93617021276594" cy="214.2798641103971" r="4" fill="#3b82f6" stroke="#0d1117" stroke-width="2" class="data-point"/>
  
    <circle cx="491.9148936170213" cy="211.72673285578847" r="4" fill="#3b82f6" stroke="#0d1117" stroke-width="2" class="data-point"/>
  
    <circle cx="494.8936170212766" cy="209.33872326977774" r="4" fill="#3b82f6" stroke="#0d1117" stroke-width="2" class="data-point"/>
  
    <circle cx="497.87234042553195" cy="207.08956599599705" r="4" fill="#3b82f6" stroke="#0d1117" stroke-width="2" class="data-point"/>
  
    <circle cx="500.8510638297872" cy="204.78536816601707" r="4" fill="#3b82f6" stroke="#0d1117" stroke-width="2" class="data-point"/>
  
    <circle cx="503.82978723404256" cy="202.81516643842832" r="4" fill="#3b82f6" stroke="#0d1117" stroke-width="2" class="data-point"/>
  
    <circle cx="506.8085106382979" cy="200.77491309385863" r="4" fill="#3b82f6" stroke="#0d1117" stroke-width="2" class="data-point"/>
  
    <circle cx="509.7872340425532" cy="198.6921284104077" r="4" fill="#3b82f6" stroke="#0d1117" stroke-width="2" class="data-point"/>
  
    <circle cx="512.7659574468086" cy="196.49050616243548" r="4" fill="#3b82f6" stroke="#0d1117" stroke-width="2" class="data-point"/>
  
    <circle cx="515.7446808510639" cy="194.47026756557463" r="4" fill="#3b82f6" stroke="#0d1117" stroke-width="2" class="data-point"/>
  
    <circle cx="518.7234042553191" cy="192.6201543242389" r="4" fill="#3b82f6" stroke="#0d1117" stroke-width="2" class="data-point"/>
  
    <circle cx="521.7021276595744" cy="189.26768408300853" r="4" fill="#3b82f6" stroke="#0d1117" stroke-width="2" class="data-point"/>
  
    <circle cx="524.6808510638298" cy="186.4618666385758" r="4" fill="#3b82f6" stroke="#0d1117" stroke-width="2" class="data-point"/>
  
    <circle cx="527.6595744680851" cy="183.76738122827348" r="4" fill="#3b82f6" stroke="#0d1117" stroke-width="2" class="data-point"/>
  
    <circle cx="530.6382978723404" cy="181.17922416517433" r="4" fill="#3b82f6" stroke="#0d1117" stroke-width="2" class="data-point"/>
  
    <circle cx="533.6170212765958" cy="177.09246286737596" r="4" fill="#3b82f6" stroke="#0d1117" stroke-width="2" class="data-point"/>
  
    <circle cx="536.5957446808511" cy="174.50680764774046" r="4" fill="#3b82f6" stroke="#0d1117" stroke-width="2" class="data-point"/>
  
    <circle cx="539.5744680851064" cy="172.26890866954597" r="4" fill="#3b82f6" stroke="#0d1117" stroke-width="2" class="data-point"/>
  
    <circle cx="542.5531914893618" cy="169.62571105024753" r="4" fill="#3b82f6" stroke="#0d1117" stroke-width="2" class="data-point"/>
  
    <circle cx="545.531914893617" cy="165.72908985568313" r="4" fill="#3b82f6" stroke="#0d1117" stroke-width="2" class="data-point"/>
  
    <circle cx="548.5106382978723" cy="162.92577425471399" r="4" fill="#3b82f6" stroke="#0d1117" stroke-width="2" class="data-point"/>
  
    <circle cx="551.4893617021277" cy="160.5590303381439" r="4" fill="#3b82f6" stroke="#0d1117" stroke-width="2" class="data-point"/>
  
    <circle cx="554.468085106383" cy="158.5563046455283" r="4" fill="#3b82f6" stroke="#0d1117" stroke-width="2" class="data-point"/>
  
    <circle cx="557.4468085106383" cy="156.65615453492046" r="4" fill="#3b82f6" stroke="#0d1117" stroke-width="2" class="data-point"/>
  
    <circle cx="560.4255319148937" cy="155.11126619614453" r="4" fill="#3b82f6" stroke="#0d1117" stroke-width="2" class="data-point"/>
  
    <circle cx="563.4042553191489" cy="153.3712340672074" r="4" fill="#3b82f6" stroke="#0d1117" stroke-width="2" class="data-point"/>
  
    <circle cx="566.3829787234042" cy="151.9526888233435" r="4" fill="#3b82f6" stroke="#0d1117" stroke-width="2" class="data-point"/>
  
    <circle cx="569.3617021276596" cy="150.27895554619195" r="4" fill="#3b82f6" stroke="#0d1117" stroke-width="2" class="data-point"/>
  
    <circle cx="572.3404255319149" cy="147.86968029074055" r="4" fill="#3b82f6" stroke="#0d1117" stroke-width="2" class="data-point"/>
  
    <circle cx="575.3191489361702" cy="145.79940482460762" r="4" fill="#3b82f6" stroke="#0d1117" stroke-width="2" class="data-point"/>
  
    <circle cx="578.2978723404256" cy="143.99932845254398" r="4" fill="#3b82f6" stroke="#0d1117" stroke-width="2" class="data-point"/>
  
    <circle cx="581.2765957446808" cy="142.4431818181818" r="4" fill="#3b82f6" stroke="#0d1117" stroke-width="2" class="data-point"/>
  
    <circle cx="584.2553191489361" cy="140.83824923627935" r="4" fill="#3b82f6" stroke="#0d1117" stroke-width="2" class="data-point"/>
  
    <circle cx="587.2340425531914" cy="139.48475192246917" r="4" fill="#3b82f6" stroke="#0d1117" stroke-width="2" class="data-point"/>
  
    <circle cx="590.2127659574468" cy="137.20932529232067" r="4" fill="#3b82f6" stroke="#0d1117" stroke-width="2" class="data-point"/>
  
    <circle cx="593.1914893617021" cy="135.26414199936795" r="4" fill="#3b82f6" stroke="#0d1117" stroke-width="2" class="data-point"/>
  
    <circle cx="596.1702127659574" cy="133.3352206889287" r="4" fill="#3b82f6" stroke="#0d1117" stroke-width="2" class="data-point"/>
  
    <circle cx="599.1489361702128" cy="131.74279732434425" r="4" fill="#3b82f6" stroke="#0d1117" stroke-width="2" class="data-point"/>
  
    <circle cx="602.1276595744681" cy="130.2817207415991" r="4" fill="#3b82f6" stroke="#0d1117" stroke-width="2" class="data-point"/>
  
    <circle cx="605.1063829787234" cy="128.98451490572" r="4" fill="#3b82f6" stroke="#0d1117" stroke-width="2" class="data-point"/>
  
    <circle cx="608.0851063829788" cy="126.76037606657536" r="4" fill="#3b82f6" stroke="#0d1117" stroke-width="2" class="data-point"/>
  
    <circle cx="611.0638297872341" cy="124.95404508585275" r="4" fill="#3b82f6" stroke="#0d1117" stroke-width="2" class="data-point"/>
  
    <circle cx="614.0425531914893" cy="123.3078320868008" r="4" fill="#3b82f6" stroke="#0d1117" stroke-width="2" class="data-point"/>
  
    <circle cx="617.0212765957447" cy="121.7354234699252" r="4" fill="#3b82f6" stroke="#0d1117" stroke-width="2" class="data-point"/>
  
    <circle cx="620" cy="120.36316233013798" r="4" fill="#3b82f6" stroke="#0d1117" stroke-width="2" class="data-point"/>
  
    <circle cx="622.9787234042553" cy="119.03093068576845" r="4" fill="#3b82f6" stroke="#0d1117" stroke-width="2" class="data-point"/>
  
    <circle cx="625.9574468085106" cy="117.81003107552934" r="4" fill="#3b82f6" stroke="#0d1117" stroke-width="2" class="data-point"/>
  
    <circle cx="628.9361702127659" cy="116.63916833456233" r="4" fill="#3b82f6" stroke="#0d1117" stroke-width="2" class="data-point"/>
  
    <circle cx="631.9148936170212" cy="115.56587748867585" r="4" fill="#3b82f6" stroke="#0d1117" stroke-width="2" class="data-point"/>
  
    <circle cx="634.8936170212766" cy="114.22614031391552" r="4" fill="#3b82f6" stroke="#0d1117" stroke-width="2" class="data-point"/>
  
    <circle cx="637.8723404255319" cy="112.78758032234279" r="4" fill="#3b82f6" stroke="#0d1117" stroke-width="2" class="data-point"/>
  
    <circle cx="640.8510638297872" cy="111.46410513009585" r="4" fill="#3b82f6" stroke="#0d1117" stroke-width="2" class="data-point"/>
  
    <circle cx="643.8297872340426" cy="109.40758980301277" r="4" fill="#3b82f6" stroke="#0d1117" stroke-width="2" class="data-point"/>
  
    <circle cx="646.8085106382979" cy="107.9152401769725" r="4" fill="#3b82f6" stroke="#0d1117" stroke-width="2" class="data-point"/>
  
    <circle cx="649.7872340425532" cy="106.48793848098597" r="4" fill="#3b82f6" stroke="#0d1117" stroke-width="2" class="data-point"/>
  
    <circle cx="652.7659574468086" cy="105.23576582745181" r="4" fill="#3b82f6" stroke="#0d1117" stroke-width="2" class="data-point"/>
  
    <circle cx="655.7446808510639" cy="103.76718371431582" r="4" fill="#3b82f6" stroke="#0d1117" stroke-width="2" class="data-point"/>
  
    <circle cx="658.7234042553191" cy="101.96335457705678" r="4" fill="#3b82f6" stroke="#0d1117" stroke-width="2" class="data-point"/>
  
    <circle cx="661.7021276595744" cy="100.36467660381334" r="4" fill="#3b82f6" stroke="#0d1117" stroke-width="2" class="data-point"/>
  
    <circle cx="664.6808510638298" cy="98.93737490782684" r="4" fill="#3b82f6" stroke="#0d1117" stroke-width="2" class="data-point"/>
  
    <circle cx="667.6595744680851" cy="97.38748288212366" r="4" fill="#3b82f6" stroke="#0d1117" stroke-width="2" class="data-point"/>
  
    <circle cx="670.6382978723404" cy="95.24965764247338" r="4" fill="#3b82f6" stroke="#0d1117" stroke-width="2" class="data-point"/>
  
    <circle cx="673.6170212765958" cy="93.49461445275466" r="4" fill="#3b82f6" stroke="#0d1117" stroke-width="2" class="data-point"/>
  
    <circle cx="676.5957446808511" cy="91.61197724639209" r="4" fill="#3b82f6" stroke="#0d1117" stroke-width="2" class="data-point"/>
  
    <circle cx="679.5744680851063" cy="89.7355946486885" r="4" fill="#3b82f6" stroke="#0d1117" stroke-width="2" class="data-point"/>
  
    <circle cx="682.5531914893617" cy="87.98805698936059" r="4" fill="#3b82f6" stroke="#0d1117" stroke-width="2" class="data-point"/>
  
    <circle cx="685.531914893617" cy="86.27304329505952" r="4" fill="#3b82f6" stroke="#0d1117" stroke-width="2" class="data-point"/>
  
    <circle cx="688.5106382978723" cy="84.45795586221425" r="4" fill="#3b82f6" stroke="#0d1117" stroke-width="2" class="data-point"/>
  
    <circle cx="691.4893617021277" cy="82.83050668913938" r="4" fill="#3b82f6" stroke="#0d1117" stroke-width="2" class="data-point"/>
  
    <circle cx="694.468085106383" cy="81.40445591488464" r="4" fill="#3b82f6" stroke="#0d1117" stroke-width="2" class="data-point"/>
  
    <circle cx="697.4468085106383" cy="80.08348256610134" r="4" fill="#3b82f6" stroke="#0d1117" stroke-width="2" class="data-point"/>
  
    <circle cx="700.4255319148936" cy="78.6862029916781" r="4" fill="#3b82f6" stroke="#0d1117" stroke-width="2" class="data-point"/>
  
    <circle cx="703.4042553191489" cy="77.3226983040135" r="4" fill="#3b82f6" stroke="#0d1117" stroke-width="2" class="data-point"/>
  
    <circle cx="706.3829787234042" cy="76.09054039818812" r="4" fill="#3b82f6" stroke="#0d1117" stroke-width="2" class="data-point"/>
  
    <circle cx="709.3617021276596" cy="74.85588064889919" r="4" fill="#3b82f6" stroke="#0d1117" stroke-width="2" class="data-point"/>
  
    <circle cx="712.3404255319149" cy="73.67375961234598" r="4" fill="#3b82f6" stroke="#0d1117" stroke-width="2" class="data-point"/>
  
    <circle cx="715.3191489361702" cy="72.49914410618351" r="4" fill="#3b82f6" stroke="#0d1117" stroke-width="2" class="data-point"/>
  
    <circle cx="718.2978723404256" cy="71.32703044348466" r="4" fill="#3b82f6" stroke="#0d1117" stroke-width="2" class="data-point"/>
  
    <circle cx="721.2765957446809" cy="70.29251817128409" r="4" fill="#3b82f6" stroke="#0d1117" stroke-width="2" class="data-point"/>
  
    <circle cx="724.2553191489362" cy="69.08913146529022" r="4" fill="#3b82f6" stroke="#0d1117" stroke-width="2" class="data-point"/>
  
    <circle cx="727.2340425531916" cy="67.84821710734224" r="4" fill="#3b82f6" stroke="#0d1117" stroke-width="2" class="data-point"/>
  
    <circle cx="730.2127659574469" cy="66.43467555040553" r="4" fill="#3b82f6" stroke="#0d1117" stroke-width="2" class="data-point"/>
  
    <circle cx="733.1914893617021" cy="65.0724217844728" r="4" fill="#3b82f6" stroke="#0d1117" stroke-width="2" class="data-point"/>
  
    <circle cx="736.1702127659574" cy="63.85277309596546" r="4" fill="#3b82f6" stroke="#0d1117" stroke-width="2" class="data-point"/>
  
    <circle cx="739.1489361702128" cy="62.78198409354263" r="4" fill="#3b82f6" stroke="#0d1117" stroke-width="2" class="data-point"/>
  
    <circle cx="742.1276595744681" cy="61.67742020436111" r="4" fill="#3b82f6" stroke="#0d1117" stroke-width="2" class="data-point"/>
  
    <circle cx="745.1063829787233" cy="60.67418097545561" r="4" fill="#3b82f6" stroke="#0d1117" stroke-width="2" class="data-point"/>
  
    <circle cx="748.0851063829787" cy="59.51582745180656" r="4" fill="#3b82f6" stroke="#0d1117" stroke-width="2" class="data-point"/>
  
    <circle cx="751.063829787234" cy="58.37999051933002" r="4" fill="#3b82f6" stroke="#0d1117" stroke-width="2" class="data-point"/>
  
    <circle cx="754.0425531914893" cy="57.29293953439378" r="4" fill="#3b82f6" stroke="#0d1117" stroke-width="2" class="data-point"/>
  
    <circle cx="757.0212765957447" cy="56.18712472348045" r="4" fill="#3b82f6" stroke="#0d1117" stroke-width="2" class="data-point"/>
  
    <circle cx="760" cy="55" r="4" fill="#3b82f6" stroke="#0d1117" stroke-width="2" class="data-point"/>
  

  <!-- Axis lines -->
  <line x1="60" y1="55" x2="60" y2="340"
        stroke="#30363d" stroke-width="2"/>
  <line x1="60" y1="340" x2="760" y2="340"
        stroke="#30363d" stroke-width="2"/>
</svg>