<?xml version="1.0" encoding="UTF-8"?>
<svg width="800" height="400" xmlns="http://www.w3.org/2000/svg">
  <defs>
    <!-- Gradient for area fill -->
    <linearGradient id="areaGradient" x1="0%" y1="0%" x2="0%" y2="100%">
      <stop offset="0%" style="stop-color:#3b82f6;stop-opacity:0.3" />
      <stop offset="100%" style="stop-color:#3b82f6;stop-opacity:0.05" />
    </linearGradient>

    <!-- Glow filter for line -->
    <filter id="glow">
      <feGaussianBlur stdDeviation="2" result="coloredBlur"/>
      <feMerge>
        <feMergeNode in="coloredBlur"/>
        <feMergeNode in="SourceGraphic"/>
      </feMerge>
    </filter>

    <!-- Animation -->
    <style>
      @keyframes draw {
        from { stroke-dashoffset: 2000; }
        to { stroke-dashoffset: 0; }
      }
      @keyframes fadeIn {
        from { opacity: 0; }
        to { opacity: 1; }
      }
      .line-path {
        stroke-dasharray: 2000;
        stroke-dashoffset: 2000;
        animation: draw 1.5s ease-out forwards;
      }
      .area-path {
        opacity: 0;
        animation: fadeIn 1s ease-out 0.5s forwards;
      }
      .data-point {
        opacity: 0;
        animation: fadeIn 0.5s ease-out 1s forwards;
      }
    </style>
  </defs>

  <!-- Background -->
  <rect width="800" height="400" fill="#0d1117" rx="8"/>

  <!-- Title -->
  <text x="400" y="25" text-anchor="middle" fill="#c9d1d9" font-family="system-ui, -apple-system, sans-serif" font-size="16" font-weight="600">
    zxcloli666/SoundCloud-Desktop Downloads
  </text>

  <!-- Stats -->
  <text x="780" y="25" text-anchor="end" fill="#58a6ff" font-family="system-ui, -apple-system, sans-serif" font-size="14" font-weight="600">
    86.4K total
  </text>
  <text x="780" y="42" text-anchor="end" fill="#3fb950" font-family="system-ui, -apple-system, sans-serif" font-size="12">
    +367 (+0.4%)
  </text>

  <!-- Grid lines -->
  <g opacity="0.1">
    
      <line x1="60" y1="340" x2="760" y2="340"
            stroke="#c9d1d9" stroke-width="1"/>
    
      <line x1="60" y1="268.75" x2="760" y2="268.75"
            stroke="#c9d1d9" stroke-width="1"/>
    
      <line x1="60" y1="197.5" x2="760" y2="197.5"
            stroke="#c9d1d9" stroke-width="1"/>
    
      <line x1="60" y1="126.25" x2="760" y2="126.25"
            stroke="#c9d1d9" stroke-width="1"/>
    
      <line x1="60" y1="55" x2="760" y2="55"
            stroke="#c9d1d9" stroke-width="1"/>
    
  </g>

  <!-- Y-axis labels -->
  
    <text x="50" y="344" text-anchor="end"
          fill="#8b949e" font-family="system-ui, -apple-system, sans-serif" font-size="11">
      60.2K
    </text>
  
    <text x="50" y="272.75" text-anchor="end"
          fill="#8b949e" font-family="system-ui, -apple-system, sans-serif" font-size="11">
      66.7K
    </text>
  
    <text x="50" y="201.5" text-anchor="end"
          fill="#8b949e" font-family="system-ui, -apple-system, sans-serif" font-size="11">
      73.3K
    </text>
  
    <text x="50" y="130.25" text-anchor="end"
          fill="#8b949e" font-family="system-ui, -apple-system, sans-serif" font-size="11">
      79.8K
    </text>
  
    <text x="50" y="59" text-anchor="end"
          fill="#8b949e" font-family="system-ui, -apple-system, sans-serif" font-size="11">
      86.4K
    </text>
  

  <!-- X-axis labels -->
  
    <text x="60" y="360" text-anchor="middle"
          fill="#8b949e" font-family="system-ui, -apple-system, sans-serif" font-size="11">
      Nov 25
    </text>
  
    <text x="148.60759493670886" y="360" text-anchor="middle"
          fill="#8b949e" font-family="system-ui, -apple-system, sans-serif" font-size="11">
      Dec 5
    </text>
  
    <text x="237.21518987341773" y="360" text-anchor="middle"
          fill="#8b949e" font-family="system-ui, -apple-system, sans-serif" font-size="11">
      Dec 15
    </text>
  
    <text x="325.8227848101266" y="360" text-anchor="middle"
          fill="#8b949e" font-family="system-ui, -apple-system, sans-serif" font-size="11">
      Dec 25
    </text>
  
    <text x="414.43037974683546" y="360" text-anchor="middle"
          fill="#8b949e" font-family="system-ui, -apple-system, sans-serif" font-size="11">
      Jan 4
    </text>
  
    <text x="503.03797468354435" y="360" text-anchor="middle"
          fill="#8b949e" font-family="system-ui, -apple-system, sans-serif" font-size="11">
      Jan 14
    </text>
  
    <text x="591.6455696202532" y="360" text-anchor="middle"
          fill="#8b949e" font-family="system-ui, -apple-system, sans-serif" font-size="11">
      Jan 24
    </text>
  
    <text x="680.253164556962" y="360" text-anchor="middle"
          fill="#8b949e" font-family="system-ui, -apple-system, sans-serif" font-size="11">
      Feb 3
    </text>
  
    <text x="760" y="360" text-anchor="middle"
          fill="#8b949e" font-family="system-ui, -apple-system, sans-serif" font-size="11">
      Feb 12
    </text>
  

  <!-- Area under line -->
  <path d="M 60 340
    L 60.00 340.00 L 68.86 338.40 L 77.72 335.69 L 86.58 333.17 L 95.44 328.16 L 104.30 322.99 L 113.16 318.91 L 122.03 315.11 L 130.89 311.73 L 139.75 307.76 L 148.61 303.34 L 157.47 298.61 L 166.33 294.30 L 175.19 289.73 L 184.05 286.39 L 192.91 282.94 L 201.77 278.25 L 210.63 275.11 L 219.49 270.76 L 228.35 265.74 L 237.22 261.96 L 246.08 258.85 L 254.94 256.84 L 263.80 255.17 L 272.66 252.07 L 281.52 249.87 L 290.38 245.03 L 299.24 243.13 L 308.10 240.68 L 316.96 237.50 L 325.82 235.33 L 334.68 233.13 L 343.54 230.81 L 352.41 229.20 L 361.27 227.81 L 370.13 225.69 L 378.99 223.12 L 387.85 220.75 L 396.71 217.75 L 405.57 214.48 L 414.43 211.48 L 423.29 207.86 L 432.15 204.31 L 441.01 200.76 L 449.87 196.87 L 458.73 193.15 L 467.59 188.91 L 476.46 185.11 L 485.32 181.91 L 494.18 179.35 L 503.04 175.76 L 511.90 171.66 L 520.76 167.92 L 529.62 163.54 L 538.48 158.14 L 547.34 154.12 L 556.20 150.78 L 565.06 147.61 L 573.92 143.80 L 582.78 139.36 L 591.65 134.45 L 600.51 129.29 L 609.37 124.34 L 618.23 119.98 L 627.09 115.66 L 635.95 111.84 L 644.81 107.95 L 653.67 103.61 L 662.53 98.20 L 671.39 94.17 L 680.25 90.56 L 689.11 86.55 L 697.97 82.81 L 706.84 78.71 L 715.70 74.43 L 724.56 69.95 L 733.42 66.03 L 742.28 62.67 L 751.14 58.99 L 760.00 55.00
    L 760 340
    Z" fill="url(#areaGradient)" class="area-path"/>

  <!-- Main line with glow -->
  <path d="M 60.00 340.00 L 68.86 338.40 L 77.72 335.69 L 86.58 333.17 L 95.44 328.16 L 104.30 322.99 L 113.16 318.91 L 122.03 315.11 L 130.89 311.73 L 139.75 307.76 L 148.61 303.34 L 157.47 298.61 L 166.33 294.30 L 175.19 289.73 L 184.05 286.39 L 192.91 282.94 L 201.77 278.25 L 210.63 275.11 L 219.49 270.76 L 228.35 265.74 L 237.22 261.96 L 246.08 258.85 L 254.94 256.84 L 263.80 255.17 L 272.66 252.07 L 281.52 249.87 L 290.38 245.03 L 299.24 243.13 L 308.10 240.68 L 316.96 237.50 L 325.82 235.33 L 334.68 233.13 L 343.54 230.81 L 352.41 229.20 L 361.27 227.81 L 370.13 225.69 L 378.99 223.12 L 387.85 220.75 L 396.71 217.75 L 405.57 214.48 L 414.43 211.48 L 423.29 207.86 L 432.15 204.31 L 441.01 200.76 L 449.87 196.87 L 458.73 193.15 L 467.59 188.91 L 476.46 185.11 L 485.32 181.91 L 494.18 179.35 L 503.04 175.76 L 511.90 171.66 L 520.76 167.92 L 529.62 163.54 L 538.48 158.14 L 547.34 154.12 L 556.20 150.78 L 565.06 147.61 L 573.92 143.80 L 582.78 139.36 L 591.65 134.45 L 600.51 129.29 L 609.37 124.34 L 618.23 119.98 L 627.09 115.66 L 635.95 111.84 L 644.81 107.95 L 653.67 103.61 L 662.53 98.20 L 671.39 94.17 L 680.25 90.56 L 689.11 86.55 L 697.97 82.81 L 706.84 78.71 L 715.70 74.43 L 724.56 69.95 L 733.42 66.03 L 742.28 62.67 L 751.14 58.99 L 760.00 55.00" fill="none" stroke="#3b82f6" stroke-width="3"
        stroke-linecap="round" stroke-linejoin="round" filter="url(#glow)" class="line-path"/>

  <!-- Data points -->
  
    <circle cx="60" cy="340" r="4" fill="#3b82f6" stroke="#0d1117" stroke-width="2" class="data-point"/>
  
    <circle cx="68.86075949367088" cy="338.4029048490393" r="4" fill="#3b82f6" stroke="#0d1117" stroke-width="2" class="data-point"/>
  
    <circle cx="77.72151898734177" cy="335.68675663311984" r="4" fill="#3b82f6" stroke="#0d1117" stroke-width="2" class="data-point"/>
  
    <circle cx="86.58227848101265" cy="333.1661710887466" r="4" fill="#3b82f6" stroke="#0d1117" stroke-width="2" class="data-point"/>
  
    <circle cx="95.44303797468353" cy="328.15759377859104" r="4" fill="#3b82f6" stroke="#0d1117" stroke-width="2" class="data-point"/>
  
    <circle cx="104.30379746835443" cy="322.9860475754803" r="4" fill="#3b82f6" stroke="#0d1117" stroke-width="2" class="data-point"/>
  
    <circle cx="113.16455696202532" cy="318.9118252516011" r="4" fill="#3b82f6" stroke="#0d1117" stroke-width="2" class="data-point"/>
  
    <circle cx="122.02531645569621" cy="315.1092177493138" r="4" fill="#3b82f6" stroke="#0d1117" stroke-width="2" class="data-point"/>
  
    <circle cx="130.88607594936707" cy="311.73032936871" r="4" fill="#3b82f6" stroke="#0d1117" stroke-width="2" class="data-point"/>
  
    <circle cx="139.74683544303798" cy="307.7647529734675" r="4" fill="#3b82f6" stroke="#0d1117" stroke-width="2" class="data-point"/>
  
    <circle cx="148.60759493670886" cy="303.3428636779506" r="4" fill="#3b82f6" stroke="#0d1117" stroke-width="2" class="data-point"/>
  
    <circle cx="157.46835443037975" cy="298.605901189387" r="4" fill="#3b82f6" stroke="#0d1117" stroke-width="2" class="data-point"/>
  
    <circle cx="166.32911392405063" cy="294.30352241537054" r="4" fill="#3b82f6" stroke="#0d1117" stroke-width="2" class="data-point"/>
  
    <circle cx="175.18987341772151" cy="289.7295288197621" r="4" fill="#3b82f6" stroke="#0d1117" stroke-width="2" class="data-point"/>
  
    <circle cx="184.05063291139243" cy="286.394098810613" r="4" fill="#3b82f6" stroke="#0d1117" stroke-width="2" class="data-point"/>
  
    <circle cx="192.9113924050633" cy="282.9391582799634" r="4" fill="#3b82f6" stroke="#0d1117" stroke-width="2" class="data-point"/>
  
    <circle cx="201.77215189873417" cy="278.2456541628545" r="4" fill="#3b82f6" stroke="#0d1117" stroke-width="2" class="data-point"/>
  
    <circle cx="210.63291139240508" cy="275.1057868252516" r="4" fill="#3b82f6" stroke="#0d1117" stroke-width="2" class="data-point"/>
  
    <circle cx="219.49367088607593" cy="270.75994967978045" r="4" fill="#3b82f6" stroke="#0d1117" stroke-width="2" class="data-point"/>
  
    <circle cx="228.35443037974684" cy="265.7405077767612" r="4" fill="#3b82f6" stroke="#0d1117" stroke-width="2" class="data-point"/>
  
    <circle cx="237.21518987341773" cy="261.95962946020126" r="4" fill="#3b82f6" stroke="#0d1117" stroke-width="2" class="data-point"/>
  
    <circle cx="246.07594936708858" cy="258.8523559011894" r="4" fill="#3b82f6" stroke="#0d1117" stroke-width="2" class="data-point"/>
  
    <circle cx="254.9367088607595" cy="256.84240622140896" r="4" fill="#3b82f6" stroke="#0d1117" stroke-width="2" class="data-point"/>
  
    <circle cx="263.7974683544304" cy="255.16925892040257" r="4" fill="#3b82f6" stroke="#0d1117" stroke-width="2" class="data-point"/>
  
    <circle cx="272.65822784810126" cy="252.07284995425437" r="4" fill="#3b82f6" stroke="#0d1117" stroke-width="2" class="data-point"/>
  
    <circle cx="281.5189873417722" cy="249.8673376029277" r="4" fill="#3b82f6" stroke="#0d1117" stroke-width="2" class="data-point"/>
  
    <circle cx="290.37974683544303" cy="245.03259377859104" r="4" fill="#3b82f6" stroke="#0d1117" stroke-width="2" class="data-point"/>
  
    <circle cx="299.24050632911394" cy="243.1312900274474" r="4" fill="#3b82f6" stroke="#0d1117" stroke-width="2" class="data-point"/>
  
    <circle cx="308.10126582278485" cy="240.6758920402562" r="4" fill="#3b82f6" stroke="#0d1117" stroke-width="2" class="data-point"/>
  
    <circle cx="316.9620253164557" cy="237.50343092406223" r="4" fill="#3b82f6" stroke="#0d1117" stroke-width="2" class="data-point"/>
  
    <circle cx="325.8227848101266" cy="235.33051235132663" r="4" fill="#3b82f6" stroke="#0d1117" stroke-width="2" class="data-point"/>
  
    <circle cx="334.6835443037975" cy="233.125" r="4" fill="#3b82f6" stroke="#0d1117" stroke-width="2" class="data-point"/>
  
    <circle cx="343.54430379746833" cy="230.8108417200366" r="4" fill="#3b82f6" stroke="#0d1117" stroke-width="2" class="data-point"/>
  
    <circle cx="352.40506329113924" cy="229.20288197621227" r="4" fill="#3b82f6" stroke="#0d1117" stroke-width="2" class="data-point"/>
  
    <circle cx="361.26582278481015" cy="227.8122140896615" r="4" fill="#3b82f6" stroke="#0d1117" stroke-width="2" class="data-point"/>
  
    <circle cx="370.126582278481" cy="225.69361848124427" r="4" fill="#3b82f6" stroke="#0d1117" stroke-width="2" class="data-point"/>
  
    <circle cx="378.98734177215186" cy="223.1187099725526" r="4" fill="#3b82f6" stroke="#0d1117" stroke-width="2" class="data-point"/>
  
    <circle cx="387.8481012658228" cy="220.75022872827083" r="4" fill="#3b82f6" stroke="#0d1117" stroke-width="2" class="data-point"/>
  
    <circle cx="396.7088607594937" cy="217.7516010978957" r="4" fill="#3b82f6" stroke="#0d1117" stroke-width="2" class="data-point"/>
  
    <circle cx="405.56962025316454" cy="214.48135864592865" r="4" fill="#3b82f6" stroke="#0d1117" stroke-width="2" class="data-point"/>
  
    <circle cx="414.43037974683546" cy="211.48273101555353" r="4" fill="#3b82f6" stroke="#0d1117" stroke-width="2" class="data-point"/>
  
    <circle cx="423.2911392405063" cy="207.86482159194875" r="4" fill="#3b82f6" stroke="#0d1117" stroke-width="2" class="data-point"/>
  
    <circle cx="432.15189873417717" cy="204.31209972552608" r="4" fill="#3b82f6" stroke="#0d1117" stroke-width="2" class="data-point"/>
  
    <circle cx="441.01265822784814" cy="200.75937785910338" r="4" fill="#3b82f6" stroke="#0d1117" stroke-width="2" class="data-point"/>
  
    <circle cx="449.873417721519" cy="196.86985361390668" r="4" fill="#3b82f6" stroke="#0d1117" stroke-width="2" class="data-point"/>
  
    <circle cx="458.7341772151899" cy="193.15416285452883" r="4" fill="#3b82f6" stroke="#0d1117" stroke-width="2" class="data-point"/>
  
    <circle cx="467.59493670886076" cy="188.90610704483072" r="4" fill="#3b82f6" stroke="#0d1117" stroke-width="2" class="data-point"/>
  
    <circle cx="476.4556962025316" cy="185.11436413540716" r="4" fill="#3b82f6" stroke="#0d1117" stroke-width="2" class="data-point"/>
  
    <circle cx="485.3164556962025" cy="181.90930924062212" r="4" fill="#3b82f6" stroke="#0d1117" stroke-width="2" class="data-point"/>
  
    <circle cx="494.1772151898734" cy="179.34526532479413" r="4" fill="#3b82f6" stroke="#0d1117" stroke-width="2" class="data-point"/>
  
    <circle cx="503.03797468354435" cy="175.75994967978042" r="4" fill="#3b82f6" stroke="#0d1117" stroke-width="2" class="data-point"/>
  
    <circle cx="511.8987341772152" cy="171.66399817017384" r="4" fill="#3b82f6" stroke="#0d1117" stroke-width="2" class="data-point"/>
  
    <circle cx="520.7594936708861" cy="167.91571363220493" r="4" fill="#3b82f6" stroke="#0d1117" stroke-width="2" class="data-point"/>
  
    <circle cx="529.620253164557" cy="163.53728270814273" r="4" fill="#3b82f6" stroke="#0d1117" stroke-width="2" class="data-point"/>
  
    <circle cx="538.4810126582279" cy="158.13758005489478" r="4" fill="#3b82f6" stroke="#0d1117" stroke-width="2" class="data-point"/>
  
    <circle cx="547.3417721518988" cy="154.11768069533395" r="4" fill="#3b82f6" stroke="#0d1117" stroke-width="2" class="data-point"/>
  
    <circle cx="556.2025316455697" cy="150.78225068618482" r="4" fill="#3b82f6" stroke="#0d1117" stroke-width="2" class="data-point"/>
  
    <circle cx="565.0632911392405" cy="147.60978956999085" r="4" fill="#3b82f6" stroke="#0d1117" stroke-width="2" class="data-point"/>
  
    <circle cx="573.9240506329114" cy="143.7963174748399" r="4" fill="#3b82f6" stroke="#0d1117" stroke-width="2" class="data-point"/>
  
    <circle cx="582.7848101265822" cy="139.3635635864593" r="4" fill="#3b82f6" stroke="#0d1117" stroke-width="2" class="data-point"/>
  
    <circle cx="591.6455696202532" cy="134.45276761207683" r="4" fill="#3b82f6" stroke="#0d1117" stroke-width="2" class="data-point"/>
  
    <circle cx="600.506329113924" cy="129.29208600182983" r="4" fill="#3b82f6" stroke="#0d1117" stroke-width="2" class="data-point"/>
  
    <circle cx="609.367088607595" cy="124.33783165599269" r="4" fill="#3b82f6" stroke="#0d1117" stroke-width="2" class="data-point"/>
  
    <circle cx="618.2278481012659" cy="119.98112991765782" r="4" fill="#3b82f6" stroke="#0d1117" stroke-width="2" class="data-point"/>
  
    <circle cx="627.0886075949367" cy="115.657021957914" r="4" fill="#3b82f6" stroke="#0d1117" stroke-width="2" class="data-point"/>
  
    <circle cx="635.9493670886077" cy="111.84354986276304" r="4" fill="#3b82f6" stroke="#0d1117" stroke-width="2" class="data-point"/>
  
    <circle cx="644.8101265822785" cy="107.95402561756632" r="4" fill="#3b82f6" stroke="#0d1117" stroke-width="2" class="data-point"/>
  
    <circle cx="653.6708860759494" cy="103.60818847209515" r="4" fill="#3b82f6" stroke="#0d1117" stroke-width="2" class="data-point"/>
  
    <circle cx="662.5316455696203" cy="98.19762122598354" r="4" fill="#3b82f6" stroke="#0d1117" stroke-width="2" class="data-point"/>
  
    <circle cx="671.3924050632911" cy="94.166857273559" r="4" fill="#3b82f6" stroke="#0d1117" stroke-width="2" class="data-point"/>
  
    <circle cx="680.253164556962" cy="90.55981244281793" r="4" fill="#3b82f6" stroke="#0d1117" stroke-width="2" class="data-point"/>
  
    <circle cx="689.1139240506329" cy="86.55077767612076" r="4" fill="#3b82f6" stroke="#0d1117" stroke-width="2" class="data-point"/>
  
    <circle cx="697.9746835443037" cy="82.81335773101557" r="4" fill="#3b82f6" stroke="#0d1117" stroke-width="2" class="data-point"/>
  
    <circle cx="706.8354430379748" cy="78.70654162854527" r="4" fill="#3b82f6" stroke="#0d1117" stroke-width="2" class="data-point"/>
  
    <circle cx="715.6962025316456" cy="74.4258920402562" r="4" fill="#3b82f6" stroke="#0d1117" stroke-width="2" class="data-point"/>
  
    <circle cx="724.5569620253165" cy="69.94967978042087" r="4" fill="#3b82f6" stroke="#0d1117" stroke-width="2" class="data-point"/>
  
    <circle cx="733.4177215189874" cy="66.02756175663313" r="4" fill="#3b82f6" stroke="#0d1117" stroke-width="2" class="data-point"/>
  
    <circle cx="742.2784810126582" cy="62.670402561756646" r="4" fill="#3b82f6" stroke="#0d1117" stroke-width="2" class="data-point"/>
  
    <circle cx="751.1392405063291" cy="58.9873055809698" r="4" fill="#3b82f6" stroke="#0d1117" stroke-width="2" class="data-point"/>
  
    <circle cx="760" cy="55" r="4" fill="#3b82f6" stroke="#0d1117" stroke-width="2" class="data-point"/>
  

  <!-- Axis lines -->
  <line x1="60" y1="55" x2="60" y2="340"
        stroke="#30363d" stroke-width="2"/>
  <line x1="60" y1="340" x2="760" y2="340"
        stroke="#30363d" stroke-width="2"/>
</svg>