<?xml version="1.0" encoding="UTF-8"?>
<svg width="800" height="400" xmlns="http://www.w3.org/2000/svg">
  <defs>
    <!-- Gradient for area fill -->
    <linearGradient id="areaGradient" x1="0%" y1="0%" x2="0%" y2="100%">
      <stop offset="0%" style="stop-color:#3b82f6;stop-opacity:0.3" />
      <stop offset="100%" style="stop-color:#3b82f6;stop-opacity:0.05" />
    </linearGradient>

    <!-- Glow filter for line -->
    <filter id="glow">
      <feGaussianBlur stdDeviation="2" result="coloredBlur"/>
      <feMerge>
        <feMergeNode in="coloredBlur"/>
        <feMergeNode in="SourceGraphic"/>
      </feMerge>
    </filter>

    <!-- Animation -->
    <style>
      @keyframes draw {
        from { stroke-dashoffset: 2000; }
        to { stroke-dashoffset: 0; }
      }
      @keyframes fadeIn {
        from { opacity: 0; }
        to { opacity: 1; }
      }
      .line-path {
        stroke-dasharray: 2000;
        stroke-dashoffset: 2000;
        animation: draw 1.5s ease-out forwards;
      }
      .area-path {
        opacity: 0;
        animation: fadeIn 1s ease-out 0.5s forwards;
      }
      .data-point {
        opacity: 0;
        animation: fadeIn 0.5s ease-out 1s forwards;
      }
    </style>
  </defs>

  <!-- Background -->
  <rect width="800" height="400" fill="#0d1117" rx="8"/>

  <!-- Title -->
  <text x="400" y="25" text-anchor="middle" fill="#c9d1d9" font-family="system-ui, -apple-system, sans-serif" font-size="16" font-weight="600">
    zxcloli666/SoundCloud-Desktop Downloads
  </text>

  <!-- Stats -->
  <text x="780" y="25" text-anchor="end" fill="#58a6ff" font-family="system-ui, -apple-system, sans-serif" font-size="14" font-weight="600">
    141.3K total
  </text>
  <text x="780" y="42" text-anchor="end" fill="#3fb950" font-family="system-ui, -apple-system, sans-serif" font-size="12">
    +2.2K (+1.6%)
  </text>

  <!-- Grid lines -->
  <g opacity="0.1">
    
      <line x1="60" y1="340" x2="760" y2="340"
            stroke="#c9d1d9" stroke-width="1"/>
    
      <line x1="60" y1="268.75" x2="760" y2="268.75"
            stroke="#c9d1d9" stroke-width="1"/>
    
      <line x1="60" y1="197.5" x2="760" y2="197.5"
            stroke="#c9d1d9" stroke-width="1"/>
    
      <line x1="60" y1="126.25" x2="760" y2="126.25"
            stroke="#c9d1d9" stroke-width="1"/>
    
      <line x1="60" y1="55" x2="760" y2="55"
            stroke="#c9d1d9" stroke-width="1"/>
    
  </g>

  <!-- Y-axis labels -->
  
    <text x="50" y="344" text-anchor="end"
          fill="#8b949e" font-family="system-ui, -apple-system, sans-serif" font-size="11">
      60.2K
    </text>
  
    <text x="50" y="272.75" text-anchor="end"
          fill="#8b949e" font-family="system-ui, -apple-system, sans-serif" font-size="11">
      80.4K
    </text>
  
    <text x="50" y="201.5" text-anchor="end"
          fill="#8b949e" font-family="system-ui, -apple-system, sans-serif" font-size="11">
      100.7K
    </text>
  
    <text x="50" y="130.25" text-anchor="end"
          fill="#8b949e" font-family="system-ui, -apple-system, sans-serif" font-size="11">
      121.0K
    </text>
  
    <text x="50" y="59" text-anchor="end"
          fill="#8b949e" font-family="system-ui, -apple-system, sans-serif" font-size="11">
      141.3K
    </text>
  

  <!-- X-axis labels -->
  
    <text x="60" y="360" text-anchor="middle"
          fill="#8b949e" font-family="system-ui, -apple-system, sans-serif" font-size="11">
      Nov 25
    </text>
  
    <text x="147.5" y="360" text-anchor="middle"
          fill="#8b949e" font-family="system-ui, -apple-system, sans-serif" font-size="11">
      Dec 12
    </text>
  
    <text x="235" y="360" text-anchor="middle"
          fill="#8b949e" font-family="system-ui, -apple-system, sans-serif" font-size="11">
      Dec 29
    </text>
  
    <text x="322.5" y="360" text-anchor="middle"
          fill="#8b949e" font-family="system-ui, -apple-system, sans-serif" font-size="11">
      Jan 15
    </text>
  
    <text x="410" y="360" text-anchor="middle"
          fill="#8b949e" font-family="system-ui, -apple-system, sans-serif" font-size="11">
      Feb 1
    </text>
  
    <text x="497.5" y="360" text-anchor="middle"
          fill="#8b949e" font-family="system-ui, -apple-system, sans-serif" font-size="11">
      Feb 18
    </text>
  
    <text x="585" y="360" text-anchor="middle"
          fill="#8b949e" font-family="system-ui, -apple-system, sans-serif" font-size="11">
      Mar 7
    </text>
  
    <text x="672.5" y="360" text-anchor="middle"
          fill="#8b949e" font-family="system-ui, -apple-system, sans-serif" font-size="11">
      Mar 24
    </text>
  
    <text x="760" y="360" text-anchor="middle"
          fill="#8b949e" font-family="system-ui, -apple-system, sans-serif" font-size="11">
      Apr 10
    </text>
  

  <!-- Area under line -->
  <path d="M 60 340
    L 60.00 340.00 L 65.15 339.48 L 70.29 338.61 L 75.44 337.79 L 80.59 336.17 L 85.74 334.50 L 90.88 333.19 L 96.03 331.96 L 101.18 330.86 L 106.32 329.58 L 111.47 328.15 L 116.62 326.62 L 121.76 325.23 L 126.91 323.75 L 132.06 322.68 L 137.21 321.56 L 142.35 320.04 L 147.50 319.03 L 152.65 317.62 L 157.79 316.00 L 162.94 314.78 L 168.09 313.78 L 173.24 313.13 L 178.38 312.59 L 183.53 311.59 L 188.68 310.87 L 193.82 309.31 L 198.97 308.70 L 204.12 307.90 L 209.26 306.88 L 214.41 306.18 L 219.56 305.46 L 224.71 304.71 L 229.85 304.20 L 235.00 303.75 L 240.15 303.06 L 245.29 302.23 L 250.44 301.46 L 255.59 300.49 L 260.74 299.44 L 265.88 298.47 L 271.03 297.30 L 276.18 296.15 L 281.32 295.00 L 286.47 293.75 L 291.62 292.55 L 296.76 291.17 L 301.91 289.95 L 307.06 288.91 L 312.21 288.08 L 317.35 286.92 L 322.50 285.60 L 327.65 284.39 L 332.79 282.97 L 337.94 281.23 L 343.09 279.93 L 348.24 278.85 L 353.38 277.83 L 358.53 276.60 L 363.68 275.16 L 368.82 273.58 L 373.97 271.91 L 379.12 270.31 L 384.26 268.90 L 389.41 267.50 L 394.56 266.27 L 399.71 265.01 L 404.85 263.61 L 410.00 261.86 L 415.15 260.56 L 420.29 259.39 L 425.44 258.10 L 430.59 256.89 L 435.74 255.56 L 440.88 254.18 L 446.03 252.73 L 451.18 251.46 L 456.32 250.38 L 461.47 249.19 L 466.62 247.90 L 471.76 246.71 L 476.91 245.15 L 482.06 243.81 L 487.21 242.52 L 492.35 241.45 L 497.50 240.41 L 502.65 239.37 L 507.79 238.13 L 512.94 236.84 L 518.09 235.29 L 523.24 234.03 L 528.38 233.00 L 533.53 231.94 L 538.68 230.93 L 543.82 229.68 L 548.97 228.40 L 554.12 225.57 L 559.26 219.93 L 564.41 213.21 L 569.56 207.09 L 574.71 203.99 L 579.85 199.31 L 585.00 196.20 L 590.15 193.48 L 595.29 190.82 L 600.44 188.30 L 605.59 184.40 L 610.74 181.30 L 615.88 177.33 L 621.03 176.52 L 626.18 176.41 L 631.32 176.28 L 636.47 176.16 L 641.62 176.01 L 646.76 175.88 L 651.91 175.82 L 657.06 175.63 L 662.21 175.44 L 667.35 175.32 L 672.50 175.28 L 677.65 175.07 L 682.79 169.98 L 687.94 162.00 L 693.09 156.66 L 698.24 150.46 L 703.38 144.07 L 708.53 139.06 L 713.68 133.45 L 718.82 124.91 L 723.97 113.40 L 729.12 105.88 L 734.26 96.94 L 739.41 86.98 L 744.56 78.99 L 749.71 70.31 L 754.85 62.62 L 760.00 55.00
    L 760 340
    Z" fill="url(#areaGradient)" class="area-path"/>

  <!-- Main line with glow -->
  <path d="M 60.00 340.00 L 65.15 339.48 L 70.29 338.61 L 75.44 337.79 L 80.59 336.17 L 85.74 334.50 L 90.88 333.19 L 96.03 331.96 L 101.18 330.86 L 106.32 329.58 L 111.47 328.15 L 116.62 326.62 L 121.76 325.23 L 126.91 323.75 L 132.06 322.68 L 137.21 321.56 L 142.35 320.04 L 147.50 319.03 L 152.65 317.62 L 157.79 316.00 L 162.94 314.78 L 168.09 313.78 L 173.24 313.13 L 178.38 312.59 L 183.53 311.59 L 188.68 310.87 L 193.82 309.31 L 198.97 308.70 L 204.12 307.90 L 209.26 306.88 L 214.41 306.18 L 219.56 305.46 L 224.71 304.71 L 229.85 304.20 L 235.00 303.75 L 240.15 303.06 L 245.29 302.23 L 250.44 301.46 L 255.59 300.49 L 260.74 299.44 L 265.88 298.47 L 271.03 297.30 L 276.18 296.15 L 281.32 295.00 L 286.47 293.75 L 291.62 292.55 L 296.76 291.17 L 301.91 289.95 L 307.06 288.91 L 312.21 288.08 L 317.35 286.92 L 322.50 285.60 L 327.65 284.39 L 332.79 282.97 L 337.94 281.23 L 343.09 279.93 L 348.24 278.85 L 353.38 277.83 L 358.53 276.60 L 363.68 275.16 L 368.82 273.58 L 373.97 271.91 L 379.12 270.31 L 384.26 268.90 L 389.41 267.50 L 394.56 266.27 L 399.71 265.01 L 404.85 263.61 L 410.00 261.86 L 415.15 260.56 L 420.29 259.39 L 425.44 258.10 L 430.59 256.89 L 435.74 255.56 L 440.88 254.18 L 446.03 252.73 L 451.18 251.46 L 456.32 250.38 L 461.47 249.19 L 466.62 247.90 L 471.76 246.71 L 476.91 245.15 L 482.06 243.81 L 487.21 242.52 L 492.35 241.45 L 497.50 240.41 L 502.65 239.37 L 507.79 238.13 L 512.94 236.84 L 518.09 235.29 L 523.24 234.03 L 528.38 233.00 L 533.53 231.94 L 538.68 230.93 L 543.82 229.68 L 548.97 228.40 L 554.12 225.57 L 559.26 219.93 L 564.41 213.21 L 569.56 207.09 L 574.71 203.99 L 579.85 199.31 L 585.00 196.20 L 590.15 193.48 L 595.29 190.82 L 600.44 188.30 L 605.59 184.40 L 610.74 181.30 L 615.88 177.33 L 621.03 176.52 L 626.18 176.41 L 631.32 176.28 L 636.47 176.16 L 641.62 176.01 L 646.76 175.88 L 651.91 175.82 L 657.06 175.63 L 662.21 175.44 L 667.35 175.32 L 672.50 175.28 L 677.65 175.07 L 682.79 169.98 L 687.94 162.00 L 693.09 156.66 L 698.24 150.46 L 703.38 144.07 L 708.53 139.06 L 713.68 133.45 L 718.82 124.91 L 723.97 113.40 L 729.12 105.88 L 734.26 96.94 L 739.41 86.98 L 744.56 78.99 L 749.71 70.31 L 754.85 62.62 L 760.00 55.00" fill="none" stroke="#3b82f6" stroke-width="3"
        stroke-linecap="round" stroke-linejoin="round" filter="url(#glow)" class="line-path"/>

  <!-- Data points -->
  
    <circle cx="60" cy="340" r="4" fill="#3b82f6" stroke="#0d1117" stroke-width="2" class="data-point"/>
  
    <circle cx="65.1470588235294" cy="339.4838864661098" r="4" fill="#3b82f6" stroke="#0d1117" stroke-width="2" class="data-point"/>
  
    <circle cx="70.29411764705883" cy="338.60614236085445" r="4" fill="#3b82f6" stroke="#0d1117" stroke-width="2" class="data-point"/>
  
    <circle cx="75.44117647058823" cy="337.79159583117746" r="4" fill="#3b82f6" stroke="#0d1117" stroke-width="2" class="data-point"/>
  
    <circle cx="80.58823529411765" cy="336.1730357010866" r="4" fill="#3b82f6" stroke="#0d1117" stroke-width="2" class="data-point"/>
  
    <circle cx="85.73529411764706" cy="334.50181092468034" r="4" fill="#3b82f6" stroke="#0d1117" stroke-width="2" class="data-point"/>
  
    <circle cx="90.88235294117646" cy="333.1851947667972" r="4" fill="#3b82f6" stroke="#0d1117" stroke-width="2" class="data-point"/>
  
    <circle cx="96.02941176470588" cy="331.95635301943975" r="4" fill="#3b82f6" stroke="#0d1117" stroke-width="2" class="data-point"/>
  
    <circle cx="101.1764705882353" cy="330.864439352502" r="4" fill="#3b82f6" stroke="#0d1117" stroke-width="2" class="data-point"/>
  
    <circle cx="106.3235294117647" cy="329.5829329588292" r="4" fill="#3b82f6" stroke="#0d1117" stroke-width="2" class="data-point"/>
  
    <circle cx="111.47058823529412" cy="328.1539655554734" r="4" fill="#3b82f6" stroke="#0d1117" stroke-width="2" class="data-point"/>
  
    <circle cx="116.61764705882354" cy="326.62317983590805" r="4" fill="#3b82f6" stroke="#0d1117" stroke-width="2" class="data-point"/>
  
    <circle cx="121.76470588235294" cy="325.2328331731835" r="4" fill="#3b82f6" stroke="#0d1117" stroke-width="2" class="data-point"/>
  
    <circle cx="126.91176470588235" cy="323.7547120999335" r="4" fill="#3b82f6" stroke="#0d1117" stroke-width="2" class="data-point"/>
  
    <circle cx="132.05882352941177" cy="322.6768423386799" r="4" fill="#3b82f6" stroke="#0d1117" stroke-width="2" class="data-point"/>
  
    <circle cx="137.20588235294116" cy="321.560351836795" r="4" fill="#3b82f6" stroke="#0d1117" stroke-width="2" class="data-point"/>
  
    <circle cx="142.3529411764706" cy="320.04361002291375" r="4" fill="#3b82f6" stroke="#0d1117" stroke-width="2" class="data-point"/>
  
    <circle cx="147.5" cy="319.0289378372385" r="4" fill="#3b82f6" stroke="#0d1117" stroke-width="2" class="data-point"/>
  
    <circle cx="152.6470588235294" cy="317.62454726882993" r="4" fill="#3b82f6" stroke="#0d1117" stroke-width="2" class="data-point"/>
  
    <circle cx="157.79411764705884" cy="316.002476162318" r="4" fill="#3b82f6" stroke="#0d1117" stroke-width="2" class="data-point"/>
  
    <circle cx="162.94117647058823" cy="314.7806563678025" r="4" fill="#3b82f6" stroke="#0d1117" stroke-width="2" class="data-point"/>
  
    <circle cx="168.08823529411765" cy="313.7765171113904" r="4" fill="#3b82f6" stroke="#0d1117" stroke-width="2" class="data-point"/>
  
    <circle cx="173.23529411764707" cy="313.12698647350135" r="4" fill="#3b82f6" stroke="#0d1117" stroke-width="2" class="data-point"/>
  
    <circle cx="178.38235294117646" cy="312.58629610466403" r="4" fill="#3b82f6" stroke="#0d1117" stroke-width="2" class="data-point"/>
  
    <circle cx="183.52941176470588" cy="311.5856678246729" r="4" fill="#3b82f6" stroke="#0d1117" stroke-width="2" class="data-point"/>
  
    <circle cx="188.6764705882353" cy="310.87293961120554" r="4" fill="#3b82f6" stroke="#0d1117" stroke-width="2" class="data-point"/>
  
    <circle cx="193.8235294117647" cy="309.310555103851" r="4" fill="#3b82f6" stroke="#0d1117" stroke-width="2" class="data-point"/>
  
    <circle cx="198.97058823529412" cy="308.6961342301722" r="4" fill="#3b82f6" stroke="#0d1117" stroke-width="2" class="data-point"/>
  
    <circle cx="204.11764705882354" cy="307.90265355902136" r="4" fill="#3b82f6" stroke="#0d1117" stroke-width="2" class="data-point"/>
  
    <circle cx="209.26470588235293" cy="306.8774484440831" r="4" fill="#3b82f6" stroke="#0d1117" stroke-width="2" class="data-point"/>
  
    <circle cx="214.41176470588235" cy="306.17525315987876" r="4" fill="#3b82f6" stroke="#0d1117" stroke-width="2" class="data-point"/>
  
    <circle cx="219.55882352941177" cy="305.4625249464114" r="4" fill="#3b82f6" stroke="#0d1117" stroke-width="2" class="data-point"/>
  
    <circle cx="224.7058823529412" cy="304.7146869687338" r="4" fill="#3b82f6" stroke="#0d1117" stroke-width="2" class="data-point"/>
  
    <circle cx="229.85294117647058" cy="304.1950624584226" r="4" fill="#3b82f6" stroke="#0d1117" stroke-width="2" class="data-point"/>
  
    <circle cx="235" cy="303.7456574765319" r="4" fill="#3b82f6" stroke="#0d1117" stroke-width="2" class="data-point"/>
  
    <circle cx="240.1470588235294" cy="303.0610170744327" r="4" fill="#3b82f6" stroke="#0d1117" stroke-width="2" class="data-point"/>
  
    <circle cx="245.2941176470588" cy="302.2289156626506" r="4" fill="#3b82f6" stroke="#0d1117" stroke-width="2" class="data-point"/>
  
    <circle cx="250.44117647058823" cy="301.46352280286794" r="4" fill="#3b82f6" stroke="#0d1117" stroke-width="2" class="data-point"/>
  
    <circle cx="255.58823529411765" cy="300.494493310666" r="4" fill="#3b82f6" stroke="#0d1117" stroke-width="2" class="data-point"/>
  
    <circle cx="260.7352941176471" cy="299.4376894079385" r="4" fill="#3b82f6" stroke="#0d1117" stroke-width="2" class="data-point"/>
  
    <circle cx="265.88235294117646" cy="298.46865991573657" r="4" fill="#3b82f6" stroke="#0d1117" stroke-width="2" class="data-point"/>
  
    <circle cx="271.02941176470586" cy="297.2995047675364" r="4" fill="#3b82f6" stroke="#0d1117" stroke-width="2" class="data-point"/>
  
    <circle cx="276.1764705882353" cy="296.1514154778624" r="4" fill="#3b82f6" stroke="#0d1117" stroke-width="2" class="data-point"/>
  
    <circle cx="281.3235294117647" cy="295.00332618818834" r="4" fill="#3b82f6" stroke="#0d1117" stroke-width="2" class="data-point"/>
  
    <circle cx="286.47058823529414" cy="293.74639662946265" r="4" fill="#3b82f6" stroke="#0d1117" stroke-width="2" class="data-point"/>
  
    <circle cx="291.61764705882354" cy="292.54564269347327" r="4" fill="#3b82f6" stroke="#0d1117" stroke-width="2" class="data-point"/>
  
    <circle cx="296.7647058823529" cy="291.17285091285385" r="4" fill="#3b82f6" stroke="#0d1117" stroke-width="2" class="data-point"/>
  
    <circle cx="301.9117647058823" cy="289.9475201419174" r="4" fill="#3b82f6" stroke="#0d1117" stroke-width="2" class="data-point"/>
  
    <circle cx="307.05882352941177" cy="288.911782097716" r="4" fill="#3b82f6" stroke="#0d1117" stroke-width="2" class="data-point"/>
  
    <circle cx="312.2058823529412" cy="288.0831916623549" r="4" fill="#3b82f6" stroke="#0d1117" stroke-width="2" class="data-point"/>
  
    <circle cx="317.3529411764706" cy="286.92456944341785" r="4" fill="#3b82f6" stroke="#0d1117" stroke-width="2" class="data-point"/>
  
    <circle cx="322.5" cy="285.6009313326927" r="4" fill="#3b82f6" stroke="#0d1117" stroke-width="2" class="data-point"/>
  
    <circle cx="327.6470588235294" cy="284.3896444674403" r="4" fill="#3b82f6" stroke="#0d1117" stroke-width="2" class="data-point"/>
  
    <circle cx="332.79411764705884" cy="282.97472096976867" r="4" fill="#3b82f6" stroke="#0d1117" stroke-width="2" class="data-point"/>
  
    <circle cx="337.94117647058823" cy="281.22976568852096" r="4" fill="#3b82f6" stroke="#0d1117" stroke-width="2" class="data-point"/>
  
    <circle cx="343.0882352941176" cy="279.930704412743" r="4" fill="#3b82f6" stroke="#0d1117" stroke-width="2" class="data-point"/>
  
    <circle cx="348.2352941176471" cy="278.8528346514894" r="4" fill="#3b82f6" stroke="#0d1117" stroke-width="2" class="data-point"/>
  
    <circle cx="353.38235294117646" cy="277.8276295365511" r="4" fill="#3b82f6" stroke="#0d1117" stroke-width="2" class="data-point"/>
  
    <circle cx="358.52941176470586" cy="276.59527681277257" r="4" fill="#3b82f6" stroke="#0d1117" stroke-width="2" class="data-point"/>
  
    <circle cx="363.6764705882353" cy="275.16279843299577" r="4" fill="#3b82f6" stroke="#0d1117" stroke-width="2" class="data-point"/>
  
    <circle cx="368.8235294117647" cy="273.57583709069405" r="4" fill="#3b82f6" stroke="#0d1117" stroke-width="2" class="data-point"/>
  
    <circle cx="373.97058823529414" cy="271.90812329070883" r="4" fill="#3b82f6" stroke="#0d1117" stroke-width="2" class="data-point"/>
  
    <circle cx="379.11764705882354" cy="270.30711804272306" r="4" fill="#3b82f6" stroke="#0d1117" stroke-width="2" class="data-point"/>
  
    <circle cx="384.2647058823529" cy="268.8992164978934" r="4" fill="#3b82f6" stroke="#0d1117" stroke-width="2" class="data-point"/>
  
    <circle cx="389.4117647058824" cy="267.50184788232684" r="4" fill="#3b82f6" stroke="#0d1117" stroke-width="2" class="data-point"/>
  
    <circle cx="394.55882352941177" cy="266.2694951585483" r="4" fill="#3b82f6" stroke="#0d1117" stroke-width="2" class="data-point"/>
  
    <circle cx="399.70588235294116" cy="265.0125655998226" r="4" fill="#3b82f6" stroke="#0d1117" stroke-width="2" class="data-point"/>
  
    <circle cx="404.8529411764706" cy="263.608175031414" r="4" fill="#3b82f6" stroke="#0d1117" stroke-width="2" class="data-point"/>
  
    <circle cx="410" cy="261.8597087737453" r="4" fill="#3b82f6" stroke="#0d1117" stroke-width="2" class="data-point"/>
  
    <circle cx="415.1470588235294" cy="260.55713652154634" r="4" fill="#3b82f6" stroke="#0d1117" stroke-width="2" class="data-point"/>
  
    <circle cx="420.2941176470588" cy="259.3914923497672" r="4" fill="#3b82f6" stroke="#0d1117" stroke-width="2" class="data-point"/>
  
    <circle cx="425.44117647058823" cy="258.09594205041026" r="4" fill="#3b82f6" stroke="#0d1117" stroke-width="2" class="data-point"/>
  
    <circle cx="430.5882352941176" cy="256.88816616157885" r="4" fill="#3b82f6" stroke="#0d1117" stroke-width="2" class="data-point"/>
  
    <circle cx="435.7352941176471" cy="255.5610170744327" r="4" fill="#3b82f6" stroke="#0d1117" stroke-width="2" class="data-point"/>
  
    <circle cx="440.88235294117646" cy="254.17769236455024" r="4" fill="#3b82f6" stroke="#0d1117" stroke-width="2" class="data-point"/>
  
    <circle cx="446.0294117647059" cy="252.73117007908934" r="4" fill="#3b82f6" stroke="#0d1117" stroke-width="2" class="data-point"/>
  
    <circle cx="451.1764705882353" cy="251.46370759110061" r="4" fill="#3b82f6" stroke="#0d1117" stroke-width="2" class="data-point"/>
  
    <circle cx="456.3235294117647" cy="250.37881587700497" r="4" fill="#3b82f6" stroke="#0d1117" stroke-width="2" class="data-point"/>
  
    <circle cx="461.4705882352941" cy="249.18859487027868" r="4" fill="#3b82f6" stroke="#0d1117" stroke-width="2" class="data-point"/>
  
    <circle cx="466.61764705882354" cy="247.90006652376377" r="4" fill="#3b82f6" stroke="#0d1117" stroke-width="2" class="data-point"/>
  
    <circle cx="471.7647058823529" cy="246.70633454061647" r="4" fill="#3b82f6" stroke="#0d1117" stroke-width="2" class="data-point"/>
  
    <circle cx="476.9117647058824" cy="245.1509719861039" r="4" fill="#3b82f6" stroke="#0d1117" stroke-width="2" class="data-point"/>
  
    <circle cx="482.05882352941177" cy="243.81328996969472" r="4" fill="#3b82f6" stroke="#0d1117" stroke-width="2" class="data-point"/>
  
    <circle cx="487.2058823529412" cy="242.5247616231798" r="4" fill="#3b82f6" stroke="#0d1117" stroke-width="2" class="data-point"/>
  
    <circle cx="492.3529411764706" cy="241.45391381476827" r="4" fill="#3b82f6" stroke="#0d1117" stroke-width="2" class="data-point"/>
  
    <circle cx="497.5" cy="240.4146647941459" r="4" fill="#3b82f6" stroke="#0d1117" stroke-width="2" class="data-point"/>
  
    <circle cx="502.6470588235294" cy="239.3719047971025" r="4" fill="#3b82f6" stroke="#0d1117" stroke-width="2" class="data-point"/>
  
    <circle cx="507.7941176470588" cy="238.1255081676399" r="4" fill="#3b82f6" stroke="#0d1117" stroke-width="2" class="data-point"/>
  
    <circle cx="512.9411764705883" cy="236.84400177396702" r="4" fill="#3b82f6" stroke="#0d1117" stroke-width="2" class="data-point"/>
  
    <circle cx="518.0882352941176" cy="235.2886392194545" r="4" fill="#3b82f6" stroke="#0d1117" stroke-width="2" class="data-point"/>
  
    <circle cx="523.2352941176471" cy="234.02819868430777" r="4" fill="#3b82f6" stroke="#0d1117" stroke-width="2" class="data-point"/>
  
    <circle cx="528.3823529411765" cy="232.99948259294848" r="4" fill="#3b82f6" stroke="#0d1117" stroke-width="2" class="data-point"/>
  
    <circle cx="533.5294117647059" cy="231.942678690221" r="4" fill="#3b82f6" stroke="#0d1117" stroke-width="2" class="data-point"/>
  
    <circle cx="538.6764705882354" cy="230.93151748096682" r="4" fill="#3b82f6" stroke="#0d1117" stroke-width="2" class="data-point"/>
  
    <circle cx="543.8235294117646" cy="229.68160987508315" r="4" fill="#3b82f6" stroke="#0d1117" stroke-width="2" class="data-point"/>
  
    <circle cx="548.9705882352941" cy="228.4001034814103" r="4" fill="#3b82f6" stroke="#0d1117" stroke-width="2" class="data-point"/>
  
    <circle cx="554.1176470588235" cy="225.56674550964595" r="4" fill="#3b82f6" stroke="#0d1117" stroke-width="2" class="data-point"/>
  
    <circle cx="559.2647058823529" cy="219.92811737748542" r="4" fill="#3b82f6" stroke="#0d1117" stroke-width="2" class="data-point"/>
  
    <circle cx="564.4117647058824" cy="213.21161948407126" r="4" fill="#3b82f6" stroke="#0d1117" stroke-width="2" class="data-point"/>
  
    <circle cx="569.5588235294117" cy="207.09198758223076" r="4" fill="#3b82f6" stroke="#0d1117" stroke-width="2" class="data-point"/>
  
    <circle cx="574.7058823529412" cy="203.98828442604776" r="4" fill="#3b82f6" stroke="#0d1117" stroke-width="2" class="data-point"/>
  
    <circle cx="579.8529411764706" cy="199.3116638332471" r="4" fill="#3b82f6" stroke="#0d1117" stroke-width="2" class="data-point"/>
  
    <circle cx="585" cy="196.20444970064307" r="4" fill="#3b82f6" stroke="#0d1117" stroke-width="2" class="data-point"/>
  
    <circle cx="590.1470588235294" cy="193.47993199793038" r="4" fill="#3b82f6" stroke="#0d1117" stroke-width="2" class="data-point"/>
  
    <circle cx="595.2941176470588" cy="190.81510089437506" r="4" fill="#3b82f6" stroke="#0d1117" stroke-width="2" class="data-point"/>
  
    <circle cx="600.4411764705883" cy="188.30475275334467" r="4" fill="#3b82f6" stroke="#0d1117" stroke-width="2" class="data-point"/>
  
    <circle cx="605.5882352941177" cy="184.40054697316873" r="4" fill="#3b82f6" stroke="#0d1117" stroke-width="2" class="data-point"/>
  
    <circle cx="610.7352941176471" cy="181.29684381698573" r="4" fill="#3b82f6" stroke="#0d1117" stroke-width="2" class="data-point"/>
  
    <circle cx="615.8823529411765" cy="177.32944046123143" r="4" fill="#3b82f6" stroke="#0d1117" stroke-width="2" class="data-point"/>
  
    <circle cx="621.0294117647059" cy="176.51840490797545" r="4" fill="#3b82f6" stroke="#0d1117" stroke-width="2" class="data-point"/>
  
    <circle cx="626.1764705882352" cy="176.41307561534484" r="4" fill="#3b82f6" stroke="#0d1117" stroke-width="2" class="data-point"/>
  
    <circle cx="631.3235294117648" cy="176.27614753492497" r="4" fill="#3b82f6" stroke="#0d1117" stroke-width="2" class="data-point"/>
  
    <circle cx="636.4705882352941" cy="176.16028531303127" r="4" fill="#3b82f6" stroke="#0d1117" stroke-width="2" class="data-point"/>
  
    <circle cx="641.6176470588235" cy="176.00931332692733" r="4" fill="#3b82f6" stroke="#0d1117" stroke-width="2" class="data-point"/>
  
    <circle cx="646.7647058823529" cy="175.87589622292853" r="4" fill="#3b82f6" stroke="#0d1117" stroke-width="2" class="data-point"/>
  
    <circle cx="651.9117647058823" cy="175.82323157661318" r="4" fill="#3b82f6" stroke="#0d1117" stroke-width="2" class="data-point"/>
  
    <circle cx="657.0588235294117" cy="175.630127873457" r="4" fill="#3b82f6" stroke="#0d1117" stroke-width="2" class="data-point"/>
  
    <circle cx="662.2058823529412" cy="175.44404612314287" r="4" fill="#3b82f6" stroke="#0d1117" stroke-width="2" class="data-point"/>
  
    <circle cx="667.3529411764706" cy="175.3211619484071" r="4" fill="#3b82f6" stroke="#0d1117" stroke-width="2" class="data-point"/>
  
    <circle cx="672.5" cy="175.27551925493384" r="4" fill="#3b82f6" stroke="#0d1117" stroke-width="2" class="data-point"/>
  
    <circle cx="677.6470588235294" cy="175.06837164609357" r="4" fill="#3b82f6" stroke="#0d1117" stroke-width="2" class="data-point"/>
  
    <circle cx="682.7941176470588" cy="169.97745583561237" r="4" fill="#3b82f6" stroke="#0d1117" stroke-width="2" class="data-point"/>
  
    <circle cx="687.9411764705883" cy="162.00402838347253" r="4" fill="#3b82f6" stroke="#0d1117" stroke-width="2" class="data-point"/>
  
    <circle cx="693.0882352941177" cy="156.6638332470988" r="4" fill="#3b82f6" stroke="#0d1117" stroke-width="2" class="data-point"/>
  
    <circle cx="698.2352941176471" cy="150.46344888757486" r="4" fill="#3b82f6" stroke="#0d1117" stroke-width="2" class="data-point"/>
  
    <circle cx="703.3823529411765" cy="144.0734718013157" r="4" fill="#3b82f6" stroke="#0d1117" stroke-width="2" class="data-point"/>
  
    <circle cx="708.5294117647059" cy="139.059797472097" r="4" fill="#3b82f6" stroke="#0d1117" stroke-width="2" class="data-point"/>
  
    <circle cx="713.6764705882352" cy="133.45276812772565" r="4" fill="#3b82f6" stroke="#0d1117" stroke-width="2" class="data-point"/>
  
    <circle cx="718.8235294117648" cy="124.9105624953803" r="4" fill="#3b82f6" stroke="#0d1117" stroke-width="2" class="data-point"/>
  
    <circle cx="723.9705882352941" cy="113.39807081085075" r="4" fill="#3b82f6" stroke="#0d1117" stroke-width="2" class="data-point"/>
  
    <circle cx="729.1176470588235" cy="105.88458126986475" r="4" fill="#3b82f6" stroke="#0d1117" stroke-width="2" class="data-point"/>
  
    <circle cx="734.2647058823529" cy="96.94212432552294" r="4" fill="#3b82f6" stroke="#0d1117" stroke-width="2" class="data-point"/>
  
    <circle cx="739.4117647058823" cy="86.97797324266392" r="4" fill="#3b82f6" stroke="#0d1117" stroke-width="2" class="data-point"/>
  
    <circle cx="744.5588235294117" cy="78.98699090841893" r="4" fill="#3b82f6" stroke="#0d1117" stroke-width="2" class="data-point"/>
  
    <circle cx="749.7058823529412" cy="70.31487914849583" r="4" fill="#3b82f6" stroke="#0d1117" stroke-width="2" class="data-point"/>
  
    <circle cx="754.8529411764706" cy="62.622329810037684" r="4" fill="#3b82f6" stroke="#0d1117" stroke-width="2" class="data-point"/>
  
    <circle cx="760" cy="55" r="4" fill="#3b82f6" stroke="#0d1117" stroke-width="2" class="data-point"/>
  

  <!-- Axis lines -->
  <line x1="60" y1="55" x2="60" y2="340"
        stroke="#30363d" stroke-width="2"/>
  <line x1="60" y1="340" x2="760" y2="340"
        stroke="#30363d" stroke-width="2"/>
</svg>