<?xml version="1.0" encoding="UTF-8"?>
<svg width="800" height="400" xmlns="http://www.w3.org/2000/svg">
  <defs>
    <!-- Gradient for area fill -->
    <linearGradient id="areaGradient" x1="0%" y1="0%" x2="0%" y2="100%">
      <stop offset="0%" style="stop-color:#3b82f6;stop-opacity:0.3" />
      <stop offset="100%" style="stop-color:#3b82f6;stop-opacity:0.05" />
    </linearGradient>

    <!-- Glow filter for line -->
    <filter id="glow">
      <feGaussianBlur stdDeviation="2" result="coloredBlur"/>
      <feMerge>
        <feMergeNode in="coloredBlur"/>
        <feMergeNode in="SourceGraphic"/>
      </feMerge>
    </filter>

    <!-- Animation -->
    <style>
      @keyframes draw {
        from { stroke-dashoffset: 2000; }
        to { stroke-dashoffset: 0; }
      }
      @keyframes fadeIn {
        from { opacity: 0; }
        to { opacity: 1; }
      }
      .line-path {
        stroke-dasharray: 2000;
        stroke-dashoffset: 2000;
        animation: draw 1.5s ease-out forwards;
      }
      .area-path {
        opacity: 0;
        animation: fadeIn 1s ease-out 0.5s forwards;
      }
      .data-point {
        opacity: 0;
        animation: fadeIn 0.5s ease-out 1s forwards;
      }
    </style>
  </defs>

  <!-- Background -->
  <rect width="800" height="400" fill="#0d1117" rx="8"/>

  <!-- Title -->
  <text x="400" y="25" text-anchor="middle" fill="#c9d1d9" font-family="system-ui, -apple-system, sans-serif" font-size="16" font-weight="600">
    zxcloli666/SoundCloud-Desktop Downloads
  </text>

  <!-- Stats -->
  <text x="780" y="25" text-anchor="end" fill="#58a6ff" font-family="system-ui, -apple-system, sans-serif" font-size="14" font-weight="600">
    106.7K total
  </text>
  <text x="780" y="42" text-anchor="end" fill="#3fb950" font-family="system-ui, -apple-system, sans-serif" font-size="12">
    +231 (+0.2%)
  </text>

  <!-- Grid lines -->
  <g opacity="0.1">
    
      <line x1="60" y1="340" x2="760" y2="340"
            stroke="#c9d1d9" stroke-width="1"/>
    
      <line x1="60" y1="268.75" x2="760" y2="268.75"
            stroke="#c9d1d9" stroke-width="1"/>
    
      <line x1="60" y1="197.5" x2="760" y2="197.5"
            stroke="#c9d1d9" stroke-width="1"/>
    
      <line x1="60" y1="126.25" x2="760" y2="126.25"
            stroke="#c9d1d9" stroke-width="1"/>
    
      <line x1="60" y1="55" x2="760" y2="55"
            stroke="#c9d1d9" stroke-width="1"/>
    
  </g>

  <!-- Y-axis labels -->
  
    <text x="50" y="344" text-anchor="end"
          fill="#8b949e" font-family="system-ui, -apple-system, sans-serif" font-size="11">
      60.2K
    </text>
  
    <text x="50" y="272.75" text-anchor="end"
          fill="#8b949e" font-family="system-ui, -apple-system, sans-serif" font-size="11">
      71.8K
    </text>
  
    <text x="50" y="201.5" text-anchor="end"
          fill="#8b949e" font-family="system-ui, -apple-system, sans-serif" font-size="11">
      83.4K
    </text>
  
    <text x="50" y="130.25" text-anchor="end"
          fill="#8b949e" font-family="system-ui, -apple-system, sans-serif" font-size="11">
      95.1K
    </text>
  
    <text x="50" y="59" text-anchor="end"
          fill="#8b949e" font-family="system-ui, -apple-system, sans-serif" font-size="11">
      106.7K
    </text>
  

  <!-- X-axis labels -->
  
    <text x="60" y="360" text-anchor="middle"
          fill="#8b949e" font-family="system-ui, -apple-system, sans-serif" font-size="11">
      Nov 25
    </text>
  
    <text x="143.4862385321101" y="360" text-anchor="middle"
          fill="#8b949e" font-family="system-ui, -apple-system, sans-serif" font-size="11">
      Dec 8
    </text>
  
    <text x="226.9724770642202" y="360" text-anchor="middle"
          fill="#8b949e" font-family="system-ui, -apple-system, sans-serif" font-size="11">
      Dec 21
    </text>
  
    <text x="310.4587155963303" y="360" text-anchor="middle"
          fill="#8b949e" font-family="system-ui, -apple-system, sans-serif" font-size="11">
      Jan 3
    </text>
  
    <text x="393.9449541284404" y="360" text-anchor="middle"
          fill="#8b949e" font-family="system-ui, -apple-system, sans-serif" font-size="11">
      Jan 16
    </text>
  
    <text x="477.43119266055044" y="360" text-anchor="middle"
          fill="#8b949e" font-family="system-ui, -apple-system, sans-serif" font-size="11">
      Jan 29
    </text>
  
    <text x="560.9174311926606" y="360" text-anchor="middle"
          fill="#8b949e" font-family="system-ui, -apple-system, sans-serif" font-size="11">
      Feb 11
    </text>
  
    <text x="644.4036697247707" y="360" text-anchor="middle"
          fill="#8b949e" font-family="system-ui, -apple-system, sans-serif" font-size="11">
      Feb 24
    </text>
  
    <text x="727.8899082568807" y="360" text-anchor="middle"
          fill="#8b949e" font-family="system-ui, -apple-system, sans-serif" font-size="11">
      Mar 9
    </text>
  
    <text x="760" y="360" text-anchor="middle"
          fill="#8b949e" font-family="system-ui, -apple-system, sans-serif" font-size="11">
      Mar 14
    </text>
  

  <!-- Area under line -->
  <path d="M 60 340
    L 60.00 340.00 L 66.42 339.10 L 72.84 337.57 L 79.27 336.15 L 85.69 333.33 L 92.11 330.41 L 98.53 328.12 L 104.95 325.98 L 111.38 324.07 L 117.80 321.84 L 124.22 319.35 L 130.64 316.68 L 137.06 314.26 L 143.49 311.68 L 149.91 309.80 L 156.33 307.85 L 162.75 305.21 L 169.17 303.44 L 175.60 300.99 L 182.02 298.16 L 188.44 296.03 L 194.86 294.28 L 201.28 293.15 L 207.71 292.21 L 214.13 290.46 L 220.55 289.22 L 226.97 286.50 L 233.39 285.43 L 239.82 284.04 L 246.24 282.26 L 252.66 281.03 L 259.08 279.79 L 265.50 278.49 L 271.93 277.58 L 278.35 276.80 L 284.77 275.60 L 291.19 274.15 L 297.61 272.82 L 304.04 271.13 L 310.46 269.29 L 316.88 267.60 L 323.30 265.56 L 329.72 263.56 L 336.15 261.56 L 342.57 259.37 L 348.99 257.27 L 355.41 254.88 L 361.83 252.74 L 368.26 250.94 L 374.68 249.49 L 381.10 247.47 L 387.52 245.17 L 393.94 243.05 L 400.37 240.59 L 406.79 237.54 L 413.21 235.28 L 419.63 233.40 L 426.06 231.61 L 432.48 229.47 L 438.90 226.97 L 445.32 224.20 L 451.74 221.29 L 458.17 218.50 L 464.59 216.05 L 471.01 213.61 L 477.43 211.46 L 483.85 209.27 L 490.28 206.82 L 496.70 203.78 L 503.12 201.51 L 509.54 199.47 L 515.96 197.22 L 522.39 195.11 L 528.81 192.80 L 535.23 190.38 L 541.65 187.86 L 548.07 185.65 L 554.50 183.76 L 560.92 181.69 L 567.34 179.44 L 573.76 177.36 L 580.18 174.65 L 586.61 172.32 L 593.03 170.07 L 599.45 168.20 L 605.87 166.39 L 612.29 164.57 L 618.72 162.40 L 625.14 160.17 L 631.56 157.46 L 637.98 155.26 L 644.40 153.46 L 650.83 151.62 L 657.25 149.86 L 663.67 147.68 L 670.09 145.45 L 676.51 140.51 L 682.94 130.68 L 689.36 118.97 L 695.78 108.30 L 702.20 102.89 L 708.62 94.74 L 715.05 89.32 L 721.47 84.57 L 727.89 79.92 L 734.31 75.55 L 740.73 68.74 L 747.16 63.33 L 753.58 56.41 L 760.00 55.00
    L 760 340
    Z" fill="url(#areaGradient)" class="area-path"/>

  <!-- Main line with glow -->
  <path d="M 60.00 340.00 L 66.42 339.10 L 72.84 337.57 L 79.27 336.15 L 85.69 333.33 L 92.11 330.41 L 98.53 328.12 L 104.95 325.98 L 111.38 324.07 L 117.80 321.84 L 124.22 319.35 L 130.64 316.68 L 137.06 314.26 L 143.49 311.68 L 149.91 309.80 L 156.33 307.85 L 162.75 305.21 L 169.17 303.44 L 175.60 300.99 L 182.02 298.16 L 188.44 296.03 L 194.86 294.28 L 201.28 293.15 L 207.71 292.21 L 214.13 290.46 L 220.55 289.22 L 226.97 286.50 L 233.39 285.43 L 239.82 284.04 L 246.24 282.26 L 252.66 281.03 L 259.08 279.79 L 265.50 278.49 L 271.93 277.58 L 278.35 276.80 L 284.77 275.60 L 291.19 274.15 L 297.61 272.82 L 304.04 271.13 L 310.46 269.29 L 316.88 267.60 L 323.30 265.56 L 329.72 263.56 L 336.15 261.56 L 342.57 259.37 L 348.99 257.27 L 355.41 254.88 L 361.83 252.74 L 368.26 250.94 L 374.68 249.49 L 381.10 247.47 L 387.52 245.17 L 393.94 243.05 L 400.37 240.59 L 406.79 237.54 L 413.21 235.28 L 419.63 233.40 L 426.06 231.61 L 432.48 229.47 L 438.90 226.97 L 445.32 224.20 L 451.74 221.29 L 458.17 218.50 L 464.59 216.05 L 471.01 213.61 L 477.43 211.46 L 483.85 209.27 L 490.28 206.82 L 496.70 203.78 L 503.12 201.51 L 509.54 199.47 L 515.96 197.22 L 522.39 195.11 L 528.81 192.80 L 535.23 190.38 L 541.65 187.86 L 548.07 185.65 L 554.50 183.76 L 560.92 181.69 L 567.34 179.44 L 573.76 177.36 L 580.18 174.65 L 586.61 172.32 L 593.03 170.07 L 599.45 168.20 L 605.87 166.39 L 612.29 164.57 L 618.72 162.40 L 625.14 160.17 L 631.56 157.46 L 637.98 155.26 L 644.40 153.46 L 650.83 151.62 L 657.25 149.86 L 663.67 147.68 L 670.09 145.45 L 676.51 140.51 L 682.94 130.68 L 689.36 118.97 L 695.78 108.30 L 702.20 102.89 L 708.62 94.74 L 715.05 89.32 L 721.47 84.57 L 727.89 79.92 L 734.31 75.55 L 740.73 68.74 L 747.16 63.33 L 753.58 56.41 L 760.00 55.00" fill="none" stroke="#3b82f6" stroke-width="3"
        stroke-linecap="round" stroke-linejoin="round" filter="url(#glow)" class="line-path"/>

  <!-- Data points -->
  
    <circle cx="60" cy="340" r="4" fill="#3b82f6" stroke="#0d1117" stroke-width="2" class="data-point"/>
  
    <circle cx="66.42201834862385" cy="339.10025127246956" r="4" fill="#3b82f6" stroke="#0d1117" stroke-width="2" class="data-point"/>
  
    <circle cx="72.8440366972477" cy="337.5700663617035" r="4" fill="#3b82f6" stroke="#0d1117" stroke-width="2" class="data-point"/>
  
    <circle cx="79.26605504587155" cy="336.1500547645126" r="4" fill="#3b82f6" stroke="#0d1117" stroke-width="2" class="data-point"/>
  
    <circle cx="85.68807339449542" cy="333.32839378906" r="4" fill="#3b82f6" stroke="#0d1117" stroke-width="2" class="data-point"/>
  
    <circle cx="92.11009174311927" cy="330.4149217189614" r="4" fill="#3b82f6" stroke="#0d1117" stroke-width="2" class="data-point"/>
  
    <circle cx="98.53211009174312" cy="328.1196443528123" r="4" fill="#3b82f6" stroke="#0d1117" stroke-width="2" class="data-point"/>
  
    <circle cx="104.95412844036697" cy="325.97738547773986" r="4" fill="#3b82f6" stroke="#0d1117" stroke-width="2" class="data-point"/>
  
    <circle cx="111.37614678899084" cy="324.0738354487469" r="4" fill="#3b82f6" stroke="#0d1117" stroke-width="2" class="data-point"/>
  
    <circle cx="117.79816513761469" cy="321.8397654790284" r="4" fill="#3b82f6" stroke="#0d1117" stroke-width="2" class="data-point"/>
  
    <circle cx="124.22018348623854" cy="319.34862444430127" r="4" fill="#3b82f6" stroke="#0d1117" stroke-width="2" class="data-point"/>
  
    <circle cx="130.6422018348624" cy="316.67998195992527" r="4" fill="#3b82f6" stroke="#0d1117" stroke-width="2" class="data-point"/>
  
    <circle cx="137.06422018348624" cy="314.2561690612718" r="4" fill="#3b82f6" stroke="#0d1117" stroke-width="2" class="data-point"/>
  
    <circle cx="143.4862385321101" cy="311.67933767154176" r="4" fill="#3b82f6" stroke="#0d1117" stroke-width="2" class="data-point"/>
  
    <circle cx="149.90825688073394" cy="309.80027060112104" r="4" fill="#3b82f6" stroke="#0d1117" stroke-width="2" class="data-point"/>
  
    <circle cx="156.33027522935782" cy="307.85387539462664" r="4" fill="#3b82f6" stroke="#0d1117" stroke-width="2" class="data-point"/>
  
    <circle cx="162.75229357798167" cy="305.20971586882285" r="4" fill="#3b82f6" stroke="#0d1117" stroke-width="2" class="data-point"/>
  
    <circle cx="169.17431192660553" cy="303.44082211197735" r="4" fill="#3b82f6" stroke="#0d1117" stroke-width="2" class="data-point"/>
  
    <circle cx="175.59633027522938" cy="300.9925262547516" r="4" fill="#3b82f6" stroke="#0d1117" stroke-width="2" class="data-point"/>
  
    <circle cx="182.01834862385323" cy="298.16474453965594" r="4" fill="#3b82f6" stroke="#0d1117" stroke-width="2" class="data-point"/>
  
    <circle cx="188.44036697247708" cy="296.0347271438696" r="4" fill="#3b82f6" stroke="#0d1117" stroke-width="2" class="data-point"/>
  
    <circle cx="194.86238532110093" cy="294.28419560595324" r="4" fill="#3b82f6" stroke="#0d1117" stroke-width="2" class="data-point"/>
  
    <circle cx="201.28440366972478" cy="293.1518587719863" r="4" fill="#3b82f6" stroke="#0d1117" stroke-width="2" class="data-point"/>
  
    <circle cx="207.70642201834863" cy="292.20926486695447" r="4" fill="#3b82f6" stroke="#0d1117" stroke-width="2" class="data-point"/>
  
    <circle cx="214.12844036697248" cy="290.4648540686811" r="4" fill="#3b82f6" stroke="#0d1117" stroke-width="2" class="data-point"/>
  
    <circle cx="220.55045871559633" cy="289.2223439211391" r="4" fill="#3b82f6" stroke="#0d1117" stroke-width="2" class="data-point"/>
  
    <circle cx="226.9724770642202" cy="286.4986147799755" r="4" fill="#3b82f6" stroke="#0d1117" stroke-width="2" class="data-point"/>
  
    <circle cx="233.39449541284404" cy="285.4274853424393" r="4" fill="#3b82f6" stroke="#0d1117" stroke-width="2" class="data-point"/>
  
    <circle cx="239.8165137614679" cy="284.04419818310674" r="4" fill="#3b82f6" stroke="#0d1117" stroke-width="2" class="data-point"/>
  
    <circle cx="246.23853211009174" cy="282.256942207332" r="4" fill="#3b82f6" stroke="#0d1117" stroke-width="2" class="data-point"/>
  
    <circle cx="252.66055045871562" cy="281.03279427871917" r="4" fill="#3b82f6" stroke="#0d1117" stroke-width="2" class="data-point"/>
  
    <circle cx="259.0825688073395" cy="279.79028413117715" r="4" fill="#3b82f6" stroke="#0d1117" stroke-width="2" class="data-point"/>
  
    <circle cx="265.50458715596335" cy="278.48656658720444" r="4" fill="#3b82f6" stroke="#0d1117" stroke-width="2" class="data-point"/>
  
    <circle cx="271.9266055045872" cy="277.58069712003095" r="4" fill="#3b82f6" stroke="#0d1117" stroke-width="2" class="data-point"/>
  
    <circle cx="278.34862385321105" cy="276.7972424457187" r="4" fill="#3b82f6" stroke="#0d1117" stroke-width="2" class="data-point"/>
  
    <circle cx="284.7706422018349" cy="275.6036982153212" r="4" fill="#3b82f6" stroke="#0d1117" stroke-width="2" class="data-point"/>
  
    <circle cx="291.19266055045875" cy="274.15308291991494" r="4" fill="#3b82f6" stroke="#0d1117" stroke-width="2" class="data-point"/>
  
    <circle cx="297.6146788990826" cy="272.81876167772697" r="4" fill="#3b82f6" stroke="#0d1117" stroke-width="2" class="data-point"/>
  
    <circle cx="304.03669724770646" cy="271.1294375362412" r="4" fill="#3b82f6" stroke="#0d1117" stroke-width="2" class="data-point"/>
  
    <circle cx="310.4587155963303" cy="269.2870949036789" r="4" fill="#3b82f6" stroke="#0d1117" stroke-width="2" class="data-point"/>
  
    <circle cx="316.88073394495416" cy="267.59777076219314" r="4" fill="#3b82f6" stroke="#0d1117" stroke-width="2" class="data-point"/>
  
    <circle cx="323.302752293578" cy="265.5595644610528" r="4" fill="#3b82f6" stroke="#0d1117" stroke-width="2" class="data-point"/>
  
    <circle cx="329.72477064220186" cy="263.55808259777075" r="4" fill="#3b82f6" stroke="#0d1117" stroke-width="2" class="data-point"/>
  
    <circle cx="336.1467889908257" cy="261.55660073448877" r="4" fill="#3b82f6" stroke="#0d1117" stroke-width="2" class="data-point"/>
  
    <circle cx="342.56880733944956" cy="259.3653759422717" r="4" fill="#3b82f6" stroke="#0d1117" stroke-width="2" class="data-point"/>
  
    <circle cx="348.9908256880734" cy="257.2720829843438" r="4" fill="#3b82f6" stroke="#0d1117" stroke-width="2" class="data-point"/>
  
    <circle cx="355.41284403669727" cy="254.87887378390568" r="4" fill="#3b82f6" stroke="#0d1117" stroke-width="2" class="data-point"/>
  
    <circle cx="361.8348623853211" cy="252.74273564847624" r="4" fill="#3b82f6" stroke="#0d1117" stroke-width="2" class="data-point"/>
  
    <circle cx="368.25688073394497" cy="250.93711745377232" r="4" fill="#3b82f6" stroke="#0d1117" stroke-width="2" class="data-point"/>
  
    <circle cx="374.6788990825688" cy="249.49262289800913" r="4" fill="#3b82f6" stroke="#0d1117" stroke-width="2" class="data-point"/>
  
    <circle cx="381.10091743119267" cy="247.47277881579794" r="4" fill="#3b82f6" stroke="#0d1117" stroke-width="2" class="data-point"/>
  
    <circle cx="387.5229357798165" cy="245.16525997036274" r="4" fill="#3b82f6" stroke="#0d1117" stroke-width="2" class="data-point"/>
  
    <circle cx="393.9449541284404" cy="243.0536047935056" r="4" fill="#3b82f6" stroke="#0d1117" stroke-width="2" class="data-point"/>
  
    <circle cx="400.3669724770642" cy="240.58694671735068" r="4" fill="#3b82f6" stroke="#0d1117" stroke-width="2" class="data-point"/>
  
    <circle cx="406.7889908256881" cy="237.54493911474776" r="4" fill="#3b82f6" stroke="#0d1117" stroke-width="2" class="data-point"/>
  
    <circle cx="413.2110091743119" cy="235.28026544681398" r="4" fill="#3b82f6" stroke="#0d1117" stroke-width="2" class="data-point"/>
  
    <circle cx="419.6330275229358" cy="233.40119837639327" r="4" fill="#3b82f6" stroke="#0d1117" stroke-width="2" class="data-point"/>
  
    <circle cx="426.0550458715596" cy="231.6139424006185" r="4" fill="#3b82f6" stroke="#0d1117" stroke-width="2" class="data-point"/>
  
    <circle cx="432.4770642201835" cy="229.465562785903" r="4" fill="#3b82f6" stroke="#0d1117" stroke-width="2" class="data-point"/>
  
    <circle cx="438.89908256880733" cy="226.9683010115328" r="4" fill="#3b82f6" stroke="#0d1117" stroke-width="2" class="data-point"/>
  
    <circle cx="445.32110091743124" cy="224.20172669286774" r="4" fill="#3b82f6" stroke="#0d1117" stroke-width="2" class="data-point"/>
  
    <circle cx="451.74311926605503" cy="221.2943753624122" r="4" fill="#3b82f6" stroke="#0d1117" stroke-width="2" class="data-point"/>
  
    <circle cx="458.16513761467894" cy="218.50331808517493" r="4" fill="#3b82f6" stroke="#0d1117" stroke-width="2" class="data-point"/>
  
    <circle cx="464.58715596330273" cy="216.04890148830617" r="4" fill="#3b82f6" stroke="#0d1117" stroke-width="2" class="data-point"/>
  
    <circle cx="471.00917431192664" cy="213.6128471103666" r="4" fill="#3b82f6" stroke="#0d1117" stroke-width="2" class="data-point"/>
  
    <circle cx="477.43119266055044" cy="211.46446749565106" r="4" fill="#3b82f6" stroke="#0d1117" stroke-width="2" class="data-point"/>
  
    <circle cx="483.85321100917434" cy="209.27324270343405" r="4" fill="#3b82f6" stroke="#0d1117" stroke-width="2" class="data-point"/>
  
    <circle cx="490.27522935779814" cy="206.82494684620838" r="4" fill="#3b82f6" stroke="#0d1117" stroke-width="2" class="data-point"/>
  
    <circle cx="496.69724770642205" cy="203.77681850396237" r="4" fill="#3b82f6" stroke="#0d1117" stroke-width="2" class="data-point"/>
  
    <circle cx="503.11926605504584" cy="201.50602409638554" r="4" fill="#3b82f6" stroke="#0d1117" stroke-width="2" class="data-point"/>
  
    <circle cx="509.54128440366975" cy="199.47393853488822" r="4" fill="#3b82f6" stroke="#0d1117" stroke-width="2" class="data-point"/>
  
    <circle cx="515.9633027522935" cy="197.21538560659752" r="4" fill="#3b82f6" stroke="#0d1117" stroke-width="2" class="data-point"/>
  
    <circle cx="522.3853211009175" cy="195.1098511693834" r="4" fill="#3b82f6" stroke="#0d1117" stroke-width="2" class="data-point"/>
  
    <circle cx="528.8073394495412" cy="192.79621158430513" r="4" fill="#3b82f6" stroke="#0d1117" stroke-width="2" class="data-point"/>
  
    <circle cx="535.2293577981652" cy="190.38464016493782" r="4" fill="#3b82f6" stroke="#0d1117" stroke-width="2" class="data-point"/>
  
    <circle cx="541.6513761467891" cy="187.86289543199536" r="4" fill="#3b82f6" stroke="#0d1117" stroke-width="2" class="data-point"/>
  
    <circle cx="548.0733944954129" cy="185.65330842084919" r="4" fill="#3b82f6" stroke="#0d1117" stroke-width="2" class="data-point"/>
  
    <circle cx="554.4954128440368" cy="183.76199987114234" r="4" fill="#3b82f6" stroke="#0d1117" stroke-width="2" class="data-point"/>
  
    <circle cx="560.9174311926606" cy="181.68706913214353" r="4" fill="#3b82f6" stroke="#0d1117" stroke-width="2" class="data-point"/>
  
    <circle cx="567.3394495412845" cy="179.44075768313897" r="4" fill="#3b82f6" stroke="#0d1117" stroke-width="2" class="data-point"/>
  
    <circle cx="573.7614678899083" cy="177.35970620449714" r="4" fill="#3b82f6" stroke="#0d1117" stroke-width="2" class="data-point"/>
  
    <circle cx="580.183486238532" cy="174.64821854261967" r="4" fill="#3b82f6" stroke="#0d1117" stroke-width="2" class="data-point"/>
  
    <circle cx="586.605504587156" cy="172.3162167386122" r="4" fill="#3b82f6" stroke="#0d1117" stroke-width="2" class="data-point"/>
  
    <circle cx="593.0275229357798" cy="170.06990528960765" r="4" fill="#3b82f6" stroke="#0d1117" stroke-width="2" class="data-point"/>
  
    <circle cx="599.4495412844037" cy="168.20307969847303" r="4" fill="#3b82f6" stroke="#0d1117" stroke-width="2" class="data-point"/>
  
    <circle cx="605.8715596330275" cy="166.39134076412603" r="4" fill="#3b82f6" stroke="#0d1117" stroke-width="2" class="data-point"/>
  
    <circle cx="612.2935779816514" cy="164.57348109013594" r="4" fill="#3b82f6" stroke="#0d1117" stroke-width="2" class="data-point"/>
  
    <circle cx="618.7155963302753" cy="162.40061851684814" r="4" fill="#3b82f6" stroke="#0d1117" stroke-width="2" class="data-point"/>
  
    <circle cx="625.1376146788991" cy="160.16654854712968" r="4" fill="#3b82f6" stroke="#0d1117" stroke-width="2" class="data-point"/>
  
    <circle cx="631.559633027523" cy="157.45506088525224" r="4" fill="#3b82f6" stroke="#0d1117" stroke-width="2" class="data-point"/>
  
    <circle cx="637.9816513761468" cy="155.25771535339217" r="4" fill="#3b82f6" stroke="#0d1117" stroke-width="2" class="data-point"/>
  
    <circle cx="644.4036697247707" cy="153.46433863797435" r="4" fill="#3b82f6" stroke="#0d1117" stroke-width="2" class="data-point"/>
  
    <circle cx="650.8256880733945" cy="151.62199600541203" r="4" fill="#3b82f6" stroke="#0d1117" stroke-width="2" class="data-point"/>
  
    <circle cx="657.2477064220184" cy="149.85922298820952" r="4" fill="#3b82f6" stroke="#0d1117" stroke-width="2" class="data-point"/>
  
    <circle cx="663.6697247706422" cy="147.68023967527867" r="4" fill="#3b82f6" stroke="#0d1117" stroke-width="2" class="data-point"/>
  
    <circle cx="670.0917431192661" cy="145.4461697055602" r="4" fill="#3b82f6" stroke="#0d1117" stroke-width="2" class="data-point"/>
  
    <circle cx="676.5137614678899" cy="140.50673281360736" r="4" fill="#3b82f6" stroke="#0d1117" stroke-width="2" class="data-point"/>
  
    <circle cx="682.9357798165138" cy="130.67682494684618" r="4" fill="#3b82f6" stroke="#0d1117" stroke-width="2" class="data-point"/>
  
    <circle cx="689.3577981651376" cy="118.96785000966432" r="4" fill="#3b82f6" stroke="#0d1117" stroke-width="2" class="data-point"/>
  
    <circle cx="695.7798165137615" cy="108.29940081180337" r="4" fill="#3b82f6" stroke="#0d1117" stroke-width="2" class="data-point"/>
  
    <circle cx="702.2018348623853" cy="102.88866696733459" r="4" fill="#3b82f6" stroke="#0d1117" stroke-width="2" class="data-point"/>
  
    <circle cx="708.6238532110092" cy="94.73584176277302" r="4" fill="#3b82f6" stroke="#0d1117" stroke-width="2" class="data-point"/>
  
    <circle cx="715.045871559633" cy="89.31898717866116" r="4" fill="#3b82f6" stroke="#0d1117" stroke-width="2" class="data-point"/>
  
    <circle cx="721.4678899082569" cy="84.56929321564331" r="4" fill="#3b82f6" stroke="#0d1117" stroke-width="2" class="data-point"/>
  
    <circle cx="727.8899082568807" cy="79.92365182655755" r="4" fill="#3b82f6" stroke="#0d1117" stroke-width="2" class="data-point"/>
  
    <circle cx="734.3119266055046" cy="75.54732298176663" r="4" fill="#3b82f6" stroke="#0d1117" stroke-width="2" class="data-point"/>
  
    <circle cx="740.7339449541284" cy="68.74106049867919" r="4" fill="#3b82f6" stroke="#0d1117" stroke-width="2" class="data-point"/>
  
    <circle cx="747.1559633027523" cy="63.33032665421041" r="4" fill="#3b82f6" stroke="#0d1117" stroke-width="2" class="data-point"/>
  
    <circle cx="753.5779816513761" cy="56.41389085754787" r="4" fill="#3b82f6" stroke="#0d1117" stroke-width="2" class="data-point"/>
  
    <circle cx="760" cy="55" r="4" fill="#3b82f6" stroke="#0d1117" stroke-width="2" class="data-point"/>
  

  <!-- Axis lines -->
  <line x1="60" y1="55" x2="60" y2="340"
        stroke="#30363d" stroke-width="2"/>
  <line x1="60" y1="340" x2="760" y2="340"
        stroke="#30363d" stroke-width="2"/>
</svg>