<?xml version="1.0" encoding="UTF-8"?>
<svg width="800" height="400" xmlns="http://www.w3.org/2000/svg">
  <defs>
    <!-- Gradient for area fill -->
    <linearGradient id="areaGradient" x1="0%" y1="0%" x2="0%" y2="100%">
      <stop offset="0%" style="stop-color:#3b82f6;stop-opacity:0.3" />
      <stop offset="100%" style="stop-color:#3b82f6;stop-opacity:0.05" />
    </linearGradient>

    <!-- Glow filter for line -->
    <filter id="glow">
      <feGaussianBlur stdDeviation="2" result="coloredBlur"/>
      <feMerge>
        <feMergeNode in="coloredBlur"/>
        <feMergeNode in="SourceGraphic"/>
      </feMerge>
    </filter>

    <!-- Animation -->
    <style>
      @keyframes draw {
        from { stroke-dashoffset: 2000; }
        to { stroke-dashoffset: 0; }
      }
      @keyframes fadeIn {
        from { opacity: 0; }
        to { opacity: 1; }
      }
      .line-path {
        stroke-dasharray: 2000;
        stroke-dashoffset: 2000;
        animation: draw 1.5s ease-out forwards;
      }
      .area-path {
        opacity: 0;
        animation: fadeIn 1s ease-out 0.5s forwards;
      }
      .data-point {
        opacity: 0;
        animation: fadeIn 0.5s ease-out 1s forwards;
      }
    </style>
  </defs>

  <!-- Background -->
  <rect width="800" height="400" fill="#0d1117" rx="8"/>

  <!-- Title -->
  <text x="400" y="25" text-anchor="middle" fill="#c9d1d9" font-family="system-ui, -apple-system, sans-serif" font-size="16" font-weight="600">
    zxcloli666/SoundCloud-Desktop Downloads
  </text>

  <!-- Stats -->
  <text x="780" y="25" text-anchor="end" fill="#58a6ff" font-family="system-ui, -apple-system, sans-serif" font-size="14" font-weight="600">
    266.9K total
  </text>
  <text x="780" y="42" text-anchor="end" fill="#3fb950" font-family="system-ui, -apple-system, sans-serif" font-size="12">
    +1.1K (+0.4%)
  </text>

  <!-- Grid lines -->
  <g opacity="0.1">
    
      <line x1="60" y1="340" x2="760" y2="340"
            stroke="#c9d1d9" stroke-width="1"/>
    
      <line x1="60" y1="268.75" x2="760" y2="268.75"
            stroke="#c9d1d9" stroke-width="1"/>
    
      <line x1="60" y1="197.5" x2="760" y2="197.5"
            stroke="#c9d1d9" stroke-width="1"/>
    
      <line x1="60" y1="126.25" x2="760" y2="126.25"
            stroke="#c9d1d9" stroke-width="1"/>
    
      <line x1="60" y1="55" x2="760" y2="55"
            stroke="#c9d1d9" stroke-width="1"/>
    
  </g>

  <!-- Y-axis labels -->
  
    <text x="50" y="344" text-anchor="end"
          fill="#8b949e" font-family="system-ui, -apple-system, sans-serif" font-size="11">
      60.2K
    </text>
  
    <text x="50" y="272.75" text-anchor="end"
          fill="#8b949e" font-family="system-ui, -apple-system, sans-serif" font-size="11">
      111.8K
    </text>
  
    <text x="50" y="201.5" text-anchor="end"
          fill="#8b949e" font-family="system-ui, -apple-system, sans-serif" font-size="11">
      163.5K
    </text>
  
    <text x="50" y="130.25" text-anchor="end"
          fill="#8b949e" font-family="system-ui, -apple-system, sans-serif" font-size="11">
      215.2K
    </text>
  
    <text x="50" y="59" text-anchor="end"
          fill="#8b949e" font-family="system-ui, -apple-system, sans-serif" font-size="11">
      266.9K
    </text>
  

  <!-- X-axis labels -->
  
    <text x="60" y="360" text-anchor="middle"
          fill="#8b949e" font-family="system-ui, -apple-system, sans-serif" font-size="11">
      Nov 25
    </text>
  
    <text x="145.44600938967136" y="360" text-anchor="middle"
          fill="#8b949e" font-family="system-ui, -apple-system, sans-serif" font-size="11">
      Dec 21
    </text>
  
    <text x="230.89201877934272" y="360" text-anchor="middle"
          fill="#8b949e" font-family="system-ui, -apple-system, sans-serif" font-size="11">
      Jan 16
    </text>
  
    <text x="316.3380281690141" y="360" text-anchor="middle"
          fill="#8b949e" font-family="system-ui, -apple-system, sans-serif" font-size="11">
      Feb 11
    </text>
  
    <text x="401.78403755868544" y="360" text-anchor="middle"
          fill="#8b949e" font-family="system-ui, -apple-system, sans-serif" font-size="11">
      Mar 9
    </text>
  
    <text x="487.23004694835686" y="360" text-anchor="middle"
          fill="#8b949e" font-family="system-ui, -apple-system, sans-serif" font-size="11">
      Apr 4
    </text>
  
    <text x="572.6760563380282" y="360" text-anchor="middle"
          fill="#8b949e" font-family="system-ui, -apple-system, sans-serif" font-size="11">
      Apr 30
    </text>
  
    <text x="658.1220657276996" y="360" text-anchor="middle"
          fill="#8b949e" font-family="system-ui, -apple-system, sans-serif" font-size="11">
      May 26
    </text>
  
    <text x="743.5680751173709" y="360" text-anchor="middle"
          fill="#8b949e" font-family="system-ui, -apple-system, sans-serif" font-size="11">
      Jun 21
    </text>
  
    <text x="760" y="360" text-anchor="middle"
          fill="#8b949e" font-family="system-ui, -apple-system, sans-serif" font-size="11">
      Jun 26
    </text>
  

  <!-- Area under line -->
  <path d="M 60 340
    L 60.00 340.00 L 63.29 339.80 L 66.57 339.45 L 69.86 339.13 L 73.15 338.50 L 76.43 337.84 L 79.72 337.32 L 83.00 336.84 L 86.29 336.41 L 89.58 335.91 L 92.86 335.35 L 96.15 334.75 L 99.44 334.20 L 102.72 333.62 L 106.01 333.20 L 109.30 332.76 L 112.58 332.16 L 115.87 331.77 L 119.15 331.21 L 122.44 330.58 L 125.73 330.10 L 129.01 329.70 L 132.30 329.45 L 135.59 329.24 L 138.87 328.84 L 142.16 328.56 L 145.45 327.95 L 148.73 327.71 L 152.02 327.40 L 155.31 326.99 L 158.59 326.72 L 161.88 326.44 L 165.16 326.14 L 168.45 325.94 L 171.74 325.76 L 175.02 325.50 L 178.31 325.17 L 181.60 324.87 L 184.88 324.49 L 188.17 324.07 L 191.46 323.69 L 194.74 323.23 L 198.03 322.78 L 201.31 322.33 L 204.60 321.84 L 207.89 321.37 L 211.17 320.83 L 214.46 320.35 L 217.75 319.94 L 221.03 319.61 L 224.32 319.16 L 227.61 318.64 L 230.89 318.16 L 234.18 317.61 L 237.46 316.92 L 240.75 316.41 L 244.04 315.99 L 247.32 315.59 L 250.61 315.10 L 253.90 314.54 L 257.18 313.92 L 260.47 313.26 L 263.76 312.63 L 267.04 312.08 L 270.33 311.53 L 273.62 311.05 L 276.90 310.55 L 280.19 310.00 L 283.47 309.32 L 286.76 308.81 L 290.05 308.35 L 293.33 307.84 L 296.62 307.36 L 299.91 306.84 L 303.19 306.30 L 306.48 305.73 L 309.77 305.23 L 313.05 304.81 L 316.34 304.34 L 319.62 303.84 L 322.91 303.37 L 326.20 302.76 L 329.48 302.23 L 332.77 301.72 L 336.06 301.30 L 339.34 300.90 L 342.63 300.49 L 345.92 300.00 L 349.20 299.49 L 352.49 298.88 L 355.77 298.39 L 359.06 297.98 L 362.35 297.57 L 365.63 297.17 L 368.92 296.68 L 372.21 296.18 L 375.49 295.07 L 378.78 292.85 L 382.07 290.21 L 385.35 287.81 L 388.64 286.59 L 391.92 284.76 L 395.21 283.54 L 398.50 282.47 L 401.78 281.42 L 405.07 280.43 L 408.36 278.90 L 411.64 277.68 L 414.93 276.12 L 418.22 275.81 L 421.50 275.76 L 424.79 275.71 L 428.08 275.67 L 431.36 275.61 L 434.65 275.55 L 437.93 275.53 L 441.22 275.46 L 444.51 275.38 L 447.79 275.34 L 451.08 275.32 L 454.37 275.24 L 457.65 273.24 L 460.94 270.11 L 464.23 268.01 L 467.51 265.57 L 470.80 263.07 L 474.08 261.10 L 477.37 258.90 L 480.66 255.54 L 483.94 251.02 L 487.23 248.07 L 490.52 244.56 L 493.80 240.65 L 497.09 237.51 L 500.38 234.10 L 503.66 231.08 L 506.95 228.09 L 510.23 225.10 L 513.52 221.04 L 516.81 216.96 L 520.09 213.57 L 523.38 210.72 L 526.67 207.95 L 529.95 204.29 L 533.24 201.44 L 536.53 198.63 L 539.81 196.00 L 543.10 193.52 L 546.38 190.98 L 549.67 188.81 L 552.96 186.56 L 556.24 184.26 L 559.53 181.84 L 562.82 179.61 L 566.10 177.57 L 569.39 173.88 L 572.68 170.78 L 575.96 167.81 L 579.25 164.96 L 582.54 160.46 L 585.82 157.61 L 589.11 155.14 L 592.39 152.23 L 595.68 147.93 L 598.97 144.85 L 602.25 142.24 L 605.54 140.03 L 608.83 137.94 L 612.11 136.23 L 615.40 134.32 L 618.69 132.75 L 621.97 130.91 L 625.26 128.25 L 628.54 125.97 L 631.83 123.99 L 635.12 122.27 L 638.40 120.50 L 641.69 119.01 L 644.98 116.50 L 648.26 114.36 L 651.55 112.23 L 654.84 110.48 L 658.12 108.87 L 661.41 107.44 L 664.69 104.99 L 667.98 103.00 L 671.27 101.18 L 674.55 99.45 L 677.84 97.94 L 681.13 96.47 L 684.41 95.12 L 687.70 93.83 L 690.99 92.65 L 694.27 91.17 L 697.56 89.59 L 700.85 88.13 L 704.13 85.86 L 707.42 84.22 L 710.70 82.64 L 713.99 81.26 L 717.28 79.65 L 720.56 77.66 L 723.85 75.90 L 727.14 74.32 L 730.42 72.62 L 733.71 70.26 L 737.00 68.32 L 740.28 66.25 L 743.57 64.18 L 746.85 62.26 L 750.14 60.37 L 753.43 58.37 L 756.71 56.57 L 760.00 55.00
    L 760 340
    Z" fill="url(#areaGradient)" class="area-path"/>

  <!-- Main line with glow -->
  <path d="M 60.00 340.00 L 63.29 339.80 L 66.57 339.45 L 69.86 339.13 L 73.15 338.50 L 76.43 337.84 L 79.72 337.32 L 83.00 336.84 L 86.29 336.41 L 89.58 335.91 L 92.86 335.35 L 96.15 334.75 L 99.44 334.20 L 102.72 333.62 L 106.01 333.20 L 109.30 332.76 L 112.58 332.16 L 115.87 331.77 L 119.15 331.21 L 122.44 330.58 L 125.73 330.10 L 129.01 329.70 L 132.30 329.45 L 135.59 329.24 L 138.87 328.84 L 142.16 328.56 L 145.45 327.95 L 148.73 327.71 L 152.02 327.40 L 155.31 326.99 L 158.59 326.72 L 161.88 326.44 L 165.16 326.14 L 168.45 325.94 L 171.74 325.76 L 175.02 325.50 L 178.31 325.17 L 181.60 324.87 L 184.88 324.49 L 188.17 324.07 L 191.46 323.69 L 194.74 323.23 L 198.03 322.78 L 201.31 322.33 L 204.60 321.84 L 207.89 321.37 L 211.17 320.83 L 214.46 320.35 L 217.75 319.94 L 221.03 319.61 L 224.32 319.16 L 227.61 318.64 L 230.89 318.16 L 234.18 317.61 L 237.46 316.92 L 240.75 316.41 L 244.04 315.99 L 247.32 315.59 L 250.61 315.10 L 253.90 314.54 L 257.18 313.92 L 260.47 313.26 L 263.76 312.63 L 267.04 312.08 L 270.33 311.53 L 273.62 311.05 L 276.90 310.55 L 280.19 310.00 L 283.47 309.32 L 286.76 308.81 L 290.05 308.35 L 293.33 307.84 L 296.62 307.36 L 299.91 306.84 L 303.19 306.30 L 306.48 305.73 L 309.77 305.23 L 313.05 304.81 L 316.34 304.34 L 319.62 303.84 L 322.91 303.37 L 326.20 302.76 L 329.48 302.23 L 332.77 301.72 L 336.06 301.30 L 339.34 300.90 L 342.63 300.49 L 345.92 300.00 L 349.20 299.49 L 352.49 298.88 L 355.77 298.39 L 359.06 297.98 L 362.35 297.57 L 365.63 297.17 L 368.92 296.68 L 372.21 296.18 L 375.49 295.07 L 378.78 292.85 L 382.07 290.21 L 385.35 287.81 L 388.64 286.59 L 391.92 284.76 L 395.21 283.54 L 398.50 282.47 L 401.78 281.42 L 405.07 280.43 L 408.36 278.90 L 411.64 277.68 L 414.93 276.12 L 418.22 275.81 L 421.50 275.76 L 424.79 275.71 L 428.08 275.67 L 431.36 275.61 L 434.65 275.55 L 437.93 275.53 L 441.22 275.46 L 444.51 275.38 L 447.79 275.34 L 451.08 275.32 L 454.37 275.24 L 457.65 273.24 L 460.94 270.11 L 464.23 268.01 L 467.51 265.57 L 470.80 263.07 L 474.08 261.10 L 477.37 258.90 L 480.66 255.54 L 483.94 251.02 L 487.23 248.07 L 490.52 244.56 L 493.80 240.65 L 497.09 237.51 L 500.38 234.10 L 503.66 231.08 L 506.95 228.09 L 510.23 225.10 L 513.52 221.04 L 516.81 216.96 L 520.09 213.57 L 523.38 210.72 L 526.67 207.95 L 529.95 204.29 L 533.24 201.44 L 536.53 198.63 L 539.81 196.00 L 543.10 193.52 L 546.38 190.98 L 549.67 188.81 L 552.96 186.56 L 556.24 184.26 L 559.53 181.84 L 562.82 179.61 L 566.10 177.57 L 569.39 173.88 L 572.68 170.78 L 575.96 167.81 L 579.25 164.96 L 582.54 160.46 L 585.82 157.61 L 589.11 155.14 L 592.39 152.23 L 595.68 147.93 L 598.97 144.85 L 602.25 142.24 L 605.54 140.03 L 608.83 137.94 L 612.11 136.23 L 615.40 134.32 L 618.69 132.75 L 621.97 130.91 L 625.26 128.25 L 628.54 125.97 L 631.83 123.99 L 635.12 122.27 L 638.40 120.50 L 641.69 119.01 L 644.98 116.50 L 648.26 114.36 L 651.55 112.23 L 654.84 110.48 L 658.12 108.87 L 661.41 107.44 L 664.69 104.99 L 667.98 103.00 L 671.27 101.18 L 674.55 99.45 L 677.84 97.94 L 681.13 96.47 L 684.41 95.12 L 687.70 93.83 L 690.99 92.65 L 694.27 91.17 L 697.56 89.59 L 700.85 88.13 L 704.13 85.86 L 707.42 84.22 L 710.70 82.64 L 713.99 81.26 L 717.28 79.65 L 720.56 77.66 L 723.85 75.90 L 727.14 74.32 L 730.42 72.62 L 733.71 70.26 L 737.00 68.32 L 740.28 66.25 L 743.57 64.18 L 746.85 62.26 L 750.14 60.37 L 753.43 58.37 L 756.71 56.57 L 760.00 55.00" fill="none" stroke="#3b82f6" stroke-width="3"
        stroke-linecap="round" stroke-linejoin="round" filter="url(#glow)" class="line-path"/>

  <!-- Data points -->
  
    <circle cx="60" cy="340" r="4" fill="#3b82f6" stroke="#0d1117" stroke-width="2" class="data-point"/>
  
    <circle cx="63.286384976525824" cy="339.7973384802926" r="4" fill="#3b82f6" stroke="#0d1117" stroke-width="2" class="data-point"/>
  
    <circle cx="66.57276995305165" cy="339.45267603181054" r="4" fill="#3b82f6" stroke="#0d1117" stroke-width="2" class="data-point"/>
  
    <circle cx="69.85915492957747" cy="339.1328292796192" r="4" fill="#3b82f6" stroke="#0d1117" stroke-width="2" class="data-point"/>
  
    <circle cx="73.14553990610328" cy="338.4972717246183" r="4" fill="#3b82f6" stroke="#0d1117" stroke-width="2" class="data-point"/>
  
    <circle cx="76.4319248826291" cy="337.84103442270856" r="4" fill="#3b82f6" stroke="#0d1117" stroke-width="2" class="data-point"/>
  
    <circle cx="79.71830985915493" cy="337.3240407499855" r="4" fill="#3b82f6" stroke="#0d1117" stroke-width="2" class="data-point"/>
  
    <circle cx="83.00469483568075" cy="336.84151332211064" r="4" fill="#3b82f6" stroke="#0d1117" stroke-width="2" class="data-point"/>
  
    <circle cx="86.29107981220658" cy="336.41275323619897" r="4" fill="#3b82f6" stroke="#0d1117" stroke-width="2" class="data-point"/>
  
    <circle cx="89.57746478873239" cy="335.9095460614152" r="4" fill="#3b82f6" stroke="#0d1117" stroke-width="2" class="data-point"/>
  
    <circle cx="92.86384976525821" cy="335.34843559528645" r="4" fill="#3b82f6" stroke="#0d1117" stroke-width="2" class="data-point"/>
  
    <circle cx="96.15023474178403" cy="334.7473442851338" r="4" fill="#3b82f6" stroke="#0d1117" stroke-width="2" class="data-point"/>
  
    <circle cx="99.43661971830986" cy="334.2013989667383" r="4" fill="#3b82f6" stroke="#0d1117" stroke-width="2" class="data-point"/>
  
    <circle cx="102.72300469483568" cy="333.6209874034945" r="4" fill="#3b82f6" stroke="#0d1117" stroke-width="2" class="data-point"/>
  
    <circle cx="106.0093896713615" cy="333.19774191675856" r="4" fill="#3b82f6" stroke="#0d1117" stroke-width="2" class="data-point"/>
  
    <circle cx="109.29577464788733" cy="332.75933128228945" r="4" fill="#3b82f6" stroke="#0d1117" stroke-width="2" class="data-point"/>
  
    <circle cx="112.58215962441315" cy="332.1637545713125" r="4" fill="#3b82f6" stroke="#0d1117" stroke-width="2" class="data-point"/>
  
    <circle cx="115.86854460093898" cy="331.7653247808672" r="4" fill="#3b82f6" stroke="#0d1117" stroke-width="2" class="data-point"/>
  
    <circle cx="119.15492957746478" cy="331.213864863296" r="4" fill="#3b82f6" stroke="#0d1117" stroke-width="2" class="data-point"/>
  
    <circle cx="122.44131455399061" cy="330.5769286585012" r="4" fill="#3b82f6" stroke="#0d1117" stroke-width="2" class="data-point"/>
  
    <circle cx="125.72769953051643" cy="330.0971585302142" r="4" fill="#3b82f6" stroke="#0d1117" stroke-width="2" class="data-point"/>
  
    <circle cx="129.01408450704224" cy="329.7028646891508" r="4" fill="#3b82f6" stroke="#0d1117" stroke-width="2" class="data-point"/>
  
    <circle cx="132.30046948356807" cy="329.44781447727405" r="4" fill="#3b82f6" stroke="#0d1117" stroke-width="2" class="data-point"/>
  
    <circle cx="135.5868544600939" cy="329.2355024090091" r="4" fill="#3b82f6" stroke="#0d1117" stroke-width="2" class="data-point"/>
  
    <circle cx="138.8732394366197" cy="328.8425872177396" r="4" fill="#3b82f6" stroke="#0d1117" stroke-width="2" class="data-point"/>
  
    <circle cx="142.15962441314554" cy="328.56272130957217" r="4" fill="#3b82f6" stroke="#0d1117" stroke-width="2" class="data-point"/>
  
    <circle cx="145.44600938967136" cy="327.94922215127417" r="4" fill="#3b82f6" stroke="#0d1117" stroke-width="2" class="data-point"/>
  
    <circle cx="148.73239436619718" cy="327.70795843733674" r="4" fill="#3b82f6" stroke="#0d1117" stroke-width="2" class="data-point"/>
  
    <circle cx="152.018779342723" cy="327.39638358390897" r="4" fill="#3b82f6" stroke="#0d1117" stroke-width="2" class="data-point"/>
  
    <circle cx="155.30516431924883" cy="326.99381784408195" r="4" fill="#3b82f6" stroke="#0d1117" stroke-width="2" class="data-point"/>
  
    <circle cx="158.59154929577466" cy="326.7180878852963" r="4" fill="#3b82f6" stroke="#0d1117" stroke-width="2" class="data-point"/>
  
    <circle cx="161.87793427230048" cy="326.43822197712893" r="4" fill="#3b82f6" stroke="#0d1117" stroke-width="2" class="data-point"/>
  
    <circle cx="165.1643192488263" cy="326.14456957102226" r="4" fill="#3b82f6" stroke="#0d1117" stroke-width="2" class="data-point"/>
  
    <circle cx="168.4507042253521" cy="325.94052940152085" r="4" fill="#3b82f6" stroke="#0d1117" stroke-width="2" class="data-point"/>
  
    <circle cx="171.73708920187795" cy="325.7640622278981" r="4" fill="#3b82f6" stroke="#0d1117" stroke-width="2" class="data-point"/>
  
    <circle cx="175.02347417840377" cy="325.49522551808207" r="4" fill="#3b82f6" stroke="#0d1117" stroke-width="2" class="data-point"/>
  
    <circle cx="178.30985915492957" cy="325.1684855169211" r="4" fill="#3b82f6" stroke="#0d1117" stroke-width="2" class="data-point"/>
  
    <circle cx="181.59624413145542" cy="324.8679398618448" r="4" fill="#3b82f6" stroke="#0d1117" stroke-width="2" class="data-point"/>
  
    <circle cx="184.88262910798122" cy="324.4874325187206" r="4" fill="#3b82f6" stroke="#0d1117" stroke-width="2" class="data-point"/>
  
    <circle cx="188.16901408450704" cy="324.07245893074827" r="4" fill="#3b82f6" stroke="#0d1117" stroke-width="2" class="data-point"/>
  
    <circle cx="191.45539906103286" cy="323.6919515876241" r="4" fill="#3b82f6" stroke="#0d1117" stroke-width="2" class="data-point"/>
  
    <circle cx="194.7417840375587" cy="323.232861206246" r="4" fill="#3b82f6" stroke="#0d1117" stroke-width="2" class="data-point"/>
  
    <circle cx="198.0281690140845" cy="322.7820427236315" r="4" fill="#3b82f6" stroke="#0d1117" stroke-width="2" class="data-point"/>
  
    <circle cx="201.31455399061034" cy="322.331224241017" r="4" fill="#3b82f6" stroke="#0d1117" stroke-width="2" class="data-point"/>
  
    <circle cx="204.60093896713616" cy="321.83766761479075" r="4" fill="#3b82f6" stroke="#0d1117" stroke-width="2" class="data-point"/>
  
    <circle cx="207.88732394366198" cy="321.3661693852673" r="4" fill="#3b82f6" stroke="#0d1117" stroke-width="2" class="data-point"/>
  
    <circle cx="211.1737089201878" cy="320.8271173158414" r="4" fill="#3b82f6" stroke="#0d1117" stroke-width="2" class="data-point"/>
  
    <circle cx="214.4600938967136" cy="320.3459685377605" r="4" fill="#3b82f6" stroke="#0d1117" stroke-width="2" class="data-point"/>
  
    <circle cx="217.74647887323945" cy="319.9392668485517" r="4" fill="#3b82f6" stroke="#0d1117" stroke-width="2" class="data-point"/>
  
    <circle cx="221.03286384976525" cy="319.61390549718465" r="4" fill="#3b82f6" stroke="#0d1117" stroke-width="2" class="data-point"/>
  
    <circle cx="224.31924882629107" cy="319.1589510651884" r="4" fill="#3b82f6" stroke="#0d1117" stroke-width="2" class="data-point"/>
  
    <circle cx="227.6056338028169" cy="318.63920009287745" r="4" fill="#3b82f6" stroke="#0d1117" stroke-width="2" class="data-point"/>
  
    <circle cx="230.89201877934272" cy="318.16356591397226" r="4" fill="#3b82f6" stroke="#0d1117" stroke-width="2" class="data-point"/>
  
    <circle cx="234.17840375586854" cy="317.6079700470192" r="4" fill="#3b82f6" stroke="#0d1117" stroke-width="2" class="data-point"/>
  
    <circle cx="237.46478873239437" cy="316.9227810994369" r="4" fill="#3b82f6" stroke="#0d1117" stroke-width="2" class="data-point"/>
  
    <circle cx="240.7511737089202" cy="316.41268067568353" r="4" fill="#3b82f6" stroke="#0d1117" stroke-width="2" class="data-point"/>
  
    <circle cx="244.03755868544602" cy="315.9894351889476" r="4" fill="#3b82f6" stroke="#0d1117" stroke-width="2" class="data-point"/>
  
    <circle cx="247.3239436619718" cy="315.58686944912057" r="4" fill="#3b82f6" stroke="#0d1117" stroke-width="2" class="data-point"/>
  
    <circle cx="250.61032863849763" cy="315.1029633714518" r="4" fill="#3b82f6" stroke="#0d1117" stroke-width="2" class="data-point"/>
  
    <circle cx="253.8967136150235" cy="314.5404742555291" r="4" fill="#3b82f6" stroke="#0d1117" stroke-width="2" class="data-point"/>
  
    <circle cx="257.1830985915493" cy="313.9173245486736" r="4" fill="#3b82f6" stroke="#0d1117" stroke-width="2" class="data-point"/>
  
    <circle cx="260.46948356807513" cy="313.2624658965577" r="4" fill="#3b82f6" stroke="#0d1117" stroke-width="2" class="data-point"/>
  
    <circle cx="263.75586854460096" cy="312.6338015905265" r="4" fill="#3b82f6" stroke="#0d1117" stroke-width="2" class="data-point"/>
  
    <circle cx="267.0422535211268" cy="312.0809630231613" r="4" fill="#3b82f6" stroke="#0d1117" stroke-width="2" class="data-point"/>
  
    <circle cx="270.3286384976526" cy="311.5322604051779" r="4" fill="#3b82f6" stroke="#0d1117" stroke-width="2" class="data-point"/>
  
    <circle cx="273.61502347417843" cy="311.0483543275091" r="4" fill="#3b82f6" stroke="#0d1117" stroke-width="2" class="data-point"/>
  
    <circle cx="276.9014084507042" cy="310.5547977012829" r="4" fill="#3b82f6" stroke="#0d1117" stroke-width="2" class="data-point"/>
  
    <circle cx="280.1877934272301" cy="310.00333778371163" r="4" fill="#3b82f6" stroke="#0d1117" stroke-width="2" class="data-point"/>
  
    <circle cx="283.4741784037559" cy="309.3167701863354" r="4" fill="#3b82f6" stroke="#0d1117" stroke-width="2" class="data-point"/>
  
    <circle cx="286.7605633802817" cy="308.80529111278804" r="4" fill="#3b82f6" stroke="#0d1117" stroke-width="2" class="data-point"/>
  
    <circle cx="290.04694835680755" cy="308.3475793812039" r="4" fill="#3b82f6" stroke="#0d1117" stroke-width="2" class="data-point"/>
  
    <circle cx="293.3333333333333" cy="307.83885760724445" r="4" fill="#3b82f6" stroke="#0d1117" stroke-width="2" class="data-point"/>
  
    <circle cx="296.61971830985914" cy="307.36460207813315" r="4" fill="#3b82f6" stroke="#0d1117" stroke-width="2" class="data-point"/>
  
    <circle cx="299.906103286385" cy="306.84347245602834" r="4" fill="#3b82f6" stroke="#0d1117" stroke-width="2" class="data-point"/>
  
    <circle cx="303.19248826291084" cy="306.3002844372206" r="4" fill="#3b82f6" stroke="#0d1117" stroke-width="2" class="data-point"/>
  
    <circle cx="306.4788732394366" cy="305.73228072212225" r="4" fill="#3b82f6" stroke="#0d1117" stroke-width="2" class="data-point"/>
  
    <circle cx="309.76525821596243" cy="305.23458814651417" r="4" fill="#3b82f6" stroke="#0d1117" stroke-width="2" class="data-point"/>
  
    <circle cx="313.05164319248826" cy="304.8085853601904" r="4" fill="#3b82f6" stroke="#0d1117" stroke-width="2" class="data-point"/>
  
    <circle cx="316.3380281690141" cy="304.34122308004874" r="4" fill="#3b82f6" stroke="#0d1117" stroke-width="2" class="data-point"/>
  
    <circle cx="319.6244131455399" cy="303.83525860567715" r="4" fill="#3b82f6" stroke="#0d1117" stroke-width="2" class="data-point"/>
  
    <circle cx="322.9107981220657" cy="303.3665176757416" r="4" fill="#3b82f6" stroke="#0d1117" stroke-width="2" class="data-point"/>
  
    <circle cx="326.19718309859155" cy="302.7557758170314" r="4" fill="#3b82f6" stroke="#0d1117" stroke-width="2" class="data-point"/>
  
    <circle cx="329.4835680751174" cy="302.2305102455448" r="4" fill="#3b82f6" stroke="#0d1117" stroke-width="2" class="data-point"/>
  
    <circle cx="332.7699530516432" cy="301.72454577117315" r="4" fill="#3b82f6" stroke="#0d1117" stroke-width="2" class="data-point"/>
  
    <circle cx="336.056338028169" cy="301.3040575840251" r="4" fill="#3b82f6" stroke="#0d1117" stroke-width="2" class="data-point"/>
  
    <circle cx="339.34272300469485" cy="300.8959772450223" r="4" fill="#3b82f6" stroke="#0d1117" stroke-width="2" class="data-point"/>
  
    <circle cx="342.62910798122067" cy="300.4865182562257" r="4" fill="#3b82f6" stroke="#0d1117" stroke-width="2" class="data-point"/>
  
    <circle cx="345.9154929577465" cy="299.9970975793812" r="4" fill="#3b82f6" stroke="#0d1117" stroke-width="2" class="data-point"/>
  
    <circle cx="349.2018779342723" cy="299.49389040459744" r="4" fill="#3b82f6" stroke="#0d1117" stroke-width="2" class="data-point"/>
  
    <circle cx="352.4882629107981" cy="298.88314854588725" r="4" fill="#3b82f6" stroke="#0d1117" stroke-width="2" class="data-point"/>
  
    <circle cx="355.77464788732397" cy="298.38821326986704" r="4" fill="#3b82f6" stroke="#0d1117" stroke-width="2" class="data-point"/>
  
    <circle cx="359.0610328638498" cy="297.98426888024613" r="4" fill="#3b82f6" stroke="#0d1117" stroke-width="2" class="data-point"/>
  
    <circle cx="362.3474178403756" cy="297.56929529227375" r="4" fill="#3b82f6" stroke="#0d1117" stroke-width="2" class="data-point"/>
  
    <circle cx="365.6338028169014" cy="297.17224415162246" r="4" fill="#3b82f6" stroke="#0d1117" stroke-width="2" class="data-point"/>
  
    <circle cx="368.9201877934272" cy="296.68144482498406" r="4" fill="#3b82f6" stroke="#0d1117" stroke-width="2" class="data-point"/>
  
    <circle cx="372.206572769953" cy="296.1782376502003" r="4" fill="#3b82f6" stroke="#0d1117" stroke-width="2" class="data-point"/>
  
    <circle cx="375.4929577464789" cy="295.06566726650027" r="4" fill="#3b82f6" stroke="#0d1117" stroke-width="2" class="data-point"/>
  
    <circle cx="378.77934272300473" cy="292.85155569745166" r="4" fill="#3b82f6" stroke="#0d1117" stroke-width="2" class="data-point"/>
  
    <circle cx="382.0657276995305" cy="290.21419864166717" r="4" fill="#3b82f6" stroke="#0d1117" stroke-width="2" class="data-point"/>
  
    <circle cx="385.3521126760563" cy="287.81121205085043" r="4" fill="#3b82f6" stroke="#0d1117" stroke-width="2" class="data-point"/>
  
    <circle cx="388.63849765258215" cy="286.59248563301793" r="4" fill="#3b82f6" stroke="#0d1117" stroke-width="2" class="data-point"/>
  
    <circle cx="391.92488262910797" cy="284.7561241075057" r="4" fill="#3b82f6" stroke="#0d1117" stroke-width="2" class="data-point"/>
  
    <circle cx="395.2112676056338" cy="283.53601903987925" r="4" fill="#3b82f6" stroke="#0d1117" stroke-width="2" class="data-point"/>
  
    <circle cx="398.4976525821596" cy="282.46618679979105" r="4" fill="#3b82f6" stroke="#0d1117" stroke-width="2" class="data-point"/>
  
    <circle cx="401.78403755868544" cy="281.41979160619957" r="4" fill="#3b82f6" stroke="#0d1117" stroke-width="2" class="data-point"/>
  
    <circle cx="405.07042253521126" cy="280.43405700354094" r="4" fill="#3b82f6" stroke="#0d1117" stroke-width="2" class="data-point"/>
  
    <circle cx="408.3568075117371" cy="278.90099843269286" r="4" fill="#3b82f6" stroke="#0d1117" stroke-width="2" class="data-point"/>
  
    <circle cx="411.6431924882629" cy="277.6822720148604" r="4" fill="#3b82f6" stroke="#0d1117" stroke-width="2" class="data-point"/>
  
    <circle cx="414.92957746478874" cy="276.1243977477216" r="4" fill="#3b82f6" stroke="#0d1117" stroke-width="2" class="data-point"/>
  
    <circle cx="418.2159624413145" cy="275.8059296453242" r="4" fill="#3b82f6" stroke="#0d1117" stroke-width="2" class="data-point"/>
  
    <circle cx="421.5023474178404" cy="275.76457015150635" r="4" fill="#3b82f6" stroke="#0d1117" stroke-width="2" class="data-point"/>
  
    <circle cx="424.78873239436615" cy="275.71080280954317" r="4" fill="#3b82f6" stroke="#0d1117" stroke-width="2" class="data-point"/>
  
    <circle cx="428.07511737089203" cy="275.66530736634354" r="4" fill="#3b82f6" stroke="#0d1117" stroke-width="2" class="data-point"/>
  
    <circle cx="431.36150234741785" cy="275.6060254252046" r="4" fill="#3b82f6" stroke="#0d1117" stroke-width="2" class="data-point"/>
  
    <circle cx="434.6478873239436" cy="275.5536367330353" r="4" fill="#3b82f6" stroke="#0d1117" stroke-width="2" class="data-point"/>
  
    <circle cx="437.9342723004695" cy="275.53295698612646" r="4" fill="#3b82f6" stroke="#0d1117" stroke-width="2" class="data-point"/>
  
    <circle cx="441.22065727699527" cy="275.4571312474604" r="4" fill="#3b82f6" stroke="#0d1117" stroke-width="2" class="data-point"/>
  
    <circle cx="444.50704225352115" cy="275.38406280838217" r="4" fill="#3b82f6" stroke="#0d1117" stroke-width="2" class="data-point"/>
  
    <circle cx="447.793427230047" cy="275.3358100655947" r="4" fill="#3b82f6" stroke="#0d1117" stroke-width="2" class="data-point"/>
  
    <circle cx="451.07981220657274" cy="275.31788761827363" r="4" fill="#3b82f6" stroke="#0d1117" stroke-width="2" class="data-point"/>
  
    <circle cx="454.3661971830986" cy="275.23654728043186" r="4" fill="#3b82f6" stroke="#0d1117" stroke-width="2" class="data-point"/>
  
    <circle cx="457.6525821596244" cy="273.2375050792361" r="4" fill="#3b82f6" stroke="#0d1117" stroke-width="2" class="data-point"/>
  
    <circle cx="460.93896713615027" cy="270.1065913972253" r="4" fill="#3b82f6" stroke="#0d1117" stroke-width="2" class="data-point"/>
  
    <circle cx="464.22535211267603" cy="268.0096650606606" r="4" fill="#3b82f6" stroke="#0d1117" stroke-width="2" class="data-point"/>
  
    <circle cx="467.51173708920186" cy="265.5749695245835" r="4" fill="#3b82f6" stroke="#0d1117" stroke-width="2" class="data-point"/>
  
    <circle cx="470.79812206572774" cy="263.0658268996343" r="4" fill="#3b82f6" stroke="#0d1117" stroke-width="2" class="data-point"/>
  
    <circle cx="474.0845070422535" cy="261.09711499390494" r="4" fill="#3b82f6" stroke="#0d1117" stroke-width="2" class="data-point"/>
  
    <circle cx="477.37089201877933" cy="258.8954112730017" r="4" fill="#3b82f6" stroke="#0d1117" stroke-width="2" class="data-point"/>
  
    <circle cx="480.65727699530515" cy="255.54115632437453" r="4" fill="#3b82f6" stroke="#0d1117" stroke-width="2" class="data-point"/>
  
    <circle cx="483.943661971831" cy="251.02056365008417" r="4" fill="#3b82f6" stroke="#0d1117" stroke-width="2" class="data-point"/>
  
    <circle cx="487.23004694835686" cy="248.07025309107797" r="4" fill="#3b82f6" stroke="#0d1117" stroke-width="2" class="data-point"/>
  
    <circle cx="490.5164319248826" cy="244.558832065943" r="4" fill="#3b82f6" stroke="#0d1117" stroke-width="2" class="data-point"/>
  
    <circle cx="493.8028169014084" cy="240.64622395077495" r="4" fill="#3b82f6" stroke="#0d1117" stroke-width="2" class="data-point"/>
  
    <circle cx="497.0892018779343" cy="237.5084170197945" r="4" fill="#3b82f6" stroke="#0d1117" stroke-width="2" class="data-point"/>
  
    <circle cx="500.3755868544601" cy="234.103152028792" r="4" fill="#3b82f6" stroke="#0d1117" stroke-width="2" class="data-point"/>
  
    <circle cx="503.6619718309859" cy="231.08253033029547" r="4" fill="#3b82f6" stroke="#0d1117" stroke-width="2" class="data-point"/>
  
    <circle cx="506.94835680751174" cy="228.08948162767746" r="4" fill="#3b82f6" stroke="#0d1117" stroke-width="2" class="data-point"/>
  
    <circle cx="510.2347417840375" cy="225.10470482382306" r="4" fill="#3b82f6" stroke="#0d1117" stroke-width="2" class="data-point"/>
  
    <circle cx="513.5211267605634" cy="221.0404452313229" r="4" fill="#3b82f6" stroke="#0d1117" stroke-width="2" class="data-point"/>
  
    <circle cx="516.8075117370893" cy="216.96377779067743" r="4" fill="#3b82f6" stroke="#0d1117" stroke-width="2" class="data-point"/>
  
    <circle cx="520.0938967136151" cy="213.56540604864455" r="4" fill="#3b82f6" stroke="#0d1117" stroke-width="2" class="data-point"/>
  
    <circle cx="523.3802816901409" cy="210.71711557438906" r="4" fill="#3b82f6" stroke="#0d1117" stroke-width="2" class="data-point"/>
  
    <circle cx="526.6666666666666" cy="207.95430138735705" r="4" fill="#3b82f6" stroke="#0d1117" stroke-width="2" class="data-point"/>
  
    <circle cx="529.9530516431926" cy="204.2870929355082" r="4" fill="#3b82f6" stroke="#0d1117" stroke-width="2" class="data-point"/>
  
    <circle cx="533.2394366197183" cy="201.44293841063447" r="4" fill="#3b82f6" stroke="#0d1117" stroke-width="2" class="data-point"/>
  
    <circle cx="536.5258215962442" cy="198.62911418122715" r="4" fill="#3b82f6" stroke="#0d1117" stroke-width="2" class="data-point"/>
  
    <circle cx="539.81220657277" cy="195.99727172461832" r="4" fill="#3b82f6" stroke="#0d1117" stroke-width="2" class="data-point"/>
  
    <circle cx="543.0985915492957" cy="193.51845939513552" r="4" fill="#3b82f6" stroke="#0d1117" stroke-width="2" class="data-point"/>
  
    <circle cx="546.3849765258217" cy="190.9789864747199" r="4" fill="#3b82f6" stroke="#0d1117" stroke-width="2" class="data-point"/>
  
    <circle cx="549.6713615023474" cy="188.8076130492831" r="4" fill="#3b82f6" stroke="#0d1117" stroke-width="2" class="data-point"/>
  
    <circle cx="552.9577464788732" cy="186.55903523538632" r="4" fill="#3b82f6" stroke="#0d1117" stroke-width="2" class="data-point"/>
  
    <circle cx="556.2441314553992" cy="184.26358332849597" r="4" fill="#3b82f6" stroke="#0d1117" stroke-width="2" class="data-point"/>
  
    <circle cx="559.5305164319249" cy="181.83715969118245" r="4" fill="#3b82f6" stroke="#0d1117" stroke-width="2" class="data-point"/>
  
    <circle cx="562.8169014084508" cy="179.6106402739885" r="4" fill="#3b82f6" stroke="#0d1117" stroke-width="2" class="data-point"/>
  
    <circle cx="566.1032863849765" cy="177.5716172287688" r="4" fill="#3b82f6" stroke="#0d1117" stroke-width="2" class="data-point"/>
  
    <circle cx="569.3896713615023" cy="173.8768357810414" r="4" fill="#3b82f6" stroke="#0d1117" stroke-width="2" class="data-point"/>
  
    <circle cx="572.6760563380282" cy="170.78452429326057" r="4" fill="#3b82f6" stroke="#0d1117" stroke-width="2" class="data-point"/>
  
    <circle cx="575.962441314554" cy="167.81491263713937" r="4" fill="#3b82f6" stroke="#0d1117" stroke-width="2" class="data-point"/>
  
    <circle cx="579.2488262910798" cy="164.96248621350207" r="4" fill="#3b82f6" stroke="#0d1117" stroke-width="2" class="data-point"/>
  
    <circle cx="582.5352112676056" cy="160.45843733673885" r="4" fill="#3b82f6" stroke="#0d1117" stroke-width="2" class="data-point"/>
  
    <circle cx="585.8215962441315" cy="157.6087682126894" r="4" fill="#3b82f6" stroke="#0d1117" stroke-width="2" class="data-point"/>
  
    <circle cx="589.1079812206573" cy="155.14236373135196" r="4" fill="#3b82f6" stroke="#0d1117" stroke-width="2" class="data-point"/>
  
    <circle cx="592.3943661971831" cy="152.22927671678178" r="4" fill="#3b82f6" stroke="#0d1117" stroke-width="2" class="data-point"/>
  
    <circle cx="595.6807511737089" cy="147.93478260869566" r="4" fill="#3b82f6" stroke="#0d1117" stroke-width="2" class="data-point"/>
  
    <circle cx="598.9671361502348" cy="144.8452284205027" r="4" fill="#3b82f6" stroke="#0d1117" stroke-width="2" class="data-point"/>
  
    <circle cx="602.2535211267606" cy="142.23682301039065" r="4" fill="#3b82f6" stroke="#0d1117" stroke-width="2" class="data-point"/>
  
    <circle cx="605.5399061032864" cy="140.02960469031171" r="4" fill="#3b82f6" stroke="#0d1117" stroke-width="2" class="data-point"/>
  
    <circle cx="608.8262910798122" cy="137.9354356533349" r="4" fill="#3b82f6" stroke="#0d1117" stroke-width="2" class="data-point"/>
  
    <circle cx="612.112676056338" cy="136.23280315783364" r="4" fill="#3b82f6" stroke="#0d1117" stroke-width="2" class="data-point"/>
  
    <circle cx="615.3990610328639" cy="134.3151012944796" r="4" fill="#3b82f6" stroke="#0d1117" stroke-width="2" class="data-point"/>
  
    <circle cx="618.6854460093897" cy="132.7517124281651" r="4" fill="#3b82f6" stroke="#0d1117" stroke-width="2" class="data-point"/>
  
    <circle cx="621.9718309859155" cy="130.90707900388924" r="4" fill="#3b82f6" stroke="#0d1117" stroke-width="2" class="data-point"/>
  
    <circle cx="625.2582159624413" cy="128.25179950078365" r="4" fill="#3b82f6" stroke="#0d1117" stroke-width="2" class="data-point"/>
  
    <circle cx="628.544600938967" cy="125.97013409183259" r="4" fill="#3b82f6" stroke="#0d1117" stroke-width="2" class="data-point"/>
  
    <circle cx="631.830985915493" cy="123.98625703837001" r="4" fill="#3b82f6" stroke="#0d1117" stroke-width="2" class="data-point"/>
  
    <circle cx="635.1173708920188" cy="122.27121669472339" r="4" fill="#3b82f6" stroke="#0d1117" stroke-width="2" class="data-point"/>
  
    <circle cx="638.4037558685446" cy="120.50240900911359" r="4" fill="#3b82f6" stroke="#0d1117" stroke-width="2" class="data-point"/>
  
    <circle cx="641.6901408450705" cy="119.01070993208336" r="4" fill="#3b82f6" stroke="#0d1117" stroke-width="2" class="data-point"/>
  
    <circle cx="644.9765258215962" cy="116.50294595692807" r="4" fill="#3b82f6" stroke="#0d1117" stroke-width="2" class="data-point"/>
  
    <circle cx="648.2629107981221" cy="114.35914552736983" r="4" fill="#3b82f6" stroke="#0d1117" stroke-width="2" class="data-point"/>
  
    <circle cx="651.5492957746479" cy="112.23326754513266" r="4" fill="#3b82f6" stroke="#0d1117" stroke-width="2" class="data-point"/>
  
    <circle cx="654.8356807511738" cy="110.47824635746213" r="4" fill="#3b82f6" stroke="#0d1117" stroke-width="2" class="data-point"/>
  
    <circle cx="658.1220657276996" cy="108.86798339815405" r="4" fill="#3b82f6" stroke="#0d1117" stroke-width="2" class="data-point"/>
  
    <circle cx="661.4084507042253" cy="107.43832356185058" r="4" fill="#3b82f6" stroke="#0d1117" stroke-width="2" class="data-point"/>
  
    <circle cx="664.6948356807512" cy="104.98708422824635" r="4" fill="#3b82f6" stroke="#0d1117" stroke-width="2" class="data-point"/>
  
    <circle cx="667.9812206572769" cy="102.99631392581412" r="4" fill="#3b82f6" stroke="#0d1117" stroke-width="2" class="data-point"/>
  
    <circle cx="671.2676056338028" cy="101.18201079700472" r="4" fill="#3b82f6" stroke="#0d1117" stroke-width="2" class="data-point"/>
  
    <circle cx="674.5539906103287" cy="99.44904800603703" r="4" fill="#3b82f6" stroke="#0d1117" stroke-width="2" class="data-point"/>
  
    <circle cx="677.8403755868544" cy="97.93666918209789" r="4" fill="#3b82f6" stroke="#0d1117" stroke-width="2" class="data-point"/>
  
    <circle cx="681.1267605633803" cy="96.4684071515644" r="4" fill="#3b82f6" stroke="#0d1117" stroke-width="2" class="data-point"/>
  
    <circle cx="684.413145539906" cy="95.12284495269054" r="4" fill="#3b82f6" stroke="#0d1117" stroke-width="2" class="data-point"/>
  
    <circle cx="687.6995305164319" cy="93.8324287455738" r="4" fill="#3b82f6" stroke="#0d1117" stroke-width="2" class="data-point"/>
  
    <circle cx="690.9859154929578" cy="92.64954722238349" r="4" fill="#3b82f6" stroke="#0d1117" stroke-width="2" class="data-point"/>
  
    <circle cx="694.2723004694835" cy="91.17301329308643" r="4" fill="#3b82f6" stroke="#0d1117" stroke-width="2" class="data-point"/>
  
    <circle cx="697.5586854460095" cy="89.58756603006907" r="4" fill="#3b82f6" stroke="#0d1117" stroke-width="2" class="data-point"/>
  
    <circle cx="700.8450704225352" cy="88.1289545480931" r="4" fill="#3b82f6" stroke="#0d1117" stroke-width="2" class="data-point"/>
  
    <circle cx="704.131455399061" cy="85.86245428687528" r="4" fill="#3b82f6" stroke="#0d1117" stroke-width="2" class="data-point"/>
  
    <circle cx="707.4178403755868" cy="84.217725082719" r="4" fill="#3b82f6" stroke="#0d1117" stroke-width="2" class="data-point"/>
  
    <circle cx="710.7042253521126" cy="82.644685667847" r="4" fill="#3b82f6" stroke="#0d1117" stroke-width="2" class="data-point"/>
  
    <circle cx="713.9906103286386" cy="81.2646572241249" r="4" fill="#3b82f6" stroke="#0d1117" stroke-width="2" class="data-point"/>
  
    <circle cx="717.2769953051643" cy="79.6461223660533" r="4" fill="#3b82f6" stroke="#0d1117" stroke-width="2" class="data-point"/>
  
    <circle cx="720.5633802816901" cy="77.6581093632089" r="4" fill="#3b82f6" stroke="#0d1117" stroke-width="2" class="data-point"/>
  
    <circle cx="723.8497652582159" cy="75.89619492656874" r="4" fill="#3b82f6" stroke="#0d1117" stroke-width="2" class="data-point"/>
  
    <circle cx="727.1361502347418" cy="74.32315551169677" r="4" fill="#3b82f6" stroke="#0d1117" stroke-width="2" class="data-point"/>
  
    <circle cx="730.4225352112676" cy="72.6150084170198" r="4" fill="#3b82f6" stroke="#0d1117" stroke-width="2" class="data-point"/>
  
    <circle cx="733.7089201877934" cy="70.25889591919662" r="4" fill="#3b82f6" stroke="#0d1117" stroke-width="2" class="data-point"/>
  
    <circle cx="736.9953051643192" cy="68.32465025831544" r="4" fill="#3b82f6" stroke="#0d1117" stroke-width="2" class="data-point"/>
  
    <circle cx="740.2816901408451" cy="66.24978231845358" r="4" fill="#3b82f6" stroke="#0d1117" stroke-width="2" class="data-point"/>
  
    <circle cx="743.5680751173709" cy="64.1818076275614" r="4" fill="#3b82f6" stroke="#0d1117" stroke-width="2" class="data-point"/>
  
    <circle cx="746.8544600938967" cy="62.255833865443776" r="4" fill="#3b82f6" stroke="#0d1117" stroke-width="2" class="data-point"/>
  
    <circle cx="750.1408450704225" cy="60.365704997968294" r="4" fill="#3b82f6" stroke="#0d1117" stroke-width="2" class="data-point"/>
  
    <circle cx="753.4272300469484" cy="58.36528414697858" r="4" fill="#3b82f6" stroke="#0d1117" stroke-width="2" class="data-point"/>
  
    <circle cx="756.7136150234742" cy="56.57166076507809" r="4" fill="#3b82f6" stroke="#0d1117" stroke-width="2" class="data-point"/>
  
    <circle cx="760" cy="55" r="4" fill="#3b82f6" stroke="#0d1117" stroke-width="2" class="data-point"/>
  

  <!-- Axis lines -->
  <line x1="60" y1="55" x2="60" y2="340"
        stroke="#30363d" stroke-width="2"/>
  <line x1="60" y1="340" x2="760" y2="340"
        stroke="#30363d" stroke-width="2"/>
</svg>