<?xml version="1.0" encoding="UTF-8"?>
<svg width="800" height="400" xmlns="http://www.w3.org/2000/svg">
  <defs>
    <!-- Gradient for area fill -->
    <linearGradient id="areaGradient" x1="0%" y1="0%" x2="0%" y2="100%">
      <stop offset="0%" style="stop-color:#3b82f6;stop-opacity:0.3" />
      <stop offset="100%" style="stop-color:#3b82f6;stop-opacity:0.05" />
    </linearGradient>

    <!-- Glow filter for line -->
    <filter id="glow">
      <feGaussianBlur stdDeviation="2" result="coloredBlur"/>
      <feMerge>
        <feMergeNode in="coloredBlur"/>
        <feMergeNode in="SourceGraphic"/>
      </feMerge>
    </filter>

    <!-- Animation -->
    <style>
      @keyframes draw {
        from { stroke-dashoffset: 2000; }
        to { stroke-dashoffset: 0; }
      }
      @keyframes fadeIn {
        from { opacity: 0; }
        to { opacity: 1; }
      }
      .line-path {
        stroke-dasharray: 2000;
        stroke-dashoffset: 2000;
        animation: draw 1.5s ease-out forwards;
      }
      .area-path {
        opacity: 0;
        animation: fadeIn 1s ease-out 0.5s forwards;
      }
      .data-point {
        opacity: 0;
        animation: fadeIn 0.5s ease-out 1s forwards;
      }
    </style>
  </defs>

  <!-- Background -->
  <rect width="800" height="400" fill="#0d1117" rx="8"/>

  <!-- Title -->
  <text x="400" y="25" text-anchor="middle" fill="#c9d1d9" font-family="system-ui, -apple-system, sans-serif" font-size="16" font-weight="600">
    zxcloli666/SoundCloud-Desktop Downloads
  </text>

  <!-- Stats -->
  <text x="780" y="25" text-anchor="end" fill="#58a6ff" font-family="system-ui, -apple-system, sans-serif" font-size="14" font-weight="600">
    203.6K total
  </text>
  <text x="780" y="42" text-anchor="end" fill="#3fb950" font-family="system-ui, -apple-system, sans-serif" font-size="12">
    +1.9K (+0.9%)
  </text>

  <!-- Grid lines -->
  <g opacity="0.1">
    
      <line x1="60" y1="340" x2="760" y2="340"
            stroke="#c9d1d9" stroke-width="1"/>
    
      <line x1="60" y1="268.75" x2="760" y2="268.75"
            stroke="#c9d1d9" stroke-width="1"/>
    
      <line x1="60" y1="197.5" x2="760" y2="197.5"
            stroke="#c9d1d9" stroke-width="1"/>
    
      <line x1="60" y1="126.25" x2="760" y2="126.25"
            stroke="#c9d1d9" stroke-width="1"/>
    
      <line x1="60" y1="55" x2="760" y2="55"
            stroke="#c9d1d9" stroke-width="1"/>
    
  </g>

  <!-- Y-axis labels -->
  
    <text x="50" y="344" text-anchor="end"
          fill="#8b949e" font-family="system-ui, -apple-system, sans-serif" font-size="11">
      60.2K
    </text>
  
    <text x="50" y="272.75" text-anchor="end"
          fill="#8b949e" font-family="system-ui, -apple-system, sans-serif" font-size="11">
      96.0K
    </text>
  
    <text x="50" y="201.5" text-anchor="end"
          fill="#8b949e" font-family="system-ui, -apple-system, sans-serif" font-size="11">
      131.9K
    </text>
  
    <text x="50" y="130.25" text-anchor="end"
          fill="#8b949e" font-family="system-ui, -apple-system, sans-serif" font-size="11">
      167.7K
    </text>
  
    <text x="50" y="59" text-anchor="end"
          fill="#8b949e" font-family="system-ui, -apple-system, sans-serif" font-size="11">
      203.6K
    </text>
  

  <!-- X-axis labels -->
  
    <text x="60" y="360" text-anchor="middle"
          fill="#8b949e" font-family="system-ui, -apple-system, sans-serif" font-size="11">
      Nov 25
    </text>
  
    <text x="144.84848484848484" y="360" text-anchor="middle"
          fill="#8b949e" font-family="system-ui, -apple-system, sans-serif" font-size="11">
      Dec 15
    </text>
  
    <text x="229.6969696969697" y="360" text-anchor="middle"
          fill="#8b949e" font-family="system-ui, -apple-system, sans-serif" font-size="11">
      Jan 4
    </text>
  
    <text x="314.54545454545456" y="360" text-anchor="middle"
          fill="#8b949e" font-family="system-ui, -apple-system, sans-serif" font-size="11">
      Jan 24
    </text>
  
    <text x="399.3939393939394" y="360" text-anchor="middle"
          fill="#8b949e" font-family="system-ui, -apple-system, sans-serif" font-size="11">
      Feb 13
    </text>
  
    <text x="484.24242424242425" y="360" text-anchor="middle"
          fill="#8b949e" font-family="system-ui, -apple-system, sans-serif" font-size="11">
      Mar 5
    </text>
  
    <text x="569.0909090909091" y="360" text-anchor="middle"
          fill="#8b949e" font-family="system-ui, -apple-system, sans-serif" font-size="11">
      Mar 25
    </text>
  
    <text x="653.939393939394" y="360" text-anchor="middle"
          fill="#8b949e" font-family="system-ui, -apple-system, sans-serif" font-size="11">
      Apr 14
    </text>
  
    <text x="738.7878787878788" y="360" text-anchor="middle"
          fill="#8b949e" font-family="system-ui, -apple-system, sans-serif" font-size="11">
      May 4
    </text>
  
    <text x="760" y="360" text-anchor="middle"
          fill="#8b949e" font-family="system-ui, -apple-system, sans-serif" font-size="11">
      May 9
    </text>
  

  <!-- Area under line -->
  <path d="M 60 340
    L 60.00 340.00 L 64.24 339.71 L 68.48 339.21 L 72.73 338.75 L 76.97 337.83 L 81.21 336.89 L 85.45 336.14 L 89.70 335.45 L 93.94 334.83 L 98.18 334.11 L 102.42 333.30 L 106.67 332.43 L 110.91 331.64 L 115.15 330.81 L 119.39 330.20 L 123.64 329.57 L 127.88 328.71 L 132.12 328.13 L 136.36 327.34 L 140.61 326.42 L 144.85 325.73 L 149.09 325.16 L 153.33 324.79 L 157.58 324.49 L 161.82 323.92 L 166.06 323.52 L 170.30 322.63 L 174.55 322.29 L 178.79 321.84 L 183.03 321.26 L 187.27 320.86 L 191.52 320.46 L 195.76 320.03 L 200.00 319.74 L 204.24 319.48 L 208.48 319.10 L 212.73 318.63 L 216.97 318.19 L 221.21 317.64 L 225.45 317.05 L 229.70 316.50 L 233.94 315.84 L 238.18 315.19 L 242.42 314.54 L 246.67 313.83 L 250.91 313.15 L 255.15 312.37 L 259.39 311.68 L 263.64 311.09 L 267.88 310.62 L 272.12 309.97 L 276.36 309.22 L 280.61 308.53 L 284.85 307.73 L 289.09 306.74 L 293.33 306.01 L 297.58 305.40 L 301.82 304.82 L 306.06 304.12 L 310.30 303.31 L 314.55 302.41 L 318.79 301.47 L 323.03 300.56 L 327.27 299.77 L 331.52 298.97 L 335.76 298.28 L 340.00 297.57 L 344.24 296.77 L 348.48 295.78 L 352.73 295.04 L 356.97 294.39 L 361.21 293.65 L 365.45 292.97 L 369.70 292.22 L 373.94 291.43 L 378.18 290.62 L 382.42 289.90 L 386.67 289.29 L 390.91 288.61 L 395.15 287.88 L 399.39 287.21 L 403.64 286.33 L 407.88 285.57 L 412.12 284.84 L 416.36 284.23 L 420.61 283.65 L 424.85 283.06 L 429.09 282.35 L 433.33 281.63 L 437.58 280.75 L 441.82 280.03 L 446.06 279.45 L 450.30 278.85 L 454.55 278.28 L 458.79 277.57 L 463.03 276.85 L 467.27 275.24 L 471.52 272.05 L 475.76 268.25 L 480.00 264.79 L 484.24 263.03 L 488.48 260.39 L 492.73 258.63 L 496.97 257.09 L 501.21 255.58 L 505.45 254.16 L 509.70 251.95 L 513.94 250.19 L 518.18 247.95 L 522.42 247.49 L 526.67 247.43 L 530.91 247.35 L 535.15 247.29 L 539.39 247.20 L 543.64 247.13 L 547.88 247.10 L 552.12 246.99 L 556.36 246.88 L 560.61 246.81 L 564.85 246.79 L 569.09 246.67 L 573.33 243.79 L 577.58 239.28 L 581.82 236.25 L 586.06 232.74 L 590.30 229.13 L 594.55 226.29 L 598.79 223.12 L 603.03 218.28 L 607.27 211.77 L 611.52 207.52 L 615.76 202.46 L 620.00 196.82 L 624.24 192.30 L 628.48 187.39 L 632.73 183.04 L 636.97 178.72 L 641.21 174.42 L 645.45 168.57 L 649.70 162.69 L 653.94 157.79 L 658.18 153.69 L 662.42 149.71 L 666.67 144.42 L 670.91 140.32 L 675.15 136.27 L 679.39 132.48 L 683.64 128.90 L 687.88 125.24 L 692.12 122.11 L 696.36 118.87 L 700.61 115.57 L 704.85 112.07 L 709.09 108.86 L 713.33 105.92 L 717.58 100.60 L 721.82 96.14 L 726.06 91.86 L 730.30 87.75 L 734.55 81.26 L 738.79 77.15 L 743.03 73.60 L 747.27 69.40 L 751.52 63.21 L 755.76 58.76 L 760.00 55.00
    L 760 340
    Z" fill="url(#areaGradient)" class="area-path"/>

  <!-- Main line with glow -->
  <path d="M 60.00 340.00 L 64.24 339.71 L 68.48 339.21 L 72.73 338.75 L 76.97 337.83 L 81.21 336.89 L 85.45 336.14 L 89.70 335.45 L 93.94 334.83 L 98.18 334.11 L 102.42 333.30 L 106.67 332.43 L 110.91 331.64 L 115.15 330.81 L 119.39 330.20 L 123.64 329.57 L 127.88 328.71 L 132.12 328.13 L 136.36 327.34 L 140.61 326.42 L 144.85 325.73 L 149.09 325.16 L 153.33 324.79 L 157.58 324.49 L 161.82 323.92 L 166.06 323.52 L 170.30 322.63 L 174.55 322.29 L 178.79 321.84 L 183.03 321.26 L 187.27 320.86 L 191.52 320.46 L 195.76 320.03 L 200.00 319.74 L 204.24 319.48 L 208.48 319.10 L 212.73 318.63 L 216.97 318.19 L 221.21 317.64 L 225.45 317.05 L 229.70 316.50 L 233.94 315.84 L 238.18 315.19 L 242.42 314.54 L 246.67 313.83 L 250.91 313.15 L 255.15 312.37 L 259.39 311.68 L 263.64 311.09 L 267.88 310.62 L 272.12 309.97 L 276.36 309.22 L 280.61 308.53 L 284.85 307.73 L 289.09 306.74 L 293.33 306.01 L 297.58 305.40 L 301.82 304.82 L 306.06 304.12 L 310.30 303.31 L 314.55 302.41 L 318.79 301.47 L 323.03 300.56 L 327.27 299.77 L 331.52 298.97 L 335.76 298.28 L 340.00 297.57 L 344.24 296.77 L 348.48 295.78 L 352.73 295.04 L 356.97 294.39 L 361.21 293.65 L 365.45 292.97 L 369.70 292.22 L 373.94 291.43 L 378.18 290.62 L 382.42 289.90 L 386.67 289.29 L 390.91 288.61 L 395.15 287.88 L 399.39 287.21 L 403.64 286.33 L 407.88 285.57 L 412.12 284.84 L 416.36 284.23 L 420.61 283.65 L 424.85 283.06 L 429.09 282.35 L 433.33 281.63 L 437.58 280.75 L 441.82 280.03 L 446.06 279.45 L 450.30 278.85 L 454.55 278.28 L 458.79 277.57 L 463.03 276.85 L 467.27 275.24 L 471.52 272.05 L 475.76 268.25 L 480.00 264.79 L 484.24 263.03 L 488.48 260.39 L 492.73 258.63 L 496.97 257.09 L 501.21 255.58 L 505.45 254.16 L 509.70 251.95 L 513.94 250.19 L 518.18 247.95 L 522.42 247.49 L 526.67 247.43 L 530.91 247.35 L 535.15 247.29 L 539.39 247.20 L 543.64 247.13 L 547.88 247.10 L 552.12 246.99 L 556.36 246.88 L 560.61 246.81 L 564.85 246.79 L 569.09 246.67 L 573.33 243.79 L 577.58 239.28 L 581.82 236.25 L 586.06 232.74 L 590.30 229.13 L 594.55 226.29 L 598.79 223.12 L 603.03 218.28 L 607.27 211.77 L 611.52 207.52 L 615.76 202.46 L 620.00 196.82 L 624.24 192.30 L 628.48 187.39 L 632.73 183.04 L 636.97 178.72 L 641.21 174.42 L 645.45 168.57 L 649.70 162.69 L 653.94 157.79 L 658.18 153.69 L 662.42 149.71 L 666.67 144.42 L 670.91 140.32 L 675.15 136.27 L 679.39 132.48 L 683.64 128.90 L 687.88 125.24 L 692.12 122.11 L 696.36 118.87 L 700.61 115.57 L 704.85 112.07 L 709.09 108.86 L 713.33 105.92 L 717.58 100.60 L 721.82 96.14 L 726.06 91.86 L 730.30 87.75 L 734.55 81.26 L 738.79 77.15 L 743.03 73.60 L 747.27 69.40 L 751.52 63.21 L 755.76 58.76 L 760.00 55.00" fill="none" stroke="#3b82f6" stroke-width="3"
        stroke-linecap="round" stroke-linejoin="round" filter="url(#glow)" class="line-path"/>

  <!-- Data points -->
  
    <circle cx="60" cy="340" r="4" fill="#3b82f6" stroke="#0d1117" stroke-width="2" class="data-point"/>
  
    <circle cx="64.24242424242425" cy="339.70794091197445" r="4" fill="#3b82f6" stroke="#0d1117" stroke-width="2" class="data-point"/>
  
    <circle cx="68.48484848484848" cy="339.21124178267934" r="4" fill="#3b82f6" stroke="#0d1117" stroke-width="2" class="data-point"/>
  
    <circle cx="72.72727272727272" cy="338.75030499069345" r="4" fill="#3b82f6" stroke="#0d1117" stroke-width="2" class="data-point"/>
  
    <circle cx="76.96969696969697" cy="337.83439179627317" r="4" fill="#3b82f6" stroke="#0d1117" stroke-width="2" class="data-point"/>
  
    <circle cx="81.21212121212122" cy="336.88867665409526" r="4" fill="#3b82f6" stroke="#0d1117" stroke-width="2" class="data-point"/>
  
    <circle cx="85.45454545454545" cy="336.1436279601525" r="4" fill="#3b82f6" stroke="#0d1117" stroke-width="2" class="data-point"/>
  
    <circle cx="89.6969696969697" cy="335.44824917913934" r="4" fill="#3b82f6" stroke="#0d1117" stroke-width="2" class="data-point"/>
  
    <circle cx="93.93939393939394" cy="334.83035546229615" r="4" fill="#3b82f6" stroke="#0d1117" stroke-width="2" class="data-point"/>
  
    <circle cx="98.18181818181819" cy="334.10517473352525" r="4" fill="#3b82f6" stroke="#0d1117" stroke-width="2" class="data-point"/>
  
    <circle cx="102.42424242424242" cy="333.2965485510328" r="4" fill="#3b82f6" stroke="#0d1117" stroke-width="2" class="data-point"/>
  
    <circle cx="106.66666666666666" cy="332.43030526954203" r="4" fill="#3b82f6" stroke="#0d1117" stroke-width="2" class="data-point"/>
  
    <circle cx="110.9090909090909" cy="331.64353384873857" r="4" fill="#3b82f6" stroke="#0d1117" stroke-width="2" class="data-point"/>
  
    <circle cx="115.15151515151516" cy="330.80709251500554" r="4" fill="#3b82f6" stroke="#0d1117" stroke-width="2" class="data-point"/>
  
    <circle cx="119.3939393939394" cy="330.1971459842311" r="4" fill="#3b82f6" stroke="#0d1117" stroke-width="2" class="data-point"/>
  
    <circle cx="123.63636363636364" cy="329.5653446917677" r="4" fill="#3b82f6" stroke="#0d1117" stroke-width="2" class="data-point"/>
  
    <circle cx="127.87878787878788" cy="328.7070485963457" r="4" fill="#3b82f6" stroke="#0d1117" stroke-width="2" class="data-point"/>
  
    <circle cx="132.12121212121212" cy="328.1328644028805" r="4" fill="#3b82f6" stroke="#0d1117" stroke-width="2" class="data-point"/>
  
    <circle cx="136.36363636363637" cy="327.3381457960083" r="4" fill="#3b82f6" stroke="#0d1117" stroke-width="2" class="data-point"/>
  
    <circle cx="140.60606060606062" cy="326.42024580507086" r="4" fill="#3b82f6" stroke="#0d1117" stroke-width="2" class="data-point"/>
  
    <circle cx="144.84848484848484" cy="325.72884061709203" r="4" fill="#3b82f6" stroke="#0d1117" stroke-width="2" class="data-point"/>
  
    <circle cx="149.09090909090907" cy="325.16061681317836" r="4" fill="#3b82f6" stroke="#0d1117" stroke-width="2" class="data-point"/>
  
    <circle cx="153.33333333333331" cy="324.79305945749996" r="4" fill="#3b82f6" stroke="#0d1117" stroke-width="2" class="data-point"/>
  
    <circle cx="157.57575757575756" cy="324.4870927938542" r="4" fill="#3b82f6" stroke="#0d1117" stroke-width="2" class="data-point"/>
  
    <circle cx="161.8181818181818" cy="323.9208557864577" r="4" fill="#3b82f6" stroke="#0d1117" stroke-width="2" class="data-point"/>
  
    <circle cx="166.06060606060606" cy="323.5175360934701" r="4" fill="#3b82f6" stroke="#0d1117" stroke-width="2" class="data-point"/>
  
    <circle cx="170.3030303030303" cy="322.63341164332473" r="4" fill="#3b82f6" stroke="#0d1117" stroke-width="2" class="data-point"/>
  
    <circle cx="174.54545454545456" cy="322.2857222528181" r="4" fill="#3b82f6" stroke="#0d1117" stroke-width="2" class="data-point"/>
  
    <circle cx="178.7878787878788" cy="321.8367062399353" r="4" fill="#3b82f6" stroke="#0d1117" stroke-width="2" class="data-point"/>
  
    <circle cx="183.03030303030303" cy="321.25656165691856" r="4" fill="#3b82f6" stroke="#0d1117" stroke-width="2" class="data-point"/>
  
    <circle cx="187.27272727272728" cy="320.8592023534825" r="4" fill="#3b82f6" stroke="#0d1117" stroke-width="2" class="data-point"/>
  
    <circle cx="191.5151515151515" cy="320.4558826604948" r="4" fill="#3b82f6" stroke="#0d1117" stroke-width="2" class="data-point"/>
  
    <circle cx="195.75757575757575" cy="320.03269500233534" r="4" fill="#3b82f6" stroke="#0d1117" stroke-width="2" class="data-point"/>
  
    <circle cx="200" cy="319.73864911779265" r="4" fill="#3b82f6" stroke="#0d1117" stroke-width="2" class="data-point"/>
  
    <circle cx="204.24242424242425" cy="319.4843391635935" r="4" fill="#3b82f6" stroke="#0d1117" stroke-width="2" class="data-point"/>
  
    <circle cx="208.4848484848485" cy="319.09691384274333" r="4" fill="#3b82f6" stroke="#0d1117" stroke-width="2" class="data-point"/>
  
    <circle cx="212.72727272727272" cy="318.6260430681715" r="4" fill="#3b82f6" stroke="#0d1117" stroke-width="2" class="data-point"/>
  
    <circle cx="216.96969696969697" cy="318.19292142742614" r="4" fill="#3b82f6" stroke="#0d1117" stroke-width="2" class="data-point"/>
  
    <circle cx="221.21212121212122" cy="317.6445655886843" r="4" fill="#3b82f6" stroke="#0d1117" stroke-width="2" class="data-point"/>
  
    <circle cx="225.45454545454544" cy="317.046539837013" r="4" fill="#3b82f6" stroke="#0d1117" stroke-width="2" class="data-point"/>
  
    <circle cx="229.6969696969697" cy="316.49818399827114" r="4" fill="#3b82f6" stroke="#0d1117" stroke-width="2" class="data-point"/>
  
    <circle cx="233.93939393939394" cy="315.83658075805" r="4" fill="#3b82f6" stroke="#0d1117" stroke-width="2" class="data-point"/>
  
    <circle cx="238.18181818181816" cy="315.186898296932" r="4" fill="#3b82f6" stroke="#0d1117" stroke-width="2" class="data-point"/>
  
    <circle cx="242.42424242424244" cy="314.5372158358139" r="4" fill="#3b82f6" stroke="#0d1117" stroke-width="2" class="data-point"/>
  
    <circle cx="246.66666666666666" cy="313.8259426826633" r="4" fill="#3b82f6" stroke="#0d1117" stroke-width="2" class="data-point"/>
  
    <circle cx="250.9090909090909" cy="313.1464582737875" r="4" fill="#3b82f6" stroke="#0d1117" stroke-width="2" class="data-point"/>
  
    <circle cx="255.15151515151516" cy="312.36962083556995" r="4" fill="#3b82f6" stroke="#0d1117" stroke-width="2" class="data-point"/>
  
    <circle cx="259.3939393939394" cy="311.6762288510739" r="4" fill="#3b82f6" stroke="#0d1117" stroke-width="2" class="data-point"/>
  
    <circle cx="263.6363636363636" cy="311.09012387850566" r="4" fill="#3b82f6" stroke="#0d1117" stroke-width="2" class="data-point"/>
  
    <circle cx="267.8787878787879" cy="310.62123990045103" r="4" fill="#3b82f6" stroke="#0d1117" stroke-width="2" class="data-point"/>
  
    <circle cx="272.1212121212121" cy="309.9655970497814" r="4" fill="#3b82f6" stroke="#0d1117" stroke-width="2" class="data-point"/>
  
    <circle cx="276.3636363636364" cy="309.2165747628044" r="4" fill="#3b82f6" stroke="#0d1117" stroke-width="2" class="data-point"/>
  
    <circle cx="280.6060606060606" cy="308.5311299643771" r="4" fill="#3b82f6" stroke="#0d1117" stroke-width="2" class="data-point"/>
  
    <circle cx="284.8484848484849" cy="307.73045096795335" r="4" fill="#3b82f6" stroke="#0d1117" stroke-width="2" class="data-point"/>
  
    <circle cx="289.0909090909091" cy="306.74301309891456" r="4" fill="#3b82f6" stroke="#0d1117" stroke-width="2" class="data-point"/>
  
    <circle cx="293.3333333333333" cy="306.00789838755776" r="4" fill="#3b82f6" stroke="#0d1117" stroke-width="2" class="data-point"/>
  
    <circle cx="297.5757575757576" cy="305.3979518567833" r="4" fill="#3b82f6" stroke="#0d1117" stroke-width="2" class="data-point"/>
  
    <circle cx="301.8181818181818" cy="304.8178072737666" r="4" fill="#3b82f6" stroke="#0d1117" stroke-width="2" class="data-point"/>
  
    <circle cx="306.06060606060606" cy="304.12044169623624" r="4" fill="#3b82f6" stroke="#0d1117" stroke-width="2" class="data-point"/>
  
    <circle cx="310.3030303030303" cy="303.30982871722654" r="4" fill="#3b82f6" stroke="#0d1117" stroke-width="2" class="data-point"/>
  
    <circle cx="314.54545454545456" cy="302.41179669146095" r="4" fill="#3b82f6" stroke="#0d1117" stroke-width="2" class="data-point"/>
  
    <circle cx="318.7878787878788" cy="301.4680683458002" r="4" fill="#3b82f6" stroke="#0d1117" stroke-width="2" class="data-point"/>
  
    <circle cx="323.030303030303" cy="300.56208913396586" r="4" fill="#3b82f6" stroke="#0d1117" stroke-width="2" class="data-point"/>
  
    <circle cx="327.2727272727273" cy="299.76538373057645" r="4" fill="#3b82f6" stroke="#0d1117" stroke-width="2" class="data-point"/>
  
    <circle cx="331.5151515151515" cy="298.9746387167386" r="4" fill="#3b82f6" stroke="#0d1117" stroke-width="2" class="data-point"/>
  
    <circle cx="335.75757575757575" cy="298.2772731392082" r="4" fill="#3b82f6" stroke="#0d1117" stroke-width="2" class="data-point"/>
  
    <circle cx="340" cy="297.5659999860576" r="4" fill="#3b82f6" stroke="#0d1117" stroke-width="2" class="data-point"/>
  
    <circle cx="344.24242424242425" cy="296.7712813791853" r="4" fill="#3b82f6" stroke="#0d1117" stroke-width="2" class="data-point"/>
  
    <circle cx="348.4848484848485" cy="295.7818567136294" r="4" fill="#3b82f6" stroke="#0d1117" stroke-width="2" class="data-point"/>
  
    <circle cx="352.7272727272727" cy="295.04475520575545" r="4" fill="#3b82f6" stroke="#0d1117" stroke-width="2" class="data-point"/>
  
    <circle cx="356.969696969697" cy="294.3851387620515" r="4" fill="#3b82f6" stroke="#0d1117" stroke-width="2" class="data-point"/>
  
    <circle cx="361.2121212121212" cy="293.65201084721184" r="4" fill="#3b82f6" stroke="#0d1117" stroke-width="2" class="data-point"/>
  
    <circle cx="365.45454545454544" cy="292.96855284530176" r="4" fill="#3b82f6" stroke="#0d1117" stroke-width="2" class="data-point"/>
  
    <circle cx="369.6969696969697" cy="292.2175437618075" r="4" fill="#3b82f6" stroke="#0d1117" stroke-width="2" class="data-point"/>
  
    <circle cx="373.93939393939394" cy="291.43474593403835" r="4" fill="#3b82f6" stroke="#0d1117" stroke-width="2" class="data-point"/>
  
    <circle cx="378.1818181818182" cy="290.61618576895995" r="4" fill="#3b82f6" stroke="#0d1117" stroke-width="2" class="data-point"/>
  
    <circle cx="382.42424242424244" cy="289.8989522262578" r="4" fill="#3b82f6" stroke="#0d1117" stroke-width="2" class="data-point"/>
  
    <circle cx="386.6666666666667" cy="289.285032102449" r="4" fill="#3b82f6" stroke="#0d1117" stroke-width="2" class="data-point"/>
  
    <circle cx="390.9090909090909" cy="288.61150808312476" r="4" fill="#3b82f6" stroke="#0d1117" stroke-width="2" class="data-point"/>
  
    <circle cx="395.1515151515151" cy="287.8823537613195" r="4" fill="#3b82f6" stroke="#0d1117" stroke-width="2" class="data-point"/>
  
    <circle cx="399.3939393939394" cy="287.2068429454781" r="4" fill="#3b82f6" stroke="#0d1117" stroke-width="2" class="data-point"/>
  
    <circle cx="403.6363636363636" cy="286.3266920883671" r="4" fill="#3b82f6" stroke="#0d1117" stroke-width="2" class="data-point"/>
  
    <circle cx="407.8787878787879" cy="285.5697226153213" r="4" fill="#3b82f6" stroke="#0d1117" stroke-width="2" class="data-point"/>
  
    <circle cx="412.1212121212121" cy="284.84056829351607" r="4" fill="#3b82f6" stroke="#0d1117" stroke-width="2" class="data-point"/>
  
    <circle cx="416.3636363636363" cy="284.234595355776" r="4" fill="#3b82f6" stroke="#0d1117" stroke-width="2" class="data-point"/>
  
    <circle cx="420.6060606060606" cy="283.6465035866905" r="4" fill="#3b82f6" stroke="#0d1117" stroke-width="2" class="data-point"/>
  
    <circle cx="424.8484848484849" cy="283.05642502108793" r="4" fill="#3b82f6" stroke="#0d1117" stroke-width="2" class="data-point"/>
  
    <circle cx="429.09090909090907" cy="282.3511122574888" r="4" fill="#3b82f6" stroke="#0d1117" stroke-width="2" class="data-point"/>
  
    <circle cx="433.3333333333333" cy="281.62593152871796" r="4" fill="#3b82f6" stroke="#0d1117" stroke-width="2" class="data-point"/>
  
    <circle cx="437.5757575757576" cy="280.74578067160695" r="4" fill="#3b82f6" stroke="#0d1117" stroke-width="2" class="data-point"/>
  
    <circle cx="441.8181818181818" cy="280.03252072193914" r="4" fill="#3b82f6" stroke="#0d1117" stroke-width="2" class="data-point"/>
  
    <circle cx="446.06060606060606" cy="279.45038934240523" r="4" fill="#3b82f6" stroke="#0d1117" stroke-width="2" class="data-point"/>
  
    <circle cx="450.3030303030303" cy="278.85236359073383" r="4" fill="#3b82f6" stroke="#0d1117" stroke-width="2" class="data-point"/>
  
    <circle cx="454.5454545454545" cy="278.2801661937859" r="4" fill="#3b82f6" stroke="#0d1117" stroke-width="2" class="data-point"/>
  
    <circle cx="458.7878787878788" cy="277.5728666336696" r="4" fill="#3b82f6" stroke="#0d1117" stroke-width="2" class="data-point"/>
  
    <circle cx="463.03030303030306" cy="276.8476859048987" r="4" fill="#3b82f6" stroke="#0d1117" stroke-width="2" class="data-point"/>
  
    <circle cx="467.27272727272725" cy="275.244341115534" r="4" fill="#3b82f6" stroke="#0d1117" stroke-width="2" class="data-point"/>
  
    <circle cx="471.5151515151515" cy="272.05354590894194" r="4" fill="#3b82f6" stroke="#0d1117" stroke-width="2" class="data-point"/>
  
    <circle cx="475.7575757575758" cy="268.2528041715756" r="4" fill="#3b82f6" stroke="#0d1117" stroke-width="2" class="data-point"/>
  
    <circle cx="480" cy="264.7898178421298" r="4" fill="#3b82f6" stroke="#0d1117" stroke-width="2" class="data-point"/>
  
    <circle cx="484.24242424242425" cy="263.0334897209422" r="4" fill="#3b82f6" stroke="#0d1117" stroke-width="2" class="data-point"/>
  
    <circle cx="488.48484848484844" cy="260.3870767600577" r="4" fill="#3b82f6" stroke="#0d1117" stroke-width="2" class="data-point"/>
  
    <circle cx="492.7272727272727" cy="258.6287618423529" r="4" fill="#3b82f6" stroke="#0d1117" stroke-width="2" class="data-point"/>
  
    <circle cx="496.969696969697" cy="257.0870077450208" r="4" fill="#3b82f6" stroke="#0d1117" stroke-width="2" class="data-point"/>
  
    <circle cx="501.2121212121212" cy="255.57902918848077" r="4" fill="#3b82f6" stroke="#0d1117" stroke-width="2" class="data-point"/>
  
    <circle cx="505.45454545454544" cy="254.15846967869666" r="4" fill="#3b82f6" stroke="#0d1117" stroke-width="2" class="data-point"/>
  
    <circle cx="509.69696969696975" cy="251.9491519515919" r="4" fill="#3b82f6" stroke="#0d1117" stroke-width="2" class="data-point"/>
  
    <circle cx="513.9393939393939" cy="250.19282383040425" r="4" fill="#3b82f6" stroke="#0d1117" stroke-width="2" class="data-point"/>
  
    <circle cx="518.1818181818182" cy="247.94774376599023" r="4" fill="#3b82f6" stroke="#0d1117" stroke-width="2" class="data-point"/>
  
    <circle cx="522.4242424242425" cy="247.4887937705215" r="4" fill="#3b82f6" stroke="#0d1117" stroke-width="2" class="data-point"/>
  
    <circle cx="526.6666666666666" cy="247.4291898750061" r="4" fill="#3b82f6" stroke="#0d1117" stroke-width="2" class="data-point"/>
  
    <circle cx="530.909090909091" cy="247.35170481083605" r="4" fill="#3b82f6" stroke="#0d1117" stroke-width="2" class="data-point"/>
  
    <circle cx="535.1515151515152" cy="247.2861405257691" r="4" fill="#3b82f6" stroke="#0d1117" stroke-width="2" class="data-point"/>
  
    <circle cx="539.3939393939394" cy="247.20070827553036" r="4" fill="#3b82f6" stroke="#0d1117" stroke-width="2" class="data-point"/>
  
    <circle cx="543.6363636363636" cy="247.12521000787748" r="4" fill="#3b82f6" stroke="#0d1117" stroke-width="2" class="data-point"/>
  
    <circle cx="547.878787878788" cy="247.09540806011978" r="4" fill="#3b82f6" stroke="#0d1117" stroke-width="2" class="data-point"/>
  
    <circle cx="552.1212121212121" cy="246.98613425167486" r="4" fill="#3b82f6" stroke="#0d1117" stroke-width="2" class="data-point"/>
  
    <circle cx="556.3636363636364" cy="246.88083403626428" r="4" fill="#3b82f6" stroke="#0d1117" stroke-width="2" class="data-point"/>
  
    <circle cx="560.6060606060606" cy="246.81129615816292" r="4" fill="#3b82f6" stroke="#0d1117" stroke-width="2" class="data-point"/>
  
    <circle cx="564.8484848484848" cy="246.7854678034396" r="4" fill="#3b82f6" stroke="#0d1117" stroke-width="2" class="data-point"/>
  
    <circle cx="569.0909090909091" cy="246.66824680892594" r="4" fill="#3b82f6" stroke="#0d1117" stroke-width="2" class="data-point"/>
  
    <circle cx="573.3333333333333" cy="243.78739185901412" r="4" fill="#3b82f6" stroke="#0d1117" stroke-width="2" class="data-point"/>
  
    <circle cx="577.5757575757576" cy="239.27537696849708" r="4" fill="#3b82f6" stroke="#0d1117" stroke-width="2" class="data-point"/>
  
    <circle cx="581.8181818181819" cy="236.25345946586543" r="4" fill="#3b82f6" stroke="#0d1117" stroke-width="2" class="data-point"/>
  
    <circle cx="586.060606060606" cy="232.74477681652456" r="4" fill="#3b82f6" stroke="#0d1117" stroke-width="2" class="data-point"/>
  
    <circle cx="590.3030303030303" cy="229.12880715525597" r="4" fill="#3b82f6" stroke="#0d1117" stroke-width="2" class="data-point"/>
  
    <circle cx="594.5454545454546" cy="226.29166172872212" r="4" fill="#3b82f6" stroke="#0d1117" stroke-width="2" class="data-point"/>
  
    <circle cx="598.7878787878788" cy="223.11874769078474" r="4" fill="#3b82f6" stroke="#0d1117" stroke-width="2" class="data-point"/>
  
    <circle cx="603.030303030303" cy="218.28487176448442" r="4" fill="#3b82f6" stroke="#0d1117" stroke-width="2" class="data-point"/>
  
    <circle cx="607.2727272727273" cy="211.77016598464937" r="4" fill="#3b82f6" stroke="#0d1117" stroke-width="2" class="data-point"/>
  
    <circle cx="611.5151515151515" cy="207.51842143788298" r="4" fill="#3b82f6" stroke="#0d1117" stroke-width="2" class="data-point"/>
  
    <circle cx="615.7575757575758" cy="202.45805070862409" r="4" fill="#3b82f6" stroke="#0d1117" stroke-width="2" class="data-point"/>
  
    <circle cx="620" cy="196.81952219286566" r="4" fill="#3b82f6" stroke="#0d1117" stroke-width="2" class="data-point"/>
  
    <circle cx="624.2424242424242" cy="192.2975733197627" r="4" fill="#3b82f6" stroke="#0d1117" stroke-width="2" class="data-point"/>
  
    <circle cx="628.4848484848485" cy="187.3901859223267" r="4" fill="#3b82f6" stroke="#0d1117" stroke-width="2" class="data-point"/>
  
    <circle cx="632.7272727272727" cy="183.0371147531841" r="4" fill="#3b82f6" stroke="#0d1117" stroke-width="2" class="data-point"/>
  
    <circle cx="636.969696969697" cy="178.72377951438511" r="4" fill="#3b82f6" stroke="#0d1117" stroke-width="2" class="data-point"/>
  
    <circle cx="641.2121212121212" cy="174.42236505468918" r="4" fill="#3b82f6" stroke="#0d1117" stroke-width="2" class="data-point"/>
  
    <circle cx="645.4545454545454" cy="168.5652889220409" r="4" fill="#3b82f6" stroke="#0d1117" stroke-width="2" class="data-point"/>
  
    <circle cx="649.6969696969696" cy="162.690331620738" r="4" fill="#3b82f6" stroke="#0d1117" stroke-width="2" class="data-point"/>
  
    <circle cx="653.939393939394" cy="157.7928782058879" r="4" fill="#3b82f6" stroke="#0d1117" stroke-width="2" class="data-point"/>
  
    <circle cx="658.1818181818181" cy="153.68815660139285" r="4" fill="#3b82f6" stroke="#0d1117" stroke-width="2" class="data-point"/>
  
    <circle cx="662.4242424242424" cy="149.70661638096303" r="4" fill="#3b82f6" stroke="#0d1117" stroke-width="2" class="data-point"/>
  
    <circle cx="666.6666666666667" cy="144.4217376452627" r="4" fill="#3b82f6" stroke="#0d1117" stroke-width="2" class="data-point"/>
  
    <circle cx="670.9090909090909" cy="140.32297643031922" r="4" fill="#3b82f6" stroke="#0d1117" stroke-width="2" class="data-point"/>
  
    <circle cx="675.1515151515151" cy="136.2679247387537" r="4" fill="#3b82f6" stroke="#0d1117" stroke-width="2" class="data-point"/>
  
    <circle cx="679.3939393939394" cy="132.475130187456" r="4" fill="#3b82f6" stroke="#0d1117" stroke-width="2" class="data-point"/>
  
    <circle cx="683.6363636363636" cy="128.90287004956537" r="4" fill="#3b82f6" stroke="#0d1117" stroke-width="2" class="data-point"/>
  
    <circle cx="687.8787878787879" cy="125.24319086491877" r="4" fill="#3b82f6" stroke="#0d1117" stroke-width="2" class="data-point"/>
  
    <circle cx="692.1212121212121" cy="122.11398635035937" r="4" fill="#3b82f6" stroke="#0d1117" stroke-width="2" class="data-point"/>
  
    <circle cx="696.3636363636364" cy="118.87352123083787" r="4" fill="#3b82f6" stroke="#0d1117" stroke-width="2" class="data-point"/>
  
    <circle cx="700.6060606060606" cy="115.56550502973224" r="4" fill="#3b82f6" stroke="#0d1117" stroke-width="2" class="data-point"/>
  
    <circle cx="704.8484848484849" cy="112.06874315949446" r="4" fill="#3b82f6" stroke="#0d1117" stroke-width="2" class="data-point"/>
  
    <circle cx="709.0909090909091" cy="108.86006678424786" r="4" fill="#3b82f6" stroke="#0d1117" stroke-width="2" class="data-point"/>
  
    <circle cx="713.3333333333334" cy="105.92159473533778" r="4" fill="#3b82f6" stroke="#0d1117" stroke-width="2" class="data-point"/>
  
    <circle cx="717.5757575757576" cy="100.59698006929389" r="4" fill="#3b82f6" stroke="#0d1117" stroke-width="2" class="data-point"/>
  
    <circle cx="721.8181818181818" cy="96.14059548125789" r="4" fill="#3b82f6" stroke="#0d1117" stroke-width="2" class="data-point"/>
  
    <circle cx="726.0606060606061" cy="91.86103578325097" r="4" fill="#3b82f6" stroke="#0d1117" stroke-width="2" class="data-point"/>
  
    <circle cx="730.3030303030303" cy="87.75035378920438" r="4" fill="#3b82f6" stroke="#0d1117" stroke-width="2" class="data-point"/>
  
    <circle cx="734.5454545454545" cy="81.25948956757549" r="4" fill="#3b82f6" stroke="#0d1117" stroke-width="2" class="data-point"/>
  
    <circle cx="738.7878787878788" cy="77.15278116656327" r="4" fill="#3b82f6" stroke="#0d1117" stroke-width="2" class="data-point"/>
  
    <circle cx="743.030303030303" cy="73.59840219732723" r="4" fill="#3b82f6" stroke="#0d1117" stroke-width="2" class="data-point"/>
  
    <circle cx="747.2727272727273" cy="69.40030115652468" r="4" fill="#3b82f6" stroke="#0d1117" stroke-width="2" class="data-point"/>
  
    <circle cx="751.5151515151515" cy="63.21143000550728" r="4" fill="#3b82f6" stroke="#0d1117" stroke-width="2" class="data-point"/>
  
    <circle cx="755.7575757575758" cy="58.7590190105056" r="4" fill="#3b82f6" stroke="#0d1117" stroke-width="2" class="data-point"/>
  
    <circle cx="760" cy="55" r="4" fill="#3b82f6" stroke="#0d1117" stroke-width="2" class="data-point"/>
  

  <!-- Axis lines -->
  <line x1="60" y1="55" x2="60" y2="340"
        stroke="#30363d" stroke-width="2"/>
  <line x1="60" y1="340" x2="760" y2="340"
        stroke="#30363d" stroke-width="2"/>
</svg>