<?xml version="1.0" encoding="UTF-8"?>
<svg width="800" height="400" xmlns="http://www.w3.org/2000/svg">
  <defs>
    <!-- Gradient for area fill -->
    <linearGradient id="areaGradient" x1="0%" y1="0%" x2="0%" y2="100%">
      <stop offset="0%" style="stop-color:#3b82f6;stop-opacity:0.3" />
      <stop offset="100%" style="stop-color:#3b82f6;stop-opacity:0.05" />
    </linearGradient>

    <!-- Glow filter for line -->
    <filter id="glow">
      <feGaussianBlur stdDeviation="2" result="coloredBlur"/>
      <feMerge>
        <feMergeNode in="coloredBlur"/>
        <feMergeNode in="SourceGraphic"/>
      </feMerge>
    </filter>

    <!-- Animation -->
    <style>
      @keyframes draw {
        from { stroke-dashoffset: 2000; }
        to { stroke-dashoffset: 0; }
      }
      @keyframes fadeIn {
        from { opacity: 0; }
        to { opacity: 1; }
      }
      .line-path {
        stroke-dasharray: 2000;
        stroke-dashoffset: 2000;
        animation: draw 1.5s ease-out forwards;
      }
      .area-path {
        opacity: 0;
        animation: fadeIn 1s ease-out 0.5s forwards;
      }
      .data-point {
        opacity: 0;
        animation: fadeIn 0.5s ease-out 1s forwards;
      }
    </style>
  </defs>

  <!-- Background -->
  <rect width="800" height="400" fill="#0d1117" rx="8"/>

  <!-- Title -->
  <text x="400" y="25" text-anchor="middle" fill="#c9d1d9" font-family="system-ui, -apple-system, sans-serif" font-size="16" font-weight="600">
    zxcloli666/SoundCloud-Desktop Downloads
  </text>

  <!-- Stats -->
  <text x="780" y="25" text-anchor="end" fill="#58a6ff" font-family="system-ui, -apple-system, sans-serif" font-size="14" font-weight="600">
    284.4K total
  </text>
  <text x="780" y="42" text-anchor="end" fill="#3fb950" font-family="system-ui, -apple-system, sans-serif" font-size="12">
    +926 (+0.3%)
  </text>

  <!-- Grid lines -->
  <g opacity="0.1">
    
      <line x1="60" y1="340" x2="760" y2="340"
            stroke="#c9d1d9" stroke-width="1"/>
    
      <line x1="60" y1="268.75" x2="760" y2="268.75"
            stroke="#c9d1d9" stroke-width="1"/>
    
      <line x1="60" y1="197.5" x2="760" y2="197.5"
            stroke="#c9d1d9" stroke-width="1"/>
    
      <line x1="60" y1="126.25" x2="760" y2="126.25"
            stroke="#c9d1d9" stroke-width="1"/>
    
      <line x1="60" y1="55" x2="760" y2="55"
            stroke="#c9d1d9" stroke-width="1"/>
    
  </g>

  <!-- Y-axis labels -->
  
    <text x="50" y="344" text-anchor="end"
          fill="#8b949e" font-family="system-ui, -apple-system, sans-serif" font-size="11">
      60.2K
    </text>
  
    <text x="50" y="272.75" text-anchor="end"
          fill="#8b949e" font-family="system-ui, -apple-system, sans-serif" font-size="11">
      116.2K
    </text>
  
    <text x="50" y="201.5" text-anchor="end"
          fill="#8b949e" font-family="system-ui, -apple-system, sans-serif" font-size="11">
      172.3K
    </text>
  
    <text x="50" y="130.25" text-anchor="end"
          fill="#8b949e" font-family="system-ui, -apple-system, sans-serif" font-size="11">
      228.3K
    </text>
  
    <text x="50" y="59" text-anchor="end"
          fill="#8b949e" font-family="system-ui, -apple-system, sans-serif" font-size="11">
      284.4K
    </text>
  

  <!-- X-axis labels -->
  
    <text x="60" y="360" text-anchor="middle"
          fill="#8b949e" font-family="system-ui, -apple-system, sans-serif" font-size="11">
      Nov 25
    </text>
  
    <text x="147.87878787878788" y="360" text-anchor="middle"
          fill="#8b949e" font-family="system-ui, -apple-system, sans-serif" font-size="11">
      Dec 24
    </text>
  
    <text x="235.75757575757575" y="360" text-anchor="middle"
          fill="#8b949e" font-family="system-ui, -apple-system, sans-serif" font-size="11">
      Jan 22
    </text>
  
    <text x="323.6363636363636" y="360" text-anchor="middle"
          fill="#8b949e" font-family="system-ui, -apple-system, sans-serif" font-size="11">
      Feb 20
    </text>
  
    <text x="411.5151515151515" y="360" text-anchor="middle"
          fill="#8b949e" font-family="system-ui, -apple-system, sans-serif" font-size="11">
      Mar 21
    </text>
  
    <text x="499.3939393939394" y="360" text-anchor="middle"
          fill="#8b949e" font-family="system-ui, -apple-system, sans-serif" font-size="11">
      Apr 19
    </text>
  
    <text x="587.2727272727273" y="360" text-anchor="middle"
          fill="#8b949e" font-family="system-ui, -apple-system, sans-serif" font-size="11">
      May 18
    </text>
  
    <text x="675.1515151515151" y="360" text-anchor="middle"
          fill="#8b949e" font-family="system-ui, -apple-system, sans-serif" font-size="11">
      Jun 16
    </text>
  
    <text x="760" y="360" text-anchor="middle"
          fill="#8b949e" font-family="system-ui, -apple-system, sans-serif" font-size="11">
      Jul 14
    </text>
  

  <!-- Area under line -->
  <path d="M 60 340
    L 60.00 340.00 L 63.03 339.81 L 66.06 339.50 L 69.09 339.20 L 72.12 338.61 L 75.15 338.01 L 78.18 337.53 L 81.21 337.09 L 84.24 336.69 L 87.27 336.23 L 90.30 335.71 L 93.33 335.16 L 96.36 334.65 L 99.39 334.12 L 102.42 333.73 L 105.45 333.32 L 108.48 332.78 L 111.52 332.41 L 114.55 331.90 L 117.58 331.31 L 120.61 330.87 L 123.64 330.51 L 126.67 330.27 L 129.70 330.08 L 132.73 329.71 L 135.76 329.46 L 138.79 328.89 L 141.82 328.67 L 144.85 328.38 L 147.88 328.01 L 150.91 327.75 L 153.94 327.50 L 156.97 327.23 L 160.00 327.04 L 163.03 326.88 L 166.06 326.63 L 169.09 326.33 L 172.12 326.05 L 175.15 325.70 L 178.18 325.32 L 181.21 324.96 L 184.24 324.54 L 187.27 324.13 L 190.30 323.71 L 193.33 323.26 L 196.36 322.82 L 199.39 322.32 L 202.42 321.88 L 205.45 321.50 L 208.48 321.20 L 211.52 320.79 L 214.55 320.31 L 217.58 319.87 L 220.61 319.36 L 223.64 318.72 L 226.67 318.25 L 229.70 317.86 L 232.73 317.49 L 235.76 317.05 L 238.79 316.53 L 241.82 315.95 L 244.85 315.35 L 247.88 314.77 L 250.91 314.26 L 253.94 313.75 L 256.97 313.31 L 260.00 312.85 L 263.03 312.34 L 266.06 311.71 L 269.09 311.24 L 272.12 310.82 L 275.15 310.35 L 278.18 309.91 L 281.21 309.43 L 284.24 308.93 L 287.27 308.41 L 290.30 307.95 L 293.33 307.55 L 296.36 307.12 L 299.39 306.66 L 302.42 306.23 L 305.45 305.66 L 308.48 305.18 L 311.52 304.71 L 314.55 304.32 L 317.58 303.95 L 320.61 303.57 L 323.64 303.12 L 326.67 302.65 L 329.70 302.09 L 332.73 301.64 L 335.76 301.26 L 338.79 300.88 L 341.82 300.51 L 344.85 300.06 L 347.88 299.60 L 350.91 298.57 L 353.94 296.53 L 356.97 294.10 L 360.00 291.88 L 363.03 290.76 L 366.06 289.07 L 369.09 287.94 L 372.12 286.96 L 375.15 285.99 L 378.18 285.08 L 381.21 283.67 L 384.24 282.55 L 387.27 281.11 L 390.30 280.82 L 393.33 280.78 L 396.36 280.73 L 399.39 280.69 L 402.42 280.63 L 405.45 280.58 L 408.48 280.56 L 411.52 280.49 L 414.55 280.43 L 417.58 280.38 L 420.61 280.37 L 423.64 280.29 L 426.67 278.45 L 429.70 275.56 L 432.73 273.63 L 435.76 271.38 L 438.79 269.07 L 441.82 267.25 L 444.85 265.22 L 447.88 262.13 L 450.91 257.96 L 453.94 255.24 L 456.97 252.01 L 460.00 248.40 L 463.03 245.51 L 466.06 242.37 L 469.09 239.58 L 472.12 236.82 L 475.15 234.07 L 478.18 230.32 L 481.21 226.57 L 484.24 223.43 L 487.27 220.81 L 490.30 218.26 L 493.33 214.88 L 496.36 212.26 L 499.39 209.66 L 502.42 207.24 L 505.45 204.95 L 508.48 202.61 L 511.52 200.61 L 514.55 198.53 L 517.58 196.42 L 520.61 194.18 L 523.64 192.13 L 526.67 190.25 L 529.70 186.84 L 532.73 183.99 L 535.76 181.25 L 538.79 178.62 L 541.82 174.47 L 544.85 171.84 L 547.88 169.57 L 550.91 166.88 L 553.94 162.92 L 556.97 160.07 L 560.00 157.67 L 563.03 155.64 L 566.06 153.70 L 569.09 152.13 L 572.12 150.37 L 575.15 148.93 L 578.18 147.22 L 581.21 144.78 L 584.24 142.67 L 587.27 140.84 L 590.30 139.26 L 593.33 137.63 L 596.36 136.26 L 599.39 133.94 L 602.42 131.97 L 605.45 130.01 L 608.48 128.39 L 611.52 126.91 L 614.55 125.59 L 617.58 123.33 L 620.61 121.49 L 623.64 119.82 L 626.67 118.22 L 629.70 116.83 L 632.73 115.47 L 635.76 114.23 L 638.79 113.04 L 641.82 111.95 L 644.85 110.59 L 647.88 109.13 L 650.91 107.78 L 653.94 105.70 L 656.97 104.18 L 660.00 102.73 L 663.03 101.46 L 666.06 99.96 L 669.09 98.13 L 672.12 96.51 L 675.15 95.06 L 678.18 93.48 L 681.21 91.31 L 684.24 89.53 L 687.27 87.61 L 690.30 85.71 L 693.33 83.93 L 696.36 82.19 L 699.39 80.34 L 702.42 78.69 L 705.45 77.24 L 708.48 75.90 L 711.52 74.48 L 714.55 73.09 L 717.58 71.84 L 720.61 70.59 L 723.64 69.39 L 726.67 68.19 L 729.70 67.00 L 732.73 65.95 L 735.76 64.73 L 738.79 63.47 L 741.82 62.03 L 744.85 60.65 L 747.88 59.41 L 750.91 58.32 L 753.94 57.20 L 756.97 56.18 L 760.00 55.00
    L 760 340
    Z" fill="url(#areaGradient)" class="area-path"/>

  <!-- Main line with glow -->
  <path d="M 60.00 340.00 L 63.03 339.81 L 66.06 339.50 L 69.09 339.20 L 72.12 338.61 L 75.15 338.01 L 78.18 337.53 L 81.21 337.09 L 84.24 336.69 L 87.27 336.23 L 90.30 335.71 L 93.33 335.16 L 96.36 334.65 L 99.39 334.12 L 102.42 333.73 L 105.45 333.32 L 108.48 332.78 L 111.52 332.41 L 114.55 331.90 L 117.58 331.31 L 120.61 330.87 L 123.64 330.51 L 126.67 330.27 L 129.70 330.08 L 132.73 329.71 L 135.76 329.46 L 138.79 328.89 L 141.82 328.67 L 144.85 328.38 L 147.88 328.01 L 150.91 327.75 L 153.94 327.50 L 156.97 327.23 L 160.00 327.04 L 163.03 326.88 L 166.06 326.63 L 169.09 326.33 L 172.12 326.05 L 175.15 325.70 L 178.18 325.32 L 181.21 324.96 L 184.24 324.54 L 187.27 324.13 L 190.30 323.71 L 193.33 323.26 L 196.36 322.82 L 199.39 322.32 L 202.42 321.88 L 205.45 321.50 L 208.48 321.20 L 211.52 320.79 L 214.55 320.31 L 217.58 319.87 L 220.61 319.36 L 223.64 318.72 L 226.67 318.25 L 229.70 317.86 L 232.73 317.49 L 235.76 317.05 L 238.79 316.53 L 241.82 315.95 L 244.85 315.35 L 247.88 314.77 L 250.91 314.26 L 253.94 313.75 L 256.97 313.31 L 260.00 312.85 L 263.03 312.34 L 266.06 311.71 L 269.09 311.24 L 272.12 310.82 L 275.15 310.35 L 278.18 309.91 L 281.21 309.43 L 284.24 308.93 L 287.27 308.41 L 290.30 307.95 L 293.33 307.55 L 296.36 307.12 L 299.39 306.66 L 302.42 306.23 L 305.45 305.66 L 308.48 305.18 L 311.52 304.71 L 314.55 304.32 L 317.58 303.95 L 320.61 303.57 L 323.64 303.12 L 326.67 302.65 L 329.70 302.09 L 332.73 301.64 L 335.76 301.26 L 338.79 300.88 L 341.82 300.51 L 344.85 300.06 L 347.88 299.60 L 350.91 298.57 L 353.94 296.53 L 356.97 294.10 L 360.00 291.88 L 363.03 290.76 L 366.06 289.07 L 369.09 287.94 L 372.12 286.96 L 375.15 285.99 L 378.18 285.08 L 381.21 283.67 L 384.24 282.55 L 387.27 281.11 L 390.30 280.82 L 393.33 280.78 L 396.36 280.73 L 399.39 280.69 L 402.42 280.63 L 405.45 280.58 L 408.48 280.56 L 411.52 280.49 L 414.55 280.43 L 417.58 280.38 L 420.61 280.37 L 423.64 280.29 L 426.67 278.45 L 429.70 275.56 L 432.73 273.63 L 435.76 271.38 L 438.79 269.07 L 441.82 267.25 L 444.85 265.22 L 447.88 262.13 L 450.91 257.96 L 453.94 255.24 L 456.97 252.01 L 460.00 248.40 L 463.03 245.51 L 466.06 242.37 L 469.09 239.58 L 472.12 236.82 L 475.15 234.07 L 478.18 230.32 L 481.21 226.57 L 484.24 223.43 L 487.27 220.81 L 490.30 218.26 L 493.33 214.88 L 496.36 212.26 L 499.39 209.66 L 502.42 207.24 L 505.45 204.95 L 508.48 202.61 L 511.52 200.61 L 514.55 198.53 L 517.58 196.42 L 520.61 194.18 L 523.64 192.13 L 526.67 190.25 L 529.70 186.84 L 532.73 183.99 L 535.76 181.25 L 538.79 178.62 L 541.82 174.47 L 544.85 171.84 L 547.88 169.57 L 550.91 166.88 L 553.94 162.92 L 556.97 160.07 L 560.00 157.67 L 563.03 155.64 L 566.06 153.70 L 569.09 152.13 L 572.12 150.37 L 575.15 148.93 L 578.18 147.22 L 581.21 144.78 L 584.24 142.67 L 587.27 140.84 L 590.30 139.26 L 593.33 137.63 L 596.36 136.26 L 599.39 133.94 L 602.42 131.97 L 605.45 130.01 L 608.48 128.39 L 611.52 126.91 L 614.55 125.59 L 617.58 123.33 L 620.61 121.49 L 623.64 119.82 L 626.67 118.22 L 629.70 116.83 L 632.73 115.47 L 635.76 114.23 L 638.79 113.04 L 641.82 111.95 L 644.85 110.59 L 647.88 109.13 L 650.91 107.78 L 653.94 105.70 L 656.97 104.18 L 660.00 102.73 L 663.03 101.46 L 666.06 99.96 L 669.09 98.13 L 672.12 96.51 L 675.15 95.06 L 678.18 93.48 L 681.21 91.31 L 684.24 89.53 L 687.27 87.61 L 690.30 85.71 L 693.33 83.93 L 696.36 82.19 L 699.39 80.34 L 702.42 78.69 L 705.45 77.24 L 708.48 75.90 L 711.52 74.48 L 714.55 73.09 L 717.58 71.84 L 720.61 70.59 L 723.64 69.39 L 726.67 68.19 L 729.70 67.00 L 732.73 65.95 L 735.76 64.73 L 738.79 63.47 L 741.82 62.03 L 744.85 60.65 L 747.88 59.41 L 750.91 58.32 L 753.94 57.20 L 756.97 56.18 L 760.00 55.00" fill="none" stroke="#3b82f6" stroke-width="3"
        stroke-linecap="round" stroke-linejoin="round" filter="url(#glow)" class="line-path"/>

  <!-- Data points -->
  
    <circle cx="60" cy="340" r="4" fill="#3b82f6" stroke="#0d1117" stroke-width="2" class="data-point"/>
  
    <circle cx="63.03030303030303" cy="339.8131539278037" r="4" fill="#3b82f6" stroke="#0d1117" stroke-width="2" class="data-point"/>
  
    <circle cx="66.06060606060606" cy="339.4953884988984" r="4" fill="#3b82f6" stroke="#0d1117" stroke-width="2" class="data-point"/>
  
    <circle cx="69.0909090909091" cy="339.2005021808743" r="4" fill="#3b82f6" stroke="#0d1117" stroke-width="2" class="data-point"/>
  
    <circle cx="72.12121212121212" cy="338.614542729973" r="4" fill="#3b82f6" stroke="#0d1117" stroke-width="2" class="data-point"/>
  
    <circle cx="75.15151515151516" cy="338.00951735333734" r="4" fill="#3b82f6" stroke="#0d1117" stroke-width="2" class="data-point"/>
  
    <circle cx="78.18181818181819" cy="337.53286920997937" r="4" fill="#3b82f6" stroke="#0d1117" stroke-width="2" class="data-point"/>
  
    <circle cx="81.21212121212122" cy="337.087997609512" r="4" fill="#3b82f6" stroke="#0d1117" stroke-width="2" class="data-point"/>
  
    <circle cx="84.24242424242425" cy="336.69269741595383" r="4" fill="#3b82f6" stroke="#0d1117" stroke-width="2" class="data-point"/>
  
    <circle cx="87.27272727272728" cy="336.2287598897521" r="4" fill="#3b82f6" stroke="#0d1117" stroke-width="2" class="data-point"/>
  
    <circle cx="90.3030303030303" cy="335.71143777149433" r="4" fill="#3b82f6" stroke="#0d1117" stroke-width="2" class="data-point"/>
  
    <circle cx="93.33333333333333" cy="335.1572548634835" r="4" fill="#3b82f6" stroke="#0d1117" stroke-width="2" class="data-point"/>
  
    <circle cx="96.36363636363637" cy="334.65391442409754" r="4" fill="#3b82f6" stroke="#0d1117" stroke-width="2" class="data-point"/>
  
    <circle cx="99.3939393939394" cy="334.1187974418211" r="4" fill="#3b82f6" stroke="#0d1117" stroke-width="2" class="data-point"/>
  
    <circle cx="102.42424242424242" cy="333.72858149512535" r="4" fill="#3b82f6" stroke="#0d1117" stroke-width="2" class="data-point"/>
  
    <circle cx="105.45454545454545" cy="333.32438386955783" r="4" fill="#3b82f6" stroke="#0d1117" stroke-width="2" class="data-point"/>
  
    <circle cx="108.48484848484848" cy="332.7752852084095" r="4" fill="#3b82f6" stroke="#0d1117" stroke-width="2" class="data-point"/>
  
    <circle cx="111.51515151515153" cy="332.407948372595" r="4" fill="#3b82f6" stroke="#0d1117" stroke-width="2" class="data-point"/>
  
    <circle cx="114.54545454545455" cy="331.8995236863466" r="4" fill="#3b82f6" stroke="#0d1117" stroke-width="2" class="data-point"/>
  
    <circle cx="117.57575757575758" cy="331.3122931737296" r="4" fill="#3b82f6" stroke="#0d1117" stroke-width="2" class="data-point"/>
  
    <circle cx="120.6060606060606" cy="330.86996369669345" r="4" fill="#3b82f6" stroke="#0d1117" stroke-width="2" class="data-point"/>
  
    <circle cx="123.63636363636364" cy="330.50644004602583" r="4" fill="#3b82f6" stroke="#0d1117" stroke-width="2" class="data-point"/>
  
    <circle cx="126.66666666666666" cy="330.27129362863593" r="4" fill="#3b82f6" stroke="#0d1117" stroke-width="2" class="data-point"/>
  
    <circle cx="129.6969696969697" cy="330.07555012443026" r="4" fill="#3b82f6" stroke="#0d1117" stroke-width="2" class="data-point"/>
  
    <circle cx="132.72727272727275" cy="329.7132975354782" r="4" fill="#3b82f6" stroke="#0d1117" stroke-width="2" class="data-point"/>
  
    <circle cx="135.75757575757575" cy="329.45527200720716" r="4" fill="#3b82f6" stroke="#0d1117" stroke-width="2" class="data-point"/>
  
    <circle cx="138.7878787878788" cy="328.88964954375575" r="4" fill="#3b82f6" stroke="#0d1117" stroke-width="2" class="data-point"/>
  
    <circle cx="141.8181818181818" cy="328.66721374352204" r="4" fill="#3b82f6" stroke="#0d1117" stroke-width="2" class="data-point"/>
  
    <circle cx="144.84848484848484" cy="328.37995379579166" r="4" fill="#3b82f6" stroke="#0d1117" stroke-width="2" class="data-point"/>
  
    <circle cx="147.87878787878788" cy="328.0088037748303" r="4" fill="#3b82f6" stroke="#0d1117" stroke-width="2" class="data-point"/>
  
    <circle cx="150.9090909090909" cy="327.7545914317061" r="4" fill="#3b82f6" stroke="#0d1117" stroke-width="2" class="data-point"/>
  
    <circle cx="153.93939393939394" cy="327.496565903435" r="4" fill="#3b82f6" stroke="#0d1117" stroke-width="2" class="data-point"/>
  
    <circle cx="156.96969696969697" cy="327.2258297580077" r="4" fill="#3b82f6" stroke="#0d1117" stroke-width="2" class="data-point"/>
  
    <circle cx="160" cy="327.0377126240958" r="4" fill="#3b82f6" stroke="#0d1117" stroke-width="2" class="data-point"/>
  
    <circle cx="163.03030303030306" cy="326.8750167244963" r="4" fill="#3b82f6" stroke="#0d1117" stroke-width="2" class="data-point"/>
  
    <circle cx="166.06060606060606" cy="326.62715968995013" r="4" fill="#3b82f6" stroke="#0d1117" stroke-width="2" class="data-point"/>
  
    <circle cx="169.0909090909091" cy="326.32591806334796" r="4" fill="#3b82f6" stroke="#0d1117" stroke-width="2" class="data-point"/>
  
    <circle cx="172.12121212121212" cy="326.04882660934254" r="4" fill="#3b82f6" stroke="#0d1117" stroke-width="2" class="data-point"/>
  
    <circle cx="175.15151515151516" cy="325.6980135758311" r="4" fill="#3b82f6" stroke="#0d1117" stroke-width="2" class="data-point"/>
  
    <circle cx="178.1818181818182" cy="325.31542399942913" r="4" fill="#3b82f6" stroke="#0d1117" stroke-width="2" class="data-point"/>
  
    <circle cx="181.2121212121212" cy="324.9646109659177" r="4" fill="#3b82f6" stroke="#0d1117" stroke-width="2" class="data-point"/>
  
    <circle cx="184.24242424242425" cy="324.54134741461587" r="4" fill="#3b82f6" stroke="#0d1117" stroke-width="2" class="data-point"/>
  
    <circle cx="187.27272727272728" cy="324.1257102336078" r="4" fill="#3b82f6" stroke="#0d1117" stroke-width="2" class="data-point"/>
  
    <circle cx="190.3030303030303" cy="323.7100730525997" r="4" fill="#3b82f6" stroke="#0d1117" stroke-width="2" class="data-point"/>
  
    <circle cx="193.33333333333331" cy="323.2550329584073" r="4" fill="#3b82f6" stroke="#0d1117" stroke-width="2" class="data-point"/>
  
    <circle cx="196.36363636363637" cy="322.8203298516649" r="4" fill="#3b82f6" stroke="#0d1117" stroke-width="2" class="data-point"/>
  
    <circle cx="199.3939393939394" cy="322.323344720857" r="4" fill="#3b82f6" stroke="#0d1117" stroke-width="2" class="data-point"/>
  
    <circle cx="202.4242424242424" cy="321.87974418210524" r="4" fill="#3b82f6" stroke="#0d1117" stroke-width="2" class="data-point"/>
  
    <circle cx="205.45454545454547" cy="321.504780975997" r="4" fill="#3b82f6" stroke="#0d1117" stroke-width="2" class="data-point"/>
  
    <circle cx="208.4848484848485" cy="321.20481041111043" r="4" fill="#3b82f6" stroke="#0d1117" stroke-width="2" class="data-point"/>
  
    <circle cx="211.5151515151515" cy="320.78536004495544" r="4" fill="#3b82f6" stroke="#0d1117" stroke-width="2" class="data-point"/>
  
    <circle cx="214.54545454545453" cy="320.3061697781663" r="4" fill="#3b82f6" stroke="#0d1117" stroke-width="2" class="data-point"/>
  
    <circle cx="217.5757575757576" cy="319.867653486277" r="4" fill="#3b82f6" stroke="#0d1117" stroke-width="2" class="data-point"/>
  
    <circle cx="220.6060606060606" cy="319.3554156148817" r="4" fill="#3b82f6" stroke="#0d1117" stroke-width="2" class="data-point"/>
  
    <circle cx="223.63636363636363" cy="318.723697942218" r="4" fill="#3b82f6" stroke="#0d1117" stroke-width="2" class="data-point"/>
  
    <circle cx="226.66666666666666" cy="318.25340510743814" r="4" fill="#3b82f6" stroke="#0d1117" stroke-width="2" class="data-point"/>
  
    <circle cx="229.6969696969697" cy="317.8631891607425" r="4" fill="#3b82f6" stroke="#0d1117" stroke-width="2" class="data-point"/>
  
    <circle cx="232.72727272727272" cy="317.4920391397811" r="4" fill="#3b82f6" stroke="#0d1117" stroke-width="2" class="data-point"/>
  
    <circle cx="235.75757575757575" cy="317.0458964775981" r="4" fill="#3b82f6" stroke="#0d1117" stroke-width="2" class="data-point"/>
  
    <circle cx="238.78787878787878" cy="316.52730329762466" r="4" fill="#3b82f6" stroke="#0d1117" stroke-width="2" class="data-point"/>
  
    <circle cx="241.8181818181818" cy="315.9527834021639" r="4" fill="#3b82f6" stroke="#0d1117" stroke-width="2" class="data-point"/>
  
    <circle cx="244.84848484848484" cy="315.3490290872439" r="4" fill="#3b82f6" stroke="#0d1117" stroke-width="2" class="data-point"/>
  
    <circle cx="247.87878787878788" cy="314.7694249449207" r="4" fill="#3b82f6" stroke="#0d1117" stroke-width="2" class="data-point"/>
  
    <circle cx="250.9090909090909" cy="314.2597291969566" r="4" fill="#3b82f6" stroke="#0d1117" stroke-width="2" class="data-point"/>
  
    <circle cx="253.93939393939394" cy="313.7538466341394" r="4" fill="#3b82f6" stroke="#0d1117" stroke-width="2" class="data-point"/>
  
    <circle cx="256.969696969697" cy="313.30770397195636" r="4" fill="#3b82f6" stroke="#0d1117" stroke-width="2" class="data-point"/>
  
    <circle cx="260" cy="312.85266387776403" r="4" fill="#3b82f6" stroke="#0d1117" stroke-width="2" class="data-point"/>
  
    <circle cx="263.030303030303" cy="312.34423919151556" r="4" fill="#3b82f6" stroke="#0d1117" stroke-width="2" class="data-point"/>
  
    <circle cx="266.0606060606061" cy="311.7112504571362" r="4" fill="#3b82f6" stroke="#0d1117" stroke-width="2" class="data-point"/>
  
    <circle cx="269.0909090909091" cy="311.2396865606408" r="4" fill="#3b82f6" stroke="#0d1117" stroke-width="2" class="data-point"/>
  
    <circle cx="272.1212121212121" cy="310.8176940710546" r="4" fill="#3b82f6" stroke="#0d1117" stroke-width="2" class="data-point"/>
  
    <circle cx="275.1515151515151" cy="310.3486722979904" r="4" fill="#3b82f6" stroke="#0d1117" stroke-width="2" class="data-point"/>
  
    <circle cx="278.1818181818182" cy="309.9114270678167" r="4" fill="#3b82f6" stroke="#0d1117" stroke-width="2" class="data-point"/>
  
    <circle cx="281.21212121212125" cy="309.43096573931194" r="4" fill="#3b82f6" stroke="#0d1117" stroke-width="2" class="data-point"/>
  
    <circle cx="284.24242424242425" cy="308.9301674233572" r="4" fill="#3b82f6" stroke="#0d1117" stroke-width="2" class="data-point"/>
  
    <circle cx="287.27272727272725" cy="308.4064899965213" r="4" fill="#3b82f6" stroke="#0d1117" stroke-width="2" class="data-point"/>
  
    <circle cx="290.3030303030303" cy="307.9476367171821" r="4" fill="#3b82f6" stroke="#0d1117" stroke-width="2" class="data-point"/>
  
    <circle cx="293.3333333333333" cy="307.55487864705515" r="4" fill="#3b82f6" stroke="#0d1117" stroke-width="2" class="data-point"/>
  
    <circle cx="296.3636363636364" cy="307.1239887254596" r="4" fill="#3b82f6" stroke="#0d1117" stroke-width="2" class="data-point"/>
  
    <circle cx="299.3939393939394" cy="306.6575090758266" r="4" fill="#3b82f6" stroke="#0d1117" stroke-width="2" class="data-point"/>
  
    <circle cx="302.4242424242424" cy="306.22534809251545" r="4" fill="#3b82f6" stroke="#0d1117" stroke-width="2" class="data-point"/>
  
    <circle cx="305.4545454545455" cy="305.66226775249527" r="4" fill="#3b82f6" stroke="#0d1117" stroke-width="2" class="data-point"/>
  
    <circle cx="308.4848484848485" cy="305.17799323884367" r="4" fill="#3b82f6" stroke="#0d1117" stroke-width="2" class="data-point"/>
  
    <circle cx="311.5151515151515" cy="304.7115135892107" r="4" fill="#3b82f6" stroke="#0d1117" stroke-width="2" class="data-point"/>
  
    <circle cx="314.54545454545456" cy="304.3238397659462" r="4" fill="#3b82f6" stroke="#0d1117" stroke-width="2" class="data-point"/>
  
    <circle cx="317.57575757575756" cy="303.9476054981224" r="4" fill="#3b82f6" stroke="#0d1117" stroke-width="2" class="data-point"/>
  
    <circle cx="320.6060606060606" cy="303.57010016858294" r="4" fill="#3b82f6" stroke="#0d1117" stroke-width="2" class="data-point"/>
  
    <circle cx="323.6363636363636" cy="303.1188732595374" r="4" fill="#3b82f6" stroke="#0d1117" stroke-width="2" class="data-point"/>
  
    <circle cx="326.66666666666663" cy="302.6549357333357" r="4" fill="#3b82f6" stroke="#0d1117" stroke-width="2" class="data-point"/>
  
    <circle cx="329.6969696969697" cy="302.09185539331554" r="4" fill="#3b82f6" stroke="#0d1117" stroke-width="2" class="data-point"/>
  
    <circle cx="332.72727272727275" cy="301.63554423740754" r="4" fill="#3b82f6" stroke="#0d1117" stroke-width="2" class="data-point"/>
  
    <circle cx="335.75757575757575" cy="301.2631231547306" r="4" fill="#3b82f6" stroke="#0d1117" stroke-width="2" class="data-point"/>
  
    <circle cx="338.7878787878788" cy="300.8805335783286" r="4" fill="#3b82f6" stroke="#0d1117" stroke-width="2" class="data-point"/>
  
    <circle cx="341.8181818181818" cy="300.51446780422975" r="4" fill="#3b82f6" stroke="#0d1117" stroke-width="2" class="data-point"/>
  
    <circle cx="344.8484848484848" cy="300.0619698334686" r="4" fill="#3b82f6" stroke="#0d1117" stroke-width="2" class="data-point"/>
  
    <circle cx="347.8787878787879" cy="299.5980323072669" r="4" fill="#3b82f6" stroke="#0d1117" stroke-width="2" class="data-point"/>
  
    <circle cx="350.90909090909093" cy="298.5722855027607" r="4" fill="#3b82f6" stroke="#0d1117" stroke-width="2" class="data-point"/>
  
    <circle cx="353.93939393939394" cy="296.5309603874731" r="4" fill="#3b82f6" stroke="#0d1117" stroke-width="2" class="data-point"/>
  
    <circle cx="356.969696969697" cy="294.0994193254899" r="4" fill="#3b82f6" stroke="#0d1117" stroke-width="2" class="data-point"/>
  
    <circle cx="360" cy="291.8839587551623" r="4" fill="#3b82f6" stroke="#0d1117" stroke-width="2" class="data-point"/>
  
    <circle cx="363.030303030303" cy="290.7603401985532" r="4" fill="#3b82f6" stroke="#0d1117" stroke-width="2" class="data-point"/>
  
    <circle cx="366.06060606060606" cy="289.0672859933459" r="4" fill="#3b82f6" stroke="#0d1117" stroke-width="2" class="data-point"/>
  
    <circle cx="369.09090909090907" cy="287.9423963750212" r="4" fill="#3b82f6" stroke="#0d1117" stroke-width="2" class="data-point"/>
  
    <circle cx="372.1212121212121" cy="286.9560524836992" r="4" fill="#3b82f6" stroke="#0d1117" stroke-width="2" class="data-point"/>
  
    <circle cx="375.1515151515152" cy="285.99131664154277" r="4" fill="#3b82f6" stroke="#0d1117" stroke-width="2" class="data-point"/>
  
    <circle cx="378.1818181818182" cy="285.08250751487367" r="4" fill="#3b82f6" stroke="#0d1117" stroke-width="2" class="data-point"/>
  
    <circle cx="381.2121212121212" cy="283.66908688710294" r="4" fill="#3b82f6" stroke="#0d1117" stroke-width="2" class="data-point"/>
  
    <circle cx="384.24242424242425" cy="282.5454683304939" r="4" fill="#3b82f6" stroke="#0d1117" stroke-width="2" class="data-point"/>
  
    <circle cx="387.27272727272725" cy="281.10916859184204" r="4" fill="#3b82f6" stroke="#0d1117" stroke-width="2" class="data-point"/>
  
    <circle cx="390.3030303030303" cy="280.81555333553354" r="4" fill="#3b82f6" stroke="#0d1117" stroke-width="2" class="data-point"/>
  
    <circle cx="393.3333333333333" cy="280.7774214840649" r="4" fill="#3b82f6" stroke="#0d1117" stroke-width="2" class="data-point"/>
  
    <circle cx="396.3636363636364" cy="280.72785007715567" r="4" fill="#3b82f6" stroke="#0d1117" stroke-width="2" class="data-point"/>
  
    <circle cx="399.3939393939394" cy="280.6859050405402" r="4" fill="#3b82f6" stroke="#0d1117" stroke-width="2" class="data-point"/>
  
    <circle cx="402.42424242424244" cy="280.63124938676845" r="4" fill="#3b82f6" stroke="#0d1117" stroke-width="2" class="data-point"/>
  
    <circle cx="405.45454545454544" cy="280.58294904157486" r="4" fill="#3b82f6" stroke="#0d1117" stroke-width="2" class="data-point"/>
  
    <circle cx="408.4848484848485" cy="280.56388311584055" r="4" fill="#3b82f6" stroke="#0d1117" stroke-width="2" class="data-point"/>
  
    <circle cx="411.5151515151515" cy="280.4939747214814" r="4" fill="#3b82f6" stroke="#0d1117" stroke-width="2" class="data-point"/>
  
    <circle cx="414.5454545454545" cy="280.4266084505535" r="4" fill="#3b82f6" stroke="#0d1117" stroke-width="2" class="data-point"/>
  
    <circle cx="417.57575757575756" cy="280.38212129050675" r="4" fill="#3b82f6" stroke="#0d1117" stroke-width="2" class="data-point"/>
  
    <circle cx="420.6060606060606" cy="280.36559748820366" r="4" fill="#3b82f6" stroke="#0d1117" stroke-width="2" class="data-point"/>
  
    <circle cx="423.6363636363636" cy="280.290604846982" r="4" fill="#3b82f6" stroke="#0d1117" stroke-width="2" class="data-point"/>
  
    <circle cx="426.6666666666667" cy="278.4475653593314" r="4" fill="#3b82f6" stroke="#0d1117" stroke-width="2" class="data-point"/>
  
    <circle cx="429.6969696969697" cy="275.5609842031558" r="4" fill="#3b82f6" stroke="#0d1117" stroke-width="2" class="data-point"/>
  
    <circle cx="432.7272727272727" cy="273.62769933369606" r="4" fill="#3b82f6" stroke="#0d1117" stroke-width="2" class="data-point"/>
  
    <circle cx="435.75757575757575" cy="271.3830043439092" r="4" fill="#3b82f6" stroke="#0d1117" stroke-width="2" class="data-point"/>
  
    <circle cx="438.7878787878788" cy="269.0696720214787" r="4" fill="#3b82f6" stroke="#0d1117" stroke-width="2" class="data-point"/>
  
    <circle cx="441.8181818181818" cy="267.25459589157174" r="4" fill="#3b82f6" stroke="#0d1117" stroke-width="2" class="data-point"/>
  
    <circle cx="444.8484848484849" cy="265.2247103317248" r="4" fill="#3b82f6" stroke="#0d1117" stroke-width="2" class="data-point"/>
  
    <circle cx="447.8787878787879" cy="262.1322171776186" r="4" fill="#3b82f6" stroke="#0d1117" stroke-width="2" class="data-point"/>
  
    <circle cx="450.9090909090909" cy="257.96440581209697" r="4" fill="#3b82f6" stroke="#0d1117" stroke-width="2" class="data-point"/>
  
    <circle cx="453.939393939394" cy="255.24433374066774" r="4" fill="#3b82f6" stroke="#0d1117" stroke-width="2" class="data-point"/>
  
    <circle cx="456.969696969697" cy="252.00693955098072" r="4" fill="#3b82f6" stroke="#0d1117" stroke-width="2" class="data-point"/>
  
    <circle cx="460" cy="248.39966640204796" r="4" fill="#3b82f6" stroke="#0d1117" stroke-width="2" class="data-point"/>
  
    <circle cx="463.03030303030306" cy="245.5067299372943" r="4" fill="#3b82f6" stroke="#0d1117" stroke-width="2" class="data-point"/>
  
    <circle cx="466.06060606060606" cy="242.3672074997101" r="4" fill="#3b82f6" stroke="#0d1117" stroke-width="2" class="data-point"/>
  
    <circle cx="469.09090909090907" cy="239.5823112807842" r="4" fill="#3b82f6" stroke="#0d1117" stroke-width="2" class="data-point"/>
  
    <circle cx="472.1212121212122" cy="236.82283629617075" r="4" fill="#3b82f6" stroke="#0d1117" stroke-width="2" class="data-point"/>
  
    <circle cx="475.1515151515152" cy="234.07098768185102" r="4" fill="#3b82f6" stroke="#0d1117" stroke-width="2" class="data-point"/>
  
    <circle cx="478.1818181818182" cy="230.32389774419994" r="4" fill="#3b82f6" stroke="#0d1117" stroke-width="2" class="data-point"/>
  
    <circle cx="481.21212121212125" cy="226.56536825110828" r="4" fill="#3b82f6" stroke="#0d1117" stroke-width="2" class="data-point"/>
  
    <circle cx="484.24242424242425" cy="223.43220112210219" r="4" fill="#3b82f6" stroke="#0d1117" stroke-width="2" class="data-point"/>
  
    <circle cx="487.27272727272725" cy="220.80618761762895" r="4" fill="#3b82f6" stroke="#0d1117" stroke-width="2" class="data-point"/>
  
    <circle cx="490.30303030303025" cy="218.25897993952424" r="4" fill="#3b82f6" stroke="#0d1117" stroke-width="2" class="data-point"/>
  
    <circle cx="493.33333333333337" cy="214.87795577597203" r="4" fill="#3b82f6" stroke="#0d1117" stroke-width="2" class="data-point"/>
  
    <circle cx="496.3636363636364" cy="212.25575545664566" r="4" fill="#3b82f6" stroke="#0d1117" stroke-width="2" class="data-point"/>
  
    <circle cx="499.3939393939394" cy="209.66151849506292" r="4" fill="#3b82f6" stroke="#0d1117" stroke-width="2" class="data-point"/>
  
    <circle cx="502.42424242424244" cy="207.2350616799422" r="4" fill="#3b82f6" stroke="#0d1117" stroke-width="2" class="data-point"/>
  
    <circle cx="505.45454545454544" cy="204.94969271525542" r="4" fill="#3b82f6" stroke="#0d1117" stroke-width="2" class="data-point"/>
  
    <circle cx="508.48484848484844" cy="202.6083970350813" r="4" fill="#3b82f6" stroke="#0d1117" stroke-width="2" class="data-point"/>
  
    <circle cx="511.51515151515156" cy="200.60647483297802" r="4" fill="#3b82f6" stroke="#0d1117" stroke-width="2" class="data-point"/>
  
    <circle cx="514.5454545454545" cy="198.53337317479998" r="4" fill="#3b82f6" stroke="#0d1117" stroke-width="2" class="data-point"/>
  
    <circle cx="517.5757575757575" cy="196.4170554182908" r="4" fill="#3b82f6" stroke="#0d1117" stroke-width="2" class="data-point"/>
  
    <circle cx="520.6060606060606" cy="194.17998679879764" r="4" fill="#3b82f6" stroke="#0d1117" stroke-width="2" class="data-point"/>
  
    <circle cx="523.6363636363636" cy="192.1272221280695" r="4" fill="#3b82f6" stroke="#0d1117" stroke-width="2" class="data-point"/>
  
    <circle cx="526.6666666666666" cy="190.24732185066586" r="4" fill="#3b82f6" stroke="#0d1117" stroke-width="2" class="data-point"/>
  
    <circle cx="529.6969696969697" cy="186.84087645280124" r="4" fill="#3b82f6" stroke="#0d1117" stroke-width="2" class="data-point"/>
  
    <circle cx="532.7272727272727" cy="183.98988502466304" r="4" fill="#3b82f6" stroke="#0d1117" stroke-width="2" class="data-point"/>
  
    <circle cx="535.7575757575758" cy="181.25201808921514" r="4" fill="#3b82f6" stroke="#0d1117" stroke-width="2" class="data-point"/>
  
    <circle cx="538.7878787878788" cy="178.62219139959504" r="4" fill="#3b82f6" stroke="#0d1117" stroke-width="2" class="data-point"/>
  
    <circle cx="541.8181818181818" cy="174.46963277466085" r="4" fill="#3b82f6" stroke="#0d1117" stroke-width="2" class="data-point"/>
  
    <circle cx="544.8484848484848" cy="171.84234820847195" r="4" fill="#3b82f6" stroke="#0d1117" stroke-width="2" class="data-point"/>
  
    <circle cx="547.878787878788" cy="169.56841879922575" r="4" fill="#3b82f6" stroke="#0d1117" stroke-width="2" class="data-point"/>
  
    <circle cx="550.909090909091" cy="166.88266539411833" r="4" fill="#3b82f6" stroke="#0d1117" stroke-width="2" class="data-point"/>
  
    <circle cx="553.939393939394" cy="162.92330814995853" r="4" fill="#3b82f6" stroke="#0d1117" stroke-width="2" class="data-point"/>
  
    <circle cx="556.969696969697" cy="160.07485884525158" r="4" fill="#3b82f6" stroke="#0d1117" stroke-width="2" class="data-point"/>
  
    <circle cx="560" cy="157.67001007929642" r="4" fill="#3b82f6" stroke="#0d1117" stroke-width="2" class="data-point"/>
  
    <circle cx="563.030303030303" cy="155.635040272587" r="4" fill="#3b82f6" stroke="#0d1117" stroke-width="2" class="data-point"/>
  
    <circle cx="566.060606060606" cy="153.7042975265585" r="4" fill="#3b82f6" stroke="#0d1117" stroke-width="2" class="data-point"/>
  
    <circle cx="569.0909090909091" cy="152.1345363077664" r="4" fill="#3b82f6" stroke="#0d1117" stroke-width="2" class="data-point"/>
  
    <circle cx="572.1212121212121" cy="150.3664894613374" r="4" fill="#3b82f6" stroke="#0d1117" stroke-width="2" class="data-point"/>
  
    <circle cx="575.1515151515151" cy="148.92510547582307" r="4" fill="#3b82f6" stroke="#0d1117" stroke-width="2" class="data-point"/>
  
    <circle cx="578.1818181818182" cy="147.224424900322" r="4" fill="#3b82f6" stroke="#0d1117" stroke-width="2" class="data-point"/>
  
    <circle cx="581.2121212121212" cy="144.7763600360357" r="4" fill="#3b82f6" stroke="#0d1117" stroke-width="2" class="data-point"/>
  
    <circle cx="584.2424242424242" cy="142.67275289668277" r="4" fill="#3b82f6" stroke="#0d1117" stroke-width="2" class="data-point"/>
  
    <circle cx="587.2727272727273" cy="140.84369508790394" r="4" fill="#3b82f6" stroke="#0d1117" stroke-width="2" class="data-point"/>
  
    <circle cx="590.3030303030303" cy="139.26249431367128" r="4" fill="#3b82f6" stroke="#0d1117" stroke-width="2" class="data-point"/>
  
    <circle cx="593.3333333333333" cy="137.63172213252935" r="4" fill="#3b82f6" stroke="#0d1117" stroke-width="2" class="data-point"/>
  
    <circle cx="596.3636363636364" cy="136.25643335622732" r="4" fill="#3b82f6" stroke="#0d1117" stroke-width="2" class="data-point"/>
  
    <circle cx="599.3939393939394" cy="133.94437209551248" r="4" fill="#3b82f6" stroke="#0d1117" stroke-width="2" class="data-point"/>
  
    <circle cx="602.4242424242424" cy="131.96787112772162" r="4" fill="#3b82f6" stroke="#0d1117" stroke-width="2" class="data-point"/>
  
    <circle cx="605.4545454545455" cy="130.00789396223385" r="4" fill="#3b82f6" stroke="#0d1117" stroke-width="2" class="data-point"/>
  
    <circle cx="608.4848484848485" cy="128.3898323982482" r="4" fill="#3b82f6" stroke="#0d1117" stroke-width="2" class="data-point"/>
  
    <circle cx="611.5151515151515" cy="126.9052323144027" r="4" fill="#3b82f6" stroke="#0d1117" stroke-width="2" class="data-point"/>
  
    <circle cx="614.5454545454546" cy="125.5871413153036" r="4" fill="#3b82f6" stroke="#0d1117" stroke-width="2" class="data-point"/>
  
    <circle cx="617.5757575757576" cy="123.32719358492923" r="4" fill="#3b82f6" stroke="#0d1117" stroke-width="2" class="data-point"/>
  
    <circle cx="620.6060606060606" cy="121.49178046757234" r="4" fill="#3b82f6" stroke="#0d1117" stroke-width="2" class="data-point"/>
  
    <circle cx="623.6363636363636" cy="119.81906324981492" r="4" fill="#3b82f6" stroke="#0d1117" stroke-width="2" class="data-point"/>
  
    <circle cx="626.6666666666666" cy="118.22133867327918" r="4" fill="#3b82f6" stroke="#0d1117" stroke-width="2" class="data-point"/>
  
    <circle cx="629.6969696969696" cy="116.82698397124278" r="4" fill="#3b82f6" stroke="#0d1117" stroke-width="2" class="data-point"/>
  
    <circle cx="632.7272727272727" cy="115.47330324410629" r="4" fill="#3b82f6" stroke="#0d1117" stroke-width="2" class="data-point"/>
  
    <circle cx="635.7575757575758" cy="114.23274700966007" r="4" fill="#3b82f6" stroke="#0d1117" stroke-width="2" class="data-point"/>
  
    <circle cx="638.7878787878788" cy="113.04303324383869" r="4" fill="#3b82f6" stroke="#0d1117" stroke-width="2" class="data-point"/>
  
    <circle cx="641.8181818181819" cy="111.95246229183576" r="4" fill="#3b82f6" stroke="#0d1117" stroke-width="2" class="data-point"/>
  
    <circle cx="644.8484848484849" cy="110.59115519440556" r="4" fill="#3b82f6" stroke="#0d1117" stroke-width="2" class="data-point"/>
  
    <circle cx="647.8787878787879" cy="109.12943422144127" r="4" fill="#3b82f6" stroke="#0d1117" stroke-width="2" class="data-point"/>
  
    <circle cx="650.9090909090909" cy="107.7846509263141" r="4" fill="#3b82f6" stroke="#0d1117" stroke-width="2" class="data-point"/>
  
    <circle cx="653.939393939394" cy="105.69502546583297" r="4" fill="#3b82f6" stroke="#0d1117" stroke-width="2" class="data-point"/>
  
    <circle cx="656.969696969697" cy="104.17864883909698" r="4" fill="#3b82f6" stroke="#0d1117" stroke-width="2" class="data-point"/>
  
    <circle cx="660" cy="102.72836742157327" r="4" fill="#3b82f6" stroke="#0d1117" stroke-width="2" class="data-point"/>
  
    <circle cx="663.030303030303" cy="101.45603464423652" r="4" fill="#3b82f6" stroke="#0d1117" stroke-width="2" class="data-point"/>
  
    <circle cx="666.060606060606" cy="99.9638081900973" r="4" fill="#3b82f6" stroke="#0d1117" stroke-width="2" class="data-point"/>
  
    <circle cx="669.090909090909" cy="98.13093719617166" r="4" fill="#3b82f6" stroke="#0d1117" stroke-width="2" class="data-point"/>
  
    <circle cx="672.1212121212121" cy="96.50652032360784" r="4" fill="#3b82f6" stroke="#0d1117" stroke-width="2" class="data-point"/>
  
    <circle cx="675.1515151515151" cy="95.05623890608416" r="4" fill="#3b82f6" stroke="#0d1117" stroke-width="2" class="data-point"/>
  
    <circle cx="678.1818181818181" cy="93.48139344042957" r="4" fill="#3b82f6" stroke="#0d1117" stroke-width="2" class="data-point"/>
  
    <circle cx="681.2121212121212" cy="91.30914896843305" r="4" fill="#3b82f6" stroke="#0d1117" stroke-width="2" class="data-point"/>
  
    <circle cx="684.2424242424242" cy="89.52584938141663" r="4" fill="#3b82f6" stroke="#0d1117" stroke-width="2" class="data-point"/>
  
    <circle cx="687.2727272727273" cy="87.61290149940683" r="4" fill="#3b82f6" stroke="#0d1117" stroke-width="2" class="data-point"/>
  
    <circle cx="690.3030303030304" cy="85.70630892597512" r="4" fill="#3b82f6" stroke="#0d1117" stroke-width="2" class="data-point"/>
  
    <circle cx="693.3333333333334" cy="83.93063570925244" r="4" fill="#3b82f6" stroke="#0d1117" stroke-width="2" class="data-point"/>
  
    <circle cx="696.3636363636364" cy="82.18801009713587" r="4" fill="#3b82f6" stroke="#0d1117" stroke-width="2" class="data-point"/>
  
    <circle cx="699.3939393939394" cy="80.34369954776963" r="4" fill="#3b82f6" stroke="#0d1117" stroke-width="2" class="data-point"/>
  
    <circle cx="702.4242424242424" cy="78.69004825574655" r="4" fill="#3b82f6" stroke="#0d1117" stroke-width="2" class="data-point"/>
  
    <circle cx="705.4545454545454" cy="77.24103789993848" r="4" fill="#3b82f6" stroke="#0d1117" stroke-width="2" class="data-point"/>
  
    <circle cx="708.4848484848485" cy="75.89879672824253" r="4" fill="#3b82f6" stroke="#0d1117" stroke-width="2" class="data-point"/>
  
    <circle cx="711.5151515151515" cy="74.47902079189373" r="4" fill="#3b82f6" stroke="#0d1117" stroke-width="2" class="data-point"/>
  
    <circle cx="714.5454545454545" cy="73.09356352186671" r="4" fill="#3b82f6" stroke="#0d1117" stroke-width="2" class="data-point"/>
  
    <circle cx="717.5757575757576" cy="71.84156773197992" r="4" fill="#3b82f6" stroke="#0d1117" stroke-width="2" class="data-point"/>
  
    <circle cx="720.6060606060606" cy="70.58702981866185" r="4" fill="#3b82f6" stroke="#0d1117" stroke-width="2" class="data-point"/>
  
    <circle cx="723.6363636363636" cy="69.38587649739992" r="4" fill="#3b82f6" stroke="#0d1117" stroke-width="2" class="data-point"/>
  
    <circle cx="726.6666666666666" cy="68.19234954643167" r="4" fill="#3b82f6" stroke="#0d1117" stroke-width="2" class="data-point"/>
  
    <circle cx="729.6969696969697" cy="67.00136471889465" r="4" fill="#3b82f6" stroke="#0d1117" stroke-width="2" class="data-point"/>
  
    <circle cx="732.7272727272727" cy="65.95019668007598" r="4" fill="#3b82f6" stroke="#0d1117" stroke-width="2" class="data-point"/>
  
    <circle cx="735.7575757575758" cy="64.72743530964846" r="4" fill="#3b82f6" stroke="#0d1117" stroke-width="2" class="data-point"/>
  
    <circle cx="738.7878787878788" cy="63.466542087752316" r="4" fill="#3b82f6" stroke="#0d1117" stroke-width="2" class="data-point"/>
  
    <circle cx="741.8181818181818" cy="62.03024234910043" r="4" fill="#3b82f6" stroke="#0d1117" stroke-width="2" class="data-point"/>
  
    <circle cx="744.8484848484849" cy="60.64605614078903" r="4" fill="#3b82f6" stroke="#0d1117" stroke-width="2" class="data-point"/>
  
    <circle cx="747.8787878787879" cy="59.40677096805848" r="4" fill="#3b82f6" stroke="#0d1117" stroke-width="2" class="data-point"/>
  
    <circle cx="750.9090909090909" cy="58.318742139486744" r="4" fill="#3b82f6" stroke="#0d1117" stroke-width="2" class="data-point"/>
  
    <circle cx="753.9393939393939" cy="57.19639464459334" r="4" fill="#3b82f6" stroke="#0d1117" stroke-width="2" class="data-point"/>
  
    <circle cx="756.969696969697" cy="56.177003148665165" r="4" fill="#3b82f6" stroke="#0d1117" stroke-width="2" class="data-point"/>
  
    <circle cx="760" cy="55" r="4" fill="#3b82f6" stroke="#0d1117" stroke-width="2" class="data-point"/>
  

  <!-- Axis lines -->
  <line x1="60" y1="55" x2="60" y2="340"
        stroke="#30363d" stroke-width="2"/>
  <line x1="60" y1="340" x2="760" y2="340"
        stroke="#30363d" stroke-width="2"/>
</svg>