<?xml version="1.0" encoding="UTF-8"?>
<svg width="800" height="400" xmlns="http://www.w3.org/2000/svg">
  <defs>
    <!-- Gradient for area fill -->
    <linearGradient id="areaGradient" x1="0%" y1="0%" x2="0%" y2="100%">
      <stop offset="0%" style="stop-color:#3b82f6;stop-opacity:0.3" />
      <stop offset="100%" style="stop-color:#3b82f6;stop-opacity:0.05" />
    </linearGradient>

    <!-- Glow filter for line -->
    <filter id="glow">
      <feGaussianBlur stdDeviation="2" result="coloredBlur"/>
      <feMerge>
        <feMergeNode in="coloredBlur"/>
        <feMergeNode in="SourceGraphic"/>
      </feMerge>
    </filter>

    <!-- Animation -->
    <style>
      @keyframes draw {
        from { stroke-dashoffset: 2000; }
        to { stroke-dashoffset: 0; }
      }
      @keyframes fadeIn {
        from { opacity: 0; }
        to { opacity: 1; }
      }
      .line-path {
        stroke-dasharray: 2000;
        stroke-dashoffset: 2000;
        animation: draw 1.5s ease-out forwards;
      }
      .area-path {
        opacity: 0;
        animation: fadeIn 1s ease-out 0.5s forwards;
      }
      .data-point {
        opacity: 0;
        animation: fadeIn 0.5s ease-out 1s forwards;
      }
    </style>
  </defs>

  <!-- Background -->
  <rect width="800" height="400" fill="#0d1117" rx="8"/>

  <!-- Title -->
  <text x="400" y="25" text-anchor="middle" fill="#c9d1d9" font-family="system-ui, -apple-system, sans-serif" font-size="16" font-weight="600">
    zxcloli666/SoundCloud-Desktop Downloads
  </text>

  <!-- Stats -->
  <text x="780" y="25" text-anchor="end" fill="#58a6ff" font-family="system-ui, -apple-system, sans-serif" font-size="14" font-weight="600">
    105.4K total
  </text>
  <text x="780" y="42" text-anchor="end" fill="#3fb950" font-family="system-ui, -apple-system, sans-serif" font-size="12">
    +884 (+0.8%)
  </text>

  <!-- Grid lines -->
  <g opacity="0.1">
    
      <line x1="60" y1="340" x2="760" y2="340"
            stroke="#c9d1d9" stroke-width="1"/>
    
      <line x1="60" y1="268.75" x2="760" y2="268.75"
            stroke="#c9d1d9" stroke-width="1"/>
    
      <line x1="60" y1="197.5" x2="760" y2="197.5"
            stroke="#c9d1d9" stroke-width="1"/>
    
      <line x1="60" y1="126.25" x2="760" y2="126.25"
            stroke="#c9d1d9" stroke-width="1"/>
    
      <line x1="60" y1="55" x2="760" y2="55"
            stroke="#c9d1d9" stroke-width="1"/>
    
  </g>

  <!-- Y-axis labels -->
  
    <text x="50" y="344" text-anchor="end"
          fill="#8b949e" font-family="system-ui, -apple-system, sans-serif" font-size="11">
      60.2K
    </text>
  
    <text x="50" y="272.75" text-anchor="end"
          fill="#8b949e" font-family="system-ui, -apple-system, sans-serif" font-size="11">
      71.5K
    </text>
  
    <text x="50" y="201.5" text-anchor="end"
          fill="#8b949e" font-family="system-ui, -apple-system, sans-serif" font-size="11">
      82.8K
    </text>
  
    <text x="50" y="130.25" text-anchor="end"
          fill="#8b949e" font-family="system-ui, -apple-system, sans-serif" font-size="11">
      94.1K
    </text>
  
    <text x="50" y="59" text-anchor="end"
          fill="#8b949e" font-family="system-ui, -apple-system, sans-serif" font-size="11">
      105.4K
    </text>
  

  <!-- X-axis labels -->
  
    <text x="60" y="360" text-anchor="middle"
          fill="#8b949e" font-family="system-ui, -apple-system, sans-serif" font-size="11">
      Nov 25
    </text>
  
    <text x="145.04672897196264" y="360" text-anchor="middle"
          fill="#8b949e" font-family="system-ui, -apple-system, sans-serif" font-size="11">
      Dec 8
    </text>
  
    <text x="230.09345794392524" y="360" text-anchor="middle"
          fill="#8b949e" font-family="system-ui, -apple-system, sans-serif" font-size="11">
      Dec 21
    </text>
  
    <text x="315.14018691588785" y="360" text-anchor="middle"
          fill="#8b949e" font-family="system-ui, -apple-system, sans-serif" font-size="11">
      Jan 3
    </text>
  
    <text x="400.1869158878505" y="360" text-anchor="middle"
          fill="#8b949e" font-family="system-ui, -apple-system, sans-serif" font-size="11">
      Jan 16
    </text>
  
    <text x="485.23364485981307" y="360" text-anchor="middle"
          fill="#8b949e" font-family="system-ui, -apple-system, sans-serif" font-size="11">
      Jan 29
    </text>
  
    <text x="570.2803738317757" y="360" text-anchor="middle"
          fill="#8b949e" font-family="system-ui, -apple-system, sans-serif" font-size="11">
      Feb 11
    </text>
  
    <text x="655.3271028037383" y="360" text-anchor="middle"
          fill="#8b949e" font-family="system-ui, -apple-system, sans-serif" font-size="11">
      Feb 24
    </text>
  
    <text x="740.373831775701" y="360" text-anchor="middle"
          fill="#8b949e" font-family="system-ui, -apple-system, sans-serif" font-size="11">
      Mar 9
    </text>
  
    <text x="760" y="360" text-anchor="middle"
          fill="#8b949e" font-family="system-ui, -apple-system, sans-serif" font-size="11">
      Mar 12
    </text>
  

  <!-- Area under line -->
  <path d="M 60 340
    L 60.00 340.00 L 66.54 339.07 L 73.08 337.50 L 79.63 336.03 L 86.17 333.13 L 92.71 330.13 L 99.25 327.76 L 105.79 325.56 L 112.34 323.59 L 118.88 321.29 L 125.42 318.73 L 131.96 315.98 L 138.50 313.48 L 145.05 310.83 L 151.59 308.89 L 158.13 306.89 L 164.67 304.16 L 171.21 302.34 L 177.76 299.82 L 184.30 296.91 L 190.84 294.71 L 197.38 292.91 L 203.93 291.74 L 210.47 290.77 L 217.01 288.97 L 223.55 287.69 L 230.09 284.89 L 236.64 283.78 L 243.18 282.36 L 249.72 280.52 L 256.26 279.26 L 262.80 277.98 L 269.35 276.63 L 275.89 275.70 L 282.43 274.89 L 288.97 273.66 L 295.51 272.17 L 302.06 270.80 L 308.60 269.06 L 315.14 267.16 L 321.68 265.42 L 328.22 263.32 L 334.77 261.26 L 341.31 259.19 L 347.85 256.94 L 354.39 254.78 L 360.93 252.32 L 367.48 250.12 L 374.02 248.26 L 380.56 246.77 L 387.10 244.69 L 393.64 242.31 L 400.19 240.13 L 406.73 237.59 L 413.27 234.46 L 419.81 232.13 L 426.36 230.19 L 432.90 228.35 L 439.44 226.14 L 445.98 223.56 L 452.52 220.72 L 459.07 217.72 L 465.61 214.85 L 472.15 212.32 L 478.69 209.81 L 485.23 207.59 L 491.78 205.34 L 498.32 202.82 L 504.86 199.68 L 511.40 197.34 L 517.94 195.24 L 524.49 192.92 L 531.03 190.75 L 537.57 188.36 L 544.11 185.88 L 550.65 183.28 L 557.20 181.01 L 563.74 179.06 L 570.28 176.92 L 576.82 174.61 L 583.36 172.46 L 589.91 169.67 L 596.45 167.27 L 602.99 164.95 L 609.53 163.03 L 616.07 161.16 L 622.62 159.29 L 629.16 157.05 L 635.70 154.75 L 642.24 151.96 L 648.79 149.70 L 655.33 147.85 L 661.87 145.95 L 668.41 144.13 L 674.95 141.89 L 681.50 139.59 L 688.04 134.50 L 694.58 124.37 L 701.12 112.31 L 707.66 101.32 L 714.21 95.75 L 720.75 87.35 L 727.29 81.77 L 733.83 76.88 L 740.37 72.09 L 746.92 67.58 L 753.46 60.57 L 760.00 55.00
    L 760 340
    Z" fill="url(#areaGradient)" class="area-path"/>

  <!-- Main line with glow -->
  <path d="M 60.00 340.00 L 66.54 339.07 L 73.08 337.50 L 79.63 336.03 L 86.17 333.13 L 92.71 330.13 L 99.25 327.76 L 105.79 325.56 L 112.34 323.59 L 118.88 321.29 L 125.42 318.73 L 131.96 315.98 L 138.50 313.48 L 145.05 310.83 L 151.59 308.89 L 158.13 306.89 L 164.67 304.16 L 171.21 302.34 L 177.76 299.82 L 184.30 296.91 L 190.84 294.71 L 197.38 292.91 L 203.93 291.74 L 210.47 290.77 L 217.01 288.97 L 223.55 287.69 L 230.09 284.89 L 236.64 283.78 L 243.18 282.36 L 249.72 280.52 L 256.26 279.26 L 262.80 277.98 L 269.35 276.63 L 275.89 275.70 L 282.43 274.89 L 288.97 273.66 L 295.51 272.17 L 302.06 270.80 L 308.60 269.06 L 315.14 267.16 L 321.68 265.42 L 328.22 263.32 L 334.77 261.26 L 341.31 259.19 L 347.85 256.94 L 354.39 254.78 L 360.93 252.32 L 367.48 250.12 L 374.02 248.26 L 380.56 246.77 L 387.10 244.69 L 393.64 242.31 L 400.19 240.13 L 406.73 237.59 L 413.27 234.46 L 419.81 232.13 L 426.36 230.19 L 432.90 228.35 L 439.44 226.14 L 445.98 223.56 L 452.52 220.72 L 459.07 217.72 L 465.61 214.85 L 472.15 212.32 L 478.69 209.81 L 485.23 207.59 L 491.78 205.34 L 498.32 202.82 L 504.86 199.68 L 511.40 197.34 L 517.94 195.24 L 524.49 192.92 L 531.03 190.75 L 537.57 188.36 L 544.11 185.88 L 550.65 183.28 L 557.20 181.01 L 563.74 179.06 L 570.28 176.92 L 576.82 174.61 L 583.36 172.46 L 589.91 169.67 L 596.45 167.27 L 602.99 164.95 L 609.53 163.03 L 616.07 161.16 L 622.62 159.29 L 629.16 157.05 L 635.70 154.75 L 642.24 151.96 L 648.79 149.70 L 655.33 147.85 L 661.87 145.95 L 668.41 144.13 L 674.95 141.89 L 681.50 139.59 L 688.04 134.50 L 694.58 124.37 L 701.12 112.31 L 707.66 101.32 L 714.21 95.75 L 720.75 87.35 L 727.29 81.77 L 733.83 76.88 L 740.37 72.09 L 746.92 67.58 L 753.46 60.57 L 760.00 55.00" fill="none" stroke="#3b82f6" stroke-width="3"
        stroke-linecap="round" stroke-linejoin="round" filter="url(#glow)" class="line-path"/>

  <!-- Data points -->
  
    <circle cx="60" cy="340" r="4" fill="#3b82f6" stroke="#0d1117" stroke-width="2" class="data-point"/>
  
    <circle cx="66.54205607476635" cy="339.0731604796248" r="4" fill="#3b82f6" stroke="#0d1117" stroke-width="2" class="data-point"/>
  
    <circle cx="73.08411214953271" cy="337.49690279191185" r="4" fill="#3b82f6" stroke="#0d1117" stroke-width="2" class="data-point"/>
  
    <circle cx="79.62616822429906" cy="336.0341356577143" r="4" fill="#3b82f6" stroke="#0d1117" stroke-width="2" class="data-point"/>
  
    <circle cx="86.16822429906541" cy="333.1275164815716" r="4" fill="#3b82f6" stroke="#0d1117" stroke-width="2" class="data-point"/>
  
    <circle cx="92.71028037383178" cy="330.12632184416617" r="4" fill="#3b82f6" stroke="#0d1117" stroke-width="2" class="data-point"/>
  
    <circle cx="99.25233644859813" cy="327.7619353125968" r="4" fill="#3b82f6" stroke="#0d1117" stroke-width="2" class="data-point"/>
  
    <circle cx="105.79439252336448" cy="325.55517454979866" r="4" fill="#3b82f6" stroke="#0d1117" stroke-width="2" class="data-point"/>
  
    <circle cx="112.33644859813083" cy="323.5943099862838" r="4" fill="#3b82f6" stroke="#0d1117" stroke-width="2" class="data-point"/>
  
    <circle cx="118.8785046728972" cy="321.2929737622229" r="4" fill="#3b82f6" stroke="#0d1117" stroke-width="2" class="data-point"/>
  
    <circle cx="125.42056074766354" cy="318.7268262466263" r="4" fill="#3b82f6" stroke="#0d1117" stroke-width="2" class="data-point"/>
  
    <circle cx="131.9626168224299" cy="315.9778328392549" r="4" fill="#3b82f6" stroke="#0d1117" stroke-width="2" class="data-point"/>
  
    <circle cx="138.50467289719626" cy="313.48104066191763" r="4" fill="#3b82f6" stroke="#0d1117" stroke-width="2" class="data-point"/>
  
    <circle cx="145.04672897196264" cy="310.82662271580904" r="4" fill="#3b82f6" stroke="#0d1117" stroke-width="2" class="data-point"/>
  
    <circle cx="151.58878504672896" cy="308.8909782752976" r="4" fill="#3b82f6" stroke="#0d1117" stroke-width="2" class="data-point"/>
  
    <circle cx="158.13084112149534" cy="306.8859784965267" r="4" fill="#3b82f6" stroke="#0d1117" stroke-width="2" class="data-point"/>
  
    <circle cx="164.67289719626166" cy="304.16220521215877" r="4" fill="#3b82f6" stroke="#0d1117" stroke-width="2" class="data-point"/>
  
    <circle cx="171.21495327102804" cy="302.3400513251626" r="4" fill="#3b82f6" stroke="#0d1117" stroke-width="2" class="data-point"/>
  
    <circle cx="177.7570093457944" cy="299.8180390248219" r="4" fill="#3b82f6" stroke="#0d1117" stroke-width="2" class="data-point"/>
  
    <circle cx="184.29906542056074" cy="296.9051148179284" r="4" fill="#3b82f6" stroke="#0d1117" stroke-width="2" class="data-point"/>
  
    <circle cx="190.8411214953271" cy="294.710964116632" r="4" fill="#3b82f6" stroke="#0d1117" stroke-width="2" class="data-point"/>
  
    <circle cx="197.38317757009347" cy="292.9077253218884" r="4" fill="#3b82f6" stroke="#0d1117" stroke-width="2" class="data-point"/>
  
    <circle cx="203.92523364485982" cy="291.74129463298084" r="4" fill="#3b82f6" stroke="#0d1117" stroke-width="2" class="data-point"/>
  
    <circle cx="210.46728971962617" cy="290.7703198973497" r="4" fill="#3b82f6" stroke="#0d1117" stroke-width="2" class="data-point"/>
  
    <circle cx="217.00934579439252" cy="288.97338613335694" r="4" fill="#3b82f6" stroke="#0d1117" stroke-width="2" class="data-point"/>
  
    <circle cx="223.55140186915887" cy="287.693464890934" r="4" fill="#3b82f6" stroke="#0d1117" stroke-width="2" class="data-point"/>
  
    <circle cx="230.09345794392524" cy="284.887726206805" r="4" fill="#3b82f6" stroke="#0d1117" stroke-width="2" class="data-point"/>
  
    <circle cx="236.63551401869157" cy="283.784345825406" r="4" fill="#3b82f6" stroke="#0d1117" stroke-width="2" class="data-point"/>
  
    <circle cx="243.17757009345792" cy="282.3594088757135" r="4" fill="#3b82f6" stroke="#0d1117" stroke-width="2" class="data-point"/>
  
    <circle cx="249.7196261682243" cy="280.51833989646474" r="4" fill="#3b82f6" stroke="#0d1117" stroke-width="2" class="data-point"/>
  
    <circle cx="256.2616822429907" cy="279.2573337462944" r="4" fill="#3b82f6" stroke="#0d1117" stroke-width="2" class="data-point"/>
  
    <circle cx="262.803738317757" cy="277.9774125038715" r="4" fill="#3b82f6" stroke="#0d1117" stroke-width="2" class="data-point"/>
  
    <circle cx="269.3457943925233" cy="276.6344409539401" r="4" fill="#3b82f6" stroke="#0d1117" stroke-width="2" class="data-point"/>
  
    <circle cx="275.8878504672897" cy="275.701296402814" r="4" fill="#3b82f6" stroke="#0d1117" stroke-width="2" class="data-point"/>
  
    <circle cx="282.4299065420561" cy="274.894252466705" r="4" fill="#3b82f6" stroke="#0d1117" stroke-width="2" class="data-point"/>
  
    <circle cx="288.97196261682245" cy="273.66477147028894" r="4" fill="#3b82f6" stroke="#0d1117" stroke-width="2" class="data-point"/>
  
    <circle cx="295.5140186915888" cy="272.1704791823371" r="4" fill="#3b82f6" stroke="#0d1117" stroke-width="2" class="data-point"/>
  
    <circle cx="302.0560747663551" cy="270.79598247865135" r="4" fill="#3b82f6" stroke="#0d1117" stroke-width="2" class="data-point"/>
  
    <circle cx="308.5981308411215" cy="269.0557939914163" r="4" fill="#3b82f6" stroke="#0d1117" stroke-width="2" class="data-point"/>
  
    <circle cx="315.14018691588785" cy="267.1579797354099" r="4" fill="#3b82f6" stroke="#0d1117" stroke-width="2" class="data-point"/>
  
    <circle cx="321.6822429906542" cy="265.41779124817486" r="4" fill="#3b82f6" stroke="#0d1117" stroke-width="2" class="data-point"/>
  
    <circle cx="328.22429906542055" cy="263.31821600814123" r="4" fill="#3b82f6" stroke="#0d1117" stroke-width="2" class="data-point"/>
  
    <circle cx="334.76635514018693" cy="261.25647095261274" r="4" fill="#3b82f6" stroke="#0d1117" stroke-width="2" class="data-point"/>
  
    <circle cx="341.30841121495325" cy="259.1947258970842" r="4" fill="#3b82f6" stroke="#0d1117" stroke-width="2" class="data-point"/>
  
    <circle cx="347.85046728971963" cy="256.9375248882793" r="4" fill="#3b82f6" stroke="#0d1117" stroke-width="2" class="data-point"/>
  
    <circle cx="354.39252336448595" cy="254.781204371488" r="4" fill="#3b82f6" stroke="#0d1117" stroke-width="2" class="data-point"/>
  
    <circle cx="360.93457943925233" cy="252.31593734790496" r="4" fill="#3b82f6" stroke="#0d1117" stroke-width="2" class="data-point"/>
  
    <circle cx="367.4766355140187" cy="250.1154816158577" r="4" fill="#3b82f6" stroke="#0d1117" stroke-width="2" class="data-point"/>
  
    <circle cx="374.01869158878503" cy="248.25549754435644" r="4" fill="#3b82f6" stroke="#0d1117" stroke-width="2" class="data-point"/>
  
    <circle cx="380.5607476635514" cy="246.76751028715546" r="4" fill="#3b82f6" stroke="#0d1117" stroke-width="2" class="data-point"/>
  
    <circle cx="387.10280373831773" cy="244.68685013937437" r="4" fill="#3b82f6" stroke="#0d1117" stroke-width="2" class="data-point"/>
  
    <circle cx="393.6448598130841" cy="242.30985354630326" r="4" fill="#3b82f6" stroke="#0d1117" stroke-width="2" class="data-point"/>
  
    <circle cx="400.1869158878505" cy="240.1346179372594" r="4" fill="#3b82f6" stroke="#0d1117" stroke-width="2" class="data-point"/>
  
    <circle cx="406.7289719626168" cy="237.59369054466617" r="4" fill="#3b82f6" stroke="#0d1117" stroke-width="2" class="data-point"/>
  
    <circle cx="413.27102803738313" cy="234.46009026149284" r="4" fill="#3b82f6" stroke="#0d1117" stroke-width="2" class="data-point"/>
  
    <circle cx="419.8130841121495" cy="232.12722888367773" r="4" fill="#3b82f6" stroke="#0d1117" stroke-width="2" class="data-point"/>
  
    <circle cx="426.35514018691583" cy="230.19158444316622" r="4" fill="#3b82f6" stroke="#0d1117" stroke-width="2" class="data-point"/>
  
    <circle cx="432.8971962616822" cy="228.35051546391753" r="4" fill="#3b82f6" stroke="#0d1117" stroke-width="2" class="data-point"/>
  
    <circle cx="439.4392523364486" cy="226.13744967036857" r="4" fill="#3b82f6" stroke="#0d1117" stroke-width="2" class="data-point"/>
  
    <circle cx="445.9813084112149" cy="223.56499712402106" r="4" fill="#3b82f6" stroke="#0d1117" stroke-width="2" class="data-point"/>
  
    <circle cx="452.5233644859813" cy="220.71512322463607" r="4" fill="#3b82f6" stroke="#0d1117" stroke-width="2" class="data-point"/>
  
    <circle cx="459.0654205607476" cy="217.7202336179815" r="4" fill="#3b82f6" stroke="#0d1117" stroke-width="2" class="data-point"/>
  
    <circle cx="465.607476635514" cy="214.8451395955931" r="4" fill="#3b82f6" stroke="#0d1117" stroke-width="2" class="data-point"/>
  
    <circle cx="472.14953271028037" cy="212.31682226450158" r="4" fill="#3b82f6" stroke="#0d1117" stroke-width="2" class="data-point"/>
  
    <circle cx="478.6915887850467" cy="209.8074200256626" r="4" fill="#3b82f6" stroke="#0d1117" stroke-width="2" class="data-point"/>
  
    <circle cx="485.23364485981307" cy="207.59435423211363" r="4" fill="#3b82f6" stroke="#0d1117" stroke-width="2" class="data-point"/>
  
    <circle cx="491.7757009345794" cy="205.3371532233087" r="4" fill="#3b82f6" stroke="#0d1117" stroke-width="2" class="data-point"/>
  
    <circle cx="498.31775700934577" cy="202.815140922968" r="4" fill="#3b82f6" stroke="#0d1117" stroke-width="2" class="data-point"/>
  
    <circle cx="504.85981308411215" cy="199.67523560904385" r="4" fill="#3b82f6" stroke="#0d1117" stroke-width="2" class="data-point"/>
  
    <circle cx="511.40186915887847" cy="197.33606920047785" r="4" fill="#3b82f6" stroke="#0d1117" stroke-width="2" class="data-point"/>
  
    <circle cx="517.9439252336449" cy="195.2427989911951" r="4" fill="#3b82f6" stroke="#0d1117" stroke-width="2" class="data-point"/>
  
    <circle cx="524.4859813084112" cy="192.9162426441308" r="4" fill="#3b82f6" stroke="#0d1117" stroke-width="2" class="data-point"/>
  
    <circle cx="531.0280373831775" cy="190.74731206583778" r="4" fill="#3b82f6" stroke="#0d1117" stroke-width="2" class="data-point"/>
  
    <circle cx="537.5700934579439" cy="188.36401044201585" r="4" fill="#3b82f6" stroke="#0d1117" stroke-width="2" class="data-point"/>
  
    <circle cx="544.1121495327102" cy="185.87982832618025" r="4" fill="#3b82f6" stroke="#0d1117" stroke-width="2" class="data-point"/>
  
    <circle cx="550.6542056074766" cy="183.28215565682936" r="4" fill="#3b82f6" stroke="#0d1117" stroke-width="2" class="data-point"/>
  
    <circle cx="557.196261682243" cy="181.00603955577188" r="4" fill="#3b82f6" stroke="#0d1117" stroke-width="2" class="data-point"/>
  
    <circle cx="563.7383177570093" cy="179.0577850537587" r="4" fill="#3b82f6" stroke="#0d1117" stroke-width="2" class="data-point"/>
  
    <circle cx="570.2803738317757" cy="176.92037962921995" r="4" fill="#3b82f6" stroke="#0d1117" stroke-width="2" class="data-point"/>
  
    <circle cx="576.8224299065421" cy="174.60643334365736" r="4" fill="#3b82f6" stroke="#0d1117" stroke-width="2" class="data-point"/>
  
    <circle cx="583.3644859813083" cy="172.46272288836778" r="4" fill="#3b82f6" stroke="#0d1117" stroke-width="2" class="data-point"/>
  
    <circle cx="589.9065420560747" cy="169.66959426574047" r="4" fill="#3b82f6" stroke="#0d1117" stroke-width="2" class="data-point"/>
  
    <circle cx="596.4485981308411" cy="167.26737754966595" r="4" fill="#3b82f6" stroke="#0d1117" stroke-width="2" class="data-point"/>
  
    <circle cx="602.9906542056075" cy="164.95343126410336" r="4" fill="#3b82f6" stroke="#0d1117" stroke-width="2" class="data-point"/>
  
    <circle cx="609.5327102803739" cy="163.03039688509358" r="4" fill="#3b82f6" stroke="#0d1117" stroke-width="2" class="data-point"/>
  
    <circle cx="616.0747663551401" cy="161.16410778284148" r="4" fill="#3b82f6" stroke="#0d1117" stroke-width="2" class="data-point"/>
  
    <circle cx="622.6168224299065" cy="159.29151364983852" r="4" fill="#3b82f6" stroke="#0d1117" stroke-width="2" class="data-point"/>
  
    <circle cx="629.1588785046729" cy="157.05322773328612" r="4" fill="#3b82f6" stroke="#0d1117" stroke-width="2" class="data-point"/>
  
    <circle cx="635.7009345794393" cy="154.75189150922523" r="4" fill="#3b82f6" stroke="#0d1117" stroke-width="2" class="data-point"/>
  
    <circle cx="642.2429906542056" cy="151.95876288659795" r="4" fill="#3b82f6" stroke="#0d1117" stroke-width="2" class="data-point"/>
  
    <circle cx="648.7850467289719" cy="149.69525684704215" r="4" fill="#3b82f6" stroke="#0d1117" stroke-width="2" class="data-point"/>
  
    <circle cx="655.3271028037383" cy="147.8478828370426" r="4" fill="#3b82f6" stroke="#0d1117" stroke-width="2" class="data-point"/>
  
    <circle cx="661.8691588785047" cy="145.95006858103622" r="4" fill="#3b82f6" stroke="#0d1117" stroke-width="2" class="data-point"/>
  
    <circle cx="668.411214953271" cy="144.13421972479094" r="4" fill="#3b82f6" stroke="#0d1117" stroke-width="2" class="data-point"/>
  
    <circle cx="674.9532710280374" cy="141.88962877748773" r="4" fill="#3b82f6" stroke="#0d1117" stroke-width="2" class="data-point"/>
  
    <circle cx="681.4953271028037" cy="139.58829255342684" r="4" fill="#3b82f6" stroke="#0d1117" stroke-width="2" class="data-point"/>
  
    <circle cx="688.0373831775701" cy="134.5001327374895" r="4" fill="#3b82f6" stroke="#0d1117" stroke-width="2" class="data-point"/>
  
    <circle cx="694.5794392523364" cy="124.3742533516216" r="4" fill="#3b82f6" stroke="#0d1117" stroke-width="2" class="data-point"/>
  
    <circle cx="701.1214953271028" cy="112.31272952524225" r="4" fill="#3b82f6" stroke="#0d1117" stroke-width="2" class="data-point"/>
  
    <circle cx="707.6635514018692" cy="101.32306092650768" r="4" fill="#3b82f6" stroke="#0d1117" stroke-width="2" class="data-point"/>
  
    <circle cx="714.2056074766355" cy="95.74941374275474" r="4" fill="#3b82f6" stroke="#0d1117" stroke-width="2" class="data-point"/>
  
    <circle cx="720.7476635514018" cy="87.35111278262022" r="4" fill="#3b82f6" stroke="#0d1117" stroke-width="2" class="data-point"/>
  
    <circle cx="727.2897196261682" cy="81.77116056811644" r="4" fill="#3b82f6" stroke="#0d1117" stroke-width="2" class="data-point"/>
  
    <circle cx="733.8317757009346" cy="76.8784567054555" r="4" fill="#3b82f6" stroke="#0d1117" stroke-width="2" class="data-point"/>
  
    <circle cx="740.373831775701" cy="72.09293836555906" r="4" fill="#3b82f6" stroke="#0d1117" stroke-width="2" class="data-point"/>
  
    <circle cx="746.9158878504672" cy="67.58484137870005" r="4" fill="#3b82f6" stroke="#0d1117" stroke-width="2" class="data-point"/>
  
    <circle cx="753.4579439252336" cy="60.57364718375294" r="4" fill="#3b82f6" stroke="#0d1117" stroke-width="2" class="data-point"/>
  
    <circle cx="760" cy="55" r="4" fill="#3b82f6" stroke="#0d1117" stroke-width="2" class="data-point"/>
  

  <!-- Axis lines -->
  <line x1="60" y1="55" x2="60" y2="340"
        stroke="#30363d" stroke-width="2"/>
  <line x1="60" y1="340" x2="760" y2="340"
        stroke="#30363d" stroke-width="2"/>
</svg>