<?xml version="1.0" encoding="UTF-8"?>
<svg width="800" height="400" xmlns="http://www.w3.org/2000/svg">
  <defs>
    <!-- Gradient for area fill -->
    <linearGradient id="areaGradient" x1="0%" y1="0%" x2="0%" y2="100%">
      <stop offset="0%" style="stop-color:#3b82f6;stop-opacity:0.3" />
      <stop offset="100%" style="stop-color:#3b82f6;stop-opacity:0.05" />
    </linearGradient>

    <!-- Glow filter for line -->
    <filter id="glow">
      <feGaussianBlur stdDeviation="2" result="coloredBlur"/>
      <feMerge>
        <feMergeNode in="coloredBlur"/>
        <feMergeNode in="SourceGraphic"/>
      </feMerge>
    </filter>

    <!-- Animation -->
    <style>
      @keyframes draw {
        from { stroke-dashoffset: 2000; }
        to { stroke-dashoffset: 0; }
      }
      @keyframes fadeIn {
        from { opacity: 0; }
        to { opacity: 1; }
      }
      .line-path {
        stroke-dasharray: 2000;
        stroke-dashoffset: 2000;
        animation: draw 1.5s ease-out forwards;
      }
      .area-path {
        opacity: 0;
        animation: fadeIn 1s ease-out 0.5s forwards;
      }
      .data-point {
        opacity: 0;
        animation: fadeIn 0.5s ease-out 1s forwards;
      }
    </style>
  </defs>

  <!-- Background -->
  <rect width="800" height="400" fill="#0d1117" rx="8"/>

  <!-- Title -->
  <text x="400" y="25" text-anchor="middle" fill="#c9d1d9" font-family="system-ui, -apple-system, sans-serif" font-size="16" font-weight="600">
    zxcloli666/SoundCloud-Desktop Downloads
  </text>

  <!-- Stats -->
  <text x="780" y="25" text-anchor="end" fill="#58a6ff" font-family="system-ui, -apple-system, sans-serif" font-size="14" font-weight="600">
    110.8K total
  </text>
  <text x="780" y="42" text-anchor="end" fill="#3fb950" font-family="system-ui, -apple-system, sans-serif" font-size="12">
    +2.3K (+2.1%)
  </text>

  <!-- Grid lines -->
  <g opacity="0.1">
    
      <line x1="60" y1="340" x2="760" y2="340"
            stroke="#c9d1d9" stroke-width="1"/>
    
      <line x1="60" y1="268.75" x2="760" y2="268.75"
            stroke="#c9d1d9" stroke-width="1"/>
    
      <line x1="60" y1="197.5" x2="760" y2="197.5"
            stroke="#c9d1d9" stroke-width="1"/>
    
      <line x1="60" y1="126.25" x2="760" y2="126.25"
            stroke="#c9d1d9" stroke-width="1"/>
    
      <line x1="60" y1="55" x2="760" y2="55"
            stroke="#c9d1d9" stroke-width="1"/>
    
  </g>

  <!-- Y-axis labels -->
  
    <text x="50" y="344" text-anchor="end"
          fill="#8b949e" font-family="system-ui, -apple-system, sans-serif" font-size="11">
      60.2K
    </text>
  
    <text x="50" y="272.75" text-anchor="end"
          fill="#8b949e" font-family="system-ui, -apple-system, sans-serif" font-size="11">
      72.8K
    </text>
  
    <text x="50" y="201.5" text-anchor="end"
          fill="#8b949e" font-family="system-ui, -apple-system, sans-serif" font-size="11">
      85.5K
    </text>
  
    <text x="50" y="130.25" text-anchor="end"
          fill="#8b949e" font-family="system-ui, -apple-system, sans-serif" font-size="11">
      98.2K
    </text>
  
    <text x="50" y="59" text-anchor="end"
          fill="#8b949e" font-family="system-ui, -apple-system, sans-serif" font-size="11">
      110.8K
    </text>
  

  <!-- X-axis labels -->
  
    <text x="60" y="360" text-anchor="middle"
          fill="#8b949e" font-family="system-ui, -apple-system, sans-serif" font-size="11">
      Nov 25
    </text>
  
    <text x="146.0655737704918" y="360" text-anchor="middle"
          fill="#8b949e" font-family="system-ui, -apple-system, sans-serif" font-size="11">
      Dec 10
    </text>
  
    <text x="232.1311475409836" y="360" text-anchor="middle"
          fill="#8b949e" font-family="system-ui, -apple-system, sans-serif" font-size="11">
      Dec 25
    </text>
  
    <text x="318.1967213114754" y="360" text-anchor="middle"
          fill="#8b949e" font-family="system-ui, -apple-system, sans-serif" font-size="11">
      Jan 9
    </text>
  
    <text x="404.2622950819672" y="360" text-anchor="middle"
          fill="#8b949e" font-family="system-ui, -apple-system, sans-serif" font-size="11">
      Jan 24
    </text>
  
    <text x="490.327868852459" y="360" text-anchor="middle"
          fill="#8b949e" font-family="system-ui, -apple-system, sans-serif" font-size="11">
      Feb 8
    </text>
  
    <text x="576.3934426229508" y="360" text-anchor="middle"
          fill="#8b949e" font-family="system-ui, -apple-system, sans-serif" font-size="11">
      Feb 23
    </text>
  
    <text x="662.4590163934425" y="360" text-anchor="middle"
          fill="#8b949e" font-family="system-ui, -apple-system, sans-serif" font-size="11">
      Mar 10
    </text>
  
    <text x="748.5245901639344" y="360" text-anchor="middle"
          fill="#8b949e" font-family="system-ui, -apple-system, sans-serif" font-size="11">
      Mar 25
    </text>
  
    <text x="760" y="360" text-anchor="middle"
          fill="#8b949e" font-family="system-ui, -apple-system, sans-serif" font-size="11">
      Mar 27
    </text>
  

  <!-- Area under line -->
  <path d="M 60 340
    L 60.00 340.00 L 65.74 339.17 L 71.48 337.77 L 77.21 336.46 L 82.95 333.87 L 88.69 331.20 L 94.43 329.09 L 100.16 327.12 L 105.90 325.37 L 111.64 323.32 L 117.38 321.03 L 123.11 318.58 L 128.85 316.36 L 134.59 313.99 L 140.33 312.26 L 146.07 310.48 L 151.80 308.05 L 157.54 306.42 L 163.28 304.17 L 169.02 301.58 L 174.75 299.62 L 180.49 298.01 L 186.23 296.97 L 191.97 296.11 L 197.70 294.50 L 203.44 293.36 L 209.18 290.86 L 214.92 289.88 L 220.66 288.61 L 226.39 286.97 L 232.13 285.84 L 237.87 284.70 L 243.61 283.50 L 249.34 282.67 L 255.08 281.95 L 260.82 280.85 L 266.56 279.52 L 272.30 278.30 L 278.03 276.75 L 283.77 275.05 L 289.51 273.50 L 295.25 271.63 L 300.98 269.79 L 306.72 267.95 L 312.46 265.94 L 318.20 264.02 L 323.93 261.82 L 329.67 259.86 L 335.41 258.20 L 341.15 256.87 L 346.89 255.02 L 352.62 252.90 L 358.36 250.96 L 364.10 248.69 L 369.84 245.90 L 375.57 243.82 L 381.31 242.09 L 387.05 240.45 L 392.79 238.48 L 398.52 236.19 L 404.26 233.64 L 410.00 230.97 L 415.74 228.41 L 421.48 226.16 L 427.21 223.92 L 432.95 221.95 L 438.69 219.93 L 444.43 217.68 L 450.16 214.88 L 455.90 212.80 L 461.64 210.93 L 467.38 208.86 L 473.11 206.92 L 478.85 204.80 L 484.59 202.58 L 490.33 200.27 L 496.07 198.24 L 501.80 196.50 L 507.54 194.60 L 513.28 192.53 L 519.02 190.62 L 524.75 188.13 L 530.49 185.99 L 536.23 183.93 L 541.97 182.21 L 547.70 180.55 L 553.44 178.88 L 559.18 176.88 L 564.92 174.83 L 570.66 172.34 L 576.39 170.32 L 582.13 168.68 L 587.87 166.98 L 593.61 165.36 L 599.34 163.36 L 605.08 161.31 L 610.82 156.77 L 616.56 147.75 L 622.30 136.99 L 628.03 127.19 L 633.77 122.22 L 639.51 114.74 L 645.25 109.76 L 650.98 105.40 L 656.72 101.13 L 662.46 97.11 L 668.20 90.86 L 673.93 85.89 L 679.67 79.54 L 685.41 78.24 L 691.15 78.07 L 696.89 77.85 L 702.62 77.67 L 708.36 77.42 L 714.10 77.21 L 719.84 77.13 L 725.57 76.82 L 731.31 76.52 L 737.05 76.32 L 742.79 76.25 L 748.52 75.92 L 754.26 67.77 L 760.00 55.00
    L 760 340
    Z" fill="url(#areaGradient)" class="area-path"/>

  <!-- Main line with glow -->
  <path d="M 60.00 340.00 L 65.74 339.17 L 71.48 337.77 L 77.21 336.46 L 82.95 333.87 L 88.69 331.20 L 94.43 329.09 L 100.16 327.12 L 105.90 325.37 L 111.64 323.32 L 117.38 321.03 L 123.11 318.58 L 128.85 316.36 L 134.59 313.99 L 140.33 312.26 L 146.07 310.48 L 151.80 308.05 L 157.54 306.42 L 163.28 304.17 L 169.02 301.58 L 174.75 299.62 L 180.49 298.01 L 186.23 296.97 L 191.97 296.11 L 197.70 294.50 L 203.44 293.36 L 209.18 290.86 L 214.92 289.88 L 220.66 288.61 L 226.39 286.97 L 232.13 285.84 L 237.87 284.70 L 243.61 283.50 L 249.34 282.67 L 255.08 281.95 L 260.82 280.85 L 266.56 279.52 L 272.30 278.30 L 278.03 276.75 L 283.77 275.05 L 289.51 273.50 L 295.25 271.63 L 300.98 269.79 L 306.72 267.95 L 312.46 265.94 L 318.20 264.02 L 323.93 261.82 L 329.67 259.86 L 335.41 258.20 L 341.15 256.87 L 346.89 255.02 L 352.62 252.90 L 358.36 250.96 L 364.10 248.69 L 369.84 245.90 L 375.57 243.82 L 381.31 242.09 L 387.05 240.45 L 392.79 238.48 L 398.52 236.19 L 404.26 233.64 L 410.00 230.97 L 415.74 228.41 L 421.48 226.16 L 427.21 223.92 L 432.95 221.95 L 438.69 219.93 L 444.43 217.68 L 450.16 214.88 L 455.90 212.80 L 461.64 210.93 L 467.38 208.86 L 473.11 206.92 L 478.85 204.80 L 484.59 202.58 L 490.33 200.27 L 496.07 198.24 L 501.80 196.50 L 507.54 194.60 L 513.28 192.53 L 519.02 190.62 L 524.75 188.13 L 530.49 185.99 L 536.23 183.93 L 541.97 182.21 L 547.70 180.55 L 553.44 178.88 L 559.18 176.88 L 564.92 174.83 L 570.66 172.34 L 576.39 170.32 L 582.13 168.68 L 587.87 166.98 L 593.61 165.36 L 599.34 163.36 L 605.08 161.31 L 610.82 156.77 L 616.56 147.75 L 622.30 136.99 L 628.03 127.19 L 633.77 122.22 L 639.51 114.74 L 645.25 109.76 L 650.98 105.40 L 656.72 101.13 L 662.46 97.11 L 668.20 90.86 L 673.93 85.89 L 679.67 79.54 L 685.41 78.24 L 691.15 78.07 L 696.89 77.85 L 702.62 77.67 L 708.36 77.42 L 714.10 77.21 L 719.84 77.13 L 725.57 76.82 L 731.31 76.52 L 737.05 76.32 L 742.79 76.25 L 748.52 75.92 L 754.26 67.77 L 760.00 55.00" fill="none" stroke="#3b82f6" stroke-width="3"
        stroke-linecap="round" stroke-linejoin="round" filter="url(#glow)" class="line-path"/>

  <!-- Data points -->
  
    <circle cx="60" cy="340" r="4" fill="#3b82f6" stroke="#0d1117" stroke-width="2" class="data-point"/>
  
    <circle cx="65.73770491803279" cy="339.1736197408131" r="4" fill="#3b82f6" stroke="#0d1117" stroke-width="2" class="data-point"/>
  
    <circle cx="71.47540983606558" cy="337.7682111367537" r="4" fill="#3b82f6" stroke="#0d1117" stroke-width="2" class="data-point"/>
  
    <circle cx="77.21311475409836" cy="336.4639919521865" r="4" fill="#3b82f6" stroke="#0d1117" stroke-width="2" class="data-point"/>
  
    <circle cx="82.95081967213115" cy="333.87241848630094" r="4" fill="#3b82f6" stroke="#0d1117" stroke-width="2" class="data-point"/>
  
    <circle cx="88.68852459016394" cy="331.1965205041719" r="4" fill="#3b82f6" stroke="#0d1117" stroke-width="2" class="data-point"/>
  
    <circle cx="94.42622950819671" cy="329.0884075980827" r="4" fill="#3b82f6" stroke="#0d1117" stroke-width="2" class="data-point"/>
  
    <circle cx="100.1639344262295" cy="327.12083555239957" r="4" fill="#3b82f6" stroke="#0d1117" stroke-width="2" class="data-point"/>
  
    <circle cx="105.90163934426229" cy="325.37250724894966" r="4" fill="#3b82f6" stroke="#0d1117" stroke-width="2" class="data-point"/>
  
    <circle cx="111.63934426229508" cy="323.3206106870229" r="4" fill="#3b82f6" stroke="#0d1117" stroke-width="2" class="data-point"/>
  
    <circle cx="117.37704918032787" cy="321.0326054796142" r="4" fill="#3b82f6" stroke="#0d1117" stroke-width="2" class="data-point"/>
  
    <circle cx="123.11475409836066" cy="318.58157287413457" r="4" fill="#3b82f6" stroke="#0d1117" stroke-width="2" class="data-point"/>
  
    <circle cx="128.85245901639342" cy="316.3554056453045" r="4" fill="#3b82f6" stroke="#0d1117" stroke-width="2" class="data-point"/>
  
    <circle cx="134.59016393442624" cy="313.9886975560684" r="4" fill="#3b82f6" stroke="#0d1117" stroke-width="2" class="data-point"/>
  
    <circle cx="140.327868852459" cy="312.2628557902834" r="4" fill="#3b82f6" stroke="#0d1117" stroke-width="2" class="data-point"/>
  
    <circle cx="146.0655737704918" cy="310.47517604591985" r="4" fill="#3b82f6" stroke="#0d1117" stroke-width="2" class="data-point"/>
  
    <circle cx="151.80327868852459" cy="308.0466299781052" r="4" fill="#3b82f6" stroke="#0d1117" stroke-width="2" class="data-point"/>
  
    <circle cx="157.54098360655738" cy="306.4219776318125" r="4" fill="#3b82f6" stroke="#0d1117" stroke-width="2" class="data-point"/>
  
    <circle cx="163.27868852459017" cy="304.17332386531746" r="4" fill="#3b82f6" stroke="#0d1117" stroke-width="2" class="data-point"/>
  
    <circle cx="169.01639344262296" cy="301.5761287650157" r="4" fill="#3b82f6" stroke="#0d1117" stroke-width="2" class="data-point"/>
  
    <circle cx="174.75409836065575" cy="299.61979998816497" r="4" fill="#3b82f6" stroke="#0d1117" stroke-width="2" class="data-point"/>
  
    <circle cx="180.4918032786885" cy="298.012012545121" r="4" fill="#3b82f6" stroke="#0d1117" stroke-width="2" class="data-point"/>
  
    <circle cx="186.22950819672133" cy="296.97201017811705" r="4" fill="#3b82f6" stroke="#0d1117" stroke-width="2" class="data-point"/>
  
    <circle cx="191.9672131147541" cy="296.10627847801646" r="4" fill="#3b82f6" stroke="#0d1117" stroke-width="2" class="data-point"/>
  
    <circle cx="197.70491803278688" cy="294.50411266938875" r="4" fill="#3b82f6" stroke="#0d1117" stroke-width="2" class="data-point"/>
  
    <circle cx="203.44262295081967" cy="293.36292088289247" r="4" fill="#3b82f6" stroke="#0d1117" stroke-width="2" class="data-point"/>
  
    <circle cx="209.18032786885246" cy="290.86129356766673" r="4" fill="#3b82f6" stroke="#0d1117" stroke-width="2" class="data-point"/>
  
    <circle cx="214.91803278688525" cy="289.87750754482516" r="4" fill="#3b82f6" stroke="#0d1117" stroke-width="2" class="data-point"/>
  
    <circle cx="220.65573770491804" cy="288.60701816675544" r="4" fill="#3b82f6" stroke="#0d1117" stroke-width="2" class="data-point"/>
  
    <circle cx="226.3934426229508" cy="286.96550091721406" r="4" fill="#3b82f6" stroke="#0d1117" stroke-width="2" class="data-point"/>
  
    <circle cx="232.1311475409836" cy="285.8411740339665" r="4" fill="#3b82f6" stroke="#0d1117" stroke-width="2" class="data-point"/>
  
    <circle cx="237.8688524590164" cy="284.69998224747025" r="4" fill="#3b82f6" stroke="#0d1117" stroke-width="2" class="data-point"/>
  
    <circle cx="243.6065573770492" cy="283.5025741168116" r="4" fill="#3b82f6" stroke="#0d1117" stroke-width="2" class="data-point"/>
  
    <circle cx="249.344262295082" cy="282.67057222320847" r="4" fill="#3b82f6" stroke="#0d1117" stroke-width="2" class="data-point"/>
  
    <circle cx="255.08196721311475" cy="281.9510030179301" r="4" fill="#3b82f6" stroke="#0d1117" stroke-width="2" class="data-point"/>
  
    <circle cx="260.8196721311475" cy="280.8547843067637" r="4" fill="#3b82f6" stroke="#0d1117" stroke-width="2" class="data-point"/>
  
    <circle cx="266.55737704918033" cy="279.5224569501154" r="4" fill="#3b82f6" stroke="#0d1117" stroke-width="2" class="data-point"/>
  
    <circle cx="272.29508196721315" cy="278.2969406473756" r="4" fill="#3b82f6" stroke="#0d1117" stroke-width="2" class="data-point"/>
  
    <circle cx="278.0327868852459" cy="276.745369548494" r="4" fill="#3b82f6" stroke="#0d1117" stroke-width="2" class="data-point"/>
  
    <circle cx="283.7704918032787" cy="275.05325758920645" r="4" fill="#3b82f6" stroke="#0d1117" stroke-width="2" class="data-point"/>
  
    <circle cx="289.5081967213115" cy="273.50168649032486" r="4" fill="#3b82f6" stroke="#0d1117" stroke-width="2" class="data-point"/>
  
    <circle cx="295.24590163934425" cy="271.62968222971773" r="4" fill="#3b82f6" stroke="#0d1117" stroke-width="2" class="data-point"/>
  
    <circle cx="300.983606557377" cy="269.79140777560804" r="4" fill="#3b82f6" stroke="#0d1117" stroke-width="2" class="data-point"/>
  
    <circle cx="306.72131147540983" cy="267.9531333214983" r="4" fill="#3b82f6" stroke="#0d1117" stroke-width="2" class="data-point"/>
  
    <circle cx="312.45901639344265" cy="265.94058820048525" r="4" fill="#3b82f6" stroke="#0d1117" stroke-width="2" class="data-point"/>
  
    <circle cx="318.1967213114754" cy="264.01798923013195" r="4" fill="#3b82f6" stroke="#0d1117" stroke-width="2" class="data-point"/>
  
    <circle cx="323.9344262295082" cy="261.81993017338306" r="4" fill="#3b82f6" stroke="#0d1117" stroke-width="2" class="data-point"/>
  
    <circle cx="329.672131147541" cy="259.8579797621161" r="4" fill="#3b82f6" stroke="#0d1117" stroke-width="2" class="data-point"/>
  
    <circle cx="335.40983606557376" cy="258.199597609326" r="4" fill="#3b82f6" stroke="#0d1117" stroke-width="2" class="data-point"/>
  
    <circle cx="341.1475409836066" cy="256.87289188709394" r="4" fill="#3b82f6" stroke="#0d1117" stroke-width="2" class="data-point"/>
  
    <circle cx="346.88524590163934" cy="255.0177525297355" r="4" fill="#3b82f6" stroke="#0d1117" stroke-width="2" class="data-point"/>
  
    <circle cx="352.62295081967216" cy="252.89839635481388" r="4" fill="#3b82f6" stroke="#0d1117" stroke-width="2" class="data-point"/>
  
    <circle cx="358.3606557377049" cy="250.9589324812119" r="4" fill="#3b82f6" stroke="#0d1117" stroke-width="2" class="data-point"/>
  
    <circle cx="364.0983606557377" cy="248.69341381146813" r="4" fill="#3b82f6" stroke="#0d1117" stroke-width="2" class="data-point"/>
  
    <circle cx="369.8360655737705" cy="245.89946150659802" r="4" fill="#3b82f6" stroke="#0d1117" stroke-width="2" class="data-point"/>
  
    <circle cx="375.57377049180326" cy="243.8194567725901" r="4" fill="#3b82f6" stroke="#0d1117" stroke-width="2" class="data-point"/>
  
    <circle cx="381.3114754098361" cy="242.09361500680512" r="4" fill="#3b82f6" stroke="#0d1117" stroke-width="2" class="data-point"/>
  
    <circle cx="387.04918032786884" cy="240.45209775726374" r="4" fill="#3b82f6" stroke="#0d1117" stroke-width="2" class="data-point"/>
  
    <circle cx="392.7868852459016" cy="238.47890407716432" r="4" fill="#3b82f6" stroke="#0d1117" stroke-width="2" class="data-point"/>
  
    <circle cx="398.5245901639344" cy="236.18527723533936" r="4" fill="#3b82f6" stroke="#0d1117" stroke-width="2" class="data-point"/>
  
    <circle cx="404.2622950819672" cy="233.64429847919996" r="4" fill="#3b82f6" stroke="#0d1117" stroke-width="2" class="data-point"/>
  
    <circle cx="410" cy="230.97402213148706" r="4" fill="#3b82f6" stroke="#0d1117" stroke-width="2" class="data-point"/>
  
    <circle cx="415.7377049180328" cy="228.4105568376827" r="4" fill="#3b82f6" stroke="#0d1117" stroke-width="2" class="data-point"/>
  
    <circle cx="421.4754098360656" cy="226.1562814367714" r="4" fill="#3b82f6" stroke="#0d1117" stroke-width="2" class="data-point"/>
  
    <circle cx="427.2131147540984" cy="223.91887093910884" r="4" fill="#3b82f6" stroke="#0d1117" stroke-width="2" class="data-point"/>
  
    <circle cx="432.95081967213116" cy="221.94567725900941" r="4" fill="#3b82f6" stroke="#0d1117" stroke-width="2" class="data-point"/>
  
    <circle cx="438.688524590164" cy="219.93313213799632" r="4" fill="#3b82f6" stroke="#0d1117" stroke-width="2" class="data-point"/>
  
    <circle cx="444.42622950819674" cy="217.68447837150126" r="4" fill="#3b82f6" stroke="#0d1117" stroke-width="2" class="data-point"/>
  
    <circle cx="450.1639344262295" cy="214.8849044322149" r="4" fill="#3b82f6" stroke="#0d1117" stroke-width="2" class="data-point"/>
  
    <circle cx="455.90163934426226" cy="212.79927806379078" r="4" fill="#3b82f6" stroke="#0d1117" stroke-width="2" class="data-point"/>
  
    <circle cx="461.6393442622951" cy="210.93289543759985" r="4" fill="#3b82f6" stroke="#0d1117" stroke-width="2" class="data-point"/>
  
    <circle cx="467.37704918032784" cy="208.85851233800815" r="4" fill="#3b82f6" stroke="#0d1117" stroke-width="2" class="data-point"/>
  
    <circle cx="473.11475409836066" cy="206.92467009882242" r="4" fill="#3b82f6" stroke="#0d1117" stroke-width="2" class="data-point"/>
  
    <circle cx="478.8524590163934" cy="204.79969228948457" r="4" fill="#3b82f6" stroke="#0d1117" stroke-width="2" class="data-point"/>
  
    <circle cx="484.59016393442624" cy="202.58476832948696" r="4" fill="#3b82f6" stroke="#0d1117" stroke-width="2" class="data-point"/>
  
    <circle cx="490.327868852459" cy="200.26865494999703" r="4" fill="#3b82f6" stroke="#0d1117" stroke-width="2" class="data-point"/>
  
    <circle cx="496.0655737704918" cy="198.23924492573525" r="4" fill="#3b82f6" stroke="#0d1117" stroke-width="2" class="data-point"/>
  
    <circle cx="501.80327868852464" cy="196.50215989111783" r="4" fill="#3b82f6" stroke="#0d1117" stroke-width="2" class="data-point"/>
  
    <circle cx="507.5409836065574" cy="194.59642582401327" r="4" fill="#3b82f6" stroke="#0d1117" stroke-width="2" class="data-point"/>
  
    <circle cx="513.2786885245903" cy="192.53328599325405" r="4" fill="#3b82f6" stroke="#0d1117" stroke-width="2" class="data-point"/>
  
    <circle cx="519.016393442623" cy="190.62193029173324" r="4" fill="#3b82f6" stroke="#0d1117" stroke-width="2" class="data-point"/>
  
    <circle cx="524.7540983606557" cy="188.13154624533996" r="4" fill="#3b82f6" stroke="#0d1117" stroke-width="2" class="data-point"/>
  
    <circle cx="530.4918032786885" cy="185.98970353275342" r="4" fill="#3b82f6" stroke="#0d1117" stroke-width="2" class="data-point"/>
  
    <circle cx="536.2295081967213" cy="183.9265637019942" r="4" fill="#3b82f6" stroke="#0d1117" stroke-width="2" class="data-point"/>
  
    <circle cx="541.967213114754" cy="182.21196520504174" r="4" fill="#3b82f6" stroke="#0d1117" stroke-width="2" class="data-point"/>
  
    <circle cx="547.704918032787" cy="180.54796141783538" r="4" fill="#3b82f6" stroke="#0d1117" stroke-width="2" class="data-point"/>
  
    <circle cx="553.4426229508197" cy="178.8783359962128" r="4" fill="#3b82f6" stroke="#0d1117" stroke-width="2" class="data-point"/>
  
    <circle cx="559.1803278688525" cy="176.88265577844842" r="4" fill="#3b82f6" stroke="#0d1117" stroke-width="2" class="data-point"/>
  
    <circle cx="564.9180327868853" cy="174.83075921652167" r="4" fill="#3b82f6" stroke="#0d1117" stroke-width="2" class="data-point"/>
  
    <circle cx="570.655737704918" cy="172.3403751701284" r="4" fill="#3b82f6" stroke="#0d1117" stroke-width="2" class="data-point"/>
  
    <circle cx="576.3934426229508" cy="170.32220841469908" r="4" fill="#3b82f6" stroke="#0d1117" stroke-width="2" class="data-point"/>
  
    <circle cx="582.1311475409836" cy="168.67506953074144" r="4" fill="#3b82f6" stroke="#0d1117" stroke-width="2" class="data-point"/>
  
    <circle cx="587.8688524590164" cy="166.9829575714539" r="4" fill="#3b82f6" stroke="#0d1117" stroke-width="2" class="data-point"/>
  
    <circle cx="593.6065573770492" cy="165.3639268595775" r="4" fill="#3b82f6" stroke="#0d1117" stroke-width="2" class="data-point"/>
  
    <circle cx="599.344262295082" cy="163.36262500739687" r="4" fill="#3b82f6" stroke="#0d1117" stroke-width="2" class="data-point"/>
  
    <circle cx="605.0819672131147" cy="161.31072844547012" r="4" fill="#3b82f6" stroke="#0d1117" stroke-width="2" class="data-point"/>
  
    <circle cx="610.8196721311475" cy="156.77406947156635" r="4" fill="#3b82f6" stroke="#0d1117" stroke-width="2" class="data-point"/>
  
    <circle cx="616.5573770491803" cy="147.7457245990887" r="4" fill="#3b82f6" stroke="#0d1117" stroke-width="2" class="data-point"/>
  
    <circle cx="622.2950819672132" cy="136.99153796082607" r="4" fill="#3b82f6" stroke="#0d1117" stroke-width="2" class="data-point"/>
  
    <circle cx="628.0327868852459" cy="127.19302917332388" r="4" fill="#3b82f6" stroke="#0d1117" stroke-width="2" class="data-point"/>
  
    <circle cx="633.7704918032787" cy="122.22350434936979" r="4" fill="#3b82f6" stroke="#0d1117" stroke-width="2" class="data-point"/>
  
    <circle cx="639.5081967213115" cy="114.73548730694122" r="4" fill="#3b82f6" stroke="#0d1117" stroke-width="2" class="data-point"/>
  
    <circle cx="645.2459016393443" cy="109.76034084857093" r="4" fill="#3b82f6" stroke="#0d1117" stroke-width="2" class="data-point"/>
  
    <circle cx="650.9836065573771" cy="105.3979525415705" r="4" fill="#3b82f6" stroke="#0d1117" stroke-width="2" class="data-point"/>
  
    <circle cx="656.7213114754098" cy="101.13113201964615" r="4" fill="#3b82f6" stroke="#0d1117" stroke-width="2" class="data-point"/>
  
    <circle cx="662.4590163934425" cy="97.11166341203622" r="4" fill="#3b82f6" stroke="#0d1117" stroke-width="2" class="data-point"/>
  
    <circle cx="668.1967213114754" cy="90.86040594117995" r="4" fill="#3b82f6" stroke="#0d1117" stroke-width="2" class="data-point"/>
  
    <circle cx="673.9344262295082" cy="85.89088111722589" r="4" fill="#3b82f6" stroke="#0d1117" stroke-width="2" class="data-point"/>
  
    <circle cx="679.672131147541" cy="79.53843422687737" r="4" fill="#3b82f6" stroke="#0d1117" stroke-width="2" class="data-point"/>
  
    <circle cx="685.4098360655738" cy="78.23983667672644" r="4" fill="#3b82f6" stroke="#0d1117" stroke-width="2" class="data-point"/>
  
    <circle cx="691.1475409836065" cy="78.07118764423927" r="4" fill="#3b82f6" stroke="#0d1117" stroke-width="2" class="data-point"/>
  
    <circle cx="696.8852459016393" cy="77.85194390200604" r="4" fill="#3b82f6" stroke="#0d1117" stroke-width="2" class="data-point"/>
  
    <circle cx="702.6229508196722" cy="77.66642996627019" r="4" fill="#3b82f6" stroke="#0d1117" stroke-width="2" class="data-point"/>
  
    <circle cx="708.360655737705" cy="77.42469968637198" r="4" fill="#3b82f6" stroke="#0d1117" stroke-width="2" class="data-point"/>
  
    <circle cx="714.0983606557377" cy="77.21107757855492" r="4" fill="#3b82f6" stroke="#0d1117" stroke-width="2" class="data-point"/>
  
    <circle cx="719.8360655737705" cy="77.12675306231137" r="4" fill="#3b82f6" stroke="#0d1117" stroke-width="2" class="data-point"/>
  
    <circle cx="725.5737704918032" cy="76.81756316941829" r="4" fill="#3b82f6" stroke="#0d1117" stroke-width="2" class="data-point"/>
  
    <circle cx="731.311475409836" cy="76.51961654535774" r="4" fill="#3b82f6" stroke="#0d1117" stroke-width="2" class="data-point"/>
  
    <circle cx="737.0491803278688" cy="76.32285934078936" r="4" fill="#3b82f6" stroke="#0d1117" stroke-width="2" class="data-point"/>
  
    <circle cx="742.7868852459017" cy="76.24977809337832" r="4" fill="#3b82f6" stroke="#0d1117" stroke-width="2" class="data-point"/>
  
    <circle cx="748.5245901639344" cy="75.91810166282028" r="4" fill="#3b82f6" stroke="#0d1117" stroke-width="2" class="data-point"/>
  
    <circle cx="754.2622950819672" cy="67.76673175927567" r="4" fill="#3b82f6" stroke="#0d1117" stroke-width="2" class="data-point"/>
  
    <circle cx="760" cy="55" r="4" fill="#3b82f6" stroke="#0d1117" stroke-width="2" class="data-point"/>
  

  <!-- Axis lines -->
  <line x1="60" y1="55" x2="60" y2="340"
        stroke="#30363d" stroke-width="2"/>
  <line x1="60" y1="340" x2="760" y2="340"
        stroke="#30363d" stroke-width="2"/>
</svg>