<?xml version="1.0" encoding="UTF-8"?>
<svg width="800" height="400" xmlns="http://www.w3.org/2000/svg">
  <defs>
    <!-- Gradient for area fill -->
    <linearGradient id="areaGradient" x1="0%" y1="0%" x2="0%" y2="100%">
      <stop offset="0%" style="stop-color:#3b82f6;stop-opacity:0.3" />
      <stop offset="100%" style="stop-color:#3b82f6;stop-opacity:0.05" />
    </linearGradient>

    <!-- Glow filter for line -->
    <filter id="glow">
      <feGaussianBlur stdDeviation="2" result="coloredBlur"/>
      <feMerge>
        <feMergeNode in="coloredBlur"/>
        <feMergeNode in="SourceGraphic"/>
      </feMerge>
    </filter>

    <!-- Animation -->
    <style>
      @keyframes draw {
        from { stroke-dashoffset: 2000; }
        to { stroke-dashoffset: 0; }
      }
      @keyframes fadeIn {
        from { opacity: 0; }
        to { opacity: 1; }
      }
      .line-path {
        stroke-dasharray: 2000;
        stroke-dashoffset: 2000;
        animation: draw 1.5s ease-out forwards;
      }
      .area-path {
        opacity: 0;
        animation: fadeIn 1s ease-out 0.5s forwards;
      }
      .data-point {
        opacity: 0;
        animation: fadeIn 0.5s ease-out 1s forwards;
      }
    </style>
  </defs>

  <!-- Background -->
  <rect width="800" height="400" fill="#0d1117" rx="8"/>

  <!-- Title -->
  <text x="400" y="25" text-anchor="middle" fill="#c9d1d9" font-family="system-ui, -apple-system, sans-serif" font-size="16" font-weight="600">
    zxcloli666/SoundCloud-Desktop Downloads
  </text>

  <!-- Stats -->
  <text x="780" y="25" text-anchor="end" fill="#58a6ff" font-family="system-ui, -apple-system, sans-serif" font-size="14" font-weight="600">
    114.1K total
  </text>
  <text x="780" y="42" text-anchor="end" fill="#3fb950" font-family="system-ui, -apple-system, sans-serif" font-size="12">
    +1.8K (+1.6%)
  </text>

  <!-- Grid lines -->
  <g opacity="0.1">
    
      <line x1="60" y1="340" x2="760" y2="340"
            stroke="#c9d1d9" stroke-width="1"/>
    
      <line x1="60" y1="268.75" x2="760" y2="268.75"
            stroke="#c9d1d9" stroke-width="1"/>
    
      <line x1="60" y1="197.5" x2="760" y2="197.5"
            stroke="#c9d1d9" stroke-width="1"/>
    
      <line x1="60" y1="126.25" x2="760" y2="126.25"
            stroke="#c9d1d9" stroke-width="1"/>
    
      <line x1="60" y1="55" x2="760" y2="55"
            stroke="#c9d1d9" stroke-width="1"/>
    
  </g>

  <!-- Y-axis labels -->
  
    <text x="50" y="344" text-anchor="end"
          fill="#8b949e" font-family="system-ui, -apple-system, sans-serif" font-size="11">
      60.2K
    </text>
  
    <text x="50" y="272.75" text-anchor="end"
          fill="#8b949e" font-family="system-ui, -apple-system, sans-serif" font-size="11">
      73.6K
    </text>
  
    <text x="50" y="201.5" text-anchor="end"
          fill="#8b949e" font-family="system-ui, -apple-system, sans-serif" font-size="11">
      87.1K
    </text>
  
    <text x="50" y="130.25" text-anchor="end"
          fill="#8b949e" font-family="system-ui, -apple-system, sans-serif" font-size="11">
      100.6K
    </text>
  
    <text x="50" y="59" text-anchor="end"
          fill="#8b949e" font-family="system-ui, -apple-system, sans-serif" font-size="11">
      114.1K
    </text>
  

  <!-- X-axis labels -->
  
    <text x="60" y="360" text-anchor="middle"
          fill="#8b949e" font-family="system-ui, -apple-system, sans-serif" font-size="11">
      Nov 25
    </text>
  
    <text x="144.67741935483872" y="360" text-anchor="middle"
          fill="#8b949e" font-family="system-ui, -apple-system, sans-serif" font-size="11">
      Dec 10
    </text>
  
    <text x="229.35483870967744" y="360" text-anchor="middle"
          fill="#8b949e" font-family="system-ui, -apple-system, sans-serif" font-size="11">
      Dec 25
    </text>
  
    <text x="314.0322580645161" y="360" text-anchor="middle"
          fill="#8b949e" font-family="system-ui, -apple-system, sans-serif" font-size="11">
      Jan 9
    </text>
  
    <text x="398.7096774193549" y="360" text-anchor="middle"
          fill="#8b949e" font-family="system-ui, -apple-system, sans-serif" font-size="11">
      Jan 24
    </text>
  
    <text x="483.38709677419354" y="360" text-anchor="middle"
          fill="#8b949e" font-family="system-ui, -apple-system, sans-serif" font-size="11">
      Feb 8
    </text>
  
    <text x="568.0645161290322" y="360" text-anchor="middle"
          fill="#8b949e" font-family="system-ui, -apple-system, sans-serif" font-size="11">
      Feb 23
    </text>
  
    <text x="652.741935483871" y="360" text-anchor="middle"
          fill="#8b949e" font-family="system-ui, -apple-system, sans-serif" font-size="11">
      Mar 10
    </text>
  
    <text x="737.4193548387098" y="360" text-anchor="middle"
          fill="#8b949e" font-family="system-ui, -apple-system, sans-serif" font-size="11">
      Mar 25
    </text>
  
    <text x="760" y="360" text-anchor="middle"
          fill="#8b949e" font-family="system-ui, -apple-system, sans-serif" font-size="11">
      Mar 29
    </text>
  

  <!-- Area under line -->
  <path d="M 60 340
    L 60.00 340.00 L 65.65 339.22 L 71.29 337.90 L 76.94 336.68 L 82.58 334.25 L 88.23 331.73 L 93.87 329.75 L 99.52 327.91 L 105.16 326.26 L 110.81 324.34 L 116.45 322.19 L 122.10 319.89 L 127.74 317.80 L 133.39 315.57 L 139.03 313.95 L 144.68 312.27 L 150.32 309.99 L 155.97 308.47 L 161.61 306.35 L 167.26 303.92 L 172.90 302.08 L 178.55 300.57 L 184.19 299.59 L 189.84 298.78 L 195.48 297.27 L 201.13 296.20 L 206.77 293.85 L 212.42 292.93 L 218.06 291.74 L 223.71 290.19 L 229.35 289.14 L 235.00 288.07 L 240.65 286.94 L 246.29 286.16 L 251.94 285.49 L 257.58 284.46 L 263.23 283.20 L 268.87 282.05 L 274.52 280.60 L 280.16 279.01 L 285.81 277.55 L 291.45 275.79 L 297.10 274.07 L 302.74 272.34 L 308.39 270.45 L 314.03 268.64 L 319.68 266.58 L 325.32 264.74 L 330.97 263.18 L 336.61 261.93 L 342.26 260.19 L 347.90 258.20 L 353.55 256.38 L 359.19 254.25 L 364.84 251.63 L 370.48 249.68 L 376.13 248.05 L 381.77 246.51 L 387.42 244.66 L 393.06 242.51 L 398.71 240.12 L 404.35 237.61 L 410.00 235.21 L 415.65 233.09 L 421.29 230.99 L 426.94 229.13 L 432.58 227.24 L 438.23 225.13 L 443.87 222.50 L 449.52 220.54 L 455.16 218.79 L 460.81 216.84 L 466.45 215.03 L 472.10 213.03 L 477.74 210.95 L 483.39 208.78 L 489.03 206.87 L 494.68 205.24 L 500.32 203.45 L 505.97 201.51 L 511.61 199.72 L 517.26 197.38 L 522.90 195.37 L 528.55 193.43 L 534.19 191.82 L 539.84 190.26 L 545.48 188.69 L 551.13 186.81 L 556.77 184.89 L 562.42 182.55 L 568.06 180.65 L 573.71 179.11 L 579.35 177.52 L 585.00 176.00 L 590.65 174.12 L 596.29 172.19 L 601.94 167.93 L 607.58 159.45 L 613.23 149.35 L 618.87 140.15 L 624.52 135.48 L 630.16 128.45 L 635.81 123.78 L 641.45 119.68 L 647.10 115.68 L 652.74 111.90 L 658.39 106.03 L 664.03 101.36 L 669.68 95.40 L 675.32 94.18 L 680.97 94.02 L 686.61 93.81 L 692.26 93.64 L 697.90 93.41 L 703.55 93.21 L 709.19 93.13 L 714.84 92.84 L 720.48 92.56 L 726.13 92.38 L 731.77 92.31 L 737.42 92.00 L 743.06 84.34 L 748.71 72.35 L 754.35 64.32 L 760.00 55.00
    L 760 340
    Z" fill="url(#areaGradient)" class="area-path"/>

  <!-- Main line with glow -->
  <path d="M 60.00 340.00 L 65.65 339.22 L 71.29 337.90 L 76.94 336.68 L 82.58 334.25 L 88.23 331.73 L 93.87 329.75 L 99.52 327.91 L 105.16 326.26 L 110.81 324.34 L 116.45 322.19 L 122.10 319.89 L 127.74 317.80 L 133.39 315.57 L 139.03 313.95 L 144.68 312.27 L 150.32 309.99 L 155.97 308.47 L 161.61 306.35 L 167.26 303.92 L 172.90 302.08 L 178.55 300.57 L 184.19 299.59 L 189.84 298.78 L 195.48 297.27 L 201.13 296.20 L 206.77 293.85 L 212.42 292.93 L 218.06 291.74 L 223.71 290.19 L 229.35 289.14 L 235.00 288.07 L 240.65 286.94 L 246.29 286.16 L 251.94 285.49 L 257.58 284.46 L 263.23 283.20 L 268.87 282.05 L 274.52 280.60 L 280.16 279.01 L 285.81 277.55 L 291.45 275.79 L 297.10 274.07 L 302.74 272.34 L 308.39 270.45 L 314.03 268.64 L 319.68 266.58 L 325.32 264.74 L 330.97 263.18 L 336.61 261.93 L 342.26 260.19 L 347.90 258.20 L 353.55 256.38 L 359.19 254.25 L 364.84 251.63 L 370.48 249.68 L 376.13 248.05 L 381.77 246.51 L 387.42 244.66 L 393.06 242.51 L 398.71 240.12 L 404.35 237.61 L 410.00 235.21 L 415.65 233.09 L 421.29 230.99 L 426.94 229.13 L 432.58 227.24 L 438.23 225.13 L 443.87 222.50 L 449.52 220.54 L 455.16 218.79 L 460.81 216.84 L 466.45 215.03 L 472.10 213.03 L 477.74 210.95 L 483.39 208.78 L 489.03 206.87 L 494.68 205.24 L 500.32 203.45 L 505.97 201.51 L 511.61 199.72 L 517.26 197.38 L 522.90 195.37 L 528.55 193.43 L 534.19 191.82 L 539.84 190.26 L 545.48 188.69 L 551.13 186.81 L 556.77 184.89 L 562.42 182.55 L 568.06 180.65 L 573.71 179.11 L 579.35 177.52 L 585.00 176.00 L 590.65 174.12 L 596.29 172.19 L 601.94 167.93 L 607.58 159.45 L 613.23 149.35 L 618.87 140.15 L 624.52 135.48 L 630.16 128.45 L 635.81 123.78 L 641.45 119.68 L 647.10 115.68 L 652.74 111.90 L 658.39 106.03 L 664.03 101.36 L 669.68 95.40 L 675.32 94.18 L 680.97 94.02 L 686.61 93.81 L 692.26 93.64 L 697.90 93.41 L 703.55 93.21 L 709.19 93.13 L 714.84 92.84 L 720.48 92.56 L 726.13 92.38 L 731.77 92.31 L 737.42 92.00 L 743.06 84.34 L 748.71 72.35 L 754.35 64.32 L 760.00 55.00" fill="none" stroke="#3b82f6" stroke-width="3"
        stroke-linecap="round" stroke-linejoin="round" filter="url(#glow)" class="line-path"/>

  <!-- Data points -->
  
    <circle cx="60" cy="340" r="4" fill="#3b82f6" stroke="#0d1117" stroke-width="2" class="data-point"/>
  
    <circle cx="65.64516129032258" cy="339.2239367219917" r="4" fill="#3b82f6" stroke="#0d1117" stroke-width="2" class="data-point"/>
  
    <circle cx="71.29032258064515" cy="337.9041012151749" r="4" fill="#3b82f6" stroke="#0d1117" stroke-width="2" class="data-point"/>
  
    <circle cx="76.93548387096774" cy="336.67929386484883" r="4" fill="#3b82f6" stroke="#0d1117" stroke-width="2" class="data-point"/>
  
    <circle cx="82.58064516129032" cy="334.2455171902786" r="4" fill="#3b82f6" stroke="#0d1117" stroke-width="2" class="data-point"/>
  
    <circle cx="88.2258064516129" cy="331.73255038529936" r="4" fill="#3b82f6" stroke="#0d1117" stroke-width="2" class="data-point"/>
  
    <circle cx="93.87096774193549" cy="329.7527971250741" r="4" fill="#3b82f6" stroke="#0d1117" stroke-width="2" class="data-point"/>
  
    <circle cx="99.51612903225806" cy="327.9050274155305" r="4" fill="#3b82f6" stroke="#0d1117" stroke-width="2" class="data-point"/>
  
    <circle cx="105.16129032258064" cy="326.2631520450504" r="4" fill="#3b82f6" stroke="#0d1117" stroke-width="2" class="data-point"/>
  
    <circle cx="110.80645161290323" cy="324.3361922050978" r="4" fill="#3b82f6" stroke="#0d1117" stroke-width="2" class="data-point"/>
  
    <circle cx="116.45161290322581" cy="322.1875" r="4" fill="#3b82f6" stroke="#0d1117" stroke-width="2" class="data-point"/>
  
    <circle cx="122.09677419354838" cy="319.88570687611144" r="4" fill="#3b82f6" stroke="#0d1117" stroke-width="2" class="data-point"/>
  
    <circle cx="127.74193548387096" cy="317.7950874333136" r="4" fill="#3b82f6" stroke="#0d1117" stroke-width="2" class="data-point"/>
  
    <circle cx="133.38709677419354" cy="315.572484439834" r="4" fill="#3b82f6" stroke="#0d1117" stroke-width="2" class="data-point"/>
  
    <circle cx="139.03225806451613" cy="313.951726437463" r="4" fill="#3b82f6" stroke="#0d1117" stroke-width="2" class="data-point"/>
  
    <circle cx="144.67741935483872" cy="312.27289567279195" r="4" fill="#3b82f6" stroke="#0d1117" stroke-width="2" class="data-point"/>
  
    <circle cx="150.32258064516128" cy="309.99221991701245" r="4" fill="#3b82f6" stroke="#0d1117" stroke-width="2" class="data-point"/>
  
    <circle cx="155.96774193548384" cy="308.46649007113217" r="4" fill="#3b82f6" stroke="#0d1117" stroke-width="2" class="data-point"/>
  
    <circle cx="161.61290322580646" cy="306.35475326022527" r="4" fill="#3b82f6" stroke="#0d1117" stroke-width="2" class="data-point"/>
  
    <circle cx="167.25806451612902" cy="303.91569724362773" r="4" fill="#3b82f6" stroke="#0d1117" stroke-width="2" class="data-point"/>
  
    <circle cx="172.90322580645162" cy="302.0784862181387" r="4" fill="#3b82f6" stroke="#0d1117" stroke-width="2" class="data-point"/>
  
    <circle cx="178.5483870967742" cy="300.5685943983402" r="4" fill="#3b82f6" stroke="#0d1117" stroke-width="2" class="data-point"/>
  
    <circle cx="184.19354838709677" cy="299.5919161232958" r="4" fill="#3b82f6" stroke="#0d1117" stroke-width="2" class="data-point"/>
  
    <circle cx="189.83870967741936" cy="298.7788974510966" r="4" fill="#3b82f6" stroke="#0d1117" stroke-width="2" class="data-point"/>
  
    <circle cx="195.48387096774192" cy="297.27428497332545" r="4" fill="#3b82f6" stroke="#0d1117" stroke-width="2" class="data-point"/>
  
    <circle cx="201.1290322580645" cy="296.20257854179016" r="4" fill="#3b82f6" stroke="#0d1117" stroke-width="2" class="data-point"/>
  
    <circle cx="206.7741935483871" cy="293.8532713396562" r="4" fill="#3b82f6" stroke="#0d1117" stroke-width="2" class="data-point"/>
  
    <circle cx="212.41935483870967" cy="292.9293864848844" r="4" fill="#3b82f6" stroke="#0d1117" stroke-width="2" class="data-point"/>
  
    <circle cx="218.06451612903226" cy="291.736255186722" r="4" fill="#3b82f6" stroke="#0d1117" stroke-width="2" class="data-point"/>
  
    <circle cx="223.70967741935482" cy="290.1946873147599" r="4" fill="#3b82f6" stroke="#0d1117" stroke-width="2" class="data-point"/>
  
    <circle cx="229.35483870967744" cy="289.13881890930645" r="4" fill="#3b82f6" stroke="#0d1117" stroke-width="2" class="data-point"/>
  
    <circle cx="235" cy="288.0671124777712" r="4" fill="#3b82f6" stroke="#0d1117" stroke-width="2" class="data-point"/>
  
    <circle cx="240.64516129032256" cy="286.94261262596325" r="4" fill="#3b82f6" stroke="#0d1117" stroke-width="2" class="data-point"/>
  
    <circle cx="246.29032258064515" cy="286.1612700059277" r="4" fill="#3b82f6" stroke="#0d1117" stroke-width="2" class="data-point"/>
  
    <circle cx="251.93548387096772" cy="285.4855142264375" r="4" fill="#3b82f6" stroke="#0d1117" stroke-width="2" class="data-point"/>
  
    <circle cx="257.58064516129036" cy="284.4560425311203" r="4" fill="#3b82f6" stroke="#0d1117" stroke-width="2" class="data-point"/>
  
    <circle cx="263.2258064516129" cy="283.204838470658" r="4" fill="#3b82f6" stroke="#0d1117" stroke-width="2" class="data-point"/>
  
    <circle cx="268.8709677419355" cy="282.0539419087137" r="4" fill="#3b82f6" stroke="#0d1117" stroke-width="2" class="data-point"/>
  
    <circle cx="274.51612903225805" cy="280.5968435091879" r="4" fill="#3b82f6" stroke="#0d1117" stroke-width="2" class="data-point"/>
  
    <circle cx="280.1612903225806" cy="279.00776155898046" r="4" fill="#3b82f6" stroke="#0d1117" stroke-width="2" class="data-point"/>
  
    <circle cx="285.80645161290323" cy="277.55066315945464" r="4" fill="#3b82f6" stroke="#0d1117" stroke-width="2" class="data-point"/>
  
    <circle cx="291.4516129032258" cy="275.79264226437465" r="4" fill="#3b82f6" stroke="#0d1117" stroke-width="2" class="data-point"/>
  
    <circle cx="297.0967741935484" cy="274.0662974214582" r="4" fill="#3b82f6" stroke="#0d1117" stroke-width="2" class="data-point"/>
  
    <circle cx="302.741935483871" cy="272.3399525785418" r="4" fill="#3b82f6" stroke="#0d1117" stroke-width="2" class="data-point"/>
  
    <circle cx="308.38709677419354" cy="270.4499481327801" r="4" fill="#3b82f6" stroke="#0d1117" stroke-width="2" class="data-point"/>
  
    <circle cx="314.0322580645161" cy="268.64441315945464" r="4" fill="#3b82f6" stroke="#0d1117" stroke-width="2" class="data-point"/>
  
    <circle cx="319.6774193548387" cy="266.58019042679314" r="4" fill="#3b82f6" stroke="#0d1117" stroke-width="2" class="data-point"/>
  
    <circle cx="325.3225806451613" cy="264.7377000592768" r="4" fill="#3b82f6" stroke="#0d1117" stroke-width="2" class="data-point"/>
  
    <circle cx="330.96774193548384" cy="263.18029416123295" r="4" fill="#3b82f6" stroke="#0d1117" stroke-width="2" class="data-point"/>
  
    <circle cx="336.61290322580646" cy="261.93436944279784" r="4" fill="#3b82f6" stroke="#0d1117" stroke-width="2" class="data-point"/>
  
    <circle cx="342.258064516129" cy="260.19218657379963" r="4" fill="#3b82f6" stroke="#0d1117" stroke-width="2" class="data-point"/>
  
    <circle cx="347.90322580645164" cy="258.20187462951986" r="4" fill="#3b82f6" stroke="#0d1117" stroke-width="2" class="data-point"/>
  
    <circle cx="353.5483870967742" cy="256.38050163011263" r="4" fill="#3b82f6" stroke="#0d1117" stroke-width="2" class="data-point"/>
  
    <circle cx="359.19354838709677" cy="254.2529267931239" r="4" fill="#3b82f6" stroke="#0d1117" stroke-width="2" class="data-point"/>
  
    <circle cx="364.83870967741933" cy="251.629093805572" r="4" fill="#3b82f6" stroke="#0d1117" stroke-width="2" class="data-point"/>
  
    <circle cx="370.48387096774195" cy="249.6757372554831" r="4" fill="#3b82f6" stroke="#0d1117" stroke-width="2" class="data-point"/>
  
    <circle cx="376.1290322580645" cy="248.05497925311204" r="4" fill="#3b82f6" stroke="#0d1117" stroke-width="2" class="data-point"/>
  
    <circle cx="381.7741935483871" cy="246.51341138114998" r="4" fill="#3b82f6" stroke="#0d1117" stroke-width="2" class="data-point"/>
  
    <circle cx="387.41935483870964" cy="244.66036232957913" r="4" fill="#3b82f6" stroke="#0d1117" stroke-width="2" class="data-point"/>
  
    <circle cx="393.06451612903226" cy="242.50639078245405" r="4" fill="#3b82f6" stroke="#0d1117" stroke-width="2" class="data-point"/>
  
    <circle cx="398.7096774193549" cy="240.12012818612925" r="4" fill="#3b82f6" stroke="#0d1117" stroke-width="2" class="data-point"/>
  
    <circle cx="404.35483870967744" cy="237.61244072317726" r="4" fill="#3b82f6" stroke="#0d1117" stroke-width="2" class="data-point"/>
  
    <circle cx="410" cy="235.20506075874334" r="4" fill="#3b82f6" stroke="#0d1117" stroke-width="2" class="data-point"/>
  
    <circle cx="415.64516129032256" cy="233.08804460580913" r="4" fill="#3b82f6" stroke="#0d1117" stroke-width="2" class="data-point"/>
  
    <circle cx="421.2903225806451" cy="230.98686647895676" r="4" fill="#3b82f6" stroke="#0d1117" stroke-width="2" class="data-point"/>
  
    <circle cx="426.93548387096774" cy="229.1338174273859" r="4" fill="#3b82f6" stroke="#0d1117" stroke-width="2" class="data-point"/>
  
    <circle cx="432.5806451612903" cy="227.2438129816242" r="4" fill="#3b82f6" stroke="#0d1117" stroke-width="2" class="data-point"/>
  
    <circle cx="438.22580645161287" cy="225.13207617071726" r="4" fill="#3b82f6" stroke="#0d1117" stroke-width="2" class="data-point"/>
  
    <circle cx="443.87096774193543" cy="222.50296384113813" r="4" fill="#3b82f6" stroke="#0d1117" stroke-width="2" class="data-point"/>
  
    <circle cx="449.51612903225805" cy="220.54432794902192" r="4" fill="#3b82f6" stroke="#0d1117" stroke-width="2" class="data-point"/>
  
    <circle cx="455.16129032258067" cy="218.79158639596918" r="4" fill="#3b82f6" stroke="#0d1117" stroke-width="2" class="data-point"/>
  
    <circle cx="460.80645161290323" cy="216.84350918790753" r="4" fill="#3b82f6" stroke="#0d1117" stroke-width="2" class="data-point"/>
  
    <circle cx="466.45161290322585" cy="215.02741553052755" r="4" fill="#3b82f6" stroke="#0d1117" stroke-width="2" class="data-point"/>
  
    <circle cx="472.0967741935484" cy="213.0318242442205" r="4" fill="#3b82f6" stroke="#0d1117" stroke-width="2" class="data-point"/>
  
    <circle cx="477.741935483871" cy="210.9517634854772" r="4" fill="#3b82f6" stroke="#0d1117" stroke-width="2" class="data-point"/>
  
    <circle cx="483.38709677419354" cy="208.77667457024305" r="4" fill="#3b82f6" stroke="#0d1117" stroke-width="2" class="data-point"/>
  
    <circle cx="489.03225806451616" cy="206.87083209839952" r="4" fill="#3b82f6" stroke="#0d1117" stroke-width="2" class="data-point"/>
  
    <circle cx="494.6774193548387" cy="205.2395154119739" r="4" fill="#3b82f6" stroke="#0d1117" stroke-width="2" class="data-point"/>
  
    <circle cx="500.3225806451613" cy="203.4498184647303" r="4" fill="#3b82f6" stroke="#0d1117" stroke-width="2" class="data-point"/>
  
    <circle cx="505.96774193548384" cy="201.51229994072318" r="4" fill="#3b82f6" stroke="#0d1117" stroke-width="2" class="data-point"/>
  
    <circle cx="511.61290322580646" cy="199.71732365145226" r="4" fill="#3b82f6" stroke="#0d1117" stroke-width="2" class="data-point"/>
  
    <circle cx="517.258064516129" cy="197.37857513337286" r="4" fill="#3b82f6" stroke="#0d1117" stroke-width="2" class="data-point"/>
  
    <circle cx="522.9032258064516" cy="195.367145820984" r="4" fill="#3b82f6" stroke="#0d1117" stroke-width="2" class="data-point"/>
  
    <circle cx="528.5483870967741" cy="193.4296272969769" r="4" fill="#3b82f6" stroke="#0d1117" stroke-width="2" class="data-point"/>
  
    <circle cx="534.1935483870968" cy="191.81942797866034" r="4" fill="#3b82f6" stroke="#0d1117" stroke-width="2" class="data-point"/>
  
    <circle cx="539.8387096774193" cy="190.2567427385892" r="4" fill="#3b82f6" stroke="#0d1117" stroke-width="2" class="data-point"/>
  
    <circle cx="545.483870967742" cy="188.6887781564908" r="4" fill="#3b82f6" stroke="#0d1117" stroke-width="2" class="data-point"/>
  
    <circle cx="551.1290322580646" cy="186.81461173681092" r="4" fill="#3b82f6" stroke="#0d1117" stroke-width="2" class="data-point"/>
  
    <circle cx="556.7741935483871" cy="184.88765189685833" r="4" fill="#3b82f6" stroke="#0d1117" stroke-width="2" class="data-point"/>
  
    <circle cx="562.4193548387098" cy="182.54890337877887" r="4" fill="#3b82f6" stroke="#0d1117" stroke-width="2" class="data-point"/>
  
    <circle cx="568.0645161290322" cy="180.65361959098993" r="4" fill="#3b82f6" stroke="#0d1117" stroke-width="2" class="data-point"/>
  
    <circle cx="573.7096774193549" cy="179.1067723770006" r="4" fill="#3b82f6" stroke="#0d1117" stroke-width="2" class="data-point"/>
  
    <circle cx="579.3548387096774" cy="177.51769042679314" r="4" fill="#3b82f6" stroke="#0d1117" stroke-width="2" class="data-point"/>
  
    <circle cx="585" cy="175.99723992294014" r="4" fill="#3b82f6" stroke="#0d1117" stroke-width="2" class="data-point"/>
  
    <circle cx="590.6451612903226" cy="174.11779416123295" r="4" fill="#3b82f6" stroke="#0d1117" stroke-width="2" class="data-point"/>
  
    <circle cx="596.2903225806451" cy="172.19083432128036" r="4" fill="#3b82f6" stroke="#0d1117" stroke-width="2" class="data-point"/>
  
    <circle cx="601.9354838709677" cy="167.93040530527566" r="4" fill="#3b82f6" stroke="#0d1117" stroke-width="2" class="data-point"/>
  
    <circle cx="607.5806451612902" cy="159.4517820094843" r="4" fill="#3b82f6" stroke="#0d1117" stroke-width="2" class="data-point"/>
  
    <circle cx="613.2258064516129" cy="149.35240071132188" r="4" fill="#3b82f6" stroke="#0d1117" stroke-width="2" class="data-point"/>
  
    <circle cx="618.8709677419355" cy="140.15050755779492" r="4" fill="#3b82f6" stroke="#0d1117" stroke-width="2" class="data-point"/>
  
    <circle cx="624.516129032258" cy="135.48356920569057" r="4" fill="#3b82f6" stroke="#0d1117" stroke-width="2" class="data-point"/>
  
    <circle cx="630.1612903225807" cy="128.45148562537048" r="4" fill="#3b82f6" stroke="#0d1117" stroke-width="2" class="data-point"/>
  
    <circle cx="635.8064516129033" cy="123.7792679312389" r="4" fill="#3b82f6" stroke="#0d1117" stroke-width="2" class="data-point"/>
  
    <circle cx="641.4516129032259" cy="119.68249851807943" r="4" fill="#3b82f6" stroke="#0d1117" stroke-width="2" class="data-point"/>
  
    <circle cx="647.0967741935484" cy="115.67547791938352" r="4" fill="#3b82f6" stroke="#0d1117" stroke-width="2" class="data-point"/>
  
    <circle cx="652.741935483871" cy="111.90074836988737" r="4" fill="#3b82f6" stroke="#0d1117" stroke-width="2" class="data-point"/>
  
    <circle cx="658.3870967741935" cy="106.03012003556611" r="4" fill="#3b82f6" stroke="#0d1117" stroke-width="2" class="data-point"/>
  
    <circle cx="664.0322580645161" cy="101.36318168346176" r="4" fill="#3b82f6" stroke="#0d1117" stroke-width="2" class="data-point"/>
  
    <circle cx="669.6774193548387" cy="95.39752519264968" r="4" fill="#3b82f6" stroke="#0d1117" stroke-width="2" class="data-point"/>
  
    <circle cx="675.3225806451613" cy="94.17799718435091" r="4" fill="#3b82f6" stroke="#0d1117" stroke-width="2" class="data-point"/>
  
    <circle cx="680.9677419354839" cy="94.01961692353288" r="4" fill="#3b82f6" stroke="#0d1117" stroke-width="2" class="data-point"/>
  
    <circle cx="686.6129032258065" cy="93.81372258446947" r="4" fill="#3b82f6" stroke="#0d1117" stroke-width="2" class="data-point"/>
  
    <circle cx="692.258064516129" cy="93.63950429756963" r="4" fill="#3b82f6" stroke="#0d1117" stroke-width="2" class="data-point"/>
  
    <circle cx="697.9032258064516" cy="93.41249259039714" r="4" fill="#3b82f6" stroke="#0d1117" stroke-width="2" class="data-point"/>
  
    <circle cx="703.5483870967741" cy="93.21187759336098" r="4" fill="#3b82f6" stroke="#0d1117" stroke-width="2" class="data-point"/>
  
    <circle cx="709.1935483870967" cy="93.13268746295196" r="4" fill="#3b82f6" stroke="#0d1117" stroke-width="2" class="data-point"/>
  
    <circle cx="714.8387096774193" cy="92.84232365145226" r="4" fill="#3b82f6" stroke="#0d1117" stroke-width="2" class="data-point"/>
  
    <circle cx="720.483870967742" cy="92.56251852400712" r="4" fill="#3b82f6" stroke="#0d1117" stroke-width="2" class="data-point"/>
  
    <circle cx="726.1290322580645" cy="92.37774155305274" r="4" fill="#3b82f6" stroke="#0d1117" stroke-width="2" class="data-point"/>
  
    <circle cx="731.7741935483871" cy="92.30911010669828" r="4" fill="#3b82f6" stroke="#0d1117" stroke-width="2" class="data-point"/>
  
    <circle cx="737.4193548387098" cy="91.9976289270895" r="4" fill="#3b82f6" stroke="#0d1117" stroke-width="2" class="data-point"/>
  
    <circle cx="743.0645161290323" cy="84.34258298755185" r="4" fill="#3b82f6" stroke="#0d1117" stroke-width="2" class="data-point"/>
  
    <circle cx="748.7096774193549" cy="72.35319724362773" r="4" fill="#3b82f6" stroke="#0d1117" stroke-width="2" class="data-point"/>
  
    <circle cx="754.3548387096774" cy="64.32331802015409" r="4" fill="#3b82f6" stroke="#0d1117" stroke-width="2" class="data-point"/>
  
    <circle cx="760" cy="55" r="4" fill="#3b82f6" stroke="#0d1117" stroke-width="2" class="data-point"/>
  

  <!-- Axis lines -->
  <line x1="60" y1="55" x2="60" y2="340"
        stroke="#30363d" stroke-width="2"/>
  <line x1="60" y1="340" x2="760" y2="340"
        stroke="#30363d" stroke-width="2"/>
</svg>