<?xml version="1.0" encoding="UTF-8"?>
<svg width="800" height="400" xmlns="http://www.w3.org/2000/svg">
  <defs>
    <!-- Gradient for area fill -->
    <linearGradient id="areaGradient" x1="0%" y1="0%" x2="0%" y2="100%">
      <stop offset="0%" style="stop-color:#3b82f6;stop-opacity:0.3" />
      <stop offset="100%" style="stop-color:#3b82f6;stop-opacity:0.05" />
    </linearGradient>

    <!-- Glow filter for line -->
    <filter id="glow">
      <feGaussianBlur stdDeviation="2" result="coloredBlur"/>
      <feMerge>
        <feMergeNode in="coloredBlur"/>
        <feMergeNode in="SourceGraphic"/>
      </feMerge>
    </filter>

    <!-- Animation -->
    <style>
      @keyframes draw {
        from { stroke-dashoffset: 2000; }
        to { stroke-dashoffset: 0; }
      }
      @keyframes fadeIn {
        from { opacity: 0; }
        to { opacity: 1; }
      }
      .line-path {
        stroke-dasharray: 2000;
        stroke-dashoffset: 2000;
        animation: draw 1.5s ease-out forwards;
      }
      .area-path {
        opacity: 0;
        animation: fadeIn 1s ease-out 0.5s forwards;
      }
      .data-point {
        opacity: 0;
        animation: fadeIn 0.5s ease-out 1s forwards;
      }
    </style>
  </defs>

  <!-- Background -->
  <rect width="800" height="400" fill="#0d1117" rx="8"/>

  <!-- Title -->
  <text x="400" y="25" text-anchor="middle" fill="#c9d1d9" font-family="system-ui, -apple-system, sans-serif" font-size="16" font-weight="600">
    zxcloli666/SoundCloud-Desktop Downloads
  </text>

  <!-- Stats -->
  <text x="780" y="25" text-anchor="end" fill="#58a6ff" font-family="system-ui, -apple-system, sans-serif" font-size="14" font-weight="600">
    251.7K total
  </text>
  <text x="780" y="42" text-anchor="end" fill="#3fb950" font-family="system-ui, -apple-system, sans-serif" font-size="12">
    +1.3K (+0.5%)
  </text>

  <!-- Grid lines -->
  <g opacity="0.1">
    
      <line x1="60" y1="340" x2="760" y2="340"
            stroke="#c9d1d9" stroke-width="1"/>
    
      <line x1="60" y1="268.75" x2="760" y2="268.75"
            stroke="#c9d1d9" stroke-width="1"/>
    
      <line x1="60" y1="197.5" x2="760" y2="197.5"
            stroke="#c9d1d9" stroke-width="1"/>
    
      <line x1="60" y1="126.25" x2="760" y2="126.25"
            stroke="#c9d1d9" stroke-width="1"/>
    
      <line x1="60" y1="55" x2="760" y2="55"
            stroke="#c9d1d9" stroke-width="1"/>
    
  </g>

  <!-- Y-axis labels -->
  
    <text x="50" y="344" text-anchor="end"
          fill="#8b949e" font-family="system-ui, -apple-system, sans-serif" font-size="11">
      60.2K
    </text>
  
    <text x="50" y="272.75" text-anchor="end"
          fill="#8b949e" font-family="system-ui, -apple-system, sans-serif" font-size="11">
      108.0K
    </text>
  
    <text x="50" y="201.5" text-anchor="end"
          fill="#8b949e" font-family="system-ui, -apple-system, sans-serif" font-size="11">
      155.9K
    </text>
  
    <text x="50" y="130.25" text-anchor="end"
          fill="#8b949e" font-family="system-ui, -apple-system, sans-serif" font-size="11">
      203.8K
    </text>
  
    <text x="50" y="59" text-anchor="end"
          fill="#8b949e" font-family="system-ui, -apple-system, sans-serif" font-size="11">
      251.7K
    </text>
  

  <!-- X-axis labels -->
  
    <text x="60" y="360" text-anchor="middle"
          fill="#8b949e" font-family="system-ui, -apple-system, sans-serif" font-size="11">
      Nov 25
    </text>
  
    <text x="146.63366336633663" y="360" text-anchor="middle"
          fill="#8b949e" font-family="system-ui, -apple-system, sans-serif" font-size="11">
      Dec 20
    </text>
  
    <text x="233.26732673267327" y="360" text-anchor="middle"
          fill="#8b949e" font-family="system-ui, -apple-system, sans-serif" font-size="11">
      Jan 14
    </text>
  
    <text x="319.9009900990099" y="360" text-anchor="middle"
          fill="#8b949e" font-family="system-ui, -apple-system, sans-serif" font-size="11">
      Feb 8
    </text>
  
    <text x="406.53465346534654" y="360" text-anchor="middle"
          fill="#8b949e" font-family="system-ui, -apple-system, sans-serif" font-size="11">
      Mar 5
    </text>
  
    <text x="493.16831683168317" y="360" text-anchor="middle"
          fill="#8b949e" font-family="system-ui, -apple-system, sans-serif" font-size="11">
      Mar 30
    </text>
  
    <text x="579.8019801980198" y="360" text-anchor="middle"
          fill="#8b949e" font-family="system-ui, -apple-system, sans-serif" font-size="11">
      Apr 24
    </text>
  
    <text x="666.4356435643564" y="360" text-anchor="middle"
          fill="#8b949e" font-family="system-ui, -apple-system, sans-serif" font-size="11">
      May 19
    </text>
  
    <text x="753.0693069306931" y="360" text-anchor="middle"
          fill="#8b949e" font-family="system-ui, -apple-system, sans-serif" font-size="11">
      Jun 13
    </text>
  
    <text x="760" y="360" text-anchor="middle"
          fill="#8b949e" font-family="system-ui, -apple-system, sans-serif" font-size="11">
      Jun 15
    </text>
  

  <!-- Area under line -->
  <path d="M 60 340
    L 60.00 340.00 L 63.47 339.78 L 66.93 339.41 L 70.40 339.06 L 73.86 338.38 L 77.33 337.67 L 80.79 337.11 L 84.26 336.59 L 87.72 336.13 L 91.19 335.59 L 94.65 334.98 L 98.12 334.33 L 101.58 333.74 L 105.05 333.12 L 108.51 332.66 L 111.98 332.19 L 115.45 331.54 L 118.91 331.11 L 122.38 330.52 L 125.84 329.83 L 129.31 329.31 L 132.77 328.89 L 136.24 328.61 L 139.70 328.38 L 143.17 327.96 L 146.63 327.66 L 150.10 327.00 L 153.56 326.74 L 157.03 326.40 L 160.50 325.96 L 163.96 325.67 L 167.43 325.37 L 170.89 325.05 L 174.36 324.83 L 177.82 324.64 L 181.29 324.35 L 184.75 323.99 L 188.22 323.67 L 191.68 323.26 L 195.15 322.81 L 198.61 322.40 L 202.08 321.91 L 205.54 321.42 L 209.01 320.93 L 212.48 320.40 L 215.94 319.89 L 219.41 319.31 L 222.87 318.79 L 226.34 318.35 L 229.80 318.00 L 233.27 317.51 L 236.73 316.95 L 240.20 316.44 L 243.66 315.84 L 247.13 315.10 L 250.59 314.55 L 254.06 314.09 L 257.52 313.66 L 260.99 313.13 L 264.46 312.53 L 267.92 311.85 L 271.39 311.15 L 274.85 310.47 L 278.32 309.87 L 281.78 309.28 L 285.25 308.76 L 288.71 308.23 L 292.18 307.63 L 295.64 306.89 L 299.11 306.34 L 302.57 305.84 L 306.04 305.29 L 309.50 304.78 L 312.97 304.22 L 316.44 303.63 L 319.90 303.02 L 323.37 302.48 L 326.83 302.02 L 330.30 301.52 L 333.76 300.97 L 337.23 300.47 L 340.69 299.81 L 344.16 299.24 L 347.62 298.70 L 351.09 298.24 L 354.55 297.80 L 358.02 297.36 L 361.49 296.83 L 364.95 296.29 L 368.42 295.63 L 371.88 295.10 L 375.35 294.66 L 378.81 294.21 L 382.28 293.78 L 385.74 293.25 L 389.21 292.71 L 392.67 291.51 L 396.14 289.12 L 399.60 286.28 L 403.07 283.68 L 406.53 282.37 L 410.00 280.39 L 413.47 279.07 L 416.93 277.91 L 420.40 276.78 L 423.86 275.72 L 427.33 274.07 L 430.79 272.75 L 434.26 271.07 L 437.72 270.73 L 441.19 270.68 L 444.65 270.62 L 448.12 270.58 L 451.58 270.51 L 455.05 270.45 L 458.51 270.43 L 461.98 270.35 L 465.45 270.27 L 468.91 270.22 L 472.38 270.20 L 475.84 270.11 L 479.31 267.96 L 482.77 264.58 L 486.24 262.31 L 489.70 259.69 L 493.17 256.98 L 496.63 254.85 L 500.10 252.48 L 503.56 248.86 L 507.03 243.98 L 510.50 240.80 L 513.96 237.01 L 517.43 232.79 L 520.89 229.40 L 524.36 225.72 L 527.82 222.46 L 531.29 219.23 L 534.75 216.01 L 538.22 211.63 L 541.68 207.23 L 545.15 203.56 L 548.61 200.49 L 552.08 197.51 L 555.54 193.55 L 559.01 190.48 L 562.48 187.44 L 565.94 184.60 L 569.41 181.93 L 572.87 179.19 L 576.34 176.85 L 579.80 174.42 L 583.27 171.94 L 586.73 169.32 L 590.20 166.92 L 593.66 164.72 L 597.13 160.73 L 600.59 157.40 L 604.06 154.19 L 607.52 151.11 L 610.99 146.25 L 614.46 143.18 L 617.92 140.52 L 621.39 137.37 L 624.85 132.74 L 628.32 129.40 L 631.78 126.59 L 635.25 124.21 L 638.71 121.95 L 642.18 120.11 L 645.64 118.04 L 649.11 116.35 L 652.57 114.36 L 656.04 111.50 L 659.50 109.04 L 662.97 106.90 L 666.44 105.04 L 669.90 103.14 L 673.37 101.53 L 676.83 98.82 L 680.30 96.51 L 683.76 94.21 L 687.23 92.32 L 690.69 90.58 L 694.16 89.04 L 697.62 86.39 L 701.09 84.24 L 704.55 82.29 L 708.02 80.42 L 711.49 78.78 L 714.95 77.20 L 718.42 75.75 L 721.88 74.36 L 725.35 73.08 L 728.81 71.49 L 732.28 69.77 L 735.74 68.20 L 739.21 65.75 L 742.67 63.98 L 746.14 62.28 L 749.60 60.79 L 753.07 59.05 L 756.53 56.90 L 760.00 55.00
    L 760 340
    Z" fill="url(#areaGradient)" class="area-path"/>

  <!-- Main line with glow -->
  <path d="M 60.00 340.00 L 63.47 339.78 L 66.93 339.41 L 70.40 339.06 L 73.86 338.38 L 77.33 337.67 L 80.79 337.11 L 84.26 336.59 L 87.72 336.13 L 91.19 335.59 L 94.65 334.98 L 98.12 334.33 L 101.58 333.74 L 105.05 333.12 L 108.51 332.66 L 111.98 332.19 L 115.45 331.54 L 118.91 331.11 L 122.38 330.52 L 125.84 329.83 L 129.31 329.31 L 132.77 328.89 L 136.24 328.61 L 139.70 328.38 L 143.17 327.96 L 146.63 327.66 L 150.10 327.00 L 153.56 326.74 L 157.03 326.40 L 160.50 325.96 L 163.96 325.67 L 167.43 325.37 L 170.89 325.05 L 174.36 324.83 L 177.82 324.64 L 181.29 324.35 L 184.75 323.99 L 188.22 323.67 L 191.68 323.26 L 195.15 322.81 L 198.61 322.40 L 202.08 321.91 L 205.54 321.42 L 209.01 320.93 L 212.48 320.40 L 215.94 319.89 L 219.41 319.31 L 222.87 318.79 L 226.34 318.35 L 229.80 318.00 L 233.27 317.51 L 236.73 316.95 L 240.20 316.44 L 243.66 315.84 L 247.13 315.10 L 250.59 314.55 L 254.06 314.09 L 257.52 313.66 L 260.99 313.13 L 264.46 312.53 L 267.92 311.85 L 271.39 311.15 L 274.85 310.47 L 278.32 309.87 L 281.78 309.28 L 285.25 308.76 L 288.71 308.23 L 292.18 307.63 L 295.64 306.89 L 299.11 306.34 L 302.57 305.84 L 306.04 305.29 L 309.50 304.78 L 312.97 304.22 L 316.44 303.63 L 319.90 303.02 L 323.37 302.48 L 326.83 302.02 L 330.30 301.52 L 333.76 300.97 L 337.23 300.47 L 340.69 299.81 L 344.16 299.24 L 347.62 298.70 L 351.09 298.24 L 354.55 297.80 L 358.02 297.36 L 361.49 296.83 L 364.95 296.29 L 368.42 295.63 L 371.88 295.10 L 375.35 294.66 L 378.81 294.21 L 382.28 293.78 L 385.74 293.25 L 389.21 292.71 L 392.67 291.51 L 396.14 289.12 L 399.60 286.28 L 403.07 283.68 L 406.53 282.37 L 410.00 280.39 L 413.47 279.07 L 416.93 277.91 L 420.40 276.78 L 423.86 275.72 L 427.33 274.07 L 430.79 272.75 L 434.26 271.07 L 437.72 270.73 L 441.19 270.68 L 444.65 270.62 L 448.12 270.58 L 451.58 270.51 L 455.05 270.45 L 458.51 270.43 L 461.98 270.35 L 465.45 270.27 L 468.91 270.22 L 472.38 270.20 L 475.84 270.11 L 479.31 267.96 L 482.77 264.58 L 486.24 262.31 L 489.70 259.69 L 493.17 256.98 L 496.63 254.85 L 500.10 252.48 L 503.56 248.86 L 507.03 243.98 L 510.50 240.80 L 513.96 237.01 L 517.43 232.79 L 520.89 229.40 L 524.36 225.72 L 527.82 222.46 L 531.29 219.23 L 534.75 216.01 L 538.22 211.63 L 541.68 207.23 L 545.15 203.56 L 548.61 200.49 L 552.08 197.51 L 555.54 193.55 L 559.01 190.48 L 562.48 187.44 L 565.94 184.60 L 569.41 181.93 L 572.87 179.19 L 576.34 176.85 L 579.80 174.42 L 583.27 171.94 L 586.73 169.32 L 590.20 166.92 L 593.66 164.72 L 597.13 160.73 L 600.59 157.40 L 604.06 154.19 L 607.52 151.11 L 610.99 146.25 L 614.46 143.18 L 617.92 140.52 L 621.39 137.37 L 624.85 132.74 L 628.32 129.40 L 631.78 126.59 L 635.25 124.21 L 638.71 121.95 L 642.18 120.11 L 645.64 118.04 L 649.11 116.35 L 652.57 114.36 L 656.04 111.50 L 659.50 109.04 L 662.97 106.90 L 666.44 105.04 L 669.90 103.14 L 673.37 101.53 L 676.83 98.82 L 680.30 96.51 L 683.76 94.21 L 687.23 92.32 L 690.69 90.58 L 694.16 89.04 L 697.62 86.39 L 701.09 84.24 L 704.55 82.29 L 708.02 80.42 L 711.49 78.78 L 714.95 77.20 L 718.42 75.75 L 721.88 74.36 L 725.35 73.08 L 728.81 71.49 L 732.28 69.77 L 735.74 68.20 L 739.21 65.75 L 742.67 63.98 L 746.14 62.28 L 749.60 60.79 L 753.07 59.05 L 756.53 56.90 L 760.00 55.00" fill="none" stroke="#3b82f6" stroke-width="3"
        stroke-linecap="round" stroke-linejoin="round" filter="url(#glow)" class="line-path"/>

  <!-- Data points -->
  
    <circle cx="60" cy="340" r="4" fill="#3b82f6" stroke="#0d1117" stroke-width="2" class="data-point"/>
  
    <circle cx="63.46534653465346" cy="339.7813036692123" r="4" fill="#3b82f6" stroke="#0d1117" stroke-width="2" class="data-point"/>
  
    <circle cx="66.93069306930693" cy="339.40937113385917" r="4" fill="#3b82f6" stroke="#0d1117" stroke-width="2" class="data-point"/>
  
    <circle cx="70.39603960396039" cy="339.06421774105144" r="4" fill="#3b82f6" stroke="#0d1117" stroke-width="2" class="data-point"/>
  
    <circle cx="73.86138613861387" cy="338.3783741458602" r="4" fill="#3b82f6" stroke="#0d1117" stroke-width="2" class="data-point"/>
  
    <circle cx="77.32673267326733" cy="337.6702145985478" r="4" fill="#3b82f6" stroke="#0d1117" stroke-width="2" class="data-point"/>
  
    <circle cx="80.79207920792079" cy="337.11231579551804" r="4" fill="#3b82f6" stroke="#0d1117" stroke-width="2" class="data-point"/>
  
    <circle cx="84.25742574257426" cy="336.5916102460236" r="4" fill="#3b82f6" stroke="#0d1117" stroke-width="2" class="data-point"/>
  
    <circle cx="87.72277227722772" cy="336.12892617204426" r="4" fill="#3b82f6" stroke="#0d1117" stroke-width="2" class="data-point"/>
  
    <circle cx="91.18811881188118" cy="335.58590467042865" r="4" fill="#3b82f6" stroke="#0d1117" stroke-width="2" class="data-point"/>
  
    <circle cx="94.65346534653466" cy="334.98039850287364" r="4" fill="#3b82f6" stroke="#0d1117" stroke-width="2" class="data-point"/>
  
    <circle cx="98.11881188118812" cy="334.3317481612178" r="4" fill="#3b82f6" stroke="#0d1117" stroke-width="2" class="data-point"/>
  
    <circle cx="101.58415841584159" cy="333.7426070252183" r="4" fill="#3b82f6" stroke="#0d1117" stroke-width="2" class="data-point"/>
  
    <circle cx="105.04950495049505" cy="333.1162726356836" r="4" fill="#3b82f6" stroke="#0d1117" stroke-width="2" class="data-point"/>
  
    <circle cx="108.51485148514851" cy="332.6595394822699" r="4" fill="#3b82f6" stroke="#0d1117" stroke-width="2" class="data-point"/>
  
    <circle cx="111.98019801980197" cy="332.1864412973007" r="4" fill="#3b82f6" stroke="#0d1117" stroke-width="2" class="data-point"/>
  
    <circle cx="115.44554455445544" cy="331.5437418762104" r="4" fill="#3b82f6" stroke="#0d1117" stroke-width="2" class="data-point"/>
  
    <circle cx="118.91089108910892" cy="331.11378786534215" r="4" fill="#3b82f6" stroke="#0d1117" stroke-width="2" class="data-point"/>
  
    <circle cx="122.37623762376236" cy="330.51869580877707" r="4" fill="#3b82f6" stroke="#0d1117" stroke-width="2" class="data-point"/>
  
    <circle cx="125.84158415841584" cy="329.8313644834444" r="4" fill="#3b82f6" stroke="#0d1117" stroke-width="2" class="data-point"/>
  
    <circle cx="129.30693069306932" cy="329.31363439423285" r="4" fill="#3b82f6" stroke="#0d1117" stroke-width="2" class="data-point"/>
  
    <circle cx="132.77227722772278" cy="328.8881435737888" r="4" fill="#3b82f6" stroke="#0d1117" stroke-width="2" class="data-point"/>
  
    <circle cx="136.23762376237624" cy="328.61291349762746" r="4" fill="#3b82f6" stroke="#0d1117" stroke-width="2" class="data-point"/>
  
    <circle cx="139.7029702970297" cy="328.3838030558499" r="4" fill="#3b82f6" stroke="#0d1117" stroke-width="2" class="data-point"/>
  
    <circle cx="143.16831683168317" cy="327.9597999655473" r="4" fill="#3b82f6" stroke="#0d1117" stroke-width="2" class="data-point"/>
  
    <circle cx="146.63366336633663" cy="327.65779074684053" r="4" fill="#3b82f6" stroke="#0d1117" stroke-width="2" class="data-point"/>
  
    <circle cx="150.0990099009901" cy="326.99575083391187" r="4" fill="#3b82f6" stroke="#0d1117" stroke-width="2" class="data-point"/>
  
    <circle cx="153.56435643564356" cy="326.73539805916465" r="4" fill="#3b82f6" stroke="#0d1117" stroke-width="2" class="data-point"/>
  
    <circle cx="157.02970297029702" cy="326.3991710472054" r="4" fill="#3b82f6" stroke="#0d1117" stroke-width="2" class="data-point"/>
  
    <circle cx="160.4950495049505" cy="325.9647538459129" r="4" fill="#3b82f6" stroke="#0d1117" stroke-width="2" class="data-point"/>
  
    <circle cx="163.96039603960395" cy="325.6672078176304" r="4" fill="#3b82f6" stroke="#0d1117" stroke-width="2" class="data-point"/>
  
    <circle cx="167.4257425742574" cy="325.3651985989236" r="4" fill="#3b82f6" stroke="#0d1117" stroke-width="2" class="data-point"/>
  
    <circle cx="170.89108910891088" cy="325.0483120788027" r="4" fill="#3b82f6" stroke="#0d1117" stroke-width="2" class="data-point"/>
  
    <circle cx="174.35643564356437" cy="324.82812801787367" r="4" fill="#3b82f6" stroke="#0d1117" stroke-width="2" class="data-point"/>
  
    <circle cx="177.82178217821783" cy="324.63769855977284" r="4" fill="#3b82f6" stroke="#0d1117" stroke-width="2" class="data-point"/>
  
    <circle cx="181.28712871287127" cy="324.34759118219733" r="4" fill="#3b82f6" stroke="#0d1117" stroke-width="2" class="data-point"/>
  
    <circle cx="184.75247524752473" cy="323.99499913868254" r="4" fill="#3b82f6" stroke="#0d1117" stroke-width="2" class="data-point"/>
  
    <circle cx="188.21782178217822" cy="323.6706739678546" r="4" fill="#3b82f6" stroke="#0d1117" stroke-width="2" class="data-point"/>
  
    <circle cx="191.68316831683168" cy="323.2600604488247" r="4" fill="#3b82f6" stroke="#0d1117" stroke-width="2" class="data-point"/>
  
    <circle cx="195.14851485148515" cy="322.8122536762595" r="4" fill="#3b82f6" stroke="#0d1117" stroke-width="2" class="data-point"/>
  
    <circle cx="198.6138613861386" cy="322.40164015722956" r="4" fill="#3b82f6" stroke="#0d1117" stroke-width="2" class="data-point"/>
  
    <circle cx="202.0792079207921" cy="321.9062260201392" r="4" fill="#3b82f6" stroke="#0d1117" stroke-width="2" class="data-point"/>
  
    <circle cx="205.54455445544554" cy="321.4197382638972" r="4" fill="#3b82f6" stroke="#0d1117" stroke-width="2" class="data-point"/>
  
    <circle cx="209.009900990099" cy="320.9332505076553" r="4" fill="#3b82f6" stroke="#0d1117" stroke-width="2" class="data-point"/>
  
    <circle cx="212.47524752475246" cy="320.4006431170296" r="4" fill="#3b82f6" stroke="#0d1117" stroke-width="2" class="data-point"/>
  
    <circle cx="215.94059405940595" cy="319.89183940866644" r="4" fill="#3b82f6" stroke="#0d1117" stroke-width="2" class="data-point"/>
  
    <circle cx="219.40594059405942" cy="319.31013692337405" r="4" fill="#3b82f6" stroke="#0d1117" stroke-width="2" class="data-point"/>
  
    <circle cx="222.87128712871288" cy="318.79091910402104" r="4" fill="#3b82f6" stroke="#0d1117" stroke-width="2" class="data-point"/>
  
    <circle cx="226.33663366336634" cy="318.3520387123043" r="4" fill="#3b82f6" stroke="#0d1117" stroke-width="2" class="data-point"/>
  
    <circle cx="229.8019801980198" cy="318.0009343989309" r="4" fill="#3b82f6" stroke="#0d1117" stroke-width="2" class="data-point"/>
  
    <circle cx="233.26732673267327" cy="317.50998345226475" r="4" fill="#3b82f6" stroke="#0d1117" stroke-width="2" class="data-point"/>
  
    <circle cx="236.73267326732673" cy="316.94910918895215" r="4" fill="#3b82f6" stroke="#0d1117" stroke-width="2" class="data-point"/>
  
    <circle cx="240.1980198019802" cy="316.4358422901648" r="4" fill="#3b82f6" stroke="#0d1117" stroke-width="2" class="data-point"/>
  
    <circle cx="243.66336633663366" cy="315.8362870431755" r="4" fill="#3b82f6" stroke="#0d1117" stroke-width="2" class="data-point"/>
  
    <circle cx="247.12871287128715" cy="315.0968851628934" r="4" fill="#3b82f6" stroke="#0d1117" stroke-width="2" class="data-point"/>
  
    <circle cx="250.5940594059406" cy="314.5464250105707" r="4" fill="#3b82f6" stroke="#0d1117" stroke-width="2" class="data-point"/>
  
    <circle cx="254.05940594059408" cy="314.08969185715705" r="4" fill="#3b82f6" stroke="#0d1117" stroke-width="2" class="data-point"/>
  
    <circle cx="257.5247524752475" cy="313.6552746558645" r="4" fill="#3b82f6" stroke="#0d1117" stroke-width="2" class="data-point"/>
  
    <circle cx="260.990099009901" cy="313.1330813762287" r="4" fill="#3b82f6" stroke="#0d1117" stroke-width="2" class="data-point"/>
  
    <circle cx="264.45544554455444" cy="312.5260874785323" r="4" fill="#3b82f6" stroke="#0d1117" stroke-width="2" class="data-point"/>
  
    <circle cx="267.9207920792079" cy="311.85363345461377" r="4" fill="#3b82f6" stroke="#0d1117" stroke-width="2" class="data-point"/>
  
    <circle cx="271.38613861386136" cy="311.14696163744276" r="4" fill="#3b82f6" stroke="#0d1117" stroke-width="2" class="data-point"/>
  
    <circle cx="274.8514851485148" cy="310.4685566929586" r="4" fill="#3b82f6" stroke="#0d1117" stroke-width="2" class="data-point"/>
  
    <circle cx="278.3168316831683" cy="309.87197690625214" r="4" fill="#3b82f6" stroke="#0d1117" stroke-width="2" class="data-point"/>
  
    <circle cx="281.78217821782175" cy="309.2798603099699" r="4" fill="#3b82f6" stroke="#0d1117" stroke-width="2" class="data-point"/>
  
    <circle cx="285.2475247524752" cy="308.75766703033406" r="4" fill="#3b82f6" stroke="#0d1117" stroke-width="2" class="data-point"/>
  
    <circle cx="288.71287128712873" cy="308.2250596397083" r="4" fill="#3b82f6" stroke="#0d1117" stroke-width="2" class="data-point"/>
  
    <circle cx="292.1782178217822" cy="307.62996758314324" r="4" fill="#3b82f6" stroke="#0d1117" stroke-width="2" class="data-point"/>
  
    <circle cx="295.64356435643566" cy="306.88907797271975" r="4" fill="#3b82f6" stroke="#0d1117" stroke-width="2" class="data-point"/>
  
    <circle cx="299.1089108910891" cy="306.33713009025564" r="4" fill="#3b82f6" stroke="#0d1117" stroke-width="2" class="data-point"/>
  
    <circle cx="302.57425742574253" cy="305.8432036833066" r="4" fill="#3b82f6" stroke="#0d1117" stroke-width="2" class="data-point"/>
  
    <circle cx="306.039603960396" cy="305.29423126112533" r="4" fill="#3b82f6" stroke="#0d1117" stroke-width="2" class="data-point"/>
  
    <circle cx="309.50495049504946" cy="304.7824520924794" r="4" fill="#3b82f6" stroke="#0d1117" stroke-width="2" class="data-point"/>
  
    <circle cx="312.9702970297029" cy="304.2200900990254" r="4" fill="#3b82f6" stroke="#0d1117" stroke-width="2" class="data-point"/>
  
    <circle cx="316.43564356435644" cy="303.6339244233088" r="4" fill="#3b82f6" stroke="#0d1117" stroke-width="2" class="data-point"/>
  
    <circle cx="319.9009900990099" cy="303.0209796050468" r="4" fill="#3b82f6" stroke="#0d1117" stroke-width="2" class="data-point"/>
  
    <circle cx="323.36633663366337" cy="302.48390902399683" r="4" fill="#3b82f6" stroke="#0d1117" stroke-width="2" class="data-point"/>
  
    <circle cx="326.83168316831683" cy="302.0242004103003" r="4" fill="#3b82f6" stroke="#0d1117" stroke-width="2" class="data-point"/>
  
    <circle cx="330.2970297029703" cy="301.5198598923614" r="4" fill="#3b82f6" stroke="#0d1117" stroke-width="2" class="data-point"/>
  
    <circle cx="333.76237623762376" cy="300.973862930463" r="4" fill="#3b82f6" stroke="#0d1117" stroke-width="2" class="data-point"/>
  
    <circle cx="337.2277227722772" cy="300.46803468238267" r="4" fill="#3b82f6" stroke="#0d1117" stroke-width="2" class="data-point"/>
  
    <circle cx="340.6930693069307" cy="299.8089702297369" r="4" fill="#3b82f6" stroke="#0d1117" stroke-width="2" class="data-point"/>
  
    <circle cx="344.1584158415842" cy="299.24214504585865" r="4" fill="#3b82f6" stroke="#0d1117" stroke-width="2" class="data-point"/>
  
    <circle cx="347.6237623762376" cy="298.69614808396017" r="4" fill="#3b82f6" stroke="#0d1117" stroke-width="2" class="data-point"/>
  
    <circle cx="351.08910891089107" cy="298.2423903908293" r="4" fill="#3b82f6" stroke="#0d1117" stroke-width="2" class="data-point"/>
  
    <circle cx="354.55445544554453" cy="297.80202226897114" r="4" fill="#3b82f6" stroke="#0d1117" stroke-width="2" class="data-point"/>
  
    <circle cx="358.019801980198" cy="297.3601664169716" r="4" fill="#3b82f6" stroke="#0d1117" stroke-width="2" class="data-point"/>
  
    <circle cx="361.48514851485146" cy="296.8320222167701" r="4" fill="#3b82f6" stroke="#0d1117" stroke-width="2" class="data-point"/>
  
    <circle cx="364.9504950495049" cy="296.2890007151545" r="4" fill="#3b82f6" stroke="#0d1117" stroke-width="2" class="data-point"/>
  
    <circle cx="368.41584158415844" cy="295.6299362625087" r="4" fill="#3b82f6" stroke="#0d1117" stroke-width="2" class="data-point"/>
  
    <circle cx="371.8811881188119" cy="295.0958411417415" r="4" fill="#3b82f6" stroke="#0d1117" stroke-width="2" class="data-point"/>
  
    <circle cx="375.34653465346537" cy="294.6599362103076" r="4" fill="#3b82f6" stroke="#0d1117" stroke-width="2" class="data-point"/>
  
    <circle cx="378.81188118811883" cy="294.2121294377424" r="4" fill="#3b82f6" stroke="#0d1117" stroke-width="2" class="data-point"/>
  
    <circle cx="382.2772277227723" cy="293.78366315701555" r="4" fill="#3b82f6" stroke="#0d1117" stroke-width="2" class="data-point"/>
  
    <circle cx="385.74257425742576" cy="293.2540312266726" r="4" fill="#3b82f6" stroke="#0d1117" stroke-width="2" class="data-point"/>
  
    <circle cx="389.20792079207916" cy="292.711009725057" r="4" fill="#3b82f6" stroke="#0d1117" stroke-width="2" class="data-point"/>
  
    <circle cx="392.6732673267327" cy="291.51041150093704" r="4" fill="#3b82f6" stroke="#0d1117" stroke-width="2" class="data-point"/>
  
    <circle cx="396.13861386138615" cy="289.1211168938283" r="4" fill="#3b82f6" stroke="#0d1117" stroke-width="2" class="data-point"/>
  
    <circle cx="399.6039603960396" cy="286.27508913330587" r="4" fill="#3b82f6" stroke="#0d1117" stroke-width="2" class="data-point"/>
  
    <circle cx="403.0693069306931" cy="283.68197549682355" r="4" fill="#3b82f6" stroke="#0d1117" stroke-width="2" class="data-point"/>
  
    <circle cx="406.53465346534654" cy="282.3668220518148" r="4" fill="#3b82f6" stroke="#0d1117" stroke-width="2" class="data-point"/>
  
    <circle cx="410" cy="280.3851655034531" r="4" fill="#3b82f6" stroke="#0d1117" stroke-width="2" class="data-point"/>
  
    <circle cx="413.46534653465346" cy="279.0685243283029" r="4" fill="#3b82f6" stroke="#0d1117" stroke-width="2" class="data-point"/>
  
    <circle cx="416.9306930693069" cy="277.91404573856664" r="4" fill="#3b82f6" stroke="#0d1117" stroke-width="2" class="data-point"/>
  
    <circle cx="420.3960396039604" cy="276.78485856123444" r="4" fill="#3b82f6" stroke="#0d1117" stroke-width="2" class="data-point"/>
  
    <circle cx="423.86138613861385" cy="275.7211315101244" r="4" fill="#3b82f6" stroke="#0d1117" stroke-width="2" class="data-point"/>
  
    <circle cx="427.3267326732673" cy="274.0667755928735" r="4" fill="#3b82f6" stroke="#0d1117" stroke-width="2" class="data-point"/>
  
    <circle cx="430.79207920792084" cy="272.75162214786474" r="4" fill="#3b82f6" stroke="#0d1117" stroke-width="2" class="data-point"/>
  
    <circle cx="434.2574257425743" cy="271.0704870880684" r="4" fill="#3b82f6" stroke="#0d1117" stroke-width="2" class="data-point"/>
  
    <circle cx="437.72277227722776" cy="270.7268214254021" r="4" fill="#3b82f6" stroke="#0d1117" stroke-width="2" class="data-point"/>
  
    <circle cx="441.1881188118812" cy="270.68218952115967" r="4" fill="#3b82f6" stroke="#0d1117" stroke-width="2" class="data-point"/>
  
    <circle cx="444.6534653465347" cy="270.62416804564464" r="4" fill="#3b82f6" stroke="#0d1117" stroke-width="2" class="data-point"/>
  
    <circle cx="448.11881188118815" cy="270.575072950978" r="4" fill="#3b82f6" stroke="#0d1117" stroke-width="2" class="data-point"/>
  
    <circle cx="451.5841584158416" cy="270.5111005548972" r="4" fill="#3b82f6" stroke="#0d1117" stroke-width="2" class="data-point"/>
  
    <circle cx="455.049504950495" cy="270.45456680952356" r="4" fill="#3b82f6" stroke="#0d1117" stroke-width="2" class="data-point"/>
  
    <circle cx="458.5148514851485" cy="270.4322508574024" r="4" fill="#3b82f6" stroke="#0d1117" stroke-width="2" class="data-point"/>
  
    <circle cx="461.98019801980195" cy="270.3504256996247" r="4" fill="#3b82f6" stroke="#0d1117" stroke-width="2" class="data-point"/>
  
    <circle cx="465.4455445544554" cy="270.2715760021298" r="4" fill="#3b82f6" stroke="#0d1117" stroke-width="2" class="data-point"/>
  
    <circle cx="468.9108910891089" cy="270.2195054471804" r="4" fill="#3b82f6" stroke="#0d1117" stroke-width="2" class="data-point"/>
  
    <circle cx="472.37623762376234" cy="270.20016495534196" r="4" fill="#3b82f6" stroke="#0d1117" stroke-width="2" class="data-point"/>
  
    <circle cx="475.8415841584158" cy="270.11238887699864" r="4" fill="#3b82f6" stroke="#0d1117" stroke-width="2" class="data-point"/>
  
    <circle cx="479.3069306930693" cy="267.9551801719503" r="4" fill="#3b82f6" stroke="#0d1117" stroke-width="2" class="data-point"/>
  
    <circle cx="482.7722772277228" cy="264.57654502080214" r="4" fill="#3b82f6" stroke="#0d1117" stroke-width="2" class="data-point"/>
  
    <circle cx="486.23762376237624" cy="262.31370747571344" r="4" fill="#3b82f6" stroke="#0d1117" stroke-width="2" class="data-point"/>
  
    <circle cx="489.7029702970297" cy="259.6863760459787" r="4" fill="#3b82f6" stroke="#0d1117" stroke-width="2" class="data-point"/>
  
    <circle cx="493.16831683168317" cy="256.97870718860764" r="4" fill="#3b82f6" stroke="#0d1117" stroke-width="2" class="data-point"/>
  
    <circle cx="496.63366336633663" cy="254.85422854667036" r="4" fill="#3b82f6" stroke="#0d1117" stroke-width="2" class="data-point"/>
  
    <circle cx="500.0990099009901" cy="252.47832351083434" r="4" fill="#3b82f6" stroke="#0d1117" stroke-width="2" class="data-point"/>
  
    <circle cx="503.56435643564356" cy="248.85867607677733" r="4" fill="#3b82f6" stroke="#0d1117" stroke-width="2" class="data-point"/>
  
    <circle cx="507.029702970297" cy="243.9804089430852" r="4" fill="#3b82f6" stroke="#0d1117" stroke-width="2" class="data-point"/>
  
    <circle cx="510.4950495049505" cy="240.79666644046208" r="4" fill="#3b82f6" stroke="#0d1117" stroke-width="2" class="data-point"/>
  
    <circle cx="513.9603960396039" cy="237.00741777028404" r="4" fill="#3b82f6" stroke="#0d1117" stroke-width="2" class="data-point"/>
  
    <circle cx="517.4257425742575" cy="232.78523962895486" r="4" fill="#3b82f6" stroke="#0d1117" stroke-width="2" class="data-point"/>
  
    <circle cx="520.8910891089109" cy="229.39916582709964" r="4" fill="#3b82f6" stroke="#0d1117" stroke-width="2" class="data-point"/>
  
    <circle cx="524.3564356435644" cy="225.7244723778104" r="4" fill="#3b82f6" stroke="#0d1117" stroke-width="2" class="data-point"/>
  
    <circle cx="527.8217821782179" cy="222.46485563797523" r="4" fill="#3b82f6" stroke="#0d1117" stroke-width="2" class="data-point"/>
  
    <circle cx="531.2871287128713" cy="219.23499350096833" r="4" fill="#3b82f6" stroke="#0d1117" stroke-width="2" class="data-point"/>
  
    <circle cx="534.7524752475248" cy="216.01405774480992" r="4" fill="#3b82f6" stroke="#0d1117" stroke-width="2" class="data-point"/>
  
    <circle cx="538.2178217821782" cy="211.6282292879254" r="4" fill="#3b82f6" stroke="#0d1117" stroke-width="2" class="data-point"/>
  
    <circle cx="541.6831683168316" cy="207.22901125976813" r="4" fill="#3b82f6" stroke="#0d1117" stroke-width="2" class="data-point"/>
  
    <circle cx="545.1485148514851" cy="203.56175646118592" r="4" fill="#3b82f6" stroke="#0d1117" stroke-width="2" class="data-point"/>
  
    <circle cx="548.6138613861385" cy="200.48810598902733" r="4" fill="#3b82f6" stroke="#0d1117" stroke-width="2" class="data-point"/>
  
    <circle cx="552.079207920792" cy="197.50669478563637" r="4" fill="#3b82f6" stroke="#0d1117" stroke-width="2" class="data-point"/>
  
    <circle cx="555.5445544554455" cy="193.54933260947868" r="4" fill="#3b82f6" stroke="#0d1117" stroke-width="2" class="data-point"/>
  
    <circle cx="559.0099009900989" cy="190.48014532774434" r="4" fill="#3b82f6" stroke="#0d1117" stroke-width="2" class="data-point"/>
  
    <circle cx="562.4752475247524" cy="187.44368810912107" r="4" fill="#3b82f6" stroke="#0d1117" stroke-width="2" class="data-point"/>
  
    <circle cx="565.9405940594058" cy="184.6036112691643" r="4" fill="#3b82f6" stroke="#0d1117" stroke-width="2" class="data-point"/>
  
    <circle cx="569.4059405940594" cy="181.92867247490435" r="4" fill="#3b82f6" stroke="#0d1117" stroke-width="2" class="data-point"/>
  
    <circle cx="572.8712871287129" cy="179.1882735544222" r="4" fill="#3b82f6" stroke="#0d1117" stroke-width="2" class="data-point"/>
  
    <circle cx="576.3366336633663" cy="176.84509858169727" r="4" fill="#3b82f6" stroke="#0d1117" stroke-width="2" class="data-point"/>
  
    <circle cx="579.8019801980198" cy="174.4186107210532" r="4" fill="#3b82f6" stroke="#0d1117" stroke-width="2" class="data-point"/>
  
    <circle cx="583.2673267326733" cy="171.94154003560112" r="4" fill="#3b82f6" stroke="#0d1117" stroke-width="2" class="data-point"/>
  
    <circle cx="586.7326732673267" cy="169.32313498671485" r="4" fill="#3b82f6" stroke="#0d1117" stroke-width="2" class="data-point"/>
  
    <circle cx="590.1980198019802" cy="166.92045080833336" r="4" fill="#3b82f6" stroke="#0d1117" stroke-width="2" class="data-point"/>
  
    <circle cx="593.6633663366337" cy="164.72009792918405" r="4" fill="#3b82f6" stroke="#0d1117" stroke-width="2" class="data-point"/>
  
    <circle cx="597.1287128712871" cy="160.7329811501981" r="4" fill="#3b82f6" stroke="#0d1117" stroke-width="2" class="data-point"/>
  
    <circle cx="600.5940594059406" cy="157.39600244300948" r="4" fill="#3b82f6" stroke="#0d1117" stroke-width="2" class="data-point"/>
  
    <circle cx="604.059405940594" cy="154.19143171840662" r="4" fill="#3b82f6" stroke="#0d1117" stroke-width="2" class="data-point"/>
  
    <circle cx="607.5247524752475" cy="151.1133180558238" r="4" fill="#3b82f6" stroke="#0d1117" stroke-width="2" class="data-point"/>
  
    <circle cx="610.990099009901" cy="146.25290368382863" r="4" fill="#3b82f6" stroke="#0d1117" stroke-width="2" class="data-point"/>
  
    <circle cx="614.4554455445544" cy="143.17776548152864" r="4" fill="#3b82f6" stroke="#0d1117" stroke-width="2" class="data-point"/>
  
    <circle cx="617.9207920792079" cy="140.51621625854142" r="4" fill="#3b82f6" stroke="#0d1117" stroke-width="2" class="data-point"/>
  
    <circle cx="621.3861386138614" cy="137.37264246973643" r="4" fill="#3b82f6" stroke="#0d1117" stroke-width="2" class="data-point"/>
  
    <circle cx="624.8514851485149" cy="132.73836307923597" r="4" fill="#3b82f6" stroke="#0d1117" stroke-width="2" class="data-point"/>
  
    <circle cx="628.3168316831684" cy="129.40435983233021" r="4" fill="#3b82f6" stroke="#0d1117" stroke-width="2" class="data-point"/>
  
    <circle cx="631.7821782178218" cy="126.58957440477747" r="4" fill="#3b82f6" stroke="#0d1117" stroke-width="2" class="data-point"/>
  
    <circle cx="635.2475247524752" cy="124.20771844837574" r="4" fill="#3b82f6" stroke="#0d1117" stroke-width="2" class="data-point"/>
  
    <circle cx="638.7128712871287" cy="121.94785636356991" r="4" fill="#3b82f6" stroke="#0d1117" stroke-width="2" class="data-point"/>
  
    <circle cx="642.1782178217821" cy="120.1105096389253" r="4" fill="#3b82f6" stroke="#0d1117" stroke-width="2" class="data-point"/>
  
    <circle cx="645.6435643564356" cy="118.04107701222026" r="4" fill="#3b82f6" stroke="#0d1117" stroke-width="2" class="data-point"/>
  
    <circle cx="649.1089108910891" cy="116.3539910318583" r="4" fill="#3b82f6" stroke="#0d1117" stroke-width="2" class="data-point"/>
  
    <circle cx="652.5742574257425" cy="114.36340810264818" r="4" fill="#3b82f6" stroke="#0d1117" stroke-width="2" class="data-point"/>
  
    <circle cx="656.039603960396" cy="111.49803985028737" r="4" fill="#3b82f6" stroke="#0d1117" stroke-width="2" class="data-point"/>
  
    <circle cx="659.5049504950495" cy="109.03584646624941" r="4" fill="#3b82f6" stroke="#0d1117" stroke-width="2" class="data-point"/>
  
    <circle cx="662.9702970297029" cy="106.89500279275657" r="4" fill="#3b82f6" stroke="#0d1117" stroke-width="2" class="data-point"/>
  
    <circle cx="666.4356435643564" cy="105.04426649683921" r="4" fill="#3b82f6" stroke="#0d1117" stroke-width="2" class="data-point"/>
  
    <circle cx="669.9009900990098" cy="103.13550872540677" r="4" fill="#3b82f6" stroke="#0d1117" stroke-width="2" class="data-point"/>
  
    <circle cx="673.3663366336634" cy="101.52578471239826" r="4" fill="#3b82f6" stroke="#0d1117" stroke-width="2" class="data-point"/>
  
    <circle cx="676.8316831683169" cy="98.81960358516864" r="4" fill="#3b82f6" stroke="#0d1117" stroke-width="2" class="data-point"/>
  
    <circle cx="680.2970297029703" cy="96.50618321527193" r="4" fill="#3b82f6" stroke="#0d1117" stroke-width="2" class="data-point"/>
  
    <circle cx="683.7623762376238" cy="94.21210333721362" r="4" fill="#3b82f6" stroke="#0d1117" stroke-width="2" class="data-point"/>
  
    <circle cx="687.2277227722773" cy="92.31822286719529" r="4" fill="#3b82f6" stroke="#0d1117" stroke-width="2" class="data-point"/>
  
    <circle cx="690.6930693069307" cy="90.5805540620253" r="4" fill="#3b82f6" stroke="#0d1117" stroke-width="2" class="data-point"/>
  
    <circle cx="694.1584158415842" cy="89.03777790538038" r="4" fill="#3b82f6" stroke="#0d1117" stroke-width="2" class="data-point"/>
  
    <circle cx="697.6237623762377" cy="86.39259371394866" r="4" fill="#3b82f6" stroke="#0d1117" stroke-width="2" class="data-point"/>
  
    <circle cx="701.0891089108911" cy="84.24431138974876" r="4" fill="#3b82f6" stroke="#0d1117" stroke-width="2" class="data-point"/>
  
    <circle cx="704.5544554455446" cy="82.28645852364969" r="4" fill="#3b82f6" stroke="#0d1117" stroke-width="2" class="data-point"/>
  
    <circle cx="708.019801980198" cy="80.41638173589394" r="4" fill="#3b82f6" stroke="#0d1117" stroke-width="2" class="data-point"/>
  
    <circle cx="711.4851485148515" cy="78.78434177076429" r="4" fill="#3b82f6" stroke="#0d1117" stroke-width="2" class="data-point"/>
  
    <circle cx="714.950495049505" cy="77.1999091701598" r="4" fill="#3b82f6" stroke="#0d1117" stroke-width="2" class="data-point"/>
  
    <circle cx="718.4158415841583" cy="75.74788455214104" r="4" fill="#3b82f6" stroke="#0d1117" stroke-width="2" class="data-point"/>
  
    <circle cx="721.8811881188118" cy="74.35536913977876" r="4" fill="#3b82f6" stroke="#0d1117" stroke-width="2" class="data-point"/>
  
    <circle cx="725.3465346534654" cy="73.07889667844671" r="4" fill="#3b82f6" stroke="#0d1117" stroke-width="2" class="data-point"/>
  
    <circle cx="728.8118811881188" cy="71.48553769699373" r="4" fill="#3b82f6" stroke="#0d1117" stroke-width="2" class="data-point"/>
  
    <circle cx="732.2772277227723" cy="69.77464803436919" r="4" fill="#3b82f6" stroke="#0d1117" stroke-width="2" class="data-point"/>
  
    <circle cx="735.7425742574258" cy="68.20062954475458" r="4" fill="#3b82f6" stroke="#0d1117" stroke-width="2" class="data-point"/>
  
    <circle cx="739.2079207920792" cy="65.75480119227217" r="4" fill="#3b82f6" stroke="#0d1117" stroke-width="2" class="data-point"/>
  
    <circle cx="742.6732673267327" cy="63.97993913356686" r="4" fill="#3b82f6" stroke="#0d1117" stroke-width="2" class="data-point"/>
  
    <circle cx="746.1386138613861" cy="62.282439042215" r="4" fill="#3b82f6" stroke="#0d1117" stroke-width="2" class="data-point"/>
  
    <circle cx="749.6039603960396" cy="60.7932211706609" r="4" fill="#3b82f6" stroke="#0d1117" stroke-width="2" class="data-point"/>
  
    <circle cx="753.0693069306931" cy="59.046625984642446" r="4" fill="#3b82f6" stroke="#0d1117" stroke-width="2" class="data-point"/>
  
    <circle cx="756.5346534653465" cy="56.90131912072536" r="4" fill="#3b82f6" stroke="#0d1117" stroke-width="2" class="data-point"/>
  
    <circle cx="760" cy="55" r="4" fill="#3b82f6" stroke="#0d1117" stroke-width="2" class="data-point"/>
  

  <!-- Axis lines -->
  <line x1="60" y1="55" x2="60" y2="340"
        stroke="#30363d" stroke-width="2"/>
  <line x1="60" y1="340" x2="760" y2="340"
        stroke="#30363d" stroke-width="2"/>
</svg>