<?xml version="1.0" encoding="UTF-8"?>
<svg width="800" height="400" xmlns="http://www.w3.org/2000/svg">
  <defs>
    <!-- Gradient for area fill -->
    <linearGradient id="areaGradient" x1="0%" y1="0%" x2="0%" y2="100%">
      <stop offset="0%" style="stop-color:#3b82f6;stop-opacity:0.3" />
      <stop offset="100%" style="stop-color:#3b82f6;stop-opacity:0.05" />
    </linearGradient>

    <!-- Glow filter for line -->
    <filter id="glow">
      <feGaussianBlur stdDeviation="2" result="coloredBlur"/>
      <feMerge>
        <feMergeNode in="coloredBlur"/>
        <feMergeNode in="SourceGraphic"/>
      </feMerge>
    </filter>

    <!-- Animation -->
    <style>
      @keyframes draw {
        from { stroke-dashoffset: 2000; }
        to { stroke-dashoffset: 0; }
      }
      @keyframes fadeIn {
        from { opacity: 0; }
        to { opacity: 1; }
      }
      .line-path {
        stroke-dasharray: 2000;
        stroke-dashoffset: 2000;
        animation: draw 1.5s ease-out forwards;
      }
      .area-path {
        opacity: 0;
        animation: fadeIn 1s ease-out 0.5s forwards;
      }
      .data-point {
        opacity: 0;
        animation: fadeIn 0.5s ease-out 1s forwards;
      }
    </style>
  </defs>

  <!-- Background -->
  <rect width="800" height="400" fill="#0d1117" rx="8"/>

  <!-- Title -->
  <text x="400" y="25" text-anchor="middle" fill="#c9d1d9" font-family="system-ui, -apple-system, sans-serif" font-size="16" font-weight="600">
    zxcloli666/SoundCloud-Desktop Downloads
  </text>

  <!-- Stats -->
  <text x="780" y="25" text-anchor="end" fill="#58a6ff" font-family="system-ui, -apple-system, sans-serif" font-size="14" font-weight="600">
    187.1K total
  </text>
  <text x="780" y="42" text-anchor="end" fill="#3fb950" font-family="system-ui, -apple-system, sans-serif" font-size="12">
    +2.1K (+1.1%)
  </text>

  <!-- Grid lines -->
  <g opacity="0.1">
    
      <line x1="60" y1="340" x2="760" y2="340"
            stroke="#c9d1d9" stroke-width="1"/>
    
      <line x1="60" y1="268.75" x2="760" y2="268.75"
            stroke="#c9d1d9" stroke-width="1"/>
    
      <line x1="60" y1="197.5" x2="760" y2="197.5"
            stroke="#c9d1d9" stroke-width="1"/>
    
      <line x1="60" y1="126.25" x2="760" y2="126.25"
            stroke="#c9d1d9" stroke-width="1"/>
    
      <line x1="60" y1="55" x2="760" y2="55"
            stroke="#c9d1d9" stroke-width="1"/>
    
  </g>

  <!-- Y-axis labels -->
  
    <text x="50" y="344" text-anchor="end"
          fill="#8b949e" font-family="system-ui, -apple-system, sans-serif" font-size="11">
      60.2K
    </text>
  
    <text x="50" y="272.75" text-anchor="end"
          fill="#8b949e" font-family="system-ui, -apple-system, sans-serif" font-size="11">
      91.9K
    </text>
  
    <text x="50" y="201.5" text-anchor="end"
          fill="#8b949e" font-family="system-ui, -apple-system, sans-serif" font-size="11">
      123.6K
    </text>
  
    <text x="50" y="130.25" text-anchor="end"
          fill="#8b949e" font-family="system-ui, -apple-system, sans-serif" font-size="11">
      155.4K
    </text>
  
    <text x="50" y="59" text-anchor="end"
          fill="#8b949e" font-family="system-ui, -apple-system, sans-serif" font-size="11">
      187.1K
    </text>
  

  <!-- X-axis labels -->
  
    <text x="60" y="360" text-anchor="middle"
          fill="#8b949e" font-family="system-ui, -apple-system, sans-serif" font-size="11">
      Nov 25
    </text>
  
    <text x="144.17721518987344" y="360" text-anchor="middle"
          fill="#8b949e" font-family="system-ui, -apple-system, sans-serif" font-size="11">
      Dec 14
    </text>
  
    <text x="228.35443037974684" y="360" text-anchor="middle"
          fill="#8b949e" font-family="system-ui, -apple-system, sans-serif" font-size="11">
      Jan 2
    </text>
  
    <text x="312.53164556962025" y="360" text-anchor="middle"
          fill="#8b949e" font-family="system-ui, -apple-system, sans-serif" font-size="11">
      Jan 21
    </text>
  
    <text x="396.7088607594937" y="360" text-anchor="middle"
          fill="#8b949e" font-family="system-ui, -apple-system, sans-serif" font-size="11">
      Feb 9
    </text>
  
    <text x="480.88607594936707" y="360" text-anchor="middle"
          fill="#8b949e" font-family="system-ui, -apple-system, sans-serif" font-size="11">
      Feb 28
    </text>
  
    <text x="565.0632911392405" y="360" text-anchor="middle"
          fill="#8b949e" font-family="system-ui, -apple-system, sans-serif" font-size="11">
      Mar 19
    </text>
  
    <text x="649.2405063291139" y="360" text-anchor="middle"
          fill="#8b949e" font-family="system-ui, -apple-system, sans-serif" font-size="11">
      Apr 7
    </text>
  
    <text x="733.4177215189874" y="360" text-anchor="middle"
          fill="#8b949e" font-family="system-ui, -apple-system, sans-serif" font-size="11">
      Apr 26
    </text>
  
    <text x="760" y="360" text-anchor="middle"
          fill="#8b949e" font-family="system-ui, -apple-system, sans-serif" font-size="11">
      May 2
    </text>
  

  <!-- Area under line -->
  <path d="M 60 340
    L 60.00 340.00 L 64.43 339.67 L 68.86 339.11 L 73.29 338.59 L 77.72 337.55 L 82.15 336.48 L 86.58 335.64 L 91.01 334.86 L 95.44 334.16 L 99.87 333.34 L 104.30 332.43 L 108.73 331.45 L 113.16 330.56 L 117.59 329.61 L 122.03 328.92 L 126.46 328.21 L 130.89 327.24 L 135.32 326.59 L 139.75 325.69 L 144.18 324.66 L 148.61 323.88 L 153.04 323.23 L 157.47 322.82 L 161.90 322.47 L 166.33 321.83 L 170.76 321.38 L 175.19 320.38 L 179.62 319.99 L 184.05 319.48 L 188.48 318.82 L 192.91 318.37 L 197.34 317.92 L 201.77 317.44 L 206.20 317.11 L 210.63 316.82 L 215.06 316.38 L 219.49 315.85 L 223.92 315.36 L 228.35 314.74 L 232.78 314.07 L 237.22 313.45 L 241.65 312.70 L 246.08 311.97 L 250.51 311.23 L 254.94 310.43 L 259.37 309.66 L 263.80 308.78 L 268.23 308.00 L 272.66 307.34 L 277.09 306.81 L 281.52 306.07 L 285.95 305.22 L 290.38 304.45 L 294.81 303.54 L 299.24 302.43 L 303.67 301.59 L 308.10 300.91 L 312.53 300.25 L 316.96 299.46 L 321.39 298.55 L 325.82 297.53 L 330.25 296.47 L 334.68 295.44 L 339.11 294.54 L 343.54 293.65 L 347.97 292.86 L 352.41 292.06 L 356.84 291.16 L 361.27 290.04 L 365.70 289.21 L 370.13 288.46 L 374.56 287.63 L 378.99 286.86 L 383.42 286.01 L 387.85 285.13 L 392.28 284.20 L 396.71 283.39 L 401.14 282.70 L 405.57 281.94 L 410.00 281.12 L 414.43 280.35 L 418.86 279.36 L 423.29 278.50 L 427.72 277.68 L 432.15 276.99 L 436.58 276.33 L 441.01 275.66 L 445.44 274.87 L 449.87 274.05 L 454.30 273.05 L 458.73 272.25 L 463.16 271.59 L 467.59 270.91 L 472.03 270.27 L 476.46 269.47 L 480.89 268.65 L 485.32 266.84 L 489.75 263.23 L 494.18 258.94 L 498.61 255.03 L 503.04 253.04 L 507.47 250.05 L 511.90 248.06 L 516.33 246.32 L 520.76 244.62 L 525.19 243.01 L 529.62 240.52 L 534.05 238.53 L 538.48 236.00 L 542.91 235.48 L 547.34 235.41 L 551.77 235.32 L 556.20 235.25 L 560.63 235.15 L 565.06 235.07 L 569.49 235.03 L 573.92 234.91 L 578.35 234.79 L 582.78 234.71 L 587.22 234.68 L 591.65 234.55 L 596.08 231.30 L 600.51 226.20 L 604.94 222.78 L 609.37 218.82 L 613.80 214.73 L 618.23 211.53 L 622.66 207.94 L 627.09 202.48 L 631.52 195.12 L 635.95 190.32 L 640.38 184.60 L 644.81 178.23 L 649.24 173.12 L 653.67 167.58 L 658.10 162.66 L 662.53 157.78 L 666.96 152.92 L 671.39 146.31 L 675.82 139.67 L 680.25 134.14 L 684.68 129.50 L 689.11 125.00 L 693.54 119.03 L 697.97 114.40 L 702.41 109.82 L 706.84 105.53 L 711.27 101.50 L 715.70 97.36 L 720.13 93.83 L 724.56 90.16 L 728.99 86.43 L 733.42 82.48 L 737.85 78.85 L 742.28 75.53 L 746.71 69.51 L 751.14 64.48 L 755.57 59.64 L 760.00 55.00
    L 760 340
    Z" fill="url(#areaGradient)" class="area-path"/>

  <!-- Main line with glow -->
  <path d="M 60.00 340.00 L 64.43 339.67 L 68.86 339.11 L 73.29 338.59 L 77.72 337.55 L 82.15 336.48 L 86.58 335.64 L 91.01 334.86 L 95.44 334.16 L 99.87 333.34 L 104.30 332.43 L 108.73 331.45 L 113.16 330.56 L 117.59 329.61 L 122.03 328.92 L 126.46 328.21 L 130.89 327.24 L 135.32 326.59 L 139.75 325.69 L 144.18 324.66 L 148.61 323.88 L 153.04 323.23 L 157.47 322.82 L 161.90 322.47 L 166.33 321.83 L 170.76 321.38 L 175.19 320.38 L 179.62 319.99 L 184.05 319.48 L 188.48 318.82 L 192.91 318.37 L 197.34 317.92 L 201.77 317.44 L 206.20 317.11 L 210.63 316.82 L 215.06 316.38 L 219.49 315.85 L 223.92 315.36 L 228.35 314.74 L 232.78 314.07 L 237.22 313.45 L 241.65 312.70 L 246.08 311.97 L 250.51 311.23 L 254.94 310.43 L 259.37 309.66 L 263.80 308.78 L 268.23 308.00 L 272.66 307.34 L 277.09 306.81 L 281.52 306.07 L 285.95 305.22 L 290.38 304.45 L 294.81 303.54 L 299.24 302.43 L 303.67 301.59 L 308.10 300.91 L 312.53 300.25 L 316.96 299.46 L 321.39 298.55 L 325.82 297.53 L 330.25 296.47 L 334.68 295.44 L 339.11 294.54 L 343.54 293.65 L 347.97 292.86 L 352.41 292.06 L 356.84 291.16 L 361.27 290.04 L 365.70 289.21 L 370.13 288.46 L 374.56 287.63 L 378.99 286.86 L 383.42 286.01 L 387.85 285.13 L 392.28 284.20 L 396.71 283.39 L 401.14 282.70 L 405.57 281.94 L 410.00 281.12 L 414.43 280.35 L 418.86 279.36 L 423.29 278.50 L 427.72 277.68 L 432.15 276.99 L 436.58 276.33 L 441.01 275.66 L 445.44 274.87 L 449.87 274.05 L 454.30 273.05 L 458.73 272.25 L 463.16 271.59 L 467.59 270.91 L 472.03 270.27 L 476.46 269.47 L 480.89 268.65 L 485.32 266.84 L 489.75 263.23 L 494.18 258.94 L 498.61 255.03 L 503.04 253.04 L 507.47 250.05 L 511.90 248.06 L 516.33 246.32 L 520.76 244.62 L 525.19 243.01 L 529.62 240.52 L 534.05 238.53 L 538.48 236.00 L 542.91 235.48 L 547.34 235.41 L 551.77 235.32 L 556.20 235.25 L 560.63 235.15 L 565.06 235.07 L 569.49 235.03 L 573.92 234.91 L 578.35 234.79 L 582.78 234.71 L 587.22 234.68 L 591.65 234.55 L 596.08 231.30 L 600.51 226.20 L 604.94 222.78 L 609.37 218.82 L 613.80 214.73 L 618.23 211.53 L 622.66 207.94 L 627.09 202.48 L 631.52 195.12 L 635.95 190.32 L 640.38 184.60 L 644.81 178.23 L 649.24 173.12 L 653.67 167.58 L 658.10 162.66 L 662.53 157.78 L 666.96 152.92 L 671.39 146.31 L 675.82 139.67 L 680.25 134.14 L 684.68 129.50 L 689.11 125.00 L 693.54 119.03 L 697.97 114.40 L 702.41 109.82 L 706.84 105.53 L 711.27 101.50 L 715.70 97.36 L 720.13 93.83 L 724.56 90.16 L 728.99 86.43 L 733.42 82.48 L 737.85 78.85 L 742.28 75.53 L 746.71 69.51 L 751.14 64.48 L 755.57 59.64 L 760.00 55.00" fill="none" stroke="#3b82f6" stroke-width="3"
        stroke-linecap="round" stroke-linejoin="round" filter="url(#glow)" class="line-path"/>

  <!-- Data points -->
  
    <circle cx="60" cy="340" r="4" fill="#3b82f6" stroke="#0d1117" stroke-width="2" class="data-point"/>
  
    <circle cx="64.43037974683544" cy="339.6700219749061" r="4" fill="#3b82f6" stroke="#0d1117" stroke-width="2" class="data-point"/>
  
    <circle cx="68.86075949367088" cy="339.1088348573994" r="4" fill="#3b82f6" stroke="#0d1117" stroke-width="2" class="data-point"/>
  
    <circle cx="73.29113924050633" cy="338.5880532123532" r="4" fill="#3b82f6" stroke="#0d1117" stroke-width="2" class="data-point"/>
  
    <circle cx="77.72151898734177" cy="337.5532241676709" r="4" fill="#3b82f6" stroke="#0d1117" stroke-width="2" class="data-point"/>
  
    <circle cx="82.15189873417722" cy="336.4847238959382" r="4" fill="#3b82f6" stroke="#0d1117" stroke-width="2" class="data-point"/>
  
    <circle cx="86.58227848101265" cy="335.64294321967816" r="4" fill="#3b82f6" stroke="#0d1117" stroke-width="2" class="data-point"/>
  
    <circle cx="91.0126582278481" cy="334.8572812551688" r="4" fill="#3b82f6" stroke="#0d1117" stroke-width="2" class="data-point"/>
  
    <circle cx="95.44303797468353" cy="334.1591644809905" r="4" fill="#3b82f6" stroke="#0d1117" stroke-width="2" class="data-point"/>
  
    <circle cx="99.87341772151899" cy="333.3398312894308" r="4" fill="#3b82f6" stroke="#0d1117" stroke-width="2" class="data-point"/>
  
    <circle cx="104.30379746835443" cy="332.4262186621299" r="4" fill="#3b82f6" stroke="#0d1117" stroke-width="2" class="data-point"/>
  
    <circle cx="108.73417721518987" cy="331.4475083291983" r="4" fill="#3b82f6" stroke="#0d1117" stroke-width="2" class="data-point"/>
  
    <circle cx="113.16455696202532" cy="330.5585879350677" r="4" fill="#3b82f6" stroke="#0d1117" stroke-width="2" class="data-point"/>
  
    <circle cx="117.59493670886076" cy="329.61354882918647" r="4" fill="#3b82f6" stroke="#0d1117" stroke-width="2" class="data-point"/>
  
    <circle cx="122.02531645569621" cy="328.92441104888826" r="4" fill="#3b82f6" stroke="#0d1117" stroke-width="2" class="data-point"/>
  
    <circle cx="126.45569620253166" cy="328.21058103541975" r="4" fill="#3b82f6" stroke="#0d1117" stroke-width="2" class="data-point"/>
  
    <circle cx="130.88607594936707" cy="327.24084969636823" r="4" fill="#3b82f6" stroke="#0d1117" stroke-width="2" class="data-point"/>
  
    <circle cx="135.31645569620252" cy="326.59211738853054" r="4" fill="#3b82f6" stroke="#0d1117" stroke-width="2" class="data-point"/>
  
    <circle cx="139.74683544303798" cy="325.6942180005198" r="4" fill="#3b82f6" stroke="#0d1117" stroke-width="2" class="data-point"/>
  
    <circle cx="144.17721518987344" cy="324.6571442073675" r="4" fill="#3b82f6" stroke="#0d1117" stroke-width="2" class="data-point"/>
  
    <circle cx="148.60759493670886" cy="323.8759717397982" r="4" fill="#3b82f6" stroke="#0d1117" stroke-width="2" class="data-point"/>
  
    <circle cx="153.0379746835443" cy="323.23397367737056" r="4" fill="#3b82f6" stroke="#0d1117" stroke-width="2" class="data-point"/>
  
    <circle cx="157.46835443037975" cy="322.8186952104156" r="4" fill="#3b82f6" stroke="#0d1117" stroke-width="2" class="data-point"/>
  
    <circle cx="161.8987341772152" cy="322.4730039460315" r="4" fill="#3b82f6" stroke="#0d1117" stroke-width="2" class="data-point"/>
  
    <circle cx="166.32911392405063" cy="321.8332506320739" r="4" fill="#3b82f6" stroke="#0d1117" stroke-width="2" class="data-point"/>
  
    <circle cx="170.7594936708861" cy="321.3775666926585" r="4" fill="#3b82f6" stroke="#0d1117" stroke-width="2" class="data-point"/>
  
    <circle cx="175.18987341772151" cy="320.37865362349663" r="4" fill="#3b82f6" stroke="#0d1117" stroke-width="2" class="data-point"/>
  
    <circle cx="179.62025316455697" cy="319.98582264124195" r="4" fill="#3b82f6" stroke="#0d1117" stroke-width="2" class="data-point"/>
  
    <circle cx="184.05063291139243" cy="319.4785094870159" r="4" fill="#3b82f6" stroke="#0d1117" stroke-width="2" class="data-point"/>
  
    <circle cx="188.48101265822785" cy="318.8230429337681" r="4" fill="#3b82f6" stroke="#0d1117" stroke-width="2" class="data-point"/>
  
    <circle cx="192.9113924050633" cy="318.3740932397628" r="4" fill="#3b82f6" stroke="#0d1117" stroke-width="2" class="data-point"/>
  
    <circle cx="197.34177215189874" cy="317.9184093003473" r="4" fill="#3b82f6" stroke="#0d1117" stroke-width="2" class="data-point"/>
  
    <circle cx="201.77215189873417" cy="317.4402778762317" r="4" fill="#3b82f6" stroke="#0d1117" stroke-width="2" class="data-point"/>
  
    <circle cx="206.20253164556962" cy="317.1080551026677" r="4" fill="#3b82f6" stroke="#0d1117" stroke-width="2" class="data-point"/>
  
    <circle cx="210.63291139240508" cy="316.82072729850427" r="4" fill="#3b82f6" stroke="#0d1117" stroke-width="2" class="data-point"/>
  
    <circle cx="215.0632911392405" cy="316.3830013468491" r="4" fill="#3b82f6" stroke="#0d1117" stroke-width="2" class="data-point"/>
  
    <circle cx="219.49367088607593" cy="315.85099595945275" r="4" fill="#3b82f6" stroke="#0d1117" stroke-width="2" class="data-point"/>
  
    <circle cx="223.9240506329114" cy="315.3616407929869" r="4" fill="#3b82f6" stroke="#0d1117" stroke-width="2" class="data-point"/>
  
    <circle cx="228.35443037974684" cy="314.74209021525957" r="4" fill="#3b82f6" stroke="#0d1117" stroke-width="2" class="data-point"/>
  
    <circle cx="232.78481012658227" cy="314.06642092578153" r="4" fill="#3b82f6" stroke="#0d1117" stroke-width="2" class="data-point"/>
  
    <circle cx="237.21518987341773" cy="313.4468703480542" r="4" fill="#3b82f6" stroke="#0d1117" stroke-width="2" class="data-point"/>
  
    <circle cx="241.64556962025316" cy="312.6993691075353" r="4" fill="#3b82f6" stroke="#0d1117" stroke-width="2" class="data-point"/>
  
    <circle cx="246.07594936708858" cy="311.9653363578365" r="4" fill="#3b82f6" stroke="#0d1117" stroke-width="2" class="data-point"/>
  
    <circle cx="250.50632911392407" cy="311.2313036081378" r="4" fill="#3b82f6" stroke="#0d1117" stroke-width="2" class="data-point"/>
  
    <circle cx="254.9367088607595" cy="310.42768365586824" r="4" fill="#3b82f6" stroke="#0d1117" stroke-width="2" class="data-point"/>
  
    <circle cx="259.36708860759495" cy="309.6599796791191" r="4" fill="#3b82f6" stroke="#0d1117" stroke-width="2" class="data-point"/>
  
    <circle cx="263.7974683544304" cy="308.7822830273387" r="4" fill="#3b82f6" stroke="#0d1117" stroke-width="2" class="data-point"/>
  
    <circle cx="268.2278481012658" cy="307.99886581129937" r="4" fill="#3b82f6" stroke="#0d1117" stroke-width="2" class="data-point"/>
  
    <circle cx="272.65822784810126" cy="307.33666501264145" r="4" fill="#3b82f6" stroke="#0d1117" stroke-width="2" class="data-point"/>
  
    <circle cx="277.08860759493666" cy="306.80690437371516" r="4" fill="#3b82f6" stroke="#0d1117" stroke-width="2" class="data-point"/>
  
    <circle cx="281.5189873417722" cy="306.06613737860636" r="4" fill="#3b82f6" stroke="#0d1117" stroke-width="2" class="data-point"/>
  
    <circle cx="285.9493670886076" cy="305.21986720540633" r="4" fill="#3b82f6" stroke="#0d1117" stroke-width="2" class="data-point"/>
  
    <circle cx="290.37974683544303" cy="304.4454289832471" r="4" fill="#3b82f6" stroke="#0d1117" stroke-width="2" class="data-point"/>
  
    <circle cx="294.8101265822785" cy="303.54079534982634" r="4" fill="#3b82f6" stroke="#0d1117" stroke-width="2" class="data-point"/>
  
    <circle cx="299.24050632911394" cy="302.4251553602231" r="4" fill="#3b82f6" stroke="#0d1117" stroke-width="2" class="data-point"/>
  
    <circle cx="303.6708860759494" cy="301.59459842631315" r="4" fill="#3b82f6" stroke="#0d1117" stroke-width="2" class="data-point"/>
  
    <circle cx="308.10126582278485" cy="300.905460646015" r="4" fill="#3b82f6" stroke="#0d1117" stroke-width="2" class="data-point"/>
  
    <circle cx="312.53164556962025" cy="300.24999409276717" r="4" fill="#3b82f6" stroke="#0d1117" stroke-width="2" class="data-point"/>
  
    <circle cx="316.9620253164557" cy="299.4620873797878" r="4" fill="#3b82f6" stroke="#0d1117" stroke-width="2" class="data-point"/>
  
    <circle cx="321.3924050632911" cy="298.54623000401693" r="4" fill="#3b82f6" stroke="#0d1117" stroke-width="2" class="data-point"/>
  
    <circle cx="325.8227848101266" cy="297.53160369556485" r="4" fill="#3b82f6" stroke="#0d1117" stroke-width="2" class="data-point"/>
  
    <circle cx="330.253164556962" cy="296.4653481723022" r="4" fill="#3b82f6" stroke="#0d1117" stroke-width="2" class="data-point"/>
  
    <circle cx="334.6835443037975" cy="295.44174286996997" r="4" fill="#3b82f6" stroke="#0d1117" stroke-width="2" class="data-point"/>
  
    <circle cx="339.11392405063293" cy="294.5415987334893" r="4" fill="#3b82f6" stroke="#0d1117" stroke-width="2" class="data-point"/>
  
    <circle cx="343.54430379746833" cy="293.6481888424187" r="4" fill="#3b82f6" stroke="#0d1117" stroke-width="2" class="data-point"/>
  
    <circle cx="347.97468354430384" cy="292.86028212943927" r="4" fill="#3b82f6" stroke="#0d1117" stroke-width="2" class="data-point"/>
  
    <circle cx="352.40506329113924" cy="292.05666217716976" r="4" fill="#3b82f6" stroke="#0d1117" stroke-width="2" class="data-point"/>
  
    <circle cx="356.8354430379747" cy="291.158762789159" r="4" fill="#3b82f6" stroke="#0d1117" stroke-width="2" class="data-point"/>
  
    <circle cx="361.26582278481015" cy="290.04087805108577" r="4" fill="#3b82f6" stroke="#0d1117" stroke-width="2" class="data-point"/>
  
    <circle cx="365.69620253164555" cy="289.20807636870586" r="4" fill="#3b82f6" stroke="#0d1117" stroke-width="2" class="data-point"/>
  
    <circle cx="370.126582278481" cy="288.46281987665697" r="4" fill="#3b82f6" stroke="#0d1117" stroke-width="2" class="data-point"/>
  
    <circle cx="374.55696202531647" cy="287.6345076912171" r="4" fill="#3b82f6" stroke="#0d1117" stroke-width="2" class="data-point"/>
  
    <circle cx="378.98734177215186" cy="286.8623142175279" r="4" fill="#3b82f6" stroke="#0d1117" stroke-width="2" class="data-point"/>
  
    <circle cx="383.4177215189874" cy="286.01379929585784" r="4" fill="#3b82f6" stroke="#0d1117" stroke-width="2" class="data-point"/>
  
    <circle cx="387.8481012658228" cy="285.12936839866734" r="4" fill="#3b82f6" stroke="#0d1117" stroke-width="2" class="data-point"/>
  
    <circle cx="392.27848101265823" cy="284.2045320290163" r="4" fill="#3b82f6" stroke="#0d1117" stroke-width="2" class="data-point"/>
  
    <circle cx="396.7088607594937" cy="283.3941778313367" r="4" fill="#3b82f6" stroke="#0d1117" stroke-width="2" class="data-point"/>
  
    <circle cx="401.1392405063291" cy="282.7005505540984" r="4" fill="#3b82f6" stroke="#0d1117" stroke-width="2" class="data-point"/>
  
    <circle cx="405.56962025316454" cy="281.93958082275935" r="4" fill="#3b82f6" stroke="#0d1117" stroke-width="2" class="data-point"/>
  
    <circle cx="410" cy="281.1157581342596" r="4" fill="#3b82f6" stroke="#0d1117" stroke-width="2" class="data-point"/>
  
    <circle cx="414.43037974683546" cy="280.3525436544505" r="4" fill="#3b82f6" stroke="#0d1117" stroke-width="2" class="data-point"/>
  
    <circle cx="418.86075949367086" cy="279.35812008222865" r="4" fill="#3b82f6" stroke="#0d1117" stroke-width="2" class="data-point"/>
  
    <circle cx="423.2911392405063" cy="278.5028709151485" r="4" fill="#3b82f6" stroke="#0d1117" stroke-width="2" class="data-point"/>
  
    <circle cx="427.72151898734177" cy="277.6790482266487" r="4" fill="#3b82f6" stroke="#0d1117" stroke-width="2" class="data-point"/>
  
    <circle cx="432.15189873417717" cy="276.99439994329055" r="4" fill="#3b82f6" stroke="#0d1117" stroke-width="2" class="data-point"/>
  
    <circle cx="436.5822784810126" cy="276.32995439616263" r="4" fill="#3b82f6" stroke="#0d1117" stroke-width="2" class="data-point"/>
  
    <circle cx="441.01265822784814" cy="275.66326410056473" r="4" fill="#3b82f6" stroke="#0d1117" stroke-width="2" class="data-point"/>
  
    <circle cx="445.4430379746836" cy="274.86637839370525" r="4" fill="#3b82f6" stroke="#0d1117" stroke-width="2" class="data-point"/>
  
    <circle cx="449.873417721519" cy="274.0470452021455" r="4" fill="#3b82f6" stroke="#0d1117" stroke-width="2" class="data-point"/>
  
    <circle cx="454.30379746835445" cy="273.0526216299237" r="4" fill="#3b82f6" stroke="#0d1117" stroke-width="2" class="data-point"/>
  
    <circle cx="458.7341772151899" cy="272.24675692918413" r="4" fill="#3b82f6" stroke="#0d1117" stroke-width="2" class="data-point"/>
  
    <circle cx="463.1645569620253" cy="271.58904562746625" r="4" fill="#3b82f6" stroke="#0d1117" stroke-width="2" class="data-point"/>
  
    <circle cx="467.59493670886076" cy="270.9133763379882" r="4" fill="#3b82f6" stroke="#0d1117" stroke-width="2" class="data-point"/>
  
    <circle cx="472.0253164556962" cy="270.26688877862057" r="4" fill="#3b82f6" stroke="#0d1117" stroke-width="2" class="data-point"/>
  
    <circle cx="476.4556962025316" cy="269.46775832329104" r="4" fill="#3b82f6" stroke="#0d1117" stroke-width="2" class="data-point"/>
  
    <circle cx="480.88607594936707" cy="268.6484251317313" r="4" fill="#3b82f6" stroke="#0d1117" stroke-width="2" class="data-point"/>
  
    <circle cx="485.3164556962025" cy="266.83691311641974" r="4" fill="#3b82f6" stroke="#0d1117" stroke-width="2" class="data-point"/>
  
    <circle cx="489.74683544303804" cy="263.2318470735569" r="4" fill="#3b82f6" stroke="#0d1117" stroke-width="2" class="data-point"/>
  
    <circle cx="494.1772151898734" cy="258.9376432503958" r="4" fill="#3b82f6" stroke="#0d1117" stroke-width="2" class="data-point"/>
  
    <circle cx="498.6075949367089" cy="255.02504666713924" r="4" fill="#3b82f6" stroke="#0d1117" stroke-width="2" class="data-point"/>
  
    <circle cx="503.03797468354435" cy="253.04068901963564" r="4" fill="#3b82f6" stroke="#0d1117" stroke-width="2" class="data-point"/>
  
    <circle cx="507.46835443037975" cy="250.0506840575601" r="4" fill="#3b82f6" stroke="#0d1117" stroke-width="2" class="data-point"/>
  
    <circle cx="511.8987341772152" cy="248.06408166158644" r="4" fill="#3b82f6" stroke="#0d1117" stroke-width="2" class="data-point"/>
  
    <circle cx="516.3291139240507" cy="246.32215684884574" r="4" fill="#3b82f6" stroke="#0d1117" stroke-width="2" class="data-point"/>
  
    <circle cx="520.7594936708861" cy="244.61839276009545" r="4" fill="#3b82f6" stroke="#0d1117" stroke-width="2" class="data-point"/>
  
    <circle cx="525.1898734177215" cy="243.01339760402635" r="4" fill="#3b82f6" stroke="#0d1117" stroke-width="2" class="data-point"/>
  
    <circle cx="529.620253164557" cy="240.51723730535667" r="4" fill="#3b82f6" stroke="#0d1117" stroke-width="2" class="data-point"/>
  
    <circle cx="534.0506329113923" cy="238.53287965785307" r="4" fill="#3b82f6" stroke="#0d1117" stroke-width="2" class="data-point"/>
  
    <circle cx="538.4810126582279" cy="235.9963138867229" r="4" fill="#3b82f6" stroke="#0d1117" stroke-width="2" class="data-point"/>
  
    <circle cx="542.9113924050632" cy="235.4777769901467" r="4" fill="#3b82f6" stroke="#0d1117" stroke-width="2" class="data-point"/>
  
    <circle cx="547.3417721518988" cy="235.41043453604595" r="4" fill="#3b82f6" stroke="#0d1117" stroke-width="2" class="data-point"/>
  
    <circle cx="551.7721518987341" cy="235.32288934571488" r="4" fill="#3b82f6" stroke="#0d1117" stroke-width="2" class="data-point"/>
  
    <circle cx="556.2025316455697" cy="235.24881264620402" r="4" fill="#3b82f6" stroke="#0d1117" stroke-width="2" class="data-point"/>
  
    <circle cx="560.632911392405" cy="235.15228846199287" r="4" fill="#3b82f6" stroke="#0d1117" stroke-width="2" class="data-point"/>
  
    <circle cx="565.0632911392405" cy="235.06698802013184" r="4" fill="#3b82f6" stroke="#0d1117" stroke-width="2" class="data-point"/>
  
    <circle cx="569.493670886076" cy="235.03331679308144" r="4" fill="#3b82f6" stroke="#0d1117" stroke-width="2" class="data-point"/>
  
    <circle cx="573.9240506329114" cy="234.90985562723" r="4" fill="#3b82f6" stroke="#0d1117" stroke-width="2" class="data-point"/>
  
    <circle cx="578.3544303797468" cy="234.79088395831855" r="4" fill="#3b82f6" stroke="#0d1117" stroke-width="2" class="data-point"/>
  
    <circle cx="582.7848101265822" cy="234.7123177618676" r="4" fill="#3b82f6" stroke="#0d1117" stroke-width="2" class="data-point"/>
  
    <circle cx="587.2151898734178" cy="234.68313603175727" r="4" fill="#3b82f6" stroke="#0d1117" stroke-width="2" class="data-point"/>
  
    <circle cx="591.6455696202532" cy="234.5506958720257" r="4" fill="#3b82f6" stroke="#0d1117" stroke-width="2" class="data-point"/>
  
    <circle cx="596.0759493670886" cy="231.295810590487" r="4" fill="#3b82f6" stroke="#0d1117" stroke-width="2" class="data-point"/>
  
    <circle cx="600.506329113924" cy="226.19798681505637" r="4" fill="#3b82f6" stroke="#0d1117" stroke-width="2" class="data-point"/>
  
    <circle cx="604.9367088607595" cy="222.78372439214576" r="4" fill="#3b82f6" stroke="#0d1117" stroke-width="2" class="data-point"/>
  
    <circle cx="609.367088607595" cy="218.8194985940786" r="4" fill="#3b82f6" stroke="#0d1117" stroke-width="2" class="data-point"/>
  
    <circle cx="613.7974683544304" cy="214.73405637863" r="4" fill="#3b82f6" stroke="#0d1117" stroke-width="2" class="data-point"/>
  
    <circle cx="618.2278481012659" cy="211.52855556343187" r="4" fill="#3b82f6" stroke="#0d1117" stroke-width="2" class="data-point"/>
  
    <circle cx="622.6582278481012" cy="207.9436922567992" r="4" fill="#3b82f6" stroke="#0d1117" stroke-width="2" class="data-point"/>
  
    <circle cx="627.0886075949367" cy="202.48221922922426" r="4" fill="#3b82f6" stroke="#0d1117" stroke-width="2" class="data-point"/>
  
    <circle cx="631.5189873417721" cy="195.1216889960067" r="4" fill="#3b82f6" stroke="#0d1117" stroke-width="2" class="data-point"/>
  
    <circle cx="635.9493670886077" cy="190.31792727014957" r="4" fill="#3b82f6" stroke="#0d1117" stroke-width="2" class="data-point"/>
  
    <circle cx="640.379746835443" cy="184.60055291699157" r="4" fill="#3b82f6" stroke="#0d1117" stroke-width="2" class="data-point"/>
  
    <circle cx="644.8101265822785" cy="178.22995675905577" r="4" fill="#3b82f6" stroke="#0d1117" stroke-width="2" class="data-point"/>
  
    <circle cx="649.2405063291139" cy="173.120909241275" r="4" fill="#3b82f6" stroke="#0d1117" stroke-width="2" class="data-point"/>
  
    <circle cx="653.6708860759494" cy="167.57638052030904" r="4" fill="#3b82f6" stroke="#0d1117" stroke-width="2" class="data-point"/>
  
    <circle cx="658.1012658227849" cy="162.65813662248055" r="4" fill="#3b82f6" stroke="#0d1117" stroke-width="2" class="data-point"/>
  
    <circle cx="662.5316455696203" cy="157.7847876940526" r="4" fill="#3b82f6" stroke="#0d1117" stroke-width="2" class="data-point"/>
  
    <circle cx="666.9620253164557" cy="152.92490725644478" r="4" fill="#3b82f6" stroke="#0d1117" stroke-width="2" class="data-point"/>
  
    <circle cx="671.3924050632911" cy="146.3073887668061" r="4" fill="#3b82f6" stroke="#0d1117" stroke-width="2" class="data-point"/>
  
    <circle cx="675.8227848101266" cy="139.66966754093713" r="4" fill="#3b82f6" stroke="#0d1117" stroke-width="2" class="data-point"/>
  
    <circle cx="680.253164556962" cy="134.1363625623213" r="4" fill="#3b82f6" stroke="#0d1117" stroke-width="2" class="data-point"/>
  
    <circle cx="684.6835443037975" cy="129.49871222324614" r="4" fill="#3b82f6" stroke="#0d1117" stroke-width="2" class="data-point"/>
  
    <circle cx="689.1139240506329" cy="125.00023628931265" r="4" fill="#3b82f6" stroke="#0d1117" stroke-width="2" class="data-point"/>
  
    <circle cx="693.5443037974684" cy="119.02920535904161" r="4" fill="#3b82f6" stroke="#0d1117" stroke-width="2" class="data-point"/>
  
    <circle cx="697.9746835443037" cy="114.39828926537655" r="4" fill="#3b82f6" stroke="#0d1117" stroke-width="2" class="data-point"/>
  
    <circle cx="702.4050632911393" cy="109.81675763805202" r="4" fill="#3b82f6" stroke="#0d1117" stroke-width="2" class="data-point"/>
  
    <circle cx="706.8354430379748" cy="105.53153280877106" r="4" fill="#3b82f6" stroke="#0d1117" stroke-width="2" class="data-point"/>
  
    <circle cx="711.2658227848101" cy="101.49547505966305" r="4" fill="#3b82f6" stroke="#0d1117" stroke-width="2" class="data-point"/>
  
    <circle cx="715.6962025316456" cy="97.36064837787387" r="4" fill="#3b82f6" stroke="#0d1117" stroke-width="2" class="data-point"/>
  
    <circle cx="720.126582278481" cy="93.82516953758184" r="4" fill="#3b82f6" stroke="#0d1117" stroke-width="2" class="data-point"/>
  
    <circle cx="724.5569620253165" cy="90.16398478296827" r="4" fill="#3b82f6" stroke="#0d1117" stroke-width="2" class="data-point"/>
  
    <circle cx="728.9873417721519" cy="86.42647858037381" r="4" fill="#3b82f6" stroke="#0d1117" stroke-width="2" class="data-point"/>
  
    <circle cx="733.4177215189874" cy="82.47572127312685" r="4" fill="#3b82f6" stroke="#0d1117" stroke-width="2" class="data-point"/>
  
    <circle cx="737.8481012658228" cy="78.85045249403368" r="4" fill="#3b82f6" stroke="#0d1117" stroke-width="2" class="data-point"/>
  
    <circle cx="742.2784810126582" cy="75.53046950686422" r="4" fill="#3b82f6" stroke="#0d1117" stroke-width="2" class="data-point"/>
  
    <circle cx="746.7088607594936" cy="69.51454360719265" r="4" fill="#3b82f6" stroke="#0d1117" stroke-width="2" class="data-point"/>
  
    <circle cx="751.1392405063291" cy="64.47957278892272" r="4" fill="#3b82f6" stroke="#0d1117" stroke-width="2" class="data-point"/>
  
    <circle cx="755.5696202531645" cy="59.64438458448524" r="4" fill="#3b82f6" stroke="#0d1117" stroke-width="2" class="data-point"/>
  
    <circle cx="760" cy="55" r="4" fill="#3b82f6" stroke="#0d1117" stroke-width="2" class="data-point"/>
  

  <!-- Axis lines -->
  <line x1="60" y1="55" x2="60" y2="340"
        stroke="#30363d" stroke-width="2"/>
  <line x1="60" y1="340" x2="760" y2="340"
        stroke="#30363d" stroke-width="2"/>
</svg>