<?xml version="1.0" encoding="UTF-8"?>
<svg width="800" height="400" xmlns="http://www.w3.org/2000/svg">
  <defs>
    <!-- Gradient for area fill -->
    <linearGradient id="areaGradient" x1="0%" y1="0%" x2="0%" y2="100%">
      <stop offset="0%" style="stop-color:#3b82f6;stop-opacity:0.3" />
      <stop offset="100%" style="stop-color:#3b82f6;stop-opacity:0.05" />
    </linearGradient>

    <!-- Glow filter for line -->
    <filter id="glow">
      <feGaussianBlur stdDeviation="2" result="coloredBlur"/>
      <feMerge>
        <feMergeNode in="coloredBlur"/>
        <feMergeNode in="SourceGraphic"/>
      </feMerge>
    </filter>

    <!-- Animation -->
    <style>
      @keyframes draw {
        from { stroke-dashoffset: 2000; }
        to { stroke-dashoffset: 0; }
      }
      @keyframes fadeIn {
        from { opacity: 0; }
        to { opacity: 1; }
      }
      .line-path {
        stroke-dasharray: 2000;
        stroke-dashoffset: 2000;
        animation: draw 1.5s ease-out forwards;
      }
      .area-path {
        opacity: 0;
        animation: fadeIn 1s ease-out 0.5s forwards;
      }
      .data-point {
        opacity: 0;
        animation: fadeIn 0.5s ease-out 1s forwards;
      }
    </style>
  </defs>

  <!-- Background -->
  <rect width="800" height="400" fill="#0d1117" rx="8"/>

  <!-- Title -->
  <text x="400" y="25" text-anchor="middle" fill="#c9d1d9" font-family="system-ui, -apple-system, sans-serif" font-size="16" font-weight="600">
    zxcloli666/SoundCloud-Desktop Downloads
  </text>

  <!-- Stats -->
  <text x="780" y="25" text-anchor="end" fill="#58a6ff" font-family="system-ui, -apple-system, sans-serif" font-size="14" font-weight="600">
    107.1K total
  </text>
  <text x="780" y="42" text-anchor="end" fill="#3fb950" font-family="system-ui, -apple-system, sans-serif" font-size="12">
    +13 (+0.0%)
  </text>

  <!-- Grid lines -->
  <g opacity="0.1">
    
      <line x1="60" y1="340" x2="760" y2="340"
            stroke="#c9d1d9" stroke-width="1"/>
    
      <line x1="60" y1="268.75" x2="760" y2="268.75"
            stroke="#c9d1d9" stroke-width="1"/>
    
      <line x1="60" y1="197.5" x2="760" y2="197.5"
            stroke="#c9d1d9" stroke-width="1"/>
    
      <line x1="60" y1="126.25" x2="760" y2="126.25"
            stroke="#c9d1d9" stroke-width="1"/>
    
      <line x1="60" y1="55" x2="760" y2="55"
            stroke="#c9d1d9" stroke-width="1"/>
    
  </g>

  <!-- Y-axis labels -->
  
    <text x="50" y="344" text-anchor="end"
          fill="#8b949e" font-family="system-ui, -apple-system, sans-serif" font-size="11">
      60.2K
    </text>
  
    <text x="50" y="272.75" text-anchor="end"
          fill="#8b949e" font-family="system-ui, -apple-system, sans-serif" font-size="11">
      71.9K
    </text>
  
    <text x="50" y="201.5" text-anchor="end"
          fill="#8b949e" font-family="system-ui, -apple-system, sans-serif" font-size="11">
      83.6K
    </text>
  
    <text x="50" y="130.25" text-anchor="end"
          fill="#8b949e" font-family="system-ui, -apple-system, sans-serif" font-size="11">
      95.3K
    </text>
  
    <text x="50" y="59" text-anchor="end"
          fill="#8b949e" font-family="system-ui, -apple-system, sans-serif" font-size="11">
      107.1K
    </text>
  

  <!-- X-axis labels -->
  
    <text x="60" y="360" text-anchor="middle"
          fill="#8b949e" font-family="system-ui, -apple-system, sans-serif" font-size="11">
      Nov 25
    </text>
  
    <text x="148.23529411764707" y="360" text-anchor="middle"
          fill="#8b949e" font-family="system-ui, -apple-system, sans-serif" font-size="11">
      Dec 10
    </text>
  
    <text x="236.47058823529412" y="360" text-anchor="middle"
          fill="#8b949e" font-family="system-ui, -apple-system, sans-serif" font-size="11">
      Dec 25
    </text>
  
    <text x="324.70588235294116" y="360" text-anchor="middle"
          fill="#8b949e" font-family="system-ui, -apple-system, sans-serif" font-size="11">
      Jan 9
    </text>
  
    <text x="412.94117647058823" y="360" text-anchor="middle"
          fill="#8b949e" font-family="system-ui, -apple-system, sans-serif" font-size="11">
      Jan 24
    </text>
  
    <text x="501.1764705882353" y="360" text-anchor="middle"
          fill="#8b949e" font-family="system-ui, -apple-system, sans-serif" font-size="11">
      Feb 8
    </text>
  
    <text x="589.4117647058823" y="360" text-anchor="middle"
          fill="#8b949e" font-family="system-ui, -apple-system, sans-serif" font-size="11">
      Feb 23
    </text>
  
    <text x="677.6470588235294" y="360" text-anchor="middle"
          fill="#8b949e" font-family="system-ui, -apple-system, sans-serif" font-size="11">
      Mar 10
    </text>
  
    <text x="760" y="360" text-anchor="middle"
          fill="#8b949e" font-family="system-ui, -apple-system, sans-serif" font-size="11">
      Mar 24
    </text>
  

  <!-- Area under line -->
  <path d="M 60 340
    L 60.00 340.00 L 65.88 339.11 L 71.76 337.59 L 77.65 336.18 L 83.53 333.38 L 89.41 330.49 L 95.29 328.21 L 101.18 326.08 L 107.06 324.19 L 112.94 321.98 L 118.82 319.50 L 124.71 316.86 L 130.59 314.45 L 136.47 311.89 L 142.35 310.03 L 148.24 308.10 L 154.12 305.47 L 160.00 303.72 L 165.88 301.29 L 171.76 298.48 L 177.65 296.37 L 183.53 294.63 L 189.41 293.51 L 195.29 292.57 L 201.18 290.84 L 207.06 289.61 L 212.94 286.90 L 218.82 285.84 L 224.71 284.47 L 230.59 282.69 L 236.47 281.48 L 242.35 280.24 L 248.24 278.95 L 254.12 278.05 L 260.00 277.27 L 265.88 276.09 L 271.76 274.65 L 277.65 273.33 L 283.53 271.65 L 289.41 269.82 L 295.29 268.14 L 301.18 266.12 L 307.06 264.13 L 312.94 262.15 L 318.82 259.97 L 324.71 257.90 L 330.59 255.52 L 336.47 253.40 L 342.35 251.61 L 348.24 250.18 L 354.12 248.17 L 360.00 245.88 L 365.88 243.79 L 371.76 241.34 L 377.65 238.32 L 383.53 236.07 L 389.41 234.21 L 395.29 232.43 L 401.18 230.30 L 407.06 227.82 L 412.94 225.08 L 418.82 222.19 L 424.71 219.42 L 430.59 216.98 L 436.47 214.57 L 442.35 212.43 L 448.24 210.26 L 454.12 207.83 L 460.00 204.80 L 465.88 202.55 L 471.76 200.53 L 477.65 198.29 L 483.53 196.20 L 489.41 193.91 L 495.29 191.51 L 501.18 189.01 L 507.06 186.82 L 512.94 184.94 L 518.82 182.88 L 524.71 180.65 L 530.59 178.59 L 536.47 175.90 L 542.35 173.58 L 548.24 171.35 L 554.12 169.50 L 560.00 167.70 L 565.88 165.90 L 571.76 163.74 L 577.65 161.52 L 583.53 158.83 L 589.41 156.65 L 595.29 154.87 L 601.18 153.04 L 607.06 151.29 L 612.94 149.13 L 618.82 146.91 L 624.71 142.01 L 630.59 132.26 L 636.47 120.64 L 642.35 110.05 L 648.24 104.68 L 654.12 96.59 L 660.00 91.21 L 665.88 86.50 L 671.76 81.89 L 677.65 77.54 L 683.53 70.79 L 689.41 65.42 L 695.29 58.55 L 701.18 57.15 L 707.06 56.97 L 712.94 56.73 L 718.82 56.53 L 724.71 56.27 L 730.59 56.04 L 736.47 55.95 L 742.35 55.61 L 748.24 55.29 L 754.12 55.08 L 760.00 55.00
    L 760 340
    Z" fill="url(#areaGradient)" class="area-path"/>

  <!-- Main line with glow -->
  <path d="M 60.00 340.00 L 65.88 339.11 L 71.76 337.59 L 77.65 336.18 L 83.53 333.38 L 89.41 330.49 L 95.29 328.21 L 101.18 326.08 L 107.06 324.19 L 112.94 321.98 L 118.82 319.50 L 124.71 316.86 L 130.59 314.45 L 136.47 311.89 L 142.35 310.03 L 148.24 308.10 L 154.12 305.47 L 160.00 303.72 L 165.88 301.29 L 171.76 298.48 L 177.65 296.37 L 183.53 294.63 L 189.41 293.51 L 195.29 292.57 L 201.18 290.84 L 207.06 289.61 L 212.94 286.90 L 218.82 285.84 L 224.71 284.47 L 230.59 282.69 L 236.47 281.48 L 242.35 280.24 L 248.24 278.95 L 254.12 278.05 L 260.00 277.27 L 265.88 276.09 L 271.76 274.65 L 277.65 273.33 L 283.53 271.65 L 289.41 269.82 L 295.29 268.14 L 301.18 266.12 L 307.06 264.13 L 312.94 262.15 L 318.82 259.97 L 324.71 257.90 L 330.59 255.52 L 336.47 253.40 L 342.35 251.61 L 348.24 250.18 L 354.12 248.17 L 360.00 245.88 L 365.88 243.79 L 371.76 241.34 L 377.65 238.32 L 383.53 236.07 L 389.41 234.21 L 395.29 232.43 L 401.18 230.30 L 407.06 227.82 L 412.94 225.08 L 418.82 222.19 L 424.71 219.42 L 430.59 216.98 L 436.47 214.57 L 442.35 212.43 L 448.24 210.26 L 454.12 207.83 L 460.00 204.80 L 465.88 202.55 L 471.76 200.53 L 477.65 198.29 L 483.53 196.20 L 489.41 193.91 L 495.29 191.51 L 501.18 189.01 L 507.06 186.82 L 512.94 184.94 L 518.82 182.88 L 524.71 180.65 L 530.59 178.59 L 536.47 175.90 L 542.35 173.58 L 548.24 171.35 L 554.12 169.50 L 560.00 167.70 L 565.88 165.90 L 571.76 163.74 L 577.65 161.52 L 583.53 158.83 L 589.41 156.65 L 595.29 154.87 L 601.18 153.04 L 607.06 151.29 L 612.94 149.13 L 618.82 146.91 L 624.71 142.01 L 630.59 132.26 L 636.47 120.64 L 642.35 110.05 L 648.24 104.68 L 654.12 96.59 L 660.00 91.21 L 665.88 86.50 L 671.76 81.89 L 677.65 77.54 L 683.53 70.79 L 689.41 65.42 L 695.29 58.55 L 701.18 57.15 L 707.06 56.97 L 712.94 56.73 L 718.82 56.53 L 724.71 56.27 L 730.59 56.04 L 736.47 55.95 L 742.35 55.61 L 748.24 55.29 L 754.12 55.08 L 760.00 55.00" fill="none" stroke="#3b82f6" stroke-width="3"
        stroke-linecap="round" stroke-linejoin="round" filter="url(#glow)" class="line-path"/>

  <!-- Data points -->
  
    <circle cx="60" cy="340" r="4" fill="#3b82f6" stroke="#0d1117" stroke-width="2" class="data-point"/>
  
    <circle cx="65.88235294117646" cy="339.1070400920775" r="4" fill="#3b82f6" stroke="#0d1117" stroke-width="2" class="data-point"/>
  
    <circle cx="71.76470588235294" cy="337.58840079288956" r="4" fill="#3b82f6" stroke="#0d1117" stroke-width="2" class="data-point"/>
  
    <circle cx="77.64705882352942" cy="336.17910352324316" r="4" fill="#3b82f6" stroke="#0d1117" stroke-width="2" class="data-point"/>
  
    <circle cx="83.52941176470588" cy="333.37873265554066" r="4" fill="#3b82f6" stroke="#0d1117" stroke-width="2" class="data-point"/>
  
    <circle cx="89.41176470588235" cy="330.4872434298868" r="4" fill="#3b82f6" stroke="#0d1117" stroke-width="2" class="data-point"/>
  
    <circle cx="95.29411764705883" cy="328.20928448110493" r="4" fill="#3b82f6" stroke="#0d1117" stroke-width="2" class="data-point"/>
  
    <circle cx="101.1764705882353" cy="326.0831894622418" r="4" fill="#3b82f6" stroke="#0d1117" stroke-width="2" class="data-point"/>
  
    <circle cx="107.05882352941177" cy="324.19400217405206" r="4" fill="#3b82f6" stroke="#0d1117" stroke-width="2" class="data-point"/>
  
    <circle cx="112.94117647058823" cy="321.97678879723765" r="4" fill="#3b82f6" stroke="#0d1117" stroke-width="2" class="data-point"/>
  
    <circle cx="118.82352941176471" cy="319.50444401815975" r="4" fill="#3b82f6" stroke="#0d1117" stroke-width="2" class="data-point"/>
  
    <circle cx="124.70588235294117" cy="316.855937080376" r="4" fill="#3b82f6" stroke="#0d1117" stroke-width="2" class="data-point"/>
  
    <circle cx="130.58823529411765" cy="314.4504124304623" r="4" fill="#3b82f6" stroke="#0d1117" stroke-width="2" class="data-point"/>
  
    <circle cx="136.47058823529412" cy="311.89302385062985" r="4" fill="#3b82f6" stroke="#0d1117" stroke-width="2" class="data-point"/>
  
    <circle cx="142.3529411764706" cy="310.02813479122705" r="4" fill="#3b82f6" stroke="#0d1117" stroke-width="2" class="data-point"/>
  
    <circle cx="148.23529411764707" cy="308.09642560266" r="4" fill="#3b82f6" stroke="#0d1117" stroke-width="2" class="data-point"/>
  
    <circle cx="154.11764705882354" cy="305.4722168936633" r="4" fill="#3b82f6" stroke="#0d1117" stroke-width="2" class="data-point"/>
  
    <circle cx="160" cy="303.71666986380205" r="4" fill="#3b82f6" stroke="#0d1117" stroke-width="2" class="data-point"/>
  
    <circle cx="165.88235294117646" cy="301.28684698510136" r="4" fill="#3b82f6" stroke="#0d1117" stroke-width="2" class="data-point"/>
  
    <circle cx="171.76470588235293" cy="298.48040156020204" r="4" fill="#3b82f6" stroke="#0d1117" stroke-width="2" class="data-point"/>
  
    <circle cx="177.64705882352942" cy="296.36645565573247" r="4" fill="#3b82f6" stroke="#0d1117" stroke-width="2" class="data-point"/>
  
    <circle cx="183.52941176470588" cy="294.62913229746147" r="4" fill="#3b82f6" stroke="#0d1117" stroke-width="2" class="data-point"/>
  
    <circle cx="189.41176470588235" cy="293.5053392160624" r="4" fill="#3b82f6" stroke="#0d1117" stroke-width="2" class="data-point"/>
  
    <circle cx="195.29411764705884" cy="292.56985740776264" r="4" fill="#3b82f6" stroke="#0d1117" stroke-width="2" class="data-point"/>
  
    <circle cx="201.1764705882353" cy="290.8386086066884" r="4" fill="#3b82f6" stroke="#0d1117" stroke-width="2" class="data-point"/>
  
    <circle cx="207.05882352941177" cy="289.6054734957478" r="4" fill="#3b82f6" stroke="#0d1117" stroke-width="2" class="data-point"/>
  
    <circle cx="212.94117647058823" cy="286.9022955431933" r="4" fill="#3b82f6" stroke="#0d1117" stroke-width="2" class="data-point"/>
  
    <circle cx="218.8235294117647" cy="285.83924803376175" r="4" fill="#3b82f6" stroke="#0d1117" stroke-width="2" class="data-point"/>
  
    <circle cx="224.7058823529412" cy="284.46639810729584" r="4" fill="#3b82f6" stroke="#0d1117" stroke-width="2" class="data-point"/>
  
    <circle cx="230.58823529411765" cy="282.69262740584435" r="4" fill="#3b82f6" stroke="#0d1117" stroke-width="2" class="data-point"/>
  
    <circle cx="236.47058823529412" cy="281.47771596649403" r="4" fill="#3b82f6" stroke="#0d1117" stroke-width="2" class="data-point"/>
  
    <circle cx="242.3529411764706" cy="280.2445808555534" r="4" fill="#3b82f6" stroke="#0d1117" stroke-width="2" class="data-point"/>
  
    <circle cx="248.23529411764704" cy="278.9507001726453" r="4" fill="#3b82f6" stroke="#0d1117" stroke-width="2" class="data-point"/>
  
    <circle cx="254.11764705882354" cy="278.05166570752607" r="4" fill="#3b82f6" stroke="#0d1117" stroke-width="2" class="data-point"/>
  
    <circle cx="260" cy="277.27412238634184" r="4" fill="#3b82f6" stroke="#0d1117" stroke-width="2" class="data-point"/>
  
    <circle cx="265.88235294117646" cy="276.08958373297526" r="4" fill="#3b82f6" stroke="#0d1117" stroke-width="2" class="data-point"/>
  
    <circle cx="271.7647058823529" cy="274.6499136773451" r="4" fill="#3b82f6" stroke="#0d1117" stroke-width="2" class="data-point"/>
  
    <circle cx="277.6470588235294" cy="273.3256602084532" r="4" fill="#3b82f6" stroke="#0d1117" stroke-width="2" class="data-point"/>
  
    <circle cx="283.52941176470586" cy="271.6490824221498" r="4" fill="#3b82f6" stroke="#0d1117" stroke-width="2" class="data-point"/>
  
    <circle cx="289.4117647058823" cy="269.8206407059275" r="4" fill="#3b82f6" stroke="#0d1117" stroke-width="2" class="data-point"/>
  
    <circle cx="295.29411764705884" cy="268.14406291962405" r="4" fill="#3b82f6" stroke="#0d1117" stroke-width="2" class="data-point"/>
  
    <circle cx="301.1764705882353" cy="266.1212353731057" r="4" fill="#3b82f6" stroke="#0d1117" stroke-width="2" class="data-point"/>
  
    <circle cx="307.05882352941177" cy="264.1348551697679" r="4" fill="#3b82f6" stroke="#0d1117" stroke-width="2" class="data-point"/>
  
    <circle cx="312.94117647058823" cy="262.14847496643006" r="4" fill="#3b82f6" stroke="#0d1117" stroke-width="2" class="data-point"/>
  
    <circle cx="318.8235294117647" cy="259.97378348999297" r="4" fill="#3b82f6" stroke="#0d1117" stroke-width="2" class="data-point"/>
  
    <circle cx="324.70588235294116" cy="257.8962849287039" r="4" fill="#3b82f6" stroke="#0d1117" stroke-width="2" class="data-point"/>
  
    <circle cx="330.5882352941177" cy="255.52113306477395" r="4" fill="#3b82f6" stroke="#0d1117" stroke-width="2" class="data-point"/>
  
    <circle cx="336.4705882352941" cy="253.4011126031076" r="4" fill="#3b82f6" stroke="#0d1117" stroke-width="2" class="data-point"/>
  
    <circle cx="342.3529411764706" cy="251.60911823006586" r="4" fill="#3b82f6" stroke="#0d1117" stroke-width="2" class="data-point"/>
  
    <circle cx="348.2352941176471" cy="250.17552273163244" r="4" fill="#3b82f6" stroke="#0d1117" stroke-width="2" class="data-point"/>
  
    <circle cx="354.11764705882354" cy="248.1709188567044" r="4" fill="#3b82f6" stroke="#0d1117" stroke-width="2" class="data-point"/>
  
    <circle cx="360" cy="245.880810793529" r="4" fill="#3b82f6" stroke="#0d1117" stroke-width="2" class="data-point"/>
  
    <circle cx="365.88235294117646" cy="243.78508856064965" r="4" fill="#3b82f6" stroke="#0d1117" stroke-width="2" class="data-point"/>
  
    <circle cx="371.764705882353" cy="241.33704201035872" r="4" fill="#3b82f6" stroke="#0d1117" stroke-width="2" class="data-point"/>
  
    <circle cx="377.6470588235294" cy="238.31798708357312" r="4" fill="#3b82f6" stroke="#0d1117" stroke-width="2" class="data-point"/>
  
    <circle cx="383.5294117647059" cy="236.070400920775" r="4" fill="#3b82f6" stroke="#0d1117" stroke-width="2" class="data-point"/>
  
    <circle cx="389.4117647058824" cy="234.2055118613722" r="4" fill="#3b82f6" stroke="#0d1117" stroke-width="2" class="data-point"/>
  
    <circle cx="395.29411764705884" cy="232.4317411599207" r="4" fill="#3b82f6" stroke="#0d1117" stroke-width="2" class="data-point"/>
  
    <circle cx="401.1764705882353" cy="230.29957158386088" r="4" fill="#3b82f6" stroke="#0d1117" stroke-width="2" class="data-point"/>
  
    <circle cx="407.05882352941177" cy="227.82115224758616" r="4" fill="#3b82f6" stroke="#0d1117" stroke-width="2" class="data-point"/>
  
    <circle cx="412.94117647058823" cy="225.0754523946544" r="4" fill="#3b82f6" stroke="#0d1117" stroke-width="2" class="data-point"/>
  
    <circle cx="418.8235294117647" cy="222.19003772619732" r="4" fill="#3b82f6" stroke="#0d1117" stroke-width="2" class="data-point"/>
  
    <circle cx="424.7058823529412" cy="219.42003964447855" r="4" fill="#3b82f6" stroke="#0d1117" stroke-width="2" class="data-point"/>
  
    <circle cx="430.5882352941176" cy="216.98414220858112" r="4" fill="#3b82f6" stroke="#0d1117" stroke-width="2" class="data-point"/>
  
    <circle cx="436.4705882352941" cy="214.56646844427394" r="4" fill="#3b82f6" stroke="#0d1117" stroke-width="2" class="data-point"/>
  
    <circle cx="442.35294117647055" cy="212.43429886821409" r="4" fill="#3b82f6" stroke="#0d1117" stroke-width="2" class="data-point"/>
  
    <circle cx="448.2352941176471" cy="210.25960739177697" r="4" fill="#3b82f6" stroke="#0d1117" stroke-width="2" class="data-point"/>
  
    <circle cx="454.11764705882354" cy="207.82978451307628" r="4" fill="#3b82f6" stroke="#0d1117" stroke-width="2" class="data-point"/>
  
    <circle cx="460" cy="204.80465502909394" r="4" fill="#3b82f6" stroke="#0d1117" stroke-width="2" class="data-point"/>
  
    <circle cx="465.8823529411765" cy="202.55099430909905" r="4" fill="#3b82f6" stroke="#0d1117" stroke-width="2" class="data-point"/>
  
    <circle cx="471.7647058823529" cy="200.5342413197775" r="4" fill="#3b82f6" stroke="#0d1117" stroke-width="2" class="data-point"/>
  
    <circle cx="477.6470588235294" cy="198.2927297141761" r="4" fill="#3b82f6" stroke="#0d1117" stroke-width="2" class="data-point"/>
  
    <circle cx="483.52941176470586" cy="196.2030820384935" r="4" fill="#3b82f6" stroke="#0d1117" stroke-width="2" class="data-point"/>
  
    <circle cx="489.4117647058824" cy="193.90689941812136" r="4" fill="#3b82f6" stroke="#0d1117" stroke-width="2" class="data-point"/>
  
    <circle cx="495.29411764705884" cy="191.5135238826012" r="4" fill="#3b82f6" stroke="#0d1117" stroke-width="2" class="data-point"/>
  
    <circle cx="501.1764705882353" cy="189.01080631753948" r="4" fill="#3b82f6" stroke="#0d1117" stroke-width="2" class="data-point"/>
  
    <circle cx="507.0588235294117" cy="186.8178911695121" r="4" fill="#3b82f6" stroke="#0d1117" stroke-width="2" class="data-point"/>
  
    <circle cx="512.9411764705883" cy="184.94085299571586" r="4" fill="#3b82f6" stroke="#0d1117" stroke-width="2" class="data-point"/>
  
    <circle cx="518.8235294117646" cy="182.88157810601703" r="4" fill="#3b82f6" stroke="#0d1117" stroke-width="2" class="data-point"/>
  
    <circle cx="524.7058823529412" cy="180.65221561480914" r="4" fill="#3b82f6" stroke="#0d1117" stroke-width="2" class="data-point"/>
  
    <circle cx="530.5882352941177" cy="178.58686616791354" r="4" fill="#3b82f6" stroke="#0d1117" stroke-width="2" class="data-point"/>
  
    <circle cx="536.4705882352941" cy="175.89583732975254" r="4" fill="#3b82f6" stroke="#0d1117" stroke-width="2" class="data-point"/>
  
    <circle cx="542.3529411764706" cy="173.58143103779014" r="4" fill="#3b82f6" stroke="#0d1117" stroke-width="2" class="data-point"/>
  
    <circle cx="548.2352941176471" cy="171.35206854658227" r="4" fill="#3b82f6" stroke="#0d1117" stroke-width="2" class="data-point"/>
  
    <circle cx="554.1176470588235" cy="169.49932860157298" r="4" fill="#3b82f6" stroke="#0d1117" stroke-width="2" class="data-point"/>
  
    <circle cx="560" cy="167.70125967133447" r="4" fill="#3b82f6" stroke="#0d1117" stroke-width="2" class="data-point"/>
  
    <circle cx="565.8823529411765" cy="165.89711618389924" r="4" fill="#3b82f6" stroke="#0d1117" stroke-width="2" class="data-point"/>
  
    <circle cx="571.7647058823529" cy="163.74064837905237" r="4" fill="#3b82f6" stroke="#0d1117" stroke-width="2" class="data-point"/>
  
    <circle cx="577.6470588235294" cy="161.52343500223802" r="4" fill="#3b82f6" stroke="#0d1117" stroke-width="2" class="data-point"/>
  
    <circle cx="583.5294117647059" cy="158.832406164077" r="4" fill="#3b82f6" stroke="#0d1117" stroke-width="2" class="data-point"/>
  
    <circle cx="589.4117647058823" cy="156.65164013044313" r="4" fill="#3b82f6" stroke="#0d1117" stroke-width="2" class="data-point"/>
  
    <circle cx="595.2941176470588" cy="154.87179487179486" r="4" fill="#3b82f6" stroke="#0d1117" stroke-width="2" class="data-point"/>
  
    <circle cx="601.1764705882354" cy="153.04335315557262" r="4" fill="#3b82f6" stroke="#0d1117" stroke-width="2" class="data-point"/>
  
    <circle cx="607.0588235294117" cy="151.29388068290814" r="4" fill="#3b82f6" stroke="#0d1117" stroke-width="2" class="data-point"/>
  
    <circle cx="612.9411764705882" cy="149.1313383208645" r="4" fill="#3b82f6" stroke="#0d1117" stroke-width="2" class="data-point"/>
  
    <circle cx="618.8235294117648" cy="146.91412494405014" r="4" fill="#3b82f6" stroke="#0d1117" stroke-width="2" class="data-point"/>
  
    <circle cx="624.7058823529412" cy="142.0119572862715" r="4" fill="#3b82f6" stroke="#0d1117" stroke-width="2" class="data-point"/>
  
    <circle cx="630.5882352941177" cy="132.25621842828824" r="4" fill="#3b82f6" stroke="#0d1117" stroke-width="2" class="data-point"/>
  
    <circle cx="636.4705882352941" cy="120.63559051090223" r="4" fill="#3b82f6" stroke="#0d1117" stroke-width="2" class="data-point"/>
  
    <circle cx="642.3529411764706" cy="110.047637316964" r="4" fill="#3b82f6" stroke="#0d1117" stroke-width="2" class="data-point"/>
  
    <circle cx="648.2352941176471" cy="104.6777287550355" r="4" fill="#3b82f6" stroke="#0d1117" stroke-width="2" class="data-point"/>
  
    <circle cx="654.1176470588235" cy="96.58641856896222" r="4" fill="#3b82f6" stroke="#0d1117" stroke-width="2" class="data-point"/>
  
    <circle cx="660" cy="91.21043544983692" r="4" fill="#3b82f6" stroke="#0d1117" stroke-width="2" class="data-point"/>
  
    <circle cx="665.8823529411765" cy="86.49657906515762" r="4" fill="#3b82f6" stroke="#0d1117" stroke-width="2" class="data-point"/>
  
    <circle cx="671.7647058823529" cy="81.88599015282307" r="4" fill="#3b82f6" stroke="#0d1117" stroke-width="2" class="data-point"/>
  
    <circle cx="677.6470588235294" cy="77.5426817571456" r="4" fill="#3b82f6" stroke="#0d1117" stroke-width="2" class="data-point"/>
  
    <circle cx="683.529411764706" cy="70.78777415435769" r="4" fill="#3b82f6" stroke="#0d1117" stroke-width="2" class="data-point"/>
  
    <circle cx="689.4117647058823" cy="65.41786559242922" r="4" fill="#3b82f6" stroke="#0d1117" stroke-width="2" class="data-point"/>
  
    <circle cx="695.2941176470588" cy="58.55361596009976" r="4" fill="#3b82f6" stroke="#0d1117" stroke-width="2" class="data-point"/>
  
    <circle cx="701.1764705882352" cy="57.15039324765007" r="4" fill="#3b82f6" stroke="#0d1117" stroke-width="2" class="data-point"/>
  
    <circle cx="707.0588235294118" cy="56.968156531747525" r="4" fill="#3b82f6" stroke="#0d1117" stroke-width="2" class="data-point"/>
  
    <circle cx="712.9411764705883" cy="56.73124880107423" r="4" fill="#3b82f6" stroke="#0d1117" stroke-width="2" class="data-point"/>
  
    <circle cx="718.8235294117648" cy="56.53078841358143" r="4" fill="#3b82f6" stroke="#0d1117" stroke-width="2" class="data-point"/>
  
    <circle cx="724.7058823529411" cy="56.26958245412112" r="4" fill="#3b82f6" stroke="#0d1117" stroke-width="2" class="data-point"/>
  
    <circle cx="730.5882352941177" cy="56.03874928064454" r="4" fill="#3b82f6" stroke="#0d1117" stroke-width="2" class="data-point"/>
  
    <circle cx="736.4705882352941" cy="55.947630922693236" r="4" fill="#3b82f6" stroke="#0d1117" stroke-width="2" class="data-point"/>
  
    <circle cx="742.3529411764706" cy="55.61353027687193" r="4" fill="#3b82f6" stroke="#0d1117" stroke-width="2" class="data-point"/>
  
    <circle cx="748.2352941176471" cy="55.2915787454441" r="4" fill="#3b82f6" stroke="#0d1117" stroke-width="2" class="data-point"/>
  
    <circle cx="754.1176470588235" cy="55.078969243557765" r="4" fill="#3b82f6" stroke="#0d1117" stroke-width="2" class="data-point"/>
  
    <circle cx="760" cy="55" r="4" fill="#3b82f6" stroke="#0d1117" stroke-width="2" class="data-point"/>
  

  <!-- Axis lines -->
  <line x1="60" y1="55" x2="60" y2="340"
        stroke="#30363d" stroke-width="2"/>
  <line x1="60" y1="340" x2="760" y2="340"
        stroke="#30363d" stroke-width="2"/>
</svg>