<?xml version="1.0" encoding="UTF-8"?>
<svg width="800" height="400" xmlns="http://www.w3.org/2000/svg">
  <defs>
    <!-- Gradient for area fill -->
    <linearGradient id="areaGradient" x1="0%" y1="0%" x2="0%" y2="100%">
      <stop offset="0%" style="stop-color:#3b82f6;stop-opacity:0.3" />
      <stop offset="100%" style="stop-color:#3b82f6;stop-opacity:0.05" />
    </linearGradient>

    <!-- Glow filter for line -->
    <filter id="glow">
      <feGaussianBlur stdDeviation="2" result="coloredBlur"/>
      <feMerge>
        <feMergeNode in="coloredBlur"/>
        <feMergeNode in="SourceGraphic"/>
      </feMerge>
    </filter>

    <!-- Animation -->
    <style>
      @keyframes draw {
        from { stroke-dashoffset: 2000; }
        to { stroke-dashoffset: 0; }
      }
      @keyframes fadeIn {
        from { opacity: 0; }
        to { opacity: 1; }
      }
      .line-path {
        stroke-dasharray: 2000;
        stroke-dashoffset: 2000;
        animation: draw 1.5s ease-out forwards;
      }
      .area-path {
        opacity: 0;
        animation: fadeIn 1s ease-out 0.5s forwards;
      }
      .data-point {
        opacity: 0;
        animation: fadeIn 0.5s ease-out 1s forwards;
      }
    </style>
  </defs>

  <!-- Background -->
  <rect width="800" height="400" fill="#0d1117" rx="8"/>

  <!-- Title -->
  <text x="400" y="25" text-anchor="middle" fill="#c9d1d9" font-family="system-ui, -apple-system, sans-serif" font-size="16" font-weight="600">
    zxcloli666/SoundCloud-Desktop Downloads
  </text>

  <!-- Stats -->
  <text x="780" y="25" text-anchor="end" fill="#58a6ff" font-family="system-ui, -apple-system, sans-serif" font-size="14" font-weight="600">
    201.7K total
  </text>
  <text x="780" y="42" text-anchor="end" fill="#3fb950" font-family="system-ui, -apple-system, sans-serif" font-size="12">
    +2.2K (+1.1%)
  </text>

  <!-- Grid lines -->
  <g opacity="0.1">
    
      <line x1="60" y1="340" x2="760" y2="340"
            stroke="#c9d1d9" stroke-width="1"/>
    
      <line x1="60" y1="268.75" x2="760" y2="268.75"
            stroke="#c9d1d9" stroke-width="1"/>
    
      <line x1="60" y1="197.5" x2="760" y2="197.5"
            stroke="#c9d1d9" stroke-width="1"/>
    
      <line x1="60" y1="126.25" x2="760" y2="126.25"
            stroke="#c9d1d9" stroke-width="1"/>
    
      <line x1="60" y1="55" x2="760" y2="55"
            stroke="#c9d1d9" stroke-width="1"/>
    
  </g>

  <!-- Y-axis labels -->
  
    <text x="50" y="344" text-anchor="end"
          fill="#8b949e" font-family="system-ui, -apple-system, sans-serif" font-size="11">
      60.2K
    </text>
  
    <text x="50" y="272.75" text-anchor="end"
          fill="#8b949e" font-family="system-ui, -apple-system, sans-serif" font-size="11">
      95.5K
    </text>
  
    <text x="50" y="201.5" text-anchor="end"
          fill="#8b949e" font-family="system-ui, -apple-system, sans-serif" font-size="11">
      130.9K
    </text>
  
    <text x="50" y="130.25" text-anchor="end"
          fill="#8b949e" font-family="system-ui, -apple-system, sans-serif" font-size="11">
      166.3K
    </text>
  
    <text x="50" y="59" text-anchor="end"
          fill="#8b949e" font-family="system-ui, -apple-system, sans-serif" font-size="11">
      201.7K
    </text>
  

  <!-- X-axis labels -->
  
    <text x="60" y="360" text-anchor="middle"
          fill="#8b949e" font-family="system-ui, -apple-system, sans-serif" font-size="11">
      Nov 25
    </text>
  
    <text x="145.3658536585366" y="360" text-anchor="middle"
          fill="#8b949e" font-family="system-ui, -apple-system, sans-serif" font-size="11">
      Dec 15
    </text>
  
    <text x="230.73170731707316" y="360" text-anchor="middle"
          fill="#8b949e" font-family="system-ui, -apple-system, sans-serif" font-size="11">
      Jan 4
    </text>
  
    <text x="316.0975609756097" y="360" text-anchor="middle"
          fill="#8b949e" font-family="system-ui, -apple-system, sans-serif" font-size="11">
      Jan 24
    </text>
  
    <text x="401.4634146341463" y="360" text-anchor="middle"
          fill="#8b949e" font-family="system-ui, -apple-system, sans-serif" font-size="11">
      Feb 13
    </text>
  
    <text x="486.8292682926829" y="360" text-anchor="middle"
          fill="#8b949e" font-family="system-ui, -apple-system, sans-serif" font-size="11">
      Mar 5
    </text>
  
    <text x="572.1951219512194" y="360" text-anchor="middle"
          fill="#8b949e" font-family="system-ui, -apple-system, sans-serif" font-size="11">
      Mar 25
    </text>
  
    <text x="657.560975609756" y="360" text-anchor="middle"
          fill="#8b949e" font-family="system-ui, -apple-system, sans-serif" font-size="11">
      Apr 14
    </text>
  
    <text x="742.9268292682926" y="360" text-anchor="middle"
          fill="#8b949e" font-family="system-ui, -apple-system, sans-serif" font-size="11">
      May 4
    </text>
  
    <text x="760" y="360" text-anchor="middle"
          fill="#8b949e" font-family="system-ui, -apple-system, sans-serif" font-size="11">
      May 8
    </text>
  

  <!-- Area under line -->
  <path d="M 60 340
    L 60.00 340.00 L 64.27 339.70 L 68.54 339.20 L 72.80 338.73 L 77.07 337.81 L 81.34 336.85 L 85.61 336.09 L 89.88 335.39 L 94.15 334.76 L 98.41 334.03 L 102.68 333.21 L 106.95 332.33 L 111.22 331.53 L 115.49 330.68 L 119.76 330.07 L 124.02 329.43 L 128.29 328.56 L 132.56 327.97 L 136.83 327.17 L 141.10 326.24 L 145.37 325.54 L 149.63 324.96 L 153.90 324.59 L 158.17 324.28 L 162.44 323.71 L 166.71 323.30 L 170.98 322.40 L 175.24 322.05 L 179.51 321.59 L 183.78 321.01 L 188.05 320.60 L 192.32 320.19 L 196.59 319.77 L 200.85 319.47 L 205.12 319.21 L 209.39 318.82 L 213.66 318.34 L 217.93 317.90 L 222.20 317.35 L 226.46 316.74 L 230.73 316.18 L 235.00 315.51 L 239.27 314.86 L 243.54 314.20 L 247.80 313.48 L 252.07 312.79 L 256.34 312.00 L 260.61 311.30 L 264.88 310.70 L 269.15 310.23 L 273.41 309.56 L 277.68 308.81 L 281.95 308.11 L 286.22 307.30 L 290.49 306.30 L 294.76 305.55 L 299.02 304.94 L 303.29 304.35 L 307.56 303.64 L 311.83 302.82 L 316.10 301.91 L 320.37 300.95 L 324.63 300.03 L 328.90 299.23 L 333.17 298.43 L 337.44 297.72 L 341.71 297.00 L 345.98 296.19 L 350.24 295.19 L 354.51 294.44 L 358.78 293.78 L 363.05 293.03 L 367.32 292.34 L 371.59 291.58 L 375.85 290.79 L 380.12 289.96 L 384.39 289.23 L 388.66 288.61 L 392.93 287.92 L 397.20 287.19 L 401.46 286.50 L 405.73 285.61 L 410.00 284.84 L 414.27 284.10 L 418.54 283.49 L 422.80 282.89 L 427.07 282.30 L 431.34 281.58 L 435.61 280.85 L 439.88 279.95 L 444.15 279.23 L 448.41 278.64 L 452.68 278.04 L 456.95 277.46 L 461.22 276.74 L 465.49 276.00 L 469.76 274.38 L 474.02 271.15 L 478.29 267.29 L 482.56 263.78 L 486.83 262.00 L 491.10 259.32 L 495.37 257.54 L 499.63 255.98 L 503.90 254.45 L 508.17 253.01 L 512.44 250.77 L 516.71 248.99 L 520.98 246.72 L 525.24 246.25 L 529.51 246.19 L 533.78 246.11 L 538.05 246.05 L 542.32 245.96 L 546.59 245.88 L 550.85 245.85 L 555.12 245.74 L 559.39 245.64 L 563.66 245.57 L 567.93 245.54 L 572.20 245.42 L 576.46 242.50 L 580.73 237.93 L 585.00 234.87 L 589.27 231.31 L 593.54 227.65 L 597.80 224.77 L 602.07 221.56 L 606.34 216.66 L 610.61 210.06 L 614.88 205.75 L 619.15 200.62 L 623.41 194.91 L 627.68 190.32 L 631.95 185.35 L 636.22 180.94 L 640.49 176.57 L 644.76 172.21 L 649.02 166.27 L 653.29 160.32 L 657.56 155.36 L 661.83 151.20 L 666.10 147.16 L 670.37 141.81 L 674.63 137.65 L 678.90 133.54 L 683.17 129.70 L 687.44 126.08 L 691.71 122.37 L 695.98 119.20 L 700.24 115.92 L 704.51 112.57 L 708.78 109.02 L 713.05 105.77 L 717.32 102.79 L 721.59 97.40 L 725.85 92.88 L 730.12 88.54 L 734.39 84.38 L 738.66 77.80 L 742.93 73.64 L 747.20 70.04 L 751.46 65.78 L 755.73 59.51 L 760.00 55.00
    L 760 340
    Z" fill="url(#areaGradient)" class="area-path"/>

  <!-- Main line with glow -->
  <path d="M 60.00 340.00 L 64.27 339.70 L 68.54 339.20 L 72.80 338.73 L 77.07 337.81 L 81.34 336.85 L 85.61 336.09 L 89.88 335.39 L 94.15 334.76 L 98.41 334.03 L 102.68 333.21 L 106.95 332.33 L 111.22 331.53 L 115.49 330.68 L 119.76 330.07 L 124.02 329.43 L 128.29 328.56 L 132.56 327.97 L 136.83 327.17 L 141.10 326.24 L 145.37 325.54 L 149.63 324.96 L 153.90 324.59 L 158.17 324.28 L 162.44 323.71 L 166.71 323.30 L 170.98 322.40 L 175.24 322.05 L 179.51 321.59 L 183.78 321.01 L 188.05 320.60 L 192.32 320.19 L 196.59 319.77 L 200.85 319.47 L 205.12 319.21 L 209.39 318.82 L 213.66 318.34 L 217.93 317.90 L 222.20 317.35 L 226.46 316.74 L 230.73 316.18 L 235.00 315.51 L 239.27 314.86 L 243.54 314.20 L 247.80 313.48 L 252.07 312.79 L 256.34 312.00 L 260.61 311.30 L 264.88 310.70 L 269.15 310.23 L 273.41 309.56 L 277.68 308.81 L 281.95 308.11 L 286.22 307.30 L 290.49 306.30 L 294.76 305.55 L 299.02 304.94 L 303.29 304.35 L 307.56 303.64 L 311.83 302.82 L 316.10 301.91 L 320.37 300.95 L 324.63 300.03 L 328.90 299.23 L 333.17 298.43 L 337.44 297.72 L 341.71 297.00 L 345.98 296.19 L 350.24 295.19 L 354.51 294.44 L 358.78 293.78 L 363.05 293.03 L 367.32 292.34 L 371.59 291.58 L 375.85 290.79 L 380.12 289.96 L 384.39 289.23 L 388.66 288.61 L 392.93 287.92 L 397.20 287.19 L 401.46 286.50 L 405.73 285.61 L 410.00 284.84 L 414.27 284.10 L 418.54 283.49 L 422.80 282.89 L 427.07 282.30 L 431.34 281.58 L 435.61 280.85 L 439.88 279.95 L 444.15 279.23 L 448.41 278.64 L 452.68 278.04 L 456.95 277.46 L 461.22 276.74 L 465.49 276.00 L 469.76 274.38 L 474.02 271.15 L 478.29 267.29 L 482.56 263.78 L 486.83 262.00 L 491.10 259.32 L 495.37 257.54 L 499.63 255.98 L 503.90 254.45 L 508.17 253.01 L 512.44 250.77 L 516.71 248.99 L 520.98 246.72 L 525.24 246.25 L 529.51 246.19 L 533.78 246.11 L 538.05 246.05 L 542.32 245.96 L 546.59 245.88 L 550.85 245.85 L 555.12 245.74 L 559.39 245.64 L 563.66 245.57 L 567.93 245.54 L 572.20 245.42 L 576.46 242.50 L 580.73 237.93 L 585.00 234.87 L 589.27 231.31 L 593.54 227.65 L 597.80 224.77 L 602.07 221.56 L 606.34 216.66 L 610.61 210.06 L 614.88 205.75 L 619.15 200.62 L 623.41 194.91 L 627.68 190.32 L 631.95 185.35 L 636.22 180.94 L 640.49 176.57 L 644.76 172.21 L 649.02 166.27 L 653.29 160.32 L 657.56 155.36 L 661.83 151.20 L 666.10 147.16 L 670.37 141.81 L 674.63 137.65 L 678.90 133.54 L 683.17 129.70 L 687.44 126.08 L 691.71 122.37 L 695.98 119.20 L 700.24 115.92 L 704.51 112.57 L 708.78 109.02 L 713.05 105.77 L 717.32 102.79 L 721.59 97.40 L 725.85 92.88 L 730.12 88.54 L 734.39 84.38 L 738.66 77.80 L 742.93 73.64 L 747.20 70.04 L 751.46 65.78 L 755.73 59.51 L 760.00 55.00" fill="none" stroke="#3b82f6" stroke-width="3"
        stroke-linecap="round" stroke-linejoin="round" filter="url(#glow)" class="line-path"/>

  <!-- Data points -->
  
    <circle cx="60" cy="340" r="4" fill="#3b82f6" stroke="#0d1117" stroke-width="2" class="data-point"/>
  
    <circle cx="64.26829268292683" cy="339.7040372999894" r="4" fill="#3b82f6" stroke="#0d1117" stroke-width="2" class="data-point"/>
  
    <circle cx="68.53658536585365" cy="339.20069937480133" r="4" fill="#3b82f6" stroke="#0d1117" stroke-width="2" class="data-point"/>
  
    <circle cx="72.8048780487805" cy="338.73360178022676" r="4" fill="#3b82f6" stroke="#0d1117" stroke-width="2" class="data-point"/>
  
    <circle cx="77.07317073170732" cy="337.8054466461799" r="4" fill="#3b82f6" stroke="#0d1117" stroke-width="2" class="data-point"/>
  
    <circle cx="81.34146341463415" cy="336.8470912366218" r="4" fill="#3b82f6" stroke="#0d1117" stroke-width="2" class="data-point"/>
  
    <circle cx="85.60975609756098" cy="336.09208434883965" r="4" fill="#3b82f6" stroke="#0d1117" stroke-width="2" class="data-point"/>
  
    <circle cx="89.8780487804878" cy="335.3874112535764" r="4" fill="#3b82f6" stroke="#0d1117" stroke-width="2" class="data-point"/>
  
    <circle cx="94.14634146341464" cy="334.76125887464235" r="4" fill="#3b82f6" stroke="#0d1117" stroke-width="2" class="data-point"/>
  
    <circle cx="98.41463414634146" cy="334.02638550386774" r="4" fill="#3b82f6" stroke="#0d1117" stroke-width="2" class="data-point"/>
  
    <circle cx="102.6829268292683" cy="333.20695136166154" r="4" fill="#3b82f6" stroke="#0d1117" stroke-width="2" class="data-point"/>
  
    <circle cx="106.95121951219512" cy="332.3291300201335" r="4" fill="#3b82f6" stroke="#0d1117" stroke-width="2" class="data-point"/>
  
    <circle cx="111.21951219512195" cy="331.53184274663556" r="4" fill="#3b82f6" stroke="#0d1117" stroke-width="2" class="data-point"/>
  
    <circle cx="115.48780487804879" cy="330.68422168061886" r="4" fill="#3b82f6" stroke="#0d1117" stroke-width="2" class="data-point"/>
  
    <circle cx="119.7560975609756" cy="330.06612270848785" r="4" fill="#3b82f6" stroke="#0d1117" stroke-width="2" class="data-point"/>
  
    <circle cx="124.02439024390243" cy="329.42587686764864" r="4" fill="#3b82f6" stroke="#0d1117" stroke-width="2" class="data-point"/>
  
    <circle cx="128.2926829268293" cy="328.5561089329236" r="4" fill="#3b82f6" stroke="#0d1117" stroke-width="2" class="data-point"/>
  
    <circle cx="132.5609756097561" cy="327.9742502914062" r="4" fill="#3b82f6" stroke="#0d1117" stroke-width="2" class="data-point"/>
  
    <circle cx="136.8292682926829" cy="327.1689096111052" r="4" fill="#3b82f6" stroke="#0d1117" stroke-width="2" class="data-point"/>
  
    <circle cx="141.09756097560978" cy="326.23874112535765" r="4" fill="#3b82f6" stroke="#0d1117" stroke-width="2" class="data-point"/>
  
    <circle cx="145.3658536585366" cy="325.5380947334958" r="4" fill="#3b82f6" stroke="#0d1117" stroke-width="2" class="data-point"/>
  
    <circle cx="149.6341463414634" cy="324.9622761470806" r="4" fill="#3b82f6" stroke="#0d1117" stroke-width="2" class="data-point"/>
  
    <circle cx="153.90243902439025" cy="324.58980608244144" r="4" fill="#3b82f6" stroke="#0d1117" stroke-width="2" class="data-point"/>
  
    <circle cx="158.1707317073171" cy="324.2797499205256" r="4" fill="#3b82f6" stroke="#0d1117" stroke-width="2" class="data-point"/>
  
    <circle cx="162.4390243902439" cy="323.7059446858112" r="4" fill="#3b82f6" stroke="#0d1117" stroke-width="2" class="data-point"/>
  
    <circle cx="166.7073170731707" cy="323.29723429055844" r="4" fill="#3b82f6" stroke="#0d1117" stroke-width="2" class="data-point"/>
  
    <circle cx="170.97560975609758" cy="322.40129278372365" r="4" fill="#3b82f6" stroke="#0d1117" stroke-width="2" class="data-point"/>
  
    <circle cx="175.2439024390244" cy="322.04895623609195" r="4" fill="#3b82f6" stroke="#0d1117" stroke-width="2" class="data-point"/>
  
    <circle cx="179.5121951219512" cy="321.59393875172196" r="4" fill="#3b82f6" stroke="#0d1117" stroke-width="2" class="data-point"/>
  
    <circle cx="183.78048780487802" cy="321.00604005510223" r="4" fill="#3b82f6" stroke="#0d1117" stroke-width="2" class="data-point"/>
  
    <circle cx="188.04878048780486" cy="320.6033697149518" r="4" fill="#3b82f6" stroke="#0d1117" stroke-width="2" class="data-point"/>
  
    <circle cx="192.3170731707317" cy="320.19465931969904" r="4" fill="#3b82f6" stroke="#0d1117" stroke-width="2" class="data-point"/>
  
    <circle cx="196.58536585365854" cy="319.7658154074388" r="4" fill="#3b82f6" stroke="#0d1117" stroke-width="2" class="data-point"/>
  
    <circle cx="200.85365853658539" cy="319.46783935572745" r="4" fill="#3b82f6" stroke="#0d1117" stroke-width="2" class="data-point"/>
  
    <circle cx="205.1219512195122" cy="319.21013033803115" r="4" fill="#3b82f6" stroke="#0d1117" stroke-width="2" class="data-point"/>
  
    <circle cx="209.390243902439" cy="318.81752675638444" r="4" fill="#3b82f6" stroke="#0d1117" stroke-width="2" class="data-point"/>
  
    <circle cx="213.65853658536585" cy="318.34036240330613" r="4" fill="#3b82f6" stroke="#0d1117" stroke-width="2" class="data-point"/>
  
    <circle cx="217.9268292682927" cy="317.9014517325421" r="4" fill="#3b82f6" stroke="#0d1117" stroke-width="2" class="data-point"/>
  
    <circle cx="222.19512195121953" cy="317.34576666313444" r="4" fill="#3b82f6" stroke="#0d1117" stroke-width="2" class="data-point"/>
  
    <circle cx="226.46341463414635" cy="316.739747801208" r="4" fill="#3b82f6" stroke="#0d1117" stroke-width="2" class="data-point"/>
  
    <circle cx="230.73170731707316" cy="316.18406273180034" r="4" fill="#3b82f6" stroke="#0d1117" stroke-width="2" class="data-point"/>
  
    <circle cx="235" cy="315.51361661544985" r="4" fill="#3b82f6" stroke="#0d1117" stroke-width="2" class="data-point"/>
  
    <circle cx="239.26829268292684" cy="314.8552506093038" r="4" fill="#3b82f6" stroke="#0d1117" stroke-width="2" class="data-point"/>
  
    <circle cx="243.53658536585365" cy="314.1968846031578" r="4" fill="#3b82f6" stroke="#0d1117" stroke-width="2" class="data-point"/>
  
    <circle cx="247.8048780487805" cy="313.47610469428844" r="4" fill="#3b82f6" stroke="#0d1117" stroke-width="2" class="data-point"/>
  
    <circle cx="252.07317073170734" cy="312.78753841263114" r="4" fill="#3b82f6" stroke="#0d1117" stroke-width="2" class="data-point"/>
  
    <circle cx="256.3414634146342" cy="312.00031789763693" r="4" fill="#3b82f6" stroke="#0d1117" stroke-width="2" class="data-point"/>
  
    <circle cx="260.609756097561" cy="311.2976581540744" r="4" fill="#3b82f6" stroke="#0d1117" stroke-width="2" class="data-point"/>
  
    <circle cx="264.8780487804878" cy="310.7037194023524" r="4" fill="#3b82f6" stroke="#0d1117" stroke-width="2" class="data-point"/>
  
    <circle cx="269.1463414634146" cy="310.2285684009749" r="4" fill="#3b82f6" stroke="#0d1117" stroke-width="2" class="data-point"/>
  
    <circle cx="273.4146341463414" cy="309.56416233972664" r="4" fill="#3b82f6" stroke="#0d1117" stroke-width="2" class="data-point"/>
  
    <circle cx="277.6829268292683" cy="308.805128748543" r="4" fill="#3b82f6" stroke="#0d1117" stroke-width="2" class="data-point"/>
  
    <circle cx="281.95121951219517" cy="308.1105224117834" r="4" fill="#3b82f6" stroke="#0d1117" stroke-width="2" class="data-point"/>
  
    <circle cx="286.219512195122" cy="307.2991416763802" r="4" fill="#3b82f6" stroke="#0d1117" stroke-width="2" class="data-point"/>
  
    <circle cx="290.4878048780488" cy="306.2985058811063" r="4" fill="#3b82f6" stroke="#0d1117" stroke-width="2" class="data-point"/>
  
    <circle cx="294.7560975609756" cy="305.55356575182793" r="4" fill="#3b82f6" stroke="#0d1117" stroke-width="2" class="data-point"/>
  
    <circle cx="299.0243902439024" cy="304.9354667796969" r="4" fill="#3b82f6" stroke="#0d1117" stroke-width="2" class="data-point"/>
  
    <circle cx="303.29268292682923" cy="304.34756808307725" r="4" fill="#3b82f6" stroke="#0d1117" stroke-width="2" class="data-point"/>
  
    <circle cx="307.56097560975604" cy="303.6408816361132" r="4" fill="#3b82f6" stroke="#0d1117" stroke-width="2" class="data-point"/>
  
    <circle cx="311.8292682926829" cy="302.8194341422062" r="4" fill="#3b82f6" stroke="#0d1117" stroke-width="2" class="data-point"/>
  
    <circle cx="316.0975609756097" cy="301.9093991734661" r="4" fill="#3b82f6" stroke="#0d1117" stroke-width="2" class="data-point"/>
  
    <circle cx="320.3658536585366" cy="300.9530571156088" r="4" fill="#3b82f6" stroke="#0d1117" stroke-width="2" class="data-point"/>
  
    <circle cx="324.6341463414634" cy="300.0349687400657" r="4" fill="#3b82f6" stroke="#0d1117" stroke-width="2" class="data-point"/>
  
    <circle cx="328.9024390243903" cy="299.227614708064" r="4" fill="#3b82f6" stroke="#0d1117" stroke-width="2" class="data-point"/>
  
    <circle cx="333.1707317073171" cy="298.4263007311646" r="4" fill="#3b82f6" stroke="#0d1117" stroke-width="2" class="data-point"/>
  
    <circle cx="337.4390243902439" cy="297.7196142842005" r="4" fill="#3b82f6" stroke="#0d1117" stroke-width="2" class="data-point"/>
  
    <circle cx="341.70731707317077" cy="296.99883437533117" r="4" fill="#3b82f6" stroke="#0d1117" stroke-width="2" class="data-point"/>
  
    <circle cx="345.9756097560975" cy="296.1934936950302" r="4" fill="#3b82f6" stroke="#0d1117" stroke-width="2" class="data-point"/>
  
    <circle cx="350.2439024390244" cy="295.1908445480555" r="4" fill="#3b82f6" stroke="#0d1117" stroke-width="2" class="data-point"/>
  
    <circle cx="354.5121951219512" cy="294.4438910670764" r="4" fill="#3b82f6" stroke="#0d1117" stroke-width="2" class="data-point"/>
  
    <circle cx="358.780487804878" cy="293.7754583024266" r="4" fill="#3b82f6" stroke="#0d1117" stroke-width="2" class="data-point"/>
  
    <circle cx="363.0487804878049" cy="293.032531524849" r="4" fill="#3b82f6" stroke="#0d1117" stroke-width="2" class="data-point"/>
  
    <circle cx="367.3170731707317" cy="292.3399385397902" r="4" fill="#3b82f6" stroke="#0d1117" stroke-width="2" class="data-point"/>
  
    <circle cx="371.5853658536585" cy="291.5788915969058" r="4" fill="#3b82f6" stroke="#0d1117" stroke-width="2" class="data-point"/>
  
    <circle cx="375.8536585365854" cy="290.78563102680937" r="4" fill="#3b82f6" stroke="#0d1117" stroke-width="2" class="data-point"/>
  
    <circle cx="380.1219512195122" cy="289.9561301260994" r="4" fill="#3b82f6" stroke="#0d1117" stroke-width="2" class="data-point"/>
  
    <circle cx="384.39024390243907" cy="289.2293101621278" r="4" fill="#3b82f6" stroke="#0d1117" stroke-width="2" class="data-point"/>
  
    <circle cx="388.6585365853658" cy="288.6071844865953" r="4" fill="#3b82f6" stroke="#0d1117" stroke-width="2" class="data-point"/>
  
    <circle cx="392.9268292682927" cy="287.92465826004025" r="4" fill="#3b82f6" stroke="#0d1117" stroke-width="2" class="data-point"/>
  
    <circle cx="397.1951219512195" cy="287.18575818586413" r="4" fill="#3b82f6" stroke="#0d1117" stroke-width="2" class="data-point"/>
  
    <circle cx="401.4634146341463" cy="286.50121860760834" r="4" fill="#3b82f6" stroke="#0d1117" stroke-width="2" class="data-point"/>
  
    <circle cx="405.7317073170732" cy="285.60930380417506" r="4" fill="#3b82f6" stroke="#0d1117" stroke-width="2" class="data-point"/>
  
    <circle cx="410" cy="284.8422168061884" r="4" fill="#3b82f6" stroke="#0d1117" stroke-width="2" class="data-point"/>
  
    <circle cx="414.2682926829268" cy="284.1033167320123" r="4" fill="#3b82f6" stroke="#0d1117" stroke-width="2" class="data-point"/>
  
    <circle cx="418.5365853658537" cy="283.48924446328283" r="4" fill="#3b82f6" stroke="#0d1117" stroke-width="2" class="data-point"/>
  
    <circle cx="422.8048780487805" cy="282.89329235986014" r="4" fill="#3b82f6" stroke="#0d1117" stroke-width="2" class="data-point"/>
  
    <circle cx="427.0731707317073" cy="282.29532690473667" r="4" fill="#3b82f6" stroke="#0d1117" stroke-width="2" class="data-point"/>
  
    <circle cx="431.3414634146342" cy="281.5805870509696" r="4" fill="#3b82f6" stroke="#0d1117" stroke-width="2" class="data-point"/>
  
    <circle cx="435.609756097561" cy="280.845713680195" r="4" fill="#3b82f6" stroke="#0d1117" stroke-width="2" class="data-point"/>
  
    <circle cx="439.87804878048786" cy="279.95379887676165" r="4" fill="#3b82f6" stroke="#0d1117" stroke-width="2" class="data-point"/>
  
    <circle cx="444.1463414634147" cy="279.23100561619157" r="4" fill="#3b82f6" stroke="#0d1117" stroke-width="2" class="data-point"/>
  
    <circle cx="448.4146341463415" cy="278.64109356787117" r="4" fill="#3b82f6" stroke="#0d1117" stroke-width="2" class="data-point"/>
  
    <circle cx="452.68292682926835" cy="278.0350747059447" r="4" fill="#3b82f6" stroke="#0d1117" stroke-width="2" class="data-point"/>
  
    <circle cx="456.9512195121951" cy="277.455229416128" r="4" fill="#3b82f6" stroke="#0d1117" stroke-width="2" class="data-point"/>
  
    <circle cx="461.2195121951219" cy="276.73847621066017" r="4" fill="#3b82f6" stroke="#0d1117" stroke-width="2" class="data-point"/>
  
    <circle cx="465.48780487804873" cy="276.00360283988556" r="4" fill="#3b82f6" stroke="#0d1117" stroke-width="2" class="data-point"/>
  
    <circle cx="469.7560975609756" cy="274.3788280173784" r="4" fill="#3b82f6" stroke="#0d1117" stroke-width="2" class="data-point"/>
  
    <circle cx="474.0243902439024" cy="271.1453851859701" r="4" fill="#3b82f6" stroke="#0d1117" stroke-width="2" class="data-point"/>
  
    <circle cx="478.29268292682923" cy="267.29384338243085" r="4" fill="#3b82f6" stroke="#0d1117" stroke-width="2" class="data-point"/>
  
    <circle cx="482.5609756097561" cy="263.7845713680195" r="4" fill="#3b82f6" stroke="#0d1117" stroke-width="2" class="data-point"/>
  
    <circle cx="486.8292682926829" cy="262.00476846455445" r="4" fill="#3b82f6" stroke="#0d1117" stroke-width="2" class="data-point"/>
  
    <circle cx="491.0975609756097" cy="259.32298399915226" r="4" fill="#3b82f6" stroke="#0d1117" stroke-width="2" class="data-point"/>
  
    <circle cx="495.3658536585366" cy="257.5411677439864" r="4" fill="#3b82f6" stroke="#0d1117" stroke-width="2" class="data-point"/>
  
    <circle cx="499.6341463414634" cy="255.9788068242026" r="4" fill="#3b82f6" stroke="#0d1117" stroke-width="2" class="data-point"/>
  
    <circle cx="503.9024390243903" cy="254.45067288333158" r="4" fill="#3b82f6" stroke="#0d1117" stroke-width="2" class="data-point"/>
  
    <circle cx="508.1707317073171" cy="253.0111264172936" r="4" fill="#3b82f6" stroke="#0d1117" stroke-width="2" class="data-point"/>
  
    <circle cx="512.439024390244" cy="250.772279326057" r="4" fill="#3b82f6" stroke="#0d1117" stroke-width="2" class="data-point"/>
  
    <circle cx="516.7073170731708" cy="248.99247642259195" r="4" fill="#3b82f6" stroke="#0d1117" stroke-width="2" class="data-point"/>
  
    <circle cx="520.9756097560976" cy="246.71738900074178" r="4" fill="#3b82f6" stroke="#0d1117" stroke-width="2" class="data-point"/>
  
    <circle cx="525.2439024390244" cy="246.252304757868" r="4" fill="#3b82f6" stroke="#0d1117" stroke-width="2" class="data-point"/>
  
    <circle cx="529.5121951219512" cy="246.19190420684538" r="4" fill="#3b82f6" stroke="#0d1117" stroke-width="2" class="data-point"/>
  
    <circle cx="533.780487804878" cy="246.11338349051604" r="4" fill="#3b82f6" stroke="#0d1117" stroke-width="2" class="data-point"/>
  
    <circle cx="538.0487804878048" cy="246.04694288439123" r="4" fill="#3b82f6" stroke="#0d1117" stroke-width="2" class="data-point"/>
  
    <circle cx="542.3170731707316" cy="245.96036876125888" r="4" fill="#3b82f6" stroke="#0d1117" stroke-width="2" class="data-point"/>
  
    <circle cx="546.5853658536585" cy="245.8838613966303" r="4" fill="#3b82f6" stroke="#0d1117" stroke-width="2" class="data-point"/>
  
    <circle cx="550.8536585365853" cy="245.853661121119" r="4" fill="#3b82f6" stroke="#0d1117" stroke-width="2" class="data-point"/>
  
    <circle cx="555.1219512195121" cy="245.74292677757762" r="4" fill="#3b82f6" stroke="#0d1117" stroke-width="2" class="data-point"/>
  
    <circle cx="559.390243902439" cy="245.63621913743776" r="4" fill="#3b82f6" stroke="#0d1117" stroke-width="2" class="data-point"/>
  
    <circle cx="563.6585365853658" cy="245.5657518279114" r="4" fill="#3b82f6" stroke="#0d1117" stroke-width="2" class="data-point"/>
  
    <circle cx="567.9268292682927" cy="245.53957825580164" r="4" fill="#3b82f6" stroke="#0d1117" stroke-width="2" class="data-point"/>
  
    <circle cx="572.1951219512194" cy="245.42079050545726" r="4" fill="#3b82f6" stroke="#0d1117" stroke-width="2" class="data-point"/>
  
    <circle cx="576.4634146341464" cy="242.5014305393663" r="4" fill="#3b82f6" stroke="#0d1117" stroke-width="2" class="data-point"/>
  
    <circle cx="580.7317073170732" cy="237.9291088269577" r="4" fill="#3b82f6" stroke="#0d1117" stroke-width="2" class="data-point"/>
  
    <circle cx="585" cy="234.86680089011338" r="4" fill="#3b82f6" stroke="#0d1117" stroke-width="2" class="data-point"/>
  
    <circle cx="589.2682926829268" cy="231.31122178658472" r="4" fill="#3b82f6" stroke="#0d1117" stroke-width="2" class="data-point"/>
  
    <circle cx="593.5365853658536" cy="227.64692169121543" r="4" fill="#3b82f6" stroke="#0d1117" stroke-width="2" class="data-point"/>
  
    <circle cx="597.8048780487806" cy="224.77185546254105" r="4" fill="#3b82f6" stroke="#0d1117" stroke-width="2" class="data-point"/>
  
    <circle cx="602.0731707317074" cy="221.55653279643957" r="4" fill="#3b82f6" stroke="#0d1117" stroke-width="2" class="data-point"/>
  
    <circle cx="606.3414634146342" cy="216.65804810850906" r="4" fill="#3b82f6" stroke="#0d1117" stroke-width="2" class="data-point"/>
  
    <circle cx="610.609756097561" cy="210.0562678817421" r="4" fill="#3b82f6" stroke="#0d1117" stroke-width="2" class="data-point"/>
  
    <circle cx="614.8780487804878" cy="205.74769524213204" r="4" fill="#3b82f6" stroke="#0d1117" stroke-width="2" class="data-point"/>
  
    <circle cx="619.1463414634146" cy="200.61968846031579" r="4" fill="#3b82f6" stroke="#0d1117" stroke-width="2" class="data-point"/>
  
    <circle cx="623.4146341463415" cy="194.9057963335806" r="4" fill="#3b82f6" stroke="#0d1117" stroke-width="2" class="data-point"/>
  
    <circle cx="627.6829268292684" cy="190.32340786266823" r="4" fill="#3b82f6" stroke="#0d1117" stroke-width="2" class="data-point"/>
  
    <circle cx="631.951219512195" cy="185.3504291618099" r="4" fill="#3b82f6" stroke="#0d1117" stroke-width="2" class="data-point"/>
  
    <circle cx="636.2195121951219" cy="180.9391755854615" r="4" fill="#3b82f6" stroke="#0d1117" stroke-width="2" class="data-point"/>
  
    <circle cx="640.4878048780488" cy="176.5681890431281" r="4" fill="#3b82f6" stroke="#0d1117" stroke-width="2" class="data-point"/>
  
    <circle cx="644.7560975609756" cy="172.20928261099925" r="4" fill="#3b82f6" stroke="#0d1117" stroke-width="2" class="data-point"/>
  
    <circle cx="649.0243902439024" cy="166.27392179718132" r="4" fill="#3b82f6" stroke="#0d1117" stroke-width="2" class="data-point"/>
  
    <circle cx="653.2926829268292" cy="160.32044081805657" r="4" fill="#3b82f6" stroke="#0d1117" stroke-width="2" class="data-point"/>
  
    <circle cx="657.560975609756" cy="155.35752887570203" r="4" fill="#3b82f6" stroke="#0d1117" stroke-width="2" class="data-point"/>
  
    <circle cx="661.829268292683" cy="151.19794426194764" r="4" fill="#3b82f6" stroke="#0d1117" stroke-width="2" class="data-point"/>
  
    <circle cx="666.0975609756098" cy="147.16318745363995" r="4" fill="#3b82f6" stroke="#0d1117" stroke-width="2" class="data-point"/>
  
    <circle cx="670.3658536585366" cy="141.80767192963867" r="4" fill="#3b82f6" stroke="#0d1117" stroke-width="2" class="data-point"/>
  
    <circle cx="674.6341463414634" cy="137.65412737098654" r="4" fill="#3b82f6" stroke="#0d1117" stroke-width="2" class="data-point"/>
  
    <circle cx="678.9024390243902" cy="133.54487654975097" r="4" fill="#3b82f6" stroke="#0d1117" stroke-width="2" class="data-point"/>
  
    <circle cx="683.170731707317" cy="129.7013881530147" r="4" fill="#3b82f6" stroke="#0d1117" stroke-width="2" class="data-point"/>
  
    <circle cx="687.439024390244" cy="126.08138179506199" r="4" fill="#3b82f6" stroke="#0d1117" stroke-width="2" class="data-point"/>
  
    <circle cx="691.7073170731708" cy="122.37278796227613" r="4" fill="#3b82f6" stroke="#0d1117" stroke-width="2" class="data-point"/>
  
    <circle cx="695.9756097560976" cy="119.20175903359117" r="4" fill="#3b82f6" stroke="#0d1117" stroke-width="2" class="data-point"/>
  
    <circle cx="700.2439024390244" cy="115.91798240966409" r="4" fill="#3b82f6" stroke="#0d1117" stroke-width="2" class="data-point"/>
  
    <circle cx="704.5121951219512" cy="112.56575182791141" r="4" fill="#3b82f6" stroke="#0d1117" stroke-width="2" class="data-point"/>
  
    <circle cx="708.7804878048781" cy="109.02225283458728" r="4" fill="#3b82f6" stroke="#0d1117" stroke-width="2" class="data-point"/>
  
    <circle cx="713.048780487805" cy="105.77068983787223" r="4" fill="#3b82f6" stroke="#0d1117" stroke-width="2" class="data-point"/>
  
    <circle cx="717.3170731707316" cy="102.79294267245945" r="4" fill="#3b82f6" stroke="#0d1117" stroke-width="2" class="data-point"/>
  
    <circle cx="721.5853658536585" cy="97.39716011444312" r="4" fill="#3b82f6" stroke="#0d1117" stroke-width="2" class="data-point"/>
  
    <circle cx="725.8536585365854" cy="92.88121224965562" r="4" fill="#3b82f6" stroke="#0d1117" stroke-width="2" class="data-point"/>
  
    <circle cx="730.1219512195122" cy="88.54445268623505" r="4" fill="#3b82f6" stroke="#0d1117" stroke-width="2" class="data-point"/>
  
    <circle cx="734.390243902439" cy="84.3788280173784" r="4" fill="#3b82f6" stroke="#0d1117" stroke-width="2" class="data-point"/>
  
    <circle cx="738.6585365853658" cy="77.80120801102044" r="4" fill="#3b82f6" stroke="#0d1117" stroke-width="2" class="data-point"/>
  
    <circle cx="742.9268292682926" cy="73.63961004556535" r="4" fill="#3b82f6" stroke="#0d1117" stroke-width="2" class="data-point"/>
  
    <circle cx="747.1951219512194" cy="70.03772385291938" r="4" fill="#3b82f6" stroke="#0d1117" stroke-width="2" class="data-point"/>
  
    <circle cx="751.4634146341464" cy="65.78351170922963" r="4" fill="#3b82f6" stroke="#0d1117" stroke-width="2" class="data-point"/>
  
    <circle cx="755.7317073170732" cy="59.511921161386056" r="4" fill="#3b82f6" stroke="#0d1117" stroke-width="2" class="data-point"/>
  
    <circle cx="760" cy="55" r="4" fill="#3b82f6" stroke="#0d1117" stroke-width="2" class="data-point"/>
  

  <!-- Axis lines -->
  <line x1="60" y1="55" x2="60" y2="340"
        stroke="#30363d" stroke-width="2"/>
  <line x1="60" y1="340" x2="760" y2="340"
        stroke="#30363d" stroke-width="2"/>
</svg>