<?xml version="1.0" encoding="UTF-8"?>
<svg width="800" height="400" xmlns="http://www.w3.org/2000/svg">
  <defs>
    <!-- Gradient for area fill -->
    <linearGradient id="areaGradient" x1="0%" y1="0%" x2="0%" y2="100%">
      <stop offset="0%" style="stop-color:#3b82f6;stop-opacity:0.3" />
      <stop offset="100%" style="stop-color:#3b82f6;stop-opacity:0.05" />
    </linearGradient>

    <!-- Glow filter for line -->
    <filter id="glow">
      <feGaussianBlur stdDeviation="2" result="coloredBlur"/>
      <feMerge>
        <feMergeNode in="coloredBlur"/>
        <feMergeNode in="SourceGraphic"/>
      </feMerge>
    </filter>

    <!-- Animation -->
    <style>
      @keyframes draw {
        from { stroke-dashoffset: 2000; }
        to { stroke-dashoffset: 0; }
      }
      @keyframes fadeIn {
        from { opacity: 0; }
        to { opacity: 1; }
      }
      .line-path {
        stroke-dasharray: 2000;
        stroke-dashoffset: 2000;
        animation: draw 1.5s ease-out forwards;
      }
      .area-path {
        opacity: 0;
        animation: fadeIn 1s ease-out 0.5s forwards;
      }
      .data-point {
        opacity: 0;
        animation: fadeIn 0.5s ease-out 1s forwards;
      }
    </style>
  </defs>

  <!-- Background -->
  <rect width="800" height="400" fill="#0d1117" rx="8"/>

  <!-- Title -->
  <text x="400" y="25" text-anchor="middle" fill="#c9d1d9" font-family="system-ui, -apple-system, sans-serif" font-size="16" font-weight="600">
    zxcloli666/SoundCloud-Desktop Downloads
  </text>

  <!-- Stats -->
  <text x="780" y="25" text-anchor="end" fill="#58a6ff" font-family="system-ui, -apple-system, sans-serif" font-size="14" font-weight="600">
    89.2K total
  </text>
  <text x="780" y="42" text-anchor="end" fill="#3fb950" font-family="system-ui, -apple-system, sans-serif" font-size="12">
    +355 (+0.4%)
  </text>

  <!-- Grid lines -->
  <g opacity="0.1">
    
      <line x1="60" y1="340" x2="760" y2="340"
            stroke="#c9d1d9" stroke-width="1"/>
    
      <line x1="60" y1="268.75" x2="760" y2="268.75"
            stroke="#c9d1d9" stroke-width="1"/>
    
      <line x1="60" y1="197.5" x2="760" y2="197.5"
            stroke="#c9d1d9" stroke-width="1"/>
    
      <line x1="60" y1="126.25" x2="760" y2="126.25"
            stroke="#c9d1d9" stroke-width="1"/>
    
      <line x1="60" y1="55" x2="760" y2="55"
            stroke="#c9d1d9" stroke-width="1"/>
    
  </g>

  <!-- Y-axis labels -->
  
    <text x="50" y="344" text-anchor="end"
          fill="#8b949e" font-family="system-ui, -apple-system, sans-serif" font-size="11">
      60.2K
    </text>
  
    <text x="50" y="272.75" text-anchor="end"
          fill="#8b949e" font-family="system-ui, -apple-system, sans-serif" font-size="11">
      67.4K
    </text>
  
    <text x="50" y="201.5" text-anchor="end"
          fill="#8b949e" font-family="system-ui, -apple-system, sans-serif" font-size="11">
      74.7K
    </text>
  
    <text x="50" y="130.25" text-anchor="end"
          fill="#8b949e" font-family="system-ui, -apple-system, sans-serif" font-size="11">
      81.9K
    </text>
  
    <text x="50" y="59" text-anchor="end"
          fill="#8b949e" font-family="system-ui, -apple-system, sans-serif" font-size="11">
      89.2K
    </text>
  

  <!-- X-axis labels -->
  
    <text x="60" y="360" text-anchor="middle"
          fill="#8b949e" font-family="system-ui, -apple-system, sans-serif" font-size="11">
      Nov 25
    </text>
  
    <text x="148.5057471264368" y="360" text-anchor="middle"
          fill="#8b949e" font-family="system-ui, -apple-system, sans-serif" font-size="11">
      Dec 6
    </text>
  
    <text x="237.01149425287358" y="360" text-anchor="middle"
          fill="#8b949e" font-family="system-ui, -apple-system, sans-serif" font-size="11">
      Dec 17
    </text>
  
    <text x="325.51724137931035" y="360" text-anchor="middle"
          fill="#8b949e" font-family="system-ui, -apple-system, sans-serif" font-size="11">
      Dec 28
    </text>
  
    <text x="414.02298850574715" y="360" text-anchor="middle"
          fill="#8b949e" font-family="system-ui, -apple-system, sans-serif" font-size="11">
      Jan 8
    </text>
  
    <text x="502.5287356321839" y="360" text-anchor="middle"
          fill="#8b949e" font-family="system-ui, -apple-system, sans-serif" font-size="11">
      Jan 19
    </text>
  
    <text x="591.0344827586207" y="360" text-anchor="middle"
          fill="#8b949e" font-family="system-ui, -apple-system, sans-serif" font-size="11">
      Jan 30
    </text>
  
    <text x="679.5402298850574" y="360" text-anchor="middle"
          fill="#8b949e" font-family="system-ui, -apple-system, sans-serif" font-size="11">
      Feb 10
    </text>
  
    <text x="760" y="360" text-anchor="middle"
          fill="#8b949e" font-family="system-ui, -apple-system, sans-serif" font-size="11">
      Feb 20
    </text>
  

  <!-- Area under line -->
  <path d="M 60 340
    L 60.00 340.00 L 68.05 338.56 L 76.09 336.10 L 84.14 333.82 L 92.18 329.29 L 100.23 324.62 L 108.28 320.94 L 116.32 317.50 L 124.37 314.44 L 132.41 310.86 L 140.46 306.86 L 148.51 302.58 L 156.55 298.69 L 164.60 294.55 L 172.64 291.54 L 180.69 288.41 L 188.74 284.17 L 196.78 281.33 L 204.83 277.40 L 212.87 272.87 L 220.92 269.45 L 228.97 266.64 L 237.01 264.82 L 245.06 263.31 L 253.10 260.51 L 261.15 258.52 L 269.20 254.14 L 277.24 252.43 L 285.29 250.21 L 293.33 247.34 L 301.38 245.37 L 309.43 243.38 L 317.47 241.29 L 325.52 239.83 L 333.56 238.58 L 341.61 236.66 L 349.66 234.33 L 357.70 232.19 L 365.75 229.48 L 373.79 226.52 L 381.84 223.81 L 389.89 220.54 L 397.93 217.33 L 405.98 214.12 L 414.02 210.60 L 422.07 207.24 L 430.11 203.40 L 438.16 199.98 L 446.21 197.08 L 454.25 194.76 L 462.30 191.52 L 470.34 187.82 L 478.39 184.43 L 486.44 180.47 L 494.48 175.59 L 502.53 171.95 L 510.57 168.94 L 518.62 166.07 L 526.67 162.62 L 534.71 158.61 L 542.76 154.17 L 550.80 149.51 L 558.85 145.03 L 566.90 141.09 L 574.94 137.18 L 582.99 133.73 L 591.03 130.22 L 599.08 126.29 L 607.13 121.40 L 615.17 117.75 L 623.22 114.49 L 631.26 110.87 L 639.31 107.49 L 647.36 103.78 L 655.40 99.91 L 663.45 95.86 L 671.49 92.31 L 679.54 89.28 L 687.59 85.95 L 695.63 82.34 L 703.68 79.01 L 711.72 74.65 L 719.77 70.91 L 727.82 67.31 L 735.86 64.31 L 743.91 61.40 L 751.95 58.49 L 760.00 55.00
    L 760 340
    Z" fill="url(#areaGradient)" class="area-path"/>

  <!-- Main line with glow -->
  <path d="M 60.00 340.00 L 68.05 338.56 L 76.09 336.10 L 84.14 333.82 L 92.18 329.29 L 100.23 324.62 L 108.28 320.94 L 116.32 317.50 L 124.37 314.44 L 132.41 310.86 L 140.46 306.86 L 148.51 302.58 L 156.55 298.69 L 164.60 294.55 L 172.64 291.54 L 180.69 288.41 L 188.74 284.17 L 196.78 281.33 L 204.83 277.40 L 212.87 272.87 L 220.92 269.45 L 228.97 266.64 L 237.01 264.82 L 245.06 263.31 L 253.10 260.51 L 261.15 258.52 L 269.20 254.14 L 277.24 252.43 L 285.29 250.21 L 293.33 247.34 L 301.38 245.37 L 309.43 243.38 L 317.47 241.29 L 325.52 239.83 L 333.56 238.58 L 341.61 236.66 L 349.66 234.33 L 357.70 232.19 L 365.75 229.48 L 373.79 226.52 L 381.84 223.81 L 389.89 220.54 L 397.93 217.33 L 405.98 214.12 L 414.02 210.60 L 422.07 207.24 L 430.11 203.40 L 438.16 199.98 L 446.21 197.08 L 454.25 194.76 L 462.30 191.52 L 470.34 187.82 L 478.39 184.43 L 486.44 180.47 L 494.48 175.59 L 502.53 171.95 L 510.57 168.94 L 518.62 166.07 L 526.67 162.62 L 534.71 158.61 L 542.76 154.17 L 550.80 149.51 L 558.85 145.03 L 566.90 141.09 L 574.94 137.18 L 582.99 133.73 L 591.03 130.22 L 599.08 126.29 L 607.13 121.40 L 615.17 117.75 L 623.22 114.49 L 631.26 110.87 L 639.31 107.49 L 647.36 103.78 L 655.40 99.91 L 663.45 95.86 L 671.49 92.31 L 679.54 89.28 L 687.59 85.95 L 695.63 82.34 L 703.68 79.01 L 711.72 74.65 L 719.77 70.91 L 727.82 67.31 L 735.86 64.31 L 743.91 61.40 L 751.95 58.49 L 760.00 55.00" fill="none" stroke="#3b82f6" stroke-width="3"
        stroke-linecap="round" stroke-linejoin="round" filter="url(#glow)" class="line-path"/>

  <!-- Data points -->
  
    <circle cx="60" cy="340" r="4" fill="#3b82f6" stroke="#0d1117" stroke-width="2" class="data-point"/>
  
    <circle cx="68.04597701149426" cy="338.55614143920593" r="4" fill="#3b82f6" stroke="#0d1117" stroke-width="2" class="data-point"/>
  
    <circle cx="76.0919540229885" cy="336.10059966914804" r="4" fill="#3b82f6" stroke="#0d1117" stroke-width="2" class="data-point"/>
  
    <circle cx="84.13793103448276" cy="333.8218569065343" r="4" fill="#3b82f6" stroke="#0d1117" stroke-width="2" class="data-point"/>
  
    <circle cx="92.183908045977" cy="329.29383788254756" r="4" fill="#3b82f6" stroke="#0d1117" stroke-width="2" class="data-point"/>
  
    <circle cx="100.22988505747126" cy="324.6184863523573" r="4" fill="#3b82f6" stroke="#0d1117" stroke-width="2" class="data-point"/>
  
    <circle cx="108.27586206896552" cy="320.93517369727044" r="4" fill="#3b82f6" stroke="#0d1117" stroke-width="2" class="data-point"/>
  
    <circle cx="116.32183908045977" cy="317.4974152191894" r="4" fill="#3b82f6" stroke="#0d1117" stroke-width="2" class="data-point"/>
  
    <circle cx="124.36781609195403" cy="314.4427212572374" r="4" fill="#3b82f6" stroke="#0d1117" stroke-width="2" class="data-point"/>
  
    <circle cx="132.41379310344826" cy="310.85763027295286" r="4" fill="#3b82f6" stroke="#0d1117" stroke-width="2" class="data-point"/>
  
    <circle cx="140.45977011494253" cy="306.8600082712986" r="4" fill="#3b82f6" stroke="#0d1117" stroke-width="2" class="data-point"/>
  
    <circle cx="148.5057471264368" cy="302.57754342431764" r="4" fill="#3b82f6" stroke="#0d1117" stroke-width="2" class="data-point"/>
  
    <circle cx="156.55172413793105" cy="298.6879652605459" r="4" fill="#3b82f6" stroke="#0d1117" stroke-width="2" class="data-point"/>
  
    <circle cx="164.5977011494253" cy="294.55283291976843" r="4" fill="#3b82f6" stroke="#0d1117" stroke-width="2" class="data-point"/>
  
    <circle cx="172.64367816091954" cy="291.5374276261373" r="4" fill="#3b82f6" stroke="#0d1117" stroke-width="2" class="data-point"/>
  
    <circle cx="180.6896551724138" cy="288.4139784946237" r="4" fill="#3b82f6" stroke="#0d1117" stroke-width="2" class="data-point"/>
  
    <circle cx="188.73563218390805" cy="284.1708023159636" r="4" fill="#3b82f6" stroke="#0d1117" stroke-width="2" class="data-point"/>
  
    <circle cx="196.7816091954023" cy="281.3321960297767" r="4" fill="#3b82f6" stroke="#0d1117" stroke-width="2" class="data-point"/>
  
    <circle cx="204.82758620689654" cy="277.40332919768406" r="4" fill="#3b82f6" stroke="#0d1117" stroke-width="2" class="data-point"/>
  
    <circle cx="212.8735632183908" cy="272.86548800661706" r="4" fill="#3b82f6" stroke="#0d1117" stroke-width="2" class="data-point"/>
  
    <circle cx="220.91954022988506" cy="269.44737386269645" r="4" fill="#3b82f6" stroke="#0d1117" stroke-width="2" class="data-point"/>
  
    <circle cx="228.96551724137933" cy="266.6382340777502" r="4" fill="#3b82f6" stroke="#0d1117" stroke-width="2" class="data-point"/>
  
    <circle cx="237.01149425287358" cy="264.82113316790736" r="4" fill="#3b82f6" stroke="#0d1117" stroke-width="2" class="data-point"/>
  
    <circle cx="245.05747126436782" cy="263.3085194375517" r="4" fill="#3b82f6" stroke="#0d1117" stroke-width="2" class="data-point"/>
  
    <circle cx="253.10344827586206" cy="260.5092018196857" r="4" fill="#3b82f6" stroke="#0d1117" stroke-width="2" class="data-point"/>
  
    <circle cx="261.1494252873563" cy="258.5153019023987" r="4" fill="#3b82f6" stroke="#0d1117" stroke-width="2" class="data-point"/>
  
    <circle cx="269.1954022988506" cy="254.1444375516956" r="4" fill="#3b82f6" stroke="#0d1117" stroke-width="2" class="data-point"/>
  
    <circle cx="277.2413793103448" cy="252.42555831265508" r="4" fill="#3b82f6" stroke="#0d1117" stroke-width="2" class="data-point"/>
  
    <circle cx="285.28735632183907" cy="250.20574855252275" r="4" fill="#3b82f6" stroke="#0d1117" stroke-width="2" class="data-point"/>
  
    <circle cx="293.3333333333333" cy="247.33767576509513" r="4" fill="#3b82f6" stroke="#0d1117" stroke-width="2" class="data-point"/>
  
    <circle cx="301.3793103448276" cy="245.37324234904878" r="4" fill="#3b82f6" stroke="#0d1117" stroke-width="2" class="data-point"/>
  
    <circle cx="309.42528735632186" cy="243.37934243176178" r="4" fill="#3b82f6" stroke="#0d1117" stroke-width="2" class="data-point"/>
  
    <circle cx="317.4712643678161" cy="241.28722084367246" r="4" fill="#3b82f6" stroke="#0d1117" stroke-width="2" class="data-point"/>
  
    <circle cx="325.51724137931035" cy="239.83354011579817" r="4" fill="#3b82f6" stroke="#0d1117" stroke-width="2" class="data-point"/>
  
    <circle cx="333.5632183908046" cy="238.57630272952855" r="4" fill="#3b82f6" stroke="#0d1117" stroke-width="2" class="data-point"/>
  
    <circle cx="341.60919540229884" cy="236.66098014888337" r="4" fill="#3b82f6" stroke="#0d1117" stroke-width="2" class="data-point"/>
  
    <circle cx="349.6551724137931" cy="234.33312655086849" r="4" fill="#3b82f6" stroke="#0d1117" stroke-width="2" class="data-point"/>
  
    <circle cx="357.7011494252873" cy="232.191894127378" r="4" fill="#3b82f6" stroke="#0d1117" stroke-width="2" class="data-point"/>
  
    <circle cx="365.7471264367816" cy="229.48097601323408" r="4" fill="#3b82f6" stroke="#0d1117" stroke-width="2" class="data-point"/>
  
    <circle cx="373.7931034482759" cy="226.52450372208438" r="4" fill="#3b82f6" stroke="#0d1117" stroke-width="2" class="data-point"/>
  
    <circle cx="381.8390804597701" cy="223.81358560794047" r="4" fill="#3b82f6" stroke="#0d1117" stroke-width="2" class="data-point"/>
  
    <circle cx="389.88505747126436" cy="220.54280397022333" r="4" fill="#3b82f6" stroke="#0d1117" stroke-width="2" class="data-point"/>
  
    <circle cx="397.93103448275866" cy="217.3309553349876" r="4" fill="#3b82f6" stroke="#0d1117" stroke-width="2" class="data-point"/>
  
    <circle cx="405.9770114942529" cy="214.11910669975185" r="4" fill="#3b82f6" stroke="#0d1117" stroke-width="2" class="data-point"/>
  
    <circle cx="414.02298850574715" cy="210.60277088502895" r="4" fill="#3b82f6" stroke="#0d1117" stroke-width="2" class="data-point"/>
  
    <circle cx="422.0689655172414" cy="207.24358974358975" r="4" fill="#3b82f6" stroke="#0d1117" stroke-width="2" class="data-point"/>
  
    <circle cx="430.11494252873564" cy="203.40312241521917" r="4" fill="#3b82f6" stroke="#0d1117" stroke-width="2" class="data-point"/>
  
    <circle cx="438.1609195402299" cy="199.97518610421838" r="4" fill="#3b82f6" stroke="#0d1117" stroke-width="2" class="data-point"/>
  
    <circle cx="446.2068965517241" cy="197.07764681555005" r="4" fill="#3b82f6" stroke="#0d1117" stroke-width="2" class="data-point"/>
  
    <circle cx="454.2528735632184" cy="194.7596153846154" r="4" fill="#3b82f6" stroke="#0d1117" stroke-width="2" class="data-point"/>
  
    <circle cx="462.2988505747126" cy="191.51830024813896" r="4" fill="#3b82f6" stroke="#0d1117" stroke-width="2" class="data-point"/>
  
    <circle cx="470.34482758620686" cy="187.81534325889163" r="4" fill="#3b82f6" stroke="#0d1117" stroke-width="2" class="data-point"/>
  
    <circle cx="478.39080459770116" cy="184.42669561621173" r="4" fill="#3b82f6" stroke="#0d1117" stroke-width="2" class="data-point"/>
  
    <circle cx="486.4367816091954" cy="180.46836228287842" r="4" fill="#3b82f6" stroke="#0d1117" stroke-width="2" class="data-point"/>
  
    <circle cx="494.48275862068965" cy="175.58674524400328" r="4" fill="#3b82f6" stroke="#0d1117" stroke-width="2" class="data-point"/>
  
    <circle cx="502.5287356321839" cy="171.95254342431764" r="4" fill="#3b82f6" stroke="#0d1117" stroke-width="2" class="data-point"/>
  
    <circle cx="510.57471264367814" cy="168.93713813068652" r="4" fill="#3b82f6" stroke="#0d1117" stroke-width="2" class="data-point"/>
  
    <circle cx="518.6206896551723" cy="166.06906534325887" r="4" fill="#3b82f6" stroke="#0d1117" stroke-width="2" class="data-point"/>
  
    <circle cx="526.6666666666666" cy="162.6214846980976" r="4" fill="#3b82f6" stroke="#0d1117" stroke-width="2" class="data-point"/>
  
    <circle cx="534.7126436781609" cy="158.6140405293631" r="4" fill="#3b82f6" stroke="#0d1117" stroke-width="2" class="data-point"/>
  
    <circle cx="542.7586206896552" cy="154.1744210090984" r="4" fill="#3b82f6" stroke="#0d1117" stroke-width="2" class="data-point"/>
  
    <circle cx="550.8045977011495" cy="149.50889164598843" r="4" fill="#3b82f6" stroke="#0d1117" stroke-width="2" class="data-point"/>
  
    <circle cx="558.8505747126437" cy="145.0299834574028" r="4" fill="#3b82f6" stroke="#0d1117" stroke-width="2" class="data-point"/>
  
    <circle cx="566.8965517241379" cy="141.09129445822995" r="4" fill="#3b82f6" stroke="#0d1117" stroke-width="2" class="data-point"/>
  
    <circle cx="574.9425287356322" cy="137.18207196029778" r="4" fill="#3b82f6" stroke="#0d1117" stroke-width="2" class="data-point"/>
  
    <circle cx="582.9885057471264" cy="133.7344913151365" r="4" fill="#3b82f6" stroke="#0d1117" stroke-width="2" class="data-point"/>
  
    <circle cx="591.0344827586207" cy="130.21815550041356" r="4" fill="#3b82f6" stroke="#0d1117" stroke-width="2" class="data-point"/>
  
    <circle cx="599.0804597701149" cy="126.28928866832092" r="4" fill="#3b82f6" stroke="#0d1117" stroke-width="2" class="data-point"/>
  
    <circle cx="607.1264367816092" cy="121.3978494623656" r="4" fill="#3b82f6" stroke="#0d1117" stroke-width="2" class="data-point"/>
  
    <circle cx="615.1724137931035" cy="117.75382547559968" r="4" fill="#3b82f6" stroke="#0d1117" stroke-width="2" class="data-point"/>
  
    <circle cx="623.2183908045977" cy="114.49286600496276" r="4" fill="#3b82f6" stroke="#0d1117" stroke-width="2" class="data-point"/>
  
    <circle cx="631.264367816092" cy="110.86848635235731" r="4" fill="#3b82f6" stroke="#0d1117" stroke-width="2" class="data-point"/>
  
    <circle cx="639.3103448275862" cy="107.48966087675765" r="4" fill="#3b82f6" stroke="#0d1117" stroke-width="2" class="data-point"/>
  
    <circle cx="647.3563218390805" cy="103.77688172043011" r="4" fill="#3b82f6" stroke="#0d1117" stroke-width="2" class="data-point"/>
  
    <circle cx="655.4022988505747" cy="99.90694789081886" r="4" fill="#3b82f6" stroke="#0d1117" stroke-width="2" class="data-point"/>
  
    <circle cx="663.448275862069" cy="95.86021505376345" r="4" fill="#3b82f6" stroke="#0d1117" stroke-width="2" class="data-point"/>
  
    <circle cx="671.4942528735633" cy="92.31441273779984" r="4" fill="#3b82f6" stroke="#0d1117" stroke-width="2" class="data-point"/>
  
    <circle cx="679.5402298850574" cy="89.27936311000829" r="4" fill="#3b82f6" stroke="#0d1117" stroke-width="2" class="data-point"/>
  
    <circle cx="687.5862068965517" cy="85.94964846980977" r="4" fill="#3b82f6" stroke="#0d1117" stroke-width="2" class="data-point"/>
  
    <circle cx="695.6321839080459" cy="82.34491315136478" r="4" fill="#3b82f6" stroke="#0d1117" stroke-width="2" class="data-point"/>
  
    <circle cx="703.6781609195402" cy="79.00537634408602" r="4" fill="#3b82f6" stroke="#0d1117" stroke-width="2" class="data-point"/>
  
    <circle cx="711.7241379310344" cy="74.65415632754343" r="4" fill="#3b82f6" stroke="#0d1117" stroke-width="2" class="data-point"/>
  
    <circle cx="719.7701149425287" cy="70.91191066997521" r="4" fill="#3b82f6" stroke="#0d1117" stroke-width="2" class="data-point"/>
  
    <circle cx="727.8160919540229" cy="67.30717535153019" r="4" fill="#3b82f6" stroke="#0d1117" stroke-width="2" class="data-point"/>
  
    <circle cx="735.8620689655173" cy="64.31141439205959" r="4" fill="#3b82f6" stroke="#0d1117" stroke-width="2" class="data-point"/>
  
    <circle cx="743.9080459770115" cy="61.40405293631102" r="4" fill="#3b82f6" stroke="#0d1117" stroke-width="2" class="data-point"/>
  
    <circle cx="751.9540229885058" cy="58.4868693134822" r="4" fill="#3b82f6" stroke="#0d1117" stroke-width="2" class="data-point"/>
  
    <circle cx="760" cy="55" r="4" fill="#3b82f6" stroke="#0d1117" stroke-width="2" class="data-point"/>
  

  <!-- Axis lines -->
  <line x1="60" y1="55" x2="60" y2="340"
        stroke="#30363d" stroke-width="2"/>
  <line x1="60" y1="340" x2="760" y2="340"
        stroke="#30363d" stroke-width="2"/>
</svg>