<?xml version="1.0" encoding="UTF-8"?>
<svg width="800" height="400" xmlns="http://www.w3.org/2000/svg">
  <defs>
    <!-- Gradient for area fill -->
    <linearGradient id="areaGradient" x1="0%" y1="0%" x2="0%" y2="100%">
      <stop offset="0%" style="stop-color:#3b82f6;stop-opacity:0.3" />
      <stop offset="100%" style="stop-color:#3b82f6;stop-opacity:0.05" />
    </linearGradient>

    <!-- Glow filter for line -->
    <filter id="glow">
      <feGaussianBlur stdDeviation="2" result="coloredBlur"/>
      <feMerge>
        <feMergeNode in="coloredBlur"/>
        <feMergeNode in="SourceGraphic"/>
      </feMerge>
    </filter>

    <!-- Animation -->
    <style>
      @keyframes draw {
        from { stroke-dashoffset: 2000; }
        to { stroke-dashoffset: 0; }
      }
      @keyframes fadeIn {
        from { opacity: 0; }
        to { opacity: 1; }
      }
      .line-path {
        stroke-dasharray: 2000;
        stroke-dashoffset: 2000;
        animation: draw 1.5s ease-out forwards;
      }
      .area-path {
        opacity: 0;
        animation: fadeIn 1s ease-out 0.5s forwards;
      }
      .data-point {
        opacity: 0;
        animation: fadeIn 0.5s ease-out 1s forwards;
      }
    </style>
  </defs>

  <!-- Background -->
  <rect width="800" height="400" fill="#0d1117" rx="8"/>

  <!-- Title -->
  <text x="400" y="25" text-anchor="middle" fill="#c9d1d9" font-family="system-ui, -apple-system, sans-serif" font-size="16" font-weight="600">
    zxcloli666/SoundCloud-Desktop Downloads
  </text>

  <!-- Stats -->
  <text x="780" y="25" text-anchor="end" fill="#58a6ff" font-family="system-ui, -apple-system, sans-serif" font-size="14" font-weight="600">
    82.8K total
  </text>
  <text x="780" y="42" text-anchor="end" fill="#3fb950" font-family="system-ui, -apple-system, sans-serif" font-size="12">
    +371 (+0.5%)
  </text>

  <!-- Grid lines -->
  <g opacity="0.1">
    
      <line x1="60" y1="340" x2="760" y2="340"
            stroke="#c9d1d9" stroke-width="1"/>
    
      <line x1="60" y1="268.75" x2="760" y2="268.75"
            stroke="#c9d1d9" stroke-width="1"/>
    
      <line x1="60" y1="197.5" x2="760" y2="197.5"
            stroke="#c9d1d9" stroke-width="1"/>
    
      <line x1="60" y1="126.25" x2="760" y2="126.25"
            stroke="#c9d1d9" stroke-width="1"/>
    
      <line x1="60" y1="55" x2="760" y2="55"
            stroke="#c9d1d9" stroke-width="1"/>
    
  </g>

  <!-- Y-axis labels -->
  
    <text x="50" y="344" text-anchor="end"
          fill="#8b949e" font-family="system-ui, -apple-system, sans-serif" font-size="11">
      60.2K
    </text>
  
    <text x="50" y="272.75" text-anchor="end"
          fill="#8b949e" font-family="system-ui, -apple-system, sans-serif" font-size="11">
      65.8K
    </text>
  
    <text x="50" y="201.5" text-anchor="end"
          fill="#8b949e" font-family="system-ui, -apple-system, sans-serif" font-size="11">
      71.5K
    </text>
  
    <text x="50" y="130.25" text-anchor="end"
          fill="#8b949e" font-family="system-ui, -apple-system, sans-serif" font-size="11">
      77.1K
    </text>
  
    <text x="50" y="59" text-anchor="end"
          fill="#8b949e" font-family="system-ui, -apple-system, sans-serif" font-size="11">
      82.8K
    </text>
  

  <!-- X-axis labels -->
  
    <text x="60" y="360" text-anchor="middle"
          fill="#8b949e" font-family="system-ui, -apple-system, sans-serif" font-size="11">
      Nov 25
    </text>
  
    <text x="141.15942028985506" y="360" text-anchor="middle"
          fill="#8b949e" font-family="system-ui, -apple-system, sans-serif" font-size="11">
      Dec 3
    </text>
  
    <text x="222.31884057971016" y="360" text-anchor="middle"
          fill="#8b949e" font-family="system-ui, -apple-system, sans-serif" font-size="11">
      Dec 11
    </text>
  
    <text x="303.47826086956525" y="360" text-anchor="middle"
          fill="#8b949e" font-family="system-ui, -apple-system, sans-serif" font-size="11">
      Dec 19
    </text>
  
    <text x="384.6376811594203" y="360" text-anchor="middle"
          fill="#8b949e" font-family="system-ui, -apple-system, sans-serif" font-size="11">
      Dec 27
    </text>
  
    <text x="465.7971014492754" y="360" text-anchor="middle"
          fill="#8b949e" font-family="system-ui, -apple-system, sans-serif" font-size="11">
      Jan 4
    </text>
  
    <text x="546.9565217391305" y="360" text-anchor="middle"
          fill="#8b949e" font-family="system-ui, -apple-system, sans-serif" font-size="11">
      Jan 12
    </text>
  
    <text x="628.1159420289855" y="360" text-anchor="middle"
          fill="#8b949e" font-family="system-ui, -apple-system, sans-serif" font-size="11">
      Jan 20
    </text>
  
    <text x="709.2753623188406" y="360" text-anchor="middle"
          fill="#8b949e" font-family="system-ui, -apple-system, sans-serif" font-size="11">
      Jan 28
    </text>
  
    <text x="760" y="360" text-anchor="middle"
          fill="#8b949e" font-family="system-ui, -apple-system, sans-serif" font-size="11">
      Feb 2
    </text>
  

  <!-- Area under line -->
  <path d="M 60 340
    L 60.00 340.00 L 70.14 338.15 L 80.29 335.00 L 90.43 332.08 L 100.58 326.27 L 110.72 320.28 L 120.87 315.55 L 131.01 311.14 L 141.16 307.23 L 151.30 302.63 L 161.45 297.50 L 171.59 292.01 L 181.74 287.02 L 191.88 281.72 L 202.03 277.85 L 212.17 273.85 L 222.32 268.41 L 232.46 264.77 L 242.61 259.73 L 252.75 253.91 L 262.90 249.53 L 273.04 245.92 L 283.19 243.59 L 293.33 241.65 L 303.48 238.06 L 313.62 235.51 L 323.77 229.90 L 333.91 227.70 L 344.06 224.85 L 354.20 221.17 L 364.35 218.65 L 374.49 216.10 L 384.64 213.41 L 394.78 211.55 L 404.93 209.94 L 415.07 207.48 L 425.22 204.50 L 435.36 201.75 L 445.51 198.27 L 455.65 194.48 L 465.80 191.01 L 475.94 186.81 L 486.09 182.69 L 496.23 178.58 L 506.38 174.07 L 516.52 169.76 L 526.67 164.83 L 536.81 160.44 L 546.96 156.72 L 557.10 153.75 L 567.25 149.59 L 577.39 144.84 L 587.54 140.50 L 597.68 135.42 L 607.83 129.16 L 617.97 124.50 L 628.12 120.64 L 638.26 116.96 L 648.41 112.54 L 658.55 107.40 L 668.70 101.70 L 678.84 95.72 L 688.99 89.98 L 699.13 84.93 L 709.28 79.91 L 719.42 75.49 L 729.57 70.98 L 739.71 65.95 L 749.86 59.67 L 760.00 55.00
    L 760 340
    Z" fill="url(#areaGradient)" class="area-path"/>

  <!-- Main line with glow -->
  <path d="M 60.00 340.00 L 70.14 338.15 L 80.29 335.00 L 90.43 332.08 L 100.58 326.27 L 110.72 320.28 L 120.87 315.55 L 131.01 311.14 L 141.16 307.23 L 151.30 302.63 L 161.45 297.50 L 171.59 292.01 L 181.74 287.02 L 191.88 281.72 L 202.03 277.85 L 212.17 273.85 L 222.32 268.41 L 232.46 264.77 L 242.61 259.73 L 252.75 253.91 L 262.90 249.53 L 273.04 245.92 L 283.19 243.59 L 293.33 241.65 L 303.48 238.06 L 313.62 235.51 L 323.77 229.90 L 333.91 227.70 L 344.06 224.85 L 354.20 221.17 L 364.35 218.65 L 374.49 216.10 L 384.64 213.41 L 394.78 211.55 L 404.93 209.94 L 415.07 207.48 L 425.22 204.50 L 435.36 201.75 L 445.51 198.27 L 455.65 194.48 L 465.80 191.01 L 475.94 186.81 L 486.09 182.69 L 496.23 178.58 L 506.38 174.07 L 516.52 169.76 L 526.67 164.83 L 536.81 160.44 L 546.96 156.72 L 557.10 153.75 L 567.25 149.59 L 577.39 144.84 L 587.54 140.50 L 597.68 135.42 L 607.83 129.16 L 617.97 124.50 L 628.12 120.64 L 638.26 116.96 L 648.41 112.54 L 658.55 107.40 L 668.70 101.70 L 678.84 95.72 L 688.99 89.98 L 699.13 84.93 L 709.28 79.91 L 719.42 75.49 L 729.57 70.98 L 739.71 65.95 L 749.86 59.67 L 760.00 55.00" fill="none" stroke="#3b82f6" stroke-width="3"
        stroke-linecap="round" stroke-linejoin="round" filter="url(#glow)" class="line-path"/>

  <!-- Data points -->
  
    <circle cx="60" cy="340" r="4" fill="#3b82f6" stroke="#0d1117" stroke-width="2" class="data-point"/>
  
    <circle cx="70.14492753623189" cy="338.1484509656605" r="4" fill="#3b82f6" stroke="#0d1117" stroke-width="2" class="data-point"/>
  
    <circle cx="80.28985507246377" cy="334.9995580501171" r="4" fill="#3b82f6" stroke="#0d1117" stroke-width="2" class="data-point"/>
  
    <circle cx="90.43478260869566" cy="332.0773854244929" r="4" fill="#3b82f6" stroke="#0d1117" stroke-width="2" class="data-point"/>
  
    <circle cx="100.57971014492753" cy="326.2708268882309" r="4" fill="#3b82f6" stroke="#0d1117" stroke-width="2" class="data-point"/>
  
    <circle cx="110.72463768115942" cy="320.2753347770363" r="4" fill="#3b82f6" stroke="#0d1117" stroke-width="2" class="data-point"/>
  
    <circle cx="120.86956521739131" cy="315.5519954037212" r="4" fill="#3b82f6" stroke="#0d1117" stroke-width="2" class="data-point"/>
  
    <circle cx="131.0144927536232" cy="311.1435453219605" r="4" fill="#3b82f6" stroke="#0d1117" stroke-width="2" class="data-point"/>
  
    <circle cx="141.15942028985506" cy="307.2263225350245" r="4" fill="#3b82f6" stroke="#0d1117" stroke-width="2" class="data-point"/>
  
    <circle cx="151.30434782608694" cy="302.6289388783312" r="4" fill="#3b82f6" stroke="#0d1117" stroke-width="2" class="data-point"/>
  
    <circle cx="161.44927536231884" cy="297.5025412118266" r="4" fill="#3b82f6" stroke="#0d1117" stroke-width="2" class="data-point"/>
  
    <circle cx="171.59420289855072" cy="292.01087196711893" r="4" fill="#3b82f6" stroke="#0d1117" stroke-width="2" class="data-point"/>
  
    <circle cx="181.73913043478262" cy="287.02302558889824" r="4" fill="#3b82f6" stroke="#0d1117" stroke-width="2" class="data-point"/>
  
    <circle cx="191.8840579710145" cy="281.72028991912316" r="4" fill="#3b82f6" stroke="#0d1117" stroke-width="2" class="data-point"/>
  
    <circle cx="202.02898550724638" cy="277.8534494188359" r="4" fill="#3b82f6" stroke="#0d1117" stroke-width="2" class="data-point"/>
  
    <circle cx="212.17391304347825" cy="273.84805763026475" r="4" fill="#3b82f6" stroke="#0d1117" stroke-width="2" class="data-point"/>
  
    <circle cx="222.31884057971016" cy="268.40677067220577" r="4" fill="#3b82f6" stroke="#0d1117" stroke-width="2" class="data-point"/>
  
    <circle cx="232.46376811594203" cy="264.7666504618376" r="4" fill="#3b82f6" stroke="#0d1117" stroke-width="2" class="data-point"/>
  
    <circle cx="242.6086956521739" cy="259.72842179696823" r="4" fill="#3b82f6" stroke="#0d1117" stroke-width="2" class="data-point"/>
  
    <circle cx="252.7536231884058" cy="253.90926768904407" r="4" fill="#3b82f6" stroke="#0d1117" stroke-width="2" class="data-point"/>
  
    <circle cx="262.8985507246377" cy="249.52600875060767" r="4" fill="#3b82f6" stroke="#0d1117" stroke-width="2" class="data-point"/>
  
    <circle cx="273.0434782608696" cy="245.92367525522604" r="4" fill="#3b82f6" stroke="#0d1117" stroke-width="2" class="data-point"/>
  
    <circle cx="283.18840579710144" cy="243.59349449772395" r="4" fill="#3b82f6" stroke="#0d1117" stroke-width="2" class="data-point"/>
  
    <circle cx="293.3333333333333" cy="241.65377646174923" r="4" fill="#3b82f6" stroke="#0d1117" stroke-width="2" class="data-point"/>
  
    <circle cx="303.47826086956525" cy="238.06403853802976" r="4" fill="#3b82f6" stroke="#0d1117" stroke-width="2" class="data-point"/>
  
    <circle cx="313.6231884057971" cy="235.50713749060856" r="4" fill="#3b82f6" stroke="#0d1117" stroke-width="2" class="data-point"/>
  
    <circle cx="323.768115942029" cy="229.90210810094135" r="4" fill="#3b82f6" stroke="#0d1117" stroke-width="2" class="data-point"/>
  
    <circle cx="333.9130434782609" cy="227.69788306006097" r="4" fill="#3b82f6" stroke="#0d1117" stroke-width="2" class="data-point"/>
  
    <circle cx="344.05797101449275" cy="224.85128386440977" r="4" fill="#3b82f6" stroke="#0d1117" stroke-width="2" class="data-point"/>
  
    <circle cx="354.2028985507246" cy="221.17337693905512" r="4" fill="#3b82f6" stroke="#0d1117" stroke-width="2" class="data-point"/>
  
    <circle cx="364.3478260869565" cy="218.65426260662042" r="4" fill="#3b82f6" stroke="#0d1117" stroke-width="2" class="data-point"/>
  
    <circle cx="374.4927536231884" cy="216.0973615591992" r="4" fill="#3b82f6" stroke="#0d1117" stroke-width="2" class="data-point"/>
  
    <circle cx="384.6376811594203" cy="213.41450479515623" r="4" fill="#3b82f6" stroke="#0d1117" stroke-width="2" class="data-point"/>
  
    <circle cx="394.7826086956522" cy="211.55036018915456" r="4" fill="#3b82f6" stroke="#0d1117" stroke-width="2" class="data-point"/>
  
    <circle cx="404.92753623188406" cy="209.93812701639635" r="4" fill="#3b82f6" stroke="#0d1117" stroke-width="2" class="data-point"/>
  
    <circle cx="415.07246376811594" cy="207.4819905422725" r="4" fill="#3b82f6" stroke="#0d1117" stroke-width="2" class="data-point"/>
  
    <circle cx="425.2173913043478" cy="204.49684005833737" r="4" fill="#3b82f6" stroke="#0d1117" stroke-width="2" class="data-point"/>
  
    <circle cx="435.36231884057975" cy="201.75100543598356" r="4" fill="#3b82f6" stroke="#0d1117" stroke-width="2" class="data-point"/>
  
    <circle cx="445.5072463768116" cy="198.27462765722368" r="4" fill="#3b82f6" stroke="#0d1117" stroke-width="2" class="data-point"/>
  
    <circle cx="455.65217391304344" cy="194.48336058690944" r="4" fill="#3b82f6" stroke="#0d1117" stroke-width="2" class="data-point"/>
  
    <circle cx="465.7971014492754" cy="191.00698280814953" r="4" fill="#3b82f6" stroke="#0d1117" stroke-width="2" class="data-point"/>
  
    <circle cx="475.94202898550725" cy="186.81265744464577" r="4" fill="#3b82f6" stroke="#0d1117" stroke-width="2" class="data-point"/>
  
    <circle cx="486.0869565217392" cy="182.69390551111505" r="4" fill="#3b82f6" stroke="#0d1117" stroke-width="2" class="data-point"/>
  
    <circle cx="496.231884057971" cy="178.5751535775843" r="4" fill="#3b82f6" stroke="#0d1117" stroke-width="2" class="data-point"/>
  
    <circle cx="506.3768115942029" cy="174.0659389225262" r="4" fill="#3b82f6" stroke="#0d1117" stroke-width="2" class="data-point"/>
  
    <circle cx="516.5217391304348" cy="169.75825341406286" r="4" fill="#3b82f6" stroke="#0d1117" stroke-width="2" class="data-point"/>
  
    <circle cx="526.6666666666666" cy="164.833384894153" r="4" fill="#3b82f6" stroke="#0d1117" stroke-width="2" class="data-point"/>
  
    <circle cx="536.8115942028985" cy="160.43753038405444" r="4" fill="#3b82f6" stroke="#0d1117" stroke-width="2" class="data-point"/>
  
    <circle cx="546.9565217391305" cy="156.72183674371328" r="4" fill="#3b82f6" stroke="#0d1117" stroke-width="2" class="data-point"/>
  
    <circle cx="557.1014492753624" cy="153.74928183144033" r="4" fill="#3b82f6" stroke="#0d1117" stroke-width="2" class="data-point"/>
  
    <circle cx="567.2463768115942" cy="149.59274318292304" r="4" fill="#3b82f6" stroke="#0d1117" stroke-width="2" class="data-point"/>
  
    <circle cx="577.391304347826" cy="144.84421266628365" r="4" fill="#3b82f6" stroke="#0d1117" stroke-width="2" class="data-point"/>
  
    <circle cx="587.536231884058" cy="140.49874044283376" r="4" fill="#3b82f6" stroke="#0d1117" stroke-width="2" class="data-point"/>
  
    <circle cx="597.6811594202899" cy="135.42272506297786" r="4" fill="#3b82f6" stroke="#0d1117" stroke-width="2" class="data-point"/>
  
    <circle cx="607.8260869565217" cy="129.16272594687763" r="4" fill="#3b82f6" stroke="#0d1117" stroke-width="2" class="data-point"/>
  
    <circle cx="617.9710144927536" cy="124.50236443187342" r="4" fill="#3b82f6" stroke="#0d1117" stroke-width="2" class="data-point"/>
  
    <circle cx="628.1159420289855" cy="120.63552393158616" r="4" fill="#3b82f6" stroke="#0d1117" stroke-width="2" class="data-point"/>
  
    <circle cx="638.2608695652174" cy="116.95761700623152" r="4" fill="#3b82f6" stroke="#0d1117" stroke-width="2" class="data-point"/>
  
    <circle cx="648.4057971014493" cy="112.53657135280858" r="4" fill="#3b82f6" stroke="#0d1117" stroke-width="2" class="data-point"/>
  
    <circle cx="658.5507246376811" cy="107.39757811464182" r="4" fill="#3b82f6" stroke="#0d1117" stroke-width="2" class="data-point"/>
  
    <circle cx="668.695652173913" cy="101.70437972333937" r="4" fill="#3b82f6" stroke="#0d1117" stroke-width="2" class="data-point"/>
  
    <circle cx="678.840579710145" cy="95.72148318380695" r="4" fill="#3b82f6" stroke="#0d1117" stroke-width="2" class="data-point"/>
  
    <circle cx="688.9855072463768" cy="89.97790250585584" r="4" fill="#3b82f6" stroke="#0d1117" stroke-width="2" class="data-point"/>
  
    <circle cx="699.1304347826086" cy="84.92707826932426" r="4" fill="#3b82f6" stroke="#0d1117" stroke-width="2" class="data-point"/>
  
    <circle cx="709.2753623188406" cy="79.91404074777921" r="4" fill="#3b82f6" stroke="#0d1117" stroke-width="2" class="data-point"/>
  
    <circle cx="719.4202898550724" cy="75.49299509435627" r="4" fill="#3b82f6" stroke="#0d1117" stroke-width="2" class="data-point"/>
  
    <circle cx="729.5652173913044" cy="70.98378043929819" r="4" fill="#3b82f6" stroke="#0d1117" stroke-width="2" class="data-point"/>
  
    <circle cx="739.7101449275362" cy="65.9455517744288" r="4" fill="#3b82f6" stroke="#0d1117" stroke-width="2" class="data-point"/>
  
    <circle cx="749.8550724637681" cy="59.67295708666637" r="4" fill="#3b82f6" stroke="#0d1117" stroke-width="2" class="data-point"/>
  
    <circle cx="760" cy="55" r="4" fill="#3b82f6" stroke="#0d1117" stroke-width="2" class="data-point"/>
  

  <!-- Axis lines -->
  <line x1="60" y1="55" x2="60" y2="340"
        stroke="#30363d" stroke-width="2"/>
  <line x1="60" y1="340" x2="760" y2="340"
        stroke="#30363d" stroke-width="2"/>
</svg>