<?xml version="1.0" encoding="UTF-8"?>
<svg width="800" height="400" xmlns="http://www.w3.org/2000/svg">
  <defs>
    <!-- Gradient for area fill -->
    <linearGradient id="areaGradient" x1="0%" y1="0%" x2="0%" y2="100%">
      <stop offset="0%" style="stop-color:#3b82f6;stop-opacity:0.3" />
      <stop offset="100%" style="stop-color:#3b82f6;stop-opacity:0.05" />
    </linearGradient>

    <!-- Glow filter for line -->
    <filter id="glow">
      <feGaussianBlur stdDeviation="2" result="coloredBlur"/>
      <feMerge>
        <feMergeNode in="coloredBlur"/>
        <feMergeNode in="SourceGraphic"/>
      </feMerge>
    </filter>

    <!-- Animation -->
    <style>
      @keyframes draw {
        from { stroke-dashoffset: 2000; }
        to { stroke-dashoffset: 0; }
      }
      @keyframes fadeIn {
        from { opacity: 0; }
        to { opacity: 1; }
      }
      .line-path {
        stroke-dasharray: 2000;
        stroke-dashoffset: 2000;
        animation: draw 1.5s ease-out forwards;
      }
      .area-path {
        opacity: 0;
        animation: fadeIn 1s ease-out 0.5s forwards;
      }
      .data-point {
        opacity: 0;
        animation: fadeIn 0.5s ease-out 1s forwards;
      }
    </style>
  </defs>

  <!-- Background -->
  <rect width="800" height="400" fill="#0d1117" rx="8"/>

  <!-- Title -->
  <text x="400" y="25" text-anchor="middle" fill="#c9d1d9" font-family="system-ui, -apple-system, sans-serif" font-size="16" font-weight="600">
    zxcloli666/SoundCloud-Desktop Downloads
  </text>

  <!-- Stats -->
  <text x="780" y="25" text-anchor="end" fill="#58a6ff" font-family="system-ui, -apple-system, sans-serif" font-size="14" font-weight="600">
    280.9K total
  </text>
  <text x="780" y="42" text-anchor="end" fill="#3fb950" font-family="system-ui, -apple-system, sans-serif" font-size="12">
    +975 (+0.3%)
  </text>

  <!-- Grid lines -->
  <g opacity="0.1">
    
      <line x1="60" y1="340" x2="760" y2="340"
            stroke="#c9d1d9" stroke-width="1"/>
    
      <line x1="60" y1="268.75" x2="760" y2="268.75"
            stroke="#c9d1d9" stroke-width="1"/>
    
      <line x1="60" y1="197.5" x2="760" y2="197.5"
            stroke="#c9d1d9" stroke-width="1"/>
    
      <line x1="60" y1="126.25" x2="760" y2="126.25"
            stroke="#c9d1d9" stroke-width="1"/>
    
      <line x1="60" y1="55" x2="760" y2="55"
            stroke="#c9d1d9" stroke-width="1"/>
    
  </g>

  <!-- Y-axis labels -->
  
    <text x="50" y="344" text-anchor="end"
          fill="#8b949e" font-family="system-ui, -apple-system, sans-serif" font-size="11">
      60.2K
    </text>
  
    <text x="50" y="272.75" text-anchor="end"
          fill="#8b949e" font-family="system-ui, -apple-system, sans-serif" font-size="11">
      115.3K
    </text>
  
    <text x="50" y="201.5" text-anchor="end"
          fill="#8b949e" font-family="system-ui, -apple-system, sans-serif" font-size="11">
      170.5K
    </text>
  
    <text x="50" y="130.25" text-anchor="end"
          fill="#8b949e" font-family="system-ui, -apple-system, sans-serif" font-size="11">
      225.7K
    </text>
  
    <text x="50" y="59" text-anchor="end"
          fill="#8b949e" font-family="system-ui, -apple-system, sans-serif" font-size="11">
      280.9K
    </text>
  

  <!-- X-axis labels -->
  
    <text x="60" y="360" text-anchor="middle"
          fill="#8b949e" font-family="system-ui, -apple-system, sans-serif" font-size="11">
      Nov 25
    </text>
  
    <text x="146.34361233480178" y="360" text-anchor="middle"
          fill="#8b949e" font-family="system-ui, -apple-system, sans-serif" font-size="11">
      Dec 23
    </text>
  
    <text x="232.68722466960352" y="360" text-anchor="middle"
          fill="#8b949e" font-family="system-ui, -apple-system, sans-serif" font-size="11">
      Jan 20
    </text>
  
    <text x="319.03083700440527" y="360" text-anchor="middle"
          fill="#8b949e" font-family="system-ui, -apple-system, sans-serif" font-size="11">
      Feb 17
    </text>
  
    <text x="405.37444933920705" y="360" text-anchor="middle"
          fill="#8b949e" font-family="system-ui, -apple-system, sans-serif" font-size="11">
      Mar 17
    </text>
  
    <text x="491.7180616740088" y="360" text-anchor="middle"
          fill="#8b949e" font-family="system-ui, -apple-system, sans-serif" font-size="11">
      Apr 14
    </text>
  
    <text x="578.0616740088105" y="360" text-anchor="middle"
          fill="#8b949e" font-family="system-ui, -apple-system, sans-serif" font-size="11">
      May 12
    </text>
  
    <text x="664.4052863436124" y="360" text-anchor="middle"
          fill="#8b949e" font-family="system-ui, -apple-system, sans-serif" font-size="11">
      Jun 9
    </text>
  
    <text x="750.7488986784141" y="360" text-anchor="middle"
          fill="#8b949e" font-family="system-ui, -apple-system, sans-serif" font-size="11">
      Jul 7
    </text>
  
    <text x="760" y="360" text-anchor="middle"
          fill="#8b949e" font-family="system-ui, -apple-system, sans-serif" font-size="11">
      Jul 10
    </text>
  

  <!-- Area under line -->
  <path d="M 60 340
    L 60.00 340.00 L 63.08 339.81 L 66.17 339.49 L 69.25 339.19 L 72.33 338.59 L 75.42 337.98 L 78.50 337.49 L 81.59 337.04 L 84.67 336.64 L 87.75 336.17 L 90.84 335.64 L 93.92 335.08 L 97.00 334.57 L 100.09 334.03 L 103.17 333.63 L 106.26 333.22 L 109.34 332.66 L 112.42 332.29 L 115.51 331.77 L 118.59 331.18 L 121.67 330.73 L 124.76 330.36 L 127.84 330.12 L 130.93 329.92 L 134.01 329.55 L 137.09 329.29 L 140.18 328.72 L 143.26 328.49 L 146.34 328.20 L 149.43 327.82 L 152.51 327.56 L 155.59 327.30 L 158.68 327.03 L 161.76 326.83 L 164.85 326.67 L 167.93 326.42 L 171.01 326.11 L 174.10 325.83 L 177.18 325.47 L 180.26 325.08 L 183.35 324.73 L 186.43 324.30 L 189.52 323.88 L 192.60 323.45 L 195.68 322.99 L 198.77 322.55 L 201.85 322.05 L 204.93 321.60 L 208.02 321.21 L 211.10 320.91 L 214.19 320.48 L 217.27 320.00 L 220.35 319.55 L 223.44 319.03 L 226.52 318.39 L 229.60 317.91 L 232.69 317.52 L 235.77 317.14 L 238.85 316.69 L 241.94 316.16 L 245.02 315.58 L 248.11 314.96 L 251.19 314.37 L 254.27 313.86 L 257.36 313.34 L 260.44 312.89 L 263.52 312.43 L 266.61 311.91 L 269.69 311.27 L 272.78 310.79 L 275.86 310.36 L 278.94 309.88 L 282.03 309.44 L 285.11 308.95 L 288.19 308.44 L 291.28 307.91 L 294.36 307.44 L 297.44 307.05 L 300.53 306.61 L 303.61 306.13 L 306.70 305.69 L 309.78 305.12 L 312.86 304.63 L 315.95 304.16 L 319.03 303.76 L 322.11 303.38 L 325.20 303.00 L 328.28 302.54 L 331.37 302.07 L 334.45 301.50 L 337.53 301.03 L 340.62 300.65 L 343.70 300.27 L 346.78 299.89 L 349.87 299.43 L 352.95 298.96 L 356.04 297.92 L 359.12 295.85 L 362.20 293.38 L 365.29 291.13 L 368.37 289.99 L 371.45 288.27 L 374.54 287.12 L 377.62 286.12 L 380.70 285.14 L 383.79 284.22 L 386.87 282.78 L 389.96 281.64 L 393.04 280.18 L 396.12 279.89 L 399.21 279.85 L 402.29 279.80 L 405.37 279.75 L 408.46 279.70 L 411.54 279.65 L 414.63 279.63 L 417.71 279.56 L 420.79 279.49 L 423.88 279.45 L 426.96 279.43 L 430.04 279.35 L 433.13 277.48 L 436.21 274.55 L 439.30 272.59 L 442.38 270.31 L 445.46 267.96 L 448.55 266.11 L 451.63 264.05 L 454.71 260.91 L 457.80 256.68 L 460.88 253.91 L 463.96 250.62 L 467.05 246.96 L 470.13 244.02 L 473.22 240.83 L 476.30 238.01 L 479.38 235.20 L 482.47 232.41 L 485.55 228.60 L 488.63 224.78 L 491.72 221.60 L 494.80 218.93 L 497.89 216.35 L 500.97 212.91 L 504.05 210.25 L 507.14 207.61 L 510.22 205.15 L 513.30 202.83 L 516.39 200.45 L 519.47 198.42 L 522.56 196.31 L 525.64 194.16 L 528.72 191.89 L 531.81 189.80 L 534.89 187.90 L 537.97 184.44 L 541.06 181.54 L 544.14 178.76 L 547.22 176.09 L 550.31 171.87 L 553.39 169.20 L 556.48 166.89 L 559.56 164.16 L 562.64 160.14 L 565.73 157.25 L 568.81 154.81 L 571.89 152.74 L 574.98 150.78 L 578.06 149.18 L 581.15 147.39 L 584.23 145.92 L 587.31 144.20 L 590.40 141.71 L 593.48 139.57 L 596.56 137.72 L 599.65 136.11 L 602.73 134.45 L 605.81 133.06 L 608.90 130.71 L 611.98 128.70 L 615.07 126.71 L 618.15 125.07 L 621.23 123.56 L 624.32 122.22 L 627.40 119.92 L 630.48 118.06 L 633.57 116.36 L 636.65 114.74 L 639.74 113.32 L 642.82 111.95 L 645.90 110.69 L 648.99 109.48 L 652.07 108.37 L 655.15 106.99 L 658.24 105.50 L 661.32 104.14 L 664.41 102.02 L 667.49 100.48 L 670.57 99.00 L 673.66 97.71 L 676.74 96.19 L 679.82 94.33 L 682.91 92.68 L 685.99 91.21 L 689.07 89.61 L 692.16 87.40 L 695.24 85.59 L 698.33 83.65 L 701.41 81.71 L 704.49 79.91 L 707.58 78.14 L 710.66 76.27 L 713.74 74.59 L 716.83 73.11 L 719.91 71.75 L 723.00 70.31 L 726.08 68.90 L 729.16 67.63 L 732.25 66.36 L 735.33 65.14 L 738.41 63.92 L 741.50 62.71 L 744.58 61.65 L 747.67 60.40 L 750.75 59.12 L 753.83 57.66 L 756.92 56.26 L 760.00 55.00
    L 760 340
    Z" fill="url(#areaGradient)" class="area-path"/>

  <!-- Main line with glow -->
  <path d="M 60.00 340.00 L 63.08 339.81 L 66.17 339.49 L 69.25 339.19 L 72.33 338.59 L 75.42 337.98 L 78.50 337.49 L 81.59 337.04 L 84.67 336.64 L 87.75 336.17 L 90.84 335.64 L 93.92 335.08 L 97.00 334.57 L 100.09 334.03 L 103.17 333.63 L 106.26 333.22 L 109.34 332.66 L 112.42 332.29 L 115.51 331.77 L 118.59 331.18 L 121.67 330.73 L 124.76 330.36 L 127.84 330.12 L 130.93 329.92 L 134.01 329.55 L 137.09 329.29 L 140.18 328.72 L 143.26 328.49 L 146.34 328.20 L 149.43 327.82 L 152.51 327.56 L 155.59 327.30 L 158.68 327.03 L 161.76 326.83 L 164.85 326.67 L 167.93 326.42 L 171.01 326.11 L 174.10 325.83 L 177.18 325.47 L 180.26 325.08 L 183.35 324.73 L 186.43 324.30 L 189.52 323.88 L 192.60 323.45 L 195.68 322.99 L 198.77 322.55 L 201.85 322.05 L 204.93 321.60 L 208.02 321.21 L 211.10 320.91 L 214.19 320.48 L 217.27 320.00 L 220.35 319.55 L 223.44 319.03 L 226.52 318.39 L 229.60 317.91 L 232.69 317.52 L 235.77 317.14 L 238.85 316.69 L 241.94 316.16 L 245.02 315.58 L 248.11 314.96 L 251.19 314.37 L 254.27 313.86 L 257.36 313.34 L 260.44 312.89 L 263.52 312.43 L 266.61 311.91 L 269.69 311.27 L 272.78 310.79 L 275.86 310.36 L 278.94 309.88 L 282.03 309.44 L 285.11 308.95 L 288.19 308.44 L 291.28 307.91 L 294.36 307.44 L 297.44 307.05 L 300.53 306.61 L 303.61 306.13 L 306.70 305.69 L 309.78 305.12 L 312.86 304.63 L 315.95 304.16 L 319.03 303.76 L 322.11 303.38 L 325.20 303.00 L 328.28 302.54 L 331.37 302.07 L 334.45 301.50 L 337.53 301.03 L 340.62 300.65 L 343.70 300.27 L 346.78 299.89 L 349.87 299.43 L 352.95 298.96 L 356.04 297.92 L 359.12 295.85 L 362.20 293.38 L 365.29 291.13 L 368.37 289.99 L 371.45 288.27 L 374.54 287.12 L 377.62 286.12 L 380.70 285.14 L 383.79 284.22 L 386.87 282.78 L 389.96 281.64 L 393.04 280.18 L 396.12 279.89 L 399.21 279.85 L 402.29 279.80 L 405.37 279.75 L 408.46 279.70 L 411.54 279.65 L 414.63 279.63 L 417.71 279.56 L 420.79 279.49 L 423.88 279.45 L 426.96 279.43 L 430.04 279.35 L 433.13 277.48 L 436.21 274.55 L 439.30 272.59 L 442.38 270.31 L 445.46 267.96 L 448.55 266.11 L 451.63 264.05 L 454.71 260.91 L 457.80 256.68 L 460.88 253.91 L 463.96 250.62 L 467.05 246.96 L 470.13 244.02 L 473.22 240.83 L 476.30 238.01 L 479.38 235.20 L 482.47 232.41 L 485.55 228.60 L 488.63 224.78 L 491.72 221.60 L 494.80 218.93 L 497.89 216.35 L 500.97 212.91 L 504.05 210.25 L 507.14 207.61 L 510.22 205.15 L 513.30 202.83 L 516.39 200.45 L 519.47 198.42 L 522.56 196.31 L 525.64 194.16 L 528.72 191.89 L 531.81 189.80 L 534.89 187.90 L 537.97 184.44 L 541.06 181.54 L 544.14 178.76 L 547.22 176.09 L 550.31 171.87 L 553.39 169.20 L 556.48 166.89 L 559.56 164.16 L 562.64 160.14 L 565.73 157.25 L 568.81 154.81 L 571.89 152.74 L 574.98 150.78 L 578.06 149.18 L 581.15 147.39 L 584.23 145.92 L 587.31 144.20 L 590.40 141.71 L 593.48 139.57 L 596.56 137.72 L 599.65 136.11 L 602.73 134.45 L 605.81 133.06 L 608.90 130.71 L 611.98 128.70 L 615.07 126.71 L 618.15 125.07 L 621.23 123.56 L 624.32 122.22 L 627.40 119.92 L 630.48 118.06 L 633.57 116.36 L 636.65 114.74 L 639.74 113.32 L 642.82 111.95 L 645.90 110.69 L 648.99 109.48 L 652.07 108.37 L 655.15 106.99 L 658.24 105.50 L 661.32 104.14 L 664.41 102.02 L 667.49 100.48 L 670.57 99.00 L 673.66 97.71 L 676.74 96.19 L 679.82 94.33 L 682.91 92.68 L 685.99 91.21 L 689.07 89.61 L 692.16 87.40 L 695.24 85.59 L 698.33 83.65 L 701.41 81.71 L 704.49 79.91 L 707.58 78.14 L 710.66 76.27 L 713.74 74.59 L 716.83 73.11 L 719.91 71.75 L 723.00 70.31 L 726.08 68.90 L 729.16 67.63 L 732.25 66.36 L 735.33 65.14 L 738.41 63.92 L 741.50 62.71 L 744.58 61.65 L 747.67 60.40 L 750.75 59.12 L 753.83 57.66 L 756.92 56.26 L 760.00 55.00" fill="none" stroke="#3b82f6" stroke-width="3"
        stroke-linecap="round" stroke-linejoin="round" filter="url(#glow)" class="line-path"/>

  <!-- Data points -->
  
    <circle cx="60" cy="340" r="4" fill="#3b82f6" stroke="#0d1117" stroke-width="2" class="data-point"/>
  
    <circle cx="63.08370044052864" cy="339.8102194740776" r="4" fill="#3b82f6" stroke="#0d1117" stroke-width="2" class="data-point"/>
  
    <circle cx="66.16740088105728" cy="339.4874634776109" r="4" fill="#3b82f6" stroke="#0d1117" stroke-width="2" class="data-point"/>
  
    <circle cx="69.2511013215859" cy="339.18794591288986" r="4" fill="#3b82f6" stroke="#0d1117" stroke-width="2" class="data-point"/>
  
    <circle cx="72.33480176211454" cy="338.5927838554053" r="4" fill="#3b82f6" stroke="#0d1117" stroke-width="2" class="data-point"/>
  
    <circle cx="75.41850220264317" cy="337.97825643813275" r="4" fill="#3b82f6" stroke="#0d1117" stroke-width="2" class="data-point"/>
  
    <circle cx="78.50220264317181" cy="337.4941224434328" r="4" fill="#3b82f6" stroke="#0d1117" stroke-width="2" class="data-point"/>
  
    <circle cx="81.58590308370044" cy="337.0422640483794" r="4" fill="#3b82f6" stroke="#0d1117" stroke-width="2" class="data-point"/>
  
    <circle cx="84.66960352422907" cy="336.6407555887749" r="4" fill="#3b82f6" stroke="#0d1117" stroke-width="2" class="data-point"/>
  
    <circle cx="87.75330396475772" cy="336.16953183393355" r="4" fill="#3b82f6" stroke="#0d1117" stroke-width="2" class="data-point"/>
  
    <circle cx="90.83700440528635" cy="335.6440850716858" r="4" fill="#3b82f6" stroke="#0d1117" stroke-width="2" class="data-point"/>
  
    <circle cx="93.92070484581498" cy="335.0811986138479" r="4" fill="#3b82f6" stroke="#0d1117" stroke-width="2" class="data-point"/>
  
    <circle cx="97.00440528634361" cy="334.5699531154447" r="4" fill="#3b82f6" stroke="#0d1117" stroke-width="2" class="data-point"/>
  
    <circle cx="100.08810572687224" cy="334.0264320173948" r="4" fill="#3b82f6" stroke="#0d1117" stroke-width="2" class="data-point"/>
  
    <circle cx="103.17180616740089" cy="333.63008765373377" r="4" fill="#3b82f6" stroke="#0d1117" stroke-width="2" class="data-point"/>
  
    <circle cx="106.25550660792952" cy="333.21954202622817" r="4" fill="#3b82f6" stroke="#0d1117" stroke-width="2" class="data-point"/>
  
    <circle cx="109.33920704845815" cy="332.6618196643338" r="4" fill="#3b82f6" stroke="#0d1117" stroke-width="2" class="data-point"/>
  
    <circle cx="112.42290748898678" cy="332.2887137324183" r="4" fill="#3b82f6" stroke="#0d1117" stroke-width="2" class="data-point"/>
  
    <circle cx="115.50660792951543" cy="331.7723041380716" r="4" fill="#3b82f6" stroke="#0d1117" stroke-width="2" class="data-point"/>
  
    <circle cx="118.59030837004406" cy="331.17585105660123" r="4" fill="#3b82f6" stroke="#0d1117" stroke-width="2" class="data-point"/>
  
    <circle cx="121.6740088105727" cy="330.7265747095196" r="4" fill="#3b82f6" stroke="#0d1117" stroke-width="2" class="data-point"/>
  
    <circle cx="124.75770925110132" cy="330.35734184956175" r="4" fill="#3b82f6" stroke="#0d1117" stroke-width="2" class="data-point"/>
  
    <circle cx="127.84140969162996" cy="330.1185024121764" r="4" fill="#3b82f6" stroke="#0d1117" stroke-width="2" class="data-point"/>
  
    <circle cx="130.92511013215858" cy="329.9196847183529" r="4" fill="#3b82f6" stroke="#0d1117" stroke-width="2" class="data-point"/>
  
    <circle cx="134.00881057268722" cy="329.55174288238095" r="4" fill="#3b82f6" stroke="#0d1117" stroke-width="2" class="data-point"/>
  
    <circle cx="137.09251101321587" cy="329.28966501325" r="4" fill="#3b82f6" stroke="#0d1117" stroke-width="2" class="data-point"/>
  
    <circle cx="140.1762114537445" cy="328.7151593395393" r="4" fill="#3b82f6" stroke="#0d1117" stroke-width="2" class="data-point"/>
  
    <circle cx="143.25991189427313" cy="328.4892301420126" r="4" fill="#3b82f6" stroke="#0d1117" stroke-width="2" class="data-point"/>
  
    <circle cx="146.34361233480178" cy="328.1974587212068" r="4" fill="#3b82f6" stroke="#0d1117" stroke-width="2" class="data-point"/>
  
    <circle cx="149.4273127753304" cy="327.8204797173337" r="4" fill="#3b82f6" stroke="#0d1117" stroke-width="2" class="data-point"/>
  
    <circle cx="152.51101321585904" cy="327.56227492016035" r="4" fill="#3b82f6" stroke="#0d1117" stroke-width="2" class="data-point"/>
  
    <circle cx="155.59471365638768" cy="327.30019705102944" r="4" fill="#3b82f6" stroke="#0d1117" stroke-width="2" class="data-point"/>
  
    <circle cx="158.6784140969163" cy="327.0252089420398" r="4" fill="#3b82f6" stroke="#0d1117" stroke-width="2" class="data-point"/>
  
    <circle cx="161.76211453744492" cy="326.83413739213154" r="4" fill="#3b82f6" stroke="#0d1117" stroke-width="2" class="data-point"/>
  
    <circle cx="164.84581497797356" cy="326.6688863219406" r="4" fill="#3b82f6" stroke="#0d1117" stroke-width="2" class="data-point"/>
  
    <circle cx="167.9295154185022" cy="326.4171366446966" r="4" fill="#3b82f6" stroke="#0d1117" stroke-width="2" class="data-point"/>
  
    <circle cx="171.01321585903085" cy="326.1111639600462" r="4" fill="#3b82f6" stroke="#0d1117" stroke-width="2" class="data-point"/>
  
    <circle cx="174.09691629955947" cy="325.8297207311273" r="4" fill="#3b82f6" stroke="#0d1117" stroke-width="2" class="data-point"/>
  
    <circle cx="177.1806167400881" cy="325.4733981110281" r="4" fill="#3b82f6" stroke="#0d1117" stroke-width="2" class="data-point"/>
  
    <circle cx="180.26431718061673" cy="325.0847998912822" r="4" fill="#3b82f6" stroke="#0d1117" stroke-width="2" class="data-point"/>
  
    <circle cx="183.3480176211454" cy="324.728477271183" r="4" fill="#3b82f6" stroke="#0d1117" stroke-width="2" class="data-point"/>
  
    <circle cx="186.43171806167402" cy="324.2985662838894" r="4" fill="#3b82f6" stroke="#0d1117" stroke-width="2" class="data-point"/>
  
    <circle cx="189.51541850220264" cy="323.87640144051096" r="4" fill="#3b82f6" stroke="#0d1117" stroke-width="2" class="data-point"/>
  
    <circle cx="192.59911894273128" cy="323.4542365971326" r="4" fill="#3b82f6" stroke="#0d1117" stroke-width="2" class="data-point"/>
  
    <circle cx="195.68281938325993" cy="322.9920500101923" r="4" fill="#3b82f6" stroke="#0d1117" stroke-width="2" class="data-point"/>
  
    <circle cx="198.76651982378854" cy="322.55051980702586" r="4" fill="#3b82f6" stroke="#0d1117" stroke-width="2" class="data-point"/>
  
    <circle cx="201.8502202643172" cy="322.045729428552" r="4" fill="#3b82f6" stroke="#0d1117" stroke-width="2" class="data-point"/>
  
    <circle cx="204.9339207048458" cy="321.5951620574846" r="4" fill="#3b82f6" stroke="#0d1117" stroke-width="2" class="data-point"/>
  
    <circle cx="208.01762114537445" cy="321.21430998165386" r="4" fill="#3b82f6" stroke="#0d1117" stroke-width="2" class="data-point"/>
  
    <circle cx="211.1013215859031" cy="320.9096283209893" r="4" fill="#3b82f6" stroke="#0d1117" stroke-width="2" class="data-point"/>
  
    <circle cx="214.1850220264317" cy="320.48359040565333" r="4" fill="#3b82f6" stroke="#0d1117" stroke-width="2" class="data-point"/>
  
    <circle cx="217.26872246696036" cy="319.9968743629816" r="4" fill="#3b82f6" stroke="#0d1117" stroke-width="2" class="data-point"/>
  
    <circle cx="220.352422907489" cy="319.5514710878576" r="4" fill="#3b82f6" stroke="#0d1117" stroke-width="2" class="data-point"/>
  
    <circle cx="223.43612334801762" cy="319.0311884215533" r="4" fill="#3b82f6" stroke="#0d1117" stroke-width="2" class="data-point"/>
  
    <circle cx="226.51982378854626" cy="318.3895495005776" r="4" fill="#3b82f6" stroke="#0d1117" stroke-width="2" class="data-point"/>
  
    <circle cx="229.60352422907488" cy="317.9118706258069" r="4" fill="#3b82f6" stroke="#0d1117" stroke-width="2" class="data-point"/>
  
    <circle cx="232.68722466960352" cy="317.51552626214584" r="4" fill="#3b82f6" stroke="#0d1117" stroke-width="2" class="data-point"/>
  
    <circle cx="235.77092511013217" cy="317.13854725827275" r="4" fill="#3b82f6" stroke="#0d1117" stroke-width="2" class="data-point"/>
  
    <circle cx="238.85462555066078" cy="316.68539783923353" r="4" fill="#3b82f6" stroke="#0d1117" stroke-width="2" class="data-point"/>
  
    <circle cx="241.93832599118943" cy="316.15866005299995" r="4" fill="#3b82f6" stroke="#0d1117" stroke-width="2" class="data-point"/>
  
    <circle cx="245.02202643171807" cy="315.5751172113882" r="4" fill="#3b82f6" stroke="#0d1117" stroke-width="2" class="data-point"/>
  
    <circle cx="248.1057268722467" cy="314.9618808181015" r="4" fill="#3b82f6" stroke="#0d1117" stroke-width="2" class="data-point"/>
  
    <circle cx="251.18942731277534" cy="314.3731738805463" r="4" fill="#3b82f6" stroke="#0d1117" stroke-width="2" class="data-point"/>
  
    <circle cx="254.27312775330395" cy="313.85547326221376" r="4" fill="#3b82f6" stroke="#0d1117" stroke-width="2" class="data-point"/>
  
    <circle cx="257.3568281938326" cy="313.3416457158388" r="4" fill="#3b82f6" stroke="#0d1117" stroke-width="2" class="data-point"/>
  
    <circle cx="260.44052863436127" cy="312.88849629679964" r="4" fill="#3b82f6" stroke="#0d1117" stroke-width="2" class="data-point"/>
  
    <circle cx="263.52422907488983" cy="312.42630970985937" r="4" fill="#3b82f6" stroke="#0d1117" stroke-width="2" class="data-point"/>
  
    <circle cx="266.6079295154185" cy="311.90990011551264" r="4" fill="#3b82f6" stroke="#0d1117" stroke-width="2" class="data-point"/>
  
    <circle cx="269.6916299559471" cy="311.2669701705511" r="4" fill="#3b82f6" stroke="#0d1117" stroke-width="2" class="data-point"/>
  
    <circle cx="272.77533039647574" cy="310.78800027179454" r="4" fill="#3b82f6" stroke="#0d1117" stroke-width="2" class="data-point"/>
  
    <circle cx="275.8590308370044" cy="310.3593803084868" r="4" fill="#3b82f6" stroke="#0d1117" stroke-width="2" class="data-point"/>
  
    <circle cx="278.942731277533" cy="309.88299245770196" r="4" fill="#3b82f6" stroke="#0d1117" stroke-width="2" class="data-point"/>
  
    <circle cx="282.0264317180617" cy="309.43888020656385" r="4" fill="#3b82f6" stroke="#0d1117" stroke-width="2" class="data-point"/>
  
    <circle cx="285.1101321585903" cy="308.9508731399062" r="4" fill="#3b82f6" stroke="#0d1117" stroke-width="2" class="data-point"/>
  
    <circle cx="288.19383259911893" cy="308.44220968947474" r="4" fill="#3b82f6" stroke="#0d1117" stroke-width="2" class="data-point"/>
  
    <circle cx="291.27753303964755" cy="307.91030780729767" r="4" fill="#3b82f6" stroke="#0d1117" stroke-width="2" class="data-point"/>
  
    <circle cx="294.3612334801762" cy="307.4442481483998" r="4" fill="#3b82f6" stroke="#0d1117" stroke-width="2" class="data-point"/>
  
    <circle cx="297.4449339207049" cy="307.045321736767" r="4" fill="#3b82f6" stroke="#0d1117" stroke-width="2" class="data-point"/>
  
    <circle cx="300.52863436123346" cy="306.60766460555817" r="4" fill="#3b82f6" stroke="#0d1117" stroke-width="2" class="data-point"/>
  
    <circle cx="303.61233480176213" cy="306.1338588027451" r="4" fill="#3b82f6" stroke="#0d1117" stroke-width="2" class="data-point"/>
  
    <circle cx="306.6960352422908" cy="305.69491064755044" r="4" fill="#3b82f6" stroke="#0d1117" stroke-width="2" class="data-point"/>
  
    <circle cx="309.77973568281936" cy="305.1229870218115" r="4" fill="#3b82f6" stroke="#0d1117" stroke-width="2" class="data-point"/>
  
    <circle cx="312.86343612334804" cy="304.6311068831963" r="4" fill="#3b82f6" stroke="#0d1117" stroke-width="2" class="data-point"/>
  
    <circle cx="315.94713656387665" cy="304.1573010803832" r="4" fill="#3b82f6" stroke="#0d1117" stroke-width="2" class="data-point"/>
  
    <circle cx="319.03083700440527" cy="303.76353876469386" r="4" fill="#3b82f6" stroke="#0d1117" stroke-width="2" class="data-point"/>
  
    <circle cx="322.11453744493394" cy="303.38139566487735" r="4" fill="#3b82f6" stroke="#0d1117" stroke-width="2" class="data-point"/>
  
    <circle cx="325.19823788546256" cy="302.997961541075" r="4" fill="#3b82f6" stroke="#0d1117" stroke-width="2" class="data-point"/>
  
    <circle cx="328.2819383259912" cy="302.53964802609227" r="4" fill="#3b82f6" stroke="#0d1117" stroke-width="2" class="data-point"/>
  
    <circle cx="331.36563876651985" cy="302.06842427125093" r="4" fill="#3b82f6" stroke="#0d1117" stroke-width="2" class="data-point"/>
  
    <circle cx="334.44933920704847" cy="301.496500645512" r="4" fill="#3b82f6" stroke="#0d1117" stroke-width="2" class="data-point"/>
  
    <circle cx="337.5330396475771" cy="301.0330230345859" r="4" fill="#3b82f6" stroke="#0d1117" stroke-width="2" class="data-point"/>
  
    <circle cx="340.61674008810576" cy="300.65475300672693" r="4" fill="#3b82f6" stroke="#0d1117" stroke-width="2" class="data-point"/>
  
    <circle cx="343.7004405286344" cy="300.266154786981" r="4" fill="#3b82f6" stroke="#0d1117" stroke-width="2" class="data-point"/>
  
    <circle cx="346.784140969163" cy="299.8943398790514" r="4" fill="#3b82f6" stroke="#0d1117" stroke-width="2" class="data-point"/>
  
    <circle cx="349.8678414096916" cy="299.4347353400829" r="4" fill="#3b82f6" stroke="#0d1117" stroke-width="2" class="data-point"/>
  
    <circle cx="352.9515418502202" cy="298.9635115852416" r="4" fill="#3b82f6" stroke="#0d1117" stroke-width="2" class="data-point"/>
  
    <circle cx="356.0352422907489" cy="297.9216552286471" r="4" fill="#3b82f6" stroke="#0d1117" stroke-width="2" class="data-point"/>
  
    <circle cx="359.1189427312775" cy="295.84827070734525" r="4" fill="#3b82f6" stroke="#0d1117" stroke-width="2" class="data-point"/>
  
    <circle cx="362.2026431718062" cy="293.37854182238226" r="4" fill="#3b82f6" stroke="#0d1117" stroke-width="2" class="data-point"/>
  
    <circle cx="365.2863436123348" cy="291.12828701501667" r="4" fill="#3b82f6" stroke="#0d1117" stroke-width="2" class="data-point"/>
  
    <circle cx="368.3700440528634" cy="289.9870218115105" r="4" fill="#3b82f6" stroke="#0d1117" stroke-width="2" class="data-point"/>
  
    <circle cx="371.4537444933921" cy="288.26737786233605" r="4" fill="#3b82f6" stroke="#0d1117" stroke-width="2" class="data-point"/>
  
    <circle cx="374.5374449339207" cy="287.12482163484407" r="4" fill="#3b82f6" stroke="#0d1117" stroke-width="2" class="data-point"/>
  
    <circle cx="377.6211453744493" cy="286.1229870218115" r="4" fill="#3b82f6" stroke="#0d1117" stroke-width="2" class="data-point"/>
  
    <circle cx="380.704845814978" cy="285.14309981653867" r="4" fill="#3b82f6" stroke="#0d1117" stroke-width="2" class="data-point"/>
  
    <circle cx="383.7885462555066" cy="284.220017666644" r="4" fill="#3b82f6" stroke="#0d1117" stroke-width="2" class="data-point"/>
  
    <circle cx="386.87224669603523" cy="282.7843989943603" r="4" fill="#3b82f6" stroke="#0d1117" stroke-width="2" class="data-point"/>
  
    <circle cx="389.95594713656385" cy="281.6431337908541" r="4" fill="#3b82f6" stroke="#0d1117" stroke-width="2" class="data-point"/>
  
    <circle cx="393.0396475770925" cy="280.1842766868248" r="4" fill="#3b82f6" stroke="#0d1117" stroke-width="2" class="data-point"/>
  
    <circle cx="396.12334801762114" cy="279.88605014608953" r="4" fill="#3b82f6" stroke="#0d1117" stroke-width="2" class="data-point"/>
  
    <circle cx="399.20704845814976" cy="279.84731942651354" r="4" fill="#3b82f6" stroke="#0d1117" stroke-width="2" class="data-point"/>
  
    <circle cx="402.29074889867843" cy="279.7969694910648" r="4" fill="#3b82f6" stroke="#0d1117" stroke-width="2" class="data-point"/>
  
    <circle cx="405.37444933920705" cy="279.75436569953115" r="4" fill="#3b82f6" stroke="#0d1117" stroke-width="2" class="data-point"/>
  
    <circle cx="408.45814977973566" cy="279.6988516681389" r="4" fill="#3b82f6" stroke="#0d1117" stroke-width="2" class="data-point"/>
  
    <circle cx="411.54185022026434" cy="279.64979275667594" r="4" fill="#3b82f6" stroke="#0d1117" stroke-width="2" class="data-point"/>
  
    <circle cx="414.625550660793" cy="279.63042739688797" r="4" fill="#3b82f6" stroke="#0d1117" stroke-width="2" class="data-point"/>
  
    <circle cx="417.70925110132157" cy="279.5594210776653" r="4" fill="#3b82f6" stroke="#0d1117" stroke-width="2" class="data-point"/>
  
    <circle cx="420.79295154185024" cy="279.49099680641433" r="4" fill="#3b82f6" stroke="#0d1117" stroke-width="2" class="data-point"/>
  
    <circle cx="423.87665198237886" cy="279.445810966909" r="4" fill="#3b82f6" stroke="#0d1117" stroke-width="2" class="data-point"/>
  
    <circle cx="426.9603524229075" cy="279.42902765509274" r="4" fill="#3b82f6" stroke="#0d1117" stroke-width="2" class="data-point"/>
  
    <circle cx="430.04405286343615" cy="279.3528572399266" r="4" fill="#3b82f6" stroke="#0d1117" stroke-width="2" class="data-point"/>
  
    <circle cx="433.12775330396477" cy="277.4808724604199" r="4" fill="#3b82f6" stroke="#0d1117" stroke-width="2" class="data-point"/>
  
    <circle cx="436.2114537444934" cy="274.5489569885167" r="4" fill="#3b82f6" stroke="#0d1117" stroke-width="2" class="data-point"/>
  
    <circle cx="439.295154185022" cy="272.58530950601346" r="4" fill="#3b82f6" stroke="#0d1117" stroke-width="2" class="data-point"/>
  
    <circle cx="442.3788546255507" cy="270.30536114697287" r="4" fill="#3b82f6" stroke="#0d1117" stroke-width="2" class="data-point"/>
  
    <circle cx="445.46255506607923" cy="267.95569749269555" r="4" fill="#3b82f6" stroke="#0d1117" stroke-width="2" class="data-point"/>
  
    <circle cx="448.5462555066079" cy="266.11211524087787" r="4" fill="#3b82f6" stroke="#0d1117" stroke-width="2" class="data-point"/>
  
    <circle cx="451.6299559471366" cy="264.0503499354488" r="4" fill="#3b82f6" stroke="#0d1117" stroke-width="2" class="data-point"/>
  
    <circle cx="454.71365638766525" cy="260.9092885778351" r="4" fill="#3b82f6" stroke="#0d1117" stroke-width="2" class="data-point"/>
  
    <circle cx="457.7973568281938" cy="256.67602092817833" r="4" fill="#3b82f6" stroke="#0d1117" stroke-width="2" class="data-point"/>
  
    <circle cx="460.8810572687225" cy="253.91322959842358" r="4" fill="#3b82f6" stroke="#0d1117" stroke-width="2" class="data-point"/>
  
    <circle cx="463.96475770925116" cy="250.62499150642117" r="4" fill="#3b82f6" stroke="#0d1117" stroke-width="2" class="data-point"/>
  
    <circle cx="467.0484581497797" cy="246.9610654345315" r="4" fill="#3b82f6" stroke="#0d1117" stroke-width="2" class="data-point"/>
  
    <circle cx="470.1321585903084" cy="244.0226948426989" r="4" fill="#3b82f6" stroke="#0d1117" stroke-width="2" class="data-point"/>
  
    <circle cx="473.215859030837" cy="240.83386559760822" r="4" fill="#3b82f6" stroke="#0d1117" stroke-width="2" class="data-point"/>
  
    <circle cx="476.2995594713656" cy="238.0052320445743" r="4" fill="#3b82f6" stroke="#0d1117" stroke-width="2" class="data-point"/>
  
    <circle cx="479.38325991189424" cy="235.2024189712577" r="4" fill="#3b82f6" stroke="#0d1117" stroke-width="2" class="data-point"/>
  
    <circle cx="482.4669603524229" cy="232.40735204185637" r="4" fill="#3b82f6" stroke="#0d1117" stroke-width="2" class="data-point"/>
  
    <circle cx="485.55066079295153" cy="228.60141333152137" r="4" fill="#3b82f6" stroke="#0d1117" stroke-width="2" class="data-point"/>
  
    <circle cx="488.63436123348015" cy="224.7838554053136" r="4" fill="#3b82f6" stroke="#0d1117" stroke-width="2" class="data-point"/>
  
    <circle cx="491.7180616740088" cy="221.6014812801522" r="4" fill="#3b82f6" stroke="#0d1117" stroke-width="2" class="data-point"/>
  
    <circle cx="494.8017621145375" cy="218.93422572535164" r="4" fill="#3b82f6" stroke="#0d1117" stroke-width="2" class="data-point"/>
  
    <circle cx="497.88546255506606" cy="216.34701365767478" r="4" fill="#3b82f6" stroke="#0d1117" stroke-width="2" class="data-point"/>
  
    <circle cx="500.96916299559473" cy="212.9128898552694" r="4" fill="#3b82f6" stroke="#0d1117" stroke-width="2" class="data-point"/>
  
    <circle cx="504.0528634361234" cy="210.24950737242645" r="4" fill="#3b82f6" stroke="#0d1117" stroke-width="2" class="data-point"/>
  
    <circle cx="507.13656387665196" cy="207.61452741727254" r="4" fill="#3b82f6" stroke="#0d1117" stroke-width="2" class="data-point"/>
  
    <circle cx="510.22026431718064" cy="205.14996262825304" r="4" fill="#3b82f6" stroke="#0d1117" stroke-width="2" class="data-point"/>
  
    <circle cx="513.3039647577093" cy="202.82870150166474" r="4" fill="#3b82f6" stroke="#0d1117" stroke-width="2" class="data-point"/>
  
    <circle cx="516.3876651982379" cy="200.4506353196983" r="4" fill="#3b82f6" stroke="#0d1117" stroke-width="2" class="data-point"/>
  
    <circle cx="519.4713656387665" cy="198.41727254195828" r="4" fill="#3b82f6" stroke="#0d1117" stroke-width="2" class="data-point"/>
  
    <circle cx="522.5550660792951" cy="196.3116124210097" r="4" fill="#3b82f6" stroke="#0d1117" stroke-width="2" class="data-point"/>
  
    <circle cx="525.6387665198238" cy="194.1620574845417" r="4" fill="#3b82f6" stroke="#0d1117" stroke-width="2" class="data-point"/>
  
    <circle cx="528.7224669603524" cy="191.88985526941633" r="4" fill="#3b82f6" stroke="#0d1117" stroke-width="2" class="data-point"/>
  
    <circle cx="531.8061674008811" cy="189.8048515322416" r="4" fill="#3b82f6" stroke="#0d1117" stroke-width="2" class="data-point"/>
  
    <circle cx="534.8898678414098" cy="187.8954270571448" r="4" fill="#3b82f6" stroke="#0d1117" stroke-width="2" class="data-point"/>
  
    <circle cx="537.9735682819382" cy="184.43548277502208" r="4" fill="#3b82f6" stroke="#0d1117" stroke-width="2" class="data-point"/>
  
    <circle cx="541.0572687224669" cy="181.53971597472312" r="4" fill="#3b82f6" stroke="#0d1117" stroke-width="2" class="data-point"/>
  
    <circle cx="544.1409691629956" cy="178.7588503091663" r="4" fill="#3b82f6" stroke="#0d1117" stroke-width="2" class="data-point"/>
  
    <circle cx="547.2246696035243" cy="176.0877216824081" r="4" fill="#3b82f6" stroke="#0d1117" stroke-width="2" class="data-point"/>
  
    <circle cx="550.3083700440529" cy="171.86994632058165" r="4" fill="#3b82f6" stroke="#0d1117" stroke-width="2" class="data-point"/>
  
    <circle cx="553.3920704845816" cy="169.2013997417952" r="4" fill="#3b82f6" stroke="#0d1117" stroke-width="2" class="data-point"/>
  
    <circle cx="556.47577092511" cy="166.8917578310797" r="4" fill="#3b82f6" stroke="#0d1117" stroke-width="2" class="data-point"/>
  
    <circle cx="559.5594713656387" cy="164.1638241489434" r="4" fill="#3b82f6" stroke="#0d1117" stroke-width="2" class="data-point"/>
  
    <circle cx="562.6431718061674" cy="160.14228443296867" r="4" fill="#3b82f6" stroke="#0d1117" stroke-width="2" class="data-point"/>
  
    <circle cx="565.7268722466961" cy="157.24909968064142" r="4" fill="#3b82f6" stroke="#0d1117" stroke-width="2" class="data-point"/>
  
    <circle cx="568.8105726872246" cy="154.80648229938168" r="4" fill="#3b82f6" stroke="#0d1117" stroke-width="2" class="data-point"/>
  
    <circle cx="571.8942731277533" cy="152.73955289800912" r="4" fill="#3b82f6" stroke="#0d1117" stroke-width="2" class="data-point"/>
  
    <circle cx="574.977973568282" cy="150.77848746347763" r="4" fill="#3b82f6" stroke="#0d1117" stroke-width="2" class="data-point"/>
  
    <circle cx="578.0616740088105" cy="149.18407284093226" r="4" fill="#3b82f6" stroke="#0d1117" stroke-width="2" class="data-point"/>
  
    <circle cx="581.1453744493392" cy="147.3882584765917" r="4" fill="#3b82f6" stroke="#0d1117" stroke-width="2" class="data-point"/>
  
    <circle cx="584.2290748898679" cy="145.92423727661887" r="4" fill="#3b82f6" stroke="#0d1117" stroke-width="2" class="data-point"/>
  
    <circle cx="587.3127753303964" cy="144.19684718352926" r="4" fill="#3b82f6" stroke="#0d1117" stroke-width="2" class="data-point"/>
  
    <circle cx="590.3964757709251" cy="141.71033498675" r="4" fill="#3b82f6" stroke="#0d1117" stroke-width="2" class="data-point"/>
  
    <circle cx="593.4801762114538" cy="139.57369029014063" r="4" fill="#3b82f6" stroke="#0d1117" stroke-width="2" class="data-point"/>
  
    <circle cx="596.5638766519824" cy="137.7159067744785" r="4" fill="#3b82f6" stroke="#0d1117" stroke-width="2" class="data-point"/>
  
    <circle cx="599.647577092511" cy="136.10987293606036" r="4" fill="#3b82f6" stroke="#0d1117" stroke-width="2" class="data-point"/>
  
    <circle cx="602.7312775330397" cy="134.4534891621934" r="4" fill="#3b82f6" stroke="#0d1117" stroke-width="2" class="data-point"/>
  
    <circle cx="605.8149779735683" cy="133.05660120948562" r="4" fill="#3b82f6" stroke="#0d1117" stroke-width="2" class="data-point"/>
  
    <circle cx="608.8986784140969" cy="130.70822857919413" r="4" fill="#3b82f6" stroke="#0d1117" stroke-width="2" class="data-point"/>
  
    <circle cx="611.9823788546256" cy="128.70068628117144" r="4" fill="#3b82f6" stroke="#0d1117" stroke-width="2" class="data-point"/>
  
    <circle cx="615.0660792951542" cy="126.70992729496501" r="4" fill="#3b82f6" stroke="#0d1117" stroke-width="2" class="data-point"/>
  
    <circle cx="618.1497797356828" cy="125.06645376095673" r="4" fill="#3b82f6" stroke="#0d1117" stroke-width="2" class="data-point"/>
  
    <circle cx="621.2334801762115" cy="123.55853774546443" r="4" fill="#3b82f6" stroke="#0d1117" stroke-width="2" class="data-point"/>
  
    <circle cx="624.3171806167401" cy="122.21974587212068" r="4" fill="#3b82f6" stroke="#0d1117" stroke-width="2" class="data-point"/>
  
    <circle cx="627.4008810572687" cy="119.9243052252497" r="4" fill="#3b82f6" stroke="#0d1117" stroke-width="2" class="data-point"/>
  
    <circle cx="630.4845814977973" cy="118.06006658965822" r="4" fill="#3b82f6" stroke="#0d1117" stroke-width="2" class="data-point"/>
  
    <circle cx="633.568281938326" cy="116.36107902425763" r="4" fill="#3b82f6" stroke="#0d1117" stroke-width="2" class="data-point"/>
  
    <circle cx="636.6519823788547" cy="114.73826187402324" r="4" fill="#3b82f6" stroke="#0d1117" stroke-width="2" class="data-point"/>
  
    <circle cx="639.7356828193832" cy="113.3220085615275" r="4" fill="#3b82f6" stroke="#0d1117" stroke-width="2" class="data-point"/>
  
    <circle cx="642.8193832599119" cy="111.9470680165795" r="4" fill="#3b82f6" stroke="#0d1117" stroke-width="2" class="data-point"/>
  
    <circle cx="645.9030837004404" cy="110.68702860637356" r="4" fill="#3b82f6" stroke="#0d1117" stroke-width="2" class="data-point"/>
  
    <circle cx="648.9867841409691" cy="109.47863015560236" r="4" fill="#3b82f6" stroke="#0d1117" stroke-width="2" class="data-point"/>
  
    <circle cx="652.0704845814978" cy="108.37093157572875" r="4" fill="#3b82f6" stroke="#0d1117" stroke-width="2" class="data-point"/>
  
    <circle cx="655.1541850220264" cy="106.98824488686552" r="4" fill="#3b82f6" stroke="#0d1117" stroke-width="2" class="data-point"/>
  
    <circle cx="658.237885462555" cy="105.50356730311884" r="4" fill="#3b82f6" stroke="#0d1117" stroke-width="2" class="data-point"/>
  
    <circle cx="661.3215859030837" cy="104.1376639260719" r="4" fill="#3b82f6" stroke="#0d1117" stroke-width="2" class="data-point"/>
  
    <circle cx="664.4052863436124" cy="102.01522049330705" r="4" fill="#3b82f6" stroke="#0d1117" stroke-width="2" class="data-point"/>
  
    <circle cx="667.4889867841409" cy="100.4750288781681" r="4" fill="#3b82f6" stroke="#0d1117" stroke-width="2" class="data-point"/>
  
    <circle cx="670.5726872246696" cy="99.00197051029423" r="4" fill="#3b82f6" stroke="#0d1117" stroke-width="2" class="data-point"/>
  
    <circle cx="673.6563876651983" cy="97.70965550044167" r="4" fill="#3b82f6" stroke="#0d1117" stroke-width="2" class="data-point"/>
  
    <circle cx="676.7400881057268" cy="96.19399334103417" r="4" fill="#3b82f6" stroke="#0d1117" stroke-width="2" class="data-point"/>
  
    <circle cx="679.8237885462555" cy="94.33233675341444" r="4" fill="#3b82f6" stroke="#0d1117" stroke-width="2" class="data-point"/>
  
    <circle cx="682.9074889867842" cy="92.68240809947679" r="4" fill="#3b82f6" stroke="#0d1117" stroke-width="2" class="data-point"/>
  
    <circle cx="685.9911894273127" cy="91.20934973160291" r="4" fill="#3b82f6" stroke="#0d1117" stroke-width="2" class="data-point"/>
  
    <circle cx="689.0748898678414" cy="89.60977101311408" r="4" fill="#3b82f6" stroke="#0d1117" stroke-width="2" class="data-point"/>
  
    <circle cx="692.1585903083701" cy="87.40341102126791" r="4" fill="#3b82f6" stroke="#0d1117" stroke-width="2" class="data-point"/>
  
    <circle cx="695.2422907488987" cy="85.59210436909694" r="4" fill="#3b82f6" stroke="#0d1117" stroke-width="2" class="data-point"/>
  
    <circle cx="698.3259911894273" cy="83.6491132703676" r="4" fill="#3b82f6" stroke="#0d1117" stroke-width="2" class="data-point"/>
  
    <circle cx="701.409691629956" cy="81.71257729156758" r="4" fill="#3b82f6" stroke="#0d1117" stroke-width="2" class="data-point"/>
  
    <circle cx="704.4933920704846" cy="79.90901678331181" r="4" fill="#3b82f6" stroke="#0d1117" stroke-width="2" class="data-point"/>
  
    <circle cx="707.5770925110132" cy="78.13902289868861" r="4" fill="#3b82f6" stroke="#0d1117" stroke-width="2" class="data-point"/>
  
    <circle cx="710.6607929515419" cy="76.26574709519599" r="4" fill="#3b82f6" stroke="#0d1117" stroke-width="2" class="data-point"/>
  
    <circle cx="713.7444933920705" cy="74.58612488958346" r="4" fill="#3b82f6" stroke="#0d1117" stroke-width="2" class="data-point"/>
  
    <circle cx="716.8281938325991" cy="73.11435754569544" r="4" fill="#3b82f6" stroke="#0d1117" stroke-width="2" class="data-point"/>
  
    <circle cx="719.9118942731277" cy="71.75103621662021" r="4" fill="#3b82f6" stroke="#0d1117" stroke-width="2" class="data-point"/>
  
    <circle cx="722.9955947136564" cy="70.30896242440718" r="4" fill="#3b82f6" stroke="#0d1117" stroke-width="2" class="data-point"/>
  
    <circle cx="726.079295154185" cy="68.90174627981247" r="4" fill="#3b82f6" stroke="#0d1117" stroke-width="2" class="data-point"/>
  
    <circle cx="729.1629955947136" cy="67.63008765373377" r="4" fill="#3b82f6" stroke="#0d1117" stroke-width="2" class="data-point"/>
  
    <circle cx="732.2466960352423" cy="66.35584697968335" r="4" fill="#3b82f6" stroke="#0d1117" stroke-width="2" class="data-point"/>
  
    <circle cx="735.3303964757708" cy="65.13582931303932" r="4" fill="#3b82f6" stroke="#0d1117" stroke-width="2" class="data-point"/>
  
    <circle cx="738.4140969162995" cy="63.9235577903105" r="4" fill="#3b82f6" stroke="#0d1117" stroke-width="2" class="data-point"/>
  
    <circle cx="741.4977973568282" cy="62.71386831555344" r="4" fill="#3b82f6" stroke="#0d1117" stroke-width="2" class="data-point"/>
  
    <circle cx="744.5814977973569" cy="61.64619147924168" r="4" fill="#3b82f6" stroke="#0d1117" stroke-width="2" class="data-point"/>
  
    <circle cx="747.6651982378854" cy="60.404226404837914" r="4" fill="#3b82f6" stroke="#0d1117" stroke-width="2" class="data-point"/>
  
    <circle cx="750.7488986784141" cy="59.12353061085821" r="4" fill="#3b82f6" stroke="#0d1117" stroke-width="2" class="data-point"/>
  
    <circle cx="753.8325991189428" cy="57.66467350682882" r="4" fill="#3b82f6" stroke="#0d1117" stroke-width="2" class="data-point"/>
  
    <circle cx="756.9162995594713" cy="56.25874838622002" r="4" fill="#3b82f6" stroke="#0d1117" stroke-width="2" class="data-point"/>
  
    <circle cx="760" cy="55" r="4" fill="#3b82f6" stroke="#0d1117" stroke-width="2" class="data-point"/>
  

  <!-- Axis lines -->
  <line x1="60" y1="55" x2="60" y2="340"
        stroke="#30363d" stroke-width="2"/>
  <line x1="60" y1="340" x2="760" y2="340"
        stroke="#30363d" stroke-width="2"/>
</svg>