<?xml version="1.0" encoding="UTF-8"?>
<svg width="800" height="400" xmlns="http://www.w3.org/2000/svg">
  <defs>
    <!-- Gradient for area fill -->
    <linearGradient id="areaGradient" x1="0%" y1="0%" x2="0%" y2="100%">
      <stop offset="0%" style="stop-color:#3b82f6;stop-opacity:0.3" />
      <stop offset="100%" style="stop-color:#3b82f6;stop-opacity:0.05" />
    </linearGradient>

    <!-- Glow filter for line -->
    <filter id="glow">
      <feGaussianBlur stdDeviation="2" result="coloredBlur"/>
      <feMerge>
        <feMergeNode in="coloredBlur"/>
        <feMergeNode in="SourceGraphic"/>
      </feMerge>
    </filter>

    <!-- Animation -->
    <style>
      @keyframes draw {
        from { stroke-dashoffset: 2000; }
        to { stroke-dashoffset: 0; }
      }
      @keyframes fadeIn {
        from { opacity: 0; }
        to { opacity: 1; }
      }
      .line-path {
        stroke-dasharray: 2000;
        stroke-dashoffset: 2000;
        animation: draw 1.5s ease-out forwards;
      }
      .area-path {
        opacity: 0;
        animation: fadeIn 1s ease-out 0.5s forwards;
      }
      .data-point {
        opacity: 0;
        animation: fadeIn 0.5s ease-out 1s forwards;
      }
    </style>
  </defs>

  <!-- Background -->
  <rect width="800" height="400" fill="#0d1117" rx="8"/>

  <!-- Title -->
  <text x="400" y="25" text-anchor="middle" fill="#c9d1d9" font-family="system-ui, -apple-system, sans-serif" font-size="16" font-weight="600">
    zxcloli666/SoundCloud-Desktop Downloads
  </text>

  <!-- Stats -->
  <text x="780" y="25" text-anchor="end" fill="#58a6ff" font-family="system-ui, -apple-system, sans-serif" font-size="14" font-weight="600">
    155.9K total
  </text>
  <text x="780" y="42" text-anchor="end" fill="#3fb950" font-family="system-ui, -apple-system, sans-serif" font-size="12">
    +2.0K (+1.3%)
  </text>

  <!-- Grid lines -->
  <g opacity="0.1">
    
      <line x1="60" y1="340" x2="760" y2="340"
            stroke="#c9d1d9" stroke-width="1"/>
    
      <line x1="60" y1="268.75" x2="760" y2="268.75"
            stroke="#c9d1d9" stroke-width="1"/>
    
      <line x1="60" y1="197.5" x2="760" y2="197.5"
            stroke="#c9d1d9" stroke-width="1"/>
    
      <line x1="60" y1="126.25" x2="760" y2="126.25"
            stroke="#c9d1d9" stroke-width="1"/>
    
      <line x1="60" y1="55" x2="760" y2="55"
            stroke="#c9d1d9" stroke-width="1"/>
    
  </g>

  <!-- Y-axis labels -->
  
    <text x="50" y="344" text-anchor="end"
          fill="#8b949e" font-family="system-ui, -apple-system, sans-serif" font-size="11">
      60.2K
    </text>
  
    <text x="50" y="272.75" text-anchor="end"
          fill="#8b949e" font-family="system-ui, -apple-system, sans-serif" font-size="11">
      84.1K
    </text>
  
    <text x="50" y="201.5" text-anchor="end"
          fill="#8b949e" font-family="system-ui, -apple-system, sans-serif" font-size="11">
      108.0K
    </text>
  
    <text x="50" y="130.25" text-anchor="end"
          fill="#8b949e" font-family="system-ui, -apple-system, sans-serif" font-size="11">
      132.0K
    </text>
  
    <text x="50" y="59" text-anchor="end"
          fill="#8b949e" font-family="system-ui, -apple-system, sans-serif" font-size="11">
      155.9K
    </text>
  

  <!-- X-axis labels -->
  
    <text x="60" y="360" text-anchor="middle"
          fill="#8b949e" font-family="system-ui, -apple-system, sans-serif" font-size="11">
      Nov 25
    </text>
  
    <text x="143.80281690140845" y="360" text-anchor="middle"
          fill="#8b949e" font-family="system-ui, -apple-system, sans-serif" font-size="11">
      Dec 12
    </text>
  
    <text x="227.6056338028169" y="360" text-anchor="middle"
          fill="#8b949e" font-family="system-ui, -apple-system, sans-serif" font-size="11">
      Dec 29
    </text>
  
    <text x="311.4084507042254" y="360" text-anchor="middle"
          fill="#8b949e" font-family="system-ui, -apple-system, sans-serif" font-size="11">
      Jan 15
    </text>
  
    <text x="395.2112676056338" y="360" text-anchor="middle"
          fill="#8b949e" font-family="system-ui, -apple-system, sans-serif" font-size="11">
      Feb 1
    </text>
  
    <text x="479.01408450704224" y="360" text-anchor="middle"
          fill="#8b949e" font-family="system-ui, -apple-system, sans-serif" font-size="11">
      Feb 18
    </text>
  
    <text x="562.8169014084508" y="360" text-anchor="middle"
          fill="#8b949e" font-family="system-ui, -apple-system, sans-serif" font-size="11">
      Mar 7
    </text>
  
    <text x="646.6197183098592" y="360" text-anchor="middle"
          fill="#8b949e" font-family="system-ui, -apple-system, sans-serif" font-size="11">
      Mar 24
    </text>
  
    <text x="730.4225352112676" y="360" text-anchor="middle"
          fill="#8b949e" font-family="system-ui, -apple-system, sans-serif" font-size="11">
      Apr 10
    </text>
  
    <text x="760" y="360" text-anchor="middle"
          fill="#8b949e" font-family="system-ui, -apple-system, sans-serif" font-size="11">
      Apr 16
    </text>
  

  <!-- Area under line -->
  <path d="M 60 340
    L 60.00 340.00 L 64.93 339.56 L 69.86 338.82 L 74.79 338.13 L 79.72 336.76 L 84.65 335.34 L 89.58 334.22 L 94.51 333.18 L 99.44 332.26 L 104.37 331.17 L 109.30 329.96 L 114.23 328.66 L 119.15 327.48 L 124.08 326.23 L 129.01 325.32 L 133.94 324.37 L 138.87 323.09 L 143.80 322.23 L 148.73 321.04 L 153.66 319.66 L 158.59 318.63 L 163.52 317.78 L 168.45 317.22 L 173.38 316.77 L 178.31 315.92 L 183.24 315.31 L 188.17 313.99 L 193.10 313.47 L 198.03 312.80 L 202.96 311.93 L 207.89 311.33 L 212.82 310.73 L 217.75 310.10 L 222.68 309.65 L 227.61 309.27 L 232.54 308.69 L 237.46 307.99 L 242.39 307.34 L 247.32 306.52 L 252.25 305.62 L 257.18 304.80 L 262.11 303.81 L 267.04 302.84 L 271.97 301.86 L 276.90 300.80 L 281.83 299.78 L 286.76 298.62 L 291.69 297.58 L 296.62 296.70 L 301.55 296.00 L 306.48 295.02 L 311.41 293.90 L 316.34 292.87 L 321.27 291.67 L 326.20 290.19 L 331.13 289.09 L 336.06 288.18 L 340.99 287.31 L 345.92 286.26 L 350.85 285.05 L 355.77 283.70 L 360.70 282.29 L 365.63 280.93 L 370.56 279.74 L 375.49 278.56 L 380.42 277.51 L 385.35 276.45 L 390.28 275.26 L 395.21 273.78 L 400.14 272.67 L 405.07 271.68 L 410.00 270.59 L 414.93 269.56 L 419.86 268.44 L 424.79 267.26 L 429.72 266.04 L 434.65 264.96 L 439.58 264.04 L 444.51 263.04 L 449.44 261.94 L 454.37 260.93 L 459.30 259.61 L 464.23 258.48 L 469.15 257.39 L 474.08 256.48 L 479.01 255.60 L 483.94 254.72 L 488.87 253.66 L 493.80 252.57 L 498.73 251.26 L 503.66 250.19 L 508.59 249.32 L 513.52 248.42 L 518.45 247.56 L 523.38 246.50 L 528.31 245.42 L 533.24 243.02 L 538.17 238.24 L 543.10 232.55 L 548.03 227.36 L 552.96 224.73 L 557.89 220.76 L 562.82 218.13 L 567.75 215.82 L 572.68 213.56 L 577.61 211.44 L 582.54 208.13 L 587.46 205.50 L 592.39 202.13 L 597.32 201.45 L 602.25 201.36 L 607.18 201.24 L 612.11 201.14 L 617.04 201.02 L 621.97 200.90 L 626.90 200.86 L 631.83 200.69 L 636.76 200.54 L 641.69 200.43 L 646.62 200.39 L 651.55 200.22 L 656.48 195.90 L 661.41 189.15 L 666.34 184.62 L 671.27 179.37 L 676.20 173.95 L 681.13 169.70 L 686.06 164.95 L 690.99 157.71 L 695.92 147.95 L 700.85 141.58 L 705.77 134.01 L 710.70 125.56 L 715.63 118.79 L 720.56 111.44 L 725.49 104.92 L 730.42 98.46 L 735.35 92.02 L 740.28 83.24 L 745.21 74.45 L 750.14 67.11 L 755.07 60.96 L 760.00 55.00
    L 760 340
    Z" fill="url(#areaGradient)" class="area-path"/>

  <!-- Main line with glow -->
  <path d="M 60.00 340.00 L 64.93 339.56 L 69.86 338.82 L 74.79 338.13 L 79.72 336.76 L 84.65 335.34 L 89.58 334.22 L 94.51 333.18 L 99.44 332.26 L 104.37 331.17 L 109.30 329.96 L 114.23 328.66 L 119.15 327.48 L 124.08 326.23 L 129.01 325.32 L 133.94 324.37 L 138.87 323.09 L 143.80 322.23 L 148.73 321.04 L 153.66 319.66 L 158.59 318.63 L 163.52 317.78 L 168.45 317.22 L 173.38 316.77 L 178.31 315.92 L 183.24 315.31 L 188.17 313.99 L 193.10 313.47 L 198.03 312.80 L 202.96 311.93 L 207.89 311.33 L 212.82 310.73 L 217.75 310.10 L 222.68 309.65 L 227.61 309.27 L 232.54 308.69 L 237.46 307.99 L 242.39 307.34 L 247.32 306.52 L 252.25 305.62 L 257.18 304.80 L 262.11 303.81 L 267.04 302.84 L 271.97 301.86 L 276.90 300.80 L 281.83 299.78 L 286.76 298.62 L 291.69 297.58 L 296.62 296.70 L 301.55 296.00 L 306.48 295.02 L 311.41 293.90 L 316.34 292.87 L 321.27 291.67 L 326.20 290.19 L 331.13 289.09 L 336.06 288.18 L 340.99 287.31 L 345.92 286.26 L 350.85 285.05 L 355.77 283.70 L 360.70 282.29 L 365.63 280.93 L 370.56 279.74 L 375.49 278.56 L 380.42 277.51 L 385.35 276.45 L 390.28 275.26 L 395.21 273.78 L 400.14 272.67 L 405.07 271.68 L 410.00 270.59 L 414.93 269.56 L 419.86 268.44 L 424.79 267.26 L 429.72 266.04 L 434.65 264.96 L 439.58 264.04 L 444.51 263.04 L 449.44 261.94 L 454.37 260.93 L 459.30 259.61 L 464.23 258.48 L 469.15 257.39 L 474.08 256.48 L 479.01 255.60 L 483.94 254.72 L 488.87 253.66 L 493.80 252.57 L 498.73 251.26 L 503.66 250.19 L 508.59 249.32 L 513.52 248.42 L 518.45 247.56 L 523.38 246.50 L 528.31 245.42 L 533.24 243.02 L 538.17 238.24 L 543.10 232.55 L 548.03 227.36 L 552.96 224.73 L 557.89 220.76 L 562.82 218.13 L 567.75 215.82 L 572.68 213.56 L 577.61 211.44 L 582.54 208.13 L 587.46 205.50 L 592.39 202.13 L 597.32 201.45 L 602.25 201.36 L 607.18 201.24 L 612.11 201.14 L 617.04 201.02 L 621.97 200.90 L 626.90 200.86 L 631.83 200.69 L 636.76 200.54 L 641.69 200.43 L 646.62 200.39 L 651.55 200.22 L 656.48 195.90 L 661.41 189.15 L 666.34 184.62 L 671.27 179.37 L 676.20 173.95 L 681.13 169.70 L 686.06 164.95 L 690.99 157.71 L 695.92 147.95 L 700.85 141.58 L 705.77 134.01 L 710.70 125.56 L 715.63 118.79 L 720.56 111.44 L 725.49 104.92 L 730.42 98.46 L 735.35 92.02 L 740.28 83.24 L 745.21 74.45 L 750.14 67.11 L 755.07 60.96 L 760.00 55.00" fill="none" stroke="#3b82f6" stroke-width="3"
        stroke-linecap="round" stroke-linejoin="round" filter="url(#glow)" class="line-path"/>

  <!-- Data points -->
  
    <circle cx="60" cy="340" r="4" fill="#3b82f6" stroke="#0d1117" stroke-width="2" class="data-point"/>
  
    <circle cx="64.92957746478874" cy="339.56258678833564" r="4" fill="#3b82f6" stroke="#0d1117" stroke-width="2" class="data-point"/>
  
    <circle cx="69.85915492957747" cy="338.8186867684983" r="4" fill="#3b82f6" stroke="#0d1117" stroke-width="2" class="data-point"/>
  
    <circle cx="74.78873239436619" cy="338.12834755008925" r="4" fill="#3b82f6" stroke="#0d1117" stroke-width="2" class="data-point"/>
  
    <circle cx="79.71830985915493" cy="336.7565959135092" r="4" fill="#3b82f6" stroke="#0d1117" stroke-width="2" class="data-point"/>
  
    <circle cx="84.64788732394366" cy="335.34021027573897" r="4" fill="#3b82f6" stroke="#0d1117" stroke-width="2" class="data-point"/>
  
    <circle cx="89.57746478873239" cy="334.22436024598295" r="4" fill="#3b82f6" stroke="#0d1117" stroke-width="2" class="data-point"/>
  
    <circle cx="94.50704225352112" cy="333.18290021821065" r="4" fill="#3b82f6" stroke="#0d1117" stroke-width="2" class="data-point"/>
  
    <circle cx="99.43661971830986" cy="332.257488593533" r="4" fill="#3b82f6" stroke="#0d1117" stroke-width="2" class="data-point"/>
  
    <circle cx="104.36619718309859" cy="331.1713945645705" r="4" fill="#3b82f6" stroke="#0d1117" stroke-width="2" class="data-point"/>
  
    <circle cx="109.29577464788733" cy="329.9603253322753" r="4" fill="#3b82f6" stroke="#0d1117" stroke-width="2" class="data-point"/>
  
    <circle cx="114.22535211267605" cy="328.662963697679" r="4" fill="#3b82f6" stroke="#0d1117" stroke-width="2" class="data-point"/>
  
    <circle cx="119.15492957746478" cy="327.4846260662567" r="4" fill="#3b82f6" stroke="#0d1117" stroke-width="2" class="data-point"/>
  
    <circle cx="124.08450704225352" cy="326.23189843285064" r="4" fill="#3b82f6" stroke="#0d1117" stroke-width="2" class="data-point"/>
  
    <circle cx="129.01408450704224" cy="325.3183892084904" r="4" fill="#3b82f6" stroke="#0d1117" stroke-width="2" class="data-point"/>
  
    <circle cx="133.94366197183098" cy="324.3721483832573" r="4" fill="#3b82f6" stroke="#0d1117" stroke-width="2" class="data-point"/>
  
    <circle cx="138.8732394366197" cy="323.0866891489784" r="4" fill="#3b82f6" stroke="#0d1117" stroke-width="2" class="data-point"/>
  
    <circle cx="143.80281690140845" cy="322.22674072604644" r="4" fill="#3b82f6" stroke="#0d1117" stroke-width="2" class="data-point"/>
  
    <circle cx="148.73239436619718" cy="321.0365006943067" r="4" fill="#3b82f6" stroke="#0d1117" stroke-width="2" class="data-point"/>
  
    <circle cx="153.66197183098592" cy="319.6617734576473" r="4" fill="#3b82f6" stroke="#0d1117" stroke-width="2" class="data-point"/>
  
    <circle cx="158.59154929577466" cy="318.62626463003375" r="4" fill="#3b82f6" stroke="#0d1117" stroke-width="2" class="data-point"/>
  
    <circle cx="163.5211267605634" cy="317.77524300733984" r="4" fill="#3b82f6" stroke="#0d1117" stroke-width="2" class="data-point"/>
  
    <circle cx="168.4507042253521" cy="317.22475699266016" r="4" fill="#3b82f6" stroke="#0d1117" stroke-width="2" class="data-point"/>
  
    <circle cx="173.38028169014086" cy="316.7665145804404" r="4" fill="#3b82f6" stroke="#0d1117" stroke-width="2" class="data-point"/>
  
    <circle cx="178.30985915492957" cy="315.9184685578258" r="4" fill="#3b82f6" stroke="#0d1117" stroke-width="2" class="data-point"/>
  
    <circle cx="183.2394366197183" cy="315.3144217417179" r="4" fill="#3b82f6" stroke="#0d1117" stroke-width="2" class="data-point"/>
  
    <circle cx="188.16901408450704" cy="313.9902797064075" r="4" fill="#3b82f6" stroke="#0d1117" stroke-width="2" class="data-point"/>
  
    <circle cx="193.09859154929578" cy="313.46954969252135" r="4" fill="#3b82f6" stroke="#0d1117" stroke-width="2" class="data-point"/>
  
    <circle cx="198.0281690140845" cy="312.7970640745884" r="4" fill="#3b82f6" stroke="#0d1117" stroke-width="2" class="data-point"/>
  
    <circle cx="202.95774647887325" cy="311.9281888514184" r="4" fill="#3b82f6" stroke="#0d1117" stroke-width="2" class="data-point"/>
  
    <circle cx="207.88732394366198" cy="311.3330688355485" r="4" fill="#3b82f6" stroke="#0d1117" stroke-width="2" class="data-point"/>
  
    <circle cx="212.8169014084507" cy="310.7290220194406" r="4" fill="#3b82f6" stroke="#0d1117" stroke-width="2" class="data-point"/>
  
    <circle cx="217.74647887323945" cy="310.09521920253917" r="4" fill="#3b82f6" stroke="#0d1117" stroke-width="2" class="data-point"/>
  
    <circle cx="222.67605633802816" cy="309.6548303907955" r="4" fill="#3b82f6" stroke="#0d1117" stroke-width="2" class="data-point"/>
  
    <circle cx="227.6056338028169" cy="309.27395358063876" r="4" fill="#3b82f6" stroke="#0d1117" stroke-width="2" class="data-point"/>
  
    <circle cx="232.53521126760563" cy="308.69371156516564" r="4" fill="#3b82f6" stroke="#0d1117" stroke-width="2" class="data-point"/>
  
    <circle cx="237.46478873239437" cy="307.98849434635986" r="4" fill="#3b82f6" stroke="#0d1117" stroke-width="2" class="data-point"/>
  
    <circle cx="242.39436619718307" cy="307.3398135290617" r="4" fill="#3b82f6" stroke="#0d1117" stroke-width="2" class="data-point"/>
  
    <circle cx="247.3239436619718" cy="306.5185479071613" r="4" fill="#3b82f6" stroke="#0d1117" stroke-width="2" class="data-point"/>
  
    <circle cx="252.25352112676057" cy="305.6228922832771" r="4" fill="#3b82f6" stroke="#0d1117" stroke-width="2" class="data-point"/>
  
    <circle cx="257.1830985915493" cy="304.8016266613767" r="4" fill="#3b82f6" stroke="#0d1117" stroke-width="2" class="data-point"/>
  
    <circle cx="262.11267605633805" cy="303.8107518349534" r="4" fill="#3b82f6" stroke="#0d1117" stroke-width="2" class="data-point"/>
  
    <circle cx="267.0422535211268" cy="302.83773060900614" r="4" fill="#3b82f6" stroke="#0d1117" stroke-width="2" class="data-point"/>
  
    <circle cx="271.9718309859155" cy="301.86470938305894" r="4" fill="#3b82f6" stroke="#0d1117" stroke-width="2" class="data-point"/>
  
    <circle cx="276.9014084507042" cy="300.79944455465187" r="4" fill="#3b82f6" stroke="#0d1117" stroke-width="2" class="data-point"/>
  
    <circle cx="281.830985915493" cy="299.7817893275144" r="4" fill="#3b82f6" stroke="#0d1117" stroke-width="2" class="data-point"/>
  
    <circle cx="286.7605633802817" cy="298.6183296964888" r="4" fill="#3b82f6" stroke="#0d1117" stroke-width="2" class="data-point"/>
  
    <circle cx="291.69014084507046" cy="297.57984526879585" r="4" fill="#3b82f6" stroke="#0d1117" stroke-width="2" class="data-point"/>
  
    <circle cx="296.61971830985914" cy="296.7020432453878" r="4" fill="#3b82f6" stroke="#0d1117" stroke-width="2" class="data-point"/>
  
    <circle cx="301.5492957746479" cy="295.9998016266614" r="4" fill="#3b82f6" stroke="#0d1117" stroke-width="2" class="data-point"/>
  
    <circle cx="306.4788732394366" cy="295.0178536004761" r="4" fill="#3b82f6" stroke="#0d1117" stroke-width="2" class="data-point"/>
  
    <circle cx="311.4084507042254" cy="293.8960523705614" r="4" fill="#3b82f6" stroke="#0d1117" stroke-width="2" class="data-point"/>
  
    <circle cx="316.3380281690141" cy="292.86947034318587" r="4" fill="#3b82f6" stroke="#0d1117" stroke-width="2" class="data-point"/>
  
    <circle cx="321.2676056338028" cy="291.6703035112081" r="4" fill="#3b82f6" stroke="#0d1117" stroke-width="2" class="data-point"/>
  
    <circle cx="326.19718309859155" cy="290.1914302717715" r="4" fill="#3b82f6" stroke="#0d1117" stroke-width="2" class="data-point"/>
  
    <circle cx="331.1267605633803" cy="289.09045824241224" r="4" fill="#3b82f6" stroke="#0d1117" stroke-width="2" class="data-point"/>
  
    <circle cx="336.056338028169" cy="288.17694901805197" r="4" fill="#3b82f6" stroke="#0d1117" stroke-width="2" class="data-point"/>
  
    <circle cx="340.98591549295776" cy="287.308073794882" r="4" fill="#3b82f6" stroke="#0d1117" stroke-width="2" class="data-point"/>
  
    <circle cx="345.9154929577465" cy="286.26363816703036" r="4" fill="#3b82f6" stroke="#0d1117" stroke-width="2" class="data-point"/>
  
    <circle cx="350.84507042253523" cy="285.0495933346558" r="4" fill="#3b82f6" stroke="#0d1117" stroke-width="2" class="data-point"/>
  
    <circle cx="355.77464788732397" cy="283.7046220987899" r="4" fill="#3b82f6" stroke="#0d1117" stroke-width="2" class="data-point"/>
  
    <circle cx="360.70422535211264" cy="282.291212061099" r="4" fill="#3b82f6" stroke="#0d1117" stroke-width="2" class="data-point"/>
  
    <circle cx="365.6338028169014" cy="280.9343384249157" r="4" fill="#3b82f6" stroke="#0d1117" stroke-width="2" class="data-point"/>
  
    <circle cx="370.5633802816902" cy="279.7411227930966" r="4" fill="#3b82f6" stroke="#0d1117" stroke-width="2" class="data-point"/>
  
    <circle cx="375.4929577464789" cy="278.55683396151557" r="4" fill="#3b82f6" stroke="#0d1117" stroke-width="2" class="data-point"/>
  
    <circle cx="380.4225352112676" cy="277.51239833366395" r="4" fill="#3b82f6" stroke="#0d1117" stroke-width="2" class="data-point"/>
  
    <circle cx="385.3521126760563" cy="276.4471335052569" r="4" fill="#3b82f6" stroke="#0d1117" stroke-width="2" class="data-point"/>
  
    <circle cx="390.28169014084506" cy="275.25689347351715" r="4" fill="#3b82f6" stroke="#0d1117" stroke-width="2" class="data-point"/>
  
    <circle cx="395.2112676056338" cy="273.7750446340012" r="4" fill="#3b82f6" stroke="#0d1117" stroke-width="2" class="data-point"/>
  
    <circle cx="400.14084507042253" cy="272.67109700456257" r="4" fill="#3b82f6" stroke="#0d1117" stroke-width="2" class="data-point"/>
  
    <circle cx="405.07042253521126" cy="271.68319777821864" r="4" fill="#3b82f6" stroke="#0d1117" stroke-width="2" class="data-point"/>
  
    <circle cx="410" cy="270.5852013489387" r="4" fill="#3b82f6" stroke="#0d1117" stroke-width="2" class="data-point"/>
  
    <circle cx="414.92957746478874" cy="269.56159492164255" r="4" fill="#3b82f6" stroke="#0d1117" stroke-width="2" class="data-point"/>
  
    <circle cx="419.85915492957747" cy="268.4368180916485" r="4" fill="#3b82f6" stroke="#0d1117" stroke-width="2" class="data-point"/>
  
    <circle cx="424.78873239436615" cy="267.26443166038484" r="4" fill="#3b82f6" stroke="#0d1117" stroke-width="2" class="data-point"/>
  
    <circle cx="429.7183098591549" cy="266.03848442769294" r="4" fill="#3b82f6" stroke="#0d1117" stroke-width="2" class="data-point"/>
  
    <circle cx="434.6478873239436" cy="264.9642927990478" r="4" fill="#3b82f6" stroke="#0d1117" stroke-width="2" class="data-point"/>
  
    <circle cx="439.5774647887324" cy="264.0448323745288" r="4" fill="#3b82f6" stroke="#0d1117" stroke-width="2" class="data-point"/>
  
    <circle cx="444.50704225352115" cy="263.03610394762944" r="4" fill="#3b82f6" stroke="#0d1117" stroke-width="2" class="data-point"/>
  
    <circle cx="449.4366197183099" cy="261.94405871850824" r="4" fill="#3b82f6" stroke="#0d1117" stroke-width="2" class="data-point"/>
  
    <circle cx="454.3661971830986" cy="260.93235469152944" r="4" fill="#3b82f6" stroke="#0d1117" stroke-width="2" class="data-point"/>
  
    <circle cx="459.29577464788736" cy="259.61416385637773" r="4" fill="#3b82f6" stroke="#0d1117" stroke-width="2" class="data-point"/>
  
    <circle cx="464.22535211267603" cy="258.4804602261456" r="4" fill="#3b82f6" stroke="#0d1117" stroke-width="2" class="data-point"/>
  
    <circle cx="469.15492957746477" cy="257.38841499702437" r="4" fill="#3b82f6" stroke="#0d1117" stroke-width="2" class="data-point"/>
  
    <circle cx="474.0845070422535" cy="256.48085697282283" r="4" fill="#3b82f6" stroke="#0d1117" stroke-width="2" class="data-point"/>
  
    <circle cx="479.01408450704224" cy="255.60007934933543" r="4" fill="#3b82f6" stroke="#0d1117" stroke-width="2" class="data-point"/>
  
    <circle cx="483.943661971831" cy="254.71632612576872" r="4" fill="#3b82f6" stroke="#0d1117" stroke-width="2" class="data-point"/>
  
    <circle cx="488.8732394366197" cy="253.6599880975997" r="4" fill="#3b82f6" stroke="#0d1117" stroke-width="2" class="data-point"/>
  
    <circle cx="493.8028169014084" cy="252.57389406863717" r="4" fill="#3b82f6" stroke="#0d1117" stroke-width="2" class="data-point"/>
  
    <circle cx="498.73239436619724" cy="251.2557032334854" r="4" fill="#3b82f6" stroke="#0d1117" stroke-width="2" class="data-point"/>
  
    <circle cx="503.6619718309859" cy="250.18746280499903" r="4" fill="#3b82f6" stroke="#0d1117" stroke-width="2" class="data-point"/>
  
    <circle cx="508.59154929577466" cy="249.31561198174967" r="4" fill="#3b82f6" stroke="#0d1117" stroke-width="2" class="data-point"/>
  
    <circle cx="513.5211267605634" cy="248.4199563578655" r="4" fill="#3b82f6" stroke="#0d1117" stroke-width="2" class="data-point"/>
  
    <circle cx="518.4507042253522" cy="247.5629835350129" r="4" fill="#3b82f6" stroke="#0d1117" stroke-width="2" class="data-point"/>
  
    <circle cx="523.3802816901409" cy="246.50366990676454" r="4" fill="#3b82f6" stroke="#0d1117" stroke-width="2" class="data-point"/>
  
    <circle cx="528.3098591549297" cy="245.41757587780202" r="4" fill="#3b82f6" stroke="#0d1117" stroke-width="2" class="data-point"/>
  
    <circle cx="533.2394366197183" cy="243.0162666137671" r="4" fill="#3b82f6" stroke="#0d1117" stroke-width="2" class="data-point"/>
  
    <circle cx="538.169014084507" cy="238.23745288633208" r="4" fill="#3b82f6" stroke="#0d1117" stroke-width="2" class="data-point"/>
  
    <circle cx="543.0985915492957" cy="232.5451299345368" r="4" fill="#3b82f6" stroke="#0d1117" stroke-width="2" class="data-point"/>
  
    <circle cx="548.0281690140845" cy="227.3586589962309" r="4" fill="#3b82f6" stroke="#0d1117" stroke-width="2" class="data-point"/>
  
    <circle cx="552.9577464788732" cy="224.72822852608607" r="4" fill="#3b82f6" stroke="#0d1117" stroke-width="2" class="data-point"/>
  
    <circle cx="557.8873239436621" cy="220.76472922039278" r="4" fill="#3b82f6" stroke="#0d1117" stroke-width="2" class="data-point"/>
  
    <circle cx="562.8169014084508" cy="218.1313231501686" r="4" fill="#3b82f6" stroke="#0d1117" stroke-width="2" class="data-point"/>
  
    <circle cx="567.7464788732395" cy="215.82225748859355" r="4" fill="#3b82f6" stroke="#0d1117" stroke-width="2" class="data-point"/>
  
    <circle cx="572.6760563380282" cy="213.56377702836738" r="4" fill="#3b82f6" stroke="#0d1117" stroke-width="2" class="data-point"/>
  
    <circle cx="577.6056338028169" cy="211.43622297163262" r="4" fill="#3b82f6" stroke="#0d1117" stroke-width="2" class="data-point"/>
  
    <circle cx="582.5352112676056" cy="208.12735568339616" r="4" fill="#3b82f6" stroke="#0d1117" stroke-width="2" class="data-point"/>
  
    <circle cx="587.4647887323944" cy="205.49692521325133" r="4" fill="#3b82f6" stroke="#0d1117" stroke-width="2" class="data-point"/>
  
    <circle cx="592.3943661971831" cy="202.13449712358658" r="4" fill="#3b82f6" stroke="#0d1117" stroke-width="2" class="data-point"/>
  
    <circle cx="597.3239436619718" cy="201.4471335052569" r="4" fill="#3b82f6" stroke="#0d1117" stroke-width="2" class="data-point"/>
  
    <circle cx="602.2535211267606" cy="201.35786550287642" r="4" fill="#3b82f6" stroke="#0d1117" stroke-width="2" class="data-point"/>
  
    <circle cx="607.1830985915493" cy="201.2418170997818" r="4" fill="#3b82f6" stroke="#0d1117" stroke-width="2" class="data-point"/>
  
    <circle cx="612.112676056338" cy="201.14362229716326" r="4" fill="#3b82f6" stroke="#0d1117" stroke-width="2" class="data-point"/>
  
    <circle cx="617.0422535211268" cy="201.01567149375123" r="4" fill="#3b82f6" stroke="#0d1117" stroke-width="2" class="data-point"/>
  
    <circle cx="621.9718309859155" cy="200.90259869073597" r="4" fill="#3b82f6" stroke="#0d1117" stroke-width="2" class="data-point"/>
  
    <circle cx="626.9014084507043" cy="200.85796468954572" r="4" fill="#3b82f6" stroke="#0d1117" stroke-width="2" class="data-point"/>
  
    <circle cx="631.830985915493" cy="200.69430668518152" r="4" fill="#3b82f6" stroke="#0d1117" stroke-width="2" class="data-point"/>
  
    <circle cx="636.7605633802817" cy="200.53659988097598" r="4" fill="#3b82f6" stroke="#0d1117" stroke-width="2" class="data-point"/>
  
    <circle cx="641.6901408450705" cy="200.43245387819877" r="4" fill="#3b82f6" stroke="#0d1117" stroke-width="2" class="data-point"/>
  
    <circle cx="646.6197183098592" cy="200.39377107716723" r="4" fill="#3b82f6" stroke="#0d1117" stroke-width="2" class="data-point"/>
  
    <circle cx="651.5492957746479" cy="200.2182106724856" r="4" fill="#3b82f6" stroke="#0d1117" stroke-width="2" class="data-point"/>
  
    <circle cx="656.4788732394366" cy="195.90359055742908" r="4" fill="#3b82f6" stroke="#0d1117" stroke-width="2" class="data-point"/>
  
    <circle cx="661.4084507042253" cy="189.14600277722673" r="4" fill="#3b82f6" stroke="#0d1117" stroke-width="2" class="data-point"/>
  
    <circle cx="666.338028169014" cy="184.6201150565364" r="4" fill="#3b82f6" stroke="#0d1117" stroke-width="2" class="data-point"/>
  
    <circle cx="671.2676056338028" cy="179.36520531640548" r="4" fill="#3b82f6" stroke="#0d1117" stroke-width="2" class="data-point"/>
  
    <circle cx="676.1971830985916" cy="173.94961317198968" r="4" fill="#3b82f6" stroke="#0d1117" stroke-width="2" class="data-point"/>
  
    <circle cx="681.1267605633803" cy="169.70045625867883" r="4" fill="#3b82f6" stroke="#0d1117" stroke-width="2" class="data-point"/>
  
    <circle cx="686.0563380281691" cy="164.94842293195794" r="4" fill="#3b82f6" stroke="#0d1117" stroke-width="2" class="data-point"/>
  
    <circle cx="690.9859154929578" cy="157.708787938901" r="4" fill="#3b82f6" stroke="#0d1117" stroke-width="2" class="data-point"/>
  
    <circle cx="695.9154929577464" cy="147.9517952787145" r="4" fill="#3b82f6" stroke="#0d1117" stroke-width="2" class="data-point"/>
  
    <circle cx="700.8450704225352" cy="141.58401110890696" r="4" fill="#3b82f6" stroke="#0d1117" stroke-width="2" class="data-point"/>
  
    <circle cx="705.7746478873239" cy="134.0051577068042" r="4" fill="#3b82f6" stroke="#0d1117" stroke-width="2" class="data-point"/>
  
    <circle cx="710.7042253521126" cy="125.5604046816108" r="4" fill="#3b82f6" stroke="#0d1117" stroke-width="2" class="data-point"/>
  
    <circle cx="715.6338028169014" cy="118.78793890101173" r="4" fill="#3b82f6" stroke="#0d1117" stroke-width="2" class="data-point"/>
  
    <circle cx="720.5633802816901" cy="111.43820670501884" r="4" fill="#3b82f6" stroke="#0d1117" stroke-width="2" class="data-point"/>
  
    <circle cx="725.4929577464789" cy="104.91866693116444" r="4" fill="#3b82f6" stroke="#0d1117" stroke-width="2" class="data-point"/>
  
    <circle cx="730.4225352112676" cy="98.45863915889706" r="4" fill="#3b82f6" stroke="#0d1117" stroke-width="2" class="data-point"/>
  
    <circle cx="735.3521126760563" cy="92.01646498710573" r="4" fill="#3b82f6" stroke="#0d1117" stroke-width="2" class="data-point"/>
  
    <circle cx="740.2816901408451" cy="83.24439595318387" r="4" fill="#3b82f6" stroke="#0d1117" stroke-width="2" class="data-point"/>
  
    <circle cx="745.2112676056338" cy="74.44554651854793" r="4" fill="#3b82f6" stroke="#0d1117" stroke-width="2" class="data-point"/>
  
    <circle cx="750.1408450704225" cy="67.11069232295182" r="4" fill="#3b82f6" stroke="#0d1117" stroke-width="2" class="data-point"/>
  
    <circle cx="755.0704225352113" cy="60.96310255901608" r="4" fill="#3b82f6" stroke="#0d1117" stroke-width="2" class="data-point"/>
  
    <circle cx="760" cy="55" r="4" fill="#3b82f6" stroke="#0d1117" stroke-width="2" class="data-point"/>
  

  <!-- Axis lines -->
  <line x1="60" y1="55" x2="60" y2="340"
        stroke="#30363d" stroke-width="2"/>
  <line x1="60" y1="340" x2="760" y2="340"
        stroke="#30363d" stroke-width="2"/>
</svg>