<?xml version="1.0" encoding="UTF-8"?>
<svg width="800" height="400" xmlns="http://www.w3.org/2000/svg">
  <defs>
    <!-- Gradient for area fill -->
    <linearGradient id="areaGradient" x1="0%" y1="0%" x2="0%" y2="100%">
      <stop offset="0%" style="stop-color:#3b82f6;stop-opacity:0.3" />
      <stop offset="100%" style="stop-color:#3b82f6;stop-opacity:0.05" />
    </linearGradient>

    <!-- Glow filter for line -->
    <filter id="glow">
      <feGaussianBlur stdDeviation="2" result="coloredBlur"/>
      <feMerge>
        <feMergeNode in="coloredBlur"/>
        <feMergeNode in="SourceGraphic"/>
      </feMerge>
    </filter>

    <!-- Animation -->
    <style>
      @keyframes draw {
        from { stroke-dashoffset: 2000; }
        to { stroke-dashoffset: 0; }
      }
      @keyframes fadeIn {
        from { opacity: 0; }
        to { opacity: 1; }
      }
      .line-path {
        stroke-dasharray: 2000;
        stroke-dashoffset: 2000;
        animation: draw 1.5s ease-out forwards;
      }
      .area-path {
        opacity: 0;
        animation: fadeIn 1s ease-out 0.5s forwards;
      }
      .data-point {
        opacity: 0;
        animation: fadeIn 0.5s ease-out 1s forwards;
      }
    </style>
  </defs>

  <!-- Background -->
  <rect width="800" height="400" fill="#0d1117" rx="8"/>

  <!-- Title -->
  <text x="400" y="25" text-anchor="middle" fill="#c9d1d9" font-family="system-ui, -apple-system, sans-serif" font-size="16" font-weight="600">
    zxcloli666/SoundCloud-Desktop Downloads
  </text>

  <!-- Stats -->
  <text x="780" y="25" text-anchor="end" fill="#58a6ff" font-family="system-ui, -apple-system, sans-serif" font-size="14" font-weight="600">
    252.9K total
  </text>
  <text x="780" y="42" text-anchor="end" fill="#3fb950" font-family="system-ui, -apple-system, sans-serif" font-size="12">
    +1.1K (+0.5%)
  </text>

  <!-- Grid lines -->
  <g opacity="0.1">
    
      <line x1="60" y1="340" x2="760" y2="340"
            stroke="#c9d1d9" stroke-width="1"/>
    
      <line x1="60" y1="268.75" x2="760" y2="268.75"
            stroke="#c9d1d9" stroke-width="1"/>
    
      <line x1="60" y1="197.5" x2="760" y2="197.5"
            stroke="#c9d1d9" stroke-width="1"/>
    
      <line x1="60" y1="126.25" x2="760" y2="126.25"
            stroke="#c9d1d9" stroke-width="1"/>
    
      <line x1="60" y1="55" x2="760" y2="55"
            stroke="#c9d1d9" stroke-width="1"/>
    
  </g>

  <!-- Y-axis labels -->
  
    <text x="50" y="344" text-anchor="end"
          fill="#8b949e" font-family="system-ui, -apple-system, sans-serif" font-size="11">
      60.2K
    </text>
  
    <text x="50" y="272.75" text-anchor="end"
          fill="#8b949e" font-family="system-ui, -apple-system, sans-serif" font-size="11">
      108.3K
    </text>
  
    <text x="50" y="201.5" text-anchor="end"
          fill="#8b949e" font-family="system-ui, -apple-system, sans-serif" font-size="11">
      156.5K
    </text>
  
    <text x="50" y="130.25" text-anchor="end"
          fill="#8b949e" font-family="system-ui, -apple-system, sans-serif" font-size="11">
      204.7K
    </text>
  
    <text x="50" y="59" text-anchor="end"
          fill="#8b949e" font-family="system-ui, -apple-system, sans-serif" font-size="11">
      252.9K
    </text>
  

  <!-- X-axis labels -->
  
    <text x="60" y="360" text-anchor="middle"
          fill="#8b949e" font-family="system-ui, -apple-system, sans-serif" font-size="11">
      Nov 25
    </text>
  
    <text x="146.20689655172413" y="360" text-anchor="middle"
          fill="#8b949e" font-family="system-ui, -apple-system, sans-serif" font-size="11">
      Dec 20
    </text>
  
    <text x="232.41379310344828" y="360" text-anchor="middle"
          fill="#8b949e" font-family="system-ui, -apple-system, sans-serif" font-size="11">
      Jan 14
    </text>
  
    <text x="318.6206896551724" y="360" text-anchor="middle"
          fill="#8b949e" font-family="system-ui, -apple-system, sans-serif" font-size="11">
      Feb 8
    </text>
  
    <text x="404.82758620689657" y="360" text-anchor="middle"
          fill="#8b949e" font-family="system-ui, -apple-system, sans-serif" font-size="11">
      Mar 5
    </text>
  
    <text x="491.0344827586207" y="360" text-anchor="middle"
          fill="#8b949e" font-family="system-ui, -apple-system, sans-serif" font-size="11">
      Mar 30
    </text>
  
    <text x="577.2413793103448" y="360" text-anchor="middle"
          fill="#8b949e" font-family="system-ui, -apple-system, sans-serif" font-size="11">
      Apr 24
    </text>
  
    <text x="663.448275862069" y="360" text-anchor="middle"
          fill="#8b949e" font-family="system-ui, -apple-system, sans-serif" font-size="11">
      May 19
    </text>
  
    <text x="749.6551724137931" y="360" text-anchor="middle"
          fill="#8b949e" font-family="system-ui, -apple-system, sans-serif" font-size="11">
      Jun 13
    </text>
  
    <text x="760" y="360" text-anchor="middle"
          fill="#8b949e" font-family="system-ui, -apple-system, sans-serif" font-size="11">
      Jun 16
    </text>
  

  <!-- Area under line -->
  <path d="M 60 340
    L 60.00 340.00 L 63.45 339.78 L 66.90 339.41 L 70.34 339.07 L 73.79 338.39 L 77.24 337.68 L 80.69 337.13 L 84.14 336.61 L 87.59 336.15 L 91.03 335.61 L 94.48 335.01 L 97.93 334.37 L 101.38 333.78 L 104.83 333.16 L 108.28 332.70 L 111.72 332.23 L 115.17 331.59 L 118.62 331.17 L 122.07 330.57 L 125.52 329.89 L 128.97 329.38 L 132.41 328.95 L 135.86 328.68 L 139.31 328.45 L 142.76 328.03 L 146.21 327.73 L 149.66 327.07 L 153.10 326.81 L 156.55 326.48 L 160.00 326.05 L 163.45 325.75 L 166.90 325.45 L 170.34 325.14 L 173.79 324.92 L 177.24 324.73 L 180.69 324.44 L 184.14 324.09 L 187.59 323.77 L 191.03 323.36 L 194.48 322.91 L 197.93 322.51 L 201.38 322.01 L 204.83 321.53 L 208.28 321.05 L 211.72 320.52 L 215.17 320.01 L 218.62 319.43 L 222.07 318.92 L 225.52 318.48 L 228.97 318.13 L 232.41 317.64 L 235.86 317.09 L 239.31 316.58 L 242.76 315.98 L 246.21 315.24 L 249.66 314.70 L 253.10 314.24 L 256.55 313.81 L 260.00 313.29 L 263.45 312.69 L 266.90 312.02 L 270.34 311.32 L 273.79 310.64 L 277.24 310.05 L 280.69 309.46 L 284.14 308.94 L 287.59 308.41 L 291.03 307.82 L 294.48 307.09 L 297.93 306.54 L 301.38 306.05 L 304.83 305.50 L 308.28 304.99 L 311.72 304.43 L 315.17 303.85 L 318.62 303.24 L 322.07 302.71 L 325.52 302.25 L 328.97 301.75 L 332.41 301.20 L 335.86 300.70 L 339.31 300.05 L 342.76 299.48 L 346.21 298.94 L 349.66 298.49 L 353.10 298.05 L 356.55 297.61 L 360.00 297.09 L 363.45 296.55 L 366.90 295.89 L 370.34 295.36 L 373.79 294.93 L 377.24 294.48 L 380.69 294.06 L 384.14 293.53 L 387.59 292.99 L 391.03 291.80 L 394.48 289.42 L 397.93 286.59 L 401.38 284.02 L 404.83 282.71 L 408.28 280.74 L 411.72 279.43 L 415.17 278.28 L 418.62 277.16 L 422.07 276.10 L 425.52 274.46 L 428.97 273.15 L 432.41 271.48 L 435.86 271.14 L 439.31 271.09 L 442.76 271.03 L 446.21 270.99 L 449.66 270.92 L 453.10 270.87 L 456.55 270.84 L 460.00 270.76 L 463.45 270.68 L 466.90 270.63 L 470.34 270.61 L 473.79 270.53 L 477.24 268.38 L 480.69 265.02 L 484.14 262.77 L 487.59 260.16 L 491.03 257.47 L 494.48 255.36 L 497.93 253.00 L 501.38 249.40 L 504.83 244.55 L 508.28 241.38 L 511.72 237.62 L 515.17 233.42 L 518.62 230.05 L 522.07 226.40 L 525.52 223.16 L 528.97 219.95 L 532.41 216.75 L 535.86 212.39 L 539.31 208.02 L 542.76 204.37 L 546.21 201.31 L 549.66 198.35 L 553.10 194.42 L 556.55 191.37 L 560.00 188.35 L 563.45 185.52 L 566.90 182.86 L 570.34 180.14 L 573.79 177.81 L 577.24 175.40 L 580.69 172.94 L 584.14 170.33 L 587.59 167.95 L 591.03 165.76 L 594.48 161.79 L 597.93 158.48 L 601.38 155.29 L 604.83 152.23 L 608.28 147.40 L 611.72 144.34 L 615.17 141.70 L 618.62 138.57 L 622.07 133.97 L 625.52 130.65 L 628.97 127.85 L 632.41 125.49 L 635.86 123.24 L 639.31 121.41 L 642.76 119.36 L 646.21 117.68 L 649.66 115.70 L 653.10 112.85 L 656.55 110.40 L 660.00 108.28 L 663.45 106.44 L 666.90 104.54 L 670.34 102.94 L 673.79 100.25 L 677.24 97.95 L 680.69 95.67 L 684.14 93.78 L 687.59 92.06 L 691.03 90.52 L 694.48 87.89 L 697.93 85.76 L 701.38 83.81 L 704.83 81.95 L 708.28 80.33 L 711.72 78.76 L 715.17 77.31 L 718.62 75.93 L 722.07 74.66 L 725.52 73.08 L 728.97 71.37 L 732.41 69.81 L 735.86 67.38 L 739.31 65.61 L 742.76 63.93 L 746.21 62.45 L 749.66 60.71 L 753.10 58.58 L 756.55 56.69 L 760.00 55.00
    L 760 340
    Z" fill="url(#areaGradient)" class="area-path"/>

  <!-- Main line with glow -->
  <path d="M 60.00 340.00 L 63.45 339.78 L 66.90 339.41 L 70.34 339.07 L 73.79 338.39 L 77.24 337.68 L 80.69 337.13 L 84.14 336.61 L 87.59 336.15 L 91.03 335.61 L 94.48 335.01 L 97.93 334.37 L 101.38 333.78 L 104.83 333.16 L 108.28 332.70 L 111.72 332.23 L 115.17 331.59 L 118.62 331.17 L 122.07 330.57 L 125.52 329.89 L 128.97 329.38 L 132.41 328.95 L 135.86 328.68 L 139.31 328.45 L 142.76 328.03 L 146.21 327.73 L 149.66 327.07 L 153.10 326.81 L 156.55 326.48 L 160.00 326.05 L 163.45 325.75 L 166.90 325.45 L 170.34 325.14 L 173.79 324.92 L 177.24 324.73 L 180.69 324.44 L 184.14 324.09 L 187.59 323.77 L 191.03 323.36 L 194.48 322.91 L 197.93 322.51 L 201.38 322.01 L 204.83 321.53 L 208.28 321.05 L 211.72 320.52 L 215.17 320.01 L 218.62 319.43 L 222.07 318.92 L 225.52 318.48 L 228.97 318.13 L 232.41 317.64 L 235.86 317.09 L 239.31 316.58 L 242.76 315.98 L 246.21 315.24 L 249.66 314.70 L 253.10 314.24 L 256.55 313.81 L 260.00 313.29 L 263.45 312.69 L 266.90 312.02 L 270.34 311.32 L 273.79 310.64 L 277.24 310.05 L 280.69 309.46 L 284.14 308.94 L 287.59 308.41 L 291.03 307.82 L 294.48 307.09 L 297.93 306.54 L 301.38 306.05 L 304.83 305.50 L 308.28 304.99 L 311.72 304.43 L 315.17 303.85 L 318.62 303.24 L 322.07 302.71 L 325.52 302.25 L 328.97 301.75 L 332.41 301.20 L 335.86 300.70 L 339.31 300.05 L 342.76 299.48 L 346.21 298.94 L 349.66 298.49 L 353.10 298.05 L 356.55 297.61 L 360.00 297.09 L 363.45 296.55 L 366.90 295.89 L 370.34 295.36 L 373.79 294.93 L 377.24 294.48 L 380.69 294.06 L 384.14 293.53 L 387.59 292.99 L 391.03 291.80 L 394.48 289.42 L 397.93 286.59 L 401.38 284.02 L 404.83 282.71 L 408.28 280.74 L 411.72 279.43 L 415.17 278.28 L 418.62 277.16 L 422.07 276.10 L 425.52 274.46 L 428.97 273.15 L 432.41 271.48 L 435.86 271.14 L 439.31 271.09 L 442.76 271.03 L 446.21 270.99 L 449.66 270.92 L 453.10 270.87 L 456.55 270.84 L 460.00 270.76 L 463.45 270.68 L 466.90 270.63 L 470.34 270.61 L 473.79 270.53 L 477.24 268.38 L 480.69 265.02 L 484.14 262.77 L 487.59 260.16 L 491.03 257.47 L 494.48 255.36 L 497.93 253.00 L 501.38 249.40 L 504.83 244.55 L 508.28 241.38 L 511.72 237.62 L 515.17 233.42 L 518.62 230.05 L 522.07 226.40 L 525.52 223.16 L 528.97 219.95 L 532.41 216.75 L 535.86 212.39 L 539.31 208.02 L 542.76 204.37 L 546.21 201.31 L 549.66 198.35 L 553.10 194.42 L 556.55 191.37 L 560.00 188.35 L 563.45 185.52 L 566.90 182.86 L 570.34 180.14 L 573.79 177.81 L 577.24 175.40 L 580.69 172.94 L 584.14 170.33 L 587.59 167.95 L 591.03 165.76 L 594.48 161.79 L 597.93 158.48 L 601.38 155.29 L 604.83 152.23 L 608.28 147.40 L 611.72 144.34 L 615.17 141.70 L 618.62 138.57 L 622.07 133.97 L 625.52 130.65 L 628.97 127.85 L 632.41 125.49 L 635.86 123.24 L 639.31 121.41 L 642.76 119.36 L 646.21 117.68 L 649.66 115.70 L 653.10 112.85 L 656.55 110.40 L 660.00 108.28 L 663.45 106.44 L 666.90 104.54 L 670.34 102.94 L 673.79 100.25 L 677.24 97.95 L 680.69 95.67 L 684.14 93.78 L 687.59 92.06 L 691.03 90.52 L 694.48 87.89 L 697.93 85.76 L 701.38 83.81 L 704.83 81.95 L 708.28 80.33 L 711.72 78.76 L 715.17 77.31 L 718.62 75.93 L 722.07 74.66 L 725.52 73.08 L 728.97 71.37 L 732.41 69.81 L 735.86 67.38 L 739.31 65.61 L 742.76 63.93 L 746.21 62.45 L 749.66 60.71 L 753.10 58.58 L 756.55 56.69 L 760.00 55.00" fill="none" stroke="#3b82f6" stroke-width="3"
        stroke-linecap="round" stroke-linejoin="round" filter="url(#glow)" class="line-path"/>

  <!-- Data points -->
  
    <circle cx="60" cy="340" r="4" fill="#3b82f6" stroke="#0d1117" stroke-width="2" class="data-point"/>
  
    <circle cx="63.44827586206897" cy="339.78259854287313" r="4" fill="#3b82f6" stroke="#0d1117" stroke-width="2" class="data-point"/>
  
    <circle cx="66.89655172413794" cy="339.4128681736098" r="4" fill="#3b82f6" stroke="#0d1117" stroke-width="2" class="data-point"/>
  
    <circle cx="70.34482758620689" cy="339.06975839093343" r="4" fill="#3b82f6" stroke="#0d1117" stroke-width="2" class="data-point"/>
  
    <circle cx="73.79310344827586" cy="338.3879755900118" r="4" fill="#3b82f6" stroke="#0d1117" stroke-width="2" class="data-point"/>
  
    <circle cx="77.24137931034483" cy="337.6840089669344" r="4" fill="#3b82f6" stroke="#0d1117" stroke-width="2" class="data-point"/>
  
    <circle cx="80.6896551724138" cy="337.1294134130394" r="4" fill="#3b82f6" stroke="#0d1117" stroke-width="2" class="data-point"/>
  
    <circle cx="84.13793103448276" cy="336.6117908960707" r="4" fill="#3b82f6" stroke="#0d1117" stroke-width="2" class="data-point"/>
  
    <circle cx="87.58620689655173" cy="336.1518463167071" r="4" fill="#3b82f6" stroke="#0d1117" stroke-width="2" class="data-point"/>
  
    <circle cx="91.0344827586207" cy="335.61203997758264" r="4" fill="#3b82f6" stroke="#0d1117" stroke-width="2" class="data-point"/>
  
    <circle cx="94.48275862068965" cy="335.0101189364219" r="4" fill="#3b82f6" stroke="#0d1117" stroke-width="2" class="data-point"/>
  
    <circle cx="97.93103448275863" cy="334.3653091724267" r="4" fill="#3b82f6" stroke="#0d1117" stroke-width="2" class="data-point"/>
  
    <circle cx="101.37931034482759" cy="333.77965626751353" r="4" fill="#3b82f6" stroke="#0d1117" stroke-width="2" class="data-point"/>
  
    <circle cx="104.82758620689656" cy="333.1570303256741" r="4" fill="#3b82f6" stroke="#0d1117" stroke-width="2" class="data-point"/>
  
    <circle cx="108.27586206896552" cy="332.7030014322187" r="4" fill="#3b82f6" stroke="#0d1117" stroke-width="2" class="data-point"/>
  
    <circle cx="111.72413793103449" cy="332.2327044025157" r="4" fill="#3b82f6" stroke="#0d1117" stroke-width="2" class="data-point"/>
  
    <circle cx="115.17241379310346" cy="331.59381032442866" r="4" fill="#3b82f6" stroke="#0d1117" stroke-width="2" class="data-point"/>
  
    <circle cx="118.62068965517241" cy="331.16640201756024" r="4" fill="#3b82f6" stroke="#0d1117" stroke-width="2" class="data-point"/>
  
    <circle cx="122.06896551724138" cy="330.5748334267389" r="4" fill="#3b82f6" stroke="#0d1117" stroke-width="2" class="data-point"/>
  
    <circle cx="125.51724137931035" cy="329.89157170434027" r="4" fill="#3b82f6" stroke="#0d1117" stroke-width="2" class="data-point"/>
  
    <circle cx="128.9655172413793" cy="329.3769070303257" r="4" fill="#3b82f6" stroke="#0d1117" stroke-width="2" class="data-point"/>
  
    <circle cx="132.41379310344826" cy="328.95393548788843" r="4" fill="#3b82f6" stroke="#0d1117" stroke-width="2" class="data-point"/>
  
    <circle cx="135.86206896551727" cy="328.68033501463356" r="4" fill="#3b82f6" stroke="#0d1117" stroke-width="2" class="data-point"/>
  
    <circle cx="139.31034482758622" cy="328.4525811071673" r="4" fill="#3b82f6" stroke="#0d1117" stroke-width="2" class="data-point"/>
  
    <circle cx="142.75862068965517" cy="328.0310884862071" r="4" fill="#3b82f6" stroke="#0d1117" stroke-width="2" class="data-point"/>
  
    <circle cx="146.20689655172413" cy="327.73086742636525" r="4" fill="#3b82f6" stroke="#0d1117" stroke-width="2" class="data-point"/>
  
    <circle cx="149.6551724137931" cy="327.0727473690765" r="4" fill="#3b82f6" stroke="#0d1117" stroke-width="2" class="data-point"/>
  
    <circle cx="153.1034482758621" cy="326.8139361105922" r="4" fill="#3b82f6" stroke="#0d1117" stroke-width="2" class="data-point"/>
  
    <circle cx="156.55172413793105" cy="326.47969985677815" r="4" fill="#3b82f6" stroke="#0d1117" stroke-width="2" class="data-point"/>
  
    <circle cx="160" cy="326.04785478547853" r="4" fill="#3b82f6" stroke="#0d1117" stroke-width="2" class="data-point"/>
  
    <circle cx="163.44827586206898" cy="325.75207049006787" r="4" fill="#3b82f6" stroke="#0d1117" stroke-width="2" class="data-point"/>
  
    <circle cx="166.89655172413794" cy="325.45184943022605" r="4" fill="#3b82f6" stroke="#0d1117" stroke-width="2" class="data-point"/>
  
    <circle cx="170.34482758620692" cy="325.1368391556137" r="4" fill="#3b82f6" stroke="#0d1117" stroke-width="2" class="data-point"/>
  
    <circle cx="173.79310344827587" cy="324.9179587770098" r="4" fill="#3b82f6" stroke="#0d1117" stroke-width="2" class="data-point"/>
  
    <circle cx="177.24137931034483" cy="324.72865682794696" r="4" fill="#3b82f6" stroke="#0d1117" stroke-width="2" class="data-point"/>
  
    <circle cx="180.6896551724138" cy="324.44026713992156" r="4" fill="#3b82f6" stroke="#0d1117" stroke-width="2" class="data-point"/>
  
    <circle cx="184.13793103448276" cy="324.0897627498599" r="4" fill="#3b82f6" stroke="#0d1117" stroke-width="2" class="data-point"/>
  
    <circle cx="187.58620689655174" cy="323.76735786786224" r="4" fill="#3b82f6" stroke="#0d1117" stroke-width="2" class="data-point"/>
  
    <circle cx="191.0344827586207" cy="323.3591755401955" r="4" fill="#3b82f6" stroke="#0d1117" stroke-width="2" class="data-point"/>
  
    <circle cx="194.48275862068965" cy="322.91402017560245" r="4" fill="#3b82f6" stroke="#0d1117" stroke-width="2" class="data-point"/>
  
    <circle cx="197.93103448275863" cy="322.5058378479357" r="4" fill="#3b82f6" stroke="#0d1117" stroke-width="2" class="data-point"/>
  
    <circle cx="201.3793103448276" cy="322.013356996077" r="4" fill="#3b82f6" stroke="#0d1117" stroke-width="2" class="data-point"/>
  
    <circle cx="204.82758620689654" cy="321.5297496730805" r="4" fill="#3b82f6" stroke="#0d1117" stroke-width="2" class="data-point"/>
  
    <circle cx="208.27586206896552" cy="321.04614235008404" r="4" fill="#3b82f6" stroke="#0d1117" stroke-width="2" class="data-point"/>
  
    <circle cx="211.7241379310345" cy="320.51668846129894" r="4" fill="#3b82f6" stroke="#0d1117" stroke-width="2" class="data-point"/>
  
    <circle cx="215.17241379310346" cy="320.0108973161467" r="4" fill="#3b82f6" stroke="#0d1117" stroke-width="2" class="data-point"/>
  
    <circle cx="218.6206896551724" cy="319.43263901861883" r="4" fill="#3b82f6" stroke="#0d1117" stroke-width="2" class="data-point"/>
  
    <circle cx="222.06896551724137" cy="318.91649542312723" r="4" fill="#3b82f6" stroke="#0d1117" stroke-width="2" class="data-point"/>
  
    <circle cx="225.51724137931035" cy="318.48021358739646" r="4" fill="#3b82f6" stroke="#0d1117" stroke-width="2" class="data-point"/>
  
    <circle cx="228.96551724137933" cy="318.1311881188119" r="4" fill="#3b82f6" stroke="#0d1117" stroke-width="2" class="data-point"/>
  
    <circle cx="232.41379310344828" cy="317.6431440313843" r="4" fill="#3b82f6" stroke="#0d1117" stroke-width="2" class="data-point"/>
  
    <circle cx="235.86206896551727" cy="317.08559063453515" r="4" fill="#3b82f6" stroke="#0d1117" stroke-width="2" class="data-point"/>
  
    <circle cx="239.31034482758622" cy="316.57536272495173" r="4" fill="#3b82f6" stroke="#0d1117" stroke-width="2" class="data-point"/>
  
    <circle cx="242.75862068965517" cy="315.97935736969924" r="4" fill="#3b82f6" stroke="#0d1117" stroke-width="2" class="data-point"/>
  
    <circle cx="246.20689655172416" cy="315.2443333956037" r="4" fill="#3b82f6" stroke="#0d1117" stroke-width="2" class="data-point"/>
  
    <circle cx="249.6551724137931" cy="314.69713244909394" r="4" fill="#3b82f6" stroke="#0d1117" stroke-width="2" class="data-point"/>
  
    <circle cx="253.10344827586206" cy="314.2431035556386" r="4" fill="#3b82f6" stroke="#0d1117" stroke-width="2" class="data-point"/>
  
    <circle cx="256.55172413793105" cy="313.811258484339" r="4" fill="#3b82f6" stroke="#0d1117" stroke-width="2" class="data-point"/>
  
    <circle cx="260" cy="313.29215704589325" r="4" fill="#3b82f6" stroke="#0d1117" stroke-width="2" class="data-point"/>
  
    <circle cx="263.44827586206895" cy="312.6887570832555" r="4" fill="#3b82f6" stroke="#0d1117" stroke-width="2" class="data-point"/>
  
    <circle cx="266.89655172413796" cy="312.0202845756274" r="4" fill="#3b82f6" stroke="#0d1117" stroke-width="2" class="data-point"/>
  
    <circle cx="270.3448275862069" cy="311.317796874027" r="4" fill="#3b82f6" stroke="#0d1117" stroke-width="2" class="data-point"/>
  
    <circle cx="273.7931034482759" cy="310.64340868049067" r="4" fill="#3b82f6" stroke="#0d1117" stroke-width="2" class="data-point"/>
  
    <circle cx="277.2413793103448" cy="310.0503611681923" r="4" fill="#3b82f6" stroke="#0d1117" stroke-width="2" class="data-point"/>
  
    <circle cx="280.68965517241384" cy="309.4617504203251" r="4" fill="#3b82f6" stroke="#0d1117" stroke-width="2" class="data-point"/>
  
    <circle cx="284.1379310344828" cy="308.9426489818793" r="4" fill="#3b82f6" stroke="#0d1117" stroke-width="2" class="data-point"/>
  
    <circle cx="287.58620689655174" cy="308.4131950930942" r="4" fill="#3b82f6" stroke="#0d1117" stroke-width="2" class="data-point"/>
  
    <circle cx="291.0344827586207" cy="307.82162650227286" r="4" fill="#3b82f6" stroke="#0d1117" stroke-width="2" class="data-point"/>
  
    <circle cx="294.48275862068965" cy="307.0851236067003" r="4" fill="#3b82f6" stroke="#0d1117" stroke-width="2" class="data-point"/>
  
    <circle cx="297.9310344827586" cy="306.5364437387135" r="4" fill="#3b82f6" stroke="#0d1117" stroke-width="2" class="data-point"/>
  
    <circle cx="301.3793103448276" cy="306.04544180833176" r="4" fill="#3b82f6" stroke="#0d1117" stroke-width="2" class="data-point"/>
  
    <circle cx="304.82758620689657" cy="305.4997197832991" r="4" fill="#3b82f6" stroke="#0d1117" stroke-width="2" class="data-point"/>
  
    <circle cx="308.2758620689655" cy="304.9909707951927" r="4" fill="#3b82f6" stroke="#0d1117" stroke-width="2" class="data-point"/>
  
    <circle cx="311.7241379310345" cy="304.43193847686655" r="4" fill="#3b82f6" stroke="#0d1117" stroke-width="2" class="data-point"/>
  
    <circle cx="315.1724137931035" cy="303.8492434149075" r="4" fill="#3b82f6" stroke="#0d1117" stroke-width="2" class="data-point"/>
  
    <circle cx="318.6206896551724" cy="303.2399277663615" r="4" fill="#3b82f6" stroke="#0d1117" stroke-width="2" class="data-point"/>
  
    <circle cx="322.0689655172414" cy="302.70603711314527" r="4" fill="#3b82f6" stroke="#0d1117" stroke-width="2" class="data-point"/>
  
    <circle cx="325.51724137931035" cy="302.2490503767358" r="4" fill="#3b82f6" stroke="#0d1117" stroke-width="2" class="data-point"/>
  
    <circle cx="328.9655172413793" cy="301.74769599601467" r="4" fill="#3b82f6" stroke="#0d1117" stroke-width="2" class="data-point"/>
  
    <circle cx="332.4137931034483" cy="301.2049318139361" r="4" fill="#3b82f6" stroke="#0d1117" stroke-width="2" class="data-point"/>
  
    <circle cx="335.86206896551727" cy="300.702098511738" r="4" fill="#3b82f6" stroke="#0d1117" stroke-width="2" class="data-point"/>
  
    <circle cx="339.3103448275862" cy="300.0469362974033" r="4" fill="#3b82f6" stroke="#0d1117" stroke-width="2" class="data-point"/>
  
    <circle cx="342.7586206896552" cy="299.483467214646" r="4" fill="#3b82f6" stroke="#0d1117" stroke-width="2" class="data-point"/>
  
    <circle cx="346.2068965517241" cy="298.9407030325674" r="4" fill="#3b82f6" stroke="#0d1117" stroke-width="2" class="data-point"/>
  
    <circle cx="349.6551724137931" cy="298.48963198206616" r="4" fill="#3b82f6" stroke="#0d1117" stroke-width="2" class="data-point"/>
  
    <circle cx="353.10344827586204" cy="298.05187122485836" r="4" fill="#3b82f6" stroke="#0d1117" stroke-width="2" class="data-point"/>
  
    <circle cx="356.55172413793105" cy="297.6126315461735" r="4" fill="#3b82f6" stroke="#0d1117" stroke-width="2" class="data-point"/>
  
    <circle cx="360" cy="297.0876144218195" r="4" fill="#3b82f6" stroke="#0d1117" stroke-width="2" class="data-point"/>
  
    <circle cx="363.448275862069" cy="296.54780808269504" r="4" fill="#3b82f6" stroke="#0d1117" stroke-width="2" class="data-point"/>
  
    <circle cx="366.89655172413796" cy="295.89264586836043" r="4" fill="#3b82f6" stroke="#0d1117" stroke-width="2" class="data-point"/>
  
    <circle cx="370.3448275862069" cy="295.36171305809825" r="4" fill="#3b82f6" stroke="#0d1117" stroke-width="2" class="data-point"/>
  
    <circle cx="373.7931034482759" cy="294.92838906532165" r="4" fill="#3b82f6" stroke="#0d1117" stroke-width="2" class="data-point"/>
  
    <circle cx="377.2413793103448" cy="294.48323370072853" r="4" fill="#3b82f6" stroke="#0d1117" stroke-width="2" class="data-point"/>
  
    <circle cx="380.6896551724138" cy="294.0573043153372" r="4" fill="#3b82f6" stroke="#0d1117" stroke-width="2" class="data-point"/>
  
    <circle cx="384.13793103448273" cy="293.5308082695062" r="4" fill="#3b82f6" stroke="#0d1117" stroke-width="2" class="data-point"/>
  
    <circle cx="387.5862068965517" cy="292.99100193038174" r="4" fill="#3b82f6" stroke="#0d1117" stroke-width="2" class="data-point"/>
  
    <circle cx="391.0344827586207" cy="291.7975122983996" r="4" fill="#3b82f6" stroke="#0d1117" stroke-width="2" class="data-point"/>
  
    <circle cx="394.48275862068965" cy="289.422364406252" r="4" fill="#3b82f6" stroke="#0d1117" stroke-width="2" class="data-point"/>
  
    <circle cx="397.93103448275866" cy="286.59318762064885" r="4" fill="#3b82f6" stroke="#0d1117" stroke-width="2" class="data-point"/>
  
    <circle cx="401.3793103448276" cy="284.01542748614486" r="4" fill="#3b82f6" stroke="#0d1117" stroke-width="2" class="data-point"/>
  
    <circle cx="404.82758620689657" cy="282.70806090042964" r="4" fill="#3b82f6" stroke="#0d1117" stroke-width="2" class="data-point"/>
  
    <circle cx="408.2758620689655" cy="280.7381374929946" r="4" fill="#3b82f6" stroke="#0d1117" stroke-width="2" class="data-point"/>
  
    <circle cx="411.72413793103453" cy="279.42929198580237" r="4" fill="#3b82f6" stroke="#0d1117" stroke-width="2" class="data-point"/>
  
    <circle cx="415.1724137931035" cy="278.2816489196089" r="4" fill="#3b82f6" stroke="#0d1117" stroke-width="2" class="data-point"/>
  
    <circle cx="418.62068965517244" cy="277.15914751852546" r="4" fill="#3b82f6" stroke="#0d1117" stroke-width="2" class="data-point"/>
  
    <circle cx="422.0689655172414" cy="276.1017186624323" r="4" fill="#3b82f6" stroke="#0d1117" stroke-width="2" class="data-point"/>
  
    <circle cx="425.51724137931035" cy="274.45715797994893" r="4" fill="#3b82f6" stroke="#0d1117" stroke-width="2" class="data-point"/>
  
    <circle cx="428.9655172413793" cy="273.1497913942338" r="4" fill="#3b82f6" stroke="#0d1117" stroke-width="2" class="data-point"/>
  
    <circle cx="432.4137931034483" cy="271.47861012516347" r="4" fill="#3b82f6" stroke="#0d1117" stroke-width="2" class="data-point"/>
  
    <circle cx="435.86206896551727" cy="271.1369792639641" r="4" fill="#3b82f6" stroke="#0d1117" stroke-width="2" class="data-point"/>
  
    <circle cx="439.3103448275862" cy="271.09261161965253" r="4" fill="#3b82f6" stroke="#0d1117" stroke-width="2" class="data-point"/>
  
    <circle cx="442.7586206896552" cy="271.03493368204744" r="4" fill="#3b82f6" stroke="#0d1117" stroke-width="2" class="data-point"/>
  
    <circle cx="446.2068965517241" cy="270.9861292733047" r="4" fill="#3b82f6" stroke="#0d1117" stroke-width="2" class="data-point"/>
  
    <circle cx="449.6551724137931" cy="270.92253564979137" r="4" fill="#3b82f6" stroke="#0d1117" stroke-width="2" class="data-point"/>
  
    <circle cx="453.10344827586204" cy="270.86633663366337" r="4" fill="#3b82f6" stroke="#0d1117" stroke-width="2" class="data-point"/>
  
    <circle cx="456.551724137931" cy="270.84415281150757" r="4" fill="#3b82f6" stroke="#0d1117" stroke-width="2" class="data-point"/>
  
    <circle cx="460" cy="270.7628121302696" r="4" fill="#3b82f6" stroke="#0d1117" stroke-width="2" class="data-point"/>
  
    <circle cx="463.44827586206895" cy="270.6844292919858" r="4" fill="#3b82f6" stroke="#0d1117" stroke-width="2" class="data-point"/>
  
    <circle cx="466.8965517241379" cy="270.63266704028894" r="4" fill="#3b82f6" stroke="#0d1117" stroke-width="2" class="data-point"/>
  
    <circle cx="470.34482758620686" cy="270.61344106108726" r="4" fill="#3b82f6" stroke="#0d1117" stroke-width="2" class="data-point"/>
  
    <circle cx="473.79310344827593" cy="270.5261846939411" r="4" fill="#3b82f6" stroke="#0d1117" stroke-width="2" class="data-point"/>
  
    <circle cx="477.2413793103449" cy="268.3817485522137" r="4" fill="#3b82f6" stroke="#0d1117" stroke-width="2" class="data-point"/>
  
    <circle cx="480.68965517241384" cy="265.0231178778255" r="4" fill="#3b82f6" stroke="#0d1117" stroke-width="2" class="data-point"/>
  
    <circle cx="484.1379310344828" cy="262.77367831122734" r="4" fill="#3b82f6" stroke="#0d1117" stroke-width="2" class="data-point"/>
  
    <circle cx="487.58620689655174" cy="260.1619029827511" r="4" fill="#3b82f6" stroke="#0d1117" stroke-width="2" class="data-point"/>
  
    <circle cx="491.0344827586207" cy="257.470265894514" r="4" fill="#3b82f6" stroke="#0d1117" stroke-width="2" class="data-point"/>
  
    <circle cx="494.48275862068965" cy="255.35836602528178" r="4" fill="#3b82f6" stroke="#0d1117" stroke-width="2" class="data-point"/>
  
    <circle cx="497.9310344827586" cy="252.99652842642755" r="4" fill="#3b82f6" stroke="#0d1117" stroke-width="2" class="data-point"/>
  
    <circle cx="501.3793103448276" cy="249.3983124727567" r="4" fill="#3b82f6" stroke="#0d1117" stroke-width="2" class="data-point"/>
  
    <circle cx="504.82758620689657" cy="244.5489289494987" r="4" fill="#3b82f6" stroke="#0d1117" stroke-width="2" class="data-point"/>
  
    <circle cx="508.2758620689655" cy="241.38403698860452" r="4" fill="#3b82f6" stroke="#0d1117" stroke-width="2" class="data-point"/>
  
    <circle cx="511.7241379310345" cy="237.61722398654962" r="4" fill="#3b82f6" stroke="#0d1117" stroke-width="2" class="data-point"/>
  
    <circle cx="515.1724137931035" cy="233.42004483467215" r="4" fill="#3b82f6" stroke="#0d1117" stroke-width="2" class="data-point"/>
  
    <circle cx="518.6206896551723" cy="230.0540195528987" r="4" fill="#3b82f6" stroke="#0d1117" stroke-width="2" class="data-point"/>
  
    <circle cx="522.0689655172414" cy="226.4010835045769" r="4" fill="#3b82f6" stroke="#0d1117" stroke-width="2" class="data-point"/>
  
    <circle cx="525.5172413793103" cy="223.16076654835294" r="4" fill="#3b82f6" stroke="#0d1117" stroke-width="2" class="data-point"/>
  
    <circle cx="528.9655172413793" cy="219.9500280216701" r="4" fill="#3b82f6" stroke="#0d1117" stroke-width="2" class="data-point"/>
  
    <circle cx="532.4137931034483" cy="216.74816302384954" r="4" fill="#3b82f6" stroke="#0d1117" stroke-width="2" class="data-point"/>
  
    <circle cx="535.8620689655172" cy="212.3883025094962" r="4" fill="#3b82f6" stroke="#0d1117" stroke-width="2" class="data-point"/>
  
    <circle cx="539.3103448275863" cy="208.01513170184944" r="4" fill="#3b82f6" stroke="#0d1117" stroke-width="2" class="data-point"/>
  
    <circle cx="542.7586206896552" cy="204.3695902609129" r="4" fill="#3b82f6" stroke="#0d1117" stroke-width="2" class="data-point"/>
  
    <circle cx="546.2068965517242" cy="201.3141384893206" r="4" fill="#3b82f6" stroke="#0d1117" stroke-width="2" class="data-point"/>
  
    <circle cx="549.6551724137931" cy="198.35037984930568" r="4" fill="#3b82f6" stroke="#0d1117" stroke-width="2" class="data-point"/>
  
    <circle cx="553.1034482758621" cy="194.4164487203437" r="4" fill="#3b82f6" stroke="#0d1117" stroke-width="2" class="data-point"/>
  
    <circle cx="556.551724137931" cy="191.36543371318263" r="4" fill="#3b82f6" stroke="#0d1117" stroke-width="2" class="data-point"/>
  
    <circle cx="560" cy="188.34695497851672" r="4" fill="#3b82f6" stroke="#0d1117" stroke-width="2" class="data-point"/>
  
    <circle cx="563.448275862069" cy="185.52369387882186" r="4" fill="#3b82f6" stroke="#0d1117" stroke-width="2" class="data-point"/>
  
    <circle cx="566.8965517241379" cy="182.8645930630799" r="4" fill="#3b82f6" stroke="#0d1117" stroke-width="2" class="data-point"/>
  
    <circle cx="570.344827586207" cy="180.1404197023476" r="4" fill="#3b82f6" stroke="#0d1117" stroke-width="2" class="data-point"/>
  
    <circle cx="573.7931034482758" cy="177.81111837598854" r="4" fill="#3b82f6" stroke="#0d1117" stroke-width="2" class="data-point"/>
  
    <circle cx="577.2413793103448" cy="175.3989974469145" r="4" fill="#3b82f6" stroke="#0d1117" stroke-width="2" class="data-point"/>
  
    <circle cx="580.6896551724137" cy="172.93659318762064" r="4" fill="#3b82f6" stroke="#0d1117" stroke-width="2" class="data-point"/>
  
    <circle cx="584.1379310344828" cy="170.33369138800674" r="4" fill="#3b82f6" stroke="#0d1117" stroke-width="2" class="data-point"/>
  
    <circle cx="587.5862068965517" cy="167.94523320256553" r="4" fill="#3b82f6" stroke="#0d1117" stroke-width="2" class="data-point"/>
  
    <circle cx="591.0344827586207" cy="165.75790833800363" r="4" fill="#3b82f6" stroke="#0d1117" stroke-width="2" class="data-point"/>
  
    <circle cx="594.4827586206897" cy="161.79439877950057" r="4" fill="#3b82f6" stroke="#0d1117" stroke-width="2" class="data-point"/>
  
    <circle cx="597.9310344827586" cy="158.4771779064699" r="4" fill="#3b82f6" stroke="#0d1117" stroke-width="2" class="data-point"/>
  
    <circle cx="601.3793103448277" cy="155.29158104489693" r="4" fill="#3b82f6" stroke="#0d1117" stroke-width="2" class="data-point"/>
  
    <circle cx="604.8275862068966" cy="152.23169250887352" r="4" fill="#3b82f6" stroke="#0d1117" stroke-width="2" class="data-point"/>
  
    <circle cx="608.2758620689656" cy="147.4000560433402" r="4" fill="#3b82f6" stroke="#0d1117" stroke-width="2" class="data-point"/>
  
    <circle cx="611.7241379310345" cy="144.34312535027087" r="4" fill="#3b82f6" stroke="#0d1117" stroke-width="2" class="data-point"/>
  
    <circle cx="615.1724137931035" cy="141.69733482782243" r="4" fill="#3b82f6" stroke="#0d1117" stroke-width="2" class="data-point"/>
  
    <circle cx="618.6206896551724" cy="138.57237374680864" r="4" fill="#3b82f6" stroke="#0d1117" stroke-width="2" class="data-point"/>
  
    <circle cx="622.0689655172414" cy="133.9655333457874" r="4" fill="#3b82f6" stroke="#0d1117" stroke-width="2" class="data-point"/>
  
    <circle cx="625.5172413793103" cy="130.6512703157108" r="4" fill="#3b82f6" stroke="#0d1117" stroke-width="2" class="data-point"/>
  
    <circle cx="628.9655172413793" cy="127.85315088112583" r="4" fill="#3b82f6" stroke="#0d1117" stroke-width="2" class="data-point"/>
  
    <circle cx="632.4137931034483" cy="125.48539759636341" r="4" fill="#3b82f6" stroke="#0d1117" stroke-width="2" class="data-point"/>
  
    <circle cx="635.8620689655172" cy="123.23891587271933" r="4" fill="#3b82f6" stroke="#0d1117" stroke-width="2" class="data-point"/>
  
    <circle cx="639.3103448275862" cy="121.41244784855846" r="4" fill="#3b82f6" stroke="#0d1117" stroke-width="2" class="data-point"/>
  
    <circle cx="642.7586206896551" cy="119.35526807397721" r="4" fill="#3b82f6" stroke="#0d1117" stroke-width="2" class="data-point"/>
  
    <circle cx="646.2068965517241" cy="117.67817111899868" r="4" fill="#3b82f6" stroke="#0d1117" stroke-width="2" class="data-point"/>
  
    <circle cx="649.6551724137931" cy="115.69937418270126" r="4" fill="#3b82f6" stroke="#0d1117" stroke-width="2" class="data-point"/>
  
    <circle cx="653.1034482758621" cy="112.85097141789652" r="4" fill="#3b82f6" stroke="#0d1117" stroke-width="2" class="data-point"/>
  
    <circle cx="656.551724137931" cy="110.40335637337319" r="4" fill="#3b82f6" stroke="#0d1117" stroke-width="2" class="data-point"/>
  
    <circle cx="660" cy="108.2751883678934" r="4" fill="#3b82f6" stroke="#0d1117" stroke-width="2" class="data-point"/>
  
    <circle cx="663.448275862069" cy="106.435410050439" r="4" fill="#3b82f6" stroke="#0d1117" stroke-width="2" class="data-point"/>
  
    <circle cx="666.896551724138" cy="104.53795379537954" r="4" fill="#3b82f6" stroke="#0d1117" stroke-width="2" class="data-point"/>
  
    <circle cx="670.344827586207" cy="102.9377607572078" r="4" fill="#3b82f6" stroke="#0d1117" stroke-width="2" class="data-point"/>
  
    <circle cx="673.7931034482759" cy="100.24760259044774" r="4" fill="#3b82f6" stroke="#0d1117" stroke-width="2" class="data-point"/>
  
    <circle cx="677.2413793103449" cy="97.94787969362974" r="4" fill="#3b82f6" stroke="#0d1117" stroke-width="2" class="data-point"/>
  
    <circle cx="680.6896551724138" cy="95.66738277601345" r="4" fill="#3b82f6" stroke="#0d1117" stroke-width="2" class="data-point"/>
  
    <circle cx="684.1379310344828" cy="93.78471573572452" r="4" fill="#3b82f6" stroke="#0d1117" stroke-width="2" class="data-point"/>
  
    <circle cx="687.5862068965517" cy="92.05733545052618" r="4" fill="#3b82f6" stroke="#0d1117" stroke-width="2" class="data-point"/>
  
    <circle cx="691.0344827586207" cy="90.52369387882186" r="4" fill="#3b82f6" stroke="#0d1117" stroke-width="2" class="data-point"/>
  
    <circle cx="694.4827586206897" cy="87.89417149262096" r="4" fill="#3b82f6" stroke="#0d1117" stroke-width="2" class="data-point"/>
  
    <circle cx="697.9310344827586" cy="85.75860887975588" r="4" fill="#3b82f6" stroke="#0d1117" stroke-width="2" class="data-point"/>
  
    <circle cx="701.3793103448276" cy="83.81234821595365" r="4" fill="#3b82f6" stroke="#0d1117" stroke-width="2" class="data-point"/>
  
    <circle cx="704.8275862068965" cy="81.9533439192976" r="4" fill="#3b82f6" stroke="#0d1117" stroke-width="2" class="data-point"/>
  
    <circle cx="708.2758620689655" cy="80.33096705897003" r="4" fill="#3b82f6" stroke="#0d1117" stroke-width="2" class="data-point"/>
  
    <circle cx="711.7241379310344" cy="78.75591568590823" r="4" fill="#3b82f6" stroke="#0d1117" stroke-width="2" class="data-point"/>
  
    <circle cx="715.1724137931034" cy="77.31248832430413" r="4" fill="#3b82f6" stroke="#0d1117" stroke-width="2" class="data-point"/>
  
    <circle cx="718.6206896551724" cy="75.9282178217822" r="4" fill="#3b82f6" stroke="#0d1117" stroke-width="2" class="data-point"/>
  
    <circle cx="722.0689655172414" cy="74.6593031944704" r="4" fill="#3b82f6" stroke="#0d1117" stroke-width="2" class="data-point"/>
  
    <circle cx="725.5172413793103" cy="73.07537829254625" r="4" fill="#3b82f6" stroke="#0d1117" stroke-width="2" class="data-point"/>
  
    <circle cx="728.9655172413793" cy="71.37461859393488" r="4" fill="#3b82f6" stroke="#0d1117" stroke-width="2" class="data-point"/>
  
    <circle cx="732.4137931034483" cy="69.80991967121241" r="4" fill="#3b82f6" stroke="#0d1117" stroke-width="2" class="data-point"/>
  
    <circle cx="735.8620689655173" cy="67.3785727629367" r="4" fill="#3b82f6" stroke="#0d1117" stroke-width="2" class="data-point"/>
  
    <circle cx="739.3103448275863" cy="65.61421944081201" r="4" fill="#3b82f6" stroke="#0d1117" stroke-width="2" class="data-point"/>
  
    <circle cx="742.7586206896552" cy="63.926770035494144" r="4" fill="#3b82f6" stroke="#0d1117" stroke-width="2" class="data-point"/>
  
    <circle cx="746.2068965517242" cy="62.44636963696371" r="4" fill="#3b82f6" stroke="#0d1117" stroke-width="2" class="data-point"/>
  
    <circle cx="749.6551724137931" cy="60.71011582290305" r="4" fill="#3b82f6" stroke="#0d1117" stroke-width="2" class="data-point"/>
  
    <circle cx="753.1034482758621" cy="58.577511052992065" r="4" fill="#3b82f6" stroke="#0d1117" stroke-width="2" class="data-point"/>
  
    <circle cx="756.551724137931" cy="56.687449405317864" r="4" fill="#3b82f6" stroke="#0d1117" stroke-width="2" class="data-point"/>
  
    <circle cx="760" cy="55" r="4" fill="#3b82f6" stroke="#0d1117" stroke-width="2" class="data-point"/>
  

  <!-- Axis lines -->
  <line x1="60" y1="55" x2="60" y2="340"
        stroke="#30363d" stroke-width="2"/>
  <line x1="60" y1="340" x2="760" y2="340"
        stroke="#30363d" stroke-width="2"/>
</svg>