<?xml version="1.0" encoding="UTF-8"?>
<svg width="800" height="400" xmlns="http://www.w3.org/2000/svg">
  <defs>
    <!-- Gradient for area fill -->
    <linearGradient id="areaGradient" x1="0%" y1="0%" x2="0%" y2="100%">
      <stop offset="0%" style="stop-color:#3b82f6;stop-opacity:0.3" />
      <stop offset="100%" style="stop-color:#3b82f6;stop-opacity:0.05" />
    </linearGradient>

    <!-- Glow filter for line -->
    <filter id="glow">
      <feGaussianBlur stdDeviation="2" result="coloredBlur"/>
      <feMerge>
        <feMergeNode in="coloredBlur"/>
        <feMergeNode in="SourceGraphic"/>
      </feMerge>
    </filter>

    <!-- Animation -->
    <style>
      @keyframes draw {
        from { stroke-dashoffset: 2000; }
        to { stroke-dashoffset: 0; }
      }
      @keyframes fadeIn {
        from { opacity: 0; }
        to { opacity: 1; }
      }
      .line-path {
        stroke-dasharray: 2000;
        stroke-dashoffset: 2000;
        animation: draw 1.5s ease-out forwards;
      }
      .area-path {
        opacity: 0;
        animation: fadeIn 1s ease-out 0.5s forwards;
      }
      .data-point {
        opacity: 0;
        animation: fadeIn 0.5s ease-out 1s forwards;
      }
    </style>
  </defs>

  <!-- Background -->
  <rect width="800" height="400" fill="#0d1117" rx="8"/>

  <!-- Title -->
  <text x="400" y="25" text-anchor="middle" fill="#c9d1d9" font-family="system-ui, -apple-system, sans-serif" font-size="16" font-weight="600">
    zxcloli666/SoundCloud-Desktop Downloads
  </text>

  <!-- Stats -->
  <text x="780" y="25" text-anchor="end" fill="#58a6ff" font-family="system-ui, -apple-system, sans-serif" font-size="14" font-weight="600">
    249.0K total
  </text>
  <text x="780" y="42" text-anchor="end" fill="#3fb950" font-family="system-ui, -apple-system, sans-serif" font-size="12">
    +1.2K (+0.5%)
  </text>

  <!-- Grid lines -->
  <g opacity="0.1">
    
      <line x1="60" y1="340" x2="760" y2="340"
            stroke="#c9d1d9" stroke-width="1"/>
    
      <line x1="60" y1="268.75" x2="760" y2="268.75"
            stroke="#c9d1d9" stroke-width="1"/>
    
      <line x1="60" y1="197.5" x2="760" y2="197.5"
            stroke="#c9d1d9" stroke-width="1"/>
    
      <line x1="60" y1="126.25" x2="760" y2="126.25"
            stroke="#c9d1d9" stroke-width="1"/>
    
      <line x1="60" y1="55" x2="760" y2="55"
            stroke="#c9d1d9" stroke-width="1"/>
    
  </g>

  <!-- Y-axis labels -->
  
    <text x="50" y="344" text-anchor="end"
          fill="#8b949e" font-family="system-ui, -apple-system, sans-serif" font-size="11">
      60.2K
    </text>
  
    <text x="50" y="272.75" text-anchor="end"
          fill="#8b949e" font-family="system-ui, -apple-system, sans-serif" font-size="11">
      107.4K
    </text>
  
    <text x="50" y="201.5" text-anchor="end"
          fill="#8b949e" font-family="system-ui, -apple-system, sans-serif" font-size="11">
      154.6K
    </text>
  
    <text x="50" y="130.25" text-anchor="end"
          fill="#8b949e" font-family="system-ui, -apple-system, sans-serif" font-size="11">
      201.8K
    </text>
  
    <text x="50" y="59" text-anchor="end"
          fill="#8b949e" font-family="system-ui, -apple-system, sans-serif" font-size="11">
      249.0K
    </text>
  

  <!-- X-axis labels -->
  
    <text x="60" y="360" text-anchor="middle"
          fill="#8b949e" font-family="system-ui, -apple-system, sans-serif" font-size="11">
      Nov 25
    </text>
  
    <text x="147.5" y="360" text-anchor="middle"
          fill="#8b949e" font-family="system-ui, -apple-system, sans-serif" font-size="11">
      Dec 20
    </text>
  
    <text x="235" y="360" text-anchor="middle"
          fill="#8b949e" font-family="system-ui, -apple-system, sans-serif" font-size="11">
      Jan 14
    </text>
  
    <text x="322.5" y="360" text-anchor="middle"
          fill="#8b949e" font-family="system-ui, -apple-system, sans-serif" font-size="11">
      Feb 8
    </text>
  
    <text x="410" y="360" text-anchor="middle"
          fill="#8b949e" font-family="system-ui, -apple-system, sans-serif" font-size="11">
      Mar 5
    </text>
  
    <text x="497.5" y="360" text-anchor="middle"
          fill="#8b949e" font-family="system-ui, -apple-system, sans-serif" font-size="11">
      Mar 30
    </text>
  
    <text x="585" y="360" text-anchor="middle"
          fill="#8b949e" font-family="system-ui, -apple-system, sans-serif" font-size="11">
      Apr 24
    </text>
  
    <text x="672.5" y="360" text-anchor="middle"
          fill="#8b949e" font-family="system-ui, -apple-system, sans-serif" font-size="11">
      May 19
    </text>
  
    <text x="760" y="360" text-anchor="middle"
          fill="#8b949e" font-family="system-ui, -apple-system, sans-serif" font-size="11">
      Jun 13
    </text>
  

  <!-- Area under line -->
  <path d="M 60 340
    L 60.00 340.00 L 63.50 339.78 L 67.00 339.40 L 70.50 339.05 L 74.00 338.36 L 77.50 337.64 L 81.00 337.07 L 84.50 336.54 L 88.00 336.07 L 91.50 335.52 L 95.00 334.91 L 98.50 334.25 L 102.00 333.65 L 105.50 333.02 L 109.00 332.55 L 112.50 332.07 L 116.00 331.42 L 119.50 330.99 L 123.00 330.38 L 126.50 329.68 L 130.00 329.16 L 133.50 328.73 L 137.00 328.45 L 140.50 328.22 L 144.00 327.79 L 147.50 327.48 L 151.00 326.81 L 154.50 326.54 L 158.00 326.20 L 161.50 325.76 L 165.00 325.46 L 168.50 325.15 L 172.00 324.83 L 175.50 324.61 L 179.00 324.42 L 182.50 324.12 L 186.00 323.76 L 189.50 323.44 L 193.00 323.02 L 196.50 322.56 L 200.00 322.15 L 203.50 321.65 L 207.00 321.15 L 210.50 320.66 L 214.00 320.12 L 217.50 319.60 L 221.00 319.01 L 224.50 318.49 L 228.00 318.04 L 231.50 317.68 L 235.00 317.19 L 238.50 316.62 L 242.00 316.10 L 245.50 315.49 L 249.00 314.74 L 252.50 314.18 L 256.00 313.72 L 259.50 313.28 L 263.00 312.75 L 266.50 312.13 L 270.00 311.45 L 273.50 310.73 L 277.00 310.04 L 280.50 309.44 L 284.00 308.84 L 287.50 308.31 L 291.00 307.77 L 294.50 307.16 L 298.00 306.41 L 301.50 305.85 L 305.00 305.35 L 308.50 304.79 L 312.00 304.28 L 315.50 303.70 L 319.00 303.11 L 322.50 302.49 L 326.00 301.94 L 329.50 301.48 L 333.00 300.97 L 336.50 300.41 L 340.00 299.90 L 343.50 299.23 L 347.00 298.66 L 350.50 298.10 L 354.00 297.64 L 357.50 297.19 L 361.00 296.75 L 364.50 296.21 L 368.00 295.66 L 371.50 294.99 L 375.00 294.45 L 378.50 294.01 L 382.00 293.55 L 385.50 293.12 L 389.00 292.58 L 392.50 292.03 L 396.00 290.81 L 399.50 288.39 L 403.00 285.50 L 406.50 282.87 L 410.00 281.54 L 413.50 279.53 L 417.00 278.19 L 420.50 277.02 L 424.00 275.87 L 427.50 274.80 L 431.00 273.12 L 434.50 271.78 L 438.00 270.08 L 441.50 269.73 L 445.00 269.68 L 448.50 269.62 L 452.00 269.58 L 455.50 269.51 L 459.00 269.45 L 462.50 269.43 L 466.00 269.35 L 469.50 269.27 L 473.00 269.21 L 476.50 269.19 L 480.00 269.11 L 483.50 266.92 L 487.00 263.49 L 490.50 261.19 L 494.00 258.53 L 497.50 255.78 L 501.00 253.63 L 504.50 251.22 L 508.00 247.55 L 511.50 242.60 L 515.00 239.37 L 518.50 235.52 L 522.00 231.24 L 525.50 227.81 L 529.00 224.08 L 532.50 220.77 L 536.00 217.50 L 539.50 214.23 L 543.00 209.78 L 546.50 205.32 L 550.00 201.60 L 553.50 198.48 L 557.00 195.45 L 560.50 191.44 L 564.00 188.33 L 567.50 185.25 L 571.00 182.37 L 574.50 179.65 L 578.00 176.87 L 581.50 174.50 L 585.00 172.03 L 588.50 169.52 L 592.00 166.86 L 595.50 164.43 L 599.00 162.20 L 602.50 158.15 L 606.00 154.77 L 609.50 151.52 L 613.00 148.39 L 616.50 143.46 L 620.00 140.34 L 623.50 137.64 L 627.00 134.45 L 630.50 129.75 L 634.00 126.37 L 637.50 123.52 L 641.00 121.10 L 644.50 118.81 L 648.00 116.94 L 651.50 114.84 L 655.00 113.13 L 658.50 111.11 L 662.00 108.21 L 665.50 105.71 L 669.00 103.54 L 672.50 101.66 L 676.00 99.72 L 679.50 98.09 L 683.00 95.35 L 686.50 93.00 L 690.00 90.67 L 693.50 88.75 L 697.00 86.99 L 700.50 85.42 L 704.00 82.74 L 707.50 80.56 L 711.00 78.57 L 714.50 76.68 L 718.00 75.02 L 721.50 73.41 L 725.00 71.94 L 728.50 70.53 L 732.00 69.23 L 735.50 67.62 L 739.00 65.88 L 742.50 64.29 L 746.00 61.80 L 749.50 60.00 L 753.00 58.28 L 756.50 56.77 L 760.00 55.00
    L 760 340
    Z" fill="url(#areaGradient)" class="area-path"/>

  <!-- Main line with glow -->
  <path d="M 60.00 340.00 L 63.50 339.78 L 67.00 339.40 L 70.50 339.05 L 74.00 338.36 L 77.50 337.64 L 81.00 337.07 L 84.50 336.54 L 88.00 336.07 L 91.50 335.52 L 95.00 334.91 L 98.50 334.25 L 102.00 333.65 L 105.50 333.02 L 109.00 332.55 L 112.50 332.07 L 116.00 331.42 L 119.50 330.99 L 123.00 330.38 L 126.50 329.68 L 130.00 329.16 L 133.50 328.73 L 137.00 328.45 L 140.50 328.22 L 144.00 327.79 L 147.50 327.48 L 151.00 326.81 L 154.50 326.54 L 158.00 326.20 L 161.50 325.76 L 165.00 325.46 L 168.50 325.15 L 172.00 324.83 L 175.50 324.61 L 179.00 324.42 L 182.50 324.12 L 186.00 323.76 L 189.50 323.44 L 193.00 323.02 L 196.50 322.56 L 200.00 322.15 L 203.50 321.65 L 207.00 321.15 L 210.50 320.66 L 214.00 320.12 L 217.50 319.60 L 221.00 319.01 L 224.50 318.49 L 228.00 318.04 L 231.50 317.68 L 235.00 317.19 L 238.50 316.62 L 242.00 316.10 L 245.50 315.49 L 249.00 314.74 L 252.50 314.18 L 256.00 313.72 L 259.50 313.28 L 263.00 312.75 L 266.50 312.13 L 270.00 311.45 L 273.50 310.73 L 277.00 310.04 L 280.50 309.44 L 284.00 308.84 L 287.50 308.31 L 291.00 307.77 L 294.50 307.16 L 298.00 306.41 L 301.50 305.85 L 305.00 305.35 L 308.50 304.79 L 312.00 304.28 L 315.50 303.70 L 319.00 303.11 L 322.50 302.49 L 326.00 301.94 L 329.50 301.48 L 333.00 300.97 L 336.50 300.41 L 340.00 299.90 L 343.50 299.23 L 347.00 298.66 L 350.50 298.10 L 354.00 297.64 L 357.50 297.19 L 361.00 296.75 L 364.50 296.21 L 368.00 295.66 L 371.50 294.99 L 375.00 294.45 L 378.50 294.01 L 382.00 293.55 L 385.50 293.12 L 389.00 292.58 L 392.50 292.03 L 396.00 290.81 L 399.50 288.39 L 403.00 285.50 L 406.50 282.87 L 410.00 281.54 L 413.50 279.53 L 417.00 278.19 L 420.50 277.02 L 424.00 275.87 L 427.50 274.80 L 431.00 273.12 L 434.50 271.78 L 438.00 270.08 L 441.50 269.73 L 445.00 269.68 L 448.50 269.62 L 452.00 269.58 L 455.50 269.51 L 459.00 269.45 L 462.50 269.43 L 466.00 269.35 L 469.50 269.27 L 473.00 269.21 L 476.50 269.19 L 480.00 269.11 L 483.50 266.92 L 487.00 263.49 L 490.50 261.19 L 494.00 258.53 L 497.50 255.78 L 501.00 253.63 L 504.50 251.22 L 508.00 247.55 L 511.50 242.60 L 515.00 239.37 L 518.50 235.52 L 522.00 231.24 L 525.50 227.81 L 529.00 224.08 L 532.50 220.77 L 536.00 217.50 L 539.50 214.23 L 543.00 209.78 L 546.50 205.32 L 550.00 201.60 L 553.50 198.48 L 557.00 195.45 L 560.50 191.44 L 564.00 188.33 L 567.50 185.25 L 571.00 182.37 L 574.50 179.65 L 578.00 176.87 L 581.50 174.50 L 585.00 172.03 L 588.50 169.52 L 592.00 166.86 L 595.50 164.43 L 599.00 162.20 L 602.50 158.15 L 606.00 154.77 L 609.50 151.52 L 613.00 148.39 L 616.50 143.46 L 620.00 140.34 L 623.50 137.64 L 627.00 134.45 L 630.50 129.75 L 634.00 126.37 L 637.50 123.52 L 641.00 121.10 L 644.50 118.81 L 648.00 116.94 L 651.50 114.84 L 655.00 113.13 L 658.50 111.11 L 662.00 108.21 L 665.50 105.71 L 669.00 103.54 L 672.50 101.66 L 676.00 99.72 L 679.50 98.09 L 683.00 95.35 L 686.50 93.00 L 690.00 90.67 L 693.50 88.75 L 697.00 86.99 L 700.50 85.42 L 704.00 82.74 L 707.50 80.56 L 711.00 78.57 L 714.50 76.68 L 718.00 75.02 L 721.50 73.41 L 725.00 71.94 L 728.50 70.53 L 732.00 69.23 L 735.50 67.62 L 739.00 65.88 L 742.50 64.29 L 746.00 61.80 L 749.50 60.00 L 753.00 58.28 L 756.50 56.77 L 760.00 55.00" fill="none" stroke="#3b82f6" stroke-width="3"
        stroke-linecap="round" stroke-linejoin="round" filter="url(#glow)" class="line-path"/>

  <!-- Data points -->
  
    <circle cx="60" cy="340" r="4" fill="#3b82f6" stroke="#0d1117" stroke-width="2" class="data-point"/>
  
    <circle cx="63.5" cy="339.77815374350666" r="4" fill="#3b82f6" stroke="#0d1117" stroke-width="2" class="data-point"/>
  
    <circle cx="67" cy="339.4008641916472" r="4" fill="#3b82f6" stroke="#0d1117" stroke-width="2" class="data-point"/>
  
    <circle cx="70.5" cy="339.05073948752164" r="4" fill="#3b82f6" stroke="#0d1117" stroke-width="2" class="data-point"/>
  
    <circle cx="74" cy="338.3550175538928" r="4" fill="#3b82f6" stroke="#0d1117" stroke-width="2" class="data-point"/>
  
    <circle cx="77.5" cy="337.63665824715247" r="4" fill="#3b82f6" stroke="#0d1117" stroke-width="2" class="data-point"/>
  
    <circle cx="81" cy="337.0707239193633" r="4" fill="#3b82f6" stroke="#0d1117" stroke-width="2" class="data-point"/>
  
    <circle cx="84.5" cy="336.54251854676005" r="4" fill="#3b82f6" stroke="#0d1117" stroke-width="2" class="data-point"/>
  
    <circle cx="88" cy="336.07317034424693" r="4" fill="#3b82f6" stroke="#0d1117" stroke-width="2" class="data-point"/>
  
    <circle cx="91.5" cy="335.5223275985322" r="4" fill="#3b82f6" stroke="#0d1117" stroke-width="2" class="data-point"/>
  
    <circle cx="95" cy="334.908100208105" r="4" fill="#3b82f6" stroke="#0d1117" stroke-width="2" class="data-point"/>
  
    <circle cx="98.5" cy="334.2501072296621" r="4" fill="#3b82f6" stroke="#0d1117" stroke-width="2" class="data-point"/>
  
    <circle cx="102" cy="333.65248057951675" r="4" fill="#3b82f6" stroke="#0d1117" stroke-width="2" class="data-point"/>
  
    <circle cx="105.5" cy="333.01712497418544" r="4" fill="#3b82f6" stroke="#0d1117" stroke-width="2" class="data-point"/>
  
    <circle cx="109" cy="332.5538134045021" r="4" fill="#3b82f6" stroke="#0d1117" stroke-width="2" class="data-point"/>
  
    <circle cx="112.5" cy="332.07390109453684" r="4" fill="#3b82f6" stroke="#0d1117" stroke-width="2" class="data-point"/>
  
    <circle cx="116" cy="331.42194474892375" r="4" fill="#3b82f6" stroke="#0d1117" stroke-width="2" class="data-point"/>
  
    <circle cx="119.5" cy="330.98579802697424" r="4" fill="#3b82f6" stroke="#0d1117" stroke-width="2" class="data-point"/>
  
    <circle cx="123" cy="330.38213474399913" r="4" fill="#3b82f6" stroke="#0d1117" stroke-width="2" class="data-point"/>
  
    <circle cx="126.5" cy="329.68490365216286" r="4" fill="#3b82f6" stroke="#0d1117" stroke-width="2" class="data-point"/>
  
    <circle cx="130" cy="329.15971659597454" r="4" fill="#3b82f6" stroke="#0d1117" stroke-width="2" class="data-point"/>
  
    <circle cx="133.5" cy="328.72809734864734" r="4" fill="#3b82f6" stroke="#0d1117" stroke-width="2" class="data-point"/>
  
    <circle cx="137" cy="328.44890308027135" r="4" fill="#3b82f6" stroke="#0d1117" stroke-width="2" class="data-point"/>
  
    <circle cx="140.5" cy="328.2164927163259" r="4" fill="#3b82f6" stroke="#0d1117" stroke-width="2" class="data-point"/>
  
    <circle cx="144" cy="327.78638262720614" r="4" fill="#3b82f6" stroke="#0d1117" stroke-width="2" class="data-point"/>
  
    <circle cx="147.5" cy="327.4800235110963" r="4" fill="#3b82f6" stroke="#0d1117" stroke-width="2" class="data-point"/>
  
    <circle cx="151" cy="326.8084481087865" r="4" fill="#3b82f6" stroke="#0d1117" stroke-width="2" class="data-point"/>
  
    <circle cx="154.5" cy="326.54434542248487" r="4" fill="#3b82f6" stroke="#0d1117" stroke-width="2" class="data-point"/>
  
    <circle cx="158" cy="326.2032756676039" r="4" fill="#3b82f6" stroke="#0d1117" stroke-width="2" class="data-point"/>
  
    <circle cx="161.5" cy="325.7626014710321" r="4" fill="#3b82f6" stroke="#0d1117" stroke-width="2" class="data-point"/>
  
    <circle cx="165" cy="325.4607698295446" r="4" fill="#3b82f6" stroke="#0d1117" stroke-width="2" class="data-point"/>
  
    <circle cx="168.5" cy="325.1544107134347" r="4" fill="#3b82f6" stroke="#0d1117" stroke-width="2" class="data-point"/>
  
    <circle cx="172" cy="324.8329600152504" r="4" fill="#3b82f6" stroke="#0d1117" stroke-width="2" class="data-point"/>
  
    <circle cx="175.5" cy="324.60960460054963" r="4" fill="#3b82f6" stroke="#0d1117" stroke-width="2" class="data-point"/>
  
    <circle cx="179" cy="324.4164323499976" r="4" fill="#3b82f6" stroke="#0d1117" stroke-width="2" class="data-point"/>
  
    <circle cx="182.5" cy="324.1221464995472" r="4" fill="#3b82f6" stroke="#0d1117" stroke-width="2" class="data-point"/>
  
    <circle cx="186" cy="323.7644760043845" r="4" fill="#3b82f6" stroke="#0d1117" stroke-width="2" class="data-point"/>
  
    <circle cx="189.5" cy="323.4354795151631" r="4" fill="#3b82f6" stroke="#0d1117" stroke-width="2" class="data-point"/>
  
    <circle cx="193" cy="323.01895184991025" r="4" fill="#3b82f6" stroke="#0d1117" stroke-width="2" class="data-point"/>
  
    <circle cx="196.5" cy="322.56469522947145" r="4" fill="#3b82f6" stroke="#0d1117" stroke-width="2" class="data-point"/>
  
    <circle cx="200" cy="322.1481675642186" r="4" fill="#3b82f6" stroke="#0d1117" stroke-width="2" class="data-point"/>
  
    <circle cx="203.5" cy="321.6456178811419" r="4" fill="#3b82f6" stroke="#0d1117" stroke-width="2" class="data-point"/>
  
    <circle cx="207" cy="321.15212314730974" r="4" fill="#3b82f6" stroke="#0d1117" stroke-width="2" class="data-point"/>
  
    <circle cx="210.5" cy="320.6586284134776" r="4" fill="#3b82f6" stroke="#0d1117" stroke-width="2" class="data-point"/>
  
    <circle cx="214" cy="320.1183497752149" r="4" fill="#3b82f6" stroke="#0d1117" stroke-width="2" class="data-point"/>
  
    <circle cx="217.5" cy="319.6022176682711" r="4" fill="#3b82f6" stroke="#0d1117" stroke-width="2" class="data-point"/>
  
    <circle cx="221" cy="319.012136809163" r="4" fill="#3b82f6" stroke="#0d1117" stroke-width="2" class="data-point"/>
  
    <circle cx="224.5" cy="318.48544059476717" r="4" fill="#3b82f6" stroke="#0d1117" stroke-width="2" class="data-point"/>
  
    <circle cx="228" cy="318.04023892357304" r="4" fill="#3b82f6" stroke="#0d1117" stroke-width="2" class="data-point"/>
  
    <circle cx="231.5" cy="317.6840775866177" r="4" fill="#3b82f6" stroke="#0d1117" stroke-width="2" class="data-point"/>
  
    <circle cx="235" cy="317.1860553781633" r="4" fill="#3b82f6" stroke="#0d1117" stroke-width="2" class="data-point"/>
  
    <circle cx="238.5" cy="316.61710273395926" r="4" fill="#3b82f6" stroke="#0d1117" stroke-width="2" class="data-point"/>
  
    <circle cx="242" cy="316.0964431523932" r="4" fill="#3b82f6" stroke="#0d1117" stroke-width="2" class="data-point"/>
  
    <circle cx="245.5" cy="315.4882523947958" r="4" fill="#3b82f6" stroke="#0d1117" stroke-width="2" class="data-point"/>
  
    <circle cx="249" cy="314.7382007656992" r="4" fill="#3b82f6" stroke="#0d1117" stroke-width="2" class="data-point"/>
  
    <circle cx="252.50000000000003" cy="314.17981222894724" r="4" fill="#3b82f6" stroke="#0d1117" stroke-width="2" class="data-point"/>
  
    <circle cx="256" cy="313.71650065926383" r="4" fill="#3b82f6" stroke="#0d1117" stroke-width="2" class="data-point"/>
  
    <circle cx="259.5" cy="313.275826462692" r="4" fill="#3b82f6" stroke="#0d1117" stroke-width="2" class="data-point"/>
  
    <circle cx="263" cy="312.7461119318814" r="4" fill="#3b82f6" stroke="#0d1117" stroke-width="2" class="data-point"/>
  
    <circle cx="266.5" cy="312.13037538324676" r="4" fill="#3b82f6" stroke="#0d1117" stroke-width="2" class="data-point"/>
  
    <circle cx="270" cy="311.44823587348486" r="4" fill="#3b82f6" stroke="#0d1117" stroke-width="2" class="data-point"/>
  
    <circle cx="273.5" cy="310.73138572495196" r="4" fill="#3b82f6" stroke="#0d1117" stroke-width="2" class="data-point"/>
  
    <circle cx="277" cy="310.0432095823603" r="4" fill="#3b82f6" stroke="#0d1117" stroke-width="2" class="data-point"/>
  
    <circle cx="280.5" cy="309.4380371411778" r="4" fill="#3b82f6" stroke="#0d1117" stroke-width="2" class="data-point"/>
  
    <circle cx="284" cy="308.83739217461755" r="4" fill="#3b82f6" stroke="#0d1117" stroke-width="2" class="data-point"/>
  
    <circle cx="287.5" cy="308.30767764380687" r="4" fill="#3b82f6" stroke="#0d1117" stroke-width="2" class="data-point"/>
  
    <circle cx="291" cy="307.7673990055442" r="4" fill="#3b82f6" stroke="#0d1117" stroke-width="2" class="data-point"/>
  
    <circle cx="294.5" cy="307.1637357225691" r="4" fill="#3b82f6" stroke="#0d1117" stroke-width="2" class="data-point"/>
  
    <circle cx="298" cy="306.41217493526506" r="4" fill="#3b82f6" stroke="#0d1117" stroke-width="2" class="data-point"/>
  
    <circle cx="301.5" cy="305.8522772403056" r="4" fill="#3b82f6" stroke="#0d1117" stroke-width="2" class="data-point"/>
  
    <circle cx="305" cy="305.3512367154363" r="4" fill="#3b82f6" stroke="#0d1117" stroke-width="2" class="data-point"/>
  
    <circle cx="308.5" cy="304.7943573368918" r="4" fill="#3b82f6" stroke="#0d1117" stroke-width="2" class="data-point"/>
  
    <circle cx="312" cy="304.27520691353317" r="4" fill="#3b82f6" stroke="#0d1117" stroke-width="2" class="data-point"/>
  
    <circle cx="315.5" cy="303.7047451111217" r="4" fill="#3b82f6" stroke="#0d1117" stroke-width="2" class="data-point"/>
  
    <circle cx="319" cy="303.11013677739123" r="4" fill="#3b82f6" stroke="#0d1117" stroke-width="2" class="data-point"/>
  
    <circle cx="322.5" cy="302.48836359592684" r="4" fill="#3b82f6" stroke="#0d1117" stroke-width="2" class="data-point"/>
  
    <circle cx="326" cy="301.94355748304184" r="4" fill="#3b82f6" stroke="#0d1117" stroke-width="2" class="data-point"/>
  
    <circle cx="329.5" cy="301.4772275969436" r="4" fill="#3b82f6" stroke="#0d1117" stroke-width="2" class="data-point"/>
  
    <circle cx="333" cy="300.9656229646221" r="4" fill="#3b82f6" stroke="#0d1117" stroke-width="2" class="data-point"/>
  
    <circle cx="336.5" cy="300.4117619024925" r="4" fill="#3b82f6" stroke="#0d1117" stroke-width="2" class="data-point"/>
  
    <circle cx="340" cy="299.89864811196367" r="4" fill="#3b82f6" stroke="#0d1117" stroke-width="2" class="data-point"/>
  
    <circle cx="343.5" cy="299.23009102606875" r="4" fill="#3b82f6" stroke="#0d1117" stroke-width="2" class="data-point"/>
  
    <circle cx="347" cy="298.65510174903494" r="4" fill="#3b82f6" stroke="#0d1117" stroke-width="2" class="data-point"/>
  
    <circle cx="350.5" cy="298.10124068690527" r="4" fill="#3b82f6" stroke="#0d1117" stroke-width="2" class="data-point"/>
  
    <circle cx="354" cy="297.64094743363677" r="4" fill="#3b82f6" stroke="#0d1117" stroke-width="2" class="data-point"/>
  
    <circle cx="357.5" cy="297.1942366042352" r="4" fill="#3b82f6" stroke="#0d1117" stroke-width="2" class="data-point"/>
  
    <circle cx="361" cy="296.74601661662615" r="4" fill="#3b82f6" stroke="#0d1117" stroke-width="2" class="data-point"/>
  
    <circle cx="364.5" cy="296.21026545298577" r="4" fill="#3b82f6" stroke="#0d1117" stroke-width="2" class="data-point"/>
  
    <circle cx="368" cy="295.65942270727095" r="4" fill="#3b82f6" stroke="#0d1117" stroke-width="2" class="data-point"/>
  
    <circle cx="371.5" cy="294.99086562137603" r="4" fill="#3b82f6" stroke="#0d1117" stroke-width="2" class="data-point"/>
  
    <circle cx="375" cy="294.4490778249059" r="4" fill="#3b82f6" stroke="#0d1117" stroke-width="2" class="data-point"/>
  
    <circle cx="378.5" cy="294.0068944701266" r="4" fill="#3b82f6" stroke="#0d1117" stroke-width="2" class="data-point"/>
  
    <circle cx="382" cy="293.55263784968787" r="4" fill="#3b82f6" stroke="#0d1117" stroke-width="2" class="data-point"/>
  
    <circle cx="385.5" cy="293.11800028594575" r="4" fill="#3b82f6" stroke="#0d1117" stroke-width="2" class="data-point"/>
  
    <circle cx="389" cy="292.5807399640979" r="4" fill="#3b82f6" stroke="#0d1117" stroke-width="2" class="data-point"/>
  
    <circle cx="392.5" cy="292.02989721838316" r="4" fill="#3b82f6" stroke="#0d1117" stroke-width="2" class="data-point"/>
  
    <circle cx="396" cy="290.8120065449809" r="4" fill="#3b82f6" stroke="#0d1117" stroke-width="2" class="data-point"/>
  
    <circle cx="399.5" cy="288.3882984638358" r="4" fill="#3b82f6" stroke="#0d1117" stroke-width="2" class="data-point"/>
  
    <circle cx="403" cy="285.50127881300733" r="4" fill="#3b82f6" stroke="#0d1117" stroke-width="2" class="data-point"/>
  
    <circle cx="406.5" cy="282.87081605744334" r="4" fill="#3b82f6" stroke="#0d1117" stroke-width="2" class="data-point"/>
  
    <circle cx="410" cy="281.53672020206835" r="4" fill="#3b82f6" stroke="#0d1117" stroke-width="2" class="data-point"/>
  
    <circle cx="413.5" cy="279.52652146976124" r="4" fill="#3b82f6" stroke="#0d1117" stroke-width="2" class="data-point"/>
  
    <circle cx="417" cy="278.1909164561788" r="4" fill="#3b82f6" stroke="#0d1117" stroke-width="2" class="data-point"/>
  
    <circle cx="420.5" cy="277.0198096872071" r="4" fill="#3b82f6" stroke="#0d1117" stroke-width="2" class="data-point"/>
  
    <circle cx="424" cy="275.87435860776185" r="4" fill="#3b82f6" stroke="#0d1117" stroke-width="2" class="data-point"/>
  
    <circle cx="427.5" cy="274.79531048944386" r="4" fill="#3b82f6" stroke="#0d1117" stroke-width="2" class="data-point"/>
  
    <circle cx="431" cy="273.117126562773" r="4" fill="#3b82f6" stroke="#0d1117" stroke-width="2" class="data-point"/>
  
    <circle cx="434.5" cy="271.78303070739804" r="4" fill="#3b82f6" stroke="#0d1117" stroke-width="2" class="data-point"/>
  
    <circle cx="438" cy="270.07768193299336" r="4" fill="#3b82f6" stroke="#0d1117" stroke-width="2" class="data-point"/>
  
    <circle cx="441.5" cy="269.72906638707525" r="4" fill="#3b82f6" stroke="#0d1117" stroke-width="2" class="data-point"/>
  
    <circle cx="445.00000000000006" cy="269.6837916408521" r="4" fill="#3b82f6" stroke="#0d1117" stroke-width="2" class="data-point"/>
  
    <circle cx="448.50000000000006" cy="269.624934470762" r="4" fill="#3b82f6" stroke="#0d1117" stroke-width="2" class="data-point"/>
  
    <circle cx="452.00000000000006" cy="269.5751322499166" r="4" fill="#3b82f6" stroke="#0d1117" stroke-width="2" class="data-point"/>
  
    <circle cx="455.49999999999994" cy="269.51023844699677" r="4" fill="#3b82f6" stroke="#0d1117" stroke-width="2" class="data-point"/>
  
    <circle cx="458.99999999999994" cy="269.4528904351141" r="4" fill="#3b82f6" stroke="#0d1117" stroke-width="2" class="data-point"/>
  
    <circle cx="462.49999999999994" cy="269.4302530620026" r="4" fill="#3b82f6" stroke="#0d1117" stroke-width="2" class="data-point"/>
  
    <circle cx="466" cy="269.3472493605935" r="4" fill="#3b82f6" stroke="#0d1117" stroke-width="2" class="data-point"/>
  
    <circle cx="469.5" cy="269.2672639755993" r="4" fill="#3b82f6" stroke="#0d1117" stroke-width="2" class="data-point"/>
  
    <circle cx="473" cy="269.214443438339" r="4" fill="#3b82f6" stroke="#0d1117" stroke-width="2" class="data-point"/>
  
    <circle cx="476.5" cy="269.19482438164226" r="4" fill="#3b82f6" stroke="#0d1117" stroke-width="2" class="data-point"/>
  
    <circle cx="480" cy="269.10578404740346" r="4" fill="#3b82f6" stroke="#0d1117" stroke-width="2" class="data-point"/>
  
    <circle cx="483.5" cy="266.9175046466187" r="4" fill="#3b82f6" stroke="#0d1117" stroke-width="2" class="data-point"/>
  
    <circle cx="487" cy="263.49020635752754" r="4" fill="#3b82f6" stroke="#0d1117" stroke-width="2" class="data-point"/>
  
    <circle cx="490.5" cy="261.1947767240147" r="4" fill="#3b82f6" stroke="#0d1117" stroke-width="2" class="data-point"/>
  
    <circle cx="494" cy="258.5296033296796" r="4" fill="#3b82f6" stroke="#0d1117" stroke-width="2" class="data-point"/>
  
    <circle cx="497.5" cy="255.78293539214286" r="4" fill="#3b82f6" stroke="#0d1117" stroke-width="2" class="data-point"/>
  
    <circle cx="501" cy="253.62785747192174" r="4" fill="#3b82f6" stroke="#0d1117" stroke-width="2" class="data-point"/>
  
    <circle cx="504.5" cy="251.2177318146436" r="4" fill="#3b82f6" stroke="#0d1117" stroke-width="2" class="data-point"/>
  
    <circle cx="508" cy="247.5459498959475" r="4" fill="#3b82f6" stroke="#0d1117" stroke-width="2" class="data-point"/>
  
    <circle cx="511.5" cy="242.59742013375907" r="4" fill="#3b82f6" stroke="#0d1117" stroke-width="2" class="data-point"/>
  
    <circle cx="515" cy="239.36782156984225" r="4" fill="#3b82f6" stroke="#0d1117" stroke-width="2" class="data-point"/>
  
    <circle cx="518.5" cy="235.52399561549825" r="4" fill="#3b82f6" stroke="#0d1117" stroke-width="2" class="data-point"/>
  
    <circle cx="522" cy="231.2410046227899" r="4" fill="#3b82f6" stroke="#0d1117" stroke-width="2" class="data-point"/>
  
    <circle cx="525.5" cy="227.80616054266153" r="4" fill="#3b82f6" stroke="#0d1117" stroke-width="2" class="data-point"/>
  
    <circle cx="529" cy="224.07853977029023" r="4" fill="#3b82f6" stroke="#0d1117" stroke-width="2" class="data-point"/>
  
    <circle cx="532.5" cy="220.77197413779407" r="4" fill="#3b82f6" stroke="#0d1117" stroke-width="2" class="data-point"/>
  
    <circle cx="536" cy="217.4955916694467" r="4" fill="#3b82f6" stroke="#0d1117" stroke-width="2" class="data-point"/>
  
    <circle cx="539.5" cy="214.22826415034393" r="4" fill="#3b82f6" stroke="#0d1117" stroke-width="2" class="data-point"/>
  
    <circle cx="543" cy="209.7792657548174" r="4" fill="#3b82f6" stroke="#0d1117" stroke-width="2" class="data-point"/>
  
    <circle cx="546.5" cy="205.31668493542392" r="4" fill="#3b82f6" stroke="#0d1117" stroke-width="2" class="data-point"/>
  
    <circle cx="550" cy="201.5966099540898" r="4" fill="#3b82f6" stroke="#0d1117" stroke-width="2" class="data-point"/>
  
    <circle cx="553.5" cy="198.4786890975234" r="4" fill="#3b82f6" stroke="#0d1117" stroke-width="2" class="data-point"/>
  
    <circle cx="557" cy="195.4543360498181" r="4" fill="#3b82f6" stroke="#0d1117" stroke-width="2" class="data-point"/>
  
    <circle cx="560.5" cy="191.43997521803365" r="4" fill="#3b82f6" stroke="#0d1117" stroke-width="2" class="data-point"/>
  
    <circle cx="564" cy="188.32658183608953" r="4" fill="#3b82f6" stroke="#0d1117" stroke-width="2" class="data-point"/>
  
    <circle cx="567.5" cy="185.24638993470904" r="4" fill="#3b82f6" stroke="#0d1117" stroke-width="2" class="data-point"/>
  
    <circle cx="571" cy="182.36540691671036" r="4" fill="#3b82f6" stroke="#0d1117" stroke-width="2" class="data-point"/>
  
    <circle cx="574.5" cy="179.65194045973723" r="4" fill="#3b82f6" stroke="#0d1117" stroke-width="2" class="data-point"/>
  
    <circle cx="578" cy="176.8720710416369" r="4" fill="#3b82f6" stroke="#0d1117" stroke-width="2" class="data-point"/>
  
    <circle cx="581.5" cy="174.49514686492242" r="4" fill="#3b82f6" stroke="#0d1117" stroke-width="2" class="data-point"/>
  
    <circle cx="585" cy="172.0337098285914" r="4" fill="#3b82f6" stroke="#0d1117" stroke-width="2" class="data-point"/>
  
    <circle cx="588.5" cy="169.52096141320752" r="4" fill="#3b82f6" stroke="#0d1117" stroke-width="2" class="data-point"/>
  
    <circle cx="592" cy="166.86484296811705" r="4" fill="#3b82f6" stroke="#0d1117" stroke-width="2" class="data-point"/>
  
    <circle cx="595.5" cy="164.42755246310506" r="4" fill="#3b82f6" stroke="#0d1117" stroke-width="2" class="data-point"/>
  
    <circle cx="599" cy="162.1955074743046" r="4" fill="#3b82f6" stroke="#0d1117" stroke-width="2" class="data-point"/>
  
    <circle cx="602.5" cy="158.15096347837138" r="4" fill="#3b82f6" stroke="#0d1117" stroke-width="2" class="data-point"/>
  
    <circle cx="606" cy="154.7659216190885" r="4" fill="#3b82f6" stroke="#0d1117" stroke-width="2" class="data-point"/>
  
    <circle cx="609.5" cy="151.5151948402675" r="4" fill="#3b82f6" stroke="#0d1117" stroke-width="2" class="data-point"/>
  
    <circle cx="613" cy="148.39274650907876" r="4" fill="#3b82f6" stroke="#0d1117" stroke-width="2" class="data-point"/>
  
    <circle cx="616.5" cy="143.4623266453796" r="4" fill="#3b82f6" stroke="#0d1117" stroke-width="2" class="data-point"/>
  
    <circle cx="620" cy="140.34289663060574" r="4" fill="#3b82f6" stroke="#0d1117" stroke-width="2" class="data-point"/>
  
    <circle cx="623.5" cy="137.64301259749956" r="4" fill="#3b82f6" stroke="#0d1117" stroke-width="2" class="data-point"/>
  
    <circle cx="627" cy="134.4541613051836" r="4" fill="#3b82f6" stroke="#0d1117" stroke-width="2" class="data-point"/>
  
    <circle cx="630.5" cy="129.7531334890149" r="4" fill="#3b82f6" stroke="#0d1117" stroke-width="2" class="data-point"/>
  
    <circle cx="634" cy="126.37110994614687" r="4" fill="#3b82f6" stroke="#0d1117" stroke-width="2" class="data-point"/>
  
    <circle cx="637.5" cy="123.51578261767463" r="4" fill="#3b82f6" stroke="#0d1117" stroke-width="2" class="data-point"/>
  
    <circle cx="641" cy="121.09962032756675" r="4" fill="#3b82f6" stroke="#0d1117" stroke-width="2" class="data-point"/>
  
    <circle cx="644.5" cy="118.8072090104688" r="4" fill="#3b82f6" stroke="#0d1117" stroke-width="2" class="data-point"/>
  
    <circle cx="648" cy="116.94339862428316" r="4" fill="#3b82f6" stroke="#0d1117" stroke-width="2" class="data-point"/>
  
    <circle cx="651.5" cy="114.84415955773721" r="4" fill="#3b82f6" stroke="#0d1117" stroke-width="2" class="data-point"/>
  
    <circle cx="655" cy="113.13277415050277" r="4" fill="#3b82f6" stroke="#0d1117" stroke-width="2" class="data-point"/>
  
    <circle cx="658.5" cy="111.11352046895107" r="4" fill="#3b82f6" stroke="#0d1117" stroke-width="2" class="data-point"/>
  
    <circle cx="662" cy="108.2068817614259" r="4" fill="#3b82f6" stroke="#0d1117" stroke-width="2" class="data-point"/>
  
    <circle cx="665.5" cy="105.70922492811641" r="4" fill="#3b82f6" stroke="#0d1117" stroke-width="2" class="data-point"/>
  
    <circle cx="669" cy="103.53754626761346" r="4" fill="#3b82f6" stroke="#0d1117" stroke-width="2" class="data-point"/>
  
    <circle cx="672.5" cy="101.66015345756088" r="4" fill="#3b82f6" stroke="#0d1117" stroke-width="2" class="data-point"/>
  
    <circle cx="676" cy="99.72390347741822" r="4" fill="#3b82f6" stroke="#0d1117" stroke-width="2" class="data-point"/>
  
    <circle cx="679.5" cy="98.09099429697056" r="4" fill="#3b82f6" stroke="#0d1117" stroke-width="2" class="data-point"/>
  
    <circle cx="683" cy="95.34583551764129" r="4" fill="#3b82f6" stroke="#0d1117" stroke-width="2" class="data-point"/>
  
    <circle cx="686.5" cy="92.99909450507553" r="4" fill="#3b82f6" stroke="#0d1117" stroke-width="2" class="data-point"/>
  
    <circle cx="690" cy="90.67197254920649" r="4" fill="#3b82f6" stroke="#0d1117" stroke-width="2" class="data-point"/>
  
    <circle cx="693.5" cy="88.7508141511382" r="4" fill="#3b82f6" stroke="#0d1117" stroke-width="2" class="data-point"/>
  
    <circle cx="697" cy="86.98811736485092" r="4" fill="#3b82f6" stroke="#0d1117" stroke-width="2" class="data-point"/>
  
    <circle cx="700.5" cy="85.42312030373796" r="4" fill="#3b82f6" stroke="#0d1117" stroke-width="2" class="data-point"/>
  
    <circle cx="704" cy="82.73983701091362" r="4" fill="#3b82f6" stroke="#0d1117" stroke-width="2" class="data-point"/>
  
    <circle cx="707.5" cy="80.56061255937345" r="4" fill="#3b82f6" stroke="#0d1117" stroke-width="2" class="data-point"/>
  
    <circle cx="711" cy="78.57456035838538" r="4" fill="#3b82f6" stroke="#0d1117" stroke-width="2" class="data-point"/>
  
    <circle cx="714.5" cy="76.67754849163606" r="4" fill="#3b82f6" stroke="#0d1117" stroke-width="2" class="data-point"/>
  
    <circle cx="718" cy="75.02200193807687" r="4" fill="#3b82f6" stroke="#0d1117" stroke-width="2" class="data-point"/>
  
    <circle cx="721.5" cy="73.41474844715566" r="4" fill="#3b82f6" stroke="#0d1117" stroke-width="2" class="data-point"/>
  
    <circle cx="725" cy="71.94181003669638" r="4" fill="#3b82f6" stroke="#0d1117" stroke-width="2" class="data-point"/>
  
    <circle cx="728.5" cy="70.52923795453461" r="4" fill="#3b82f6" stroke="#0d1117" stroke-width="2" class="data-point"/>
  
    <circle cx="732" cy="69.23438021255305" r="4" fill="#3b82f6" stroke="#0d1117" stroke-width="2" class="data-point"/>
  
    <circle cx="735.5" cy="67.61807177238717" r="4" fill="#3b82f6" stroke="#0d1117" stroke-width="2" class="data-point"/>
  
    <circle cx="739" cy="65.88253983383373" r="4" fill="#3b82f6" stroke="#0d1117" stroke-width="2" class="data-point"/>
  
    <circle cx="742.5" cy="64.28585045036459" r="4" fill="#3b82f6" stroke="#0d1117" stroke-width="2" class="data-point"/>
  
    <circle cx="746" cy="61.8047943573369" r="4" fill="#3b82f6" stroke="#0d1117" stroke-width="2" class="data-point"/>
  
    <circle cx="749.5" cy="60.004368615863655" r="4" fill="#3b82f6" stroke="#0d1117" stroke-width="2" class="data-point"/>
  
    <circle cx="753" cy="58.28241910117714" r="4" fill="#3b82f6" stroke="#0d1117" stroke-width="2" class="data-point"/>
  
    <circle cx="756.5" cy="56.77175173553195" r="4" fill="#3b82f6" stroke="#0d1117" stroke-width="2" class="data-point"/>
  
    <circle cx="760" cy="55" r="4" fill="#3b82f6" stroke="#0d1117" stroke-width="2" class="data-point"/>
  

  <!-- Axis lines -->
  <line x1="60" y1="55" x2="60" y2="340"
        stroke="#30363d" stroke-width="2"/>
  <line x1="60" y1="340" x2="760" y2="340"
        stroke="#30363d" stroke-width="2"/>
</svg>