<?xml version="1.0" encoding="UTF-8"?>
<svg width="800" height="400" xmlns="http://www.w3.org/2000/svg">
  <defs>
    <!-- Gradient for area fill -->
    <linearGradient id="areaGradient" x1="0%" y1="0%" x2="0%" y2="100%">
      <stop offset="0%" style="stop-color:#3b82f6;stop-opacity:0.3" />
      <stop offset="100%" style="stop-color:#3b82f6;stop-opacity:0.05" />
    </linearGradient>

    <!-- Glow filter for line -->
    <filter id="glow">
      <feGaussianBlur stdDeviation="2" result="coloredBlur"/>
      <feMerge>
        <feMergeNode in="coloredBlur"/>
        <feMergeNode in="SourceGraphic"/>
      </feMerge>
    </filter>

    <!-- Animation -->
    <style>
      @keyframes draw {
        from { stroke-dashoffset: 2000; }
        to { stroke-dashoffset: 0; }
      }
      @keyframes fadeIn {
        from { opacity: 0; }
        to { opacity: 1; }
      }
      .line-path {
        stroke-dasharray: 2000;
        stroke-dashoffset: 2000;
        animation: draw 1.5s ease-out forwards;
      }
      .area-path {
        opacity: 0;
        animation: fadeIn 1s ease-out 0.5s forwards;
      }
      .data-point {
        opacity: 0;
        animation: fadeIn 0.5s ease-out 1s forwards;
      }
    </style>
  </defs>

  <!-- Background -->
  <rect width="800" height="400" fill="#0d1117" rx="8"/>

  <!-- Title -->
  <text x="400" y="25" text-anchor="middle" fill="#c9d1d9" font-family="system-ui, -apple-system, sans-serif" font-size="16" font-weight="600">
    zxcloli666/SoundCloud-Desktop Downloads
  </text>

  <!-- Stats -->
  <text x="780" y="25" text-anchor="end" fill="#58a6ff" font-family="system-ui, -apple-system, sans-serif" font-size="14" font-weight="600">
    233.4K total
  </text>
  <text x="780" y="42" text-anchor="end" fill="#3fb950" font-family="system-ui, -apple-system, sans-serif" font-size="12">
    +1.3K (+0.6%)
  </text>

  <!-- Grid lines -->
  <g opacity="0.1">
    
      <line x1="60" y1="340" x2="760" y2="340"
            stroke="#c9d1d9" stroke-width="1"/>
    
      <line x1="60" y1="268.75" x2="760" y2="268.75"
            stroke="#c9d1d9" stroke-width="1"/>
    
      <line x1="60" y1="197.5" x2="760" y2="197.5"
            stroke="#c9d1d9" stroke-width="1"/>
    
      <line x1="60" y1="126.25" x2="760" y2="126.25"
            stroke="#c9d1d9" stroke-width="1"/>
    
      <line x1="60" y1="55" x2="760" y2="55"
            stroke="#c9d1d9" stroke-width="1"/>
    
  </g>

  <!-- Y-axis labels -->
  
    <text x="50" y="344" text-anchor="end"
          fill="#8b949e" font-family="system-ui, -apple-system, sans-serif" font-size="11">
      60.2K
    </text>
  
    <text x="50" y="272.75" text-anchor="end"
          fill="#8b949e" font-family="system-ui, -apple-system, sans-serif" font-size="11">
      103.5K
    </text>
  
    <text x="50" y="201.5" text-anchor="end"
          fill="#8b949e" font-family="system-ui, -apple-system, sans-serif" font-size="11">
      146.8K
    </text>
  
    <text x="50" y="130.25" text-anchor="end"
          fill="#8b949e" font-family="system-ui, -apple-system, sans-serif" font-size="11">
      190.1K
    </text>
  
    <text x="50" y="59" text-anchor="end"
          fill="#8b949e" font-family="system-ui, -apple-system, sans-serif" font-size="11">
      233.4K
    </text>
  

  <!-- X-axis labels -->
  
    <text x="60" y="360" text-anchor="middle"
          fill="#8b949e" font-family="system-ui, -apple-system, sans-serif" font-size="11">
      Nov 25
    </text>
  
    <text x="146.55913978494624" y="360" text-anchor="middle"
          fill="#8b949e" font-family="system-ui, -apple-system, sans-serif" font-size="11">
      Dec 18
    </text>
  
    <text x="233.11827956989248" y="360" text-anchor="middle"
          fill="#8b949e" font-family="system-ui, -apple-system, sans-serif" font-size="11">
      Jan 10
    </text>
  
    <text x="319.6774193548387" y="360" text-anchor="middle"
          fill="#8b949e" font-family="system-ui, -apple-system, sans-serif" font-size="11">
      Feb 2
    </text>
  
    <text x="406.23655913978496" y="360" text-anchor="middle"
          fill="#8b949e" font-family="system-ui, -apple-system, sans-serif" font-size="11">
      Feb 25
    </text>
  
    <text x="492.7956989247312" y="360" text-anchor="middle"
          fill="#8b949e" font-family="system-ui, -apple-system, sans-serif" font-size="11">
      Mar 20
    </text>
  
    <text x="579.3548387096774" y="360" text-anchor="middle"
          fill="#8b949e" font-family="system-ui, -apple-system, sans-serif" font-size="11">
      Apr 12
    </text>
  
    <text x="665.9139784946236" y="360" text-anchor="middle"
          fill="#8b949e" font-family="system-ui, -apple-system, sans-serif" font-size="11">
      May 5
    </text>
  
    <text x="752.4731182795699" y="360" text-anchor="middle"
          fill="#8b949e" font-family="system-ui, -apple-system, sans-serif" font-size="11">
      May 28
    </text>
  
    <text x="760" y="360" text-anchor="middle"
          fill="#8b949e" font-family="system-ui, -apple-system, sans-serif" font-size="11">
      May 30
    </text>
  

  <!-- Area under line -->
  <path d="M 60 340
    L 60.00 340.00 L 63.76 339.76 L 67.53 339.35 L 71.29 338.97 L 75.05 338.21 L 78.82 337.42 L 82.58 336.81 L 86.34 336.23 L 90.11 335.72 L 93.87 335.12 L 97.63 334.45 L 101.40 333.73 L 105.16 333.08 L 108.92 332.39 L 112.69 331.88 L 116.45 331.36 L 120.22 330.65 L 123.98 330.17 L 127.74 329.51 L 131.51 328.75 L 135.27 328.18 L 139.03 327.71 L 142.80 327.41 L 146.56 327.15 L 150.32 326.68 L 154.09 326.35 L 157.85 325.62 L 161.61 325.33 L 165.38 324.96 L 169.14 324.48 L 172.90 324.15 L 176.67 323.82 L 180.43 323.47 L 184.19 323.22 L 187.96 323.01 L 191.72 322.69 L 195.48 322.30 L 199.25 321.94 L 203.01 321.49 L 206.77 320.99 L 210.54 320.54 L 214.30 319.99 L 218.06 319.45 L 221.83 318.91 L 225.59 318.33 L 229.35 317.76 L 233.12 317.12 L 236.88 316.55 L 240.65 316.06 L 244.41 315.67 L 248.17 315.13 L 251.94 314.51 L 255.70 313.94 L 259.46 313.28 L 263.23 312.46 L 266.99 311.85 L 270.75 311.35 L 274.52 310.87 L 278.28 310.29 L 282.04 309.62 L 285.81 308.87 L 289.57 308.09 L 293.33 307.34 L 297.10 306.68 L 300.86 306.03 L 304.62 305.45 L 308.39 304.86 L 312.15 304.20 L 315.91 303.38 L 319.68 302.77 L 323.44 302.23 L 327.20 301.62 L 330.97 301.05 L 334.73 300.43 L 338.49 299.78 L 342.26 299.11 L 346.02 298.51 L 349.78 298.00 L 353.55 297.45 L 357.31 296.84 L 361.08 296.28 L 364.84 295.55 L 368.60 294.93 L 372.37 294.32 L 376.13 293.82 L 379.89 293.33 L 383.66 292.85 L 387.42 292.26 L 391.18 291.66 L 394.95 290.93 L 398.71 290.34 L 402.47 289.86 L 406.24 289.36 L 410.00 288.89 L 413.76 288.30 L 417.53 287.70 L 421.29 286.38 L 425.05 283.73 L 428.82 280.59 L 432.58 277.72 L 436.34 276.26 L 440.11 274.07 L 443.87 272.62 L 447.63 271.34 L 451.40 270.09 L 455.16 268.92 L 458.92 267.09 L 462.69 265.63 L 466.45 263.77 L 470.22 263.39 L 473.98 263.34 L 477.74 263.28 L 481.51 263.22 L 485.27 263.15 L 489.03 263.09 L 492.80 263.07 L 496.56 262.98 L 500.32 262.89 L 504.09 262.83 L 507.85 262.81 L 511.61 262.71 L 515.38 260.33 L 519.14 256.59 L 522.90 254.09 L 526.67 251.18 L 530.43 248.19 L 534.19 245.84 L 537.96 243.21 L 541.72 239.21 L 545.48 233.81 L 549.25 230.29 L 553.01 226.10 L 556.77 221.43 L 560.54 217.69 L 564.30 213.63 L 568.06 210.02 L 571.83 206.45 L 575.59 202.89 L 579.35 198.04 L 583.12 193.17 L 586.88 189.12 L 590.65 185.72 L 594.41 182.42 L 598.17 178.04 L 601.94 174.65 L 605.70 171.29 L 609.46 168.15 L 613.23 165.19 L 616.99 162.16 L 620.75 159.57 L 624.52 156.89 L 628.28 154.15 L 632.04 151.25 L 635.81 148.59 L 639.57 146.16 L 643.33 141.75 L 647.10 138.06 L 650.86 134.52 L 654.62 131.11 L 658.39 125.74 L 662.15 122.34 L 665.91 119.40 L 669.68 115.92 L 673.44 110.79 L 677.20 107.11 L 680.97 103.99 L 684.73 101.36 L 688.49 98.86 L 692.26 96.83 L 696.02 94.54 L 699.78 92.67 L 703.55 90.47 L 707.31 87.30 L 711.08 84.58 L 714.84 82.21 L 718.60 80.17 L 722.37 78.06 L 726.13 76.28 L 729.89 73.28 L 733.66 70.73 L 737.42 68.19 L 741.18 66.09 L 744.95 64.17 L 748.71 62.47 L 752.47 59.54 L 756.24 57.17 L 760.00 55.00
    L 760 340
    Z" fill="url(#areaGradient)" class="area-path"/>

  <!-- Main line with glow -->
  <path d="M 60.00 340.00 L 63.76 339.76 L 67.53 339.35 L 71.29 338.97 L 75.05 338.21 L 78.82 337.42 L 82.58 336.81 L 86.34 336.23 L 90.11 335.72 L 93.87 335.12 L 97.63 334.45 L 101.40 333.73 L 105.16 333.08 L 108.92 332.39 L 112.69 331.88 L 116.45 331.36 L 120.22 330.65 L 123.98 330.17 L 127.74 329.51 L 131.51 328.75 L 135.27 328.18 L 139.03 327.71 L 142.80 327.41 L 146.56 327.15 L 150.32 326.68 L 154.09 326.35 L 157.85 325.62 L 161.61 325.33 L 165.38 324.96 L 169.14 324.48 L 172.90 324.15 L 176.67 323.82 L 180.43 323.47 L 184.19 323.22 L 187.96 323.01 L 191.72 322.69 L 195.48 322.30 L 199.25 321.94 L 203.01 321.49 L 206.77 320.99 L 210.54 320.54 L 214.30 319.99 L 218.06 319.45 L 221.83 318.91 L 225.59 318.33 L 229.35 317.76 L 233.12 317.12 L 236.88 316.55 L 240.65 316.06 L 244.41 315.67 L 248.17 315.13 L 251.94 314.51 L 255.70 313.94 L 259.46 313.28 L 263.23 312.46 L 266.99 311.85 L 270.75 311.35 L 274.52 310.87 L 278.28 310.29 L 282.04 309.62 L 285.81 308.87 L 289.57 308.09 L 293.33 307.34 L 297.10 306.68 L 300.86 306.03 L 304.62 305.45 L 308.39 304.86 L 312.15 304.20 L 315.91 303.38 L 319.68 302.77 L 323.44 302.23 L 327.20 301.62 L 330.97 301.05 L 334.73 300.43 L 338.49 299.78 L 342.26 299.11 L 346.02 298.51 L 349.78 298.00 L 353.55 297.45 L 357.31 296.84 L 361.08 296.28 L 364.84 295.55 L 368.60 294.93 L 372.37 294.32 L 376.13 293.82 L 379.89 293.33 L 383.66 292.85 L 387.42 292.26 L 391.18 291.66 L 394.95 290.93 L 398.71 290.34 L 402.47 289.86 L 406.24 289.36 L 410.00 288.89 L 413.76 288.30 L 417.53 287.70 L 421.29 286.38 L 425.05 283.73 L 428.82 280.59 L 432.58 277.72 L 436.34 276.26 L 440.11 274.07 L 443.87 272.62 L 447.63 271.34 L 451.40 270.09 L 455.16 268.92 L 458.92 267.09 L 462.69 265.63 L 466.45 263.77 L 470.22 263.39 L 473.98 263.34 L 477.74 263.28 L 481.51 263.22 L 485.27 263.15 L 489.03 263.09 L 492.80 263.07 L 496.56 262.98 L 500.32 262.89 L 504.09 262.83 L 507.85 262.81 L 511.61 262.71 L 515.38 260.33 L 519.14 256.59 L 522.90 254.09 L 526.67 251.18 L 530.43 248.19 L 534.19 245.84 L 537.96 243.21 L 541.72 239.21 L 545.48 233.81 L 549.25 230.29 L 553.01 226.10 L 556.77 221.43 L 560.54 217.69 L 564.30 213.63 L 568.06 210.02 L 571.83 206.45 L 575.59 202.89 L 579.35 198.04 L 583.12 193.17 L 586.88 189.12 L 590.65 185.72 L 594.41 182.42 L 598.17 178.04 L 601.94 174.65 L 605.70 171.29 L 609.46 168.15 L 613.23 165.19 L 616.99 162.16 L 620.75 159.57 L 624.52 156.89 L 628.28 154.15 L 632.04 151.25 L 635.81 148.59 L 639.57 146.16 L 643.33 141.75 L 647.10 138.06 L 650.86 134.52 L 654.62 131.11 L 658.39 125.74 L 662.15 122.34 L 665.91 119.40 L 669.68 115.92 L 673.44 110.79 L 677.20 107.11 L 680.97 103.99 L 684.73 101.36 L 688.49 98.86 L 692.26 96.83 L 696.02 94.54 L 699.78 92.67 L 703.55 90.47 L 707.31 87.30 L 711.08 84.58 L 714.84 82.21 L 718.60 80.17 L 722.37 78.06 L 726.13 76.28 L 729.89 73.28 L 733.66 70.73 L 737.42 68.19 L 741.18 66.09 L 744.95 64.17 L 748.71 62.47 L 752.47 59.54 L 756.24 57.17 L 760.00 55.00" fill="none" stroke="#3b82f6" stroke-width="3"
        stroke-linecap="round" stroke-linejoin="round" filter="url(#glow)" class="line-path"/>

  <!-- Data points -->
  
    <circle cx="60" cy="340" r="4" fill="#3b82f6" stroke="#0d1117" stroke-width="2" class="data-point"/>
  
    <circle cx="63.763440860215056" cy="339.75814831491806" r="4" fill="#3b82f6" stroke="#0d1117" stroke-width="2" class="data-point"/>
  
    <circle cx="67.52688172043011" cy="339.346835925323" r="4" fill="#3b82f6" stroke="#0d1117" stroke-width="2" class="data-point"/>
  
    <circle cx="71.29032258064515" cy="338.9651380277787" r="4" fill="#3b82f6" stroke="#0d1117" stroke-width="2" class="data-point"/>
  
    <circle cx="75.05376344086022" cy="338.2066779813654" r="4" fill="#3b82f6" stroke="#0d1117" stroke-width="2" class="data-point"/>
  
    <circle cx="78.81720430107526" cy="337.4235391915763" r="4" fill="#3b82f6" stroke="#0d1117" stroke-width="2" class="data-point"/>
  
    <circle cx="82.58064516129032" cy="336.8065706071837" r="4" fill="#3b82f6" stroke="#0d1117" stroke-width="2" class="data-point"/>
  
    <circle cx="86.34408602150538" cy="336.2307332617506" r="4" fill="#3b82f6" stroke="#0d1117" stroke-width="2" class="data-point"/>
  
    <circle cx="90.10752688172043" cy="335.7190606490943" r="4" fill="#3b82f6" stroke="#0d1117" stroke-width="2" class="data-point"/>
  
    <circle cx="93.87096774193549" cy="335.1185445602854" r="4" fill="#3b82f6" stroke="#0d1117" stroke-width="2" class="data-point"/>
  
    <circle cx="97.63440860215053" cy="334.4489279900246" r="4" fill="#3b82f6" stroke="#0d1117" stroke-width="2" class="data-point"/>
  
    <circle cx="101.3978494623656" cy="333.73159918257073" r="4" fill="#3b82f6" stroke="#0d1117" stroke-width="2" class="data-point"/>
  
    <circle cx="105.16129032258064" cy="333.0800803574521" r="4" fill="#3b82f6" stroke="#0d1117" stroke-width="2" class="data-point"/>
  
    <circle cx="108.9247311827957" cy="332.387430293374" r="4" fill="#3b82f6" stroke="#0d1117" stroke-width="2" class="data-point"/>
  
    <circle cx="112.68817204301075" cy="331.8823386789512" r="4" fill="#3b82f6" stroke="#0d1117" stroke-width="2" class="data-point"/>
  
    <circle cx="116.45161290322581" cy="331.35914931938623" r="4" fill="#3b82f6" stroke="#0d1117" stroke-width="2" class="data-point"/>
  
    <circle cx="120.21505376344086" cy="330.6484015101659" r="4" fill="#3b82f6" stroke="#0d1117" stroke-width="2" class="data-point"/>
  
    <circle cx="123.9784946236559" cy="330.17292438779396" r="4" fill="#3b82f6" stroke="#0d1117" stroke-width="2" class="data-point"/>
  
    <circle cx="127.74193548387096" cy="329.5148245644418" r="4" fill="#3b82f6" stroke="#0d1117" stroke-width="2" class="data-point"/>
  
    <circle cx="131.50537634408602" cy="328.75471926847007" r="4" fill="#3b82f6" stroke="#0d1117" stroke-width="2" class="data-point"/>
  
    <circle cx="135.26881720430106" cy="328.1821724221537" r="4" fill="#3b82f6" stroke="#0d1117" stroke-width="2" class="data-point"/>
  
    <circle cx="139.03225806451613" cy="327.7116310484569" r="4" fill="#3b82f6" stroke="#0d1117" stroke-width="2" class="data-point"/>
  
    <circle cx="142.7956989247312" cy="327.4072598801566" r="4" fill="#3b82f6" stroke="#0d1117" stroke-width="2" class="data-point"/>
  
    <circle cx="146.55913978494624" cy="327.15389144816595" r="4" fill="#3b82f6" stroke="#0d1117" stroke-width="2" class="data-point"/>
  
    <circle cx="150.32258064516128" cy="326.68499532402757" r="4" fill="#3b82f6" stroke="#0d1117" stroke-width="2" class="data-point"/>
  
    <circle cx="154.08602150537632" cy="326.35100966367634" r="4" fill="#3b82f6" stroke="#0d1117" stroke-width="2" class="data-point"/>
  
    <circle cx="157.8494623655914" cy="325.61887361019706" r="4" fill="#3b82f6" stroke="#0d1117" stroke-width="2" class="data-point"/>
  
    <circle cx="161.61290322580646" cy="325.3309549374805" r="4" fill="#3b82f6" stroke="#0d1117" stroke-width="2" class="data-point"/>
  
    <circle cx="165.3763440860215" cy="324.9591285372866" r="4" fill="#3b82f6" stroke="#0d1117" stroke-width="2" class="data-point"/>
  
    <circle cx="169.13978494623655" cy="324.47871566623945" r="4" fill="#3b82f6" stroke="#0d1117" stroke-width="2" class="data-point"/>
  
    <circle cx="172.90322580645162" cy="324.1496657545634" r="4" fill="#3b82f6" stroke="#0d1117" stroke-width="2" class="data-point"/>
  
    <circle cx="176.66666666666666" cy="323.8156800942122" r="4" fill="#3b82f6" stroke="#0d1117" stroke-width="2" class="data-point"/>
  
    <circle cx="180.43010752688173" cy="323.4652419382772" r="4" fill="#3b82f6" stroke="#0d1117" stroke-width="2" class="data-point"/>
  
    <circle cx="184.19354838709677" cy="323.22174500363684" r="4" fill="#3b82f6" stroke="#0d1117" stroke-width="2" class="data-point"/>
  
    <circle cx="187.9569892473118" cy="323.0111530601642" r="4" fill="#3b82f6" stroke="#0d1117" stroke-width="2" class="data-point"/>
  
    <circle cx="191.72043010752688" cy="322.69032939628" r="4" fill="#3b82f6" stroke="#0d1117" stroke-width="2" class="data-point"/>
  
    <circle cx="195.48387096774192" cy="322.30040525094387" r="4" fill="#3b82f6" stroke="#0d1117" stroke-width="2" class="data-point"/>
  
    <circle cx="199.247311827957" cy="321.9417408472169" r="4" fill="#3b82f6" stroke="#0d1117" stroke-width="2" class="data-point"/>
  
    <circle cx="203.01075268817206" cy="321.4876519691039" r="4" fill="#3b82f6" stroke="#0d1117" stroke-width="2" class="data-point"/>
  
    <circle cx="206.7741935483871" cy="320.9924318520315" r="4" fill="#3b82f6" stroke="#0d1117" stroke-width="2" class="data-point"/>
  
    <circle cx="210.53763440860214" cy="320.5383429739185" r="4" fill="#3b82f6" stroke="#0d1117" stroke-width="2" class="data-point"/>
  
    <circle cx="214.30107526881721" cy="319.9904748709778" r="4" fill="#3b82f6" stroke="#0d1117" stroke-width="2" class="data-point"/>
  
    <circle cx="218.06451612903226" cy="319.4524782653874" r="4" fill="#3b82f6" stroke="#0d1117" stroke-width="2" class="data-point"/>
  
    <circle cx="221.8279569892473" cy="318.91448165979705" r="4" fill="#3b82f6" stroke="#0d1117" stroke-width="2" class="data-point"/>
  
    <circle cx="225.59139784946237" cy="318.32548231789684" r="4" fill="#3b82f6" stroke="#0d1117" stroke-width="2" class="data-point"/>
  
    <circle cx="229.35483870967744" cy="317.76280696893076" r="4" fill="#3b82f6" stroke="#0d1117" stroke-width="2" class="data-point"/>
  
    <circle cx="233.11827956989248" cy="317.119514391604" r="4" fill="#3b82f6" stroke="#0d1117" stroke-width="2" class="data-point"/>
  
    <circle cx="236.88172043010752" cy="316.5453222957293" r="4" fill="#3b82f6" stroke="#0d1117" stroke-width="2" class="data-point"/>
  
    <circle cx="240.64516129032256" cy="316.0599736760071" r="4" fill="#3b82f6" stroke="#0d1117" stroke-width="2" class="data-point"/>
  
    <circle cx="244.40860215053763" cy="315.6716947802293" r="4" fill="#3b82f6" stroke="#0d1117" stroke-width="2" class="data-point"/>
  
    <circle cx="248.17204301075267" cy="315.12876242596377" r="4" fill="#3b82f6" stroke="#0d1117" stroke-width="2" class="data-point"/>
  
    <circle cx="251.93548387096772" cy="314.5085033424544" r="4" fill="#3b82f6" stroke="#0d1117" stroke-width="2" class="data-point"/>
  
    <circle cx="255.69892473118279" cy="313.94089224481314" r="4" fill="#3b82f6" stroke="#0d1117" stroke-width="2" class="data-point"/>
  
    <circle cx="259.4623655913979" cy="313.27785667278584" r="4" fill="#3b82f6" stroke="#0d1117" stroke-width="2" class="data-point"/>
  
    <circle cx="263.2258064516129" cy="312.4601676422708" r="4" fill="#3b82f6" stroke="#0d1117" stroke-width="2" class="data-point"/>
  
    <circle cx="266.98924731182797" cy="311.85142530567003" r="4" fill="#3b82f6" stroke="#0d1117" stroke-width="2" class="data-point"/>
  
    <circle cx="270.752688172043" cy="311.34633369124725" r="4" fill="#3b82f6" stroke="#0d1117" stroke-width="2" class="data-point"/>
  
    <circle cx="274.51612903225805" cy="310.8659208202002" r="4" fill="#3b82f6" stroke="#0d1117" stroke-width="2" class="data-point"/>
  
    <circle cx="278.2795698924731" cy="310.28843822520867" r="4" fill="#3b82f6" stroke="#0d1117" stroke-width="2" class="data-point"/>
  
    <circle cx="282.04301075268813" cy="309.6171764053895" r="4" fill="#3b82f6" stroke="#0d1117" stroke-width="2" class="data-point"/>
  
    <circle cx="285.80645161290323" cy="308.87352360500154" r="4" fill="#3b82f6" stroke="#0d1117" stroke-width="2" class="data-point"/>
  
    <circle cx="289.5698924731183" cy="308.0920300647709" r="4" fill="#3b82f6" stroke="#0d1117" stroke-width="2" class="data-point"/>
  
    <circle cx="293.3333333333333" cy="307.3417962661494" r="4" fill="#3b82f6" stroke="#0d1117" stroke-width="2" class="data-point"/>
  
    <circle cx="297.0967741935484" cy="306.68205119323886" r="4" fill="#3b82f6" stroke="#0d1117" stroke-width="2" class="data-point"/>
  
    <circle cx="300.86021505376345" cy="306.0272418690035" r="4" fill="#3b82f6" stroke="#0d1117" stroke-width="2" class="data-point"/>
  
    <circle cx="304.6236559139785" cy="305.44975927401197" r="4" fill="#3b82f6" stroke="#0d1117" stroke-width="2" class="data-point"/>
  
    <circle cx="308.38709677419354" cy="304.8607599321118" r="4" fill="#3b82f6" stroke="#0d1117" stroke-width="2" class="data-point"/>
  
    <circle cx="312.1505376344086" cy="304.2026601087597" r="4" fill="#3b82f6" stroke="#0d1117" stroke-width="2" class="data-point"/>
  
    <circle cx="315.9139784946236" cy="303.3833258286862" r="4" fill="#3b82f6" stroke="#0d1117" stroke-width="2" class="data-point"/>
  
    <circle cx="319.6774193548387" cy="302.7729382425271" r="4" fill="#3b82f6" stroke="#0d1117" stroke-width="2" class="data-point"/>
  
    <circle cx="323.44086021505376" cy="302.22671538914483" r="4" fill="#3b82f6" stroke="#0d1117" stroke-width="2" class="data-point"/>
  
    <circle cx="327.2043010752688" cy="301.6196183021025" r="4" fill="#3b82f6" stroke="#0d1117" stroke-width="2" class="data-point"/>
  
    <circle cx="330.96774193548384" cy="301.0536524540196" r="4" fill="#3b82f6" stroke="#0d1117" stroke-width="2" class="data-point"/>
  
    <circle cx="334.73118279569894" cy="300.43174812095185" r="4" fill="#3b82f6" stroke="#0d1117" stroke-width="2" class="data-point"/>
  
    <circle cx="338.494623655914" cy="299.78351979494994" r="4" fill="#3b82f6" stroke="#0d1117" stroke-width="2" class="data-point"/>
  
    <circle cx="342.258064516129" cy="299.10567697689726" r="4" fill="#3b82f6" stroke="#0d1117" stroke-width="2" class="data-point"/>
  
    <circle cx="346.0215053763441" cy="298.51174188632194" r="4" fill="#3b82f6" stroke="#0d1117" stroke-width="2" class="data-point"/>
  
    <circle cx="349.78494623655916" cy="298.00335977278235" r="4" fill="#3b82f6" stroke="#0d1117" stroke-width="2" class="data-point"/>
  
    <circle cx="353.5483870967742" cy="297.44562017249143" r="4" fill="#3b82f6" stroke="#0d1117" stroke-width="2" class="data-point"/>
  
    <circle cx="357.31182795698925" cy="296.84181358456584" r="4" fill="#3b82f6" stroke="#0d1117" stroke-width="2" class="data-point"/>
  
    <circle cx="361.0752688172043" cy="296.2824287347165" r="4" fill="#3b82f6" stroke="#0d1117" stroke-width="2" class="data-point"/>
  
    <circle cx="364.83870967741933" cy="295.553583180354" r="4" fill="#3b82f6" stroke="#0d1117" stroke-width="2" class="data-point"/>
  
    <circle cx="368.60215053763443" cy="294.92674309861104" r="4" fill="#3b82f6" stroke="#0d1117" stroke-width="2" class="data-point"/>
  
    <circle cx="372.36559139784947" cy="294.32293651068545" r="4" fill="#3b82f6" stroke="#0d1117" stroke-width="2" class="data-point"/>
  
    <circle cx="376.1290322580645" cy="293.82113539537943" r="4" fill="#3b82f6" stroke="#0d1117" stroke-width="2" class="data-point"/>
  
    <circle cx="379.89247311827955" cy="293.33414152609885" r="4" fill="#3b82f6" stroke="#0d1117" stroke-width="2" class="data-point"/>
  
    <circle cx="383.6559139784946" cy="292.8455024072599" r="4" fill="#3b82f6" stroke="#0d1117" stroke-width="2" class="data-point"/>
  
    <circle cx="387.41935483870964" cy="292.2614388140348" r="4" fill="#3b82f6" stroke="#0d1117" stroke-width="2" class="data-point"/>
  
    <circle cx="391.18279569892474" cy="291.660922725226" r="4" fill="#3b82f6" stroke="#0d1117" stroke-width="2" class="data-point"/>
  
    <circle cx="394.9462365591398" cy="290.9320771708635" r="4" fill="#3b82f6" stroke="#0d1117" stroke-width="2" class="data-point"/>
  
    <circle cx="398.7096774193549" cy="290.3414325794049" r="4" fill="#3b82f6" stroke="#0d1117" stroke-width="2" class="data-point"/>
  
    <circle cx="402.4731182795699" cy="289.8593744587995" r="4" fill="#3b82f6" stroke="#0d1117" stroke-width="2" class="data-point"/>
  
    <circle cx="406.23655913978496" cy="289.364154341727" r="4" fill="#3b82f6" stroke="#0d1117" stroke-width="2" class="data-point"/>
  
    <circle cx="410" cy="288.89032246891344" r="4" fill="#3b82f6" stroke="#0d1117" stroke-width="2" class="data-point"/>
  
    <circle cx="413.76344086021504" cy="288.30461362613005" r="4" fill="#3b82f6" stroke="#0d1117" stroke-width="2" class="data-point"/>
  
    <circle cx="417.5268817204301" cy="287.7040975373212" r="4" fill="#3b82f6" stroke="#0d1117" stroke-width="2" class="data-point"/>
  
    <circle cx="421.2903225806451" cy="286.3763811437082" r="4" fill="#3b82f6" stroke="#0d1117" stroke-width="2" class="data-point"/>
  
    <circle cx="425.0537634408602" cy="283.7341103529493" r="4" fill="#3b82f6" stroke="#0d1117" stroke-width="2" class="data-point"/>
  
    <circle cx="428.81720430107526" cy="280.58674794776766" r="4" fill="#3b82f6" stroke="#0d1117" stroke-width="2" class="data-point"/>
  
    <circle cx="432.5806451612903" cy="277.71907796751066" r="4" fill="#3b82f6" stroke="#0d1117" stroke-width="2" class="data-point"/>
  
    <circle cx="436.34408602150535" cy="276.26467735790237" r="4" fill="#3b82f6" stroke="#0d1117" stroke-width="2" class="data-point"/>
  
    <circle cx="440.1075268817204" cy="274.07320494613975" r="4" fill="#3b82f6" stroke="#0d1117" stroke-width="2" class="data-point"/>
  
    <circle cx="443.87096774193543" cy="272.61715908697306" r="4" fill="#3b82f6" stroke="#0d1117" stroke-width="2" class="data-point"/>
  
    <circle cx="447.63440860215053" cy="271.3404454296699" r="4" fill="#3b82f6" stroke="#0d1117" stroke-width="2" class="data-point"/>
  
    <circle cx="451.39784946236557" cy="270.0917010148592" r="4" fill="#3b82f6" stroke="#0d1117" stroke-width="2" class="data-point"/>
  
    <circle cx="455.16129032258067" cy="268.9153475806172" r="4" fill="#3b82f6" stroke="#0d1117" stroke-width="2" class="data-point"/>
  
    <circle cx="458.9247311827957" cy="267.08583007169824" r="4" fill="#3b82f6" stroke="#0d1117" stroke-width="2" class="data-point"/>
  
    <circle cx="462.6881720430108" cy="265.63142946208995" r="4" fill="#3b82f6" stroke="#0d1117" stroke-width="2" class="data-point"/>
  
    <circle cx="466.45161290322585" cy="263.77229746112016" r="4" fill="#3b82f6" stroke="#0d1117" stroke-width="2" class="data-point"/>
  
    <circle cx="470.2150537634409" cy="263.3922448131343" r="4" fill="#3b82f6" stroke="#0d1117" stroke-width="2" class="data-point"/>
  
    <circle cx="473.97849462365593" cy="263.3428873263829" r="4" fill="#3b82f6" stroke="#0d1117" stroke-width="2" class="data-point"/>
  
    <circle cx="477.741935483871" cy="263.27872259360606" r="4" fill="#3b82f6" stroke="#0d1117" stroke-width="2" class="data-point"/>
  
    <circle cx="481.505376344086" cy="263.22442935817946" r="4" fill="#3b82f6" stroke="#0d1117" stroke-width="2" class="data-point"/>
  
    <circle cx="485.26881720430106" cy="263.15368362716913" r="4" fill="#3b82f6" stroke="#0d1117" stroke-width="2" class="data-point"/>
  
    <circle cx="489.03225806451616" cy="263.09116414395066" r="4" fill="#3b82f6" stroke="#0d1117" stroke-width="2" class="data-point"/>
  
    <circle cx="492.7956989247312" cy="263.06648540057495" r="4" fill="#3b82f6" stroke="#0d1117" stroke-width="2" class="data-point"/>
  
    <circle cx="496.55913978494624" cy="262.97599667486406" r="4" fill="#3b82f6" stroke="#0d1117" stroke-width="2" class="data-point"/>
  
    <circle cx="500.3225806451613" cy="262.8887984482699" r="4" fill="#3b82f6" stroke="#0d1117" stroke-width="2" class="data-point"/>
  
    <circle cx="504.0860215053763" cy="262.8312147137266" r="4" fill="#3b82f6" stroke="#0d1117" stroke-width="2" class="data-point"/>
  
    <circle cx="507.84946236559136" cy="262.8098264694676" r="4" fill="#3b82f6" stroke="#0d1117" stroke-width="2" class="data-point"/>
  
    <circle cx="511.61290322580646" cy="262.71275674552317" r="4" fill="#3b82f6" stroke="#0d1117" stroke-width="2" class="data-point"/>
  
    <circle cx="515.3763440860215" cy="260.32714488587163" r="4" fill="#3b82f6" stroke="#0d1117" stroke-width="2" class="data-point"/>
  
    <circle cx="519.1397849462365" cy="256.5907831387898" r="4" fill="#3b82f6" stroke="#0d1117" stroke-width="2" class="data-point"/>
  
    <circle cx="522.9032258064516" cy="254.08835856049325" r="4" fill="#3b82f6" stroke="#0d1117" stroke-width="2" class="data-point"/>
  
    <circle cx="526.6666666666666" cy="251.1828478403935" r="4" fill="#3b82f6" stroke="#0d1117" stroke-width="2" class="data-point"/>
  
    <circle cx="530.4301075268817" cy="248.18849364414118" r="4" fill="#3b82f6" stroke="#0d1117" stroke-width="2" class="data-point"/>
  
    <circle cx="534.1935483870968" cy="245.839077274774" r="4" fill="#3b82f6" stroke="#0d1117" stroke-width="2" class="data-point"/>
  
    <circle cx="537.9569892473119" cy="243.2116137300405" r="4" fill="#3b82f6" stroke="#0d1117" stroke-width="2" class="data-point"/>
  
    <circle cx="541.7204301075269" cy="239.20872155450104" r="4" fill="#3b82f6" stroke="#0d1117" stroke-width="2" class="data-point"/>
  
    <circle cx="545.483870967742" cy="233.81394825257178" r="4" fill="#3b82f6" stroke="#0d1117" stroke-width="2" class="data-point"/>
  
    <circle cx="549.247311827957" cy="230.29311419763778" r="4" fill="#3b82f6" stroke="#0d1117" stroke-width="2" class="data-point"/>
  
    <circle cx="553.010752688172" cy="226.10266357244294" r="4" fill="#3b82f6" stroke="#0d1117" stroke-width="2" class="data-point"/>
  
    <circle cx="556.7741935483871" cy="221.4334453257594" r="4" fill="#3b82f6" stroke="#0d1117" stroke-width="2" class="data-point"/>
  
    <circle cx="560.5376344086021" cy="217.68885733088567" r="4" fill="#3b82f6" stroke="#0d1117" stroke-width="2" class="data-point"/>
  
    <circle cx="564.3010752688172" cy="213.6250909216861" r="4" fill="#3b82f6" stroke="#0d1117" stroke-width="2" class="data-point"/>
  
    <circle cx="568.0645161290322" cy="210.0203491392747" r="4" fill="#3b82f6" stroke="#0d1117" stroke-width="2" class="data-point"/>
  
    <circle cx="571.8279569892472" cy="206.4485123480309" r="4" fill="#3b82f6" stroke="#0d1117" stroke-width="2" class="data-point"/>
  
    <circle cx="575.5913978494624" cy="202.88654705413737" r="4" fill="#3b82f6" stroke="#0d1117" stroke-width="2" class="data-point"/>
  
    <circle cx="579.3548387096774" cy="198.036351356032" r="4" fill="#3b82f6" stroke="#0d1117" stroke-width="2" class="data-point"/>
  
    <circle cx="583.1182795698925" cy="193.17134841190122" r="4" fill="#3b82f6" stroke="#0d1117" stroke-width="2" class="data-point"/>
  
    <circle cx="586.8817204301075" cy="189.1158082504936" r="4" fill="#3b82f6" stroke="#0d1117" stroke-width="2" class="data-point"/>
  
    <circle cx="590.6451612903226" cy="185.71672266287973" r="4" fill="#3b82f6" stroke="#0d1117" stroke-width="2" class="data-point"/>
  
    <circle cx="594.4086021505376" cy="182.41964254788542" r="4" fill="#3b82f6" stroke="#0d1117" stroke-width="2" class="data-point"/>
  
    <circle cx="598.1720430107526" cy="178.0432787225936" r="4" fill="#3b82f6" stroke="#0d1117" stroke-width="2" class="data-point"/>
  
    <circle cx="601.9354838709677" cy="174.6491288836549" r="4" fill="#3b82f6" stroke="#0d1117" stroke-width="2" class="data-point"/>
  
    <circle cx="605.6989247311827" cy="171.29117453500052" r="4" fill="#3b82f6" stroke="#0d1117" stroke-width="2" class="data-point"/>
  
    <circle cx="609.4623655913979" cy="168.15039312805237" r="4" fill="#3b82f6" stroke="#0d1117" stroke-width="2" class="data-point"/>
  
    <circle cx="613.2258064516129" cy="165.19223442208443" r="4" fill="#3b82f6" stroke="#0d1117" stroke-width="2" class="data-point"/>
  
    <circle cx="616.989247311828" cy="162.1616847355478" r="4" fill="#3b82f6" stroke="#0d1117" stroke-width="2" class="data-point"/>
  
    <circle cx="620.752688172043" cy="159.57041668109866" r="4" fill="#3b82f6" stroke="#0d1117" stroke-width="2" class="data-point"/>
  
    <circle cx="624.516129032258" cy="156.88701465138027" r="4" fill="#3b82f6" stroke="#0d1117" stroke-width="2" class="data-point"/>
  
    <circle cx="628.2795698924731" cy="154.14767413667695" r="4" fill="#3b82f6" stroke="#0d1117" stroke-width="2" class="data-point"/>
  
    <circle cx="632.0430107526882" cy="151.25203491392747" r="4" fill="#3b82f6" stroke="#0d1117" stroke-width="2" class="data-point"/>
  
    <circle cx="635.8064516129033" cy="148.59495687714318" r="4" fill="#3b82f6" stroke="#0d1117" stroke-width="2" class="data-point"/>
  
    <circle cx="639.5698924731183" cy="146.16163278029856" r="4" fill="#3b82f6" stroke="#0d1117" stroke-width="2" class="data-point"/>
  
    <circle cx="643.3333333333334" cy="141.75236396383914" r="4" fill="#3b82f6" stroke="#0d1117" stroke-width="2" class="data-point"/>
  
    <circle cx="647.0967741935484" cy="138.06206920439195" r="4" fill="#3b82f6" stroke="#0d1117" stroke-width="2" class="data-point"/>
  
    <circle cx="650.8602150537635" cy="134.5182016556406" r="4" fill="#3b82f6" stroke="#0d1117" stroke-width="2" class="data-point"/>
  
    <circle cx="654.6236559139785" cy="131.1141803193516" r="4" fill="#3b82f6" stroke="#0d1117" stroke-width="2" class="data-point"/>
  
    <circle cx="658.3870967741935" cy="125.73915001212288" r="4" fill="#3b82f6" stroke="#0d1117" stroke-width="2" class="data-point"/>
  
    <circle cx="662.1505376344086" cy="122.33841917495062" r="4" fill="#3b82f6" stroke="#0d1117" stroke-width="2" class="data-point"/>
  
    <circle cx="665.9139784946236" cy="119.39506771500814" r="4" fill="#3b82f6" stroke="#0d1117" stroke-width="2" class="data-point"/>
  
    <circle cx="669.6774193548387" cy="115.91865539815038" r="4" fill="#3b82f6" stroke="#0d1117" stroke-width="2" class="data-point"/>
  
    <circle cx="673.4408602150538" cy="110.7937030237955" r="4" fill="#3b82f6" stroke="#0d1117" stroke-width="2" class="data-point"/>
  
    <circle cx="677.2043010752689" cy="107.10669876346506" r="4" fill="#3b82f6" stroke="#0d1117" stroke-width="2" class="data-point"/>
  
    <circle cx="680.9677419354839" cy="103.99388659900939" r="4" fill="#3b82f6" stroke="#0d1117" stroke-width="2" class="data-point"/>
  
    <circle cx="684.7311827956989" cy="101.3598420560424" r="4" fill="#3b82f6" stroke="#0d1117" stroke-width="2" class="data-point"/>
  
    <circle cx="688.494623655914" cy="98.86070797686261" r="4" fill="#3b82f6" stroke="#0d1117" stroke-width="2" class="data-point"/>
  
    <circle cx="692.258064516129" cy="96.82882477226283" r="4" fill="#3b82f6" stroke="#0d1117" stroke-width="2" class="data-point"/>
  
    <circle cx="696.0215053763441" cy="94.5402826365557" r="4" fill="#3b82f6" stroke="#0d1117" stroke-width="2" class="data-point"/>
  
    <circle cx="699.7849462365591" cy="92.67456963735236" r="4" fill="#3b82f6" stroke="#0d1117" stroke-width="2" class="data-point"/>
  
    <circle cx="703.5483870967741" cy="90.47322572823941" r="4" fill="#3b82f6" stroke="#0d1117" stroke-width="2" class="data-point"/>
  
    <circle cx="707.3118279569892" cy="87.30447507879879" r="4" fill="#3b82f6" stroke="#0d1117" stroke-width="2" class="data-point"/>
  
    <circle cx="711.0752688172042" cy="84.58158705967926" r="4" fill="#3b82f6" stroke="#0d1117" stroke-width="2" class="data-point"/>
  
    <circle cx="714.8387096774193" cy="82.2140729451699" r="4" fill="#3b82f6" stroke="#0d1117" stroke-width="2" class="data-point"/>
  
    <circle cx="718.6021505376344" cy="80.16738249454471" r="4" fill="#3b82f6" stroke="#0d1117" stroke-width="2" class="data-point"/>
  
    <circle cx="722.3655913978495" cy="78.05652731114264" r="4" fill="#3b82f6" stroke="#0d1117" stroke-width="2" class="data-point"/>
  
    <circle cx="726.1290322580645" cy="76.27636728897511" r="4" fill="#3b82f6" stroke="#0d1117" stroke-width="2" class="data-point"/>
  
    <circle cx="729.8924731182796" cy="73.28365834228117" r="4" fill="#3b82f6" stroke="#0d1117" stroke-width="2" class="data-point"/>
  
    <circle cx="733.6559139784946" cy="70.72529527899968" r="4" fill="#3b82f6" stroke="#0d1117" stroke-width="2" class="data-point"/>
  
    <circle cx="737.4193548387098" cy="68.18832045997715" r="4" fill="#3b82f6" stroke="#0d1117" stroke-width="2" class="data-point"/>
  
    <circle cx="741.1827956989248" cy="66.09391777215893" r="4" fill="#3b82f6" stroke="#0d1117" stroke-width="2" class="data-point"/>
  
    <circle cx="744.9462365591398" cy="64.17226628797061" r="4" fill="#3b82f6" stroke="#0d1117" stroke-width="2" class="data-point"/>
  
    <circle cx="748.7096774193549" cy="62.46614249593017" r="4" fill="#3b82f6" stroke="#0d1117" stroke-width="2" class="data-point"/>
  
    <circle cx="752.4731182795699" cy="59.540888781129865" r="4" fill="#3b82f6" stroke="#0d1117" stroke-width="2" class="data-point"/>
  
    <circle cx="756.236559139785" cy="57.16514841882861" r="4" fill="#3b82f6" stroke="#0d1117" stroke-width="2" class="data-point"/>
  
    <circle cx="760" cy="55" r="4" fill="#3b82f6" stroke="#0d1117" stroke-width="2" class="data-point"/>
  

  <!-- Axis lines -->
  <line x1="60" y1="55" x2="60" y2="340"
        stroke="#30363d" stroke-width="2"/>
  <line x1="60" y1="340" x2="760" y2="340"
        stroke="#30363d" stroke-width="2"/>
</svg>