<?xml version="1.0" encoding="UTF-8"?>
<svg width="800" height="400" xmlns="http://www.w3.org/2000/svg">
  <defs>
    <!-- Gradient for area fill -->
    <linearGradient id="areaGradient" x1="0%" y1="0%" x2="0%" y2="100%">
      <stop offset="0%" style="stop-color:#3b82f6;stop-opacity:0.3" />
      <stop offset="100%" style="stop-color:#3b82f6;stop-opacity:0.05" />
    </linearGradient>

    <!-- Glow filter for line -->
    <filter id="glow">
      <feGaussianBlur stdDeviation="2" result="coloredBlur"/>
      <feMerge>
        <feMergeNode in="coloredBlur"/>
        <feMergeNode in="SourceGraphic"/>
      </feMerge>
    </filter>

    <!-- Animation -->
    <style>
      @keyframes draw {
        from { stroke-dashoffset: 2000; }
        to { stroke-dashoffset: 0; }
      }
      @keyframes fadeIn {
        from { opacity: 0; }
        to { opacity: 1; }
      }
      .line-path {
        stroke-dasharray: 2000;
        stroke-dashoffset: 2000;
        animation: draw 1.5s ease-out forwards;
      }
      .area-path {
        opacity: 0;
        animation: fadeIn 1s ease-out 0.5s forwards;
      }
      .data-point {
        opacity: 0;
        animation: fadeIn 0.5s ease-out 1s forwards;
      }
    </style>
  </defs>

  <!-- Background -->
  <rect width="800" height="400" fill="#0d1117" rx="8"/>

  <!-- Title -->
  <text x="400" y="25" text-anchor="middle" fill="#c9d1d9" font-family="system-ui, -apple-system, sans-serif" font-size="16" font-weight="600">
    zxcloli666/SoundCloud-Desktop Downloads
  </text>

  <!-- Stats -->
  <text x="780" y="25" text-anchor="end" fill="#58a6ff" font-family="system-ui, -apple-system, sans-serif" font-size="14" font-weight="600">
    244.5K total
  </text>
  <text x="780" y="42" text-anchor="end" fill="#3fb950" font-family="system-ui, -apple-system, sans-serif" font-size="12">
    +1.6K (+0.7%)
  </text>

  <!-- Grid lines -->
  <g opacity="0.1">
    
      <line x1="60" y1="340" x2="760" y2="340"
            stroke="#c9d1d9" stroke-width="1"/>
    
      <line x1="60" y1="268.75" x2="760" y2="268.75"
            stroke="#c9d1d9" stroke-width="1"/>
    
      <line x1="60" y1="197.5" x2="760" y2="197.5"
            stroke="#c9d1d9" stroke-width="1"/>
    
      <line x1="60" y1="126.25" x2="760" y2="126.25"
            stroke="#c9d1d9" stroke-width="1"/>
    
      <line x1="60" y1="55" x2="760" y2="55"
            stroke="#c9d1d9" stroke-width="1"/>
    
  </g>

  <!-- Y-axis labels -->
  
    <text x="50" y="344" text-anchor="end"
          fill="#8b949e" font-family="system-ui, -apple-system, sans-serif" font-size="11">
      60.2K
    </text>
  
    <text x="50" y="272.75" text-anchor="end"
          fill="#8b949e" font-family="system-ui, -apple-system, sans-serif" font-size="11">
      106.2K
    </text>
  
    <text x="50" y="201.5" text-anchor="end"
          fill="#8b949e" font-family="system-ui, -apple-system, sans-serif" font-size="11">
      152.3K
    </text>
  
    <text x="50" y="130.25" text-anchor="end"
          fill="#8b949e" font-family="system-ui, -apple-system, sans-serif" font-size="11">
      198.4K
    </text>
  
    <text x="50" y="59" text-anchor="end"
          fill="#8b949e" font-family="system-ui, -apple-system, sans-serif" font-size="11">
      244.5K
    </text>
  

  <!-- X-axis labels -->
  
    <text x="60" y="360" text-anchor="middle"
          fill="#8b949e" font-family="system-ui, -apple-system, sans-serif" font-size="11">
      Nov 25
    </text>
  
    <text x="145.71428571428572" y="360" text-anchor="middle"
          fill="#8b949e" font-family="system-ui, -apple-system, sans-serif" font-size="11">
      Dec 19
    </text>
  
    <text x="231.42857142857142" y="360" text-anchor="middle"
          fill="#8b949e" font-family="system-ui, -apple-system, sans-serif" font-size="11">
      Jan 12
    </text>
  
    <text x="317.14285714285717" y="360" text-anchor="middle"
          fill="#8b949e" font-family="system-ui, -apple-system, sans-serif" font-size="11">
      Feb 5
    </text>
  
    <text x="402.85714285714283" y="360" text-anchor="middle"
          fill="#8b949e" font-family="system-ui, -apple-system, sans-serif" font-size="11">
      Mar 1
    </text>
  
    <text x="488.57142857142856" y="360" text-anchor="middle"
          fill="#8b949e" font-family="system-ui, -apple-system, sans-serif" font-size="11">
      Mar 25
    </text>
  
    <text x="574.2857142857143" y="360" text-anchor="middle"
          fill="#8b949e" font-family="system-ui, -apple-system, sans-serif" font-size="11">
      Apr 18
    </text>
  
    <text x="660" y="360" text-anchor="middle"
          fill="#8b949e" font-family="system-ui, -apple-system, sans-serif" font-size="11">
      May 12
    </text>
  
    <text x="745.7142857142857" y="360" text-anchor="middle"
          fill="#8b949e" font-family="system-ui, -apple-system, sans-serif" font-size="11">
      Jun 5
    </text>
  
    <text x="760" y="360" text-anchor="middle"
          fill="#8b949e" font-family="system-ui, -apple-system, sans-serif" font-size="11">
      Jun 9
    </text>
  

  <!-- Area under line -->
  <path d="M 60 340
    L 60.00 340.00 L 63.57 339.77 L 67.14 339.39 L 70.71 339.03 L 74.29 338.31 L 77.86 337.58 L 81.43 337.00 L 85.00 336.46 L 88.57 335.98 L 92.14 335.41 L 95.71 334.78 L 99.29 334.11 L 102.86 333.50 L 106.43 332.85 L 110.00 332.37 L 113.57 331.88 L 117.14 331.21 L 120.71 330.77 L 124.29 330.15 L 127.86 329.43 L 131.43 328.89 L 135.00 328.45 L 138.57 328.17 L 142.14 327.93 L 145.71 327.49 L 149.29 327.17 L 152.86 326.49 L 156.43 326.22 L 160.00 325.87 L 163.57 325.41 L 167.14 325.11 L 170.71 324.79 L 174.29 324.46 L 177.86 324.23 L 181.43 324.04 L 185.00 323.73 L 188.57 323.37 L 192.14 323.03 L 195.71 322.60 L 199.29 322.14 L 202.86 321.71 L 206.43 321.20 L 210.00 320.69 L 213.57 320.19 L 217.14 319.63 L 220.71 319.10 L 224.29 318.50 L 227.86 317.96 L 231.43 317.50 L 235.00 317.14 L 238.57 316.63 L 242.14 316.05 L 245.71 315.51 L 249.29 314.89 L 252.86 314.12 L 256.43 313.55 L 260.00 313.07 L 263.57 312.62 L 267.14 312.08 L 270.71 311.45 L 274.29 310.75 L 277.86 310.02 L 281.43 309.31 L 285.00 308.69 L 288.57 308.08 L 292.14 307.53 L 295.71 306.98 L 299.29 306.36 L 302.86 305.59 L 306.43 305.02 L 310.00 304.50 L 313.57 303.93 L 317.14 303.40 L 320.71 302.82 L 324.29 302.21 L 327.86 301.57 L 331.43 301.01 L 335.00 300.53 L 338.57 300.01 L 342.14 299.44 L 345.71 298.92 L 349.29 298.23 L 352.86 297.64 L 356.43 297.08 L 360.00 296.60 L 363.57 296.15 L 367.14 295.69 L 370.71 295.14 L 374.29 294.57 L 377.86 293.89 L 381.43 293.33 L 385.00 292.88 L 388.57 292.42 L 392.14 291.97 L 395.71 291.42 L 399.29 290.86 L 402.86 289.61 L 406.43 287.13 L 410.00 284.17 L 413.57 281.47 L 417.14 280.11 L 420.71 278.05 L 424.29 276.68 L 427.86 275.48 L 431.43 274.31 L 435.00 273.20 L 438.57 271.48 L 442.14 270.11 L 445.71 268.37 L 449.29 268.01 L 452.86 267.96 L 456.43 267.90 L 460.00 267.85 L 463.57 267.79 L 467.14 267.73 L 470.71 267.70 L 474.29 267.62 L 477.86 267.54 L 481.43 267.48 L 485.00 267.46 L 488.57 267.37 L 492.14 265.13 L 495.71 261.62 L 499.29 259.27 L 502.86 256.54 L 506.43 253.72 L 510.00 251.52 L 513.57 249.05 L 517.14 245.28 L 520.71 240.21 L 524.29 236.91 L 527.86 232.97 L 531.43 228.58 L 535.00 225.06 L 538.57 221.24 L 542.14 217.86 L 545.71 214.50 L 549.29 211.15 L 552.86 206.59 L 556.43 202.02 L 560.00 198.21 L 563.57 195.02 L 567.14 191.92 L 570.71 187.81 L 574.29 184.62 L 577.86 181.46 L 581.43 178.51 L 585.00 175.73 L 588.57 172.88 L 592.14 170.45 L 595.71 167.93 L 599.29 165.35 L 602.86 162.63 L 606.43 160.13 L 610.00 157.85 L 613.57 153.70 L 617.14 150.24 L 620.71 146.90 L 624.29 143.71 L 627.86 138.65 L 631.43 135.46 L 635.00 132.69 L 638.57 129.43 L 642.14 124.61 L 645.71 121.15 L 649.29 118.22 L 652.86 115.75 L 656.43 113.40 L 660.00 111.49 L 663.57 109.34 L 667.14 107.58 L 670.71 105.51 L 674.29 102.54 L 677.86 99.98 L 681.43 97.75 L 685.00 95.83 L 688.57 93.85 L 692.14 92.17 L 695.71 89.36 L 699.29 86.96 L 702.86 84.57 L 706.43 82.61 L 710.00 80.80 L 713.57 79.20 L 717.14 76.45 L 720.71 74.21 L 724.29 72.18 L 727.86 70.24 L 731.43 68.54 L 735.00 66.89 L 738.57 65.38 L 742.14 63.94 L 745.71 62.61 L 749.29 60.96 L 752.86 59.18 L 756.43 57.54 L 760.00 55.00
    L 760 340
    Z" fill="url(#areaGradient)" class="area-path"/>

  <!-- Main line with glow -->
  <path d="M 60.00 340.00 L 63.57 339.77 L 67.14 339.39 L 70.71 339.03 L 74.29 338.31 L 77.86 337.58 L 81.43 337.00 L 85.00 336.46 L 88.57 335.98 L 92.14 335.41 L 95.71 334.78 L 99.29 334.11 L 102.86 333.50 L 106.43 332.85 L 110.00 332.37 L 113.57 331.88 L 117.14 331.21 L 120.71 330.77 L 124.29 330.15 L 127.86 329.43 L 131.43 328.89 L 135.00 328.45 L 138.57 328.17 L 142.14 327.93 L 145.71 327.49 L 149.29 327.17 L 152.86 326.49 L 156.43 326.22 L 160.00 325.87 L 163.57 325.41 L 167.14 325.11 L 170.71 324.79 L 174.29 324.46 L 177.86 324.23 L 181.43 324.04 L 185.00 323.73 L 188.57 323.37 L 192.14 323.03 L 195.71 322.60 L 199.29 322.14 L 202.86 321.71 L 206.43 321.20 L 210.00 320.69 L 213.57 320.19 L 217.14 319.63 L 220.71 319.10 L 224.29 318.50 L 227.86 317.96 L 231.43 317.50 L 235.00 317.14 L 238.57 316.63 L 242.14 316.05 L 245.71 315.51 L 249.29 314.89 L 252.86 314.12 L 256.43 313.55 L 260.00 313.07 L 263.57 312.62 L 267.14 312.08 L 270.71 311.45 L 274.29 310.75 L 277.86 310.02 L 281.43 309.31 L 285.00 308.69 L 288.57 308.08 L 292.14 307.53 L 295.71 306.98 L 299.29 306.36 L 302.86 305.59 L 306.43 305.02 L 310.00 304.50 L 313.57 303.93 L 317.14 303.40 L 320.71 302.82 L 324.29 302.21 L 327.86 301.57 L 331.43 301.01 L 335.00 300.53 L 338.57 300.01 L 342.14 299.44 L 345.71 298.92 L 349.29 298.23 L 352.86 297.64 L 356.43 297.08 L 360.00 296.60 L 363.57 296.15 L 367.14 295.69 L 370.71 295.14 L 374.29 294.57 L 377.86 293.89 L 381.43 293.33 L 385.00 292.88 L 388.57 292.42 L 392.14 291.97 L 395.71 291.42 L 399.29 290.86 L 402.86 289.61 L 406.43 287.13 L 410.00 284.17 L 413.57 281.47 L 417.14 280.11 L 420.71 278.05 L 424.29 276.68 L 427.86 275.48 L 431.43 274.31 L 435.00 273.20 L 438.57 271.48 L 442.14 270.11 L 445.71 268.37 L 449.29 268.01 L 452.86 267.96 L 456.43 267.90 L 460.00 267.85 L 463.57 267.79 L 467.14 267.73 L 470.71 267.70 L 474.29 267.62 L 477.86 267.54 L 481.43 267.48 L 485.00 267.46 L 488.57 267.37 L 492.14 265.13 L 495.71 261.62 L 499.29 259.27 L 502.86 256.54 L 506.43 253.72 L 510.00 251.52 L 513.57 249.05 L 517.14 245.28 L 520.71 240.21 L 524.29 236.91 L 527.86 232.97 L 531.43 228.58 L 535.00 225.06 L 538.57 221.24 L 542.14 217.86 L 545.71 214.50 L 549.29 211.15 L 552.86 206.59 L 556.43 202.02 L 560.00 198.21 L 563.57 195.02 L 567.14 191.92 L 570.71 187.81 L 574.29 184.62 L 577.86 181.46 L 581.43 178.51 L 585.00 175.73 L 588.57 172.88 L 592.14 170.45 L 595.71 167.93 L 599.29 165.35 L 602.86 162.63 L 606.43 160.13 L 610.00 157.85 L 613.57 153.70 L 617.14 150.24 L 620.71 146.90 L 624.29 143.71 L 627.86 138.65 L 631.43 135.46 L 635.00 132.69 L 638.57 129.43 L 642.14 124.61 L 645.71 121.15 L 649.29 118.22 L 652.86 115.75 L 656.43 113.40 L 660.00 111.49 L 663.57 109.34 L 667.14 107.58 L 670.71 105.51 L 674.29 102.54 L 677.86 99.98 L 681.43 97.75 L 685.00 95.83 L 688.57 93.85 L 692.14 92.17 L 695.71 89.36 L 699.29 86.96 L 702.86 84.57 L 706.43 82.61 L 710.00 80.80 L 713.57 79.20 L 717.14 76.45 L 720.71 74.21 L 724.29 72.18 L 727.86 70.24 L 731.43 68.54 L 735.00 66.89 L 738.57 65.38 L 742.14 63.94 L 745.71 62.61 L 749.29 60.96 L 752.86 59.18 L 756.43 57.54 L 760.00 55.00" fill="none" stroke="#3b82f6" stroke-width="3"
        stroke-linecap="round" stroke-linejoin="round" filter="url(#glow)" class="line-path"/>

  <!-- Data points -->
  
    <circle cx="60" cy="340" r="4" fill="#3b82f6" stroke="#0d1117" stroke-width="2" class="data-point"/>
  
    <circle cx="63.57142857142857" cy="339.77272727272725" r="4" fill="#3b82f6" stroke="#0d1117" stroke-width="2" class="data-point"/>
  
    <circle cx="67.14285714285714" cy="339.38620902906615" r="4" fill="#3b82f6" stroke="#0d1117" stroke-width="2" class="data-point"/>
  
    <circle cx="70.71428571428571" cy="339.0275200989487" r="4" fill="#3b82f6" stroke="#0d1117" stroke-width="2" class="data-point"/>
  
    <circle cx="74.28571428571428" cy="338.3147804576376" r="4" fill="#3b82f6" stroke="#0d1117" stroke-width="2" class="data-point"/>
  
    <circle cx="77.85714285714286" cy="337.5788497217069" r="4" fill="#3b82f6" stroke="#0d1117" stroke-width="2" class="data-point"/>
  
    <circle cx="81.42857142857143" cy="336.9990723562152" r="4" fill="#3b82f6" stroke="#0d1117" stroke-width="2" class="data-point"/>
  
    <circle cx="85" cy="336.45794681508966" r="4" fill="#3b82f6" stroke="#0d1117" stroke-width="2" class="data-point"/>
  
    <circle cx="88.57142857142857" cy="335.9771181199753" r="4" fill="#3b82f6" stroke="#0d1117" stroke-width="2" class="data-point"/>
  
    <circle cx="92.14285714285714" cy="335.41280148423004" r="4" fill="#3b82f6" stroke="#0d1117" stroke-width="2" class="data-point"/>
  
    <circle cx="95.71428571428572" cy="334.7835497835498" r="4" fill="#3b82f6" stroke="#0d1117" stroke-width="2" class="data-point"/>
  
    <circle cx="99.28571428571428" cy="334.10946196660484" r="4" fill="#3b82f6" stroke="#0d1117" stroke-width="2" class="data-point"/>
  
    <circle cx="102.85714285714286" cy="333.4972170686456" r="4" fill="#3b82f6" stroke="#0d1117" stroke-width="2" class="data-point"/>
  
    <circle cx="106.42857142857143" cy="332.84632034632034" r="4" fill="#3b82f6" stroke="#0d1117" stroke-width="2" class="data-point"/>
  
    <circle cx="110" cy="332.3716759431045" r="4" fill="#3b82f6" stroke="#0d1117" stroke-width="2" class="data-point"/>
  
    <circle cx="113.57142857142857" cy="331.8800247371676" r="4" fill="#3b82f6" stroke="#0d1117" stroke-width="2" class="data-point"/>
  
    <circle cx="117.14285714285714" cy="331.2121212121212" r="4" fill="#3b82f6" stroke="#0d1117" stroke-width="2" class="data-point"/>
  
    <circle cx="120.71428571428572" cy="330.765306122449" r="4" fill="#3b82f6" stroke="#0d1117" stroke-width="2" class="data-point"/>
  
    <circle cx="124.28571428571429" cy="330.1468769325912" r="4" fill="#3b82f6" stroke="#0d1117" stroke-width="2" class="data-point"/>
  
    <circle cx="127.85714285714286" cy="329.4325912183055" r="4" fill="#3b82f6" stroke="#0d1117" stroke-width="2" class="data-point"/>
  
    <circle cx="131.42857142857144" cy="328.8945578231293" r="4" fill="#3b82f6" stroke="#0d1117" stroke-width="2" class="data-point"/>
  
    <circle cx="135" cy="328.45238095238096" r="4" fill="#3b82f6" stroke="#0d1117" stroke-width="2" class="data-point"/>
  
    <circle cx="138.57142857142856" cy="328.16635745207174" r="4" fill="#3b82f6" stroke="#0d1117" stroke-width="2" class="data-point"/>
  
    <circle cx="142.14285714285717" cy="327.9282622139765" r="4" fill="#3b82f6" stroke="#0d1117" stroke-width="2" class="data-point"/>
  
    <circle cx="145.71428571428572" cy="327.4876314162028" r="4" fill="#3b82f6" stroke="#0d1117" stroke-width="2" class="data-point"/>
  
    <circle cx="149.28571428571428" cy="327.17377860235" r="4" fill="#3b82f6" stroke="#0d1117" stroke-width="2" class="data-point"/>
  
    <circle cx="152.85714285714286" cy="326.4857761286333" r="4" fill="#3b82f6" stroke="#0d1117" stroke-width="2" class="data-point"/>
  
    <circle cx="156.42857142857142" cy="326.2152133580705" r="4" fill="#3b82f6" stroke="#0d1117" stroke-width="2" class="data-point"/>
  
    <circle cx="160" cy="325.86580086580085" r="4" fill="#3b82f6" stroke="#0d1117" stroke-width="2" class="data-point"/>
  
    <circle cx="163.57142857142856" cy="325.4143475572047" r="4" fill="#3b82f6" stroke="#0d1117" stroke-width="2" class="data-point"/>
  
    <circle cx="167.14285714285714" cy="325.10513296227583" r="4" fill="#3b82f6" stroke="#0d1117" stroke-width="2" class="data-point"/>
  
    <circle cx="170.71428571428572" cy="324.791280148423" r="4" fill="#3b82f6" stroke="#0d1117" stroke-width="2" class="data-point"/>
  
    <circle cx="174.28571428571428" cy="324.4619666048238" r="4" fill="#3b82f6" stroke="#0d1117" stroke-width="2" class="data-point"/>
  
    <circle cx="177.85714285714283" cy="324.2331478045764" r="4" fill="#3b82f6" stroke="#0d1117" stroke-width="2" class="data-point"/>
  
    <circle cx="181.42857142857144" cy="324.0352504638219" r="4" fill="#3b82f6" stroke="#0d1117" stroke-width="2" class="data-point"/>
  
    <circle cx="185" cy="323.73376623376623" r="4" fill="#3b82f6" stroke="#0d1117" stroke-width="2" class="data-point"/>
  
    <circle cx="188.57142857142858" cy="323.3673469387755" r="4" fill="#3b82f6" stroke="#0d1117" stroke-width="2" class="data-point"/>
  
    <circle cx="192.14285714285714" cy="323.030303030303" r="4" fill="#3b82f6" stroke="#0d1117" stroke-width="2" class="data-point"/>
  
    <circle cx="195.71428571428572" cy="322.6035868893012" r="4" fill="#3b82f6" stroke="#0d1117" stroke-width="2" class="data-point"/>
  
    <circle cx="199.28571428571428" cy="322.1382189239332" r="4" fill="#3b82f6" stroke="#0d1117" stroke-width="2" class="data-point"/>
  
    <circle cx="202.85714285714286" cy="321.71150278293135" r="4" fill="#3b82f6" stroke="#0d1117" stroke-width="2" class="data-point"/>
  
    <circle cx="206.42857142857144" cy="321.1966604823748" r="4" fill="#3b82f6" stroke="#0d1117" stroke-width="2" class="data-point"/>
  
    <circle cx="210" cy="320.69109461966605" r="4" fill="#3b82f6" stroke="#0d1117" stroke-width="2" class="data-point"/>
  
    <circle cx="213.57142857142856" cy="320.18552875695735" r="4" fill="#3b82f6" stroke="#0d1117" stroke-width="2" class="data-point"/>
  
    <circle cx="217.14285714285714" cy="319.6320346320346" r="4" fill="#3b82f6" stroke="#0d1117" stroke-width="2" class="data-point"/>
  
    <circle cx="220.71428571428572" cy="319.10327767470625" r="4" fill="#3b82f6" stroke="#0d1117" stroke-width="2" class="data-point"/>
  
    <circle cx="224.2857142857143" cy="318.49876314162026" r="4" fill="#3b82f6" stroke="#0d1117" stroke-width="2" class="data-point"/>
  
    <circle cx="227.85714285714286" cy="317.9591836734694" r="4" fill="#3b82f6" stroke="#0d1117" stroke-width="2" class="data-point"/>
  
    <circle cx="231.42857142857142" cy="317.50309214594927" r="4" fill="#3b82f6" stroke="#0d1117" stroke-width="2" class="data-point"/>
  
    <circle cx="235" cy="317.1382189239332" r="4" fill="#3b82f6" stroke="#0d1117" stroke-width="2" class="data-point"/>
  
    <circle cx="238.57142857142858" cy="316.62801484230056" r="4" fill="#3b82f6" stroke="#0d1117" stroke-width="2" class="data-point"/>
  
    <circle cx="242.14285714285714" cy="316.0451453308596" r="4" fill="#3b82f6" stroke="#0d1117" stroke-width="2" class="data-point"/>
  
    <circle cx="245.71428571428572" cy="315.5117501546073" r="4" fill="#3b82f6" stroke="#0d1117" stroke-width="2" class="data-point"/>
  
    <circle cx="249.2857142857143" cy="314.8886827458256" r="4" fill="#3b82f6" stroke="#0d1117" stroke-width="2" class="data-point"/>
  
    <circle cx="252.85714285714283" cy="314.12028447742733" r="4" fill="#3b82f6" stroke="#0d1117" stroke-width="2" class="data-point"/>
  
    <circle cx="256.42857142857144" cy="313.54823747680894" r="4" fill="#3b82f6" stroke="#0d1117" stroke-width="2" class="data-point"/>
  
    <circle cx="260" cy="313.0735930735931" r="4" fill="#3b82f6" stroke="#0d1117" stroke-width="2" class="data-point"/>
  
    <circle cx="263.57142857142856" cy="312.6221397649969" r="4" fill="#3b82f6" stroke="#0d1117" stroke-width="2" class="data-point"/>
  
    <circle cx="267.1428571428571" cy="312.07946815089673" r="4" fill="#3b82f6" stroke="#0d1117" stroke-width="2" class="data-point"/>
  
    <circle cx="270.7142857142857" cy="311.4486703772418" r="4" fill="#3b82f6" stroke="#0d1117" stroke-width="2" class="data-point"/>
  
    <circle cx="274.2857142857143" cy="310.7498453927025" r="4" fill="#3b82f6" stroke="#0d1117" stroke-width="2" class="data-point"/>
  
    <circle cx="277.8571428571429" cy="310.01546072974645" r="4" fill="#3b82f6" stroke="#0d1117" stroke-width="2" class="data-point"/>
  
    <circle cx="281.42857142857144" cy="309.3104514533086" r="4" fill="#3b82f6" stroke="#0d1117" stroke-width="2" class="data-point"/>
  
    <circle cx="285" cy="308.6904761904762" r="4" fill="#3b82f6" stroke="#0d1117" stroke-width="2" class="data-point"/>
  
    <circle cx="288.57142857142856" cy="308.0751391465677" r="4" fill="#3b82f6" stroke="#0d1117" stroke-width="2" class="data-point"/>
  
    <circle cx="292.1428571428571" cy="307.53246753246754" r="4" fill="#3b82f6" stroke="#0d1117" stroke-width="2" class="data-point"/>
  
    <circle cx="295.71428571428567" cy="306.97897340754486" r="4" fill="#3b82f6" stroke="#0d1117" stroke-width="2" class="data-point"/>
  
    <circle cx="299.2857142857143" cy="306.3605442176871" r="4" fill="#3b82f6" stroke="#0d1117" stroke-width="2" class="data-point"/>
  
    <circle cx="302.8571428571429" cy="305.5905998763142" r="4" fill="#3b82f6" stroke="#0d1117" stroke-width="2" class="data-point"/>
  
    <circle cx="306.42857142857144" cy="305.0170068027211" r="4" fill="#3b82f6" stroke="#0d1117" stroke-width="2" class="data-point"/>
  
    <circle cx="310" cy="304.50371057513917" r="4" fill="#3b82f6" stroke="#0d1117" stroke-width="2" class="data-point"/>
  
    <circle cx="313.57142857142856" cy="303.93320964749535" r="4" fill="#3b82f6" stroke="#0d1117" stroke-width="2" class="data-point"/>
  
    <circle cx="317.14285714285717" cy="303.4013605442177" r="4" fill="#3b82f6" stroke="#0d1117" stroke-width="2" class="data-point"/>
  
    <circle cx="320.7142857142857" cy="302.8169449598021" r="4" fill="#3b82f6" stroke="#0d1117" stroke-width="2" class="data-point"/>
  
    <circle cx="324.2857142857143" cy="302.2077922077922" r="4" fill="#3b82f6" stroke="#0d1117" stroke-width="2" class="data-point"/>
  
    <circle cx="327.85714285714283" cy="301.5708101422387" r="4" fill="#3b82f6" stroke="#0d1117" stroke-width="2" class="data-point"/>
  
    <circle cx="331.42857142857144" cy="301.0126777983921" r="4" fill="#3b82f6" stroke="#0d1117" stroke-width="2" class="data-point"/>
  
    <circle cx="335" cy="300.53494124922696" r="4" fill="#3b82f6" stroke="#0d1117" stroke-width="2" class="data-point"/>
  
    <circle cx="338.57142857142856" cy="300.0108225108225" r="4" fill="#3b82f6" stroke="#0d1117" stroke-width="2" class="data-point"/>
  
    <circle cx="342.14285714285717" cy="299.443413729128" r="4" fill="#3b82f6" stroke="#0d1117" stroke-width="2" class="data-point"/>
  
    <circle cx="345.7142857142857" cy="298.9177489177489" r="4" fill="#3b82f6" stroke="#0d1117" stroke-width="2" class="data-point"/>
  
    <circle cx="349.2857142857143" cy="298.23283858998144" r="4" fill="#3b82f6" stroke="#0d1117" stroke-width="2" class="data-point"/>
  
    <circle cx="352.8571428571429" cy="297.64378478664196" r="4" fill="#3b82f6" stroke="#0d1117" stroke-width="2" class="data-point"/>
  
    <circle cx="356.42857142857144" cy="297.0763760049474" r="4" fill="#3b82f6" stroke="#0d1117" stroke-width="2" class="data-point"/>
  
    <circle cx="360" cy="296.6048237476809" r="4" fill="#3b82f6" stroke="#0d1117" stroke-width="2" class="data-point"/>
  
    <circle cx="363.57142857142856" cy="296.1471861471862" r="4" fill="#3b82f6" stroke="#0d1117" stroke-width="2" class="data-point"/>
  
    <circle cx="367.1428571428571" cy="295.6880024737168" r="4" fill="#3b82f6" stroke="#0d1117" stroke-width="2" class="data-point"/>
  
    <circle cx="370.7142857142857" cy="295.139146567718" r="4" fill="#3b82f6" stroke="#0d1117" stroke-width="2" class="data-point"/>
  
    <circle cx="374.2857142857143" cy="294.5748299319728" r="4" fill="#3b82f6" stroke="#0d1117" stroke-width="2" class="data-point"/>
  
    <circle cx="377.85714285714283" cy="293.8899196042053" r="4" fill="#3b82f6" stroke="#0d1117" stroke-width="2" class="data-point"/>
  
    <circle cx="381.42857142857144" cy="293.334879406308" r="4" fill="#3b82f6" stroke="#0d1117" stroke-width="2" class="data-point"/>
  
    <circle cx="385" cy="292.88188002473714" r="4" fill="#3b82f6" stroke="#0d1117" stroke-width="2" class="data-point"/>
  
    <circle cx="388.5714285714286" cy="292.4165120593692" r="4" fill="#3b82f6" stroke="#0d1117" stroke-width="2" class="data-point"/>
  
    <circle cx="392.14285714285717" cy="291.97124304267163" r="4" fill="#3b82f6" stroke="#0d1117" stroke-width="2" class="data-point"/>
  
    <circle cx="395.7142857142857" cy="291.4208410636982" r="4" fill="#3b82f6" stroke="#0d1117" stroke-width="2" class="data-point"/>
  
    <circle cx="399.2857142857143" cy="290.856524427953" r="4" fill="#3b82f6" stroke="#0d1117" stroke-width="2" class="data-point"/>
  
    <circle cx="402.85714285714283" cy="289.60884353741494" r="4" fill="#3b82f6" stroke="#0d1117" stroke-width="2" class="data-point"/>
  
    <circle cx="406.42857142857144" cy="287.125850340136" r="4" fill="#3b82f6" stroke="#0d1117" stroke-width="2" class="data-point"/>
  
    <circle cx="410" cy="284.1682127396413" r="4" fill="#3b82f6" stroke="#0d1117" stroke-width="2" class="data-point"/>
  
    <circle cx="413.57142857142856" cy="281.4734075448361" r="4" fill="#3b82f6" stroke="#0d1117" stroke-width="2" class="data-point"/>
  
    <circle cx="417.14285714285717" cy="280.10667903525047" r="4" fill="#3b82f6" stroke="#0d1117" stroke-width="2" class="data-point"/>
  
    <circle cx="420.71428571428567" cy="278.04730983302414" r="4" fill="#3b82f6" stroke="#0d1117" stroke-width="2" class="data-point"/>
  
    <circle cx="424.2857142857143" cy="276.6790352504638" r="4" fill="#3b82f6" stroke="#0d1117" stroke-width="2" class="data-point"/>
  
    <circle cx="427.85714285714283" cy="275.47928262213975" r="4" fill="#3b82f6" stroke="#0d1117" stroke-width="2" class="data-point"/>
  
    <circle cx="431.42857142857144" cy="274.3058132343847" r="4" fill="#3b82f6" stroke="#0d1117" stroke-width="2" class="data-point"/>
  
    <circle cx="435" cy="273.2003710575139" r="4" fill="#3b82f6" stroke="#0d1117" stroke-width="2" class="data-point"/>
  
    <circle cx="438.5714285714286" cy="271.48113790970933" r="4" fill="#3b82f6" stroke="#0d1117" stroke-width="2" class="data-point"/>
  
    <circle cx="442.14285714285717" cy="270.1144094001237" r="4" fill="#3b82f6" stroke="#0d1117" stroke-width="2" class="data-point"/>
  
    <circle cx="445.71428571428567" cy="268.36734693877554" r="4" fill="#3b82f6" stroke="#0d1117" stroke-width="2" class="data-point"/>
  
    <circle cx="449.2857142857143" cy="268.01020408163265" r="4" fill="#3b82f6" stroke="#0d1117" stroke-width="2" class="data-point"/>
  
    <circle cx="452.85714285714283" cy="267.9638218923933" r="4" fill="#3b82f6" stroke="#0d1117" stroke-width="2" class="data-point"/>
  
    <circle cx="456.42857142857144" cy="267.9035250463822" r="4" fill="#3b82f6" stroke="#0d1117" stroke-width="2" class="data-point"/>
  
    <circle cx="460" cy="267.85250463821893" r="4" fill="#3b82f6" stroke="#0d1117" stroke-width="2" class="data-point"/>
  
    <circle cx="463.5714285714286" cy="267.7860235003092" r="4" fill="#3b82f6" stroke="#0d1117" stroke-width="2" class="data-point"/>
  
    <circle cx="467.1428571428571" cy="267.72727272727275" r="4" fill="#3b82f6" stroke="#0d1117" stroke-width="2" class="data-point"/>
  
    <circle cx="470.7142857142857" cy="267.7040816326531" r="4" fill="#3b82f6" stroke="#0d1117" stroke-width="2" class="data-point"/>
  
    <circle cx="474.2857142857143" cy="267.6190476190476" r="4" fill="#3b82f6" stroke="#0d1117" stroke-width="2" class="data-point"/>
  
    <circle cx="477.8571428571429" cy="267.53710575139144" r="4" fill="#3b82f6" stroke="#0d1117" stroke-width="2" class="data-point"/>
  
    <circle cx="481.42857142857144" cy="267.4829931972789" r="4" fill="#3b82f6" stroke="#0d1117" stroke-width="2" class="data-point"/>
  
    <circle cx="484.99999999999994" cy="267.46289424860856" r="4" fill="#3b82f6" stroke="#0d1117" stroke-width="2" class="data-point"/>
  
    <circle cx="488.57142857142856" cy="267.3716759431045" r="4" fill="#3b82f6" stroke="#0d1117" stroke-width="2" class="data-point"/>
  
    <circle cx="492.1428571428571" cy="265.12987012987014" r="4" fill="#3b82f6" stroke="#0d1117" stroke-width="2" class="data-point"/>
  
    <circle cx="495.7142857142857" cy="261.6187384044527" r="4" fill="#3b82f6" stroke="#0d1117" stroke-width="2" class="data-point"/>
  
    <circle cx="499.2857142857143" cy="259.26716141001856" r="4" fill="#3b82f6" stroke="#0d1117" stroke-width="2" class="data-point"/>
  
    <circle cx="502.8571428571429" cy="256.53679653679654" r="4" fill="#3b82f6" stroke="#0d1117" stroke-width="2" class="data-point"/>
  
    <circle cx="506.42857142857144" cy="253.7229437229437" r="4" fill="#3b82f6" stroke="#0d1117" stroke-width="2" class="data-point"/>
  
    <circle cx="510.00000000000006" cy="251.5151515151515" r="4" fill="#3b82f6" stroke="#0d1117" stroke-width="2" class="data-point"/>
  
    <circle cx="513.5714285714286" cy="249.0460729746444" r="4" fill="#3b82f6" stroke="#0d1117" stroke-width="2" class="data-point"/>
  
    <circle cx="517.1428571428571" cy="245.2844774273346" r="4" fill="#3b82f6" stroke="#0d1117" stroke-width="2" class="data-point"/>
  
    <circle cx="520.7142857142858" cy="240.21490414347556" r="4" fill="#3b82f6" stroke="#0d1117" stroke-width="2" class="data-point"/>
  
    <circle cx="524.2857142857142" cy="236.90630797773656" r="4" fill="#3b82f6" stroke="#0d1117" stroke-width="2" class="data-point"/>
  
    <circle cx="527.8571428571429" cy="232.96846011131726" r="4" fill="#3b82f6" stroke="#0d1117" stroke-width="2" class="data-point"/>
  
    <circle cx="531.4285714285713" cy="228.58070500927641" r="4" fill="#3b82f6" stroke="#0d1117" stroke-width="2" class="data-point"/>
  
    <circle cx="535" cy="225.06184291898577" r="4" fill="#3b82f6" stroke="#0d1117" stroke-width="2" class="data-point"/>
  
    <circle cx="538.5714285714286" cy="221.2430426716141" r="4" fill="#3b82f6" stroke="#0d1117" stroke-width="2" class="data-point"/>
  
    <circle cx="542.1428571428571" cy="217.8555967841682" r="4" fill="#3b82f6" stroke="#0d1117" stroke-width="2" class="data-point"/>
  
    <circle cx="545.7142857142858" cy="214.4990723562152" r="4" fill="#3b82f6" stroke="#0d1117" stroke-width="2" class="data-point"/>
  
    <circle cx="549.2857142857143" cy="211.15182436611008" r="4" fill="#3b82f6" stroke="#0d1117" stroke-width="2" class="data-point"/>
  
    <circle cx="552.8571428571429" cy="206.5940012368584" r="4" fill="#3b82f6" stroke="#0d1117" stroke-width="2" class="data-point"/>
  
    <circle cx="556.4285714285713" cy="202.02226345083488" r="4" fill="#3b82f6" stroke="#0d1117" stroke-width="2" class="data-point"/>
  
    <circle cx="560" cy="198.21119356833643" r="4" fill="#3b82f6" stroke="#0d1117" stroke-width="2" class="data-point"/>
  
    <circle cx="563.5714285714286" cy="195.01700680272108" r="4" fill="#3b82f6" stroke="#0d1117" stroke-width="2" class="data-point"/>
  
    <circle cx="567.1428571428571" cy="191.91867656153372" r="4" fill="#3b82f6" stroke="#0d1117" stroke-width="2" class="data-point"/>
  
    <circle cx="570.7142857142858" cy="187.80612244897958" r="4" fill="#3b82f6" stroke="#0d1117" stroke-width="2" class="data-point"/>
  
    <circle cx="574.2857142857143" cy="184.6165739022882" r="4" fill="#3b82f6" stroke="#0d1117" stroke-width="2" class="data-point"/>
  
    <circle cx="577.8571428571429" cy="181.46103896103898" r="4" fill="#3b82f6" stroke="#0d1117" stroke-width="2" class="data-point"/>
  
    <circle cx="581.4285714285714" cy="178.50958565244278" r="4" fill="#3b82f6" stroke="#0d1117" stroke-width="2" class="data-point"/>
  
    <circle cx="585" cy="175.72974644403217" r="4" fill="#3b82f6" stroke="#0d1117" stroke-width="2" class="data-point"/>
  
    <circle cx="588.5714285714286" cy="172.88188002473717" r="4" fill="#3b82f6" stroke="#0d1117" stroke-width="2" class="data-point"/>
  
    <circle cx="592.1428571428571" cy="170.4468150896722" r="4" fill="#3b82f6" stroke="#0d1117" stroke-width="2" class="data-point"/>
  
    <circle cx="595.7142857142857" cy="167.9251700680272" r="4" fill="#3b82f6" stroke="#0d1117" stroke-width="2" class="data-point"/>
  
    <circle cx="599.2857142857143" cy="165.35095856524427" r="4" fill="#3b82f6" stroke="#0d1117" stroke-width="2" class="data-point"/>
  
    <circle cx="602.8571428571429" cy="162.62987012987014" r="4" fill="#3b82f6" stroke="#0d1117" stroke-width="2" class="data-point"/>
  
    <circle cx="606.4285714285714" cy="160.13296227581944" r="4" fill="#3b82f6" stroke="#0d1117" stroke-width="2" class="data-point"/>
  
    <circle cx="610" cy="157.84632034632034" r="4" fill="#3b82f6" stroke="#0d1117" stroke-width="2" class="data-point"/>
  
    <circle cx="613.5714285714286" cy="153.70284477427333" r="4" fill="#3b82f6" stroke="#0d1117" stroke-width="2" class="data-point"/>
  
    <circle cx="617.1428571428571" cy="150.23500309214597" r="4" fill="#3b82f6" stroke="#0d1117" stroke-width="2" class="data-point"/>
  
    <circle cx="620.7142857142857" cy="146.9047619047619" r="4" fill="#3b82f6" stroke="#0d1117" stroke-width="2" class="data-point"/>
  
    <circle cx="624.2857142857143" cy="143.70593692022263" r="4" fill="#3b82f6" stroke="#0d1117" stroke-width="2" class="data-point"/>
  
    <circle cx="627.8571428571428" cy="138.65491651205937" r="4" fill="#3b82f6" stroke="#0d1117" stroke-width="2" class="data-point"/>
  
    <circle cx="631.4285714285714" cy="135.45918367346937" r="4" fill="#3b82f6" stroke="#0d1117" stroke-width="2" class="data-point"/>
  
    <circle cx="635" cy="132.69325912183055" r="4" fill="#3b82f6" stroke="#0d1117" stroke-width="2" class="data-point"/>
  
    <circle cx="638.5714285714286" cy="129.4264069264069" r="4" fill="#3b82f6" stroke="#0d1117" stroke-width="2" class="data-point"/>
  
    <circle cx="642.1428571428571" cy="124.61038961038963" r="4" fill="#3b82f6" stroke="#0d1117" stroke-width="2" class="data-point"/>
  
    <circle cx="645.7142857142858" cy="121.14564007421149" r="4" fill="#3b82f6" stroke="#0d1117" stroke-width="2" class="data-point"/>
  
    <circle cx="649.2857142857143" cy="118.22047000618431" r="4" fill="#3b82f6" stroke="#0d1117" stroke-width="2" class="data-point"/>
  
    <circle cx="652.8571428571429" cy="115.7452071737786" r="4" fill="#3b82f6" stroke="#0d1117" stroke-width="2" class="data-point"/>
  
    <circle cx="656.4285714285714" cy="113.39672232529375" r="4" fill="#3b82f6" stroke="#0d1117" stroke-width="2" class="data-point"/>
  
    <circle cx="660" cy="111.48732220160792" r="4" fill="#3b82f6" stroke="#0d1117" stroke-width="2" class="data-point"/>
  
    <circle cx="663.5714285714286" cy="109.33673469387756" r="4" fill="#3b82f6" stroke="#0d1117" stroke-width="2" class="data-point"/>
  
    <circle cx="667.1428571428571" cy="107.58348794063079" r="4" fill="#3b82f6" stroke="#0d1117" stroke-width="2" class="data-point"/>
  
    <circle cx="670.7142857142858" cy="105.51484230055658" r="4" fill="#3b82f6" stroke="#0d1117" stroke-width="2" class="data-point"/>
  
    <circle cx="674.2857142857142" cy="102.53710575139146" r="4" fill="#3b82f6" stroke="#0d1117" stroke-width="2" class="data-point"/>
  
    <circle cx="677.8571428571429" cy="99.97835497835499" r="4" fill="#3b82f6" stroke="#0d1117" stroke-width="2" class="data-point"/>
  
    <circle cx="681.4285714285714" cy="97.75355596784166" r="4" fill="#3b82f6" stroke="#0d1117" stroke-width="2" class="data-point"/>
  
    <circle cx="685" cy="95.83024118738405" r="4" fill="#3b82f6" stroke="#0d1117" stroke-width="2" class="data-point"/>
  
    <circle cx="688.5714285714286" cy="93.84662956091526" r="4" fill="#3b82f6" stroke="#0d1117" stroke-width="2" class="data-point"/>
  
    <circle cx="692.1428571428571" cy="92.17377860235001" r="4" fill="#3b82f6" stroke="#0d1117" stroke-width="2" class="data-point"/>
  
    <circle cx="695.7142857142857" cy="89.36147186147187" r="4" fill="#3b82f6" stroke="#0d1117" stroke-width="2" class="data-point"/>
  
    <circle cx="699.2857142857142" cy="86.95732838589981" r="4" fill="#3b82f6" stroke="#0d1117" stroke-width="2" class="data-point"/>
  
    <circle cx="702.8571428571429" cy="84.57328385899814" r="4" fill="#3b82f6" stroke="#0d1117" stroke-width="2" class="data-point"/>
  
    <circle cx="706.4285714285714" cy="82.60513296227583" r="4" fill="#3b82f6" stroke="#0d1117" stroke-width="2" class="data-point"/>
  
    <circle cx="710" cy="80.79931972789115" r="4" fill="#3b82f6" stroke="#0d1117" stroke-width="2" class="data-point"/>
  
    <circle cx="713.5714285714286" cy="79.1960420531849" r="4" fill="#3b82f6" stroke="#0d1117" stroke-width="2" class="data-point"/>
  
    <circle cx="717.1428571428572" cy="76.44712430426716" r="4" fill="#3b82f6" stroke="#0d1117" stroke-width="2" class="data-point"/>
  
    <circle cx="720.7142857142857" cy="74.21459492888062" r="4" fill="#3b82f6" stroke="#0d1117" stroke-width="2" class="data-point"/>
  
    <circle cx="724.2857142857143" cy="72.1799628942486" r="4" fill="#3b82f6" stroke="#0d1117" stroke-width="2" class="data-point"/>
  
    <circle cx="727.8571428571429" cy="70.2365491651206" r="4" fill="#3b82f6" stroke="#0d1117" stroke-width="2" class="data-point"/>
  
    <circle cx="731.4285714285714" cy="68.54050711193565" r="4" fill="#3b82f6" stroke="#0d1117" stroke-width="2" class="data-point"/>
  
    <circle cx="735" cy="66.89393939393938" r="4" fill="#3b82f6" stroke="#0d1117" stroke-width="2" class="data-point"/>
  
    <circle cx="738.5714285714286" cy="65.38497217068647" r="4" fill="#3b82f6" stroke="#0d1117" stroke-width="2" class="data-point"/>
  
    <circle cx="742.1428571428571" cy="63.937847866419304" r="4" fill="#3b82f6" stroke="#0d1117" stroke-width="2" class="data-point"/>
  
    <circle cx="745.7142857142857" cy="62.61131725417442" r="4" fill="#3b82f6" stroke="#0d1117" stroke-width="2" class="data-point"/>
  
    <circle cx="749.2857142857143" cy="60.95547309833023" r="4" fill="#3b82f6" stroke="#0d1117" stroke-width="2" class="data-point"/>
  
    <circle cx="752.8571428571429" cy="59.17748917748918" r="4" fill="#3b82f6" stroke="#0d1117" stroke-width="2" class="data-point"/>
  
    <circle cx="756.4285714285714" cy="57.541743970315395" r="4" fill="#3b82f6" stroke="#0d1117" stroke-width="2" class="data-point"/>
  
    <circle cx="760" cy="55" r="4" fill="#3b82f6" stroke="#0d1117" stroke-width="2" class="data-point"/>
  

  <!-- Axis lines -->
  <line x1="60" y1="55" x2="60" y2="340"
        stroke="#30363d" stroke-width="2"/>
  <line x1="60" y1="340" x2="760" y2="340"
        stroke="#30363d" stroke-width="2"/>
</svg>