<?xml version="1.0" encoding="UTF-8"?>
<svg width="800" height="400" xmlns="http://www.w3.org/2000/svg">
  <defs>
    <!-- Gradient for area fill -->
    <linearGradient id="areaGradient" x1="0%" y1="0%" x2="0%" y2="100%">
      <stop offset="0%" style="stop-color:#3b82f6;stop-opacity:0.3" />
      <stop offset="100%" style="stop-color:#3b82f6;stop-opacity:0.05" />
    </linearGradient>

    <!-- Glow filter for line -->
    <filter id="glow">
      <feGaussianBlur stdDeviation="2" result="coloredBlur"/>
      <feMerge>
        <feMergeNode in="coloredBlur"/>
        <feMergeNode in="SourceGraphic"/>
      </feMerge>
    </filter>

    <!-- Animation -->
    <style>
      @keyframes draw {
        from { stroke-dashoffset: 2000; }
        to { stroke-dashoffset: 0; }
      }
      @keyframes fadeIn {
        from { opacity: 0; }
        to { opacity: 1; }
      }
      .line-path {
        stroke-dasharray: 2000;
        stroke-dashoffset: 2000;
        animation: draw 1.5s ease-out forwards;
      }
      .area-path {
        opacity: 0;
        animation: fadeIn 1s ease-out 0.5s forwards;
      }
      .data-point {
        opacity: 0;
        animation: fadeIn 0.5s ease-out 1s forwards;
      }
    </style>
  </defs>

  <!-- Background -->
  <rect width="800" height="400" fill="#0d1117" rx="8"/>

  <!-- Title -->
  <text x="400" y="25" text-anchor="middle" fill="#c9d1d9" font-family="system-ui, -apple-system, sans-serif" font-size="16" font-weight="600">
    zxcloli666/SoundCloud-Desktop Downloads
  </text>

  <!-- Stats -->
  <text x="780" y="25" text-anchor="end" fill="#58a6ff" font-family="system-ui, -apple-system, sans-serif" font-size="14" font-weight="600">
    271.1K total
  </text>
  <text x="780" y="42" text-anchor="end" fill="#3fb950" font-family="system-ui, -apple-system, sans-serif" font-size="12">
    +985 (+0.4%)
  </text>

  <!-- Grid lines -->
  <g opacity="0.1">
    
      <line x1="60" y1="340" x2="760" y2="340"
            stroke="#c9d1d9" stroke-width="1"/>
    
      <line x1="60" y1="268.75" x2="760" y2="268.75"
            stroke="#c9d1d9" stroke-width="1"/>
    
      <line x1="60" y1="197.5" x2="760" y2="197.5"
            stroke="#c9d1d9" stroke-width="1"/>
    
      <line x1="60" y1="126.25" x2="760" y2="126.25"
            stroke="#c9d1d9" stroke-width="1"/>
    
      <line x1="60" y1="55" x2="760" y2="55"
            stroke="#c9d1d9" stroke-width="1"/>
    
  </g>

  <!-- Y-axis labels -->
  
    <text x="50" y="344" text-anchor="end"
          fill="#8b949e" font-family="system-ui, -apple-system, sans-serif" font-size="11">
      60.2K
    </text>
  
    <text x="50" y="272.75" text-anchor="end"
          fill="#8b949e" font-family="system-ui, -apple-system, sans-serif" font-size="11">
      112.9K
    </text>
  
    <text x="50" y="201.5" text-anchor="end"
          fill="#8b949e" font-family="system-ui, -apple-system, sans-serif" font-size="11">
      165.6K
    </text>
  
    <text x="50" y="130.25" text-anchor="end"
          fill="#8b949e" font-family="system-ui, -apple-system, sans-serif" font-size="11">
      218.4K
    </text>
  
    <text x="50" y="59" text-anchor="end"
          fill="#8b949e" font-family="system-ui, -apple-system, sans-serif" font-size="11">
      271.1K
    </text>
  

  <!-- X-axis labels -->
  
    <text x="60" y="360" text-anchor="middle"
          fill="#8b949e" font-family="system-ui, -apple-system, sans-serif" font-size="11">
      Nov 25
    </text>
  
    <text x="147.09677419354838" y="360" text-anchor="middle"
          fill="#8b949e" font-family="system-ui, -apple-system, sans-serif" font-size="11">
      Dec 22
    </text>
  
    <text x="234.19354838709677" y="360" text-anchor="middle"
          fill="#8b949e" font-family="system-ui, -apple-system, sans-serif" font-size="11">
      Jan 18
    </text>
  
    <text x="321.2903225806452" y="360" text-anchor="middle"
          fill="#8b949e" font-family="system-ui, -apple-system, sans-serif" font-size="11">
      Feb 14
    </text>
  
    <text x="408.38709677419354" y="360" text-anchor="middle"
          fill="#8b949e" font-family="system-ui, -apple-system, sans-serif" font-size="11">
      Mar 13
    </text>
  
    <text x="495.4838709677419" y="360" text-anchor="middle"
          fill="#8b949e" font-family="system-ui, -apple-system, sans-serif" font-size="11">
      Apr 9
    </text>
  
    <text x="582.5806451612904" y="360" text-anchor="middle"
          fill="#8b949e" font-family="system-ui, -apple-system, sans-serif" font-size="11">
      May 6
    </text>
  
    <text x="669.6774193548387" y="360" text-anchor="middle"
          fill="#8b949e" font-family="system-ui, -apple-system, sans-serif" font-size="11">
      Jun 2
    </text>
  
    <text x="756.7741935483871" y="360" text-anchor="middle"
          fill="#8b949e" font-family="system-ui, -apple-system, sans-serif" font-size="11">
      Jun 29
    </text>
  
    <text x="760" y="360" text-anchor="middle"
          fill="#8b949e" font-family="system-ui, -apple-system, sans-serif" font-size="11">
      Jun 30
    </text>
  

  <!-- Area under line -->
  <path d="M 60 340
    L 60.00 340.00 L 63.23 339.80 L 66.45 339.46 L 69.68 339.15 L 72.90 338.53 L 76.13 337.88 L 79.35 337.38 L 82.58 336.91 L 85.81 336.48 L 89.03 335.99 L 92.26 335.44 L 95.48 334.85 L 98.71 334.32 L 101.94 333.75 L 105.16 333.33 L 108.39 332.91 L 111.61 332.32 L 114.84 331.93 L 118.06 331.39 L 121.29 330.77 L 124.52 330.30 L 127.74 329.91 L 130.97 329.66 L 134.19 329.45 L 137.42 329.07 L 140.65 328.79 L 143.87 328.19 L 147.10 327.96 L 150.32 327.65 L 153.55 327.26 L 156.77 326.99 L 160.00 326.71 L 163.23 326.42 L 166.45 326.22 L 169.68 326.05 L 172.90 325.79 L 176.13 325.47 L 179.35 325.17 L 182.58 324.80 L 185.81 324.39 L 189.03 324.02 L 192.26 323.57 L 195.48 323.13 L 198.71 322.69 L 201.94 322.20 L 205.16 321.74 L 208.39 321.21 L 211.61 320.74 L 214.84 320.34 L 218.06 320.02 L 221.29 319.58 L 224.52 319.07 L 227.74 318.60 L 230.97 318.06 L 234.19 317.39 L 237.42 316.89 L 240.65 316.47 L 243.87 316.08 L 247.10 315.60 L 250.32 315.05 L 253.55 314.44 L 256.77 313.80 L 260.00 313.18 L 263.23 312.64 L 266.45 312.11 L 269.68 311.63 L 272.90 311.15 L 276.13 310.61 L 279.35 309.93 L 282.58 309.43 L 285.81 308.98 L 289.03 308.49 L 292.26 308.02 L 295.48 307.51 L 298.71 306.98 L 301.94 306.42 L 305.16 305.93 L 308.39 305.52 L 311.61 305.06 L 314.84 304.56 L 318.06 304.10 L 321.29 303.51 L 324.52 302.99 L 327.74 302.50 L 330.97 302.08 L 334.19 301.68 L 337.42 301.28 L 340.65 300.80 L 343.87 300.31 L 347.10 299.71 L 350.32 299.23 L 353.55 298.83 L 356.77 298.42 L 360.00 298.03 L 363.23 297.55 L 366.45 297.06 L 369.68 295.97 L 372.90 293.80 L 376.13 291.22 L 379.35 288.86 L 382.58 287.67 L 385.81 285.87 L 389.03 284.67 L 392.26 283.62 L 395.48 282.60 L 398.71 281.63 L 401.94 280.13 L 405.16 278.94 L 408.39 277.41 L 411.61 277.10 L 414.84 277.06 L 418.06 277.01 L 421.29 276.96 L 424.52 276.90 L 427.74 276.85 L 430.97 276.83 L 434.19 276.76 L 437.42 276.69 L 440.65 276.64 L 443.87 276.62 L 447.10 276.54 L 450.32 274.58 L 453.55 271.51 L 456.77 269.46 L 460.00 267.07 L 463.23 264.61 L 466.45 262.69 L 469.68 260.53 L 472.90 257.24 L 476.13 252.81 L 479.35 249.92 L 482.58 246.48 L 485.81 242.65 L 489.03 239.57 L 492.26 236.24 L 495.48 233.28 L 498.71 230.34 L 501.94 227.42 L 505.16 223.44 L 508.39 219.44 L 511.61 216.11 L 514.84 213.32 L 518.06 210.61 L 521.29 207.02 L 524.52 204.23 L 527.74 201.48 L 530.97 198.90 L 534.19 196.47 L 537.42 193.98 L 540.65 191.85 L 543.87 189.65 L 547.10 187.40 L 550.32 185.02 L 553.55 182.84 L 556.77 180.84 L 560.00 177.22 L 563.23 174.19 L 566.45 171.28 L 569.68 168.49 L 572.90 164.07 L 576.13 161.28 L 579.35 158.86 L 582.58 156.01 L 585.81 151.80 L 589.03 148.77 L 592.26 146.22 L 595.48 144.06 L 598.71 142.00 L 601.94 140.34 L 605.16 138.46 L 608.39 136.92 L 611.61 135.12 L 614.84 132.52 L 618.06 130.28 L 621.29 128.34 L 624.52 126.66 L 627.74 124.92 L 630.97 123.46 L 634.19 121.00 L 637.42 118.90 L 640.65 116.82 L 643.87 115.10 L 647.10 113.52 L 650.32 112.12 L 653.55 109.72 L 656.77 107.77 L 660.00 105.99 L 663.23 104.29 L 666.45 102.81 L 669.68 101.37 L 672.90 100.05 L 676.13 98.79 L 679.35 97.63 L 682.58 96.18 L 685.81 94.63 L 689.03 93.20 L 692.26 90.98 L 695.48 89.37 L 698.71 87.83 L 701.94 86.47 L 705.16 84.89 L 708.39 82.94 L 711.61 81.21 L 714.84 79.67 L 718.06 78.00 L 721.29 75.69 L 724.52 73.79 L 727.74 71.76 L 730.97 69.74 L 734.19 67.85 L 737.42 66.00 L 740.65 64.04 L 743.87 62.28 L 747.10 60.74 L 750.32 59.31 L 753.55 57.80 L 756.77 56.33 L 760.00 55.00
    L 760 340
    Z" fill="url(#areaGradient)" class="area-path"/>

  <!-- Main line with glow -->
  <path d="M 60.00 340.00 L 63.23 339.80 L 66.45 339.46 L 69.68 339.15 L 72.90 338.53 L 76.13 337.88 L 79.35 337.38 L 82.58 336.91 L 85.81 336.48 L 89.03 335.99 L 92.26 335.44 L 95.48 334.85 L 98.71 334.32 L 101.94 333.75 L 105.16 333.33 L 108.39 332.91 L 111.61 332.32 L 114.84 331.93 L 118.06 331.39 L 121.29 330.77 L 124.52 330.30 L 127.74 329.91 L 130.97 329.66 L 134.19 329.45 L 137.42 329.07 L 140.65 328.79 L 143.87 328.19 L 147.10 327.96 L 150.32 327.65 L 153.55 327.26 L 156.77 326.99 L 160.00 326.71 L 163.23 326.42 L 166.45 326.22 L 169.68 326.05 L 172.90 325.79 L 176.13 325.47 L 179.35 325.17 L 182.58 324.80 L 185.81 324.39 L 189.03 324.02 L 192.26 323.57 L 195.48 323.13 L 198.71 322.69 L 201.94 322.20 L 205.16 321.74 L 208.39 321.21 L 211.61 320.74 L 214.84 320.34 L 218.06 320.02 L 221.29 319.58 L 224.52 319.07 L 227.74 318.60 L 230.97 318.06 L 234.19 317.39 L 237.42 316.89 L 240.65 316.47 L 243.87 316.08 L 247.10 315.60 L 250.32 315.05 L 253.55 314.44 L 256.77 313.80 L 260.00 313.18 L 263.23 312.64 L 266.45 312.11 L 269.68 311.63 L 272.90 311.15 L 276.13 310.61 L 279.35 309.93 L 282.58 309.43 L 285.81 308.98 L 289.03 308.49 L 292.26 308.02 L 295.48 307.51 L 298.71 306.98 L 301.94 306.42 L 305.16 305.93 L 308.39 305.52 L 311.61 305.06 L 314.84 304.56 L 318.06 304.10 L 321.29 303.51 L 324.52 302.99 L 327.74 302.50 L 330.97 302.08 L 334.19 301.68 L 337.42 301.28 L 340.65 300.80 L 343.87 300.31 L 347.10 299.71 L 350.32 299.23 L 353.55 298.83 L 356.77 298.42 L 360.00 298.03 L 363.23 297.55 L 366.45 297.06 L 369.68 295.97 L 372.90 293.80 L 376.13 291.22 L 379.35 288.86 L 382.58 287.67 L 385.81 285.87 L 389.03 284.67 L 392.26 283.62 L 395.48 282.60 L 398.71 281.63 L 401.94 280.13 L 405.16 278.94 L 408.39 277.41 L 411.61 277.10 L 414.84 277.06 L 418.06 277.01 L 421.29 276.96 L 424.52 276.90 L 427.74 276.85 L 430.97 276.83 L 434.19 276.76 L 437.42 276.69 L 440.65 276.64 L 443.87 276.62 L 447.10 276.54 L 450.32 274.58 L 453.55 271.51 L 456.77 269.46 L 460.00 267.07 L 463.23 264.61 L 466.45 262.69 L 469.68 260.53 L 472.90 257.24 L 476.13 252.81 L 479.35 249.92 L 482.58 246.48 L 485.81 242.65 L 489.03 239.57 L 492.26 236.24 L 495.48 233.28 L 498.71 230.34 L 501.94 227.42 L 505.16 223.44 L 508.39 219.44 L 511.61 216.11 L 514.84 213.32 L 518.06 210.61 L 521.29 207.02 L 524.52 204.23 L 527.74 201.48 L 530.97 198.90 L 534.19 196.47 L 537.42 193.98 L 540.65 191.85 L 543.87 189.65 L 547.10 187.40 L 550.32 185.02 L 553.55 182.84 L 556.77 180.84 L 560.00 177.22 L 563.23 174.19 L 566.45 171.28 L 569.68 168.49 L 572.90 164.07 L 576.13 161.28 L 579.35 158.86 L 582.58 156.01 L 585.81 151.80 L 589.03 148.77 L 592.26 146.22 L 595.48 144.06 L 598.71 142.00 L 601.94 140.34 L 605.16 138.46 L 608.39 136.92 L 611.61 135.12 L 614.84 132.52 L 618.06 130.28 L 621.29 128.34 L 624.52 126.66 L 627.74 124.92 L 630.97 123.46 L 634.19 121.00 L 637.42 118.90 L 640.65 116.82 L 643.87 115.10 L 647.10 113.52 L 650.32 112.12 L 653.55 109.72 L 656.77 107.77 L 660.00 105.99 L 663.23 104.29 L 666.45 102.81 L 669.68 101.37 L 672.90 100.05 L 676.13 98.79 L 679.35 97.63 L 682.58 96.18 L 685.81 94.63 L 689.03 93.20 L 692.26 90.98 L 695.48 89.37 L 698.71 87.83 L 701.94 86.47 L 705.16 84.89 L 708.39 82.94 L 711.61 81.21 L 714.84 79.67 L 718.06 78.00 L 721.29 75.69 L 724.52 73.79 L 727.74 71.76 L 730.97 69.74 L 734.19 67.85 L 737.42 66.00 L 740.65 64.04 L 743.87 62.28 L 747.10 60.74 L 750.32 59.31 L 753.55 57.80 L 756.77 56.33 L 760.00 55.00" fill="none" stroke="#3b82f6" stroke-width="3"
        stroke-linecap="round" stroke-linejoin="round" filter="url(#glow)" class="line-path"/>

  <!-- Data points -->
  
    <circle cx="60" cy="340" r="4" fill="#3b82f6" stroke="#0d1117" stroke-width="2" class="data-point"/>
  
    <circle cx="63.225806451612904" cy="339.8014191456686" r="4" fill="#3b82f6" stroke="#0d1117" stroke-width="2" class="data-point"/>
  
    <circle cx="66.45161290322581" cy="339.4636966042887" r="4" fill="#3b82f6" stroke="#0d1117" stroke-width="2" class="data-point"/>
  
    <circle cx="69.6774193548387" cy="339.1502900858882" r="4" fill="#3b82f6" stroke="#0d1117" stroke-width="2" class="data-point"/>
  
    <circle cx="72.90322580645162" cy="338.52752971958364" r="4" fill="#3b82f6" stroke="#0d1117" stroke-width="2" class="data-point"/>
  
    <circle cx="76.12903225806451" cy="337.8845060007963" r="4" fill="#3b82f6" stroke="#0d1117" stroke-width="2" class="data-point"/>
  
    <circle cx="79.35483870967742" cy="337.3779221887265" r="4" fill="#3b82f6" stroke="#0d1117" stroke-width="2" class="data-point"/>
  
    <circle cx="82.58064516129032" cy="336.9051106307946" r="4" fill="#3b82f6" stroke="#0d1117" stroke-width="2" class="data-point"/>
  
    <circle cx="85.80645161290323" cy="336.484983789318" r="4" fill="#3b82f6" stroke="#0d1117" stroke-width="2" class="data-point"/>
  
    <circle cx="89.03225806451613" cy="335.99190887890336" r="4" fill="#3b82f6" stroke="#0d1117" stroke-width="2" class="data-point"/>
  
    <circle cx="92.25806451612902" cy="335.4420965815369" r="4" fill="#3b82f6" stroke="#0d1117" stroke-width="2" class="data-point"/>
  
    <circle cx="95.48387096774194" cy="334.85310846937034" r="4" fill="#3b82f6" stroke="#0d1117" stroke-width="2" class="data-point"/>
  
    <circle cx="98.70967741935485" cy="334.3181559638246" r="4" fill="#3b82f6" stroke="#0d1117" stroke-width="2" class="data-point"/>
  
    <circle cx="101.93548387096774" cy="333.7494312041408" r="4" fill="#3b82f6" stroke="#0d1117" stroke-width="2" class="data-point"/>
  
    <circle cx="105.16129032258064" cy="333.33470792332633" r="4" fill="#3b82f6" stroke="#0d1117" stroke-width="2" class="data-point"/>
  
    <circle cx="108.38709677419355" cy="332.9051248506911" r="4" fill="#3b82f6" stroke="#0d1117" stroke-width="2" class="data-point"/>
  
    <circle cx="111.61290322580645" cy="332.3215402991866" r="4" fill="#3b82f6" stroke="#0d1117" stroke-width="2" class="data-point"/>
  
    <circle cx="114.83870967741936" cy="331.9311330413515" r="4" fill="#3b82f6" stroke="#0d1117" stroke-width="2" class="data-point"/>
  
    <circle cx="118.06451612903226" cy="331.39077697514364" r="4" fill="#3b82f6" stroke="#0d1117" stroke-width="2" class="data-point"/>
  
    <circle cx="121.29032258064515" cy="330.76666571867355" r="4" fill="#3b82f6" stroke="#0d1117" stroke-width="2" class="data-point"/>
  
    <circle cx="124.51612903225806" cy="330.29655594107277" r="4" fill="#3b82f6" stroke="#0d1117" stroke-width="2" class="data-point"/>
  
    <circle cx="127.74193548387096" cy="329.9102013537341" r="4" fill="#3b82f6" stroke="#0d1117" stroke-width="2" class="data-point"/>
  
    <circle cx="130.96774193548387" cy="329.66028667311303" r="4" fill="#3b82f6" stroke="#0d1117" stroke-width="2" class="data-point"/>
  
    <circle cx="134.19354838709677" cy="329.452249587623" r="4" fill="#3b82f6" stroke="#0d1117" stroke-width="2" class="data-point"/>
  
    <circle cx="137.4193548387097" cy="329.0672458904499" r="4" fill="#3b82f6" stroke="#0d1117" stroke-width="2" class="data-point"/>
  
    <circle cx="140.64516129032256" cy="328.79301518684946" r="4" fill="#3b82f6" stroke="#0d1117" stroke-width="2" class="data-point"/>
  
    <circle cx="143.8709677419355" cy="328.1918690631932" r="4" fill="#3b82f6" stroke="#0d1117" stroke-width="2" class="data-point"/>
  
    <circle cx="147.09677419354838" cy="327.9554632842273" r="4" fill="#3b82f6" stroke="#0d1117" stroke-width="2" class="data-point"/>
  
    <circle cx="150.32258064516128" cy="327.65016210681983" r="4" fill="#3b82f6" stroke="#0d1117" stroke-width="2" class="data-point"/>
  
    <circle cx="153.5483870967742" cy="327.25570217848815" r="4" fill="#3b82f6" stroke="#0d1117" stroke-width="2" class="data-point"/>
  
    <circle cx="156.7741935483871" cy="326.9855241453842" r="4" fill="#3b82f6" stroke="#0d1117" stroke-width="2" class="data-point"/>
  
    <circle cx="160" cy="326.71129344178377" r="4" fill="#3b82f6" stroke="#0d1117" stroke-width="2" class="data-point"/>
  
    <circle cx="163.2258064516129" cy="326.4235538365281" r="4" fill="#3b82f6" stroke="#0d1117" stroke-width="2" class="data-point"/>
  
    <circle cx="166.4516129032258" cy="326.2236220920312" r="4" fill="#3b82f6" stroke="#0d1117" stroke-width="2" class="data-point"/>
  
    <circle cx="169.67741935483872" cy="326.0507081508447" r="4" fill="#3b82f6" stroke="#0d1117" stroke-width="2" class="data-point"/>
  
    <circle cx="172.90322580645162" cy="325.78728456856834" r="4" fill="#3b82f6" stroke="#0d1117" stroke-width="2" class="data-point"/>
  
    <circle cx="176.1290322580645" cy="325.4671235993402" r="4" fill="#3b82f6" stroke="#0d1117" stroke-width="2" class="data-point"/>
  
    <circle cx="179.35483870967744" cy="325.1726295432569" r="4" fill="#3b82f6" stroke="#0d1117" stroke-width="2" class="data-point"/>
  
    <circle cx="182.5806451612903" cy="324.7997838575735" r="4" fill="#3b82f6" stroke="#0d1117" stroke-width="2" class="data-point"/>
  
    <circle cx="185.80645161290323" cy="324.3931659177521" r="4" fill="#3b82f6" stroke="#0d1117" stroke-width="2" class="data-point"/>
  
    <circle cx="189.03225806451613" cy="324.0203202320687" r="4" fill="#3b82f6" stroke="#0d1117" stroke-width="2" class="data-point"/>
  
    <circle cx="192.25806451612902" cy="323.5704738069507" r="4" fill="#3b82f6" stroke="#0d1117" stroke-width="2" class="data-point"/>
  
    <circle cx="195.48387096774192" cy="323.12873272282576" r="4" fill="#3b82f6" stroke="#0d1117" stroke-width="2" class="data-point"/>
  
    <circle cx="198.70967741935485" cy="322.6869916387009" r="4" fill="#3b82f6" stroke="#0d1117" stroke-width="2" class="data-point"/>
  
    <circle cx="201.93548387096774" cy="322.20337295944483" r="4" fill="#3b82f6" stroke="#0d1117" stroke-width="2" class="data-point"/>
  
    <circle cx="205.16129032258064" cy="321.74136852283715" r="4" fill="#3b82f6" stroke="#0d1117" stroke-width="2" class="data-point"/>
  
    <circle cx="208.38709677419354" cy="321.213170468119" r="4" fill="#3b82f6" stroke="#0d1117" stroke-width="2" class="data-point"/>
  
    <circle cx="211.61290322580646" cy="320.7417098003526" r="4" fill="#3b82f6" stroke="#0d1117" stroke-width="2" class="data-point"/>
  
    <circle cx="214.83870967741936" cy="320.3431972015244" r="4" fill="#3b82f6" stroke="#0d1117" stroke-width="2" class="data-point"/>
  
    <circle cx="218.06451612903226" cy="320.02438712246175" r="4" fill="#3b82f6" stroke="#0d1117" stroke-width="2" class="data-point"/>
  
    <circle cx="221.29032258064515" cy="319.5785933678403" r="4" fill="#3b82f6" stroke="#0d1117" stroke-width="2" class="data-point"/>
  
    <circle cx="224.51612903225808" cy="319.06930777543937" r="4" fill="#3b82f6" stroke="#0d1117" stroke-width="2" class="data-point"/>
  
    <circle cx="227.74193548387095" cy="318.60325066833514" r="4" fill="#3b82f6" stroke="#0d1117" stroke-width="2" class="data-point"/>
  
    <circle cx="230.96774193548387" cy="318.05884193163075" r="4" fill="#3b82f6" stroke="#0d1117" stroke-width="2" class="data-point"/>
  
    <circle cx="234.19354838709677" cy="317.3874495193675" r="4" fill="#3b82f6" stroke="#0d1117" stroke-width="2" class="data-point"/>
  
    <circle cx="237.4193548387097" cy="316.88762015812523" r="4" fill="#3b82f6" stroke="#0d1117" stroke-width="2" class="data-point"/>
  
    <circle cx="240.64516129032256" cy="316.47289687731075" r="4" fill="#3b82f6" stroke="#0d1117" stroke-width="2" class="data-point"/>
  
    <circle cx="243.87096774193546" cy="316.078436948979" r="4" fill="#3b82f6" stroke="#0d1117" stroke-width="2" class="data-point"/>
  
    <circle cx="247.09677419354838" cy="315.6042745008816" r="4" fill="#3b82f6" stroke="#0d1117" stroke-width="2" class="data-point"/>
  
    <circle cx="250.32258064516128" cy="315.05311131334963" r="4" fill="#3b82f6" stroke="#0d1117" stroke-width="2" class="data-point"/>
  
    <circle cx="253.5483870967742" cy="314.4425089585348" r="4" fill="#3b82f6" stroke="#0d1117" stroke-width="2" class="data-point"/>
  
    <circle cx="256.7741935483871" cy="313.80083612991297" r="4" fill="#3b82f6" stroke="#0d1117" stroke-width="2" class="data-point"/>
  
    <circle cx="260" cy="313.18483021443603" r="4" fill="#3b82f6" stroke="#0d1117" stroke-width="2" class="data-point"/>
  
    <circle cx="263.2258064516129" cy="312.6431232580627" r="4" fill="#3b82f6" stroke="#0d1117" stroke-width="2" class="data-point"/>
  
    <circle cx="266.4516129032258" cy="312.10546897218586" r="4" fill="#3b82f6" stroke="#0d1117" stroke-width="2" class="data-point"/>
  
    <circle cx="269.67741935483866" cy="311.63130652408853" r="4" fill="#3b82f6" stroke="#0d1117" stroke-width="2" class="data-point"/>
  
    <circle cx="272.9032258064516" cy="311.1476878448325" r="4" fill="#3b82f6" stroke="#0d1117" stroke-width="2" class="data-point"/>
  
    <circle cx="276.1290322580645" cy="310.60733177862465" r="4" fill="#3b82f6" stroke="#0d1117" stroke-width="2" class="data-point"/>
  
    <circle cx="279.35483870967744" cy="309.93458847619587" r="4" fill="#3b82f6" stroke="#0d1117" stroke-width="2" class="data-point"/>
  
    <circle cx="282.58064516129036" cy="309.43340822478814" r="4" fill="#3b82f6" stroke="#0d1117" stroke-width="2" class="data-point"/>
  
    <circle cx="285.80645161290323" cy="308.9849126898356" r="4" fill="#3b82f6" stroke="#0d1117" stroke-width="2" class="data-point"/>
  
    <circle cx="289.03225806451616" cy="308.48643421875886" r="4" fill="#3b82f6" stroke="#0d1117" stroke-width="2" class="data-point"/>
  
    <circle cx="292.258064516129" cy="308.0217280018201" r="4" fill="#3b82f6" stroke="#0d1117" stroke-width="2" class="data-point"/>
  
    <circle cx="295.48387096774195" cy="307.51109151925374" r="4" fill="#3b82f6" stroke="#0d1117" stroke-width="2" class="data-point"/>
  
    <circle cx="298.7096774193549" cy="306.978840794039" r="4" fill="#3b82f6" stroke="#0d1117" stroke-width="2" class="data-point"/>
  
    <circle cx="301.93548387096774" cy="306.422274045845" r="4" fill="#3b82f6" stroke="#0d1117" stroke-width="2" class="data-point"/>
  
    <circle cx="305.1612903225806" cy="305.9346026960924" r="4" fill="#3b82f6" stroke="#0d1117" stroke-width="2" class="data-point"/>
  
    <circle cx="308.38709677419354" cy="305.51717763494685" r="4" fill="#3b82f6" stroke="#0d1117" stroke-width="2" class="data-point"/>
  
    <circle cx="311.61290322580646" cy="305.05922586883565" r="4" fill="#3b82f6" stroke="#0d1117" stroke-width="2" class="data-point"/>
  
    <circle cx="314.83870967741933" cy="304.56344917808997" r="4" fill="#3b82f6" stroke="#0d1117" stroke-width="2" class="data-point"/>
  
    <circle cx="318.06451612903226" cy="304.10414652181333" r="4" fill="#3b82f6" stroke="#0d1117" stroke-width="2" class="data-point"/>
  
    <circle cx="321.2903225806452" cy="303.50570217848815" r="4" fill="#3b82f6" stroke="#0d1117" stroke-width="2" class="data-point"/>
  
    <circle cx="324.51612903225805" cy="302.99101302542516" r="4" fill="#3b82f6" stroke="#0d1117" stroke-width="2" class="data-point"/>
  
    <circle cx="327.741935483871" cy="302.4952363346795" r="4" fill="#3b82f6" stroke="#0d1117" stroke-width="2" class="data-point"/>
  
    <circle cx="330.96774193548384" cy="302.083214834196" r="4" fill="#3b82f6" stroke="#0d1117" stroke-width="2" class="data-point"/>
  
    <circle cx="334.19354838709677" cy="301.6833513452022" r="4" fill="#3b82f6" stroke="#0d1117" stroke-width="2" class="data-point"/>
  
    <circle cx="337.4193548387097" cy="301.2821369660429" r="4" fill="#3b82f6" stroke="#0d1117" stroke-width="2" class="data-point"/>
  
    <circle cx="340.64516129032256" cy="300.8025709572834" r="4" fill="#3b82f6" stroke="#0d1117" stroke-width="2" class="data-point"/>
  
    <circle cx="343.8709677419355" cy="300.3094960468688" r="4" fill="#3b82f6" stroke="#0d1117" stroke-width="2" class="data-point"/>
  
    <circle cx="347.0967741935484" cy="299.7110517035436" r="4" fill="#3b82f6" stroke="#0d1117" stroke-width="2" class="data-point"/>
  
    <circle cx="350.3225806451613" cy="299.22608213412207" r="4" fill="#3b82f6" stroke="#0d1117" stroke-width="2" class="data-point"/>
  
    <circle cx="353.5483870967742" cy="298.8302713156248" r="4" fill="#3b82f6" stroke="#0d1117" stroke-width="2" class="data-point"/>
  
    <circle cx="356.7741935483871" cy="298.42365337580344" r="4" fill="#3b82f6" stroke="#0d1117" stroke-width="2" class="data-point"/>
  
    <circle cx="360" cy="298.0345970081338" r="4" fill="#3b82f6" stroke="#0d1117" stroke-width="2" class="data-point"/>
  
    <circle cx="363.2258064516129" cy="297.5536801092088" r="4" fill="#3b82f6" stroke="#0d1117" stroke-width="2" class="data-point"/>
  
    <circle cx="366.4516129032258" cy="297.0606051987942" r="4" fill="#3b82f6" stroke="#0d1117" stroke-width="2" class="data-point"/>
  
    <circle cx="369.6774193548387" cy="295.97043683521986" r="4" fill="#3b82f6" stroke="#0d1117" stroke-width="2" class="data-point"/>
  
    <circle cx="372.90322580645164" cy="293.80090722939536" r="4" fill="#3b82f6" stroke="#0d1117" stroke-width="2" class="data-point"/>
  
    <circle cx="376.1290322580645" cy="291.2166543427564" r="4" fill="#3b82f6" stroke="#0d1117" stroke-width="2" class="data-point"/>
  
    <circle cx="379.35483870967744" cy="288.86205278425575" r="4" fill="#3b82f6" stroke="#0d1117" stroke-width="2" class="data-point"/>
  
    <circle cx="382.5806451612903" cy="287.66786587793644" r="4" fill="#3b82f6" stroke="#0d1117" stroke-width="2" class="data-point"/>
  
    <circle cx="385.80645161290323" cy="285.86848017746433" r="4" fill="#3b82f6" stroke="#0d1117" stroke-width="2" class="data-point"/>
  
    <circle cx="389.03225806451616" cy="284.67294238097946" r="4" fill="#3b82f6" stroke="#0d1117" stroke-width="2" class="data-point"/>
  
    <circle cx="392.258064516129" cy="283.62465161253624" r="4" fill="#3b82f6" stroke="#0d1117" stroke-width="2" class="data-point"/>
  
    <circle cx="395.4838709677419" cy="282.59932597690687" r="4" fill="#3b82f6" stroke="#0d1117" stroke-width="2" class="data-point"/>
  
    <circle cx="398.7096774193549" cy="281.6334395085604" r="4" fill="#3b82f6" stroke="#0d1117" stroke-width="2" class="data-point"/>
  
    <circle cx="401.93548387096774" cy="280.1312496445026" r="4" fill="#3b82f6" stroke="#0d1117" stroke-width="2" class="data-point"/>
  
    <circle cx="405.1612903225806" cy="278.9370627381833" r="4" fill="#3b82f6" stroke="#0d1117" stroke-width="2" class="data-point"/>
  
    <circle cx="408.38709677419354" cy="277.4105568511461" r="4" fill="#3b82f6" stroke="#0d1117" stroke-width="2" class="data-point"/>
  
    <circle cx="411.61290322580646" cy="277.0985012229111" r="4" fill="#3b82f6" stroke="#0d1117" stroke-width="2" class="data-point"/>
  
    <circle cx="414.8387096774194" cy="277.0579745179455" r="4" fill="#3b82f6" stroke="#0d1117" stroke-width="2" class="data-point"/>
  
    <circle cx="418.06451612903226" cy="277.0052898014902" r="4" fill="#3b82f6" stroke="#0d1117" stroke-width="2" class="data-point"/>
  
    <circle cx="421.2903225806451" cy="276.9607104260281" r="4" fill="#3b82f6" stroke="#0d1117" stroke-width="2" class="data-point"/>
  
    <circle cx="424.51612903225805" cy="276.9026221489107" r="4" fill="#3b82f6" stroke="#0d1117" stroke-width="2" class="data-point"/>
  
    <circle cx="427.7419354838709" cy="276.85128832262103" r="4" fill="#3b82f6" stroke="#0d1117" stroke-width="2" class="data-point"/>
  
    <circle cx="430.9677419354839" cy="276.83102497013823" r="4" fill="#3b82f6" stroke="#0d1117" stroke-width="2" class="data-point"/>
  
    <circle cx="434.19354838709677" cy="276.75672601103463" r="4" fill="#3b82f6" stroke="#0d1117" stroke-width="2" class="data-point"/>
  
    <circle cx="437.4193548387097" cy="276.6851288322621" r="4" fill="#3b82f6" stroke="#0d1117" stroke-width="2" class="data-point"/>
  
    <circle cx="440.64516129032256" cy="276.63784767646894" r="4" fill="#3b82f6" stroke="#0d1117" stroke-width="2" class="data-point"/>
  
    <circle cx="443.87096774193543" cy="276.6202861043172" r="4" fill="#3b82f6" stroke="#0d1117" stroke-width="2" class="data-point"/>
  
    <circle cx="447.0967741935484" cy="276.5405835845515" r="4" fill="#3b82f6" stroke="#0d1117" stroke-width="2" class="data-point"/>
  
    <circle cx="450.32258064516134" cy="274.5817928445481" r="4" fill="#3b82f6" stroke="#0d1117" stroke-width="2" class="data-point"/>
  
    <circle cx="453.5483870967742" cy="271.51392127865313" r="4" fill="#3b82f6" stroke="#0d1117" stroke-width="2" class="data-point"/>
  
    <circle cx="456.7741935483871" cy="269.4592173368978" r="4" fill="#3b82f6" stroke="#0d1117" stroke-width="2" class="data-point"/>
  
    <circle cx="460" cy="267.0735453045902" r="4" fill="#3b82f6" stroke="#0d1117" stroke-width="2" class="data-point"/>
  
    <circle cx="463.22580645161287" cy="264.6149252033445" r="4" fill="#3b82f6" stroke="#0d1117" stroke-width="2" class="data-point"/>
  
    <circle cx="466.45161290322585" cy="262.6858540469825" r="4" fill="#3b82f6" stroke="#0d1117" stroke-width="2" class="data-point"/>
  
    <circle cx="469.6774193548387" cy="260.5284824526477" r="4" fill="#3b82f6" stroke="#0d1117" stroke-width="2" class="data-point"/>
  
    <circle cx="472.9032258064516" cy="257.24176667993856" r="4" fill="#3b82f6" stroke="#0d1117" stroke-width="2" class="data-point"/>
  
    <circle cx="476.1290322580645" cy="252.8121978271998" r="4" fill="#3b82f6" stroke="#0d1117" stroke-width="2" class="data-point"/>
  
    <circle cx="479.3548387096774" cy="249.92129287298786" r="4" fill="#3b82f6" stroke="#0d1117" stroke-width="2" class="data-point"/>
  
    <circle cx="482.58064516129036" cy="246.48057562140946" r="4" fill="#3b82f6" stroke="#0d1117" stroke-width="2" class="data-point"/>
  
    <circle cx="485.80645161290323" cy="242.64674933166486" r="4" fill="#3b82f6" stroke="#0d1117" stroke-width="2" class="data-point"/>
  
    <circle cx="489.03225806451616" cy="239.57212331494225" r="4" fill="#3b82f6" stroke="#0d1117" stroke-width="2" class="data-point"/>
  
    <circle cx="492.258064516129" cy="236.23542460610886" r="4" fill="#3b82f6" stroke="#0d1117" stroke-width="2" class="data-point"/>
  
    <circle cx="495.4838709677419" cy="233.27562425345542" r="4" fill="#3b82f6" stroke="#0d1117" stroke-width="2" class="data-point"/>
  
    <circle cx="498.7096774193548" cy="230.3428417041124" r="4" fill="#3b82f6" stroke="#0d1117" stroke-width="2" class="data-point"/>
  
    <circle cx="501.93548387096774" cy="227.41816449576248" r="4" fill="#3b82f6" stroke="#0d1117" stroke-width="2" class="data-point"/>
  
    <circle cx="505.16129032258067" cy="223.4357402878107" r="4" fill="#3b82f6" stroke="#0d1117" stroke-width="2" class="data-point"/>
  
    <circle cx="508.38709677419354" cy="219.44115806836928" r="4" fill="#3b82f6" stroke="#0d1117" stroke-width="2" class="data-point"/>
  
    <circle cx="511.61290322580646" cy="216.11121381036347" r="4" fill="#3b82f6" stroke="#0d1117" stroke-width="2" class="data-point"/>
  
    <circle cx="514.8387096774193" cy="213.32027472839997" r="4" fill="#3b82f6" stroke="#0d1117" stroke-width="2" class="data-point"/>
  
    <circle cx="518.0645161290323" cy="210.6130908366987" r="4" fill="#3b82f6" stroke="#0d1117" stroke-width="2" class="data-point"/>
  
    <circle cx="521.2903225806451" cy="207.0197229964166" r="4" fill="#3b82f6" stroke="#0d1117" stroke-width="2" class="data-point"/>
  
    <circle cx="524.516129032258" cy="204.23283658494967" r="4" fill="#3b82f6" stroke="#0d1117" stroke-width="2" class="data-point"/>
  
    <circle cx="527.741935483871" cy="201.47566975712417" r="4" fill="#3b82f6" stroke="#0d1117" stroke-width="2" class="data-point"/>
  
    <circle cx="530.9677419354839" cy="198.89682043114726" r="4" fill="#3b82f6" stroke="#0d1117" stroke-width="2" class="data-point"/>
  
    <circle cx="534.1935483870968" cy="196.46791991354303" r="4" fill="#3b82f6" stroke="#0d1117" stroke-width="2" class="data-point"/>
  
    <circle cx="537.4193548387098" cy="193.97958022865595" r="4" fill="#3b82f6" stroke="#0d1117" stroke-width="2" class="data-point"/>
  
    <circle cx="540.6451612903227" cy="191.85192821796255" r="4" fill="#3b82f6" stroke="#0d1117" stroke-width="2" class="data-point"/>
  
    <circle cx="543.8709677419355" cy="189.64862635800012" r="4" fill="#3b82f6" stroke="#0d1117" stroke-width="2" class="data-point"/>
  
    <circle cx="547.0967741935483" cy="187.39939423240997" r="4" fill="#3b82f6" stroke="#0d1117" stroke-width="2" class="data-point"/>
  
    <circle cx="550.3225806451612" cy="185.0218275410955" r="4" fill="#3b82f6" stroke="#0d1117" stroke-width="2" class="data-point"/>
  
    <circle cx="553.5483870967741" cy="182.84013992378138" r="4" fill="#3b82f6" stroke="#0d1117" stroke-width="2" class="data-point"/>
  
    <circle cx="556.7741935483871" cy="180.84217336897788" r="4" fill="#3b82f6" stroke="#0d1117" stroke-width="2" class="data-point"/>
  
    <circle cx="560" cy="177.22178772538535" r="4" fill="#3b82f6" stroke="#0d1117" stroke-width="2" class="data-point"/>
  
    <circle cx="563.2258064516129" cy="174.1917410841249" r="4" fill="#3b82f6" stroke="#0d1117" stroke-width="2" class="data-point"/>
  
    <circle cx="566.4516129032259" cy="171.28192366759572" r="4" fill="#3b82f6" stroke="#0d1117" stroke-width="2" class="data-point"/>
  
    <circle cx="569.6774193548387" cy="168.48693191513567" r="4" fill="#3b82f6" stroke="#0d1117" stroke-width="2" class="data-point"/>
  
    <circle cx="572.9032258064517" cy="164.07357374438314" r="4" fill="#3b82f6" stroke="#0d1117" stroke-width="2" class="data-point"/>
  
    <circle cx="576.1290322580645" cy="161.2812837722541" r="4" fill="#3b82f6" stroke="#0d1117" stroke-width="2" class="data-point"/>
  
    <circle cx="579.3548387096774" cy="158.86454126613958" r="4" fill="#3b82f6" stroke="#0d1117" stroke-width="2" class="data-point"/>
  
    <circle cx="582.5806451612904" cy="156.0101103463967" r="4" fill="#3b82f6" stroke="#0d1117" stroke-width="2" class="data-point"/>
  
    <circle cx="585.8064516129032" cy="151.80208748080315" r="4" fill="#3b82f6" stroke="#0d1117" stroke-width="2" class="data-point"/>
  
    <circle cx="589.0322580645161" cy="148.77474261987373" r="4" fill="#3b82f6" stroke="#0d1117" stroke-width="2" class="data-point"/>
  
    <circle cx="592.258064516129" cy="146.21885842671065" r="4" fill="#3b82f6" stroke="#0d1117" stroke-width="2" class="data-point"/>
  
    <circle cx="595.483870967742" cy="144.0560832717138" r="4" fill="#3b82f6" stroke="#0d1117" stroke-width="2" class="data-point"/>
  
    <circle cx="598.7096774193549" cy="142.00408111028952" r="4" fill="#3b82f6" stroke="#0d1117" stroke-width="2" class="data-point"/>
  
    <circle cx="601.9354838709677" cy="140.3357317558728" r="4" fill="#3b82f6" stroke="#0d1117" stroke-width="2" class="data-point"/>
  
    <circle cx="605.1612903225806" cy="138.45664353563504" r="4" fill="#3b82f6" stroke="#0d1117" stroke-width="2" class="data-point"/>
  
    <circle cx="608.3870967741935" cy="136.92473408793583" r="4" fill="#3b82f6" stroke="#0d1117" stroke-width="2" class="data-point"/>
  
    <circle cx="611.6129032258065" cy="135.1172430464706" r="4" fill="#3b82f6" stroke="#0d1117" stroke-width="2" class="data-point"/>
  
    <circle cx="614.8387096774194" cy="132.51542858767988" r="4" fill="#3b82f6" stroke="#0d1117" stroke-width="2" class="data-point"/>
  
    <circle cx="618.0645161290322" cy="130.27970536374494" r="4" fill="#3b82f6" stroke="#0d1117" stroke-width="2" class="data-point"/>
  
    <circle cx="621.2903225806451" cy="128.33577441556227" r="4" fill="#3b82f6" stroke="#0d1117" stroke-width="2" class="data-point"/>
  
    <circle cx="624.516129032258" cy="126.65526704965589" r="4" fill="#3b82f6" stroke="#0d1117" stroke-width="2" class="data-point"/>
  
    <circle cx="627.741935483871" cy="124.92207496729424" r="4" fill="#3b82f6" stroke="#0d1117" stroke-width="2" class="data-point"/>
  
    <circle cx="630.9677419354839" cy="123.46041180820202" r="4" fill="#3b82f6" stroke="#0d1117" stroke-width="2" class="data-point"/>
  
    <circle cx="634.1935483870968" cy="121.00314259712187" r="4" fill="#3b82f6" stroke="#0d1117" stroke-width="2" class="data-point"/>
  
    <circle cx="637.4193548387096" cy="118.90250838973893" r="4" fill="#3b82f6" stroke="#0d1117" stroke-width="2" class="data-point"/>
  
    <circle cx="640.6451612903226" cy="116.81943575450768" r="4" fill="#3b82f6" stroke="#0d1117" stroke-width="2" class="data-point"/>
  
    <circle cx="643.8709677419355" cy="115.09975257380128" r="4" fill="#3b82f6" stroke="#0d1117" stroke-width="2" class="data-point"/>
  
    <circle cx="647.0967741935484" cy="113.52191286047437" r="4" fill="#3b82f6" stroke="#0d1117" stroke-width="2" class="data-point"/>
  
    <circle cx="650.3225806451613" cy="112.12103975883056" r="4" fill="#3b82f6" stroke="#0d1117" stroke-width="2" class="data-point"/>
  
    <circle cx="653.5483870967741" cy="109.71915704453673" r="4" fill="#3b82f6" stroke="#0d1117" stroke-width="2" class="data-point"/>
  
    <circle cx="656.7741935483871" cy="107.76847164552643" r="4" fill="#3b82f6" stroke="#0d1117" stroke-width="2" class="data-point"/>
  
    <circle cx="660" cy="105.99070018770263" r="4" fill="#3b82f6" stroke="#0d1117" stroke-width="2" class="data-point"/>
  
    <circle cx="663.2258064516129" cy="104.2926312496445" r="4" fill="#3b82f6" stroke="#0d1117" stroke-width="2" class="data-point"/>
  
    <circle cx="666.4516129032259" cy="102.81070473806949" r="4" fill="#3b82f6" stroke="#0d1117" stroke-width="2" class="data-point"/>
  
    <circle cx="669.6774193548387" cy="101.37200671179113" r="4" fill="#3b82f6" stroke="#0d1117" stroke-width="2" class="data-point"/>
  
    <circle cx="672.9032258064516" cy="100.05353791024402" r="4" fill="#3b82f6" stroke="#0d1117" stroke-width="2" class="data-point"/>
  
    <circle cx="676.1290322580645" cy="98.78910471531765" r="4" fill="#3b82f6" stroke="#0d1117" stroke-width="2" class="data-point"/>
  
    <circle cx="679.3548387096774" cy="97.63004095330186" r="4" fill="#3b82f6" stroke="#0d1117" stroke-width="2" class="data-point"/>
  
    <circle cx="682.5806451612904" cy="96.18323758603037" r="4" fill="#3b82f6" stroke="#0d1117" stroke-width="2" class="data-point"/>
  
    <circle cx="685.8064516129033" cy="94.62971389568284" r="4" fill="#3b82f6" stroke="#0d1117" stroke-width="2" class="data-point"/>
  
    <circle cx="689.0322580645161" cy="93.2004721005631" r="4" fill="#3b82f6" stroke="#0d1117" stroke-width="2" class="data-point"/>
  
    <circle cx="692.258064516129" cy="90.97960866844892" r="4" fill="#3b82f6" stroke="#0d1117" stroke-width="2" class="data-point"/>
  
    <circle cx="695.483870967742" cy="89.36799670098401" r="4" fill="#3b82f6" stroke="#0d1117" stroke-width="2" class="data-point"/>
  
    <circle cx="698.7096774193549" cy="87.82663102212615" r="4" fill="#3b82f6" stroke="#0d1117" stroke-width="2" class="data-point"/>
  
    <circle cx="701.9354838709678" cy="86.47438996644104" r="4" fill="#3b82f6" stroke="#0d1117" stroke-width="2" class="data-point"/>
  
    <circle cx="705.1612903225806" cy="84.88844491212103" r="4" fill="#3b82f6" stroke="#0d1117" stroke-width="2" class="data-point"/>
  
    <circle cx="708.3870967741935" cy="82.94046129344179" r="4" fill="#3b82f6" stroke="#0d1117" stroke-width="2" class="data-point"/>
  
    <circle cx="711.6129032258065" cy="81.21402366190773" r="4" fill="#3b82f6" stroke="#0d1117" stroke-width="2" class="data-point"/>
  
    <circle cx="714.8387096774193" cy="79.67265798304987" r="4" fill="#3b82f6" stroke="#0d1117" stroke-width="2" class="data-point"/>
  
    <circle cx="718.0645161290323" cy="77.99890506797112" r="4" fill="#3b82f6" stroke="#0d1117" stroke-width="2" class="data-point"/>
  
    <circle cx="721.2903225806451" cy="75.69023377509814" r="4" fill="#3b82f6" stroke="#0d1117" stroke-width="2" class="data-point"/>
  
    <circle cx="724.516129032258" cy="73.79493487287414" r="4" fill="#3b82f6" stroke="#0d1117" stroke-width="2" class="data-point"/>
  
    <circle cx="727.741935483871" cy="71.76184517376714" r="4" fill="#3b82f6" stroke="#0d1117" stroke-width="2" class="data-point"/>
  
    <circle cx="730.9677419354838" cy="69.73550992548775" r="4" fill="#3b82f6" stroke="#0d1117" stroke-width="2" class="data-point"/>
  
    <circle cx="734.1935483870968" cy="67.84831636425685" r="4" fill="#3b82f6" stroke="#0d1117" stroke-width="2" class="data-point"/>
  
    <circle cx="737.4193548387098" cy="65.9962459473295" r="4" fill="#3b82f6" stroke="#0d1117" stroke-width="2" class="data-point"/>
  
    <circle cx="740.6451612903226" cy="64.03610431716055" r="4" fill="#3b82f6" stroke="#0d1117" stroke-width="2" class="data-point"/>
  
    <circle cx="743.8709677419355" cy="62.278596211819604" r="4" fill="#3b82f6" stroke="#0d1117" stroke-width="2" class="data-point"/>
  
    <circle cx="747.0967741935484" cy="60.73858142312724" r="4" fill="#3b82f6" stroke="#0d1117" stroke-width="2" class="data-point"/>
  
    <circle cx="750.3225806451612" cy="59.31204140833853" r="4" fill="#3b82f6" stroke="#0d1117" stroke-width="2" class="data-point"/>
  
    <circle cx="753.5483870967743" cy="57.803097093453175" r="4" fill="#3b82f6" stroke="#0d1117" stroke-width="2" class="data-point"/>
  
    <circle cx="756.7741935483871" cy="56.330626813036815" r="4" fill="#3b82f6" stroke="#0d1117" stroke-width="2" class="data-point"/>
  
    <circle cx="760" cy="55" r="4" fill="#3b82f6" stroke="#0d1117" stroke-width="2" class="data-point"/>
  

  <!-- Axis lines -->
  <line x1="60" y1="55" x2="60" y2="340"
        stroke="#30363d" stroke-width="2"/>
  <line x1="60" y1="340" x2="760" y2="340"
        stroke="#30363d" stroke-width="2"/>
</svg>