<?xml version="1.0" encoding="UTF-8"?>
<svg width="800" height="400" xmlns="http://www.w3.org/2000/svg">
  <defs>
    <!-- Gradient for area fill -->
    <linearGradient id="areaGradient" x1="0%" y1="0%" x2="0%" y2="100%">
      <stop offset="0%" style="stop-color:#3b82f6;stop-opacity:0.3" />
      <stop offset="100%" style="stop-color:#3b82f6;stop-opacity:0.05" />
    </linearGradient>

    <!-- Glow filter for line -->
    <filter id="glow">
      <feGaussianBlur stdDeviation="2" result="coloredBlur"/>
      <feMerge>
        <feMergeNode in="coloredBlur"/>
        <feMergeNode in="SourceGraphic"/>
      </feMerge>
    </filter>

    <!-- Animation -->
    <style>
      @keyframes draw {
        from { stroke-dashoffset: 2000; }
        to { stroke-dashoffset: 0; }
      }
      @keyframes fadeIn {
        from { opacity: 0; }
        to { opacity: 1; }
      }
      .line-path {
        stroke-dasharray: 2000;
        stroke-dashoffset: 2000;
        animation: draw 1.5s ease-out forwards;
      }
      .area-path {
        opacity: 0;
        animation: fadeIn 1s ease-out 0.5s forwards;
      }
      .data-point {
        opacity: 0;
        animation: fadeIn 0.5s ease-out 1s forwards;
      }
    </style>
  </defs>

  <!-- Background -->
  <rect width="800" height="400" fill="#0d1117" rx="8"/>

  <!-- Title -->
  <text x="400" y="25" text-anchor="middle" fill="#c9d1d9" font-family="system-ui, -apple-system, sans-serif" font-size="16" font-weight="600">
    zxcloli666/SoundCloud-Desktop Downloads
  </text>

  <!-- Stats -->
  <text x="780" y="25" text-anchor="end" fill="#58a6ff" font-family="system-ui, -apple-system, sans-serif" font-size="14" font-weight="600">
    286.1K total
  </text>
  <text x="780" y="42" text-anchor="end" fill="#3fb950" font-family="system-ui, -apple-system, sans-serif" font-size="12">
    +869 (+0.3%)
  </text>

  <!-- Grid lines -->
  <g opacity="0.1">
    
      <line x1="60" y1="340" x2="760" y2="340"
            stroke="#c9d1d9" stroke-width="1"/>
    
      <line x1="60" y1="268.75" x2="760" y2="268.75"
            stroke="#c9d1d9" stroke-width="1"/>
    
      <line x1="60" y1="197.5" x2="760" y2="197.5"
            stroke="#c9d1d9" stroke-width="1"/>
    
      <line x1="60" y1="126.25" x2="760" y2="126.25"
            stroke="#c9d1d9" stroke-width="1"/>
    
      <line x1="60" y1="55" x2="760" y2="55"
            stroke="#c9d1d9" stroke-width="1"/>
    
  </g>

  <!-- Y-axis labels -->
  
    <text x="50" y="344" text-anchor="end"
          fill="#8b949e" font-family="system-ui, -apple-system, sans-serif" font-size="11">
      60.2K
    </text>
  
    <text x="50" y="272.75" text-anchor="end"
          fill="#8b949e" font-family="system-ui, -apple-system, sans-serif" font-size="11">
      116.7K
    </text>
  
    <text x="50" y="201.5" text-anchor="end"
          fill="#8b949e" font-family="system-ui, -apple-system, sans-serif" font-size="11">
      173.2K
    </text>
  
    <text x="50" y="130.25" text-anchor="end"
          fill="#8b949e" font-family="system-ui, -apple-system, sans-serif" font-size="11">
      229.7K
    </text>
  
    <text x="50" y="59" text-anchor="end"
          fill="#8b949e" font-family="system-ui, -apple-system, sans-serif" font-size="11">
      286.1K
    </text>
  

  <!-- X-axis labels -->
  
    <text x="60" y="360" text-anchor="middle"
          fill="#8b949e" font-family="system-ui, -apple-system, sans-serif" font-size="11">
      Nov 25
    </text>
  
    <text x="147.1244635193133" y="360" text-anchor="middle"
          fill="#8b949e" font-family="system-ui, -apple-system, sans-serif" font-size="11">
      Dec 24
    </text>
  
    <text x="234.24892703862662" y="360" text-anchor="middle"
          fill="#8b949e" font-family="system-ui, -apple-system, sans-serif" font-size="11">
      Jan 22
    </text>
  
    <text x="321.3733905579399" y="360" text-anchor="middle"
          fill="#8b949e" font-family="system-ui, -apple-system, sans-serif" font-size="11">
      Feb 20
    </text>
  
    <text x="408.49785407725324" y="360" text-anchor="middle"
          fill="#8b949e" font-family="system-ui, -apple-system, sans-serif" font-size="11">
      Mar 21
    </text>
  
    <text x="495.6223175965665" y="360" text-anchor="middle"
          fill="#8b949e" font-family="system-ui, -apple-system, sans-serif" font-size="11">
      Apr 19
    </text>
  
    <text x="582.7467811158798" y="360" text-anchor="middle"
          fill="#8b949e" font-family="system-ui, -apple-system, sans-serif" font-size="11">
      May 18
    </text>
  
    <text x="669.8712446351931" y="360" text-anchor="middle"
          fill="#8b949e" font-family="system-ui, -apple-system, sans-serif" font-size="11">
      Jun 16
    </text>
  
    <text x="756.9957081545065" y="360" text-anchor="middle"
          fill="#8b949e" font-family="system-ui, -apple-system, sans-serif" font-size="11">
      Jul 15
    </text>
  
    <text x="760" y="360" text-anchor="middle"
          fill="#8b949e" font-family="system-ui, -apple-system, sans-serif" font-size="11">
      Jul 16
    </text>
  

  <!-- Area under line -->
  <path d="M 60 340
    L 60.00 340.00 L 63.00 339.81 L 66.01 339.50 L 69.01 339.21 L 72.02 338.63 L 75.02 338.03 L 78.03 337.55 L 81.03 337.11 L 84.03 336.72 L 87.04 336.26 L 90.04 335.75 L 93.05 335.20 L 96.05 334.70 L 99.06 334.17 L 102.06 333.78 L 105.06 333.38 L 108.07 332.83 L 111.07 332.47 L 114.08 331.96 L 117.08 331.38 L 120.09 330.94 L 123.09 330.58 L 126.09 330.35 L 129.10 330.15 L 132.10 329.79 L 135.11 329.54 L 138.11 328.98 L 141.12 328.76 L 144.12 328.47 L 147.12 328.10 L 150.13 327.85 L 153.13 327.59 L 156.14 327.33 L 159.14 327.14 L 162.15 326.98 L 165.15 326.73 L 168.15 326.43 L 171.16 326.16 L 174.16 325.81 L 177.17 325.43 L 180.17 325.08 L 183.18 324.66 L 186.18 324.25 L 189.18 323.84 L 192.19 323.39 L 195.19 322.96 L 198.20 322.46 L 201.20 322.02 L 204.21 321.65 L 207.21 321.35 L 210.21 320.94 L 213.22 320.46 L 216.22 320.03 L 219.23 319.52 L 222.23 318.89 L 225.24 318.42 L 228.24 318.04 L 231.24 317.67 L 234.25 317.23 L 237.25 316.71 L 240.26 316.14 L 243.26 315.54 L 246.27 314.97 L 249.27 314.46 L 252.27 313.96 L 255.28 313.52 L 258.28 313.07 L 261.29 312.56 L 264.29 311.93 L 267.30 311.47 L 270.30 311.05 L 273.30 310.58 L 276.31 310.15 L 279.31 309.67 L 282.32 309.17 L 285.32 308.65 L 288.33 308.20 L 291.33 307.81 L 294.33 307.38 L 297.34 306.92 L 300.34 306.49 L 303.35 305.93 L 306.35 305.45 L 309.36 304.99 L 312.36 304.60 L 315.36 304.23 L 318.37 303.86 L 321.37 303.41 L 324.38 302.95 L 327.38 302.39 L 330.39 301.94 L 333.39 301.57 L 336.39 301.19 L 339.40 300.82 L 342.40 300.38 L 345.41 299.92 L 348.41 298.90 L 351.42 296.87 L 354.42 294.46 L 357.42 292.26 L 360.43 291.15 L 363.43 289.47 L 366.44 288.35 L 369.44 287.37 L 372.45 286.42 L 375.45 285.51 L 378.45 284.11 L 381.46 283.00 L 384.46 281.57 L 387.47 281.28 L 390.47 281.24 L 393.48 281.19 L 396.48 281.15 L 399.48 281.10 L 402.49 281.05 L 405.49 281.03 L 408.50 280.96 L 411.50 280.90 L 414.51 280.85 L 417.51 280.83 L 420.52 280.76 L 423.52 278.93 L 426.52 276.07 L 429.53 274.15 L 432.53 271.92 L 435.54 269.63 L 438.54 267.83 L 441.55 265.81 L 444.55 262.74 L 447.55 258.61 L 450.56 255.91 L 453.56 252.70 L 456.57 249.12 L 459.57 246.25 L 462.58 243.13 L 465.58 240.37 L 468.58 237.63 L 471.59 234.90 L 474.59 231.19 L 477.60 227.46 L 480.60 224.35 L 483.61 221.74 L 486.61 219.22 L 489.61 215.86 L 492.62 213.26 L 495.62 210.69 L 498.63 208.28 L 501.63 206.01 L 504.64 203.69 L 507.64 201.70 L 510.64 199.65 L 513.65 197.55 L 516.65 195.33 L 519.66 193.29 L 522.66 191.42 L 525.67 188.05 L 528.67 185.22 L 531.67 182.50 L 534.68 179.89 L 537.68 175.77 L 540.69 173.16 L 543.69 170.91 L 546.70 168.24 L 549.70 164.32 L 552.70 161.49 L 555.71 159.10 L 558.71 157.08 L 561.72 155.17 L 564.72 153.61 L 567.73 151.86 L 570.73 150.43 L 573.73 148.74 L 576.74 146.31 L 579.74 144.22 L 582.75 142.41 L 585.75 140.84 L 588.76 139.22 L 591.76 137.86 L 594.76 135.56 L 597.77 133.60 L 600.77 131.66 L 603.78 130.05 L 606.78 128.58 L 609.79 127.27 L 612.79 125.03 L 615.79 123.21 L 618.80 121.55 L 621.80 119.97 L 624.81 118.58 L 627.81 117.24 L 630.82 116.01 L 633.82 114.83 L 636.82 113.75 L 639.83 112.39 L 642.83 110.94 L 645.84 109.61 L 648.84 107.54 L 651.85 106.03 L 654.85 104.59 L 657.85 103.33 L 660.86 101.85 L 663.86 100.03 L 666.87 98.42 L 669.87 96.98 L 672.88 95.42 L 675.88 93.26 L 678.88 91.50 L 681.89 89.60 L 684.89 87.71 L 687.90 85.94 L 690.90 84.22 L 693.91 82.39 L 696.91 80.74 L 699.91 79.31 L 702.92 77.98 L 705.92 76.57 L 708.93 75.19 L 711.93 73.95 L 714.94 72.71 L 717.94 71.51 L 720.94 70.33 L 723.95 69.15 L 726.95 68.11 L 729.96 66.89 L 732.96 65.64 L 735.97 64.22 L 738.97 62.84 L 741.97 61.61 L 744.98 60.53 L 747.98 59.42 L 750.99 58.41 L 753.99 57.24 L 757.00 56.10 L 760.00 55.00
    L 760 340
    Z" fill="url(#areaGradient)" class="area-path"/>

  <!-- Main line with glow -->
  <path d="M 60.00 340.00 L 63.00 339.81 L 66.01 339.50 L 69.01 339.21 L 72.02 338.63 L 75.02 338.03 L 78.03 337.55 L 81.03 337.11 L 84.03 336.72 L 87.04 336.26 L 90.04 335.75 L 93.05 335.20 L 96.05 334.70 L 99.06 334.17 L 102.06 333.78 L 105.06 333.38 L 108.07 332.83 L 111.07 332.47 L 114.08 331.96 L 117.08 331.38 L 120.09 330.94 L 123.09 330.58 L 126.09 330.35 L 129.10 330.15 L 132.10 329.79 L 135.11 329.54 L 138.11 328.98 L 141.12 328.76 L 144.12 328.47 L 147.12 328.10 L 150.13 327.85 L 153.13 327.59 L 156.14 327.33 L 159.14 327.14 L 162.15 326.98 L 165.15 326.73 L 168.15 326.43 L 171.16 326.16 L 174.16 325.81 L 177.17 325.43 L 180.17 325.08 L 183.18 324.66 L 186.18 324.25 L 189.18 323.84 L 192.19 323.39 L 195.19 322.96 L 198.20 322.46 L 201.20 322.02 L 204.21 321.65 L 207.21 321.35 L 210.21 320.94 L 213.22 320.46 L 216.22 320.03 L 219.23 319.52 L 222.23 318.89 L 225.24 318.42 L 228.24 318.04 L 231.24 317.67 L 234.25 317.23 L 237.25 316.71 L 240.26 316.14 L 243.26 315.54 L 246.27 314.97 L 249.27 314.46 L 252.27 313.96 L 255.28 313.52 L 258.28 313.07 L 261.29 312.56 L 264.29 311.93 L 267.30 311.47 L 270.30 311.05 L 273.30 310.58 L 276.31 310.15 L 279.31 309.67 L 282.32 309.17 L 285.32 308.65 L 288.33 308.20 L 291.33 307.81 L 294.33 307.38 L 297.34 306.92 L 300.34 306.49 L 303.35 305.93 L 306.35 305.45 L 309.36 304.99 L 312.36 304.60 L 315.36 304.23 L 318.37 303.86 L 321.37 303.41 L 324.38 302.95 L 327.38 302.39 L 330.39 301.94 L 333.39 301.57 L 336.39 301.19 L 339.40 300.82 L 342.40 300.38 L 345.41 299.92 L 348.41 298.90 L 351.42 296.87 L 354.42 294.46 L 357.42 292.26 L 360.43 291.15 L 363.43 289.47 L 366.44 288.35 L 369.44 287.37 L 372.45 286.42 L 375.45 285.51 L 378.45 284.11 L 381.46 283.00 L 384.46 281.57 L 387.47 281.28 L 390.47 281.24 L 393.48 281.19 L 396.48 281.15 L 399.48 281.10 L 402.49 281.05 L 405.49 281.03 L 408.50 280.96 L 411.50 280.90 L 414.51 280.85 L 417.51 280.83 L 420.52 280.76 L 423.52 278.93 L 426.52 276.07 L 429.53 274.15 L 432.53 271.92 L 435.54 269.63 L 438.54 267.83 L 441.55 265.81 L 444.55 262.74 L 447.55 258.61 L 450.56 255.91 L 453.56 252.70 L 456.57 249.12 L 459.57 246.25 L 462.58 243.13 L 465.58 240.37 L 468.58 237.63 L 471.59 234.90 L 474.59 231.19 L 477.60 227.46 L 480.60 224.35 L 483.61 221.74 L 486.61 219.22 L 489.61 215.86 L 492.62 213.26 L 495.62 210.69 L 498.63 208.28 L 501.63 206.01 L 504.64 203.69 L 507.64 201.70 L 510.64 199.65 L 513.65 197.55 L 516.65 195.33 L 519.66 193.29 L 522.66 191.42 L 525.67 188.05 L 528.67 185.22 L 531.67 182.50 L 534.68 179.89 L 537.68 175.77 L 540.69 173.16 L 543.69 170.91 L 546.70 168.24 L 549.70 164.32 L 552.70 161.49 L 555.71 159.10 L 558.71 157.08 L 561.72 155.17 L 564.72 153.61 L 567.73 151.86 L 570.73 150.43 L 573.73 148.74 L 576.74 146.31 L 579.74 144.22 L 582.75 142.41 L 585.75 140.84 L 588.76 139.22 L 591.76 137.86 L 594.76 135.56 L 597.77 133.60 L 600.77 131.66 L 603.78 130.05 L 606.78 128.58 L 609.79 127.27 L 612.79 125.03 L 615.79 123.21 L 618.80 121.55 L 621.80 119.97 L 624.81 118.58 L 627.81 117.24 L 630.82 116.01 L 633.82 114.83 L 636.82 113.75 L 639.83 112.39 L 642.83 110.94 L 645.84 109.61 L 648.84 107.54 L 651.85 106.03 L 654.85 104.59 L 657.85 103.33 L 660.86 101.85 L 663.86 100.03 L 666.87 98.42 L 669.87 96.98 L 672.88 95.42 L 675.88 93.26 L 678.88 91.50 L 681.89 89.60 L 684.89 87.71 L 687.90 85.94 L 690.90 84.22 L 693.91 82.39 L 696.91 80.74 L 699.91 79.31 L 702.92 77.98 L 705.92 76.57 L 708.93 75.19 L 711.93 73.95 L 714.94 72.71 L 717.94 71.51 L 720.94 70.33 L 723.95 69.15 L 726.95 68.11 L 729.96 66.89 L 732.96 65.64 L 735.97 64.22 L 738.97 62.84 L 741.97 61.61 L 744.98 60.53 L 747.98 59.42 L 750.99 58.41 L 753.99 57.24 L 757.00 56.10 L 760.00 55.00" fill="none" stroke="#3b82f6" stroke-width="3"
        stroke-linecap="round" stroke-linejoin="round" filter="url(#glow)" class="line-path"/>

  <!-- Data points -->
  
    <circle cx="60" cy="340" r="4" fill="#3b82f6" stroke="#0d1117" stroke-width="2" class="data-point"/>
  
    <circle cx="63.00429184549356" cy="339.81462307355343" r="4" fill="#3b82f6" stroke="#0d1117" stroke-width="2" class="data-point"/>
  
    <circle cx="66.00858369098712" cy="339.49935619184157" r="4" fill="#3b82f6" stroke="#0d1117" stroke-width="2" class="data-point"/>
  
    <circle cx="69.01287553648069" cy="339.2067885256129" r="4" fill="#3b82f6" stroke="#0d1117" stroke-width="2" class="data-point"/>
  
    <circle cx="72.01716738197425" cy="338.62543639573624" r="4" fill="#3b82f6" stroke="#0d1117" stroke-width="2" class="data-point"/>
  
    <circle cx="75.02145922746782" cy="338.02516825295686" r="4" fill="#3b82f6" stroke="#0d1117" stroke-width="2" class="data-point"/>
  
    <circle cx="78.02575107296137" cy="337.55226793038906" r="4" fill="#3b82f6" stroke="#0d1117" stroke-width="2" class="data-point"/>
  
    <circle cx="81.03004291845494" cy="337.11089429599247" r="4" fill="#3b82f6" stroke="#0d1117" stroke-width="2" class="data-point"/>
  
    <circle cx="84.0343347639485" cy="336.7187022951429" r="4" fill="#3b82f6" stroke="#0d1117" stroke-width="2" class="data-point"/>
  
    <circle cx="87.03862660944206" cy="336.25841264784356" r="4" fill="#3b82f6" stroke="#0d1117" stroke-width="2" class="data-point"/>
  
    <circle cx="90.04291845493563" cy="335.74515816441664" r="4" fill="#3b82f6" stroke="#0d1117" stroke-width="2" class="data-point"/>
  
    <circle cx="93.04721030042919" cy="335.19533272271116" r="4" fill="#3b82f6" stroke="#0d1117" stroke-width="2" class="data-point"/>
  
    <circle cx="96.05150214592274" cy="334.6959499820796" r="4" fill="#3b82f6" stroke="#0d1117" stroke-width="2" class="data-point"/>
  
    <circle cx="99.05579399141631" cy="334.1650405532768" r="4" fill="#3b82f6" stroke="#0d1117" stroke-width="2" class="data-point"/>
  
    <circle cx="102.06008583690988" cy="333.7778928225346" r="4" fill="#3b82f6" stroke="#0d1117" stroke-width="2" class="data-point"/>
  
    <circle cx="105.06437768240343" cy="333.3768733489971" r="4" fill="#3b82f6" stroke="#0d1117" stroke-width="2" class="data-point"/>
  
    <circle cx="108.06866952789699" cy="332.83209217739903" r="4" fill="#3b82f6" stroke="#0d1117" stroke-width="2" class="data-point"/>
  
    <circle cx="111.07296137339057" cy="332.4676436621401" r="4" fill="#3b82f6" stroke="#0d1117" stroke-width="2" class="data-point"/>
  
    <circle cx="114.07725321888412" cy="331.9632166514011" r="4" fill="#3b82f6" stroke="#0d1117" stroke-width="2" class="data-point"/>
  
    <circle cx="117.08154506437768" cy="331.3806034539976" r="4" fill="#3b82f6" stroke="#0d1117" stroke-width="2" class="data-point"/>
  
    <circle cx="120.08583690987125" cy="330.94175195465465" r="4" fill="#3b82f6" stroke="#0d1117" stroke-width="2" class="data-point"/>
  
    <circle cx="123.09012875536482" cy="330.5810866419763" r="4" fill="#3b82f6" stroke="#0d1117" stroke-width="2" class="data-point"/>
  
    <circle cx="126.09442060085837" cy="330.3477891495095" r="4" fill="#3b82f6" stroke="#0d1117" stroke-width="2" class="data-point"/>
  
    <circle cx="129.09871244635193" cy="330.153584750375" r="4" fill="#3b82f6" stroke="#0d1117" stroke-width="2" class="data-point"/>
  
    <circle cx="132.10300429184548" cy="329.7941805052235" r="4" fill="#3b82f6" stroke="#0d1117" stroke-width="2" class="data-point"/>
  
    <circle cx="135.10729613733906" cy="329.53818379727346" r="4" fill="#3b82f6" stroke="#0d1117" stroke-width="2" class="data-point"/>
  
    <circle cx="138.11158798283262" cy="328.9770087478263" r="4" fill="#3b82f6" stroke="#0d1117" stroke-width="2" class="data-point"/>
  
    <circle cx="141.11587982832617" cy="328.756321930628" r="4" fill="#3b82f6" stroke="#0d1117" stroke-width="2" class="data-point"/>
  
    <circle cx="144.12017167381975" cy="328.4713206695605" r="4" fill="#3b82f6" stroke="#0d1117" stroke-width="2" class="data-point"/>
  
    <circle cx="147.1244635193133" cy="328.103088951721" r="4" fill="#3b82f6" stroke="#0d1117" stroke-width="2" class="data-point"/>
  
    <circle cx="150.12875536480686" cy="327.85087544635155" r="4" fill="#3b82f6" stroke="#0d1117" stroke-width="2" class="data-point"/>
  
    <circle cx="153.13304721030045" cy="327.5948787384015" r="4" fill="#3b82f6" stroke="#0d1117" stroke-width="2" class="data-point"/>
  
    <circle cx="156.13733905579397" cy="327.326271355183" r="4" fill="#3b82f6" stroke="#0d1117" stroke-width="2" class="data-point"/>
  
    <circle cx="159.14163090128756" cy="327.1396333612096" r="4" fill="#3b82f6" stroke="#0d1117" stroke-width="2" class="data-point"/>
  
    <circle cx="162.14592274678114" cy="326.9782167177731" r="4" fill="#3b82f6" stroke="#0d1117" stroke-width="2" class="data-point"/>
  
    <circle cx="165.15021459227466" cy="326.7323085500378" r="4" fill="#3b82f6" stroke="#0d1117" stroke-width="2" class="data-point"/>
  
    <circle cx="168.15450643776825" cy="326.43343554617496" r="4" fill="#3b82f6" stroke="#0d1117" stroke-width="2" class="data-point"/>
  
    <circle cx="171.15879828326177" cy="326.1585228253222" r="4" fill="#3b82f6" stroke="#0d1117" stroke-width="2" class="data-point"/>
  
    <circle cx="174.16309012875536" cy="325.8104681879123" r="4" fill="#3b82f6" stroke="#0d1117" stroke-width="2" class="data-point"/>
  
    <circle cx="177.16738197424894" cy="325.43088686233125" r="4" fill="#3b82f6" stroke="#0d1117" stroke-width="2" class="data-point"/>
  
    <circle cx="180.1716738197425" cy="325.08283222492133" r="4" fill="#3b82f6" stroke="#0d1117" stroke-width="2" class="data-point"/>
  
    <circle cx="183.17596566523605" cy="324.66289673848115" r="4" fill="#3b82f6" stroke="#0d1117" stroke-width="2" class="data-point"/>
  
    <circle cx="186.18025751072963" cy="324.25052765720204" r="4" fill="#3b82f6" stroke="#0d1117" stroke-width="2" class="data-point"/>
  
    <circle cx="189.1845493562232" cy="323.8381585759229" r="4" fill="#3b82f6" stroke="#0d1117" stroke-width="2" class="data-point"/>
  
    <circle cx="192.18884120171674" cy="323.3866964013115" r="4" fill="#3b82f6" stroke="#0d1117" stroke-width="2" class="data-point"/>
  
    <circle cx="195.1931330472103" cy="322.9554113071297" r="4" fill="#3b82f6" stroke="#0d1117" stroke-width="2" class="data-point"/>
  
    <circle cx="198.19742489270385" cy="322.4623339041323" r="4" fill="#3b82f6" stroke="#0d1117" stroke-width="2" class="data-point"/>
  
    <circle cx="201.20171673819743" cy="322.0222213372626" r="4" fill="#3b82f6" stroke="#0d1117" stroke-width="2" class="data-point"/>
  
    <circle cx="204.206008583691" cy="321.65020641684254" r="4" fill="#3b82f6" stroke="#0d1117" stroke-width="2" class="data-point"/>
  
    <circle cx="207.21030042918454" cy="321.3525944805066" r="4" fill="#3b82f6" stroke="#0d1117" stroke-width="2" class="data-point"/>
  
    <circle cx="210.21459227467813" cy="320.9364421966469" r="4" fill="#3b82f6" stroke="#0d1117" stroke-width="2" class="data-point"/>
  
    <circle cx="213.21888412017168" cy="320.4610197390254" r="4" fill="#3b82f6" stroke="#0d1117" stroke-width="2" class="data-point"/>
  
    <circle cx="216.22317596566523" cy="320.025951442263" r="4" fill="#3b82f6" stroke="#0d1117" stroke-width="2" class="data-point"/>
  
    <circle cx="219.2274678111588" cy="319.51774122894346" r="4" fill="#3b82f6" stroke="#0d1117" stroke-width="2" class="data-point"/>
  
    <circle cx="222.23175965665234" cy="318.8909906681003" r="4" fill="#3b82f6" stroke="#0d1117" stroke-width="2" class="data-point"/>
  
    <circle cx="225.23605150214593" cy="318.4243956831667" r="4" fill="#3b82f6" stroke="#0d1117" stroke-width="2" class="data-point"/>
  
    <circle cx="228.24034334763948" cy="318.0372479524246" r="4" fill="#3b82f6" stroke="#0d1117" stroke-width="2" class="data-point"/>
  
    <circle cx="231.24463519313304" cy="317.6690162345851" r="4" fill="#3b82f6" stroke="#0d1117" stroke-width="2" class="data-point"/>
  
    <circle cx="234.24892703862662" cy="317.22638153266166" r="4" fill="#3b82f6" stroke="#0d1117" stroke-width="2" class="data-point"/>
  
    <circle cx="237.25321888412017" cy="316.7118659817079" r="4" fill="#3b82f6" stroke="#0d1117" stroke-width="2" class="data-point"/>
  
    <circle cx="240.25751072961373" cy="316.14186345957285" r="4" fill="#3b82f6" stroke="#0d1117" stroke-width="2" class="data-point"/>
  
    <circle cx="243.2618025751073" cy="315.54285638432026" r="4" fill="#3b82f6" stroke="#0d1117" stroke-width="2" class="data-point"/>
  
    <circle cx="246.26609442060087" cy="314.96780959207786" r="4" fill="#3b82f6" stroke="#0d1117" stroke-width="2" class="data-point"/>
  
    <circle cx="249.27038626609445" cy="314.462121513812" r="4" fill="#3b82f6" stroke="#0d1117" stroke-width="2" class="data-point"/>
  
    <circle cx="252.27467811158797" cy="313.9602166381267" r="4" fill="#3b82f6" stroke="#0d1117" stroke-width="2" class="data-point"/>
  
    <circle cx="255.27896995708153" cy="313.51758193620327" r="4" fill="#3b82f6" stroke="#0d1117" stroke-width="2" class="data-point"/>
  
    <circle cx="258.2832618025751" cy="313.06611976159184" r="4" fill="#3b82f6" stroke="#0d1117" stroke-width="2" class="data-point"/>
  
    <circle cx="261.28755364806864" cy="312.5616927508529" r="4" fill="#3b82f6" stroke="#0d1117" stroke-width="2" class="data-point"/>
  
    <circle cx="264.2918454935623" cy="311.9336811224828" r="4" fill="#3b82f6" stroke="#0d1117" stroke-width="2" class="data-point"/>
  
    <circle cx="267.2961373390558" cy="311.46582507002245" r="4" fill="#3b82f6" stroke="#0d1117" stroke-width="2" class="data-point"/>
  
    <circle cx="270.30042918454933" cy="311.04715065110906" r="4" fill="#3b82f6" stroke="#0d1117" stroke-width="2" class="data-point"/>
  
    <circle cx="273.3047210300429" cy="310.58181673370234" r="4" fill="#3b82f6" stroke="#0d1117" stroke-width="2" class="data-point"/>
  
    <circle cx="276.3090128755365" cy="310.1480095044668" r="4" fill="#3b82f6" stroke="#0d1117" stroke-width="2" class="data-point"/>
  
    <circle cx="279.31330472103" cy="309.6713259793185" r="4" fill="#3b82f6" stroke="#0d1117" stroke-width="2" class="data-point"/>
  
    <circle cx="282.31759656652355" cy="309.1744653737406" r="4" fill="#3b82f6" stroke="#0d1117" stroke-width="2" class="data-point"/>
  
    <circle cx="285.3218884120172" cy="308.65490555267945" r="4" fill="#3b82f6" stroke="#0d1117" stroke-width="2" class="data-point"/>
  
    <circle cx="288.3261802575107" cy="308.1996601754875" r="4" fill="#3b82f6" stroke="#0d1117" stroke-width="2" class="data-point"/>
  
    <circle cx="291.3304721030043" cy="307.8099903096916" r="4" fill="#3b82f6" stroke="#0d1117" stroke-width="2" class="data-point"/>
  
    <circle cx="294.3347639484979" cy="307.38248841809036" r="4" fill="#3b82f6" stroke="#0d1117" stroke-width="2" class="data-point"/>
  
    <circle cx="297.3390557939914" cy="306.91967663573735" r="4" fill="#3b82f6" stroke="#0d1117" stroke-width="2" class="data-point"/>
  
    <circle cx="300.343347639485" cy="306.4909136766092" r="4" fill="#3b82f6" stroke="#0d1117" stroke-width="2" class="data-point"/>
  
    <circle cx="303.3476394849785" cy="305.9322607622158" r="4" fill="#3b82f6" stroke="#0d1117" stroke-width="2" class="data-point"/>
  
    <circle cx="306.3519313304721" cy="305.45179403448685" r="4" fill="#3b82f6" stroke="#0d1117" stroke-width="2" class="data-point"/>
  
    <circle cx="309.3562231759656" cy="304.98898225213384" r="4" fill="#3b82f6" stroke="#0d1117" stroke-width="2" class="data-point"/>
  
    <circle cx="312.36051502145926" cy="304.60435665644536" r="4" fill="#3b82f6" stroke="#0d1117" stroke-width="2" class="data-point"/>
  
    <circle cx="315.3648068669528" cy="304.2310806684985" r="4" fill="#3b82f6" stroke="#0d1117" stroke-width="2" class="data-point"/>
  
    <circle cx="318.3690987124464" cy="303.8565436130248" r="4" fill="#3b82f6" stroke="#0d1117" stroke-width="2" class="data-point"/>
  
    <circle cx="321.3733905579399" cy="303.408864640994" r="4" fill="#3b82f6" stroke="#0d1117" stroke-width="2" class="data-point"/>
  
    <circle cx="324.3776824034335" cy="302.94857499369465" r="4" fill="#3b82f6" stroke="#0d1117" stroke-width="2" class="data-point"/>
  
    <circle cx="327.38197424892707" cy="302.38992207930124" r="4" fill="#3b82f6" stroke="#0d1117" stroke-width="2" class="data-point"/>
  
    <circle cx="330.3862660944206" cy="301.937198837163" r="4" fill="#3b82f6" stroke="#0d1117" stroke-width="2" class="data-point"/>
  
    <circle cx="333.3905579399142" cy="301.5677060517967" r="4" fill="#3b82f6" stroke="#0d1117" stroke-width="2" class="data-point"/>
  
    <circle cx="336.3948497854077" cy="301.1881247262156" r="4" fill="#3b82f6" stroke="#0d1117" stroke-width="2" class="data-point"/>
  
    <circle cx="339.3991416309013" cy="300.8249372784835" r="4" fill="#3b82f6" stroke="#0d1117" stroke-width="2" class="data-point"/>
  
    <circle cx="342.40343347639487" cy="300.37599723892583" r="4" fill="#3b82f6" stroke="#0d1117" stroke-width="2" class="data-point"/>
  
    <circle cx="345.40772532188845" cy="299.91570759162653" r="4" fill="#3b82f6" stroke="#0d1117" stroke-width="2" class="data-point"/>
  
    <circle cx="348.412017167382" cy="298.8980260974606" r="4" fill="#3b82f6" stroke="#0d1117" stroke-width="2" class="data-point"/>
  
    <circle cx="351.4163090128755" cy="296.87275164934357" r="4" fill="#3b82f6" stroke="#0d1117" stroke-width="2" class="data-point"/>
  
    <circle cx="354.4206008583691" cy="294.4603294704844" r="4" fill="#3b82f6" stroke="#0d1117" stroke-width="2" class="data-point"/>
  
    <circle cx="357.42489270386267" cy="292.2622887711892" r="4" fill="#3b82f6" stroke="#0d1117" stroke-width="2" class="data-point"/>
  
    <circle cx="360.42918454935625" cy="291.1475050774561" r="4" fill="#3b82f6" stroke="#0d1117" stroke-width="2" class="data-point"/>
  
    <circle cx="363.4334763948498" cy="289.4677631316953" r="4" fill="#3b82f6" stroke="#0d1117" stroke-width="2" class="data-point"/>
  
    <circle cx="366.43776824034336" cy="288.35171837043526" r="4" fill="#3b82f6" stroke="#0d1117" stroke-width="2" class="data-point"/>
  
    <circle cx="369.4420600858369" cy="287.3731299696016" r="4" fill="#3b82f6" stroke="#0d1117" stroke-width="2" class="data-point"/>
  
    <circle cx="372.44635193133047" cy="286.4159797167244" r="4" fill="#3b82f6" stroke="#0d1117" stroke-width="2" class="data-point"/>
  
    <circle cx="375.45064377682405" cy="285.5143164350285" r="4" fill="#3b82f6" stroke="#0d1117" stroke-width="2" class="data-point"/>
  
    <circle cx="378.4549356223176" cy="284.1120093451741" r="4" fill="#3b82f6" stroke="#0d1117" stroke-width="2" class="data-point"/>
  
    <circle cx="381.45922746781116" cy="282.99722565144094" r="4" fill="#3b82f6" stroke="#0d1117" stroke-width="2" class="data-point"/>
  
    <circle cx="384.4635193133047" cy="281.5722193461033" r="4" fill="#3b82f6" stroke="#0d1117" stroke-width="2" class="data-point"/>
  
    <circle cx="387.46781115879827" cy="281.28091274740154" r="4" fill="#3b82f6" stroke="#0d1117" stroke-width="2" class="data-point"/>
  
    <circle cx="390.47210300429185" cy="281.24308072159613" r="4" fill="#3b82f6" stroke="#0d1117" stroke-width="2" class="data-point"/>
  
    <circle cx="393.47639484978544" cy="281.1938990880491" r="4" fill="#3b82f6" stroke="#0d1117" stroke-width="2" class="data-point"/>
  
    <circle cx="396.48068669527896" cy="281.1522838596631" r="4" fill="#3b82f6" stroke="#0d1117" stroke-width="2" class="data-point"/>
  
    <circle cx="399.4849785407725" cy="281.09805795600863" r="4" fill="#3b82f6" stroke="#0d1117" stroke-width="2" class="data-point"/>
  
    <circle cx="402.48927038626607" cy="281.05013738998844" r="4" fill="#3b82f6" stroke="#0d1117" stroke-width="2" class="data-point"/>
  
    <circle cx="405.49356223175965" cy="281.0312213770857" r="4" fill="#3b82f6" stroke="#0d1117" stroke-width="2" class="data-point"/>
  
    <circle cx="408.49785407725324" cy="280.9618626631091" r="4" fill="#3b82f6" stroke="#0d1117" stroke-width="2" class="data-point"/>
  
    <circle cx="411.5021459227468" cy="280.8950260841862" r="4" fill="#3b82f6" stroke="#0d1117" stroke-width="2" class="data-point"/>
  
    <circle cx="414.50643776824035" cy="280.8508887207465" r="4" fill="#3b82f6" stroke="#0d1117" stroke-width="2" class="data-point"/>
  
    <circle cx="417.51072961373393" cy="280.8344948428975" r="4" fill="#3b82f6" stroke="#0d1117" stroke-width="2" class="data-point"/>
  
    <circle cx="420.51502145922746" cy="280.76009185881355" r="4" fill="#3b82f6" stroke="#0d1117" stroke-width="2" class="data-point"/>
  
    <circle cx="423.519313304721" cy="278.9315439448847" r="4" fill="#3b82f6" stroke="#0d1117" stroke-width="2" class="data-point"/>
  
    <circle cx="426.5236051502146" cy="276.0676595914141" r="4" fill="#3b82f6" stroke="#0d1117" stroke-width="2" class="data-point"/>
  
    <circle cx="429.52789699570815" cy="274.14957588307914" r="4" fill="#3b82f6" stroke="#0d1117" stroke-width="2" class="data-point"/>
  
    <circle cx="432.53218884120173" cy="271.92253063066653" r="4" fill="#3b82f6" stroke="#0d1117" stroke-width="2" class="data-point"/>
  
    <circle cx="435.53648068669526" cy="269.6273877318041" r="4" fill="#3b82f6" stroke="#0d1117" stroke-width="2" class="data-point"/>
  
    <circle cx="438.5407725321889" cy="267.82658330346595" r="4" fill="#3b82f6" stroke="#0d1117" stroke-width="2" class="data-point"/>
  
    <circle cx="441.5450643776824" cy="265.81265846309054" r="4" fill="#3b82f6" stroke="#0d1117" stroke-width="2" class="data-point"/>
  
    <circle cx="444.54935622317595" cy="262.74448117027066" r="4" fill="#3b82f6" stroke="#0d1117" stroke-width="2" class="data-point"/>
  
    <circle cx="447.55364806866953" cy="258.6094407497378" r="4" fill="#3b82f6" stroke="#0d1117" stroke-width="2" class="data-point"/>
  
    <circle cx="450.55793991416306" cy="255.91075624228426" r="4" fill="#3b82f6" stroke="#0d1117" stroke-width="2" class="data-point"/>
  
    <circle cx="453.5622317596567" cy="252.6988172514038" r="4" fill="#3b82f6" stroke="#0d1117" stroke-width="2" class="data-point"/>
  
    <circle cx="456.5665236051502" cy="249.11990761021065" r="4" fill="#3b82f6" stroke="#0d1117" stroke-width="2" class="data-point"/>
  
    <circle cx="459.57081545064375" cy="246.24971791910582" r="4" fill="#3b82f6" stroke="#0d1117" stroke-width="2" class="data-point"/>
  
    <circle cx="462.57510729613733" cy="243.1348811277926" r="4" fill="#3b82f6" stroke="#0d1117" stroke-width="2" class="data-point"/>
  
    <circle cx="465.5793991416309" cy="240.3718821764698" r="4" fill="#3b82f6" stroke="#0d1117" stroke-width="2" class="data-point"/>
  
    <circle cx="468.5836909871245" cy="237.63410457568398" r="4" fill="#3b82f6" stroke="#0d1117" stroke-width="2" class="data-point"/>
  
    <circle cx="471.587982832618" cy="234.9038933800592" r="4" fill="#3b82f6" stroke="#0d1117" stroke-width="2" class="data-point"/>
  
    <circle cx="474.59227467811155" cy="231.18626631091286" r="4" fill="#3b82f6" stroke="#0d1117" stroke-width="2" class="data-point"/>
  
    <circle cx="477.59656652360513" cy="227.45728963402493" r="4" fill="#3b82f6" stroke="#0d1117" stroke-width="2" class="data-point"/>
  
    <circle cx="480.6008583690987" cy="224.34875818034595" r="4" fill="#3b82f6" stroke="#0d1117" stroke-width="2" class="data-point"/>
  
    <circle cx="483.6051502145923" cy="221.74339266987909" r="4" fill="#3b82f6" stroke="#0d1117" stroke-width="2" class="data-point"/>
  
    <circle cx="486.6094420600858" cy="219.21621334607676" r="4" fill="#3b82f6" stroke="#0d1117" stroke-width="2" class="data-point"/>
  
    <circle cx="489.61373390557935" cy="215.8617737246625" r="4" fill="#3b82f6" stroke="#0d1117" stroke-width="2" class="data-point"/>
  
    <circle cx="492.618025751073" cy="213.2601914167762" r="4" fill="#3b82f6" stroke="#0d1117" stroke-width="2" class="data-point"/>
  
    <circle cx="495.6223175965665" cy="210.6863525944805" r="4" fill="#3b82f6" stroke="#0d1117" stroke-width="2" class="data-point"/>
  
    <circle cx="498.6266094420601" cy="208.2789746857287" r="4" fill="#3b82f6" stroke="#0d1117" stroke-width="2" class="data-point"/>
  
    <circle cx="501.6309012875536" cy="206.01157527245695" r="4" fill="#3b82f6" stroke="#0d1117" stroke-width="2" class="data-point"/>
  
    <circle cx="504.63519313304715" cy="203.68868888800392" r="4" fill="#3b82f6" stroke="#0d1117" stroke-width="2" class="data-point"/>
  
    <circle cx="507.6394849785408" cy="201.70250753321918" r="4" fill="#3b82f6" stroke="#0d1117" stroke-width="2" class="data-point"/>
  
    <circle cx="510.6437768240344" cy="199.64570639693096" r="4" fill="#3b82f6" stroke="#0d1117" stroke-width="2" class="data-point"/>
  
    <circle cx="513.6480686695279" cy="197.54602896472994" r="4" fill="#3b82f6" stroke="#0d1117" stroke-width="2" class="data-point"/>
  
    <circle cx="516.6523605150214" cy="195.32655011747838" r="4" fill="#3b82f6" stroke="#0d1117" stroke-width="2" class="data-point"/>
  
    <circle cx="519.656652360515" cy="193.28992606161975" r="4" fill="#3b82f6" stroke="#0d1117" stroke-width="2" class="data-point"/>
  
    <circle cx="522.6609442060086" cy="191.42480718941235" r="4" fill="#3b82f6" stroke="#0d1117" stroke-width="2" class="data-point"/>
  
    <circle cx="525.6652360515022" cy="188.04514621746114" r="4" fill="#3b82f6" stroke="#0d1117" stroke-width="2" class="data-point"/>
  
    <circle cx="528.6695278969958" cy="185.2165717547423" r="4" fill="#3b82f6" stroke="#0d1117" stroke-width="2" class="data-point"/>
  
    <circle cx="531.6738197424893" cy="182.50023230191283" r="4" fill="#3b82f6" stroke="#0d1117" stroke-width="2" class="data-point"/>
  
    <circle cx="534.6781115879828" cy="179.89108358886546" r="4" fill="#3b82f6" stroke="#0d1117" stroke-width="2" class="data-point"/>
  
    <circle cx="537.6824034334763" cy="175.77117597865475" r="4" fill="#3b82f6" stroke="#0d1117" stroke-width="2" class="data-point"/>
  
    <circle cx="540.68669527897" cy="173.16454940066106" r="4" fill="#3b82f6" stroke="#0d1117" stroke-width="2" class="data-point"/>
  
    <circle cx="543.6909871244635" cy="170.90849959513096" r="4" fill="#3b82f6" stroke="#0d1117" stroke-width="2" class="data-point"/>
  
    <circle cx="546.695278969957" cy="168.24386391090226" r="4" fill="#3b82f6" stroke="#0d1117" stroke-width="2" class="data-point"/>
  
    <circle cx="549.6995708154507" cy="164.31563856477243" r="4" fill="#3b82f6" stroke="#0d1117" stroke-width="2" class="data-point"/>
  
    <circle cx="552.7038626609442" cy="161.48958623710723" r="4" fill="#3b82f6" stroke="#0d1117" stroke-width="2" class="data-point"/>
  
    <circle cx="555.7081545064377" cy="159.10364647631184" r="4" fill="#3b82f6" stroke="#0d1117" stroke-width="2" class="data-point"/>
  
    <circle cx="558.7124463519312" cy="157.08467736582907" r="4" fill="#3b82f6" stroke="#0d1117" stroke-width="2" class="data-point"/>
  
    <circle cx="561.716738197425" cy="155.16911579254776" r="4" fill="#3b82f6" stroke="#0d1117" stroke-width="2" class="data-point"/>
  
    <circle cx="564.7210300429185" cy="153.61169739689115" r="4" fill="#3b82f6" stroke="#0d1117" stroke-width="2" class="data-point"/>
  
    <circle cx="567.725321888412" cy="151.8575524670463" r="4" fill="#3b82f6" stroke="#0d1117" stroke-width="2" class="data-point"/>
  
    <circle cx="570.7296137339056" cy="150.4275018916013" r="4" fill="#3b82f6" stroke="#0d1117" stroke-width="2" class="data-point"/>
  
    <circle cx="573.7339055793991" cy="148.7401935406794" r="4" fill="#3b82f6" stroke="#0d1117" stroke-width="2" class="data-point"/>
  
    <circle cx="576.7381974248927" cy="146.31137748397117" r="4" fill="#3b82f6" stroke="#0d1117" stroke-width="2" class="data-point"/>
  
    <circle cx="579.7424892703863" cy="144.2243107270386" r="4" fill="#3b82f6" stroke="#0d1117" stroke-width="2" class="data-point"/>
  
    <circle cx="582.7467811158798" cy="142.40963455590511" r="4" fill="#3b82f6" stroke="#0d1117" stroke-width="2" class="data-point"/>
  
    <circle cx="585.7510729613733" cy="140.84086655250687" r="4" fill="#3b82f6" stroke="#0d1117" stroke-width="2" class="data-point"/>
  
    <circle cx="588.755364806867" cy="139.22291691556157" r="4" fill="#3b82f6" stroke="#0d1117" stroke-width="2" class="data-point"/>
  
    <circle cx="591.7596566523605" cy="137.85844185151262" r="4" fill="#3b82f6" stroke="#0d1117" stroke-width="2" class="data-point"/>
  
    <circle cx="594.7639484978541" cy="135.56456002017708" r="4" fill="#3b82f6" stroke="#0d1117" stroke-width="2" class="data-point"/>
  
    <circle cx="597.7682403433477" cy="133.6036000159293" r="4" fill="#3b82f6" stroke="#0d1117" stroke-width="2" class="data-point"/>
  
    <circle cx="600.7725321888412" cy="131.6590338895305" r="4" fill="#3b82f6" stroke="#0d1117" stroke-width="2" class="data-point"/>
  
    <circle cx="603.7768240343348" cy="130.05369492785366" r="4" fill="#3b82f6" stroke="#0d1117" stroke-width="2" class="data-point"/>
  
    <circle cx="606.7811158798283" cy="128.58076805649583" r="4" fill="#3b82f6" stroke="#0d1117" stroke-width="2" class="data-point"/>
  
    <circle cx="609.7854077253219" cy="127.273041031155" r="4" fill="#3b82f6" stroke="#0d1117" stroke-width="2" class="data-point"/>
  
    <circle cx="612.7896995708154" cy="125.03086296842022" r="4" fill="#3b82f6" stroke="#0d1117" stroke-width="2" class="data-point"/>
  
    <circle cx="615.7939914163089" cy="123.20988145965245" r="4" fill="#3b82f6" stroke="#0d1117" stroke-width="2" class="data-point"/>
  
    <circle cx="618.7982832618026" cy="121.5503165943212" r="4" fill="#3b82f6" stroke="#0d1117" stroke-width="2" class="data-point"/>
  
    <circle cx="621.8025751072961" cy="119.96515471307393" r="4" fill="#3b82f6" stroke="#0d1117" stroke-width="2" class="data-point"/>
  
    <circle cx="624.8068669527897" cy="118.58176363612228" r="4" fill="#3b82f6" stroke="#0d1117" stroke-width="2" class="data-point"/>
  
    <circle cx="627.8111587982833" cy="117.23872672002975" r="4" fill="#3b82f6" stroke="#0d1117" stroke-width="2" class="data-point"/>
  
    <circle cx="630.8154506437769" cy="116.0079248138266" r="4" fill="#3b82f6" stroke="#0d1117" stroke-width="2" class="data-point"/>
  
    <circle cx="633.8197424892704" cy="114.82756560869737" r="4" fill="#3b82f6" stroke="#0d1117" stroke-width="2" class="data-point"/>
  
    <circle cx="636.824034334764" cy="113.74556967066223" r="4" fill="#3b82f6" stroke="#0d1117" stroke-width="2" class="data-point"/>
  
    <circle cx="639.8283261802575" cy="112.39496634940863" r="4" fill="#3b82f6" stroke="#0d1117" stroke-width="2" class="data-point"/>
  
    <circle cx="642.832618025751" cy="110.94473869353402" r="4" fill="#3b82f6" stroke="#0d1117" stroke-width="2" class="data-point"/>
  
    <circle cx="645.8369098712446" cy="109.61052925012942" r="4" fill="#3b82f6" stroke="#0d1117" stroke-width="2" class="data-point"/>
  
    <circle cx="648.8412017167382" cy="107.53733423599218" r="4" fill="#3b82f6" stroke="#0d1117" stroke-width="2" class="data-point"/>
  
    <circle cx="651.8454935622317" cy="106.03288067646318" r="4" fill="#3b82f6" stroke="#0d1117" stroke-width="2" class="data-point"/>
  
    <circle cx="654.8497854077253" cy="104.59400262833023" r="4" fill="#3b82f6" stroke="#0d1117" stroke-width="2" class="data-point"/>
  
    <circle cx="657.854077253219" cy="103.33167403395589" r="4" fill="#3b82f6" stroke="#0d1117" stroke-width="2" class="data-point"/>
  
    <circle cx="660.8583690987125" cy="101.85118075743699" r="4" fill="#3b82f6" stroke="#0d1117" stroke-width="2" class="data-point"/>
  
    <circle cx="663.862660944206" cy="100.03272138372293" r="4" fill="#3b82f6" stroke="#0d1117" stroke-width="2" class="data-point"/>
  
    <circle cx="666.8669527896996" cy="98.42107708441188" r="4" fill="#3b82f6" stroke="#0d1117" stroke-width="2" class="data-point"/>
  
    <circle cx="669.8712446351931" cy="96.98219903627893" r="4" fill="#3b82f6" stroke="#0d1117" stroke-width="2" class="data-point"/>
  
    <circle cx="672.8755364806867" cy="95.41973637051493" r="4" fill="#3b82f6" stroke="#0d1117" stroke-width="2" class="data-point"/>
  
    <circle cx="675.8798283261802" cy="93.26457196713261" r="4" fill="#3b82f6" stroke="#0d1117" stroke-width="2" class="data-point"/>
  
    <circle cx="678.8841201716738" cy="91.49529422696563" r="4" fill="#3b82f6" stroke="#0d1117" stroke-width="2" class="data-point"/>
  
    <circle cx="681.8884120171674" cy="89.5973875990602" r="4" fill="#3b82f6" stroke="#0d1117" stroke-width="2" class="data-point"/>
  
    <circle cx="684.8927038626609" cy="87.70578630878896" r="4" fill="#3b82f6" stroke="#0d1117" stroke-width="2" class="data-point"/>
  
    <circle cx="687.8969957081546" cy="85.94407497378307" r="4" fill="#3b82f6" stroke="#0d1117" stroke-width="2" class="data-point"/>
  
    <circle cx="690.9012875536481" cy="84.21515139447521" r="4" fill="#3b82f6" stroke="#0d1117" stroke-width="2" class="data-point"/>
  
    <circle cx="693.9055793991416" cy="82.38534241301954" r="4" fill="#3b82f6" stroke="#0d1117" stroke-width="2" class="data-point"/>
  
    <circle cx="696.9098712446352" cy="80.74469356059097" r="4" fill="#3b82f6" stroke="#0d1117" stroke-width="2" class="data-point"/>
  
    <circle cx="699.9141630901288" cy="79.30707657998488" r="4" fill="#3b82f6" stroke="#0d1117" stroke-width="2" class="data-point"/>
  
    <circle cx="702.9184549356223" cy="77.97538927163396" r="4" fill="#3b82f6" stroke="#0d1117" stroke-width="2" class="data-point"/>
  
    <circle cx="705.9227467811158" cy="76.56677684414535" r="4" fill="#3b82f6" stroke="#0d1117" stroke-width="2" class="data-point"/>
  
    <circle cx="708.9270386266094" cy="75.1922132398816" r="4" fill="#3b82f6" stroke="#0d1117" stroke-width="2" class="data-point"/>
  
    <circle cx="711.931330472103" cy="73.95006172593685" r="4" fill="#3b82f6" stroke="#0d1117" stroke-width="2" class="data-point"/>
  
    <circle cx="714.9356223175965" cy="72.70538807693839" r="4" fill="#3b82f6" stroke="#0d1117" stroke-width="2" class="data-point"/>
  
    <circle cx="717.9399141630902" cy="71.51367926406755" r="4" fill="#3b82f6" stroke="#0d1117" stroke-width="2" class="data-point"/>
  
    <circle cx="720.9442060085837" cy="70.32953685635778" r="4" fill="#3b82f6" stroke="#0d1117" stroke-width="2" class="data-point"/>
  
    <circle cx="723.9484978540772" cy="69.14791658370171" r="4" fill="#3b82f6" stroke="#0d1117" stroke-width="2" class="data-point"/>
  
    <circle cx="726.9527896995709" cy="68.10501373899888" r="4" fill="#3b82f6" stroke="#0d1117" stroke-width="2" class="data-point"/>
  
    <circle cx="729.9570815450644" cy="66.89186677817156" r="4" fill="#3b82f6" stroke="#0d1117" stroke-width="2" class="data-point"/>
  
    <circle cx="732.9613733905579" cy="65.64088779153889" r="4" fill="#3b82f6" stroke="#0d1117" stroke-width="2" class="data-point"/>
  
    <circle cx="735.9656652360514" cy="64.21588148620128" r="4" fill="#3b82f6" stroke="#0d1117" stroke-width="2" class="data-point"/>
  
    <circle cx="738.969957081545" cy="62.84257894946438" r="4" fill="#3b82f6" stroke="#0d1117" stroke-width="2" class="data-point"/>
  
    <circle cx="741.9742489270386" cy="61.61303811078807" r="4" fill="#3b82f6" stroke="#0d1117" stroke-width="2" class="data-point"/>
  
    <circle cx="744.9785407725321" cy="60.53356430780667" r="4" fill="#3b82f6" stroke="#0d1117" stroke-width="2" class="data-point"/>
  
    <circle cx="747.9828326180258" cy="59.42004168160037" r="4" fill="#3b82f6" stroke="#0d1117" stroke-width="2" class="data-point"/>
  
    <circle cx="750.9871244635193" cy="58.40866552506873" r="4" fill="#3b82f6" stroke="#0d1117" stroke-width="2" class="data-point"/>
  
    <circle cx="753.991416309013" cy="57.240916995207954" r="4" fill="#3b82f6" stroke="#0d1117" stroke-width="2" class="data-point"/>
  
    <circle cx="756.9957081545065" cy="56.09586768083045" r="4" fill="#3b82f6" stroke="#0d1117" stroke-width="2" class="data-point"/>
  
    <circle cx="760" cy="55" r="4" fill="#3b82f6" stroke="#0d1117" stroke-width="2" class="data-point"/>
  

  <!-- Axis lines -->
  <line x1="60" y1="55" x2="60" y2="340"
        stroke="#30363d" stroke-width="2"/>
  <line x1="60" y1="340" x2="760" y2="340"
        stroke="#30363d" stroke-width="2"/>
</svg>