<?xml version="1.0" encoding="UTF-8"?>
<svg width="800" height="400" xmlns="http://www.w3.org/2000/svg">
  <defs>
    <!-- Gradient for area fill -->
    <linearGradient id="areaGradient" x1="0%" y1="0%" x2="0%" y2="100%">
      <stop offset="0%" style="stop-color:#3b82f6;stop-opacity:0.3" />
      <stop offset="100%" style="stop-color:#3b82f6;stop-opacity:0.05" />
    </linearGradient>

    <!-- Glow filter for line -->
    <filter id="glow">
      <feGaussianBlur stdDeviation="2" result="coloredBlur"/>
      <feMerge>
        <feMergeNode in="coloredBlur"/>
        <feMergeNode in="SourceGraphic"/>
      </feMerge>
    </filter>

    <!-- Animation -->
    <style>
      @keyframes draw {
        from { stroke-dashoffset: 2000; }
        to { stroke-dashoffset: 0; }
      }
      @keyframes fadeIn {
        from { opacity: 0; }
        to { opacity: 1; }
      }
      .line-path {
        stroke-dasharray: 2000;
        stroke-dashoffset: 2000;
        animation: draw 1.5s ease-out forwards;
      }
      .area-path {
        opacity: 0;
        animation: fadeIn 1s ease-out 0.5s forwards;
      }
      .data-point {
        opacity: 0;
        animation: fadeIn 0.5s ease-out 1s forwards;
      }
    </style>
  </defs>

  <!-- Background -->
  <rect width="800" height="400" fill="#0d1117" rx="8"/>

  <!-- Title -->
  <text x="400" y="25" text-anchor="middle" fill="#c9d1d9" font-family="system-ui, -apple-system, sans-serif" font-size="16" font-weight="600">
    zxcloli666/SoundCloud-Desktop Downloads
  </text>

  <!-- Stats -->
  <text x="780" y="25" text-anchor="end" fill="#58a6ff" font-family="system-ui, -apple-system, sans-serif" font-size="14" font-weight="600">
    174.9K total
  </text>
  <text x="780" y="42" text-anchor="end" fill="#3fb950" font-family="system-ui, -apple-system, sans-serif" font-size="12">
    +1.8K (+1.0%)
  </text>

  <!-- Grid lines -->
  <g opacity="0.1">
    
      <line x1="60" y1="340" x2="760" y2="340"
            stroke="#c9d1d9" stroke-width="1"/>
    
      <line x1="60" y1="268.75" x2="760" y2="268.75"
            stroke="#c9d1d9" stroke-width="1"/>
    
      <line x1="60" y1="197.5" x2="760" y2="197.5"
            stroke="#c9d1d9" stroke-width="1"/>
    
      <line x1="60" y1="126.25" x2="760" y2="126.25"
            stroke="#c9d1d9" stroke-width="1"/>
    
      <line x1="60" y1="55" x2="760" y2="55"
            stroke="#c9d1d9" stroke-width="1"/>
    
  </g>

  <!-- Y-axis labels -->
  
    <text x="50" y="344" text-anchor="end"
          fill="#8b949e" font-family="system-ui, -apple-system, sans-serif" font-size="11">
      60.2K
    </text>
  
    <text x="50" y="272.75" text-anchor="end"
          fill="#8b949e" font-family="system-ui, -apple-system, sans-serif" font-size="11">
      88.8K
    </text>
  
    <text x="50" y="201.5" text-anchor="end"
          fill="#8b949e" font-family="system-ui, -apple-system, sans-serif" font-size="11">
      117.5K
    </text>
  
    <text x="50" y="130.25" text-anchor="end"
          fill="#8b949e" font-family="system-ui, -apple-system, sans-serif" font-size="11">
      146.2K
    </text>
  
    <text x="50" y="59" text-anchor="end"
          fill="#8b949e" font-family="system-ui, -apple-system, sans-serif" font-size="11">
      174.9K
    </text>
  

  <!-- X-axis labels -->
  
    <text x="60" y="360" text-anchor="middle"
          fill="#8b949e" font-family="system-ui, -apple-system, sans-serif" font-size="11">
      Nov 25
    </text>
  
    <text x="147.5" y="360" text-anchor="middle"
          fill="#8b949e" font-family="system-ui, -apple-system, sans-serif" font-size="11">
      Dec 14
    </text>
  
    <text x="235" y="360" text-anchor="middle"
          fill="#8b949e" font-family="system-ui, -apple-system, sans-serif" font-size="11">
      Jan 2
    </text>
  
    <text x="322.5" y="360" text-anchor="middle"
          fill="#8b949e" font-family="system-ui, -apple-system, sans-serif" font-size="11">
      Jan 21
    </text>
  
    <text x="410" y="360" text-anchor="middle"
          fill="#8b949e" font-family="system-ui, -apple-system, sans-serif" font-size="11">
      Feb 9
    </text>
  
    <text x="497.5" y="360" text-anchor="middle"
          fill="#8b949e" font-family="system-ui, -apple-system, sans-serif" font-size="11">
      Feb 28
    </text>
  
    <text x="585" y="360" text-anchor="middle"
          fill="#8b949e" font-family="system-ui, -apple-system, sans-serif" font-size="11">
      Mar 19
    </text>
  
    <text x="672.5" y="360" text-anchor="middle"
          fill="#8b949e" font-family="system-ui, -apple-system, sans-serif" font-size="11">
      Apr 7
    </text>
  
    <text x="760" y="360" text-anchor="middle"
          fill="#8b949e" font-family="system-ui, -apple-system, sans-serif" font-size="11">
      Apr 26
    </text>
  

  <!-- Area under line -->
  <path d="M 60 340
    L 60.00 340.00 L 64.61 339.63 L 69.21 339.01 L 73.82 338.44 L 78.42 337.29 L 83.03 336.11 L 87.63 335.18 L 92.24 334.31 L 96.84 333.54 L 101.45 332.63 L 106.05 331.62 L 110.66 330.54 L 115.26 329.55 L 119.87 328.51 L 124.47 327.74 L 129.08 326.95 L 133.68 325.88 L 138.29 325.16 L 142.89 324.17 L 147.50 323.02 L 152.11 322.16 L 156.71 321.45 L 161.32 320.99 L 165.92 320.60 L 170.53 319.90 L 175.13 319.39 L 179.74 318.29 L 184.34 317.85 L 188.95 317.29 L 193.55 316.56 L 198.16 316.07 L 202.76 315.56 L 207.37 315.03 L 211.97 314.67 L 216.58 314.35 L 221.18 313.86 L 225.79 313.27 L 230.39 312.73 L 235.00 312.05 L 239.61 311.30 L 244.21 310.61 L 248.82 309.79 L 253.42 308.97 L 258.03 308.16 L 262.63 307.27 L 267.24 306.42 L 271.84 305.45 L 276.45 304.58 L 281.05 303.85 L 285.66 303.27 L 290.26 302.45 L 294.87 301.51 L 299.47 300.65 L 304.08 299.65 L 308.68 298.42 L 313.29 297.50 L 317.89 296.73 L 322.50 296.01 L 327.11 295.14 L 331.71 294.12 L 336.32 293.00 L 340.92 291.82 L 345.53 290.69 L 350.13 289.69 L 354.74 288.70 L 359.34 287.83 L 363.95 286.94 L 368.55 285.95 L 373.16 284.71 L 377.76 283.79 L 382.37 282.96 L 386.97 282.05 L 391.58 281.19 L 396.18 280.25 L 400.79 279.28 L 405.39 278.25 L 410.00 277.35 L 414.61 276.59 L 419.21 275.75 L 423.82 274.83 L 428.42 273.99 L 433.03 272.89 L 437.63 271.94 L 442.24 271.03 L 446.84 270.27 L 451.45 269.54 L 456.05 268.80 L 460.66 267.92 L 465.26 267.01 L 469.87 265.91 L 474.47 265.02 L 479.08 264.29 L 483.68 263.54 L 488.29 262.83 L 492.89 261.94 L 497.50 261.04 L 502.11 259.03 L 506.71 255.04 L 511.32 250.29 L 515.92 245.96 L 520.53 243.76 L 525.13 240.45 L 529.74 238.26 L 534.34 236.33 L 538.95 234.44 L 543.55 232.67 L 548.16 229.90 L 552.76 227.71 L 557.37 224.90 L 561.97 224.33 L 566.58 224.25 L 571.18 224.15 L 575.79 224.07 L 580.39 223.97 L 585.00 223.87 L 589.61 223.83 L 594.21 223.70 L 598.82 223.57 L 603.42 223.48 L 608.03 223.45 L 612.63 223.30 L 617.24 219.70 L 621.84 214.06 L 626.45 210.28 L 631.05 205.89 L 635.66 201.37 L 640.26 197.82 L 644.87 193.85 L 649.47 187.81 L 654.08 179.66 L 658.68 174.35 L 663.29 168.02 L 667.89 160.97 L 672.50 155.32 L 677.11 149.18 L 681.71 143.74 L 686.32 138.34 L 690.92 132.97 L 695.53 125.64 L 700.13 118.30 L 704.74 112.17 L 709.34 107.04 L 713.95 102.06 L 718.55 95.45 L 723.16 90.33 L 727.76 85.26 L 732.37 80.52 L 736.97 76.05 L 741.58 71.47 L 746.18 67.56 L 750.79 63.51 L 755.39 59.37 L 760.00 55.00
    L 760 340
    Z" fill="url(#areaGradient)" class="area-path"/>

  <!-- Main line with glow -->
  <path d="M 60.00 340.00 L 64.61 339.63 L 69.21 339.01 L 73.82 338.44 L 78.42 337.29 L 83.03 336.11 L 87.63 335.18 L 92.24 334.31 L 96.84 333.54 L 101.45 332.63 L 106.05 331.62 L 110.66 330.54 L 115.26 329.55 L 119.87 328.51 L 124.47 327.74 L 129.08 326.95 L 133.68 325.88 L 138.29 325.16 L 142.89 324.17 L 147.50 323.02 L 152.11 322.16 L 156.71 321.45 L 161.32 320.99 L 165.92 320.60 L 170.53 319.90 L 175.13 319.39 L 179.74 318.29 L 184.34 317.85 L 188.95 317.29 L 193.55 316.56 L 198.16 316.07 L 202.76 315.56 L 207.37 315.03 L 211.97 314.67 L 216.58 314.35 L 221.18 313.86 L 225.79 313.27 L 230.39 312.73 L 235.00 312.05 L 239.61 311.30 L 244.21 310.61 L 248.82 309.79 L 253.42 308.97 L 258.03 308.16 L 262.63 307.27 L 267.24 306.42 L 271.84 305.45 L 276.45 304.58 L 281.05 303.85 L 285.66 303.27 L 290.26 302.45 L 294.87 301.51 L 299.47 300.65 L 304.08 299.65 L 308.68 298.42 L 313.29 297.50 L 317.89 296.73 L 322.50 296.01 L 327.11 295.14 L 331.71 294.12 L 336.32 293.00 L 340.92 291.82 L 345.53 290.69 L 350.13 289.69 L 354.74 288.70 L 359.34 287.83 L 363.95 286.94 L 368.55 285.95 L 373.16 284.71 L 377.76 283.79 L 382.37 282.96 L 386.97 282.05 L 391.58 281.19 L 396.18 280.25 L 400.79 279.28 L 405.39 278.25 L 410.00 277.35 L 414.61 276.59 L 419.21 275.75 L 423.82 274.83 L 428.42 273.99 L 433.03 272.89 L 437.63 271.94 L 442.24 271.03 L 446.84 270.27 L 451.45 269.54 L 456.05 268.80 L 460.66 267.92 L 465.26 267.01 L 469.87 265.91 L 474.47 265.02 L 479.08 264.29 L 483.68 263.54 L 488.29 262.83 L 492.89 261.94 L 497.50 261.04 L 502.11 259.03 L 506.71 255.04 L 511.32 250.29 L 515.92 245.96 L 520.53 243.76 L 525.13 240.45 L 529.74 238.26 L 534.34 236.33 L 538.95 234.44 L 543.55 232.67 L 548.16 229.90 L 552.76 227.71 L 557.37 224.90 L 561.97 224.33 L 566.58 224.25 L 571.18 224.15 L 575.79 224.07 L 580.39 223.97 L 585.00 223.87 L 589.61 223.83 L 594.21 223.70 L 598.82 223.57 L 603.42 223.48 L 608.03 223.45 L 612.63 223.30 L 617.24 219.70 L 621.84 214.06 L 626.45 210.28 L 631.05 205.89 L 635.66 201.37 L 640.26 197.82 L 644.87 193.85 L 649.47 187.81 L 654.08 179.66 L 658.68 174.35 L 663.29 168.02 L 667.89 160.97 L 672.50 155.32 L 677.11 149.18 L 681.71 143.74 L 686.32 138.34 L 690.92 132.97 L 695.53 125.64 L 700.13 118.30 L 704.74 112.17 L 709.34 107.04 L 713.95 102.06 L 718.55 95.45 L 723.16 90.33 L 727.76 85.26 L 732.37 80.52 L 736.97 76.05 L 741.58 71.47 L 746.18 67.56 L 750.79 63.51 L 755.39 59.37 L 760.00 55.00" fill="none" stroke="#3b82f6" stroke-width="3"
        stroke-linecap="round" stroke-linejoin="round" filter="url(#glow)" class="line-path"/>

  <!-- Data points -->
  
    <circle cx="60" cy="340" r="4" fill="#3b82f6" stroke="#0d1117" stroke-width="2" class="data-point"/>
  
    <circle cx="64.60526315789474" cy="339.63481603514555" r="4" fill="#3b82f6" stroke="#0d1117" stroke-width="2" class="data-point"/>
  
    <circle cx="69.21052631578948" cy="339.013754870427" r="4" fill="#3b82f6" stroke="#0d1117" stroke-width="2" class="data-point"/>
  
    <circle cx="73.8157894736842" cy="338.43741010956825" r="4" fill="#3b82f6" stroke="#0d1117" stroke-width="2" class="data-point"/>
  
    <circle cx="78.42105263157895" cy="337.29217332182736" r="4" fill="#3b82f6" stroke="#0d1117" stroke-width="2" class="data-point"/>
  
    <circle cx="83.02631578947368" cy="336.10967286420333" r="4" fill="#3b82f6" stroke="#0d1117" stroke-width="2" class="data-point"/>
  
    <circle cx="87.63157894736842" cy="335.1780811171256" r="4" fill="#3b82f6" stroke="#0d1117" stroke-width="2" class="data-point"/>
  
    <circle cx="92.23684210526315" cy="334.3085954865197" r="4" fill="#3b82f6" stroke="#0d1117" stroke-width="2" class="data-point"/>
  
    <circle cx="96.84210526315789" cy="333.5359953976099" r="4" fill="#3b82f6" stroke="#0d1117" stroke-width="2" class="data-point"/>
  
    <circle cx="101.44736842105263" cy="332.62924609712087" r="4" fill="#3b82f6" stroke="#0d1117" stroke-width="2" class="data-point"/>
  
    <circle cx="106.05263157894737" cy="331.6181585209592" r="4" fill="#3b82f6" stroke="#0d1117" stroke-width="2" class="data-point"/>
  
    <circle cx="110.65789473684211" cy="330.5350278496901" r="4" fill="#3b82f6" stroke="#0d1117" stroke-width="2" class="data-point"/>
  
    <circle cx="115.26315789473685" cy="329.551266964776" r="4" fill="#3b82f6" stroke="#0d1117" stroke-width="2" class="data-point"/>
  
    <circle cx="119.86842105263159" cy="328.50539996339006" r="4" fill="#3b82f6" stroke="#0d1117" stroke-width="2" class="data-point"/>
  
    <circle cx="124.47368421052632" cy="327.7427368531158" r="4" fill="#3b82f6" stroke="#0d1117" stroke-width="2" class="data-point"/>
  
    <circle cx="129.07894736842104" cy="326.95274705159386" r="4" fill="#3b82f6" stroke="#0d1117" stroke-width="2" class="data-point"/>
  
    <circle cx="133.68421052631578" cy="325.87955335896027" r="4" fill="#3b82f6" stroke="#0d1117" stroke-width="2" class="data-point"/>
  
    <circle cx="138.28947368421052" cy="325.1616066525457" r="4" fill="#3b82f6" stroke="#0d1117" stroke-width="2" class="data-point"/>
  
    <circle cx="142.89473684210526" cy="324.1679087889961" r="4" fill="#3b82f6" stroke="#0d1117" stroke-width="2" class="data-point"/>
  
    <circle cx="147.5" cy="323.02018775659633" r="4" fill="#3b82f6" stroke="#0d1117" stroke-width="2" class="data-point"/>
  
    <circle cx="152.10526315789474" cy="322.15567061530817" r="4" fill="#3b82f6" stroke="#0d1117" stroke-width="2" class="data-point"/>
  
    <circle cx="156.71052631578948" cy="321.4451766428702" r="4" fill="#3b82f6" stroke="#0d1117" stroke-width="2" class="data-point"/>
  
    <circle cx="161.31578947368422" cy="320.9855913809785" r="4" fill="#3b82f6" stroke="#0d1117" stroke-width="2" class="data-point"/>
  
    <circle cx="165.92105263157896" cy="320.6030177035119" r="4" fill="#3b82f6" stroke="#0d1117" stroke-width="2" class="data-point"/>
  
    <circle cx="170.5263157894737" cy="319.8950079757328" r="4" fill="#3b82f6" stroke="#0d1117" stroke-width="2" class="data-point"/>
  
    <circle cx="175.13157894736844" cy="319.39070630998145" r="4" fill="#3b82f6" stroke="#0d1117" stroke-width="2" class="data-point"/>
  
    <circle cx="179.73684210526318" cy="318.2852174367825" r="4" fill="#3b82f6" stroke="#0d1117" stroke-width="2" class="data-point"/>
  
    <circle cx="184.3421052631579" cy="317.8504746214796" r="4" fill="#3b82f6" stroke="#0d1117" stroke-width="2" class="data-point"/>
  
    <circle cx="188.94736842105263" cy="317.2890353285741" r="4" fill="#3b82f6" stroke="#0d1117" stroke-width="2" class="data-point"/>
  
    <circle cx="193.55263157894737" cy="316.56363588818283" r="4" fill="#3b82f6" stroke="#0d1117" stroke-width="2" class="data-point"/>
  
    <circle cx="198.1578947368421" cy="316.06678695640807" r="4" fill="#3b82f6" stroke="#0d1117" stroke-width="2" class="data-point"/>
  
    <circle cx="202.76315789473685" cy="315.56248529065664" r="4" fill="#3b82f6" stroke="#0d1117" stroke-width="2" class="data-point"/>
  
    <circle cx="207.36842105263156" cy="315.03334117831645" r="4" fill="#3b82f6" stroke="#0d1117" stroke-width="2" class="data-point"/>
  
    <circle cx="211.97368421052633" cy="314.6656729688031" r="4" fill="#3b82f6" stroke="#0d1117" stroke-width="2" class="data-point"/>
  
    <circle cx="216.57894736842104" cy="314.34768965246724" r="4" fill="#3b82f6" stroke="#0d1117" stroke-width="2" class="data-point"/>
  
    <circle cx="221.18421052631578" cy="313.8632619439868" r="4" fill="#3b82f6" stroke="#0d1117" stroke-width="2" class="data-point"/>
  
    <circle cx="225.78947368421052" cy="313.2744959598337" r="4" fill="#3b82f6" stroke="#0d1117" stroke-width="2" class="data-point"/>
  
    <circle cx="230.39473684210526" cy="312.7329306241992" r="4" fill="#3b82f6" stroke="#0d1117" stroke-width="2" class="data-point"/>
  
    <circle cx="235" cy="312.0472790983499" r="4" fill="#3b82f6" stroke="#0d1117" stroke-width="2" class="data-point"/>
  
    <circle cx="239.60526315789474" cy="311.29952145602886" r="4" fill="#3b82f6" stroke="#0d1117" stroke-width="2" class="data-point"/>
  
    <circle cx="244.21052631578945" cy="310.61386993017965" r="4" fill="#3b82f6" stroke="#0d1117" stroke-width="2" class="data-point"/>
  
    <circle cx="248.81578947368422" cy="309.78661645877463" r="4" fill="#3b82f6" stroke="#0d1117" stroke-width="2" class="data-point"/>
  
    <circle cx="253.42105263157896" cy="308.97426845532283" r="4" fill="#3b82f6" stroke="#0d1117" stroke-width="2" class="data-point"/>
  
    <circle cx="258.02631578947364" cy="308.161920451871" r="4" fill="#3b82f6" stroke="#0d1117" stroke-width="2" class="data-point"/>
  
    <circle cx="262.63157894736844" cy="307.27256086399416" r="4" fill="#3b82f6" stroke="#0d1117" stroke-width="2" class="data-point"/>
  
    <circle cx="267.2368421052631" cy="306.4229491906592" r="4" fill="#3b82f6" stroke="#0d1117" stroke-width="2" class="data-point"/>
  
    <circle cx="271.8421052631579" cy="305.4516095290395" r="4" fill="#3b82f6" stroke="#0d1117" stroke-width="2" class="data-point"/>
  
    <circle cx="276.4473684210526" cy="304.5846081430925" r="4" fill="#3b82f6" stroke="#0d1117" stroke-width="2" class="data-point"/>
  
    <circle cx="281.0526315789474" cy="303.85175596872466" r="4" fill="#3b82f6" stroke="#0d1117" stroke-width="2" class="data-point"/>
  
    <circle cx="285.6578947368421" cy="303.2654742292304" r="4" fill="#3b82f6" stroke="#0d1117" stroke-width="2" class="data-point"/>
  
    <circle cx="290.2631578947369" cy="302.445673491802" r="4" fill="#3b82f6" stroke="#0d1117" stroke-width="2" class="data-point"/>
  
    <circle cx="294.86842105263156" cy="301.5091132554065" r="4" fill="#3b82f6" stroke="#0d1117" stroke-width="2" class="data-point"/>
  
    <circle cx="299.47368421052636" cy="300.652048848095" r="4" fill="#3b82f6" stroke="#0d1117" stroke-width="2" class="data-point"/>
  
    <circle cx="304.07894736842104" cy="299.6508982505688" r="4" fill="#3b82f6" stroke="#0d1117" stroke-width="2" class="data-point"/>
  
    <circle cx="308.6842105263158" cy="298.4162286551084" r="4" fill="#3b82f6" stroke="#0d1117" stroke-width="2" class="data-point"/>
  
    <circle cx="313.2894736842105" cy="297.497058131325" r="4" fill="#3b82f6" stroke="#0d1117" stroke-width="2" class="data-point"/>
  
    <circle cx="317.89473684210526" cy="296.7343950210507" r="4" fill="#3b82f6" stroke="#0d1117" stroke-width="2" class="data-point"/>
  
    <circle cx="322.5" cy="296.00899558065953" r="4" fill="#3b82f6" stroke="#0d1117" stroke-width="2" class="data-point"/>
  
    <circle cx="327.10526315789474" cy="295.13702570539476" r="4" fill="#3b82f6" stroke="#0d1117" stroke-width="2" class="data-point"/>
  
    <circle cx="331.7105263157895" cy="294.12345388457413" r="4" fill="#3b82f6" stroke="#0d1117" stroke-width="2" class="data-point"/>
  
    <circle cx="336.3157894736842" cy="293.0005752987631" r="4" fill="#3b82f6" stroke="#0d1117" stroke-width="2" class="data-point"/>
  
    <circle cx="340.92105263157896" cy="291.820559085798" r="4" fill="#3b82f6" stroke="#0d1117" stroke-width="2" class="data-point"/>
  
    <circle cx="345.5263157894737" cy="290.6877435213514" r="4" fill="#3b82f6" stroke="#0d1117" stroke-width="2" class="data-point"/>
  
    <circle cx="350.13157894736844" cy="289.69156141314295" r="4" fill="#3b82f6" stroke="#0d1117" stroke-width="2" class="data-point"/>
  
    <circle cx="354.7368421052631" cy="288.70283203891114" r="4" fill="#3b82f6" stroke="#0d1117" stroke-width="2" class="data-point"/>
  
    <circle cx="359.3421052631579" cy="287.8308621636464" r="4" fill="#3b82f6" stroke="#0d1117" stroke-width="2" class="data-point"/>
  
    <circle cx="363.94736842105266" cy="286.94150257576945" r="4" fill="#3b82f6" stroke="#0d1117" stroke-width="2" class="data-point"/>
  
    <circle cx="368.55263157894734" cy="285.94780471221986" r="4" fill="#3b82f6" stroke="#0d1117" stroke-width="2" class="data-point"/>
  
    <circle cx="373.1578947368421" cy="284.71065087210064" r="4" fill="#3b82f6" stroke="#0d1117" stroke-width="2" class="data-point"/>
  
    <circle cx="377.7631578947369" cy="283.7889961036584" r="4" fill="#3b82f6" stroke="#0d1117" stroke-width="2" class="data-point"/>
  
    <circle cx="382.36842105263156" cy="282.9642268769122" r="4" fill="#3b82f6" stroke="#0d1117" stroke-width="2" class="data-point"/>
  
    <circle cx="386.9736842105263" cy="282.0475405977877" r="4" fill="#3b82f6" stroke="#0d1117" stroke-width="2" class="data-point"/>
  
    <circle cx="391.57894736842104" cy="281.1929604351351" r="4" fill="#3b82f6" stroke="#0d1117" stroke-width="2" class="data-point"/>
  
    <circle cx="396.1842105263158" cy="280.2539159540807" r="4" fill="#3b82f6" stroke="#0d1117" stroke-width="2" class="data-point"/>
  
    <circle cx="400.7894736842105" cy="279.2751235584843" r="4" fill="#3b82f6" stroke="#0d1117" stroke-width="2" class="data-point"/>
  
    <circle cx="405.39473684210526" cy="278.25161475902826" r="4" fill="#3b82f6" stroke="#0d1117" stroke-width="2" class="data-point"/>
  
    <circle cx="410" cy="277.3548024371748" r="4" fill="#3b82f6" stroke="#0d1117" stroke-width="2" class="data-point"/>
  
    <circle cx="414.60526315789474" cy="276.5871708375827" r="4" fill="#3b82f6" stroke="#0d1117" stroke-width="2" class="data-point"/>
  
    <circle cx="419.2105263157895" cy="275.74501189822445" r="4" fill="#3b82f6" stroke="#0d1117" stroke-width="2" class="data-point"/>
  
    <circle cx="423.8157894736842" cy="274.8332941084177" r="4" fill="#3b82f6" stroke="#0d1117" stroke-width="2" class="data-point"/>
  
    <circle cx="428.4210526315789" cy="273.98865092440053" r="4" fill="#3b82f6" stroke="#0d1117" stroke-width="2" class="data-point"/>
  
    <circle cx="433.0263157894737" cy="272.88813054051934" r="4" fill="#3b82f6" stroke="#0d1117" stroke-width="2" class="data-point"/>
  
    <circle cx="437.63157894736844" cy="271.94163332548834" r="4" fill="#3b82f6" stroke="#0d1117" stroke-width="2" class="data-point"/>
  
    <circle cx="442.2368421052631" cy="271.0299155356816" r="4" fill="#3b82f6" stroke="#0d1117" stroke-width="2" class="data-point"/>
  
    <circle cx="446.8421052631579" cy="270.27222091472504" r="4" fill="#3b82f6" stroke="#0d1117" stroke-width="2" class="data-point"/>
  
    <circle cx="451.44736842105266" cy="269.53688449569836" r="4" fill="#3b82f6" stroke="#0d1117" stroke-width="2" class="data-point"/>
  
    <circle cx="456.05263157894734" cy="268.79906383201273" r="4" fill="#3b82f6" stroke="#0d1117" stroke-width="2" class="data-point"/>
  
    <circle cx="460.6578947368421" cy="267.9171569781125" r="4" fill="#3b82f6" stroke="#0d1117" stroke-width="2" class="data-point"/>
  
    <circle cx="465.2631578947369" cy="267.0104076776235" r="4" fill="#3b82f6" stroke="#0d1117" stroke-width="2" class="data-point"/>
  
    <circle cx="469.86842105263156" cy="265.9098872937423" r="4" fill="#3b82f6" stroke="#0d1117" stroke-width="2" class="data-point"/>
  
    <circle cx="474.4736842105263" cy="265.01804346120656" r="4" fill="#3b82f6" stroke="#0d1117" stroke-width="2" class="data-point"/>
  
    <circle cx="479.0789473684211" cy="264.2901597761565" r="4" fill="#3b82f6" stroke="#0d1117" stroke-width="2" class="data-point"/>
  
    <circle cx="483.6842105263158" cy="263.5424021338354" r="4" fill="#3b82f6" stroke="#0d1117" stroke-width="2" class="data-point"/>
  
    <circle cx="488.2894736842105" cy="262.8269396720797" r="4" fill="#3b82f6" stroke="#0d1117" stroke-width="2" class="data-point"/>
  
    <circle cx="492.89473684210526" cy="261.9425485735206" r="4" fill="#3b82f6" stroke="#0d1117" stroke-width="2" class="data-point"/>
  
    <circle cx="497.5" cy="261.03579927303156" r="4" fill="#3b82f6" stroke="#0d1117" stroke-width="2" class="data-point"/>
  
    <circle cx="502.10526315789474" cy="259.03101383332023" r="4" fill="#3b82f6" stroke="#0d1117" stroke-width="2" class="data-point"/>
  
    <circle cx="506.7105263157895" cy="255.04131691116865" r="4" fill="#3b82f6" stroke="#0d1117" stroke-width="2" class="data-point"/>
  
    <circle cx="511.3157894736842" cy="250.2889568787427" r="4" fill="#3b82f6" stroke="#0d1117" stroke-width="2" class="data-point"/>
  
    <circle cx="515.921052631579" cy="245.95891843832536" r="4" fill="#3b82f6" stroke="#0d1117" stroke-width="2" class="data-point"/>
  
    <circle cx="520.5263157894738" cy="243.76284615988075" r="4" fill="#3b82f6" stroke="#0d1117" stroke-width="2" class="data-point"/>
  
    <circle cx="525.1315789473684" cy="240.4538322742606" r="4" fill="#3b82f6" stroke="#0d1117" stroke-width="2" class="data-point"/>
  
    <circle cx="529.7368421052631" cy="238.25527575115714" r="4" fill="#3b82f6" stroke="#0d1117" stroke-width="2" class="data-point"/>
  
    <circle cx="534.3421052631579" cy="236.3275018958709" r="4" fill="#3b82f6" stroke="#0d1117" stroke-width="2" class="data-point"/>
  
    <circle cx="538.9473684210527" cy="234.44196019978557" r="4" fill="#3b82f6" stroke="#0d1117" stroke-width="2" class="data-point"/>
  
    <circle cx="543.5526315789473" cy="232.66572526869066" r="4" fill="#3b82f6" stroke="#0d1117" stroke-width="2" class="data-point"/>
  
    <circle cx="548.1578947368421" cy="229.9032452080228" r="4" fill="#3b82f6" stroke="#0d1117" stroke-width="2" class="data-point"/>
  
    <circle cx="552.7631578947369" cy="227.7071729295782" r="4" fill="#3b82f6" stroke="#0d1117" stroke-width="2" class="data-point"/>
  
    <circle cx="557.3684210526316" cy="224.8999764650506" r="4" fill="#3b82f6" stroke="#0d1117" stroke-width="2" class="data-point"/>
  
    <circle cx="561.9736842105262" cy="224.3261159488507" r="4" fill="#3b82f6" stroke="#0d1117" stroke-width="2" class="data-point"/>
  
    <circle cx="566.578947368421" cy="224.25158860908448" r="4" fill="#3b82f6" stroke="#0d1117" stroke-width="2" class="data-point"/>
  
    <circle cx="571.1842105263158" cy="224.15470306738843" r="4" fill="#3b82f6" stroke="#0d1117" stroke-width="2" class="data-point"/>
  
    <circle cx="575.7894736842105" cy="224.07272299364556" r="4" fill="#3b82f6" stroke="#0d1117" stroke-width="2" class="data-point"/>
  
    <circle cx="580.3947368421053" cy="223.96590047331398" r="4" fill="#3b82f6" stroke="#0d1117" stroke-width="2" class="data-point"/>
  
    <circle cx="585" cy="223.87149917627676" r="4" fill="#3b82f6" stroke="#0d1117" stroke-width="2" class="data-point"/>
  
    <circle cx="589.6052631578947" cy="223.83423550639367" r="4" fill="#3b82f6" stroke="#0d1117" stroke-width="2" class="data-point"/>
  
    <circle cx="594.2105263157895" cy="223.69760205015558" r="4" fill="#3b82f6" stroke="#0d1117" stroke-width="2" class="data-point"/>
  
    <circle cx="598.8157894736842" cy="223.56593708323527" r="4" fill="#3b82f6" stroke="#0d1117" stroke-width="2" class="data-point"/>
  
    <circle cx="603.421052631579" cy="223.47898852017468" r="4" fill="#3b82f6" stroke="#0d1117" stroke-width="2" class="data-point"/>
  
    <circle cx="608.0263157894738" cy="223.44669333960934" r="4" fill="#3b82f6" stroke="#0d1117" stroke-width="2" class="data-point"/>
  
    <circle cx="612.6315789473684" cy="223.30012290473576" r="4" fill="#3b82f6" stroke="#0d1117" stroke-width="2" class="data-point"/>
  
    <circle cx="617.2368421052631" cy="219.69796814936848" r="4" fill="#3b82f6" stroke="#0d1117" stroke-width="2" class="data-point"/>
  
    <circle cx="621.8421052631579" cy="214.05624852906567" r="4" fill="#3b82f6" stroke="#0d1117" stroke-width="2" class="data-point"/>
  
    <circle cx="626.4473684210526" cy="210.27771240291833" r="4" fill="#3b82f6" stroke="#0d1117" stroke-width="2" class="data-point"/>
  
    <circle cx="631.0526315789474" cy="205.89053633534687" r="4" fill="#3b82f6" stroke="#0d1117" stroke-width="2" class="data-point"/>
  
    <circle cx="635.6578947368421" cy="201.36921105619624" r="4" fill="#3b82f6" stroke="#0d1117" stroke-width="2" class="data-point"/>
  
    <circle cx="640.2631578947369" cy="197.82170968332417" r="4" fill="#3b82f6" stroke="#0d1117" stroke-width="2" class="data-point"/>
  
    <circle cx="644.8684210526316" cy="193.85437096310244" r="4" fill="#3b82f6" stroke="#0d1117" stroke-width="2" class="data-point"/>
  
    <circle cx="649.4736842105262" cy="187.81020370806203" r="4" fill="#3b82f6" stroke="#0d1117" stroke-width="2" class="data-point"/>
  
    <circle cx="654.078947368421" cy="179.66436547161425" r="4" fill="#3b82f6" stroke="#0d1117" stroke-width="2" class="data-point"/>
  
    <circle cx="658.6842105263158" cy="174.3480819016239" r="4" fill="#3b82f6" stroke="#0d1117" stroke-width="2" class="data-point"/>
  
    <circle cx="663.2894736842105" cy="168.0207107554719" r="4" fill="#3b82f6" stroke="#0d1117" stroke-width="2" class="data-point"/>
  
    <circle cx="667.8947368421053" cy="160.97042441358752" r="4" fill="#3b82f6" stroke="#0d1117" stroke-width="2" class="data-point"/>
  
    <circle cx="672.5" cy="155.3162835699903" r="4" fill="#3b82f6" stroke="#0d1117" stroke-width="2" class="data-point"/>
  
    <circle cx="677.1052631578947" cy="149.1801992625716" r="4" fill="#3b82f6" stroke="#0d1117" stroke-width="2" class="data-point"/>
  
    <circle cx="681.7105263157895" cy="143.7372192149787" r="4" fill="#3b82f6" stroke="#0d1117" stroke-width="2" class="data-point"/>
  
    <circle cx="686.3157894736842" cy="138.34392406056327" r="4" fill="#3b82f6" stroke="#0d1117" stroke-width="2" class="data-point"/>
  
    <circle cx="690.921052631579" cy="132.9655343741011" r="4" fill="#3b82f6" stroke="#0d1117" stroke-width="2" class="data-point"/>
  
    <circle cx="695.5263157894738" cy="125.64198111974059" r="4" fill="#3b82f6" stroke="#0d1117" stroke-width="2" class="data-point"/>
  
    <circle cx="700.1315789473684" cy="118.29606966345023" r="4" fill="#3b82f6" stroke="#0d1117" stroke-width="2" class="data-point"/>
  
    <circle cx="704.7368421052631" cy="112.17240657932584" r="4" fill="#3b82f6" stroke="#0d1117" stroke-width="2" class="data-point"/>
  
    <circle cx="709.3421052631579" cy="107.0399571140922" r="4" fill="#3b82f6" stroke="#0d1117" stroke-width="2" class="data-point"/>
  
    <circle cx="713.9473684210526" cy="102.06153081770873" r="4" fill="#3b82f6" stroke="#0d1117" stroke-width="2" class="data-point"/>
  
    <circle cx="718.5526315789474" cy="95.45344002510396" r="4" fill="#3b82f6" stroke="#0d1117" stroke-width="2" class="data-point"/>
  
    <circle cx="723.1578947368421" cy="90.3284432938469" r="4" fill="#3b82f6" stroke="#0d1117" stroke-width="2" class="data-point"/>
  
    <circle cx="727.7631578947369" cy="85.25809994508512" r="4" fill="#3b82f6" stroke="#0d1117" stroke-width="2" class="data-point"/>
  
    <circle cx="732.3684210526316" cy="80.51567689129467" r="4" fill="#3b82f6" stroke="#0d1117" stroke-width="2" class="data-point"/>
  
    <circle cx="736.9736842105262" cy="76.04900499463929" r="4" fill="#3b82f6" stroke="#0d1117" stroke-width="2" class="data-point"/>
  
    <circle cx="741.578947368421" cy="71.47302633299336" r="4" fill="#3b82f6" stroke="#0d1117" stroke-width="2" class="data-point"/>
  
    <circle cx="746.1842105263158" cy="67.56034099526687" r="4" fill="#3b82f6" stroke="#0d1117" stroke-width="2" class="data-point"/>
  
    <circle cx="750.7894736842105" cy="63.50853795664341" r="4" fill="#3b82f6" stroke="#0d1117" stroke-width="2" class="data-point"/>
  
    <circle cx="755.3947368421053" cy="59.37227059961822" r="4" fill="#3b82f6" stroke="#0d1117" stroke-width="2" class="data-point"/>
  
    <circle cx="760" cy="55" r="4" fill="#3b82f6" stroke="#0d1117" stroke-width="2" class="data-point"/>
  

  <!-- Axis lines -->
  <line x1="60" y1="55" x2="60" y2="340"
        stroke="#30363d" stroke-width="2"/>
  <line x1="60" y1="340" x2="760" y2="340"
        stroke="#30363d" stroke-width="2"/>
</svg>