<?xml version="1.0" encoding="UTF-8"?>
<svg width="800" height="400" xmlns="http://www.w3.org/2000/svg">
  <defs>
    <!-- Gradient for area fill -->
    <linearGradient id="areaGradient" x1="0%" y1="0%" x2="0%" y2="100%">
      <stop offset="0%" style="stop-color:#3b82f6;stop-opacity:0.3" />
      <stop offset="100%" style="stop-color:#3b82f6;stop-opacity:0.05" />
    </linearGradient>

    <!-- Glow filter for line -->
    <filter id="glow">
      <feGaussianBlur stdDeviation="2" result="coloredBlur"/>
      <feMerge>
        <feMergeNode in="coloredBlur"/>
        <feMergeNode in="SourceGraphic"/>
      </feMerge>
    </filter>

    <!-- Animation -->
    <style>
      @keyframes draw {
        from { stroke-dashoffset: 2000; }
        to { stroke-dashoffset: 0; }
      }
      @keyframes fadeIn {
        from { opacity: 0; }
        to { opacity: 1; }
      }
      .line-path {
        stroke-dasharray: 2000;
        stroke-dashoffset: 2000;
        animation: draw 1.5s ease-out forwards;
      }
      .area-path {
        opacity: 0;
        animation: fadeIn 1s ease-out 0.5s forwards;
      }
      .data-point {
        opacity: 0;
        animation: fadeIn 0.5s ease-out 1s forwards;
      }
    </style>
  </defs>

  <!-- Background -->
  <rect width="800" height="400" fill="#0d1117" rx="8"/>

  <!-- Title -->
  <text x="400" y="25" text-anchor="middle" fill="#c9d1d9" font-family="system-ui, -apple-system, sans-serif" font-size="16" font-weight="600">
    zxcloli666/SoundCloud-Desktop Downloads
  </text>

  <!-- Stats -->
  <text x="780" y="25" text-anchor="end" fill="#58a6ff" font-family="system-ui, -apple-system, sans-serif" font-size="14" font-weight="600">
    206.7K total
  </text>
  <text x="780" y="42" text-anchor="end" fill="#3fb950" font-family="system-ui, -apple-system, sans-serif" font-size="12">
    +1.5K (+0.7%)
  </text>

  <!-- Grid lines -->
  <g opacity="0.1">
    
      <line x1="60" y1="340" x2="760" y2="340"
            stroke="#c9d1d9" stroke-width="1"/>
    
      <line x1="60" y1="268.75" x2="760" y2="268.75"
            stroke="#c9d1d9" stroke-width="1"/>
    
      <line x1="60" y1="197.5" x2="760" y2="197.5"
            stroke="#c9d1d9" stroke-width="1"/>
    
      <line x1="60" y1="126.25" x2="760" y2="126.25"
            stroke="#c9d1d9" stroke-width="1"/>
    
      <line x1="60" y1="55" x2="760" y2="55"
            stroke="#c9d1d9" stroke-width="1"/>
    
  </g>

  <!-- Y-axis labels -->
  
    <text x="50" y="344" text-anchor="end"
          fill="#8b949e" font-family="system-ui, -apple-system, sans-serif" font-size="11">
      60.2K
    </text>
  
    <text x="50" y="272.75" text-anchor="end"
          fill="#8b949e" font-family="system-ui, -apple-system, sans-serif" font-size="11">
      96.8K
    </text>
  
    <text x="50" y="201.5" text-anchor="end"
          fill="#8b949e" font-family="system-ui, -apple-system, sans-serif" font-size="11">
      133.4K
    </text>
  
    <text x="50" y="130.25" text-anchor="end"
          fill="#8b949e" font-family="system-ui, -apple-system, sans-serif" font-size="11">
      170.1K
    </text>
  
    <text x="50" y="59" text-anchor="end"
          fill="#8b949e" font-family="system-ui, -apple-system, sans-serif" font-size="11">
      206.7K
    </text>
  

  <!-- X-axis labels -->
  
    <text x="60" y="360" text-anchor="middle"
          fill="#8b949e" font-family="system-ui, -apple-system, sans-serif" font-size="11">
      Nov 25
    </text>
  
    <text x="148.0239520958084" y="360" text-anchor="middle"
          fill="#8b949e" font-family="system-ui, -apple-system, sans-serif" font-size="11">
      Dec 16
    </text>
  
    <text x="236.04790419161677" y="360" text-anchor="middle"
          fill="#8b949e" font-family="system-ui, -apple-system, sans-serif" font-size="11">
      Jan 6
    </text>
  
    <text x="324.07185628742513" y="360" text-anchor="middle"
          fill="#8b949e" font-family="system-ui, -apple-system, sans-serif" font-size="11">
      Jan 27
    </text>
  
    <text x="412.09580838323353" y="360" text-anchor="middle"
          fill="#8b949e" font-family="system-ui, -apple-system, sans-serif" font-size="11">
      Feb 17
    </text>
  
    <text x="500.1197604790419" y="360" text-anchor="middle"
          fill="#8b949e" font-family="system-ui, -apple-system, sans-serif" font-size="11">
      Mar 10
    </text>
  
    <text x="588.1437125748503" y="360" text-anchor="middle"
          fill="#8b949e" font-family="system-ui, -apple-system, sans-serif" font-size="11">
      Mar 31
    </text>
  
    <text x="676.1676646706587" y="360" text-anchor="middle"
          fill="#8b949e" font-family="system-ui, -apple-system, sans-serif" font-size="11">
      Apr 21
    </text>
  
    <text x="760" y="360" text-anchor="middle"
          fill="#8b949e" font-family="system-ui, -apple-system, sans-serif" font-size="11">
      May 11
    </text>
  

  <!-- Area under line -->
  <path d="M 60 340
    L 60.00 340.00 L 64.19 339.71 L 68.38 339.23 L 72.57 338.78 L 76.77 337.88 L 80.96 336.95 L 85.15 336.23 L 89.34 335.55 L 93.53 334.94 L 97.72 334.23 L 101.92 333.44 L 106.11 332.59 L 110.30 331.82 L 114.49 331.00 L 118.68 330.41 L 122.87 329.79 L 127.07 328.95 L 131.26 328.39 L 135.45 327.61 L 139.64 326.71 L 143.83 326.03 L 148.02 325.48 L 152.22 325.12 L 156.41 324.82 L 160.60 324.26 L 164.79 323.87 L 168.98 323.00 L 173.17 322.66 L 177.37 322.22 L 181.56 321.66 L 185.75 321.27 L 189.94 320.87 L 194.13 320.46 L 198.32 320.17 L 202.51 319.92 L 206.71 319.54 L 210.90 319.08 L 215.09 318.66 L 219.28 318.12 L 223.47 317.54 L 227.66 317.00 L 231.86 316.35 L 236.05 315.72 L 240.24 315.08 L 244.43 314.38 L 248.62 313.72 L 252.81 312.96 L 257.01 312.28 L 261.20 311.71 L 265.39 311.25 L 269.58 310.60 L 273.77 309.87 L 277.96 309.20 L 282.16 308.42 L 286.35 307.45 L 290.54 306.73 L 294.73 306.13 L 298.92 305.57 L 303.11 304.88 L 307.31 304.09 L 311.50 303.21 L 315.69 302.29 L 319.88 301.40 L 324.07 300.62 L 328.26 299.85 L 332.46 299.17 L 336.65 298.47 L 340.84 297.69 L 345.03 296.72 L 349.22 296.00 L 353.41 295.36 L 357.60 294.64 L 361.80 293.97 L 365.99 293.23 L 370.18 292.47 L 374.37 291.67 L 378.56 290.97 L 382.75 290.36 L 386.95 289.71 L 391.14 288.99 L 395.33 288.33 L 399.52 287.47 L 403.71 286.73 L 407.90 286.01 L 412.10 285.42 L 416.29 284.85 L 420.48 284.27 L 424.67 283.58 L 428.86 282.87 L 433.05 282.01 L 437.25 281.31 L 441.44 280.74 L 445.63 280.15 L 449.82 279.59 L 454.01 278.90 L 458.20 278.19 L 462.40 276.62 L 466.59 273.50 L 470.78 269.78 L 474.97 266.39 L 479.16 264.67 L 483.35 262.08 L 487.54 260.36 L 491.74 258.85 L 495.93 257.38 L 500.12 255.99 L 504.31 253.82 L 508.50 252.10 L 512.69 249.91 L 516.89 249.46 L 521.08 249.40 L 525.27 249.32 L 529.46 249.26 L 533.65 249.18 L 537.84 249.10 L 542.04 249.07 L 546.23 248.97 L 550.42 248.86 L 554.61 248.80 L 558.80 248.77 L 562.99 248.66 L 567.19 245.84 L 571.38 241.42 L 575.57 238.46 L 579.76 235.03 L 583.95 231.49 L 588.14 228.71 L 592.34 225.61 L 596.53 220.88 L 600.72 214.50 L 604.91 210.34 L 609.10 205.39 L 613.29 199.87 L 617.49 195.44 L 621.68 190.64 L 625.87 186.38 L 630.06 182.16 L 634.25 177.95 L 638.44 172.21 L 642.63 166.46 L 646.83 161.67 L 651.02 157.65 L 655.21 153.76 L 659.40 148.59 L 663.59 144.57 L 667.78 140.60 L 671.98 136.89 L 676.17 133.40 L 680.36 129.81 L 684.55 126.75 L 688.74 123.58 L 692.93 120.34 L 697.13 116.92 L 701.32 113.78 L 705.51 110.90 L 709.70 105.69 L 713.89 101.33 L 718.08 97.14 L 722.28 93.12 L 726.47 86.77 L 730.66 82.75 L 734.85 79.27 L 739.04 75.16 L 743.23 69.10 L 747.43 64.75 L 751.62 61.07 L 755.81 57.95 L 760.00 55.00
    L 760 340
    Z" fill="url(#areaGradient)" class="area-path"/>

  <!-- Main line with glow -->
  <path d="M 60.00 340.00 L 64.19 339.71 L 68.38 339.23 L 72.57 338.78 L 76.77 337.88 L 80.96 336.95 L 85.15 336.23 L 89.34 335.55 L 93.53 334.94 L 97.72 334.23 L 101.92 333.44 L 106.11 332.59 L 110.30 331.82 L 114.49 331.00 L 118.68 330.41 L 122.87 329.79 L 127.07 328.95 L 131.26 328.39 L 135.45 327.61 L 139.64 326.71 L 143.83 326.03 L 148.02 325.48 L 152.22 325.12 L 156.41 324.82 L 160.60 324.26 L 164.79 323.87 L 168.98 323.00 L 173.17 322.66 L 177.37 322.22 L 181.56 321.66 L 185.75 321.27 L 189.94 320.87 L 194.13 320.46 L 198.32 320.17 L 202.51 319.92 L 206.71 319.54 L 210.90 319.08 L 215.09 318.66 L 219.28 318.12 L 223.47 317.54 L 227.66 317.00 L 231.86 316.35 L 236.05 315.72 L 240.24 315.08 L 244.43 314.38 L 248.62 313.72 L 252.81 312.96 L 257.01 312.28 L 261.20 311.71 L 265.39 311.25 L 269.58 310.60 L 273.77 309.87 L 277.96 309.20 L 282.16 308.42 L 286.35 307.45 L 290.54 306.73 L 294.73 306.13 L 298.92 305.57 L 303.11 304.88 L 307.31 304.09 L 311.50 303.21 L 315.69 302.29 L 319.88 301.40 L 324.07 300.62 L 328.26 299.85 L 332.46 299.17 L 336.65 298.47 L 340.84 297.69 L 345.03 296.72 L 349.22 296.00 L 353.41 295.36 L 357.60 294.64 L 361.80 293.97 L 365.99 293.23 L 370.18 292.47 L 374.37 291.67 L 378.56 290.97 L 382.75 290.36 L 386.95 289.71 L 391.14 288.99 L 395.33 288.33 L 399.52 287.47 L 403.71 286.73 L 407.90 286.01 L 412.10 285.42 L 416.29 284.85 L 420.48 284.27 L 424.67 283.58 L 428.86 282.87 L 433.05 282.01 L 437.25 281.31 L 441.44 280.74 L 445.63 280.15 L 449.82 279.59 L 454.01 278.90 L 458.20 278.19 L 462.40 276.62 L 466.59 273.50 L 470.78 269.78 L 474.97 266.39 L 479.16 264.67 L 483.35 262.08 L 487.54 260.36 L 491.74 258.85 L 495.93 257.38 L 500.12 255.99 L 504.31 253.82 L 508.50 252.10 L 512.69 249.91 L 516.89 249.46 L 521.08 249.40 L 525.27 249.32 L 529.46 249.26 L 533.65 249.18 L 537.84 249.10 L 542.04 249.07 L 546.23 248.97 L 550.42 248.86 L 554.61 248.80 L 558.80 248.77 L 562.99 248.66 L 567.19 245.84 L 571.38 241.42 L 575.57 238.46 L 579.76 235.03 L 583.95 231.49 L 588.14 228.71 L 592.34 225.61 L 596.53 220.88 L 600.72 214.50 L 604.91 210.34 L 609.10 205.39 L 613.29 199.87 L 617.49 195.44 L 621.68 190.64 L 625.87 186.38 L 630.06 182.16 L 634.25 177.95 L 638.44 172.21 L 642.63 166.46 L 646.83 161.67 L 651.02 157.65 L 655.21 153.76 L 659.40 148.59 L 663.59 144.57 L 667.78 140.60 L 671.98 136.89 L 676.17 133.40 L 680.36 129.81 L 684.55 126.75 L 688.74 123.58 L 692.93 120.34 L 697.13 116.92 L 701.32 113.78 L 705.51 110.90 L 709.70 105.69 L 713.89 101.33 L 718.08 97.14 L 722.28 93.12 L 726.47 86.77 L 730.66 82.75 L 734.85 79.27 L 739.04 75.16 L 743.23 69.10 L 747.43 64.75 L 751.62 61.07 L 755.81 57.95 L 760.00 55.00" fill="none" stroke="#3b82f6" stroke-width="3"
        stroke-linecap="round" stroke-linejoin="round" filter="url(#glow)" class="line-path"/>

  <!-- Data points -->
  
    <circle cx="60" cy="340" r="4" fill="#3b82f6" stroke="#0d1117" stroke-width="2" class="data-point"/>
  
    <circle cx="64.19161676646706" cy="339.7141580301159" r="4" fill="#3b82f6" stroke="#0d1117" stroke-width="2" class="data-point"/>
  
    <circle cx="68.38323353293413" cy="339.22803223099334" r="4" fill="#3b82f6" stroke="#0d1117" stroke-width="2" class="data-point"/>
  
    <circle cx="72.57485029940119" cy="338.77690748940756" r="4" fill="#3b82f6" stroke="#0d1117" stroke-width="2" class="data-point"/>
  
    <circle cx="76.76646706586827" cy="337.88049151582555" r="4" fill="#3b82f6" stroke="#0d1117" stroke-width="2" class="data-point"/>
  
    <circle cx="80.95808383233533" cy="336.95490799429615" r="4" fill="#3b82f6" stroke="#0d1117" stroke-width="2" class="data-point"/>
  
    <circle cx="85.1497005988024" cy="336.22571929561224" r="4" fill="#3b82f6" stroke="#0d1117" stroke-width="2" class="data-point"/>
  
    <circle cx="89.34131736526946" cy="335.5451431768406" r="4" fill="#3b82f6" stroke="#0d1117" stroke-width="2" class="data-point"/>
  
    <circle cx="93.53293413173654" cy="334.94040268273216" r="4" fill="#3b82f6" stroke="#0d1117" stroke-width="2" class="data-point"/>
  
    <circle cx="97.7245508982036" cy="334.23065901601313" r="4" fill="#3b82f6" stroke="#0d1117" stroke-width="2" class="data-point"/>
  
    <circle cx="101.91616766467067" cy="333.4392462150416" r="4" fill="#3b82f6" stroke="#0d1117" stroke-width="2" class="data-point"/>
  
    <circle cx="106.10778443113773" cy="332.5914428213718" r="4" fill="#3b82f6" stroke="#0d1117" stroke-width="2" class="data-point"/>
  
    <circle cx="110.2994011976048" cy="331.82141955556165" r="4" fill="#3b82f6" stroke="#0d1117" stroke-width="2" class="data-point"/>
  
    <circle cx="114.49101796407186" cy="331.0027837098392" r="4" fill="#3b82f6" stroke="#0d1117" stroke-width="2" class="data-point"/>
  
    <circle cx="118.68263473053892" cy="330.40582122851663" r="4" fill="#3b82f6" stroke="#0d1117" stroke-width="2" class="data-point"/>
  
    <circle cx="122.87425149700599" cy="329.7874692120327" r="4" fill="#3b82f6" stroke="#0d1117" stroke-width="2" class="data-point"/>
  
    <circle cx="127.06586826347306" cy="328.9474438311489" r="4" fill="#3b82f6" stroke="#0d1117" stroke-width="2" class="data-point"/>
  
    <circle cx="131.2574850299401" cy="328.38548240736316" r="4" fill="#3b82f6" stroke="#0d1117" stroke-width="2" class="data-point"/>
  
    <circle cx="135.4491017964072" cy="327.60768112876707" r="4" fill="#3b82f6" stroke="#0d1117" stroke-width="2" class="data-point"/>
  
    <circle cx="139.64071856287424" cy="326.7093206519885" r="4" fill="#3b82f6" stroke="#0d1117" stroke-width="2" class="data-point"/>
  
    <circle cx="143.83233532934133" cy="326.0326335396099" r="4" fill="#3b82f6" stroke="#0d1117" stroke-width="2" class="data-point"/>
  
    <circle cx="148.0239520958084" cy="325.4765056254136" r="4" fill="#3b82f6" stroke="#0d1117" stroke-width="2" class="data-point"/>
  
    <circle cx="152.21556886227546" cy="325.11677253406293" r="4" fill="#3b82f6" stroke="#0d1117" stroke-width="2" class="data-point"/>
  
    <circle cx="156.40718562874252" cy="324.8173190418034" r="4" fill="#3b82f6" stroke="#0d1117" stroke-width="2" class="data-point"/>
  
    <circle cx="160.5988023952096" cy="324.2631356308037" r="4" fill="#3b82f6" stroke="#0d1117" stroke-width="2" class="data-point"/>
  
    <circle cx="164.79041916167665" cy="323.8684014819161" r="4" fill="#3b82f6" stroke="#0d1117" stroke-width="2" class="data-point"/>
  
    <circle cx="168.98203592814372" cy="323.0030975594779" r="4" fill="#3b82f6" stroke="#0d1117" stroke-width="2" class="data-point"/>
  
    <circle cx="173.17365269461078" cy="322.6628095000921" r="4" fill="#3b82f6" stroke="#0d1117" stroke-width="2" class="data-point"/>
  
    <circle cx="177.36526946107784" cy="322.2233517776853" r="4" fill="#3b82f6" stroke="#0d1117" stroke-width="2" class="data-point"/>
  
    <circle cx="181.5568862275449" cy="321.6555568443101" r="4" fill="#3b82f6" stroke="#0d1117" stroke-width="2" class="data-point"/>
  
    <circle cx="185.74850299401197" cy="321.26665620501205" r="4" fill="#3b82f6" stroke="#0d1117" stroke-width="2" class="data-point"/>
  
    <circle cx="189.94011976047904" cy="320.8719220561245" r="4" fill="#3b82f6" stroke="#0d1117" stroke-width="2" class="data-point"/>
  
    <circle cx="194.13173652694613" cy="320.45774287527206" r="4" fill="#3b82f6" stroke="#0d1117" stroke-width="2" class="data-point"/>
  
    <circle cx="198.32335329341316" cy="320.1699564021915" r="4" fill="#3b82f6" stroke="#0d1117" stroke-width="2" class="data-point"/>
  
    <circle cx="202.51497005988023" cy="319.9210599930407" r="4" fill="#3b82f6" stroke="#0d1117" stroke-width="2" class="data-point"/>
  
    <circle cx="206.7065868263473" cy="319.5418818697251" r="4" fill="#3b82f6" stroke="#0d1117" stroke-width="2" class="data-point"/>
  
    <circle cx="210.89820359281438" cy="319.0810346121569" r="4" fill="#3b82f6" stroke="#0d1117" stroke-width="2" class="data-point"/>
  
    <circle cx="215.08982035928145" cy="318.657132915322" r="4" fill="#3b82f6" stroke="#0d1117" stroke-width="2" class="data-point"/>
  
    <circle cx="219.28143712574848" cy="318.12045003309066" r="4" fill="#3b82f6" stroke="#0d1117" stroke-width="2" class="data-point"/>
  
    <circle cx="223.47305389221557" cy="317.5351545709471" r="4" fill="#3b82f6" stroke="#0d1117" stroke-width="2" class="data-point"/>
  
    <circle cx="227.66467065868264" cy="316.99847168871577" r="4" fill="#3b82f6" stroke="#0d1117" stroke-width="2" class="data-point"/>
  
    <circle cx="231.8562874251497" cy="316.35095212428445" r="4" fill="#3b82f6" stroke="#0d1117" stroke-width="2" class="data-point"/>
  
    <circle cx="236.04790419161677" cy="315.71509957903214" r="4" fill="#3b82f6" stroke="#0d1117" stroke-width="2" class="data-point"/>
  
    <circle cx="240.2395209580838" cy="315.0792470337798" r="4" fill="#3b82f6" stroke="#0d1117" stroke-width="2" class="data-point"/>
  
    <circle cx="244.43113772455092" cy="314.38311488943623" r="4" fill="#3b82f6" stroke="#0d1117" stroke-width="2" class="data-point"/>
  
    <circle cx="248.622754491018" cy="313.7180947962365" r="4" fill="#3b82f6" stroke="#0d1117" stroke-width="2" class="data-point"/>
  
    <circle cx="252.81437125748502" cy="312.9577940464088" r="4" fill="#3b82f6" stroke="#0d1117" stroke-width="2" class="data-point"/>
  
    <circle cx="257.0059880239521" cy="312.2791624308337" r="4" fill="#3b82f6" stroke="#0d1117" stroke-width="2" class="data-point"/>
  
    <circle cx="261.1976047904192" cy="311.70553398786905" r="4" fill="#3b82f6" stroke="#0d1117" stroke-width="2" class="data-point"/>
  
    <circle cx="265.38922155688624" cy="311.2466312334973" r="4" fill="#3b82f6" stroke="#0d1117" stroke-width="2" class="data-point"/>
  
    <circle cx="269.5808383233533" cy="310.6049451786555" r="4" fill="#3b82f6" stroke="#0d1117" stroke-width="2" class="data-point"/>
  
    <circle cx="273.77245508982037" cy="309.8718674735786" r="4" fill="#3b82f6" stroke="#0d1117" stroke-width="2" class="data-point"/>
  
    <circle cx="277.96407185628743" cy="309.20101387078944" r="4" fill="#3b82f6" stroke="#0d1117" stroke-width="2" class="data-point"/>
  
    <circle cx="282.1556886227545" cy="308.4173790826039" r="4" fill="#3b82f6" stroke="#0d1117" stroke-width="2" class="data-point"/>
  
    <circle cx="286.34730538922156" cy="307.4509609939482" r="4" fill="#3b82f6" stroke="#0d1117" stroke-width="2" class="data-point"/>
  
    <circle cx="290.5389221556886" cy="306.73149481124676" r="4" fill="#3b82f6" stroke="#0d1117" stroke-width="2" class="data-point"/>
  
    <circle cx="294.7305389221557" cy="306.1345323299242" r="4" fill="#3b82f6" stroke="#0d1117" stroke-width="2" class="data-point"/>
  
    <circle cx="298.92215568862275" cy="305.566737396549" r="4" fill="#3b82f6" stroke="#0d1117" stroke-width="2" class="data-point"/>
  
    <circle cx="303.1137724550898" cy="304.8842167745809" r="4" fill="#3b82f6" stroke="#0d1117" stroke-width="2" class="data-point"/>
  
    <circle cx="307.3053892215569" cy="304.09085947041285" r="4" fill="#3b82f6" stroke="#0d1117" stroke-width="2" class="data-point"/>
  
    <circle cx="311.49700598802394" cy="303.2119440255992" r="4" fill="#3b82f6" stroke="#0d1117" stroke-width="2" class="data-point"/>
  
    <circle cx="315.688622754491" cy="302.28830500726633" r="4" fill="#3b82f6" stroke="#0d1117" stroke-width="2" class="data-point"/>
  
    <circle cx="319.88023952095807" cy="301.4016115496667" r="4" fill="#3b82f6" stroke="#0d1117" stroke-width="2" class="data-point"/>
  
    <circle cx="324.07185628742513" cy="300.62186576787406" r="4" fill="#3b82f6" stroke="#0d1117" stroke-width="2" class="data-point"/>
  
    <circle cx="328.26347305389226" cy="299.84795349567094" r="4" fill="#3b82f6" stroke="#0d1117" stroke-width="2" class="data-point"/>
  
    <circle cx="332.4550898203593" cy="299.1654328737028" r="4" fill="#3b82f6" stroke="#0d1117" stroke-width="2" class="data-point"/>
  
    <circle cx="336.6467065868263" cy="298.46930072935925" r="4" fill="#3b82f6" stroke="#0d1117" stroke-width="2" class="data-point"/>
  
    <circle cx="340.8383233532934" cy="297.6914994507631" r="4" fill="#3b82f6" stroke="#0d1117" stroke-width="2" class="data-point"/>
  
    <circle cx="345.02994011976045" cy="296.72313685891095" r="4" fill="#3b82f6" stroke="#0d1117" stroke-width="2" class="data-point"/>
  
    <circle cx="349.2215568862275" cy="296.001726173013" r="4" fill="#3b82f6" stroke="#0d1117" stroke-width="2" class="data-point"/>
  
    <circle cx="353.4131736526946" cy="295.3561511117782" r="4" fill="#3b82f6" stroke="#0d1117" stroke-width="2" class="data-point"/>
  
    <circle cx="357.6047904191617" cy="294.6386294322733" r="4" fill="#3b82f6" stroke="#0d1117" stroke-width="2" class="data-point"/>
  
    <circle cx="361.79640718562877" cy="293.9697203326806" r="4" fill="#3b82f6" stroke="#0d1117" stroke-width="2" class="data-point"/>
  
    <circle cx="365.98802395209583" cy="293.23469812440726" r="4" fill="#3b82f6" stroke="#0d1117" stroke-width="2" class="data-point"/>
  
    <circle cx="370.1796407185629" cy="292.4685638649901" r="4" fill="#3b82f6" stroke="#0d1117" stroke-width="2" class="data-point"/>
  
    <circle cx="374.37125748502996" cy="291.66742854803607" r="4" fill="#3b82f6" stroke="#0d1117" stroke-width="2" class="data-point"/>
  
    <circle cx="378.56287425149696" cy="290.96546289410304" r="4" fill="#3b82f6" stroke="#0d1117" stroke-width="2" class="data-point"/>
  
    <circle cx="382.7544910179641" cy="290.36461140638755" r="4" fill="#3b82f6" stroke="#0d1117" stroke-width="2" class="data-point"/>
  
    <circle cx="386.94610778443115" cy="289.7054248227773" r="4" fill="#3b82f6" stroke="#0d1117" stroke-width="2" class="data-point"/>
  
    <circle cx="391.1377245508982" cy="288.99179214966534" r="4" fill="#3b82f6" stroke="#0d1117" stroke-width="2" class="data-point"/>
  
    <circle cx="395.3293413173653" cy="288.3306610628586" r="4" fill="#3b82f6" stroke="#0d1117" stroke-width="2" class="data-point"/>
  
    <circle cx="399.52095808383234" cy="287.4692461468134" r="4" fill="#3b82f6" stroke="#0d1117" stroke-width="2" class="data-point"/>
  
    <circle cx="403.7125748502994" cy="286.72839042895055" r="4" fill="#3b82f6" stroke="#0d1117" stroke-width="2" class="data-point"/>
  
    <circle cx="407.90419161676647" cy="286.0147577558386" r="4" fill="#3b82f6" stroke="#0d1117" stroke-width="2" class="data-point"/>
  
    <circle cx="412.09580838323353" cy="285.42168428090906" r="4" fill="#3b82f6" stroke="#0d1117" stroke-width="2" class="data-point"/>
  
    <circle cx="416.2874251497006" cy="284.84611133474795" r="4" fill="#3b82f6" stroke="#0d1117" stroke-width="2" class="data-point"/>
  
    <circle cx="420.4790419161676" cy="284.2685938853903" r="4" fill="#3b82f6" stroke="#0d1117" stroke-width="2" class="data-point"/>
  
    <circle cx="424.6706586826347" cy="283.57829525063624" r="4" fill="#3b82f6" stroke="#0d1117" stroke-width="2" class="data-point"/>
  
    <circle cx="428.86227544910184" cy="282.8685515839172" r="4" fill="#3b82f6" stroke="#0d1117" stroke-width="2" class="data-point"/>
  
    <circle cx="433.05389221556885" cy="282.00713666787203" r="4" fill="#3b82f6" stroke="#0d1117" stroke-width="2" class="data-point"/>
  
    <circle cx="437.245508982036" cy="281.309060020332" r="4" fill="#3b82f6" stroke="#0d1117" stroke-width="2" class="data-point"/>
  
    <circle cx="441.437125748503" cy="280.73932058376033" r="4" fill="#3b82f6" stroke="#0d1117" stroke-width="2" class="data-point"/>
  
    <circle cx="445.62874251497004" cy="280.1540251216167" r="4" fill="#3b82f6" stroke="#0d1117" stroke-width="2" class="data-point"/>
  
    <circle cx="449.8203592814371" cy="279.5940082010275" r="4" fill="#3b82f6" stroke="#0d1117" stroke-width="2" class="data-point"/>
  
    <circle cx="454.01197604790417" cy="278.90176506307694" r="4" fill="#3b82f6" stroke="#0d1117" stroke-width="2" class="data-point"/>
  
    <circle cx="458.2035928143713" cy="278.192021396358" r="4" fill="#3b82f6" stroke="#0d1117" stroke-width="2" class="data-point"/>
  
    <circle cx="462.3952095808383" cy="276.6228073167903" r="4" fill="#3b82f6" stroke="#0d1117" stroke-width="2" class="data-point"/>
  
    <circle cx="466.5868263473054" cy="273.4999351832268" r="4" fill="#3b82f6" stroke="#0d1117" stroke-width="2" class="data-point"/>
  
    <circle cx="470.7784431137724" cy="269.78010056834074" r="4" fill="#3b82f6" stroke="#0d1117" stroke-width="2" class="data-point"/>
  
    <circle cx="474.97005988023955" cy="266.3908314968581" r="4" fill="#3b82f6" stroke="#0d1117" stroke-width="2" class="data-point"/>
  
    <circle cx="479.16167664670655" cy="264.6718906711606" r="4" fill="#3b82f6" stroke="#0d1117" stroke-width="2" class="data-point"/>
  
    <circle cx="483.3532934131737" cy="262.0818124134355" r="4" fill="#3b82f6" stroke="#0d1117" stroke-width="2" class="data-point"/>
  
    <circle cx="487.54491017964074" cy="260.3609270845416" r="4" fill="#3b82f6" stroke="#0d1117" stroke-width="2" class="data-point"/>
  
    <circle cx="491.73652694610774" cy="258.851992604065" r="4" fill="#3b82f6" stroke="#0d1117" stroke-width="2" class="data-point"/>
  
    <circle cx="495.92814371257487" cy="257.37611467792885" r="4" fill="#3b82f6" stroke="#0d1117" stroke-width="2" class="data-point"/>
  
    <circle cx="500.1197604790419" cy="255.98579489243826" r="4" fill="#3b82f6" stroke="#0d1117" stroke-width="2" class="data-point"/>
  
    <circle cx="504.311377245509" cy="253.823507337941" r="4" fill="#3b82f6" stroke="#0d1117" stroke-width="2" class="data-point"/>
  
    <circle cx="508.5029940119761" cy="252.10456651224354" r="4" fill="#3b82f6" stroke="#0d1117" stroke-width="2" class="data-point"/>
  
    <circle cx="512.6946107784431" cy="249.90727790020946" r="4" fill="#3b82f6" stroke="#0d1117" stroke-width="2" class="data-point"/>
  
    <circle cx="516.8862275449102" cy="249.4580976618202" r="4" fill="#3b82f6" stroke="#0d1117" stroke-width="2" class="data-point"/>
  
    <circle cx="521.0778443113772" cy="249.39976256592547" r="4" fill="#3b82f6" stroke="#0d1117" stroke-width="2" class="data-point"/>
  
    <circle cx="525.2694610778443" cy="249.32392694126236" r="4" fill="#3b82f6" stroke="#0d1117" stroke-width="2" class="data-point"/>
  
    <circle cx="529.4610778443114" cy="249.2597583357782" r="4" fill="#3b82f6" stroke="#0d1117" stroke-width="2" class="data-point"/>
  
    <circle cx="533.6526946107784" cy="249.1761446983291" r="4" fill="#3b82f6" stroke="#0d1117" stroke-width="2" class="data-point"/>
  
    <circle cx="537.8443113772455" cy="249.10225357686244" r="4" fill="#3b82f6" stroke="#0d1117" stroke-width="2" class="data-point"/>
  
    <circle cx="542.0359281437126" cy="249.0730860289151" r="4" fill="#3b82f6" stroke="#0d1117" stroke-width="2" class="data-point"/>
  
    <circle cx="546.2275449101796" cy="248.96613835310814" r="4" fill="#3b82f6" stroke="#0d1117" stroke-width="2" class="data-point"/>
  
    <circle cx="550.4191616766467" cy="248.86307968369414" r="4" fill="#3b82f6" stroke="#0d1117" stroke-width="2" class="data-point"/>
  
    <circle cx="554.6107784431138" cy="248.79502207181696" r="4" fill="#3b82f6" stroke="#0d1117" stroke-width="2" class="data-point"/>
  
    <circle cx="558.8023952095808" cy="248.76974353026262" r="4" fill="#3b82f6" stroke="#0d1117" stroke-width="2" class="data-point"/>
  
    <circle cx="562.9940119760479" cy="248.6550178416697" r="4" fill="#3b82f6" stroke="#0d1117" stroke-width="2" class="data-point"/>
  
    <circle cx="567.1856287425151" cy="245.83548820675867" r="4" fill="#3b82f6" stroke="#0d1117" stroke-width="2" class="data-point"/>
  
    <circle cx="571.377245508982" cy="241.41952144752912" r="4" fill="#3b82f6" stroke="#0d1117" stroke-width="2" class="data-point"/>
  
    <circle cx="575.5688622754491" cy="238.46193208566729" r="4" fill="#3b82f6" stroke="#0d1117" stroke-width="2" class="data-point"/>
  
    <circle cx="579.7604790419161" cy="235.02793944066536" r="4" fill="#3b82f6" stroke="#0d1117" stroke-width="2" class="data-point"/>
  
    <circle cx="583.9520958083832" cy="231.48894362305293" r="4" fill="#3b82f6" stroke="#0d1117" stroke-width="2" class="data-point"/>
  
    <circle cx="588.1437125748503" cy="228.71219305846472" r="4" fill="#3b82f6" stroke="#0d1117" stroke-width="2" class="data-point"/>
  
    <circle cx="592.3353293413173" cy="225.60682145366965" r="4" fill="#3b82f6" stroke="#0d1117" stroke-width="2" class="data-point"/>
  
    <circle cx="596.5269461077845" cy="220.87584517660866" r="4" fill="#3b82f6" stroke="#0d1117" stroke-width="2" class="data-point"/>
  
    <circle cx="600.7185628742515" cy="214.49981919531683" r="4" fill="#3b82f6" stroke="#0d1117" stroke-width="2" class="data-point"/>
  
    <circle cx="604.9101796407186" cy="210.33858235482748" r="4" fill="#3b82f6" stroke="#0d1117" stroke-width="2" class="data-point"/>
  
    <circle cx="609.1017964071856" cy="205.38593271336657" r="4" fill="#3b82f6" stroke="#0d1117" stroke-width="2" class="data-point"/>
  
    <circle cx="613.2934131736527" cy="199.867432641727" r="4" fill="#3b82f6" stroke="#0d1117" stroke-width="2" class="data-point"/>
  
    <circle cx="617.4850299401197" cy="195.44174336651497" r="4" fill="#3b82f6" stroke="#0d1117" stroke-width="2" class="data-point"/>
  
    <circle cx="621.6766467065868" cy="190.63882047118383" r="4" fill="#3b82f6" stroke="#0d1117" stroke-width="2" class="data-point"/>
  
    <circle cx="625.868263473054" cy="186.37841396767348" r="4" fill="#3b82f6" stroke="#0d1117" stroke-width="2" class="data-point"/>
  
    <circle cx="630.0598802395209" cy="182.15689752809297" r="4" fill="#3b82f6" stroke="#0d1117" stroke-width="2" class="data-point"/>
  
    <circle cx="634.2514970059881" cy="177.94704810769136" r="4" fill="#3b82f6" stroke="#0d1117" stroke-width="2" class="data-point"/>
  
    <circle cx="638.443113772455" cy="172.21465268443782" r="4" fill="#3b82f6" stroke="#0d1117" stroke-width="2" class="data-point"/>
  
    <circle cx="642.6347305389222" cy="166.4647567324159" r="4" fill="#3b82f6" stroke="#0d1117" stroke-width="2" class="data-point"/>
  
    <circle cx="646.8263473053892" cy="161.6715563530672" r="4" fill="#3b82f6" stroke="#0d1117" stroke-width="2" class="data-point"/>
  
    <circle cx="651.0179640718562" cy="157.65421274911813" r="4" fill="#3b82f6" stroke="#0d1117" stroke-width="2" class="data-point"/>
  
    <circle cx="655.2095808383234" cy="153.7574283433515" r="4" fill="#3b82f6" stroke="#0d1117" stroke-width="2" class="data-point"/>
  
    <circle cx="659.4011976047904" cy="148.5850498406872" r="4" fill="#3b82f6" stroke="#0d1117" stroke-width="2" class="data-point"/>
  
    <circle cx="663.5928143712575" cy="144.5735397463276" r="4" fill="#3b82f6" stroke="#0d1117" stroke-width="2" class="data-point"/>
  
    <circle cx="667.7844311377245" cy="140.6048087222908" r="4" fill="#3b82f6" stroke="#0d1117" stroke-width="2" class="data-point"/>
  
    <circle cx="671.9760479041917" cy="136.89275212019075" r="4" fill="#3b82f6" stroke="#0d1117" stroke-width="2" class="data-point"/>
  
    <circle cx="676.1676646706587" cy="133.39653537290113" r="4" fill="#3b82f6" stroke="#0d1117" stroke-width="2" class="data-point"/>
  
    <circle cx="680.3592814371258" cy="129.81476048496592" r="4" fill="#3b82f6" stroke="#0d1117" stroke-width="2" class="data-point"/>
  
    <circle cx="684.5508982035929" cy="126.75216795049363" r="4" fill="#3b82f6" stroke="#0d1117" stroke-width="2" class="data-point"/>
  
    <circle cx="688.7425149700599" cy="123.5806832370179" r="4" fill="#3b82f6" stroke="#0d1117" stroke-width="2" class="data-point"/>
  
    <circle cx="692.934131736527" cy="120.34308541486146" r="4" fill="#3b82f6" stroke="#0d1117" stroke-width="2" class="data-point"/>
  
    <circle cx="697.1257485029939" cy="116.92075978903844" r="4" fill="#3b82f6" stroke="#0d1117" stroke-width="2" class="data-point"/>
  
    <circle cx="701.3173652694611" cy="113.78038712670653" r="4" fill="#3b82f6" stroke="#0d1117" stroke-width="2" class="data-point"/>
  
    <circle cx="705.5089820359282" cy="110.90446689909734" r="4" fill="#3b82f6" stroke="#0d1117" stroke-width="2" class="data-point"/>
  
    <circle cx="709.7005988023952" cy="105.69319833250321" r="4" fill="#3b82f6" stroke="#0d1117" stroke-width="2" class="data-point"/>
  
    <circle cx="713.8922155688623" cy="101.3316776627754" r="4" fill="#3b82f6" stroke="#0d1117" stroke-width="2" class="data-point"/>
  
    <circle cx="718.0838323353294" cy="97.1432177775352" r="4" fill="#3b82f6" stroke="#0d1117" stroke-width="2" class="data-point"/>
  
    <circle cx="722.2754491017964" cy="93.12004066399666" r="4" fill="#3b82f6" stroke="#0d1117" stroke-width="2" class="data-point"/>
  
    <circle cx="726.4670658682635" cy="86.76734872106275" r="4" fill="#3b82f6" stroke="#0d1117" stroke-width="2" class="data-point"/>
  
    <circle cx="730.6586826347306" cy="82.74806061391718" r="4" fill="#3b82f6" stroke="#0d1117" stroke-width="2" class="data-point"/>
  
    <circle cx="734.8502994011976" cy="79.26934439539593" r="4" fill="#3b82f6" stroke="#0d1117" stroke-width="2" class="data-point"/>
  
    <circle cx="739.0419161676647" cy="75.16060914121186" r="4" fill="#3b82f6" stroke="#0d1117" stroke-width="2" class="data-point"/>
  
    <circle cx="743.2335329341317" cy="69.10348168414447" r="4" fill="#3b82f6" stroke="#0d1117" stroke-width="2" class="data-point"/>
  
    <circle cx="747.4251497005988" cy="64.7458500208096" r="4" fill="#3b82f6" stroke="#0d1117" stroke-width="2" class="data-point"/>
  
    <circle cx="751.6167664670659" cy="61.06684997304984" r="4" fill="#3b82f6" stroke="#0d1117" stroke-width="2" class="data-point"/>
  
    <circle cx="755.8083832335329" cy="57.95370035546881" r="4" fill="#3b82f6" stroke="#0d1117" stroke-width="2" class="data-point"/>
  
    <circle cx="760" cy="55" r="4" fill="#3b82f6" stroke="#0d1117" stroke-width="2" class="data-point"/>
  

  <!-- Axis lines -->
  <line x1="60" y1="55" x2="60" y2="340"
        stroke="#30363d" stroke-width="2"/>
  <line x1="60" y1="340" x2="760" y2="340"
        stroke="#30363d" stroke-width="2"/>
</svg>