<?xml version="1.0" encoding="UTF-8"?>
<svg width="800" height="400" xmlns="http://www.w3.org/2000/svg">
  <defs>
    <!-- Gradient for area fill -->
    <linearGradient id="areaGradient" x1="0%" y1="0%" x2="0%" y2="100%">
      <stop offset="0%" style="stop-color:#3b82f6;stop-opacity:0.3" />
      <stop offset="100%" style="stop-color:#3b82f6;stop-opacity:0.05" />
    </linearGradient>

    <!-- Glow filter for line -->
    <filter id="glow">
      <feGaussianBlur stdDeviation="2" result="coloredBlur"/>
      <feMerge>
        <feMergeNode in="coloredBlur"/>
        <feMergeNode in="SourceGraphic"/>
      </feMerge>
    </filter>

    <!-- Animation -->
    <style>
      @keyframes draw {
        from { stroke-dashoffset: 2000; }
        to { stroke-dashoffset: 0; }
      }
      @keyframes fadeIn {
        from { opacity: 0; }
        to { opacity: 1; }
      }
      .line-path {
        stroke-dasharray: 2000;
        stroke-dashoffset: 2000;
        animation: draw 1.5s ease-out forwards;
      }
      .area-path {
        opacity: 0;
        animation: fadeIn 1s ease-out 0.5s forwards;
      }
      .data-point {
        opacity: 0;
        animation: fadeIn 0.5s ease-out 1s forwards;
      }
    </style>
  </defs>

  <!-- Background -->
  <rect width="800" height="400" fill="#0d1117" rx="8"/>

  <!-- Title -->
  <text x="400" y="25" text-anchor="middle" fill="#c9d1d9" font-family="system-ui, -apple-system, sans-serif" font-size="16" font-weight="600">
    zxcloli666/SoundCloud-Desktop Downloads
  </text>

  <!-- Stats -->
  <text x="780" y="25" text-anchor="end" fill="#58a6ff" font-family="system-ui, -apple-system, sans-serif" font-size="14" font-weight="600">
    210.5K total
  </text>
  <text x="780" y="42" text-anchor="end" fill="#3fb950" font-family="system-ui, -apple-system, sans-serif" font-size="12">
    +1.1K (+0.5%)
  </text>

  <!-- Grid lines -->
  <g opacity="0.1">
    
      <line x1="60" y1="340" x2="760" y2="340"
            stroke="#c9d1d9" stroke-width="1"/>
    
      <line x1="60" y1="268.75" x2="760" y2="268.75"
            stroke="#c9d1d9" stroke-width="1"/>
    
      <line x1="60" y1="197.5" x2="760" y2="197.5"
            stroke="#c9d1d9" stroke-width="1"/>
    
      <line x1="60" y1="126.25" x2="760" y2="126.25"
            stroke="#c9d1d9" stroke-width="1"/>
    
      <line x1="60" y1="55" x2="760" y2="55"
            stroke="#c9d1d9" stroke-width="1"/>
    
  </g>

  <!-- Y-axis labels -->
  
    <text x="50" y="344" text-anchor="end"
          fill="#8b949e" font-family="system-ui, -apple-system, sans-serif" font-size="11">
      60.2K
    </text>
  
    <text x="50" y="272.75" text-anchor="end"
          fill="#8b949e" font-family="system-ui, -apple-system, sans-serif" font-size="11">
      97.7K
    </text>
  
    <text x="50" y="201.5" text-anchor="end"
          fill="#8b949e" font-family="system-ui, -apple-system, sans-serif" font-size="11">
      135.3K
    </text>
  
    <text x="50" y="130.25" text-anchor="end"
          fill="#8b949e" font-family="system-ui, -apple-system, sans-serif" font-size="11">
      172.9K
    </text>
  
    <text x="50" y="59" text-anchor="end"
          fill="#8b949e" font-family="system-ui, -apple-system, sans-serif" font-size="11">
      210.5K
    </text>
  

  <!-- X-axis labels -->
  
    <text x="60" y="360" text-anchor="middle"
          fill="#8b949e" font-family="system-ui, -apple-system, sans-serif" font-size="11">
      Nov 25
    </text>
  
    <text x="146.47058823529412" y="360" text-anchor="middle"
          fill="#8b949e" font-family="system-ui, -apple-system, sans-serif" font-size="11">
      Dec 16
    </text>
  
    <text x="232.94117647058823" y="360" text-anchor="middle"
          fill="#8b949e" font-family="system-ui, -apple-system, sans-serif" font-size="11">
      Jan 6
    </text>
  
    <text x="319.4117647058824" y="360" text-anchor="middle"
          fill="#8b949e" font-family="system-ui, -apple-system, sans-serif" font-size="11">
      Jan 27
    </text>
  
    <text x="405.88235294117646" y="360" text-anchor="middle"
          fill="#8b949e" font-family="system-ui, -apple-system, sans-serif" font-size="11">
      Feb 17
    </text>
  
    <text x="492.3529411764706" y="360" text-anchor="middle"
          fill="#8b949e" font-family="system-ui, -apple-system, sans-serif" font-size="11">
      Mar 10
    </text>
  
    <text x="578.8235294117648" y="360" text-anchor="middle"
          fill="#8b949e" font-family="system-ui, -apple-system, sans-serif" font-size="11">
      Mar 31
    </text>
  
    <text x="665.2941176470589" y="360" text-anchor="middle"
          fill="#8b949e" font-family="system-ui, -apple-system, sans-serif" font-size="11">
      Apr 21
    </text>
  
    <text x="751.7647058823529" y="360" text-anchor="middle"
          fill="#8b949e" font-family="system-ui, -apple-system, sans-serif" font-size="11">
      May 12
    </text>
  
    <text x="760" y="360" text-anchor="middle"
          fill="#8b949e" font-family="system-ui, -apple-system, sans-serif" font-size="11">
      May 14
    </text>
  

  <!-- Area under line -->
  <path d="M 60 340
    L 60.00 340.00 L 64.12 339.72 L 68.24 339.25 L 72.35 338.81 L 76.47 337.93 L 80.59 337.03 L 84.71 336.32 L 88.82 335.66 L 92.94 335.07 L 97.06 334.37 L 101.18 333.60 L 105.29 332.78 L 109.41 332.03 L 113.53 331.23 L 117.65 330.65 L 121.76 330.04 L 125.88 329.22 L 130.00 328.68 L 134.12 327.92 L 138.24 327.04 L 142.35 326.38 L 146.47 325.84 L 150.59 325.49 L 154.71 325.20 L 158.82 324.66 L 162.94 324.27 L 167.06 323.43 L 171.18 323.10 L 175.29 322.67 L 179.41 322.11 L 183.53 321.74 L 187.65 321.35 L 191.76 320.95 L 195.88 320.67 L 200.00 320.42 L 204.12 320.05 L 208.24 319.60 L 212.35 319.19 L 216.47 318.67 L 220.59 318.10 L 224.71 317.57 L 228.82 316.94 L 232.94 316.32 L 237.06 315.70 L 241.18 315.02 L 245.29 314.38 L 249.41 313.63 L 253.53 312.97 L 257.65 312.41 L 261.76 311.97 L 265.88 311.34 L 270.00 310.63 L 274.12 309.97 L 278.24 309.21 L 282.35 308.27 L 286.47 307.56 L 290.59 306.98 L 294.71 306.43 L 298.82 305.76 L 302.94 304.99 L 307.06 304.13 L 311.18 303.23 L 315.29 302.37 L 319.41 301.61 L 323.53 300.85 L 327.65 300.19 L 331.76 299.51 L 335.88 298.75 L 340.00 297.81 L 344.12 297.10 L 348.24 296.47 L 352.35 295.77 L 356.47 295.12 L 360.59 294.40 L 364.71 293.66 L 368.82 292.88 L 372.94 292.19 L 377.06 291.61 L 381.18 290.96 L 385.29 290.27 L 389.41 289.62 L 393.53 288.78 L 397.65 288.06 L 401.76 287.37 L 405.88 286.79 L 410.00 286.23 L 414.12 285.66 L 418.24 284.99 L 422.35 284.30 L 426.47 283.46 L 430.59 282.78 L 434.71 282.22 L 438.82 281.65 L 442.94 281.10 L 447.06 280.43 L 451.18 279.74 L 455.29 278.21 L 459.41 275.16 L 463.53 271.54 L 467.65 268.23 L 471.76 266.56 L 475.88 264.03 L 480.00 262.35 L 484.12 260.88 L 488.24 259.44 L 492.35 258.09 L 496.47 255.98 L 500.59 254.30 L 504.71 252.16 L 508.82 251.72 L 512.94 251.67 L 517.06 251.59 L 521.18 251.53 L 525.29 251.45 L 529.41 251.38 L 533.53 251.35 L 537.65 251.24 L 541.76 251.14 L 545.88 251.08 L 550.00 251.05 L 554.12 250.94 L 558.24 248.19 L 562.35 243.89 L 566.47 241.00 L 570.59 237.65 L 574.71 234.20 L 578.82 231.50 L 582.94 228.47 L 587.06 223.86 L 591.18 217.64 L 595.29 213.58 L 599.41 208.75 L 603.53 203.37 L 607.65 199.06 L 611.76 194.37 L 615.88 190.22 L 620.00 186.10 L 624.12 182.00 L 628.24 176.41 L 632.35 170.81 L 636.47 166.13 L 640.59 162.22 L 644.71 158.42 L 648.82 153.37 L 652.94 149.46 L 657.06 145.59 L 661.18 141.97 L 665.29 138.56 L 669.41 135.07 L 673.53 132.09 L 677.65 128.99 L 681.76 125.84 L 685.88 122.50 L 690.00 119.44 L 694.12 116.63 L 698.24 111.55 L 702.35 107.30 L 706.47 103.22 L 710.59 99.30 L 714.71 93.10 L 718.82 89.18 L 722.94 85.79 L 727.06 81.78 L 731.18 75.88 L 735.29 71.63 L 739.41 68.04 L 743.53 65.01 L 747.65 62.13 L 751.76 59.79 L 755.88 57.15 L 760.00 55.00
    L 760 340
    Z" fill="url(#areaGradient)" class="area-path"/>

  <!-- Main line with glow -->
  <path d="M 60.00 340.00 L 64.12 339.72 L 68.24 339.25 L 72.35 338.81 L 76.47 337.93 L 80.59 337.03 L 84.71 336.32 L 88.82 335.66 L 92.94 335.07 L 97.06 334.37 L 101.18 333.60 L 105.29 332.78 L 109.41 332.03 L 113.53 331.23 L 117.65 330.65 L 121.76 330.04 L 125.88 329.22 L 130.00 328.68 L 134.12 327.92 L 138.24 327.04 L 142.35 326.38 L 146.47 325.84 L 150.59 325.49 L 154.71 325.20 L 158.82 324.66 L 162.94 324.27 L 167.06 323.43 L 171.18 323.10 L 175.29 322.67 L 179.41 322.11 L 183.53 321.74 L 187.65 321.35 L 191.76 320.95 L 195.88 320.67 L 200.00 320.42 L 204.12 320.05 L 208.24 319.60 L 212.35 319.19 L 216.47 318.67 L 220.59 318.10 L 224.71 317.57 L 228.82 316.94 L 232.94 316.32 L 237.06 315.70 L 241.18 315.02 L 245.29 314.38 L 249.41 313.63 L 253.53 312.97 L 257.65 312.41 L 261.76 311.97 L 265.88 311.34 L 270.00 310.63 L 274.12 309.97 L 278.24 309.21 L 282.35 308.27 L 286.47 307.56 L 290.59 306.98 L 294.71 306.43 L 298.82 305.76 L 302.94 304.99 L 307.06 304.13 L 311.18 303.23 L 315.29 302.37 L 319.41 301.61 L 323.53 300.85 L 327.65 300.19 L 331.76 299.51 L 335.88 298.75 L 340.00 297.81 L 344.12 297.10 L 348.24 296.47 L 352.35 295.77 L 356.47 295.12 L 360.59 294.40 L 364.71 293.66 L 368.82 292.88 L 372.94 292.19 L 377.06 291.61 L 381.18 290.96 L 385.29 290.27 L 389.41 289.62 L 393.53 288.78 L 397.65 288.06 L 401.76 287.37 L 405.88 286.79 L 410.00 286.23 L 414.12 285.66 L 418.24 284.99 L 422.35 284.30 L 426.47 283.46 L 430.59 282.78 L 434.71 282.22 L 438.82 281.65 L 442.94 281.10 L 447.06 280.43 L 451.18 279.74 L 455.29 278.21 L 459.41 275.16 L 463.53 271.54 L 467.65 268.23 L 471.76 266.56 L 475.88 264.03 L 480.00 262.35 L 484.12 260.88 L 488.24 259.44 L 492.35 258.09 L 496.47 255.98 L 500.59 254.30 L 504.71 252.16 L 508.82 251.72 L 512.94 251.67 L 517.06 251.59 L 521.18 251.53 L 525.29 251.45 L 529.41 251.38 L 533.53 251.35 L 537.65 251.24 L 541.76 251.14 L 545.88 251.08 L 550.00 251.05 L 554.12 250.94 L 558.24 248.19 L 562.35 243.89 L 566.47 241.00 L 570.59 237.65 L 574.71 234.20 L 578.82 231.50 L 582.94 228.47 L 587.06 223.86 L 591.18 217.64 L 595.29 213.58 L 599.41 208.75 L 603.53 203.37 L 607.65 199.06 L 611.76 194.37 L 615.88 190.22 L 620.00 186.10 L 624.12 182.00 L 628.24 176.41 L 632.35 170.81 L 636.47 166.13 L 640.59 162.22 L 644.71 158.42 L 648.82 153.37 L 652.94 149.46 L 657.06 145.59 L 661.18 141.97 L 665.29 138.56 L 669.41 135.07 L 673.53 132.09 L 677.65 128.99 L 681.76 125.84 L 685.88 122.50 L 690.00 119.44 L 694.12 116.63 L 698.24 111.55 L 702.35 107.30 L 706.47 103.22 L 710.59 99.30 L 714.71 93.10 L 718.82 89.18 L 722.94 85.79 L 727.06 81.78 L 731.18 75.88 L 735.29 71.63 L 739.41 68.04 L 743.53 65.01 L 747.65 62.13 L 751.76 59.79 L 755.88 57.15 L 760.00 55.00" fill="none" stroke="#3b82f6" stroke-width="3"
        stroke-linecap="round" stroke-linejoin="round" filter="url(#glow)" class="line-path"/>

  <!-- Data points -->
  
    <circle cx="60" cy="340" r="4" fill="#3b82f6" stroke="#0d1117" stroke-width="2" class="data-point"/>
  
    <circle cx="64.11764705882354" cy="339.721307549542" r="4" fill="#3b82f6" stroke="#0d1117" stroke-width="2" class="data-point"/>
  
    <circle cx="68.23529411764706" cy="339.2473407970624" r="4" fill="#3b82f6" stroke="#0d1117" stroke-width="2" class="data-point"/>
  
    <circle cx="72.3529411764706" cy="338.8074996507613" r="4" fill="#3b82f6" stroke="#0d1117" stroke-width="2" class="data-point"/>
  
    <circle cx="76.47058823529412" cy="337.93350495918895" r="4" fill="#3b82f6" stroke="#0d1117" stroke-width="2" class="data-point"/>
  
    <circle cx="80.58823529411765" cy="337.03107226246783" r="4" fill="#3b82f6" stroke="#0d1117" stroke-width="2" class="data-point"/>
  
    <circle cx="84.70588235294117" cy="336.32012213374844" r="4" fill="#3b82f6" stroke="#0d1117" stroke-width="2" class="data-point"/>
  
    <circle cx="88.82352941176471" cy="335.656568680277" r="4" fill="#3b82f6" stroke="#0d1117" stroke-width="2" class="data-point"/>
  
    <circle cx="92.94117647058823" cy="335.0669540401924" r="4" fill="#3b82f6" stroke="#0d1117" stroke-width="2" class="data-point"/>
  
    <circle cx="97.05882352941177" cy="334.37496258157216" r="4" fill="#3b82f6" stroke="#0d1117" stroke-width="2" class="data-point"/>
  
    <circle cx="101.1764705882353" cy="333.6033447085354" r="4" fill="#3b82f6" stroke="#0d1117" stroke-width="2" class="data-point"/>
  
    <circle cx="105.29411764705883" cy="332.77674669221096" r="4" fill="#3b82f6" stroke="#0d1117" stroke-width="2" class="data-point"/>
  
    <circle cx="109.41176470588235" cy="332.0259833562833" r="4" fill="#3b82f6" stroke="#0d1117" stroke-width="2" class="data-point"/>
  
    <circle cx="113.52941176470588" cy="331.22782334510765" r="4" fill="#3b82f6" stroke="#0d1117" stroke-width="2" class="data-point"/>
  
    <circle cx="117.64705882352942" cy="330.6457921730627" r="4" fill="#3b82f6" stroke="#0d1117" stroke-width="2" class="data-point"/>
  
    <circle cx="121.76470588235294" cy="330.0429064639087" r="4" fill="#3b82f6" stroke="#0d1117" stroke-width="2" class="data-point"/>
  
    <circle cx="125.88235294117646" cy="329.22389191562394" r="4" fill="#3b82f6" stroke="#0d1117" stroke-width="2" class="data-point"/>
  
    <circle cx="130" cy="328.6759863497575" r="4" fill="#3b82f6" stroke="#0d1117" stroke-width="2" class="data-point"/>
  
    <circle cx="134.11764705882354" cy="327.91763954579017" r="4" fill="#3b82f6" stroke="#0d1117" stroke-width="2" class="data-point"/>
  
    <circle cx="138.23529411764707" cy="327.0417489872079" r="4" fill="#3b82f6" stroke="#0d1117" stroke-width="2" class="data-point"/>
  
    <circle cx="142.3529411764706" cy="326.3819872677563" r="4" fill="#3b82f6" stroke="#0d1117" stroke-width="2" class="data-point"/>
  
    <circle cx="146.47058823529412" cy="325.83976930291965" r="4" fill="#3b82f6" stroke="#0d1117" stroke-width="2" class="data-point"/>
  
    <circle cx="150.58823529411765" cy="325.4890339060847" r="4" fill="#3b82f6" stroke="#0d1117" stroke-width="2" class="data-point"/>
  
    <circle cx="154.70588235294116" cy="325.1970703865573" r="4" fill="#3b82f6" stroke="#0d1117" stroke-width="2" class="data-point"/>
  
    <circle cx="158.8235294117647" cy="324.65674828873057" r="4" fill="#3b82f6" stroke="#0d1117" stroke-width="2" class="data-point"/>
  
    <circle cx="162.94117647058823" cy="324.2718872857171" r="4" fill="#3b82f6" stroke="#0d1117" stroke-width="2" class="data-point"/>
  
    <circle cx="167.05882352941177" cy="323.42822646630344" r="4" fill="#3b82f6" stroke="#0d1117" stroke-width="2" class="data-point"/>
  
    <circle cx="171.1764705882353" cy="323.09644973956773" r="4" fill="#3b82f6" stroke="#0d1117" stroke-width="2" class="data-point"/>
  
    <circle cx="175.29411764705884" cy="322.66798379532617" r="4" fill="#3b82f6" stroke="#0d1117" stroke-width="2" class="data-point"/>
  
    <circle cx="179.41176470588238" cy="322.11439062843004" r="4" fill="#3b82f6" stroke="#0d1117" stroke-width="2" class="data-point"/>
  
    <circle cx="183.52941176470588" cy="321.73521722644637" r="4" fill="#3b82f6" stroke="#0d1117" stroke-width="2" class="data-point"/>
  
    <circle cx="187.6470588235294" cy="321.3503562234329" r="4" fill="#3b82f6" stroke="#0d1117" stroke-width="2" class="data-point"/>
  
    <circle cx="191.76470588235293" cy="320.9465365503203" r="4" fill="#3b82f6" stroke="#0d1117" stroke-width="2" class="data-point"/>
  
    <circle cx="195.88235294117646" cy="320.6659482328524" r="4" fill="#3b82f6" stroke="#0d1117" stroke-width="2" class="data-point"/>
  
    <circle cx="200" cy="320.42327725558283" r="4" fill="#3b82f6" stroke="#0d1117" stroke-width="2" class="data-point"/>
  
    <circle cx="204.11764705882354" cy="320.05358318864876" r="4" fill="#3b82f6" stroke="#0d1117" stroke-width="2" class="data-point"/>
  
    <circle cx="208.23529411764704" cy="319.60426270729806" r="4" fill="#3b82f6" stroke="#0d1117" stroke-width="2" class="data-point"/>
  
    <circle cx="212.35294117647058" cy="319.19096369913586" r="4" fill="#3b82f6" stroke="#0d1117" stroke-width="2" class="data-point"/>
  
    <circle cx="216.47058823529412" cy="318.6677044043984" r="4" fill="#3b82f6" stroke="#0d1117" stroke-width="2" class="data-point"/>
  
    <circle cx="220.58823529411765" cy="318.09704843441295" r="4" fill="#3b82f6" stroke="#0d1117" stroke-width="2" class="data-point"/>
  
    <circle cx="224.7058823529412" cy="317.5737891396755" r="4" fill="#3b82f6" stroke="#0d1117" stroke-width="2" class="data-point"/>
  
    <circle cx="228.8235294117647" cy="316.9424654253727" r="4" fill="#3b82f6" stroke="#0d1117" stroke-width="2" class="data-point"/>
  
    <circle cx="232.94117647058823" cy="316.3225169131294" r="4" fill="#3b82f6" stroke="#0d1117" stroke-width="2" class="data-point"/>
  
    <circle cx="237.05882352941177" cy="315.7025684008861" r="4" fill="#3b82f6" stroke="#0d1117" stroke-width="2" class="data-point"/>
  
    <circle cx="241.1764705882353" cy="315.0238480113353" r="4" fill="#3b82f6" stroke="#0d1117" stroke-width="2" class="data-point"/>
  
    <circle cx="245.2941176470588" cy="314.3754614939432" r="4" fill="#3b82f6" stroke="#0d1117" stroke-width="2" class="data-point"/>
  
    <circle cx="249.41176470588235" cy="313.6341774930651" r="4" fill="#3b82f6" stroke="#0d1117" stroke-width="2" class="data-point"/>
  
    <circle cx="253.52941176470588" cy="312.9725199066036" r="4" fill="#3b82f6" stroke="#0d1117" stroke-width="2" class="data-point"/>
  
    <circle cx="257.6470588235294" cy="312.4132391386777" r="4" fill="#3b82f6" stroke="#0d1117" stroke-width="2" class="data-point"/>
  
    <circle cx="261.7647058823529" cy="311.96581452433696" r="4" fill="#3b82f6" stroke="#0d1117" stroke-width="2" class="data-point"/>
  
    <circle cx="265.88235294117646" cy="311.3401784110639" r="4" fill="#3b82f6" stroke="#0d1117" stroke-width="2" class="data-point"/>
  
    <circle cx="270" cy="310.62543654832467" r="4" fill="#3b82f6" stroke="#0d1117" stroke-width="2" class="data-point"/>
  
    <circle cx="274.11764705882354" cy="309.9713624299028" r="4" fill="#3b82f6" stroke="#0d1117" stroke-width="2" class="data-point"/>
  
    <circle cx="278.2352941176471" cy="309.2073280249057" r="4" fill="#3b82f6" stroke="#0d1117" stroke-width="2" class="data-point"/>
  
    <circle cx="282.3529411764706" cy="308.2650821209763" r="4" fill="#3b82f6" stroke="#0d1117" stroke-width="2" class="data-point"/>
  
    <circle cx="286.47058823529414" cy="307.5636113273065" r="4" fill="#3b82f6" stroke="#0d1117" stroke-width="2" class="data-point"/>
  
    <circle cx="290.5882352941177" cy="306.98158015526155" r="4" fill="#3b82f6" stroke="#0d1117" stroke-width="2" class="data-point"/>
  
    <circle cx="294.70588235294116" cy="306.4279869883654" r="4" fill="#3b82f6" stroke="#0d1117" stroke-width="2" class="data-point"/>
  
    <circle cx="298.82352941176475" cy="305.76253766788403" r="4" fill="#3b82f6" stroke="#0d1117" stroke-width="2" class="data-point"/>
  
    <circle cx="302.94117647058823" cy="304.9890239278373" r="4" fill="#3b82f6" stroke="#0d1117" stroke-width="2" class="data-point"/>
  
    <circle cx="307.05882352941177" cy="304.13209203935423" r="4" fill="#3b82f6" stroke="#0d1117" stroke-width="2" class="data-point"/>
  
    <circle cx="311.1764705882353" cy="303.231555209643" r="4" fill="#3b82f6" stroke="#0d1117" stroke-width="2" class="data-point"/>
  
    <circle cx="315.2941176470588" cy="302.3670398531202" r="4" fill="#3b82f6" stroke="#0d1117" stroke-width="2" class="data-point"/>
  
    <circle cx="319.4117647058824" cy="301.60679718214294" r="4" fill="#3b82f6" stroke="#0d1117" stroke-width="2" class="data-point"/>
  
    <circle cx="323.52941176470586" cy="300.8522421121954" r="4" fill="#3b82f6" stroke="#0d1117" stroke-width="2" class="data-point"/>
  
    <circle cx="327.6470588235294" cy="300.1867927917141" r="4" fill="#3b82f6" stroke="#0d1117" stroke-width="2" class="data-point"/>
  
    <circle cx="331.7647058823529" cy="299.5080724021633" r="4" fill="#3b82f6" stroke="#0d1117" stroke-width="2" class="data-point"/>
  
    <circle cx="335.88235294117646" cy="298.74972559819594" r="4" fill="#3b82f6" stroke="#0d1117" stroke-width="2" class="data-point"/>
  
    <circle cx="340" cy="297.80558382725656" r="4" fill="#3b82f6" stroke="#0d1117" stroke-width="2" class="data-point"/>
  
    <circle cx="344.11764705882354" cy="297.10221716657685" r="4" fill="#3b82f6" stroke="#0d1117" stroke-width="2" class="data-point"/>
  
    <circle cx="348.2352941176471" cy="296.47278931928395" r="4" fill="#3b82f6" stroke="#0d1117" stroke-width="2" class="data-point"/>
  
    <circle cx="352.3529411764706" cy="295.7732143926241" r="4" fill="#3b82f6" stroke="#0d1117" stroke-width="2" class="data-point"/>
  
    <circle cx="356.4705882352941" cy="295.12103614121213" r="4" fill="#3b82f6" stroke="#0d1117" stroke-width="2" class="data-point"/>
  
    <circle cx="360.5882352941176" cy="294.40439841146303" r="4" fill="#3b82f6" stroke="#0d1117" stroke-width="2" class="data-point"/>
  
    <circle cx="364.70588235294116" cy="293.65742680955515" r="4" fill="#3b82f6" stroke="#0d1117" stroke-width="2" class="data-point"/>
  
    <circle cx="368.8235294117647" cy="292.8763296014688" r="4" fill="#3b82f6" stroke="#0d1117" stroke-width="2" class="data-point"/>
  
    <circle cx="372.94117647058823" cy="292.19192161088824" r="4" fill="#3b82f6" stroke="#0d1117" stroke-width="2" class="data-point"/>
  
    <circle cx="377.05882352941177" cy="291.60609870482347" r="4" fill="#3b82f6" stroke="#0d1117" stroke-width="2" class="data-point"/>
  
    <circle cx="381.1764705882353" cy="290.9633997884612" r="4" fill="#3b82f6" stroke="#0d1117" stroke-width="2" class="data-point"/>
  
    <circle cx="385.29411764705884" cy="290.2676165958211" r="4" fill="#3b82f6" stroke="#0d1117" stroke-width="2" class="data-point"/>
  
    <circle cx="389.4117647058824" cy="289.6230218124489" r="4" fill="#3b82f6" stroke="#0d1117" stroke-width="2" class="data-point"/>
  
    <circle cx="393.52941176470586" cy="288.78315272705504" r="4" fill="#3b82f6" stroke="#0d1117" stroke-width="2" class="data-point"/>
  
    <circle cx="397.6470588235294" cy="288.0608273962761" r="4" fill="#3b82f6" stroke="#0d1117" stroke-width="2" class="data-point"/>
  
    <circle cx="401.7647058823529" cy="287.36504420363605" r="4" fill="#3b82f6" stroke="#0d1117" stroke-width="2" class="data-point"/>
  
    <circle cx="405.88235294117646" cy="286.78680476561095" r="4" fill="#3b82f6" stroke="#0d1117" stroke-width="2" class="data-point"/>
  
    <circle cx="410" cy="286.22562813067515" r="4" fill="#3b82f6" stroke="#0d1117" stroke-width="2" class="data-point"/>
  
    <circle cx="414.11764705882354" cy="285.66255562872936" r="4" fill="#3b82f6" stroke="#0d1117" stroke-width="2" class="data-point"/>
  
    <circle cx="418.235294117647" cy="284.98952284020834" r="4" fill="#3b82f6" stroke="#0d1117" stroke-width="2" class="data-point"/>
  
    <circle cx="422.3529411764706" cy="284.29753138158816" r="4" fill="#3b82f6" stroke="#0d1117" stroke-width="2" class="data-point"/>
  
    <circle cx="426.47058823529414" cy="283.4576622961943" r="4" fill="#3b82f6" stroke="#0d1117" stroke-width="2" class="data-point"/>
  
    <circle cx="430.5882352941176" cy="282.7770460396336" r="4" fill="#3b82f6" stroke="#0d1117" stroke-width="2" class="data-point"/>
  
    <circle cx="434.70588235294116" cy="282.2215570057275" r="4" fill="#3b82f6" stroke="#0d1117" stroke-width="2" class="data-point"/>
  
    <circle cx="438.8235294117647" cy="281.6509010357421" r="4" fill="#3b82f6" stroke="#0d1117" stroke-width="2" class="data-point"/>
  
    <circle cx="442.9411764705883" cy="281.1048913368856" r="4" fill="#3b82f6" stroke="#0d1117" stroke-width="2" class="data-point"/>
  
    <circle cx="447.05882352941177" cy="280.42996268135465" r="4" fill="#3b82f6" stroke="#0d1117" stroke-width="2" class="data-point"/>
  
    <circle cx="451.1764705882353" cy="279.7379712227344" r="4" fill="#3b82f6" stroke="#0d1117" stroke-width="2" class="data-point"/>
  
    <circle cx="455.29411764705884" cy="278.2080065457303" r="4" fill="#3b82f6" stroke="#0d1117" stroke-width="2" class="data-point"/>
  
    <circle cx="459.4117647058823" cy="275.16324412780136" r="4" fill="#3b82f6" stroke="#0d1117" stroke-width="2" class="data-point"/>
  
    <circle cx="463.52941176470586" cy="271.53645053782753" r="4" fill="#3b82f6" stroke="#0d1117" stroke-width="2" class="data-point"/>
  
    <circle cx="467.64705882352945" cy="268.2319543395398" r="4" fill="#3b82f6" stroke="#0d1117" stroke-width="2" class="data-point"/>
  
    <circle cx="471.7647058823529" cy="266.55600790277197" r="4" fill="#3b82f6" stroke="#0d1117" stroke-width="2" class="data-point"/>
  
    <circle cx="475.88235294117646" cy="264.0307130455607" r="4" fill="#3b82f6" stroke="#0d1117" stroke-width="2" class="data-point"/>
  
    <circle cx="480" cy="262.3528707417829" r="4" fill="#3b82f6" stroke="#0d1117" stroke-width="2" class="data-point"/>
  
    <circle cx="484.1176470588235" cy="260.88167794208624" r="4" fill="#3b82f6" stroke="#0d1117" stroke-width="2" class="data-point"/>
  
    <circle cx="488.2352941176471" cy="259.44271488155823" r="4" fill="#3b82f6" stroke="#0d1117" stroke-width="2" class="data-point"/>
  
    <circle cx="492.3529411764706" cy="258.0871699694666" r="4" fill="#3b82f6" stroke="#0d1117" stroke-width="2" class="data-point"/>
  
    <circle cx="496.47058823529414" cy="255.97896585443732" r="4" fill="#3b82f6" stroke="#0d1117" stroke-width="2" class="data-point"/>
  
    <circle cx="500.5882352941176" cy="254.30301941766947" r="4" fill="#3b82f6" stroke="#0d1117" stroke-width="2" class="data-point"/>
  
    <circle cx="504.70588235294116" cy="252.1606896964617" r="4" fill="#3b82f6" stroke="#0d1117" stroke-width="2" class="data-point"/>
  
    <circle cx="508.82352941176475" cy="251.72274441717056" r="4" fill="#3b82f6" stroke="#0d1117" stroke-width="2" class="data-point"/>
  
    <circle cx="512.9411764705883" cy="251.66586840687302" r="4" fill="#3b82f6" stroke="#0d1117" stroke-width="2" class="data-point"/>
  
    <circle cx="517.0588235294117" cy="251.5919295934862" r="4" fill="#3b82f6" stroke="#0d1117" stroke-width="2" class="data-point"/>
  
    <circle cx="521.1764705882354" cy="251.52936598215888" r="4" fill="#3b82f6" stroke="#0d1117" stroke-width="2" class="data-point"/>
  
    <circle cx="525.2941176470588" cy="251.4478437007324" r="4" fill="#3b82f6" stroke="#0d1117" stroke-width="2" class="data-point"/>
  
    <circle cx="529.4117647058823" cy="251.3758007543555" r="4" fill="#3b82f6" stroke="#0d1117" stroke-width="2" class="data-point"/>
  
    <circle cx="533.5294117647059" cy="251.34736274920672" r="4" fill="#3b82f6" stroke="#0d1117" stroke-width="2" class="data-point"/>
  
    <circle cx="537.6470588235295" cy="251.2430900636612" r="4" fill="#3b82f6" stroke="#0d1117" stroke-width="2" class="data-point"/>
  
    <circle cx="541.7647058823529" cy="251.14260911213555" r="4" fill="#3b82f6" stroke="#0d1117" stroke-width="2" class="data-point"/>
  
    <circle cx="545.8823529411765" cy="251.0762537667884" r="4" fill="#3b82f6" stroke="#0d1117" stroke-width="2" class="data-point"/>
  
    <circle cx="550" cy="251.05160749565945" r="4" fill="#3b82f6" stroke="#0d1117" stroke-width="2" class="data-point"/>
  
    <circle cx="554.1176470588235" cy="250.93975134207426" r="4" fill="#3b82f6" stroke="#0d1117" stroke-width="2" class="data-point"/>
  
    <circle cx="558.2352941176471" cy="248.19074417769264" r="4" fill="#3b82f6" stroke="#0d1117" stroke-width="2" class="data-point"/>
  
    <circle cx="562.3529411764706" cy="243.88523019816802" r="4" fill="#3b82f6" stroke="#0d1117" stroke-width="2" class="data-point"/>
  
    <circle cx="566.4705882352941" cy="241.00161647608215" r="4" fill="#3b82f6" stroke="#0d1117" stroke-width="2" class="data-point"/>
  
    <circle cx="570.5882352941176" cy="237.65351533656627" r="4" fill="#3b82f6" stroke="#0d1117" stroke-width="2" class="data-point"/>
  
    <circle cx="574.7058823529412" cy="234.20303737851486" r="4" fill="#3b82f6" stroke="#0d1117" stroke-width="2" class="data-point"/>
  
    <circle cx="578.8235294117648" cy="231.4957392883514" r="4" fill="#3b82f6" stroke="#0d1117" stroke-width="2" class="data-point"/>
  
    <circle cx="582.9411764705883" cy="228.46803967351175" r="4" fill="#3b82f6" stroke="#0d1117" stroke-width="2" class="data-point"/>
  
    <circle cx="587.0588235294117" cy="223.8553952383803" r="4" fill="#3b82f6" stroke="#0d1117" stroke-width="2" class="data-point"/>
  
    <circle cx="591.1764705882352" cy="217.63884731285796" r="4" fill="#3b82f6" stroke="#0d1117" stroke-width="2" class="data-point"/>
  
    <circle cx="595.2941176470588" cy="213.58169191163265" r="4" fill="#3b82f6" stroke="#0d1117" stroke-width="2" class="data-point"/>
  
    <circle cx="599.4117647058824" cy="208.75291863737053" r="4" fill="#3b82f6" stroke="#0d1117" stroke-width="2" class="data-point"/>
  
    <circle cx="603.5294117647059" cy="203.37244806322218" r="4" fill="#3b82f6" stroke="#0d1117" stroke-width="2" class="data-point"/>
  
    <circle cx="607.6470588235294" cy="199.05745474864793" r="4" fill="#3b82f6" stroke="#0d1117" stroke-width="2" class="data-point"/>
  
    <circle cx="611.7647058823529" cy="194.37466323414955" r="4" fill="#3b82f6" stroke="#0d1117" stroke-width="2" class="data-point"/>
  
    <circle cx="615.8823529411765" cy="190.2208186154184" r="4" fill="#3b82f6" stroke="#0d1117" stroke-width="2" class="data-point"/>
  
    <circle cx="620" cy="186.1048913368856" r="4" fill="#3b82f6" stroke="#0d1117" stroke-width="2" class="data-point"/>
  
    <circle cx="624.1176470588235" cy="182.0003392604123" r="4" fill="#3b82f6" stroke="#0d1117" stroke-width="2" class="data-point"/>
  
    <circle cx="628.2352941176471" cy="176.41132331517292" r="4" fill="#3b82f6" stroke="#0d1117" stroke-width="2" class="data-point"/>
  
    <circle cx="632.3529411764706" cy="170.8052445668443" r="4" fill="#3b82f6" stroke="#0d1117" stroke-width="2" class="data-point"/>
  
    <circle cx="636.4705882352941" cy="166.13193238739547" r="4" fill="#3b82f6" stroke="#0d1117" stroke-width="2" class="data-point"/>
  
    <circle cx="640.5882352941177" cy="162.21507114490413" r="4" fill="#3b82f6" stroke="#0d1117" stroke-width="2" class="data-point"/>
  
    <circle cx="644.7058823529412" cy="158.4157536570277" r="4" fill="#3b82f6" stroke="#0d1117" stroke-width="2" class="data-point"/>
  
    <circle cx="648.8235294117648" cy="153.3727474106448" r="4" fill="#3b82f6" stroke="#0d1117" stroke-width="2" class="data-point"/>
  
    <circle cx="652.9411764705882" cy="149.4615737691832" r="4" fill="#3b82f6" stroke="#0d1117" stroke-width="2" class="data-point"/>
  
    <circle cx="657.0588235294117" cy="145.59210920193976" r="4" fill="#3b82f6" stroke="#0d1117" stroke-width="2" class="data-point"/>
  
    <circle cx="661.1764705882352" cy="141.9728990800056" r="4" fill="#3b82f6" stroke="#0d1117" stroke-width="2" class="data-point"/>
  
    <circle cx="665.2941176470589" cy="138.56413019617236" r="4" fill="#3b82f6" stroke="#0d1117" stroke-width="2" class="data-point"/>
  
    <circle cx="669.4117647058823" cy="135.0719431639027" r="4" fill="#3b82f6" stroke="#0d1117" stroke-width="2" class="data-point"/>
  
    <circle cx="673.5294117647059" cy="132.08595262328126" r="4" fill="#3b82f6" stroke="#0d1117" stroke-width="2" class="data-point"/>
  
    <circle cx="677.6470588235294" cy="128.99379353010437" r="4" fill="#3b82f6" stroke="#0d1117" stroke-width="2" class="data-point"/>
  
    <circle cx="681.7647058823529" cy="125.83717495859025" r="4" fill="#3b82f6" stroke="#0d1117" stroke-width="2" class="data-point"/>
  
    <circle cx="685.8823529411765" cy="122.50044902113393" r="4" fill="#3b82f6" stroke="#0d1117" stroke-width="2" class="data-point"/>
  
    <circle cx="690" cy="119.43862380011575" r="4" fill="#3b82f6" stroke="#0d1117" stroke-width="2" class="data-point"/>
  
    <circle cx="694.1176470588235" cy="116.63463649244648" r="4" fill="#3b82f6" stroke="#0d1117" stroke-width="2" class="data-point"/>
  
    <circle cx="698.2352941176471" cy="111.55371290586524" r="4" fill="#3b82f6" stroke="#0d1117" stroke-width="2" class="data-point"/>
  
    <circle cx="702.3529411764706" cy="107.3012832026183" r="4" fill="#3b82f6" stroke="#0d1117" stroke-width="2" class="data-point"/>
  
    <circle cx="706.4705882352941" cy="103.21758566325411" r="4" fill="#3b82f6" stroke="#0d1117" stroke-width="2" class="data-point"/>
  
    <circle cx="710.5882352941177" cy="99.29503681973299" r="4" fill="#3b82f6" stroke="#0d1117" stroke-width="2" class="data-point"/>
  
    <circle cx="714.7058823529412" cy="93.10123929832966" r="4" fill="#3b82f6" stroke="#0d1117" stroke-width="2" class="data-point"/>
  
    <circle cx="718.8235294117648" cy="89.18248218882835" r="4" fill="#3b82f6" stroke="#0d1117" stroke-width="2" class="data-point"/>
  
    <circle cx="722.9411764705882" cy="85.79077610808437" r="4" fill="#3b82f6" stroke="#0d1117" stroke-width="2" class="data-point"/>
  
    <circle cx="727.0588235294117" cy="81.78480911612684" r="4" fill="#3b82f6" stroke="#0d1117" stroke-width="2" class="data-point"/>
  
    <circle cx="731.1764705882354" cy="75.8791833802311" r="4" fill="#3b82f6" stroke="#0d1117" stroke-width="2" class="data-point"/>
  
    <circle cx="735.2941176470588" cy="71.63054541100405" r="4" fill="#3b82f6" stroke="#0d1117" stroke-width="2" class="data-point"/>
  
    <circle cx="739.4117647058823" cy="68.04356502823845" r="4" fill="#3b82f6" stroke="#0d1117" stroke-width="2" class="data-point"/>
  
    <circle cx="743.5294117647059" cy="65.0082819453591" r="4" fill="#3b82f6" stroke="#0d1117" stroke-width="2" class="data-point"/>
  
    <circle cx="747.6470588235294" cy="62.1284599572931" r="4" fill="#3b82f6" stroke="#0d1117" stroke-width="2" class="data-point"/>
  
    <circle cx="751.7647058823529" cy="59.787064200043915" r="4" fill="#3b82f6" stroke="#0d1117" stroke-width="2" class="data-point"/>
  
    <circle cx="755.8823529411765" cy="57.14991318924746" r="4" fill="#3b82f6" stroke="#0d1117" stroke-width="2" class="data-point"/>
  
    <circle cx="760" cy="55" r="4" fill="#3b82f6" stroke="#0d1117" stroke-width="2" class="data-point"/>
  

  <!-- Axis lines -->
  <line x1="60" y1="55" x2="60" y2="340"
        stroke="#30363d" stroke-width="2"/>
  <line x1="60" y1="340" x2="760" y2="340"
        stroke="#30363d" stroke-width="2"/>
</svg>