<?xml version="1.0" encoding="UTF-8"?>
<svg width="800" height="400" xmlns="http://www.w3.org/2000/svg">
  <defs>
    <!-- Gradient for area fill -->
    <linearGradient id="areaGradient" x1="0%" y1="0%" x2="0%" y2="100%">
      <stop offset="0%" style="stop-color:#3b82f6;stop-opacity:0.3" />
      <stop offset="100%" style="stop-color:#3b82f6;stop-opacity:0.05" />
    </linearGradient>

    <!-- Glow filter for line -->
    <filter id="glow">
      <feGaussianBlur stdDeviation="2" result="coloredBlur"/>
      <feMerge>
        <feMergeNode in="coloredBlur"/>
        <feMergeNode in="SourceGraphic"/>
      </feMerge>
    </filter>

    <!-- Animation -->
    <style>
      @keyframes draw {
        from { stroke-dashoffset: 2000; }
        to { stroke-dashoffset: 0; }
      }
      @keyframes fadeIn {
        from { opacity: 0; }
        to { opacity: 1; }
      }
      .line-path {
        stroke-dasharray: 2000;
        stroke-dashoffset: 2000;
        animation: draw 1.5s ease-out forwards;
      }
      .area-path {
        opacity: 0;
        animation: fadeIn 1s ease-out 0.5s forwards;
      }
      .data-point {
        opacity: 0;
        animation: fadeIn 0.5s ease-out 1s forwards;
      }
    </style>
  </defs>

  <!-- Background -->
  <rect width="800" height="400" fill="#0d1117" rx="8"/>

  <!-- Title -->
  <text x="400" y="25" text-anchor="middle" fill="#c9d1d9" font-family="system-ui, -apple-system, sans-serif" font-size="16" font-weight="600">
    zxcloli666/SoundCloud-Desktop Downloads
  </text>

  <!-- Stats -->
  <text x="780" y="25" text-anchor="end" fill="#58a6ff" font-family="system-ui, -apple-system, sans-serif" font-size="14" font-weight="600">
    94.3K total
  </text>
  <text x="780" y="42" text-anchor="end" fill="#3fb950" font-family="system-ui, -apple-system, sans-serif" font-size="12">
    +1.6K (+1.7%)
  </text>

  <!-- Grid lines -->
  <g opacity="0.1">
    
      <line x1="60" y1="340" x2="760" y2="340"
            stroke="#c9d1d9" stroke-width="1"/>
    
      <line x1="60" y1="268.75" x2="760" y2="268.75"
            stroke="#c9d1d9" stroke-width="1"/>
    
      <line x1="60" y1="197.5" x2="760" y2="197.5"
            stroke="#c9d1d9" stroke-width="1"/>
    
      <line x1="60" y1="126.25" x2="760" y2="126.25"
            stroke="#c9d1d9" stroke-width="1"/>
    
      <line x1="60" y1="55" x2="760" y2="55"
            stroke="#c9d1d9" stroke-width="1"/>
    
  </g>

  <!-- Y-axis labels -->
  
    <text x="50" y="344" text-anchor="end"
          fill="#8b949e" font-family="system-ui, -apple-system, sans-serif" font-size="11">
      60.2K
    </text>
  
    <text x="50" y="272.75" text-anchor="end"
          fill="#8b949e" font-family="system-ui, -apple-system, sans-serif" font-size="11">
      68.7K
    </text>
  
    <text x="50" y="201.5" text-anchor="end"
          fill="#8b949e" font-family="system-ui, -apple-system, sans-serif" font-size="11">
      77.3K
    </text>
  
    <text x="50" y="130.25" text-anchor="end"
          fill="#8b949e" font-family="system-ui, -apple-system, sans-serif" font-size="11">
      85.8K
    </text>
  
    <text x="50" y="59" text-anchor="end"
          fill="#8b949e" font-family="system-ui, -apple-system, sans-serif" font-size="11">
      94.3K
    </text>
  

  <!-- X-axis labels -->
  
    <text x="60" y="360" text-anchor="middle"
          fill="#8b949e" font-family="system-ui, -apple-system, sans-serif" font-size="11">
      Nov 25
    </text>
  
    <text x="146.5979381443299" y="360" text-anchor="middle"
          fill="#8b949e" font-family="system-ui, -apple-system, sans-serif" font-size="11">
      Dec 7
    </text>
  
    <text x="233.1958762886598" y="360" text-anchor="middle"
          fill="#8b949e" font-family="system-ui, -apple-system, sans-serif" font-size="11">
      Dec 19
    </text>
  
    <text x="319.7938144329897" y="360" text-anchor="middle"
          fill="#8b949e" font-family="system-ui, -apple-system, sans-serif" font-size="11">
      Dec 31
    </text>
  
    <text x="406.3917525773196" y="360" text-anchor="middle"
          fill="#8b949e" font-family="system-ui, -apple-system, sans-serif" font-size="11">
      Jan 12
    </text>
  
    <text x="492.9896907216495" y="360" text-anchor="middle"
          fill="#8b949e" font-family="system-ui, -apple-system, sans-serif" font-size="11">
      Jan 24
    </text>
  
    <text x="579.5876288659794" y="360" text-anchor="middle"
          fill="#8b949e" font-family="system-ui, -apple-system, sans-serif" font-size="11">
      Feb 5
    </text>
  
    <text x="666.1855670103093" y="360" text-anchor="middle"
          fill="#8b949e" font-family="system-ui, -apple-system, sans-serif" font-size="11">
      Feb 17
    </text>
  
    <text x="752.7835051546392" y="360" text-anchor="middle"
          fill="#8b949e" font-family="system-ui, -apple-system, sans-serif" font-size="11">
      Mar 1
    </text>
  
    <text x="760" y="360" text-anchor="middle"
          fill="#8b949e" font-family="system-ui, -apple-system, sans-serif" font-size="11">
      Mar 2
    </text>
  

  <!-- Area under line -->
  <path d="M 60 340
    L 60.00 340.00 L 67.22 338.77 L 74.43 336.69 L 81.65 334.76 L 88.87 330.92 L 96.08 326.95 L 103.30 323.82 L 110.52 320.91 L 117.73 318.32 L 124.95 315.27 L 132.16 311.88 L 139.38 308.25 L 146.60 304.95 L 153.81 301.44 L 161.03 298.88 L 168.25 296.23 L 175.46 292.63 L 182.68 290.22 L 189.90 286.89 L 197.11 283.04 L 204.33 280.14 L 211.55 277.76 L 218.76 276.21 L 225.98 274.93 L 233.20 272.56 L 240.41 270.86 L 247.63 267.16 L 254.85 265.70 L 262.06 263.81 L 269.28 261.38 L 276.49 259.71 L 283.71 258.02 L 290.93 256.25 L 298.14 255.01 L 305.36 253.95 L 312.58 252.32 L 319.79 250.35 L 327.01 248.53 L 334.23 246.23 L 341.44 243.72 L 348.66 241.42 L 355.88 238.65 L 363.09 235.92 L 370.31 233.20 L 377.53 230.21 L 384.74 227.36 L 391.96 224.10 L 399.18 221.20 L 406.39 218.74 L 413.61 216.77 L 420.82 214.02 L 428.04 210.88 L 435.26 208.00 L 442.47 204.65 L 449.69 200.50 L 456.91 197.42 L 464.12 194.86 L 471.34 192.43 L 478.56 189.50 L 485.77 186.10 L 492.99 182.34 L 500.21 178.38 L 507.42 174.58 L 514.64 171.24 L 521.86 167.92 L 529.07 164.99 L 536.29 162.01 L 543.51 158.68 L 550.72 154.53 L 557.94 151.44 L 565.15 148.67 L 572.37 145.59 L 579.59 142.73 L 586.80 139.58 L 594.02 136.29 L 601.24 132.86 L 608.45 129.85 L 615.67 127.28 L 622.89 124.45 L 630.10 121.39 L 637.32 118.56 L 644.54 114.87 L 651.75 111.69 L 658.97 108.63 L 666.19 106.09 L 673.40 103.63 L 680.62 101.15 L 687.84 98.19 L 695.05 95.15 L 702.27 91.46 L 709.48 88.47 L 716.70 86.03 L 723.92 83.52 L 731.13 81.12 L 738.35 78.15 L 745.57 75.11 L 752.78 68.38 L 760.00 55.00
    L 760 340
    Z" fill="url(#areaGradient)" class="area-path"/>

  <!-- Main line with glow -->
  <path d="M 60.00 340.00 L 67.22 338.77 L 74.43 336.69 L 81.65 334.76 L 88.87 330.92 L 96.08 326.95 L 103.30 323.82 L 110.52 320.91 L 117.73 318.32 L 124.95 315.27 L 132.16 311.88 L 139.38 308.25 L 146.60 304.95 L 153.81 301.44 L 161.03 298.88 L 168.25 296.23 L 175.46 292.63 L 182.68 290.22 L 189.90 286.89 L 197.11 283.04 L 204.33 280.14 L 211.55 277.76 L 218.76 276.21 L 225.98 274.93 L 233.20 272.56 L 240.41 270.86 L 247.63 267.16 L 254.85 265.70 L 262.06 263.81 L 269.28 261.38 L 276.49 259.71 L 283.71 258.02 L 290.93 256.25 L 298.14 255.01 L 305.36 253.95 L 312.58 252.32 L 319.79 250.35 L 327.01 248.53 L 334.23 246.23 L 341.44 243.72 L 348.66 241.42 L 355.88 238.65 L 363.09 235.92 L 370.31 233.20 L 377.53 230.21 L 384.74 227.36 L 391.96 224.10 L 399.18 221.20 L 406.39 218.74 L 413.61 216.77 L 420.82 214.02 L 428.04 210.88 L 435.26 208.00 L 442.47 204.65 L 449.69 200.50 L 456.91 197.42 L 464.12 194.86 L 471.34 192.43 L 478.56 189.50 L 485.77 186.10 L 492.99 182.34 L 500.21 178.38 L 507.42 174.58 L 514.64 171.24 L 521.86 167.92 L 529.07 164.99 L 536.29 162.01 L 543.51 158.68 L 550.72 154.53 L 557.94 151.44 L 565.15 148.67 L 572.37 145.59 L 579.59 142.73 L 586.80 139.58 L 594.02 136.29 L 601.24 132.86 L 608.45 129.85 L 615.67 127.28 L 622.89 124.45 L 630.10 121.39 L 637.32 118.56 L 644.54 114.87 L 651.75 111.69 L 658.97 108.63 L 666.19 106.09 L 673.40 103.63 L 680.62 101.15 L 687.84 98.19 L 695.05 95.15 L 702.27 91.46 L 709.48 88.47 L 716.70 86.03 L 723.92 83.52 L 731.13 81.12 L 738.35 78.15 L 745.57 75.11 L 752.78 68.38 L 760.00 55.00" fill="none" stroke="#3b82f6" stroke-width="3"
        stroke-linecap="round" stroke-linejoin="round" filter="url(#glow)" class="line-path"/>

  <!-- Data points -->
  
    <circle cx="60" cy="340" r="4" fill="#3b82f6" stroke="#0d1117" stroke-width="2" class="data-point"/>
  
    <circle cx="67.21649484536083" cy="338.7749641802392" r="4" fill="#3b82f6" stroke="#0d1117" stroke-width="2" class="data-point"/>
  
    <circle cx="74.43298969072166" cy="336.6915699289453" r="4" fill="#3b82f6" stroke="#0d1117" stroke-width="2" class="data-point"/>
  
    <circle cx="81.64948453608247" cy="334.75818006374453" r="4" fill="#3b82f6" stroke="#0d1117" stroke-width="2" class="data-point"/>
  
    <circle cx="88.8659793814433" cy="330.9164010643586" r="4" fill="#3b82f6" stroke="#0d1117" stroke-width="2" class="data-point"/>
  
    <circle cx="96.08247422680412" cy="326.94961840989504" r="4" fill="#3b82f6" stroke="#0d1117" stroke-width="2" class="data-point"/>
  
    <circle cx="103.29896907216495" cy="323.82452703295417" r="4" fill="#3b82f6" stroke="#0d1117" stroke-width="2" class="data-point"/>
  
    <circle cx="110.51546391752578" cy="320.90777508114274" r="4" fill="#3b82f6" stroke="#0d1117" stroke-width="2" class="data-point"/>
  
    <circle cx="117.73195876288659" cy="318.3160326325331" r="4" fill="#3b82f6" stroke="#0d1117" stroke-width="2" class="data-point"/>
  
    <circle cx="124.94845360824742" cy="315.27427702564404" r="4" fill="#3b82f6" stroke="#0d1117" stroke-width="2" class="data-point"/>
  
    <circle cx="132.16494845360825" cy="311.8825111845376" r="4" fill="#3b82f6" stroke="#0d1117" stroke-width="2" class="data-point"/>
  
    <circle cx="139.3814432989691" cy="308.249071610281" r="4" fill="#3b82f6" stroke="#0d1117" stroke-width="2" class="data-point"/>
  
    <circle cx="146.5979381443299" cy="304.94897511623145" r="4" fill="#3b82f6" stroke="#0d1117" stroke-width="2" class="data-point"/>
  
    <circle cx="153.81443298969072" cy="301.44053919705254" r="4" fill="#3b82f6" stroke="#0d1117" stroke-width="2" class="data-point"/>
  
    <circle cx="161.03092783505156" cy="298.88213105646366" r="4" fill="#3b82f6" stroke="#0d1117" stroke-width="2" class="data-point"/>
  
    <circle cx="168.24742268041237" cy="296.23205356881783" r="4" fill="#3b82f6" stroke="#0d1117" stroke-width="2" class="data-point"/>
  
    <circle cx="175.46391752577318" cy="292.6319483025819" r="4" fill="#3b82f6" stroke="#0d1117" stroke-width="2" class="data-point"/>
  
    <circle cx="182.68041237113403" cy="290.2235445480862" r="4" fill="#3b82f6" stroke="#0d1117" stroke-width="2" class="data-point"/>
  
    <circle cx="189.89690721649484" cy="286.89011374601597" r="4" fill="#3b82f6" stroke="#0d1117" stroke-width="2" class="data-point"/>
  
    <circle cx="197.11340206185568" cy="283.0400011696248" r="4" fill="#3b82f6" stroke="#0d1117" stroke-width="2" class="data-point"/>
  
    <circle cx="204.3298969072165" cy="280.13991637182374" r="4" fill="#3b82f6" stroke="#0d1117" stroke-width="2" class="data-point"/>
  
    <circle cx="211.54639175257734" cy="277.7565133483435" r="4" fill="#3b82f6" stroke="#0d1117" stroke-width="2" class="data-point"/>
  
    <circle cx="218.76288659793815" cy="276.21480160238605" r="4" fill="#3b82f6" stroke="#0d1117" stroke-width="2" class="data-point"/>
  
    <circle cx="225.97938144329896" cy="274.931430743589" r="4" fill="#3b82f6" stroke="#0d1117" stroke-width="2" class="data-point"/>
  
    <circle cx="233.1958762886598" cy="272.55636129711394" r="4" fill="#3b82f6" stroke="#0d1117" stroke-width="2" class="data-point"/>
  
    <circle cx="240.4123711340206" cy="270.8646451650633" r="4" fill="#3b82f6" stroke="#0d1117" stroke-width="2" class="data-point"/>
  
    <circle cx="247.62886597938143" cy="267.1562033977602" r="4" fill="#3b82f6" stroke="#0d1117" stroke-width="2" class="data-point"/>
  
    <circle cx="254.84536082474227" cy="265.6978274218544" r="4" fill="#3b82f6" stroke="#0d1117" stroke-width="2" class="data-point"/>
  
    <circle cx="262.0618556701031" cy="263.81443901868477" r="4" fill="#3b82f6" stroke="#0d1117" stroke-width="2" class="data-point"/>
  
    <circle cx="269.2783505154639" cy="261.3810345331735" r="4" fill="#3b82f6" stroke="#0d1117" stroke-width="2" class="data-point"/>
  
    <circle cx="276.49484536082474" cy="259.71431913213837" r="4" fill="#3b82f6" stroke="#0d1117" stroke-width="2" class="data-point"/>
  
    <circle cx="283.7113402061856" cy="258.0226030000877" r="4" fill="#3b82f6" stroke="#0d1117" stroke-width="2" class="data-point"/>
  
    <circle cx="290.92783505154637" cy="256.2475510979853" r="4" fill="#3b82f6" stroke="#0d1117" stroke-width="2" class="data-point"/>
  
    <circle cx="298.14432989690727" cy="255.01418170121934" r="4" fill="#3b82f6" stroke="#0d1117" stroke-width="2" class="data-point"/>
  
    <circle cx="305.36082474226805" cy="253.94748384455687" r="4" fill="#3b82f6" stroke="#0d1117" stroke-width="2" class="data-point"/>
  
    <circle cx="312.57731958762884" cy="252.3224363285476" r="4" fill="#3b82f6" stroke="#0d1117" stroke-width="2" class="data-point"/>
  
    <circle cx="319.7938144329897" cy="250.347378578321" r="4" fill="#3b82f6" stroke="#0d1117" stroke-width="2" class="data-point"/>
  
    <circle cx="327.0103092783505" cy="248.5306587911927" r="4" fill="#3b82f6" stroke="#0d1117" stroke-width="2" class="data-point"/>
  
    <circle cx="334.22680412371136" cy="246.23059153776427" r="4" fill="#3b82f6" stroke="#0d1117" stroke-width="2" class="data-point"/>
  
    <circle cx="341.4432989690722" cy="243.7221848592064" r="4" fill="#3b82f6" stroke="#0d1117" stroke-width="2" class="data-point"/>
  
    <circle cx="348.659793814433" cy="241.42211760577794" r="4" fill="#3b82f6" stroke="#0d1117" stroke-width="2" class="data-point"/>
  
    <circle cx="355.87628865979383" cy="238.64703646305446" r="4" fill="#3b82f6" stroke="#0d1117" stroke-width="2" class="data-point"/>
  
    <circle cx="363.09278350515467" cy="235.92195678236203" r="4" fill="#3b82f6" stroke="#0d1117" stroke-width="2" class="data-point"/>
  
    <circle cx="370.30927835051546" cy="233.19687710166966" r="4" fill="#3b82f6" stroke="#0d1117" stroke-width="2" class="data-point"/>
  
    <circle cx="377.5257731958763" cy="230.21345653381678" r="4" fill="#3b82f6" stroke="#0d1117" stroke-width="2" class="data-point"/>
  
    <circle cx="384.74226804123714" cy="227.36337319804673" r="4" fill="#3b82f6" stroke="#0d1117" stroke-width="2" class="data-point"/>
  
    <circle cx="391.9587628865979" cy="224.1049445890231" r="4" fill="#3b82f6" stroke="#0d1117" stroke-width="2" class="data-point"/>
  
    <circle cx="399.17525773195877" cy="221.1965262142168" r="4" fill="#3b82f6" stroke="#0d1117" stroke-width="2" class="data-point"/>
  
    <circle cx="406.3917525773196" cy="218.73812099768998" r="4" fill="#3b82f6" stroke="#0d1117" stroke-width="2" class="data-point"/>
  
    <circle cx="413.6082474226804" cy="216.77139682446855" r="4" fill="#3b82f6" stroke="#0d1117" stroke-width="2" class="data-point"/>
  
    <circle cx="420.8247422680412" cy="214.0213164127606" r="4" fill="#3b82f6" stroke="#0d1117" stroke-width="2" class="data-point"/>
  
    <circle cx="428.0412371134021" cy="210.8795578818094" r="4" fill="#3b82f6" stroke="#0d1117" stroke-width="2" class="data-point"/>
  
    <circle cx="435.25773195876286" cy="208.00447381502383" r="4" fill="#3b82f6" stroke="#0d1117" stroke-width="2" class="data-point"/>
  
    <circle cx="442.47422680412365" cy="204.64604228193807" r="4" fill="#3b82f6" stroke="#0d1117" stroke-width="2" class="data-point"/>
  
    <circle cx="449.69072164948454" cy="200.5042545103658" r="4" fill="#3b82f6" stroke="#0d1117" stroke-width="2" class="data-point"/>
  
    <circle cx="456.90721649484533" cy="197.42083101845085" r="4" fill="#3b82f6" stroke="#0d1117" stroke-width="2" class="data-point"/>
  
    <circle cx="464.12371134020617" cy="194.86242287786192" r="4" fill="#3b82f6" stroke="#0d1117" stroke-width="2" class="data-point"/>
  
    <circle cx="471.340206185567" cy="192.42901839235066" r="4" fill="#3b82f6" stroke="#0d1117" stroke-width="2" class="data-point"/>
  
    <circle cx="478.5567010309278" cy="189.50393286353403" r="4" fill="#3b82f6" stroke="#0d1117" stroke-width="2" class="data-point"/>
  
    <circle cx="485.77319587628864" cy="186.10383344542237" r="4" fill="#3b82f6" stroke="#0d1117" stroke-width="2" class="data-point"/>
  
    <circle cx="492.9896907216495" cy="182.33705663908302" r="4" fill="#3b82f6" stroke="#0d1117" stroke-width="2" class="data-point"/>
  
    <circle cx="500.2061855670103" cy="178.37860756162462" r="4" fill="#3b82f6" stroke="#0d1117" stroke-width="2" class="data-point"/>
  
    <circle cx="507.4226804123711" cy="174.57849644726454" r="4" fill="#3b82f6" stroke="#0d1117" stroke-width="2" class="data-point"/>
  
    <circle cx="514.639175257732" cy="171.23673206818913" r="4" fill="#3b82f6" stroke="#0d1117" stroke-width="2" class="data-point"/>
  
    <circle cx="521.8556701030927" cy="167.91996842012924" r="4" fill="#3b82f6" stroke="#0d1117" stroke-width="2" class="data-point"/>
  
    <circle cx="529.0721649484535" cy="164.9948828913126" r="4" fill="#3b82f6" stroke="#0d1117" stroke-width="2" class="data-point"/>
  
    <circle cx="536.2886597938145" cy="162.01146232345977" r="4" fill="#3b82f6" stroke="#0d1117" stroke-width="2" class="data-point"/>
  
    <circle cx="543.5051546391753" cy="158.67803152138953" r="4" fill="#3b82f6" stroke="#0d1117" stroke-width="2" class="data-point"/>
  
    <circle cx="550.7216494845361" cy="154.52791017281206" r="4" fill="#3b82f6" stroke="#0d1117" stroke-width="2" class="data-point"/>
  
    <circle cx="557.9381443298969" cy="151.4361531038919" r="4" fill="#3b82f6" stroke="#0d1117" stroke-width="2" class="data-point"/>
  
    <circle cx="565.1546391752577" cy="148.66940553817363" r="4" fill="#3b82f6" stroke="#0d1117" stroke-width="2" class="data-point"/>
  
    <circle cx="572.3711340206186" cy="145.59431562326384" r="4" fill="#3b82f6" stroke="#0d1117" stroke-width="2" class="data-point"/>
  
    <circle cx="579.5876288659794" cy="142.72756513348344" r="4" fill="#3b82f6" stroke="#0d1117" stroke-width="2" class="data-point"/>
  
    <circle cx="586.8041237113403" cy="139.57747302552707" r="4" fill="#3b82f6" stroke="#0d1117" stroke-width="2" class="data-point"/>
  
    <circle cx="594.020618556701" cy="136.29404368548788" r="4" fill="#3b82f6" stroke="#0d1117" stroke-width="2" class="data-point"/>
  
    <circle cx="601.2371134020618" cy="132.86060995935554" r="4" fill="#3b82f6" stroke="#0d1117" stroke-width="2" class="data-point"/>
  
    <circle cx="608.4536082474227" cy="129.85218866048714" r="4" fill="#3b82f6" stroke="#0d1117" stroke-width="2" class="data-point"/>
  
    <circle cx="615.6701030927835" cy="127.27711336588789" r="4" fill="#3b82f6" stroke="#0d1117" stroke-width="2" class="data-point"/>
  
    <circle cx="622.8865979381444" cy="124.45203076113336" r="4" fill="#3b82f6" stroke="#0d1117" stroke-width="2" class="data-point"/>
  
    <circle cx="630.1030927835052" cy="121.39360800023394" r="4" fill="#3b82f6" stroke="#0d1117" stroke-width="2" class="data-point"/>
  
    <circle cx="637.319587628866" cy="118.56019181847424" r="4" fill="#3b82f6" stroke="#0d1117" stroke-width="2" class="data-point"/>
  
    <circle cx="644.5360824742269" cy="114.86841720518143" r="4" fill="#3b82f6" stroke="#0d1117" stroke-width="2" class="data-point"/>
  
    <circle cx="651.7525773195877" cy="111.69332436620954" r="4" fill="#3b82f6" stroke="#0d1117" stroke-width="2" class="data-point"/>
  
    <circle cx="658.9690721649484" cy="108.63490160531009" r="4" fill="#3b82f6" stroke="#0d1117" stroke-width="2" class="data-point"/>
  
    <circle cx="666.1855670103093" cy="106.09316061873156" r="4" fill="#3b82f6" stroke="#0d1117" stroke-width="2" class="data-point"/>
  
    <circle cx="673.4020618556701" cy="103.62642182519954" r="4" fill="#3b82f6" stroke="#0d1117" stroke-width="2" class="data-point"/>
  
    <circle cx="680.6185567010309" cy="101.15134945466241" r="4" fill="#3b82f6" stroke="#0d1117" stroke-width="2" class="data-point"/>
  
    <circle cx="687.8350515463918" cy="98.19292961782509" r="4" fill="#3b82f6" stroke="#0d1117" stroke-width="2" class="data-point"/>
  
    <circle cx="695.0515463917526" cy="95.15117401093599" r="4" fill="#3b82f6" stroke="#0d1117" stroke-width="2" class="data-point"/>
  
    <circle cx="702.2680412371134" cy="91.45939939764318" r="4" fill="#3b82f6" stroke="#0d1117" stroke-width="2" class="data-point"/>
  
    <circle cx="709.4845360824743" cy="88.46764525278516" r="4" fill="#3b82f6" stroke="#0d1117" stroke-width="2" class="data-point"/>
  
    <circle cx="716.7010309278351" cy="86.02590719026873" r="4" fill="#3b82f6" stroke="#0d1117" stroke-width="2" class="data-point"/>
  
    <circle cx="723.9175257731958" cy="83.51750051171086" r="4" fill="#3b82f6" stroke="#0d1117" stroke-width="2" class="data-point"/>
  
    <circle cx="731.1340206185567" cy="81.11743033422033" r="4" fill="#3b82f6" stroke="#0d1117" stroke-width="2" class="data-point"/>
  
    <circle cx="738.3505154639175" cy="78.1506769203778" r="4" fill="#3b82f6" stroke="#0d1117" stroke-width="2" class="data-point"/>
  
    <circle cx="745.5670103092783" cy="75.10892131348874" r="4" fill="#3b82f6" stroke="#0d1117" stroke-width="2" class="data-point"/>
  
    <circle cx="752.7835051546392" cy="68.383724670312" r="4" fill="#3b82f6" stroke="#0d1117" stroke-width="2" class="data-point"/>
  
    <circle cx="760" cy="55" r="4" fill="#3b82f6" stroke="#0d1117" stroke-width="2" class="data-point"/>
  

  <!-- Axis lines -->
  <line x1="60" y1="55" x2="60" y2="340"
        stroke="#30363d" stroke-width="2"/>
  <line x1="60" y1="340" x2="760" y2="340"
        stroke="#30363d" stroke-width="2"/>
</svg>