<?xml version="1.0" encoding="UTF-8"?>
<svg width="800" height="400" xmlns="http://www.w3.org/2000/svg">
  <defs>
    <!-- Gradient for area fill -->
    <linearGradient id="areaGradient" x1="0%" y1="0%" x2="0%" y2="100%">
      <stop offset="0%" style="stop-color:#3b82f6;stop-opacity:0.3" />
      <stop offset="100%" style="stop-color:#3b82f6;stop-opacity:0.05" />
    </linearGradient>

    <!-- Glow filter for line -->
    <filter id="glow">
      <feGaussianBlur stdDeviation="2" result="coloredBlur"/>
      <feMerge>
        <feMergeNode in="coloredBlur"/>
        <feMergeNode in="SourceGraphic"/>
      </feMerge>
    </filter>

    <!-- Animation -->
    <style>
      @keyframes draw {
        from { stroke-dashoffset: 2000; }
        to { stroke-dashoffset: 0; }
      }
      @keyframes fadeIn {
        from { opacity: 0; }
        to { opacity: 1; }
      }
      .line-path {
        stroke-dasharray: 2000;
        stroke-dashoffset: 2000;
        animation: draw 1.5s ease-out forwards;
      }
      .area-path {
        opacity: 0;
        animation: fadeIn 1s ease-out 0.5s forwards;
      }
      .data-point {
        opacity: 0;
        animation: fadeIn 0.5s ease-out 1s forwards;
      }
    </style>
  </defs>

  <!-- Background -->
  <rect width="800" height="400" fill="#0d1117" rx="8"/>

  <!-- Title -->
  <text x="400" y="25" text-anchor="middle" fill="#c9d1d9" font-family="system-ui, -apple-system, sans-serif" font-size="16" font-weight="600">
    zxcloli666/SoundCloud-Desktop Downloads
  </text>

  <!-- Stats -->
  <text x="780" y="25" text-anchor="end" fill="#58a6ff" font-family="system-ui, -apple-system, sans-serif" font-size="14" font-weight="600">
    162.7K total
  </text>
  <text x="780" y="42" text-anchor="end" fill="#3fb950" font-family="system-ui, -apple-system, sans-serif" font-size="12">
    +2.0K (+1.3%)
  </text>

  <!-- Grid lines -->
  <g opacity="0.1">
    
      <line x1="60" y1="340" x2="760" y2="340"
            stroke="#c9d1d9" stroke-width="1"/>
    
      <line x1="60" y1="268.75" x2="760" y2="268.75"
            stroke="#c9d1d9" stroke-width="1"/>
    
      <line x1="60" y1="197.5" x2="760" y2="197.5"
            stroke="#c9d1d9" stroke-width="1"/>
    
      <line x1="60" y1="126.25" x2="760" y2="126.25"
            stroke="#c9d1d9" stroke-width="1"/>
    
      <line x1="60" y1="55" x2="760" y2="55"
            stroke="#c9d1d9" stroke-width="1"/>
    
  </g>

  <!-- Y-axis labels -->
  
    <text x="50" y="344" text-anchor="end"
          fill="#8b949e" font-family="system-ui, -apple-system, sans-serif" font-size="11">
      60.2K
    </text>
  
    <text x="50" y="272.75" text-anchor="end"
          fill="#8b949e" font-family="system-ui, -apple-system, sans-serif" font-size="11">
      85.8K
    </text>
  
    <text x="50" y="201.5" text-anchor="end"
          fill="#8b949e" font-family="system-ui, -apple-system, sans-serif" font-size="11">
      111.4K
    </text>
  
    <text x="50" y="130.25" text-anchor="end"
          fill="#8b949e" font-family="system-ui, -apple-system, sans-serif" font-size="11">
      137.1K
    </text>
  
    <text x="50" y="59" text-anchor="end"
          fill="#8b949e" font-family="system-ui, -apple-system, sans-serif" font-size="11">
      162.7K
    </text>
  

  <!-- X-axis labels -->
  
    <text x="60" y="360" text-anchor="middle"
          fill="#8b949e" font-family="system-ui, -apple-system, sans-serif" font-size="11">
      Nov 25
    </text>
  
    <text x="146.89655172413794" y="360" text-anchor="middle"
          fill="#8b949e" font-family="system-ui, -apple-system, sans-serif" font-size="11">
      Dec 13
    </text>
  
    <text x="233.79310344827587" y="360" text-anchor="middle"
          fill="#8b949e" font-family="system-ui, -apple-system, sans-serif" font-size="11">
      Dec 31
    </text>
  
    <text x="320.68965517241384" y="360" text-anchor="middle"
          fill="#8b949e" font-family="system-ui, -apple-system, sans-serif" font-size="11">
      Jan 18
    </text>
  
    <text x="407.58620689655174" y="360" text-anchor="middle"
          fill="#8b949e" font-family="system-ui, -apple-system, sans-serif" font-size="11">
      Feb 5
    </text>
  
    <text x="494.48275862068965" y="360" text-anchor="middle"
          fill="#8b949e" font-family="system-ui, -apple-system, sans-serif" font-size="11">
      Feb 23
    </text>
  
    <text x="581.3793103448277" y="360" text-anchor="middle"
          fill="#8b949e" font-family="system-ui, -apple-system, sans-serif" font-size="11">
      Mar 13
    </text>
  
    <text x="668.2758620689655" y="360" text-anchor="middle"
          fill="#8b949e" font-family="system-ui, -apple-system, sans-serif" font-size="11">
      Mar 31
    </text>
  
    <text x="755.1724137931035" y="360" text-anchor="middle"
          fill="#8b949e" font-family="system-ui, -apple-system, sans-serif" font-size="11">
      Apr 18
    </text>
  
    <text x="760" y="360" text-anchor="middle"
          fill="#8b949e" font-family="system-ui, -apple-system, sans-serif" font-size="11">
      Apr 19
    </text>
  

  <!-- Area under line -->
  <path d="M 60 340
    L 60.00 340.00 L 64.83 339.59 L 69.66 338.90 L 74.48 338.25 L 79.31 336.97 L 84.14 335.65 L 88.97 334.61 L 93.79 333.63 L 98.62 332.77 L 103.45 331.75 L 108.28 330.62 L 113.10 329.41 L 117.93 328.31 L 122.76 327.14 L 127.59 326.29 L 132.41 325.40 L 137.24 324.20 L 142.07 323.40 L 146.90 322.29 L 151.72 321.00 L 156.55 320.04 L 161.38 319.24 L 166.21 318.73 L 171.03 318.30 L 175.86 317.51 L 180.69 316.94 L 185.52 315.71 L 190.34 315.22 L 195.17 314.59 L 200.00 313.78 L 204.83 313.22 L 209.66 312.66 L 214.48 312.07 L 219.31 311.66 L 224.14 311.30 L 228.97 310.76 L 233.79 310.10 L 238.62 309.49 L 243.45 308.73 L 248.28 307.89 L 253.10 307.12 L 257.93 306.20 L 262.76 305.29 L 267.59 304.38 L 272.41 303.39 L 277.24 302.43 L 282.07 301.35 L 286.90 300.38 L 291.72 299.56 L 296.55 298.90 L 301.38 297.98 L 306.21 296.94 L 311.03 295.98 L 315.86 294.86 L 320.69 293.48 L 325.52 292.45 L 330.34 291.60 L 335.17 290.78 L 340.00 289.81 L 344.83 288.67 L 349.66 287.42 L 354.48 286.10 L 359.31 284.83 L 364.14 283.72 L 368.97 282.61 L 373.79 281.63 L 378.62 280.64 L 383.45 279.53 L 388.28 278.14 L 393.10 277.11 L 397.93 276.19 L 402.76 275.16 L 407.59 274.21 L 412.41 273.16 L 417.24 272.06 L 422.07 270.92 L 426.90 269.91 L 431.72 269.06 L 436.55 268.11 L 441.38 267.09 L 446.21 266.15 L 451.03 264.92 L 455.86 263.86 L 460.69 262.84 L 465.52 261.99 L 470.34 261.17 L 475.17 260.34 L 480.00 259.36 L 484.83 258.34 L 489.66 257.11 L 494.48 256.11 L 499.31 255.30 L 504.14 254.46 L 508.97 253.66 L 513.79 252.67 L 518.62 251.66 L 523.45 249.41 L 528.28 244.95 L 533.10 239.63 L 537.93 234.79 L 542.76 232.33 L 547.59 228.63 L 552.41 226.17 L 557.24 224.01 L 562.07 221.90 L 566.90 219.92 L 571.72 216.83 L 576.55 214.37 L 581.38 211.23 L 586.21 210.59 L 591.03 210.50 L 595.86 210.39 L 600.69 210.30 L 605.52 210.18 L 610.34 210.08 L 615.17 210.04 L 620.00 209.88 L 624.83 209.74 L 629.66 209.64 L 634.48 209.60 L 639.31 209.44 L 644.14 205.41 L 648.97 199.10 L 653.79 194.87 L 658.62 189.96 L 663.45 184.90 L 668.28 180.93 L 673.10 176.50 L 677.93 169.73 L 682.76 160.62 L 687.59 154.67 L 692.41 147.59 L 697.24 139.71 L 702.07 133.38 L 706.90 126.51 L 711.72 120.43 L 716.55 114.39 L 721.38 108.37 L 726.21 100.18 L 731.03 91.96 L 735.86 85.11 L 740.69 79.37 L 745.52 73.80 L 750.34 66.41 L 755.17 60.67 L 760.00 55.00
    L 760 340
    Z" fill="url(#areaGradient)" class="area-path"/>

  <!-- Main line with glow -->
  <path d="M 60.00 340.00 L 64.83 339.59 L 69.66 338.90 L 74.48 338.25 L 79.31 336.97 L 84.14 335.65 L 88.97 334.61 L 93.79 333.63 L 98.62 332.77 L 103.45 331.75 L 108.28 330.62 L 113.10 329.41 L 117.93 328.31 L 122.76 327.14 L 127.59 326.29 L 132.41 325.40 L 137.24 324.20 L 142.07 323.40 L 146.90 322.29 L 151.72 321.00 L 156.55 320.04 L 161.38 319.24 L 166.21 318.73 L 171.03 318.30 L 175.86 317.51 L 180.69 316.94 L 185.52 315.71 L 190.34 315.22 L 195.17 314.59 L 200.00 313.78 L 204.83 313.22 L 209.66 312.66 L 214.48 312.07 L 219.31 311.66 L 224.14 311.30 L 228.97 310.76 L 233.79 310.10 L 238.62 309.49 L 243.45 308.73 L 248.28 307.89 L 253.10 307.12 L 257.93 306.20 L 262.76 305.29 L 267.59 304.38 L 272.41 303.39 L 277.24 302.43 L 282.07 301.35 L 286.90 300.38 L 291.72 299.56 L 296.55 298.90 L 301.38 297.98 L 306.21 296.94 L 311.03 295.98 L 315.86 294.86 L 320.69 293.48 L 325.52 292.45 L 330.34 291.60 L 335.17 290.78 L 340.00 289.81 L 344.83 288.67 L 349.66 287.42 L 354.48 286.10 L 359.31 284.83 L 364.14 283.72 L 368.97 282.61 L 373.79 281.63 L 378.62 280.64 L 383.45 279.53 L 388.28 278.14 L 393.10 277.11 L 397.93 276.19 L 402.76 275.16 L 407.59 274.21 L 412.41 273.16 L 417.24 272.06 L 422.07 270.92 L 426.90 269.91 L 431.72 269.06 L 436.55 268.11 L 441.38 267.09 L 446.21 266.15 L 451.03 264.92 L 455.86 263.86 L 460.69 262.84 L 465.52 261.99 L 470.34 261.17 L 475.17 260.34 L 480.00 259.36 L 484.83 258.34 L 489.66 257.11 L 494.48 256.11 L 499.31 255.30 L 504.14 254.46 L 508.97 253.66 L 513.79 252.67 L 518.62 251.66 L 523.45 249.41 L 528.28 244.95 L 533.10 239.63 L 537.93 234.79 L 542.76 232.33 L 547.59 228.63 L 552.41 226.17 L 557.24 224.01 L 562.07 221.90 L 566.90 219.92 L 571.72 216.83 L 576.55 214.37 L 581.38 211.23 L 586.21 210.59 L 591.03 210.50 L 595.86 210.39 L 600.69 210.30 L 605.52 210.18 L 610.34 210.08 L 615.17 210.04 L 620.00 209.88 L 624.83 209.74 L 629.66 209.64 L 634.48 209.60 L 639.31 209.44 L 644.14 205.41 L 648.97 199.10 L 653.79 194.87 L 658.62 189.96 L 663.45 184.90 L 668.28 180.93 L 673.10 176.50 L 677.93 169.73 L 682.76 160.62 L 687.59 154.67 L 692.41 147.59 L 697.24 139.71 L 702.07 133.38 L 706.90 126.51 L 711.72 120.43 L 716.55 114.39 L 721.38 108.37 L 726.21 100.18 L 731.03 91.96 L 735.86 85.11 L 740.69 79.37 L 745.52 73.80 L 750.34 66.41 L 755.17 60.67 L 760.00 55.00" fill="none" stroke="#3b82f6" stroke-width="3"
        stroke-linecap="round" stroke-linejoin="round" filter="url(#glow)" class="line-path"/>

  <!-- Data points -->
  
    <circle cx="60" cy="340" r="4" fill="#3b82f6" stroke="#0d1117" stroke-width="2" class="data-point"/>
  
    <circle cx="64.82758620689656" cy="339.591439688716" r="4" fill="#3b82f6" stroke="#0d1117" stroke-width="2" class="data-point"/>
  
    <circle cx="69.65517241379311" cy="338.8966092273485" r="4" fill="#3b82f6" stroke="#0d1117" stroke-width="2" class="data-point"/>
  
    <circle cx="74.48275862068965" cy="338.25180655919957" r="4" fill="#3b82f6" stroke="#0d1117" stroke-width="2" class="data-point"/>
  
    <circle cx="79.3103448275862" cy="336.970539188438" r="4" fill="#3b82f6" stroke="#0d1117" stroke-width="2" class="data-point"/>
  
    <circle cx="84.13793103448276" cy="335.6475819899944" r="4" fill="#3b82f6" stroke="#0d1117" stroke-width="2" class="data-point"/>
  
    <circle cx="88.9655172413793" cy="334.6053362979433" r="4" fill="#3b82f6" stroke="#0d1117" stroke-width="2" class="data-point"/>
  
    <circle cx="93.79310344827587" cy="333.6325736520289" r="4" fill="#3b82f6" stroke="#0d1117" stroke-width="2" class="data-point"/>
  
    <circle cx="98.62068965517241" cy="332.7682045580878" r="4" fill="#3b82f6" stroke="#0d1117" stroke-width="2" class="data-point"/>
  
    <circle cx="103.44827586206897" cy="331.7537520844914" r="4" fill="#3b82f6" stroke="#0d1117" stroke-width="2" class="data-point"/>
  
    <circle cx="108.27586206896552" cy="330.6225680933852" r="4" fill="#3b82f6" stroke="#0d1117" stroke-width="2" class="data-point"/>
  
    <circle cx="113.10344827586206" cy="329.41078376876044" r="4" fill="#3b82f6" stroke="#0d1117" stroke-width="2" class="data-point"/>
  
    <circle cx="117.93103448275862" cy="328.3101723179544" r="4" fill="#3b82f6" stroke="#0d1117" stroke-width="2" class="data-point"/>
  
    <circle cx="122.75862068965517" cy="327.1400778210117" r="4" fill="#3b82f6" stroke="#0d1117" stroke-width="2" class="data-point"/>
  
    <circle cx="127.58620689655173" cy="326.28682601445246" r="4" fill="#3b82f6" stroke="#0d1117" stroke-width="2" class="data-point"/>
  
    <circle cx="132.41379310344826" cy="325.4030016675931" r="4" fill="#3b82f6" stroke="#0d1117" stroke-width="2" class="data-point"/>
  
    <circle cx="137.24137931034483" cy="324.2023346303502" r="4" fill="#3b82f6" stroke="#0d1117" stroke-width="2" class="data-point"/>
  
    <circle cx="142.0689655172414" cy="323.39911061700946" r="4" fill="#3b82f6" stroke="#0d1117" stroke-width="2" class="data-point"/>
  
    <circle cx="146.89655172413794" cy="322.2873818788216" r="4" fill="#3b82f6" stroke="#0d1117" stroke-width="2" class="data-point"/>
  
    <circle cx="151.72413793103448" cy="321.00333518621454" r="4" fill="#3b82f6" stroke="#0d1117" stroke-width="2" class="data-point"/>
  
    <circle cx="156.55172413793105" cy="320.03613118399113" r="4" fill="#3b82f6" stroke="#0d1117" stroke-width="2" class="data-point"/>
  
    <circle cx="161.37931034482762" cy="319.24124513618676" r="4" fill="#3b82f6" stroke="#0d1117" stroke-width="2" class="data-point"/>
  
    <circle cx="166.20689655172413" cy="318.7270705947749" r="4" fill="#3b82f6" stroke="#0d1117" stroke-width="2" class="data-point"/>
  
    <circle cx="171.0344827586207" cy="318.29905503057256" r="4" fill="#3b82f6" stroke="#0d1117" stroke-width="2" class="data-point"/>
  
    <circle cx="175.86206896551724" cy="317.5069483046137" r="4" fill="#3b82f6" stroke="#0d1117" stroke-width="2" class="data-point"/>
  
    <circle cx="180.6896551724138" cy="316.9427459699833" r="4" fill="#3b82f6" stroke="#0d1117" stroke-width="2" class="data-point"/>
  
    <circle cx="185.51724137931035" cy="315.7059477487493" r="4" fill="#3b82f6" stroke="#0d1117" stroke-width="2" class="data-point"/>
  
    <circle cx="190.34482758620692" cy="315.2195664257921" r="4" fill="#3b82f6" stroke="#0d1117" stroke-width="2" class="data-point"/>
  
    <circle cx="195.17241379310346" cy="314.591439688716" r="4" fill="#3b82f6" stroke="#0d1117" stroke-width="2" class="data-point"/>
  
    <circle cx="200" cy="313.7798777098388" r="4" fill="#3b82f6" stroke="#0d1117" stroke-width="2" class="data-point"/>
  
    <circle cx="204.82758620689654" cy="313.2240133407449" r="4" fill="#3b82f6" stroke="#0d1117" stroke-width="2" class="data-point"/>
  
    <circle cx="209.6551724137931" cy="312.6598110061145" r="4" fill="#3b82f6" stroke="#0d1117" stroke-width="2" class="data-point"/>
  
    <circle cx="214.48275862068965" cy="312.0678154530295" r="4" fill="#3b82f6" stroke="#0d1117" stroke-width="2" class="data-point"/>
  
    <circle cx="219.31034482758622" cy="311.6564758198999" r="4" fill="#3b82f6" stroke="#0d1117" stroke-width="2" class="data-point"/>
  
    <circle cx="224.13793103448276" cy="311.3007226236798" r="4" fill="#3b82f6" stroke="#0d1117" stroke-width="2" class="data-point"/>
  
    <circle cx="228.96551724137933" cy="310.75875486381324" r="4" fill="#3b82f6" stroke="#0d1117" stroke-width="2" class="data-point"/>
  
    <circle cx="233.79310344827587" cy="310.1000555864369" r="4" fill="#3b82f6" stroke="#0d1117" stroke-width="2" class="data-point"/>
  
    <circle cx="238.6206896551724" cy="309.4941634241245" r="4" fill="#3b82f6" stroke="#0d1117" stroke-width="2" class="data-point"/>
  
    <circle cx="243.44827586206898" cy="308.7270705947749" r="4" fill="#3b82f6" stroke="#0d1117" stroke-width="2" class="data-point"/>
  
    <circle cx="248.2758620689655" cy="307.8904947192885" r="4" fill="#3b82f6" stroke="#0d1117" stroke-width="2" class="data-point"/>
  
    <circle cx="253.10344827586206" cy="307.12340188993886" r="4" fill="#3b82f6" stroke="#0d1117" stroke-width="2" class="data-point"/>
  
    <circle cx="257.9310344827586" cy="306.1978877153974" r="4" fill="#3b82f6" stroke="#0d1117" stroke-width="2" class="data-point"/>
  
    <circle cx="262.75862068965523" cy="305.2890494719288" r="4" fill="#3b82f6" stroke="#0d1117" stroke-width="2" class="data-point"/>
  
    <circle cx="267.58620689655174" cy="304.38021122846027" r="4" fill="#3b82f6" stroke="#0d1117" stroke-width="2" class="data-point"/>
  
    <circle cx="272.41379310344826" cy="303.3852140077821" r="4" fill="#3b82f6" stroke="#0d1117" stroke-width="2" class="data-point"/>
  
    <circle cx="277.2413793103448" cy="302.43468593663147" r="4" fill="#3b82f6" stroke="#0d1117" stroke-width="2" class="data-point"/>
  
    <circle cx="282.0689655172414" cy="301.3479710950528" r="4" fill="#3b82f6" stroke="#0d1117" stroke-width="2" class="data-point"/>
  
    <circle cx="286.8965517241379" cy="300.37798777098385" r="4" fill="#3b82f6" stroke="#0d1117" stroke-width="2" class="data-point"/>
  
    <circle cx="291.7241379310345" cy="299.55808782657033" r="4" fill="#3b82f6" stroke="#0d1117" stroke-width="2" class="data-point"/>
  
    <circle cx="296.55172413793105" cy="298.90216787103947" r="4" fill="#3b82f6" stroke="#0d1117" stroke-width="2" class="data-point"/>
  
    <circle cx="301.3793103448276" cy="297.9849916620345" r="4" fill="#3b82f6" stroke="#0d1117" stroke-width="2" class="data-point"/>
  
    <circle cx="306.2068965517241" cy="296.93718732629236" r="4" fill="#3b82f6" stroke="#0d1117" stroke-width="2" class="data-point"/>
  
    <circle cx="311.0344827586207" cy="295.97832128960533" r="4" fill="#3b82f6" stroke="#0d1117" stroke-width="2" class="data-point"/>
  
    <circle cx="315.8620689655172" cy="294.85825458588107" r="4" fill="#3b82f6" stroke="#0d1117" stroke-width="2" class="data-point"/>
  
    <circle cx="320.68965517241384" cy="293.4769316286826" r="4" fill="#3b82f6" stroke="#0d1117" stroke-width="2" class="data-point"/>
  
    <circle cx="325.51724137931035" cy="292.4485825458588" r="4" fill="#3b82f6" stroke="#0d1117" stroke-width="2" class="data-point"/>
  
    <circle cx="330.3448275862069" cy="291.5953307392996" r="4" fill="#3b82f6" stroke="#0d1117" stroke-width="2" class="data-point"/>
  
    <circle cx="335.17241379310343" cy="290.78376876042245" r="4" fill="#3b82f6" stroke="#0d1117" stroke-width="2" class="data-point"/>
  
    <circle cx="340" cy="289.8082267926626" r="4" fill="#3b82f6" stroke="#0d1117" stroke-width="2" class="data-point"/>
  
    <circle cx="344.8275862068965" cy="288.67426347971093" r="4" fill="#3b82f6" stroke="#0d1117" stroke-width="2" class="data-point"/>
  
    <circle cx="349.6551724137931" cy="287.41801000555864" r="4" fill="#3b82f6" stroke="#0d1117" stroke-width="2" class="data-point"/>
  
    <circle cx="354.48275862068965" cy="286.09783212896053" r="4" fill="#3b82f6" stroke="#0d1117" stroke-width="2" class="data-point"/>
  
    <circle cx="359.3103448275862" cy="284.8304613674263" r="4" fill="#3b82f6" stroke="#0d1117" stroke-width="2" class="data-point"/>
  
    <circle cx="364.13793103448273" cy="283.715953307393" r="4" fill="#3b82f6" stroke="#0d1117" stroke-width="2" class="data-point"/>
  
    <circle cx="368.9655172413793" cy="282.60978321289605" r="4" fill="#3b82f6" stroke="#0d1117" stroke-width="2" class="data-point"/>
  
    <circle cx="373.7931034482759" cy="281.6342412451362" r="4" fill="#3b82f6" stroke="#0d1117" stroke-width="2" class="data-point"/>
  
    <circle cx="378.62068965517244" cy="280.63924402445804" r="4" fill="#3b82f6" stroke="#0d1117" stroke-width="2" class="data-point"/>
  
    <circle cx="383.44827586206895" cy="279.52751528627016" r="4" fill="#3b82f6" stroke="#0d1117" stroke-width="2" class="data-point"/>
  
    <circle cx="388.2758620689655" cy="278.14341300722623" r="4" fill="#3b82f6" stroke="#0d1117" stroke-width="2" class="data-point"/>
  
    <circle cx="393.1034482758621" cy="277.112284602557" r="4" fill="#3b82f6" stroke="#0d1117" stroke-width="2" class="data-point"/>
  
    <circle cx="397.93103448275866" cy="276.18954974986104" r="4" fill="#3b82f6" stroke="#0d1117" stroke-width="2" class="data-point"/>
  
    <circle cx="402.7586206896552" cy="275.1639799888827" r="4" fill="#3b82f6" stroke="#0d1117" stroke-width="2" class="data-point"/>
  
    <circle cx="407.58620689655174" cy="274.2078932740411" r="4" fill="#3b82f6" stroke="#0d1117" stroke-width="2" class="data-point"/>
  
    <circle cx="412.41379310344826" cy="273.1573096164536" r="4" fill="#3b82f6" stroke="#0d1117" stroke-width="2" class="data-point"/>
  
    <circle cx="417.2413793103448" cy="272.0622568093385" r="4" fill="#3b82f6" stroke="#0d1117" stroke-width="2" class="data-point"/>
  
    <circle cx="422.0689655172414" cy="270.917176209005" r="4" fill="#3b82f6" stroke="#0d1117" stroke-width="2" class="data-point"/>
  
    <circle cx="426.89655172413796" cy="269.91384102279045" r="4" fill="#3b82f6" stroke="#0d1117" stroke-width="2" class="data-point"/>
  
    <circle cx="431.7241379310344" cy="269.0550305725403" r="4" fill="#3b82f6" stroke="#0d1117" stroke-width="2" class="data-point"/>
  
    <circle cx="436.551724137931" cy="268.11284046692606" r="4" fill="#3b82f6" stroke="#0d1117" stroke-width="2" class="data-point"/>
  
    <circle cx="441.37931034482756" cy="267.0928293496387" r="4" fill="#3b82f6" stroke="#0d1117" stroke-width="2" class="data-point"/>
  
    <circle cx="446.2068965517241" cy="266.147859922179" r="4" fill="#3b82f6" stroke="#0d1117" stroke-width="2" class="data-point"/>
  
    <circle cx="451.0344827586207" cy="264.91662034463593" r="4" fill="#3b82f6" stroke="#0d1117" stroke-width="2" class="data-point"/>
  
    <circle cx="455.86206896551727" cy="263.85769872151195" r="4" fill="#3b82f6" stroke="#0d1117" stroke-width="2" class="data-point"/>
  
    <circle cx="460.68965517241384" cy="262.8376876042246" r="4" fill="#3b82f6" stroke="#0d1117" stroke-width="2" class="data-point"/>
  
    <circle cx="465.5172413793104" cy="261.9899944413563" r="4" fill="#3b82f6" stroke="#0d1117" stroke-width="2" class="data-point"/>
  
    <circle cx="470.34482758620686" cy="261.16731517509726" r="4" fill="#3b82f6" stroke="#0d1117" stroke-width="2" class="data-point"/>
  
    <circle cx="475.17241379310343" cy="260.3418565869928" r="4" fill="#3b82f6" stroke="#0d1117" stroke-width="2" class="data-point"/>
  
    <circle cx="480" cy="259.35519733185106" r="4" fill="#3b82f6" stroke="#0d1117" stroke-width="2" class="data-point"/>
  
    <circle cx="484.82758620689657" cy="258.3407448582546" r="4" fill="#3b82f6" stroke="#0d1117" stroke-width="2" class="data-point"/>
  
    <circle cx="489.6551724137931" cy="257.1095052807115" r="4" fill="#3b82f6" stroke="#0d1117" stroke-width="2" class="data-point"/>
  
    <circle cx="494.48275862068965" cy="256.1117287381879" r="4" fill="#3b82f6" stroke="#0d1117" stroke-width="2" class="data-point"/>
  
    <circle cx="499.3103448275862" cy="255.29738743746526" r="4" fill="#3b82f6" stroke="#0d1117" stroke-width="2" class="data-point"/>
  
    <circle cx="504.1379310344828" cy="254.4608115619789" r="4" fill="#3b82f6" stroke="#0d1117" stroke-width="2" class="data-point"/>
  
    <circle cx="508.9655172413793" cy="253.6603668704836" r="4" fill="#3b82f6" stroke="#0d1117" stroke-width="2" class="data-point"/>
  
    <circle cx="513.7931034482758" cy="252.6709282934964" r="4" fill="#3b82f6" stroke="#0d1117" stroke-width="2" class="data-point"/>
  
    <circle cx="518.6206896551723" cy="251.65647581989995" r="4" fill="#3b82f6" stroke="#0d1117" stroke-width="2" class="data-point"/>
  
    <circle cx="523.448275862069" cy="249.4135630906059" r="4" fill="#3b82f6" stroke="#0d1117" stroke-width="2" class="data-point"/>
  
    <circle cx="528.2758620689656" cy="244.94997220678152" r="4" fill="#3b82f6" stroke="#0d1117" stroke-width="2" class="data-point"/>
  
    <circle cx="533.1034482758621" cy="239.63312951639801" r="4" fill="#3b82f6" stroke="#0d1117" stroke-width="2" class="data-point"/>
  
    <circle cx="537.9310344827586" cy="234.7887715397443" r="4" fill="#3b82f6" stroke="#0d1117" stroke-width="2" class="data-point"/>
  
    <circle cx="542.7586206896552" cy="232.3318510283491" r="4" fill="#3b82f6" stroke="#0d1117" stroke-width="2" class="data-point"/>
  
    <circle cx="547.5862068965516" cy="228.62979433018342" r="4" fill="#3b82f6" stroke="#0d1117" stroke-width="2" class="data-point"/>
  
    <circle cx="552.4137931034483" cy="226.17009449694274" r="4" fill="#3b82f6" stroke="#0d1117" stroke-width="2" class="data-point"/>
  
    <circle cx="557.2413793103449" cy="224.01334074485823" r="4" fill="#3b82f6" stroke="#0d1117" stroke-width="2" class="data-point"/>
  
    <circle cx="562.0689655172414" cy="221.90383546414677" r="4" fill="#3b82f6" stroke="#0d1117" stroke-width="2" class="data-point"/>
  
    <circle cx="566.8965517241379" cy="219.9166203446359" r="4" fill="#3b82f6" stroke="#0d1117" stroke-width="2" class="data-point"/>
  
    <circle cx="571.7241379310344" cy="216.8260144524736" r="4" fill="#3b82f6" stroke="#0d1117" stroke-width="2" class="data-point"/>
  
    <circle cx="576.551724137931" cy="214.36909394107838" r="4" fill="#3b82f6" stroke="#0d1117" stroke-width="2" class="data-point"/>
  
    <circle cx="581.3793103448277" cy="211.2284602556976" r="4" fill="#3b82f6" stroke="#0d1117" stroke-width="2" class="data-point"/>
  
    <circle cx="586.2068965517241" cy="210.5864369093941" r="4" fill="#3b82f6" stroke="#0d1117" stroke-width="2" class="data-point"/>
  
    <circle cx="591.0344827586207" cy="210.50305725403" r="4" fill="#3b82f6" stroke="#0d1117" stroke-width="2" class="data-point"/>
  
    <circle cx="595.8620689655172" cy="210.3946637020567" r="4" fill="#3b82f6" stroke="#0d1117" stroke-width="2" class="data-point"/>
  
    <circle cx="600.6896551724138" cy="210.3029460811562" r="4" fill="#3b82f6" stroke="#0d1117" stroke-width="2" class="data-point"/>
  
    <circle cx="605.5172413793103" cy="210.183435241801" r="4" fill="#3b82f6" stroke="#0d1117" stroke-width="2" class="data-point"/>
  
    <circle cx="610.3448275862069" cy="210.07782101167317" r="4" fill="#3b82f6" stroke="#0d1117" stroke-width="2" class="data-point"/>
  
    <circle cx="615.1724137931035" cy="210.0361311839911" r="4" fill="#3b82f6" stroke="#0d1117" stroke-width="2" class="data-point"/>
  
    <circle cx="620" cy="209.88326848249028" r="4" fill="#3b82f6" stroke="#0d1117" stroke-width="2" class="data-point"/>
  
    <circle cx="624.8275862068965" cy="209.73596442468036" r="4" fill="#3b82f6" stroke="#0d1117" stroke-width="2" class="data-point"/>
  
    <circle cx="629.655172413793" cy="209.63868816008895" r="4" fill="#3b82f6" stroke="#0d1117" stroke-width="2" class="data-point"/>
  
    <circle cx="634.4827586206897" cy="209.60255697609784" r="4" fill="#3b82f6" stroke="#0d1117" stroke-width="2" class="data-point"/>
  
    <circle cx="639.3103448275862" cy="209.43857698721513" r="4" fill="#3b82f6" stroke="#0d1117" stroke-width="2" class="data-point"/>
  
    <circle cx="644.1379310344828" cy="205.40856031128405" r="4" fill="#3b82f6" stroke="#0d1117" stroke-width="2" class="data-point"/>
  
    <circle cx="648.9655172413793" cy="199.09672040022235" r="4" fill="#3b82f6" stroke="#0d1117" stroke-width="2" class="data-point"/>
  
    <circle cx="653.7931034482759" cy="194.86937187326293" r="4" fill="#3b82f6" stroke="#0d1117" stroke-width="2" class="data-point"/>
  
    <circle cx="658.6206896551724" cy="189.96108949416342" r="4" fill="#3b82f6" stroke="#0d1117" stroke-width="2" class="data-point"/>
  
    <circle cx="663.448275862069" cy="184.90272373540856" r="4" fill="#3b82f6" stroke="#0d1117" stroke-width="2" class="data-point"/>
  
    <circle cx="668.2758620689655" cy="180.93385214007782" r="4" fill="#3b82f6" stroke="#0d1117" stroke-width="2" class="data-point"/>
  
    <circle cx="673.1034482758621" cy="176.4952751528627" r="4" fill="#3b82f6" stroke="#0d1117" stroke-width="2" class="data-point"/>
  
    <circle cx="677.9310344827586" cy="169.7331851028349" r="4" fill="#3b82f6" stroke="#0d1117" stroke-width="2" class="data-point"/>
  
    <circle cx="682.7586206896551" cy="160.61978877153976" r="4" fill="#3b82f6" stroke="#0d1117" stroke-width="2" class="data-point"/>
  
    <circle cx="687.5862068965517" cy="154.67204002223457" r="4" fill="#3b82f6" stroke="#0d1117" stroke-width="2" class="data-point"/>
  
    <circle cx="692.4137931034483" cy="147.59310728182322" r="4" fill="#3b82f6" stroke="#0d1117" stroke-width="2" class="data-point"/>
  
    <circle cx="697.2413793103449" cy="139.7053918843802" r="4" fill="#3b82f6" stroke="#0d1117" stroke-width="2" class="data-point"/>
  
    <circle cx="702.0689655172414" cy="133.37965536409115" r="4" fill="#3b82f6" stroke="#0d1117" stroke-width="2" class="data-point"/>
  
    <circle cx="706.8965517241379" cy="126.514730405781" r="4" fill="#3b82f6" stroke="#0d1117" stroke-width="2" class="data-point"/>
  
    <circle cx="711.7241379310344" cy="120.42523624235687" r="4" fill="#3b82f6" stroke="#0d1117" stroke-width="2" class="data-point"/>
  
    <circle cx="716.551724137931" cy="114.39132851584213" r="4" fill="#3b82f6" stroke="#0d1117" stroke-width="2" class="data-point"/>
  
    <circle cx="721.3793103448276" cy="108.37409672040022" r="4" fill="#3b82f6" stroke="#0d1117" stroke-width="2" class="data-point"/>
  
    <circle cx="726.2068965517242" cy="100.18065591995551" r="4" fill="#3b82f6" stroke="#0d1117" stroke-width="2" class="data-point"/>
  
    <circle cx="731.0344827586207" cy="91.9622012229016" r="4" fill="#3b82f6" stroke="#0d1117" stroke-width="2" class="data-point"/>
  
    <circle cx="735.8620689655173" cy="85.11117287381879" r="4" fill="#3b82f6" stroke="#0d1117" stroke-width="2" class="data-point"/>
  
    <circle cx="740.6896551724137" cy="79.36909394107835" r="4" fill="#3b82f6" stroke="#0d1117" stroke-width="2" class="data-point"/>
  
    <circle cx="745.5172413793103" cy="73.79933296275709" r="4" fill="#3b82f6" stroke="#0d1117" stroke-width="2" class="data-point"/>
  
    <circle cx="750.3448275862069" cy="66.40633685380766" r="4" fill="#3b82f6" stroke="#0d1117" stroke-width="2" class="data-point"/>
  
    <circle cx="755.1724137931035" cy="60.67259588660363" r="4" fill="#3b82f6" stroke="#0d1117" stroke-width="2" class="data-point"/>
  
    <circle cx="760" cy="55" r="4" fill="#3b82f6" stroke="#0d1117" stroke-width="2" class="data-point"/>
  

  <!-- Axis lines -->
  <line x1="60" y1="55" x2="60" y2="340"
        stroke="#30363d" stroke-width="2"/>
  <line x1="60" y1="340" x2="760" y2="340"
        stroke="#30363d" stroke-width="2"/>
</svg>