<?xml version="1.0" encoding="UTF-8"?>
<svg width="800" height="400" xmlns="http://www.w3.org/2000/svg">
  <defs>
    <!-- Gradient for area fill -->
    <linearGradient id="areaGradient" x1="0%" y1="0%" x2="0%" y2="100%">
      <stop offset="0%" style="stop-color:#3b82f6;stop-opacity:0.3" />
      <stop offset="100%" style="stop-color:#3b82f6;stop-opacity:0.05" />
    </linearGradient>

    <!-- Glow filter for line -->
    <filter id="glow">
      <feGaussianBlur stdDeviation="2" result="coloredBlur"/>
      <feMerge>
        <feMergeNode in="coloredBlur"/>
        <feMergeNode in="SourceGraphic"/>
      </feMerge>
    </filter>

    <!-- Animation -->
    <style>
      @keyframes draw {
        from { stroke-dashoffset: 2000; }
        to { stroke-dashoffset: 0; }
      }
      @keyframes fadeIn {
        from { opacity: 0; }
        to { opacity: 1; }
      }
      .line-path {
        stroke-dasharray: 2000;
        stroke-dashoffset: 2000;
        animation: draw 1.5s ease-out forwards;
      }
      .area-path {
        opacity: 0;
        animation: fadeIn 1s ease-out 0.5s forwards;
      }
      .data-point {
        opacity: 0;
        animation: fadeIn 0.5s ease-out 1s forwards;
      }
    </style>
  </defs>

  <!-- Background -->
  <rect width="800" height="400" fill="#0d1117" rx="8"/>

  <!-- Title -->
  <text x="400" y="25" text-anchor="middle" fill="#c9d1d9" font-family="system-ui, -apple-system, sans-serif" font-size="16" font-weight="600">
    zxcloli666/SoundCloud-Desktop Downloads
  </text>

  <!-- Stats -->
  <text x="780" y="25" text-anchor="end" fill="#58a6ff" font-family="system-ui, -apple-system, sans-serif" font-size="14" font-weight="600">
    274.9K total
  </text>
  <text x="780" y="42" text-anchor="end" fill="#3fb950" font-family="system-ui, -apple-system, sans-serif" font-size="12">
    +937 (+0.3%)
  </text>

  <!-- Grid lines -->
  <g opacity="0.1">
    
      <line x1="60" y1="340" x2="760" y2="340"
            stroke="#c9d1d9" stroke-width="1"/>
    
      <line x1="60" y1="268.75" x2="760" y2="268.75"
            stroke="#c9d1d9" stroke-width="1"/>
    
      <line x1="60" y1="197.5" x2="760" y2="197.5"
            stroke="#c9d1d9" stroke-width="1"/>
    
      <line x1="60" y1="126.25" x2="760" y2="126.25"
            stroke="#c9d1d9" stroke-width="1"/>
    
      <line x1="60" y1="55" x2="760" y2="55"
            stroke="#c9d1d9" stroke-width="1"/>
    
  </g>

  <!-- Y-axis labels -->
  
    <text x="50" y="344" text-anchor="end"
          fill="#8b949e" font-family="system-ui, -apple-system, sans-serif" font-size="11">
      60.2K
    </text>
  
    <text x="50" y="272.75" text-anchor="end"
          fill="#8b949e" font-family="system-ui, -apple-system, sans-serif" font-size="11">
      113.8K
    </text>
  
    <text x="50" y="201.5" text-anchor="end"
          fill="#8b949e" font-family="system-ui, -apple-system, sans-serif" font-size="11">
      167.5K
    </text>
  
    <text x="50" y="130.25" text-anchor="end"
          fill="#8b949e" font-family="system-ui, -apple-system, sans-serif" font-size="11">
      221.2K
    </text>
  
    <text x="50" y="59" text-anchor="end"
          fill="#8b949e" font-family="system-ui, -apple-system, sans-serif" font-size="11">
      274.9K
    </text>
  

  <!-- X-axis labels -->
  
    <text x="60" y="360" text-anchor="middle"
          fill="#8b949e" font-family="system-ui, -apple-system, sans-serif" font-size="11">
      Nov 25
    </text>
  
    <text x="145.52036199095022" y="360" text-anchor="middle"
          fill="#8b949e" font-family="system-ui, -apple-system, sans-serif" font-size="11">
      Dec 22
    </text>
  
    <text x="231.04072398190044" y="360" text-anchor="middle"
          fill="#8b949e" font-family="system-ui, -apple-system, sans-serif" font-size="11">
      Jan 18
    </text>
  
    <text x="316.56108597285066" y="360" text-anchor="middle"
          fill="#8b949e" font-family="system-ui, -apple-system, sans-serif" font-size="11">
      Feb 14
    </text>
  
    <text x="402.0814479638009" y="360" text-anchor="middle"
          fill="#8b949e" font-family="system-ui, -apple-system, sans-serif" font-size="11">
      Mar 13
    </text>
  
    <text x="487.60180995475116" y="360" text-anchor="middle"
          fill="#8b949e" font-family="system-ui, -apple-system, sans-serif" font-size="11">
      Apr 9
    </text>
  
    <text x="573.1221719457013" y="360" text-anchor="middle"
          fill="#8b949e" font-family="system-ui, -apple-system, sans-serif" font-size="11">
      May 6
    </text>
  
    <text x="658.6425339366516" y="360" text-anchor="middle"
          fill="#8b949e" font-family="system-ui, -apple-system, sans-serif" font-size="11">
      Jun 2
    </text>
  
    <text x="744.1628959276018" y="360" text-anchor="middle"
          fill="#8b949e" font-family="system-ui, -apple-system, sans-serif" font-size="11">
      Jun 29
    </text>
  
    <text x="760" y="360" text-anchor="middle"
          fill="#8b949e" font-family="system-ui, -apple-system, sans-serif" font-size="11">
      Jul 4
    </text>
  

  <!-- Area under line -->
  <path d="M 60 340
    L 60.00 340.00 L 63.17 339.80 L 66.33 339.47 L 69.50 339.17 L 72.67 338.55 L 75.84 337.92 L 79.00 337.42 L 82.17 336.96 L 85.34 336.55 L 88.51 336.06 L 91.67 335.52 L 94.84 334.94 L 98.01 334.42 L 101.18 333.86 L 104.34 333.45 L 107.51 333.03 L 110.68 332.46 L 113.85 332.07 L 117.01 331.54 L 120.18 330.93 L 123.35 330.47 L 126.52 330.09 L 129.68 329.84 L 132.85 329.64 L 136.02 329.26 L 139.19 328.99 L 142.35 328.40 L 145.52 328.17 L 148.69 327.87 L 151.86 327.48 L 155.02 327.22 L 158.19 326.95 L 161.36 326.66 L 164.52 326.47 L 167.69 326.30 L 170.86 326.04 L 174.03 325.72 L 177.19 325.44 L 180.36 325.07 L 183.53 324.67 L 186.70 324.30 L 189.86 323.86 L 193.03 323.43 L 196.20 322.99 L 199.37 322.52 L 202.53 322.07 L 205.70 321.55 L 208.87 321.08 L 212.04 320.69 L 215.20 320.38 L 218.37 319.94 L 221.54 319.44 L 224.71 318.98 L 227.87 318.45 L 231.04 317.79 L 234.21 317.30 L 237.38 316.89 L 240.54 316.50 L 243.71 316.04 L 246.88 315.50 L 250.05 314.90 L 253.21 314.27 L 256.38 313.66 L 259.55 313.13 L 262.71 312.60 L 265.88 312.13 L 269.05 311.66 L 272.22 311.13 L 275.38 310.47 L 278.55 309.98 L 281.72 309.53 L 284.89 309.05 L 288.05 308.59 L 291.22 308.09 L 294.39 307.56 L 297.56 307.02 L 300.72 306.54 L 303.89 306.13 L 307.06 305.68 L 310.23 305.19 L 313.39 304.74 L 316.56 304.15 L 319.73 303.65 L 322.90 303.16 L 326.06 302.76 L 329.23 302.36 L 332.40 301.97 L 335.57 301.50 L 338.73 301.01 L 341.90 300.43 L 345.07 299.95 L 348.24 299.56 L 351.40 299.16 L 354.57 298.78 L 357.74 298.31 L 360.90 297.82 L 364.07 296.75 L 367.24 294.62 L 370.41 292.08 L 373.57 289.77 L 376.74 288.60 L 379.91 286.83 L 383.08 285.65 L 386.24 284.62 L 389.41 283.62 L 392.58 282.67 L 395.75 281.19 L 398.91 280.02 L 402.08 278.52 L 405.25 278.21 L 408.42 278.17 L 411.58 278.12 L 414.75 278.08 L 417.92 278.02 L 421.09 277.97 L 424.25 277.95 L 427.42 277.88 L 430.59 277.81 L 433.76 277.76 L 436.92 277.74 L 440.09 277.67 L 443.26 275.74 L 446.43 272.73 L 449.59 270.71 L 452.76 268.37 L 455.93 265.95 L 459.10 264.06 L 462.26 261.94 L 465.43 258.71 L 468.60 254.36 L 471.76 251.52 L 474.93 248.14 L 478.10 244.37 L 481.27 241.35 L 484.43 238.08 L 487.60 235.17 L 490.77 232.29 L 493.94 229.41 L 497.10 225.50 L 500.27 221.58 L 503.44 218.31 L 506.61 215.57 L 509.77 212.91 L 512.94 209.38 L 516.11 206.64 L 519.28 203.93 L 522.44 201.40 L 525.61 199.01 L 528.78 196.57 L 531.95 194.48 L 535.11 192.31 L 538.28 190.10 L 541.45 187.77 L 544.62 185.63 L 547.78 183.66 L 550.95 180.11 L 554.12 177.13 L 557.29 174.27 L 560.45 171.53 L 563.62 167.19 L 566.79 164.45 L 569.95 162.08 L 573.12 159.27 L 576.29 155.14 L 579.46 152.17 L 582.62 149.65 L 585.79 147.53 L 588.96 145.51 L 592.13 143.88 L 595.29 142.03 L 598.46 140.53 L 601.63 138.75 L 604.80 136.19 L 607.96 134.00 L 611.13 132.09 L 614.30 130.44 L 617.47 128.74 L 620.63 127.30 L 623.80 124.89 L 626.97 122.82 L 630.14 120.78 L 633.30 119.09 L 636.47 117.54 L 639.64 116.16 L 642.81 113.80 L 645.97 111.89 L 649.14 110.14 L 652.31 108.47 L 655.48 107.02 L 658.64 105.60 L 661.81 104.31 L 664.98 103.07 L 668.14 101.93 L 671.31 100.51 L 674.48 98.98 L 677.65 97.58 L 680.81 95.39 L 683.98 93.81 L 687.15 92.30 L 690.32 90.97 L 693.48 89.41 L 696.65 87.50 L 699.82 85.80 L 702.99 84.29 L 706.15 82.64 L 709.32 80.38 L 712.49 78.51 L 715.66 76.52 L 718.82 74.53 L 721.99 72.67 L 725.16 70.85 L 728.33 68.93 L 731.49 67.20 L 734.66 65.69 L 737.83 64.29 L 741.00 62.81 L 744.16 61.36 L 747.33 60.05 L 750.50 58.74 L 753.67 57.49 L 756.83 56.24 L 760.00 55.00
    L 760 340
    Z" fill="url(#areaGradient)" class="area-path"/>

  <!-- Main line with glow -->
  <path d="M 60.00 340.00 L 63.17 339.80 L 66.33 339.47 L 69.50 339.17 L 72.67 338.55 L 75.84 337.92 L 79.00 337.42 L 82.17 336.96 L 85.34 336.55 L 88.51 336.06 L 91.67 335.52 L 94.84 334.94 L 98.01 334.42 L 101.18 333.86 L 104.34 333.45 L 107.51 333.03 L 110.68 332.46 L 113.85 332.07 L 117.01 331.54 L 120.18 330.93 L 123.35 330.47 L 126.52 330.09 L 129.68 329.84 L 132.85 329.64 L 136.02 329.26 L 139.19 328.99 L 142.35 328.40 L 145.52 328.17 L 148.69 327.87 L 151.86 327.48 L 155.02 327.22 L 158.19 326.95 L 161.36 326.66 L 164.52 326.47 L 167.69 326.30 L 170.86 326.04 L 174.03 325.72 L 177.19 325.44 L 180.36 325.07 L 183.53 324.67 L 186.70 324.30 L 189.86 323.86 L 193.03 323.43 L 196.20 322.99 L 199.37 322.52 L 202.53 322.07 L 205.70 321.55 L 208.87 321.08 L 212.04 320.69 L 215.20 320.38 L 218.37 319.94 L 221.54 319.44 L 224.71 318.98 L 227.87 318.45 L 231.04 317.79 L 234.21 317.30 L 237.38 316.89 L 240.54 316.50 L 243.71 316.04 L 246.88 315.50 L 250.05 314.90 L 253.21 314.27 L 256.38 313.66 L 259.55 313.13 L 262.71 312.60 L 265.88 312.13 L 269.05 311.66 L 272.22 311.13 L 275.38 310.47 L 278.55 309.98 L 281.72 309.53 L 284.89 309.05 L 288.05 308.59 L 291.22 308.09 L 294.39 307.56 L 297.56 307.02 L 300.72 306.54 L 303.89 306.13 L 307.06 305.68 L 310.23 305.19 L 313.39 304.74 L 316.56 304.15 L 319.73 303.65 L 322.90 303.16 L 326.06 302.76 L 329.23 302.36 L 332.40 301.97 L 335.57 301.50 L 338.73 301.01 L 341.90 300.43 L 345.07 299.95 L 348.24 299.56 L 351.40 299.16 L 354.57 298.78 L 357.74 298.31 L 360.90 297.82 L 364.07 296.75 L 367.24 294.62 L 370.41 292.08 L 373.57 289.77 L 376.74 288.60 L 379.91 286.83 L 383.08 285.65 L 386.24 284.62 L 389.41 283.62 L 392.58 282.67 L 395.75 281.19 L 398.91 280.02 L 402.08 278.52 L 405.25 278.21 L 408.42 278.17 L 411.58 278.12 L 414.75 278.08 L 417.92 278.02 L 421.09 277.97 L 424.25 277.95 L 427.42 277.88 L 430.59 277.81 L 433.76 277.76 L 436.92 277.74 L 440.09 277.67 L 443.26 275.74 L 446.43 272.73 L 449.59 270.71 L 452.76 268.37 L 455.93 265.95 L 459.10 264.06 L 462.26 261.94 L 465.43 258.71 L 468.60 254.36 L 471.76 251.52 L 474.93 248.14 L 478.10 244.37 L 481.27 241.35 L 484.43 238.08 L 487.60 235.17 L 490.77 232.29 L 493.94 229.41 L 497.10 225.50 L 500.27 221.58 L 503.44 218.31 L 506.61 215.57 L 509.77 212.91 L 512.94 209.38 L 516.11 206.64 L 519.28 203.93 L 522.44 201.40 L 525.61 199.01 L 528.78 196.57 L 531.95 194.48 L 535.11 192.31 L 538.28 190.10 L 541.45 187.77 L 544.62 185.63 L 547.78 183.66 L 550.95 180.11 L 554.12 177.13 L 557.29 174.27 L 560.45 171.53 L 563.62 167.19 L 566.79 164.45 L 569.95 162.08 L 573.12 159.27 L 576.29 155.14 L 579.46 152.17 L 582.62 149.65 L 585.79 147.53 L 588.96 145.51 L 592.13 143.88 L 595.29 142.03 L 598.46 140.53 L 601.63 138.75 L 604.80 136.19 L 607.96 134.00 L 611.13 132.09 L 614.30 130.44 L 617.47 128.74 L 620.63 127.30 L 623.80 124.89 L 626.97 122.82 L 630.14 120.78 L 633.30 119.09 L 636.47 117.54 L 639.64 116.16 L 642.81 113.80 L 645.97 111.89 L 649.14 110.14 L 652.31 108.47 L 655.48 107.02 L 658.64 105.60 L 661.81 104.31 L 664.98 103.07 L 668.14 101.93 L 671.31 100.51 L 674.48 98.98 L 677.65 97.58 L 680.81 95.39 L 683.98 93.81 L 687.15 92.30 L 690.32 90.97 L 693.48 89.41 L 696.65 87.50 L 699.82 85.80 L 702.99 84.29 L 706.15 82.64 L 709.32 80.38 L 712.49 78.51 L 715.66 76.52 L 718.82 74.53 L 721.99 72.67 L 725.16 70.85 L 728.33 68.93 L 731.49 67.20 L 734.66 65.69 L 737.83 64.29 L 741.00 62.81 L 744.16 61.36 L 747.33 60.05 L 750.50 58.74 L 753.67 57.49 L 756.83 56.24 L 760.00 55.00" fill="none" stroke="#3b82f6" stroke-width="3"
        stroke-linecap="round" stroke-linejoin="round" filter="url(#glow)" class="line-path"/>

  <!-- Data points -->
  
    <circle cx="60" cy="340" r="4" fill="#3b82f6" stroke="#0d1117" stroke-width="2" class="data-point"/>
  
    <circle cx="63.16742081447964" cy="339.80493993854174" r="4" fill="#3b82f6" stroke="#0d1117" stroke-width="2" class="data-point"/>
  
    <circle cx="66.33484162895928" cy="339.4732051401434" r="4" fill="#3b82f6" stroke="#0d1117" stroke-width="2" class="data-point"/>
  
    <circle cx="69.50226244343891" cy="339.16535524722974" r="4" fill="#3b82f6" stroke="#0d1117" stroke-width="2" class="data-point"/>
  
    <circle cx="72.66968325791855" cy="338.55363627898316" r="4" fill="#3b82f6" stroke="#0d1117" stroke-width="2" class="data-point"/>
  
    <circle cx="75.83710407239819" cy="337.9220132228327" r="4" fill="#3b82f6" stroke="#0d1117" stroke-width="2" class="data-point"/>
  
    <circle cx="79.00452488687783" cy="337.42441102523514" r="4" fill="#3b82f6" stroke="#0d1117" stroke-width="2" class="data-point"/>
  
    <circle cx="82.17194570135746" cy="336.95998230747745" r="4" fill="#3b82f6" stroke="#0d1117" stroke-width="2" class="data-point"/>
  
    <circle cx="85.3393665158371" cy="336.54730421826986" r="4" fill="#3b82f6" stroke="#0d1117" stroke-width="2" class="data-point"/>
  
    <circle cx="88.50678733031674" cy="336.06297141260825" r="4" fill="#3b82f6" stroke="#0d1117" stroke-width="2" class="data-point"/>
  
    <circle cx="91.67420814479638" cy="335.5229071608157" r="4" fill="#3b82f6" stroke="#0d1117" stroke-width="2" class="data-point"/>
  
    <circle cx="94.84162895927602" cy="334.944361672409" r="4" fill="#3b82f6" stroke="#0d1117" stroke-width="2" class="data-point"/>
  
    <circle cx="98.00904977375566" cy="334.418893751746" r="4" fill="#3b82f6" stroke="#0d1117" stroke-width="2" class="data-point"/>
  
    <circle cx="101.1764705882353" cy="333.86025235124316" r="4" fill="#3b82f6" stroke="#0d1117" stroke-width="2" class="data-point"/>
  
    <circle cx="104.34389140271493" cy="333.45288201880993" r="4" fill="#3b82f6" stroke="#0d1117" stroke-width="2" class="data-point"/>
  
    <circle cx="107.51131221719456" cy="333.0309153552472" r="4" fill="#3b82f6" stroke="#0d1117" stroke-width="2" class="data-point"/>
  
    <circle cx="110.67873303167421" cy="332.45767762361487" r="4" fill="#3b82f6" stroke="#0d1117" stroke-width="2" class="data-point"/>
  
    <circle cx="113.84615384615384" cy="332.07419219666633" r="4" fill="#3b82f6" stroke="#0d1117" stroke-width="2" class="data-point"/>
  
    <circle cx="117.01357466063348" cy="331.54341651922897" r="4" fill="#3b82f6" stroke="#0d1117" stroke-width="2" class="data-point"/>
  
    <circle cx="120.18099547511312" cy="330.9303706117888" r="4" fill="#3b82f6" stroke="#0d1117" stroke-width="2" class="data-point"/>
  
    <circle cx="123.34841628959276" cy="330.46859577241827" r="4" fill="#3b82f6" stroke="#0d1117" stroke-width="2" class="data-point"/>
  
    <circle cx="126.51583710407239" cy="330.08909116305057" r="4" fill="#3b82f6" stroke="#0d1117" stroke-width="2" class="data-point"/>
  
    <circle cx="129.68325791855204" cy="329.84360741223577" r="4" fill="#3b82f6" stroke="#0d1117" stroke-width="2" class="data-point"/>
  
    <circle cx="132.85067873303166" cy="329.63925877642237" r="4" fill="#3b82f6" stroke="#0d1117" stroke-width="2" class="data-point"/>
  
    <circle cx="136.01809954751133" cy="329.26108110624824" r="4" fill="#3b82f6" stroke="#0d1117" stroke-width="2" class="data-point"/>
  
    <circle cx="139.18552036199094" cy="328.9917124499488" r="4" fill="#3b82f6" stroke="#0d1117" stroke-width="2" class="data-point"/>
  
    <circle cx="142.3529411764706" cy="328.4012245087997" r="4" fill="#3b82f6" stroke="#0d1117" stroke-width="2" class="data-point"/>
  
    <circle cx="145.52036199095022" cy="328.16901014992084" r="4" fill="#3b82f6" stroke="#0d1117" stroke-width="2" class="data-point"/>
  
    <circle cx="148.68778280542986" cy="327.8691218921687" r="4" fill="#3b82f6" stroke="#0d1117" stroke-width="2" class="data-point"/>
  
    <circle cx="151.8552036199095" cy="327.48165564763946" r="4" fill="#3b82f6" stroke="#0d1117" stroke-width="2" class="data-point"/>
  
    <circle cx="155.02262443438912" cy="327.21626780892075" r="4" fill="#3b82f6" stroke="#0d1117" stroke-width="2" class="data-point"/>
  
    <circle cx="158.19004524886878" cy="326.9468991526213" r="4" fill="#3b82f6" stroke="#0d1117" stroke-width="2" class="data-point"/>
  
    <circle cx="161.35746606334843" cy="326.6642611043859" r="4" fill="#3b82f6" stroke="#0d1117" stroke-width="2" class="data-point"/>
  
    <circle cx="164.52488687782807" cy="326.46787410373406" r="4" fill="#3b82f6" stroke="#0d1117" stroke-width="2" class="data-point"/>
  
    <circle cx="167.69230769230768" cy="326.29802588695406" r="4" fill="#3b82f6" stroke="#0d1117" stroke-width="2" class="data-point"/>
  
    <circle cx="170.85972850678732" cy="326.03927274420334" r="4" fill="#3b82f6" stroke="#0d1117" stroke-width="2" class="data-point"/>
  
    <circle cx="174.02714932126696" cy="325.72478815532173" r="4" fill="#3b82f6" stroke="#0d1117" stroke-width="2" class="data-point"/>
  
    <circle cx="177.1945701357466" cy="325.43551541111833" r="4" fill="#3b82f6" stroke="#0d1117" stroke-width="2" class="data-point"/>
  
    <circle cx="180.36199095022624" cy="325.06928019368655" r="4" fill="#3b82f6" stroke="#0d1117" stroke-width="2" class="data-point"/>
  
    <circle cx="183.52941176470588" cy="324.66987149641494" r="4" fill="#3b82f6" stroke="#0d1117" stroke-width="2" class="data-point"/>
  
    <circle cx="186.69683257918552" cy="324.30363627898316" r="4" fill="#3b82f6" stroke="#0d1117" stroke-width="2" class="data-point"/>
  
    <circle cx="189.86425339366517" cy="323.8617655275165" r="4" fill="#3b82f6" stroke="#0d1117" stroke-width="2" class="data-point"/>
  
    <circle cx="193.03167420814478" cy="323.42785641121145" r="4" fill="#3b82f6" stroke="#0d1117" stroke-width="2" class="data-point"/>
  
    <circle cx="196.19909502262445" cy="322.99394729490643" r="4" fill="#3b82f6" stroke="#0d1117" stroke-width="2" class="data-point"/>
  
    <circle cx="199.36651583710406" cy="322.51890306359996" r="4" fill="#3b82f6" stroke="#0d1117" stroke-width="2" class="data-point"/>
  
    <circle cx="202.5339366515837" cy="322.065089859391" r="4" fill="#3b82f6" stroke="#0d1117" stroke-width="2" class="data-point"/>
  
    <circle cx="205.70135746606334" cy="321.54625663469596" r="4" fill="#3b82f6" stroke="#0d1117" stroke-width="2" class="data-point"/>
  
    <circle cx="208.86877828054298" cy="321.08315485613184" r="4" fill="#3b82f6" stroke="#0d1117" stroke-width="2" class="data-point"/>
  
    <circle cx="212.03619909502262" cy="320.6917077940218" r="4" fill="#3b82f6" stroke="#0d1117" stroke-width="2" class="data-point"/>
  
    <circle cx="215.20361990950227" cy="320.37855014433376" r="4" fill="#3b82f6" stroke="#0d1117" stroke-width="2" class="data-point"/>
  
    <circle cx="218.3710407239819" cy="319.9406602104479" r="4" fill="#3b82f6" stroke="#0d1117" stroke-width="2" class="data-point"/>
  
    <circle cx="221.53846153846155" cy="319.44040413446317" r="4" fill="#3b82f6" stroke="#0d1117" stroke-width="2" class="data-point"/>
  
    <circle cx="224.7058823529412" cy="318.98261011267346" r="4" fill="#3b82f6" stroke="#0d1117" stroke-width="2" class="data-point"/>
  
    <circle cx="227.87330316742083" cy="318.44785361765526" r="4" fill="#3b82f6" stroke="#0d1117" stroke-width="2" class="data-point"/>
  
    <circle cx="231.04072398190044" cy="317.78836483843935" r="4" fill="#3b82f6" stroke="#0d1117" stroke-width="2" class="data-point"/>
  
    <circle cx="234.20814479638008" cy="317.29739733680975" r="4" fill="#3b82f6" stroke="#0d1117" stroke-width="2" class="data-point"/>
  
    <circle cx="237.37556561085972" cy="316.8900270043766" r="4" fill="#3b82f6" stroke="#0d1117" stroke-width="2" class="data-point"/>
  
    <circle cx="240.5429864253394" cy="316.50256075984726" r="4" fill="#3b82f6" stroke="#0d1117" stroke-width="2" class="data-point"/>
  
    <circle cx="243.710407239819" cy="316.036805102896" r="4" fill="#3b82f6" stroke="#0d1117" stroke-width="2" class="data-point"/>
  
    <circle cx="246.87782805429865" cy="315.49541391190985" r="4" fill="#3b82f6" stroke="#0d1117" stroke-width="2" class="data-point"/>
  
    <circle cx="250.04524886877826" cy="314.8956373964056" r="4" fill="#3b82f6" stroke="#0d1117" stroke-width="2" class="data-point"/>
  
    <circle cx="253.21266968325793" cy="314.26534127944876" r="4" fill="#3b82f6" stroke="#0d1117" stroke-width="2" class="data-point"/>
  
    <circle cx="256.38009049773757" cy="313.6602570071701" r="4" fill="#3b82f6" stroke="#0d1117" stroke-width="2" class="data-point"/>
  
    <circle cx="259.5475113122172" cy="313.1281543905392" r="4" fill="#3b82f6" stroke="#0d1117" stroke-width="2" class="data-point"/>
  
    <circle cx="262.71493212669685" cy="312.60003259148897" r="4" fill="#3b82f6" stroke="#0d1117" stroke-width="2" class="data-point"/>
  
    <circle cx="265.88235294117646" cy="312.13427693453764" r="4" fill="#3b82f6" stroke="#0d1117" stroke-width="2" class="data-point"/>
  
    <circle cx="269.04977375565613" cy="311.6592327032312" r="4" fill="#3b82f6" stroke="#0d1117" stroke-width="2" class="data-point"/>
  
    <circle cx="272.2171945701357" cy="311.12845702579386" r="4" fill="#3b82f6" stroke="#0d1117" stroke-width="2" class="data-point"/>
  
    <circle cx="275.38461538461536" cy="310.46764130738427" r="4" fill="#3b82f6" stroke="#0d1117" stroke-width="2" class="data-point"/>
  
    <circle cx="278.552036199095" cy="309.97534686656115" r="4" fill="#3b82f6" stroke="#0d1117" stroke-width="2" class="data-point"/>
  
    <circle cx="281.71945701357464" cy="309.5348030542881" r="4" fill="#3b82f6" stroke="#0d1117" stroke-width="2" class="data-point"/>
  
    <circle cx="284.8868778280543" cy="309.0451624918521" r="4" fill="#3b82f6" stroke="#0d1117" stroke-width="2" class="data-point"/>
  
    <circle cx="288.0542986425339" cy="308.588695409256" r="4" fill="#3b82f6" stroke="#0d1117" stroke-width="2" class="data-point"/>
  
    <circle cx="291.2217194570136" cy="308.0871123940777" r="4" fill="#3b82f6" stroke="#0d1117" stroke-width="2" class="data-point"/>
  
    <circle cx="294.3891402714932" cy="307.5642983518018" r="4" fill="#3b82f6" stroke="#0d1117" stroke-width="2" class="data-point"/>
  
    <circle cx="297.5565610859729" cy="307.01759940404133" r="4" fill="#3b82f6" stroke="#0d1117" stroke-width="2" class="data-point"/>
  
    <circle cx="300.7239819004525" cy="306.5385743551541" r="4" fill="#3b82f6" stroke="#0d1117" stroke-width="2" class="data-point"/>
  
    <circle cx="303.89140271493216" cy="306.12855014433376" r="4" fill="#3b82f6" stroke="#0d1117" stroke-width="2" class="data-point"/>
  
    <circle cx="307.05882352941177" cy="305.67871775770556" r="4" fill="#3b82f6" stroke="#0d1117" stroke-width="2" class="data-point"/>
  
    <circle cx="310.2262443438914" cy="305.19173107365674" r="4" fill="#3b82f6" stroke="#0d1117" stroke-width="2" class="data-point"/>
  
    <circle cx="313.39366515837105" cy="304.740571747835" r="4" fill="#3b82f6" stroke="#0d1117" stroke-width="2" class="data-point"/>
  
    <circle cx="316.56108597285066" cy="304.1527376850731" r="4" fill="#3b82f6" stroke="#0d1117" stroke-width="2" class="data-point"/>
  
    <circle cx="319.72850678733033" cy="303.647173852314" r="4" fill="#3b82f6" stroke="#0d1117" stroke-width="2" class="data-point"/>
  
    <circle cx="322.89592760180994" cy="303.1601871682652" r="4" fill="#3b82f6" stroke="#0d1117" stroke-width="2" class="data-point"/>
  
    <circle cx="326.06334841628956" cy="302.7554707142192" r="4" fill="#3b82f6" stroke="#0d1117" stroke-width="2" class="data-point"/>
  
    <circle cx="329.2307692307692" cy="302.3626967129155" r="4" fill="#3b82f6" stroke="#0d1117" stroke-width="2" class="data-point"/>
  
    <circle cx="332.3981900452489" cy="301.96859577241827" r="4" fill="#3b82f6" stroke="#0d1117" stroke-width="2" class="data-point"/>
  
    <circle cx="335.5656108597285" cy="301.49753235869264" r="4" fill="#3b82f6" stroke="#0d1117" stroke-width="2" class="data-point"/>
  
    <circle cx="338.7330316742081" cy="301.01319955303103" r="4" fill="#3b82f6" stroke="#0d1117" stroke-width="2" class="data-point"/>
  
    <circle cx="341.9004524886878" cy="300.4253654902691" r="4" fill="#3b82f6" stroke="#0d1117" stroke-width="2" class="data-point"/>
  
    <circle cx="345.0678733031674" cy="299.94899431976904" r="4" fill="#3b82f6" stroke="#0d1117" stroke-width="2" class="data-point"/>
  
    <circle cx="348.2352941176471" cy="299.5602011360462" r="4" fill="#3b82f6" stroke="#0d1117" stroke-width="2" class="data-point"/>
  
    <circle cx="351.4027149321267" cy="299.16079243877454" r="4" fill="#3b82f6" stroke="#0d1117" stroke-width="2" class="data-point"/>
  
    <circle cx="354.57013574660635" cy="298.77863395101963" r="4" fill="#3b82f6" stroke="#0d1117" stroke-width="2" class="data-point"/>
  
    <circle cx="357.73755656108597" cy="298.30624359810037" r="4" fill="#3b82f6" stroke="#0d1117" stroke-width="2" class="data-point"/>
  
    <circle cx="360.90497737556564" cy="297.82191079243876" r="4" fill="#3b82f6" stroke="#0d1117" stroke-width="2" class="data-point"/>
  
    <circle cx="364.07239819004525" cy="296.75107086320884" r="4" fill="#3b82f6" stroke="#0d1117" stroke-width="2" class="data-point"/>
  
    <circle cx="367.23981900452486" cy="294.62000651829777" r="4" fill="#3b82f6" stroke="#0d1117" stroke-width="2" class="data-point"/>
  
    <circle cx="370.40723981900453" cy="292.08157184095353" r="4" fill="#3b82f6" stroke="#0d1117" stroke-width="2" class="data-point"/>
  
    <circle cx="373.5746606334842" cy="289.7687168265202" r="4" fill="#3b82f6" stroke="#0d1117" stroke-width="2" class="data-point"/>
  
    <circle cx="376.7420814479638" cy="288.59570257938356" r="4" fill="#3b82f6" stroke="#0d1117" stroke-width="2" class="data-point"/>
  
    <circle cx="379.9095022624434" cy="286.82821957351706" r="4" fill="#3b82f6" stroke="#0d1117" stroke-width="2" class="data-point"/>
  
    <circle cx="383.0769230769231" cy="285.65387838718686" r="4" fill="#3b82f6" stroke="#0d1117" stroke-width="2" class="data-point"/>
  
    <circle cx="386.2443438914027" cy="284.6241735729584" r="4" fill="#3b82f6" stroke="#0d1117" stroke-width="2" class="data-point"/>
  
    <circle cx="389.4117647058824" cy="283.61702672502093" r="4" fill="#3b82f6" stroke="#0d1117" stroke-width="2" class="data-point"/>
  
    <circle cx="392.579185520362" cy="282.6682652016016" r="4" fill="#3b82f6" stroke="#0d1117" stroke-width="2" class="data-point"/>
  
    <circle cx="395.74660633484166" cy="281.19270881832574" r="4" fill="#3b82f6" stroke="#0d1117" stroke-width="2" class="data-point"/>
  
    <circle cx="398.91402714932127" cy="280.0196945711891" r="4" fill="#3b82f6" stroke="#0d1117" stroke-width="2" class="data-point"/>
  
    <circle cx="402.0814479638009" cy="278.52025328242854" r="4" fill="#3b82f6" stroke="#0d1117" stroke-width="2" class="data-point"/>
  
    <circle cx="405.24886877828055" cy="278.21373032870844" r="4" fill="#3b82f6" stroke="#0d1117" stroke-width="2" class="data-point"/>
  
    <circle cx="408.41628959276017" cy="278.1739221529007" r="4" fill="#3b82f6" stroke="#0d1117" stroke-width="2" class="data-point"/>
  
    <circle cx="411.58371040723983" cy="278.1221715243505" r="4" fill="#3b82f6" stroke="#0d1117" stroke-width="2" class="data-point"/>
  
    <circle cx="414.75113122171945" cy="278.0783825309619" r="4" fill="#3b82f6" stroke="#0d1117" stroke-width="2" class="data-point"/>
  
    <circle cx="417.91855203619906" cy="278.0213241456374" r="4" fill="#3b82f6" stroke="#0d1117" stroke-width="2" class="data-point"/>
  
    <circle cx="421.0859728506788" cy="277.97090045628084" r="4" fill="#3b82f6" stroke="#0d1117" stroke-width="2" class="data-point"/>
  
    <circle cx="424.2533936651584" cy="277.95099636837693" r="4" fill="#3b82f6" stroke="#0d1117" stroke-width="2" class="data-point"/>
  
    <circle cx="427.420814479638" cy="277.8780147127293" r="4" fill="#3b82f6" stroke="#0d1117" stroke-width="2" class="data-point"/>
  
    <circle cx="430.5882352941176" cy="277.80768693546884" r="4" fill="#3b82f6" stroke="#0d1117" stroke-width="2" class="data-point"/>
  
    <circle cx="433.7556561085973" cy="277.7612440636931" r="4" fill="#3b82f6" stroke="#0d1117" stroke-width="2" class="data-point"/>
  
    <circle cx="436.9230769230769" cy="277.7439938541764" r="4" fill="#3b82f6" stroke="#0d1117" stroke-width="2" class="data-point"/>
  
    <circle cx="440.0904977375565" cy="277.6657044417544" r="4" fill="#3b82f6" stroke="#0d1117" stroke-width="2" class="data-point"/>
  
    <circle cx="443.25791855203624" cy="275.74164261104386" r="4" fill="#3b82f6" stroke="#0d1117" stroke-width="2" class="data-point"/>
  
    <circle cx="446.42533936651586" cy="272.72816370239315" r="4" fill="#3b82f6" stroke="#0d1117" stroke-width="2" class="data-point"/>
  
    <circle cx="449.59276018099547" cy="270.7098891889375" r="4" fill="#3b82f6" stroke="#0d1117" stroke-width="2" class="data-point"/>
  
    <circle cx="452.76018099547514" cy="268.3665145730515" r="4" fill="#3b82f6" stroke="#0d1117" stroke-width="2" class="data-point"/>
  
    <circle cx="455.92760180995475" cy="265.9514852407114" r="4" fill="#3b82f6" stroke="#0d1117" stroke-width="2" class="data-point"/>
  
    <circle cx="459.09502262443436" cy="264.05661607226" r="4" fill="#3b82f6" stroke="#0d1117" stroke-width="2" class="data-point"/>
  
    <circle cx="462.262443438914" cy="261.9374941800913" r="4" fill="#3b82f6" stroke="#0d1117" stroke-width="2" class="data-point"/>
  
    <circle cx="465.4298642533937" cy="258.7090511220784" r="4" fill="#3b82f6" stroke="#0d1117" stroke-width="2" class="data-point"/>
  
    <circle cx="468.5972850678733" cy="254.3580175062855" r="4" fill="#3b82f6" stroke="#0d1117" stroke-width="2" class="data-point"/>
  
    <circle cx="471.7647058823529" cy="251.51836763199555" r="4" fill="#3b82f6" stroke="#0d1117" stroke-width="2" class="data-point"/>
  
    <circle cx="474.9321266968326" cy="248.13865350591303" r="4" fill="#3b82f6" stroke="#0d1117" stroke-width="2" class="data-point"/>
  
    <circle cx="478.0995475113122" cy="244.37280007449482" r="4" fill="#3b82f6" stroke="#0d1117" stroke-width="2" class="data-point"/>
  
    <circle cx="481.2669683257918" cy="241.35268646987615" r="4" fill="#3b82f6" stroke="#0d1117" stroke-width="2" class="data-point"/>
  
    <circle cx="484.43438914027143" cy="238.07514666170033" r="4" fill="#3b82f6" stroke="#0d1117" stroke-width="2" class="data-point"/>
  
    <circle cx="487.60180995475116" cy="235.1678228885371" r="4" fill="#3b82f6" stroke="#0d1117" stroke-width="2" class="data-point"/>
  
    <circle cx="490.7692307692308" cy="232.28703789924575" r="4" fill="#3b82f6" stroke="#0d1117" stroke-width="2" class="data-point"/>
  
    <circle cx="493.93665158371044" cy="229.41421454511593" r="4" fill="#3b82f6" stroke="#0d1117" stroke-width="2" class="data-point"/>
  
    <circle cx="497.10407239819006" cy="225.50239780240247" r="4" fill="#3b82f6" stroke="#0d1117" stroke-width="2" class="data-point"/>
  
    <circle cx="500.27149321266967" cy="221.57863860694664" r="4" fill="#3b82f6" stroke="#0d1117" stroke-width="2" class="data-point"/>
  
    <circle cx="503.4389140271493" cy="218.30773349473878" r="4" fill="#3b82f6" stroke="#0d1117" stroke-width="2" class="data-point"/>
  
    <circle cx="506.60633484162895" cy="215.56627712077474" r="4" fill="#3b82f6" stroke="#0d1117" stroke-width="2" class="data-point"/>
  
    <circle cx="509.7737556561086" cy="212.9070909768135" r="4" fill="#3b82f6" stroke="#0d1117" stroke-width="2" class="data-point"/>
  
    <circle cx="512.9411764705883" cy="209.37743272185492" r="4" fill="#3b82f6" stroke="#0d1117" stroke-width="2" class="data-point"/>
  
    <circle cx="516.1085972850678" cy="206.63995716547166" r="4" fill="#3b82f6" stroke="#0d1117" stroke-width="2" class="data-point"/>
  
    <circle cx="519.2760180995475" cy="203.93167427134742" r="4" fill="#3b82f6" stroke="#0d1117" stroke-width="2" class="data-point"/>
  
    <circle cx="522.4434389140272" cy="201.39854735077753" r="4" fill="#3b82f6" stroke="#0d1117" stroke-width="2" class="data-point"/>
  
    <circle cx="525.6108597285067" cy="199.01271068069653" r="4" fill="#3b82f6" stroke="#0d1117" stroke-width="2" class="data-point"/>
  
    <circle cx="528.7782805429864" cy="196.5684886860974" r="4" fill="#3b82f6" stroke="#0d1117" stroke-width="2" class="data-point"/>
  
    <circle cx="531.9457013574661" cy="194.47855945618772" r="4" fill="#3b82f6" stroke="#0d1117" stroke-width="2" class="data-point"/>
  
    <circle cx="535.1131221719457" cy="192.3143216314368" r="4" fill="#3b82f6" stroke="#0d1117" stroke-width="2" class="data-point"/>
  
    <circle cx="538.2805429864254" cy="190.10496787410375" r="4" fill="#3b82f6" stroke="#0d1117" stroke-width="2" class="data-point"/>
  
    <circle cx="541.447963800905" cy="187.76955489337928" r="4" fill="#3b82f6" stroke="#0d1117" stroke-width="2" class="data-point"/>
  
    <circle cx="544.6153846153845" cy="185.62654809572584" r="4" fill="#3b82f6" stroke="#0d1117" stroke-width="2" class="data-point"/>
  
    <circle cx="547.7828054298643" cy="183.66400502840116" r="4" fill="#3b82f6" stroke="#0d1117" stroke-width="2" class="data-point"/>
  
    <circle cx="550.9502262443439" cy="180.10780798957072" r="4" fill="#3b82f6" stroke="#0d1117" stroke-width="2" class="data-point"/>
  
    <circle cx="554.1176470588235" cy="177.13148337834065" r="4" fill="#3b82f6" stroke="#0d1117" stroke-width="2" class="data-point"/>
  
    <circle cx="557.2850678733032" cy="174.27325635534032" r="4" fill="#3b82f6" stroke="#0d1117" stroke-width="2" class="data-point"/>
  
    <circle cx="560.4524886877828" cy="171.5278191637955" r="4" fill="#3b82f6" stroke="#0d1117" stroke-width="2" class="data-point"/>
  
    <circle cx="563.6199095022624" cy="167.1927088183257" r="4" fill="#3b82f6" stroke="#0d1117" stroke-width="2" class="data-point"/>
  
    <circle cx="566.7873303167421" cy="164.44992550516807" r="4" fill="#3b82f6" stroke="#0d1117" stroke-width="2" class="data-point"/>
  
    <circle cx="569.9547511312217" cy="162.07603128782938" r="4" fill="#3b82f6" stroke="#0d1117" stroke-width="2" class="data-point"/>
  
    <circle cx="573.1221719457013" cy="159.27220877176646" r="4" fill="#3b82f6" stroke="#0d1117" stroke-width="2" class="data-point"/>
  
    <circle cx="576.289592760181" cy="155.13879318372287" r="4" fill="#3b82f6" stroke="#0d1117" stroke-width="2" class="data-point"/>
  
    <circle cx="579.4570135746607" cy="152.16512245087995" r="4" fill="#3b82f6" stroke="#0d1117" stroke-width="2" class="data-point"/>
  
    <circle cx="582.6244343891403" cy="149.65455349660118" r="4" fill="#3b82f6" stroke="#0d1117" stroke-width="2" class="data-point"/>
  
    <circle cx="585.7918552036199" cy="147.53012384765807" r="4" fill="#3b82f6" stroke="#0d1117" stroke-width="2" class="data-point"/>
  
    <circle cx="588.9592760180996" cy="145.5145032125896" r="4" fill="#3b82f6" stroke="#0d1117" stroke-width="2" class="data-point"/>
  
    <circle cx="592.1266968325791" cy="143.8757333085017" r="4" fill="#3b82f6" stroke="#0d1117" stroke-width="2" class="data-point"/>
  
    <circle cx="595.2941176470588" cy="142.02996089021326" r="4" fill="#3b82f6" stroke="#0d1117" stroke-width="2" class="data-point"/>
  
    <circle cx="598.4615384615385" cy="140.52521184467827" r="4" fill="#3b82f6" stroke="#0d1117" stroke-width="2" class="data-point"/>
  
    <circle cx="601.6289592760181" cy="138.74976720365024" r="4" fill="#3b82f6" stroke="#0d1117" stroke-width="2" class="data-point"/>
  
    <circle cx="604.7963800904978" cy="136.19408231678926" r="4" fill="#3b82f6" stroke="#0d1117" stroke-width="2" class="data-point"/>
  
    <circle cx="607.9638009049773" cy="133.9979979513921" r="4" fill="#3b82f6" stroke="#0d1117" stroke-width="2" class="data-point"/>
  
    <circle cx="611.131221719457" cy="132.08853245181118" r="4" fill="#3b82f6" stroke="#0d1117" stroke-width="2" class="data-point"/>
  
    <circle cx="614.2986425339366" cy="130.4378200949809" r="4" fill="#3b82f6" stroke="#0d1117" stroke-width="2" class="data-point"/>
  
    <circle cx="617.4660633484162" cy="128.73535710960053" r="4" fill="#3b82f6" stroke="#0d1117" stroke-width="2" class="data-point"/>
  
    <circle cx="620.6334841628959" cy="127.29960890213243" r="4" fill="#3b82f6" stroke="#0d1117" stroke-width="2" class="data-point"/>
  
    <circle cx="623.8009049773756" cy="124.88590650898595" r="4" fill="#3b82f6" stroke="#0d1117" stroke-width="2" class="data-point"/>
  
    <circle cx="626.9683257918552" cy="122.82251606294813" r="4" fill="#3b82f6" stroke="#0d1117" stroke-width="2" class="data-point"/>
  
    <circle cx="630.1357466063348" cy="120.77637582642703" r="4" fill="#3b82f6" stroke="#0d1117" stroke-width="2" class="data-point"/>
  
    <circle cx="633.3031674208145" cy="119.0871822329826" r="4" fill="#3b82f6" stroke="#0d1117" stroke-width="2" class="data-point"/>
  
    <circle cx="636.4705882352941" cy="117.53731725486546" r="4" fill="#3b82f6" stroke="#0d1117" stroke-width="2" class="data-point"/>
  
    <circle cx="639.6380090497737" cy="116.16128131110904" r="4" fill="#3b82f6" stroke="#0d1117" stroke-width="2" class="data-point"/>
  
    <circle cx="642.8054298642534" cy="113.8019834248999" r="4" fill="#3b82f6" stroke="#0d1117" stroke-width="2" class="data-point"/>
  
    <circle cx="645.972850678733" cy="111.88588322935095" r="4" fill="#3b82f6" stroke="#0d1117" stroke-width="2" class="data-point"/>
  
    <circle cx="649.1402714932127" cy="110.139631250582" r="4" fill="#3b82f6" stroke="#0d1117" stroke-width="2" class="data-point"/>
  
    <circle cx="652.3076923076923" cy="108.47166868423503" r="4" fill="#3b82f6" stroke="#0d1117" stroke-width="2" class="data-point"/>
  
    <circle cx="655.4751131221719" cy="107.01601638886302" r="4" fill="#3b82f6" stroke="#0d1117" stroke-width="2" class="data-point"/>
  
    <circle cx="658.6425339366516" cy="105.60282614768602" r="4" fill="#3b82f6" stroke="#0d1117" stroke-width="2" class="data-point"/>
  
    <circle cx="661.8099547511313" cy="104.30773349473878" r="4" fill="#3b82f6" stroke="#0d1117" stroke-width="2" class="data-point"/>
  
    <circle cx="664.9773755656109" cy="103.06571840953535" r="4" fill="#3b82f6" stroke="#0d1117" stroke-width="2" class="data-point"/>
  
    <circle cx="668.1447963800905" cy="101.92720458143216" r="4" fill="#3b82f6" stroke="#0d1117" stroke-width="2" class="data-point"/>
  
    <circle cx="671.3122171945702" cy="100.50605270509357" r="4" fill="#3b82f6" stroke="#0d1117" stroke-width="2" class="data-point"/>
  
    <circle cx="674.4796380090497" cy="98.98007263246114" r="4" fill="#3b82f6" stroke="#0d1117" stroke-width="2" class="data-point"/>
  
    <circle cx="677.6470588235294" cy="97.57617096563925" r="4" fill="#3b82f6" stroke="#0d1117" stroke-width="2" class="data-point"/>
  
    <circle cx="680.8144796380091" cy="95.39468293137165" r="4" fill="#3b82f6" stroke="#0d1117" stroke-width="2" class="data-point"/>
  
    <circle cx="683.9819004524887" cy="93.81164447341465" r="4" fill="#3b82f6" stroke="#0d1117" stroke-width="2" class="data-point"/>
  
    <circle cx="687.1493212669684" cy="92.29760685352454" r="4" fill="#3b82f6" stroke="#0d1117" stroke-width="2" class="data-point"/>
  
    <circle cx="690.316742081448" cy="90.9693407207375" r="4" fill="#3b82f6" stroke="#0d1117" stroke-width="2" class="data-point"/>
  
    <circle cx="693.4841628959276" cy="89.4115141074588" r="4" fill="#3b82f6" stroke="#0d1117" stroke-width="2" class="data-point"/>
  
    <circle cx="696.6515837104072" cy="87.49806779029703" r="4" fill="#3b82f6" stroke="#0d1117" stroke-width="2" class="data-point"/>
  
    <circle cx="699.8190045248869" cy="85.80223950088464" r="4" fill="#3b82f6" stroke="#0d1117" stroke-width="2" class="data-point"/>
  
    <circle cx="702.9864253393665" cy="84.2882018809945" r="4" fill="#3b82f6" stroke="#0d1117" stroke-width="2" class="data-point"/>
  
    <circle cx="706.1538461538462" cy="82.64412422013226" r="4" fill="#3b82f6" stroke="#0d1117" stroke-width="2" class="data-point"/>
  
    <circle cx="709.3212669683259" cy="80.37638513828102" r="4" fill="#3b82f6" stroke="#0d1117" stroke-width="2" class="data-point"/>
  
    <circle cx="712.4886877828054" cy="78.51468944966945" r="4" fill="#3b82f6" stroke="#0d1117" stroke-width="2" class="data-point"/>
  
    <circle cx="715.6561085972851" cy="76.51764596331134" r="4" fill="#3b82f6" stroke="#0d1117" stroke-width="2" class="data-point"/>
  
    <circle cx="718.8235294117648" cy="74.5272371729211" r="4" fill="#3b82f6" stroke="#0d1117" stroke-width="2" class="data-point"/>
  
    <circle cx="721.9909502262443" cy="72.67350311947109" r="4" fill="#3b82f6" stroke="#0d1117" stroke-width="2" class="data-point"/>
  
    <circle cx="725.158371040724" cy="70.85426948505449" r="4" fill="#3b82f6" stroke="#0d1117" stroke-width="2" class="data-point"/>
  
    <circle cx="728.3257918552036" cy="68.9288807151504" r="4" fill="#3b82f6" stroke="#0d1117" stroke-width="2" class="data-point"/>
  
    <circle cx="731.4932126696833" cy="67.2025328242853" r="4" fill="#3b82f6" stroke="#0d1117" stroke-width="2" class="data-point"/>
  
    <circle cx="734.6606334841629" cy="65.6898221435888" r="4" fill="#3b82f6" stroke="#0d1117" stroke-width="2" class="data-point"/>
  
    <circle cx="737.8280542986425" cy="64.28857435515414" r="4" fill="#3b82f6" stroke="#0d1117" stroke-width="2" class="data-point"/>
  
    <circle cx="740.9954751131222" cy="62.806383275910264" r="4" fill="#3b82f6" stroke="#0d1117" stroke-width="2" class="data-point"/>
  
    <circle cx="744.1628959276018" cy="61.36001955489337" r="4" fill="#3b82f6" stroke="#0d1117" stroke-width="2" class="data-point"/>
  
    <circle cx="747.3303167420814" cy="60.05298444920385" r="4" fill="#3b82f6" stroke="#0d1117" stroke-width="2" class="data-point"/>
  
    <circle cx="750.4977375565611" cy="58.74329546512712" r="4" fill="#3b82f6" stroke="#0d1117" stroke-width="2" class="data-point"/>
  
    <circle cx="753.6651583710408" cy="57.48933792718128" r="4" fill="#3b82f6" stroke="#0d1117" stroke-width="2" class="data-point"/>
  
    <circle cx="756.8325791855203" cy="56.243342024397066" r="4" fill="#3b82f6" stroke="#0d1117" stroke-width="2" class="data-point"/>
  
    <circle cx="760" cy="55" r="4" fill="#3b82f6" stroke="#0d1117" stroke-width="2" class="data-point"/>
  

  <!-- Axis lines -->
  <line x1="60" y1="55" x2="60" y2="340"
        stroke="#30363d" stroke-width="2"/>
  <line x1="60" y1="340" x2="760" y2="340"
        stroke="#30363d" stroke-width="2"/>
</svg>