<?xml version="1.0" encoding="UTF-8"?>
<svg width="800" height="400" xmlns="http://www.w3.org/2000/svg">
  <defs>
    <!-- Gradient for area fill -->
    <linearGradient id="areaGradient" x1="0%" y1="0%" x2="0%" y2="100%">
      <stop offset="0%" style="stop-color:#3b82f6;stop-opacity:0.3" />
      <stop offset="100%" style="stop-color:#3b82f6;stop-opacity:0.05" />
    </linearGradient>

    <!-- Glow filter for line -->
    <filter id="glow">
      <feGaussianBlur stdDeviation="2" result="coloredBlur"/>
      <feMerge>
        <feMergeNode in="coloredBlur"/>
        <feMergeNode in="SourceGraphic"/>
      </feMerge>
    </filter>

    <!-- Animation -->
    <style>
      @keyframes draw {
        from { stroke-dashoffset: 2000; }
        to { stroke-dashoffset: 0; }
      }
      @keyframes fadeIn {
        from { opacity: 0; }
        to { opacity: 1; }
      }
      .line-path {
        stroke-dasharray: 2000;
        stroke-dashoffset: 2000;
        animation: draw 1.5s ease-out forwards;
      }
      .area-path {
        opacity: 0;
        animation: fadeIn 1s ease-out 0.5s forwards;
      }
      .data-point {
        opacity: 0;
        animation: fadeIn 0.5s ease-out 1s forwards;
      }
    </style>
  </defs>

  <!-- Background -->
  <rect width="800" height="400" fill="#0d1117" rx="8"/>

  <!-- Title -->
  <text x="400" y="25" text-anchor="middle" fill="#c9d1d9" font-family="system-ui, -apple-system, sans-serif" font-size="16" font-weight="600">
    zxcloli666/SoundCloud-Desktop Downloads
  </text>

  <!-- Stats -->
  <text x="780" y="25" text-anchor="end" fill="#58a6ff" font-family="system-ui, -apple-system, sans-serif" font-size="14" font-weight="600">
    285.3K total
  </text>
  <text x="780" y="42" text-anchor="end" fill="#3fb950" font-family="system-ui, -apple-system, sans-serif" font-size="12">
    +908 (+0.3%)
  </text>

  <!-- Grid lines -->
  <g opacity="0.1">
    
      <line x1="60" y1="340" x2="760" y2="340"
            stroke="#c9d1d9" stroke-width="1"/>
    
      <line x1="60" y1="268.75" x2="760" y2="268.75"
            stroke="#c9d1d9" stroke-width="1"/>
    
      <line x1="60" y1="197.5" x2="760" y2="197.5"
            stroke="#c9d1d9" stroke-width="1"/>
    
      <line x1="60" y1="126.25" x2="760" y2="126.25"
            stroke="#c9d1d9" stroke-width="1"/>
    
      <line x1="60" y1="55" x2="760" y2="55"
            stroke="#c9d1d9" stroke-width="1"/>
    
  </g>

  <!-- Y-axis labels -->
  
    <text x="50" y="344" text-anchor="end"
          fill="#8b949e" font-family="system-ui, -apple-system, sans-serif" font-size="11">
      60.2K
    </text>
  
    <text x="50" y="272.75" text-anchor="end"
          fill="#8b949e" font-family="system-ui, -apple-system, sans-serif" font-size="11">
      116.4K
    </text>
  
    <text x="50" y="201.5" text-anchor="end"
          fill="#8b949e" font-family="system-ui, -apple-system, sans-serif" font-size="11">
      172.7K
    </text>
  
    <text x="50" y="130.25" text-anchor="end"
          fill="#8b949e" font-family="system-ui, -apple-system, sans-serif" font-size="11">
      229.0K
    </text>
  
    <text x="50" y="59" text-anchor="end"
          fill="#8b949e" font-family="system-ui, -apple-system, sans-serif" font-size="11">
      285.3K
    </text>
  

  <!-- X-axis labels -->
  
    <text x="60" y="360" text-anchor="middle"
          fill="#8b949e" font-family="system-ui, -apple-system, sans-serif" font-size="11">
      Nov 25
    </text>
  
    <text x="147.5" y="360" text-anchor="middle"
          fill="#8b949e" font-family="system-ui, -apple-system, sans-serif" font-size="11">
      Dec 24
    </text>
  
    <text x="235" y="360" text-anchor="middle"
          fill="#8b949e" font-family="system-ui, -apple-system, sans-serif" font-size="11">
      Jan 22
    </text>
  
    <text x="322.5" y="360" text-anchor="middle"
          fill="#8b949e" font-family="system-ui, -apple-system, sans-serif" font-size="11">
      Feb 20
    </text>
  
    <text x="410" y="360" text-anchor="middle"
          fill="#8b949e" font-family="system-ui, -apple-system, sans-serif" font-size="11">
      Mar 21
    </text>
  
    <text x="497.5" y="360" text-anchor="middle"
          fill="#8b949e" font-family="system-ui, -apple-system, sans-serif" font-size="11">
      Apr 19
    </text>
  
    <text x="585" y="360" text-anchor="middle"
          fill="#8b949e" font-family="system-ui, -apple-system, sans-serif" font-size="11">
      May 18
    </text>
  
    <text x="672.5" y="360" text-anchor="middle"
          fill="#8b949e" font-family="system-ui, -apple-system, sans-serif" font-size="11">
      Jun 16
    </text>
  
    <text x="760" y="360" text-anchor="middle"
          fill="#8b949e" font-family="system-ui, -apple-system, sans-serif" font-size="11">
      Jul 15
    </text>
  

  <!-- Area under line -->
  <path d="M 60 340
    L 60.00 340.00 L 63.02 339.81 L 66.03 339.50 L 69.05 339.20 L 72.07 338.62 L 75.09 338.02 L 78.10 337.54 L 81.12 337.10 L 84.14 336.71 L 87.16 336.24 L 90.17 335.73 L 93.19 335.18 L 96.21 334.68 L 99.22 334.14 L 102.24 333.75 L 105.26 333.35 L 108.28 332.80 L 111.29 332.44 L 114.31 331.93 L 117.33 331.35 L 120.34 330.91 L 123.36 330.54 L 126.38 330.31 L 129.40 330.12 L 132.41 329.75 L 135.43 329.50 L 138.45 328.93 L 141.47 328.71 L 144.48 328.43 L 147.50 328.06 L 150.52 327.80 L 153.53 327.55 L 156.55 327.28 L 159.57 327.09 L 162.59 326.93 L 165.60 326.68 L 168.62 326.38 L 171.64 326.11 L 174.66 325.76 L 177.67 325.37 L 180.69 325.03 L 183.71 324.60 L 186.72 324.19 L 189.74 323.78 L 192.76 323.32 L 195.78 322.89 L 198.79 322.39 L 201.81 321.95 L 204.83 321.58 L 207.84 321.28 L 210.86 320.86 L 213.88 320.39 L 216.90 319.95 L 219.91 319.44 L 222.93 318.81 L 225.95 318.34 L 228.97 317.95 L 231.98 317.58 L 235.00 317.14 L 238.02 316.62 L 241.03 316.05 L 244.05 315.45 L 247.07 314.87 L 250.09 314.36 L 253.10 313.86 L 256.12 313.42 L 259.14 312.96 L 262.16 312.46 L 265.17 311.83 L 268.19 311.36 L 271.21 310.94 L 274.22 310.47 L 277.24 310.03 L 280.26 309.55 L 283.28 309.06 L 286.29 308.53 L 289.31 308.08 L 292.33 307.69 L 295.34 307.26 L 298.36 306.79 L 301.38 306.36 L 304.40 305.80 L 307.41 305.32 L 310.43 304.85 L 313.45 304.47 L 316.47 304.09 L 319.48 303.72 L 322.50 303.27 L 325.52 302.81 L 328.53 302.24 L 331.55 301.79 L 334.57 301.42 L 337.59 301.04 L 340.60 300.67 L 343.62 300.22 L 346.64 299.76 L 349.66 298.74 L 352.67 296.71 L 355.69 294.28 L 358.71 292.08 L 361.72 290.96 L 364.74 289.27 L 367.76 288.15 L 370.78 287.17 L 373.79 286.21 L 376.81 285.30 L 379.83 283.90 L 382.84 282.78 L 385.86 281.35 L 388.88 281.05 L 391.90 281.02 L 394.91 280.97 L 397.93 280.93 L 400.95 280.87 L 403.97 280.82 L 406.98 280.80 L 410.00 280.73 L 413.02 280.67 L 416.03 280.62 L 419.05 280.61 L 422.07 280.53 L 425.09 278.70 L 428.10 275.82 L 431.12 273.90 L 434.14 271.66 L 437.16 269.36 L 440.17 267.55 L 443.19 265.53 L 446.21 262.45 L 449.22 258.30 L 452.24 255.59 L 455.26 252.36 L 458.28 248.77 L 461.29 245.89 L 464.31 242.76 L 467.33 239.99 L 470.34 237.24 L 473.36 234.50 L 476.38 230.77 L 479.40 227.02 L 482.41 223.90 L 485.43 221.29 L 488.45 218.75 L 491.47 215.38 L 494.48 212.77 L 497.50 210.19 L 500.52 207.77 L 503.53 205.49 L 506.55 203.16 L 509.57 201.17 L 512.59 199.10 L 515.60 197.00 L 518.62 194.77 L 521.64 192.72 L 524.66 190.85 L 527.67 187.46 L 530.69 184.62 L 533.71 181.89 L 536.72 179.27 L 539.74 175.14 L 542.76 172.52 L 545.78 170.26 L 548.79 167.58 L 551.81 163.64 L 554.83 160.80 L 557.84 158.41 L 560.86 156.38 L 563.88 154.46 L 566.90 152.89 L 569.91 151.13 L 572.93 149.70 L 575.95 148.00 L 578.97 145.56 L 581.98 143.47 L 585.00 141.65 L 588.02 140.07 L 591.03 138.45 L 594.05 137.08 L 597.07 134.78 L 600.09 132.81 L 603.10 130.85 L 606.12 129.24 L 609.14 127.76 L 612.16 126.45 L 615.17 124.20 L 618.19 122.37 L 621.21 120.71 L 624.22 119.12 L 627.24 117.73 L 630.26 116.38 L 633.28 115.14 L 636.29 113.96 L 639.31 112.87 L 642.33 111.52 L 645.34 110.06 L 648.36 108.72 L 651.38 106.64 L 654.40 105.13 L 657.41 103.69 L 660.43 102.42 L 663.45 100.93 L 666.47 99.11 L 669.48 97.49 L 672.50 96.04 L 675.52 94.48 L 678.53 92.31 L 681.55 90.54 L 684.57 88.63 L 687.59 86.73 L 690.60 84.96 L 693.62 83.23 L 696.64 81.39 L 699.66 79.74 L 702.67 78.30 L 705.69 76.96 L 708.71 75.55 L 711.72 74.17 L 714.74 72.92 L 717.76 71.67 L 720.78 70.48 L 723.79 69.29 L 726.81 68.10 L 729.83 67.06 L 732.84 65.84 L 735.86 64.58 L 738.88 63.15 L 741.90 61.77 L 744.91 60.54 L 747.93 59.45 L 750.95 58.34 L 753.97 57.32 L 756.98 56.15 L 760.00 55.00
    L 760 340
    Z" fill="url(#areaGradient)" class="area-path"/>

  <!-- Main line with glow -->
  <path d="M 60.00 340.00 L 63.02 339.81 L 66.03 339.50 L 69.05 339.20 L 72.07 338.62 L 75.09 338.02 L 78.10 337.54 L 81.12 337.10 L 84.14 336.71 L 87.16 336.24 L 90.17 335.73 L 93.19 335.18 L 96.21 334.68 L 99.22 334.14 L 102.24 333.75 L 105.26 333.35 L 108.28 332.80 L 111.29 332.44 L 114.31 331.93 L 117.33 331.35 L 120.34 330.91 L 123.36 330.54 L 126.38 330.31 L 129.40 330.12 L 132.41 329.75 L 135.43 329.50 L 138.45 328.93 L 141.47 328.71 L 144.48 328.43 L 147.50 328.06 L 150.52 327.80 L 153.53 327.55 L 156.55 327.28 L 159.57 327.09 L 162.59 326.93 L 165.60 326.68 L 168.62 326.38 L 171.64 326.11 L 174.66 325.76 L 177.67 325.37 L 180.69 325.03 L 183.71 324.60 L 186.72 324.19 L 189.74 323.78 L 192.76 323.32 L 195.78 322.89 L 198.79 322.39 L 201.81 321.95 L 204.83 321.58 L 207.84 321.28 L 210.86 320.86 L 213.88 320.39 L 216.90 319.95 L 219.91 319.44 L 222.93 318.81 L 225.95 318.34 L 228.97 317.95 L 231.98 317.58 L 235.00 317.14 L 238.02 316.62 L 241.03 316.05 L 244.05 315.45 L 247.07 314.87 L 250.09 314.36 L 253.10 313.86 L 256.12 313.42 L 259.14 312.96 L 262.16 312.46 L 265.17 311.83 L 268.19 311.36 L 271.21 310.94 L 274.22 310.47 L 277.24 310.03 L 280.26 309.55 L 283.28 309.06 L 286.29 308.53 L 289.31 308.08 L 292.33 307.69 L 295.34 307.26 L 298.36 306.79 L 301.38 306.36 L 304.40 305.80 L 307.41 305.32 L 310.43 304.85 L 313.45 304.47 L 316.47 304.09 L 319.48 303.72 L 322.50 303.27 L 325.52 302.81 L 328.53 302.24 L 331.55 301.79 L 334.57 301.42 L 337.59 301.04 L 340.60 300.67 L 343.62 300.22 L 346.64 299.76 L 349.66 298.74 L 352.67 296.71 L 355.69 294.28 L 358.71 292.08 L 361.72 290.96 L 364.74 289.27 L 367.76 288.15 L 370.78 287.17 L 373.79 286.21 L 376.81 285.30 L 379.83 283.90 L 382.84 282.78 L 385.86 281.35 L 388.88 281.05 L 391.90 281.02 L 394.91 280.97 L 397.93 280.93 L 400.95 280.87 L 403.97 280.82 L 406.98 280.80 L 410.00 280.73 L 413.02 280.67 L 416.03 280.62 L 419.05 280.61 L 422.07 280.53 L 425.09 278.70 L 428.10 275.82 L 431.12 273.90 L 434.14 271.66 L 437.16 269.36 L 440.17 267.55 L 443.19 265.53 L 446.21 262.45 L 449.22 258.30 L 452.24 255.59 L 455.26 252.36 L 458.28 248.77 L 461.29 245.89 L 464.31 242.76 L 467.33 239.99 L 470.34 237.24 L 473.36 234.50 L 476.38 230.77 L 479.40 227.02 L 482.41 223.90 L 485.43 221.29 L 488.45 218.75 L 491.47 215.38 L 494.48 212.77 L 497.50 210.19 L 500.52 207.77 L 503.53 205.49 L 506.55 203.16 L 509.57 201.17 L 512.59 199.10 L 515.60 197.00 L 518.62 194.77 L 521.64 192.72 L 524.66 190.85 L 527.67 187.46 L 530.69 184.62 L 533.71 181.89 L 536.72 179.27 L 539.74 175.14 L 542.76 172.52 L 545.78 170.26 L 548.79 167.58 L 551.81 163.64 L 554.83 160.80 L 557.84 158.41 L 560.86 156.38 L 563.88 154.46 L 566.90 152.89 L 569.91 151.13 L 572.93 149.70 L 575.95 148.00 L 578.97 145.56 L 581.98 143.47 L 585.00 141.65 L 588.02 140.07 L 591.03 138.45 L 594.05 137.08 L 597.07 134.78 L 600.09 132.81 L 603.10 130.85 L 606.12 129.24 L 609.14 127.76 L 612.16 126.45 L 615.17 124.20 L 618.19 122.37 L 621.21 120.71 L 624.22 119.12 L 627.24 117.73 L 630.26 116.38 L 633.28 115.14 L 636.29 113.96 L 639.31 112.87 L 642.33 111.52 L 645.34 110.06 L 648.36 108.72 L 651.38 106.64 L 654.40 105.13 L 657.41 103.69 L 660.43 102.42 L 663.45 100.93 L 666.47 99.11 L 669.48 97.49 L 672.50 96.04 L 675.52 94.48 L 678.53 92.31 L 681.55 90.54 L 684.57 88.63 L 687.59 86.73 L 690.60 84.96 L 693.62 83.23 L 696.64 81.39 L 699.66 79.74 L 702.67 78.30 L 705.69 76.96 L 708.71 75.55 L 711.72 74.17 L 714.74 72.92 L 717.76 71.67 L 720.78 70.48 L 723.79 69.29 L 726.81 68.10 L 729.83 67.06 L 732.84 65.84 L 735.86 64.58 L 738.88 63.15 L 741.90 61.77 L 744.91 60.54 L 747.93 59.45 L 750.95 58.34 L 753.97 57.32 L 756.98 56.15 L 760.00 55.00" fill="none" stroke="#3b82f6" stroke-width="3"
        stroke-linecap="round" stroke-linejoin="round" filter="url(#glow)" class="line-path"/>

  <!-- Data points -->
  
    <circle cx="60" cy="340" r="4" fill="#3b82f6" stroke="#0d1117" stroke-width="2" class="data-point"/>
  
    <circle cx="63.01724137931034" cy="339.8139075200995" r="4" fill="#3b82f6" stroke="#0d1117" stroke-width="2" class="data-point"/>
  
    <circle cx="66.03448275862068" cy="339.4974237107449" r="4" fill="#3b82f6" stroke="#0d1117" stroke-width="2" class="data-point"/>
  
    <circle cx="69.05172413793103" cy="339.20372673566385" r="4" fill="#3b82f6" stroke="#0d1117" stroke-width="2" class="data-point"/>
  
    <circle cx="72.06896551724138" cy="338.620130591214" r="4" fill="#3b82f6" stroke="#0d1117" stroke-width="2" class="data-point"/>
  
    <circle cx="75.08620689655173" cy="338.0175454182028" r="4" fill="#3b82f6" stroke="#0d1117" stroke-width="2" class="data-point"/>
  
    <circle cx="78.10344827586206" cy="337.54281970417094" r="4" fill="#3b82f6" stroke="#0d1117" stroke-width="2" class="data-point"/>
  
    <circle cx="81.12068965517241" cy="337.0997423710745" r="4" fill="#3b82f6" stroke="#0d1117" stroke-width="2" class="data-point"/>
  
    <circle cx="84.13793103448276" cy="336.70603651223735" r="4" fill="#3b82f6" stroke="#0d1117" stroke-width="2" class="data-point"/>
  
    <circle cx="87.15517241379311" cy="336.2439701505797" r="4" fill="#3b82f6" stroke="#0d1117" stroke-width="2" class="data-point"/>
  
    <circle cx="90.17241379310346" cy="335.72873450895037" r="4" fill="#3b82f6" stroke="#0d1117" stroke-width="2" class="data-point"/>
  
    <circle cx="93.1896551724138" cy="335.17678674543595" r="4" fill="#3b82f6" stroke="#0d1117" stroke-width="2" class="data-point"/>
  
    <circle cx="96.20689655172413" cy="334.6754763914183" r="4" fill="#3b82f6" stroke="#0d1117" stroke-width="2" class="data-point"/>
  
    <circle cx="99.22413793103448" cy="334.14251765646515" r="4" fill="#3b82f6" stroke="#0d1117" stroke-width="2" class="data-point"/>
  
    <circle cx="102.24137931034483" cy="333.7538755385777" r="4" fill="#3b82f6" stroke="#0d1117" stroke-width="2" class="data-point"/>
  
    <circle cx="105.25862068965517" cy="333.35130813307865" r="4" fill="#3b82f6" stroke="#0d1117" stroke-width="2" class="data-point"/>
  
    <circle cx="108.27586206896552" cy="332.80442411051393" r="4" fill="#3b82f6" stroke="#0d1117" stroke-width="2" class="data-point"/>
  
    <circle cx="111.29310344827586" cy="332.4385688269" r="4" fill="#3b82f6" stroke="#0d1117" stroke-width="2" class="data-point"/>
  
    <circle cx="114.3103448275862" cy="331.93219473193267" r="4" fill="#3b82f6" stroke="#0d1117" stroke-width="2" class="data-point"/>
  
    <circle cx="117.32758620689654" cy="331.34733265224537" r="4" fill="#3b82f6" stroke="#0d1117" stroke-width="2" class="data-point"/>
  
    <circle cx="120.3448275862069" cy="330.9067871896238" r="4" fill="#3b82f6" stroke="#0d1117" stroke-width="2" class="data-point"/>
  
    <circle cx="123.36206896551724" cy="330.54472971172214" r="4" fill="#3b82f6" stroke="#0d1117" stroke-width="2" class="data-point"/>
  
    <circle cx="126.37931034482759" cy="330.3105316927997" r="4" fill="#3b82f6" stroke="#0d1117" stroke-width="2" class="data-point"/>
  
    <circle cx="129.39655172413794" cy="330.1155776662373" r="4" fill="#3b82f6" stroke="#0d1117" stroke-width="2" class="data-point"/>
  
    <circle cx="132.41379310344826" cy="329.75478612357307" r="4" fill="#3b82f6" stroke="#0d1117" stroke-width="2" class="data-point"/>
  
    <circle cx="135.4310344827586" cy="329.4978012703771" r="4" fill="#3b82f6" stroke="#0d1117" stroke-width="2" class="data-point"/>
  
    <circle cx="138.44827586206895" cy="328.9344600897259" r="4" fill="#3b82f6" stroke="#0d1117" stroke-width="2" class="data-point"/>
  
    <circle cx="141.4655172413793" cy="328.7129214231777" r="4" fill="#3b82f6" stroke="#0d1117" stroke-width="2" class="data-point"/>
  
    <circle cx="144.48275862068965" cy="328.42682005952116" r="4" fill="#3b82f6" stroke="#0d1117" stroke-width="2" class="data-point"/>
  
    <circle cx="147.5" cy="328.057166970195" r="4" fill="#3b82f6" stroke="#0d1117" stroke-width="2" class="data-point"/>
  
    <circle cx="150.51724137931035" cy="327.80397992271133" r="4" fill="#3b82f6" stroke="#0d1117" stroke-width="2" class="data-point"/>
  
    <circle cx="153.5344827586207" cy="327.5469950695154" r="4" fill="#3b82f6" stroke="#0d1117" stroke-width="2" class="data-point"/>
  
    <circle cx="156.55172413793105" cy="327.2773508639453" r="4" fill="#3b82f6" stroke="#0d1117" stroke-width="2" class="data-point"/>
  
    <circle cx="159.5689655172414" cy="327.0899924488074" r="4" fill="#3b82f6" stroke="#0d1117" stroke-width="2" class="data-point"/>
  
    <circle cx="162.58620689655172" cy="326.9279527384178" r="4" fill="#3b82f6" stroke="#0d1117" stroke-width="2" class="data-point"/>
  
    <circle cx="165.60344827586206" cy="326.6810953671212" r="4" fill="#3b82f6" stroke="#0d1117" stroke-width="2" class="data-point"/>
  
    <circle cx="168.6206896551724" cy="326.3810687158531" r="4" fill="#3b82f6" stroke="#0d1117" stroke-width="2" class="data-point"/>
  
    <circle cx="171.63793103448276" cy="326.10509483409584" r="4" fill="#3b82f6" stroke="#0d1117" stroke-width="2" class="data-point"/>
  
    <circle cx="174.65517241379308" cy="325.7556967085684" r="4" fill="#3b82f6" stroke="#0d1117" stroke-width="2" class="data-point"/>
  
    <circle cx="177.67241379310343" cy="325.37465020210544" r="4" fill="#3b82f6" stroke="#0d1117" stroke-width="2" class="data-point"/>
  
    <circle cx="180.6896551724138" cy="325.025252076578" r="4" fill="#3b82f6" stroke="#0d1117" stroke-width="2" class="data-point"/>
  
    <circle cx="183.70689655172413" cy="324.60369564251766" r="4" fill="#3b82f6" stroke="#0d1117" stroke-width="2" class="data-point"/>
  
    <circle cx="186.72413793103448" cy="324.18973481988183" r="4" fill="#3b82f6" stroke="#0d1117" stroke-width="2" class="data-point"/>
  
    <circle cx="189.74137931034483" cy="323.775773997246" r="4" fill="#3b82f6" stroke="#0d1117" stroke-width="2" class="data-point"/>
  
    <circle cx="192.75862068965517" cy="323.3225691822503" r="4" fill="#3b82f6" stroke="#0d1117" stroke-width="2" class="data-point"/>
  
    <circle cx="195.77586206896552" cy="322.88961933105315" r="4" fill="#3b82f6" stroke="#0d1117" stroke-width="2" class="data-point"/>
  
    <circle cx="198.79310344827587" cy="322.39463865322256" r="4" fill="#3b82f6" stroke="#0d1117" stroke-width="2" class="data-point"/>
  
    <circle cx="201.8103448275862" cy="321.95282725536356" r="4" fill="#3b82f6" stroke="#0d1117" stroke-width="2" class="data-point"/>
  
    <circle cx="204.82758620689654" cy="321.5793763603251" r="4" fill="#3b82f6" stroke="#0d1117" stroke-width="2" class="data-point"/>
  
    <circle cx="207.8448275862069" cy="321.2806156442944" r="4" fill="#3b82f6" stroke="#0d1117" stroke-width="2" class="data-point"/>
  
    <circle cx="210.86206896551724" cy="320.86285701594636" r="4" fill="#3b82f6" stroke="#0d1117" stroke-width="2" class="data-point"/>
  
    <circle cx="213.8793103448276" cy="320.38559943143963" r="4" fill="#3b82f6" stroke="#0d1117" stroke-width="2" class="data-point"/>
  
    <circle cx="216.89655172413794" cy="319.9488517745303" r="4" fill="#3b82f6" stroke="#0d1117" stroke-width="2" class="data-point"/>
  
    <circle cx="219.91379310344828" cy="319.4386798738507" r="4" fill="#3b82f6" stroke="#0d1117" stroke-width="2" class="data-point"/>
  
    <circle cx="222.9310344827586" cy="318.8095100608537" r="4" fill="#3b82f6" stroke="#0d1117" stroke-width="2" class="data-point"/>
  
    <circle cx="225.94827586206895" cy="318.3411140230089" r="4" fill="#3b82f6" stroke="#0d1117" stroke-width="2" class="data-point"/>
  
    <circle cx="228.96551724137933" cy="317.95247190512146" r="4" fill="#3b82f6" stroke="#0d1117" stroke-width="2" class="data-point"/>
  
    <circle cx="231.98275862068965" cy="317.5828188157953" r="4" fill="#3b82f6" stroke="#0d1117" stroke-width="2" class="data-point"/>
  
    <circle cx="235" cy="317.13847554746144" r="4" fill="#3b82f6" stroke="#0d1117" stroke-width="2" class="data-point"/>
  
    <circle cx="238.01724137931032" cy="316.62197397059475" r="4" fill="#3b82f6" stroke="#0d1117" stroke-width="2" class="data-point"/>
  
    <circle cx="241.0344827586207" cy="316.04977124328167" r="4" fill="#3b82f6" stroke="#0d1117" stroke-width="2" class="data-point"/>
  
    <circle cx="244.05172413793105" cy="315.44845200550793" r="4" fill="#3b82f6" stroke="#0d1117" stroke-width="2" class="data-point"/>
  
    <circle cx="247.06896551724137" cy="314.87118553724514" r="4" fill="#3b82f6" stroke="#0d1117" stroke-width="2" class="data-point"/>
  
    <circle cx="250.08620689655174" cy="314.3635455070404" r="4" fill="#3b82f6" stroke="#0d1117" stroke-width="2" class="data-point"/>
  
    <circle cx="253.10344827586206" cy="313.85970328254785" r="4" fill="#3b82f6" stroke="#0d1117" stroke-width="2" class="data-point"/>
  
    <circle cx="256.1206896551724" cy="313.415360014214" r="4" fill="#3b82f6" stroke="#0d1117" stroke-width="2" class="data-point"/>
  
    <circle cx="259.1379310344828" cy="312.9621551992182" r="4" fill="#3b82f6" stroke="#0d1117" stroke-width="2" class="data-point"/>
  
    <circle cx="262.15517241379314" cy="312.4557811042509" r="4" fill="#3b82f6" stroke="#0d1117" stroke-width="2" class="data-point"/>
  
    <circle cx="265.17241379310343" cy="311.82534535601656" r="4" fill="#3b82f6" stroke="#0d1117" stroke-width="2" class="data-point"/>
  
    <circle cx="268.18965517241384" cy="311.35568338293433" r="4" fill="#3b82f6" stroke="#0d1117" stroke-width="2" class="data-point"/>
  
    <circle cx="271.2068965517241" cy="310.9353928841114" r="4" fill="#3b82f6" stroke="#0d1117" stroke-width="2" class="data-point"/>
  
    <circle cx="274.2241379310345" cy="310.468262781504" r="4" fill="#3b82f6" stroke="#0d1117" stroke-width="2" class="data-point"/>
  
    <circle cx="277.2413793103448" cy="310.0327810598321" r="4" fill="#3b82f6" stroke="#0d1117" stroke-width="2" class="data-point"/>
  
    <circle cx="280.2586206896552" cy="309.554257540088" r="4" fill="#3b82f6" stroke="#0d1117" stroke-width="2" class="data-point"/>
  
    <circle cx="283.2758620689655" cy="309.0554790565451" r="4" fill="#3b82f6" stroke="#0d1117" stroke-width="2" class="data-point"/>
  
    <circle cx="286.2931034482759" cy="308.53391373872876" r="4" fill="#3b82f6" stroke="#0d1117" stroke-width="2" class="data-point"/>
  
    <circle cx="289.31034482758616" cy="308.0769111180207" r="4" fill="#3b82f6" stroke="#0d1117" stroke-width="2" class="data-point"/>
  
    <circle cx="292.32758620689657" cy="307.68573712965843" r="4" fill="#3b82f6" stroke="#0d1117" stroke-width="2" class="data-point"/>
  
    <circle cx="295.34482758620686" cy="307.2565850841736" r="4" fill="#3b82f6" stroke="#0d1117" stroke-width="2" class="data-point"/>
  
    <circle cx="298.3620689655172" cy="306.791986852041" r="4" fill="#3b82f6" stroke="#0d1117" stroke-width="2" class="data-point"/>
  
    <circle cx="301.3793103448276" cy="306.3615688713188" r="4" fill="#3b82f6" stroke="#0d1117" stroke-width="2" class="data-point"/>
  
    <circle cx="304.3965517241379" cy="305.80075956114246" r="4" fill="#3b82f6" stroke="#0d1117" stroke-width="2" class="data-point"/>
  
    <circle cx="307.41379310344826" cy="305.318438235686" r="4" fill="#3b82f6" stroke="#0d1117" stroke-width="2" class="data-point"/>
  
    <circle cx="310.4310344827586" cy="304.8538400035535" r="4" fill="#3b82f6" stroke="#0d1117" stroke-width="2" class="data-point"/>
  
    <circle cx="313.44827586206895" cy="304.4677297561409" r="4" fill="#3b82f6" stroke="#0d1117" stroke-width="2" class="data-point"/>
  
    <circle cx="316.4655172413793" cy="304.0930129258651" r="4" fill="#3b82f6" stroke="#0d1117" stroke-width="2" class="data-point"/>
  
    <circle cx="319.48275862068965" cy="303.7170301603518" r="4" fill="#3b82f6" stroke="#0d1117" stroke-width="2" class="data-point"/>
  
    <circle cx="322.5" cy="303.2676231510683" r="4" fill="#3b82f6" stroke="#0d1117" stroke-width="2" class="data-point"/>
  
    <circle cx="325.51724137931035" cy="302.80555678941056" r="4" fill="#3b82f6" stroke="#0d1117" stroke-width="2" class="data-point"/>
  
    <circle cx="328.5344827586207" cy="302.2447474792342" r="4" fill="#3b82f6" stroke="#0d1117" stroke-width="2" class="data-point"/>
  
    <circle cx="331.55172413793105" cy="301.790276729001" r="4" fill="#3b82f6" stroke="#0d1117" stroke-width="2" class="data-point"/>
  
    <circle cx="334.56896551724134" cy="301.41935770443746" r="4" fill="#3b82f6" stroke="#0d1117" stroke-width="2" class="data-point"/>
  
    <circle cx="337.58620689655174" cy="301.0383111979745" r="4" fill="#3b82f6" stroke="#0d1117" stroke-width="2" class="data-point"/>
  
    <circle cx="340.6034482758621" cy="300.673721849598" r="4" fill="#3b82f6" stroke="#0d1117" stroke-width="2" class="data-point"/>
  
    <circle cx="343.6206896551724" cy="300.22304890507706" r="4" fill="#3b82f6" stroke="#0d1117" stroke-width="2" class="data-point"/>
  
    <circle cx="346.6379310344828" cy="299.76098254341935" r="4" fill="#3b82f6" stroke="#0d1117" stroke-width="2" class="data-point"/>
  
    <circle cx="349.6551724137931" cy="298.73937280682276" r="4" fill="#3b82f6" stroke="#0d1117" stroke-width="2" class="data-point"/>
  
    <circle cx="352.67241379310343" cy="296.7062808155288" r="4" fill="#3b82f6" stroke="#0d1117" stroke-width="2" class="data-point"/>
  
    <circle cx="355.6896551724138" cy="294.28454670634744" r="4" fill="#3b82f6" stroke="#0d1117" stroke-width="2" class="data-point"/>
  
    <circle cx="358.7068965517241" cy="292.0780215875272" r="4" fill="#3b82f6" stroke="#0d1117" stroke-width="2" class="data-point"/>
  
    <circle cx="361.7241379310345" cy="290.95893483764934" r="4" fill="#3b82f6" stroke="#0d1117" stroke-width="2" class="data-point"/>
  
    <circle cx="364.7413793103448" cy="289.27270910140805" r="4" fill="#3b82f6" stroke="#0d1117" stroke-width="2" class="data-point"/>
  
    <circle cx="367.7586206896552" cy="288.15235641629283" r="4" fill="#3b82f6" stroke="#0d1117" stroke-width="2" class="data-point"/>
  
    <circle cx="370.7758620689655" cy="287.16999067205614" r="4" fill="#3b82f6" stroke="#0d1117" stroke-width="2" class="data-point"/>
  
    <circle cx="373.7931034482759" cy="286.2091458268556" r="4" fill="#3b82f6" stroke="#0d1117" stroke-width="2" class="data-point"/>
  
    <circle cx="376.8103448275862" cy="285.30400213210146" r="4" fill="#3b82f6" stroke="#0d1117" stroke-width="2" class="data-point"/>
  
    <circle cx="379.82758620689657" cy="283.8962821480922" r="4" fill="#3b82f6" stroke="#0d1117" stroke-width="2" class="data-point"/>
  
    <circle cx="382.8448275862069" cy="282.77719539821436" r="4" fill="#3b82f6" stroke="#0d1117" stroke-width="2" class="data-point"/>
  
    <circle cx="385.8620689655172" cy="281.3466885799316" r="4" fill="#3b82f6" stroke="#0d1117" stroke-width="2" class="data-point"/>
  
    <circle cx="388.8793103448276" cy="281.054257540088" r="4" fill="#3b82f6" stroke="#0d1117" stroke-width="2" class="data-point"/>
  
    <circle cx="391.8965517241379" cy="281.0162794829654" r="4" fill="#3b82f6" stroke="#0d1117" stroke-width="2" class="data-point"/>
  
    <circle cx="394.91379310344826" cy="280.96690800870607" r="4" fill="#3b82f6" stroke="#0d1117" stroke-width="2" class="data-point"/>
  
    <circle cx="397.93103448275866" cy="280.92513214587126" r="4" fill="#3b82f6" stroke="#0d1117" stroke-width="2" class="data-point"/>
  
    <circle cx="400.94827586206895" cy="280.8706969306623" r="4" fill="#3b82f6" stroke="#0d1117" stroke-width="2" class="data-point"/>
  
    <circle cx="403.9655172413793" cy="280.8225913916404" r="4" fill="#3b82f6" stroke="#0d1117" stroke-width="2" class="data-point"/>
  
    <circle cx="406.98275862068965" cy="280.8036023630791" r="4" fill="#3b82f6" stroke="#0d1117" stroke-width="2" class="data-point"/>
  
    <circle cx="410" cy="280.7339759250211" r="4" fill="#3b82f6" stroke="#0d1117" stroke-width="2" class="data-point"/>
  
    <circle cx="413.01724137931035" cy="280.66688135743794" r="4" fill="#3b82f6" stroke="#0d1117" stroke-width="2" class="data-point"/>
  
    <circle cx="416.03448275862064" cy="280.6225736241283" r="4" fill="#3b82f6" stroke="#0d1117" stroke-width="2" class="data-point"/>
  
    <circle cx="419.05172413793105" cy="280.60611646604184" r="4" fill="#3b82f6" stroke="#0d1117" stroke-width="2" class="data-point"/>
  
    <circle cx="422.0689655172414" cy="280.53142628703415" r="4" fill="#3b82f6" stroke="#0d1117" stroke-width="2" class="data-point"/>
  
    <circle cx="425.08620689655174" cy="278.6958201927775" r="4" fill="#3b82f6" stroke="#0d1117" stroke-width="2" class="data-point"/>
  
    <circle cx="428.1034482758621" cy="275.8208812686004" r="4" fill="#3b82f6" stroke="#0d1117" stroke-width="2" class="data-point"/>
  
    <circle cx="431.1206896551724" cy="273.895393772487" r="4" fill="#3b82f6" stroke="#0d1117" stroke-width="2" class="data-point"/>
  
    <circle cx="434.13793103448273" cy="271.65975214320616" r="4" fill="#3b82f6" stroke="#0d1117" stroke-width="2" class="data-point"/>
  
    <circle cx="437.15517241379314" cy="269.3557500111047" r="4" fill="#3b82f6" stroke="#0d1117" stroke-width="2" class="data-point"/>
  
    <circle cx="440.1724137931035" cy="267.5479944920712" r="4" fill="#3b82f6" stroke="#0d1117" stroke-width="2" class="data-point"/>
  
    <circle cx="443.1896551724138" cy="265.52629591791407" r="4" fill="#3b82f6" stroke="#0d1117" stroke-width="2" class="data-point"/>
  
    <circle cx="446.2068965517241" cy="262.4462754852752" r="4" fill="#3b82f6" stroke="#0d1117" stroke-width="2" class="data-point"/>
  
    <circle cx="449.2241379310345" cy="258.29527384178033" r="4" fill="#3b82f6" stroke="#0d1117" stroke-width="2" class="data-point"/>
  
    <circle cx="452.24137931034477" cy="255.58617243370497" r="4" fill="#3b82f6" stroke="#0d1117" stroke-width="2" class="data-point"/>
  
    <circle cx="455.25862068965523" cy="252.36183538400036" r="4" fill="#3b82f6" stroke="#0d1117" stroke-width="2" class="data-point"/>
  
    <circle cx="458.2758620689655" cy="248.769111180207" r="4" fill="#3b82f6" stroke="#0d1117" stroke-width="2" class="data-point"/>
  
    <circle cx="461.2931034482759" cy="245.88784257984275" r="4" fill="#3b82f6" stroke="#0d1117" stroke-width="2" class="data-point"/>
  
    <circle cx="464.3103448275862" cy="242.76098254341935" r="4" fill="#3b82f6" stroke="#0d1117" stroke-width="2" class="data-point"/>
  
    <circle cx="467.3275862068965" cy="239.9873184382357" r="4" fill="#3b82f6" stroke="#0d1117" stroke-width="2" class="data-point"/>
  
    <circle cx="470.34482758620686" cy="237.23897303780038" r="4" fill="#3b82f6" stroke="#0d1117" stroke-width="2" class="data-point"/>
  
    <circle cx="473.36206896551727" cy="234.4982232487896" r="4" fill="#3b82f6" stroke="#0d1117" stroke-width="2" class="data-point"/>
  
    <circle cx="476.3793103448276" cy="230.7662461688802" r="4" fill="#3b82f6" stroke="#0d1117" stroke-width="2" class="data-point"/>
  
    <circle cx="479.3965517241379" cy="227.02287567183407" r="4" fill="#3b82f6" stroke="#0d1117" stroke-width="2" class="data-point"/>
  
    <circle cx="482.41379310344826" cy="223.90234531159774" r="4" fill="#3b82f6" stroke="#0d1117" stroke-width="2" class="data-point"/>
  
    <circle cx="485.4310344827586" cy="221.28692311109137" r="4" fill="#3b82f6" stroke="#0d1117" stroke-width="2" class="data-point"/>
  
    <circle cx="488.44827586206895" cy="218.74998889530494" r="4" fill="#3b82f6" stroke="#0d1117" stroke-width="2" class="data-point"/>
  
    <circle cx="491.46551724137936" cy="215.38260116377205" r="4" fill="#3b82f6" stroke="#0d1117" stroke-width="2" class="data-point"/>
  
    <circle cx="494.48275862068965" cy="212.7709767689779" r="4" fill="#3b82f6" stroke="#0d1117" stroke-width="2" class="data-point"/>
  
    <circle cx="497.5" cy="210.187202949407" r="4" fill="#3b82f6" stroke="#0d1117" stroke-width="2" class="data-point"/>
  
    <circle cx="500.51724137931035" cy="207.77053258117533" r="4" fill="#3b82f6" stroke="#0d1117" stroke-width="2" class="data-point"/>
  
    <circle cx="503.53448275862064" cy="205.49438102429707" r="4" fill="#3b82f6" stroke="#0d1117" stroke-width="2" class="data-point"/>
  
    <circle cx="506.55172413793105" cy="203.1625283169724" r="4" fill="#3b82f6" stroke="#0d1117" stroke-width="2" class="data-point"/>
  
    <circle cx="509.5689655172414" cy="201.16868031803847" r="4" fill="#3b82f6" stroke="#0d1117" stroke-width="2" class="data-point"/>
  
    <circle cx="512.5862068965517" cy="199.1039399458091" r="4" fill="#3b82f6" stroke="#0d1117" stroke-width="2" class="data-point"/>
  
    <circle cx="515.6034482758621" cy="196.99615777550747" r="4" fill="#3b82f6" stroke="#0d1117" stroke-width="2" class="data-point"/>
  
    <circle cx="518.6206896551723" cy="194.76811175765113" r="4" fill="#3b82f6" stroke="#0d1117" stroke-width="2" class="data-point"/>
  
    <circle cx="521.6379310344828" cy="192.72362634922047" r="4" fill="#3b82f6" stroke="#0d1117" stroke-width="2" class="data-point"/>
  
    <circle cx="524.6551724137931" cy="190.85130813307867" r="4" fill="#3b82f6" stroke="#0d1117" stroke-width="2" class="data-point"/>
  
    <circle cx="527.6724137931035" cy="187.4586016967974" r="4" fill="#3b82f6" stroke="#0d1117" stroke-width="2" class="data-point"/>
  
    <circle cx="530.6896551724137" cy="184.619108959268" r="4" fill="#3b82f6" stroke="#0d1117" stroke-width="2" class="data-point"/>
  
    <circle cx="533.7068965517242" cy="181.8922844578688" r="4" fill="#3b82f6" stroke="#0d1117" stroke-width="2" class="data-point"/>
  
    <circle cx="536.7241379310344" cy="179.27306445165016" r="4" fill="#3b82f6" stroke="#0d1117" stroke-width="2" class="data-point"/>
  
    <circle cx="539.7413793103448" cy="175.1372540310043" r="4" fill="#3b82f6" stroke="#0d1117" stroke-width="2" class="data-point"/>
  
    <circle cx="542.7586206896552" cy="172.52056589526052" r="4" fill="#3b82f6" stroke="#0d1117" stroke-width="2" class="data-point"/>
  
    <circle cx="545.7758620689656" cy="170.25580775551904" r="4" fill="#3b82f6" stroke="#0d1117" stroke-width="2" class="data-point"/>
  
    <circle cx="548.7931034482758" cy="167.580886598854" r="4" fill="#3b82f6" stroke="#0d1117" stroke-width="2" class="data-point"/>
  
    <circle cx="551.8103448275863" cy="163.63749833429574" r="4" fill="#3b82f6" stroke="#0d1117" stroke-width="2" class="data-point"/>
  
    <circle cx="554.8275862068965" cy="160.80053746724116" r="4" fill="#3b82f6" stroke="#0d1117" stroke-width="2" class="data-point"/>
  
    <circle cx="557.8448275862069" cy="158.40538799804557" r="4" fill="#3b82f6" stroke="#0d1117" stroke-width="2" class="data-point"/>
  
    <circle cx="560.8620689655172" cy="156.37862568293875" r="4" fill="#3b82f6" stroke="#0d1117" stroke-width="2" class="data-point"/>
  
    <circle cx="563.8793103448277" cy="154.4556700573002" r="4" fill="#3b82f6" stroke="#0d1117" stroke-width="2" class="data-point"/>
  
    <circle cx="566.8965517241379" cy="152.89224003908853" r="4" fill="#3b82f6" stroke="#0d1117" stroke-width="2" class="data-point"/>
  
    <circle cx="569.9137931034483" cy="151.13132412383956" r="4" fill="#3b82f6" stroke="#0d1117" stroke-width="2" class="data-point"/>
  
    <circle cx="572.9310344827586" cy="149.69575356460712" r="4" fill="#3b82f6" stroke="#0d1117" stroke-width="2" class="data-point"/>
  
    <circle cx="575.948275862069" cy="148.00193221694133" r="4" fill="#3b82f6" stroke="#0d1117" stroke-width="2" class="data-point"/>
  
    <circle cx="578.9655172413793" cy="145.5637409496735" r="4" fill="#3b82f6" stroke="#0d1117" stroke-width="2" class="data-point"/>
  
    <circle cx="581.9827586206897" cy="143.4686181317461" r="4" fill="#3b82f6" stroke="#0d1117" stroke-width="2" class="data-point"/>
  
    <circle cx="585" cy="141.64693732510105" r="4" fill="#3b82f6" stroke="#0d1117" stroke-width="2" class="data-point"/>
  
    <circle cx="588.0172413793103" cy="140.0721138897526" r="4" fill="#3b82f6" stroke="#0d1117" stroke-width="2" class="data-point"/>
  
    <circle cx="591.0344827586207" cy="138.4479189801448" r="4" fill="#3b82f6" stroke="#0d1117" stroke-width="2" class="data-point"/>
  
    <circle cx="594.051724137931" cy="137.07817705325812" r="4" fill="#3b82f6" stroke="#0d1117" stroke-width="2" class="data-point"/>
  
    <circle cx="597.0689655172414" cy="134.77544085639408" r="4" fill="#3b82f6" stroke="#0d1117" stroke-width="2" class="data-point"/>
  
    <circle cx="600.0862068965517" cy="132.8069115622085" r="4" fill="#3b82f6" stroke="#0d1117" stroke-width="2" class="data-point"/>
  
    <circle cx="603.1034482758621" cy="130.85483942610938" r="4" fill="#3b82f6" stroke="#0d1117" stroke-width="2" class="data-point"/>
  
    <circle cx="606.1206896551724" cy="129.24330386887576" r="4" fill="#3b82f6" stroke="#0d1117" stroke-width="2" class="data-point"/>
  
    <circle cx="609.1379310344827" cy="127.7646915115711" r="4" fill="#3b82f6" stroke="#0d1117" stroke-width="2" class="data-point"/>
  
    <circle cx="612.1551724137931" cy="126.45191667036823" r="4" fill="#3b82f6" stroke="#0d1117" stroke-width="2" class="data-point"/>
  
    <circle cx="615.1724137931035" cy="124.20108381823837" r="4" fill="#3b82f6" stroke="#0d1117" stroke-width="2" class="data-point"/>
  
    <circle cx="618.1896551724138" cy="122.37307333540619" r="4" fill="#3b82f6" stroke="#0d1117" stroke-width="2" class="data-point"/>
  
    <circle cx="621.2068965517242" cy="120.70710256296363" r="4" fill="#3b82f6" stroke="#0d1117" stroke-width="2" class="data-point"/>
  
    <circle cx="624.2241379310344" cy="119.11582196952872" r="4" fill="#3b82f6" stroke="#0d1117" stroke-width="2" class="data-point"/>
  
    <circle cx="627.2413793103448" cy="117.72709101408074" r="4" fill="#3b82f6" stroke="#0d1117" stroke-width="2" class="data-point"/>
  
    <circle cx="630.2586206896552" cy="116.37886998623017" r="4" fill="#3b82f6" stroke="#0d1117" stroke-width="2" class="data-point"/>
  
    <circle cx="633.2758620689656" cy="115.14331719450985" r="4" fill="#3b82f6" stroke="#0d1117" stroke-width="2" class="data-point"/>
  
    <circle cx="636.2931034482758" cy="113.95840181228624" r="4" fill="#3b82f6" stroke="#0d1117" stroke-width="2" class="data-point"/>
  
    <circle cx="639.3103448275862" cy="112.87222937858124" r="4" fill="#3b82f6" stroke="#0d1117" stroke-width="2" class="data-point"/>
  
    <circle cx="642.3275862068965" cy="111.51641273930619" r="4" fill="#3b82f6" stroke="#0d1117" stroke-width="2" class="data-point"/>
  
    <circle cx="645.3448275862069" cy="110.06058721627502" r="4" fill="#3b82f6" stroke="#0d1117" stroke-width="2" class="data-point"/>
  
    <circle cx="648.3620689655173" cy="108.72122773508639" r="4" fill="#3b82f6" stroke="#0d1117" stroke-width="2" class="data-point"/>
  
    <circle cx="651.3793103448276" cy="106.64003020477057" r="4" fill="#3b82f6" stroke="#0d1117" stroke-width="2" class="data-point"/>
  
    <circle cx="654.3965517241379" cy="105.12976946653043" r="4" fill="#3b82f6" stroke="#0d1117" stroke-width="2" class="data-point"/>
  
    <circle cx="657.4137931034483" cy="103.68533736063608" r="4" fill="#3b82f6" stroke="#0d1117" stroke-width="2" class="data-point"/>
  
    <circle cx="660.4310344827586" cy="102.41813618798028" r="4" fill="#3b82f6" stroke="#0d1117" stroke-width="2" class="data-point"/>
  
    <circle cx="663.448275862069" cy="100.93192821925109" r="4" fill="#3b82f6" stroke="#0d1117" stroke-width="2" class="data-point"/>
  
    <circle cx="666.4655172413793" cy="99.10644960689379" r="4" fill="#3b82f6" stroke="#0d1117" stroke-width="2" class="data-point"/>
  
    <circle cx="669.4827586206897" cy="97.48858437347309" r="4" fill="#3b82f6" stroke="#0d1117" stroke-width="2" class="data-point"/>
  
    <circle cx="672.5" cy="96.04415226757874" r="4" fill="#3b82f6" stroke="#0d1117" stroke-width="2" class="data-point"/>
  
    <circle cx="675.5172413793103" cy="94.47565850841735" r="4" fill="#3b82f6" stroke="#0d1117" stroke-width="2" class="data-point"/>
  
    <circle cx="678.5344827586207" cy="92.31217518766934" r="4" fill="#3b82f6" stroke="#0d1117" stroke-width="2" class="data-point"/>
  
    <circle cx="681.551724137931" cy="90.53606804957136" r="4" fill="#3b82f6" stroke="#0d1117" stroke-width="2" class="data-point"/>
  
    <circle cx="684.5689655172414" cy="88.63083551725668" r="4" fill="#3b82f6" stroke="#0d1117" stroke-width="2" class="data-point"/>
  
    <circle cx="687.5862068965517" cy="86.73193266112915" r="4" fill="#3b82f6" stroke="#0d1117" stroke-width="2" class="data-point"/>
  
    <circle cx="690.6034482758621" cy="84.96342113445564" r="4" fill="#3b82f6" stroke="#0d1117" stroke-width="2" class="data-point"/>
  
    <circle cx="693.6206896551724" cy="83.22782392395504" r="4" fill="#3b82f6" stroke="#0d1117" stroke-width="2" class="data-point"/>
  
    <circle cx="696.6379310344827" cy="81.39095189446095" r="4" fill="#3b82f6" stroke="#0d1117" stroke-width="2" class="data-point"/>
  
    <circle cx="699.6551724137931" cy="79.74397015057968" r="4" fill="#3b82f6" stroke="#0d1117" stroke-width="2" class="data-point"/>
  
    <circle cx="702.6724137931035" cy="78.3008039799227" r="4" fill="#3b82f6" stroke="#0d1117" stroke-width="2" class="data-point"/>
  
    <circle cx="705.6896551724138" cy="76.96397636920886" r="4" fill="#3b82f6" stroke="#0d1117" stroke-width="2" class="data-point"/>
  
    <circle cx="708.7068965517242" cy="75.5499267090126" r="4" fill="#3b82f6" stroke="#0d1117" stroke-width="2" class="data-point"/>
  
    <circle cx="711.7241379310344" cy="74.17005730022652" r="4" fill="#3b82f6" stroke="#0d1117" stroke-width="2" class="data-point"/>
  
    <circle cx="714.7413793103448" cy="72.92311109136944" r="4" fill="#3b82f6" stroke="#0d1117" stroke-width="2" class="data-point"/>
  
    <circle cx="717.7586206896552" cy="71.6736330120375" r="4" fill="#3b82f6" stroke="#0d1117" stroke-width="2" class="data-point"/>
  
    <circle cx="720.7758620689656" cy="70.4773242126771" r="4" fill="#3b82f6" stroke="#0d1117" stroke-width="2" class="data-point"/>
  
    <circle cx="723.7931034482758" cy="69.28861102474127" r="4" fill="#3b82f6" stroke="#0d1117" stroke-width="2" class="data-point"/>
  
    <circle cx="726.8103448275862" cy="68.10242970728024" r="4" fill="#3b82f6" stroke="#0d1117" stroke-width="2" class="data-point"/>
  
    <circle cx="729.8275862068965" cy="67.05550126593522" r="4" fill="#3b82f6" stroke="#0d1117" stroke-width="2" class="data-point"/>
  
    <circle cx="732.8448275862069" cy="65.83767156753879" r="4" fill="#3b82f6" stroke="#0d1117" stroke-width="2" class="data-point"/>
  
    <circle cx="735.8620689655173" cy="64.58186381201972" r="4" fill="#3b82f6" stroke="#0d1117" stroke-width="2" class="data-point"/>
  
    <circle cx="738.8793103448276" cy="63.151356993736954" r="4" fill="#3b82f6" stroke="#0d1117" stroke-width="2" class="data-point"/>
  
    <circle cx="741.8965517241379" cy="61.77275352018836" r="4" fill="#3b82f6" stroke="#0d1117" stroke-width="2" class="data-point"/>
  
    <circle cx="744.9137931034483" cy="60.538466663705435" r="4" fill="#3b82f6" stroke="#0d1117" stroke-width="2" class="data-point"/>
  
    <circle cx="747.9310344827586" cy="59.45482610047526" r="4" fill="#3b82f6" stroke="#0d1117" stroke-width="2" class="data-point"/>
  
    <circle cx="750.948275862069" cy="58.337005285834834" r="4" fill="#3b82f6" stroke="#0d1117" stroke-width="2" class="data-point"/>
  
    <circle cx="753.9655172413793" cy="57.321725225425325" r="4" fill="#3b82f6" stroke="#0d1117" stroke-width="2" class="data-point"/>
  
    <circle cx="756.9827586206897" cy="56.149469195575875" r="4" fill="#3b82f6" stroke="#0d1117" stroke-width="2" class="data-point"/>
  
    <circle cx="760" cy="55" r="4" fill="#3b82f6" stroke="#0d1117" stroke-width="2" class="data-point"/>
  

  <!-- Axis lines -->
  <line x1="60" y1="55" x2="60" y2="340"
        stroke="#30363d" stroke-width="2"/>
  <line x1="60" y1="340" x2="760" y2="340"
        stroke="#30363d" stroke-width="2"/>
</svg>