<?xml version="1.0" encoding="UTF-8"?>
<svg width="800" height="400" xmlns="http://www.w3.org/2000/svg">
  <defs>
    <!-- Gradient for area fill -->
    <linearGradient id="areaGradient" x1="0%" y1="0%" x2="0%" y2="100%">
      <stop offset="0%" style="stop-color:#3b82f6;stop-opacity:0.3" />
      <stop offset="100%" style="stop-color:#3b82f6;stop-opacity:0.05" />
    </linearGradient>

    <!-- Glow filter for line -->
    <filter id="glow">
      <feGaussianBlur stdDeviation="2" result="coloredBlur"/>
      <feMerge>
        <feMergeNode in="coloredBlur"/>
        <feMergeNode in="SourceGraphic"/>
      </feMerge>
    </filter>

    <!-- Animation -->
    <style>
      @keyframes draw {
        from { stroke-dashoffset: 2000; }
        to { stroke-dashoffset: 0; }
      }
      @keyframes fadeIn {
        from { opacity: 0; }
        to { opacity: 1; }
      }
      .line-path {
        stroke-dasharray: 2000;
        stroke-dashoffset: 2000;
        animation: draw 1.5s ease-out forwards;
      }
      .area-path {
        opacity: 0;
        animation: fadeIn 1s ease-out 0.5s forwards;
      }
      .data-point {
        opacity: 0;
        animation: fadeIn 0.5s ease-out 1s forwards;
      }
    </style>
  </defs>

  <!-- Background -->
  <rect width="800" height="400" fill="#0d1117" rx="8"/>

  <!-- Title -->
  <text x="400" y="25" text-anchor="middle" fill="#c9d1d9" font-family="system-ui, -apple-system, sans-serif" font-size="16" font-weight="600">
    zxcloli666/SoundCloud-Desktop Downloads
  </text>

  <!-- Stats -->
  <text x="780" y="25" text-anchor="end" fill="#58a6ff" font-family="system-ui, -apple-system, sans-serif" font-size="14" font-weight="600">
    107.0K total
  </text>
  <text x="780" y="42" text-anchor="end" fill="#3fb950" font-family="system-ui, -apple-system, sans-serif" font-size="12">
    +55 (+0.1%)
  </text>

  <!-- Grid lines -->
  <g opacity="0.1">
    
      <line x1="60" y1="340" x2="760" y2="340"
            stroke="#c9d1d9" stroke-width="1"/>
    
      <line x1="60" y1="268.75" x2="760" y2="268.75"
            stroke="#c9d1d9" stroke-width="1"/>
    
      <line x1="60" y1="197.5" x2="760" y2="197.5"
            stroke="#c9d1d9" stroke-width="1"/>
    
      <line x1="60" y1="126.25" x2="760" y2="126.25"
            stroke="#c9d1d9" stroke-width="1"/>
    
      <line x1="60" y1="55" x2="760" y2="55"
            stroke="#c9d1d9" stroke-width="1"/>
    
  </g>

  <!-- Y-axis labels -->
  
    <text x="50" y="344" text-anchor="end"
          fill="#8b949e" font-family="system-ui, -apple-system, sans-serif" font-size="11">
      60.2K
    </text>
  
    <text x="50" y="272.75" text-anchor="end"
          fill="#8b949e" font-family="system-ui, -apple-system, sans-serif" font-size="11">
      71.9K
    </text>
  
    <text x="50" y="201.5" text-anchor="end"
          fill="#8b949e" font-family="system-ui, -apple-system, sans-serif" font-size="11">
      83.6K
    </text>
  
    <text x="50" y="130.25" text-anchor="end"
          fill="#8b949e" font-family="system-ui, -apple-system, sans-serif" font-size="11">
      95.3K
    </text>
  
    <text x="50" y="59" text-anchor="end"
          fill="#8b949e" font-family="system-ui, -apple-system, sans-serif" font-size="11">
      107.0K
    </text>
  

  <!-- X-axis labels -->
  
    <text x="60" y="360" text-anchor="middle"
          fill="#8b949e" font-family="system-ui, -apple-system, sans-serif" font-size="11">
      Nov 25
    </text>
  
    <text x="144.48275862068965" y="360" text-anchor="middle"
          fill="#8b949e" font-family="system-ui, -apple-system, sans-serif" font-size="11">
      Dec 9
    </text>
  
    <text x="228.96551724137933" y="360" text-anchor="middle"
          fill="#8b949e" font-family="system-ui, -apple-system, sans-serif" font-size="11">
      Dec 23
    </text>
  
    <text x="313.44827586206895" y="360" text-anchor="middle"
          fill="#8b949e" font-family="system-ui, -apple-system, sans-serif" font-size="11">
      Jan 6
    </text>
  
    <text x="397.93103448275866" y="360" text-anchor="middle"
          fill="#8b949e" font-family="system-ui, -apple-system, sans-serif" font-size="11">
      Jan 20
    </text>
  
    <text x="482.41379310344826" y="360" text-anchor="middle"
          fill="#8b949e" font-family="system-ui, -apple-system, sans-serif" font-size="11">
      Feb 3
    </text>
  
    <text x="566.8965517241379" y="360" text-anchor="middle"
          fill="#8b949e" font-family="system-ui, -apple-system, sans-serif" font-size="11">
      Feb 17
    </text>
  
    <text x="651.3793103448276" y="360" text-anchor="middle"
          fill="#8b949e" font-family="system-ui, -apple-system, sans-serif" font-size="11">
      Mar 3
    </text>
  
    <text x="735.8620689655173" y="360" text-anchor="middle"
          fill="#8b949e" font-family="system-ui, -apple-system, sans-serif" font-size="11">
      Mar 17
    </text>
  
    <text x="760" y="360" text-anchor="middle"
          fill="#8b949e" font-family="system-ui, -apple-system, sans-serif" font-size="11">
      Mar 21
    </text>
  

  <!-- Area under line -->
  <path d="M 60 340
    L 60.00 340.00 L 66.03 339.11 L 72.07 337.58 L 78.10 336.17 L 84.14 333.36 L 90.17 330.47 L 96.21 328.18 L 102.24 326.05 L 108.28 324.16 L 114.31 321.94 L 120.34 319.46 L 126.38 316.81 L 132.41 314.40 L 138.45 311.83 L 144.48 309.96 L 150.52 308.03 L 156.55 305.40 L 162.59 303.64 L 168.62 301.20 L 174.66 298.39 L 180.69 296.27 L 186.72 294.53 L 192.76 293.41 L 198.79 292.47 L 204.83 290.73 L 210.86 289.50 L 216.90 286.79 L 222.93 285.72 L 228.97 284.35 L 235.00 282.57 L 241.03 281.35 L 247.07 280.12 L 253.10 278.82 L 259.14 277.92 L 265.17 277.14 L 271.21 275.95 L 277.24 274.51 L 283.28 273.18 L 289.31 271.50 L 295.34 269.67 L 301.38 267.99 L 307.41 265.96 L 313.45 263.97 L 319.48 261.98 L 325.52 259.80 L 331.55 257.72 L 337.59 255.34 L 343.62 253.21 L 349.66 251.42 L 355.69 249.98 L 361.72 247.97 L 367.76 245.68 L 373.79 243.58 L 379.83 241.12 L 385.86 238.10 L 391.90 235.85 L 397.93 233.98 L 403.97 232.20 L 410.00 230.06 L 416.03 227.58 L 422.07 224.83 L 428.10 221.94 L 434.14 219.16 L 440.17 216.72 L 446.21 214.30 L 452.24 212.16 L 458.28 209.98 L 464.31 207.54 L 470.34 204.51 L 476.38 202.25 L 482.41 200.23 L 488.45 197.99 L 494.48 195.89 L 500.52 193.59 L 506.55 191.19 L 512.59 188.69 L 518.62 186.49 L 524.66 184.61 L 530.69 182.54 L 536.72 180.31 L 542.76 178.24 L 548.79 175.54 L 554.83 173.22 L 560.86 170.99 L 566.90 169.13 L 572.93 167.33 L 578.97 165.52 L 585.00 163.36 L 591.03 161.14 L 597.07 158.44 L 603.10 156.26 L 609.14 154.47 L 615.17 152.64 L 621.21 150.89 L 627.24 148.72 L 633.28 146.50 L 639.31 141.58 L 645.34 131.81 L 651.38 120.16 L 657.41 109.55 L 663.45 104.17 L 669.48 96.06 L 675.52 90.67 L 681.55 85.95 L 687.59 81.33 L 693.62 76.98 L 699.66 70.21 L 705.69 64.83 L 711.72 57.95 L 717.76 56.54 L 723.79 56.36 L 729.83 56.12 L 735.86 55.92 L 741.90 55.66 L 747.93 55.43 L 753.97 55.33 L 760.00 55.00
    L 760 340
    Z" fill="url(#areaGradient)" class="area-path"/>

  <!-- Main line with glow -->
  <path d="M 60.00 340.00 L 66.03 339.11 L 72.07 337.58 L 78.10 336.17 L 84.14 333.36 L 90.17 330.47 L 96.21 328.18 L 102.24 326.05 L 108.28 324.16 L 114.31 321.94 L 120.34 319.46 L 126.38 316.81 L 132.41 314.40 L 138.45 311.83 L 144.48 309.96 L 150.52 308.03 L 156.55 305.40 L 162.59 303.64 L 168.62 301.20 L 174.66 298.39 L 180.69 296.27 L 186.72 294.53 L 192.76 293.41 L 198.79 292.47 L 204.83 290.73 L 210.86 289.50 L 216.90 286.79 L 222.93 285.72 L 228.97 284.35 L 235.00 282.57 L 241.03 281.35 L 247.07 280.12 L 253.10 278.82 L 259.14 277.92 L 265.17 277.14 L 271.21 275.95 L 277.24 274.51 L 283.28 273.18 L 289.31 271.50 L 295.34 269.67 L 301.38 267.99 L 307.41 265.96 L 313.45 263.97 L 319.48 261.98 L 325.52 259.80 L 331.55 257.72 L 337.59 255.34 L 343.62 253.21 L 349.66 251.42 L 355.69 249.98 L 361.72 247.97 L 367.76 245.68 L 373.79 243.58 L 379.83 241.12 L 385.86 238.10 L 391.90 235.85 L 397.93 233.98 L 403.97 232.20 L 410.00 230.06 L 416.03 227.58 L 422.07 224.83 L 428.10 221.94 L 434.14 219.16 L 440.17 216.72 L 446.21 214.30 L 452.24 212.16 L 458.28 209.98 L 464.31 207.54 L 470.34 204.51 L 476.38 202.25 L 482.41 200.23 L 488.45 197.99 L 494.48 195.89 L 500.52 193.59 L 506.55 191.19 L 512.59 188.69 L 518.62 186.49 L 524.66 184.61 L 530.69 182.54 L 536.72 180.31 L 542.76 178.24 L 548.79 175.54 L 554.83 173.22 L 560.86 170.99 L 566.90 169.13 L 572.93 167.33 L 578.97 165.52 L 585.00 163.36 L 591.03 161.14 L 597.07 158.44 L 603.10 156.26 L 609.14 154.47 L 615.17 152.64 L 621.21 150.89 L 627.24 148.72 L 633.28 146.50 L 639.31 141.58 L 645.34 131.81 L 651.38 120.16 L 657.41 109.55 L 663.45 104.17 L 669.48 96.06 L 675.52 90.67 L 681.55 85.95 L 687.59 81.33 L 693.62 76.98 L 699.66 70.21 L 705.69 64.83 L 711.72 57.95 L 717.76 56.54 L 723.79 56.36 L 729.83 56.12 L 735.86 55.92 L 741.90 55.66 L 747.93 55.43 L 753.97 55.33 L 760.00 55.00" fill="none" stroke="#3b82f6" stroke-width="3"
        stroke-linecap="round" stroke-linejoin="round" filter="url(#glow)" class="line-path"/>

  <!-- Data points -->
  
    <circle cx="60" cy="340" r="4" fill="#3b82f6" stroke="#0d1117" stroke-width="2" class="data-point"/>
  
    <circle cx="66.03448275862068" cy="339.1051136363636" r="4" fill="#3b82f6" stroke="#0d1117" stroke-width="2" class="data-point"/>
  
    <circle cx="72.06896551724138" cy="337.58319805194805" r="4" fill="#3b82f6" stroke="#0d1117" stroke-width="2" class="data-point"/>
  
    <circle cx="78.10344827586206" cy="336.17086038961037" r="4" fill="#3b82f6" stroke="#0d1117" stroke-width="2" class="data-point"/>
  
    <circle cx="84.13793103448276" cy="333.36444805194805" r="4" fill="#3b82f6" stroke="#0d1117" stroke-width="2" class="data-point"/>
  
    <circle cx="90.17241379310346" cy="330.4667207792208" r="4" fill="#3b82f6" stroke="#0d1117" stroke-width="2" class="data-point"/>
  
    <circle cx="96.20689655172413" cy="328.1838474025974" r="4" fill="#3b82f6" stroke="#0d1117" stroke-width="2" class="data-point"/>
  
    <circle cx="102.24137931034483" cy="326.0531655844156" r="4" fill="#3b82f6" stroke="#0d1117" stroke-width="2" class="data-point"/>
  
    <circle cx="108.27586206896552" cy="324.1599025974026" r="4" fill="#3b82f6" stroke="#0d1117" stroke-width="2" class="data-point"/>
  
    <circle cx="114.3103448275862" cy="321.93790584415586" r="4" fill="#3b82f6" stroke="#0d1117" stroke-width="2" class="data-point"/>
  
    <circle cx="120.3448275862069" cy="319.46022727272725" r="4" fill="#3b82f6" stroke="#0d1117" stroke-width="2" class="data-point"/>
  
    <circle cx="126.37931034482759" cy="316.8060064935065" r="4" fill="#3b82f6" stroke="#0d1117" stroke-width="2" class="data-point"/>
  
    <circle cx="132.41379310344826" cy="314.3952922077922" r="4" fill="#3b82f6" stroke="#0d1117" stroke-width="2" class="data-point"/>
  
    <circle cx="138.44827586206895" cy="311.8323863636364" r="4" fill="#3b82f6" stroke="#0d1117" stroke-width="2" class="data-point"/>
  
    <circle cx="144.48275862068965" cy="309.96347402597405" r="4" fill="#3b82f6" stroke="#0d1117" stroke-width="2" class="data-point"/>
  
    <circle cx="150.51724137931035" cy="308.0275974025974" r="4" fill="#3b82f6" stroke="#0d1117" stroke-width="2" class="data-point"/>
  
    <circle cx="156.55172413793105" cy="305.39772727272725" r="4" fill="#3b82f6" stroke="#0d1117" stroke-width="2" class="data-point"/>
  
    <circle cx="162.58620689655172" cy="303.6383928571429" r="4" fill="#3b82f6" stroke="#0d1117" stroke-width="2" class="data-point"/>
  
    <circle cx="168.6206896551724" cy="301.2033279220779" r="4" fill="#3b82f6" stroke="#0d1117" stroke-width="2" class="data-point"/>
  
    <circle cx="174.65517241379308" cy="298.3908279220779" r="4" fill="#3b82f6" stroke="#0d1117" stroke-width="2" class="data-point"/>
  
    <circle cx="180.6896551724138" cy="296.27232142857144" r="4" fill="#3b82f6" stroke="#0d1117" stroke-width="2" class="data-point"/>
  
    <circle cx="186.72413793103448" cy="294.53125" r="4" fill="#3b82f6" stroke="#0d1117" stroke-width="2" class="data-point"/>
  
    <circle cx="192.75862068965517" cy="293.40503246753246" r="4" fill="#3b82f6" stroke="#0d1117" stroke-width="2" class="data-point"/>
  
    <circle cx="198.79310344827587" cy="292.46753246753246" r="4" fill="#3b82f6" stroke="#0d1117" stroke-width="2" class="data-point"/>
  
    <circle cx="204.82758620689654" cy="290.7325487012987" r="4" fill="#3b82f6" stroke="#0d1117" stroke-width="2" class="data-point"/>
  
    <circle cx="210.86206896551724" cy="289.49675324675326" r="4" fill="#3b82f6" stroke="#0d1117" stroke-width="2" class="data-point"/>
  
    <circle cx="216.89655172413794" cy="286.7877435064935" r="4" fill="#3b82f6" stroke="#0d1117" stroke-width="2" class="data-point"/>
  
    <circle cx="222.9310344827586" cy="285.7224025974026" r="4" fill="#3b82f6" stroke="#0d1117" stroke-width="2" class="data-point"/>
  
    <circle cx="228.96551724137933" cy="284.3465909090909" r="4" fill="#3b82f6" stroke="#0d1117" stroke-width="2" class="data-point"/>
  
    <circle cx="235" cy="282.5689935064935" r="4" fill="#3b82f6" stroke="#0d1117" stroke-width="2" class="data-point"/>
  
    <circle cx="241.0344827586207" cy="281.351461038961" r="4" fill="#3b82f6" stroke="#0d1117" stroke-width="2" class="data-point"/>
  
    <circle cx="247.06896551724137" cy="280.1156655844156" r="4" fill="#3b82f6" stroke="#0d1117" stroke-width="2" class="data-point"/>
  
    <circle cx="253.10344827586206" cy="278.8189935064935" r="4" fill="#3b82f6" stroke="#0d1117" stroke-width="2" class="data-point"/>
  
    <circle cx="259.1379310344828" cy="277.9180194805195" r="4" fill="#3b82f6" stroke="#0d1117" stroke-width="2" class="data-point"/>
  
    <circle cx="265.17241379310343" cy="277.1387987012987" r="4" fill="#3b82f6" stroke="#0d1117" stroke-width="2" class="data-point"/>
  
    <circle cx="271.2068965517241" cy="275.95170454545456" r="4" fill="#3b82f6" stroke="#0d1117" stroke-width="2" class="data-point"/>
  
    <circle cx="277.2413793103448" cy="274.50892857142856" r="4" fill="#3b82f6" stroke="#0d1117" stroke-width="2" class="data-point"/>
  
    <circle cx="283.2758620689655" cy="273.1818181818182" r="4" fill="#3b82f6" stroke="#0d1117" stroke-width="2" class="data-point"/>
  
    <circle cx="289.31034482758616" cy="271.5016233766234" r="4" fill="#3b82f6" stroke="#0d1117" stroke-width="2" class="data-point"/>
  
    <circle cx="295.34482758620686" cy="269.669237012987" r="4" fill="#3b82f6" stroke="#0d1117" stroke-width="2" class="data-point"/>
  
    <circle cx="301.3793103448276" cy="267.9890422077922" r="4" fill="#3b82f6" stroke="#0d1117" stroke-width="2" class="data-point"/>
  
    <circle cx="307.41379310344826" cy="265.96185064935065" r="4" fill="#3b82f6" stroke="#0d1117" stroke-width="2" class="data-point"/>
  
    <circle cx="313.44827586206895" cy="263.97118506493507" r="4" fill="#3b82f6" stroke="#0d1117" stroke-width="2" class="data-point"/>
  
    <circle cx="319.48275862068965" cy="261.9805194805195" r="4" fill="#3b82f6" stroke="#0d1117" stroke-width="2" class="data-point"/>
  
    <circle cx="325.51724137931035" cy="259.8011363636364" r="4" fill="#3b82f6" stroke="#0d1117" stroke-width="2" class="data-point"/>
  
    <circle cx="331.55172413793105" cy="257.7191558441558" r="4" fill="#3b82f6" stroke="#0d1117" stroke-width="2" class="data-point"/>
  
    <circle cx="337.58620689655174" cy="255.33887987012986" r="4" fill="#3b82f6" stroke="#0d1117" stroke-width="2" class="data-point"/>
  
    <circle cx="343.6206896551724" cy="253.21428571428572" r="4" fill="#3b82f6" stroke="#0d1117" stroke-width="2" class="data-point"/>
  
    <circle cx="349.6551724137931" cy="251.41842532467533" r="4" fill="#3b82f6" stroke="#0d1117" stroke-width="2" class="data-point"/>
  
    <circle cx="355.6896551724138" cy="249.98173701298703" r="4" fill="#3b82f6" stroke="#0d1117" stroke-width="2" class="data-point"/>
  
    <circle cx="361.7241379310345" cy="247.97280844155844" r="4" fill="#3b82f6" stroke="#0d1117" stroke-width="2" class="data-point"/>
  
    <circle cx="367.7586206896552" cy="245.67775974025972" r="4" fill="#3b82f6" stroke="#0d1117" stroke-width="2" class="data-point"/>
  
    <circle cx="373.7931034482759" cy="243.57751623376623" r="4" fill="#3b82f6" stroke="#0d1117" stroke-width="2" class="data-point"/>
  
    <circle cx="379.82758620689657" cy="241.12418831168833" r="4" fill="#3b82f6" stroke="#0d1117" stroke-width="2" class="data-point"/>
  
    <circle cx="385.8620689655172" cy="238.09862012987014" r="4" fill="#3b82f6" stroke="#0d1117" stroke-width="2" class="data-point"/>
  
    <circle cx="391.8965517241379" cy="235.84618506493507" r="4" fill="#3b82f6" stroke="#0d1117" stroke-width="2" class="data-point"/>
  
    <circle cx="397.93103448275866" cy="233.97727272727272" r="4" fill="#3b82f6" stroke="#0d1117" stroke-width="2" class="data-point"/>
  
    <circle cx="403.9655172413793" cy="232.19967532467533" r="4" fill="#3b82f6" stroke="#0d1117" stroke-width="2" class="data-point"/>
  
    <circle cx="410" cy="230.06290584415586" r="4" fill="#3b82f6" stroke="#0d1117" stroke-width="2" class="data-point"/>
  
    <circle cx="416.03448275862064" cy="227.57913961038963" r="4" fill="#3b82f6" stroke="#0d1117" stroke-width="2" class="data-point"/>
  
    <circle cx="422.0689655172414" cy="224.82751623376623" r="4" fill="#3b82f6" stroke="#0d1117" stroke-width="2" class="data-point"/>
  
    <circle cx="428.1034482758621" cy="221.9358766233766" r="4" fill="#3b82f6" stroke="#0d1117" stroke-width="2" class="data-point"/>
  
    <circle cx="434.13793103448273" cy="219.1599025974026" r="4" fill="#3b82f6" stroke="#0d1117" stroke-width="2" class="data-point"/>
  
    <circle cx="440.1724137931035" cy="216.71875" r="4" fill="#3b82f6" stroke="#0d1117" stroke-width="2" class="data-point"/>
  
    <circle cx="446.2068965517241" cy="214.29586038961037" r="4" fill="#3b82f6" stroke="#0d1117" stroke-width="2" class="data-point"/>
  
    <circle cx="452.24137931034477" cy="212.15909090909093" r="4" fill="#3b82f6" stroke="#0d1117" stroke-width="2" class="data-point"/>
  
    <circle cx="458.2758620689655" cy="209.9797077922078" r="4" fill="#3b82f6" stroke="#0d1117" stroke-width="2" class="data-point"/>
  
    <circle cx="464.3103448275862" cy="207.54464285714286" r="4" fill="#3b82f6" stroke="#0d1117" stroke-width="2" class="data-point"/>
  
    <circle cx="470.34482758620686" cy="204.512987012987" r="4" fill="#3b82f6" stroke="#0d1117" stroke-width="2" class="data-point"/>
  
    <circle cx="476.3793103448276" cy="202.25446428571428" r="4" fill="#3b82f6" stroke="#0d1117" stroke-width="2" class="data-point"/>
  
    <circle cx="482.41379310344826" cy="200.2333603896104" r="4" fill="#3b82f6" stroke="#0d1117" stroke-width="2" class="data-point"/>
  
    <circle cx="488.44827586206895" cy="197.98701298701297" r="4" fill="#3b82f6" stroke="#0d1117" stroke-width="2" class="data-point"/>
  
    <circle cx="494.48275862068965" cy="195.89285714285714" r="4" fill="#3b82f6" stroke="#0d1117" stroke-width="2" class="data-point"/>
  
    <circle cx="500.51724137931035" cy="193.5917207792208" r="4" fill="#3b82f6" stroke="#0d1117" stroke-width="2" class="data-point"/>
  
    <circle cx="506.55172413793105" cy="191.19318181818184" r="4" fill="#3b82f6" stroke="#0d1117" stroke-width="2" class="data-point"/>
  
    <circle cx="512.5862068965517" cy="188.68506493506496" r="4" fill="#3b82f6" stroke="#0d1117" stroke-width="2" class="data-point"/>
  
    <circle cx="518.6206896551723" cy="186.48741883116884" r="4" fill="#3b82f6" stroke="#0d1117" stroke-width="2" class="data-point"/>
  
    <circle cx="524.6551724137931" cy="184.6063311688312" r="4" fill="#3b82f6" stroke="#0d1117" stroke-width="2" class="data-point"/>
  
    <circle cx="530.6896551724137" cy="182.54261363636363" r="4" fill="#3b82f6" stroke="#0d1117" stroke-width="2" class="data-point"/>
  
    <circle cx="536.7241379310344" cy="180.30844155844156" r="4" fill="#3b82f6" stroke="#0d1117" stroke-width="2" class="data-point"/>
  
    <circle cx="542.7586206896552" cy="178.23863636363635" r="4" fill="#3b82f6" stroke="#0d1117" stroke-width="2" class="data-point"/>
  
    <circle cx="548.7931034482758" cy="175.54180194805193" r="4" fill="#3b82f6" stroke="#0d1117" stroke-width="2" class="data-point"/>
  
    <circle cx="554.8275862068965" cy="173.22240259740258" r="4" fill="#3b82f6" stroke="#0d1117" stroke-width="2" class="data-point"/>
  
    <circle cx="560.8620689655172" cy="170.9882305194805" r="4" fill="#3b82f6" stroke="#0d1117" stroke-width="2" class="data-point"/>
  
    <circle cx="566.8965517241379" cy="169.1314935064935" r="4" fill="#3b82f6" stroke="#0d1117" stroke-width="2" class="data-point"/>
  
    <circle cx="572.9310344827586" cy="167.32954545454544" r="4" fill="#3b82f6" stroke="#0d1117" stroke-width="2" class="data-point"/>
  
    <circle cx="578.9655172413793" cy="165.52150974025975" r="4" fill="#3b82f6" stroke="#0d1117" stroke-width="2" class="data-point"/>
  
    <circle cx="585" cy="163.3603896103896" r="4" fill="#3b82f6" stroke="#0d1117" stroke-width="2" class="data-point"/>
  
    <circle cx="591.0344827586207" cy="161.13839285714286" r="4" fill="#3b82f6" stroke="#0d1117" stroke-width="2" class="data-point"/>
  
    <circle cx="597.0689655172414" cy="158.44155844155844" r="4" fill="#3b82f6" stroke="#0d1117" stroke-width="2" class="data-point"/>
  
    <circle cx="603.1034482758621" cy="156.25608766233768" r="4" fill="#3b82f6" stroke="#0d1117" stroke-width="2" class="data-point"/>
  
    <circle cx="609.1379310344827" cy="154.4724025974026" r="4" fill="#3b82f6" stroke="#0d1117" stroke-width="2" class="data-point"/>
  
    <circle cx="615.1724137931035" cy="152.64001623376623" r="4" fill="#3b82f6" stroke="#0d1117" stroke-width="2" class="data-point"/>
  
    <circle cx="621.2068965517242" cy="150.8867694805195" r="4" fill="#3b82f6" stroke="#0d1117" stroke-width="2" class="data-point"/>
  
    <circle cx="627.2413793103448" cy="148.71956168831167" r="4" fill="#3b82f6" stroke="#0d1117" stroke-width="2" class="data-point"/>
  
    <circle cx="633.2758620689656" cy="146.49756493506496" r="4" fill="#3b82f6" stroke="#0d1117" stroke-width="2" class="data-point"/>
  
    <circle cx="639.3103448275862" cy="141.58482142857144" r="4" fill="#3b82f6" stroke="#0d1117" stroke-width="2" class="data-point"/>
  
    <circle cx="645.3448275862069" cy="131.80803571428572" r="4" fill="#3b82f6" stroke="#0d1117" stroke-width="2" class="data-point"/>
  
    <circle cx="651.3793103448276" cy="120.16233766233765" r="4" fill="#3b82f6" stroke="#0d1117" stroke-width="2" class="data-point"/>
  
    <circle cx="657.4137931034483" cy="109.55154220779221" r="4" fill="#3b82f6" stroke="#0d1117" stroke-width="2" class="data-point"/>
  
    <circle cx="663.448275862069" cy="104.1700487012987" r="4" fill="#3b82f6" stroke="#0d1117" stroke-width="2" class="data-point"/>
  
    <circle cx="669.4827586206897" cy="96.06128246753246" r="4" fill="#3b82f6" stroke="#0d1117" stroke-width="2" class="data-point"/>
  
    <circle cx="675.5172413793103" cy="90.6737012987013" r="4" fill="#3b82f6" stroke="#0d1117" stroke-width="2" class="data-point"/>
  
    <circle cx="681.551724137931" cy="85.94967532467533" r="4" fill="#3b82f6" stroke="#0d1117" stroke-width="2" class="data-point"/>
  
    <circle cx="687.5862068965517" cy="81.32913961038963" r="4" fill="#3b82f6" stroke="#0d1117" stroke-width="2" class="data-point"/>
  
    <circle cx="693.6206896551724" cy="76.97646103896102" r="4" fill="#3b82f6" stroke="#0d1117" stroke-width="2" class="data-point"/>
  
    <circle cx="699.6551724137931" cy="70.20698051948051" r="4" fill="#3b82f6" stroke="#0d1117" stroke-width="2" class="data-point"/>
  
    <circle cx="705.6896551724138" cy="64.82548701298703" r="4" fill="#3b82f6" stroke="#0d1117" stroke-width="2" class="data-point"/>
  
    <circle cx="711.7241379310344" cy="57.946428571428555" r="4" fill="#3b82f6" stroke="#0d1117" stroke-width="2" class="data-point"/>
  
    <circle cx="717.7586206896552" cy="56.540178571428555" r="4" fill="#3b82f6" stroke="#0d1117" stroke-width="2" class="data-point"/>
  
    <circle cx="723.7931034482758" cy="56.3575487012987" r="4" fill="#3b82f6" stroke="#0d1117" stroke-width="2" class="data-point"/>
  
    <circle cx="729.8275862068965" cy="56.12012987012986" r="4" fill="#3b82f6" stroke="#0d1117" stroke-width="2" class="data-point"/>
  
    <circle cx="735.8620689655173" cy="55.919237012987026" r="4" fill="#3b82f6" stroke="#0d1117" stroke-width="2" class="data-point"/>
  
    <circle cx="741.8965517241379" cy="55.657467532467535" r="4" fill="#3b82f6" stroke="#0d1117" stroke-width="2" class="data-point"/>
  
    <circle cx="747.9310344827586" cy="55.426136363636374" r="4" fill="#3b82f6" stroke="#0d1117" stroke-width="2" class="data-point"/>
  
    <circle cx="753.9655172413793" cy="55.334821428571445" r="4" fill="#3b82f6" stroke="#0d1117" stroke-width="2" class="data-point"/>
  
    <circle cx="760" cy="55" r="4" fill="#3b82f6" stroke="#0d1117" stroke-width="2" class="data-point"/>
  

  <!-- Axis lines -->
  <line x1="60" y1="55" x2="60" y2="340"
        stroke="#30363d" stroke-width="2"/>
  <line x1="60" y1="340" x2="760" y2="340"
        stroke="#30363d" stroke-width="2"/>
</svg>