<?xml version="1.0" encoding="UTF-8"?>
<svg width="800" height="400" xmlns="http://www.w3.org/2000/svg">
  <defs>
    <!-- Gradient for area fill -->
    <linearGradient id="areaGradient" x1="0%" y1="0%" x2="0%" y2="100%">
      <stop offset="0%" style="stop-color:#3b82f6;stop-opacity:0.3" />
      <stop offset="100%" style="stop-color:#3b82f6;stop-opacity:0.05" />
    </linearGradient>

    <!-- Glow filter for line -->
    <filter id="glow">
      <feGaussianBlur stdDeviation="2" result="coloredBlur"/>
      <feMerge>
        <feMergeNode in="coloredBlur"/>
        <feMergeNode in="SourceGraphic"/>
      </feMerge>
    </filter>

    <!-- Animation -->
    <style>
      @keyframes draw {
        from { stroke-dashoffset: 2000; }
        to { stroke-dashoffset: 0; }
      }
      @keyframes fadeIn {
        from { opacity: 0; }
        to { opacity: 1; }
      }
      .line-path {
        stroke-dasharray: 2000;
        stroke-dashoffset: 2000;
        animation: draw 1.5s ease-out forwards;
      }
      .area-path {
        opacity: 0;
        animation: fadeIn 1s ease-out 0.5s forwards;
      }
      .data-point {
        opacity: 0;
        animation: fadeIn 0.5s ease-out 1s forwards;
      }
    </style>
  </defs>

  <!-- Background -->
  <rect width="800" height="400" fill="#0d1117" rx="8"/>

  <!-- Title -->
  <text x="400" y="25" text-anchor="middle" fill="#c9d1d9" font-family="system-ui, -apple-system, sans-serif" font-size="16" font-weight="600">
    zxcloli666/SoundCloud-Desktop Downloads
  </text>

  <!-- Stats -->
  <text x="780" y="25" text-anchor="end" fill="#58a6ff" font-family="system-ui, -apple-system, sans-serif" font-size="14" font-weight="600">
    182.9K total
  </text>
  <text x="780" y="42" text-anchor="end" fill="#3fb950" font-family="system-ui, -apple-system, sans-serif" font-size="12">
    +2.2K (+1.2%)
  </text>

  <!-- Grid lines -->
  <g opacity="0.1">
    
      <line x1="60" y1="340" x2="760" y2="340"
            stroke="#c9d1d9" stroke-width="1"/>
    
      <line x1="60" y1="268.75" x2="760" y2="268.75"
            stroke="#c9d1d9" stroke-width="1"/>
    
      <line x1="60" y1="197.5" x2="760" y2="197.5"
            stroke="#c9d1d9" stroke-width="1"/>
    
      <line x1="60" y1="126.25" x2="760" y2="126.25"
            stroke="#c9d1d9" stroke-width="1"/>
    
      <line x1="60" y1="55" x2="760" y2="55"
            stroke="#c9d1d9" stroke-width="1"/>
    
  </g>

  <!-- Y-axis labels -->
  
    <text x="50" y="344" text-anchor="end"
          fill="#8b949e" font-family="system-ui, -apple-system, sans-serif" font-size="11">
      60.2K
    </text>
  
    <text x="50" y="272.75" text-anchor="end"
          fill="#8b949e" font-family="system-ui, -apple-system, sans-serif" font-size="11">
      90.8K
    </text>
  
    <text x="50" y="201.5" text-anchor="end"
          fill="#8b949e" font-family="system-ui, -apple-system, sans-serif" font-size="11">
      121.5K
    </text>
  
    <text x="50" y="130.25" text-anchor="end"
          fill="#8b949e" font-family="system-ui, -apple-system, sans-serif" font-size="11">
      152.2K
    </text>
  
    <text x="50" y="59" text-anchor="end"
          fill="#8b949e" font-family="system-ui, -apple-system, sans-serif" font-size="11">
      182.9K
    </text>
  

  <!-- X-axis labels -->
  
    <text x="60" y="360" text-anchor="middle"
          fill="#8b949e" font-family="system-ui, -apple-system, sans-serif" font-size="11">
      Nov 25
    </text>
  
    <text x="145.25641025641025" y="360" text-anchor="middle"
          fill="#8b949e" font-family="system-ui, -apple-system, sans-serif" font-size="11">
      Dec 14
    </text>
  
    <text x="230.5128205128205" y="360" text-anchor="middle"
          fill="#8b949e" font-family="system-ui, -apple-system, sans-serif" font-size="11">
      Jan 2
    </text>
  
    <text x="315.7692307692307" y="360" text-anchor="middle"
          fill="#8b949e" font-family="system-ui, -apple-system, sans-serif" font-size="11">
      Jan 21
    </text>
  
    <text x="401.025641025641" y="360" text-anchor="middle"
          fill="#8b949e" font-family="system-ui, -apple-system, sans-serif" font-size="11">
      Feb 9
    </text>
  
    <text x="486.28205128205127" y="360" text-anchor="middle"
          fill="#8b949e" font-family="system-ui, -apple-system, sans-serif" font-size="11">
      Feb 28
    </text>
  
    <text x="571.5384615384614" y="360" text-anchor="middle"
          fill="#8b949e" font-family="system-ui, -apple-system, sans-serif" font-size="11">
      Mar 19
    </text>
  
    <text x="656.7948717948718" y="360" text-anchor="middle"
          fill="#8b949e" font-family="system-ui, -apple-system, sans-serif" font-size="11">
      Apr 7
    </text>
  
    <text x="742.051282051282" y="360" text-anchor="middle"
          fill="#8b949e" font-family="system-ui, -apple-system, sans-serif" font-size="11">
      Apr 26
    </text>
  
    <text x="760" y="360" text-anchor="middle"
          fill="#8b949e" font-family="system-ui, -apple-system, sans-serif" font-size="11">
      Apr 30
    </text>
  

  <!-- Area under line -->
  <path d="M 60 340
    L 60.00 340.00 L 64.49 339.66 L 68.97 339.08 L 73.46 338.54 L 77.95 337.47 L 82.44 336.36 L 86.92 335.49 L 91.41 334.68 L 95.90 333.96 L 100.38 333.11 L 104.87 332.17 L 109.36 331.15 L 113.85 330.23 L 118.33 329.26 L 122.82 328.54 L 127.31 327.80 L 131.79 326.80 L 136.28 326.13 L 140.77 325.20 L 145.26 324.13 L 149.74 323.32 L 154.23 322.66 L 158.72 322.23 L 163.21 321.87 L 167.69 321.21 L 172.18 320.74 L 176.67 319.70 L 181.15 319.30 L 185.64 318.77 L 190.13 318.09 L 194.62 317.63 L 199.10 317.16 L 203.59 316.66 L 208.08 316.32 L 212.56 316.02 L 217.05 315.57 L 221.54 315.02 L 226.03 314.51 L 230.51 313.87 L 235.00 313.17 L 239.49 312.53 L 243.97 311.76 L 248.46 311.00 L 252.95 310.24 L 257.44 309.41 L 261.92 308.62 L 266.41 307.71 L 270.90 306.90 L 275.38 306.21 L 279.87 305.66 L 284.36 304.90 L 288.85 304.02 L 293.33 303.22 L 297.82 302.29 L 302.31 301.13 L 306.79 300.27 L 311.28 299.56 L 315.77 298.88 L 320.26 298.07 L 324.74 297.12 L 329.23 296.07 L 333.72 294.97 L 338.21 293.91 L 342.69 292.98 L 347.18 292.05 L 351.67 291.24 L 356.15 290.41 L 360.64 289.48 L 365.13 288.32 L 369.62 287.46 L 374.10 286.69 L 378.59 285.83 L 383.08 285.03 L 387.56 284.16 L 392.05 283.24 L 396.54 282.28 L 401.03 281.45 L 405.51 280.73 L 410.00 279.94 L 414.49 279.09 L 418.97 278.30 L 423.46 277.27 L 427.95 276.39 L 432.44 275.53 L 436.92 274.83 L 441.41 274.14 L 445.90 273.45 L 450.38 272.63 L 454.87 271.78 L 459.36 270.75 L 463.85 269.92 L 468.33 269.24 L 472.82 268.54 L 477.31 267.87 L 481.79 267.04 L 486.28 266.19 L 490.77 264.32 L 495.26 260.59 L 499.74 256.15 L 504.23 252.10 L 508.72 250.05 L 513.21 246.96 L 517.69 244.90 L 522.18 243.10 L 526.67 241.34 L 531.15 239.68 L 535.64 237.09 L 540.13 235.04 L 544.62 232.42 L 549.10 231.88 L 553.59 231.81 L 558.08 231.72 L 562.56 231.64 L 567.05 231.54 L 571.54 231.46 L 576.03 231.42 L 580.51 231.29 L 585.00 231.17 L 589.49 231.09 L 593.97 231.06 L 598.46 230.92 L 602.95 227.56 L 607.44 222.28 L 611.92 218.75 L 616.41 214.65 L 620.90 210.42 L 625.38 207.11 L 629.87 203.40 L 634.36 197.75 L 638.85 190.14 L 643.33 185.17 L 647.82 179.25 L 652.31 172.66 L 656.79 167.38 L 661.28 161.64 L 665.77 156.56 L 670.26 151.52 L 674.74 146.49 L 679.23 139.64 L 683.72 132.78 L 688.21 127.05 L 692.69 122.26 L 697.18 117.60 L 701.67 111.43 L 706.15 106.64 L 710.64 101.90 L 715.13 97.46 L 719.62 93.29 L 724.10 89.01 L 728.59 85.36 L 733.08 81.57 L 737.56 77.70 L 742.05 73.62 L 746.54 69.87 L 751.03 66.43 L 755.51 60.21 L 760.00 55.00
    L 760 340
    Z" fill="url(#areaGradient)" class="area-path"/>

  <!-- Main line with glow -->
  <path d="M 60.00 340.00 L 64.49 339.66 L 68.97 339.08 L 73.46 338.54 L 77.95 337.47 L 82.44 336.36 L 86.92 335.49 L 91.41 334.68 L 95.90 333.96 L 100.38 333.11 L 104.87 332.17 L 109.36 331.15 L 113.85 330.23 L 118.33 329.26 L 122.82 328.54 L 127.31 327.80 L 131.79 326.80 L 136.28 326.13 L 140.77 325.20 L 145.26 324.13 L 149.74 323.32 L 154.23 322.66 L 158.72 322.23 L 163.21 321.87 L 167.69 321.21 L 172.18 320.74 L 176.67 319.70 L 181.15 319.30 L 185.64 318.77 L 190.13 318.09 L 194.62 317.63 L 199.10 317.16 L 203.59 316.66 L 208.08 316.32 L 212.56 316.02 L 217.05 315.57 L 221.54 315.02 L 226.03 314.51 L 230.51 313.87 L 235.00 313.17 L 239.49 312.53 L 243.97 311.76 L 248.46 311.00 L 252.95 310.24 L 257.44 309.41 L 261.92 308.62 L 266.41 307.71 L 270.90 306.90 L 275.38 306.21 L 279.87 305.66 L 284.36 304.90 L 288.85 304.02 L 293.33 303.22 L 297.82 302.29 L 302.31 301.13 L 306.79 300.27 L 311.28 299.56 L 315.77 298.88 L 320.26 298.07 L 324.74 297.12 L 329.23 296.07 L 333.72 294.97 L 338.21 293.91 L 342.69 292.98 L 347.18 292.05 L 351.67 291.24 L 356.15 290.41 L 360.64 289.48 L 365.13 288.32 L 369.62 287.46 L 374.10 286.69 L 378.59 285.83 L 383.08 285.03 L 387.56 284.16 L 392.05 283.24 L 396.54 282.28 L 401.03 281.45 L 405.51 280.73 L 410.00 279.94 L 414.49 279.09 L 418.97 278.30 L 423.46 277.27 L 427.95 276.39 L 432.44 275.53 L 436.92 274.83 L 441.41 274.14 L 445.90 273.45 L 450.38 272.63 L 454.87 271.78 L 459.36 270.75 L 463.85 269.92 L 468.33 269.24 L 472.82 268.54 L 477.31 267.87 L 481.79 267.04 L 486.28 266.19 L 490.77 264.32 L 495.26 260.59 L 499.74 256.15 L 504.23 252.10 L 508.72 250.05 L 513.21 246.96 L 517.69 244.90 L 522.18 243.10 L 526.67 241.34 L 531.15 239.68 L 535.64 237.09 L 540.13 235.04 L 544.62 232.42 L 549.10 231.88 L 553.59 231.81 L 558.08 231.72 L 562.56 231.64 L 567.05 231.54 L 571.54 231.46 L 576.03 231.42 L 580.51 231.29 L 585.00 231.17 L 589.49 231.09 L 593.97 231.06 L 598.46 230.92 L 602.95 227.56 L 607.44 222.28 L 611.92 218.75 L 616.41 214.65 L 620.90 210.42 L 625.38 207.11 L 629.87 203.40 L 634.36 197.75 L 638.85 190.14 L 643.33 185.17 L 647.82 179.25 L 652.31 172.66 L 656.79 167.38 L 661.28 161.64 L 665.77 156.56 L 670.26 151.52 L 674.74 146.49 L 679.23 139.64 L 683.72 132.78 L 688.21 127.05 L 692.69 122.26 L 697.18 117.60 L 701.67 111.43 L 706.15 106.64 L 710.64 101.90 L 715.13 97.46 L 719.62 93.29 L 724.10 89.01 L 728.59 85.36 L 733.08 81.57 L 737.56 77.70 L 742.05 73.62 L 746.54 69.87 L 751.03 66.43 L 755.51 60.21 L 760.00 55.00" fill="none" stroke="#3b82f6" stroke-width="3"
        stroke-linecap="round" stroke-linejoin="round" filter="url(#glow)" class="line-path"/>

  <!-- Data points -->
  
    <circle cx="60" cy="340" r="4" fill="#3b82f6" stroke="#0d1117" stroke-width="2" class="data-point"/>
  
    <circle cx="64.48717948717949" cy="339.65866873065016" r="4" fill="#3b82f6" stroke="#0d1117" stroke-width="2" class="data-point"/>
  
    <circle cx="68.97435897435898" cy="339.078173374613" r="4" fill="#3b82f6" stroke="#0d1117" stroke-width="2" class="data-point"/>
  
    <circle cx="73.46153846153847" cy="338.5394736842105" r="4" fill="#3b82f6" stroke="#0d1117" stroke-width="2" class="data-point"/>
  
    <circle cx="77.94871794871796" cy="337.46904024767804" r="4" fill="#3b82f6" stroke="#0d1117" stroke-width="2" class="data-point"/>
  
    <circle cx="82.43589743589743" cy="336.3637770897833" r="4" fill="#3b82f6" stroke="#0d1117" stroke-width="2" class="data-point"/>
  
    <circle cx="86.92307692307692" cy="335.49303405572755" r="4" fill="#3b82f6" stroke="#0d1117" stroke-width="2" class="data-point"/>
  
    <circle cx="91.41025641025641" cy="334.68034055727554" r="4" fill="#3b82f6" stroke="#0d1117" stroke-width="2" class="data-point"/>
  
    <circle cx="95.8974358974359" cy="333.95820433436535" r="4" fill="#3b82f6" stroke="#0d1117" stroke-width="2" class="data-point"/>
  
    <circle cx="100.38461538461539" cy="333.1106811145511" r="4" fill="#3b82f6" stroke="#0d1117" stroke-width="2" class="data-point"/>
  
    <circle cx="104.87179487179486" cy="332.1656346749226" r="4" fill="#3b82f6" stroke="#0d1117" stroke-width="2" class="data-point"/>
  
    <circle cx="109.35897435897436" cy="331.1532507739938" r="4" fill="#3b82f6" stroke="#0d1117" stroke-width="2" class="data-point"/>
  
    <circle cx="113.84615384615384" cy="330.23374613003097" r="4" fill="#3b82f6" stroke="#0d1117" stroke-width="2" class="data-point"/>
  
    <circle cx="118.33333333333333" cy="329.25619195046437" r="4" fill="#3b82f6" stroke="#0d1117" stroke-width="2" class="data-point"/>
  
    <circle cx="122.82051282051282" cy="328.54334365325076" r="4" fill="#3b82f6" stroke="#0d1117" stroke-width="2" class="data-point"/>
  
    <circle cx="127.3076923076923" cy="327.80495356037153" r="4" fill="#3b82f6" stroke="#0d1117" stroke-width="2" class="data-point"/>
  
    <circle cx="131.7948717948718" cy="326.8018575851393" r="4" fill="#3b82f6" stroke="#0d1117" stroke-width="2" class="data-point"/>
  
    <circle cx="136.28205128205127" cy="326.13080495356036" r="4" fill="#3b82f6" stroke="#0d1117" stroke-width="2" class="data-point"/>
  
    <circle cx="140.76923076923077" cy="325.2020123839009" r="4" fill="#3b82f6" stroke="#0d1117" stroke-width="2" class="data-point"/>
  
    <circle cx="145.25641025641025" cy="324.12925696594425" r="4" fill="#3b82f6" stroke="#0d1117" stroke-width="2" class="data-point"/>
  
    <circle cx="149.74358974358972" cy="323.32120743034056" r="4" fill="#3b82f6" stroke="#0d1117" stroke-width="2" class="data-point"/>
  
    <circle cx="154.23076923076923" cy="322.65712074303406" r="4" fill="#3b82f6" stroke="#0d1117" stroke-width="2" class="data-point"/>
  
    <circle cx="158.71794871794873" cy="322.22755417956654" r="4" fill="#3b82f6" stroke="#0d1117" stroke-width="2" class="data-point"/>
  
    <circle cx="163.2051282051282" cy="321.86996904024767" r="4" fill="#3b82f6" stroke="#0d1117" stroke-width="2" class="data-point"/>
  
    <circle cx="167.69230769230768" cy="321.20820433436535" r="4" fill="#3b82f6" stroke="#0d1117" stroke-width="2" class="data-point"/>
  
    <circle cx="172.17948717948718" cy="320.7368421052632" r="4" fill="#3b82f6" stroke="#0d1117" stroke-width="2" class="data-point"/>
  
    <circle cx="176.66666666666666" cy="319.703560371517" r="4" fill="#3b82f6" stroke="#0d1117" stroke-width="2" class="data-point"/>
  
    <circle cx="181.15384615384613" cy="319.297213622291" r="4" fill="#3b82f6" stroke="#0d1117" stroke-width="2" class="data-point"/>
  
    <circle cx="185.64102564102564" cy="318.77244582043346" r="4" fill="#3b82f6" stroke="#0d1117" stroke-width="2" class="data-point"/>
  
    <circle cx="190.12820512820514" cy="318.09442724458205" r="4" fill="#3b82f6" stroke="#0d1117" stroke-width="2" class="data-point"/>
  
    <circle cx="194.6153846153846" cy="317.63003095975233" r="4" fill="#3b82f6" stroke="#0d1117" stroke-width="2" class="data-point"/>
  
    <circle cx="199.1025641025641" cy="317.15866873065016" r="4" fill="#3b82f6" stroke="#0d1117" stroke-width="2" class="data-point"/>
  
    <circle cx="203.5897435897436" cy="316.6640866873065" r="4" fill="#3b82f6" stroke="#0d1117" stroke-width="2" class="data-point"/>
  
    <circle cx="208.07692307692307" cy="316.3204334365325" r="4" fill="#3b82f6" stroke="#0d1117" stroke-width="2" class="data-point"/>
  
    <circle cx="212.56410256410257" cy="316.0232198142415" r="4" fill="#3b82f6" stroke="#0d1117" stroke-width="2" class="data-point"/>
  
    <circle cx="217.05128205128204" cy="315.57043343653254" r="4" fill="#3b82f6" stroke="#0d1117" stroke-width="2" class="data-point"/>
  
    <circle cx="221.53846153846155" cy="315.0201238390093" r="4" fill="#3b82f6" stroke="#0d1117" stroke-width="2" class="data-point"/>
  
    <circle cx="226.02564102564102" cy="314.5139318885449" r="4" fill="#3b82f6" stroke="#0d1117" stroke-width="2" class="data-point"/>
  
    <circle cx="230.5128205128205" cy="313.8730650154799" r="4" fill="#3b82f6" stroke="#0d1117" stroke-width="2" class="data-point"/>
  
    <circle cx="235" cy="313.1741486068112" r="4" fill="#3b82f6" stroke="#0d1117" stroke-width="2" class="data-point"/>
  
    <circle cx="239.48717948717947" cy="312.53328173374615" r="4" fill="#3b82f6" stroke="#0d1117" stroke-width="2" class="data-point"/>
  
    <circle cx="243.97435897435898" cy="311.76006191950466" r="4" fill="#3b82f6" stroke="#0d1117" stroke-width="2" class="data-point"/>
  
    <circle cx="248.46153846153845" cy="311.000773993808" r="4" fill="#3b82f6" stroke="#0d1117" stroke-width="2" class="data-point"/>
  
    <circle cx="252.94871794871796" cy="310.24148606811144" r="4" fill="#3b82f6" stroke="#0d1117" stroke-width="2" class="data-point"/>
  
    <circle cx="257.43589743589746" cy="309.41021671826627" r="4" fill="#3b82f6" stroke="#0d1117" stroke-width="2" class="data-point"/>
  
    <circle cx="261.9230769230769" cy="308.61609907120743" r="4" fill="#3b82f6" stroke="#0d1117" stroke-width="2" class="data-point"/>
  
    <circle cx="266.4102564102564" cy="307.70820433436535" r="4" fill="#3b82f6" stroke="#0d1117" stroke-width="2" class="data-point"/>
  
    <circle cx="270.8974358974359" cy="306.8978328173375" r="4" fill="#3b82f6" stroke="#0d1117" stroke-width="2" class="data-point"/>
  
    <circle cx="275.38461538461536" cy="306.2128482972136" r="4" fill="#3b82f6" stroke="#0d1117" stroke-width="2" class="data-point"/>
  
    <circle cx="279.87179487179486" cy="305.66486068111453" r="4" fill="#3b82f6" stroke="#0d1117" stroke-width="2" class="data-point"/>
  
    <circle cx="284.35897435897436" cy="304.8986068111455" r="4" fill="#3b82f6" stroke="#0d1117" stroke-width="2" class="data-point"/>
  
    <circle cx="288.8461538461538" cy="304.0232198142415" r="4" fill="#3b82f6" stroke="#0d1117" stroke-width="2" class="data-point"/>
  
    <circle cx="293.3333333333333" cy="303.2221362229102" r="4" fill="#3b82f6" stroke="#0d1117" stroke-width="2" class="data-point"/>
  
    <circle cx="297.8205128205128" cy="302.2863777089783" r="4" fill="#3b82f6" stroke="#0d1117" stroke-width="2" class="data-point"/>
  
    <circle cx="302.30769230769226" cy="301.13235294117646" r="4" fill="#3b82f6" stroke="#0d1117" stroke-width="2" class="data-point"/>
  
    <circle cx="306.7948717948718" cy="300.2732198142415" r="4" fill="#3b82f6" stroke="#0d1117" stroke-width="2" class="data-point"/>
  
    <circle cx="311.28205128205127" cy="299.5603715170279" r="4" fill="#3b82f6" stroke="#0d1117" stroke-width="2" class="data-point"/>
  
    <circle cx="315.7692307692307" cy="298.88235294117646" r="4" fill="#3b82f6" stroke="#0d1117" stroke-width="2" class="data-point"/>
  
    <circle cx="320.2564102564103" cy="298.0673374613003" r="4" fill="#3b82f6" stroke="#0d1117" stroke-width="2" class="data-point"/>
  
    <circle cx="324.7435897435897" cy="297.11996904024767" r="4" fill="#3b82f6" stroke="#0d1117" stroke-width="2" class="data-point"/>
  
    <circle cx="329.2307692307692" cy="296.0704334365325" r="4" fill="#3b82f6" stroke="#0d1117" stroke-width="2" class="data-point"/>
  
    <circle cx="333.71794871794873" cy="294.96749226006193" r="4" fill="#3b82f6" stroke="#0d1117" stroke-width="2" class="data-point"/>
  
    <circle cx="338.2051282051282" cy="293.90866873065016" r="4" fill="#3b82f6" stroke="#0d1117" stroke-width="2" class="data-point"/>
  
    <circle cx="342.6923076923077" cy="292.9775541795666" r="4" fill="#3b82f6" stroke="#0d1117" stroke-width="2" class="data-point"/>
  
    <circle cx="347.1794871794872" cy="292.0534055727554" r="4" fill="#3b82f6" stroke="#0d1117" stroke-width="2" class="data-point"/>
  
    <circle cx="351.6666666666667" cy="291.2383900928793" r="4" fill="#3b82f6" stroke="#0d1117" stroke-width="2" class="data-point"/>
  
    <circle cx="356.15384615384613" cy="290.40712074303406" r="4" fill="#3b82f6" stroke="#0d1117" stroke-width="2" class="data-point"/>
  
    <circle cx="360.64102564102564" cy="289.4783281733746" r="4" fill="#3b82f6" stroke="#0d1117" stroke-width="2" class="data-point"/>
  
    <circle cx="365.12820512820514" cy="288.3219814241486" r="4" fill="#3b82f6" stroke="#0d1117" stroke-width="2" class="data-point"/>
  
    <circle cx="369.6153846153846" cy="287.4605263157895" r="4" fill="#3b82f6" stroke="#0d1117" stroke-width="2" class="data-point"/>
  
    <circle cx="374.1025641025641" cy="286.6896284829721" r="4" fill="#3b82f6" stroke="#0d1117" stroke-width="2" class="data-point"/>
  
    <circle cx="378.5897435897436" cy="285.8328173374613" r="4" fill="#3b82f6" stroke="#0d1117" stroke-width="2" class="data-point"/>
  
    <circle cx="383.0769230769231" cy="285.0340557275542" r="4" fill="#3b82f6" stroke="#0d1117" stroke-width="2" class="data-point"/>
  
    <circle cx="387.56410256410254" cy="284.15634674922603" r="4" fill="#3b82f6" stroke="#0d1117" stroke-width="2" class="data-point"/>
  
    <circle cx="392.05128205128204" cy="283.24148606811144" r="4" fill="#3b82f6" stroke="#0d1117" stroke-width="2" class="data-point"/>
  
    <circle cx="396.53846153846155" cy="282.28482972136226" r="4" fill="#3b82f6" stroke="#0d1117" stroke-width="2" class="data-point"/>
  
    <circle cx="401.025641025641" cy="281.4465944272446" r="4" fill="#3b82f6" stroke="#0d1117" stroke-width="2" class="data-point"/>
  
    <circle cx="405.51282051282055" cy="280.72910216718265" r="4" fill="#3b82f6" stroke="#0d1117" stroke-width="2" class="data-point"/>
  
    <circle cx="410" cy="279.9419504643963" r="4" fill="#3b82f6" stroke="#0d1117" stroke-width="2" class="data-point"/>
  
    <circle cx="414.48717948717945" cy="279.08978328173373" r="4" fill="#3b82f6" stroke="#0d1117" stroke-width="2" class="data-point"/>
  
    <circle cx="418.97435897435895" cy="278.3003095975232" r="4" fill="#3b82f6" stroke="#0d1117" stroke-width="2" class="data-point"/>
  
    <circle cx="423.4615384615385" cy="277.2716718266254" r="4" fill="#3b82f6" stroke="#0d1117" stroke-width="2" class="data-point"/>
  
    <circle cx="427.94871794871796" cy="276.3869969040248" r="4" fill="#3b82f6" stroke="#0d1117" stroke-width="2" class="data-point"/>
  
    <circle cx="432.43589743589746" cy="275.53482972136226" r="4" fill="#3b82f6" stroke="#0d1117" stroke-width="2" class="data-point"/>
  
    <circle cx="436.9230769230769" cy="274.8266253869969" r="4" fill="#3b82f6" stroke="#0d1117" stroke-width="2" class="data-point"/>
  
    <circle cx="441.41025641025635" cy="274.1393188854489" r="4" fill="#3b82f6" stroke="#0d1117" stroke-width="2" class="data-point"/>
  
    <circle cx="445.8974358974359" cy="273.4496904024768" r="4" fill="#3b82f6" stroke="#0d1117" stroke-width="2" class="data-point"/>
  
    <circle cx="450.3846153846154" cy="272.625386996904" r="4" fill="#3b82f6" stroke="#0d1117" stroke-width="2" class="data-point"/>
  
    <circle cx="454.87179487179486" cy="271.7778637770898" r="4" fill="#3b82f6" stroke="#0d1117" stroke-width="2" class="data-point"/>
  
    <circle cx="459.35897435897436" cy="270.749226006192" r="4" fill="#3b82f6" stroke="#0d1117" stroke-width="2" class="data-point"/>
  
    <circle cx="463.8461538461538" cy="269.9156346749226" r="4" fill="#3b82f6" stroke="#0d1117" stroke-width="2" class="data-point"/>
  
    <circle cx="468.33333333333337" cy="269.2352941176471" r="4" fill="#3b82f6" stroke="#0d1117" stroke-width="2" class="data-point"/>
  
    <circle cx="472.8205128205128" cy="268.5363777089783" r="4" fill="#3b82f6" stroke="#0d1117" stroke-width="2" class="data-point"/>
  
    <circle cx="477.3076923076923" cy="267.86764705882354" r="4" fill="#3b82f6" stroke="#0d1117" stroke-width="2" class="data-point"/>
  
    <circle cx="481.79487179487177" cy="267.0410216718266" r="4" fill="#3b82f6" stroke="#0d1117" stroke-width="2" class="data-point"/>
  
    <circle cx="486.28205128205127" cy="266.19349845201236" r="4" fill="#3b82f6" stroke="#0d1117" stroke-width="2" class="data-point"/>
  
    <circle cx="490.7692307692308" cy="264.31965944272446" r="4" fill="#3b82f6" stroke="#0d1117" stroke-width="2" class="data-point"/>
  
    <circle cx="495.2564102564103" cy="260.5905572755418" r="4" fill="#3b82f6" stroke="#0d1117" stroke-width="2" class="data-point"/>
  
    <circle cx="499.7435897435897" cy="256.1486068111455" r="4" fill="#3b82f6" stroke="#0d1117" stroke-width="2" class="data-point"/>
  
    <circle cx="504.2307692307692" cy="252.1013931888545" r="4" fill="#3b82f6" stroke="#0d1117" stroke-width="2" class="data-point"/>
  
    <circle cx="508.71794871794873" cy="250.0487616099071" r="4" fill="#3b82f6" stroke="#0d1117" stroke-width="2" class="data-point"/>
  
    <circle cx="513.2051282051282" cy="246.95588235294116" r="4" fill="#3b82f6" stroke="#0d1117" stroke-width="2" class="data-point"/>
  
    <circle cx="517.6923076923076" cy="244.90092879256966" r="4" fill="#3b82f6" stroke="#0d1117" stroke-width="2" class="data-point"/>
  
    <circle cx="522.1794871794872" cy="243.09907120743034" r="4" fill="#3b82f6" stroke="#0d1117" stroke-width="2" class="data-point"/>
  
    <circle cx="526.6666666666666" cy="241.33668730650155" r="4" fill="#3b82f6" stroke="#0d1117" stroke-width="2" class="data-point"/>
  
    <circle cx="531.1538461538462" cy="239.6764705882353" r="4" fill="#3b82f6" stroke="#0d1117" stroke-width="2" class="data-point"/>
  
    <circle cx="535.6410256410256" cy="237.09442724458205" r="4" fill="#3b82f6" stroke="#0d1117" stroke-width="2" class="data-point"/>
  
    <circle cx="540.1282051282051" cy="235.04179566563468" r="4" fill="#3b82f6" stroke="#0d1117" stroke-width="2" class="data-point"/>
  
    <circle cx="544.6153846153845" cy="232.41795665634675" r="4" fill="#3b82f6" stroke="#0d1117" stroke-width="2" class="data-point"/>
  
    <circle cx="549.1025641025641" cy="231.8815789473684" r="4" fill="#3b82f6" stroke="#0d1117" stroke-width="2" class="data-point"/>
  
    <circle cx="553.5897435897436" cy="231.81191950464395" r="4" fill="#3b82f6" stroke="#0d1117" stroke-width="2" class="data-point"/>
  
    <circle cx="558.0769230769231" cy="231.72136222910217" r="4" fill="#3b82f6" stroke="#0d1117" stroke-width="2" class="data-point"/>
  
    <circle cx="562.5641025641025" cy="231.64473684210526" r="4" fill="#3b82f6" stroke="#0d1117" stroke-width="2" class="data-point"/>
  
    <circle cx="567.051282051282" cy="231.54489164086687" r="4" fill="#3b82f6" stroke="#0d1117" stroke-width="2" class="data-point"/>
  
    <circle cx="571.5384615384614" cy="231.45665634674924" r="4" fill="#3b82f6" stroke="#0d1117" stroke-width="2" class="data-point"/>
  
    <circle cx="576.0256410256411" cy="231.42182662538698" r="4" fill="#3b82f6" stroke="#0d1117" stroke-width="2" class="data-point"/>
  
    <circle cx="580.5128205128206" cy="231.29411764705884" r="4" fill="#3b82f6" stroke="#0d1117" stroke-width="2" class="data-point"/>
  
    <circle cx="585" cy="231.17105263157896" r="4" fill="#3b82f6" stroke="#0d1117" stroke-width="2" class="data-point"/>
  
    <circle cx="589.4871794871794" cy="231.08978328173376" r="4" fill="#3b82f6" stroke="#0d1117" stroke-width="2" class="data-point"/>
  
    <circle cx="593.9743589743589" cy="231.0595975232198" r="4" fill="#3b82f6" stroke="#0d1117" stroke-width="2" class="data-point"/>
  
    <circle cx="598.4615384615385" cy="230.92260061919507" r="4" fill="#3b82f6" stroke="#0d1117" stroke-width="2" class="data-point"/>
  
    <circle cx="602.948717948718" cy="227.55572755417955" r="4" fill="#3b82f6" stroke="#0d1117" stroke-width="2" class="data-point"/>
  
    <circle cx="607.4358974358975" cy="222.28250773993807" r="4" fill="#3b82f6" stroke="#0d1117" stroke-width="2" class="data-point"/>
  
    <circle cx="611.9230769230769" cy="218.75077399380802" r="4" fill="#3b82f6" stroke="#0d1117" stroke-width="2" class="data-point"/>
  
    <circle cx="616.4102564102564" cy="214.6501547987616" r="4" fill="#3b82f6" stroke="#0d1117" stroke-width="2" class="data-point"/>
  
    <circle cx="620.8974358974359" cy="210.42414860681114" r="4" fill="#3b82f6" stroke="#0d1117" stroke-width="2" class="data-point"/>
  
    <circle cx="625.3846153846154" cy="207.10835913312692" r="4" fill="#3b82f6" stroke="#0d1117" stroke-width="2" class="data-point"/>
  
    <circle cx="629.8717948717949" cy="203.4001547987616" r="4" fill="#3b82f6" stroke="#0d1117" stroke-width="2" class="data-point"/>
  
    <circle cx="634.3589743589744" cy="197.75077399380805" r="4" fill="#3b82f6" stroke="#0d1117" stroke-width="2" class="data-point"/>
  
    <circle cx="638.8461538461538" cy="190.13699690402478" r="4" fill="#3b82f6" stroke="#0d1117" stroke-width="2" class="data-point"/>
  
    <circle cx="643.3333333333334" cy="185.16795665634675" r="4" fill="#3b82f6" stroke="#0d1117" stroke-width="2" class="data-point"/>
  
    <circle cx="647.8205128205128" cy="179.25386996904024" r="4" fill="#3b82f6" stroke="#0d1117" stroke-width="2" class="data-point"/>
  
    <circle cx="652.3076923076923" cy="172.66408668730648" r="4" fill="#3b82f6" stroke="#0d1117" stroke-width="2" class="data-point"/>
  
    <circle cx="656.7948717948718" cy="167.37925696594428" r="4" fill="#3b82f6" stroke="#0d1117" stroke-width="2" class="data-point"/>
  
    <circle cx="661.2820512820513" cy="161.6439628482972" r="4" fill="#3b82f6" stroke="#0d1117" stroke-width="2" class="data-point"/>
  
    <circle cx="665.7692307692308" cy="156.5565015479876" r="4" fill="#3b82f6" stroke="#0d1117" stroke-width="2" class="data-point"/>
  
    <circle cx="670.2564102564103" cy="151.515479876161" r="4" fill="#3b82f6" stroke="#0d1117" stroke-width="2" class="data-point"/>
  
    <circle cx="674.7435897435897" cy="146.48839009287926" r="4" fill="#3b82f6" stroke="#0d1117" stroke-width="2" class="data-point"/>
  
    <circle cx="679.2307692307692" cy="139.64318885448915" r="4" fill="#3b82f6" stroke="#0d1117" stroke-width="2" class="data-point"/>
  
    <circle cx="683.7179487179487" cy="132.77708978328172" r="4" fill="#3b82f6" stroke="#0d1117" stroke-width="2" class="data-point"/>
  
    <circle cx="688.2051282051282" cy="127.05340557275542" r="4" fill="#3b82f6" stroke="#0d1117" stroke-width="2" class="data-point"/>
  
    <circle cx="692.6923076923077" cy="122.2561919504644" r="4" fill="#3b82f6" stroke="#0d1117" stroke-width="2" class="data-point"/>
  
    <circle cx="697.1794871794872" cy="117.60294117647061" r="4" fill="#3b82f6" stroke="#0d1117" stroke-width="2" class="data-point"/>
  
    <circle cx="701.6666666666666" cy="111.4264705882353" r="4" fill="#3b82f6" stroke="#0d1117" stroke-width="2" class="data-point"/>
  
    <circle cx="706.1538461538462" cy="106.6362229102167" r="4" fill="#3b82f6" stroke="#0d1117" stroke-width="2" class="data-point"/>
  
    <circle cx="710.6410256410256" cy="101.89705882352942" r="4" fill="#3b82f6" stroke="#0d1117" stroke-width="2" class="data-point"/>
  
    <circle cx="715.1282051282051" cy="97.46439628482972" r="4" fill="#3b82f6" stroke="#0d1117" stroke-width="2" class="data-point"/>
  
    <circle cx="719.6153846153846" cy="93.28947368421055" r="4" fill="#3b82f6" stroke="#0d1117" stroke-width="2" class="data-point"/>
  
    <circle cx="724.1025641025641" cy="89.0123839009288" r="4" fill="#3b82f6" stroke="#0d1117" stroke-width="2" class="data-point"/>
  
    <circle cx="728.5897435897436" cy="85.35526315789474" r="4" fill="#3b82f6" stroke="#0d1117" stroke-width="2" class="data-point"/>
  
    <circle cx="733.0769230769231" cy="81.56811145510835" r="4" fill="#3b82f6" stroke="#0d1117" stroke-width="2" class="data-point"/>
  
    <circle cx="737.5641025641025" cy="77.70201238390092" r="4" fill="#3b82f6" stroke="#0d1117" stroke-width="2" class="data-point"/>
  
    <circle cx="742.051282051282" cy="73.61532507739935" r="4" fill="#3b82f6" stroke="#0d1117" stroke-width="2" class="data-point"/>
  
    <circle cx="746.5384615384615" cy="69.8653250773994" r="4" fill="#3b82f6" stroke="#0d1117" stroke-width="2" class="data-point"/>
  
    <circle cx="751.0256410256411" cy="66.43111455108362" r="4" fill="#3b82f6" stroke="#0d1117" stroke-width="2" class="data-point"/>
  
    <circle cx="755.5128205128206" cy="60.20820433436535" r="4" fill="#3b82f6" stroke="#0d1117" stroke-width="2" class="data-point"/>
  
    <circle cx="760" cy="55" r="4" fill="#3b82f6" stroke="#0d1117" stroke-width="2" class="data-point"/>
  

  <!-- Axis lines -->
  <line x1="60" y1="55" x2="60" y2="340"
        stroke="#30363d" stroke-width="2"/>
  <line x1="60" y1="340" x2="760" y2="340"
        stroke="#30363d" stroke-width="2"/>
</svg>