<?xml version="1.0" encoding="UTF-8"?>
<svg width="800" height="400" xmlns="http://www.w3.org/2000/svg">
  <defs>
    <!-- Gradient for area fill -->
    <linearGradient id="areaGradient" x1="0%" y1="0%" x2="0%" y2="100%">
      <stop offset="0%" style="stop-color:#3b82f6;stop-opacity:0.3" />
      <stop offset="100%" style="stop-color:#3b82f6;stop-opacity:0.05" />
    </linearGradient>

    <!-- Glow filter for line -->
    <filter id="glow">
      <feGaussianBlur stdDeviation="2" result="coloredBlur"/>
      <feMerge>
        <feMergeNode in="coloredBlur"/>
        <feMergeNode in="SourceGraphic"/>
      </feMerge>
    </filter>

    <!-- Animation -->
    <style>
      @keyframes draw {
        from { stroke-dashoffset: 2000; }
        to { stroke-dashoffset: 0; }
      }
      @keyframes fadeIn {
        from { opacity: 0; }
        to { opacity: 1; }
      }
      .line-path {
        stroke-dasharray: 2000;
        stroke-dashoffset: 2000;
        animation: draw 1.5s ease-out forwards;
      }
      .area-path {
        opacity: 0;
        animation: fadeIn 1s ease-out 0.5s forwards;
      }
      .data-point {
        opacity: 0;
        animation: fadeIn 0.5s ease-out 1s forwards;
      }
    </style>
  </defs>

  <!-- Background -->
  <rect width="800" height="400" fill="#0d1117" rx="8"/>

  <!-- Title -->
  <text x="400" y="25" text-anchor="middle" fill="#c9d1d9" font-family="system-ui, -apple-system, sans-serif" font-size="16" font-weight="600">
    zxcloli666/SoundCloud-Desktop Downloads
  </text>

  <!-- Stats -->
  <text x="780" y="25" text-anchor="end" fill="#58a6ff" font-family="system-ui, -apple-system, sans-serif" font-size="14" font-weight="600">
    129.4K total
  </text>
  <text x="780" y="42" text-anchor="end" fill="#3fb950" font-family="system-ui, -apple-system, sans-serif" font-size="12">
    +2.5K (+2.0%)
  </text>

  <!-- Grid lines -->
  <g opacity="0.1">
    
      <line x1="60" y1="340" x2="760" y2="340"
            stroke="#c9d1d9" stroke-width="1"/>
    
      <line x1="60" y1="268.75" x2="760" y2="268.75"
            stroke="#c9d1d9" stroke-width="1"/>
    
      <line x1="60" y1="197.5" x2="760" y2="197.5"
            stroke="#c9d1d9" stroke-width="1"/>
    
      <line x1="60" y1="126.25" x2="760" y2="126.25"
            stroke="#c9d1d9" stroke-width="1"/>
    
      <line x1="60" y1="55" x2="760" y2="55"
            stroke="#c9d1d9" stroke-width="1"/>
    
  </g>

  <!-- Y-axis labels -->
  
    <text x="50" y="344" text-anchor="end"
          fill="#8b949e" font-family="system-ui, -apple-system, sans-serif" font-size="11">
      60.2K
    </text>
  
    <text x="50" y="272.75" text-anchor="end"
          fill="#8b949e" font-family="system-ui, -apple-system, sans-serif" font-size="11">
      77.5K
    </text>
  
    <text x="50" y="201.5" text-anchor="end"
          fill="#8b949e" font-family="system-ui, -apple-system, sans-serif" font-size="11">
      94.8K
    </text>
  
    <text x="50" y="130.25" text-anchor="end"
          fill="#8b949e" font-family="system-ui, -apple-system, sans-serif" font-size="11">
      112.1K
    </text>
  
    <text x="50" y="59" text-anchor="end"
          fill="#8b949e" font-family="system-ui, -apple-system, sans-serif" font-size="11">
      129.4K
    </text>
  

  <!-- X-axis labels -->
  
    <text x="60" y="360" text-anchor="middle"
          fill="#8b949e" font-family="system-ui, -apple-system, sans-serif" font-size="11">
      Nov 25
    </text>
  
    <text x="145.49618320610688" y="360" text-anchor="middle"
          fill="#8b949e" font-family="system-ui, -apple-system, sans-serif" font-size="11">
      Dec 11
    </text>
  
    <text x="230.99236641221373" y="360" text-anchor="middle"
          fill="#8b949e" font-family="system-ui, -apple-system, sans-serif" font-size="11">
      Dec 27
    </text>
  
    <text x="316.48854961832063" y="360" text-anchor="middle"
          fill="#8b949e" font-family="system-ui, -apple-system, sans-serif" font-size="11">
      Jan 12
    </text>
  
    <text x="401.98473282442745" y="360" text-anchor="middle"
          fill="#8b949e" font-family="system-ui, -apple-system, sans-serif" font-size="11">
      Jan 28
    </text>
  
    <text x="487.4809160305344" y="360" text-anchor="middle"
          fill="#8b949e" font-family="system-ui, -apple-system, sans-serif" font-size="11">
      Feb 13
    </text>
  
    <text x="572.9770992366413" y="360" text-anchor="middle"
          fill="#8b949e" font-family="system-ui, -apple-system, sans-serif" font-size="11">
      Mar 1
    </text>
  
    <text x="658.4732824427481" y="360" text-anchor="middle"
          fill="#8b949e" font-family="system-ui, -apple-system, sans-serif" font-size="11">
      Mar 17
    </text>
  
    <text x="743.9694656488549" y="360" text-anchor="middle"
          fill="#8b949e" font-family="system-ui, -apple-system, sans-serif" font-size="11">
      Apr 2
    </text>
  
    <text x="760" y="360" text-anchor="middle"
          fill="#8b949e" font-family="system-ui, -apple-system, sans-serif" font-size="11">
      Apr 5
    </text>
  

  <!-- Area under line -->
  <path d="M 60 340
    L 60.00 340.00 L 65.34 339.39 L 70.69 338.37 L 76.03 337.41 L 81.37 335.51 L 86.72 333.55 L 92.06 332.01 L 97.40 330.57 L 102.75 329.29 L 108.09 327.79 L 113.44 326.11 L 118.78 324.31 L 124.12 322.68 L 129.47 320.95 L 134.81 319.69 L 140.15 318.38 L 145.50 316.60 L 150.84 315.41 L 156.18 313.76 L 161.53 311.86 L 166.87 310.43 L 172.21 309.25 L 177.56 308.49 L 182.90 307.86 L 188.24 306.68 L 193.59 305.85 L 198.93 304.01 L 204.27 303.29 L 209.62 302.36 L 214.96 301.16 L 220.31 300.34 L 225.65 299.50 L 230.99 298.63 L 236.34 298.02 L 241.68 297.49 L 247.02 296.69 L 252.37 295.71 L 257.71 294.81 L 263.05 293.68 L 268.40 292.44 L 273.74 291.30 L 279.08 289.93 L 284.43 288.58 L 289.77 287.24 L 295.11 285.76 L 300.46 284.36 L 305.80 282.75 L 311.15 281.31 L 316.49 280.10 L 321.83 279.12 L 327.18 277.77 L 332.52 276.21 L 337.86 274.79 L 343.21 273.13 L 348.55 271.09 L 353.89 269.57 L 359.24 268.30 L 364.58 267.10 L 369.92 265.65 L 375.27 263.97 L 380.61 262.11 L 385.95 260.16 L 391.30 258.28 L 396.64 256.63 L 401.98 254.99 L 407.33 253.55 L 412.67 252.07 L 418.02 250.43 L 423.36 248.38 L 428.70 246.85 L 434.05 245.48 L 439.39 243.96 L 444.73 242.55 L 450.08 240.99 L 455.42 239.37 L 460.76 237.67 L 466.11 236.19 L 471.45 234.91 L 476.79 233.52 L 482.14 232.01 L 487.48 230.61 L 492.82 228.78 L 498.17 227.22 L 503.51 225.70 L 508.85 224.45 L 514.20 223.23 L 519.54 222.01 L 524.89 220.55 L 530.23 219.04 L 535.57 217.22 L 540.92 215.74 L 546.26 214.54 L 551.60 213.30 L 556.95 212.11 L 562.29 210.65 L 567.63 209.14 L 572.98 205.82 L 578.32 199.21 L 583.66 191.33 L 589.01 184.16 L 594.35 180.52 L 599.69 175.03 L 605.04 171.39 L 610.38 168.20 L 615.73 165.07 L 621.07 162.13 L 626.41 157.55 L 631.76 153.91 L 637.10 149.26 L 642.44 148.31 L 647.79 148.18 L 653.13 148.02 L 658.47 147.89 L 663.82 147.71 L 669.16 147.55 L 674.50 147.49 L 679.85 147.27 L 685.19 147.05 L 690.53 146.90 L 695.88 146.85 L 701.22 146.61 L 706.56 140.64 L 711.91 131.29 L 717.25 125.03 L 722.60 117.76 L 727.94 110.26 L 733.28 104.39 L 738.63 97.81 L 743.97 87.79 L 749.31 74.30 L 754.66 65.49 L 760.00 55.00
    L 760 340
    Z" fill="url(#areaGradient)" class="area-path"/>

  <!-- Main line with glow -->
  <path d="M 60.00 340.00 L 65.34 339.39 L 70.69 338.37 L 76.03 337.41 L 81.37 335.51 L 86.72 333.55 L 92.06 332.01 L 97.40 330.57 L 102.75 329.29 L 108.09 327.79 L 113.44 326.11 L 118.78 324.31 L 124.12 322.68 L 129.47 320.95 L 134.81 319.69 L 140.15 318.38 L 145.50 316.60 L 150.84 315.41 L 156.18 313.76 L 161.53 311.86 L 166.87 310.43 L 172.21 309.25 L 177.56 308.49 L 182.90 307.86 L 188.24 306.68 L 193.59 305.85 L 198.93 304.01 L 204.27 303.29 L 209.62 302.36 L 214.96 301.16 L 220.31 300.34 L 225.65 299.50 L 230.99 298.63 L 236.34 298.02 L 241.68 297.49 L 247.02 296.69 L 252.37 295.71 L 257.71 294.81 L 263.05 293.68 L 268.40 292.44 L 273.74 291.30 L 279.08 289.93 L 284.43 288.58 L 289.77 287.24 L 295.11 285.76 L 300.46 284.36 L 305.80 282.75 L 311.15 281.31 L 316.49 280.10 L 321.83 279.12 L 327.18 277.77 L 332.52 276.21 L 337.86 274.79 L 343.21 273.13 L 348.55 271.09 L 353.89 269.57 L 359.24 268.30 L 364.58 267.10 L 369.92 265.65 L 375.27 263.97 L 380.61 262.11 L 385.95 260.16 L 391.30 258.28 L 396.64 256.63 L 401.98 254.99 L 407.33 253.55 L 412.67 252.07 L 418.02 250.43 L 423.36 248.38 L 428.70 246.85 L 434.05 245.48 L 439.39 243.96 L 444.73 242.55 L 450.08 240.99 L 455.42 239.37 L 460.76 237.67 L 466.11 236.19 L 471.45 234.91 L 476.79 233.52 L 482.14 232.01 L 487.48 230.61 L 492.82 228.78 L 498.17 227.22 L 503.51 225.70 L 508.85 224.45 L 514.20 223.23 L 519.54 222.01 L 524.89 220.55 L 530.23 219.04 L 535.57 217.22 L 540.92 215.74 L 546.26 214.54 L 551.60 213.30 L 556.95 212.11 L 562.29 210.65 L 567.63 209.14 L 572.98 205.82 L 578.32 199.21 L 583.66 191.33 L 589.01 184.16 L 594.35 180.52 L 599.69 175.03 L 605.04 171.39 L 610.38 168.20 L 615.73 165.07 L 621.07 162.13 L 626.41 157.55 L 631.76 153.91 L 637.10 149.26 L 642.44 148.31 L 647.79 148.18 L 653.13 148.02 L 658.47 147.89 L 663.82 147.71 L 669.16 147.55 L 674.50 147.49 L 679.85 147.27 L 685.19 147.05 L 690.53 146.90 L 695.88 146.85 L 701.22 146.61 L 706.56 140.64 L 711.91 131.29 L 717.25 125.03 L 722.60 117.76 L 727.94 110.26 L 733.28 104.39 L 738.63 97.81 L 743.97 87.79 L 749.31 74.30 L 754.66 65.49 L 760.00 55.00" fill="none" stroke="#3b82f6" stroke-width="3"
        stroke-linecap="round" stroke-linejoin="round" filter="url(#glow)" class="line-path"/>

  <!-- Data points -->
  
    <circle cx="60" cy="340" r="4" fill="#3b82f6" stroke="#0d1117" stroke-width="2" class="data-point"/>
  
    <circle cx="65.34351145038168" cy="339.3948257930317" r="4" fill="#3b82f6" stroke="#0d1117" stroke-width="2" class="data-point"/>
  
    <circle cx="70.68702290076335" cy="338.36561795805164" r="4" fill="#3b82f6" stroke="#0d1117" stroke-width="2" class="data-point"/>
  
    <circle cx="76.03053435114504" cy="337.41051308719017" r="4" fill="#3b82f6" stroke="#0d1117" stroke-width="2" class="data-point"/>
  
    <circle cx="81.37404580152672" cy="335.5126538394869" r="4" fill="#3b82f6" stroke="#0d1117" stroke-width="2" class="data-point"/>
  
    <circle cx="86.7175572519084" cy="333.5530421216849" r="4" fill="#3b82f6" stroke="#0d1117" stroke-width="2" class="data-point"/>
  
    <circle cx="92.06106870229007" cy="332.0092303692148" r="4" fill="#3b82f6" stroke="#0d1117" stroke-width="2" class="data-point"/>
  
    <circle cx="97.40458015267176" cy="330.5683394002427" r="4" fill="#3b82f6" stroke="#0d1117" stroke-width="2" class="data-point"/>
  
    <circle cx="102.74809160305344" cy="329.28800485352747" r="4" fill="#3b82f6" stroke="#0d1117" stroke-width="2" class="data-point"/>
  
    <circle cx="108.09160305343511" cy="327.7853614144566" r="4" fill="#3b82f6" stroke="#0d1117" stroke-width="2" class="data-point"/>
  
    <circle cx="113.4351145038168" cy="326.109811059109" r="4" fill="#3b82f6" stroke="#0d1117" stroke-width="2" class="data-point"/>
  
    <circle cx="118.77862595419847" cy="324.3148725949038" r="4" fill="#3b82f6" stroke="#0d1117" stroke-width="2" class="data-point"/>
  
    <circle cx="124.12213740458016" cy="322.68460738429536" r="4" fill="#3b82f6" stroke="#0d1117" stroke-width="2" class="data-point"/>
  
    <circle cx="129.46564885496184" cy="320.95142139018895" r="4" fill="#3b82f6" stroke="#0d1117" stroke-width="2" class="data-point"/>
  
    <circle cx="134.8091603053435" cy="319.6875541688334" r="4" fill="#3b82f6" stroke="#0d1117" stroke-width="2" class="data-point"/>
  
    <circle cx="140.15267175572518" cy="318.3784018027388" r="4" fill="#3b82f6" stroke="#0d1117" stroke-width="2" class="data-point"/>
  
    <circle cx="145.49618320610688" cy="316.59993066389325" r="4" fill="#3b82f6" stroke="#0d1117" stroke-width="2" class="data-point"/>
  
    <circle cx="150.83969465648855" cy="315.4101664066563" r="4" fill="#3b82f6" stroke="#0d1117" stroke-width="2" class="data-point"/>
  
    <circle cx="156.18320610687022" cy="313.7634338706882" r="4" fill="#3b82f6" stroke="#0d1117" stroke-width="2" class="data-point"/>
  
    <circle cx="161.5267175572519" cy="311.861457791645" r="4" fill="#3b82f6" stroke="#0d1117" stroke-width="2" class="data-point"/>
  
    <circle cx="166.8702290076336" cy="310.4288004853527" r="4" fill="#3b82f6" stroke="#0d1117" stroke-width="2" class="data-point"/>
  
    <circle cx="172.21374045801525" cy="309.2513867221355" r="4" fill="#3b82f6" stroke="#0d1117" stroke-width="2" class="data-point"/>
  
    <circle cx="177.55725190839695" cy="308.4897729242503" r="4" fill="#3b82f6" stroke="#0d1117" stroke-width="2" class="data-point"/>
  
    <circle cx="182.90076335877862" cy="307.8557808979026" r="4" fill="#3b82f6" stroke="#0d1117" stroke-width="2" class="data-point"/>
  
    <circle cx="188.24427480916032" cy="306.6824839660253" r="4" fill="#3b82f6" stroke="#0d1117" stroke-width="2" class="data-point"/>
  
    <circle cx="193.58778625954199" cy="305.8467672040215" r="4" fill="#3b82f6" stroke="#0d1117" stroke-width="2" class="data-point"/>
  
    <circle cx="198.93129770992365" cy="304.014777257757" r="4" fill="#3b82f6" stroke="#0d1117" stroke-width="2" class="data-point"/>
  
    <circle cx="204.27480916030535" cy="303.2943317732709" r="4" fill="#3b82f6" stroke="#0d1117" stroke-width="2" class="data-point"/>
  
    <circle cx="209.61832061068702" cy="302.36392789044896" r="4" fill="#3b82f6" stroke="#0d1117" stroke-width="2" class="data-point"/>
  
    <circle cx="214.96183206106872" cy="301.16181313919225" r="4" fill="#3b82f6" stroke="#0d1117" stroke-width="2" class="data-point"/>
  
    <circle cx="220.3053435114504" cy="300.3384468712082" r="4" fill="#3b82f6" stroke="#0d1117" stroke-width="2" class="data-point"/>
  
    <circle cx="225.64885496183206" cy="299.5027301092044" r="4" fill="#3b82f6" stroke="#0d1117" stroke-width="2" class="data-point"/>
  
    <circle cx="230.99236641221373" cy="298.62584503380134" r="4" fill="#3b82f6" stroke="#0d1117" stroke-width="2" class="data-point"/>
  
    <circle cx="236.3358778625954" cy="298.01655399549315" r="4" fill="#3b82f6" stroke="#0d1117" stroke-width="2" class="data-point"/>
  
    <circle cx="241.6793893129771" cy="297.48959958398336" r="4" fill="#3b82f6" stroke="#0d1117" stroke-width="2" class="data-point"/>
  
    <circle cx="247.0229007633588" cy="296.6868174726989" r="4" fill="#3b82f6" stroke="#0d1117" stroke-width="2" class="data-point"/>
  
    <circle cx="252.36641221374046" cy="295.7111284451378" r="4" fill="#3b82f6" stroke="#0d1117" stroke-width="2" class="data-point"/>
  
    <circle cx="257.70992366412213" cy="294.8136592130352" r="4" fill="#3b82f6" stroke="#0d1117" stroke-width="2" class="data-point"/>
  
    <circle cx="263.0534351145038" cy="293.6774137632172" r="4" fill="#3b82f6" stroke="#0d1117" stroke-width="2" class="data-point"/>
  
    <circle cx="268.3969465648855" cy="292.4382475299012" r="4" fill="#3b82f6" stroke="#0d1117" stroke-width="2" class="data-point"/>
  
    <circle cx="273.7404580152672" cy="291.3020020800832" r="4" fill="#3b82f6" stroke="#0d1117" stroke-width="2" class="data-point"/>
  
    <circle cx="279.08396946564886" cy="289.9310972438898" r="4" fill="#3b82f6" stroke="#0d1117" stroke-width="2" class="data-point"/>
  
    <circle cx="284.4274809160305" cy="288.58489339573583" r="4" fill="#3b82f6" stroke="#0d1117" stroke-width="2" class="data-point"/>
  
    <circle cx="289.7709923664122" cy="287.2386895475819" r="4" fill="#3b82f6" stroke="#0d1117" stroke-width="2" class="data-point"/>
  
    <circle cx="295.1145038167939" cy="285.7648639278905" r="4" fill="#3b82f6" stroke="#0d1117" stroke-width="2" class="data-point"/>
  
    <circle cx="300.4580152671756" cy="284.3569076096377" r="4" fill="#3b82f6" stroke="#0d1117" stroke-width="2" class="data-point"/>
  
    <circle cx="305.80152671755724" cy="282.7472265557289" r="4" fill="#3b82f6" stroke="#0d1117" stroke-width="2" class="data-point"/>
  
    <circle cx="311.14503816793894" cy="281.3104524180967" r="4" fill="#3b82f6" stroke="#0d1117" stroke-width="2" class="data-point"/>
  
    <circle cx="316.48854961832063" cy="280.09598717282023" r="4" fill="#3b82f6" stroke="#0d1117" stroke-width="2" class="data-point"/>
  
    <circle cx="321.8320610687023" cy="279.12441497659904" r="4" fill="#3b82f6" stroke="#0d1117" stroke-width="2" class="data-point"/>
  
    <circle cx="327.17557251908397" cy="277.7658606344254" r="4" fill="#3b82f6" stroke="#0d1117" stroke-width="2" class="data-point"/>
  
    <circle cx="332.5190839694656" cy="276.21381521927543" r="4" fill="#3b82f6" stroke="#0d1117" stroke-width="2" class="data-point"/>
  
    <circle cx="337.8625954198473" cy="274.79350840700295" r="4" fill="#3b82f6" stroke="#0d1117" stroke-width="2" class="data-point"/>
  
    <circle cx="343.206106870229" cy="273.1344253770151" r="4" fill="#3b82f6" stroke="#0d1117" stroke-width="2" class="data-point"/>
  
    <circle cx="348.5496183206107" cy="271.0883602010747" r="4" fill="#3b82f6" stroke="#0d1117" stroke-width="2" class="data-point"/>
  
    <circle cx="353.89312977099235" cy="269.5651326053042" r="4" fill="#3b82f6" stroke="#0d1117" stroke-width="2" class="data-point"/>
  
    <circle cx="359.23664122137404" cy="268.3012653839487" r="4" fill="#3b82f6" stroke="#0d1117" stroke-width="2" class="data-point"/>
  
    <circle cx="364.58015267175574" cy="267.099150632692" r="4" fill="#3b82f6" stroke="#0d1117" stroke-width="2" class="data-point"/>
  
    <circle cx="369.92366412213744" cy="265.65414283238" r="4" fill="#3b82f6" stroke="#0d1117" stroke-width="2" class="data-point"/>
  
    <circle cx="375.2671755725191" cy="263.9744756456925" r="4" fill="#3b82f6" stroke="#0d1117" stroke-width="2" class="data-point"/>
  
    <circle cx="380.6106870229008" cy="262.1136678800485" r="4" fill="#3b82f6" stroke="#0d1117" stroke-width="2" class="data-point"/>
  
    <circle cx="385.9541984732824" cy="260.1581729935864" r="4" fill="#3b82f6" stroke="#0d1117" stroke-width="2" class="data-point"/>
  
    <circle cx="391.2977099236641" cy="258.28089790258275" r="4" fill="#3b82f6" stroke="#0d1117" stroke-width="2" class="data-point"/>
  
    <circle cx="396.6412213740458" cy="256.63004853527474" r="4" fill="#3b82f6" stroke="#0d1117" stroke-width="2" class="data-point"/>
  
    <circle cx="401.98473282442745" cy="254.99154966198648" r="4" fill="#3b82f6" stroke="#0d1117" stroke-width="2" class="data-point"/>
  
    <circle cx="407.32824427480915" cy="253.54654186167446" r="4" fill="#3b82f6" stroke="#0d1117" stroke-width="2" class="data-point"/>
  
    <circle cx="412.6717557251908" cy="252.07271624198302" r="4" fill="#3b82f6" stroke="#0d1117" stroke-width="2" class="data-point"/>
  
    <circle cx="418.0152671755725" cy="250.4259837060149" r="4" fill="#3b82f6" stroke="#0d1117" stroke-width="2" class="data-point"/>
  
    <circle cx="423.3587786259542" cy="248.37580169873462" r="4" fill="#3b82f6" stroke="#0d1117" stroke-width="2" class="data-point"/>
  
    <circle cx="428.7022900763359" cy="246.84845727162417" r="4" fill="#3b82f6" stroke="#0d1117" stroke-width="2" class="data-point"/>
  
    <circle cx="434.0458015267176" cy="245.48166926677067" r="4" fill="#3b82f6" stroke="#0d1117" stroke-width="2" class="data-point"/>
  
    <circle cx="439.3893129770992" cy="243.96255850234007" r="4" fill="#3b82f6" stroke="#0d1117" stroke-width="2" class="data-point"/>
  
    <circle cx="444.7328244274809" cy="242.54636852140754" r="4" fill="#3b82f6" stroke="#0d1117" stroke-width="2" class="data-point"/>
  
    <circle cx="450.0763358778626" cy="240.99020627491765" r="4" fill="#3b82f6" stroke="#0d1117" stroke-width="2" class="data-point"/>
  
    <circle cx="455.4198473282443" cy="239.36817472698908" r="4" fill="#3b82f6" stroke="#0d1117" stroke-width="2" class="data-point"/>
  
    <circle cx="460.7633587786259" cy="237.67204021494194" r="4" fill="#3b82f6" stroke="#0d1117" stroke-width="2" class="data-point"/>
  
    <circle cx="466.1068702290076" cy="236.18586410123072" r="4" fill="#3b82f6" stroke="#0d1117" stroke-width="2" class="data-point"/>
  
    <circle cx="471.4503816793893" cy="234.91376321719537" r="4" fill="#3b82f6" stroke="#0d1117" stroke-width="2" class="data-point"/>
  
    <circle cx="476.793893129771" cy="233.5181573929624" r="4" fill="#3b82f6" stroke="#0d1117" stroke-width="2" class="data-point"/>
  
    <circle cx="482.1374045801527" cy="232.00728029121166" r="4" fill="#3b82f6" stroke="#0d1117" stroke-width="2" class="data-point"/>
  
    <circle cx="487.4809160305344" cy="230.60755763563876" r="4" fill="#3b82f6" stroke="#0d1117" stroke-width="2" class="data-point"/>
  
    <circle cx="492.82442748091603" cy="228.78380135205407" r="4" fill="#3b82f6" stroke="#0d1117" stroke-width="2" class="data-point"/>
  
    <circle cx="498.1679389312977" cy="227.21528861154445" r="4" fill="#3b82f6" stroke="#0d1117" stroke-width="2" class="data-point"/>
  
    <circle cx="503.51145038167937" cy="225.70441150979372" r="4" fill="#3b82f6" stroke="#0d1117" stroke-width="2" class="data-point"/>
  
    <circle cx="508.85496183206106" cy="224.44877795111805" r="4" fill="#3b82f6" stroke="#0d1117" stroke-width="2" class="data-point"/>
  
    <circle cx="514.1984732824427" cy="223.23019587450165" r="4" fill="#3b82f6" stroke="#0d1117" stroke-width="2" class="data-point"/>
  
    <circle cx="519.5419847328244" cy="222.00749696654532" r="4" fill="#3b82f6" stroke="#0d1117" stroke-width="2" class="data-point"/>
  
    <circle cx="524.8854961832061" cy="220.54602184087364" r="4" fill="#3b82f6" stroke="#0d1117" stroke-width="2" class="data-point"/>
  
    <circle cx="530.2290076335878" cy="219.04337840180273" r="4" fill="#3b82f6" stroke="#0d1117" stroke-width="2" class="data-point"/>
  
    <circle cx="535.5725190839695" cy="217.21962211821807" r="4" fill="#3b82f6" stroke="#0d1117" stroke-width="2" class="data-point"/>
  
    <circle cx="540.9160305343512" cy="215.7416796671867" r="4" fill="#3b82f6" stroke="#0d1117" stroke-width="2" class="data-point"/>
  
    <circle cx="546.2595419847328" cy="214.53544808459003" r="4" fill="#3b82f6" stroke="#0d1117" stroke-width="2" class="data-point"/>
  
    <circle cx="551.6030534351145" cy="213.29628185127405" r="4" fill="#3b82f6" stroke="#0d1117" stroke-width="2" class="data-point"/>
  
    <circle cx="556.9465648854962" cy="212.11063442537701" r="4" fill="#3b82f6" stroke="#0d1117" stroke-width="2" class="data-point"/>
  
    <circle cx="562.2900763358779" cy="210.6450424683654" r="4" fill="#3b82f6" stroke="#0d1117" stroke-width="2" class="data-point"/>
  
    <circle cx="567.6335877862596" cy="209.1423990292945" r="4" fill="#3b82f6" stroke="#0d1117" stroke-width="2" class="data-point"/>
  
    <circle cx="572.9770992366413" cy="205.82011613797886" r="4" fill="#3b82f6" stroke="#0d1117" stroke-width="2" class="data-point"/>
  
    <circle cx="578.320610687023" cy="199.2084850060669" r="4" fill="#3b82f6" stroke="#0d1117" stroke-width="2" class="data-point"/>
  
    <circle cx="583.6641221374045" cy="191.33298665279943" r="4" fill="#3b82f6" stroke="#0d1117" stroke-width="2" class="data-point"/>
  
    <circle cx="589.0076335877862" cy="184.15734962731844" r="4" fill="#3b82f6" stroke="#0d1117" stroke-width="2" class="data-point"/>
  
    <circle cx="594.3511450381679" cy="180.5180707228289" r="4" fill="#3b82f6" stroke="#0d1117" stroke-width="2" class="data-point"/>
  
    <circle cx="599.6946564885496" cy="175.03445137805514" r="4" fill="#3b82f6" stroke="#0d1117" stroke-width="2" class="data-point"/>
  
    <circle cx="605.0381679389312" cy="171.39105564222567" r="4" fill="#3b82f6" stroke="#0d1117" stroke-width="2" class="data-point"/>
  
    <circle cx="610.3816793893129" cy="168.19639452244755" r="4" fill="#3b82f6" stroke="#0d1117" stroke-width="2" class="data-point"/>
  
    <circle cx="615.7251908396946" cy="165.07171953544807" r="4" fill="#3b82f6" stroke="#0d1117" stroke-width="2" class="data-point"/>
  
    <circle cx="621.0687022900763" cy="162.1281851274051" r="4" fill="#3b82f6" stroke="#0d1117" stroke-width="2" class="data-point"/>
  
    <circle cx="626.412213740458" cy="157.55026867741375" r="4" fill="#3b82f6" stroke="#0d1117" stroke-width="2" class="data-point"/>
  
    <circle cx="631.7557251908397" cy="153.91098977292427" r="4" fill="#3b82f6" stroke="#0d1117" stroke-width="2" class="data-point"/>
  
    <circle cx="637.0992366412214" cy="149.25897035881434" r="4" fill="#3b82f6" stroke="#0d1117" stroke-width="2" class="data-point"/>
  
    <circle cx="642.4427480916031" cy="148.30798231929276" r="4" fill="#3b82f6" stroke="#0d1117" stroke-width="2" class="data-point"/>
  
    <circle cx="647.7862595419847" cy="148.18447737909514" r="4" fill="#3b82f6" stroke="#0d1117" stroke-width="2" class="data-point"/>
  
    <circle cx="653.1297709923664" cy="148.02392095683828" r="4" fill="#3b82f6" stroke="#0d1117" stroke-width="2" class="data-point"/>
  
    <circle cx="658.4732824427481" cy="147.8880655226209" r="4" fill="#3b82f6" stroke="#0d1117" stroke-width="2" class="data-point"/>
  
    <circle cx="663.8167938931298" cy="147.71104177500433" r="4" fill="#3b82f6" stroke="#0d1117" stroke-width="2" class="data-point"/>
  
    <circle cx="669.1603053435115" cy="147.55460218408737" r="4" fill="#3b82f6" stroke="#0d1117" stroke-width="2" class="data-point"/>
  
    <circle cx="674.5038167938932" cy="147.49284971398856" r="4" fill="#3b82f6" stroke="#0d1117" stroke-width="2" class="data-point"/>
  
    <circle cx="679.8473282442749" cy="147.26642399029296" r="4" fill="#3b82f6" stroke="#0d1117" stroke-width="2" class="data-point"/>
  
    <circle cx="685.1908396946566" cy="147.04823192927716" r="4" fill="#3b82f6" stroke="#0d1117" stroke-width="2" class="data-point"/>
  
    <circle cx="690.5343511450382" cy="146.90414283237996" r="4" fill="#3b82f6" stroke="#0d1117" stroke-width="2" class="data-point"/>
  
    <circle cx="695.8778625954199" cy="146.85062402496098" r="4" fill="#3b82f6" stroke="#0d1117" stroke-width="2" class="data-point"/>
  
    <circle cx="701.2213740458016" cy="146.6077309759057" r="4" fill="#3b82f6" stroke="#0d1117" stroke-width="2" class="data-point"/>
  
    <circle cx="706.5648854961833" cy="140.63832553302132" r="4" fill="#3b82f6" stroke="#0d1117" stroke-width="2" class="data-point"/>
  
    <circle cx="711.9083969465648" cy="131.28900156006242" r="4" fill="#3b82f6" stroke="#0d1117" stroke-width="2" class="data-point"/>
  
    <circle cx="717.2519083969465" cy="125.02730109204367" r="4" fill="#3b82f6" stroke="#0d1117" stroke-width="2" class="data-point"/>
  
    <circle cx="722.5954198473282" cy="117.7569769457445" r="4" fill="#3b82f6" stroke="#0d1117" stroke-width="2" class="data-point"/>
  
    <circle cx="727.9389312977099" cy="110.2643439070896" r="4" fill="#3b82f6" stroke="#0d1117" stroke-width="2" class="data-point"/>
  
    <circle cx="733.2824427480916" cy="104.3855087536835" r="4" fill="#3b82f6" stroke="#0d1117" stroke-width="2" class="data-point"/>
  
    <circle cx="738.6259541984732" cy="97.81092910383083" r="4" fill="#3b82f6" stroke="#0d1117" stroke-width="2" class="data-point"/>
  
    <circle cx="743.9694656488549" cy="87.79467845380483" r="4" fill="#3b82f6" stroke="#0d1117" stroke-width="2" class="data-point"/>
  
    <circle cx="749.3129770992366" cy="74.29558849020628" r="4" fill="#3b82f6" stroke="#0d1117" stroke-width="2" class="data-point"/>
  
    <circle cx="754.6564885496183" cy="65.4855694227769" r="4" fill="#3b82f6" stroke="#0d1117" stroke-width="2" class="data-point"/>
  
    <circle cx="760" cy="55" r="4" fill="#3b82f6" stroke="#0d1117" stroke-width="2" class="data-point"/>
  

  <!-- Axis lines -->
  <line x1="60" y1="55" x2="60" y2="340"
        stroke="#30363d" stroke-width="2"/>
  <line x1="60" y1="340" x2="760" y2="340"
        stroke="#30363d" stroke-width="2"/>
</svg>