<?xml version="1.0" encoding="UTF-8"?>
<svg width="800" height="400" xmlns="http://www.w3.org/2000/svg">
  <defs>
    <!-- Gradient for area fill -->
    <linearGradient id="areaGradient" x1="0%" y1="0%" x2="0%" y2="100%">
      <stop offset="0%" style="stop-color:#3b82f6;stop-opacity:0.3" />
      <stop offset="100%" style="stop-color:#3b82f6;stop-opacity:0.05" />
    </linearGradient>

    <!-- Glow filter for line -->
    <filter id="glow">
      <feGaussianBlur stdDeviation="2" result="coloredBlur"/>
      <feMerge>
        <feMergeNode in="coloredBlur"/>
        <feMergeNode in="SourceGraphic"/>
      </feMerge>
    </filter>

    <!-- Animation -->
    <style>
      @keyframes draw {
        from { stroke-dashoffset: 2000; }
        to { stroke-dashoffset: 0; }
      }
      @keyframes fadeIn {
        from { opacity: 0; }
        to { opacity: 1; }
      }
      .line-path {
        stroke-dasharray: 2000;
        stroke-dashoffset: 2000;
        animation: draw 1.5s ease-out forwards;
      }
      .area-path {
        opacity: 0;
        animation: fadeIn 1s ease-out 0.5s forwards;
      }
      .data-point {
        opacity: 0;
        animation: fadeIn 0.5s ease-out 1s forwards;
      }
    </style>
  </defs>

  <!-- Background -->
  <rect width="800" height="400" fill="#0d1117" rx="8"/>

  <!-- Title -->
  <text x="400" y="25" text-anchor="middle" fill="#c9d1d9" font-family="system-ui, -apple-system, sans-serif" font-size="16" font-weight="600">
    zxcloli666/SoundCloud-Desktop Downloads
  </text>

  <!-- Stats -->
  <text x="780" y="25" text-anchor="end" fill="#58a6ff" font-family="system-ui, -apple-system, sans-serif" font-size="14" font-weight="600">
    237.8K total
  </text>
  <text x="780" y="42" text-anchor="end" fill="#3fb950" font-family="system-ui, -apple-system, sans-serif" font-size="12">
    +976 (+0.4%)
  </text>

  <!-- Grid lines -->
  <g opacity="0.1">
    
      <line x1="60" y1="340" x2="760" y2="340"
            stroke="#c9d1d9" stroke-width="1"/>
    
      <line x1="60" y1="268.75" x2="760" y2="268.75"
            stroke="#c9d1d9" stroke-width="1"/>
    
      <line x1="60" y1="197.5" x2="760" y2="197.5"
            stroke="#c9d1d9" stroke-width="1"/>
    
      <line x1="60" y1="126.25" x2="760" y2="126.25"
            stroke="#c9d1d9" stroke-width="1"/>
    
      <line x1="60" y1="55" x2="760" y2="55"
            stroke="#c9d1d9" stroke-width="1"/>
    
  </g>

  <!-- Y-axis labels -->
  
    <text x="50" y="344" text-anchor="end"
          fill="#8b949e" font-family="system-ui, -apple-system, sans-serif" font-size="11">
      60.2K
    </text>
  
    <text x="50" y="272.75" text-anchor="end"
          fill="#8b949e" font-family="system-ui, -apple-system, sans-serif" font-size="11">
      104.6K
    </text>
  
    <text x="50" y="201.5" text-anchor="end"
          fill="#8b949e" font-family="system-ui, -apple-system, sans-serif" font-size="11">
      149.0K
    </text>
  
    <text x="50" y="130.25" text-anchor="end"
          fill="#8b949e" font-family="system-ui, -apple-system, sans-serif" font-size="11">
      193.4K
    </text>
  
    <text x="50" y="59" text-anchor="end"
          fill="#8b949e" font-family="system-ui, -apple-system, sans-serif" font-size="11">
      237.8K
    </text>
  

  <!-- X-axis labels -->
  
    <text x="60" y="360" text-anchor="middle"
          fill="#8b949e" font-family="system-ui, -apple-system, sans-serif" font-size="11">
      Nov 25
    </text>
  
    <text x="144.73684210526318" y="360" text-anchor="middle"
          fill="#8b949e" font-family="system-ui, -apple-system, sans-serif" font-size="11">
      Dec 18
    </text>
  
    <text x="229.47368421052633" y="360" text-anchor="middle"
          fill="#8b949e" font-family="system-ui, -apple-system, sans-serif" font-size="11">
      Jan 10
    </text>
  
    <text x="314.2105263157895" y="360" text-anchor="middle"
          fill="#8b949e" font-family="system-ui, -apple-system, sans-serif" font-size="11">
      Feb 2
    </text>
  
    <text x="398.94736842105266" y="360" text-anchor="middle"
          fill="#8b949e" font-family="system-ui, -apple-system, sans-serif" font-size="11">
      Feb 25
    </text>
  
    <text x="483.6842105263158" y="360" text-anchor="middle"
          fill="#8b949e" font-family="system-ui, -apple-system, sans-serif" font-size="11">
      Mar 20
    </text>
  
    <text x="568.421052631579" y="360" text-anchor="middle"
          fill="#8b949e" font-family="system-ui, -apple-system, sans-serif" font-size="11">
      Apr 12
    </text>
  
    <text x="653.1578947368421" y="360" text-anchor="middle"
          fill="#8b949e" font-family="system-ui, -apple-system, sans-serif" font-size="11">
      May 5
    </text>
  
    <text x="737.8947368421053" y="360" text-anchor="middle"
          fill="#8b949e" font-family="system-ui, -apple-system, sans-serif" font-size="11">
      May 28
    </text>
  
    <text x="760" y="360" text-anchor="middle"
          fill="#8b949e" font-family="system-ui, -apple-system, sans-serif" font-size="11">
      Jun 3
    </text>
  

  <!-- Area under line -->
  <path d="M 60 340
    L 60.00 340.00 L 63.68 339.76 L 67.37 339.36 L 71.05 338.99 L 74.74 338.25 L 78.42 337.49 L 82.11 336.89 L 85.79 336.32 L 89.47 335.82 L 93.16 335.24 L 96.84 334.59 L 100.53 333.89 L 104.21 333.25 L 107.89 332.58 L 111.58 332.08 L 115.26 331.57 L 118.95 330.88 L 122.63 330.42 L 126.32 329.77 L 130.00 329.03 L 133.68 328.47 L 137.37 328.02 L 141.05 327.72 L 144.74 327.47 L 148.42 327.01 L 152.11 326.69 L 155.79 325.97 L 159.47 325.69 L 163.16 325.33 L 166.84 324.86 L 170.53 324.54 L 174.21 324.22 L 177.89 323.87 L 181.58 323.64 L 185.26 323.43 L 188.95 323.12 L 192.63 322.74 L 196.32 322.39 L 200.00 321.95 L 203.68 321.46 L 207.37 321.02 L 211.05 320.49 L 214.74 319.96 L 218.42 319.44 L 222.11 318.86 L 225.79 318.31 L 229.47 317.69 L 233.16 317.13 L 236.84 316.65 L 240.53 316.27 L 244.21 315.74 L 247.89 315.14 L 251.58 314.59 L 255.26 313.94 L 258.95 313.14 L 262.63 312.55 L 266.32 312.06 L 270.00 311.59 L 273.68 311.02 L 277.37 310.37 L 281.05 309.64 L 284.74 308.88 L 288.42 308.15 L 292.11 307.51 L 295.79 306.87 L 299.47 306.30 L 303.16 305.73 L 306.84 305.09 L 310.53 304.29 L 314.21 303.69 L 317.89 303.16 L 321.58 302.57 L 325.26 302.02 L 328.95 301.41 L 332.63 300.78 L 336.32 300.12 L 340.00 299.54 L 343.68 299.04 L 347.37 298.50 L 351.05 297.91 L 354.74 297.36 L 358.42 296.65 L 362.11 296.04 L 365.79 295.45 L 369.47 294.96 L 373.16 294.49 L 376.84 294.01 L 380.53 293.44 L 384.21 292.86 L 387.89 292.15 L 391.58 291.57 L 395.26 291.10 L 398.95 290.62 L 402.63 290.15 L 406.32 289.58 L 410.00 289.00 L 413.68 287.70 L 417.37 285.13 L 421.05 282.06 L 424.74 279.26 L 428.42 277.84 L 432.11 275.70 L 435.79 274.28 L 439.47 273.04 L 443.16 271.82 L 446.84 270.67 L 450.53 268.89 L 454.21 267.47 L 457.89 265.66 L 461.58 265.29 L 465.26 265.24 L 468.95 265.18 L 472.63 265.12 L 476.32 265.06 L 480.00 264.99 L 483.68 264.97 L 487.37 264.88 L 491.05 264.80 L 494.74 264.74 L 498.42 264.72 L 502.11 264.63 L 505.79 262.30 L 509.47 258.65 L 513.16 256.21 L 516.84 253.38 L 520.53 250.46 L 524.21 248.17 L 527.89 245.61 L 531.58 241.70 L 535.26 236.44 L 538.95 233.01 L 542.63 228.92 L 546.32 224.37 L 550.00 220.72 L 553.68 216.75 L 557.37 213.24 L 561.05 209.75 L 564.74 206.28 L 568.42 201.55 L 572.11 196.80 L 575.79 192.85 L 579.47 189.53 L 583.16 186.32 L 586.84 182.05 L 590.53 178.74 L 594.21 175.47 L 597.89 172.40 L 601.58 169.52 L 605.26 166.56 L 608.95 164.03 L 612.63 161.42 L 616.32 158.75 L 620.00 155.92 L 623.68 153.33 L 627.37 150.96 L 631.05 146.66 L 634.74 143.06 L 638.42 139.60 L 642.11 136.28 L 645.79 131.04 L 649.47 127.72 L 653.16 124.85 L 656.84 121.46 L 660.53 116.47 L 664.21 112.87 L 667.89 109.83 L 671.58 107.26 L 675.26 104.83 L 678.95 102.85 L 682.63 100.61 L 686.32 98.79 L 690.00 96.65 L 693.68 93.56 L 697.37 90.90 L 701.05 88.59 L 704.74 86.60 L 708.42 84.54 L 712.11 82.80 L 715.79 79.88 L 719.47 77.39 L 723.16 74.91 L 726.84 72.87 L 730.53 71.00 L 734.21 69.33 L 737.89 66.48 L 741.58 64.16 L 745.26 62.05 L 748.95 60.04 L 752.63 58.27 L 756.32 56.57 L 760.00 55.00
    L 760 340
    Z" fill="url(#areaGradient)" class="area-path"/>

  <!-- Main line with glow -->
  <path d="M 60.00 340.00 L 63.68 339.76 L 67.37 339.36 L 71.05 338.99 L 74.74 338.25 L 78.42 337.49 L 82.11 336.89 L 85.79 336.32 L 89.47 335.82 L 93.16 335.24 L 96.84 334.59 L 100.53 333.89 L 104.21 333.25 L 107.89 332.58 L 111.58 332.08 L 115.26 331.57 L 118.95 330.88 L 122.63 330.42 L 126.32 329.77 L 130.00 329.03 L 133.68 328.47 L 137.37 328.02 L 141.05 327.72 L 144.74 327.47 L 148.42 327.01 L 152.11 326.69 L 155.79 325.97 L 159.47 325.69 L 163.16 325.33 L 166.84 324.86 L 170.53 324.54 L 174.21 324.22 L 177.89 323.87 L 181.58 323.64 L 185.26 323.43 L 188.95 323.12 L 192.63 322.74 L 196.32 322.39 L 200.00 321.95 L 203.68 321.46 L 207.37 321.02 L 211.05 320.49 L 214.74 319.96 L 218.42 319.44 L 222.11 318.86 L 225.79 318.31 L 229.47 317.69 L 233.16 317.13 L 236.84 316.65 L 240.53 316.27 L 244.21 315.74 L 247.89 315.14 L 251.58 314.59 L 255.26 313.94 L 258.95 313.14 L 262.63 312.55 L 266.32 312.06 L 270.00 311.59 L 273.68 311.02 L 277.37 310.37 L 281.05 309.64 L 284.74 308.88 L 288.42 308.15 L 292.11 307.51 L 295.79 306.87 L 299.47 306.30 L 303.16 305.73 L 306.84 305.09 L 310.53 304.29 L 314.21 303.69 L 317.89 303.16 L 321.58 302.57 L 325.26 302.02 L 328.95 301.41 L 332.63 300.78 L 336.32 300.12 L 340.00 299.54 L 343.68 299.04 L 347.37 298.50 L 351.05 297.91 L 354.74 297.36 L 358.42 296.65 L 362.11 296.04 L 365.79 295.45 L 369.47 294.96 L 373.16 294.49 L 376.84 294.01 L 380.53 293.44 L 384.21 292.86 L 387.89 292.15 L 391.58 291.57 L 395.26 291.10 L 398.95 290.62 L 402.63 290.15 L 406.32 289.58 L 410.00 289.00 L 413.68 287.70 L 417.37 285.13 L 421.05 282.06 L 424.74 279.26 L 428.42 277.84 L 432.11 275.70 L 435.79 274.28 L 439.47 273.04 L 443.16 271.82 L 446.84 270.67 L 450.53 268.89 L 454.21 267.47 L 457.89 265.66 L 461.58 265.29 L 465.26 265.24 L 468.95 265.18 L 472.63 265.12 L 476.32 265.06 L 480.00 264.99 L 483.68 264.97 L 487.37 264.88 L 491.05 264.80 L 494.74 264.74 L 498.42 264.72 L 502.11 264.63 L 505.79 262.30 L 509.47 258.65 L 513.16 256.21 L 516.84 253.38 L 520.53 250.46 L 524.21 248.17 L 527.89 245.61 L 531.58 241.70 L 535.26 236.44 L 538.95 233.01 L 542.63 228.92 L 546.32 224.37 L 550.00 220.72 L 553.68 216.75 L 557.37 213.24 L 561.05 209.75 L 564.74 206.28 L 568.42 201.55 L 572.11 196.80 L 575.79 192.85 L 579.47 189.53 L 583.16 186.32 L 586.84 182.05 L 590.53 178.74 L 594.21 175.47 L 597.89 172.40 L 601.58 169.52 L 605.26 166.56 L 608.95 164.03 L 612.63 161.42 L 616.32 158.75 L 620.00 155.92 L 623.68 153.33 L 627.37 150.96 L 631.05 146.66 L 634.74 143.06 L 638.42 139.60 L 642.11 136.28 L 645.79 131.04 L 649.47 127.72 L 653.16 124.85 L 656.84 121.46 L 660.53 116.47 L 664.21 112.87 L 667.89 109.83 L 671.58 107.26 L 675.26 104.83 L 678.95 102.85 L 682.63 100.61 L 686.32 98.79 L 690.00 96.65 L 693.68 93.56 L 697.37 90.90 L 701.05 88.59 L 704.74 86.60 L 708.42 84.54 L 712.11 82.80 L 715.79 79.88 L 719.47 77.39 L 723.16 74.91 L 726.84 72.87 L 730.53 71.00 L 734.21 69.33 L 737.89 66.48 L 741.58 64.16 L 745.26 62.05 L 748.95 60.04 L 752.63 58.27 L 756.32 56.57 L 760.00 55.00" fill="none" stroke="#3b82f6" stroke-width="3"
        stroke-linecap="round" stroke-linejoin="round" filter="url(#glow)" class="line-path"/>

  <!-- Data points -->
  
    <circle cx="60" cy="340" r="4" fill="#3b82f6" stroke="#0d1117" stroke-width="2" class="data-point"/>
  
    <circle cx="63.68421052631579" cy="339.7641326194538" r="4" fill="#3b82f6" stroke="#0d1117" stroke-width="2" class="data-point"/>
  
    <circle cx="67.36842105263158" cy="339.36299761852484" r="4" fill="#3b82f6" stroke="#0d1117" stroke-width="2" class="data-point"/>
  
    <circle cx="71.05263157894737" cy="338.99074433766276" r="4" fill="#3b82f6" stroke="#0d1117" stroke-width="2" class="data-point"/>
  
    <circle cx="74.73684210526315" cy="338.2510513959498" r="4" fill="#3b82f6" stroke="#0d1117" stroke-width="2" class="data-point"/>
  
    <circle cx="78.42105263157895" cy="337.4872903541811" r="4" fill="#3b82f6" stroke="#0d1117" stroke-width="2" class="data-point"/>
  
    <circle cx="82.10526315789474" cy="336.8855878527877" r="4" fill="#3b82f6" stroke="#0d1117" stroke-width="2" class="data-point"/>
  
    <circle cx="85.78947368421052" cy="336.32399885148715" r="4" fill="#3b82f6" stroke="#0d1117" stroke-width="2" class="data-point"/>
  
    <circle cx="89.47368421052632" cy="335.8249869103316" r="4" fill="#3b82f6" stroke="#0d1117" stroke-width="2" class="data-point"/>
  
    <circle cx="93.15789473684211" cy="335.2393298089753" r="4" fill="#3b82f6" stroke="#0d1117" stroke-width="2" class="data-point"/>
  
    <circle cx="96.84210526315789" cy="334.58628202746297" r="4" fill="#3b82f6" stroke="#0d1117" stroke-width="2" class="data-point"/>
  
    <circle cx="100.52631578947368" cy="333.8867025858429" r="4" fill="#3b82f6" stroke="#0d1117" stroke-width="2" class="data-point"/>
  
    <circle cx="104.21052631578948" cy="333.25130474437145" r="4" fill="#3b82f6" stroke="#0d1117" stroke-width="2" class="data-point"/>
  
    <circle cx="107.89473684210526" cy="332.5757934028071" r="4" fill="#3b82f6" stroke="#0d1117" stroke-width="2" class="data-point"/>
  
    <circle cx="111.57894736842104" cy="332.0831996216664" r="4" fill="#3b82f6" stroke="#0d1117" stroke-width="2" class="data-point"/>
  
    <circle cx="115.26315789473685" cy="331.5729559004847" r="4" fill="#3b82f6" stroke="#0d1117" stroke-width="2" class="data-point"/>
  
    <circle cx="118.94736842105263" cy="330.87979461887954" r="4" fill="#3b82f6" stroke="#0d1117" stroke-width="2" class="data-point"/>
  
    <circle cx="122.63157894736842" cy="330.4160825578057" r="4" fill="#3b82f6" stroke="#0d1117" stroke-width="2" class="data-point"/>
  
    <circle cx="126.31578947368422" cy="329.77426655631933" r="4" fill="#3b82f6" stroke="#0d1117" stroke-width="2" class="data-point"/>
  
    <circle cx="130" cy="329.03296907460265" r="4" fill="#3b82f6" stroke="#0d1117" stroke-width="2" class="data-point"/>
  
    <circle cx="133.68421052631578" cy="328.4745891533096" r="4" fill="#3b82f6" stroke="#0d1117" stroke-width="2" class="data-point"/>
  
    <circle cx="137.36842105263156" cy="328.01569071224685" r="4" fill="#3b82f6" stroke="#0d1117" stroke-width="2" class="data-point"/>
  
    <circle cx="141.05263157894737" cy="327.71885081155943" r="4" fill="#3b82f6" stroke="#0d1117" stroke-width="2" class="data-point"/>
  
    <circle cx="144.73684210526318" cy="327.4717516509872" r="4" fill="#3b82f6" stroke="#0d1117" stroke-width="2" class="data-point"/>
  
    <circle cx="148.42105263157896" cy="327.0144577499282" r="4" fill="#3b82f6" stroke="#0d1117" stroke-width="2" class="data-point"/>
  
    <circle cx="152.10526315789474" cy="326.6887361291739" r="4" fill="#3b82f6" stroke="#0d1117" stroke-width="2" class="data-point"/>
  
    <circle cx="155.78947368421052" cy="325.9747158275204" r="4" fill="#3b82f6" stroke="#0d1117" stroke-width="2" class="data-point"/>
  
    <circle cx="159.4736842105263" cy="325.6939213268701" r="4" fill="#3b82f6" stroke="#0d1117" stroke-width="2" class="data-point"/>
  
    <circle cx="163.15789473684208" cy="325.33129528603035" r="4" fill="#3b82f6" stroke="#0d1117" stroke-width="2" class="data-point"/>
  
    <circle cx="166.8421052631579" cy="324.86276960494536" r="4" fill="#3b82f6" stroke="#0d1117" stroke-width="2" class="data-point"/>
  
    <circle cx="170.5263157894737" cy="324.5418616042022" r="4" fill="#3b82f6" stroke="#0d1117" stroke-width="2" class="data-point"/>
  
    <circle cx="174.21052631578948" cy="324.2161399834479" r="4" fill="#3b82f6" stroke="#0d1117" stroke-width="2" class="data-point"/>
  
    <circle cx="177.89473684210526" cy="323.8743729626564" r="4" fill="#3b82f6" stroke="#0d1117" stroke-width="2" class="data-point"/>
  
    <circle cx="181.57894736842104" cy="323.6369010421065" r="4" fill="#3b82f6" stroke="#0d1117" stroke-width="2" class="data-point"/>
  
    <circle cx="185.26315789473685" cy="323.43151992163087" r="4" fill="#3b82f6" stroke="#0d1117" stroke-width="2" class="data-point"/>
  
    <circle cx="188.94736842105263" cy="323.11863462090633" r="4" fill="#3b82f6" stroke="#0d1117" stroke-width="2" class="data-point"/>
  
    <circle cx="192.63157894736844" cy="322.7383586400257" r="4" fill="#3b82f6" stroke="#0d1117" stroke-width="2" class="data-point"/>
  
    <circle cx="196.31578947368422" cy="322.38856891921563" r="4" fill="#3b82f6" stroke="#0d1117" stroke-width="2" class="data-point"/>
  
    <circle cx="200" cy="321.9457158781901" r="4" fill="#3b82f6" stroke="#0d1117" stroke-width="2" class="data-point"/>
  
    <circle cx="203.68421052631578" cy="321.4627493370716" r="4" fill="#3b82f6" stroke="#0d1117" stroke-width="2" class="data-point"/>
  
    <circle cx="207.36842105263156" cy="321.01989629604606" r="4" fill="#3b82f6" stroke="#0d1117" stroke-width="2" class="data-point"/>
  
    <circle cx="211.05263157894737" cy="320.4855844748087" r="4" fill="#3b82f6" stroke="#0d1117" stroke-width="2" class="data-point"/>
  
    <circle cx="214.73684210526315" cy="319.96089989359365" r="4" fill="#3b82f6" stroke="#0d1117" stroke-width="2" class="data-point"/>
  
    <circle cx="218.42105263157896" cy="319.4362153123786" r="4" fill="#3b82f6" stroke="#0d1117" stroke-width="2" class="data-point"/>
  
    <circle cx="222.10526315789474" cy="318.86178999104834" r="4" fill="#3b82f6" stroke="#0d1117" stroke-width="2" class="data-point"/>
  
    <circle cx="225.78947368421052" cy="318.31303730977754" r="4" fill="#3b82f6" stroke="#0d1117" stroke-width="2" class="data-point"/>
  
    <circle cx="229.47368421052633" cy="317.6856621683247" r="4" fill="#3b82f6" stroke="#0d1117" stroke-width="2" class="data-point"/>
  
    <circle cx="233.1578947368421" cy="317.1256777070279" r="4" fill="#3b82f6" stroke="#0d1117" stroke-width="2" class="data-point"/>
  
    <circle cx="236.8421052631579" cy="316.65233840593174" r="4" fill="#3b82f6" stroke="#0d1117" stroke-width="2" class="data-point"/>
  
    <circle cx="240.5263157894737" cy="316.2736669650548" r="4" fill="#3b82f6" stroke="#0d1117" stroke-width="2" class="data-point"/>
  
    <circle cx="244.21052631578945" cy="315.7441687638286" r="4" fill="#3b82f6" stroke="#0d1117" stroke-width="2" class="data-point"/>
  
    <circle cx="247.89473684210526" cy="315.13925718242774" r="4" fill="#3b82f6" stroke="#0d1117" stroke-width="2" class="data-point"/>
  
    <circle cx="251.57894736842107" cy="314.5856908811458" r="4" fill="#3b82f6" stroke="#0d1117" stroke-width="2" class="data-point"/>
  
    <circle cx="255.26315789473682" cy="313.9390612596484" r="4" fill="#3b82f6" stroke="#0d1117" stroke-width="2" class="data-point"/>
  
    <circle cx="258.9473684210526" cy="313.1416048778016" r="4" fill="#3b82f6" stroke="#0d1117" stroke-width="2" class="data-point"/>
  
    <circle cx="262.63157894736844" cy="312.5479250764268" r="4" fill="#3b82f6" stroke="#0d1117" stroke-width="2" class="data-point"/>
  
    <circle cx="266.31578947368416" cy="312.055331295286" r="4" fill="#3b82f6" stroke="#0d1117" stroke-width="2" class="data-point"/>
  
    <circle cx="270" cy="311.586805614201" r="4" fill="#3b82f6" stroke="#0d1117" stroke-width="2" class="data-point"/>
  
    <circle cx="273.6842105263158" cy="311.0236120728968" r="4" fill="#3b82f6" stroke="#0d1117" stroke-width="2" class="data-point"/>
  
    <circle cx="277.36842105263156" cy="310.36895975138077" r="4" fill="#3b82f6" stroke="#0d1117" stroke-width="2" class="data-point"/>
  
    <circle cx="281.0526315789474" cy="309.6437076697012" r="4" fill="#3b82f6" stroke="#0d1117" stroke-width="2" class="data-point"/>
  
    <circle cx="284.7368421052631" cy="308.8815511679362" r="4" fill="#3b82f6" stroke="#0d1117" stroke-width="2" class="data-point"/>
  
    <circle cx="288.42105263157896" cy="308.14988092624185" r="4" fill="#3b82f6" stroke="#0d1117" stroke-width="2" class="data-point"/>
  
    <circle cx="292.1052631578947" cy="307.5064603847518" r="4" fill="#3b82f6" stroke="#0d1117" stroke-width="2" class="data-point"/>
  
    <circle cx="295.7894736842105" cy="306.8678534632729" r="4" fill="#3b82f6" stroke="#0d1117" stroke-width="2" class="data-point"/>
  
    <circle cx="299.47368421052636" cy="306.30465992196866" r="4" fill="#3b82f6" stroke="#0d1117" stroke-width="2" class="data-point"/>
  
    <circle cx="303.1578947368421" cy="305.7302346006384" r="4" fill="#3b82f6" stroke="#0d1117" stroke-width="2" class="data-point"/>
  
    <circle cx="306.8421052631579" cy="305.08841859915213" r="4" fill="#3b82f6" stroke="#0d1117" stroke-width="2" class="data-point"/>
  
    <circle cx="310.5263157894737" cy="304.28935767730167" r="4" fill="#3b82f6" stroke="#0d1117" stroke-width="2" class="data-point"/>
  
    <circle cx="314.2105263157895" cy="303.6940733359231" r="4" fill="#3b82f6" stroke="#0d1117" stroke-width="2" class="data-point"/>
  
    <circle cx="317.89473684210526" cy="303.1613660546895" r="4" fill="#3b82f6" stroke="#0d1117" stroke-width="2" class="data-point"/>
  
    <circle cx="321.57894736842104" cy="302.5692907933184" r="4" fill="#3b82f6" stroke="#0d1117" stroke-width="2" class="data-point"/>
  
    <circle cx="325.2631578947369" cy="302.01732903204015" r="4" fill="#3b82f6" stroke="#0d1117" stroke-width="2" class="data-point"/>
  
    <circle cx="328.9473684210526" cy="301.41081291063557" r="4" fill="#3b82f6" stroke="#0d1117" stroke-width="2" class="data-point"/>
  
    <circle cx="332.63157894736844" cy="300.77862414917155" r="4" fill="#3b82f6" stroke="#0d1117" stroke-width="2" class="data-point"/>
  
    <circle cx="336.3157894736842" cy="300.11755366764066" r="4" fill="#3b82f6" stroke="#0d1117" stroke-width="2" class="data-point"/>
  
    <circle cx="340" cy="299.53831472629923" r="4" fill="#3b82f6" stroke="#0d1117" stroke-width="2" class="data-point"/>
  
    <circle cx="343.6842105263158" cy="299.0425118651511" r="4" fill="#3b82f6" stroke="#0d1117" stroke-width="2" class="data-point"/>
  
    <circle cx="347.36842105263156" cy="298.4985728038914" r="4" fill="#3b82f6" stroke="#0d1117" stroke-width="2" class="data-point"/>
  
    <circle cx="351.0526315789474" cy="297.9097066225277" r="4" fill="#3b82f6" stroke="#0d1117" stroke-width="2" class="data-point"/>
  
    <circle cx="354.7368421052631" cy="297.3641630212644" r="4" fill="#3b82f6" stroke="#0d1117" stroke-width="2" class="data-point"/>
  
    <circle cx="358.42105263157896" cy="296.6533517996183" r="4" fill="#3b82f6" stroke="#0d1117" stroke-width="2" class="data-point"/>
  
    <circle cx="362.10526315789474" cy="296.0420220582026" r="4" fill="#3b82f6" stroke="#0d1117" stroke-width="2" class="data-point"/>
  
    <circle cx="365.7894736842105" cy="295.4531558768389" r="4" fill="#3b82f6" stroke="#0d1117" stroke-width="2" class="data-point"/>
  
    <circle cx="369.4736842105263" cy="294.9637711757056" r="4" fill="#3b82f6" stroke="#0d1117" stroke-width="2" class="data-point"/>
  
    <circle cx="373.1578947368421" cy="294.48882733460573" r="4" fill="#3b82f6" stroke="#0d1117" stroke-width="2" class="data-point"/>
  
    <circle cx="376.8421052631579" cy="294.0122789535021" r="4" fill="#3b82f6" stroke="#0d1117" stroke-width="2" class="data-point"/>
  
    <circle cx="380.52631578947364" cy="293.442667252183" r="4" fill="#3b82f6" stroke="#0d1117" stroke-width="2" class="data-point"/>
  
    <circle cx="384.2105263157895" cy="292.85701015082674" r="4" fill="#3b82f6" stroke="#0d1117" stroke-width="2" class="data-point"/>
  
    <circle cx="387.89473684210526" cy="292.1461989291807" r="4" fill="#3b82f6" stroke="#0d1117" stroke-width="2" class="data-point"/>
  
    <circle cx="391.57894736842104" cy="291.5701690678467" r="4" fill="#3b82f6" stroke="#0d1117" stroke-width="2" class="data-point"/>
  
    <circle cx="395.2631578947368" cy="291.10003884675797" r="4" fill="#3b82f6" stroke="#0d1117" stroke-width="2" class="data-point"/>
  
    <circle cx="398.94736842105266" cy="290.61707230563957" r="4" fill="#3b82f6" stroke="#0d1117" stroke-width="2" class="data-point"/>
  
    <circle cx="402.63157894736844" cy="290.1549647845694" r="4" fill="#3b82f6" stroke="#0d1117" stroke-width="2" class="data-point"/>
  
    <circle cx="406.3157894736842" cy="289.5837485432466" r="4" fill="#3b82f6" stroke="#0d1117" stroke-width="2" class="data-point"/>
  
    <circle cx="410" cy="288.9980914418903" r="4" fill="#3b82f6" stroke="#0d1117" stroke-width="2" class="data-point"/>
  
    <circle cx="413.6842105263158" cy="287.7032276588917" r="4" fill="#3b82f6" stroke="#0d1117" stroke-width="2" class="data-point"/>
  
    <circle cx="417.3684210526316" cy="285.12633641292416" r="4" fill="#3b82f6" stroke="#0d1117" stroke-width="2" class="data-point"/>
  
    <circle cx="421.0526315789474" cy="282.0568513858159" r="4" fill="#3b82f6" stroke="#0d1117" stroke-width="2" class="data-point"/>
  
    <circle cx="424.7368421052631" cy="279.26013815933925" r="4" fill="#3b82f6" stroke="#0d1117" stroke-width="2" class="data-point"/>
  
    <circle cx="428.4210526315789" cy="277.8417247960545" r="4" fill="#3b82f6" stroke="#0d1117" stroke-width="2" class="data-point"/>
  
    <circle cx="432.10526315789474" cy="275.7044775111051" r="4" fill="#3b82f6" stroke="#0d1117" stroke-width="2" class="data-point"/>
  
    <circle cx="435.7894736842105" cy="274.28445960781664" r="4" fill="#3b82f6" stroke="#0d1117" stroke-width="2" class="data-point"/>
  
    <circle cx="439.47368421052636" cy="273.0393365649332" r="4" fill="#3b82f6" stroke="#0d1117" stroke-width="2" class="data-point"/>
  
    <circle cx="443.15789473684214" cy="271.8214907021129" r="4" fill="#3b82f6" stroke="#0d1117" stroke-width="2" class="data-point"/>
  
    <circle cx="446.8421052631579" cy="270.67424459945613" r="4" fill="#3b82f6" stroke="#0d1117" stroke-width="2" class="data-point"/>
  
    <circle cx="450.52631578947364" cy="268.8899961153242" r="4" fill="#3b82f6" stroke="#0d1117" stroke-width="2" class="data-point"/>
  
    <circle cx="454.2105263157895" cy="267.47158275203947" r="4" fill="#3b82f6" stroke="#0d1117" stroke-width="2" class="data-point"/>
  
    <circle cx="457.89473684210526" cy="265.6584525478406" r="4" fill="#3b82f6" stroke="#0d1117" stroke-width="2" class="data-point"/>
  
    <circle cx="461.57894736842104" cy="265.2878038069823" r="4" fill="#3b82f6" stroke="#0d1117" stroke-width="2" class="data-point"/>
  
    <circle cx="465.2631578947369" cy="265.2396676068708" r="4" fill="#3b82f6" stroke="#0d1117" stroke-width="2" class="data-point"/>
  
    <circle cx="468.94736842105266" cy="265.1770905467259" r="4" fill="#3b82f6" stroke="#0d1117" stroke-width="2" class="data-point"/>
  
    <circle cx="472.6315789473684" cy="265.1241407266033" r="4" fill="#3b82f6" stroke="#0d1117" stroke-width="2" class="data-point"/>
  
    <circle cx="476.31578947368416" cy="265.0551455064435" r="4" fill="#3b82f6" stroke="#0d1117" stroke-width="2" class="data-point"/>
  
    <circle cx="480" cy="264.99417298630226" r="4" fill="#3b82f6" stroke="#0d1117" stroke-width="2" class="data-point"/>
  
    <circle cx="483.6842105263158" cy="264.97010488624653" r="4" fill="#3b82f6" stroke="#0d1117" stroke-width="2" class="data-point"/>
  
    <circle cx="487.36842105263156" cy="264.8818551860422" r="4" fill="#3b82f6" stroke="#0d1117" stroke-width="2" class="data-point"/>
  
    <circle cx="491.0526315789474" cy="264.79681456584524" r="4" fill="#3b82f6" stroke="#0d1117" stroke-width="2" class="data-point"/>
  
    <circle cx="494.7368421052632" cy="264.7406556657152" r="4" fill="#3b82f6" stroke="#0d1117" stroke-width="2" class="data-point"/>
  
    <circle cx="498.4210526315789" cy="264.71979664566686" r="4" fill="#3b82f6" stroke="#0d1117" stroke-width="2" class="data-point"/>
  
    <circle cx="502.10526315789474" cy="264.62512878544766" r="4" fill="#3b82f6" stroke="#0d1117" stroke-width="2" class="data-point"/>
  
    <circle cx="505.7894736842105" cy="262.2985457800598" r="4" fill="#3b82f6" stroke="#0d1117" stroke-width="2" class="data-point"/>
  
    <circle cx="509.4736842105263" cy="258.6546354316213" r="4" fill="#3b82f6" stroke="#0d1117" stroke-width="2" class="data-point"/>
  
    <circle cx="513.1578947368421" cy="256.2141300859696" r="4" fill="#3b82f6" stroke="#0d1117" stroke-width="2" class="data-point"/>
  
    <circle cx="516.8421052631579" cy="253.38051243940748" r="4" fill="#3b82f6" stroke="#0d1117" stroke-width="2" class="data-point"/>
  
    <circle cx="520.5263157894738" cy="250.46024963264477" r="4" fill="#3b82f6" stroke="#0d1117" stroke-width="2" class="data-point"/>
  
    <circle cx="524.2105263157894" cy="248.16896650733867" r="4" fill="#3b82f6" stroke="#0d1117" stroke-width="2" class="data-point"/>
  
    <circle cx="527.8947368421052" cy="245.60651612140458" r="4" fill="#3b82f6" stroke="#0d1117" stroke-width="2" class="data-point"/>
  
    <circle cx="531.578947368421" cy="241.70267029236408" r="4" fill="#3b82f6" stroke="#0d1117" stroke-width="2" class="data-point"/>
  
    <circle cx="535.2631578947369" cy="236.44138362018003" r="4" fill="#3b82f6" stroke="#0d1117" stroke-width="2" class="data-point"/>
  
    <circle cx="538.9473684210527" cy="233.0076680122283" r="4" fill="#3b82f6" stroke="#0d1117" stroke-width="2" class="data-point"/>
  
    <circle cx="542.6315789473684" cy="228.92090462276423" r="4" fill="#3b82f6" stroke="#0d1117" stroke-width="2" class="data-point"/>
  
    <circle cx="546.3157894736842" cy="224.36722009221882" r="4" fill="#3b82f6" stroke="#0d1117" stroke-width="2" class="data-point"/>
  
    <circle cx="550" cy="220.7152870437617" r="4" fill="#3b82f6" stroke="#0d1117" stroke-width="2" class="data-point"/>
  
    <circle cx="553.6842105263158" cy="216.75207323458375" r="4" fill="#3b82f6" stroke="#0d1117" stroke-width="2" class="data-point"/>
  
    <circle cx="557.3684210526316" cy="213.2365260864425" r="4" fill="#3b82f6" stroke="#0d1117" stroke-width="2" class="data-point"/>
  
    <circle cx="561.0526315789474" cy="209.75306973837553" r="4" fill="#3b82f6" stroke="#0d1117" stroke-width="2" class="data-point"/>
  
    <circle cx="564.7368421052631" cy="206.27924063033086" r="4" fill="#3b82f6" stroke="#0d1117" stroke-width="2" class="data-point"/>
  
    <circle cx="568.421052631579" cy="201.54905669937676" r="4" fill="#3b82f6" stroke="#0d1117" stroke-width="2" class="data-point"/>
  
    <circle cx="572.1052631578948" cy="196.8044319083892" r="4" fill="#3b82f6" stroke="#0d1117" stroke-width="2" class="data-point"/>
  
    <circle cx="575.7894736842105" cy="192.84924079922982" r="4" fill="#3b82f6" stroke="#0d1117" stroke-width="2" class="data-point"/>
  
    <circle cx="579.4736842105262" cy="189.53426115155304" r="4" fill="#3b82f6" stroke="#0d1117" stroke-width="2" class="data-point"/>
  
    <circle cx="583.1578947368421" cy="186.31876298410663" r="4" fill="#3b82f6" stroke="#0d1117" stroke-width="2" class="data-point"/>
  
    <circle cx="586.8421052631579" cy="182.05068657422265" r="4" fill="#3b82f6" stroke="#0d1117" stroke-width="2" class="data-point"/>
  
    <circle cx="590.5263157894738" cy="178.740520546557" r="4" fill="#3b82f6" stroke="#0d1117" stroke-width="2" class="data-point"/>
  
    <circle cx="594.2105263157895" cy="175.4656543989731" r="4" fill="#3b82f6" stroke="#0d1117" stroke-width="2" class="data-point"/>
  
    <circle cx="597.8947368421052" cy="172.40258753187967" r="4" fill="#3b82f6" stroke="#0d1117" stroke-width="2" class="data-point"/>
  
    <circle cx="601.578947368421" cy="169.51762460519873" r="4" fill="#3b82f6" stroke="#0d1117" stroke-width="2" class="data-point"/>
  
    <circle cx="605.2631578947369" cy="166.56206191835423" r="4" fill="#3b82f6" stroke="#0d1117" stroke-width="2" class="data-point"/>
  
    <circle cx="608.9473684210526" cy="164.0349114125019" r="4" fill="#3b82f6" stroke="#0d1117" stroke-width="2" class="data-point"/>
  
    <circle cx="612.6315789473684" cy="161.41790666644147" r="4" fill="#3b82f6" stroke="#0d1117" stroke-width="2" class="data-point"/>
  
    <circle cx="616.3157894736843" cy="158.74634756025472" r="4" fill="#3b82f6" stroke="#0d1117" stroke-width="2" class="data-point"/>
  
    <circle cx="620" cy="155.92235715371493" r="4" fill="#3b82f6" stroke="#0d1117" stroke-width="2" class="data-point"/>
  
    <circle cx="623.6842105263157" cy="153.33102504771395" r="4" fill="#3b82f6" stroke="#0d1117" stroke-width="2" class="data-point"/>
  
    <circle cx="627.3684210526316" cy="150.9579103822183" r="4" fill="#3b82f6" stroke="#0d1117" stroke-width="2" class="data-point"/>
  
    <circle cx="631.0526315789474" cy="146.65774317226004" r="4" fill="#3b82f6" stroke="#0d1117" stroke-width="2" class="data-point"/>
  
    <circle cx="634.7368421052631" cy="143.05875994392554" r="4" fill="#3b82f6" stroke="#0d1117" stroke-width="2" class="data-point"/>
  
    <circle cx="638.421052631579" cy="139.60258077592175" r="4" fill="#3b82f6" stroke="#0d1117" stroke-width="2" class="data-point"/>
  
    <circle cx="642.1052631578948" cy="136.28278750823384" r="4" fill="#3b82f6" stroke="#0d1117" stroke-width="2" class="data-point"/>
  
    <circle cx="645.7894736842105" cy="131.0407553160944" r="4" fill="#3b82f6" stroke="#0d1117" stroke-width="2" class="data-point"/>
  
    <circle cx="649.4736842105262" cy="127.72417112841387" r="4" fill="#3b82f6" stroke="#0d1117" stroke-width="2" class="data-point"/>
  
    <circle cx="653.1578947368421" cy="124.85364906176633" r="4" fill="#3b82f6" stroke="#0d1117" stroke-width="2" class="data-point"/>
  
    <circle cx="656.8421052631579" cy="121.46325603391492" r="4" fill="#3b82f6" stroke="#0d1117" stroke-width="2" class="data-point"/>
  
    <circle cx="660.5263157894736" cy="116.46511392234027" r="4" fill="#3b82f6" stroke="#0d1117" stroke-width="2" class="data-point"/>
  
    <circle cx="664.2105263157895" cy="112.86933977401321" r="4" fill="#3b82f6" stroke="#0d1117" stroke-width="2" class="data-point"/>
  
    <circle cx="667.8947368421053" cy="109.83355008698294" r="4" fill="#3b82f6" stroke="#0d1117" stroke-width="2" class="data-point"/>
  
    <circle cx="671.578947368421" cy="107.26468154103401" r="4" fill="#3b82f6" stroke="#0d1117" stroke-width="2" class="data-point"/>
  
    <circle cx="675.2631578947368" cy="104.82738527538973" r="4" fill="#3b82f6" stroke="#0d1117" stroke-width="2" class="data-point"/>
  
    <circle cx="678.9473684210526" cy="102.84577837080076" r="4" fill="#3b82f6" stroke="#0d1117" stroke-width="2" class="data-point"/>
  
    <circle cx="682.6315789473684" cy="100.61386322563212" r="4" fill="#3b82f6" stroke="#0d1117" stroke-width="2" class="data-point"/>
  
    <circle cx="686.3157894736842" cy="98.79431486141843" r="4" fill="#3b82f6" stroke="#0d1117" stroke-width="2" class="data-point"/>
  
    <circle cx="690" cy="96.64744033644669" r="4" fill="#3b82f6" stroke="#0d1117" stroke-width="2" class="data-point"/>
  
    <circle cx="693.6842105263158" cy="93.55709628929012" r="4" fill="#3b82f6" stroke="#0d1117" stroke-width="2" class="data-point"/>
  
    <circle cx="697.3684210526316" cy="90.90158258314051" r="4" fill="#3b82f6" stroke="#0d1117" stroke-width="2" class="data-point"/>
  
    <circle cx="701.0526315789473" cy="88.59264951779352" r="4" fill="#3b82f6" stroke="#0d1117" stroke-width="2" class="data-point"/>
  
    <circle cx="704.7368421052631" cy="86.59660175317109" r="4" fill="#3b82f6" stroke="#0d1117" stroke-width="2" class="data-point"/>
  
    <circle cx="708.421052631579" cy="84.53797692840374" r="4" fill="#3b82f6" stroke="#0d1117" stroke-width="2" class="data-point"/>
  
    <circle cx="712.1052631578948" cy="82.80186464438327" r="4" fill="#3b82f6" stroke="#0d1117" stroke-width="2" class="data-point"/>
  
    <circle cx="715.7894736842105" cy="79.88320637762428" r="4" fill="#3b82f6" stroke="#0d1117" stroke-width="2" class="data-point"/>
  
    <circle cx="719.4736842105264" cy="77.38814667184624" r="4" fill="#3b82f6" stroke="#0d1117" stroke-width="2" class="data-point"/>
  
    <circle cx="723.1578947368421" cy="74.91394598611652" r="4" fill="#3b82f6" stroke="#0d1117" stroke-width="2" class="data-point"/>
  
    <circle cx="726.8421052631579" cy="72.87136656138631" r="4" fill="#3b82f6" stroke="#0d1117" stroke-width="2" class="data-point"/>
  
    <circle cx="730.5263157894736" cy="70.99726383704632" r="4" fill="#3b82f6" stroke="#0d1117" stroke-width="2" class="data-point"/>
  
    <circle cx="734.2105263157895" cy="69.33335585319304" r="4" fill="#3b82f6" stroke="#0d1117" stroke-width="2" class="data-point"/>
  
    <circle cx="737.8947368421053" cy="66.48048372658639" r="4" fill="#3b82f6" stroke="#0d1117" stroke-width="2" class="data-point"/>
  
    <circle cx="741.578947368421" cy="64.16352796122078" r="4" fill="#3b82f6" stroke="#0d1117" stroke-width="2" class="data-point"/>
  
    <circle cx="745.2631578947369" cy="62.05195331633081" r="4" fill="#3b82f6" stroke="#0d1117" stroke-width="2" class="data-point"/>
  
    <circle cx="748.9473684210526" cy="60.0350465316601" r="4" fill="#3b82f6" stroke="#0d1117" stroke-width="2" class="data-point"/>
  
    <circle cx="752.6315789473684" cy="58.27486614758391" r="4" fill="#3b82f6" stroke="#0d1117" stroke-width="2" class="data-point"/>
  
    <circle cx="756.3157894736842" cy="56.566031043626595" r="4" fill="#3b82f6" stroke="#0d1117" stroke-width="2" class="data-point"/>
  
    <circle cx="760" cy="55" r="4" fill="#3b82f6" stroke="#0d1117" stroke-width="2" class="data-point"/>
  

  <!-- Axis lines -->
  <line x1="60" y1="55" x2="60" y2="340"
        stroke="#30363d" stroke-width="2"/>
  <line x1="60" y1="340" x2="760" y2="340"
        stroke="#30363d" stroke-width="2"/>
</svg>