<?xml version="1.0" encoding="UTF-8"?>
<svg width="800" height="400" xmlns="http://www.w3.org/2000/svg">
  <defs>
    <!-- Gradient for area fill -->
    <linearGradient id="areaGradient" x1="0%" y1="0%" x2="0%" y2="100%">
      <stop offset="0%" style="stop-color:#3b82f6;stop-opacity:0.3" />
      <stop offset="100%" style="stop-color:#3b82f6;stop-opacity:0.05" />
    </linearGradient>

    <!-- Glow filter for line -->
    <filter id="glow">
      <feGaussianBlur stdDeviation="2" result="coloredBlur"/>
      <feMerge>
        <feMergeNode in="coloredBlur"/>
        <feMergeNode in="SourceGraphic"/>
      </feMerge>
    </filter>

    <!-- Animation -->
    <style>
      @keyframes draw {
        from { stroke-dashoffset: 2000; }
        to { stroke-dashoffset: 0; }
      }
      @keyframes fadeIn {
        from { opacity: 0; }
        to { opacity: 1; }
      }
      .line-path {
        stroke-dasharray: 2000;
        stroke-dashoffset: 2000;
        animation: draw 1.5s ease-out forwards;
      }
      .area-path {
        opacity: 0;
        animation: fadeIn 1s ease-out 0.5s forwards;
      }
      .data-point {
        opacity: 0;
        animation: fadeIn 0.5s ease-out 1s forwards;
      }
    </style>
  </defs>

  <!-- Background -->
  <rect width="800" height="400" fill="#0d1117" rx="8"/>

  <!-- Title -->
  <text x="400" y="25" text-anchor="middle" fill="#c9d1d9" font-family="system-ui, -apple-system, sans-serif" font-size="16" font-weight="600">
    zxcloli666/SoundCloud-Desktop Downloads
  </text>

  <!-- Stats -->
  <text x="780" y="25" text-anchor="end" fill="#58a6ff" font-family="system-ui, -apple-system, sans-serif" font-size="14" font-weight="600">
    196.3K total
  </text>
  <text x="780" y="42" text-anchor="end" fill="#3fb950" font-family="system-ui, -apple-system, sans-serif" font-size="12">
    +2.1K (+1.1%)
  </text>

  <!-- Grid lines -->
  <g opacity="0.1">
    
      <line x1="60" y1="340" x2="760" y2="340"
            stroke="#c9d1d9" stroke-width="1"/>
    
      <line x1="60" y1="268.75" x2="760" y2="268.75"
            stroke="#c9d1d9" stroke-width="1"/>
    
      <line x1="60" y1="197.5" x2="760" y2="197.5"
            stroke="#c9d1d9" stroke-width="1"/>
    
      <line x1="60" y1="126.25" x2="760" y2="126.25"
            stroke="#c9d1d9" stroke-width="1"/>
    
      <line x1="60" y1="55" x2="760" y2="55"
            stroke="#c9d1d9" stroke-width="1"/>
    
  </g>

  <!-- Y-axis labels -->
  
    <text x="50" y="344" text-anchor="end"
          fill="#8b949e" font-family="system-ui, -apple-system, sans-serif" font-size="11">
      60.2K
    </text>
  
    <text x="50" y="272.75" text-anchor="end"
          fill="#8b949e" font-family="system-ui, -apple-system, sans-serif" font-size="11">
      94.2K
    </text>
  
    <text x="50" y="201.5" text-anchor="end"
          fill="#8b949e" font-family="system-ui, -apple-system, sans-serif" font-size="11">
      128.3K
    </text>
  
    <text x="50" y="130.25" text-anchor="end"
          fill="#8b949e" font-family="system-ui, -apple-system, sans-serif" font-size="11">
      162.3K
    </text>
  
    <text x="50" y="59" text-anchor="end"
          fill="#8b949e" font-family="system-ui, -apple-system, sans-serif" font-size="11">
      196.3K
    </text>
  

  <!-- X-axis labels -->
  
    <text x="60" y="360" text-anchor="middle"
          fill="#8b949e" font-family="system-ui, -apple-system, sans-serif" font-size="11">
      Nov 25
    </text>
  
    <text x="146.41975308641975" y="360" text-anchor="middle"
          fill="#8b949e" font-family="system-ui, -apple-system, sans-serif" font-size="11">
      Dec 15
    </text>
  
    <text x="232.8395061728395" y="360" text-anchor="middle"
          fill="#8b949e" font-family="system-ui, -apple-system, sans-serif" font-size="11">
      Jan 4
    </text>
  
    <text x="319.25925925925924" y="360" text-anchor="middle"
          fill="#8b949e" font-family="system-ui, -apple-system, sans-serif" font-size="11">
      Jan 24
    </text>
  
    <text x="405.679012345679" y="360" text-anchor="middle"
          fill="#8b949e" font-family="system-ui, -apple-system, sans-serif" font-size="11">
      Feb 13
    </text>
  
    <text x="492.09876543209873" y="360" text-anchor="middle"
          fill="#8b949e" font-family="system-ui, -apple-system, sans-serif" font-size="11">
      Mar 5
    </text>
  
    <text x="578.5185185185185" y="360" text-anchor="middle"
          fill="#8b949e" font-family="system-ui, -apple-system, sans-serif" font-size="11">
      Mar 25
    </text>
  
    <text x="664.9382716049382" y="360" text-anchor="middle"
          fill="#8b949e" font-family="system-ui, -apple-system, sans-serif" font-size="11">
      Apr 14
    </text>
  
    <text x="751.358024691358" y="360" text-anchor="middle"
          fill="#8b949e" font-family="system-ui, -apple-system, sans-serif" font-size="11">
      May 4
    </text>
  
    <text x="760" y="360" text-anchor="middle"
          fill="#8b949e" font-family="system-ui, -apple-system, sans-serif" font-size="11">
      May 6
    </text>
  

  <!-- Area under line -->
  <path d="M 60 340
    L 60.00 340.00 L 64.32 339.69 L 68.64 339.17 L 72.96 338.68 L 77.28 337.72 L 81.60 336.72 L 85.93 335.94 L 90.25 335.21 L 94.57 334.56 L 98.89 333.79 L 103.21 332.94 L 107.53 332.03 L 111.85 331.20 L 116.17 330.32 L 120.49 329.68 L 124.81 329.01 L 129.14 328.11 L 133.46 327.50 L 137.78 326.66 L 142.10 325.70 L 146.42 324.97 L 150.74 324.37 L 155.06 323.98 L 159.38 323.66 L 163.70 323.07 L 168.02 322.64 L 172.35 321.71 L 176.67 321.34 L 180.99 320.87 L 185.31 320.26 L 189.63 319.84 L 193.95 319.42 L 198.27 318.97 L 202.59 318.66 L 206.91 318.39 L 211.23 317.98 L 215.56 317.49 L 219.88 317.03 L 224.20 316.45 L 228.52 315.83 L 232.84 315.25 L 237.16 314.55 L 241.48 313.87 L 245.80 313.18 L 250.12 312.43 L 254.44 311.72 L 258.77 310.90 L 263.09 310.17 L 267.41 309.55 L 271.73 309.06 L 276.05 308.37 L 280.37 307.58 L 284.69 306.86 L 289.01 306.01 L 293.33 304.97 L 297.65 304.20 L 301.98 303.56 L 306.30 302.95 L 310.62 302.21 L 314.94 301.36 L 319.26 300.41 L 323.58 299.42 L 327.90 298.46 L 332.22 297.62 L 336.54 296.79 L 340.86 296.06 L 345.19 295.31 L 349.51 294.47 L 353.83 293.43 L 358.15 292.65 L 362.47 291.96 L 366.79 291.19 L 371.11 290.47 L 375.43 289.67 L 379.75 288.85 L 384.07 287.99 L 388.40 287.23 L 392.72 286.59 L 397.04 285.88 L 401.36 285.11 L 405.68 284.40 L 410.00 283.47 L 414.32 282.67 L 418.64 281.91 L 422.96 281.27 L 427.28 280.65 L 431.60 280.03 L 435.93 279.28 L 440.25 278.52 L 444.57 277.59 L 448.89 276.84 L 453.21 276.23 L 457.53 275.60 L 461.85 275.00 L 466.17 274.25 L 470.49 273.49 L 474.81 271.80 L 479.14 268.44 L 483.46 264.43 L 487.78 260.79 L 492.10 258.94 L 496.42 256.15 L 500.74 254.30 L 505.06 252.67 L 509.38 251.09 L 513.70 249.59 L 518.02 247.26 L 522.35 245.41 L 526.67 243.05 L 530.99 242.57 L 535.31 242.50 L 539.63 242.42 L 543.95 242.35 L 548.27 242.26 L 552.59 242.18 L 556.91 242.15 L 561.23 242.04 L 565.56 241.93 L 569.88 241.85 L 574.20 241.82 L 578.52 241.70 L 582.84 238.67 L 587.16 233.92 L 591.48 230.73 L 595.80 227.04 L 600.12 223.23 L 604.44 220.24 L 608.77 216.90 L 613.09 211.81 L 617.41 204.95 L 621.73 200.47 L 626.05 195.14 L 630.37 189.20 L 634.69 184.44 L 639.01 179.27 L 643.33 174.68 L 647.65 170.14 L 651.98 165.61 L 656.30 159.44 L 660.62 153.25 L 664.94 148.10 L 669.26 143.77 L 673.58 139.58 L 677.90 134.01 L 682.22 129.70 L 686.54 125.43 L 690.86 121.43 L 695.19 117.67 L 699.51 113.81 L 703.83 110.52 L 708.15 107.11 L 712.47 103.62 L 716.79 99.94 L 721.11 96.56 L 725.43 93.46 L 729.75 87.86 L 734.07 83.16 L 738.40 78.66 L 742.72 74.33 L 747.04 67.49 L 751.36 63.17 L 755.68 59.42 L 760.00 55.00
    L 760 340
    Z" fill="url(#areaGradient)" class="area-path"/>

  <!-- Main line with glow -->
  <path d="M 60.00 340.00 L 64.32 339.69 L 68.64 339.17 L 72.96 338.68 L 77.28 337.72 L 81.60 336.72 L 85.93 335.94 L 90.25 335.21 L 94.57 334.56 L 98.89 333.79 L 103.21 332.94 L 107.53 332.03 L 111.85 331.20 L 116.17 330.32 L 120.49 329.68 L 124.81 329.01 L 129.14 328.11 L 133.46 327.50 L 137.78 326.66 L 142.10 325.70 L 146.42 324.97 L 150.74 324.37 L 155.06 323.98 L 159.38 323.66 L 163.70 323.07 L 168.02 322.64 L 172.35 321.71 L 176.67 321.34 L 180.99 320.87 L 185.31 320.26 L 189.63 319.84 L 193.95 319.42 L 198.27 318.97 L 202.59 318.66 L 206.91 318.39 L 211.23 317.98 L 215.56 317.49 L 219.88 317.03 L 224.20 316.45 L 228.52 315.83 L 232.84 315.25 L 237.16 314.55 L 241.48 313.87 L 245.80 313.18 L 250.12 312.43 L 254.44 311.72 L 258.77 310.90 L 263.09 310.17 L 267.41 309.55 L 271.73 309.06 L 276.05 308.37 L 280.37 307.58 L 284.69 306.86 L 289.01 306.01 L 293.33 304.97 L 297.65 304.20 L 301.98 303.56 L 306.30 302.95 L 310.62 302.21 L 314.94 301.36 L 319.26 300.41 L 323.58 299.42 L 327.90 298.46 L 332.22 297.62 L 336.54 296.79 L 340.86 296.06 L 345.19 295.31 L 349.51 294.47 L 353.83 293.43 L 358.15 292.65 L 362.47 291.96 L 366.79 291.19 L 371.11 290.47 L 375.43 289.67 L 379.75 288.85 L 384.07 287.99 L 388.40 287.23 L 392.72 286.59 L 397.04 285.88 L 401.36 285.11 L 405.68 284.40 L 410.00 283.47 L 414.32 282.67 L 418.64 281.91 L 422.96 281.27 L 427.28 280.65 L 431.60 280.03 L 435.93 279.28 L 440.25 278.52 L 444.57 277.59 L 448.89 276.84 L 453.21 276.23 L 457.53 275.60 L 461.85 275.00 L 466.17 274.25 L 470.49 273.49 L 474.81 271.80 L 479.14 268.44 L 483.46 264.43 L 487.78 260.79 L 492.10 258.94 L 496.42 256.15 L 500.74 254.30 L 505.06 252.67 L 509.38 251.09 L 513.70 249.59 L 518.02 247.26 L 522.35 245.41 L 526.67 243.05 L 530.99 242.57 L 535.31 242.50 L 539.63 242.42 L 543.95 242.35 L 548.27 242.26 L 552.59 242.18 L 556.91 242.15 L 561.23 242.04 L 565.56 241.93 L 569.88 241.85 L 574.20 241.82 L 578.52 241.70 L 582.84 238.67 L 587.16 233.92 L 591.48 230.73 L 595.80 227.04 L 600.12 223.23 L 604.44 220.24 L 608.77 216.90 L 613.09 211.81 L 617.41 204.95 L 621.73 200.47 L 626.05 195.14 L 630.37 189.20 L 634.69 184.44 L 639.01 179.27 L 643.33 174.68 L 647.65 170.14 L 651.98 165.61 L 656.30 159.44 L 660.62 153.25 L 664.94 148.10 L 669.26 143.77 L 673.58 139.58 L 677.90 134.01 L 682.22 129.70 L 686.54 125.43 L 690.86 121.43 L 695.19 117.67 L 699.51 113.81 L 703.83 110.52 L 708.15 107.11 L 712.47 103.62 L 716.79 99.94 L 721.11 96.56 L 725.43 93.46 L 729.75 87.86 L 734.07 83.16 L 738.40 78.66 L 742.72 74.33 L 747.04 67.49 L 751.36 63.17 L 755.68 59.42 L 760.00 55.00" fill="none" stroke="#3b82f6" stroke-width="3"
        stroke-linecap="round" stroke-linejoin="round" filter="url(#glow)" class="line-path"/>

  <!-- Data points -->
  
    <circle cx="60" cy="340" r="4" fill="#3b82f6" stroke="#0d1117" stroke-width="2" class="data-point"/>
  
    <circle cx="64.32098765432099" cy="339.6923986226037" r="4" fill="#3b82f6" stroke="#0d1117" stroke-width="2" class="data-point"/>
  
    <circle cx="68.64197530864197" cy="339.16926702839226" r="4" fill="#3b82f6" stroke="#0d1117" stroke-width="2" class="data-point"/>
  
    <circle cx="72.96296296296296" cy="338.6838009089641" r="4" fill="#3b82f6" stroke="#0d1117" stroke-width="2" class="data-point"/>
  
    <circle cx="77.28395061728395" cy="337.71914624923824" r="4" fill="#3b82f6" stroke="#0d1117" stroke-width="2" class="data-point"/>
  
    <circle cx="81.60493827160494" cy="336.72310369385974" r="4" fill="#3b82f6" stroke="#0d1117" stroke-width="2" class="data-point"/>
  
    <circle cx="85.92592592592592" cy="335.9384063025426" r="4" fill="#3b82f6" stroke="#0d1117" stroke-width="2" class="data-point"/>
  
    <circle cx="90.24691358024691" cy="335.2060220706466" r="4" fill="#3b82f6" stroke="#0d1117" stroke-width="2" class="data-point"/>
  
    <circle cx="94.5679012345679" cy="334.55524636744764" r="4" fill="#3b82f6" stroke="#0d1117" stroke-width="2" class="data-point"/>
  
    <circle cx="98.88888888888889" cy="333.79147423989895" r="4" fill="#3b82f6" stroke="#0d1117" stroke-width="2" class="data-point"/>
  
    <circle cx="103.20987654320987" cy="332.9398160045228" r="4" fill="#3b82f6" stroke="#0d1117" stroke-width="2" class="data-point"/>
  
    <circle cx="107.53086419753086" cy="332.0274745042181" r="4" fill="#3b82f6" stroke="#0d1117" stroke-width="2" class="data-point"/>
  
    <circle cx="111.85185185185185" cy="331.19883405898725" r="4" fill="#3b82f6" stroke="#0d1117" stroke-width="2" class="data-point"/>
  
    <circle cx="116.17283950617283" cy="330.3178804543352" r="4" fill="#3b82f6" stroke="#0d1117" stroke-width="2" class="data-point"/>
  
    <circle cx="120.49382716049382" cy="329.6754748566436" r="4" fill="#3b82f6" stroke="#0d1117" stroke-width="2" class="data-point"/>
  
    <circle cx="124.81481481481481" cy="329.0100514688067" r="4" fill="#3b82f6" stroke="#0d1117" stroke-width="2" class="data-point"/>
  
    <circle cx="129.1358024691358" cy="328.10608007400936" r="4" fill="#3b82f6" stroke="#0d1117" stroke-width="2" class="data-point"/>
  
    <circle cx="133.45679012345678" cy="327.501339951101" r="4" fill="#3b82f6" stroke="#0d1117" stroke-width="2" class="data-point"/>
  
    <circle cx="137.77777777777777" cy="326.6643294003627" r="4" fill="#3b82f6" stroke="#0d1117" stroke-width="2" class="data-point"/>
  
    <circle cx="142.09876543209876" cy="325.69758221426" r="4" fill="#3b82f6" stroke="#0d1117" stroke-width="2" class="data-point"/>
  
    <circle cx="146.41975308641975" cy="324.96938303511774" r="4" fill="#3b82f6" stroke="#0d1117" stroke-width="2" class="data-point"/>
  
    <circle cx="150.74074074074073" cy="324.37092049133986" r="4" fill="#3b82f6" stroke="#0d1117" stroke-width="2" class="data-point"/>
  
    <circle cx="155.06172839506172" cy="323.98380311162344" r="4" fill="#3b82f6" stroke="#0d1117" stroke-width="2" class="data-point"/>
  
    <circle cx="159.3827160493827" cy="323.6615540495892" r="4" fill="#3b82f6" stroke="#0d1117" stroke-width="2" class="data-point"/>
  
    <circle cx="163.7037037037037" cy="323.0651840321882" r="4" fill="#3b82f6" stroke="#0d1117" stroke-width="2" class="data-point"/>
  
    <circle cx="168.02469135802468" cy="322.64040117768855" r="4" fill="#3b82f6" stroke="#0d1117" stroke-width="2" class="data-point"/>
  
    <circle cx="172.34567901234567" cy="321.7092269399922" r="4" fill="#3b82f6" stroke="#0d1117" stroke-width="2" class="data-point"/>
  
    <circle cx="176.66666666666666" cy="321.34303482404425" r="4" fill="#3b82f6" stroke="#0d1117" stroke-width="2" class="data-point"/>
  
    <circle cx="180.98765432098764" cy="320.8701238628771" r="4" fill="#3b82f6" stroke="#0d1117" stroke-width="2" class="data-point"/>
  
    <circle cx="185.30864197530863" cy="320.2591061608382" r="4" fill="#3b82f6" stroke="#0d1117" stroke-width="2" class="data-point"/>
  
    <circle cx="189.62962962962962" cy="319.84060088546903" r="4" fill="#3b82f6" stroke="#0d1117" stroke-width="2" class="data-point"/>
  
    <circle cx="193.9506172839506" cy="319.4158180309694" r="4" fill="#3b82f6" stroke="#0d1117" stroke-width="2" class="data-point"/>
  
    <circle cx="198.2716049382716" cy="318.9701099127013" r="4" fill="#3b82f6" stroke="#0d1117" stroke-width="2" class="data-point"/>
  
    <circle cx="202.59259259259258" cy="318.6604160089281" r="4" fill="#3b82f6" stroke="#0d1117" stroke-width="2" class="data-point"/>
  
    <circle cx="206.91358024691357" cy="318.3925726326919" r="4" fill="#3b82f6" stroke="#0d1117" stroke-width="2" class="data-point"/>
  
    <circle cx="211.23456790123456" cy="317.984529989207" r="4" fill="#3b82f6" stroke="#0d1117" stroke-width="2" class="data-point"/>
  
    <circle cx="215.55555555555554" cy="317.48860123789456" r="4" fill="#3b82f6" stroke="#0d1117" stroke-width="2" class="data-point"/>
  
    <circle cx="219.87654320987653" cy="317.0324304877422" r="4" fill="#3b82f6" stroke="#0d1117" stroke-width="2" class="data-point"/>
  
    <circle cx="224.19753086419752" cy="316.4548932077328" r="4" fill="#3b82f6" stroke="#0d1117" stroke-width="2" class="data-point"/>
  
    <circle cx="228.5185185185185" cy="315.82504276830224" r="4" fill="#3b82f6" stroke="#0d1117" stroke-width="2" class="data-point"/>
  
    <circle cx="232.8395061728395" cy="315.24750548829286" r="4" fill="#3b82f6" stroke="#0d1117" stroke-width="2" class="data-point"/>
  
    <circle cx="237.1604938271605" cy="314.5506942048033" r="4" fill="#3b82f6" stroke="#0d1117" stroke-width="2" class="data-point"/>
  
    <circle cx="241.48148148148147" cy="313.8664380795747" r="4" fill="#3b82f6" stroke="#0d1117" stroke-width="2" class="data-point"/>
  
    <circle cx="245.80246913580248" cy="313.1821819543462" r="4" fill="#3b82f6" stroke="#0d1117" stroke-width="2" class="data-point"/>
  
    <circle cx="250.12345679012344" cy="312.4330575114355" r="4" fill="#3b82f6" stroke="#0d1117" stroke-width="2" class="data-point"/>
  
    <circle cx="254.44444444444446" cy="311.71741349055424" r="4" fill="#3b82f6" stroke="#0d1117" stroke-width="2" class="data-point"/>
  
    <circle cx="258.7654320987654" cy="310.8992356772076" r="4" fill="#3b82f6" stroke="#0d1117" stroke-width="2" class="data-point"/>
  
    <circle cx="263.08641975308643" cy="310.16894397168846" r="4" fill="#3b82f6" stroke="#0d1117" stroke-width="2" class="data-point"/>
  
    <circle cx="267.4074074074074" cy="309.551648690519" r="4" fill="#3b82f6" stroke="#0d1117" stroke-width="2" class="data-point"/>
  
    <circle cx="271.7283950617284" cy="309.0578124655834" r="4" fill="#3b82f6" stroke="#0d1117" stroke-width="2" class="data-point"/>
  
    <circle cx="276.04938271604937" cy="308.3672787612244" r="4" fill="#3b82f6" stroke="#0d1117" stroke-width="2" class="data-point"/>
  
    <circle cx="280.3703703703704" cy="307.5783963171536" r="4" fill="#3b82f6" stroke="#0d1117" stroke-width="2" class="data-point"/>
  
    <circle cx="284.69135802469134" cy="306.85647471714185" r="4" fill="#3b82f6" stroke="#0d1117" stroke-width="2" class="data-point"/>
  
    <circle cx="289.01234567901236" cy="306.013186587273" r="4" fill="#3b82f6" stroke="#0d1117" stroke-width="2" class="data-point"/>
  
    <circle cx="293.3333333333333" cy="304.97320097798075" r="4" fill="#3b82f6" stroke="#0d1117" stroke-width="2" class="data-point"/>
  
    <circle cx="297.65432098765433" cy="304.19896621854787" r="4" fill="#3b82f6" stroke="#0d1117" stroke-width="2" class="data-point"/>
  
    <circle cx="301.9753086419753" cy="303.55656062085626" r="4" fill="#3b82f6" stroke="#0d1117" stroke-width="2" class="data-point"/>
  
    <circle cx="306.2962962962963" cy="302.9455429188173" r="4" fill="#3b82f6" stroke="#0d1117" stroke-width="2" class="data-point"/>
  
    <circle cx="310.61728395061726" cy="302.2110661605445" r="4" fill="#3b82f6" stroke="#0d1117" stroke-width="2" class="data-point"/>
  
    <circle cx="314.9382716049383" cy="301.35731539879146" r="4" fill="#3b82f6" stroke="#0d1117" stroke-width="2" class="data-point"/>
  
    <circle cx="319.25925925925924" cy="300.4114934764572" r="4" fill="#3b82f6" stroke="#0d1117" stroke-width="2" class="data-point"/>
  
    <circle cx="323.58024691358025" cy="299.41754344745556" r="4" fill="#3b82f6" stroke="#0d1117" stroke-width="2" class="data-point"/>
  
    <circle cx="327.9012345679012" cy="298.46335141961396" r="4" fill="#3b82f6" stroke="#0d1117" stroke-width="2" class="data-point"/>
  
    <circle cx="332.22222222222223" cy="297.62424834249884" r="4" fill="#3b82f6" stroke="#0d1117" stroke-width="2" class="data-point"/>
  
    <circle cx="336.5432098765432" cy="296.7914228445143" r="4" fill="#3b82f6" stroke="#0d1117" stroke-width="2" class="data-point"/>
  
    <circle cx="340.8641975308642" cy="296.05694608624145" r="4" fill="#3b82f6" stroke="#0d1117" stroke-width="2" class="data-point"/>
  
    <circle cx="345.18518518518516" cy="295.3078216433307" r="4" fill="#3b82f6" stroke="#0d1117" stroke-width="2" class="data-point"/>
  
    <circle cx="349.5061728395062" cy="294.47081109259244" r="4" fill="#3b82f6" stroke="#0d1117" stroke-width="2" class="data-point"/>
  
    <circle cx="353.82716049382714" cy="293.42873295692334" r="4" fill="#3b82f6" stroke="#0d1117" stroke-width="2" class="data-point"/>
  
    <circle cx="358.14814814814815" cy="292.65240567111357" r="4" fill="#3b82f6" stroke="#0d1117" stroke-width="2" class="data-point"/>
  
    <circle cx="362.4691358024691" cy="291.9576869140008" r="4" fill="#3b82f6" stroke="#0d1117" stroke-width="2" class="data-point"/>
  
    <circle cx="366.7901234567901" cy="291.1855446809448" r="4" fill="#3b82f6" stroke="#0d1117" stroke-width="2" class="data-point"/>
  
    <circle cx="371.1111111111111" cy="290.4657156073099" r="4" fill="#3b82f6" stroke="#0d1117" stroke-width="2" class="data-point"/>
  
    <circle cx="375.4320987654321" cy="289.6747406368622" r="4" fill="#3b82f6" stroke="#0d1117" stroke-width="2" class="data-point"/>
  
    <circle cx="379.75308641975306" cy="288.8502852443851" r="4" fill="#3b82f6" stroke="#0d1117" stroke-width="2" class="data-point"/>
  
    <circle cx="384.0740740740741" cy="287.98816437712463" r="4" fill="#3b82f6" stroke="#0d1117" stroke-width="2" class="data-point"/>
  
    <circle cx="388.39506172839504" cy="287.23276235508337" r="4" fill="#3b82f6" stroke="#0d1117" stroke-width="2" class="data-point"/>
  
    <circle cx="392.71604938271605" cy="286.58617170463805" r="4" fill="#3b82f6" stroke="#0d1117" stroke-width="2" class="data-point"/>
  
    <circle cx="397.037037037037" cy="285.8768052628874" r="4" fill="#3b82f6" stroke="#0d1117" stroke-width="2" class="data-point"/>
  
    <circle cx="401.358024691358" cy="285.10884808258504" r="4" fill="#3b82f6" stroke="#0d1117" stroke-width="2" class="data-point"/>
  
    <circle cx="405.679012345679" cy="284.3973891144575" r="4" fill="#3b82f6" stroke="#0d1117" stroke-width="2" class="data-point"/>
  
    <circle cx="410" cy="283.4703999295149" r="4" fill="#3b82f6" stroke="#0d1117" stroke-width="2" class="data-point"/>
  
    <circle cx="414.320987654321" cy="282.6731473799367" r="4" fill="#3b82f6" stroke="#0d1117" stroke-width="2" class="data-point"/>
  
    <circle cx="418.64197530864203" cy="281.9051901996344" r="4" fill="#3b82f6" stroke="#0d1117" stroke-width="2" class="data-point"/>
  
    <circle cx="422.96296296296293" cy="281.2669696546964" r="4" fill="#3b82f6" stroke="#0d1117" stroke-width="2" class="data-point"/>
  
    <circle cx="427.28395061728395" cy="280.64758184715015" r="4" fill="#3b82f6" stroke="#0d1117" stroke-width="2" class="data-point"/>
  
    <circle cx="431.60493827160496" cy="280.026101513227" r="4" fill="#3b82f6" stroke="#0d1117" stroke-width="2" class="data-point"/>
  
    <circle cx="435.925925925926" cy="279.28325464944675" r="4" fill="#3b82f6" stroke="#0d1117" stroke-width="2" class="data-point"/>
  
    <circle cx="440.2469135802469" cy="278.5194825218981" r="4" fill="#3b82f6" stroke="#0d1117" stroke-width="2" class="data-point"/>
  
    <circle cx="444.5679012345679" cy="277.5924933369555" r="4" fill="#3b82f6" stroke="#0d1117" stroke-width="2" class="data-point"/>
  
    <circle cx="448.8888888888889" cy="276.8412763676679" r="4" fill="#3b82f6" stroke="#0d1117" stroke-width="2" class="data-point"/>
  
    <circle cx="453.20987654320993" cy="276.22816613925215" r="4" fill="#3b82f6" stroke="#0d1117" stroke-width="2" class="data-point"/>
  
    <circle cx="457.53086419753083" cy="275.59831569982157" r="4" fill="#3b82f6" stroke="#0d1117" stroke-width="2" class="data-point"/>
  
    <circle cx="461.85185185185185" cy="274.99566810329003" r="4" fill="#3b82f6" stroke="#0d1117" stroke-width="2" class="data-point"/>
  
    <circle cx="466.17283950617286" cy="274.25072871313296" r="4" fill="#3b82f6" stroke="#0d1117" stroke-width="2" class="data-point"/>
  
    <circle cx="470.4938271604939" cy="273.4869565855843" r="4" fill="#3b82f6" stroke="#0d1117" stroke-width="2" class="data-point"/>
  
    <circle cx="474.8148148148148" cy="271.7982877994699" r="4" fill="#3b82f6" stroke="#0d1117" stroke-width="2" class="data-point"/>
  
    <circle cx="479.1358024691358" cy="268.4376904382558" r="4" fill="#3b82f6" stroke="#0d1117" stroke-width="2" class="data-point"/>
  
    <circle cx="483.4567901234568" cy="264.43468747935003" r="4" fill="#3b82f6" stroke="#0d1117" stroke-width="2" class="data-point"/>
  
    <circle cx="487.7777777777778" cy="260.7874140045081" r="4" fill="#3b82f6" stroke="#0d1117" stroke-width="2" class="data-point"/>
  
    <circle cx="492.09876543209873" cy="258.9376206873766" r="4" fill="#3b82f6" stroke="#0d1117" stroke-width="2" class="data-point"/>
  
    <circle cx="496.41975308641975" cy="256.15037555341814" r="4" fill="#3b82f6" stroke="#0d1117" stroke-width="2" class="data-point"/>
  
    <circle cx="500.74074074074076" cy="254.29848970990975" r="4" fill="#3b82f6" stroke="#0d1117" stroke-width="2" class="data-point"/>
  
    <circle cx="505.0617283950618" cy="252.67468924147755" r="4" fill="#3b82f6" stroke="#0d1117" stroke-width="2" class="data-point"/>
  
    <circle cx="509.3827160493827" cy="251.0864617214517" r="4" fill="#3b82f6" stroke="#0d1117" stroke-width="2" class="data-point"/>
  
    <circle cx="513.7037037037037" cy="249.5903053620071" r="4" fill="#3b82f6" stroke="#0d1117" stroke-width="2" class="data-point"/>
  
    <circle cx="518.0246913580247" cy="247.26341603095472" r="4" fill="#3b82f6" stroke="#0d1117" stroke-width="2" class="data-point"/>
  
    <circle cx="522.3456790123457" cy="245.41362271382314" r="4" fill="#3b82f6" stroke="#0d1117" stroke-width="2" class="data-point"/>
  
    <circle cx="526.6666666666666" cy="243.0490679079876" r="4" fill="#3b82f6" stroke="#0d1117" stroke-width="2" class="data-point"/>
  
    <circle cx="530.9876543209876" cy="242.56569431493625" r="4" fill="#3b82f6" stroke="#0d1117" stroke-width="2" class="data-point"/>
  
    <circle cx="535.3086419753087" cy="242.50291852363085" r="4" fill="#3b82f6" stroke="#0d1117" stroke-width="2" class="data-point"/>
  
    <circle cx="539.6296296296297" cy="242.4213099949339" r="4" fill="#3b82f6" stroke="#0d1117" stroke-width="2" class="data-point"/>
  
    <circle cx="543.9506172839506" cy="242.35225662449798" r="4" fill="#3b82f6" stroke="#0d1117" stroke-width="2" class="data-point"/>
  
    <circle cx="548.2716049382716" cy="242.26227799029363" r="4" fill="#3b82f6" stroke="#0d1117" stroke-width="2" class="data-point"/>
  
    <circle cx="552.5925925925926" cy="242.1827619879735" r="4" fill="#3b82f6" stroke="#0d1117" stroke-width="2" class="data-point"/>
  
    <circle cx="556.9135802469136" cy="242.1513740923208" r="4" fill="#3b82f6" stroke="#0d1117" stroke-width="2" class="data-point"/>
  
    <circle cx="561.2345679012345" cy="242.0362851415943" r="4" fill="#3b82f6" stroke="#0d1117" stroke-width="2" class="data-point"/>
  
    <circle cx="565.5555555555555" cy="241.92538124362147" r="4" fill="#3b82f6" stroke="#0d1117" stroke-width="2" class="data-point"/>
  
    <circle cx="569.8765432098766" cy="241.85214282043188" r="4" fill="#3b82f6" stroke="#0d1117" stroke-width="2" class="data-point"/>
  
    <circle cx="574.1975308641976" cy="241.82493997753286" r="4" fill="#3b82f6" stroke="#0d1117" stroke-width="2" class="data-point"/>
  
    <circle cx="578.5185185185185" cy="241.70148092129898" r="4" fill="#3b82f6" stroke="#0d1117" stroke-width="2" class="data-point"/>
  
    <circle cx="582.8395061728395" cy="238.66731767487278" r="4" fill="#3b82f6" stroke="#0d1117" stroke-width="2" class="data-point"/>
  
    <circle cx="587.1604938271605" cy="233.91519027305634" r="4" fill="#3b82f6" stroke="#0d1117" stroke-width="2" class="data-point"/>
  
    <circle cx="591.4814814814815" cy="230.73245765387412" r="4" fill="#3b82f6" stroke="#0d1117" stroke-width="2" class="data-point"/>
  
    <circle cx="595.8024691358024" cy="227.0370560723647" r="4" fill="#3b82f6" stroke="#0d1117" stroke-width="2" class="data-point"/>
  
    <circle cx="600.1234567901234" cy="223.2286580665056" r="4" fill="#3b82f6" stroke="#0d1117" stroke-width="2" class="data-point"/>
  
    <circle cx="604.4444444444445" cy="220.24053040037006" r="4" fill="#3b82f6" stroke="#0d1117" stroke-width="2" class="data-point"/>
  
    <circle cx="608.7654320987655" cy="216.89876577654755" r="4" fill="#3b82f6" stroke="#0d1117" stroke-width="2" class="data-point"/>
  
    <circle cx="613.0864197530864" cy="211.8076491016821" r="4" fill="#3b82f6" stroke="#0d1117" stroke-width="2" class="data-point"/>
  
    <circle cx="617.4074074074074" cy="204.94625511200522" r="4" fill="#3b82f6" stroke="#0d1117" stroke-width="2" class="data-point"/>
  
    <circle cx="621.7283950617284" cy="200.46824866555554" r="4" fill="#3b82f6" stroke="#0d1117" stroke-width="2" class="data-point"/>
  
    <circle cx="626.0493827160494" cy="195.13858398372972" r="4" fill="#3b82f6" stroke="#0d1117" stroke-width="2" class="data-point"/>
  
    <circle cx="630.3703703703703" cy="189.19999412624173" r="4" fill="#3b82f6" stroke="#0d1117" stroke-width="2" class="data-point"/>
  
    <circle cx="634.6913580246913" cy="184.43740409254107" r="4" fill="#3b82f6" stroke="#0d1117" stroke-width="2" class="data-point"/>
  
    <circle cx="639.0123456790124" cy="179.26886394173232" r="4" fill="#3b82f6" stroke="#0d1117" stroke-width="2" class="data-point"/>
  
    <circle cx="643.3333333333334" cy="174.68413865006352" r="4" fill="#3b82f6" stroke="#0d1117" stroke-width="2" class="data-point"/>
  
    <circle cx="647.6543209876543" cy="170.1412638859316" r="4" fill="#3b82f6" stroke="#0d1117" stroke-width="2" class="data-point"/>
  
    <circle cx="651.9753086419753" cy="165.6109442800608" r="4" fill="#3b82f6" stroke="#0d1117" stroke-width="2" class="data-point"/>
  
    <circle cx="656.2962962962963" cy="159.44217652111982" r="4" fill="#3b82f6" stroke="#0d1117" stroke-width="2" class="data-point"/>
  
    <circle cx="660.6172839506173" cy="153.25457602478724" r="4" fill="#3b82f6" stroke="#0d1117" stroke-width="2" class="data-point"/>
  
    <circle cx="664.9382716049382" cy="148.09649850586274" r="4" fill="#3b82f6" stroke="#0d1117" stroke-width="2" class="data-point"/>
  
    <circle cx="669.2592592592592" cy="143.77333901129964" r="4" fill="#3b82f6" stroke="#0d1117" stroke-width="2" class="data-point"/>
  
    <circle cx="673.5802469135803" cy="139.579916152101" r="4" fill="#3b82f6" stroke="#0d1117" stroke-width="2" class="data-point"/>
  
    <circle cx="677.9012345679013" cy="134.01379598969154" r="4" fill="#3b82f6" stroke="#0d1117" stroke-width="2" class="data-point"/>
  
    <circle cx="682.2222222222222" cy="129.69691407425898" r="4" fill="#3b82f6" stroke="#0d1117" stroke-width="2" class="data-point"/>
  
    <circle cx="686.5432098765432" cy="125.42606773911703" r="4" fill="#3b82f6" stroke="#0d1117" stroke-width="2" class="data-point"/>
  
    <circle cx="690.8641975308642" cy="121.43143488571869" r="4" fill="#3b82f6" stroke="#0d1117" stroke-width="2" class="data-point"/>
  
    <circle cx="695.1851851851852" cy="117.66907246015023" r="4" fill="#3b82f6" stroke="#0d1117" stroke-width="2" class="data-point"/>
  
    <circle cx="699.5061728395061" cy="113.81463887400054" r="4" fill="#3b82f6" stroke="#0d1117" stroke-width="2" class="data-point"/>
  
    <circle cx="703.8271604938271" cy="110.51890983046866" r="4" fill="#3b82f6" stroke="#0d1117" stroke-width="2" class="data-point"/>
  
    <circle cx="708.1481481481482" cy="107.10599930983341" r="4" fill="#3b82f6" stroke="#0d1117" stroke-width="2" class="data-point"/>
  
    <circle cx="712.4691358024692" cy="103.62194289238542" r="4" fill="#3b82f6" stroke="#0d1117" stroke-width="2" class="data-point"/>
  
    <circle cx="716.7901234567901" cy="99.93909646913707" r="4" fill="#3b82f6" stroke="#0d1117" stroke-width="2" class="data-point"/>
  
    <circle cx="721.1111111111111" cy="96.55966637053137" r="4" fill="#3b82f6" stroke="#0d1117" stroke-width="2" class="data-point"/>
  
    <circle cx="725.4320987654321" cy="93.46481985917666" r="4" fill="#3b82f6" stroke="#0d1117" stroke-width="2" class="data-point"/>
  
    <circle cx="729.7530864197531" cy="87.85684916923032" r="4" fill="#3b82f6" stroke="#0d1117" stroke-width="2" class="data-point"/>
  
    <circle cx="734.074074074074" cy="83.16331250596551" r="4" fill="#3b82f6" stroke="#0d1117" stroke-width="2" class="data-point"/>
  
    <circle cx="738.395061728395" cy="78.65601069024001" r="4" fill="#3b82f6" stroke="#0d1117" stroke-width="2" class="data-point"/>
  
    <circle cx="742.716049382716" cy="74.32657361654634" r="4" fill="#3b82f6" stroke="#0d1117" stroke-width="2" class="data-point"/>
  
    <circle cx="747.0370370370371" cy="67.49028994339164" r="4" fill="#3b82f6" stroke="#0d1117" stroke-width="2" class="data-point"/>
  
    <circle cx="751.358024691358" cy="63.16503792245169" r="4" fill="#3b82f6" stroke="#0d1117" stroke-width="2" class="data-point"/>
  
    <circle cx="755.679012345679" cy="59.421508234274825" r="4" fill="#3b82f6" stroke="#0d1117" stroke-width="2" class="data-point"/>
  
    <circle cx="760" cy="55" r="4" fill="#3b82f6" stroke="#0d1117" stroke-width="2" class="data-point"/>
  

  <!-- Axis lines -->
  <line x1="60" y1="55" x2="60" y2="340"
        stroke="#30363d" stroke-width="2"/>
  <line x1="60" y1="340" x2="760" y2="340"
        stroke="#30363d" stroke-width="2"/>
</svg>