<?xml version="1.0" encoding="UTF-8"?>
<svg width="800" height="400" xmlns="http://www.w3.org/2000/svg">
  <defs>
    <!-- Gradient for area fill -->
    <linearGradient id="areaGradient" x1="0%" y1="0%" x2="0%" y2="100%">
      <stop offset="0%" style="stop-color:#3b82f6;stop-opacity:0.3" />
      <stop offset="100%" style="stop-color:#3b82f6;stop-opacity:0.05" />
    </linearGradient>

    <!-- Glow filter for line -->
    <filter id="glow">
      <feGaussianBlur stdDeviation="2" result="coloredBlur"/>
      <feMerge>
        <feMergeNode in="coloredBlur"/>
        <feMergeNode in="SourceGraphic"/>
      </feMerge>
    </filter>

    <!-- Animation -->
    <style>
      @keyframes draw {
        from { stroke-dashoffset: 2000; }
        to { stroke-dashoffset: 0; }
      }
      @keyframes fadeIn {
        from { opacity: 0; }
        to { opacity: 1; }
      }
      .line-path {
        stroke-dasharray: 2000;
        stroke-dashoffset: 2000;
        animation: draw 1.5s ease-out forwards;
      }
      .area-path {
        opacity: 0;
        animation: fadeIn 1s ease-out 0.5s forwards;
      }
      .data-point {
        opacity: 0;
        animation: fadeIn 0.5s ease-out 1s forwards;
      }
    </style>
  </defs>

  <!-- Background -->
  <rect width="800" height="400" fill="#0d1117" rx="8"/>

  <!-- Title -->
  <text x="400" y="25" text-anchor="middle" fill="#c9d1d9" font-family="system-ui, -apple-system, sans-serif" font-size="16" font-weight="600">
    zxcloli666/SoundCloud-Desktop Downloads
  </text>

  <!-- Stats -->
  <text x="780" y="25" text-anchor="end" fill="#58a6ff" font-family="system-ui, -apple-system, sans-serif" font-size="14" font-weight="600">
    124.7K total
  </text>
  <text x="780" y="42" text-anchor="end" fill="#3fb950" font-family="system-ui, -apple-system, sans-serif" font-size="12">
    +3.3K (+2.7%)
  </text>

  <!-- Grid lines -->
  <g opacity="0.1">
    
      <line x1="60" y1="340" x2="760" y2="340"
            stroke="#c9d1d9" stroke-width="1"/>
    
      <line x1="60" y1="268.75" x2="760" y2="268.75"
            stroke="#c9d1d9" stroke-width="1"/>
    
      <line x1="60" y1="197.5" x2="760" y2="197.5"
            stroke="#c9d1d9" stroke-width="1"/>
    
      <line x1="60" y1="126.25" x2="760" y2="126.25"
            stroke="#c9d1d9" stroke-width="1"/>
    
      <line x1="60" y1="55" x2="760" y2="55"
            stroke="#c9d1d9" stroke-width="1"/>
    
  </g>

  <!-- Y-axis labels -->
  
    <text x="50" y="344" text-anchor="end"
          fill="#8b949e" font-family="system-ui, -apple-system, sans-serif" font-size="11">
      60.2K
    </text>
  
    <text x="50" y="272.75" text-anchor="end"
          fill="#8b949e" font-family="system-ui, -apple-system, sans-serif" font-size="11">
      76.3K
    </text>
  
    <text x="50" y="201.5" text-anchor="end"
          fill="#8b949e" font-family="system-ui, -apple-system, sans-serif" font-size="11">
      92.4K
    </text>
  
    <text x="50" y="130.25" text-anchor="end"
          fill="#8b949e" font-family="system-ui, -apple-system, sans-serif" font-size="11">
      108.6K
    </text>
  
    <text x="50" y="59" text-anchor="end"
          fill="#8b949e" font-family="system-ui, -apple-system, sans-serif" font-size="11">
      124.7K
    </text>
  

  <!-- X-axis labels -->
  
    <text x="60" y="360" text-anchor="middle"
          fill="#8b949e" font-family="system-ui, -apple-system, sans-serif" font-size="11">
      Nov 25
    </text>
  
    <text x="146.82170542635657" y="360" text-anchor="middle"
          fill="#8b949e" font-family="system-ui, -apple-system, sans-serif" font-size="11">
      Dec 11
    </text>
  
    <text x="233.64341085271317" y="360" text-anchor="middle"
          fill="#8b949e" font-family="system-ui, -apple-system, sans-serif" font-size="11">
      Dec 27
    </text>
  
    <text x="320.4651162790698" y="360" text-anchor="middle"
          fill="#8b949e" font-family="system-ui, -apple-system, sans-serif" font-size="11">
      Jan 12
    </text>
  
    <text x="407.28682170542635" y="360" text-anchor="middle"
          fill="#8b949e" font-family="system-ui, -apple-system, sans-serif" font-size="11">
      Jan 28
    </text>
  
    <text x="494.1085271317829" y="360" text-anchor="middle"
          fill="#8b949e" font-family="system-ui, -apple-system, sans-serif" font-size="11">
      Feb 13
    </text>
  
    <text x="580.9302325581396" y="360" text-anchor="middle"
          fill="#8b949e" font-family="system-ui, -apple-system, sans-serif" font-size="11">
      Mar 1
    </text>
  
    <text x="667.7519379844961" y="360" text-anchor="middle"
          fill="#8b949e" font-family="system-ui, -apple-system, sans-serif" font-size="11">
      Mar 17
    </text>
  
    <text x="754.5736434108527" y="360" text-anchor="middle"
          fill="#8b949e" font-family="system-ui, -apple-system, sans-serif" font-size="11">
      Apr 2
    </text>
  
    <text x="760" y="360" text-anchor="middle"
          fill="#8b949e" font-family="system-ui, -apple-system, sans-serif" font-size="11">
      Apr 3
    </text>
  

  <!-- Area under line -->
  <path d="M 60 340
    L 60.00 340.00 L 65.43 339.35 L 70.85 338.25 L 76.28 337.22 L 81.71 335.19 L 87.13 333.08 L 92.56 331.43 L 97.98 329.88 L 103.41 328.51 L 108.84 326.90 L 114.26 325.10 L 119.69 323.18 L 125.12 321.43 L 130.54 319.57 L 135.97 318.21 L 141.40 316.81 L 146.82 314.90 L 152.25 313.62 L 157.67 311.86 L 163.10 309.82 L 168.53 308.28 L 173.95 307.02 L 179.38 306.20 L 184.81 305.52 L 190.23 304.26 L 195.66 303.37 L 201.09 301.40 L 206.51 300.63 L 211.94 299.63 L 217.36 298.34 L 222.79 297.46 L 228.22 296.56 L 233.64 295.62 L 239.07 294.97 L 244.50 294.40 L 249.92 293.54 L 255.35 292.49 L 260.78 291.53 L 266.20 290.31 L 271.63 288.98 L 277.05 287.77 L 282.48 286.30 L 287.91 284.85 L 293.33 283.41 L 298.76 281.83 L 304.19 280.32 L 309.61 278.59 L 315.04 277.05 L 320.47 275.75 L 325.89 274.70 L 331.32 273.25 L 336.74 271.58 L 342.17 270.06 L 347.60 268.28 L 353.02 266.08 L 358.45 264.45 L 363.88 263.09 L 369.30 261.81 L 374.73 260.26 L 380.16 258.45 L 385.58 256.46 L 391.01 254.36 L 396.43 252.35 L 401.86 250.58 L 407.29 248.82 L 412.71 247.27 L 418.14 245.69 L 423.57 243.92 L 428.99 241.72 L 434.42 240.08 L 439.84 238.62 L 445.27 236.99 L 450.70 235.47 L 456.12 233.80 L 461.55 232.06 L 466.98 230.24 L 472.40 228.65 L 477.83 227.28 L 483.26 225.79 L 488.68 224.16 L 494.11 222.66 L 499.53 220.71 L 504.96 219.02 L 510.39 217.40 L 515.81 216.06 L 521.24 214.75 L 526.67 213.44 L 532.09 211.87 L 537.52 210.26 L 542.95 208.30 L 548.37 206.72 L 553.80 205.42 L 559.22 204.09 L 564.65 202.82 L 570.08 201.25 L 575.50 199.64 L 580.93 196.08 L 586.36 188.98 L 591.78 180.54 L 597.21 172.84 L 602.64 168.94 L 608.06 163.05 L 613.49 159.15 L 618.91 155.72 L 624.34 152.37 L 629.77 149.21 L 635.19 144.30 L 640.62 140.40 L 646.05 135.41 L 651.47 134.39 L 656.90 134.25 L 662.33 134.08 L 667.75 133.94 L 673.18 133.75 L 678.60 133.58 L 684.03 133.51 L 689.46 133.27 L 694.88 133.04 L 700.31 132.88 L 705.74 132.82 L 711.16 132.56 L 716.59 126.16 L 722.02 116.13 L 727.44 109.42 L 732.87 101.62 L 738.29 93.58 L 743.72 87.28 L 749.15 80.22 L 754.57 69.48 L 760.00 55.00
    L 760 340
    Z" fill="url(#areaGradient)" class="area-path"/>

  <!-- Main line with glow -->
  <path d="M 60.00 340.00 L 65.43 339.35 L 70.85 338.25 L 76.28 337.22 L 81.71 335.19 L 87.13 333.08 L 92.56 331.43 L 97.98 329.88 L 103.41 328.51 L 108.84 326.90 L 114.26 325.10 L 119.69 323.18 L 125.12 321.43 L 130.54 319.57 L 135.97 318.21 L 141.40 316.81 L 146.82 314.90 L 152.25 313.62 L 157.67 311.86 L 163.10 309.82 L 168.53 308.28 L 173.95 307.02 L 179.38 306.20 L 184.81 305.52 L 190.23 304.26 L 195.66 303.37 L 201.09 301.40 L 206.51 300.63 L 211.94 299.63 L 217.36 298.34 L 222.79 297.46 L 228.22 296.56 L 233.64 295.62 L 239.07 294.97 L 244.50 294.40 L 249.92 293.54 L 255.35 292.49 L 260.78 291.53 L 266.20 290.31 L 271.63 288.98 L 277.05 287.77 L 282.48 286.30 L 287.91 284.85 L 293.33 283.41 L 298.76 281.83 L 304.19 280.32 L 309.61 278.59 L 315.04 277.05 L 320.47 275.75 L 325.89 274.70 L 331.32 273.25 L 336.74 271.58 L 342.17 270.06 L 347.60 268.28 L 353.02 266.08 L 358.45 264.45 L 363.88 263.09 L 369.30 261.81 L 374.73 260.26 L 380.16 258.45 L 385.58 256.46 L 391.01 254.36 L 396.43 252.35 L 401.86 250.58 L 407.29 248.82 L 412.71 247.27 L 418.14 245.69 L 423.57 243.92 L 428.99 241.72 L 434.42 240.08 L 439.84 238.62 L 445.27 236.99 L 450.70 235.47 L 456.12 233.80 L 461.55 232.06 L 466.98 230.24 L 472.40 228.65 L 477.83 227.28 L 483.26 225.79 L 488.68 224.16 L 494.11 222.66 L 499.53 220.71 L 504.96 219.02 L 510.39 217.40 L 515.81 216.06 L 521.24 214.75 L 526.67 213.44 L 532.09 211.87 L 537.52 210.26 L 542.95 208.30 L 548.37 206.72 L 553.80 205.42 L 559.22 204.09 L 564.65 202.82 L 570.08 201.25 L 575.50 199.64 L 580.93 196.08 L 586.36 188.98 L 591.78 180.54 L 597.21 172.84 L 602.64 168.94 L 608.06 163.05 L 613.49 159.15 L 618.91 155.72 L 624.34 152.37 L 629.77 149.21 L 635.19 144.30 L 640.62 140.40 L 646.05 135.41 L 651.47 134.39 L 656.90 134.25 L 662.33 134.08 L 667.75 133.94 L 673.18 133.75 L 678.60 133.58 L 684.03 133.51 L 689.46 133.27 L 694.88 133.04 L 700.31 132.88 L 705.74 132.82 L 711.16 132.56 L 716.59 126.16 L 722.02 116.13 L 727.44 109.42 L 732.87 101.62 L 738.29 93.58 L 743.72 87.28 L 749.15 80.22 L 754.57 69.48 L 760.00 55.00" fill="none" stroke="#3b82f6" stroke-width="3"
        stroke-linecap="round" stroke-linejoin="round" filter="url(#glow)" class="line-path"/>

  <!-- Data points -->
  
    <circle cx="60" cy="340" r="4" fill="#3b82f6" stroke="#0d1117" stroke-width="2" class="data-point"/>
  
    <circle cx="65.42635658914729" cy="339.3508777366325" r="4" fill="#3b82f6" stroke="#0d1117" stroke-width="2" class="data-point"/>
  
    <circle cx="70.85271317829458" cy="338.2469283091368" r="4" fill="#3b82f6" stroke="#0d1117" stroke-width="2" class="data-point"/>
  
    <circle cx="76.27906976744185" cy="337.22246324042084" r="4" fill="#3b82f6" stroke="#0d1117" stroke-width="2" class="data-point"/>
  
    <circle cx="81.70542635658914" cy="335.18678049611873" r="4" fill="#3b82f6" stroke="#0d1117" stroke-width="2" class="data-point"/>
  
    <circle cx="87.13178294573643" cy="333.0848607861669" r="4" fill="#3b82f6" stroke="#0d1117" stroke-width="2" class="data-point"/>
  
    <circle cx="92.55813953488372" cy="331.4289366449234" r="4" fill="#3b82f6" stroke="#0d1117" stroke-width="2" class="data-point"/>
  
    <circle cx="97.98449612403101" cy="329.8834074464294" r="4" fill="#3b82f6" stroke="#0d1117" stroke-width="2" class="data-point"/>
  
    <circle cx="103.41085271317829" cy="328.51009435862477" r="4" fill="#3b82f6" stroke="#0d1117" stroke-width="2" class="data-point"/>
  
    <circle cx="108.83720930232559" cy="326.89832819448105" r="4" fill="#3b82f6" stroke="#0d1117" stroke-width="2" class="data-point"/>
  
    <circle cx="114.26356589147287" cy="325.101098526518" r="4" fill="#3b82f6" stroke="#0d1117" stroke-width="2" class="data-point"/>
  
    <circle cx="119.68992248062015" cy="323.1758107249655" r="4" fill="#3b82f6" stroke="#0d1117" stroke-width="2" class="data-point"/>
  
    <circle cx="125.11627906976744" cy="321.42715483181235" r="4" fill="#3b82f6" stroke="#0d1117" stroke-width="2" class="data-point"/>
  
    <circle cx="130.54263565891472" cy="319.56810399590955" r="4" fill="#3b82f6" stroke="#0d1117" stroke-width="2" class="data-point"/>
  
    <circle cx="135.96899224806202" cy="318.2124540989449" r="4" fill="#3b82f6" stroke="#0d1117" stroke-width="2" class="data-point"/>
  
    <circle cx="141.3953488372093" cy="316.8082304271703" r="4" fill="#3b82f6" stroke="#0d1117" stroke-width="2" class="data-point"/>
  
    <circle cx="146.82170542635657" cy="314.90060581645776" r="4" fill="#3b82f6" stroke="#0d1117" stroke-width="2" class="data-point"/>
  
    <circle cx="152.24806201550388" cy="313.62444027827274" r="4" fill="#3b82f6" stroke="#0d1117" stroke-width="2" class="data-point"/>
  
    <circle cx="157.67441860465118" cy="311.8581211942796" r="4" fill="#3b82f6" stroke="#0d1117" stroke-width="2" class="data-point"/>
  
    <circle cx="163.10077519379846" cy="309.81802265226753" r="4" fill="#3b82f6" stroke="#0d1117" stroke-width="2" class="data-point"/>
  
    <circle cx="168.52713178294573" cy="308.2813250491935" r="4" fill="#3b82f6" stroke="#0d1117" stroke-width="2" class="data-point"/>
  
    <circle cx="173.95348837209303" cy="307.01840690413843" r="4" fill="#3b82f6" stroke="#0d1117" stroke-width="2" class="data-point"/>
  
    <circle cx="179.3798449612403" cy="306.20148432779166" r="4" fill="#3b82f6" stroke="#0d1117" stroke-width="2" class="data-point"/>
  
    <circle cx="184.80620155038758" cy="305.5214514804543" r="4" fill="#3b82f6" stroke="#0d1117" stroke-width="2" class="data-point"/>
  
    <circle cx="190.2325581395349" cy="304.2629491331092" r="4" fill="#3b82f6" stroke="#0d1117" stroke-width="2" class="data-point"/>
  
    <circle cx="195.6589147286822" cy="303.36654219798265" r="4" fill="#3b82f6" stroke="#0d1117" stroke-width="2" class="data-point"/>
  
    <circle cx="201.08527131782947" cy="301.4015122170403" r="4" fill="#3b82f6" stroke="#0d1117" stroke-width="2" class="data-point"/>
  
    <circle cx="206.51162790697674" cy="300.62874761779335" r="4" fill="#3b82f6" stroke="#0d1117" stroke-width="2" class="data-point"/>
  
    <circle cx="211.93798449612402" cy="299.63077733533726" r="4" fill="#3b82f6" stroke="#0d1117" stroke-width="2" class="data-point"/>
  
    <circle cx="217.36434108527132" cy="298.3413644040222" r="4" fill="#3b82f6" stroke="#0d1117" stroke-width="2" class="data-point"/>
  
    <circle cx="222.7906976744186" cy="297.4582048620257" r="4" fill="#3b82f6" stroke="#0d1117" stroke-width="2" class="data-point"/>
  
    <circle cx="228.2170542635659" cy="296.5617979268992" r="4" fill="#3b82f6" stroke="#0d1117" stroke-width="2" class="data-point"/>
  
    <circle cx="233.64341085271317" cy="295.62123301467284" r="4" fill="#3b82f6" stroke="#0d1117" stroke-width="2" class="data-point"/>
  
    <circle cx="239.06976744186048" cy="294.96769495359536" r="4" fill="#3b82f6" stroke="#0d1117" stroke-width="2" class="data-point"/>
  
    <circle cx="244.49612403100778" cy="294.4024728467176" r="4" fill="#3b82f6" stroke="#0d1117" stroke-width="2" class="data-point"/>
  
    <circle cx="249.92248062015503" cy="293.541392293271" r="4" fill="#3b82f6" stroke="#0d1117" stroke-width="2" class="data-point"/>
  
    <circle cx="255.34883720930233" cy="292.494848236005" r="4" fill="#3b82f6" stroke="#0d1117" stroke-width="2" class="data-point"/>
  
    <circle cx="260.7751937984496" cy="291.53220433522876" r="4" fill="#3b82f6" stroke="#0d1117" stroke-width="2" class="data-point"/>
  
    <circle cx="266.2015503875969" cy="290.31344416727353" r="4" fill="#3b82f6" stroke="#0d1117" stroke-width="2" class="data-point"/>
  
    <circle cx="271.62790697674416" cy="288.9842890565687" r="4" fill="#3b82f6" stroke="#0d1117" stroke-width="2" class="data-point"/>
  
    <circle cx="277.05426356589146" cy="287.76552888861346" r="4" fill="#3b82f6" stroke="#0d1117" stroke-width="2" class="data-point"/>
  
    <circle cx="282.48062015503876" cy="286.29506825118915" r="4" fill="#3b82f6" stroke="#0d1117" stroke-width="2" class="data-point"/>
  
    <circle cx="287.90697674418607" cy="284.8511024000248" r="4" fill="#3b82f6" stroke="#0d1117" stroke-width="2" class="data-point"/>
  
    <circle cx="293.3333333333333" cy="283.4071365488604" r="4" fill="#3b82f6" stroke="#0d1117" stroke-width="2" class="data-point"/>
  
    <circle cx="298.7596899224806" cy="281.82628096868655" r="4" fill="#3b82f6" stroke="#0d1117" stroke-width="2" class="data-point"/>
  
    <circle cx="304.1860465116279" cy="280.31607815187243" r="4" fill="#3b82f6" stroke="#0d1117" stroke-width="2" class="data-point"/>
  
    <circle cx="309.61240310077517" cy="278.5895012472692" r="4" fill="#3b82f6" stroke="#0d1117" stroke-width="2" class="data-point"/>
  
    <circle cx="315.0387596899225" cy="277.0483878464852" r="4" fill="#3b82f6" stroke="#0d1117" stroke-width="2" class="data-point"/>
  
    <circle cx="320.4651162790698" cy="275.7457275220403" r="4" fill="#3b82f6" stroke="#0d1117" stroke-width="2" class="data-point"/>
  
    <circle cx="325.8914728682171" cy="274.7035992624843" r="4" fill="#3b82f6" stroke="#0d1117" stroke-width="2" class="data-point"/>
  
    <circle cx="331.3178294573644" cy="273.24638601819" r="4" fill="#3b82f6" stroke="#0d1117" stroke-width="2" class="data-point"/>
  
    <circle cx="336.74418604651163" cy="271.5816302815265" r="4" fill="#3b82f6" stroke="#0d1117" stroke-width="2" class="data-point"/>
  
    <circle cx="342.17054263565893" cy="270.0581800715824" r="4" fill="#3b82f6" stroke="#0d1117" stroke-width="2" class="data-point"/>
  
    <circle cx="347.5968992248062" cy="268.27861359445933" r="4" fill="#3b82f6" stroke="#0d1117" stroke-width="2" class="data-point"/>
  
    <circle cx="353.0232558139535" cy="266.0839621325979" r="4" fill="#3b82f6" stroke="#0d1117" stroke-width="2" class="data-point"/>
  
    <circle cx="358.4496124031008" cy="264.45011697990424" r="4" fill="#3b82f6" stroke="#0d1117" stroke-width="2" class="data-point"/>
  
    <circle cx="363.87596899224803" cy="263.0944670829395" r="4" fill="#3b82f6" stroke="#0d1117" stroke-width="2" class="data-point"/>
  
    <circle cx="369.30232558139534" cy="261.8050541516245" r="4" fill="#3b82f6" stroke="#0d1117" stroke-width="2" class="data-point"/>
  
    <circle cx="374.72868217054264" cy="260.2551091554206" r="4" fill="#3b82f6" stroke="#0d1117" stroke-width="2" class="data-point"/>
  
    <circle cx="380.1550387596899" cy="258.4534636897476" r="4" fill="#3b82f6" stroke="#0d1117" stroke-width="2" class="data-point"/>
  
    <circle cx="385.5813953488372" cy="256.45752312483535" r="4" fill="#3b82f6" stroke="#0d1117" stroke-width="2" class="data-point"/>
  
    <circle cx="391.0077519379845" cy="254.36001921259356" r="4" fill="#3b82f6" stroke="#0d1117" stroke-width="2" class="data-point"/>
  
    <circle cx="396.4341085271318" cy="252.34641545684138" r="4" fill="#3b82f6" stroke="#0d1117" stroke-width="2" class="data-point"/>
  
    <circle cx="401.86046511627904" cy="250.57568057513828" r="4" fill="#3b82f6" stroke="#0d1117" stroke-width="2" class="data-point"/>
  
    <circle cx="407.28682170542635" cy="248.81819308656515" r="4" fill="#3b82f6" stroke="#0d1117" stroke-width="2" class="data-point"/>
  
    <circle cx="412.71317829457365" cy="247.26824809036117" r="4" fill="#3b82f6" stroke="#0d1117" stroke-width="2" class="data-point"/>
  
    <circle cx="418.13953488372096" cy="245.68739251018732" r="4" fill="#3b82f6" stroke="#0d1117" stroke-width="2" class="data-point"/>
  
    <circle cx="423.56589147286826" cy="243.9210734261942" r="4" fill="#3b82f6" stroke="#0d1117" stroke-width="2" class="data-point"/>
  
    <circle cx="428.99224806201556" cy="241.72200616662278" r="4" fill="#3b82f6" stroke="#0d1117" stroke-width="2" class="data-point"/>
  
    <circle cx="434.41860465116275" cy="240.08374521621914" r="4" fill="#3b82f6" stroke="#0d1117" stroke-width="2" class="data-point"/>
  
    <circle cx="439.84496124031006" cy="238.61770037650484" r="4" fill="#3b82f6" stroke="#0d1117" stroke-width="2" class="data-point"/>
  
    <circle cx="445.27131782945736" cy="236.9882710215212" r="4" fill="#3b82f6" stroke="#0d1117" stroke-width="2" class="data-point"/>
  
    <circle cx="450.69767441860466" cy="235.46923660928712" r="4" fill="#3b82f6" stroke="#0d1117" stroke-width="2" class="data-point"/>
  
    <circle cx="456.12403100775197" cy="233.80006507491362" r="4" fill="#3b82f6" stroke="#0d1117" stroke-width="2" class="data-point"/>
  
    <circle cx="461.5503875968992" cy="232.0602407771804" r="4" fill="#3b82f6" stroke="#0d1117" stroke-width="2" class="data-point"/>
  
    <circle cx="466.9767441860465" cy="230.24093212066748" r="4" fill="#3b82f6" stroke="#0d1117" stroke-width="2" class="data-point"/>
  
    <circle cx="472.4031007751938" cy="228.6468291473637" r="4" fill="#3b82f6" stroke="#0d1117" stroke-width="2" class="data-point"/>
  
    <circle cx="477.82945736434107" cy="227.282347654979" r="4" fill="#3b82f6" stroke="#0d1117" stroke-width="2" class="data-point"/>
  
    <circle cx="483.25581395348837" cy="225.78539223129485" r="4" fill="#3b82f6" stroke="#0d1117" stroke-width="2" class="data-point"/>
  
    <circle cx="488.6821705426356" cy="224.16479447173117" r="4" fill="#3b82f6" stroke="#0d1117" stroke-width="2" class="data-point"/>
  
    <circle cx="494.1085271317829" cy="222.663423250337" r="4" fill="#3b82f6" stroke="#0d1117" stroke-width="2" class="data-point"/>
  
    <circle cx="499.5348837209302" cy="220.7072248648146" r="4" fill="#3b82f6" stroke="#0d1117" stroke-width="2" class="data-point"/>
  
    <circle cx="504.9612403100775" cy="219.02480593731116" r="4" fill="#3b82f6" stroke="#0d1117" stroke-width="2" class="data-point"/>
  
    <circle cx="510.38759689922483" cy="217.40420817774748" r="4" fill="#3b82f6" stroke="#0d1117" stroke-width="2" class="data-point"/>
  
    <circle cx="515.8139534883721" cy="216.0573898762027" r="4" fill="#3b82f6" stroke="#0d1117" stroke-width="2" class="data-point"/>
  
    <circle cx="521.2403100775193" cy="214.7503137540478" r="4" fill="#3b82f6" stroke="#0d1117" stroke-width="2" class="data-point"/>
  
    <circle cx="526.6666666666666" cy="213.43882183418293" r="4" fill="#3b82f6" stroke="#0d1117" stroke-width="2" class="data-point"/>
  
    <circle cx="532.0930232558139" cy="211.87121364713903" r="4" fill="#3b82f6" stroke="#0d1117" stroke-width="2" class="data-point"/>
  
    <circle cx="537.5193798449612" cy="210.2594474829953" r="4" fill="#3b82f6" stroke="#0d1117" stroke-width="2" class="data-point"/>
  
    <circle cx="542.9457364341085" cy="208.30324909747293" r="4" fill="#3b82f6" stroke="#0d1117" stroke-width="2" class="data-point"/>
  
    <circle cx="548.3720930232558" cy="206.7179777195891" r="4" fill="#3b82f6" stroke="#0d1117" stroke-width="2" class="data-point"/>
  
    <circle cx="553.7984496124031" cy="205.42414899056413" r="4" fill="#3b82f6" stroke="#0d1117" stroke-width="2" class="data-point"/>
  
    <circle cx="559.2248062015503" cy="204.09499387985932" r="4" fill="#3b82f6" stroke="#0d1117" stroke-width="2" class="data-point"/>
  
    <circle cx="564.6511627906976" cy="202.82324413938426" r="4" fill="#3b82f6" stroke="#0d1117" stroke-width="2" class="data-point"/>
  
    <circle cx="570.077519379845" cy="201.2512201546304" r="4" fill="#3b82f6" stroke="#0d1117" stroke-width="2" class="data-point"/>
  
    <circle cx="575.5038759689922" cy="199.63945399048666" r="4" fill="#3b82f6" stroke="#0d1117" stroke-width="2" class="data-point"/>
  
    <circle cx="580.9302325581396" cy="196.07590523853054" r="4" fill="#3b82f6" stroke="#0d1117" stroke-width="2" class="data-point"/>
  
    <circle cx="586.3565891472869" cy="188.98413411629815" r="4" fill="#3b82f6" stroke="#0d1117" stroke-width="2" class="data-point"/>
  
    <circle cx="591.7829457364342" cy="180.53671309710106" r="4" fill="#3b82f6" stroke="#0d1117" stroke-width="2" class="data-point"/>
  
    <circle cx="597.2093023255815" cy="172.83997768860107" r="4" fill="#3b82f6" stroke="#0d1117" stroke-width="2" class="data-point"/>
  
    <circle cx="602.6356589147288" cy="168.93641251297623" r="4" fill="#3b82f6" stroke="#0d1117" stroke-width="2" class="data-point"/>
  
    <circle cx="608.062015503876" cy="163.05456996327916" r="4" fill="#3b82f6" stroke="#0d1117" stroke-width="2" class="data-point"/>
  
    <circle cx="613.4883720930233" cy="159.14658898994438" r="4" fill="#3b82f6" stroke="#0d1117" stroke-width="2" class="data-point"/>
  
    <circle cx="618.9147286821706" cy="155.7199299669977" r="4" fill="#3b82f6" stroke="#0d1117" stroke-width="2" class="data-point"/>
  
    <circle cx="624.3410852713179" cy="152.36833950512076" r="4" fill="#3b82f6" stroke="#0d1117" stroke-width="2" class="data-point"/>
  
    <circle cx="629.7674418604652" cy="149.21104414248308" r="4" fill="#3b82f6" stroke="#0d1117" stroke-width="2" class="data-point"/>
  
    <circle cx="635.1937984496124" cy="144.3006770889822" r="4" fill="#3b82f6" stroke="#0d1117" stroke-width="2" class="data-point"/>
  
    <circle cx="640.6201550387597" cy="140.3971119133574" r="4" fill="#3b82f6" stroke="#0d1117" stroke-width="2" class="data-point"/>
  
    <circle cx="646.046511627907" cy="135.40726050107685" r="4" fill="#3b82f6" stroke="#0d1117" stroke-width="2" class="data-point"/>
  
    <circle cx="651.4728682170543" cy="134.38721123007082" r="4" fill="#3b82f6" stroke="#0d1117" stroke-width="2" class="data-point"/>
  
    <circle cx="656.8992248062016" cy="134.25473729877132" r="4" fill="#3b82f6" stroke="#0d1117" stroke-width="2" class="data-point"/>
  
    <circle cx="662.3255813953488" cy="134.08252118808198" r="4" fill="#3b82f6" stroke="#0d1117" stroke-width="2" class="data-point"/>
  
    <circle cx="667.7519379844961" cy="133.93679986365257" r="4" fill="#3b82f6" stroke="#0d1117" stroke-width="2" class="data-point"/>
  
    <circle cx="673.1782945736434" cy="133.7469205621233" r="4" fill="#3b82f6" stroke="#0d1117" stroke-width="2" class="data-point"/>
  
    <circle cx="678.6046511627907" cy="133.57912024914395" r="4" fill="#3b82f6" stroke="#0d1117" stroke-width="2" class="data-point"/>
  
    <circle cx="684.031007751938" cy="133.51288328349423" r="4" fill="#3b82f6" stroke="#0d1117" stroke-width="2" class="data-point"/>
  
    <circle cx="689.4573643410853" cy="133.27001440944514" r="4" fill="#3b82f6" stroke="#0d1117" stroke-width="2" class="data-point"/>
  
    <circle cx="694.8837209302325" cy="133.03597713081606" r="4" fill="#3b82f6" stroke="#0d1117" stroke-width="2" class="data-point"/>
  
    <circle cx="700.3100775193798" cy="132.88142421096666" r="4" fill="#3b82f6" stroke="#0d1117" stroke-width="2" class="data-point"/>
  
    <circle cx="705.7364341085271" cy="132.8240188407369" r="4" fill="#3b82f6" stroke="#0d1117" stroke-width="2" class="data-point"/>
  
    <circle cx="711.1627906976744" cy="132.5634867758479" r="4" fill="#3b82f6" stroke="#0d1117" stroke-width="2" class="data-point"/>
  
    <circle cx="716.5891472868217" cy="126.16058009637285" r="4" fill="#3b82f6" stroke="#0d1117" stroke-width="2" class="data-point"/>
  
    <circle cx="722.015503875969" cy="116.13230349700191" r="4" fill="#3b82f6" stroke="#0d1117" stroke-width="2" class="data-point"/>
  
    <circle cx="727.4418604651163" cy="109.41587518011806" r="4" fill="#3b82f6" stroke="#0d1117" stroke-width="2" class="data-point"/>
  
    <circle cx="732.8682170542636" cy="101.61757642428844" r="4" fill="#3b82f6" stroke="#0d1117" stroke-width="2" class="data-point"/>
  
    <circle cx="738.2945736434108" cy="93.58082459211974" r="4" fill="#3b82f6" stroke="#0d1117" stroke-width="2" class="data-point"/>
  
    <circle cx="743.7209302325581" cy="87.27506546226428" r="4" fill="#3b82f6" stroke="#0d1117" stroke-width="2" class="data-point"/>
  
    <circle cx="749.1472868217054" cy="80.22303651942178" r="4" fill="#3b82f6" stroke="#0d1117" stroke-width="2" class="data-point"/>
  
    <circle cx="754.5736434108527" cy="69.47940069103362" r="4" fill="#3b82f6" stroke="#0d1117" stroke-width="2" class="data-point"/>
  
    <circle cx="760" cy="55" r="4" fill="#3b82f6" stroke="#0d1117" stroke-width="2" class="data-point"/>
  

  <!-- Axis lines -->
  <line x1="60" y1="55" x2="60" y2="340"
        stroke="#30363d" stroke-width="2"/>
  <line x1="60" y1="340" x2="760" y2="340"
        stroke="#30363d" stroke-width="2"/>
</svg>