<?xml version="1.0" encoding="UTF-8"?>
<svg width="800" height="400" xmlns="http://www.w3.org/2000/svg">
  <defs>
    <!-- Gradient for area fill -->
    <linearGradient id="areaGradient" x1="0%" y1="0%" x2="0%" y2="100%">
      <stop offset="0%" style="stop-color:#3b82f6;stop-opacity:0.3" />
      <stop offset="100%" style="stop-color:#3b82f6;stop-opacity:0.05" />
    </linearGradient>

    <!-- Glow filter for line -->
    <filter id="glow">
      <feGaussianBlur stdDeviation="2" result="coloredBlur"/>
      <feMerge>
        <feMergeNode in="coloredBlur"/>
        <feMergeNode in="SourceGraphic"/>
      </feMerge>
    </filter>

    <!-- Animation -->
    <style>
      @keyframes draw {
        from { stroke-dashoffset: 2000; }
        to { stroke-dashoffset: 0; }
      }
      @keyframes fadeIn {
        from { opacity: 0; }
        to { opacity: 1; }
      }
      .line-path {
        stroke-dasharray: 2000;
        stroke-dashoffset: 2000;
        animation: draw 1.5s ease-out forwards;
      }
      .area-path {
        opacity: 0;
        animation: fadeIn 1s ease-out 0.5s forwards;
      }
      .data-point {
        opacity: 0;
        animation: fadeIn 0.5s ease-out 1s forwards;
      }
    </style>
  </defs>

  <!-- Background -->
  <rect width="800" height="400" fill="#0d1117" rx="8"/>

  <!-- Title -->
  <text x="400" y="25" text-anchor="middle" fill="#c9d1d9" font-family="system-ui, -apple-system, sans-serif" font-size="16" font-weight="600">
    zxcloli666/SoundCloud-Desktop Downloads
  </text>

  <!-- Stats -->
  <text x="780" y="25" text-anchor="end" fill="#58a6ff" font-family="system-ui, -apple-system, sans-serif" font-size="14" font-weight="600">
    194.2K total
  </text>
  <text x="780" y="42" text-anchor="end" fill="#3fb950" font-family="system-ui, -apple-system, sans-serif" font-size="12">
    +1.8K (+0.9%)
  </text>

  <!-- Grid lines -->
  <g opacity="0.1">
    
      <line x1="60" y1="340" x2="760" y2="340"
            stroke="#c9d1d9" stroke-width="1"/>
    
      <line x1="60" y1="268.75" x2="760" y2="268.75"
            stroke="#c9d1d9" stroke-width="1"/>
    
      <line x1="60" y1="197.5" x2="760" y2="197.5"
            stroke="#c9d1d9" stroke-width="1"/>
    
      <line x1="60" y1="126.25" x2="760" y2="126.25"
            stroke="#c9d1d9" stroke-width="1"/>
    
      <line x1="60" y1="55" x2="760" y2="55"
            stroke="#c9d1d9" stroke-width="1"/>
    
  </g>

  <!-- Y-axis labels -->
  
    <text x="50" y="344" text-anchor="end"
          fill="#8b949e" font-family="system-ui, -apple-system, sans-serif" font-size="11">
      60.2K
    </text>
  
    <text x="50" y="272.75" text-anchor="end"
          fill="#8b949e" font-family="system-ui, -apple-system, sans-serif" font-size="11">
      93.7K
    </text>
  
    <text x="50" y="201.5" text-anchor="end"
          fill="#8b949e" font-family="system-ui, -apple-system, sans-serif" font-size="11">
      127.2K
    </text>
  
    <text x="50" y="130.25" text-anchor="end"
          fill="#8b949e" font-family="system-ui, -apple-system, sans-serif" font-size="11">
      160.7K
    </text>
  
    <text x="50" y="59" text-anchor="end"
          fill="#8b949e" font-family="system-ui, -apple-system, sans-serif" font-size="11">
      194.2K
    </text>
  

  <!-- X-axis labels -->
  
    <text x="60" y="360" text-anchor="middle"
          fill="#8b949e" font-family="system-ui, -apple-system, sans-serif" font-size="11">
      Nov 25
    </text>
  
    <text x="146.95652173913044" y="360" text-anchor="middle"
          fill="#8b949e" font-family="system-ui, -apple-system, sans-serif" font-size="11">
      Dec 15
    </text>
  
    <text x="233.91304347826087" y="360" text-anchor="middle"
          fill="#8b949e" font-family="system-ui, -apple-system, sans-serif" font-size="11">
      Jan 4
    </text>
  
    <text x="320.8695652173913" y="360" text-anchor="middle"
          fill="#8b949e" font-family="system-ui, -apple-system, sans-serif" font-size="11">
      Jan 24
    </text>
  
    <text x="407.82608695652175" y="360" text-anchor="middle"
          fill="#8b949e" font-family="system-ui, -apple-system, sans-serif" font-size="11">
      Feb 13
    </text>
  
    <text x="494.78260869565213" y="360" text-anchor="middle"
          fill="#8b949e" font-family="system-ui, -apple-system, sans-serif" font-size="11">
      Mar 5
    </text>
  
    <text x="581.7391304347826" y="360" text-anchor="middle"
          fill="#8b949e" font-family="system-ui, -apple-system, sans-serif" font-size="11">
      Mar 25
    </text>
  
    <text x="668.695652173913" y="360" text-anchor="middle"
          fill="#8b949e" font-family="system-ui, -apple-system, sans-serif" font-size="11">
      Apr 14
    </text>
  
    <text x="755.6521739130435" y="360" text-anchor="middle"
          fill="#8b949e" font-family="system-ui, -apple-system, sans-serif" font-size="11">
      May 4
    </text>
  
    <text x="760" y="360" text-anchor="middle"
          fill="#8b949e" font-family="system-ui, -apple-system, sans-serif" font-size="11">
      May 5
    </text>
  

  <!-- Area under line -->
  <path d="M 60 340
    L 60.00 340.00 L 64.35 339.69 L 68.70 339.16 L 73.04 338.66 L 77.39 337.68 L 81.74 336.67 L 86.09 335.87 L 90.43 335.13 L 94.78 334.47 L 99.13 333.69 L 103.48 332.83 L 107.83 331.90 L 112.17 331.06 L 116.52 330.17 L 120.87 329.51 L 125.22 328.84 L 129.57 327.92 L 133.91 327.30 L 138.26 326.45 L 142.61 325.47 L 146.96 324.73 L 151.30 324.12 L 155.65 323.73 L 160.00 323.40 L 164.35 322.80 L 168.70 322.37 L 173.04 321.42 L 177.39 321.05 L 181.74 320.57 L 186.09 319.95 L 190.43 319.52 L 194.78 319.09 L 199.13 318.64 L 203.48 318.32 L 207.83 318.05 L 212.17 317.64 L 216.52 317.13 L 220.87 316.67 L 225.22 316.08 L 229.57 315.44 L 233.91 314.86 L 238.26 314.15 L 242.61 313.45 L 246.96 312.76 L 251.30 312.00 L 255.65 311.27 L 260.00 310.44 L 264.35 309.70 L 268.70 309.07 L 273.04 308.57 L 277.39 307.87 L 281.74 307.07 L 286.09 306.33 L 290.43 305.48 L 294.78 304.42 L 299.13 303.63 L 303.48 302.98 L 307.83 302.36 L 312.17 301.62 L 316.52 300.75 L 320.87 299.79 L 325.22 298.78 L 329.57 297.81 L 333.91 296.96 L 338.26 296.11 L 342.61 295.36 L 346.96 294.60 L 351.30 293.75 L 355.65 292.69 L 360.00 291.91 L 364.35 291.20 L 368.70 290.42 L 373.04 289.69 L 377.39 288.88 L 381.74 288.04 L 386.09 287.17 L 390.43 286.40 L 394.78 285.74 L 399.13 285.02 L 403.48 284.24 L 407.83 283.52 L 412.17 282.58 L 416.52 281.77 L 420.87 280.99 L 425.22 280.34 L 429.57 279.71 L 433.91 279.08 L 438.26 278.33 L 442.61 277.55 L 446.96 276.61 L 451.30 275.85 L 455.65 275.22 L 460.00 274.58 L 464.35 273.97 L 468.70 273.21 L 473.04 272.44 L 477.39 270.72 L 481.74 267.31 L 486.09 263.24 L 490.43 259.54 L 494.78 257.66 L 499.13 254.83 L 503.48 252.95 L 507.83 251.30 L 512.17 249.69 L 516.52 248.17 L 520.87 245.80 L 525.22 243.92 L 529.57 241.52 L 533.91 241.03 L 538.26 240.97 L 542.61 240.88 L 546.96 240.81 L 551.30 240.72 L 555.65 240.64 L 560.00 240.61 L 564.35 240.49 L 568.70 240.38 L 573.04 240.31 L 577.39 240.28 L 581.74 240.15 L 586.09 237.07 L 590.43 232.24 L 594.78 229.01 L 599.13 225.26 L 603.48 221.39 L 607.83 218.35 L 612.17 214.96 L 616.52 209.79 L 620.87 202.82 L 625.22 198.27 L 629.57 192.86 L 633.91 186.82 L 638.26 181.99 L 642.61 176.74 L 646.96 172.08 L 651.30 167.46 L 655.65 162.86 L 660.00 156.60 L 664.35 150.31 L 668.70 145.07 L 673.04 140.68 L 677.39 136.42 L 681.74 130.77 L 686.09 126.38 L 690.43 122.04 L 694.78 117.99 L 699.13 114.17 L 703.48 110.25 L 707.83 106.90 L 712.17 103.44 L 716.52 99.90 L 720.87 96.16 L 725.22 92.72 L 729.57 89.58 L 733.91 83.88 L 738.26 79.12 L 742.61 74.54 L 746.96 70.14 L 751.30 63.20 L 755.65 58.80 L 760.00 55.00
    L 760 340
    Z" fill="url(#areaGradient)" class="area-path"/>

  <!-- Main line with glow -->
  <path d="M 60.00 340.00 L 64.35 339.69 L 68.70 339.16 L 73.04 338.66 L 77.39 337.68 L 81.74 336.67 L 86.09 335.87 L 90.43 335.13 L 94.78 334.47 L 99.13 333.69 L 103.48 332.83 L 107.83 331.90 L 112.17 331.06 L 116.52 330.17 L 120.87 329.51 L 125.22 328.84 L 129.57 327.92 L 133.91 327.30 L 138.26 326.45 L 142.61 325.47 L 146.96 324.73 L 151.30 324.12 L 155.65 323.73 L 160.00 323.40 L 164.35 322.80 L 168.70 322.37 L 173.04 321.42 L 177.39 321.05 L 181.74 320.57 L 186.09 319.95 L 190.43 319.52 L 194.78 319.09 L 199.13 318.64 L 203.48 318.32 L 207.83 318.05 L 212.17 317.64 L 216.52 317.13 L 220.87 316.67 L 225.22 316.08 L 229.57 315.44 L 233.91 314.86 L 238.26 314.15 L 242.61 313.45 L 246.96 312.76 L 251.30 312.00 L 255.65 311.27 L 260.00 310.44 L 264.35 309.70 L 268.70 309.07 L 273.04 308.57 L 277.39 307.87 L 281.74 307.07 L 286.09 306.33 L 290.43 305.48 L 294.78 304.42 L 299.13 303.63 L 303.48 302.98 L 307.83 302.36 L 312.17 301.62 L 316.52 300.75 L 320.87 299.79 L 325.22 298.78 L 329.57 297.81 L 333.91 296.96 L 338.26 296.11 L 342.61 295.36 L 346.96 294.60 L 351.30 293.75 L 355.65 292.69 L 360.00 291.91 L 364.35 291.20 L 368.70 290.42 L 373.04 289.69 L 377.39 288.88 L 381.74 288.04 L 386.09 287.17 L 390.43 286.40 L 394.78 285.74 L 399.13 285.02 L 403.48 284.24 L 407.83 283.52 L 412.17 282.58 L 416.52 281.77 L 420.87 280.99 L 425.22 280.34 L 429.57 279.71 L 433.91 279.08 L 438.26 278.33 L 442.61 277.55 L 446.96 276.61 L 451.30 275.85 L 455.65 275.22 L 460.00 274.58 L 464.35 273.97 L 468.70 273.21 L 473.04 272.44 L 477.39 270.72 L 481.74 267.31 L 486.09 263.24 L 490.43 259.54 L 494.78 257.66 L 499.13 254.83 L 503.48 252.95 L 507.83 251.30 L 512.17 249.69 L 516.52 248.17 L 520.87 245.80 L 525.22 243.92 L 529.57 241.52 L 533.91 241.03 L 538.26 240.97 L 542.61 240.88 L 546.96 240.81 L 551.30 240.72 L 555.65 240.64 L 560.00 240.61 L 564.35 240.49 L 568.70 240.38 L 573.04 240.31 L 577.39 240.28 L 581.74 240.15 L 586.09 237.07 L 590.43 232.24 L 594.78 229.01 L 599.13 225.26 L 603.48 221.39 L 607.83 218.35 L 612.17 214.96 L 616.52 209.79 L 620.87 202.82 L 625.22 198.27 L 629.57 192.86 L 633.91 186.82 L 638.26 181.99 L 642.61 176.74 L 646.96 172.08 L 651.30 167.46 L 655.65 162.86 L 660.00 156.60 L 664.35 150.31 L 668.70 145.07 L 673.04 140.68 L 677.39 136.42 L 681.74 130.77 L 686.09 126.38 L 690.43 122.04 L 694.78 117.99 L 699.13 114.17 L 703.48 110.25 L 707.83 106.90 L 712.17 103.44 L 716.52 99.90 L 720.87 96.16 L 725.22 92.72 L 729.57 89.58 L 733.91 83.88 L 738.26 79.12 L 742.61 74.54 L 746.96 70.14 L 751.30 63.20 L 755.65 58.80 L 760.00 55.00" fill="none" stroke="#3b82f6" stroke-width="3"
        stroke-linecap="round" stroke-linejoin="round" filter="url(#glow)" class="line-path"/>

  <!-- Data points -->
  
    <circle cx="60" cy="340" r="4" fill="#3b82f6" stroke="#0d1117" stroke-width="2" class="data-point"/>
  
    <circle cx="64.34782608695652" cy="339.68755127306355" r="4" fill="#3b82f6" stroke="#0d1117" stroke-width="2" class="data-point"/>
  
    <circle cx="68.69565217391305" cy="339.15617588711723" r="4" fill="#3b82f6" stroke="#0d1117" stroke-width="2" class="data-point"/>
  
    <circle cx="73.04347826086956" cy="338.663059528959" r="4" fill="#3b82f6" stroke="#0d1117" stroke-width="2" class="data-point"/>
  
    <circle cx="77.3913043478261" cy="337.683203317274" r="4" fill="#3b82f6" stroke="#0d1117" stroke-width="2" class="data-point"/>
  
    <circle cx="81.73913043478261" cy="336.6714645824322" r="4" fill="#3b82f6" stroke="#0d1117" stroke-width="2" class="data-point"/>
  
    <circle cx="86.08695652173913" cy="335.8744015035127" r="4" fill="#3b82f6" stroke="#0d1117" stroke-width="2" class="data-point"/>
  
    <circle cx="90.43478260869566" cy="335.1304759631878" r="4" fill="#3b82f6" stroke="#0d1117" stroke-width="2" class="data-point"/>
  
    <circle cx="94.78260869565217" cy="334.46944498307056" r="4" fill="#3b82f6" stroke="#0d1117" stroke-width="2" class="data-point"/>
  
    <circle cx="99.13043478260869" cy="333.6936369195889" r="4" fill="#3b82f6" stroke="#0d1117" stroke-width="2" class="data-point"/>
  
    <circle cx="103.47826086956522" cy="332.8285577912683" r="4" fill="#3b82f6" stroke="#0d1117" stroke-width="2" class="data-point"/>
  
    <circle cx="107.82608695652175" cy="331.90183911817786" r="4" fill="#3b82f6" stroke="#0d1117" stroke-width="2" class="data-point"/>
  
    <circle cx="112.17391304347827" cy="331.0601405068389" r="4" fill="#3b82f6" stroke="#0d1117" stroke-width="2" class="data-point"/>
  
    <circle cx="116.52173913043478" cy="330.16530435690527" r="4" fill="#3b82f6" stroke="#0d1117" stroke-width="2" class="data-point"/>
  
    <circle cx="120.86956521739131" cy="329.5127753829632" r="4" fill="#3b82f6" stroke="#0d1117" stroke-width="2" class="data-point"/>
  
    <circle cx="125.21739130434783" cy="328.83686589203944" r="4" fill="#3b82f6" stroke="#0d1117" stroke-width="2" class="data-point"/>
  
    <circle cx="129.56521739130434" cy="327.91864922512417" r="4" fill="#3b82f6" stroke="#0d1117" stroke-width="2" class="data-point"/>
  
    <circle cx="133.91304347826087" cy="327.3043792789702" r="4" fill="#3b82f6" stroke="#0d1117" stroke-width="2" class="data-point"/>
  
    <circle cx="138.26086956521738" cy="326.45417866145607" r="4" fill="#3b82f6" stroke="#0d1117" stroke-width="2" class="data-point"/>
  
    <circle cx="142.6086956521739" cy="325.47219694822724" r="4" fill="#3b82f6" stroke="#0d1117" stroke-width="2" class="data-point"/>
  
    <circle cx="146.95652173913044" cy="324.73252241099" r="4" fill="#3b82f6" stroke="#0d1117" stroke-width="2" class="data-point"/>
  
    <circle cx="151.30434782608694" cy="324.1246289694674" r="4" fill="#3b82f6" stroke="#0d1117" stroke-width="2" class="data-point"/>
  
    <circle cx="155.6521739130435" cy="323.73141118386707" r="4" fill="#3b82f6" stroke="#0d1117" stroke-width="2" class="data-point"/>
  
    <circle cx="160" cy="323.4040839461241" r="4" fill="#3b82f6" stroke="#0d1117" stroke-width="2" class="data-point"/>
  
    <circle cx="164.34782608695653" cy="322.7983160061453" r="4" fill="#3b82f6" stroke="#0d1117" stroke-width="2" class="data-point"/>
  
    <circle cx="168.69565217391303" cy="322.3668391927569" r="4" fill="#3b82f6" stroke="#0d1117" stroke-width="2" class="data-point"/>
  
    <circle cx="173.04347826086956" cy="321.4209910057724" r="4" fill="#3b82f6" stroke="#0d1117" stroke-width="2" class="data-point"/>
  
    <circle cx="177.3913043478261" cy="321.04902823560997" r="4" fill="#3b82f6" stroke="#0d1117" stroke-width="2" class="data-point"/>
  
    <circle cx="181.73913043478262" cy="320.5686648867145" r="4" fill="#3b82f6" stroke="#0d1117" stroke-width="2" class="data-point"/>
  
    <circle cx="186.08695652173913" cy="319.94801843592916" r="4" fill="#3b82f6" stroke="#0d1117" stroke-width="2" class="data-point"/>
  
    <circle cx="190.43478260869566" cy="319.5229181271721" r="4" fill="#3b82f6" stroke="#0d1117" stroke-width="2" class="data-point"/>
  
    <circle cx="194.7826086956522" cy="319.0914413137837" r="4" fill="#3b82f6" stroke="#0d1117" stroke-width="2" class="data-point"/>
  
    <circle cx="199.1304347826087" cy="318.6387094849574" r="4" fill="#3b82f6" stroke="#0d1117" stroke-width="2" class="data-point"/>
  
    <circle cx="203.47826086956522" cy="318.3241352564772" r="4" fill="#3b82f6" stroke="#0d1117" stroke-width="2" class="data-point"/>
  
    <circle cx="207.82608695652175" cy="318.0520710588727" r="4" fill="#3b82f6" stroke="#0d1117" stroke-width="2" class="data-point"/>
  
    <circle cx="212.17391304347825" cy="317.6375982578345" r="4" fill="#3b82f6" stroke="#0d1117" stroke-width="2" class="data-point"/>
  
    <circle cx="216.52173913043478" cy="317.1338543919574" r="4" fill="#3b82f6" stroke="#0d1117" stroke-width="2" class="data-point"/>
  
    <circle cx="220.86956521739128" cy="316.6704950554122" r="4" fill="#3b82f6" stroke="#0d1117" stroke-width="2" class="data-point"/>
  
    <circle cx="225.2173913043478" cy="316.08385662932744" r="4" fill="#3b82f6" stroke="#0d1117" stroke-width="2" class="data-point"/>
  
    <circle cx="229.56521739130434" cy="315.4440806646481" r="4" fill="#3b82f6" stroke="#0d1117" stroke-width="2" class="data-point"/>
  
    <circle cx="233.91304347826087" cy="314.8574422385633" r="4" fill="#3b82f6" stroke="#0d1117" stroke-width="2" class="data-point"/>
  
    <circle cx="238.26086956521738" cy="314.1496502244828" r="4" fill="#3b82f6" stroke="#0d1117" stroke-width="2" class="data-point"/>
  
    <circle cx="242.6086956521739" cy="313.45461121966497" r="4" fill="#3b82f6" stroke="#0d1117" stroke-width="2" class="data-point"/>
  
    <circle cx="246.95652173913044" cy="312.7595722148472" r="4" fill="#3b82f6" stroke="#0d1117" stroke-width="2" class="data-point"/>
  
    <circle cx="251.30434782608697" cy="311.998642662172" r="4" fill="#3b82f6" stroke="#0d1117" stroke-width="2" class="data-point"/>
  
    <circle cx="255.65217391304347" cy="311.27172113419743" r="4" fill="#3b82f6" stroke="#0d1117" stroke-width="2" class="data-point"/>
  
    <circle cx="260" cy="310.4406500305774" r="4" fill="#3b82f6" stroke="#0d1117" stroke-width="2" class="data-point"/>
  
    <circle cx="264.3478260869565" cy="309.6988499917963" r="4" fill="#3b82f6" stroke="#0d1117" stroke-width="2" class="data-point"/>
  
    <circle cx="268.69565217391306" cy="309.07182703637966" r="4" fill="#3b82f6" stroke="#0d1117" stroke-width="2" class="data-point"/>
  
    <circle cx="273.0434782608696" cy="308.5702086720463" r="4" fill="#3b82f6" stroke="#0d1117" stroke-width="2" class="data-point"/>
  
    <circle cx="277.39130434782606" cy="307.8687931625971" r="4" fill="#3b82f6" stroke="#0d1117" stroke-width="2" class="data-point"/>
  
    <circle cx="281.7391304347826" cy="307.0674790805901" r="4" fill="#3b82f6" stroke="#0d1117" stroke-width="2" class="data-point"/>
  
    <circle cx="286.0869565217391" cy="306.33418104798415" r="4" fill="#3b82f6" stroke="#0d1117" stroke-width="2" class="data-point"/>
  
    <circle cx="290.4347826086956" cy="305.47760392583865" r="4" fill="#3b82f6" stroke="#0d1117" stroke-width="2" class="data-point"/>
  
    <circle cx="294.7826086956522" cy="304.4212296585773" r="4" fill="#3b82f6" stroke="#0d1117" stroke-width="2" class="data-point"/>
  
    <circle cx="299.1304347826087" cy="303.63479408737675" r="4" fill="#3b82f6" stroke="#0d1117" stroke-width="2" class="data-point"/>
  
    <circle cx="303.47826086956525" cy="302.98226511343466" r="4" fill="#3b82f6" stroke="#0d1117" stroke-width="2" class="data-point"/>
  
    <circle cx="307.82608695652175" cy="302.36161866264933" r="4" fill="#3b82f6" stroke="#0d1117" stroke-width="2" class="data-point"/>
  
    <circle cx="312.17391304347825" cy="301.61556762078067" r="4" fill="#3b82f6" stroke="#0d1117" stroke-width="2" class="data-point"/>
  
    <circle cx="316.5217391304348" cy="300.7483629909163" r="4" fill="#3b82f6" stroke="#0d1117" stroke-width="2" class="data-point"/>
  
    <circle cx="320.8695652173913" cy="299.78763629312533" r="4" fill="#3b82f6" stroke="#0d1117" stroke-width="2" class="data-point"/>
  
    <circle cx="325.2173913043478" cy="298.77802305982726" r="4" fill="#3b82f6" stroke="#0d1117" stroke-width="2" class="data-point"/>
  
    <circle cx="329.5652173913044" cy="297.80879435586115" r="4" fill="#3b82f6" stroke="#0d1117" stroke-width="2" class="data-point"/>
  
    <circle cx="333.9130434782609" cy="296.95646823680323" r="4" fill="#3b82f6" stroke="#0d1117" stroke-width="2" class="data-point"/>
  
    <circle cx="338.2608695652174" cy="296.1105186223767" r="4" fill="#3b82f6" stroke="#0d1117" stroke-width="2" class="data-point"/>
  
    <circle cx="342.6086956521739" cy="295.36446758050806" r="4" fill="#3b82f6" stroke="#0d1117" stroke-width="2" class="data-point"/>
  
    <circle cx="346.95652173913044" cy="294.6035380278329" r="4" fill="#3b82f6" stroke="#0d1117" stroke-width="2" class="data-point"/>
  
    <circle cx="351.30434782608694" cy="293.75333741031875" r="4" fill="#3b82f6" stroke="#0d1117" stroke-width="2" class="data-point"/>
  
    <circle cx="355.6521739130435" cy="292.69483764151363" r="4" fill="#3b82f6" stroke="#0d1117" stroke-width="2" class="data-point"/>
  
    <circle cx="360" cy="291.9062765687693" r="4" fill="#3b82f6" stroke="#0d1117" stroke-width="2" class="data-point"/>
  
    <circle cx="364.3478260869565" cy="291.20061005623256" r="4" fill="#3b82f6" stroke="#0d1117" stroke-width="2" class="data-point"/>
  
    <circle cx="368.69565217391306" cy="290.4162999865758" r="4" fill="#3b82f6" stroke="#0d1117" stroke-width="2" class="data-point"/>
  
    <circle cx="373.04347826086956" cy="289.6851274555136" r="4" fill="#3b82f6" stroke="#0d1117" stroke-width="2" class="data-point"/>
  
    <circle cx="377.3913043478261" cy="288.88168787196275" r="4" fill="#3b82f6" stroke="#0d1117" stroke-width="2" class="data-point"/>
  
    <circle cx="381.73913043478257" cy="288.04424026371134" r="4" fill="#3b82f6" stroke="#0d1117" stroke-width="2" class="data-point"/>
  
    <circle cx="386.0869565217391" cy="287.16853362767176" r="4" fill="#3b82f6" stroke="#0d1117" stroke-width="2" class="data-point"/>
  
    <circle cx="390.4347826086956" cy="286.4012275703653" r="4" fill="#3b82f6" stroke="#0d1117" stroke-width="2" class="data-point"/>
  
    <circle cx="394.7826086956522" cy="285.7444475933356" r="4" fill="#3b82f6" stroke="#0d1117" stroke-width="2" class="data-point"/>
  
    <circle cx="399.1304347826087" cy="285.0239025699924" r="4" fill="#3b82f6" stroke="#0d1117" stroke-width="2" class="data-point"/>
  
    <circle cx="403.4782608695652" cy="284.2438435034232" r="4" fill="#3b82f6" stroke="#0d1117" stroke-width="2" class="data-point"/>
  
    <circle cx="407.82608695652175" cy="283.5211729785362" r="4" fill="#3b82f6" stroke="#0d1117" stroke-width="2" class="data-point"/>
  
    <circle cx="412.17391304347825" cy="282.57957579463925" r="4" fill="#3b82f6" stroke="#0d1117" stroke-width="2" class="data-point"/>
  
    <circle cx="416.52173913043475" cy="281.7697597064571" r="4" fill="#3b82f6" stroke="#0d1117" stroke-width="2" class="data-point"/>
  
    <circle cx="420.8695652173913" cy="280.9897006398878" r="4" fill="#3b82f6" stroke="#0d1117" stroke-width="2" class="data-point"/>
  
    <circle cx="425.2173913043478" cy="280.3414226690333" r="4" fill="#3b82f6" stroke="#0d1117" stroke-width="2" class="data-point"/>
  
    <circle cx="429.5652173913044" cy="279.7122742120728" r="4" fill="#3b82f6" stroke="#0d1117" stroke-width="2" class="data-point"/>
  
    <circle cx="433.9130434782609" cy="279.0810002535686" r="4" fill="#3b82f6" stroke="#0d1117" stroke-width="2" class="data-point"/>
  
    <circle cx="438.26086956521743" cy="278.3264472055248" r="4" fill="#3b82f6" stroke="#0d1117" stroke-width="2" class="data-point"/>
  
    <circle cx="442.60869565217394" cy="277.55063914204317" r="4" fill="#3b82f6" stroke="#0d1117" stroke-width="2" class="data-point"/>
  
    <circle cx="446.9565217391305" cy="276.6090419581463" r="4" fill="#3b82f6" stroke="#0d1117" stroke-width="2" class="data-point"/>
  
    <circle cx="451.30434782608694" cy="275.8459869039273" r="4" fill="#3b82f6" stroke="#0d1117" stroke-width="2" class="data-point"/>
  
    <circle cx="455.65217391304344" cy="275.2232149515982" r="4" fill="#3b82f6" stroke="#0d1117" stroke-width="2" class="data-point"/>
  
    <circle cx="460" cy="274.58343898691885" r="4" fill="#3b82f6" stroke="#0d1117" stroke-width="2" class="data-point"/>
  
    <circle cx="464.3478260869565" cy="273.97129454230867" r="4" fill="#3b82f6" stroke="#0d1117" stroke-width="2" class="data-point"/>
  
    <circle cx="468.69565217391306" cy="273.21461599272106" r="4" fill="#3b82f6" stroke="#0d1117" stroke-width="2" class="data-point"/>
  
    <circle cx="473.04347826086956" cy="272.43880792923943" r="4" fill="#3b82f6" stroke="#0d1117" stroke-width="2" class="data-point"/>
  
    <circle cx="477.3913043478261" cy="270.7235281834047" r="4" fill="#3b82f6" stroke="#0d1117" stroke-width="2" class="data-point"/>
  
    <circle cx="481.7391304347826" cy="267.30997270408545" r="4" fill="#3b82f6" stroke="#0d1117" stroke-width="2" class="data-point"/>
  
    <circle cx="486.0869565217392" cy="263.2438882508241" r="4" fill="#3b82f6" stroke="#0d1117" stroke-width="2" class="data-point"/>
  
    <circle cx="490.4347826086957" cy="259.5391390600063" r="4" fill="#3b82f6" stroke="#0d1117" stroke-width="2" class="data-point"/>
  
    <circle cx="494.78260869565213" cy="257.66019569530005" r="4" fill="#3b82f6" stroke="#0d1117" stroke-width="2" class="data-point"/>
  
    <circle cx="499.1304347826087" cy="254.82902763897798" r="4" fill="#3b82f6" stroke="#0d1117" stroke-width="2" class="data-point"/>
  
    <circle cx="503.4782608695652" cy="252.94795877272793" r="4" fill="#3b82f6" stroke="#0d1117" stroke-width="2" class="data-point"/>
  
    <circle cx="507.82608695652175" cy="251.29856957475053" r="4" fill="#3b82f6" stroke="#0d1117" stroke-width="2" class="data-point"/>
  
    <circle cx="512.1739130434783" cy="249.68531390301746" r="4" fill="#3b82f6" stroke="#0d1117" stroke-width="2" class="data-point"/>
  
    <circle cx="516.5217391304348" cy="248.16558029921094" r="4" fill="#3b82f6" stroke="#0d1117" stroke-width="2" class="data-point"/>
  
    <circle cx="520.8695652173913" cy="245.80202258252166" r="4" fill="#3b82f6" stroke="#0d1117" stroke-width="2" class="data-point"/>
  
    <circle cx="525.2173913043479" cy="243.92307921781543" r="4" fill="#3b82f6" stroke="#0d1117" stroke-width="2" class="data-point"/>
  
    <circle cx="529.5652173913044" cy="241.521262473338" r="4" fill="#3b82f6" stroke="#0d1117" stroke-width="2" class="data-point"/>
  
    <circle cx="533.9130434782608" cy="241.0302716167236" r="4" fill="#3b82f6" stroke="#0d1117" stroke-width="2" class="data-point"/>
  
    <circle cx="538.2608695652174" cy="240.96650657041005" r="4" fill="#3b82f6" stroke="#0d1117" stroke-width="2" class="data-point"/>
  
    <circle cx="542.6086956521739" cy="240.8836120102024" r="4" fill="#3b82f6" stroke="#0d1117" stroke-width="2" class="data-point"/>
  
    <circle cx="546.9565217391305" cy="240.8134704592575" r="4" fill="#3b82f6" stroke="#0d1117" stroke-width="2" class="data-point"/>
  
    <circle cx="551.304347826087" cy="240.72207389287473" r="4" fill="#3b82f6" stroke="#0d1117" stroke-width="2" class="data-point"/>
  
    <circle cx="555.6521739130435" cy="240.64130483421087" r="4" fill="#3b82f6" stroke="#0d1117" stroke-width="2" class="data-point"/>
  
    <circle cx="560" cy="240.60942231105412" r="4" fill="#3b82f6" stroke="#0d1117" stroke-width="2" class="data-point"/>
  
    <circle cx="564.3478260869565" cy="240.4925197261459" r="4" fill="#3b82f6" stroke="#0d1117" stroke-width="2" class="data-point"/>
  
    <circle cx="568.695652173913" cy="240.3798681443253" r="4" fill="#3b82f6" stroke="#0d1117" stroke-width="2" class="data-point"/>
  
    <circle cx="573.0434782608696" cy="240.30547559029282" r="4" fill="#3b82f6" stroke="#0d1117" stroke-width="2" class="data-point"/>
  
    <circle cx="577.391304347826" cy="240.27784407022358" r="4" fill="#3b82f6" stroke="#0d1117" stroke-width="2" class="data-point"/>
  
    <circle cx="581.7391304347826" cy="240.15243947914024" r="4" fill="#3b82f6" stroke="#0d1117" stroke-width="2" class="data-point"/>
  
    <circle cx="586.0869565217391" cy="237.07046224065152" r="4" fill="#3b82f6" stroke="#0d1117" stroke-width="2" class="data-point"/>
  
    <circle cx="590.4347826086956" cy="232.24344823471503" r="4" fill="#3b82f6" stroke="#0d1117" stroke-width="2" class="data-point"/>
  
    <circle cx="594.7826086956521" cy="229.01056038661756" r="4" fill="#3b82f6" stroke="#0d1117" stroke-width="2" class="data-point"/>
  
    <circle cx="599.1304347826087" cy="225.25692466029264" r="4" fill="#3b82f6" stroke="#0d1117" stroke-width="2" class="data-point"/>
  
    <circle cx="603.4782608695652" cy="221.38851185060332" r="4" fill="#3b82f6" stroke="#0d1117" stroke-width="2" class="data-point"/>
  
    <circle cx="607.8260869565217" cy="218.35329564607787" r="4" fill="#3b82f6" stroke="#0d1117" stroke-width="2" class="data-point"/>
  
    <circle cx="612.1739130434783" cy="214.9588696806527" r="4" fill="#3b82f6" stroke="#0d1117" stroke-width="2" class="data-point"/>
  
    <circle cx="616.5217391304348" cy="209.787524424623" r="4" fill="#3b82f6" stroke="#0d1117" stroke-width="2" class="data-point"/>
  
    <circle cx="620.8695652173913" cy="202.8180048625509" r="4" fill="#3b82f6" stroke="#0d1117" stroke-width="2" class="data-point"/>
  
    <circle cx="625.2173913043478" cy="198.2694315588503" r="4" fill="#3b82f6" stroke="#0d1117" stroke-width="2" class="data-point"/>
  
    <circle cx="629.5652173913044" cy="192.85577912682905" r="4" fill="#3b82f6" stroke="#0d1117" stroke-width="2" class="data-point"/>
  
    <circle cx="633.9130434782609" cy="186.82360574556628" r="4" fill="#3b82f6" stroke="#0d1117" stroke-width="2" class="data-point"/>
  
    <circle cx="638.2608695652174" cy="181.98596423191088" r="4" fill="#3b82f6" stroke="#0d1117" stroke-width="2" class="data-point"/>
  
    <circle cx="642.6086956521739" cy="176.73597541876111" r="4" fill="#3b82f6" stroke="#0d1117" stroke-width="2" class="data-point"/>
  
    <circle cx="646.9565217391305" cy="172.0790015363274" r="4" fill="#3b82f6" stroke="#0d1117" stroke-width="2" class="data-point"/>
  
    <circle cx="651.304347826087" cy="167.46453768476948" r="4" fill="#3b82f6" stroke="#0d1117" stroke-width="2" class="data-point"/>
  
    <circle cx="655.6521739130435" cy="162.86282684247425" r="4" fill="#3b82f6" stroke="#0d1117" stroke-width="2" class="data-point"/>
  
    <circle cx="660" cy="156.59684829139508" r="4" fill="#3b82f6" stroke="#0d1117" stroke-width="2" class="data-point"/>
  
    <circle cx="664.3478260869565" cy="150.31174022642185" r="4" fill="#3b82f6" stroke="#0d1117" stroke-width="2" class="data-point"/>
  
    <circle cx="668.695652173913" cy="145.072378920991" r="4" fill="#3b82f6" stroke="#0d1117" stroke-width="2" class="data-point"/>
  
    <circle cx="673.0434782608695" cy="140.6810927315305" r="4" fill="#3b82f6" stroke="#0d1117" stroke-width="2" class="data-point"/>
  
    <circle cx="677.3913043478261" cy="136.4215876377847" r="4" fill="#3b82f6" stroke="#0d1117" stroke-width="2" class="data-point"/>
  
    <circle cx="681.7391304347826" cy="130.76775353131572" r="4" fill="#3b82f6" stroke="#0d1117" stroke-width="2" class="data-point"/>
  
    <circle cx="686.0869565217391" cy="126.38284384648657" r="4" fill="#3b82f6" stroke="#0d1117" stroke-width="2" class="data-point"/>
  
    <circle cx="690.4347826086956" cy="122.0446951956207" r="4" fill="#3b82f6" stroke="#0d1117" stroke-width="2" class="data-point"/>
  
    <circle cx="694.7826086956522" cy="117.98711274853454" r="4" fill="#3b82f6" stroke="#0d1117" stroke-width="2" class="data-point"/>
  
    <circle cx="699.1304347826086" cy="114.16546097280849" r="4" fill="#3b82f6" stroke="#0d1117" stroke-width="2" class="data-point"/>
  
    <circle cx="703.4782608695651" cy="110.25028712915594" r="4" fill="#3b82f6" stroke="#0d1117" stroke-width="2" class="data-point"/>
  
    <circle cx="707.8260869565217" cy="106.902622197694" r="4" fill="#3b82f6" stroke="#0d1117" stroke-width="2" class="data-point"/>
  
    <circle cx="712.1739130434783" cy="103.43592917978015" r="4" fill="#3b82f6" stroke="#0d1117" stroke-width="2" class="data-point"/>
  
    <circle cx="716.5217391304348" cy="99.89696910937755" r="4" fill="#3b82f6" stroke="#0d1117" stroke-width="2" class="data-point"/>
  
    <circle cx="720.8695652173913" cy="96.15608639231539" r="4" fill="#3b82f6" stroke="#0d1117" stroke-width="2" class="data-point"/>
  
    <circle cx="725.2173913043479" cy="92.72340139910204" r="4" fill="#3b82f6" stroke="#0d1117" stroke-width="2" class="data-point"/>
  
    <circle cx="729.5652173913044" cy="89.57978461584358" r="4" fill="#3b82f6" stroke="#0d1117" stroke-width="2" class="data-point"/>
  
    <circle cx="733.9130434782609" cy="83.88344047849887" r="4" fill="#3b82f6" stroke="#0d1117" stroke-width="2" class="data-point"/>
  
    <circle cx="738.2608695652174" cy="79.1159405157884" r="4" fill="#3b82f6" stroke="#0d1117" stroke-width="2" class="data-point"/>
  
    <circle cx="742.6086956521739" cy="74.53761019047477" r="4" fill="#3b82f6" stroke="#0d1117" stroke-width="2" class="data-point"/>
  
    <circle cx="746.9565217391304" cy="70.13994749638289" r="4" fill="#3b82f6" stroke="#0d1117" stroke-width="2" class="data-point"/>
  
    <circle cx="751.304347826087" cy="63.19593395283624" r="4" fill="#3b82f6" stroke="#0d1117" stroke-width="2" class="data-point"/>
  
    <circle cx="755.6521739130435" cy="58.80252226183194" r="4" fill="#3b82f6" stroke="#0d1117" stroke-width="2" class="data-point"/>
  
    <circle cx="760" cy="55" r="4" fill="#3b82f6" stroke="#0d1117" stroke-width="2" class="data-point"/>
  

  <!-- Axis lines -->
  <line x1="60" y1="55" x2="60" y2="340"
        stroke="#30363d" stroke-width="2"/>
  <line x1="60" y1="340" x2="760" y2="340"
        stroke="#30363d" stroke-width="2"/>
</svg>