<?xml version="1.0" encoding="UTF-8"?>
<svg width="800" height="400" xmlns="http://www.w3.org/2000/svg">
  <defs>
    <!-- Gradient for area fill -->
    <linearGradient id="areaGradient" x1="0%" y1="0%" x2="0%" y2="100%">
      <stop offset="0%" style="stop-color:#3b82f6;stop-opacity:0.3" />
      <stop offset="100%" style="stop-color:#3b82f6;stop-opacity:0.05" />
    </linearGradient>

    <!-- Glow filter for line -->
    <filter id="glow">
      <feGaussianBlur stdDeviation="2" result="coloredBlur"/>
      <feMerge>
        <feMergeNode in="coloredBlur"/>
        <feMergeNode in="SourceGraphic"/>
      </feMerge>
    </filter>

    <!-- Animation -->
    <style>
      @keyframes draw {
        from { stroke-dashoffset: 2000; }
        to { stroke-dashoffset: 0; }
      }
      @keyframes fadeIn {
        from { opacity: 0; }
        to { opacity: 1; }
      }
      .line-path {
        stroke-dasharray: 2000;
        stroke-dashoffset: 2000;
        animation: draw 1.5s ease-out forwards;
      }
      .area-path {
        opacity: 0;
        animation: fadeIn 1s ease-out 0.5s forwards;
      }
      .data-point {
        opacity: 0;
        animation: fadeIn 0.5s ease-out 1s forwards;
      }
    </style>
  </defs>

  <!-- Background -->
  <rect width="800" height="400" fill="#0d1117" rx="8"/>

  <!-- Title -->
  <text x="400" y="25" text-anchor="middle" fill="#c9d1d9" font-family="system-ui, -apple-system, sans-serif" font-size="16" font-weight="600">
    zxcloli666/SoundCloud-Desktop Downloads
  </text>

  <!-- Stats -->
  <text x="780" y="25" text-anchor="end" fill="#58a6ff" font-family="system-ui, -apple-system, sans-serif" font-size="14" font-weight="600">
    287.0K total
  </text>
  <text x="780" y="42" text-anchor="end" fill="#3fb950" font-family="system-ui, -apple-system, sans-serif" font-size="12">
    +884 (+0.3%)
  </text>

  <!-- Grid lines -->
  <g opacity="0.1">
    
      <line x1="60" y1="340" x2="760" y2="340"
            stroke="#c9d1d9" stroke-width="1"/>
    
      <line x1="60" y1="268.75" x2="760" y2="268.75"
            stroke="#c9d1d9" stroke-width="1"/>
    
      <line x1="60" y1="197.5" x2="760" y2="197.5"
            stroke="#c9d1d9" stroke-width="1"/>
    
      <line x1="60" y1="126.25" x2="760" y2="126.25"
            stroke="#c9d1d9" stroke-width="1"/>
    
      <line x1="60" y1="55" x2="760" y2="55"
            stroke="#c9d1d9" stroke-width="1"/>
    
  </g>

  <!-- Y-axis labels -->
  
    <text x="50" y="344" text-anchor="end"
          fill="#8b949e" font-family="system-ui, -apple-system, sans-serif" font-size="11">
      60.2K
    </text>
  
    <text x="50" y="272.75" text-anchor="end"
          fill="#8b949e" font-family="system-ui, -apple-system, sans-serif" font-size="11">
      116.9K
    </text>
  
    <text x="50" y="201.5" text-anchor="end"
          fill="#8b949e" font-family="system-ui, -apple-system, sans-serif" font-size="11">
      173.6K
    </text>
  
    <text x="50" y="130.25" text-anchor="end"
          fill="#8b949e" font-family="system-ui, -apple-system, sans-serif" font-size="11">
      230.3K
    </text>
  
    <text x="50" y="59" text-anchor="end"
          fill="#8b949e" font-family="system-ui, -apple-system, sans-serif" font-size="11">
      287.0K
    </text>
  

  <!-- X-axis labels -->
  
    <text x="60" y="360" text-anchor="middle"
          fill="#8b949e" font-family="system-ui, -apple-system, sans-serif" font-size="11">
      Nov 25
    </text>
  
    <text x="146.75213675213675" y="360" text-anchor="middle"
          fill="#8b949e" font-family="system-ui, -apple-system, sans-serif" font-size="11">
      Dec 24
    </text>
  
    <text x="233.5042735042735" y="360" text-anchor="middle"
          fill="#8b949e" font-family="system-ui, -apple-system, sans-serif" font-size="11">
      Jan 22
    </text>
  
    <text x="320.2564102564103" y="360" text-anchor="middle"
          fill="#8b949e" font-family="system-ui, -apple-system, sans-serif" font-size="11">
      Feb 20
    </text>
  
    <text x="407.008547008547" y="360" text-anchor="middle"
          fill="#8b949e" font-family="system-ui, -apple-system, sans-serif" font-size="11">
      Mar 21
    </text>
  
    <text x="493.7606837606838" y="360" text-anchor="middle"
          fill="#8b949e" font-family="system-ui, -apple-system, sans-serif" font-size="11">
      Apr 19
    </text>
  
    <text x="580.5128205128206" y="360" text-anchor="middle"
          fill="#8b949e" font-family="system-ui, -apple-system, sans-serif" font-size="11">
      May 18
    </text>
  
    <text x="667.2649572649573" y="360" text-anchor="middle"
          fill="#8b949e" font-family="system-ui, -apple-system, sans-serif" font-size="11">
      Jun 16
    </text>
  
    <text x="754.017094017094" y="360" text-anchor="middle"
          fill="#8b949e" font-family="system-ui, -apple-system, sans-serif" font-size="11">
      Jul 15
    </text>
  
    <text x="760" y="360" text-anchor="middle"
          fill="#8b949e" font-family="system-ui, -apple-system, sans-serif" font-size="11">
      Jul 17
    </text>
  

  <!-- Area under line -->
  <path d="M 60 340
    L 60.00 340.00 L 62.99 339.82 L 65.98 339.50 L 68.97 339.21 L 71.97 338.63 L 74.96 338.03 L 77.95 337.56 L 80.94 337.12 L 83.93 336.73 L 86.92 336.27 L 89.91 335.76 L 92.91 335.21 L 95.90 334.72 L 98.89 334.19 L 101.88 333.80 L 104.87 333.40 L 107.86 332.86 L 110.85 332.50 L 113.85 331.99 L 116.84 331.41 L 119.83 330.98 L 122.82 330.62 L 125.81 330.39 L 128.80 330.19 L 131.79 329.83 L 134.79 329.58 L 137.78 329.02 L 140.77 328.80 L 143.76 328.52 L 146.75 328.15 L 149.74 327.90 L 152.74 327.64 L 155.73 327.38 L 158.72 327.19 L 161.71 327.03 L 164.70 326.78 L 167.69 326.49 L 170.68 326.21 L 173.68 325.87 L 176.67 325.49 L 179.66 325.14 L 182.65 324.72 L 185.64 324.31 L 188.63 323.90 L 191.62 323.45 L 194.62 323.02 L 197.61 322.53 L 200.60 322.09 L 203.59 321.72 L 206.58 321.43 L 209.57 321.01 L 212.56 320.54 L 215.56 320.10 L 218.55 319.60 L 221.54 318.97 L 224.53 318.51 L 227.52 318.12 L 230.51 317.76 L 233.50 317.32 L 236.50 316.80 L 239.49 316.23 L 242.48 315.64 L 245.47 315.07 L 248.46 314.56 L 251.45 314.06 L 254.44 313.62 L 257.44 313.17 L 260.43 312.67 L 263.42 312.04 L 266.41 311.58 L 269.40 311.16 L 272.39 310.70 L 275.38 310.26 L 278.38 309.79 L 281.37 309.29 L 284.36 308.78 L 287.35 308.32 L 290.34 307.94 L 293.33 307.51 L 296.32 307.05 L 299.32 306.62 L 302.31 306.06 L 305.30 305.59 L 308.29 305.13 L 311.28 304.74 L 314.27 304.37 L 317.26 304.00 L 320.26 303.55 L 323.25 303.09 L 326.24 302.54 L 329.23 302.09 L 332.22 301.72 L 335.21 301.34 L 338.21 300.98 L 341.20 300.53 L 344.19 300.07 L 347.18 299.06 L 350.17 297.04 L 353.16 294.64 L 356.15 292.45 L 359.15 291.34 L 362.14 289.66 L 365.13 288.55 L 368.12 287.58 L 371.11 286.62 L 374.10 285.73 L 377.09 284.33 L 380.09 283.22 L 383.08 281.80 L 386.07 281.51 L 389.06 281.47 L 392.05 281.42 L 395.04 281.38 L 398.03 281.33 L 401.03 281.28 L 404.02 281.26 L 407.01 281.19 L 410.00 281.13 L 412.99 281.08 L 415.98 281.07 L 418.97 280.99 L 421.97 279.17 L 424.96 276.32 L 427.95 274.41 L 430.94 272.19 L 433.93 269.90 L 436.92 268.11 L 439.91 266.10 L 442.91 263.05 L 445.90 258.93 L 448.89 256.24 L 451.88 253.04 L 454.87 249.47 L 457.86 246.61 L 460.85 243.51 L 463.85 240.76 L 466.84 238.03 L 469.83 235.31 L 472.82 231.61 L 475.81 227.90 L 478.80 224.80 L 481.79 222.20 L 484.79 219.69 L 487.78 216.35 L 490.77 213.75 L 493.76 211.19 L 496.75 208.79 L 499.74 206.53 L 502.74 204.22 L 505.73 202.24 L 508.72 200.19 L 511.71 198.10 L 514.70 195.89 L 517.69 193.86 L 520.68 192.00 L 523.68 188.64 L 526.67 185.82 L 529.66 183.11 L 532.65 180.51 L 535.64 176.41 L 538.63 173.81 L 541.62 171.57 L 544.62 168.91 L 547.61 165.00 L 550.60 162.19 L 553.59 159.81 L 556.58 157.80 L 559.57 155.89 L 562.56 154.34 L 565.56 152.59 L 568.55 151.17 L 571.54 149.49 L 574.53 147.07 L 577.52 144.99 L 580.51 143.18 L 583.50 141.62 L 586.50 140.01 L 589.49 138.65 L 592.48 136.36 L 595.47 134.41 L 598.46 132.47 L 601.45 130.87 L 604.44 129.40 L 607.44 128.10 L 610.43 125.87 L 613.42 124.05 L 616.41 122.40 L 619.40 120.82 L 622.39 119.44 L 625.38 118.11 L 628.38 116.88 L 631.37 115.70 L 634.36 114.63 L 637.35 113.28 L 640.34 111.84 L 643.33 110.51 L 646.32 108.44 L 649.32 106.94 L 652.31 105.51 L 655.30 104.25 L 658.29 102.78 L 661.28 100.97 L 664.27 99.36 L 667.26 97.93 L 670.26 96.37 L 673.25 94.23 L 676.24 92.46 L 679.23 90.57 L 682.22 88.69 L 685.21 86.93 L 688.21 85.21 L 691.20 83.39 L 694.19 81.75 L 697.18 80.32 L 700.17 79.00 L 703.16 77.59 L 706.15 76.22 L 709.15 74.99 L 712.14 73.75 L 715.13 72.56 L 718.12 71.38 L 721.11 70.20 L 724.10 69.16 L 727.09 67.96 L 730.09 66.71 L 733.08 65.29 L 736.07 63.92 L 739.06 62.70 L 742.05 61.62 L 745.04 60.51 L 748.03 59.51 L 751.03 58.34 L 754.02 57.20 L 757.01 56.11 L 760.00 55.00
    L 760 340
    Z" fill="url(#areaGradient)" class="area-path"/>

  <!-- Main line with glow -->
  <path d="M 60.00 340.00 L 62.99 339.82 L 65.98 339.50 L 68.97 339.21 L 71.97 338.63 L 74.96 338.03 L 77.95 337.56 L 80.94 337.12 L 83.93 336.73 L 86.92 336.27 L 89.91 335.76 L 92.91 335.21 L 95.90 334.72 L 98.89 334.19 L 101.88 333.80 L 104.87 333.40 L 107.86 332.86 L 110.85 332.50 L 113.85 331.99 L 116.84 331.41 L 119.83 330.98 L 122.82 330.62 L 125.81 330.39 L 128.80 330.19 L 131.79 329.83 L 134.79 329.58 L 137.78 329.02 L 140.77 328.80 L 143.76 328.52 L 146.75 328.15 L 149.74 327.90 L 152.74 327.64 L 155.73 327.38 L 158.72 327.19 L 161.71 327.03 L 164.70 326.78 L 167.69 326.49 L 170.68 326.21 L 173.68 325.87 L 176.67 325.49 L 179.66 325.14 L 182.65 324.72 L 185.64 324.31 L 188.63 323.90 L 191.62 323.45 L 194.62 323.02 L 197.61 322.53 L 200.60 322.09 L 203.59 321.72 L 206.58 321.43 L 209.57 321.01 L 212.56 320.54 L 215.56 320.10 L 218.55 319.60 L 221.54 318.97 L 224.53 318.51 L 227.52 318.12 L 230.51 317.76 L 233.50 317.32 L 236.50 316.80 L 239.49 316.23 L 242.48 315.64 L 245.47 315.07 L 248.46 314.56 L 251.45 314.06 L 254.44 313.62 L 257.44 313.17 L 260.43 312.67 L 263.42 312.04 L 266.41 311.58 L 269.40 311.16 L 272.39 310.70 L 275.38 310.26 L 278.38 309.79 L 281.37 309.29 L 284.36 308.78 L 287.35 308.32 L 290.34 307.94 L 293.33 307.51 L 296.32 307.05 L 299.32 306.62 L 302.31 306.06 L 305.30 305.59 L 308.29 305.13 L 311.28 304.74 L 314.27 304.37 L 317.26 304.00 L 320.26 303.55 L 323.25 303.09 L 326.24 302.54 L 329.23 302.09 L 332.22 301.72 L 335.21 301.34 L 338.21 300.98 L 341.20 300.53 L 344.19 300.07 L 347.18 299.06 L 350.17 297.04 L 353.16 294.64 L 356.15 292.45 L 359.15 291.34 L 362.14 289.66 L 365.13 288.55 L 368.12 287.58 L 371.11 286.62 L 374.10 285.73 L 377.09 284.33 L 380.09 283.22 L 383.08 281.80 L 386.07 281.51 L 389.06 281.47 L 392.05 281.42 L 395.04 281.38 L 398.03 281.33 L 401.03 281.28 L 404.02 281.26 L 407.01 281.19 L 410.00 281.13 L 412.99 281.08 L 415.98 281.07 L 418.97 280.99 L 421.97 279.17 L 424.96 276.32 L 427.95 274.41 L 430.94 272.19 L 433.93 269.90 L 436.92 268.11 L 439.91 266.10 L 442.91 263.05 L 445.90 258.93 L 448.89 256.24 L 451.88 253.04 L 454.87 249.47 L 457.86 246.61 L 460.85 243.51 L 463.85 240.76 L 466.84 238.03 L 469.83 235.31 L 472.82 231.61 L 475.81 227.90 L 478.80 224.80 L 481.79 222.20 L 484.79 219.69 L 487.78 216.35 L 490.77 213.75 L 493.76 211.19 L 496.75 208.79 L 499.74 206.53 L 502.74 204.22 L 505.73 202.24 L 508.72 200.19 L 511.71 198.10 L 514.70 195.89 L 517.69 193.86 L 520.68 192.00 L 523.68 188.64 L 526.67 185.82 L 529.66 183.11 L 532.65 180.51 L 535.64 176.41 L 538.63 173.81 L 541.62 171.57 L 544.62 168.91 L 547.61 165.00 L 550.60 162.19 L 553.59 159.81 L 556.58 157.80 L 559.57 155.89 L 562.56 154.34 L 565.56 152.59 L 568.55 151.17 L 571.54 149.49 L 574.53 147.07 L 577.52 144.99 L 580.51 143.18 L 583.50 141.62 L 586.50 140.01 L 589.49 138.65 L 592.48 136.36 L 595.47 134.41 L 598.46 132.47 L 601.45 130.87 L 604.44 129.40 L 607.44 128.10 L 610.43 125.87 L 613.42 124.05 L 616.41 122.40 L 619.40 120.82 L 622.39 119.44 L 625.38 118.11 L 628.38 116.88 L 631.37 115.70 L 634.36 114.63 L 637.35 113.28 L 640.34 111.84 L 643.33 110.51 L 646.32 108.44 L 649.32 106.94 L 652.31 105.51 L 655.30 104.25 L 658.29 102.78 L 661.28 100.97 L 664.27 99.36 L 667.26 97.93 L 670.26 96.37 L 673.25 94.23 L 676.24 92.46 L 679.23 90.57 L 682.22 88.69 L 685.21 86.93 L 688.21 85.21 L 691.20 83.39 L 694.19 81.75 L 697.18 80.32 L 700.17 79.00 L 703.16 77.59 L 706.15 76.22 L 709.15 74.99 L 712.14 73.75 L 715.13 72.56 L 718.12 71.38 L 721.11 70.20 L 724.10 69.16 L 727.09 67.96 L 730.09 66.71 L 733.08 65.29 L 736.07 63.92 L 739.06 62.70 L 742.05 61.62 L 745.04 60.51 L 748.03 59.51 L 751.03 58.34 L 754.02 57.20 L 757.01 56.11 L 760.00 55.00" fill="none" stroke="#3b82f6" stroke-width="3"
        stroke-linecap="round" stroke-linejoin="round" filter="url(#glow)" class="line-path"/>

  <!-- Data points -->
  
    <circle cx="60" cy="340" r="4" fill="#3b82f6" stroke="#0d1117" stroke-width="2" class="data-point"/>
  
    <circle cx="62.991452991452995" cy="339.8153453542134" r="4" fill="#3b82f6" stroke="#0d1117" stroke-width="2" class="data-point"/>
  
    <circle cx="65.98290598290599" cy="339.50130684097087" r="4" fill="#3b82f6" stroke="#0d1117" stroke-width="2" class="data-point"/>
  
    <circle cx="68.97435897435898" cy="339.20987910068186" r="4" fill="#3b82f6" stroke="#0d1117" stroke-width="2" class="data-point"/>
  
    <circle cx="71.96581196581197" cy="338.63079208226264" r="4" fill="#3b82f6" stroke="#0d1117" stroke-width="2" class="data-point"/>
  
    <circle cx="74.95726495726495" cy="338.0328627530489" r="4" fill="#3b82f6" stroke="#0d1117" stroke-width="2" class="data-point"/>
  
    <circle cx="77.94871794871796" cy="337.56180498318514" r="4" fill="#3b82f6" stroke="#0d1117" stroke-width="2" class="data-point"/>
  
    <circle cx="80.94017094017094" cy="337.12215106464566" r="4" fill="#3b82f6" stroke="#0d1117" stroke-width="2" class="data-point"/>
  
    <circle cx="83.93162393162393" cy="336.731487154172" r="4" fill="#3b82f6" stroke="#0d1117" stroke-width="2" class="data-point"/>
  
    <circle cx="86.92307692307692" cy="336.2729909248379" r="4" fill="#3b82f6" stroke="#0d1117" stroke-width="2" class="data-point"/>
  
    <circle cx="89.91452991452991" cy="335.7617362252791" r="4" fill="#3b82f6" stroke="#0d1117" stroke-width="2" class="data-point"/>
  
    <circle cx="92.90598290598291" cy="335.21405305818416" r="4" fill="#3b82f6" stroke="#0d1117" stroke-width="2" class="data-point"/>
  
    <circle cx="95.8974358974359" cy="334.71661605320804" r="4" fill="#3b82f6" stroke="#0d1117" stroke-width="2" class="data-point"/>
  
    <circle cx="98.88888888888889" cy="334.18777519690764" r="4" fill="#3b82f6" stroke="#0d1117" stroke-width="2" class="data-point"/>
  
    <circle cx="101.88034188034189" cy="333.80213590264583" r="4" fill="#3b82f6" stroke="#0d1117" stroke-width="2" class="data-point"/>
  
    <circle cx="104.87179487179486" cy="333.40267891380137" r="4" fill="#3b82f6" stroke="#0d1117" stroke-width="2" class="data-point"/>
  
    <circle cx="107.86324786324786" cy="332.8600203629183" r="4" fill="#3b82f6" stroke="#0d1117" stroke-width="2" class="data-point"/>
  
    <circle cx="110.85470085470087" cy="332.49699184161" r="4" fill="#3b82f6" stroke="#0d1117" stroke-width="2" class="data-point"/>
  
    <circle cx="113.84615384615384" cy="331.994530220422" r="4" fill="#3b82f6" stroke="#0d1117" stroke-width="2" class="data-point"/>
  
    <circle cx="116.83760683760684" cy="331.41418704794984" r="4" fill="#3b82f6" stroke="#0d1117" stroke-width="2" class="data-point"/>
  
    <circle cx="119.82905982905983" cy="330.97704543751627" r="4" fill="#3b82f6" stroke="#0d1117" stroke-width="2" class="data-point"/>
  
    <circle cx="122.82051282051282" cy="330.6177853783668" r="4" fill="#3b82f6" stroke="#0d1117" stroke-width="2" class="data-point"/>
  
    <circle cx="125.8119658119658" cy="330.38539687856735" r="4" fill="#3b82f6" stroke="#0d1117" stroke-width="2" class="data-point"/>
  
    <circle cx="128.80341880341882" cy="330.19194915441" r="4" fill="#3b82f6" stroke="#0d1117" stroke-width="2" class="data-point"/>
  
    <circle cx="131.7948717948718" cy="329.8339452493135" r="4" fill="#3b82f6" stroke="#0d1117" stroke-width="2" class="data-point"/>
  
    <circle cx="134.78632478632477" cy="329.5789459765606" r="4" fill="#3b82f6" stroke="#0d1117" stroke-width="2" class="data-point"/>
  
    <circle cx="137.77777777777777" cy="329.01995742298897" r="4" fill="#3b82f6" stroke="#0d1117" stroke-width="2" class="data-point"/>
  
    <circle cx="140.76923076923077" cy="328.8001304637192" r="4" fill="#3b82f6" stroke="#0d1117" stroke-width="2" class="data-point"/>
  
    <circle cx="143.76068376068378" cy="328.51623964774797" r="4" fill="#3b82f6" stroke="#0d1117" stroke-width="2" class="data-point"/>
  
    <circle cx="146.75213675213675" cy="328.1494426642807" r="4" fill="#3b82f6" stroke="#0d1117" stroke-width="2" class="data-point"/>
  
    <circle cx="149.74358974358972" cy="327.8982118536867" r="4" fill="#3b82f6" stroke="#0d1117" stroke-width="2" class="data-point"/>
  
    <circle cx="152.73504273504273" cy="327.6432125809338" r="4" fill="#3b82f6" stroke="#0d1117" stroke-width="2" class="data-point"/>
  
    <circle cx="155.72649572649573" cy="327.37565176765116" r="4" fill="#3b82f6" stroke="#0d1117" stroke-width="2" class="data-point"/>
  
    <circle cx="158.71794871794873" cy="327.1897409678116" r="4" fill="#3b82f6" stroke="#0d1117" stroke-width="2" class="data-point"/>
  
    <circle cx="161.70940170940173" cy="327.0289532490314" r="4" fill="#3b82f6" stroke="#0d1117" stroke-width="2" class="data-point"/>
  
    <circle cx="164.70085470085468" cy="326.7840032087023" r="4" fill="#3b82f6" stroke="#0d1117" stroke-width="2" class="data-point"/>
  
    <circle cx="167.69230769230768" cy="326.4862946981484" r="4" fill="#3b82f6" stroke="#0d1117" stroke-width="2" class="data-point"/>
  
    <circle cx="170.68376068376068" cy="326.2124531146009" r="4" fill="#3b82f6" stroke="#0d1117" stroke-width="2" class="data-point"/>
  
    <circle cx="173.67521367521368" cy="325.8657545959812" r="4" fill="#3b82f6" stroke="#0d1117" stroke-width="2" class="data-point"/>
  
    <circle cx="176.66666666666666" cy="325.4876522260372" r="4" fill="#3b82f6" stroke="#0d1117" stroke-width="2" class="data-point"/>
  
    <circle cx="179.65811965811966" cy="325.14095370741745" r="4" fill="#3b82f6" stroke="#0d1117" stroke-width="2" class="data-point"/>
  
    <circle cx="182.64957264957263" cy="324.72265440777846" r="4" fill="#3b82f6" stroke="#0d1117" stroke-width="2" class="data-point"/>
  
    <circle cx="185.64102564102564" cy="324.31189203245725" r="4" fill="#3b82f6" stroke="#0d1117" stroke-width="2" class="data-point"/>
  
    <circle cx="188.63247863247864" cy="323.90112965713604" r="4" fill="#3b82f6" stroke="#0d1117" stroke-width="2" class="data-point"/>
  
    <circle cx="191.6239316239316" cy="323.45142650617277" r="4" fill="#3b82f6" stroke="#0d1117" stroke-width="2" class="data-point"/>
  
    <circle cx="194.6153846153846" cy="323.021821820057" r="4" fill="#3b82f6" stroke="#0d1117" stroke-width="2" class="data-point"/>
  
    <circle cx="197.60683760683762" cy="322.53066558534573" r="4" fill="#3b82f6" stroke="#0d1117" stroke-width="2" class="data-point"/>
  
    <circle cx="200.59829059829062" cy="322.0922678208592" r="4" fill="#3b82f6" stroke="#0d1117" stroke-width="2" class="data-point"/>
  
    <circle cx="203.5897435897436" cy="321.72170237523306" r="4" fill="#3b82f6" stroke="#0d1117" stroke-width="2" class="data-point"/>
  
    <circle cx="206.5811965811966" cy="321.42525001873213" r="4" fill="#3b82f6" stroke="#0d1117" stroke-width="2" class="data-point"/>
  
    <circle cx="209.57264957264957" cy="321.010719181252" r="4" fill="#3b82f6" stroke="#0d1117" stroke-width="2" class="data-point"/>
  
    <circle cx="212.56410256410257" cy="320.53714910328233" r="4" fill="#3b82f6" stroke="#0d1117" stroke-width="2" class="data-point"/>
  
    <circle cx="215.55555555555554" cy="320.1037759550077" r="4" fill="#3b82f6" stroke="#0d1117" stroke-width="2" class="data-point"/>
  
    <circle cx="218.54700854700855" cy="319.5975458716607" r="4" fill="#3b82f6" stroke="#0d1117" stroke-width="2" class="data-point"/>
  
    <circle cx="221.53846153846155" cy="318.9732373073346" r="4" fill="#3b82f6" stroke="#0d1117" stroke-width="2" class="data-point"/>
  
    <circle cx="224.52991452991452" cy="318.50846030773573" r="4" fill="#3b82f6" stroke="#0d1117" stroke-width="2" class="data-point"/>
  
    <circle cx="227.52136752136752" cy="318.1228210134739" r="4" fill="#3b82f6" stroke="#0d1117" stroke-width="2" class="data-point"/>
  
    <circle cx="230.5128205128205" cy="317.75602403000664" r="4" fill="#3b82f6" stroke="#0d1117" stroke-width="2" class="data-point"/>
  
    <circle cx="233.5042735042735" cy="317.31511395741416" r="4" fill="#3b82f6" stroke="#0d1117" stroke-width="2" class="data-point"/>
  
    <circle cx="236.4957264957265" cy="316.8026031038024" r="4" fill="#3b82f6" stroke="#0d1117" stroke-width="2" class="data-point"/>
  
    <circle cx="239.48717948717947" cy="316.23482147185996" r="4" fill="#3b82f6" stroke="#0d1117" stroke-width="2" class="data-point"/>
  
    <circle cx="242.47863247863248" cy="315.63814829669917" r="4" fill="#3b82f6" stroke="#0d1117" stroke-width="2" class="data-point"/>
  
    <circle cx="245.47008547008548" cy="315.06534204854484" r="4" fill="#3b82f6" stroke="#0d1117" stroke-width="2" class="data-point"/>
  
    <circle cx="248.46153846153845" cy="314.5616242733039" r="4" fill="#3b82f6" stroke="#0d1117" stroke-width="2" class="data-point"/>
  
    <circle cx="251.45299145299148" cy="314.0616749602218" r="4" fill="#3b82f6" stroke="#0d1117" stroke-width="2" class="data-point"/>
  
    <circle cx="254.44444444444446" cy="313.6207648876293" r="4" fill="#3b82f6" stroke="#0d1117" stroke-width="2" class="data-point"/>
  
    <circle cx="257.43589743589746" cy="313.17106173666605" r="4" fill="#3b82f6" stroke="#0d1117" stroke-width="2" class="data-point"/>
  
    <circle cx="260.4273504273504" cy="312.668600115478" r="4" fill="#3b82f6" stroke="#0d1117" stroke-width="2" class="data-point"/>
  
    <circle cx="263.41880341880346" cy="312.04303539709895" r="4" fill="#3b82f6" stroke="#0d1117" stroke-width="2" class="data-point"/>
  
    <circle cx="266.4102564102564" cy="311.57700224344705" r="4" fill="#3b82f6" stroke="#0d1117" stroke-width="2" class="data-point"/>
  
    <circle cx="269.40170940170935" cy="311.159959097861" r="4" fill="#3b82f6" stroke="#0d1117" stroke-width="2" class="data-point"/>
  
    <circle cx="272.39316239316236" cy="310.6964382523151" r="4" fill="#3b82f6" stroke="#0d1117" stroke-width="2" class="data-point"/>
  
    <circle cx="275.38461538461536" cy="310.2643212580934" r="4" fill="#3b82f6" stroke="#0d1117" stroke-width="2" class="data-point"/>
  
    <circle cx="278.37606837606836" cy="309.7894950260707" r="4" fill="#3b82f6" stroke="#0d1117" stroke-width="2" class="data-point"/>
  
    <circle cx="281.36752136752136" cy="309.2945703292005" r="4" fill="#3b82f6" stroke="#0d1117" stroke-width="2" class="data-point"/>
  
    <circle cx="284.35897435897436" cy="308.77703485937684" r="4" fill="#3b82f6" stroke="#0d1117" stroke-width="2" class="data-point"/>
  
    <circle cx="287.35042735042737" cy="308.32356324625465" r="4" fill="#3b82f6" stroke="#0d1117" stroke-width="2" class="data-point"/>
  
    <circle cx="290.34188034188037" cy="307.93541164388694" r="4" fill="#3b82f6" stroke="#0d1117" stroke-width="2" class="data-point"/>
  
    <circle cx="293.3333333333333" cy="307.5095754199301" r="4" fill="#3b82f6" stroke="#0d1117" stroke-width="2" class="data-point"/>
  
    <circle cx="296.3247863247864" cy="307.0485668824901" r="4" fill="#3b82f6" stroke="#0d1117" stroke-width="2" class="data-point"/>
  
    <circle cx="299.3162393162393" cy="306.62147450448026" r="4" fill="#3b82f6" stroke="#0d1117" stroke-width="2" class="data-point"/>
  
    <circle cx="302.30769230769226" cy="306.06499825901454" r="4" fill="#3b82f6" stroke="#0d1117" stroke-width="2" class="data-point"/>
  
    <circle cx="305.29914529914527" cy="305.58640356483295" r="4" fill="#3b82f6" stroke="#0d1117" stroke-width="2" class="data-point"/>
  
    <circle cx="308.29059829059827" cy="305.125395027393" r="4" fill="#3b82f6" stroke="#0d1117" stroke-width="2" class="data-point"/>
  
    <circle cx="311.28205128205127" cy="304.74226804123714" r="4" fill="#3b82f6" stroke="#0d1117" stroke-width="2" class="data-point"/>
  
    <circle cx="314.2735042735043" cy="304.370446441558" r="4" fill="#3b82f6" stroke="#0d1117" stroke-width="2" class="data-point"/>
  
    <circle cx="317.2649572649573" cy="303.9973686878259" r="4" fill="#3b82f6" stroke="#0d1117" stroke-width="2" class="data-point"/>
  
    <circle cx="320.2564102564103" cy="303.5514339990215" r="4" fill="#3b82f6" stroke="#0d1117" stroke-width="2" class="data-point"/>
  
    <circle cx="323.2478632478632" cy="303.09293776968747" r="4" fill="#3b82f6" stroke="#0d1117" stroke-width="2" class="data-point"/>
  
    <circle cx="326.2393162393162" cy="302.53646152422175" r="4" fill="#3b82f6" stroke="#0d1117" stroke-width="2" class="data-point"/>
  
    <circle cx="329.2307692307692" cy="302.08550221920547" r="4" fill="#3b82f6" stroke="#0d1117" stroke-width="2" class="data-point"/>
  
    <circle cx="332.22222222222223" cy="301.7174490816853" r="4" fill="#3b82f6" stroke="#0d1117" stroke-width="2" class="data-point"/>
  
    <circle cx="335.21367521367523" cy="301.3393467117413" r="4" fill="#3b82f6" stroke="#0d1117" stroke-width="2" class="data-point"/>
  
    <circle cx="338.2051282051282" cy="300.9775743444859" r="4" fill="#3b82f6" stroke="#0d1117" stroke-width="2" class="data-point"/>
  
    <circle cx="341.19658119658123" cy="300.5303835016286" r="4" fill="#3b82f6" stroke="#0d1117" stroke-width="2" class="data-point"/>
  
    <circle cx="344.1880341880342" cy="300.07188727229453" r="4" fill="#3b82f6" stroke="#0d1117" stroke-width="2" class="data-point"/>
  
    <circle cx="347.1794871794872" cy="299.0581709515477" r="4" fill="#3b82f6" stroke="#0d1117" stroke-width="2" class="data-point"/>
  
    <circle cx="350.1709401709402" cy="297.04078754247786" r="4" fill="#3b82f6" stroke="#0d1117" stroke-width="2" class="data-point"/>
  
    <circle cx="353.1623931623932" cy="294.63776483914614" r="4" fill="#3b82f6" stroke="#0d1117" stroke-width="2" class="data-point"/>
  
    <circle cx="356.15384615384613" cy="292.4482883248194" r="4" fill="#3b82f6" stroke="#0d1117" stroke-width="2" class="data-point"/>
  
    <circle cx="359.14529914529913" cy="291.3378481419939" r="4" fill="#3b82f6" stroke="#0d1117" stroke-width="2" class="data-point"/>
  
    <circle cx="362.13675213675214" cy="289.6646509434378" r="4" fill="#3b82f6" stroke="#0d1117" stroke-width="2" class="data-point"/>
  
    <circle cx="365.12820512820514" cy="288.55295460655935" r="4" fill="#3b82f6" stroke="#0d1117" stroke-width="2" class="data-point"/>
  
    <circle cx="368.11965811965814" cy="287.5781790614546" r="4" fill="#3b82f6" stroke="#0d1117" stroke-width="2" class="data-point"/>
  
    <circle cx="371.1111111111111" cy="286.6247581352503" r="4" fill="#3b82f6" stroke="#0d1117" stroke-width="2" class="data-point"/>
  
    <circle cx="374.1025641025641" cy="285.7266079873767" r="4" fill="#3b82f6" stroke="#0d1117" stroke-width="2" class="data-point"/>
  
    <circle cx="377.0940170940171" cy="284.32976468047406" r="4" fill="#3b82f6" stroke="#0d1117" stroke-width="2" class="data-point"/>
  
    <circle cx="380.0854700854701" cy="283.2193244976486" r="4" fill="#3b82f6" stroke="#0d1117" stroke-width="2" class="data-point"/>
  
    <circle cx="383.0769230769231" cy="281.7998704177924" r="4" fill="#3b82f6" stroke="#0d1117" stroke-width="2" class="data-point"/>
  
    <circle cx="386.0683760683761" cy="281.50969883155636" r="4" fill="#3b82f6" stroke="#0d1117" stroke-width="2" class="data-point"/>
  
    <circle cx="389.05982905982904" cy="281.47201420996726" r="4" fill="#3b82f6" stroke="#0d1117" stroke-width="2" class="data-point"/>
  
    <circle cx="392.05128205128204" cy="281.4230242019014" r="4" fill="#3b82f6" stroke="#0d1117" stroke-width="2" class="data-point"/>
  
    <circle cx="395.04273504273505" cy="281.38157111815343" r="4" fill="#3b82f6" stroke="#0d1117" stroke-width="2" class="data-point"/>
  
    <circle cx="398.03418803418805" cy="281.3275564938757" r="4" fill="#3b82f6" stroke="#0d1117" stroke-width="2" class="data-point"/>
  
    <circle cx="401.025641025641" cy="281.27982263986286" r="4" fill="#3b82f6" stroke="#0d1117" stroke-width="2" class="data-point"/>
  
    <circle cx="404.017094017094" cy="281.2609803290683" r="4" fill="#3b82f6" stroke="#0d1117" stroke-width="2" class="data-point"/>
  
    <circle cx="407.008547008547" cy="281.19189185615494" r="4" fill="#3b82f6" stroke="#0d1117" stroke-width="2" class="data-point"/>
  
    <circle cx="410" cy="281.1253156913475" r="4" fill="#3b82f6" stroke="#0d1117" stroke-width="2" class="data-point"/>
  
    <circle cx="412.991452991453" cy="281.0813502994936" r="4" fill="#3b82f6" stroke="#0d1117" stroke-width="2" class="data-point"/>
  
    <circle cx="415.98290598290595" cy="281.06502029680496" r="4" fill="#3b82f6" stroke="#0d1117" stroke-width="2" class="data-point"/>
  
    <circle cx="418.97435897435895" cy="280.9909072076797" r="4" fill="#3b82f6" stroke="#0d1117" stroke-width="2" class="data-point"/>
  
    <circle cx="421.965811965812" cy="279.16948383087316" r="4" fill="#3b82f6" stroke="#0d1117" stroke-width="2" class="data-point"/>
  
    <circle cx="424.95726495726495" cy="276.31675797657823" r="4" fill="#3b82f6" stroke="#0d1117" stroke-width="2" class="data-point"/>
  
    <circle cx="427.94871794871796" cy="274.4061476620108" r="4" fill="#3b82f6" stroke="#0d1117" stroke-width="2" class="data-point"/>
  
    <circle cx="430.94017094017096" cy="272.18777960446573" r="4" fill="#3b82f6" stroke="#0d1117" stroke-width="2" class="data-point"/>
  
    <circle cx="433.9316239316239" cy="269.9015792280603" r="4" fill="#3b82f6" stroke="#0d1117" stroke-width="2" class="data-point"/>
  
    <circle cx="436.9230769230769" cy="268.1077912404191" r="4" fill="#3b82f6" stroke="#0d1117" stroke-width="2" class="data-point"/>
  
    <circle cx="439.9145299145299" cy="266.10171321782593" r="4" fill="#3b82f6" stroke="#0d1117" stroke-width="2" class="data-point"/>
  
    <circle cx="442.90598290598297" cy="263.04549040694985" r="4" fill="#3b82f6" stroke="#0d1117" stroke-width="2" class="data-point"/>
  
    <circle cx="445.8974358974359" cy="258.9265612672611" r="4" fill="#3b82f6" stroke="#0d1117" stroke-width="2" class="data-point"/>
  
    <circle cx="448.8888888888889" cy="256.23839159390525" r="4" fill="#3b82f6" stroke="#0d1117" stroke-width="2" class="data-point"/>
  
    <circle cx="451.88034188034186" cy="253.03896722099057" r="4" fill="#3b82f6" stroke="#0d1117" stroke-width="2" class="data-point"/>
  
    <circle cx="454.87179487179486" cy="249.4740020186616" r="4" fill="#3b82f6" stroke="#0d1117" stroke-width="2" class="data-point"/>
  
    <circle cx="457.86324786324786" cy="246.6149953941018" r="4" fill="#3b82f6" stroke="#0d1117" stroke-width="2" class="data-point"/>
  
    <circle cx="460.8547008547008" cy="243.51229488326584" r="4" fill="#3b82f6" stroke="#0d1117" stroke-width="2" class="data-point"/>
  
    <circle cx="463.8461538461538" cy="240.76006135320847" r="4" fill="#3b82f6" stroke="#0d1117" stroke-width="2" class="data-point"/>
  
    <circle cx="466.83760683760687" cy="238.03295090421054" r="4" fill="#3b82f6" stroke="#0d1117" stroke-width="2" class="data-point"/>
  
    <circle cx="469.8290598290599" cy="235.31337737953044" r="4" fill="#3b82f6" stroke="#0d1117" stroke-width="2" class="data-point"/>
  
    <circle cx="472.8205128205128" cy="231.61023523137476" r="4" fill="#3b82f6" stroke="#0d1117" stroke-width="2" class="data-point"/>
  
    <circle cx="475.8119658119658" cy="227.8957876967424" r="4" fill="#3b82f6" stroke="#0d1117" stroke-width="2" class="data-point"/>
  
    <circle cx="478.80341880341877" cy="224.79936795617124" r="4" fill="#3b82f6" stroke="#0d1117" stroke-width="2" class="data-point"/>
  
    <circle cx="481.79487179487177" cy="222.20415368273515" r="4" fill="#3b82f6" stroke="#0d1117" stroke-width="2" class="data-point"/>
  
    <circle cx="484.78632478632477" cy="219.68682096058322" r="4" fill="#3b82f6" stroke="#0d1117" stroke-width="2" class="data-point"/>
  
    <circle cx="487.7777777777778" cy="216.34545117968293" r="4" fill="#3b82f6" stroke="#0d1117" stroke-width="2" class="data-point"/>
  
    <circle cx="490.7692307692308" cy="213.75400536840573" r="4" fill="#3b82f6" stroke="#0d1117" stroke-width="2" class="data-point"/>
  
    <circle cx="493.7606837606838" cy="211.1901949462939" r="4" fill="#3b82f6" stroke="#0d1117" stroke-width="2" class="data-point"/>
  
    <circle cx="496.7521367521368" cy="208.7921968591741" r="4" fill="#3b82f6" stroke="#0d1117" stroke-width="2" class="data-point"/>
  
    <circle cx="499.7435897435897" cy="206.53363187193398" r="4" fill="#3b82f6" stroke="#0d1117" stroke-width="2" class="data-point"/>
  
    <circle cx="502.7350427350427" cy="204.2197961063632" r="4" fill="#3b82f6" stroke="#0d1117" stroke-width="2" class="data-point"/>
  
    <circle cx="505.72649572649567" cy="202.2413534729354" r="4" fill="#3b82f6" stroke="#0d1117" stroke-width="2" class="data-point"/>
  
    <circle cx="508.71794871794873" cy="200.19256621254127" r="4" fill="#3b82f6" stroke="#0d1117" stroke-width="2" class="data-point"/>
  
    <circle cx="511.70940170940173" cy="198.10106971434615" r="4" fill="#3b82f6" stroke="#0d1117" stroke-width="2" class="data-point"/>
  
    <circle cx="514.7008547008547" cy="195.89023858111892" r="4" fill="#3b82f6" stroke="#0d1117" stroke-width="2" class="data-point"/>
  
    <circle cx="517.6923076923076" cy="193.8615497855723" r="4" fill="#3b82f6" stroke="#0d1117" stroke-width="2" class="data-point"/>
  
    <circle cx="520.6837606837607" cy="192.00369794122963" r="4" fill="#3b82f6" stroke="#0d1117" stroke-width="2" class="data-point"/>
  
    <circle cx="523.6752136752136" cy="188.63720507926993" r="4" fill="#3b82f6" stroke="#0d1117" stroke-width="2" class="data-point"/>
  
    <circle cx="526.6666666666666" cy="185.81965153845815" r="4" fill="#3b82f6" stroke="#0d1117" stroke-width="2" class="data-point"/>
  
    <circle cx="529.6581196581196" cy="183.1138957083607" r="4" fill="#3b82f6" stroke="#0d1117" stroke-width="2" class="data-point"/>
  
    <circle cx="532.6495726495727" cy="180.51491297276567" r="4" fill="#3b82f6" stroke="#0d1117" stroke-width="2" class="data-point"/>
  
    <circle cx="535.6410256410256" cy="176.4110576817126" r="4" fill="#3b82f6" stroke="#0d1117" stroke-width="2" class="data-point"/>
  
    <circle cx="538.6324786324786" cy="173.81458725422354" r="4" fill="#3b82f6" stroke="#0d1117" stroke-width="2" class="data-point"/>
  
    <circle cx="541.6239316239316" cy="171.56732765346015" r="4" fill="#3b82f6" stroke="#0d1117" stroke-width="2" class="data-point"/>
  
    <circle cx="544.6153846153845" cy="168.91307413953447" r="4" fill="#3b82f6" stroke="#0d1117" stroke-width="2" class="data-point"/>
  
    <circle cx="547.6068376068376" cy="165.00015426453282" r="4" fill="#3b82f6" stroke="#0d1117" stroke-width="2" class="data-point"/>
  
    <circle cx="550.5982905982905" cy="162.185113031827" r="4" fill="#3b82f6" stroke="#0d1117" stroke-width="2" class="data-point"/>
  
    <circle cx="553.5897435897436" cy="159.80846956360767" r="4" fill="#3b82f6" stroke="#0d1117" stroke-width="2" class="data-point"/>
  
    <circle cx="556.5811965811965" cy="157.79736692480265" r="4" fill="#3b82f6" stroke="#0d1117" stroke-width="2" class="data-point"/>
  
    <circle cx="559.5726495726497" cy="155.88926891834117" r="4" fill="#3b82f6" stroke="#0d1117" stroke-width="2" class="data-point"/>
  
    <circle cx="562.5641025641025" cy="154.33791866292316" r="4" fill="#3b82f6" stroke="#0d1117" stroke-width="2" class="data-point"/>
  
    <circle cx="565.5555555555555" cy="152.59060837524186" r="4" fill="#3b82f6" stroke="#0d1117" stroke-width="2" class="data-point"/>
  
    <circle cx="568.5470085470085" cy="151.16612967917385" r="4" fill="#3b82f6" stroke="#0d1117" stroke-width="2" class="data-point"/>
  
    <circle cx="571.5384615384614" cy="149.48539555629995" r="4" fill="#3b82f6" stroke="#0d1117" stroke-width="2" class="data-point"/>
  
    <circle cx="574.5299145299145" cy="147.06604285027967" r="4" fill="#3b82f6" stroke="#0d1117" stroke-width="2" class="data-point"/>
  
    <circle cx="577.5213675213676" cy="144.98710789261423" r="4" fill="#3b82f6" stroke="#0d1117" stroke-width="2" class="data-point"/>
  
    <circle cx="580.5128205128206" cy="143.17950221039038" r="4" fill="#3b82f6" stroke="#0d1117" stroke-width="2" class="data-point"/>
  
    <circle cx="583.5042735042736" cy="141.61684656849567" r="4" fill="#3b82f6" stroke="#0d1117" stroke-width="2" class="data-point"/>
  
    <circle cx="586.4957264957264" cy="140.0052009185351" r="4" fill="#3b82f6" stroke="#0d1117" stroke-width="2" class="data-point"/>
  
    <circle cx="589.4871794871794" cy="138.64604223322152" r="4" fill="#3b82f6" stroke="#0d1117" stroke-width="2" class="data-point"/>
  
    <circle cx="592.4786324786324" cy="136.36109801086903" r="4" fill="#3b82f6" stroke="#0d1117" stroke-width="2" class="data-point"/>
  
    <circle cx="595.4700854700855" cy="134.40777845850064" r="4" fill="#3b82f6" stroke="#0d1117" stroke-width="2" class="data-point"/>
  
    <circle cx="598.4615384615385" cy="132.47078890882082" r="4" fill="#3b82f6" stroke="#0d1117" stroke-width="2" class="data-point"/>
  
    <circle cx="601.4529914529915" cy="130.87170479939" r="4" fill="#3b82f6" stroke="#0d1117" stroke-width="2" class="data-point"/>
  
    <circle cx="604.4444444444445" cy="129.404516865521" r="4" fill="#3b82f6" stroke="#0d1117" stroke-width="2" class="data-point"/>
  
    <circle cx="607.4358974358975" cy="128.10188511259108" r="4" fill="#3b82f6" stroke="#0d1117" stroke-width="2" class="data-point"/>
  
    <circle cx="610.4273504273505" cy="125.86844320641035" r="4" fill="#3b82f6" stroke="#0d1117" stroke-width="2" class="data-point"/>
  
    <circle cx="613.4188034188033" cy="124.05455675392164" r="4" fill="#3b82f6" stroke="#0d1117" stroke-width="2" class="data-point"/>
  
    <circle cx="616.4102564102564" cy="122.40145802021306" r="4" fill="#3b82f6" stroke="#0d1117" stroke-width="2" class="data-point"/>
  
    <circle cx="619.4017094017095" cy="120.82247237562973" r="4" fill="#3b82f6" stroke="#0d1117" stroke-width="2" class="data-point"/>
  
    <circle cx="622.3931623931625" cy="119.44447137952162" r="4" fill="#3b82f6" stroke="#0d1117" stroke-width="2" class="data-point"/>
  
    <circle cx="625.3846153846154" cy="118.10666731310852" r="4" fill="#3b82f6" stroke="#0d1117" stroke-width="2" class="data-point"/>
  
    <circle cx="628.3760683760684" cy="116.88066095740976" r="4" fill="#3b82f6" stroke="#0d1117" stroke-width="2" class="data-point"/>
  
    <circle cx="631.3675213675214" cy="115.70490076382981" r="4" fill="#3b82f6" stroke="#0d1117" stroke-width="2" class="data-point"/>
  
    <circle cx="634.3589743589744" cy="114.62712058638152" r="4" fill="#3b82f6" stroke="#0d1117" stroke-width="2" class="data-point"/>
  
    <circle cx="637.3504273504274" cy="113.28177959565062" r="4" fill="#3b82f6" stroke="#0d1117" stroke-width="2" class="data-point"/>
  
    <circle cx="640.3418803418804" cy="111.83720243473508" r="4" fill="#3b82f6" stroke="#0d1117" stroke-width="2" class="data-point"/>
  
    <circle cx="643.3333333333334" cy="110.50819144669279" r="4" fill="#3b82f6" stroke="#0d1117" stroke-width="2" class="data-point"/>
  
    <circle cx="646.3247863247864" cy="108.44307418361004" r="4" fill="#3b82f6" stroke="#0d1117" stroke-width="2" class="data-point"/>
  
    <circle cx="649.3162393162394" cy="106.9444823984168" r="4" fill="#3b82f6" stroke="#0d1117" stroke-width="2" class="data-point"/>
  
    <circle cx="652.3076923076923" cy="105.511210623978" r="4" fill="#3b82f6" stroke="#0d1117" stroke-width="2" class="data-point"/>
  
    <circle cx="655.2991452991453" cy="104.25380041695502" r="4" fill="#3b82f6" stroke="#0d1117" stroke-width="2" class="data-point"/>
  
    <circle cx="658.2905982905983" cy="102.77907555876817" r="4" fill="#3b82f6" stroke="#0d1117" stroke-width="2" class="data-point"/>
  
    <circle cx="661.2820512820513" cy="100.96770141438537" r="4" fill="#3b82f6" stroke="#0d1117" stroke-width="2" class="data-point"/>
  
    <circle cx="664.2735042735043" cy="99.36233653468969" r="4" fill="#3b82f6" stroke="#0d1117" stroke-width="2" class="data-point"/>
  
    <circle cx="667.2649572649573" cy="97.9290647602509" r="4" fill="#3b82f6" stroke="#0d1117" stroke-width="2" class="data-point"/>
  
    <circle cx="670.2564102564103" cy="96.37268988862101" r="4" fill="#3b82f6" stroke="#0d1117" stroke-width="2" class="data-point"/>
  
    <circle cx="673.2478632478633" cy="94.22592261209522" r="4" fill="#3b82f6" stroke="#0d1117" stroke-width="2" class="data-point"/>
  
    <circle cx="676.2393162393163" cy="92.46353847577825" r="4" fill="#3b82f6" stroke="#0d1117" stroke-width="2" class="data-point"/>
  
    <circle cx="679.2307692307692" cy="90.57302662605835" r="4" fill="#3b82f6" stroke="#0d1117" stroke-width="2" class="data-point"/>
  
    <circle cx="682.2222222222222" cy="88.6887955466033" r="4" fill="#3b82f6" stroke="#0d1117" stroke-width="2" class="data-point"/>
  
    <circle cx="685.2136752136753" cy="86.93394833460417" r="4" fill="#3b82f6" stroke="#0d1117" stroke-width="2" class="data-point"/>
  
    <circle cx="688.2051282051282" cy="85.21176112798227" r="4" fill="#3b82f6" stroke="#0d1117" stroke-width="2" class="data-point"/>
  
    <circle cx="691.1965811965812" cy="83.38908159712275" r="4" fill="#3b82f6" stroke="#0d1117" stroke-width="2" class="data-point"/>
  
    <circle cx="694.1880341880342" cy="81.75482517420875" r="4" fill="#3b82f6" stroke="#0d1117" stroke-width="2" class="data-point"/>
  
    <circle cx="697.1794871794872" cy="80.32280955382294" r="4" fill="#3b82f6" stroke="#0d1117" stroke-width="2" class="data-point"/>
  
    <circle cx="700.1709401709402" cy="78.99631087388656" r="4" fill="#3b82f6" stroke="#0d1117" stroke-width="2" class="data-point"/>
  
    <circle cx="703.1623931623932" cy="77.59318679671901" r="4" fill="#3b82f6" stroke="#0d1117" stroke-width="2" class="data-point"/>
  
    <circle cx="706.1538461538462" cy="76.22397887898165" r="4" fill="#3b82f6" stroke="#0d1117" stroke-width="2" class="data-point"/>
  
    <circle cx="709.1452991452992" cy="74.9866671368062" r="4" fill="#3b82f6" stroke="#0d1117" stroke-width="2" class="data-point"/>
  
    <circle cx="712.1367521367522" cy="73.74684308652479" r="4" fill="#3b82f6" stroke="#0d1117" stroke-width="2" class="data-point"/>
  
    <circle cx="715.1282051282051" cy="72.5597775064681" r="4" fill="#3b82f6" stroke="#0d1117" stroke-width="2" class="data-point"/>
  
    <circle cx="718.1196581196581" cy="71.38024885072923" r="4" fill="#3b82f6" stroke="#0d1117" stroke-width="2" class="data-point"/>
  
    <circle cx="721.1111111111111" cy="70.20323250309633" r="4" fill="#3b82f6" stroke="#0d1117" stroke-width="2" class="data-point"/>
  
    <circle cx="724.1025641025641" cy="69.1643931012901" r="4" fill="#3b82f6" stroke="#0d1117" stroke-width="2" class="data-point"/>
  
    <circle cx="727.0940170940171" cy="67.95597290233292" r="4" fill="#3b82f6" stroke="#0d1117" stroke-width="2" class="data-point"/>
  
    <circle cx="730.0854700854701" cy="66.70986808178662" r="4" fill="#3b82f6" stroke="#0d1117" stroke-width="2" class="data-point"/>
  
    <circle cx="733.0769230769231" cy="65.29041400193051" r="4" fill="#3b82f6" stroke="#0d1117" stroke-width="2" class="data-point"/>
  
    <circle cx="736.0683760683761" cy="63.92246223824617" r="4" fill="#3b82f6" stroke="#0d1117" stroke-width="2" class="data-point"/>
  
    <circle cx="739.0598290598291" cy="62.697712036600365" r="4" fill="#3b82f6" stroke="#0d1117" stroke-width="2" class="data-point"/>
  
    <circle cx="742.051282051282" cy="61.62244416725798" r="4" fill="#3b82f6" stroke="#0d1117" stroke-width="2" class="data-point"/>
  
    <circle cx="745.042735042735" cy="60.513260138485464" r="4" fill="#3b82f6" stroke="#0d1117" stroke-width="2" class="data-point"/>
  
    <circle cx="748.034188034188" cy="59.50582458800352" r="4" fill="#3b82f6" stroke="#0d1117" stroke-width="2" class="data-point"/>
  
    <circle cx="751.0256410256411" cy="58.342625934953276" r="4" fill="#3b82f6" stroke="#0d1117" stroke-width="2" class="data-point"/>
  
    <circle cx="754.017094017094" cy="57.20203805485647" r="4" fill="#3b82f6" stroke="#0d1117" stroke-width="2" class="data-point"/>
  
    <circle cx="757.008547008547" cy="56.11044018282553" r="4" fill="#3b82f6" stroke="#0d1117" stroke-width="2" class="data-point"/>
  
    <circle cx="760" cy="55" r="4" fill="#3b82f6" stroke="#0d1117" stroke-width="2" class="data-point"/>
  

  <!-- Axis lines -->
  <line x1="60" y1="55" x2="60" y2="340"
        stroke="#30363d" stroke-width="2"/>
  <line x1="60" y1="340" x2="760" y2="340"
        stroke="#30363d" stroke-width="2"/>
</svg>