<?xml version="1.0" encoding="UTF-8"?>
<svg width="800" height="400" xmlns="http://www.w3.org/2000/svg">
  <defs>
    <!-- Gradient for area fill -->
    <linearGradient id="areaGradient" x1="0%" y1="0%" x2="0%" y2="100%">
      <stop offset="0%" style="stop-color:#3b82f6;stop-opacity:0.3" />
      <stop offset="100%" style="stop-color:#3b82f6;stop-opacity:0.05" />
    </linearGradient>

    <!-- Glow filter for line -->
    <filter id="glow">
      <feGaussianBlur stdDeviation="2" result="coloredBlur"/>
      <feMerge>
        <feMergeNode in="coloredBlur"/>
        <feMergeNode in="SourceGraphic"/>
      </feMerge>
    </filter>

    <!-- Animation -->
    <style>
      @keyframes draw {
        from { stroke-dashoffset: 2000; }
        to { stroke-dashoffset: 0; }
      }
      @keyframes fadeIn {
        from { opacity: 0; }
        to { opacity: 1; }
      }
      .line-path {
        stroke-dasharray: 2000;
        stroke-dashoffset: 2000;
        animation: draw 1.5s ease-out forwards;
      }
      .area-path {
        opacity: 0;
        animation: fadeIn 1s ease-out 0.5s forwards;
      }
      .data-point {
        opacity: 0;
        animation: fadeIn 0.5s ease-out 1s forwards;
      }
    </style>
  </defs>

  <!-- Background -->
  <rect width="800" height="400" fill="#0d1117" rx="8"/>

  <!-- Title -->
  <text x="400" y="25" text-anchor="middle" fill="#c9d1d9" font-family="system-ui, -apple-system, sans-serif" font-size="16" font-weight="600">
    zxcloli666/SoundCloud-Desktop Downloads
  </text>

  <!-- Stats -->
  <text x="780" y="25" text-anchor="end" fill="#58a6ff" font-family="system-ui, -apple-system, sans-serif" font-size="14" font-weight="600">
    247.8K total
  </text>
  <text x="780" y="42" text-anchor="end" fill="#3fb950" font-family="system-ui, -apple-system, sans-serif" font-size="12">
    +1.0K (+0.4%)
  </text>

  <!-- Grid lines -->
  <g opacity="0.1">
    
      <line x1="60" y1="340" x2="760" y2="340"
            stroke="#c9d1d9" stroke-width="1"/>
    
      <line x1="60" y1="268.75" x2="760" y2="268.75"
            stroke="#c9d1d9" stroke-width="1"/>
    
      <line x1="60" y1="197.5" x2="760" y2="197.5"
            stroke="#c9d1d9" stroke-width="1"/>
    
      <line x1="60" y1="126.25" x2="760" y2="126.25"
            stroke="#c9d1d9" stroke-width="1"/>
    
      <line x1="60" y1="55" x2="760" y2="55"
            stroke="#c9d1d9" stroke-width="1"/>
    
  </g>

  <!-- Y-axis labels -->
  
    <text x="50" y="344" text-anchor="end"
          fill="#8b949e" font-family="system-ui, -apple-system, sans-serif" font-size="11">
      60.2K
    </text>
  
    <text x="50" y="272.75" text-anchor="end"
          fill="#8b949e" font-family="system-ui, -apple-system, sans-serif" font-size="11">
      107.1K
    </text>
  
    <text x="50" y="201.5" text-anchor="end"
          fill="#8b949e" font-family="system-ui, -apple-system, sans-serif" font-size="11">
      154.0K
    </text>
  
    <text x="50" y="130.25" text-anchor="end"
          fill="#8b949e" font-family="system-ui, -apple-system, sans-serif" font-size="11">
      200.9K
    </text>
  
    <text x="50" y="59" text-anchor="end"
          fill="#8b949e" font-family="system-ui, -apple-system, sans-serif" font-size="11">
      247.8K
    </text>
  

  <!-- X-axis labels -->
  
    <text x="60" y="360" text-anchor="middle"
          fill="#8b949e" font-family="system-ui, -apple-system, sans-serif" font-size="11">
      Nov 25
    </text>
  
    <text x="147.9396984924623" y="360" text-anchor="middle"
          fill="#8b949e" font-family="system-ui, -apple-system, sans-serif" font-size="11">
      Dec 20
    </text>
  
    <text x="235.8793969849246" y="360" text-anchor="middle"
          fill="#8b949e" font-family="system-ui, -apple-system, sans-serif" font-size="11">
      Jan 14
    </text>
  
    <text x="323.81909547738695" y="360" text-anchor="middle"
          fill="#8b949e" font-family="system-ui, -apple-system, sans-serif" font-size="11">
      Feb 8
    </text>
  
    <text x="411.7587939698492" y="360" text-anchor="middle"
          fill="#8b949e" font-family="system-ui, -apple-system, sans-serif" font-size="11">
      Mar 5
    </text>
  
    <text x="499.6984924623116" y="360" text-anchor="middle"
          fill="#8b949e" font-family="system-ui, -apple-system, sans-serif" font-size="11">
      Mar 30
    </text>
  
    <text x="587.6381909547739" y="360" text-anchor="middle"
          fill="#8b949e" font-family="system-ui, -apple-system, sans-serif" font-size="11">
      Apr 24
    </text>
  
    <text x="675.5778894472362" y="360" text-anchor="middle"
          fill="#8b949e" font-family="system-ui, -apple-system, sans-serif" font-size="11">
      May 19
    </text>
  
    <text x="760" y="360" text-anchor="middle"
          fill="#8b949e" font-family="system-ui, -apple-system, sans-serif" font-size="11">
      Jun 12
    </text>
  

  <!-- Area under line -->
  <path d="M 60 340
    L 60.00 340.00 L 63.52 339.78 L 67.04 339.40 L 70.55 339.04 L 74.07 338.34 L 77.59 337.62 L 81.11 337.05 L 84.62 336.52 L 88.14 336.05 L 91.66 335.49 L 95.18 334.88 L 98.69 334.21 L 102.21 333.61 L 105.73 332.97 L 109.25 332.51 L 112.76 332.02 L 116.28 331.37 L 119.80 330.93 L 123.32 330.32 L 126.83 329.62 L 130.35 329.09 L 133.87 328.66 L 137.39 328.38 L 140.90 328.14 L 144.42 327.71 L 147.94 327.40 L 151.46 326.73 L 154.97 326.46 L 158.49 326.12 L 162.01 325.67 L 165.53 325.37 L 169.05 325.06 L 172.56 324.74 L 176.08 324.51 L 179.60 324.32 L 183.12 324.02 L 186.63 323.66 L 190.15 323.33 L 193.67 322.91 L 197.19 322.46 L 200.70 322.04 L 204.22 321.53 L 207.74 321.03 L 211.26 320.54 L 214.77 319.99 L 218.29 319.47 L 221.81 318.88 L 225.33 318.35 L 228.84 317.90 L 232.36 317.54 L 235.88 317.04 L 239.40 316.47 L 242.91 315.95 L 246.43 315.33 L 249.95 314.58 L 253.47 314.02 L 256.98 313.55 L 260.50 313.11 L 264.02 312.58 L 267.54 311.96 L 271.06 311.27 L 274.57 310.55 L 278.09 309.86 L 281.61 309.25 L 285.13 308.64 L 288.64 308.11 L 292.16 307.57 L 295.68 306.96 L 299.20 306.20 L 302.71 305.64 L 306.23 305.13 L 309.75 304.57 L 313.27 304.05 L 316.78 303.48 L 320.30 302.88 L 323.82 302.25 L 327.34 301.71 L 330.85 301.24 L 334.37 300.72 L 337.89 300.16 L 341.41 299.65 L 344.92 298.98 L 348.44 298.40 L 351.96 297.84 L 355.48 297.38 L 358.99 296.93 L 362.51 296.48 L 366.03 295.94 L 369.55 295.38 L 373.07 294.71 L 376.58 294.16 L 380.10 293.72 L 383.62 293.26 L 387.14 292.82 L 390.65 292.28 L 394.17 291.73 L 397.69 290.50 L 401.21 288.07 L 404.72 285.16 L 408.24 282.51 L 411.76 281.17 L 415.28 279.15 L 418.79 277.80 L 422.31 276.63 L 425.83 275.47 L 429.35 274.39 L 432.86 272.70 L 436.38 271.36 L 439.90 269.64 L 443.42 269.29 L 446.93 269.24 L 450.45 269.18 L 453.97 269.13 L 457.49 269.07 L 461.01 269.01 L 464.52 268.99 L 468.04 268.91 L 471.56 268.82 L 475.08 268.77 L 478.59 268.75 L 482.11 268.66 L 485.63 266.46 L 489.15 263.01 L 492.66 260.70 L 496.18 258.02 L 499.70 255.26 L 503.22 253.09 L 506.73 250.66 L 510.25 246.97 L 513.77 241.99 L 517.29 238.74 L 520.80 234.87 L 524.32 230.56 L 527.84 227.10 L 531.36 223.35 L 534.87 220.03 L 538.39 216.73 L 541.91 213.44 L 545.43 208.96 L 548.94 204.47 L 552.46 200.73 L 555.98 197.59 L 559.50 194.55 L 563.02 190.51 L 566.53 187.38 L 570.05 184.28 L 573.57 181.38 L 577.09 178.65 L 580.60 175.85 L 584.12 173.46 L 587.64 170.98 L 591.16 168.45 L 594.67 165.78 L 598.19 163.33 L 601.71 161.08 L 605.23 157.01 L 608.74 153.61 L 612.26 150.34 L 615.78 147.19 L 619.30 142.23 L 622.81 139.09 L 626.33 136.38 L 629.85 133.17 L 633.37 128.44 L 636.88 125.03 L 640.40 122.16 L 643.92 119.73 L 647.44 117.42 L 650.95 115.55 L 654.47 113.44 L 657.99 111.71 L 661.51 109.68 L 665.03 106.76 L 668.54 104.24 L 672.06 102.06 L 675.58 100.17 L 679.10 98.22 L 682.61 96.58 L 686.13 93.82 L 689.65 91.45 L 693.17 89.11 L 696.68 87.18 L 700.20 85.41 L 703.72 83.83 L 707.24 81.13 L 710.75 78.94 L 714.27 76.94 L 717.79 75.03 L 721.31 73.36 L 724.82 71.75 L 728.34 70.26 L 731.86 68.84 L 735.38 67.54 L 738.89 65.91 L 742.41 64.17 L 745.93 62.56 L 749.45 60.06 L 752.96 58.25 L 756.48 56.52 L 760.00 55.00
    L 760 340
    Z" fill="url(#areaGradient)" class="area-path"/>

  <!-- Main line with glow -->
  <path d="M 60.00 340.00 L 63.52 339.78 L 67.04 339.40 L 70.55 339.04 L 74.07 338.34 L 77.59 337.62 L 81.11 337.05 L 84.62 336.52 L 88.14 336.05 L 91.66 335.49 L 95.18 334.88 L 98.69 334.21 L 102.21 333.61 L 105.73 332.97 L 109.25 332.51 L 112.76 332.02 L 116.28 331.37 L 119.80 330.93 L 123.32 330.32 L 126.83 329.62 L 130.35 329.09 L 133.87 328.66 L 137.39 328.38 L 140.90 328.14 L 144.42 327.71 L 147.94 327.40 L 151.46 326.73 L 154.97 326.46 L 158.49 326.12 L 162.01 325.67 L 165.53 325.37 L 169.05 325.06 L 172.56 324.74 L 176.08 324.51 L 179.60 324.32 L 183.12 324.02 L 186.63 323.66 L 190.15 323.33 L 193.67 322.91 L 197.19 322.46 L 200.70 322.04 L 204.22 321.53 L 207.74 321.03 L 211.26 320.54 L 214.77 319.99 L 218.29 319.47 L 221.81 318.88 L 225.33 318.35 L 228.84 317.90 L 232.36 317.54 L 235.88 317.04 L 239.40 316.47 L 242.91 315.95 L 246.43 315.33 L 249.95 314.58 L 253.47 314.02 L 256.98 313.55 L 260.50 313.11 L 264.02 312.58 L 267.54 311.96 L 271.06 311.27 L 274.57 310.55 L 278.09 309.86 L 281.61 309.25 L 285.13 308.64 L 288.64 308.11 L 292.16 307.57 L 295.68 306.96 L 299.20 306.20 L 302.71 305.64 L 306.23 305.13 L 309.75 304.57 L 313.27 304.05 L 316.78 303.48 L 320.30 302.88 L 323.82 302.25 L 327.34 301.71 L 330.85 301.24 L 334.37 300.72 L 337.89 300.16 L 341.41 299.65 L 344.92 298.98 L 348.44 298.40 L 351.96 297.84 L 355.48 297.38 L 358.99 296.93 L 362.51 296.48 L 366.03 295.94 L 369.55 295.38 L 373.07 294.71 L 376.58 294.16 L 380.10 293.72 L 383.62 293.26 L 387.14 292.82 L 390.65 292.28 L 394.17 291.73 L 397.69 290.50 L 401.21 288.07 L 404.72 285.16 L 408.24 282.51 L 411.76 281.17 L 415.28 279.15 L 418.79 277.80 L 422.31 276.63 L 425.83 275.47 L 429.35 274.39 L 432.86 272.70 L 436.38 271.36 L 439.90 269.64 L 443.42 269.29 L 446.93 269.24 L 450.45 269.18 L 453.97 269.13 L 457.49 269.07 L 461.01 269.01 L 464.52 268.99 L 468.04 268.91 L 471.56 268.82 L 475.08 268.77 L 478.59 268.75 L 482.11 268.66 L 485.63 266.46 L 489.15 263.01 L 492.66 260.70 L 496.18 258.02 L 499.70 255.26 L 503.22 253.09 L 506.73 250.66 L 510.25 246.97 L 513.77 241.99 L 517.29 238.74 L 520.80 234.87 L 524.32 230.56 L 527.84 227.10 L 531.36 223.35 L 534.87 220.03 L 538.39 216.73 L 541.91 213.44 L 545.43 208.96 L 548.94 204.47 L 552.46 200.73 L 555.98 197.59 L 559.50 194.55 L 563.02 190.51 L 566.53 187.38 L 570.05 184.28 L 573.57 181.38 L 577.09 178.65 L 580.60 175.85 L 584.12 173.46 L 587.64 170.98 L 591.16 168.45 L 594.67 165.78 L 598.19 163.33 L 601.71 161.08 L 605.23 157.01 L 608.74 153.61 L 612.26 150.34 L 615.78 147.19 L 619.30 142.23 L 622.81 139.09 L 626.33 136.38 L 629.85 133.17 L 633.37 128.44 L 636.88 125.03 L 640.40 122.16 L 643.92 119.73 L 647.44 117.42 L 650.95 115.55 L 654.47 113.44 L 657.99 111.71 L 661.51 109.68 L 665.03 106.76 L 668.54 104.24 L 672.06 102.06 L 675.58 100.17 L 679.10 98.22 L 682.61 96.58 L 686.13 93.82 L 689.65 91.45 L 693.17 89.11 L 696.68 87.18 L 700.20 85.41 L 703.72 83.83 L 707.24 81.13 L 710.75 78.94 L 714.27 76.94 L 717.79 75.03 L 721.31 73.36 L 724.82 71.75 L 728.34 70.26 L 731.86 68.84 L 735.38 67.54 L 738.89 65.91 L 742.41 64.17 L 745.93 62.56 L 749.45 60.06 L 752.96 58.25 L 756.48 56.52 L 760.00 55.00" fill="none" stroke="#3b82f6" stroke-width="3"
        stroke-linecap="round" stroke-linejoin="round" filter="url(#glow)" class="line-path"/>

  <!-- Data points -->
  
    <circle cx="60" cy="340" r="4" fill="#3b82f6" stroke="#0d1117" stroke-width="2" class="data-point"/>
  
    <circle cx="63.517587939698494" cy="339.7767659705978" r="4" fill="#3b82f6" stroke="#0d1117" stroke-width="2" class="data-point"/>
  
    <circle cx="67.03517587939699" cy="339.3971162607301" r="4" fill="#3b82f6" stroke="#0d1117" stroke-width="2" class="data-point"/>
  
    <circle cx="70.55276381909547" cy="339.04480132997287" r="4" fill="#3b82f6" stroke="#0d1117" stroke-width="2" class="data-point"/>
  
    <circle cx="74.07035175879398" cy="338.3447272649768" r="4" fill="#3b82f6" stroke="#0d1117" stroke-width="2" class="data-point"/>
  
    <circle cx="77.58793969849246" cy="337.6218742173888" r="4" fill="#3b82f6" stroke="#0d1117" stroke-width="2" class="data-point"/>
  
    <circle cx="81.10552763819095" cy="337.0523996525872" r="4" fill="#3b82f6" stroke="#0d1117" stroke-width="2" class="data-point"/>
  
    <circle cx="84.62311557788945" cy="336.52089005877247" r="4" fill="#3b82f6" stroke="#0d1117" stroke-width="2" class="data-point"/>
  
    <circle cx="88.14070351758794" cy="336.048605819697" r="4" fill="#3b82f6" stroke="#0d1117" stroke-width="2" class="data-point"/>
  
    <circle cx="91.65829145728644" cy="335.4943172432902" r="4" fill="#3b82f6" stroke="#0d1117" stroke-width="2" class="data-point"/>
  
    <circle cx="95.17587939698493" cy="334.8762475156256" r="4" fill="#3b82f6" stroke="#0d1117" stroke-width="2" class="data-point"/>
  
    <circle cx="98.69346733668343" cy="334.2141384216163" r="4" fill="#3b82f6" stroke="#0d1117" stroke-width="2" class="data-point"/>
  
    <circle cx="102.2110552763819" cy="333.61277328118587" r="4" fill="#3b82f6" stroke="#0d1117" stroke-width="2" class="data-point"/>
  
    <circle cx="105.7286432160804" cy="332.9734431697687" r="4" fill="#3b82f6" stroke="#0d1117" stroke-width="2" class="data-point"/>
  
    <circle cx="109.2462311557789" cy="332.50723332605116" r="4" fill="#3b82f6" stroke="#0d1117" stroke-width="2" class="data-point"/>
  
    <circle cx="112.76381909547737" cy="332.02431889509944" r="4" fill="#3b82f6" stroke="#0d1117" stroke-width="2" class="data-point"/>
  
    <circle cx="116.28140703517587" cy="331.3682841964481" r="4" fill="#3b82f6" stroke="#0d1117" stroke-width="2" class="data-point"/>
  
    <circle cx="119.79899497487438" cy="330.929409131841" r="4" fill="#3b82f6" stroke="#0d1117" stroke-width="2" class="data-point"/>
  
    <circle cx="123.31658291457288" cy="330.3219695960527" r="4" fill="#3b82f6" stroke="#0d1117" stroke-width="2" class="data-point"/>
  
    <circle cx="126.83417085427135" cy="329.6203769322172" r="4" fill="#3b82f6" stroke="#0d1117" stroke-width="2" class="data-point"/>
  
    <circle cx="130.35175879396985" cy="329.09190453608136" r="4" fill="#3b82f6" stroke="#0d1117" stroke-width="2" class="data-point"/>
  
    <circle cx="133.86934673366835" cy="328.6575852679927" r="4" fill="#3b82f6" stroke="#0d1117" stroke-width="2" class="data-point"/>
  
    <circle cx="137.38693467336685" cy="328.3766444826906" r="4" fill="#3b82f6" stroke="#0d1117" stroke-width="2" class="data-point"/>
  
    <circle cx="140.90452261306532" cy="328.14278026141216" r="4" fill="#3b82f6" stroke="#0d1117" stroke-width="2" class="data-point"/>
  
    <circle cx="144.4221105527638" cy="327.70997959216294" r="4" fill="#3b82f6" stroke="#0d1117" stroke-width="2" class="data-point"/>
  
    <circle cx="147.9396984924623" cy="327.4017040277504" r="4" fill="#3b82f6" stroke="#0d1117" stroke-width="2" class="data-point"/>
  
    <circle cx="151.4572864321608" cy="326.7259275441859" r="4" fill="#3b82f6" stroke="#0d1117" stroke-width="2" class="data-point"/>
  
    <circle cx="154.9748743718593" cy="326.46017274727853" r="4" fill="#3b82f6" stroke="#0d1117" stroke-width="2" class="data-point"/>
  
    <circle cx="158.4924623115578" cy="326.1169694095581" r="4" fill="#3b82f6" stroke="#0d1117" stroke-width="2" class="data-point"/>
  
    <circle cx="162.01005025125627" cy="325.67353854843265" r="4" fill="#3b82f6" stroke="#0d1117" stroke-width="2" class="data-point"/>
  
    <circle cx="165.52763819095475" cy="325.3698187805385" r="4" fill="#3b82f6" stroke="#0d1117" stroke-width="2" class="data-point"/>
  
    <circle cx="169.04522613065328" cy="325.0615432161259" r="4" fill="#3b82f6" stroke="#0d1117" stroke-width="2" class="data-point"/>
  
    <circle cx="172.56281407035175" cy="324.73808166331867" r="4" fill="#3b82f6" stroke="#0d1117" stroke-width="2" class="data-point"/>
  
    <circle cx="176.08040201005025" cy="324.513329035077" r="4" fill="#3b82f6" stroke="#0d1117" stroke-width="2" class="data-point"/>
  
    <circle cx="179.59798994974875" cy="324.31894838362473" r="4" fill="#3b82f6" stroke="#0d1117" stroke-width="2" class="data-point"/>
  
    <circle cx="183.11557788944725" cy="324.0228216099279" r="4" fill="#3b82f6" stroke="#0d1117" stroke-width="2" class="data-point"/>
  
    <circle cx="186.63316582914575" cy="323.6629136849733" r="4" fill="#3b82f6" stroke="#0d1117" stroke-width="2" class="data-point"/>
  
    <circle cx="190.15075376884423" cy="323.3318591379687" r="4" fill="#3b82f6" stroke="#0d1117" stroke-width="2" class="data-point"/>
  
    <circle cx="193.6683417085427" cy="322.91272585827477" r="4" fill="#3b82f6" stroke="#0d1117" stroke-width="2" class="data-point"/>
  
    <circle cx="197.1859296482412" cy="322.45562760759407" r="4" fill="#3b82f6" stroke="#0d1117" stroke-width="2" class="data-point"/>
  
    <circle cx="200.7035175879397" cy="322.03649432790013" r="4" fill="#3b82f6" stroke="#0d1117" stroke-width="2" class="data-point"/>
  
    <circle cx="204.2211055276382" cy="321.53080091435635" r="4" fill="#3b82f6" stroke="#0d1117" stroke-width="2" class="data-point"/>
  
    <circle cx="207.73869346733667" cy="321.0342190938494" r="4" fill="#3b82f6" stroke="#0d1117" stroke-width="2" class="data-point"/>
  
    <circle cx="211.25628140703517" cy="320.53763727334245" r="4" fill="#3b82f6" stroke="#0d1117" stroke-width="2" class="data-point"/>
  
    <circle cx="214.77386934673368" cy="319.9939788888119" r="4" fill="#3b82f6" stroke="#0d1117" stroke-width="2" class="data-point"/>
  
    <circle cx="218.29145728643218" cy="319.4746180857129" r="4" fill="#3b82f6" stroke="#0d1117" stroke-width="2" class="data-point"/>
  
    <circle cx="221.80904522613065" cy="318.88084593947985" r="4" fill="#3b82f6" stroke="#0d1117" stroke-width="2" class="data-point"/>
  
    <circle cx="225.32663316582915" cy="318.35085494450453" r="4" fill="#3b82f6" stroke="#0d1117" stroke-width="2" class="data-point"/>
  
    <circle cx="228.84422110552762" cy="317.90286828686067" r="4" fill="#3b82f6" stroke="#0d1117" stroke-width="2" class="data-point"/>
  
    <circle cx="232.36180904522615" cy="317.54447896074555" r="4" fill="#3b82f6" stroke="#0d1117" stroke-width="2" class="data-point"/>
  
    <circle cx="235.8793969849246" cy="317.0433413437202" r="4" fill="#3b82f6" stroke="#0d1117" stroke-width="2" class="data-point"/>
  
    <circle cx="239.39698492462313" cy="316.4708295812397" r="4" fill="#3b82f6" stroke="#0d1117" stroke-width="2" class="data-point"/>
  
    <circle cx="242.91457286432163" cy="315.9469129816223" r="4" fill="#3b82f6" stroke="#0d1117" stroke-width="2" class="data-point"/>
  
    <circle cx="246.4321608040201" cy="315.33491764931557" r="4" fill="#3b82f6" stroke="#0d1117" stroke-width="2" class="data-point"/>
  
    <circle cx="249.9497487437186" cy="314.5801740260986" r="4" fill="#3b82f6" stroke="#0d1117" stroke-width="2" class="data-point"/>
  
    <circle cx="253.46733668341707" cy="314.0182924554944" r="4" fill="#3b82f6" stroke="#0d1117" stroke-width="2" class="data-point"/>
  
    <circle cx="256.9849246231156" cy="313.5520826117769" r="4" fill="#3b82f6" stroke="#0d1117" stroke-width="2" class="data-point"/>
  
    <circle cx="260.5025125628141" cy="313.1086517506514" r="4" fill="#3b82f6" stroke="#0d1117" stroke-width="2" class="data-point"/>
  
    <circle cx="264.02010050251255" cy="312.5756235579972" r="4" fill="#3b82f6" stroke="#0d1117" stroke-width="2" class="data-point"/>
  
    <circle cx="267.53768844221105" cy="311.9560352314931" r="4" fill="#3b82f6" stroke="#0d1117" stroke-width="2" class="data-point"/>
  
    <circle cx="271.0552763819095" cy="311.2696285560523" r="4" fill="#3b82f6" stroke="#0d1117" stroke-width="2" class="data-point"/>
  
    <circle cx="274.572864321608" cy="310.54829410730366" r="4" fill="#3b82f6" stroke="#0d1117" stroke-width="2" class="data-point"/>
  
    <circle cx="278.09045226130655" cy="309.85581303650497" r="4" fill="#3b82f6" stroke="#0d1117" stroke-width="2" class="data-point"/>
  
    <circle cx="281.608040201005" cy="309.2468549018772" r="4" fill="#3b82f6" stroke="#0d1117" stroke-width="2" class="data-point"/>
  
    <circle cx="285.1256281407035" cy="308.64245256376785" r="4" fill="#3b82f6" stroke="#0d1117" stroke-width="2" class="data-point"/>
  
    <circle cx="288.643216080402" cy="308.10942437111356" r="4" fill="#3b82f6" stroke="#0d1117" stroke-width="2" class="data-point"/>
  
    <circle cx="292.1608040201005" cy="307.5657659865831" r="4" fill="#3b82f6" stroke="#0d1117" stroke-width="2" class="data-point"/>
  
    <circle cx="295.678391959799" cy="306.95832645079474" r="4" fill="#3b82f6" stroke="#0d1117" stroke-width="2" class="data-point"/>
  
    <circle cx="299.1959798994975" cy="306.20206422873827" r="4" fill="#3b82f6" stroke="#0d1117" stroke-width="2" class="data-point"/>
  
    <circle cx="302.713567839196" cy="305.6386640592946" r="4" fill="#3b82f6" stroke="#0d1117" stroke-width="2" class="data-point"/>
  
    <circle cx="306.2311557788945" cy="305.1344892445903" r="4" fill="#3b82f6" stroke="#0d1117" stroke-width="2" class="data-point"/>
  
    <circle cx="309.74874371859295" cy="304.5741262728256" r="4" fill="#3b82f6" stroke="#0d1117" stroke-width="2" class="data-point"/>
  
    <circle cx="313.2663316582915" cy="304.0517282720477" r="4" fill="#3b82f6" stroke="#0d1117" stroke-width="2" class="data-point"/>
  
    <circle cx="316.78391959798995" cy="303.4776979107277" r="4" fill="#3b82f6" stroke="#0d1117" stroke-width="2" class="data-point"/>
  
    <circle cx="320.30150753768845" cy="302.87936996797623" r="4" fill="#3b82f6" stroke="#0d1117" stroke-width="2" class="data-point"/>
  
    <circle cx="323.81909547738695" cy="302.25370724611423" r="4" fill="#3b82f6" stroke="#0d1117" stroke-width="2" class="data-point"/>
  
    <circle cx="327.3366834170854" cy="301.7054930650653" r="4" fill="#3b82f6" stroke="#0d1117" stroke-width="2" class="data-point"/>
  
    <circle cx="330.85427135678395" cy="301.23624602366885" r="4" fill="#3b82f6" stroke="#0d1117" stroke-width="2" class="data-point"/>
  
    <circle cx="334.3718592964824" cy="300.72144101708824" r="4" fill="#3b82f6" stroke="#0d1117" stroke-width="2" class="data-point"/>
  
    <circle cx="337.8894472361809" cy="300.16411524300247" r="4" fill="#3b82f6" stroke="#0d1117" stroke-width="2" class="data-point"/>
  
    <circle cx="341.4070351758794" cy="299.6477916375824" r="4" fill="#3b82f6" stroke="#0d1117" stroke-width="2" class="data-point"/>
  
    <circle cx="344.9246231155779" cy="298.97505235169683" r="4" fill="#3b82f6" stroke="#0d1117" stroke-width="2" class="data-point"/>
  
    <circle cx="348.4422110552764" cy="298.3964661938585" r="4" fill="#3b82f6" stroke="#0d1117" stroke-width="2" class="data-point"/>
  
    <circle cx="351.95979899497485" cy="297.83914041977266" r="4" fill="#3b82f6" stroke="#0d1117" stroke-width="2" class="data-point"/>
  
    <circle cx="355.47738693467335" cy="297.3759677737341" r="4" fill="#3b82f6" stroke="#0d1117" stroke-width="2" class="data-point"/>
  
    <circle cx="358.99497487437185" cy="296.92646251725074" r="4" fill="#3b82f6" stroke="#0d1117" stroke-width="2" class="data-point"/>
  
    <circle cx="362.51256281407035" cy="296.4754386619279" r="4" fill="#3b82f6" stroke="#0d1117" stroke-width="2" class="data-point"/>
  
    <circle cx="366.03015075376885" cy="295.9363360739158" r="4" fill="#3b82f6" stroke="#0d1117" stroke-width="2" class="data-point"/>
  
    <circle cx="369.54773869346735" cy="295.38204749750895" r="4" fill="#3b82f6" stroke="#0d1117" stroke-width="2" class="data-point"/>
  
    <circle cx="373.06532663316585" cy="294.7093082116234" r="4" fill="#3b82f6" stroke="#0d1117" stroke-width="2" class="data-point"/>
  
    <circle cx="376.58291457286435" cy="294.1641312282534" r="4" fill="#3b82f6" stroke="#0d1117" stroke-width="2" class="data-point"/>
  
    <circle cx="380.1005025125628" cy="293.7191817682885" r="4" fill="#3b82f6" stroke="#0d1117" stroke-width="2" class="data-point"/>
  
    <circle cx="383.6180904522613" cy="293.2620835176078" r="4" fill="#3b82f6" stroke="#0d1117" stroke-width="2" class="data-point"/>
  
    <circle cx="387.1356783919598" cy="292.82472705184017" r="4" fill="#3b82f6" stroke="#0d1117" stroke-width="2" class="data-point"/>
  
    <circle cx="390.6532663316583" cy="292.2841058649886" r="4" fill="#3b82f6" stroke="#0d1117" stroke-width="2" class="data-point"/>
  
    <circle cx="394.1708542713568" cy="291.7298172885817" r="4" fill="#3b82f6" stroke="#0d1117" stroke-width="2" class="data-point"/>
  
    <circle cx="397.68844221105525" cy="290.5043080251288" r="4" fill="#3b82f6" stroke="#0d1117" stroke-width="2" class="data-point"/>
  
    <circle cx="401.20603015075375" cy="288.06543828893876" r="4" fill="#3b82f6" stroke="#0d1117" stroke-width="2" class="data-point"/>
  
    <circle cx="404.7236180904523" cy="285.16035870903113" r="4" fill="#3b82f6" stroke="#0d1117" stroke-width="2" class="data-point"/>
  
    <circle cx="408.24120603015075" cy="282.51344093183354" r="4" fill="#3b82f6" stroke="#0d1117" stroke-width="2" class="data-point"/>
  
    <circle cx="411.7587939698492" cy="281.17099955774137" r="4" fill="#3b82f6" stroke="#0d1117" stroke-width="2" class="data-point"/>
  
    <circle cx="415.2763819095477" cy="279.1482259035663" r="4" fill="#3b82f6" stroke="#0d1117" stroke-width="2" class="data-point"/>
  
    <circle cx="418.79396984924625" cy="277.80426593063464" r="4" fill="#3b82f6" stroke="#0d1117" stroke-width="2" class="data-point"/>
  
    <circle cx="422.31155778894475" cy="276.6258332312053" r="4" fill="#3b82f6" stroke="#0d1117" stroke-width="2" class="data-point"/>
  
    <circle cx="425.82914572864325" cy="275.473216712047" r="4" fill="#3b82f6" stroke="#0d1117" stroke-width="2" class="data-point"/>
  
    <circle cx="429.3467336683417" cy="274.3874185418254" r="4" fill="#3b82f6" stroke="#0d1117" stroke-width="2" class="data-point"/>
  
    <circle cx="432.8643216080402" cy="272.69873663233386" r="4" fill="#3b82f6" stroke="#0d1117" stroke-width="2" class="data-point"/>
  
    <circle cx="436.3819095477387" cy="271.35629525824174" r="4" fill="#3b82f6" stroke="#0d1117" stroke-width="2" class="data-point"/>
  
    <circle cx="439.8994974874372" cy="269.64027856963975" r="4" fill="#3b82f6" stroke="#0d1117" stroke-width="2" class="data-point"/>
  
    <circle cx="443.4170854271357" cy="269.289482237722" r="4" fill="#3b82f6" stroke="#0d1117" stroke-width="2" class="data-point"/>
  
    <circle cx="446.93467336683415" cy="269.24392427253787" r="4" fill="#3b82f6" stroke="#0d1117" stroke-width="2" class="data-point"/>
  
    <circle cx="450.45226130653265" cy="269.1846989177985" r="4" fill="#3b82f6" stroke="#0d1117" stroke-width="2" class="data-point"/>
  
    <circle cx="453.96984924623115" cy="269.13458515609597" r="4" fill="#3b82f6" stroke="#0d1117" stroke-width="2" class="data-point"/>
  
    <circle cx="457.48743718592965" cy="269.0692854059987" r="4" fill="#3b82f6" stroke="#0d1117" stroke-width="2" class="data-point"/>
  
    <circle cx="461.00502512562815" cy="269.01157865009884" r="4" fill="#3b82f6" stroke="#0d1117" stroke-width="2" class="data-point"/>
  
    <circle cx="464.5226130653266" cy="268.9887996675068" r="4" fill="#3b82f6" stroke="#0d1117" stroke-width="2" class="data-point"/>
  
    <circle cx="468.0402010050251" cy="268.9052767313359" r="4" fill="#3b82f6" stroke="#0d1117" stroke-width="2" class="data-point"/>
  
    <circle cx="471.5577889447236" cy="268.82479099284393" r="4" fill="#3b82f6" stroke="#0d1117" stroke-width="2" class="data-point"/>
  
    <circle cx="475.0753768844221" cy="268.77164003346246" r="4" fill="#3b82f6" stroke="#0d1117" stroke-width="2" class="data-point"/>
  
    <circle cx="478.5929648241206" cy="268.7518982485493" r="4" fill="#3b82f6" stroke="#0d1117" stroke-width="2" class="data-point"/>
  
    <circle cx="482.11055276381904" cy="268.66230091702056" r="4" fill="#3b82f6" stroke="#0d1117" stroke-width="2" class="data-point"/>
  
    <circle cx="485.62814070351754" cy="266.46033259978793" r="4" fill="#3b82f6" stroke="#0d1117" stroke-width="2" class="data-point"/>
  
    <circle cx="489.14572864321605" cy="263.01159463534975" r="4" fill="#3b82f6" stroke="#0d1117" stroke-width="2" class="data-point"/>
  
    <circle cx="492.6633165829146" cy="260.7018058005147" r="4" fill="#3b82f6" stroke="#0d1117" stroke-width="2" class="data-point"/>
  
    <circle cx="496.1809045226131" cy="258.0199602500093" r="4" fill="#3b82f6" stroke="#0d1117" stroke-width="2" class="data-point"/>
  
    <circle cx="499.6984924623116" cy="255.2561103621725" r="4" fill="#3b82f6" stroke="#0d1117" stroke-width="2" class="data-point"/>
  
    <circle cx="503.21608040201005" cy="253.08755121940823" r="4" fill="#3b82f6" stroke="#0d1117" stroke-width="2" class="data-point"/>
  
    <circle cx="506.73366834170855" cy="250.6623488727734" r="4" fill="#3b82f6" stroke="#0d1117" stroke-width="2" class="data-point"/>
  
    <circle cx="510.25125628140705" cy="246.96759789634098" r="4" fill="#3b82f6" stroke="#0d1117" stroke-width="2" class="data-point"/>
  
    <circle cx="513.7688442211056" cy="241.98811230171628" r="4" fill="#3b82f6" stroke="#0d1117" stroke-width="2" class="data-point"/>
  
    <circle cx="517.286432160804" cy="238.7383107852488" r="4" fill="#3b82f6" stroke="#0d1117" stroke-width="2" class="data-point"/>
  
    <circle cx="520.8040201005025" cy="234.87043954111672" r="4" fill="#3b82f6" stroke="#0d1117" stroke-width="2" class="data-point"/>
  
    <circle cx="524.321608040201" cy="230.56065603469864" r="4" fill="#3b82f6" stroke="#0d1117" stroke-width="2" class="data-point"/>
  
    <circle cx="527.8391959798995" cy="227.10432507606316" r="4" fill="#3b82f6" stroke="#0d1117" stroke-width="2" class="data-point"/>
  
    <circle cx="531.356783919598" cy="223.3533859425703" r="4" fill="#3b82f6" stroke="#0d1117" stroke-width="2" class="data-point"/>
  
    <circle cx="534.8743718592965" cy="220.02613588528982" r="4" fill="#3b82f6" stroke="#0d1117" stroke-width="2" class="data-point"/>
  
    <circle cx="538.391959798995" cy="216.72925780479875" r="4" fill="#3b82f6" stroke="#0d1117" stroke-width="2" class="data-point"/>
  
    <circle cx="541.9095477386934" cy="213.44149131734451" r="4" fill="#3b82f6" stroke="#0d1117" stroke-width="2" class="data-point"/>
  
    <circle cx="545.427135678392" cy="208.96466193858467" r="4" fill="#3b82f6" stroke="#0d1117" stroke-width="2" class="data-point"/>
  
    <circle cx="548.9447236180904" cy="204.47416517026954" r="4" fill="#3b82f6" stroke="#0d1117" stroke-width="2" class="data-point"/>
  
    <circle cx="552.462311557789" cy="200.7308190309741" r="4" fill="#3b82f6" stroke="#0d1117" stroke-width="2" class="data-point"/>
  
    <circle cx="555.9798994974874" cy="197.59339382862746" r="4" fill="#3b82f6" stroke="#0d1117" stroke-width="2" class="data-point"/>
  
    <circle cx="559.4974874371859" cy="194.550121754328" r="4" fill="#3b82f6" stroke="#0d1117" stroke-width="2" class="data-point"/>
  
    <circle cx="563.0150753768844" cy="190.51064884133572" r="4" fill="#3b82f6" stroke="#0d1117" stroke-width="2" class="data-point"/>
  
    <circle cx="566.532663316583" cy="187.3777794355075" r="4" fill="#3b82f6" stroke="#0d1117" stroke-width="2" class="data-point"/>
  
    <circle cx="570.0502512562814" cy="184.27831920414764" r="4" fill="#3b82f6" stroke="#0d1117" stroke-width="2" class="data-point"/>
  
    <circle cx="573.5678391959799" cy="181.3793140195979" r="4" fill="#3b82f6" stroke="#0d1117" stroke-width="2" class="data-point"/>
  
    <circle cx="577.0854271356784" cy="178.64887330622946" r="4" fill="#3b82f6" stroke="#0d1117" stroke-width="2" class="data-point"/>
  
    <circle cx="580.6030150753769" cy="175.85161424392427" r="4" fill="#3b82f6" stroke="#0d1117" stroke-width="2" class="data-point"/>
  
    <circle cx="584.1206030150754" cy="173.4598210717578" r="4" fill="#3b82f6" stroke="#0d1117" stroke-width="2" class="data-point"/>
  
    <circle cx="587.6381909547739" cy="170.98298636458097" r="4" fill="#3b82f6" stroke="#0d1117" stroke-width="2" class="data-point"/>
  
    <circle cx="591.1557788944723" cy="168.4545192968621" r="4" fill="#3b82f6" stroke="#0d1117" stroke-width="2" class="data-point"/>
  
    <circle cx="594.6733668341708" cy="165.7817853393935" r="4" fill="#3b82f6" stroke="#0d1117" stroke-width="2" class="data-point"/>
  
    <circle cx="598.1909547738693" cy="163.3292482136482" r="4" fill="#3b82f6" stroke="#0d1117" stroke-width="2" class="data-point"/>
  
    <circle cx="601.7085427135679" cy="161.08324053007092" r="4" fill="#3b82f6" stroke="#0d1117" stroke-width="2" class="data-point"/>
  
    <circle cx="605.2261306532664" cy="157.01339564028925" r="4" fill="#3b82f6" stroke="#0d1117" stroke-width="2" class="data-point"/>
  
    <circle cx="608.7437185929648" cy="153.60717844335628" r="4" fill="#3b82f6" stroke="#0d1117" stroke-width="2" class="data-point"/>
  
    <circle cx="612.2613065326633" cy="150.3361165431362" r="4" fill="#3b82f6" stroke="#0d1117" stroke-width="2" class="data-point"/>
  
    <circle cx="615.7788944723618" cy="147.19413554427115" r="4" fill="#3b82f6" stroke="#0d1117" stroke-width="2" class="data-point"/>
  
    <circle cx="619.2964824120603" cy="142.2328731357201" r="4" fill="#3b82f6" stroke="#0d1117" stroke-width="2" class="data-point"/>
  
    <circle cx="622.8140703517588" cy="139.093929334534" r="4" fill="#3b82f6" stroke="#0d1117" stroke-width="2" class="data-point"/>
  
    <circle cx="626.3316582914573" cy="136.37715601072077" r="4" fill="#3b82f6" stroke="#0d1117" stroke-width="2" class="data-point"/>
  
    <circle cx="629.8492462311558" cy="133.16835666291902" r="4" fill="#3b82f6" stroke="#0d1117" stroke-width="2" class="data-point"/>
  
    <circle cx="633.3668341708543" cy="128.43792127796752" r="4" fill="#3b82f6" stroke="#0d1117" stroke-width="2" class="data-point"/>
  
    <circle cx="636.8844221105528" cy="125.03474127871351" r="4" fill="#3b82f6" stroke="#0d1117" stroke-width="2" class="data-point"/>
  
    <circle cx="640.4020100502513" cy="122.16155227443477" r="4" fill="#3b82f6" stroke="#0d1117" stroke-width="2" class="data-point"/>
  
    <circle cx="643.9195979899497" cy="119.73027553244208" r="4" fill="#3b82f6" stroke="#0d1117" stroke-width="2" class="data-point"/>
  
    <circle cx="647.4371859296482" cy="117.42352389528594" r="4" fill="#3b82f6" stroke="#0d1117" stroke-width="2" class="data-point"/>
  
    <circle cx="650.9547738693467" cy="115.54805432853954" r="4" fill="#3b82f6" stroke="#0d1117" stroke-width="2" class="data-point"/>
  
    <circle cx="654.4723618090452" cy="113.43568334283569" r="4" fill="#3b82f6" stroke="#0d1117" stroke-width="2" class="data-point"/>
  
    <circle cx="657.9899497487437" cy="111.71359225887579" r="4" fill="#3b82f6" stroke="#0d1117" stroke-width="2" class="data-point"/>
  
    <circle cx="661.5075376884422" cy="109.68170701166392" r="4" fill="#3b82f6" stroke="#0d1117" stroke-width="2" class="data-point"/>
  
    <circle cx="665.0251256281407" cy="106.75688564684319" r="4" fill="#3b82f6" stroke="#0d1117" stroke-width="2" class="data-point"/>
  
    <circle cx="668.5427135678392" cy="104.24360456751904" r="4" fill="#3b82f6" stroke="#0d1117" stroke-width="2" class="data-point"/>
  
    <circle cx="672.0603015075377" cy="102.05834083752057" r="4" fill="#3b82f6" stroke="#0d1117" stroke-width="2" class="data-point"/>
  
    <circle cx="675.5778894472362" cy="100.16920388121895" r="4" fill="#3b82f6" stroke="#0d1117" stroke-width="2" class="data-point"/>
  
    <circle cx="679.0954773869347" cy="98.2208415701779" r="4" fill="#3b82f6" stroke="#0d1117" stroke-width="2" class="data-point"/>
  
    <circle cx="682.6130653266331" cy="96.57771762587052" r="4" fill="#3b82f6" stroke="#0d1117" stroke-width="2" class="data-point"/>
  
    <circle cx="686.1306532663317" cy="93.81538633687316" r="4" fill="#3b82f6" stroke="#0d1117" stroke-width="2" class="data-point"/>
  
    <circle cx="689.6482412060302" cy="91.45396514149613" r="4" fill="#3b82f6" stroke="#0d1117" stroke-width="2" class="data-point"/>
  
    <circle cx="693.1658291457287" cy="89.11228573103219" r="4" fill="#3b82f6" stroke="#0d1117" stroke-width="2" class="data-point"/>
  
    <circle cx="696.6834170854272" cy="87.17910940838584" r="4" fill="#3b82f6" stroke="#0d1117" stroke-width="2" class="data-point"/>
  
    <circle cx="700.2010050251256" cy="85.40538596388402" r="4" fill="#3b82f6" stroke="#0d1117" stroke-width="2" class="data-point"/>
  
    <circle cx="703.7185929648241" cy="83.83059896735278" r="4" fill="#3b82f6" stroke="#0d1117" stroke-width="2" class="data-point"/>
  
    <circle cx="707.2361809045226" cy="81.13053023077373" r="4" fill="#3b82f6" stroke="#0d1117" stroke-width="2" class="data-point"/>
  
    <circle cx="710.7537688442211" cy="78.93767350657794" r="4" fill="#3b82f6" stroke="#0d1117" stroke-width="2" class="data-point"/>
  
    <circle cx="714.2713567839196" cy="76.93919743383441" r="4" fill="#3b82f6" stroke="#0d1117" stroke-width="2" class="data-point"/>
  
    <circle cx="717.7889447236181" cy="75.03031869261963" r="4" fill="#3b82f6" stroke="#0d1117" stroke-width="2" class="data-point"/>
  
    <circle cx="721.3065326633166" cy="73.36441576572014" r="4" fill="#3b82f6" stroke="#0d1117" stroke-width="2" class="data-point"/>
  
    <circle cx="724.8241206030151" cy="71.74710800168378" r="4" fill="#3b82f6" stroke="#0d1117" stroke-width="2" class="data-point"/>
  
    <circle cx="728.3417085427136" cy="70.2649555343603" r="4" fill="#3b82f6" stroke="#0d1117" stroke-width="2" class="data-point"/>
  
    <circle cx="731.8592964824121" cy="68.84354702061563" r="4" fill="#3b82f6" stroke="#0d1117" stroke-width="2" class="data-point"/>
  
    <circle cx="735.3768844221105" cy="67.5405892163497" r="4" fill="#3b82f6" stroke="#0d1117" stroke-width="2" class="data-point"/>
  
    <circle cx="738.894472361809" cy="65.91416985927651" r="4" fill="#3b82f6" stroke="#0d1117" stroke-width="2" class="data-point"/>
  
    <circle cx="742.4120603015075" cy="64.1677811938851" r="4" fill="#3b82f6" stroke="#0d1117" stroke-width="2" class="data-point"/>
  
    <circle cx="745.929648241206" cy="62.56110362172501" r="4" fill="#3b82f6" stroke="#0d1117" stroke-width="2" class="data-point"/>
  
    <circle cx="749.4472361809046" cy="60.06452712963505" r="4" fill="#3b82f6" stroke="#0d1117" stroke-width="2" class="data-point"/>
  
    <circle cx="752.964824120603" cy="58.252838714146435" r="4" fill="#3b82f6" stroke="#0d1117" stroke-width="2" class="data-point"/>
  
    <circle cx="756.4824120603015" cy="56.52011743831025" r="4" fill="#3b82f6" stroke="#0d1117" stroke-width="2" class="data-point"/>
  
    <circle cx="760" cy="55" r="4" fill="#3b82f6" stroke="#0d1117" stroke-width="2" class="data-point"/>
  

  <!-- Axis lines -->
  <line x1="60" y1="55" x2="60" y2="340"
        stroke="#30363d" stroke-width="2"/>
  <line x1="60" y1="340" x2="760" y2="340"
        stroke="#30363d" stroke-width="2"/>
</svg>