<?xml version="1.0" encoding="UTF-8"?>
<svg width="800" height="400" xmlns="http://www.w3.org/2000/svg">
  <defs>
    <!-- Gradient for area fill -->
    <linearGradient id="areaGradient" x1="0%" y1="0%" x2="0%" y2="100%">
      <stop offset="0%" style="stop-color:#3b82f6;stop-opacity:0.3" />
      <stop offset="100%" style="stop-color:#3b82f6;stop-opacity:0.05" />
    </linearGradient>

    <!-- Glow filter for line -->
    <filter id="glow">
      <feGaussianBlur stdDeviation="2" result="coloredBlur"/>
      <feMerge>
        <feMergeNode in="coloredBlur"/>
        <feMergeNode in="SourceGraphic"/>
      </feMerge>
    </filter>

    <!-- Animation -->
    <style>
      @keyframes draw {
        from { stroke-dashoffset: 2000; }
        to { stroke-dashoffset: 0; }
      }
      @keyframes fadeIn {
        from { opacity: 0; }
        to { opacity: 1; }
      }
      .line-path {
        stroke-dasharray: 2000;
        stroke-dashoffset: 2000;
        animation: draw 1.5s ease-out forwards;
      }
      .area-path {
        opacity: 0;
        animation: fadeIn 1s ease-out 0.5s forwards;
      }
      .data-point {
        opacity: 0;
        animation: fadeIn 0.5s ease-out 1s forwards;
      }
    </style>
  </defs>

  <!-- Background -->
  <rect width="800" height="400" fill="#0d1117" rx="8"/>

  <!-- Title -->
  <text x="400" y="25" text-anchor="middle" fill="#c9d1d9" font-family="system-ui, -apple-system, sans-serif" font-size="16" font-weight="600">
    zxcloli666/SoundCloud-Desktop Downloads
  </text>

  <!-- Stats -->
  <text x="780" y="25" text-anchor="end" fill="#58a6ff" font-family="system-ui, -apple-system, sans-serif" font-size="14" font-weight="600">
    171.4K total
  </text>
  <text x="780" y="42" text-anchor="end" fill="#3fb950" font-family="system-ui, -apple-system, sans-serif" font-size="12">
    +1.6K (+1.0%)
  </text>

  <!-- Grid lines -->
  <g opacity="0.1">
    
      <line x1="60" y1="340" x2="760" y2="340"
            stroke="#c9d1d9" stroke-width="1"/>
    
      <line x1="60" y1="268.75" x2="760" y2="268.75"
            stroke="#c9d1d9" stroke-width="1"/>
    
      <line x1="60" y1="197.5" x2="760" y2="197.5"
            stroke="#c9d1d9" stroke-width="1"/>
    
      <line x1="60" y1="126.25" x2="760" y2="126.25"
            stroke="#c9d1d9" stroke-width="1"/>
    
      <line x1="60" y1="55" x2="760" y2="55"
            stroke="#c9d1d9" stroke-width="1"/>
    
  </g>

  <!-- Y-axis labels -->
  
    <text x="50" y="344" text-anchor="end"
          fill="#8b949e" font-family="system-ui, -apple-system, sans-serif" font-size="11">
      60.2K
    </text>
  
    <text x="50" y="272.75" text-anchor="end"
          fill="#8b949e" font-family="system-ui, -apple-system, sans-serif" font-size="11">
      88.0K
    </text>
  
    <text x="50" y="201.5" text-anchor="end"
          fill="#8b949e" font-family="system-ui, -apple-system, sans-serif" font-size="11">
      115.8K
    </text>
  
    <text x="50" y="130.25" text-anchor="end"
          fill="#8b949e" font-family="system-ui, -apple-system, sans-serif" font-size="11">
      143.6K
    </text>
  
    <text x="50" y="59" text-anchor="end"
          fill="#8b949e" font-family="system-ui, -apple-system, sans-serif" font-size="11">
      171.4K
    </text>
  

  <!-- X-axis labels -->
  
    <text x="60" y="360" text-anchor="middle"
          fill="#8b949e" font-family="system-ui, -apple-system, sans-serif" font-size="11">
      Nov 25
    </text>
  
    <text x="144" y="360" text-anchor="middle"
          fill="#8b949e" font-family="system-ui, -apple-system, sans-serif" font-size="11">
      Dec 13
    </text>
  
    <text x="228" y="360" text-anchor="middle"
          fill="#8b949e" font-family="system-ui, -apple-system, sans-serif" font-size="11">
      Dec 31
    </text>
  
    <text x="312" y="360" text-anchor="middle"
          fill="#8b949e" font-family="system-ui, -apple-system, sans-serif" font-size="11">
      Jan 18
    </text>
  
    <text x="396" y="360" text-anchor="middle"
          fill="#8b949e" font-family="system-ui, -apple-system, sans-serif" font-size="11">
      Feb 5
    </text>
  
    <text x="480" y="360" text-anchor="middle"
          fill="#8b949e" font-family="system-ui, -apple-system, sans-serif" font-size="11">
      Feb 23
    </text>
  
    <text x="564" y="360" text-anchor="middle"
          fill="#8b949e" font-family="system-ui, -apple-system, sans-serif" font-size="11">
      Mar 13
    </text>
  
    <text x="648" y="360" text-anchor="middle"
          fill="#8b949e" font-family="system-ui, -apple-system, sans-serif" font-size="11">
      Mar 31
    </text>
  
    <text x="732" y="360" text-anchor="middle"
          fill="#8b949e" font-family="system-ui, -apple-system, sans-serif" font-size="11">
      Apr 18
    </text>
  
    <text x="760" y="360" text-anchor="middle"
          fill="#8b949e" font-family="system-ui, -apple-system, sans-serif" font-size="11">
      Apr 24
    </text>
  

  <!-- Area under line -->
  <path d="M 60 340
    L 60.00 340.00 L 64.67 339.62 L 69.33 338.98 L 74.00 338.39 L 78.67 337.21 L 83.33 335.99 L 88.00 335.03 L 92.67 334.13 L 97.33 333.34 L 102.00 332.40 L 106.67 331.36 L 111.33 330.24 L 116.00 329.23 L 120.67 328.15 L 125.33 327.37 L 130.00 326.55 L 134.67 325.45 L 139.33 324.70 L 144.00 323.68 L 148.67 322.50 L 153.33 321.61 L 158.00 320.87 L 162.67 320.40 L 167.33 320.01 L 172.00 319.28 L 176.67 318.76 L 181.33 317.62 L 186.00 317.17 L 190.67 316.59 L 195.33 315.84 L 200.00 315.33 L 204.67 314.81 L 209.33 314.27 L 214.00 313.89 L 218.67 313.56 L 223.33 313.06 L 228.00 312.45 L 232.67 311.89 L 237.33 311.19 L 242.00 310.42 L 246.67 309.71 L 251.33 308.86 L 256.00 308.02 L 260.67 307.18 L 265.33 306.27 L 270.00 305.39 L 274.67 304.39 L 279.33 303.49 L 284.00 302.74 L 288.67 302.14 L 293.33 301.29 L 298.00 300.32 L 302.67 299.44 L 307.33 298.41 L 312.00 297.14 L 316.67 296.19 L 321.33 295.40 L 326.00 294.66 L 330.67 293.76 L 335.33 292.71 L 340.00 291.55 L 344.67 290.34 L 349.33 289.17 L 354.00 288.14 L 358.67 287.12 L 363.33 286.23 L 368.00 285.31 L 372.67 284.28 L 377.33 283.01 L 382.00 282.06 L 386.67 281.21 L 391.33 280.26 L 396.00 279.38 L 400.67 278.42 L 405.33 277.41 L 410.00 276.35 L 414.67 275.43 L 419.33 274.64 L 424.00 273.77 L 428.67 272.83 L 433.33 271.96 L 438.00 270.82 L 442.67 269.85 L 447.33 268.91 L 452.00 268.13 L 456.67 267.37 L 461.33 266.61 L 466.00 265.70 L 470.67 264.76 L 475.33 263.63 L 480.00 262.71 L 484.67 261.96 L 489.33 261.19 L 494.00 260.45 L 498.67 259.54 L 503.33 258.61 L 508.00 256.54 L 512.67 252.43 L 517.33 247.53 L 522.00 243.06 L 526.67 240.80 L 531.33 237.39 L 536.00 235.12 L 540.67 233.14 L 545.33 231.19 L 550.00 229.36 L 554.67 226.52 L 559.33 224.25 L 564.00 221.36 L 568.67 220.77 L 573.33 220.69 L 578.00 220.59 L 582.67 220.51 L 587.33 220.40 L 592.00 220.30 L 596.67 220.26 L 601.33 220.12 L 606.00 219.98 L 610.67 219.89 L 615.33 219.86 L 620.00 219.71 L 624.67 216.00 L 629.33 210.18 L 634.00 206.29 L 638.67 201.76 L 643.33 197.10 L 648.00 193.45 L 652.67 189.36 L 657.33 183.13 L 662.00 174.73 L 666.67 169.25 L 671.33 162.73 L 676.00 155.46 L 680.67 149.63 L 685.33 143.31 L 690.00 137.70 L 694.67 132.14 L 699.33 126.59 L 704.00 119.05 L 708.67 111.47 L 713.33 105.16 L 718.00 99.87 L 722.67 94.74 L 727.33 87.93 L 732.00 82.65 L 736.67 77.42 L 741.33 72.53 L 746.00 67.93 L 750.67 63.21 L 755.33 59.18 L 760.00 55.00
    L 760 340
    Z" fill="url(#areaGradient)" class="area-path"/>

  <!-- Main line with glow -->
  <path d="M 60.00 340.00 L 64.67 339.62 L 69.33 338.98 L 74.00 338.39 L 78.67 337.21 L 83.33 335.99 L 88.00 335.03 L 92.67 334.13 L 97.33 333.34 L 102.00 332.40 L 106.67 331.36 L 111.33 330.24 L 116.00 329.23 L 120.67 328.15 L 125.33 327.37 L 130.00 326.55 L 134.67 325.45 L 139.33 324.70 L 144.00 323.68 L 148.67 322.50 L 153.33 321.61 L 158.00 320.87 L 162.67 320.40 L 167.33 320.01 L 172.00 319.28 L 176.67 318.76 L 181.33 317.62 L 186.00 317.17 L 190.67 316.59 L 195.33 315.84 L 200.00 315.33 L 204.67 314.81 L 209.33 314.27 L 214.00 313.89 L 218.67 313.56 L 223.33 313.06 L 228.00 312.45 L 232.67 311.89 L 237.33 311.19 L 242.00 310.42 L 246.67 309.71 L 251.33 308.86 L 256.00 308.02 L 260.67 307.18 L 265.33 306.27 L 270.00 305.39 L 274.67 304.39 L 279.33 303.49 L 284.00 302.74 L 288.67 302.14 L 293.33 301.29 L 298.00 300.32 L 302.67 299.44 L 307.33 298.41 L 312.00 297.14 L 316.67 296.19 L 321.33 295.40 L 326.00 294.66 L 330.67 293.76 L 335.33 292.71 L 340.00 291.55 L 344.67 290.34 L 349.33 289.17 L 354.00 288.14 L 358.67 287.12 L 363.33 286.23 L 368.00 285.31 L 372.67 284.28 L 377.33 283.01 L 382.00 282.06 L 386.67 281.21 L 391.33 280.26 L 396.00 279.38 L 400.67 278.42 L 405.33 277.41 L 410.00 276.35 L 414.67 275.43 L 419.33 274.64 L 424.00 273.77 L 428.67 272.83 L 433.33 271.96 L 438.00 270.82 L 442.67 269.85 L 447.33 268.91 L 452.00 268.13 L 456.67 267.37 L 461.33 266.61 L 466.00 265.70 L 470.67 264.76 L 475.33 263.63 L 480.00 262.71 L 484.67 261.96 L 489.33 261.19 L 494.00 260.45 L 498.67 259.54 L 503.33 258.61 L 508.00 256.54 L 512.67 252.43 L 517.33 247.53 L 522.00 243.06 L 526.67 240.80 L 531.33 237.39 L 536.00 235.12 L 540.67 233.14 L 545.33 231.19 L 550.00 229.36 L 554.67 226.52 L 559.33 224.25 L 564.00 221.36 L 568.67 220.77 L 573.33 220.69 L 578.00 220.59 L 582.67 220.51 L 587.33 220.40 L 592.00 220.30 L 596.67 220.26 L 601.33 220.12 L 606.00 219.98 L 610.67 219.89 L 615.33 219.86 L 620.00 219.71 L 624.67 216.00 L 629.33 210.18 L 634.00 206.29 L 638.67 201.76 L 643.33 197.10 L 648.00 193.45 L 652.67 189.36 L 657.33 183.13 L 662.00 174.73 L 666.67 169.25 L 671.33 162.73 L 676.00 155.46 L 680.67 149.63 L 685.33 143.31 L 690.00 137.70 L 694.67 132.14 L 699.33 126.59 L 704.00 119.05 L 708.67 111.47 L 713.33 105.16 L 718.00 99.87 L 722.67 94.74 L 727.33 87.93 L 732.00 82.65 L 736.67 77.42 L 741.33 72.53 L 746.00 67.93 L 750.67 63.21 L 755.33 59.18 L 760.00 55.00" fill="none" stroke="#3b82f6" stroke-width="3"
        stroke-linecap="round" stroke-linejoin="round" filter="url(#glow)" class="line-path"/>

  <!-- Data points -->
  
    <circle cx="60" cy="340" r="4" fill="#3b82f6" stroke="#0d1117" stroke-width="2" class="data-point"/>
  
    <circle cx="64.66666666666667" cy="339.6235781415659" r="4" fill="#3b82f6" stroke="#0d1117" stroke-width="2" class="data-point"/>
  
    <circle cx="69.33333333333333" cy="338.98340491293646" r="4" fill="#3b82f6" stroke="#0d1117" stroke-width="2" class="data-point"/>
  
    <circle cx="74" cy="338.38932415676834" r="4" fill="#3b82f6" stroke="#0d1117" stroke-width="2" class="data-point"/>
  
    <circle cx="78.66666666666667" cy="337.2088447231756" r="4" fill="#3b82f6" stroke="#0d1117" stroke-width="2" class="data-point"/>
  
    <circle cx="83.33333333333333" cy="335.98995489586514" r="4" fill="#3b82f6" stroke="#0d1117" stroke-width="2" class="data-point"/>
  
    <circle cx="88" cy="335.029695052921" r="4" fill="#3b82f6" stroke="#0d1117" stroke-width="2" class="data-point"/>
  
    <circle cx="92.66666666666667" cy="334.1334525328398" r="4" fill="#3b82f6" stroke="#0d1117" stroke-width="2" class="data-point"/>
  
    <circle cx="97.33333333333334" cy="333.3370770364247" r="4" fill="#3b82f6" stroke="#0d1117" stroke-width="2" class="data-point"/>
  
    <circle cx="102" cy="332.40242412262575" r="4" fill="#3b82f6" stroke="#0d1117" stroke-width="2" class="data-point"/>
  
    <circle cx="106.66666666666666" cy="331.360222106417" r="4" fill="#3b82f6" stroke="#0d1117" stroke-width="2" class="data-point"/>
  
    <circle cx="111.33333333333334" cy="330.24375999568724" r="4" fill="#3b82f6" stroke="#0d1117" stroke-width="2" class="data-point"/>
  
    <circle cx="116" cy="329.22972560153823" r="4" fill="#3b82f6" stroke="#0d1117" stroke-width="2" class="data-point"/>
  
    <circle cx="120.66666666666667" cy="328.15167388452625" r="4" fill="#3b82f6" stroke="#0d1117" stroke-width="2" class="data-point"/>
  
    <circle cx="125.33333333333334" cy="327.3655411597693" r="4" fill="#3b82f6" stroke="#0d1117" stroke-width="2" class="data-point"/>
  
    <circle cx="130" cy="326.55124081295264" r="4" fill="#3b82f6" stroke="#0d1117" stroke-width="2" class="data-point"/>
  
    <circle cx="134.66666666666669" cy="325.44502147388096" r="4" fill="#3b82f6" stroke="#0d1117" stroke-width="2" class="data-point"/>
  
    <circle cx="139.33333333333331" cy="324.7049812215853" r="4" fill="#3b82f6" stroke="#0d1117" stroke-width="2" class="data-point"/>
  
    <circle cx="144" cy="323.68070405577816" r="4" fill="#3b82f6" stroke="#0d1117" stroke-width="2" class="data-point"/>
  
    <circle cx="148.66666666666669" cy="322.49766392927097" r="4" fill="#3b82f6" stroke="#0d1117" stroke-width="2" class="data-point"/>
  
    <circle cx="153.33333333333331" cy="321.60654279501875" r="4" fill="#3b82f6" stroke="#0d1117" stroke-width="2" class="data-point"/>
  
    <circle cx="158" cy="320.87418462146667" r="4" fill="#3b82f6" stroke="#0d1117" stroke-width="2" class="data-point"/>
  
    <circle cx="162.66666666666669" cy="320.4004564322809" r="4" fill="#3b82f6" stroke="#0d1117" stroke-width="2" class="data-point"/>
  
    <circle cx="167.33333333333331" cy="320.00610972344515" r="4" fill="#3b82f6" stroke="#0d1117" stroke-width="2" class="data-point"/>
  
    <circle cx="172" cy="319.2763122428076" r="4" fill="#3b82f6" stroke="#0d1117" stroke-width="2" class="data-point"/>
  
    <circle cx="176.66666666666666" cy="318.7564915811605" r="4" fill="#3b82f6" stroke="#0d1117" stroke-width="2" class="data-point"/>
  
    <circle cx="181.33333333333334" cy="317.61698323420006" r="4" fill="#3b82f6" stroke="#0d1117" stroke-width="2" class="data-point"/>
  
    <circle cx="186" cy="317.1688619741595" r="4" fill="#3b82f6" stroke="#0d1117" stroke-width="2" class="data-point"/>
  
    <circle cx="190.66666666666669" cy="316.5901453754784" r="4" fill="#3b82f6" stroke="#0d1117" stroke-width="2" class="data-point"/>
  
    <circle cx="195.33333333333334" cy="315.8424230444393" r="4" fill="#3b82f6" stroke="#0d1117" stroke-width="2" class="data-point"/>
  
    <circle cx="200" cy="315.3302844615357" r="4" fill="#3b82f6" stroke="#0d1117" stroke-width="2" class="data-point"/>
  
    <circle cx="204.66666666666666" cy="314.81046379988857" r="4" fill="#3b82f6" stroke="#0d1117" stroke-width="2" class="data-point"/>
  
    <circle cx="209.33333333333334" cy="314.2650362090963" r="4" fill="#3b82f6" stroke="#0d1117" stroke-width="2" class="data-point"/>
  
    <circle cx="214" cy="313.88605365774765" r="4" fill="#3b82f6" stroke="#0d1117" stroke-width="2" class="data-point"/>
  
    <circle cx="218.66666666666666" cy="313.5582849646894" r="4" fill="#3b82f6" stroke="#0d1117" stroke-width="2" class="data-point"/>
  
    <circle cx="223.33333333333334" cy="313.0589498463584" r="4" fill="#3b82f6" stroke="#0d1117" stroke-width="2" class="data-point"/>
  
    <circle cx="228" cy="312.4520656256177" r="4" fill="#3b82f6" stroke="#0d1117" stroke-width="2" class="data-point"/>
  
    <circle cx="232.66666666666666" cy="311.8938345702528" r="4" fill="#3b82f6" stroke="#0d1117" stroke-width="2" class="data-point"/>
  
    <circle cx="237.33333333333334" cy="311.18708332584595" r="4" fill="#3b82f6" stroke="#0d1117" stroke-width="2" class="data-point"/>
  
    <circle cx="242" cy="310.41631475857605" r="4" fill="#3b82f6" stroke="#0d1117" stroke-width="2" class="data-point"/>
  
    <circle cx="246.66666666666666" cy="309.7095635141692" r="4" fill="#3b82f6" stroke="#0d1117" stroke-width="2" class="data-point"/>
  
    <circle cx="251.33333333333331" cy="308.8568527736347" r="4" fill="#3b82f6" stroke="#0d1117" stroke-width="2" class="data-point"/>
  
    <circle cx="256" cy="308.01950619058744" r="4" fill="#3b82f6" stroke="#0d1117" stroke-width="2" class="data-point"/>
  
    <circle cx="260.6666666666667" cy="307.18215960754014" r="4" fill="#3b82f6" stroke="#0d1117" stroke-width="2" class="data-point"/>
  
    <circle cx="265.33333333333337" cy="306.26543154414276" r="4" fill="#3b82f6" stroke="#0d1117" stroke-width="2" class="data-point"/>
  
    <circle cx="270" cy="305.38967456737765" r="4" fill="#3b82f6" stroke="#0d1117" stroke-width="2" class="data-point"/>
  
    <circle cx="274.66666666666663" cy="304.38844363780123" r="4" fill="#3b82f6" stroke="#0d1117" stroke-width="2" class="data-point"/>
  
    <circle cx="279.33333333333337" cy="303.4947618106345" r="4" fill="#3b82f6" stroke="#0d1117" stroke-width="2" class="data-point"/>
  
    <circle cx="284" cy="302.73935740085176" r="4" fill="#3b82f6" stroke="#0d1117" stroke-width="2" class="data-point"/>
  
    <circle cx="288.66666666666663" cy="302.1350338730256" r="4" fill="#3b82f6" stroke="#0d1117" stroke-width="2" class="data-point"/>
  
    <circle cx="293.3333333333333" cy="301.2900052112347" r="4" fill="#3b82f6" stroke="#0d1117" stroke-width="2" class="data-point"/>
  
    <circle cx="298" cy="300.3246239824615" r="4" fill="#3b82f6" stroke="#0d1117" stroke-width="2" class="data-point"/>
  
    <circle cx="302.6666666666667" cy="299.4411849269529" r="4" fill="#3b82f6" stroke="#0d1117" stroke-width="2" class="data-point"/>
  
    <circle cx="307.33333333333337" cy="298.4092256824022" r="4" fill="#3b82f6" stroke="#0d1117" stroke-width="2" class="data-point"/>
  
    <circle cx="312" cy="297.1365613038869" r="4" fill="#3b82f6" stroke="#0d1117" stroke-width="2" class="data-point"/>
  
    <circle cx="316.66666666666663" cy="296.18910492551527" r="4" fill="#3b82f6" stroke="#0d1117" stroke-width="2" class="data-point"/>
  
    <circle cx="321.33333333333337" cy="295.4029722007583" r="4" fill="#3b82f6" stroke="#0d1117" stroke-width="2" class="data-point"/>
  
    <circle cx="326" cy="294.6552498697191" r="4" fill="#3b82f6" stroke="#0d1117" stroke-width="2" class="data-point"/>
  
    <circle cx="330.6666666666667" cy="293.75644665672337" r="4" fill="#3b82f6" stroke="#0d1117" stroke-width="2" class="data-point"/>
  
    <circle cx="335.3333333333333" cy="292.71168394760014" r="4" fill="#3b82f6" stroke="#0d1117" stroke-width="2" class="data-point"/>
  
    <circle cx="340" cy="291.5542507502381" r="4" fill="#3b82f6" stroke="#0d1117" stroke-width="2" class="data-point"/>
  
    <circle cx="344.6666666666667" cy="290.33792161584216" r="4" fill="#3b82f6" stroke="#0d1117" stroke-width="2" class="data-point"/>
  
    <circle cx="349.3333333333333" cy="289.170245646822" r="4" fill="#3b82f6" stroke="#0d1117" stroke-width="2" class="data-point"/>
  
    <circle cx="354" cy="288.14340778810043" r="4" fill="#3b82f6" stroke="#0d1117" stroke-width="2" class="data-point"/>
  
    <circle cx="358.6666666666667" cy="287.1242520081223" r="4" fill="#3b82f6" stroke="#0d1117" stroke-width="2" class="data-point"/>
  
    <circle cx="363.33333333333337" cy="286.22544879512657" r="4" fill="#3b82f6" stroke="#0d1117" stroke-width="2" class="data-point"/>
  
    <circle cx="368" cy="285.30872073172924" r="4" fill="#3b82f6" stroke="#0d1117" stroke-width="2" class="data-point"/>
  
    <circle cx="372.6666666666667" cy="284.2844435659221" r="4" fill="#3b82f6" stroke="#0d1117" stroke-width="2" class="data-point"/>
  
    <circle cx="377.3333333333333" cy="283.00921849449225" r="4" fill="#3b82f6" stroke="#0d1117" stroke-width="2" class="data-point"/>
  
    <circle cx="382" cy="282.05920142320616" r="4" fill="#3b82f6" stroke="#0d1117" stroke-width="2" class="data-point"/>
  
    <circle cx="386.6666666666667" cy="281.2090513755863" r="4" fill="#3b82f6" stroke="#0d1117" stroke-width="2" class="data-point"/>
  
    <circle cx="391.3333333333333" cy="280.2641556901292" r="4" fill="#3b82f6" stroke="#0d1117" stroke-width="2" class="data-point"/>
  
    <circle cx="396" cy="279.3832773275351" r="4" fill="#3b82f6" stroke="#0d1117" stroke-width="2" class="data-point"/>
  
    <circle cx="400.6666666666667" cy="278.4153354058474" r="4" fill="#3b82f6" stroke="#0d1117" stroke-width="2" class="data-point"/>
  
    <circle cx="405.3333333333333" cy="277.40642239752736" r="4" fill="#3b82f6" stroke="#0d1117" stroke-width="2" class="data-point"/>
  
    <circle cx="410" cy="276.351416916746" r="4" fill="#3b82f6" stroke="#0d1117" stroke-width="2" class="data-point"/>
  
    <circle cx="414.6666666666667" cy="275.4270067746051" r="4" fill="#3b82f6" stroke="#0d1117" stroke-width="2" class="data-point"/>
  
    <circle cx="419.3333333333333" cy="274.63575266401915" r="4" fill="#3b82f6" stroke="#0d1117" stroke-width="2" class="data-point"/>
  
    <circle cx="424" cy="273.7676777659976" r="4" fill="#3b82f6" stroke="#0d1117" stroke-width="2" class="data-point"/>
  
    <circle cx="428.66666666666663" cy="272.82790346636955" r="4" fill="#3b82f6" stroke="#0d1117" stroke-width="2" class="data-point"/>
  
    <circle cx="433.3333333333333" cy="271.9572678754335" r="4" fill="#3b82f6" stroke="#0d1117" stroke-width="2" class="data-point"/>
  
    <circle cx="438" cy="270.8228809143021" r="4" fill="#3b82f6" stroke="#0d1117" stroke-width="2" class="data-point"/>
  
    <circle cx="442.66666666666663" cy="269.84725691387086" r="4" fill="#3b82f6" stroke="#0d1117" stroke-width="2" class="data-point"/>
  
    <circle cx="447.3333333333333" cy="268.90748261424284" r="4" fill="#3b82f6" stroke="#0d1117" stroke-width="2" class="data-point"/>
  
    <circle cx="452.00000000000006" cy="268.1264712753149" r="4" fill="#3b82f6" stroke="#0d1117" stroke-width="2" class="data-point"/>
  
    <circle cx="456.66666666666663" cy="267.3685061726177" r="4" fill="#3b82f6" stroke="#0d1117" stroke-width="2" class="data-point"/>
  
    <circle cx="461.33333333333337" cy="266.6079803770059" r="4" fill="#3b82f6" stroke="#0d1117" stroke-width="2" class="data-point"/>
  
    <circle cx="466" cy="265.69893439235204" r="4" fill="#3b82f6" stroke="#0d1117" stroke-width="2" class="data-point"/>
  
    <circle cx="470.6666666666667" cy="264.7642814785531" r="4" fill="#3b82f6" stroke="#0d1117" stroke-width="2" class="data-point"/>
  
    <circle cx="475.33333333333337" cy="263.6298945174217" r="4" fill="#3b82f6" stroke="#0d1117" stroke-width="2" class="data-point"/>
  
    <circle cx="480" cy="262.71060576110983" r="4" fill="#3b82f6" stroke="#0d1117" stroke-width="2" class="data-point"/>
  
    <circle cx="484.6666666666667" cy="261.9603227371561" r="4" fill="#3b82f6" stroke="#0d1117" stroke-width="2" class="data-point"/>
  
    <circle cx="489.3333333333333" cy="261.18955416988626" r="4" fill="#3b82f6" stroke="#0d1117" stroke-width="2" class="data-point"/>
  
    <circle cx="494" cy="260.4520746105051" r="4" fill="#3b82f6" stroke="#0d1117" stroke-width="2" class="data-point"/>
  
    <circle cx="498.6666666666667" cy="259.5404679329368" r="4" fill="#3b82f6" stroke="#0d1117" stroke-width="2" class="data-point"/>
  
    <circle cx="503.3333333333333" cy="258.6058150191378" r="4" fill="#3b82f6" stroke="#0d1117" stroke-width="2" class="data-point"/>
  
    <circle cx="508" cy="256.53933583712194" r="4" fill="#3b82f6" stroke="#0d1117" stroke-width="2" class="data-point"/>
  
    <circle cx="512.6666666666666" cy="252.4268630164064" r="4" fill="#3b82f6" stroke="#0d1117" stroke-width="2" class="data-point"/>
  
    <circle cx="517.3333333333333" cy="247.5282574709339" r="4" fill="#3b82f6" stroke="#0d1117" stroke-width="2" class="data-point"/>
  
    <circle cx="522" cy="243.0649697209294" r="4" fill="#3b82f6" stroke="#0d1117" stroke-width="2" class="data-point"/>
  
    <circle cx="526.6666666666666" cy="240.8013171844957" r="4" fill="#3b82f6" stroke="#0d1117" stroke-width="2" class="data-point"/>
  
    <circle cx="531.3333333333333" cy="237.390474222358" r="4" fill="#3b82f6" stroke="#0d1117" stroke-width="2" class="data-point"/>
  
    <circle cx="536" cy="235.12426099300976" r="4" fill="#3b82f6" stroke="#0d1117" stroke-width="2" class="data-point"/>
  
    <circle cx="540.6666666666666" cy="233.13716329134394" r="4" fill="#3b82f6" stroke="#0d1117" stroke-width="2" class="data-point"/>
  
    <circle cx="545.3333333333334" cy="231.19359736922496" r="4" fill="#3b82f6" stroke="#0d1117" stroke-width="2" class="data-point"/>
  
    <circle cx="550" cy="229.36270193534477" r="4" fill="#3b82f6" stroke="#0d1117" stroke-width="2" class="data-point"/>
  
    <circle cx="554.6666666666667" cy="226.51521141440097" r="4" fill="#3b82f6" stroke="#0d1117" stroke-width="2" class="data-point"/>
  
    <circle cx="559.3333333333334" cy="224.25155887796726" r="4" fill="#3b82f6" stroke="#0d1117" stroke-width="2" class="data-point"/>
  
    <circle cx="564" cy="221.35797588456217" r="4" fill="#3b82f6" stroke="#0d1117" stroke-width="2" class="data-point"/>
  
    <circle cx="568.6666666666667" cy="220.76645582130857" r="4" fill="#3b82f6" stroke="#0d1117" stroke-width="2" class="data-point"/>
  
    <circle cx="573.3333333333333" cy="220.68963503387303" r="4" fill="#3b82f6" stroke="#0d1117" stroke-width="2" class="data-point"/>
  
    <circle cx="578" cy="220.58976801020683" r="4" fill="#3b82f6" stroke="#0d1117" stroke-width="2" class="data-point"/>
  
    <circle cx="582.6666666666667" cy="220.50526514402776" r="4" fill="#3b82f6" stroke="#0d1117" stroke-width="2" class="data-point"/>
  
    <circle cx="587.3333333333333" cy="220.3951553487035" r="4" fill="#3b82f6" stroke="#0d1117" stroke-width="2" class="data-point"/>
  
    <circle cx="592" cy="220.29784901795182" r="4" fill="#3b82f6" stroke="#0d1117" stroke-width="2" class="data-point"/>
  
    <circle cx="596.6666666666667" cy="220.25943862423404" r="4" fill="#3b82f6" stroke="#0d1117" stroke-width="2" class="data-point"/>
  
    <circle cx="601.3333333333334" cy="220.11860051393558" r="4" fill="#3b82f6" stroke="#0d1117" stroke-width="2" class="data-point"/>
  
    <circle cx="606" cy="219.98288378946611" r="4" fill="#3b82f6" stroke="#0d1117" stroke-width="2" class="data-point"/>
  
    <circle cx="610.6666666666666" cy="219.893259537458" r="4" fill="#3b82f6" stroke="#0d1117" stroke-width="2" class="data-point"/>
  
    <circle cx="615.3333333333334" cy="219.85997052956927" r="4" fill="#3b82f6" stroke="#0d1117" stroke-width="2" class="data-point"/>
  
    <circle cx="620" cy="219.70888964761272" r="4" fill="#3b82f6" stroke="#0d1117" stroke-width="2" class="data-point"/>
  
    <circle cx="624.6666666666666" cy="215.99588492156192" r="4" fill="#3b82f6" stroke="#0d1117" stroke-width="2" class="data-point"/>
  
    <circle cx="629.3333333333334" cy="210.18055131269205" r="4" fill="#3b82f6" stroke="#0d1117" stroke-width="2" class="data-point"/>
  
    <circle cx="634" cy="206.2857373897105" r="4" fill="#3b82f6" stroke="#0d1117" stroke-width="2" class="data-point"/>
  
    <circle cx="638.6666666666666" cy="201.7635537026721" r="4" fill="#3b82f6" stroke="#0d1117" stroke-width="2" class="data-point"/>
  
    <circle cx="643.3333333333334" cy="197.10309259824973" r="4" fill="#3b82f6" stroke="#0d1117" stroke-width="2" class="data-point"/>
  
    <circle cx="648" cy="193.44642311631836" r="4" fill="#3b82f6" stroke="#0d1117" stroke-width="2" class="data-point"/>
  
    <circle cx="652.6666666666666" cy="189.35699653183346" r="4" fill="#3b82f6" stroke="#0d1117" stroke-width="2" class="data-point"/>
  
    <circle cx="657.3333333333334" cy="183.1268306708117" r="4" fill="#3b82f6" stroke="#0d1117" stroke-width="2" class="data-point"/>
  
    <circle cx="662" cy="174.73031860410788" r="4" fill="#3b82f6" stroke="#0d1117" stroke-width="2" class="data-point"/>
  
    <circle cx="666.6666666666667" cy="169.25043576703985" r="4" fill="#3b82f6" stroke="#0d1117" stroke-width="2" class="data-point"/>
  
    <circle cx="671.3333333333333" cy="162.72835091376305" r="4" fill="#3b82f6" stroke="#0d1117" stroke-width="2" class="data-point"/>
  
    <circle cx="676" cy="155.4611044223616" r="4" fill="#3b82f6" stroke="#0d1117" stroke-width="2" class="data-point"/>
  
    <circle cx="680.6666666666667" cy="149.6329673489191" r="4" fill="#3b82f6" stroke="#0d1117" stroke-width="2" class="data-point"/>
  
    <circle cx="685.3333333333334" cy="143.30805585006019" r="4" fill="#3b82f6" stroke="#0d1117" stroke-width="2" class="data-point"/>
  
    <circle cx="690" cy="137.69757767435175" r="4" fill="#3b82f6" stroke="#0d1117" stroke-width="2" class="data-point"/>
  
    <circle cx="694.6666666666666" cy="132.13831335693365" r="4" fill="#3b82f6" stroke="#0d1117" stroke-width="2" class="data-point"/>
  
    <circle cx="699.3333333333334" cy="126.59441319700264" r="4" fill="#3b82f6" stroke="#0d1117" stroke-width="2" class="data-point"/>
  
    <circle cx="704" cy="119.04549048500422" r="4" fill="#3b82f6" stroke="#0d1117" stroke-width="2" class="data-point"/>
  
    <circle cx="708.6666666666666" cy="111.47352153677514" r="4" fill="#3b82f6" stroke="#0d1117" stroke-width="2" class="data-point"/>
  
    <circle cx="713.3333333333334" cy="105.16141350248881" r="4" fill="#3b82f6" stroke="#0d1117" stroke-width="2" class="data-point"/>
  
    <circle cx="718" cy="99.87102194109508" r="4" fill="#3b82f6" stroke="#0d1117" stroke-width="2" class="data-point"/>
  
    <circle cx="722.6666666666666" cy="94.73939334040145" r="4" fill="#3b82f6" stroke="#0d1117" stroke-width="2" class="data-point"/>
  
    <circle cx="727.3333333333334" cy="87.92795018778415" r="4" fill="#3b82f6" stroke="#0d1117" stroke-width="2" class="data-point"/>
  
    <circle cx="732" cy="82.64524070513397" r="4" fill="#3b82f6" stroke="#0d1117" stroke-width="2" class="data-point"/>
  
    <circle cx="736.6666666666666" cy="77.41886646660316" r="4" fill="#3b82f6" stroke="#0d1117" stroke-width="2" class="data-point"/>
  
    <circle cx="741.3333333333334" cy="72.53050369278873" r="4" fill="#3b82f6" stroke="#0d1117" stroke-width="2" class="data-point"/>
  
    <circle cx="746" cy="67.92637783248574" r="4" fill="#3b82f6" stroke="#0d1117" stroke-width="2" class="data-point"/>
  
    <circle cx="750.6666666666666" cy="63.209581483943964" r="4" fill="#3b82f6" stroke="#0d1117" stroke-width="2" class="data-point"/>
  
    <circle cx="755.3333333333333" cy="59.17649014357846" r="4" fill="#3b82f6" stroke="#0d1117" stroke-width="2" class="data-point"/>
  
    <circle cx="760" cy="55" r="4" fill="#3b82f6" stroke="#0d1117" stroke-width="2" class="data-point"/>
  

  <!-- Axis lines -->
  <line x1="60" y1="55" x2="60" y2="340"
        stroke="#30363d" stroke-width="2"/>
  <line x1="60" y1="340" x2="760" y2="340"
        stroke="#30363d" stroke-width="2"/>
</svg>