<?xml version="1.0" encoding="UTF-8"?>
<svg width="800" height="400" xmlns="http://www.w3.org/2000/svg">
  <defs>
    <!-- Gradient for area fill -->
    <linearGradient id="areaGradient" x1="0%" y1="0%" x2="0%" y2="100%">
      <stop offset="0%" style="stop-color:#3b82f6;stop-opacity:0.3" />
      <stop offset="100%" style="stop-color:#3b82f6;stop-opacity:0.05" />
    </linearGradient>

    <!-- Glow filter for line -->
    <filter id="glow">
      <feGaussianBlur stdDeviation="2" result="coloredBlur"/>
      <feMerge>
        <feMergeNode in="coloredBlur"/>
        <feMergeNode in="SourceGraphic"/>
      </feMerge>
    </filter>

    <!-- Animation -->
    <style>
      @keyframes draw {
        from { stroke-dashoffset: 2000; }
        to { stroke-dashoffset: 0; }
      }
      @keyframes fadeIn {
        from { opacity: 0; }
        to { opacity: 1; }
      }
      .line-path {
        stroke-dasharray: 2000;
        stroke-dashoffset: 2000;
        animation: draw 1.5s ease-out forwards;
      }
      .area-path {
        opacity: 0;
        animation: fadeIn 1s ease-out 0.5s forwards;
      }
      .data-point {
        opacity: 0;
        animation: fadeIn 0.5s ease-out 1s forwards;
      }
    </style>
  </defs>

  <!-- Background -->
  <rect width="800" height="400" fill="#0d1117" rx="8"/>

  <!-- Title -->
  <text x="400" y="25" text-anchor="middle" fill="#c9d1d9" font-family="system-ui, -apple-system, sans-serif" font-size="16" font-weight="600">
    zxcloli666/SoundCloud-Desktop Downloads
  </text>

  <!-- Stats -->
  <text x="780" y="25" text-anchor="end" fill="#58a6ff" font-family="system-ui, -apple-system, sans-serif" font-size="14" font-weight="600">
    209.3K total
  </text>
  <text x="780" y="42" text-anchor="end" fill="#3fb950" font-family="system-ui, -apple-system, sans-serif" font-size="12">
    +1.4K (+0.7%)
  </text>

  <!-- Grid lines -->
  <g opacity="0.1">
    
      <line x1="60" y1="340" x2="760" y2="340"
            stroke="#c9d1d9" stroke-width="1"/>
    
      <line x1="60" y1="268.75" x2="760" y2="268.75"
            stroke="#c9d1d9" stroke-width="1"/>
    
      <line x1="60" y1="197.5" x2="760" y2="197.5"
            stroke="#c9d1d9" stroke-width="1"/>
    
      <line x1="60" y1="126.25" x2="760" y2="126.25"
            stroke="#c9d1d9" stroke-width="1"/>
    
      <line x1="60" y1="55" x2="760" y2="55"
            stroke="#c9d1d9" stroke-width="1"/>
    
  </g>

  <!-- Y-axis labels -->
  
    <text x="50" y="344" text-anchor="end"
          fill="#8b949e" font-family="system-ui, -apple-system, sans-serif" font-size="11">
      60.2K
    </text>
  
    <text x="50" y="272.75" text-anchor="end"
          fill="#8b949e" font-family="system-ui, -apple-system, sans-serif" font-size="11">
      97.4K
    </text>
  
    <text x="50" y="201.5" text-anchor="end"
          fill="#8b949e" font-family="system-ui, -apple-system, sans-serif" font-size="11">
      134.7K
    </text>
  
    <text x="50" y="130.25" text-anchor="end"
          fill="#8b949e" font-family="system-ui, -apple-system, sans-serif" font-size="11">
      172.0K
    </text>
  
    <text x="50" y="59" text-anchor="end"
          fill="#8b949e" font-family="system-ui, -apple-system, sans-serif" font-size="11">
      209.3K
    </text>
  

  <!-- X-axis labels -->
  
    <text x="60" y="360" text-anchor="middle"
          fill="#8b949e" font-family="system-ui, -apple-system, sans-serif" font-size="11">
      Nov 25
    </text>
  
    <text x="146.98224852071007" y="360" text-anchor="middle"
          fill="#8b949e" font-family="system-ui, -apple-system, sans-serif" font-size="11">
      Dec 16
    </text>
  
    <text x="233.96449704142012" y="360" text-anchor="middle"
          fill="#8b949e" font-family="system-ui, -apple-system, sans-serif" font-size="11">
      Jan 6
    </text>
  
    <text x="320.94674556213016" y="360" text-anchor="middle"
          fill="#8b949e" font-family="system-ui, -apple-system, sans-serif" font-size="11">
      Jan 27
    </text>
  
    <text x="407.92899408284023" y="360" text-anchor="middle"
          fill="#8b949e" font-family="system-ui, -apple-system, sans-serif" font-size="11">
      Feb 17
    </text>
  
    <text x="494.91124260355025" y="360" text-anchor="middle"
          fill="#8b949e" font-family="system-ui, -apple-system, sans-serif" font-size="11">
      Mar 10
    </text>
  
    <text x="581.8934911242603" y="360" text-anchor="middle"
          fill="#8b949e" font-family="system-ui, -apple-system, sans-serif" font-size="11">
      Mar 31
    </text>
  
    <text x="668.8757396449704" y="360" text-anchor="middle"
          fill="#8b949e" font-family="system-ui, -apple-system, sans-serif" font-size="11">
      Apr 21
    </text>
  
    <text x="755.8579881656805" y="360" text-anchor="middle"
          fill="#8b949e" font-family="system-ui, -apple-system, sans-serif" font-size="11">
      May 12
    </text>
  
    <text x="760" y="360" text-anchor="middle"
          fill="#8b949e" font-family="system-ui, -apple-system, sans-serif" font-size="11">
      May 13
    </text>
  

  <!-- Area under line -->
  <path d="M 60 340
    L 60.00 340.00 L 64.14 339.72 L 68.28 339.24 L 72.43 338.80 L 76.57 337.92 L 80.71 337.01 L 84.85 336.29 L 88.99 335.62 L 93.14 335.03 L 97.28 334.33 L 101.42 333.55 L 105.56 332.72 L 109.70 331.97 L 113.85 331.16 L 117.99 330.57 L 122.13 329.97 L 126.27 329.14 L 130.41 328.59 L 134.56 327.83 L 138.70 326.94 L 142.84 326.28 L 146.98 325.73 L 151.12 325.38 L 155.27 325.08 L 159.41 324.54 L 163.55 324.15 L 167.69 323.30 L 171.83 322.97 L 175.98 322.54 L 180.12 321.98 L 184.26 321.60 L 188.40 321.21 L 192.54 320.80 L 196.69 320.52 L 200.83 320.27 L 204.97 319.90 L 209.11 319.45 L 213.25 319.03 L 217.40 318.51 L 221.54 317.93 L 225.68 317.40 L 229.82 316.77 L 233.96 316.14 L 238.11 315.52 L 242.25 314.83 L 246.39 314.18 L 250.53 313.43 L 254.67 312.77 L 258.82 312.20 L 262.96 311.75 L 267.10 311.12 L 271.24 310.40 L 275.38 309.74 L 279.53 308.97 L 283.67 308.02 L 287.81 307.32 L 291.95 306.73 L 296.09 306.17 L 300.24 305.50 L 304.38 304.72 L 308.52 303.86 L 312.66 302.95 L 316.80 302.08 L 320.95 301.31 L 325.09 300.55 L 329.23 299.88 L 333.37 299.20 L 337.51 298.44 L 341.66 297.48 L 345.80 296.78 L 349.94 296.14 L 354.08 295.44 L 358.22 294.78 L 362.37 294.06 L 366.51 293.31 L 370.65 292.52 L 374.79 291.83 L 378.93 291.24 L 383.08 290.59 L 387.22 289.89 L 391.36 289.24 L 395.50 288.39 L 399.64 287.67 L 403.79 286.96 L 407.93 286.38 L 412.07 285.82 L 416.21 285.25 L 420.36 284.57 L 424.50 283.87 L 428.64 283.03 L 432.78 282.34 L 436.92 281.78 L 441.07 281.21 L 445.21 280.66 L 449.35 279.98 L 453.49 279.28 L 457.63 277.74 L 461.78 274.67 L 465.92 271.02 L 470.06 267.69 L 474.20 266.00 L 478.34 263.45 L 482.49 261.76 L 486.63 260.28 L 490.77 258.83 L 494.91 257.46 L 499.05 255.34 L 503.20 253.65 L 507.34 251.49 L 511.48 251.05 L 515.62 250.99 L 519.76 250.92 L 523.91 250.86 L 528.05 250.77 L 532.19 250.70 L 536.33 250.67 L 540.47 250.57 L 544.62 250.47 L 548.76 250.40 L 552.90 250.38 L 557.04 250.26 L 561.18 247.49 L 565.33 243.15 L 569.47 240.25 L 573.61 236.88 L 577.75 233.40 L 581.89 230.67 L 586.04 227.62 L 590.18 222.97 L 594.32 216.71 L 598.46 212.62 L 602.60 207.76 L 606.75 202.33 L 610.89 197.99 L 615.03 193.27 L 619.17 189.08 L 623.31 184.94 L 627.46 180.80 L 631.60 175.17 L 635.74 169.52 L 639.88 164.81 L 644.02 160.86 L 648.17 157.04 L 652.31 151.95 L 656.45 148.01 L 660.59 144.11 L 664.73 140.47 L 668.88 137.03 L 673.02 133.51 L 677.16 130.51 L 681.30 127.39 L 685.44 124.21 L 689.59 120.85 L 693.73 117.76 L 697.87 114.94 L 702.01 109.82 L 706.15 105.53 L 710.30 101.42 L 714.44 97.47 L 718.58 91.22 L 722.72 87.28 L 726.86 83.86 L 731.01 79.82 L 735.15 73.87 L 739.29 69.59 L 743.43 65.98 L 747.57 62.92 L 751.72 60.02 L 755.86 57.66 L 760.00 55.00
    L 760 340
    Z" fill="url(#areaGradient)" class="area-path"/>

  <!-- Main line with glow -->
  <path d="M 60.00 340.00 L 64.14 339.72 L 68.28 339.24 L 72.43 338.80 L 76.57 337.92 L 80.71 337.01 L 84.85 336.29 L 88.99 335.62 L 93.14 335.03 L 97.28 334.33 L 101.42 333.55 L 105.56 332.72 L 109.70 331.97 L 113.85 331.16 L 117.99 330.57 L 122.13 329.97 L 126.27 329.14 L 130.41 328.59 L 134.56 327.83 L 138.70 326.94 L 142.84 326.28 L 146.98 325.73 L 151.12 325.38 L 155.27 325.08 L 159.41 324.54 L 163.55 324.15 L 167.69 323.30 L 171.83 322.97 L 175.98 322.54 L 180.12 321.98 L 184.26 321.60 L 188.40 321.21 L 192.54 320.80 L 196.69 320.52 L 200.83 320.27 L 204.97 319.90 L 209.11 319.45 L 213.25 319.03 L 217.40 318.51 L 221.54 317.93 L 225.68 317.40 L 229.82 316.77 L 233.96 316.14 L 238.11 315.52 L 242.25 314.83 L 246.39 314.18 L 250.53 313.43 L 254.67 312.77 L 258.82 312.20 L 262.96 311.75 L 267.10 311.12 L 271.24 310.40 L 275.38 309.74 L 279.53 308.97 L 283.67 308.02 L 287.81 307.32 L 291.95 306.73 L 296.09 306.17 L 300.24 305.50 L 304.38 304.72 L 308.52 303.86 L 312.66 302.95 L 316.80 302.08 L 320.95 301.31 L 325.09 300.55 L 329.23 299.88 L 333.37 299.20 L 337.51 298.44 L 341.66 297.48 L 345.80 296.78 L 349.94 296.14 L 354.08 295.44 L 358.22 294.78 L 362.37 294.06 L 366.51 293.31 L 370.65 292.52 L 374.79 291.83 L 378.93 291.24 L 383.08 290.59 L 387.22 289.89 L 391.36 289.24 L 395.50 288.39 L 399.64 287.67 L 403.79 286.96 L 407.93 286.38 L 412.07 285.82 L 416.21 285.25 L 420.36 284.57 L 424.50 283.87 L 428.64 283.03 L 432.78 282.34 L 436.92 281.78 L 441.07 281.21 L 445.21 280.66 L 449.35 279.98 L 453.49 279.28 L 457.63 277.74 L 461.78 274.67 L 465.92 271.02 L 470.06 267.69 L 474.20 266.00 L 478.34 263.45 L 482.49 261.76 L 486.63 260.28 L 490.77 258.83 L 494.91 257.46 L 499.05 255.34 L 503.20 253.65 L 507.34 251.49 L 511.48 251.05 L 515.62 250.99 L 519.76 250.92 L 523.91 250.86 L 528.05 250.77 L 532.19 250.70 L 536.33 250.67 L 540.47 250.57 L 544.62 250.47 L 548.76 250.40 L 552.90 250.38 L 557.04 250.26 L 561.18 247.49 L 565.33 243.15 L 569.47 240.25 L 573.61 236.88 L 577.75 233.40 L 581.89 230.67 L 586.04 227.62 L 590.18 222.97 L 594.32 216.71 L 598.46 212.62 L 602.60 207.76 L 606.75 202.33 L 610.89 197.99 L 615.03 193.27 L 619.17 189.08 L 623.31 184.94 L 627.46 180.80 L 631.60 175.17 L 635.74 169.52 L 639.88 164.81 L 644.02 160.86 L 648.17 157.04 L 652.31 151.95 L 656.45 148.01 L 660.59 144.11 L 664.73 140.47 L 668.88 137.03 L 673.02 133.51 L 677.16 130.51 L 681.30 127.39 L 685.44 124.21 L 689.59 120.85 L 693.73 117.76 L 697.87 114.94 L 702.01 109.82 L 706.15 105.53 L 710.30 101.42 L 714.44 97.47 L 718.58 91.22 L 722.72 87.28 L 726.86 83.86 L 731.01 79.82 L 735.15 73.87 L 739.29 69.59 L 743.43 65.98 L 747.57 62.92 L 751.72 60.02 L 755.86 57.66 L 760.00 55.00" fill="none" stroke="#3b82f6" stroke-width="3"
        stroke-linecap="round" stroke-linejoin="round" filter="url(#glow)" class="line-path"/>

  <!-- Data points -->
  
    <circle cx="60" cy="340" r="4" fill="#3b82f6" stroke="#0d1117" stroke-width="2" class="data-point"/>
  
    <circle cx="64.14201183431953" cy="339.71918923810097" r="4" fill="#3b82f6" stroke="#0d1117" stroke-width="2" class="data-point"/>
  
    <circle cx="68.28402366863905" cy="339.2416199151435" r="4" fill="#3b82f6" stroke="#0d1117" stroke-width="2" class="data-point"/>
  
    <circle cx="72.42603550295858" cy="338.7984355834389" r="4" fill="#3b82f6" stroke="#0d1117" stroke-width="2" class="data-point"/>
  
    <circle cx="76.5680473372781" cy="337.91779775190525" r="4" fill="#3b82f6" stroke="#0d1117" stroke-width="2" class="data-point"/>
  
    <circle cx="80.71005917159763" cy="337.0085057609941" r="4" fill="#3b82f6" stroke="#0d1117" stroke-width="2" class="data-point"/>
  
    <circle cx="84.85207100591717" cy="336.2921517765579" r="4" fill="#3b82f6" stroke="#0d1117" stroke-width="2" class="data-point"/>
  
    <circle cx="88.99408284023669" cy="335.6235547244174" r="4" fill="#3b82f6" stroke="#0d1117" stroke-width="2" class="data-point"/>
  
    <circle cx="93.1360946745562" cy="335.0294584866582" r="4" fill="#3b82f6" stroke="#0d1117" stroke-width="2" class="data-point"/>
  
    <circle cx="97.27810650887574" cy="334.33220727514026" r="4" fill="#3b82f6" stroke="#0d1117" stroke-width="2" class="data-point"/>
  
    <circle cx="101.42011834319527" cy="333.55472441736543" r="4" fill="#3b82f6" stroke="#0d1117" stroke-width="2" class="data-point"/>
  
    <circle cx="105.5621301775148" cy="332.7218435181275" r="4" fill="#3b82f6" stroke="#0d1117" stroke-width="2" class="data-point"/>
  
    <circle cx="109.70414201183432" cy="331.9653737105628" r="4" fill="#3b82f6" stroke="#0d1117" stroke-width="2" class="data-point"/>
  
    <circle cx="113.84615384615384" cy="331.16114697070236" r="4" fill="#3b82f6" stroke="#0d1117" stroke-width="2" class="data-point"/>
  
    <circle cx="117.98816568047337" cy="330.57469184211055" r="4" fill="#3b82f6" stroke="#0d1117" stroke-width="2" class="data-point"/>
  
    <circle cx="122.1301775147929" cy="329.9672236633086" r="4" fill="#3b82f6" stroke="#0d1117" stroke-width="2" class="data-point"/>
  
    <circle cx="126.27218934911242" cy="329.141983873238" r="4" fill="#3b82f6" stroke="#0d1117" stroke-width="2" class="data-point"/>
  
    <circle cx="130.41420118343194" cy="328.58991373589913" r="4" fill="#3b82f6" stroke="#0d1117" stroke-width="2" class="data-point"/>
  
    <circle cx="134.55621301775147" cy="327.8258028191671" r="4" fill="#3b82f6" stroke="#0d1117" stroke-width="2" class="data-point"/>
  
    <circle cx="138.698224852071" cy="326.94325471034165" r="4" fill="#3b82f6" stroke="#0d1117" stroke-width="2" class="data-point"/>
  
    <circle cx="142.84023668639054" cy="326.27847821278476" r="4" fill="#3b82f6" stroke="#0d1117" stroke-width="2" class="data-point"/>
  
    <circle cx="146.98224852071007" cy="325.73213890732137" r="4" fill="#3b82f6" stroke="#0d1117" stroke-width="2" class="data-point"/>
  
    <circle cx="151.1242603550296" cy="325.3787376083328" r="4" fill="#3b82f6" stroke="#0d1117" stroke-width="2" class="data-point"/>
  
    <circle cx="155.2662721893491" cy="325.08455490539103" r="4" fill="#3b82f6" stroke="#0d1117" stroke-width="2" class="data-point"/>
  
    <circle cx="159.40828402366864" cy="324.54012587721945" r="4" fill="#3b82f6" stroke="#0d1117" stroke-width="2" class="data-point"/>
  
    <circle cx="163.55029585798817" cy="324.1523395869779" r="4" fill="#3b82f6" stroke="#0d1117" stroke-width="2" class="data-point"/>
  
    <circle cx="167.69230769230768" cy="323.30226619211356" r="4" fill="#3b82f6" stroke="#0d1117" stroke-width="2" class="data-point"/>
  
    <circle cx="171.8343195266272" cy="322.9679676660433" r="4" fill="#3b82f6" stroke="#0d1117" stroke-width="2" class="data-point"/>
  
    <circle cx="175.97633136094674" cy="322.5362449980897" r="4" fill="#3b82f6" stroke="#0d1117" stroke-width="2" class="data-point"/>
  
    <circle cx="180.11834319526628" cy="321.97844402887534" r="4" fill="#3b82f6" stroke="#0d1117" stroke-width="2" class="data-point"/>
  
    <circle cx="184.2603550295858" cy="321.59638857050936" r="4" fill="#3b82f6" stroke="#0d1117" stroke-width="2" class="data-point"/>
  
    <circle cx="188.4023668639053" cy="321.2086022802678" r="4" fill="#3b82f6" stroke="#0d1117" stroke-width="2" class="data-point"/>
  
    <circle cx="192.54437869822485" cy="320.80171321710804" r="4" fill="#3b82f6" stroke="#0d1117" stroke-width="2" class="data-point"/>
  
    <circle cx="196.68639053254438" cy="320.5189921779172" r="4" fill="#3b82f6" stroke="#0d1117" stroke-width="2" class="data-point"/>
  
    <circle cx="200.8284023668639" cy="320.27447668456296" r="4" fill="#3b82f6" stroke="#0d1117" stroke-width="2" class="data-point"/>
  
    <circle cx="204.97041420118344" cy="319.9019726126561" r="4" fill="#3b82f6" stroke="#0d1117" stroke-width="2" class="data-point"/>
  
    <circle cx="209.11242603550295" cy="319.44923689449234" r="4" fill="#3b82f6" stroke="#0d1117" stroke-width="2" class="data-point"/>
  
    <circle cx="213.25443786982248" cy="319.03279644487344" r="4" fill="#3b82f6" stroke="#0d1117" stroke-width="2" class="data-point"/>
  
    <circle cx="217.39644970414201" cy="318.50555991232835" r="4" fill="#3b82f6" stroke="#0d1117" stroke-width="2" class="data-point"/>
  
    <circle cx="221.53846153846155" cy="317.9305664474875" r="4" fill="#3b82f6" stroke="#0d1117" stroke-width="2" class="data-point"/>
  
    <circle cx="225.68047337278105" cy="317.4033299149424" r="4" fill="#3b82f6" stroke="#0d1117" stroke-width="2" class="data-point"/>
  
    <circle cx="229.82248520710058" cy="316.767207576763" r="4" fill="#3b82f6" stroke="#0d1117" stroke-width="2" class="data-point"/>
  
    <circle cx="233.96449704142012" cy="316.1425469023346" r="4" fill="#3b82f6" stroke="#0d1117" stroke-width="2" class="data-point"/>
  
    <circle cx="238.10650887573965" cy="315.51788622790616" r="4" fill="#3b82f6" stroke="#0d1117" stroke-width="2" class="data-point"/>
  
    <circle cx="242.24852071005918" cy="314.834006957431" r="4" fill="#3b82f6" stroke="#0d1117" stroke-width="2" class="data-point"/>
  
    <circle cx="246.39053254437871" cy="314.1806921236251" r="4" fill="#3b82f6" stroke="#0d1117" stroke-width="2" class="data-point"/>
  
    <circle cx="250.53254437869822" cy="313.43377370251955" r="4" fill="#3b82f6" stroke="#0d1117" stroke-width="2" class="data-point"/>
  
    <circle cx="254.67455621301772" cy="312.76708692767085" r="4" fill="#3b82f6" stroke="#0d1117" stroke-width="2" class="data-point"/>
  
    <circle cx="258.8165680473373" cy="312.203555126581" r="4" fill="#3b82f6" stroke="#0d1117" stroke-width="2" class="data-point"/>
  
    <circle cx="262.95857988165676" cy="311.75272968570914" r="4" fill="#3b82f6" stroke="#0d1117" stroke-width="2" class="data-point"/>
  
    <circle cx="267.10059171597635" cy="311.1223381794052" r="4" fill="#3b82f6" stroke="#0d1117" stroke-width="2" class="data-point"/>
  
    <circle cx="271.2426035502958" cy="310.40216364038525" r="4" fill="#3b82f6" stroke="#0d1117" stroke-width="2" class="data-point"/>
  
    <circle cx="275.38461538461536" cy="309.7431179747039" r="4" fill="#3b82f6" stroke="#0d1117" stroke-width="2" class="data-point"/>
  
    <circle cx="279.5266272189349" cy="308.9732762260964" r="4" fill="#3b82f6" stroke="#0d1117" stroke-width="2" class="data-point"/>
  
    <circle cx="283.6686390532544" cy="308.02386841205686" r="4" fill="#3b82f6" stroke="#0d1117" stroke-width="2" class="data-point"/>
  
    <circle cx="287.81065088757396" cy="307.31706581407974" r="4" fill="#3b82f6" stroke="#0d1117" stroke-width="2" class="data-point"/>
  
    <circle cx="291.9526627218935" cy="306.73061068548793" r="4" fill="#3b82f6" stroke="#0d1117" stroke-width="2" class="data-point"/>
  
    <circle cx="296.094674556213" cy="306.17280971627355" r="4" fill="#3b82f6" stroke="#0d1117" stroke-width="2" class="data-point"/>
  
    <circle cx="300.23668639053255" cy="305.5023023868412" r="4" fill="#3b82f6" stroke="#0d1117" stroke-width="2" class="data-point"/>
  
    <circle cx="304.3786982248521" cy="304.7229092517745" r="4" fill="#3b82f6" stroke="#0d1117" stroke-width="2" class="data-point"/>
  
    <circle cx="308.5207100591716" cy="303.85946391586737" r="4" fill="#3b82f6" stroke="#0d1117" stroke-width="2" class="data-point"/>
  
    <circle cx="312.66272189349115" cy="302.9520822022481" r="4" fill="#3b82f6" stroke="#0d1117" stroke-width="2" class="data-point"/>
  
    <circle cx="316.8047337278106" cy="302.0809957571736" r="4" fill="#3b82f6" stroke="#0d1117" stroke-width="2" class="data-point"/>
  
    <circle cx="320.94674556213016" cy="301.31497456314975" r="4" fill="#3b82f6" stroke="#0d1117" stroke-width="2" class="data-point"/>
  
    <circle cx="325.0887573964497" cy="300.5546842010014" r="4" fill="#3b82f6" stroke="#0d1117" stroke-width="2" class="data-point"/>
  
    <circle cx="329.2307692307692" cy="299.884176871569" r="4" fill="#3b82f6" stroke="#0d1117" stroke-width="2" class="data-point"/>
  
    <circle cx="333.37278106508876" cy="299.2002976010939" r="4" fill="#3b82f6" stroke="#0d1117" stroke-width="2" class="data-point"/>
  
    <circle cx="337.5147928994083" cy="298.43618668436187" r="4" fill="#3b82f6" stroke="#0d1117" stroke-width="2" class="data-point"/>
  
    <circle cx="341.6568047337278" cy="297.4848685930305" r="4" fill="#3b82f6" stroke="#0d1117" stroke-width="2" class="data-point"/>
  
    <circle cx="345.7988165680473" cy="296.7761557177616" r="4" fill="#3b82f6" stroke="#0d1117" stroke-width="2" class="data-point"/>
  
    <circle cx="349.9408284023669" cy="296.141943656874" r="4" fill="#3b82f6" stroke="#0d1117" stroke-width="2" class="data-point"/>
  
    <circle cx="354.08284023668637" cy="295.4370513361887" r="4" fill="#3b82f6" stroke="#0d1117" stroke-width="2" class="data-point"/>
  
    <circle cx="358.2248520710059" cy="294.77991594779917" r="4" fill="#3b82f6" stroke="#0d1117" stroke-width="2" class="data-point"/>
  
    <circle cx="362.36686390532543" cy="294.05783113148743" r="4" fill="#3b82f6" stroke="#0d1117" stroke-width="2" class="data-point"/>
  
    <circle cx="366.50887573964496" cy="293.30518187850635" r="4" fill="#3b82f6" stroke="#0d1117" stroke-width="2" class="data-point"/>
  
    <circle cx="370.6508875739645" cy="292.5181476342724" r="4" fill="#3b82f6" stroke="#0d1117" stroke-width="2" class="data-point"/>
  
    <circle cx="374.79289940828403" cy="291.8285375319217" r="4" fill="#3b82f6" stroke="#0d1117" stroke-width="2" class="data-point"/>
  
    <circle cx="378.93491124260356" cy="291.2382618487463" r="4" fill="#3b82f6" stroke="#0d1117" stroke-width="2" class="data-point"/>
  
    <circle cx="383.0769230769231" cy="290.5906778468159" r="4" fill="#3b82f6" stroke="#0d1117" stroke-width="2" class="data-point"/>
  
    <circle cx="387.2189349112426" cy="289.88960608071426" r="4" fill="#3b82f6" stroke="#0d1117" stroke-width="2" class="data-point"/>
  
    <circle cx="391.3609467455621" cy="289.24011180149205" r="4" fill="#3b82f6" stroke="#0d1117" stroke-width="2" class="data-point"/>
  
    <circle cx="395.50295857988164" cy="288.3938589612113" r="4" fill="#3b82f6" stroke="#0d1117" stroke-width="2" class="data-point"/>
  
    <circle cx="399.64497041420117" cy="287.6660433130241" r="4" fill="#3b82f6" stroke="#0d1117" stroke-width="2" class="data-point"/>
  
    <circle cx="403.7869822485207" cy="286.96497154692247" r="4" fill="#3b82f6" stroke="#0d1117" stroke-width="2" class="data-point"/>
  
    <circle cx="407.92899408284023" cy="286.3823369729143" r="4" fill="#3b82f6" stroke="#0d1117" stroke-width="2" class="data-point"/>
  
    <circle cx="412.07100591715977" cy="285.8168948945326" r="4" fill="#3b82f6" stroke="#0d1117" stroke-width="2" class="data-point"/>
  
    <circle cx="416.2130177514793" cy="285.24954253885903" r="4" fill="#3b82f6" stroke="#0d1117" stroke-width="2" class="data-point"/>
  
    <circle cx="420.3550295857988" cy="284.5713941002594" r="4" fill="#3b82f6" stroke="#0d1117" stroke-width="2" class="data-point"/>
  
    <circle cx="424.49704142011836" cy="283.8741428887414" r="4" fill="#3b82f6" stroke="#0d1117" stroke-width="2" class="data-point"/>
  
    <circle cx="428.6390532544379" cy="283.02789004846073" r="4" fill="#3b82f6" stroke="#0d1117" stroke-width="2" class="data-point"/>
  
    <circle cx="432.78106508875743" cy="282.34210050069373" r="4" fill="#3b82f6" stroke="#0d1117" stroke-width="2" class="data-point"/>
  
    <circle cx="436.9230769230769" cy="281.78238925418754" r="4" fill="#3b82f6" stroke="#0d1117" stroke-width="2" class="data-point"/>
  
    <circle cx="441.06508875739644" cy="281.20739578934666" r="4" fill="#3b82f6" stroke="#0d1117" stroke-width="2" class="data-point"/>
  
    <circle cx="445.207100591716" cy="280.65723592929965" r="4" fill="#3b82f6" stroke="#0d1117" stroke-width="2" class="data-point"/>
  
    <circle cx="449.34911242603545" cy="279.97717721340814" r="4" fill="#3b82f6" stroke="#0d1117" stroke-width="2" class="data-point"/>
  
    <circle cx="453.49112426035504" cy="279.27992600189015" r="4" fill="#3b82f6" stroke="#0d1117" stroke-width="2" class="data-point"/>
  
    <circle cx="457.63313609467457" cy="277.73833222738335" r="4" fill="#3b82f6" stroke="#0d1117" stroke-width="2" class="data-point"/>
  
    <circle cx="461.7751479289941" cy="274.67042689670427" r="4" fill="#3b82f6" stroke="#0d1117" stroke-width="2" class="data-point"/>
  
    <circle cx="465.9171597633136" cy="271.0160664374334" r="4" fill="#3b82f6" stroke="#0d1117" stroke-width="2" class="data-point"/>
  
    <circle cx="470.0591715976331" cy="267.6864531177736" r="4" fill="#3b82f6" stroke="#0d1117" stroke-width="2" class="data-point"/>
  
    <circle cx="474.2011834319527" cy="265.99776799179585" r="4" fill="#3b82f6" stroke="#0d1117" stroke-width="2" class="data-point"/>
  
    <circle cx="478.34319526627223" cy="263.45327863907823" r="4" fill="#3b82f6" stroke="#0d1117" stroke-width="2" class="data-point"/>
  
    <circle cx="482.4852071005917" cy="261.76268323580865" r="4" fill="#3b82f6" stroke="#0d1117" stroke-width="2" class="data-point"/>
  
    <circle cx="486.62721893491124" cy="260.2803080573485" r="4" fill="#3b82f6" stroke="#0d1117" stroke-width="2" class="data-point"/>
  
    <circle cx="490.7692307692308" cy="258.8304075928495" r="4" fill="#3b82f6" stroke="#0d1117" stroke-width="2" class="data-point"/>
  
    <circle cx="494.91124260355025" cy="257.46455932919105" r="4" fill="#3b82f6" stroke="#0d1117" stroke-width="2" class="data-point"/>
  
    <circle cx="499.05325443786984" cy="255.34033098067604" r="4" fill="#3b82f6" stroke="#0d1117" stroke-width="2" class="data-point"/>
  
    <circle cx="503.1952662721894" cy="253.65164585469827" r="4" fill="#3b82f6" stroke="#0d1117" stroke-width="2" class="data-point"/>
  
    <circle cx="507.3372781065089" cy="251.49303251493035" r="4" fill="#3b82f6" stroke="#0d1117" stroke-width="2" class="data-point"/>
  
    <circle cx="511.4792899408284" cy="251.0517584605176" r="4" fill="#3b82f6" stroke="#0d1117" stroke-width="2" class="data-point"/>
  
    <circle cx="515.6213017751479" cy="250.99445014176268" r="4" fill="#3b82f6" stroke="#0d1117" stroke-width="2" class="data-point"/>
  
    <circle cx="519.7633136094674" cy="250.9199493273813" r="4" fill="#3b82f6" stroke="#0d1117" stroke-width="2" class="data-point"/>
  
    <circle cx="523.905325443787" cy="250.85691017675094" r="4" fill="#3b82f6" stroke="#0d1117" stroke-width="2" class="data-point"/>
  
    <circle cx="528.0473372781065" cy="250.77476825320224" r="4" fill="#3b82f6" stroke="#0d1117" stroke-width="2" class="data-point"/>
  
    <circle cx="532.189349112426" cy="250.7021777161127" r="4" fill="#3b82f6" stroke="#0d1117" stroke-width="2" class="data-point"/>
  
    <circle cx="536.3313609467456" cy="250.67352355673523" r="4" fill="#3b82f6" stroke="#0d1117" stroke-width="2" class="data-point"/>
  
    <circle cx="540.4733727810651" cy="250.5684583056846" r="4" fill="#3b82f6" stroke="#0d1117" stroke-width="2" class="data-point"/>
  
    <circle cx="544.6153846153845" cy="250.4672136092176" r="4" fill="#3b82f6" stroke="#0d1117" stroke-width="2" class="data-point"/>
  
    <circle cx="548.7573964497042" cy="250.40035390400354" r="4" fill="#3b82f6" stroke="#0d1117" stroke-width="2" class="data-point"/>
  
    <circle cx="552.8994082840237" cy="250.37552029920977" r="4" fill="#3b82f6" stroke="#0d1117" stroke-width="2" class="data-point"/>
  
    <circle cx="557.0414201183432" cy="250.26281393899177" r="4" fill="#3b82f6" stroke="#0d1117" stroke-width="2" class="data-point"/>
  
    <circle cx="561.1834319526627" cy="247.4929118658382" r="4" fill="#3b82f6" stroke="#0d1117" stroke-width="2" class="data-point"/>
  
    <circle cx="565.3254437869823" cy="243.1546721360922" r="4" fill="#3b82f6" stroke="#0d1117" stroke-width="2" class="data-point"/>
  
    <circle cx="569.4674556213018" cy="240.24914037521867" r="4" fill="#3b82f6" stroke="#0d1117" stroke-width="2" class="data-point"/>
  
    <circle cx="573.6094674556213" cy="236.87559067784682" r="4" fill="#3b82f6" stroke="#0d1117" stroke-width="2" class="data-point"/>
  
    <circle cx="577.7514792899408" cy="233.3988860067161" r="4" fill="#3b82f6" stroke="#0d1117" stroke-width="2" class="data-point"/>
  
    <circle cx="581.8934911242603" cy="230.67101003398284" r="4" fill="#3b82f6" stroke="#0d1117" stroke-width="2" class="data-point"/>
  
    <circle cx="586.0355029585799" cy="227.62029719893025" r="4" fill="#3b82f6" stroke="#0d1117" stroke-width="2" class="data-point"/>
  
    <circle cx="590.1775147928994" cy="222.97259254790777" r="4" fill="#3b82f6" stroke="#0d1117" stroke-width="2" class="data-point"/>
  
    <circle cx="594.3195266272189" cy="216.708793307997" r="4" fill="#3b82f6" stroke="#0d1117" stroke-width="2" class="data-point"/>
  
    <circle cx="598.4615384615385" cy="212.62079990348073" r="4" fill="#3b82f6" stroke="#0d1117" stroke-width="2" class="data-point"/>
  
    <circle cx="602.603550295858" cy="207.7553236411896" r="4" fill="#3b82f6" stroke="#0d1117" stroke-width="2" class="data-point"/>
  
    <circle cx="606.7455621301775" cy="202.33395668697594" r="4" fill="#3b82f6" stroke="#0d1117" stroke-width="2" class="data-point"/>
  
    <circle cx="610.887573964497" cy="197.98616557077074" r="4" fill="#3b82f6" stroke="#0d1117" stroke-width="2" class="data-point"/>
  
    <circle cx="615.0295857988166" cy="193.26778065995052" r="4" fill="#3b82f6" stroke="#0d1117" stroke-width="2" class="data-point"/>
  
    <circle cx="619.1715976331361" cy="189.0823631135509" r="4" fill="#3b82f6" stroke="#0d1117" stroke-width="2" class="data-point"/>
  
    <circle cx="623.3136094674556" cy="184.93515111298788" r="4" fill="#3b82f6" stroke="#0d1117" stroke-width="2" class="data-point"/>
  
    <circle cx="627.4556213017752" cy="180.79940077617584" r="4" fill="#3b82f6" stroke="#0d1117" stroke-width="2" class="data-point"/>
  
    <circle cx="631.5976331360946" cy="175.16790331986084" r="4" fill="#3b82f6" stroke="#0d1117" stroke-width="2" class="data-point"/>
  
    <circle cx="635.7396449704141" cy="169.5192133679194" r="4" fill="#3b82f6" stroke="#0d1117" stroke-width="2" class="data-point"/>
  
    <circle cx="639.8816568047338" cy="164.81037984355834" r="4" fill="#3b82f6" stroke="#0d1117" stroke-width="2" class="data-point"/>
  
    <circle cx="644.0236686390533" cy="160.86374695863745" r="4" fill="#3b82f6" stroke="#0d1117" stroke-width="2" class="data-point"/>
  
    <circle cx="648.1656804733727" cy="157.03555126581008" r="4" fill="#3b82f6" stroke="#0d1117" stroke-width="2" class="data-point"/>
  
    <circle cx="652.3076923076923" cy="151.95421366954213" r="4" fill="#3b82f6" stroke="#0d1117" stroke-width="2" class="data-point"/>
  
    <circle cx="656.4497041420118" cy="148.01331161649676" r="4" fill="#3b82f6" stroke="#0d1117" stroke-width="2" class="data-point"/>
  
    <circle cx="660.5917159763314" cy="144.11443566387163" r="4" fill="#3b82f6" stroke="#0d1117" stroke-width="2" class="data-point"/>
  
    <circle cx="664.7337278106509" cy="140.46771631376805" r="4" fill="#3b82f6" stroke="#0d1117" stroke-width="2" class="data-point"/>
  
    <circle cx="668.8757396449704" cy="137.03303774305763" r="4" fill="#3b82f6" stroke="#0d1117" stroke-width="2" class="data-point"/>
  
    <circle cx="673.0177514792899" cy="133.5143069715067" r="4" fill="#3b82f6" stroke="#0d1117" stroke-width="2" class="data-point"/>
  
    <circle cx="677.1597633136095" cy="130.5056202368744" r="4" fill="#3b82f6" stroke="#0d1117" stroke-width="2" class="data-point"/>
  
    <circle cx="681.301775147929" cy="127.38995797389958" r="4" fill="#3b82f6" stroke="#0d1117" stroke-width="2" class="data-point"/>
  
    <circle cx="685.4437869822485" cy="124.20934628300256" r="4" fill="#3b82f6" stroke="#0d1117" stroke-width="2" class="data-point"/>
  
    <circle cx="689.5857988165681" cy="120.84725824938167" r="4" fill="#3b82f6" stroke="#0d1117" stroke-width="2" class="data-point"/>
  
    <circle cx="693.7278106508876" cy="117.76216042307615" r="4" fill="#3b82f6" stroke="#0d1117" stroke-width="2" class="data-point"/>
  
    <circle cx="697.8698224852071" cy="114.93686030845953" r="4" fill="#3b82f6" stroke="#0d1117" stroke-width="2" class="data-point"/>
  
    <circle cx="702.0118343195267" cy="109.817317166355" r="4" fill="#3b82f6" stroke="#0d1117" stroke-width="2" class="data-point"/>
  
    <circle cx="706.1538461538462" cy="105.5325652007802" r="4" fill="#3b82f6" stroke="#0d1117" stroke-width="2" class="data-point"/>
  
    <circle cx="710.2958579881656" cy="101.4178279141783" r="4" fill="#3b82f6" stroke="#0d1117" stroke-width="2" class="data-point"/>
  
    <circle cx="714.4378698224853" cy="97.46546419738192" r="4" fill="#3b82f6" stroke="#0d1117" stroke-width="2" class="data-point"/>
  
    <circle cx="718.5798816568048" cy="91.22458828497318" r="4" fill="#3b82f6" stroke="#0d1117" stroke-width="2" class="data-point"/>
  
    <circle cx="722.7218934911242" cy="87.27604512276045" r="4" fill="#3b82f6" stroke="#0d1117" stroke-width="2" class="data-point"/>
  
    <circle cx="726.8639053254437" cy="83.85855904767652" r="4" fill="#3b82f6" stroke="#0d1117" stroke-width="2" class="data-point"/>
  
    <circle cx="731.0059171597633" cy="79.82214313003965" r="4" fill="#3b82f6" stroke="#0d1117" stroke-width="2" class="data-point"/>
  
    <circle cx="735.1479289940829" cy="73.87162936598901" r="4" fill="#3b82f6" stroke="#0d1117" stroke-width="2" class="data-point"/>
  
    <circle cx="739.2899408284023" cy="69.59069795499789" r="4" fill="#3b82f6" stroke="#0d1117" stroke-width="2" class="data-point"/>
  
    <circle cx="743.4319526627219" cy="65.97645331885548" r="4" fill="#3b82f6" stroke="#0d1117" stroke-width="2" class="data-point"/>
  
    <circle cx="747.5739644970414" cy="62.91809937463552" r="4" fill="#3b82f6" stroke="#0d1117" stroke-width="2" class="data-point"/>
  
    <circle cx="751.7159763313609" cy="60.01638816834571" r="4" fill="#3b82f6" stroke="#0d1117" stroke-width="2" class="data-point"/>
  
    <circle cx="755.8579881656805" cy="57.65719571293562" r="4" fill="#3b82f6" stroke="#0d1117" stroke-width="2" class="data-point"/>
  
    <circle cx="760" cy="55" r="4" fill="#3b82f6" stroke="#0d1117" stroke-width="2" class="data-point"/>
  

  <!-- Axis lines -->
  <line x1="60" y1="55" x2="60" y2="340"
        stroke="#30363d" stroke-width="2"/>
  <line x1="60" y1="340" x2="760" y2="340"
        stroke="#30363d" stroke-width="2"/>
</svg>