<?xml version="1.0" encoding="UTF-8"?>
<svg width="800" height="400" xmlns="http://www.w3.org/2000/svg">
  <defs>
    <!-- Gradient for area fill -->
    <linearGradient id="areaGradient" x1="0%" y1="0%" x2="0%" y2="100%">
      <stop offset="0%" style="stop-color:#3b82f6;stop-opacity:0.3" />
      <stop offset="100%" style="stop-color:#3b82f6;stop-opacity:0.05" />
    </linearGradient>

    <!-- Glow filter for line -->
    <filter id="glow">
      <feGaussianBlur stdDeviation="2" result="coloredBlur"/>
      <feMerge>
        <feMergeNode in="coloredBlur"/>
        <feMergeNode in="SourceGraphic"/>
      </feMerge>
    </filter>

    <!-- Animation -->
    <style>
      @keyframes draw {
        from { stroke-dashoffset: 2000; }
        to { stroke-dashoffset: 0; }
      }
      @keyframes fadeIn {
        from { opacity: 0; }
        to { opacity: 1; }
      }
      .line-path {
        stroke-dasharray: 2000;
        stroke-dashoffset: 2000;
        animation: draw 1.5s ease-out forwards;
      }
      .area-path {
        opacity: 0;
        animation: fadeIn 1s ease-out 0.5s forwards;
      }
      .data-point {
        opacity: 0;
        animation: fadeIn 0.5s ease-out 1s forwards;
      }
    </style>
  </defs>

  <!-- Background -->
  <rect width="800" height="400" fill="#0d1117" rx="8"/>

  <!-- Title -->
  <text x="400" y="25" text-anchor="middle" fill="#c9d1d9" font-family="system-ui, -apple-system, sans-serif" font-size="16" font-weight="600">
    zxcloli666/SoundCloud-Desktop Downloads
  </text>

  <!-- Stats -->
  <text x="780" y="25" text-anchor="end" fill="#58a6ff" font-family="system-ui, -apple-system, sans-serif" font-size="14" font-weight="600">
    223.8K total
  </text>
  <text x="780" y="42" text-anchor="end" fill="#3fb950" font-family="system-ui, -apple-system, sans-serif" font-size="12">
    +1.6K (+0.7%)
  </text>

  <!-- Grid lines -->
  <g opacity="0.1">
    
      <line x1="60" y1="340" x2="760" y2="340"
            stroke="#c9d1d9" stroke-width="1"/>
    
      <line x1="60" y1="268.75" x2="760" y2="268.75"
            stroke="#c9d1d9" stroke-width="1"/>
    
      <line x1="60" y1="197.5" x2="760" y2="197.5"
            stroke="#c9d1d9" stroke-width="1"/>
    
      <line x1="60" y1="126.25" x2="760" y2="126.25"
            stroke="#c9d1d9" stroke-width="1"/>
    
      <line x1="60" y1="55" x2="760" y2="55"
            stroke="#c9d1d9" stroke-width="1"/>
    
  </g>

  <!-- Y-axis labels -->
  
    <text x="50" y="344" text-anchor="end"
          fill="#8b949e" font-family="system-ui, -apple-system, sans-serif" font-size="11">
      60.2K
    </text>
  
    <text x="50" y="272.75" text-anchor="end"
          fill="#8b949e" font-family="system-ui, -apple-system, sans-serif" font-size="11">
      101.1K
    </text>
  
    <text x="50" y="201.5" text-anchor="end"
          fill="#8b949e" font-family="system-ui, -apple-system, sans-serif" font-size="11">
      142.0K
    </text>
  
    <text x="50" y="130.25" text-anchor="end"
          fill="#8b949e" font-family="system-ui, -apple-system, sans-serif" font-size="11">
      182.9K
    </text>
  
    <text x="50" y="59" text-anchor="end"
          fill="#8b949e" font-family="system-ui, -apple-system, sans-serif" font-size="11">
      223.8K
    </text>
  

  <!-- X-axis labels -->
  
    <text x="60" y="360" text-anchor="middle"
          fill="#8b949e" font-family="system-ui, -apple-system, sans-serif" font-size="11">
      Nov 25
    </text>
  
    <text x="146.0335195530726" y="360" text-anchor="middle"
          fill="#8b949e" font-family="system-ui, -apple-system, sans-serif" font-size="11">
      Dec 17
    </text>
  
    <text x="232.06703910614524" y="360" text-anchor="middle"
          fill="#8b949e" font-family="system-ui, -apple-system, sans-serif" font-size="11">
      Jan 8
    </text>
  
    <text x="318.1005586592179" y="360" text-anchor="middle"
          fill="#8b949e" font-family="system-ui, -apple-system, sans-serif" font-size="11">
      Jan 30
    </text>
  
    <text x="404.1340782122905" y="360" text-anchor="middle"
          fill="#8b949e" font-family="system-ui, -apple-system, sans-serif" font-size="11">
      Feb 21
    </text>
  
    <text x="490.16759776536315" y="360" text-anchor="middle"
          fill="#8b949e" font-family="system-ui, -apple-system, sans-serif" font-size="11">
      Mar 15
    </text>
  
    <text x="576.2011173184358" y="360" text-anchor="middle"
          fill="#8b949e" font-family="system-ui, -apple-system, sans-serif" font-size="11">
      Apr 6
    </text>
  
    <text x="662.2346368715083" y="360" text-anchor="middle"
          fill="#8b949e" font-family="system-ui, -apple-system, sans-serif" font-size="11">
      Apr 28
    </text>
  
    <text x="748.268156424581" y="360" text-anchor="middle"
          fill="#8b949e" font-family="system-ui, -apple-system, sans-serif" font-size="11">
      May 20
    </text>
  
    <text x="760" y="360" text-anchor="middle"
          fill="#8b949e" font-family="system-ui, -apple-system, sans-serif" font-size="11">
      May 23
    </text>
  

  <!-- Area under line -->
  <path d="M 60 340
    L 60.00 340.00 L 63.91 339.74 L 67.82 339.31 L 71.73 338.90 L 75.64 338.10 L 79.55 337.27 L 83.46 336.62 L 87.37 336.01 L 91.28 335.47 L 95.20 334.83 L 99.11 334.12 L 103.02 333.37 L 106.93 332.68 L 110.84 331.94 L 114.75 331.41 L 118.66 330.85 L 122.57 330.10 L 126.48 329.60 L 130.39 328.90 L 134.30 328.10 L 138.21 327.49 L 142.12 326.99 L 146.03 326.67 L 149.94 326.40 L 153.85 325.91 L 157.77 325.55 L 161.68 324.78 L 165.59 324.47 L 169.50 324.08 L 173.41 323.57 L 177.32 323.22 L 181.23 322.87 L 185.14 322.50 L 189.05 322.24 L 192.96 322.02 L 196.87 321.68 L 200.78 321.27 L 204.69 320.89 L 208.60 320.41 L 212.51 319.88 L 216.42 319.40 L 220.34 318.82 L 224.25 318.25 L 228.16 317.68 L 232.07 317.06 L 235.98 316.46 L 239.89 315.78 L 243.80 315.18 L 247.71 314.66 L 251.62 314.25 L 255.53 313.68 L 259.44 313.02 L 263.35 312.42 L 267.26 311.72 L 271.17 310.85 L 275.08 310.21 L 278.99 309.67 L 282.91 309.16 L 286.82 308.55 L 290.73 307.84 L 294.64 307.06 L 298.55 306.23 L 302.46 305.43 L 306.37 304.74 L 310.28 304.04 L 314.19 303.43 L 318.10 302.81 L 322.01 302.11 L 325.92 301.24 L 329.83 300.60 L 333.74 300.02 L 337.65 299.38 L 341.56 298.78 L 345.47 298.12 L 349.39 297.43 L 353.30 296.72 L 357.21 296.09 L 361.12 295.55 L 365.03 294.96 L 368.94 294.32 L 372.85 293.73 L 376.76 292.96 L 380.67 292.29 L 384.58 291.66 L 388.49 291.12 L 392.40 290.61 L 396.31 290.09 L 400.22 289.47 L 404.13 288.84 L 408.04 288.07 L 411.96 287.44 L 415.87 286.93 L 419.78 286.41 L 423.69 285.91 L 427.60 285.29 L 431.51 284.65 L 435.42 283.24 L 439.33 280.45 L 443.24 277.12 L 447.15 274.08 L 451.06 272.54 L 454.97 270.22 L 458.88 268.68 L 462.79 267.33 L 466.70 266.01 L 470.61 264.76 L 474.53 262.83 L 478.44 261.29 L 482.35 259.32 L 486.26 258.92 L 490.17 258.87 L 494.08 258.80 L 497.99 258.74 L 501.90 258.67 L 505.81 258.60 L 509.72 258.57 L 513.63 258.48 L 517.54 258.39 L 521.45 258.32 L 525.36 258.30 L 529.27 258.20 L 533.18 255.67 L 537.09 251.72 L 541.01 249.07 L 544.92 246.00 L 548.83 242.83 L 552.74 240.34 L 556.65 237.56 L 560.56 233.32 L 564.47 227.61 L 568.38 223.89 L 572.29 219.45 L 576.20 214.51 L 580.11 210.55 L 584.02 206.24 L 587.93 202.43 L 591.84 198.65 L 595.75 194.88 L 599.66 189.75 L 603.58 184.60 L 607.49 180.30 L 611.40 176.71 L 615.31 173.22 L 619.22 168.59 L 623.13 164.99 L 627.04 161.44 L 630.95 158.11 L 634.86 154.98 L 638.77 151.78 L 642.68 149.03 L 646.59 146.19 L 650.50 143.29 L 654.41 140.23 L 658.32 137.42 L 662.23 134.84 L 666.15 130.17 L 670.06 126.27 L 673.97 122.52 L 677.88 118.92 L 681.79 113.23 L 685.70 109.63 L 689.61 106.51 L 693.52 102.83 L 697.43 97.41 L 701.34 93.51 L 705.25 90.21 L 709.16 87.42 L 713.07 84.78 L 716.98 82.63 L 720.89 80.21 L 724.80 78.23 L 728.72 75.90 L 732.63 72.55 L 736.54 69.67 L 740.45 67.16 L 744.36 64.99 L 748.27 62.76 L 752.18 60.88 L 756.09 57.71 L 760.00 55.00
    L 760 340
    Z" fill="url(#areaGradient)" class="area-path"/>

  <!-- Main line with glow -->
  <path d="M 60.00 340.00 L 63.91 339.74 L 67.82 339.31 L 71.73 338.90 L 75.64 338.10 L 79.55 337.27 L 83.46 336.62 L 87.37 336.01 L 91.28 335.47 L 95.20 334.83 L 99.11 334.12 L 103.02 333.37 L 106.93 332.68 L 110.84 331.94 L 114.75 331.41 L 118.66 330.85 L 122.57 330.10 L 126.48 329.60 L 130.39 328.90 L 134.30 328.10 L 138.21 327.49 L 142.12 326.99 L 146.03 326.67 L 149.94 326.40 L 153.85 325.91 L 157.77 325.55 L 161.68 324.78 L 165.59 324.47 L 169.50 324.08 L 173.41 323.57 L 177.32 323.22 L 181.23 322.87 L 185.14 322.50 L 189.05 322.24 L 192.96 322.02 L 196.87 321.68 L 200.78 321.27 L 204.69 320.89 L 208.60 320.41 L 212.51 319.88 L 216.42 319.40 L 220.34 318.82 L 224.25 318.25 L 228.16 317.68 L 232.07 317.06 L 235.98 316.46 L 239.89 315.78 L 243.80 315.18 L 247.71 314.66 L 251.62 314.25 L 255.53 313.68 L 259.44 313.02 L 263.35 312.42 L 267.26 311.72 L 271.17 310.85 L 275.08 310.21 L 278.99 309.67 L 282.91 309.16 L 286.82 308.55 L 290.73 307.84 L 294.64 307.06 L 298.55 306.23 L 302.46 305.43 L 306.37 304.74 L 310.28 304.04 L 314.19 303.43 L 318.10 302.81 L 322.01 302.11 L 325.92 301.24 L 329.83 300.60 L 333.74 300.02 L 337.65 299.38 L 341.56 298.78 L 345.47 298.12 L 349.39 297.43 L 353.30 296.72 L 357.21 296.09 L 361.12 295.55 L 365.03 294.96 L 368.94 294.32 L 372.85 293.73 L 376.76 292.96 L 380.67 292.29 L 384.58 291.66 L 388.49 291.12 L 392.40 290.61 L 396.31 290.09 L 400.22 289.47 L 404.13 288.84 L 408.04 288.07 L 411.96 287.44 L 415.87 286.93 L 419.78 286.41 L 423.69 285.91 L 427.60 285.29 L 431.51 284.65 L 435.42 283.24 L 439.33 280.45 L 443.24 277.12 L 447.15 274.08 L 451.06 272.54 L 454.97 270.22 L 458.88 268.68 L 462.79 267.33 L 466.70 266.01 L 470.61 264.76 L 474.53 262.83 L 478.44 261.29 L 482.35 259.32 L 486.26 258.92 L 490.17 258.87 L 494.08 258.80 L 497.99 258.74 L 501.90 258.67 L 505.81 258.60 L 509.72 258.57 L 513.63 258.48 L 517.54 258.39 L 521.45 258.32 L 525.36 258.30 L 529.27 258.20 L 533.18 255.67 L 537.09 251.72 L 541.01 249.07 L 544.92 246.00 L 548.83 242.83 L 552.74 240.34 L 556.65 237.56 L 560.56 233.32 L 564.47 227.61 L 568.38 223.89 L 572.29 219.45 L 576.20 214.51 L 580.11 210.55 L 584.02 206.24 L 587.93 202.43 L 591.84 198.65 L 595.75 194.88 L 599.66 189.75 L 603.58 184.60 L 607.49 180.30 L 611.40 176.71 L 615.31 173.22 L 619.22 168.59 L 623.13 164.99 L 627.04 161.44 L 630.95 158.11 L 634.86 154.98 L 638.77 151.78 L 642.68 149.03 L 646.59 146.19 L 650.50 143.29 L 654.41 140.23 L 658.32 137.42 L 662.23 134.84 L 666.15 130.17 L 670.06 126.27 L 673.97 122.52 L 677.88 118.92 L 681.79 113.23 L 685.70 109.63 L 689.61 106.51 L 693.52 102.83 L 697.43 97.41 L 701.34 93.51 L 705.25 90.21 L 709.16 87.42 L 713.07 84.78 L 716.98 82.63 L 720.89 80.21 L 724.80 78.23 L 728.72 75.90 L 732.63 72.55 L 736.54 69.67 L 740.45 67.16 L 744.36 64.99 L 748.27 62.76 L 752.18 60.88 L 756.09 57.71 L 760.00 55.00" fill="none" stroke="#3b82f6" stroke-width="3"
        stroke-linecap="round" stroke-linejoin="round" filter="url(#glow)" class="line-path"/>

  <!-- Data points -->
  
    <circle cx="60" cy="340" r="4" fill="#3b82f6" stroke="#0d1117" stroke-width="2" class="data-point"/>
  
    <circle cx="63.910614525139664" cy="339.7440244885989" r="4" fill="#3b82f6" stroke="#0d1117" stroke-width="2" class="data-point"/>
  
    <circle cx="67.82122905027933" cy="339.308691986216" r="4" fill="#3b82f6" stroke="#0d1117" stroke-width="2" class="data-point"/>
  
    <circle cx="71.73184357541899" cy="338.9047034240047" r="4" fill="#3b82f6" stroke="#0d1117" stroke-width="2" class="data-point"/>
  
    <circle cx="75.64245810055866" cy="338.10195028961067" r="4" fill="#3b82f6" stroke="#0d1117" stroke-width="2" class="data-point"/>
  
    <circle cx="79.55307262569832" cy="337.27307720507366" r="4" fill="#3b82f6" stroke="#0d1117" stroke-width="2" class="data-point"/>
  
    <circle cx="83.46368715083798" cy="336.62007845149935" r="4" fill="#3b82f6" stroke="#0d1117" stroke-width="2" class="data-point"/>
  
    <circle cx="87.37430167597765" cy="336.0106129481633" r="4" fill="#3b82f6" stroke="#0d1117" stroke-width="2" class="data-point"/>
  
    <circle cx="91.28491620111731" cy="335.46905931519905" r="4" fill="#3b82f6" stroke="#0d1117" stroke-width="2" class="data-point"/>
  
    <circle cx="95.19553072625698" cy="334.83347386172005" r="4" fill="#3b82f6" stroke="#0d1117" stroke-width="2" class="data-point"/>
  
    <circle cx="99.10614525139664" cy="334.1247525478407" r="4" fill="#3b82f6" stroke="#0d1117" stroke-width="2" class="data-point"/>
  
    <circle cx="103.0167597765363" cy="333.36553266368503" r="4" fill="#3b82f6" stroke="#0d1117" stroke-width="2" class="data-point"/>
  
    <circle cx="106.92737430167597" cy="332.67596597991053" r="4" fill="#3b82f6" stroke="#0d1117" stroke-width="2" class="data-point"/>
  
    <circle cx="110.83798882681565" cy="331.9428660458978" r="4" fill="#3b82f6" stroke="#0d1117" stroke-width="2" class="data-point"/>
  
    <circle cx="114.74860335195531" cy="331.4082777329716" r="4" fill="#3b82f6" stroke="#0d1117" stroke-width="2" class="data-point"/>
  
    <circle cx="118.65921787709496" cy="330.8545347899406" r="4" fill="#3b82f6" stroke="#0d1117" stroke-width="2" class="data-point"/>
  
    <circle cx="122.56983240223464" cy="330.102280225823" r="4" fill="#3b82f6" stroke="#0d1117" stroke-width="2" class="data-point"/>
  
    <circle cx="126.4804469273743" cy="329.5990358530684" r="4" fill="#3b82f6" stroke="#0d1117" stroke-width="2" class="data-point"/>
  
    <circle cx="130.39106145251395" cy="328.9025038492558" r="4" fill="#3b82f6" stroke="#0d1117" stroke-width="2" class="data-point"/>
  
    <circle cx="134.30167597765364" cy="328.0980093848523" r="4" fill="#3b82f6" stroke="#0d1117" stroke-width="2" class="data-point"/>
  
    <circle cx="138.21229050279328" cy="327.4920265415353" r="4" fill="#3b82f6" stroke="#0d1117" stroke-width="2" class="data-point"/>
  
    <circle cx="142.12290502793297" cy="326.99400615880927" r="4" fill="#3b82f6" stroke="#0d1117" stroke-width="2" class="data-point"/>
  
    <circle cx="146.0335195530726" cy="326.671860107046" r="4" fill="#3b82f6" stroke="#0d1117" stroke-width="2" class="data-point"/>
  
    <circle cx="149.9441340782123" cy="326.4036952855781" r="4" fill="#3b82f6" stroke="#0d1117" stroke-width="2" class="data-point"/>
  
    <circle cx="153.85474860335194" cy="325.90741623286164" r="4" fill="#3b82f6" stroke="#0d1117" stroke-width="2" class="data-point"/>
  
    <circle cx="157.76536312849163" cy="325.5539262409267" r="4" fill="#3b82f6" stroke="#0d1117" stroke-width="2" class="data-point"/>
  
    <circle cx="161.6759776536313" cy="324.7790343866852" r="4" fill="#3b82f6" stroke="#0d1117" stroke-width="2" class="data-point"/>
  
    <circle cx="165.58659217877096" cy="324.47430163501724" r="4" fill="#3b82f6" stroke="#0d1117" stroke-width="2" class="data-point"/>
  
    <circle cx="169.49720670391062" cy="324.0807610528631" r="4" fill="#3b82f6" stroke="#0d1117" stroke-width="2" class="data-point"/>
  
    <circle cx="173.40782122905028" cy="323.5722926900799" r="4" fill="#3b82f6" stroke="#0d1117" stroke-width="2" class="data-point"/>
  
    <circle cx="177.31843575418992" cy="323.22402668817364" r="4" fill="#3b82f6" stroke="#0d1117" stroke-width="2" class="data-point"/>
  
    <circle cx="181.2290502793296" cy="322.87053669623873" r="4" fill="#3b82f6" stroke="#0d1117" stroke-width="2" class="data-point"/>
  
    <circle cx="185.13966480446928" cy="322.4996334042085" r="4" fill="#3b82f6" stroke="#0d1117" stroke-width="2" class="data-point"/>
  
    <circle cx="189.05027932960894" cy="322.2419165627979" r="4" fill="#3b82f6" stroke="#0d1117" stroke-width="2" class="data-point"/>
  
    <circle cx="192.9608938547486" cy="322.0190263215778" r="4" fill="#3b82f6" stroke="#0d1117" stroke-width="2" class="data-point"/>
  
    <circle cx="196.87150837988827" cy="321.6794669697192" r="4" fill="#3b82f6" stroke="#0d1117" stroke-width="2" class="data-point"/>
  
    <circle cx="200.78212290502793" cy="321.2667717574602" r="4" fill="#3b82f6" stroke="#0d1117" stroke-width="2" class="data-point"/>
  
    <circle cx="204.6927374301676" cy="320.88716181538234" r="4" fill="#3b82f6" stroke="#0d1117" stroke-width="2" class="data-point"/>
  
    <circle cx="208.60335195530726" cy="320.40655473275166" r="4" fill="#3b82f6" stroke="#0d1117" stroke-width="2" class="data-point"/>
  
    <circle cx="212.51396648044692" cy="319.8824143998827" r="4" fill="#3b82f6" stroke="#0d1117" stroke-width="2" class="data-point"/>
  
    <circle cx="216.4245810055866" cy="319.401807317252" r="4" fill="#3b82f6" stroke="#0d1117" stroke-width="2" class="data-point"/>
  
    <circle cx="220.33519553072625" cy="318.821944424078" r="4" fill="#3b82f6" stroke="#0d1117" stroke-width="2" class="data-point"/>
  
    <circle cx="224.24581005586592" cy="318.2525295109612" r="4" fill="#3b82f6" stroke="#0d1117" stroke-width="2" class="data-point"/>
  
    <circle cx="228.15642458100558" cy="317.6831145978444" r="4" fill="#3b82f6" stroke="#0d1117" stroke-width="2" class="data-point"/>
  
    <circle cx="232.06703910614524" cy="317.05971845443213" r="4" fill="#3b82f6" stroke="#0d1117" stroke-width="2" class="data-point"/>
  
    <circle cx="235.97765363128494" cy="316.4641835911724" r="4" fill="#3b82f6" stroke="#0d1117" stroke-width="2" class="data-point"/>
  
    <circle cx="239.88826815642457" cy="315.78332355744556" r="4" fill="#3b82f6" stroke="#0d1117" stroke-width="2" class="data-point"/>
  
    <circle cx="243.79888268156424" cy="315.1755993841191" r="4" fill="#3b82f6" stroke="#0d1117" stroke-width="2" class="data-point"/>
  
    <circle cx="247.7094972067039" cy="314.6619070313073" r="4" fill="#3b82f6" stroke="#0d1117" stroke-width="2" class="data-point"/>
  
    <circle cx="251.62011173184356" cy="314.25095314905786" r="4" fill="#3b82f6" stroke="#0d1117" stroke-width="2" class="data-point"/>
  
    <circle cx="255.53072625698323" cy="313.67631424591247" r="4" fill="#3b82f6" stroke="#0d1117" stroke-width="2" class="data-point"/>
  
    <circle cx="259.4413407821229" cy="313.0198328323191" r="4" fill="#3b82f6" stroke="#0d1117" stroke-width="2" class="data-point"/>
  
    <circle cx="263.3519553072626" cy="312.4190739790307" r="4" fill="#3b82f6" stroke="#0d1117" stroke-width="2" class="data-point"/>
  
    <circle cx="267.2625698324023" cy="311.71731798518954" r="4" fill="#3b82f6" stroke="#0d1117" stroke-width="2" class="data-point"/>
  
    <circle cx="271.1731843575419" cy="310.8518769704524" r="4" fill="#3b82f6" stroke="#0d1117" stroke-width="2" class="data-point"/>
  
    <circle cx="275.08379888268155" cy="310.20758486692574" r="4" fill="#3b82f6" stroke="#0d1117" stroke-width="2" class="data-point"/>
  
    <circle cx="278.99441340782124" cy="309.67299655399955" r="4" fill="#3b82f6" stroke="#0d1117" stroke-width="2" class="data-point"/>
  
    <circle cx="282.90502793296093" cy="309.1645281912164" r="4" fill="#3b82f6" stroke="#0d1117" stroke-width="2" class="data-point"/>
  
    <circle cx="286.81564245810057" cy="308.5533213578708" r="4" fill="#3b82f6" stroke="#0d1117" stroke-width="2" class="data-point"/>
  
    <circle cx="290.7262569832402" cy="307.84285871398197" r="4" fill="#3b82f6" stroke="#0d1117" stroke-width="2" class="data-point"/>
  
    <circle cx="294.63687150837984" cy="307.05577754967373" r="4" fill="#3b82f6" stroke="#0d1117" stroke-width="2" class="data-point"/>
  
    <circle cx="298.54748603351953" cy="306.2286457951463" r="4" fill="#3b82f6" stroke="#0d1117" stroke-width="2" class="data-point"/>
  
    <circle cx="302.4581005586592" cy="305.4345993107999" r="4" fill="#3b82f6" stroke="#0d1117" stroke-width="2" class="data-point"/>
  
    <circle cx="306.36871508379886" cy="304.7363259769778" r="4" fill="#3b82f6" stroke="#0d1117" stroke-width="2" class="data-point"/>
  
    <circle cx="310.27932960893855" cy="304.04327663318423" r="4" fill="#3b82f6" stroke="#0d1117" stroke-width="2" class="data-point"/>
  
    <circle cx="314.18994413407825" cy="303.4320697998387" r="4" fill="#3b82f6" stroke="#0d1117" stroke-width="2" class="data-point"/>
  
    <circle cx="318.1005586592179" cy="302.80867365642644" r="4" fill="#3b82f6" stroke="#0d1117" stroke-width="2" class="data-point"/>
  
    <circle cx="322.0111731843575" cy="302.11214165261384" r="4" fill="#3b82f6" stroke="#0d1117" stroke-width="2" class="data-point"/>
  
    <circle cx="325.9217877094972" cy="301.24495930786713" r="4" fill="#3b82f6" stroke="#0d1117" stroke-width="2" class="data-point"/>
  
    <circle cx="329.83240223463685" cy="300.598925874331" r="4" fill="#3b82f6" stroke="#0d1117" stroke-width="2" class="data-point"/>
  
    <circle cx="333.74301675977654" cy="300.0208043111665" r="4" fill="#3b82f6" stroke="#0d1117" stroke-width="2" class="data-point"/>
  
    <circle cx="337.65363128491623" cy="299.37825353764936" r="4" fill="#3b82f6" stroke="#0d1117" stroke-width="2" class="data-point"/>
  
    <circle cx="341.56424581005587" cy="298.77923601437055" r="4" fill="#3b82f6" stroke="#0d1117" stroke-width="2" class="data-point"/>
  
    <circle cx="345.47486033519556" cy="298.12101327076766" r="4" fill="#3b82f6" stroke="#0d1117" stroke-width="2" class="data-point"/>
  
    <circle cx="349.3854748603352" cy="297.43492924701224" r="4" fill="#3b82f6" stroke="#0d1117" stroke-width="2" class="data-point"/>
  
    <circle cx="353.2960893854749" cy="296.71750128308526" r="4" fill="#3b82f6" stroke="#0d1117" stroke-width="2" class="data-point"/>
  
    <circle cx="357.2067039106145" cy="296.0888811496444" r="4" fill="#3b82f6" stroke="#0d1117" stroke-width="2" class="data-point"/>
  
    <circle cx="361.11731843575416" cy="295.5508101766992" r="4" fill="#3b82f6" stroke="#0d1117" stroke-width="2" class="data-point"/>
  
    <circle cx="365.02793296089385" cy="294.960499303468" r="4" fill="#3b82f6" stroke="#0d1117" stroke-width="2" class="data-point"/>
  
    <circle cx="368.9385474860335" cy="294.3214311899699" r="4" fill="#3b82f6" stroke="#0d1117" stroke-width="2" class="data-point"/>
  
    <circle cx="372.8491620111732" cy="293.7293789867292" r="4" fill="#3b82f6" stroke="#0d1117" stroke-width="2" class="data-point"/>
  
    <circle cx="376.75977653631287" cy="292.9579697925068" r="4" fill="#3b82f6" stroke="#0d1117" stroke-width="2" class="data-point"/>
  
    <circle cx="380.6703910614525" cy="292.29452305887526" r="4" fill="#3b82f6" stroke="#0d1117" stroke-width="2" class="data-point"/>
  
    <circle cx="384.5810055865922" cy="291.65545494537724" r="4" fill="#3b82f6" stroke="#0d1117" stroke-width="2" class="data-point"/>
  
    <circle cx="388.49162011173183" cy="291.12434929247013" r="4" fill="#3b82f6" stroke="#0d1117" stroke-width="2" class="data-point"/>
  
    <circle cx="392.4022346368715" cy="290.6089156096488" r="4" fill="#3b82f6" stroke="#0d1117" stroke-width="2" class="data-point"/>
  
    <circle cx="396.31284916201116" cy="290.09174059681794" r="4" fill="#3b82f6" stroke="#0d1117" stroke-width="2" class="data-point"/>
  
    <circle cx="400.22346368715085" cy="289.47356844343426" r="4" fill="#3b82f6" stroke="#0d1117" stroke-width="2" class="data-point"/>
  
    <circle cx="404.1340782122905" cy="288.83798298995526" r="4" fill="#3b82f6" stroke="#0d1117" stroke-width="2" class="data-point"/>
  
    <circle cx="408.0446927374301" cy="288.06657379573284" r="4" fill="#3b82f6" stroke="#0d1117" stroke-width="2" class="data-point"/>
  
    <circle cx="411.9553072625699" cy="287.441436322311" r="4" fill="#3b82f6" stroke="#0d1117" stroke-width="2" class="data-point"/>
  
    <circle cx="415.86592178770945" cy="286.9312266295183" r="4" fill="#3b82f6" stroke="#0d1117" stroke-width="2" class="data-point"/>
  
    <circle cx="419.77653631284915" cy="286.4070862966493" r="4" fill="#3b82f6" stroke="#0d1117" stroke-width="2" class="data-point"/>
  
    <circle cx="423.6871508379888" cy="285.90558325390424" r="4" fill="#3b82f6" stroke="#0d1117" stroke-width="2" class="data-point"/>
  
    <circle cx="427.5977653631285" cy="285.28566977051105" r="4" fill="#3b82f6" stroke="#0d1117" stroke-width="2" class="data-point"/>
  
    <circle cx="431.50837988826817" cy="284.65008431703205" r="4" fill="#3b82f6" stroke="#0d1117" stroke-width="2" class="data-point"/>
  
    <circle cx="435.4189944134078" cy="283.24483099934014" r="4" fill="#3b82f6" stroke="#0d1117" stroke-width="2" class="data-point"/>
  
    <circle cx="439.3296089385475" cy="280.44825500403255" r="4" fill="#3b82f6" stroke="#0d1117" stroke-width="2" class="data-point"/>
  
    <circle cx="443.24022346368713" cy="277.1170906957988" r="4" fill="#3b82f6" stroke="#0d1117" stroke-width="2" class="data-point"/>
  
    <circle cx="447.1508379888268" cy="274.0819524891854" r="4" fill="#3b82f6" stroke="#0d1117" stroke-width="2" class="data-point"/>
  
    <circle cx="451.06145251396646" cy="272.5426167607596" r="4" fill="#3b82f6" stroke="#0d1117" stroke-width="2" class="data-point"/>
  
    <circle cx="454.97206703910615" cy="270.2231651880636" r="4" fill="#3b82f6" stroke="#0d1117" stroke-width="2" class="data-point"/>
  
    <circle cx="458.8826815642458" cy="268.68208812962826" r="4" fill="#3b82f6" stroke="#0d1117" stroke-width="2" class="data-point"/>
  
    <circle cx="462.7932960893855" cy="267.33081604223185" r="4" fill="#3b82f6" stroke="#0d1117" stroke-width="2" class="data-point"/>
  
    <circle cx="466.70391061452517" cy="266.0091465649974" r="4" fill="#3b82f6" stroke="#0d1117" stroke-width="2" class="data-point"/>
  
    <circle cx="470.6145251396648" cy="264.7640956081824" r="4" fill="#3b82f6" stroke="#0d1117" stroke-width="2" class="data-point"/>
  
    <circle cx="474.5251396648045" cy="262.82773663758337" r="4" fill="#3b82f6" stroke="#0d1117" stroke-width="2" class="data-point"/>
  
    <circle cx="478.43575418994413" cy="261.28840090915753" r="4" fill="#3b82f6" stroke="#0d1117" stroke-width="2" class="data-point"/>
  
    <circle cx="482.3463687150838" cy="259.320697998387" r="4" fill="#3b82f6" stroke="#0d1117" stroke-width="2" class="data-point"/>
  
    <circle cx="486.25698324022346" cy="258.9184507661852" r="4" fill="#3b82f6" stroke="#0d1117" stroke-width="2" class="data-point"/>
  
    <circle cx="490.16759776536315" cy="258.86621086589923" r="4" fill="#3b82f6" stroke="#0d1117" stroke-width="2" class="data-point"/>
  
    <circle cx="494.0782122905028" cy="258.79829899552755" r="4" fill="#3b82f6" stroke="#0d1117" stroke-width="2" class="data-point"/>
  
    <circle cx="497.9888268156425" cy="258.740835105213" r="4" fill="#3b82f6" stroke="#0d1117" stroke-width="2" class="data-point"/>
  
    <circle cx="501.89944134078206" cy="258.66595791480313" r="4" fill="#3b82f6" stroke="#0d1117" stroke-width="2" class="data-point"/>
  
    <circle cx="505.8100558659218" cy="258.59978737444095" r="4" fill="#3b82f6" stroke="#0d1117" stroke-width="2" class="data-point"/>
  
    <circle cx="509.7206703910615" cy="258.573667424298" r="4" fill="#3b82f6" stroke="#0d1117" stroke-width="2" class="data-point"/>
  
    <circle cx="513.6312849162011" cy="258.47789427377376" r="4" fill="#3b82f6" stroke="#0d1117" stroke-width="2" class="data-point"/>
  
    <circle cx="517.5418994413408" cy="258.38560378326855" r="4" fill="#3b82f6" stroke="#0d1117" stroke-width="2" class="data-point"/>
  
    <circle cx="521.4525139664804" cy="258.32465723293495" r="4" fill="#3b82f6" stroke="#0d1117" stroke-width="2" class="data-point"/>
  
    <circle cx="525.36312849162" cy="258.30201994281106" r="4" fill="#3b82f6" stroke="#0d1117" stroke-width="2" class="data-point"/>
  
    <circle cx="529.2737430167597" cy="258.1992814722487" r="4" fill="#3b82f6" stroke="#0d1117" stroke-width="2" class="data-point"/>
  
    <circle cx="533.1843575418994" cy="255.67435295842805" r="4" fill="#3b82f6" stroke="#0d1117" stroke-width="2" class="data-point"/>
  
    <circle cx="537.0949720670391" cy="251.71979250678203" r="4" fill="#3b82f6" stroke="#0d1117" stroke-width="2" class="data-point"/>
  
    <circle cx="541.0055865921788" cy="249.0712295622846" r="4" fill="#3b82f6" stroke="#0d1117" stroke-width="2" class="data-point"/>
  
    <circle cx="544.9162011173185" cy="245.99604076545202" r="4" fill="#3b82f6" stroke="#0d1117" stroke-width="2" class="data-point"/>
  
    <circle cx="548.8268156424581" cy="242.8268201481047" r="4" fill="#3b82f6" stroke="#0d1117" stroke-width="2" class="data-point"/>
  
    <circle cx="552.7374301675977" cy="240.34020089449373" r="4" fill="#3b82f6" stroke="#0d1117" stroke-width="2" class="data-point"/>
  
    <circle cx="556.6480446927374" cy="237.55929686927195" r="4" fill="#3b82f6" stroke="#0d1117" stroke-width="2" class="data-point"/>
  
    <circle cx="560.5586592178771" cy="233.32264095608184" r="4" fill="#3b82f6" stroke="#0d1117" stroke-width="2" class="data-point"/>
  
    <circle cx="564.4692737430167" cy="227.61281985482805" r="4" fill="#3b82f6" stroke="#0d1117" stroke-width="2" class="data-point"/>
  
    <circle cx="568.3798882681565" cy="223.8863736344307" r="4" fill="#3b82f6" stroke="#0d1117" stroke-width="2" class="data-point"/>
  
    <circle cx="572.290502793296" cy="219.45120610015397" r="4" fill="#3b82f6" stroke="#0d1117" stroke-width="2" class="data-point"/>
  
    <circle cx="576.2011173184358" cy="214.50931153310358" r="4" fill="#3b82f6" stroke="#0d1117" stroke-width="2" class="data-point"/>
  
    <circle cx="580.1117318435754" cy="210.54604443140994" r="4" fill="#3b82f6" stroke="#0d1117" stroke-width="2" class="data-point"/>
  
    <circle cx="584.022346368715" cy="206.24495930786713" r="4" fill="#3b82f6" stroke="#0d1117" stroke-width="2" class="data-point"/>
  
    <circle cx="587.9329608938548" cy="202.42970525698365" r="4" fill="#3b82f6" stroke="#0d1117" stroke-width="2" class="data-point"/>
  
    <circle cx="591.8435754189944" cy="198.6492778062908" r="4" fill="#3b82f6" stroke="#0d1117" stroke-width="2" class="data-point"/>
  
    <circle cx="595.754189944134" cy="194.8792983356551" r="4" fill="#3b82f6" stroke="#0d1117" stroke-width="2" class="data-point"/>
  
    <circle cx="599.6648044692737" cy="189.74585746755628" r="4" fill="#3b82f6" stroke="#0d1117" stroke-width="2" class="data-point"/>
  
    <circle cx="603.5754189944134" cy="184.59674462937167" r="4" fill="#3b82f6" stroke="#0d1117" stroke-width="2" class="data-point"/>
  
    <circle cx="607.4860335195531" cy="180.30436615587655" r="4" fill="#3b82f6" stroke="#0d1117" stroke-width="2" class="data-point"/>
  
    <circle cx="611.3966480446927" cy="176.7067783561845" r="4" fill="#3b82f6" stroke="#0d1117" stroke-width="2" class="data-point"/>
  
    <circle cx="615.3072625698325" cy="173.21715301708338" r="4" fill="#3b82f6" stroke="#0d1117" stroke-width="2" class="data-point"/>
  
    <circle cx="619.2178770949721" cy="168.58521519172962" r="4" fill="#3b82f6" stroke="#0d1117" stroke-width="2" class="data-point"/>
  
    <circle cx="623.1284916201117" cy="164.99285138206614" r="4" fill="#3b82f6" stroke="#0d1117" stroke-width="2" class="data-point"/>
  
    <circle cx="627.0391061452514" cy="161.43879683261235" r="4" fill="#3b82f6" stroke="#0d1117" stroke-width="2" class="data-point"/>
  
    <circle cx="630.9497206703911" cy="158.11459784441675" r="4" fill="#3b82f6" stroke="#0d1117" stroke-width="2" class="data-point"/>
  
    <circle cx="634.8603351955308" cy="154.98368648727913" r="4" fill="#3b82f6" stroke="#0d1117" stroke-width="2" class="data-point"/>
  
    <circle cx="638.7709497206704" cy="151.7761566097221" r="4" fill="#3b82f6" stroke="#0d1117" stroke-width="2" class="data-point"/>
  
    <circle cx="642.68156424581" cy="149.03356184471005" r="4" fill="#3b82f6" stroke="#0d1117" stroke-width="2" class="data-point"/>
  
    <circle cx="646.5921787709498" cy="146.19345259916417" r="4" fill="#3b82f6" stroke="#0d1117" stroke-width="2" class="data-point"/>
  
    <circle cx="650.5027932960894" cy="143.29413813329424" r="4" fill="#3b82f6" stroke="#0d1117" stroke-width="2" class="data-point"/>
  
    <circle cx="654.413407821229" cy="140.2293973165188" r="4" fill="#3b82f6" stroke="#0d1117" stroke-width="2" class="data-point"/>
  
    <circle cx="658.3240223463688" cy="137.41714935112546" r="4" fill="#3b82f6" stroke="#0d1117" stroke-width="2" class="data-point"/>
  
    <circle cx="662.2346368715083" cy="134.84172226702836" r="4" fill="#3b82f6" stroke="#0d1117" stroke-width="2" class="data-point"/>
  
    <circle cx="666.1452513966481" cy="130.17495784148397" r="4" fill="#3b82f6" stroke="#0d1117" stroke-width="2" class="data-point"/>
  
    <circle cx="670.0558659217877" cy="126.26915463010485" r="4" fill="#3b82f6" stroke="#0d1117" stroke-width="2" class="data-point"/>
  
    <circle cx="673.9664804469273" cy="122.51832978957401" r="4" fill="#3b82f6" stroke="#0d1117" stroke-width="2" class="data-point"/>
  
    <circle cx="677.877094972067" cy="118.91551799985336" r="4" fill="#3b82f6" stroke="#0d1117" stroke-width="2" class="data-point"/>
  
    <circle cx="681.7877094972067" cy="113.22659285871399" r="4" fill="#3b82f6" stroke="#0d1117" stroke-width="2" class="data-point"/>
  
    <circle cx="685.6983240223464" cy="109.62726372901241" r="4" fill="#3b82f6" stroke="#0d1117" stroke-width="2" class="data-point"/>
  
    <circle cx="689.608938547486" cy="106.51202434196057" r="4" fill="#3b82f6" stroke="#0d1117" stroke-width="2" class="data-point"/>
  
    <circle cx="693.5195530726257" cy="102.83259403182049" r="4" fill="#3b82f6" stroke="#0d1117" stroke-width="2" class="data-point"/>
  
    <circle cx="697.4301675977654" cy="97.40835105212992" r="4" fill="#3b82f6" stroke="#0d1117" stroke-width="2" class="data-point"/>
  
    <circle cx="701.340782122905" cy="93.50603050076984" r="4" fill="#3b82f6" stroke="#0d1117" stroke-width="2" class="data-point"/>
  
    <circle cx="705.2513966480446" cy="90.21143412273628" r="4" fill="#3b82f6" stroke="#0d1117" stroke-width="2" class="data-point"/>
  
    <circle cx="709.1620111731844" cy="87.42356477747637" r="4" fill="#3b82f6" stroke="#0d1117" stroke-width="2" class="data-point"/>
  
    <circle cx="713.072625698324" cy="84.77848449299805" r="4" fill="#3b82f6" stroke="#0d1117" stroke-width="2" class="data-point"/>
  
    <circle cx="716.9832402234637" cy="82.62794193122664" r="4" fill="#3b82f6" stroke="#0d1117" stroke-width="2" class="data-point"/>
  
    <circle cx="720.8938547486033" cy="80.20575188796835" r="4" fill="#3b82f6" stroke="#0d1117" stroke-width="2" class="data-point"/>
  
    <circle cx="724.804469273743" cy="78.23108365715962" r="4" fill="#3b82f6" stroke="#0d1117" stroke-width="2" class="data-point"/>
  
    <circle cx="728.7150837988827" cy="75.90118410440647" r="4" fill="#3b82f6" stroke="#0d1117" stroke-width="2" class="data-point"/>
  
    <circle cx="732.6256983240223" cy="72.54738250604879" r="4" fill="#3b82f6" stroke="#0d1117" stroke-width="2" class="data-point"/>
  
    <circle cx="736.5363128491621" cy="69.6654813402742" r="4" fill="#3b82f6" stroke="#0d1117" stroke-width="2" class="data-point"/>
  
    <circle cx="740.4469273743017" cy="67.15970745655841" r="4" fill="#3b82f6" stroke="#0d1117" stroke-width="2" class="data-point"/>
  
    <circle cx="744.3575418994413" cy="64.99349292470123" r="4" fill="#3b82f6" stroke="#0d1117" stroke-width="2" class="data-point"/>
  
    <circle cx="748.268156424581" cy="62.759366522472305" r="4" fill="#3b82f6" stroke="#0d1117" stroke-width="2" class="data-point"/>
  
    <circle cx="752.1787709497207" cy="60.87524745215927" r="4" fill="#3b82f6" stroke="#0d1117" stroke-width="2" class="data-point"/>
  
    <circle cx="756.0893854748603" cy="57.70776816482146" r="4" fill="#3b82f6" stroke="#0d1117" stroke-width="2" class="data-point"/>
  
    <circle cx="760" cy="55" r="4" fill="#3b82f6" stroke="#0d1117" stroke-width="2" class="data-point"/>
  

  <!-- Axis lines -->
  <line x1="60" y1="55" x2="60" y2="340"
        stroke="#30363d" stroke-width="2"/>
  <line x1="60" y1="340" x2="760" y2="340"
        stroke="#30363d" stroke-width="2"/>
</svg>