<?xml version="1.0" encoding="UTF-8"?>
<svg width="800" height="400" xmlns="http://www.w3.org/2000/svg">
  <defs>
    <!-- Gradient for area fill -->
    <linearGradient id="areaGradient" x1="0%" y1="0%" x2="0%" y2="100%">
      <stop offset="0%" style="stop-color:#3b82f6;stop-opacity:0.3" />
      <stop offset="100%" style="stop-color:#3b82f6;stop-opacity:0.05" />
    </linearGradient>

    <!-- Glow filter for line -->
    <filter id="glow">
      <feGaussianBlur stdDeviation="2" result="coloredBlur"/>
      <feMerge>
        <feMergeNode in="coloredBlur"/>
        <feMergeNode in="SourceGraphic"/>
      </feMerge>
    </filter>

    <!-- Animation -->
    <style>
      @keyframes draw {
        from { stroke-dashoffset: 2000; }
        to { stroke-dashoffset: 0; }
      }
      @keyframes fadeIn {
        from { opacity: 0; }
        to { opacity: 1; }
      }
      .line-path {
        stroke-dasharray: 2000;
        stroke-dashoffset: 2000;
        animation: draw 1.5s ease-out forwards;
      }
      .area-path {
        opacity: 0;
        animation: fadeIn 1s ease-out 0.5s forwards;
      }
      .data-point {
        opacity: 0;
        animation: fadeIn 0.5s ease-out 1s forwards;
      }
    </style>
  </defs>

  <!-- Background -->
  <rect width="800" height="400" fill="#0d1117" rx="8"/>

  <!-- Title -->
  <text x="400" y="25" text-anchor="middle" fill="#c9d1d9" font-family="system-ui, -apple-system, sans-serif" font-size="16" font-weight="600">
    zxcloli666/SoundCloud-Desktop Downloads
  </text>

  <!-- Stats -->
  <text x="780" y="25" text-anchor="end" fill="#58a6ff" font-family="system-ui, -apple-system, sans-serif" font-size="14" font-weight="600">
    263.0K total
  </text>
  <text x="780" y="42" text-anchor="end" fill="#3fb950" font-family="system-ui, -apple-system, sans-serif" font-size="12">
    +1.4K (+0.5%)
  </text>

  <!-- Grid lines -->
  <g opacity="0.1">
    
      <line x1="60" y1="340" x2="760" y2="340"
            stroke="#c9d1d9" stroke-width="1"/>
    
      <line x1="60" y1="268.75" x2="760" y2="268.75"
            stroke="#c9d1d9" stroke-width="1"/>
    
      <line x1="60" y1="197.5" x2="760" y2="197.5"
            stroke="#c9d1d9" stroke-width="1"/>
    
      <line x1="60" y1="126.25" x2="760" y2="126.25"
            stroke="#c9d1d9" stroke-width="1"/>
    
      <line x1="60" y1="55" x2="760" y2="55"
            stroke="#c9d1d9" stroke-width="1"/>
    
  </g>

  <!-- Y-axis labels -->
  
    <text x="50" y="344" text-anchor="end"
          fill="#8b949e" font-family="system-ui, -apple-system, sans-serif" font-size="11">
      60.2K
    </text>
  
    <text x="50" y="272.75" text-anchor="end"
          fill="#8b949e" font-family="system-ui, -apple-system, sans-serif" font-size="11">
      110.9K
    </text>
  
    <text x="50" y="201.5" text-anchor="end"
          fill="#8b949e" font-family="system-ui, -apple-system, sans-serif" font-size="11">
      161.6K
    </text>
  
    <text x="50" y="130.25" text-anchor="end"
          fill="#8b949e" font-family="system-ui, -apple-system, sans-serif" font-size="11">
      212.3K
    </text>
  
    <text x="50" y="59" text-anchor="end"
          fill="#8b949e" font-family="system-ui, -apple-system, sans-serif" font-size="11">
      263.0K
    </text>
  

  <!-- X-axis labels -->
  
    <text x="60" y="360" text-anchor="middle"
          fill="#8b949e" font-family="system-ui, -apple-system, sans-serif" font-size="11">
      Nov 25
    </text>
  
    <text x="146.66666666666669" y="360" text-anchor="middle"
          fill="#8b949e" font-family="system-ui, -apple-system, sans-serif" font-size="11">
      Dec 21
    </text>
  
    <text x="233.33333333333334" y="360" text-anchor="middle"
          fill="#8b949e" font-family="system-ui, -apple-system, sans-serif" font-size="11">
      Jan 16
    </text>
  
    <text x="320" y="360" text-anchor="middle"
          fill="#8b949e" font-family="system-ui, -apple-system, sans-serif" font-size="11">
      Feb 11
    </text>
  
    <text x="406.6666666666667" y="360" text-anchor="middle"
          fill="#8b949e" font-family="system-ui, -apple-system, sans-serif" font-size="11">
      Mar 9
    </text>
  
    <text x="493.33333333333337" y="360" text-anchor="middle"
          fill="#8b949e" font-family="system-ui, -apple-system, sans-serif" font-size="11">
      Apr 4
    </text>
  
    <text x="580" y="360" text-anchor="middle"
          fill="#8b949e" font-family="system-ui, -apple-system, sans-serif" font-size="11">
      Apr 30
    </text>
  
    <text x="666.6666666666667" y="360" text-anchor="middle"
          fill="#8b949e" font-family="system-ui, -apple-system, sans-serif" font-size="11">
      May 26
    </text>
  
    <text x="753.3333333333334" y="360" text-anchor="middle"
          fill="#8b949e" font-family="system-ui, -apple-system, sans-serif" font-size="11">
      Jun 21
    </text>
  
    <text x="760" y="360" text-anchor="middle"
          fill="#8b949e" font-family="system-ui, -apple-system, sans-serif" font-size="11">
      Jun 23
    </text>
  

  <!-- Area under line -->
  <path d="M 60 340
    L 60.00 340.00 L 63.33 339.79 L 66.67 339.44 L 70.00 339.12 L 73.33 338.47 L 76.67 337.80 L 80.00 337.27 L 83.33 336.78 L 86.67 336.34 L 90.00 335.83 L 93.33 335.26 L 96.67 334.65 L 100.00 334.09 L 103.33 333.50 L 106.67 333.07 L 110.00 332.62 L 113.33 332.01 L 116.67 331.61 L 120.00 331.05 L 123.33 330.40 L 126.67 329.91 L 130.00 329.51 L 133.33 329.25 L 136.67 329.03 L 140.00 328.63 L 143.33 328.34 L 146.67 327.72 L 150.00 327.47 L 153.33 327.15 L 156.67 326.74 L 160.00 326.46 L 163.33 326.18 L 166.67 325.88 L 170.00 325.67 L 173.33 325.49 L 176.67 325.22 L 180.00 324.88 L 183.33 324.58 L 186.67 324.19 L 190.00 323.77 L 193.33 323.38 L 196.67 322.91 L 200.00 322.45 L 203.33 321.99 L 206.67 321.49 L 210.00 321.01 L 213.33 320.46 L 216.67 319.97 L 220.00 319.55 L 223.33 319.22 L 226.67 318.76 L 230.00 318.23 L 233.33 317.74 L 236.67 317.18 L 240.00 316.48 L 243.33 315.96 L 246.67 315.53 L 250.00 315.12 L 253.33 314.63 L 256.67 314.05 L 260.00 313.42 L 263.33 312.75 L 266.67 312.11 L 270.00 311.55 L 273.33 310.99 L 276.67 310.49 L 280.00 309.99 L 283.33 309.43 L 286.67 308.73 L 290.00 308.21 L 293.33 307.74 L 296.67 307.22 L 300.00 306.74 L 303.33 306.21 L 306.67 305.65 L 310.00 305.07 L 313.33 304.57 L 316.67 304.13 L 320.00 303.66 L 323.33 303.14 L 326.67 302.66 L 330.00 302.04 L 333.33 301.51 L 336.67 300.99 L 340.00 300.56 L 343.33 300.15 L 346.67 299.73 L 350.00 299.23 L 353.33 298.72 L 356.67 298.09 L 360.00 297.59 L 363.33 297.18 L 366.67 296.76 L 370.00 296.35 L 373.33 295.85 L 376.67 295.34 L 380.00 294.20 L 383.33 291.95 L 386.67 289.26 L 390.00 286.81 L 393.33 285.57 L 396.67 283.70 L 400.00 282.45 L 403.33 281.36 L 406.67 280.30 L 410.00 279.29 L 413.33 277.73 L 416.67 276.49 L 420.00 274.90 L 423.33 274.57 L 426.67 274.53 L 430.00 274.48 L 433.33 274.43 L 436.67 274.37 L 440.00 274.32 L 443.33 274.30 L 446.67 274.22 L 450.00 274.14 L 453.33 274.10 L 456.67 274.08 L 460.00 273.99 L 463.33 271.96 L 466.67 268.77 L 470.00 266.63 L 473.33 264.15 L 476.67 261.59 L 480.00 259.58 L 483.33 257.34 L 486.67 253.92 L 490.00 249.31 L 493.33 246.31 L 496.67 242.73 L 500.00 238.74 L 503.33 235.54 L 506.67 232.07 L 510.00 228.99 L 513.33 225.94 L 516.67 222.90 L 520.00 218.76 L 523.33 214.60 L 526.67 211.14 L 530.00 208.24 L 533.33 205.42 L 536.67 201.68 L 540.00 198.78 L 543.33 195.92 L 546.67 193.23 L 550.00 190.71 L 553.33 188.12 L 556.67 185.91 L 560.00 183.61 L 563.33 181.28 L 566.67 178.80 L 570.00 176.53 L 573.33 174.45 L 576.67 170.69 L 580.00 167.54 L 583.33 164.51 L 586.67 161.60 L 590.00 157.01 L 593.33 154.11 L 596.67 151.60 L 600.00 148.63 L 603.33 144.25 L 606.67 141.10 L 610.00 138.44 L 613.33 136.19 L 616.67 134.06 L 620.00 132.32 L 623.33 130.37 L 626.67 128.77 L 630.00 126.89 L 633.33 124.19 L 636.67 121.86 L 640.00 119.84 L 643.33 118.09 L 646.67 116.29 L 650.00 114.77 L 653.33 112.21 L 656.67 110.03 L 660.00 107.86 L 663.33 106.07 L 666.67 104.43 L 670.00 102.98 L 673.33 100.48 L 676.67 98.45 L 680.00 96.60 L 683.33 94.83 L 686.67 93.29 L 690.00 91.80 L 693.33 90.42 L 696.67 89.11 L 700.00 87.90 L 703.33 86.40 L 706.67 84.78 L 710.00 83.30 L 713.33 80.99 L 716.67 79.31 L 720.00 77.71 L 723.33 76.30 L 726.67 74.65 L 730.00 72.62 L 733.33 70.83 L 736.67 69.23 L 740.00 67.48 L 743.33 65.08 L 746.67 63.11 L 750.00 61.00 L 753.33 58.89 L 756.67 56.93 L 760.00 55.00
    L 760 340
    Z" fill="url(#areaGradient)" class="area-path"/>

  <!-- Main line with glow -->
  <path d="M 60.00 340.00 L 63.33 339.79 L 66.67 339.44 L 70.00 339.12 L 73.33 338.47 L 76.67 337.80 L 80.00 337.27 L 83.33 336.78 L 86.67 336.34 L 90.00 335.83 L 93.33 335.26 L 96.67 334.65 L 100.00 334.09 L 103.33 333.50 L 106.67 333.07 L 110.00 332.62 L 113.33 332.01 L 116.67 331.61 L 120.00 331.05 L 123.33 330.40 L 126.67 329.91 L 130.00 329.51 L 133.33 329.25 L 136.67 329.03 L 140.00 328.63 L 143.33 328.34 L 146.67 327.72 L 150.00 327.47 L 153.33 327.15 L 156.67 326.74 L 160.00 326.46 L 163.33 326.18 L 166.67 325.88 L 170.00 325.67 L 173.33 325.49 L 176.67 325.22 L 180.00 324.88 L 183.33 324.58 L 186.67 324.19 L 190.00 323.77 L 193.33 323.38 L 196.67 322.91 L 200.00 322.45 L 203.33 321.99 L 206.67 321.49 L 210.00 321.01 L 213.33 320.46 L 216.67 319.97 L 220.00 319.55 L 223.33 319.22 L 226.67 318.76 L 230.00 318.23 L 233.33 317.74 L 236.67 317.18 L 240.00 316.48 L 243.33 315.96 L 246.67 315.53 L 250.00 315.12 L 253.33 314.63 L 256.67 314.05 L 260.00 313.42 L 263.33 312.75 L 266.67 312.11 L 270.00 311.55 L 273.33 310.99 L 276.67 310.49 L 280.00 309.99 L 283.33 309.43 L 286.67 308.73 L 290.00 308.21 L 293.33 307.74 L 296.67 307.22 L 300.00 306.74 L 303.33 306.21 L 306.67 305.65 L 310.00 305.07 L 313.33 304.57 L 316.67 304.13 L 320.00 303.66 L 323.33 303.14 L 326.67 302.66 L 330.00 302.04 L 333.33 301.51 L 336.67 300.99 L 340.00 300.56 L 343.33 300.15 L 346.67 299.73 L 350.00 299.23 L 353.33 298.72 L 356.67 298.09 L 360.00 297.59 L 363.33 297.18 L 366.67 296.76 L 370.00 296.35 L 373.33 295.85 L 376.67 295.34 L 380.00 294.20 L 383.33 291.95 L 386.67 289.26 L 390.00 286.81 L 393.33 285.57 L 396.67 283.70 L 400.00 282.45 L 403.33 281.36 L 406.67 280.30 L 410.00 279.29 L 413.33 277.73 L 416.67 276.49 L 420.00 274.90 L 423.33 274.57 L 426.67 274.53 L 430.00 274.48 L 433.33 274.43 L 436.67 274.37 L 440.00 274.32 L 443.33 274.30 L 446.67 274.22 L 450.00 274.14 L 453.33 274.10 L 456.67 274.08 L 460.00 273.99 L 463.33 271.96 L 466.67 268.77 L 470.00 266.63 L 473.33 264.15 L 476.67 261.59 L 480.00 259.58 L 483.33 257.34 L 486.67 253.92 L 490.00 249.31 L 493.33 246.31 L 496.67 242.73 L 500.00 238.74 L 503.33 235.54 L 506.67 232.07 L 510.00 228.99 L 513.33 225.94 L 516.67 222.90 L 520.00 218.76 L 523.33 214.60 L 526.67 211.14 L 530.00 208.24 L 533.33 205.42 L 536.67 201.68 L 540.00 198.78 L 543.33 195.92 L 546.67 193.23 L 550.00 190.71 L 553.33 188.12 L 556.67 185.91 L 560.00 183.61 L 563.33 181.28 L 566.67 178.80 L 570.00 176.53 L 573.33 174.45 L 576.67 170.69 L 580.00 167.54 L 583.33 164.51 L 586.67 161.60 L 590.00 157.01 L 593.33 154.11 L 596.67 151.60 L 600.00 148.63 L 603.33 144.25 L 606.67 141.10 L 610.00 138.44 L 613.33 136.19 L 616.67 134.06 L 620.00 132.32 L 623.33 130.37 L 626.67 128.77 L 630.00 126.89 L 633.33 124.19 L 636.67 121.86 L 640.00 119.84 L 643.33 118.09 L 646.67 116.29 L 650.00 114.77 L 653.33 112.21 L 656.67 110.03 L 660.00 107.86 L 663.33 106.07 L 666.67 104.43 L 670.00 102.98 L 673.33 100.48 L 676.67 98.45 L 680.00 96.60 L 683.33 94.83 L 686.67 93.29 L 690.00 91.80 L 693.33 90.42 L 696.67 89.11 L 700.00 87.90 L 703.33 86.40 L 706.67 84.78 L 710.00 83.30 L 713.33 80.99 L 716.67 79.31 L 720.00 77.71 L 723.33 76.30 L 726.67 74.65 L 730.00 72.62 L 733.33 70.83 L 736.67 69.23 L 740.00 67.48 L 743.33 65.08 L 746.67 63.11 L 750.00 61.00 L 753.33 58.89 L 756.67 56.93 L 760.00 55.00" fill="none" stroke="#3b82f6" stroke-width="3"
        stroke-linecap="round" stroke-linejoin="round" filter="url(#glow)" class="line-path"/>

  <!-- Data points -->
  
    <circle cx="60" cy="340" r="4" fill="#3b82f6" stroke="#0d1117" stroke-width="2" class="data-point"/>
  
    <circle cx="63.333333333333336" cy="339.7934497515185" r="4" fill="#3b82f6" stroke="#0d1117" stroke-width="2" class="data-point"/>
  
    <circle cx="66.66666666666667" cy="339.4421738187268" r="4" fill="#3b82f6" stroke="#0d1117" stroke-width="2" class="data-point"/>
  
    <circle cx="70" cy="339.11618975309614" r="4" fill="#3b82f6" stroke="#0d1117" stroke-width="2" class="data-point"/>
  
    <circle cx="73.33333333333333" cy="338.46843693302833" r="4" fill="#3b82f6" stroke="#0d1117" stroke-width="2" class="data-point"/>
  
    <circle cx="76.66666666666666" cy="337.79960755699295" r="4" fill="#3b82f6" stroke="#0d1117" stroke-width="2" class="data-point"/>
  
    <circle cx="80" cy="337.27269365780546" r="4" fill="#3b82f6" stroke="#0d1117" stroke-width="2" class="data-point"/>
  
    <circle cx="83.33333333333333" cy="336.78090735189716" r="4" fill="#3b82f6" stroke="#0d1117" stroke-width="2" class="data-point"/>
  
    <circle cx="86.66666666666667" cy="336.3439200915043" r="4" fill="#3b82f6" stroke="#0d1117" stroke-width="2" class="data-point"/>
  
    <circle cx="90" cy="335.83105722962847" r="4" fill="#3b82f6" stroke="#0d1117" stroke-width="2" class="data-point"/>
  
    <circle cx="93.33333333333333" cy="335.2591800110436" r="4" fill="#3b82f6" stroke="#0d1117" stroke-width="2" class="data-point"/>
  
    <circle cx="96.66666666666666" cy="334.64655478425493" r="4" fill="#3b82f6" stroke="#0d1117" stroke-width="2" class="data-point"/>
  
    <circle cx="100" cy="334.09013370671295" r="4" fill="#3b82f6" stroke="#0d1117" stroke-width="2" class="data-point"/>
  
    <circle cx="103.33333333333334" cy="333.4985850358918" r="4" fill="#3b82f6" stroke="#0d1117" stroke-width="2" class="data-point"/>
  
    <circle cx="106.66666666666666" cy="333.0672181904236" r="4" fill="#3b82f6" stroke="#0d1117" stroke-width="2" class="data-point"/>
  
    <circle cx="110" cy="332.6203952039126" r="4" fill="#3b82f6" stroke="#0d1117" stroke-width="2" class="data-point"/>
  
    <circle cx="113.33333333333334" cy="332.01339039204856" r="4" fill="#3b82f6" stroke="#0d1117" stroke-width="2" class="data-point"/>
  
    <circle cx="116.66666666666667" cy="331.60731541374145" r="4" fill="#3b82f6" stroke="#0d1117" stroke-width="2" class="data-point"/>
  
    <circle cx="120" cy="331.04527392127477" r="4" fill="#3b82f6" stroke="#0d1117" stroke-width="2" class="data-point"/>
  
    <circle cx="123.33333333333333" cy="330.39611599747576" r="4" fill="#3b82f6" stroke="#0d1117" stroke-width="2" class="data-point"/>
  
    <circle cx="126.66666666666666" cy="329.90713989902974" r="4" fill="#3b82f6" stroke="#0d1117" stroke-width="2" class="data-point"/>
  
    <circle cx="130" cy="329.50528023191606" r="4" fill="#3b82f6" stroke="#0d1117" stroke-width="2" class="data-point"/>
  
    <circle cx="133.33333333333331" cy="329.24533604165026" r="4" fill="#3b82f6" stroke="#0d1117" stroke-width="2" class="data-point"/>
  
    <circle cx="136.66666666666669" cy="329.0289500670506" r="4" fill="#3b82f6" stroke="#0d1117" stroke-width="2" class="data-point"/>
  
    <circle cx="140" cy="328.62849550366803" r="4" fill="#3b82f6" stroke="#0d1117" stroke-width="2" class="data-point"/>
  
    <circle cx="143.33333333333331" cy="328.34325944624123" r="4" fill="#3b82f6" stroke="#0d1117" stroke-width="2" class="data-point"/>
  
    <circle cx="146.66666666666669" cy="327.717988285872" r="4" fill="#3b82f6" stroke="#0d1117" stroke-width="2" class="data-point"/>
  
    <circle cx="150" cy="327.4720951329179" r="4" fill="#3b82f6" stroke="#0d1117" stroke-width="2" class="data-point"/>
  
    <circle cx="153.33333333333331" cy="327.1545416896742" r="4" fill="#3b82f6" stroke="#0d1117" stroke-width="2" class="data-point"/>
  
    <circle cx="156.66666666666669" cy="326.74425140017354" r="4" fill="#3b82f6" stroke="#0d1117" stroke-width="2" class="data-point"/>
  
    <circle cx="160" cy="326.46323065394023" r="4" fill="#3b82f6" stroke="#0d1117" stroke-width="2" class="data-point"/>
  
    <circle cx="163.33333333333331" cy="326.1779945965134" r="4" fill="#3b82f6" stroke="#0d1117" stroke-width="2" class="data-point"/>
  
    <circle cx="166.66666666666669" cy="325.87870750177484" r="4" fill="#3b82f6" stroke="#0d1117" stroke-width="2" class="data-point"/>
  
    <circle cx="170" cy="325.6707521495622" r="4" fill="#3b82f6" stroke="#0d1117" stroke-width="2" class="data-point"/>
  
    <circle cx="173.33333333333334" cy="325.4908988719729" r="4" fill="#3b82f6" stroke="#0d1117" stroke-width="2" class="data-point"/>
  
    <circle cx="176.66666666666666" cy="325.21690364439536" r="4" fill="#3b82f6" stroke="#0d1117" stroke-width="2" class="data-point"/>
  
    <circle cx="180" cy="324.88389406010884" r="4" fill="#3b82f6" stroke="#0d1117" stroke-width="2" class="data-point"/>
  
    <circle cx="183.33333333333334" cy="324.57758144671453" r="4" fill="#3b82f6" stroke="#0d1117" stroke-width="2" class="data-point"/>
  
    <circle cx="186.66666666666666" cy="324.1897728169125" r="4" fill="#3b82f6" stroke="#0d1117" stroke-width="2" class="data-point"/>
  
    <circle cx="190" cy="323.76683659383133" r="4" fill="#3b82f6" stroke="#0d1117" stroke-width="2" class="data-point"/>
  
    <circle cx="193.33333333333331" cy="323.3790279640293" r="4" fill="#3b82f6" stroke="#0d1117" stroke-width="2" class="data-point"/>
  
    <circle cx="196.66666666666666" cy="322.91112842155087" r="4" fill="#3b82f6" stroke="#0d1117" stroke-width="2" class="data-point"/>
  
    <circle cx="200" cy="322.45165950145935" r="4" fill="#3b82f6" stroke="#0d1117" stroke-width="2" class="data-point"/>
  
    <circle cx="203.33333333333334" cy="321.9921905813678" r="4" fill="#3b82f6" stroke="#0d1117" stroke-width="2" class="data-point"/>
  
    <circle cx="206.66666666666666" cy="321.4891634456102" r="4" fill="#3b82f6" stroke="#0d1117" stroke-width="2" class="data-point"/>
  
    <circle cx="210" cy="321.00861796955115" r="4" fill="#3b82f6" stroke="#0d1117" stroke-width="2" class="data-point"/>
  
    <circle cx="213.33333333333334" cy="320.459222410665" r="4" fill="#3b82f6" stroke="#0d1117" stroke-width="2" class="data-point"/>
  
    <circle cx="216.66666666666669" cy="319.9688412084878" r="4" fill="#3b82f6" stroke="#0d1117" stroke-width="2" class="data-point"/>
  
    <circle cx="220" cy="319.55433560779363" r="4" fill="#3b82f6" stroke="#0d1117" stroke-width="2" class="data-point"/>
  
    <circle cx="223.33333333333334" cy="319.2227311272383" r="4" fill="#3b82f6" stroke="#0d1117" stroke-width="2" class="data-point"/>
  
    <circle cx="226.66666666666666" cy="318.7590468959533" r="4" fill="#3b82f6" stroke="#0d1117" stroke-width="2" class="data-point"/>
  
    <circle cx="230" cy="318.22932278930347" r="4" fill="#3b82f6" stroke="#0d1117" stroke-width="2" class="data-point"/>
  
    <circle cx="233.33333333333334" cy="317.74456200205094" r="4" fill="#3b82f6" stroke="#0d1117" stroke-width="2" class="data-point"/>
  
    <circle cx="236.66666666666666" cy="317.1783051983908" r="4" fill="#3b82f6" stroke="#0d1117" stroke-width="2" class="data-point"/>
  
    <circle cx="239.99999999999997" cy="316.47996864400096" r="4" fill="#3b82f6" stroke="#0d1117" stroke-width="2" class="data-point"/>
  
    <circle cx="243.33333333333334" cy="315.96008026346925" r="4" fill="#3b82f6" stroke="#0d1117" stroke-width="2" class="data-point"/>
  
    <circle cx="246.66666666666666" cy="315.52871341800113" r="4" fill="#3b82f6" stroke="#0d1117" stroke-width="2" class="data-point"/>
  
    <circle cx="249.99999999999997" cy="315.1184231285004" r="4" fill="#3b82f6" stroke="#0d1117" stroke-width="2" class="data-point"/>
  
    <circle cx="253.33333333333334" cy="314.6252317188609" r="4" fill="#3b82f6" stroke="#0d1117" stroke-width="2" class="data-point"/>
  
    <circle cx="256.66666666666663" cy="314.0519493965449" r="4" fill="#3b82f6" stroke="#0d1117" stroke-width="2" class="data-point"/>
  
    <circle cx="260" cy="313.41684251005756" r="4" fill="#3b82f6" stroke="#0d1117" stroke-width="2" class="data-point"/>
  
    <circle cx="263.33333333333337" cy="312.7494182377534" r="4" fill="#3b82f6" stroke="#0d1117" stroke-width="2" class="data-point"/>
  
    <circle cx="266.66666666666663" cy="312.1086909363414" r="4" fill="#3b82f6" stroke="#0d1117" stroke-width="2" class="data-point"/>
  
    <circle cx="270" cy="311.54524434014354" r="4" fill="#3b82f6" stroke="#0d1117" stroke-width="2" class="data-point"/>
  
    <circle cx="273.33333333333337" cy="310.9860130551392" r="4" fill="#3b82f6" stroke="#0d1117" stroke-width="2" class="data-point"/>
  
    <circle cx="276.6666666666667" cy="310.4928216454997" r="4" fill="#3b82f6" stroke="#0d1117" stroke-width="2" class="data-point"/>
  
    <circle cx="280" cy="309.98979450974207" r="4" fill="#3b82f6" stroke="#0d1117" stroke-width="2" class="data-point"/>
  
    <circle cx="283.3333333333333" cy="309.4277530172754" r="4" fill="#3b82f6" stroke="#0d1117" stroke-width="2" class="data-point"/>
  
    <circle cx="286.6666666666667" cy="308.7280113591544" r="4" fill="#3b82f6" stroke="#0d1117" stroke-width="2" class="data-point"/>
  
    <circle cx="290" cy="308.2067178748915" r="4" fill="#3b82f6" stroke="#0d1117" stroke-width="2" class="data-point"/>
  
    <circle cx="293.3333333333333" cy="307.7402234361442" r="4" fill="#3b82f6" stroke="#0d1117" stroke-width="2" class="data-point"/>
  
    <circle cx="296.6666666666667" cy="307.2217401593437" r="4" fill="#3b82f6" stroke="#0d1117" stroke-width="2" class="data-point"/>
  
    <circle cx="300" cy="306.7383844758224" r="4" fill="#3b82f6" stroke="#0d1117" stroke-width="2" class="data-point"/>
  
    <circle cx="303.3333333333333" cy="306.20725526544135" r="4" fill="#3b82f6" stroke="#0d1117" stroke-width="2" class="data-point"/>
  
    <circle cx="306.6666666666667" cy="305.65364439536165" r="4" fill="#3b82f6" stroke="#0d1117" stroke-width="2" class="data-point"/>
  
    <circle cx="310" cy="305.074741658121" r="4" fill="#3b82f6" stroke="#0d1117" stroke-width="2" class="data-point"/>
  
    <circle cx="313.3333333333333" cy="304.56749921116983" r="4" fill="#3b82f6" stroke="#0d1117" stroke-width="2" class="data-point"/>
  
    <circle cx="316.66666666666663" cy="304.1333221582393" r="4" fill="#3b82f6" stroke="#0d1117" stroke-width="2" class="data-point"/>
  
    <circle cx="320" cy="303.6569919933738" r="4" fill="#3b82f6" stroke="#0d1117" stroke-width="2" class="data-point"/>
  
    <circle cx="323.3333333333333" cy="303.14131892403566" r="4" fill="#3b82f6" stroke="#0d1117" stroke-width="2" class="data-point"/>
  
    <circle cx="326.66666666666663" cy="302.66358365543897" r="4" fill="#3b82f6" stroke="#0d1117" stroke-width="2" class="data-point"/>
  
    <circle cx="330" cy="302.04112270253216" r="4" fill="#3b82f6" stroke="#0d1117" stroke-width="2" class="data-point"/>
  
    <circle cx="333.3333333333333" cy="301.50577818095763" r="4" fill="#3b82f6" stroke="#0d1117" stroke-width="2" class="data-point"/>
  
    <circle cx="336.66666666666663" cy="300.99010511161947" r="4" fill="#3b82f6" stroke="#0d1117" stroke-width="2" class="data-point"/>
  
    <circle cx="340" cy="300.56154847361364" r="4" fill="#3b82f6" stroke="#0d1117" stroke-width="2" class="data-point"/>
  
    <circle cx="343.3333333333333" cy="300.1456377691883" r="4" fill="#3b82f6" stroke="#0d1117" stroke-width="2" class="data-point"/>
  
    <circle cx="346.6666666666667" cy="299.7283219610318" r="4" fill="#3b82f6" stroke="#0d1117" stroke-width="2" class="data-point"/>
  
    <circle cx="350" cy="299.22951013646764" r="4" fill="#3b82f6" stroke="#0d1117" stroke-width="2" class="data-point"/>
  
    <circle cx="353.3333333333333" cy="298.71664727459176" r="4" fill="#3b82f6" stroke="#0d1117" stroke-width="2" class="data-point"/>
  
    <circle cx="356.6666666666667" cy="298.09418632168496" r="4" fill="#3b82f6" stroke="#0d1117" stroke-width="2" class="data-point"/>
  
    <circle cx="360" cy="297.5897540821961" r="4" fill="#3b82f6" stroke="#0d1117" stroke-width="2" class="data-point"/>
  
    <circle cx="363.33333333333337" cy="297.17805868896426" r="4" fill="#3b82f6" stroke="#0d1117" stroke-width="2" class="data-point"/>
  
    <circle cx="366.6666666666667" cy="296.7551224658831" r="4" fill="#3b82f6" stroke="#0d1117" stroke-width="2" class="data-point"/>
  
    <circle cx="370" cy="296.3504525913071" r="4" fill="#3b82f6" stroke="#0d1117" stroke-width="2" class="data-point"/>
  
    <circle cx="373.33333333333337" cy="295.85023566301174" r="4" fill="#3b82f6" stroke="#0d1117" stroke-width="2" class="data-point"/>
  
    <circle cx="376.6666666666667" cy="295.3373728011359" r="4" fill="#3b82f6" stroke="#0d1117" stroke-width="2" class="data-point"/>
  
    <circle cx="380" cy="294.2034540900844" r="4" fill="#3b82f6" stroke="#0d1117" stroke-width="2" class="data-point"/>
  
    <circle cx="383.33333333333337" cy="291.9468574978307" r="4" fill="#3b82f6" stroke="#0d1117" stroke-width="2" class="data-point"/>
  
    <circle cx="386.6666666666667" cy="289.25889406010884" r="4" fill="#3b82f6" stroke="#0d1117" stroke-width="2" class="data-point"/>
  
    <circle cx="390" cy="286.8097982566853" r="4" fill="#3b82f6" stroke="#0d1117" stroke-width="2" class="data-point"/>
  
    <circle cx="393.3333333333333" cy="285.567686558334" r="4" fill="#3b82f6" stroke="#0d1117" stroke-width="2" class="data-point"/>
  
    <circle cx="396.6666666666667" cy="283.69608838842" r="4" fill="#3b82f6" stroke="#0d1117" stroke-width="2" class="data-point"/>
  
    <circle cx="400" cy="282.45257158633746" r="4" fill="#3b82f6" stroke="#0d1117" stroke-width="2" class="data-point"/>
  
    <circle cx="403.3333333333333" cy="281.3622110909521" r="4" fill="#3b82f6" stroke="#0d1117" stroke-width="2" class="data-point"/>
  
    <circle cx="406.6666666666667" cy="280.29573735899663" r="4" fill="#3b82f6" stroke="#0d1117" stroke-width="2" class="data-point"/>
  
    <circle cx="410" cy="279.29108819121245" r="4" fill="#3b82f6" stroke="#0d1117" stroke-width="2" class="data-point"/>
  
    <circle cx="413.3333333333333" cy="277.7286128421551" r="4" fill="#3b82f6" stroke="#0d1117" stroke-width="2" class="data-point"/>
  
    <circle cx="416.66666666666663" cy="276.48650114380376" r="4" fill="#3b82f6" stroke="#0d1117" stroke-width="2" class="data-point"/>
  
    <circle cx="419.99999999999994" cy="274.8987339275854" r="4" fill="#3b82f6" stroke="#0d1117" stroke-width="2" class="data-point"/>
  
    <circle cx="423.33333333333337" cy="274.5741549656859" r="4" fill="#3b82f6" stroke="#0d1117" stroke-width="2" class="data-point"/>
  
    <circle cx="426.6666666666667" cy="274.5320018537509" r="4" fill="#3b82f6" stroke="#0d1117" stroke-width="2" class="data-point"/>
  
    <circle cx="430" cy="274.4772028082354" r="4" fill="#3b82f6" stroke="#0d1117" stroke-width="2" class="data-point"/>
  
    <circle cx="433.3333333333333" cy="274.4308343851069" r="4" fill="#3b82f6" stroke="#0d1117" stroke-width="2" class="data-point"/>
  
    <circle cx="436.66666666666663" cy="274.3704149246667" r="4" fill="#3b82f6" stroke="#0d1117" stroke-width="2" class="data-point"/>
  
    <circle cx="439.99999999999994" cy="274.31702098288235" r="4" fill="#3b82f6" stroke="#0d1117" stroke-width="2" class="data-point"/>
  
    <circle cx="443.33333333333337" cy="274.2959444269149" r="4" fill="#3b82f6" stroke="#0d1117" stroke-width="2" class="data-point"/>
  
    <circle cx="446.6666666666667" cy="274.21866372170075" r="4" fill="#3b82f6" stroke="#0d1117" stroke-width="2" class="data-point"/>
  
    <circle cx="450" cy="274.1441932239489" r="4" fill="#3b82f6" stroke="#0d1117" stroke-width="2" class="data-point"/>
  
    <circle cx="453.3333333333333" cy="274.09501459335803" r="4" fill="#3b82f6" stroke="#0d1117" stroke-width="2" class="data-point"/>
  
    <circle cx="456.66666666666663" cy="274.07674824485287" r="4" fill="#3b82f6" stroke="#0d1117" stroke-width="2" class="data-point"/>
  
    <circle cx="460" cy="273.9938471247141" r="4" fill="#3b82f6" stroke="#0d1117" stroke-width="2" class="data-point"/>
  
    <circle cx="463.3333333333333" cy="271.9564467145224" r="4" fill="#3b82f6" stroke="#0d1117" stroke-width="2" class="data-point"/>
  
    <circle cx="466.6666666666667" cy="268.7654561410428" r="4" fill="#3b82f6" stroke="#0d1117" stroke-width="2" class="data-point"/>
  
    <circle cx="470" cy="266.6282933659383" r="4" fill="#3b82f6" stroke="#0d1117" stroke-width="2" class="data-point"/>
  
    <circle cx="473.3333333333333" cy="264.14688017669795" r="4" fill="#3b82f6" stroke="#0d1117" stroke-width="2" class="data-point"/>
  
    <circle cx="476.6666666666667" cy="261.5895913859746" r="4" fill="#3b82f6" stroke="#0d1117" stroke-width="2" class="data-point"/>
  
    <circle cx="480" cy="259.5831032578686" r="4" fill="#3b82f6" stroke="#0d1117" stroke-width="2" class="data-point"/>
  
    <circle cx="483.3333333333333" cy="257.33915259919536" r="4" fill="#3b82f6" stroke="#0d1117" stroke-width="2" class="data-point"/>
  
    <circle cx="486.6666666666667" cy="253.92053522126685" r="4" fill="#3b82f6" stroke="#0d1117" stroke-width="2" class="data-point"/>
  
    <circle cx="490" cy="249.3132000867713" r="4" fill="#3b82f6" stroke="#0d1117" stroke-width="2" class="data-point"/>
  
    <circle cx="493.33333333333337" cy="246.30627810207463" r="4" fill="#3b82f6" stroke="#0d1117" stroke-width="2" class="data-point"/>
  
    <circle cx="496.6666666666667" cy="242.7274788987931" r="4" fill="#3b82f6" stroke="#0d1117" stroke-width="2" class="data-point"/>
  
    <circle cx="500" cy="238.73979450974207" r="4" fill="#3b82f6" stroke="#0d1117" stroke-width="2" class="data-point"/>
  
    <circle cx="503.3333333333333" cy="235.54177841760668" r="4" fill="#3b82f6" stroke="#0d1117" stroke-width="2" class="data-point"/>
  
    <circle cx="506.66666666666663" cy="232.071172201625" r="4" fill="#3b82f6" stroke="#0d1117" stroke-width="2" class="data-point"/>
  
    <circle cx="510.00000000000006" cy="228.9925899266388" r="4" fill="#3b82f6" stroke="#0d1117" stroke-width="2" class="data-point"/>
  
    <circle cx="513.3333333333334" cy="225.94210972627593" r="4" fill="#3b82f6" stroke="#0d1117" stroke-width="2" class="data-point"/>
  
    <circle cx="516.6666666666667" cy="222.9000601483001" r="4" fill="#3b82f6" stroke="#0d1117" stroke-width="2" class="data-point"/>
  
    <circle cx="520" cy="218.75781434882072" r="4" fill="#3b82f6" stroke="#0d1117" stroke-width="2" class="data-point"/>
  
    <circle cx="523.3333333333333" cy="214.6029226157608" r="4" fill="#3b82f6" stroke="#0d1117" stroke-width="2" class="data-point"/>
  
    <circle cx="526.6666666666666" cy="211.13934191843495" r="4" fill="#3b82f6" stroke="#0d1117" stroke-width="2" class="data-point"/>
  
    <circle cx="530" cy="208.2363976098446" r="4" fill="#3b82f6" stroke="#0d1117" stroke-width="2" class="data-point"/>
  
    <circle cx="533.3333333333334" cy="205.42056973258659" r="4" fill="#3b82f6" stroke="#0d1117" stroke-width="2" class="data-point"/>
  
    <circle cx="536.6666666666667" cy="201.6829938076832" r="4" fill="#3b82f6" stroke="#0d1117" stroke-width="2" class="data-point"/>
  
    <circle cx="540" cy="198.78426481028634" r="4" fill="#3b82f6" stroke="#0d1117" stroke-width="2" class="data-point"/>
  
    <circle cx="543.3333333333333" cy="195.91644809497515" r="4" fill="#3b82f6" stroke="#0d1117" stroke-width="2" class="data-point"/>
  
    <circle cx="546.6666666666666" cy="193.23410507217795" r="4" fill="#3b82f6" stroke="#0d1117" stroke-width="2" class="data-point"/>
  
    <circle cx="550" cy="190.70772856354026" r="4" fill="#3b82f6" stroke="#0d1117" stroke-width="2" class="data-point"/>
  
    <circle cx="553.3333333333334" cy="188.11952749073126" r="4" fill="#3b82f6" stroke="#0d1117" stroke-width="2" class="data-point"/>
  
    <circle cx="556.6666666666667" cy="185.90648911414374" r="4" fill="#3b82f6" stroke="#0d1117" stroke-width="2" class="data-point"/>
  
    <circle cx="560" cy="183.61476492861087" r="4" fill="#3b82f6" stroke="#0d1117" stroke-width="2" class="data-point"/>
  
    <circle cx="563.3333333333333" cy="181.27526721621834" r="4" fill="#3b82f6" stroke="#0d1117" stroke-width="2" class="data-point"/>
  
    <circle cx="566.6666666666666" cy="178.802284649365" r="4" fill="#3b82f6" stroke="#0d1117" stroke-width="2" class="data-point"/>
  
    <circle cx="570" cy="176.5330421235308" r="4" fill="#3b82f6" stroke="#0d1117" stroke-width="2" class="data-point"/>
  
    <circle cx="573.3333333333333" cy="174.45489370513528" r="4" fill="#3b82f6" stroke="#0d1117" stroke-width="2" class="data-point"/>
  
    <circle cx="576.6666666666667" cy="170.68921570560858" r="4" fill="#3b82f6" stroke="#0d1117" stroke-width="2" class="data-point"/>
  
    <circle cx="580" cy="167.53756803660173" r="4" fill="#3b82f6" stroke="#0d1117" stroke-width="2" class="data-point"/>
  
    <circle cx="583.3333333333334" cy="164.5109745996687" r="4" fill="#3b82f6" stroke="#0d1117" stroke-width="2" class="data-point"/>
  
    <circle cx="586.6666666666666" cy="161.60381497988485" r="4" fill="#3b82f6" stroke="#0d1117" stroke-width="2" class="data-point"/>
  
    <circle cx="590" cy="157.0133410901633" r="4" fill="#3b82f6" stroke="#0d1117" stroke-width="2" class="data-point"/>
  
    <circle cx="593.3333333333333" cy="154.10899167784177" r="4" fill="#3b82f6" stroke="#0d1117" stroke-width="2" class="data-point"/>
  
    <circle cx="596.6666666666667" cy="151.59526110278458" r="4" fill="#3b82f6" stroke="#0d1117" stroke-width="2" class="data-point"/>
  
    <circle cx="600" cy="148.62627691882938" r="4" fill="#3b82f6" stroke="#0d1117" stroke-width="2" class="data-point"/>
  
    <circle cx="603.3333333333334" cy="144.24937879624517" r="4" fill="#3b82f6" stroke="#0d1117" stroke-width="2" class="data-point"/>
  
    <circle cx="606.6666666666666" cy="141.10054133470064" r="4" fill="#3b82f6" stroke="#0d1117" stroke-width="2" class="data-point"/>
  
    <circle cx="610" cy="138.44208507533327" r="4" fill="#3b82f6" stroke="#0d1117" stroke-width="2" class="data-point"/>
  
    <circle cx="613.3333333333333" cy="136.19251400173545" r="4" fill="#3b82f6" stroke="#0d1117" stroke-width="2" class="data-point"/>
  
    <circle cx="616.6666666666666" cy="134.05816143409325" r="4" fill="#3b82f6" stroke="#0d1117" stroke-width="2" class="data-point"/>
  
    <circle cx="620" cy="132.3228583261024" r="4" fill="#3b82f6" stroke="#0d1117" stroke-width="2" class="data-point"/>
  
    <circle cx="623.3333333333334" cy="130.36835903604955" r="4" fill="#3b82f6" stroke="#0d1117" stroke-width="2" class="data-point"/>
  
    <circle cx="626.6666666666666" cy="128.77497140490652" r="4" fill="#3b82f6" stroke="#0d1117" stroke-width="2" class="data-point"/>
  
    <circle cx="630" cy="126.89494261260552" r="4" fill="#3b82f6" stroke="#0d1117" stroke-width="2" class="data-point"/>
  
    <circle cx="633.3333333333334" cy="124.18871282637846" r="4" fill="#3b82f6" stroke="#0d1117" stroke-width="2" class="data-point"/>
  
    <circle cx="636.6666666666666" cy="121.86326615129764" r="4" fill="#3b82f6" stroke="#0d1117" stroke-width="2" class="data-point"/>
  
    <circle cx="640" cy="119.84132188214878" r="4" fill="#3b82f6" stroke="#0d1117" stroke-width="2" class="data-point"/>
  
    <circle cx="643.3333333333334" cy="118.09337284057742" r="4" fill="#3b82f6" stroke="#0d1117" stroke-width="2" class="data-point"/>
  
    <circle cx="646.6666666666666" cy="116.29062475349056" r="4" fill="#3b82f6" stroke="#0d1117" stroke-width="2" class="data-point"/>
  
    <circle cx="650" cy="114.77030251636825" r="4" fill="#3b82f6" stroke="#0d1117" stroke-width="2" class="data-point"/>
  
    <circle cx="653.3333333333334" cy="112.21441882937606" r="4" fill="#3b82f6" stroke="#0d1117" stroke-width="2" class="data-point"/>
  
    <circle cx="656.6666666666666" cy="110.02948252741183" r="4" fill="#3b82f6" stroke="#0d1117" stroke-width="2" class="data-point"/>
  
    <circle cx="660" cy="107.86281257395282" r="4" fill="#3b82f6" stroke="#0d1117" stroke-width="2" class="data-point"/>
  
    <circle cx="663.3333333333334" cy="106.07411552417767" r="4" fill="#3b82f6" stroke="#0d1117" stroke-width="2" class="data-point"/>
  
    <circle cx="666.6666666666667" cy="104.43295436617495" r="4" fill="#3b82f6" stroke="#0d1117" stroke-width="2" class="data-point"/>
  
    <circle cx="670" cy="102.97586179695512" r="4" fill="#3b82f6" stroke="#0d1117" stroke-width="2" class="data-point"/>
  
    <circle cx="673.3333333333334" cy="100.47758736294077" r="4" fill="#3b82f6" stroke="#0d1117" stroke-width="2" class="data-point"/>
  
    <circle cx="676.6666666666666" cy="98.44861757513607" r="4" fill="#3b82f6" stroke="#0d1117" stroke-width="2" class="data-point"/>
  
    <circle cx="680" cy="96.5995010649207" r="4" fill="#3b82f6" stroke="#0d1117" stroke-width="2" class="data-point"/>
  
    <circle cx="683.3333333333333" cy="94.8332856748442" r="4" fill="#3b82f6" stroke="#0d1117" stroke-width="2" class="data-point"/>
  
    <circle cx="686.6666666666667" cy="93.29188688175435" r="4" fill="#3b82f6" stroke="#0d1117" stroke-width="2" class="data-point"/>
  
    <circle cx="690" cy="91.79545140806187" r="4" fill="#3b82f6" stroke="#0d1117" stroke-width="2" class="data-point"/>
  
    <circle cx="693.3333333333334" cy="90.42407016644316" r="4" fill="#3b82f6" stroke="#0d1117" stroke-width="2" class="data-point"/>
  
    <circle cx="696.6666666666666" cy="89.10889307407115" r="4" fill="#3b82f6" stroke="#0d1117" stroke-width="2" class="data-point"/>
  
    <circle cx="700" cy="87.90331407273013" r="4" fill="#3b82f6" stroke="#0d1117" stroke-width="2" class="data-point"/>
  
    <circle cx="703.3333333333333" cy="86.39844797665063" r="4" fill="#3b82f6" stroke="#0d1117" stroke-width="2" class="data-point"/>
  
    <circle cx="706.6666666666667" cy="84.78257868580894" r="4" fill="#3b82f6" stroke="#0d1117" stroke-width="2" class="data-point"/>
  
    <circle cx="710" cy="83.29597893823461" r="4" fill="#3b82f6" stroke="#0d1117" stroke-width="2" class="data-point"/>
  
    <circle cx="713.3333333333334" cy="80.98598840419658" r="4" fill="#3b82f6" stroke="#0d1117" stroke-width="2" class="data-point"/>
  
    <circle cx="716.6666666666666" cy="79.30969965291473" r="4" fill="#3b82f6" stroke="#0d1117" stroke-width="2" class="data-point"/>
  
    <circle cx="720" cy="77.70647629565354" r="4" fill="#3b82f6" stroke="#0d1117" stroke-width="2" class="data-point"/>
  
    <circle cx="723.3333333333333" cy="76.29996746075568" r="4" fill="#3b82f6" stroke="#0d1117" stroke-width="2" class="data-point"/>
  
    <circle cx="726.6666666666666" cy="74.65037568036604" r="4" fill="#3b82f6" stroke="#0d1117" stroke-width="2" class="data-point"/>
  
    <circle cx="730" cy="72.62421610002366" r="4" fill="#3b82f6" stroke="#0d1117" stroke-width="2" class="data-point"/>
  
    <circle cx="733.3333333333334" cy="70.82849353159264" r="4" fill="#3b82f6" stroke="#0d1117" stroke-width="2" class="data-point"/>
  
    <circle cx="736.6666666666666" cy="69.22527017433146" r="4" fill="#3b82f6" stroke="#0d1117" stroke-width="2" class="data-point"/>
  
    <circle cx="740" cy="67.48434665141593" r="4" fill="#3b82f6" stroke="#0d1117" stroke-width="2" class="data-point"/>
  
    <circle cx="743.3333333333334" cy="65.08302437485207" r="4" fill="#3b82f6" stroke="#0d1117" stroke-width="2" class="data-point"/>
  
    <circle cx="746.6666666666666" cy="63.111663840025244" r="4" fill="#3b82f6" stroke="#0d1117" stroke-width="2" class="data-point"/>
  
    <circle cx="750" cy="60.996982724619386" r="4" fill="#3b82f6" stroke="#0d1117" stroke-width="2" class="data-point"/>
  
    <circle cx="753.3333333333334" cy="58.889327127869365" r="4" fill="#3b82f6" stroke="#0d1117" stroke-width="2" class="data-point"/>
  
    <circle cx="756.6666666666666" cy="56.92639721542952" r="4" fill="#3b82f6" stroke="#0d1117" stroke-width="2" class="data-point"/>
  
    <circle cx="760" cy="55" r="4" fill="#3b82f6" stroke="#0d1117" stroke-width="2" class="data-point"/>
  

  <!-- Axis lines -->
  <line x1="60" y1="55" x2="60" y2="340"
        stroke="#30363d" stroke-width="2"/>
  <line x1="60" y1="340" x2="760" y2="340"
        stroke="#30363d" stroke-width="2"/>
</svg>