<?xml version="1.0" encoding="UTF-8"?>
<svg width="800" height="400" xmlns="http://www.w3.org/2000/svg">
  <defs>
    <!-- Gradient for area fill -->
    <linearGradient id="areaGradient" x1="0%" y1="0%" x2="0%" y2="100%">
      <stop offset="0%" style="stop-color:#3b82f6;stop-opacity:0.3" />
      <stop offset="100%" style="stop-color:#3b82f6;stop-opacity:0.05" />
    </linearGradient>

    <!-- Glow filter for line -->
    <filter id="glow">
      <feGaussianBlur stdDeviation="2" result="coloredBlur"/>
      <feMerge>
        <feMergeNode in="coloredBlur"/>
        <feMergeNode in="SourceGraphic"/>
      </feMerge>
    </filter>

    <!-- Animation -->
    <style>
      @keyframes draw {
        from { stroke-dashoffset: 2000; }
        to { stroke-dashoffset: 0; }
      }
      @keyframes fadeIn {
        from { opacity: 0; }
        to { opacity: 1; }
      }
      .line-path {
        stroke-dasharray: 2000;
        stroke-dashoffset: 2000;
        animation: draw 1.5s ease-out forwards;
      }
      .area-path {
        opacity: 0;
        animation: fadeIn 1s ease-out 0.5s forwards;
      }
      .data-point {
        opacity: 0;
        animation: fadeIn 0.5s ease-out 1s forwards;
      }
    </style>
  </defs>

  <!-- Background -->
  <rect width="800" height="400" fill="#0d1117" rx="8"/>

  <!-- Title -->
  <text x="400" y="25" text-anchor="middle" fill="#c9d1d9" font-family="system-ui, -apple-system, sans-serif" font-size="16" font-weight="600">
    zxcloli666/SoundCloud-Desktop Downloads
  </text>

  <!-- Stats -->
  <text x="780" y="25" text-anchor="end" fill="#58a6ff" font-family="system-ui, -apple-system, sans-serif" font-size="14" font-weight="600">
    164.6K total
  </text>
  <text x="780" y="42" text-anchor="end" fill="#3fb950" font-family="system-ui, -apple-system, sans-serif" font-size="12">
    +1.9K (+1.2%)
  </text>

  <!-- Grid lines -->
  <g opacity="0.1">
    
      <line x1="60" y1="340" x2="760" y2="340"
            stroke="#c9d1d9" stroke-width="1"/>
    
      <line x1="60" y1="268.75" x2="760" y2="268.75"
            stroke="#c9d1d9" stroke-width="1"/>
    
      <line x1="60" y1="197.5" x2="760" y2="197.5"
            stroke="#c9d1d9" stroke-width="1"/>
    
      <line x1="60" y1="126.25" x2="760" y2="126.25"
            stroke="#c9d1d9" stroke-width="1"/>
    
      <line x1="60" y1="55" x2="760" y2="55"
            stroke="#c9d1d9" stroke-width="1"/>
    
  </g>

  <!-- Y-axis labels -->
  
    <text x="50" y="344" text-anchor="end"
          fill="#8b949e" font-family="system-ui, -apple-system, sans-serif" font-size="11">
      60.2K
    </text>
  
    <text x="50" y="272.75" text-anchor="end"
          fill="#8b949e" font-family="system-ui, -apple-system, sans-serif" font-size="11">
      86.3K
    </text>
  
    <text x="50" y="201.5" text-anchor="end"
          fill="#8b949e" font-family="system-ui, -apple-system, sans-serif" font-size="11">
      112.4K
    </text>
  
    <text x="50" y="130.25" text-anchor="end"
          fill="#8b949e" font-family="system-ui, -apple-system, sans-serif" font-size="11">
      138.5K
    </text>
  
    <text x="50" y="59" text-anchor="end"
          fill="#8b949e" font-family="system-ui, -apple-system, sans-serif" font-size="11">
      164.6K
    </text>
  

  <!-- X-axis labels -->
  
    <text x="60" y="360" text-anchor="middle"
          fill="#8b949e" font-family="system-ui, -apple-system, sans-serif" font-size="11">
      Nov 25
    </text>
  
    <text x="146.3013698630137" y="360" text-anchor="middle"
          fill="#8b949e" font-family="system-ui, -apple-system, sans-serif" font-size="11">
      Dec 13
    </text>
  
    <text x="232.60273972602738" y="360" text-anchor="middle"
          fill="#8b949e" font-family="system-ui, -apple-system, sans-serif" font-size="11">
      Dec 31
    </text>
  
    <text x="318.90410958904107" y="360" text-anchor="middle"
          fill="#8b949e" font-family="system-ui, -apple-system, sans-serif" font-size="11">
      Jan 18
    </text>
  
    <text x="405.20547945205476" y="360" text-anchor="middle"
          fill="#8b949e" font-family="system-ui, -apple-system, sans-serif" font-size="11">
      Feb 5
    </text>
  
    <text x="491.5068493150685" y="360" text-anchor="middle"
          fill="#8b949e" font-family="system-ui, -apple-system, sans-serif" font-size="11">
      Feb 23
    </text>
  
    <text x="577.8082191780821" y="360" text-anchor="middle"
          fill="#8b949e" font-family="system-ui, -apple-system, sans-serif" font-size="11">
      Mar 13
    </text>
  
    <text x="664.1095890410959" y="360" text-anchor="middle"
          fill="#8b949e" font-family="system-ui, -apple-system, sans-serif" font-size="11">
      Mar 31
    </text>
  
    <text x="750.4109589041095" y="360" text-anchor="middle"
          fill="#8b949e" font-family="system-ui, -apple-system, sans-serif" font-size="11">
      Apr 18
    </text>
  
    <text x="760" y="360" text-anchor="middle"
          fill="#8b949e" font-family="system-ui, -apple-system, sans-serif" font-size="11">
      Apr 20
    </text>
  

  <!-- Area under line -->
  <path d="M 60 340
    L 60.00 340.00 L 64.79 339.60 L 69.59 338.92 L 74.38 338.28 L 79.18 337.03 L 83.97 335.73 L 88.77 334.70 L 93.56 333.75 L 98.36 332.90 L 103.15 331.90 L 107.95 330.79 L 112.74 329.60 L 117.53 328.52 L 122.33 327.38 L 127.12 326.54 L 131.92 325.67 L 136.71 324.49 L 141.51 323.70 L 146.30 322.61 L 151.10 321.35 L 155.89 320.40 L 160.68 319.62 L 165.48 319.12 L 170.27 318.70 L 175.07 317.92 L 179.86 317.36 L 184.66 316.15 L 189.45 315.67 L 194.25 315.06 L 199.04 314.26 L 203.84 313.71 L 208.63 313.16 L 213.42 312.58 L 218.22 312.17 L 223.01 311.83 L 227.81 311.29 L 232.60 310.65 L 237.40 310.05 L 242.19 309.30 L 246.99 308.48 L 251.78 307.72 L 256.58 306.82 L 261.37 305.92 L 266.16 305.03 L 270.96 304.05 L 275.75 303.12 L 280.55 302.05 L 285.34 301.10 L 290.14 300.30 L 294.93 299.65 L 299.73 298.75 L 304.52 297.72 L 309.32 296.78 L 314.11 295.68 L 318.90 294.33 L 323.70 293.32 L 328.49 292.48 L 333.29 291.68 L 338.08 290.73 L 342.88 289.61 L 347.67 288.38 L 352.47 287.08 L 357.26 285.84 L 362.05 284.74 L 366.85 283.66 L 371.64 282.70 L 376.44 281.72 L 381.23 280.63 L 386.03 279.27 L 390.82 278.26 L 395.62 277.36 L 400.41 276.35 L 405.21 275.41 L 410.00 274.38 L 414.79 273.30 L 419.59 272.18 L 424.38 271.19 L 429.18 270.35 L 433.97 269.43 L 438.77 268.43 L 443.56 267.50 L 448.36 266.29 L 453.15 265.25 L 457.95 264.25 L 462.74 263.42 L 467.53 262.61 L 472.33 261.80 L 477.12 260.83 L 481.92 259.83 L 486.71 258.62 L 491.51 257.64 L 496.30 256.85 L 501.10 256.02 L 505.89 255.24 L 510.68 254.27 L 515.48 253.27 L 520.27 251.07 L 525.07 246.69 L 529.86 241.47 L 534.66 236.71 L 539.45 234.30 L 544.25 230.67 L 549.04 228.25 L 553.84 226.13 L 558.63 224.06 L 563.42 222.11 L 568.22 219.08 L 573.01 216.67 L 577.81 213.58 L 582.60 212.95 L 587.40 212.87 L 592.19 212.76 L 596.99 212.67 L 601.78 212.56 L 606.58 212.45 L 611.37 212.41 L 616.16 212.26 L 620.96 212.12 L 625.75 212.02 L 630.55 211.99 L 635.34 211.82 L 640.14 207.87 L 644.93 201.67 L 649.73 197.52 L 654.52 192.70 L 659.32 187.74 L 664.11 183.84 L 668.90 179.48 L 673.70 172.85 L 678.49 163.90 L 683.29 158.06 L 688.08 151.11 L 692.88 143.37 L 697.67 137.16 L 702.47 130.42 L 707.26 124.44 L 712.05 118.51 L 716.85 112.61 L 721.64 104.56 L 726.44 96.50 L 731.23 89.77 L 736.03 84.13 L 740.82 78.66 L 745.62 71.41 L 750.41 65.78 L 755.21 60.21 L 760.00 55.00
    L 760 340
    Z" fill="url(#areaGradient)" class="area-path"/>

  <!-- Main line with glow -->
  <path d="M 60.00 340.00 L 64.79 339.60 L 69.59 338.92 L 74.38 338.28 L 79.18 337.03 L 83.97 335.73 L 88.77 334.70 L 93.56 333.75 L 98.36 332.90 L 103.15 331.90 L 107.95 330.79 L 112.74 329.60 L 117.53 328.52 L 122.33 327.38 L 127.12 326.54 L 131.92 325.67 L 136.71 324.49 L 141.51 323.70 L 146.30 322.61 L 151.10 321.35 L 155.89 320.40 L 160.68 319.62 L 165.48 319.12 L 170.27 318.70 L 175.07 317.92 L 179.86 317.36 L 184.66 316.15 L 189.45 315.67 L 194.25 315.06 L 199.04 314.26 L 203.84 313.71 L 208.63 313.16 L 213.42 312.58 L 218.22 312.17 L 223.01 311.83 L 227.81 311.29 L 232.60 310.65 L 237.40 310.05 L 242.19 309.30 L 246.99 308.48 L 251.78 307.72 L 256.58 306.82 L 261.37 305.92 L 266.16 305.03 L 270.96 304.05 L 275.75 303.12 L 280.55 302.05 L 285.34 301.10 L 290.14 300.30 L 294.93 299.65 L 299.73 298.75 L 304.52 297.72 L 309.32 296.78 L 314.11 295.68 L 318.90 294.33 L 323.70 293.32 L 328.49 292.48 L 333.29 291.68 L 338.08 290.73 L 342.88 289.61 L 347.67 288.38 L 352.47 287.08 L 357.26 285.84 L 362.05 284.74 L 366.85 283.66 L 371.64 282.70 L 376.44 281.72 L 381.23 280.63 L 386.03 279.27 L 390.82 278.26 L 395.62 277.36 L 400.41 276.35 L 405.21 275.41 L 410.00 274.38 L 414.79 273.30 L 419.59 272.18 L 424.38 271.19 L 429.18 270.35 L 433.97 269.43 L 438.77 268.43 L 443.56 267.50 L 448.36 266.29 L 453.15 265.25 L 457.95 264.25 L 462.74 263.42 L 467.53 262.61 L 472.33 261.80 L 477.12 260.83 L 481.92 259.83 L 486.71 258.62 L 491.51 257.64 L 496.30 256.85 L 501.10 256.02 L 505.89 255.24 L 510.68 254.27 L 515.48 253.27 L 520.27 251.07 L 525.07 246.69 L 529.86 241.47 L 534.66 236.71 L 539.45 234.30 L 544.25 230.67 L 549.04 228.25 L 553.84 226.13 L 558.63 224.06 L 563.42 222.11 L 568.22 219.08 L 573.01 216.67 L 577.81 213.58 L 582.60 212.95 L 587.40 212.87 L 592.19 212.76 L 596.99 212.67 L 601.78 212.56 L 606.58 212.45 L 611.37 212.41 L 616.16 212.26 L 620.96 212.12 L 625.75 212.02 L 630.55 211.99 L 635.34 211.82 L 640.14 207.87 L 644.93 201.67 L 649.73 197.52 L 654.52 192.70 L 659.32 187.74 L 664.11 183.84 L 668.90 179.48 L 673.70 172.85 L 678.49 163.90 L 683.29 158.06 L 688.08 151.11 L 692.88 143.37 L 697.67 137.16 L 702.47 130.42 L 707.26 124.44 L 712.05 118.51 L 716.85 112.61 L 721.64 104.56 L 726.44 96.50 L 731.23 89.77 L 736.03 84.13 L 740.82 78.66 L 745.62 71.41 L 750.41 65.78 L 755.21 60.21 L 760.00 55.00" fill="none" stroke="#3b82f6" stroke-width="3"
        stroke-linecap="round" stroke-linejoin="round" filter="url(#glow)" class="line-path"/>

  <!-- Data points -->
  
    <circle cx="60" cy="340" r="4" fill="#3b82f6" stroke="#0d1117" stroke-width="2" class="data-point"/>
  
    <circle cx="64.79452054794521" cy="339.5989066748363" r="4" fill="#3b82f6" stroke="#0d1117" stroke-width="2" class="data-point"/>
  
    <circle cx="69.58904109589041" cy="338.91677516945583" r="4" fill="#3b82f6" stroke="#0d1117" stroke-width="2" class="data-point"/>
  
    <circle cx="74.38356164383562" cy="338.28375713246277" r="4" fill="#3b82f6" stroke="#0d1117" stroke-width="2" class="data-point"/>
  
    <circle cx="79.17808219178082" cy="337.0259066365412" r="4" fill="#3b82f6" stroke="#0d1117" stroke-width="2" class="data-point"/>
  
    <circle cx="83.97260273972603" cy="335.7271282502968" r="4" fill="#3b82f6" stroke="#0d1117" stroke-width="2" class="data-point"/>
  
    <circle cx="88.76712328767124" cy="334.7039309922261" r="4" fill="#3b82f6" stroke="#0d1117" stroke-width="2" class="data-point"/>
  
    <circle cx="93.56164383561644" cy="333.74894688469345" r="4" fill="#3b82f6" stroke="#0d1117" stroke-width="2" class="data-point"/>
  
    <circle cx="98.35616438356163" cy="332.90037529200015" r="4" fill="#3b82f6" stroke="#0d1117" stroke-width="2" class="data-point"/>
  
    <circle cx="103.15068493150685" cy="331.9044632941447" r="4" fill="#3b82f6" stroke="#0d1117" stroke-width="2" class="data-point"/>
  
    <circle cx="107.94520547945206" cy="330.7939532033853" r="4" fill="#3b82f6" stroke="#0d1117" stroke-width="2" class="data-point"/>
  
    <circle cx="112.73972602739727" cy="329.60431585800177" r="4" fill="#3b82f6" stroke="#0d1117" stroke-width="2" class="data-point"/>
  
    <circle cx="117.53424657534246" cy="328.5238195534791" r="4" fill="#3b82f6" stroke="#0d1117" stroke-width="2" class="data-point"/>
  
    <circle cx="122.32876712328766" cy="327.3751100984184" r="4" fill="#3b82f6" stroke="#0d1117" stroke-width="2" class="data-point"/>
  
    <circle cx="127.12328767123287" cy="326.5374526098112" r="4" fill="#3b82f6" stroke="#0d1117" stroke-width="2" class="data-point"/>
  
    <circle cx="131.91780821917808" cy="325.66978133496724" r="4" fill="#3b82f6" stroke="#0d1117" stroke-width="2" class="data-point"/>
  
    <circle cx="136.71232876712327" cy="324.49105809366984" r="4" fill="#3b82f6" stroke="#0d1117" stroke-width="2" class="data-point"/>
  
    <circle cx="141.5068493150685" cy="323.70251407345" r="4" fill="#3b82f6" stroke="#0d1117" stroke-width="2" class="data-point"/>
  
    <circle cx="146.3013698630137" cy="322.61110366484127" r="4" fill="#3b82f6" stroke="#0d1117" stroke-width="2" class="data-point"/>
  
    <circle cx="151.0958904109589" cy="321.35052464289816" r="4" fill="#3b82f6" stroke="#0d1117" stroke-width="2" class="data-point"/>
  
    <circle cx="155.8904109589041" cy="320.4009975874086" r="4" fill="#3b82f6" stroke="#0d1117" stroke-width="2" class="data-point"/>
  
    <circle cx="160.6849315068493" cy="319.62063914525334" r="4" fill="#3b82f6" stroke="#0d1117" stroke-width="2" class="data-point"/>
  
    <circle cx="165.47945205479454" cy="319.1158618312718" r="4" fill="#3b82f6" stroke="#0d1117" stroke-width="2" class="data-point"/>
  
    <circle cx="170.27397260273972" cy="318.6956688239574" r="4" fill="#3b82f6" stroke="#0d1117" stroke-width="2" class="data-point"/>
  
    <circle cx="175.06849315068493" cy="317.9180389078237" r="4" fill="#3b82f6" stroke="#0d1117" stroke-width="2" class="data-point"/>
  
    <circle cx="179.86301369863014" cy="317.36414812545473" r="4" fill="#3b82f6" stroke="#0d1117" stroke-width="2" class="data-point"/>
  
    <circle cx="184.65753424657532" cy="316.1499540458775" r="4" fill="#3b82f6" stroke="#0d1117" stroke-width="2" class="data-point"/>
  
    <circle cx="189.45205479452054" cy="315.6724619921112" r="4" fill="#3b82f6" stroke="#0d1117" stroke-width="2" class="data-point"/>
  
    <circle cx="194.24657534246575" cy="315.0558151112473" r="4" fill="#3b82f6" stroke="#0d1117" stroke-width="2" class="data-point"/>
  
    <circle cx="199.04109589041096" cy="314.2590855129629" r="4" fill="#3b82f6" stroke="#0d1117" stroke-width="2" class="data-point"/>
  
    <circle cx="203.83561643835617" cy="313.71338030865854" r="4" fill="#3b82f6" stroke="#0d1117" stroke-width="2" class="data-point"/>
  
    <circle cx="208.63013698630135" cy="313.1594895262896" r="4" fill="#3b82f6" stroke="#0d1117" stroke-width="2" class="data-point"/>
  
    <circle cx="213.42465753424656" cy="312.5783134837054" r="4" fill="#3b82f6" stroke="#0d1117" stroke-width="2" class="data-point"/>
  
    <circle cx="218.21917808219177" cy="312.1744916325202" r="4" fill="#3b82f6" stroke="#0d1117" stroke-width="2" class="data-point"/>
  
    <circle cx="223.013698630137" cy="311.8252403017654" r="4" fill="#3b82f6" stroke="#0d1117" stroke-width="2" class="data-point"/>
  
    <circle cx="227.80821917808217" cy="311.29317772756866" r="4" fill="#3b82f6" stroke="#0d1117" stroke-width="2" class="data-point"/>
  
    <circle cx="232.60273972602738" cy="310.64651706046794" r="4" fill="#3b82f6" stroke="#0d1117" stroke-width="2" class="data-point"/>
  
    <circle cx="237.39726027397262" cy="310.0516983877762" r="4" fill="#3b82f6" stroke="#0d1117" stroke-width="2" class="data-point"/>
  
    <circle cx="242.1917808219178" cy="309.2986252058362" r="4" fill="#3b82f6" stroke="#0d1117" stroke-width="2" class="data-point"/>
  
    <circle cx="246.986301369863" cy="308.4773388733581" r="4" fill="#3b82f6" stroke="#0d1117" stroke-width="2" class="data-point"/>
  
    <circle cx="251.7808219178082" cy="307.72426569141805" r="4" fill="#3b82f6" stroke="#0d1117" stroke-width="2" class="data-point"/>
  
    <circle cx="256.57534246575347" cy="306.8156665262513" r="4" fill="#3b82f6" stroke="#0d1117" stroke-width="2" class="data-point"/>
  
    <circle cx="261.3698630136986" cy="305.92343851721364" r="4" fill="#3b82f6" stroke="#0d1117" stroke-width="2" class="data-point"/>
  
    <circle cx="266.16438356164383" cy="305.031210508176" r="4" fill="#3b82f6" stroke="#0d1117" stroke-width="2" class="data-point"/>
  
    <circle cx="270.95890410958907" cy="304.0543981924712" r="4" fill="#3b82f6" stroke="#0d1117" stroke-width="2" class="data-point"/>
  
    <circle cx="275.75342465753425" cy="303.1212422931107" r="4" fill="#3b82f6" stroke="#0d1117" stroke-width="2" class="data-point"/>
  
    <circle cx="280.54794520547944" cy="302.05438861869567" r="4" fill="#3b82f6" stroke="#0d1117" stroke-width="2" class="data-point"/>
  
    <circle cx="285.3424657534247" cy="301.10213303718456" r="4" fill="#3b82f6" stroke="#0d1117" stroke-width="2" class="data-point"/>
  
    <circle cx="290.13698630136986" cy="300.2972178608356" r="4" fill="#3b82f6" stroke="#0d1117" stroke-width="2" class="data-point"/>
  
    <circle cx="294.93150684931504" cy="299.65328571975647" r="4" fill="#3b82f6" stroke="#0d1117" stroke-width="2" class="data-point"/>
  
    <circle cx="299.7260273972603" cy="298.75287213265426" r="4" fill="#3b82f6" stroke="#0d1117" stroke-width="2" class="data-point"/>
  
    <circle cx="304.5205479452055" cy="297.7242178225405" r="4" fill="#3b82f6" stroke="#0d1117" stroke-width="2" class="data-point"/>
  
    <circle cx="309.31506849315065" cy="296.7828763451155" r="4" fill="#3b82f6" stroke="#0d1117" stroke-width="2" class="data-point"/>
  
    <circle cx="314.1095890410959" cy="295.6832803584422" r="4" fill="#3b82f6" stroke="#0d1117" stroke-width="2" class="data-point"/>
  
    <circle cx="318.90410958904107" cy="294.3272029257458" r="4" fill="#3b82f6" stroke="#0d1117" stroke-width="2" class="data-point"/>
  
    <circle cx="323.6986301369863" cy="293.31764829778274" r="4" fill="#3b82f6" stroke="#0d1117" stroke-width="2" class="data-point"/>
  
    <circle cx="328.4931506849315" cy="292.4799908091755" r="4" fill="#3b82f6" stroke="#0d1117" stroke-width="2" class="data-point"/>
  
    <circle cx="333.28767123287673" cy="291.68326121089115" r="4" fill="#3b82f6" stroke="#0d1117" stroke-width="2" class="data-point"/>
  
    <circle cx="338.0821917808219" cy="290.72554857733695" r="4" fill="#3b82f6" stroke="#0d1117" stroke-width="2" class="data-point"/>
  
    <circle cx="342.87671232876716" cy="289.61230996055605" r="4" fill="#3b82f6" stroke="#0d1117" stroke-width="2" class="data-point"/>
  
    <circle cx="347.67123287671234" cy="288.37901619882814" r="4" fill="#3b82f6" stroke="#0d1117" stroke-width="2" class="data-point"/>
  
    <circle cx="352.4657534246575" cy="287.0829663386053" r="4" fill="#3b82f6" stroke="#0d1117" stroke-width="2" class="data-point"/>
  
    <circle cx="357.2602739726027" cy="285.8387584727913" r="4" fill="#3b82f6" stroke="#0d1117" stroke-width="2" class="data-point"/>
  
    <circle cx="362.05479452054794" cy="284.7446195381611" r="4" fill="#3b82f6" stroke="#0d1117" stroke-width="2" class="data-point"/>
  
    <circle cx="366.8493150684931" cy="283.6586661815954" r="4" fill="#3b82f6" stroke="#0d1117" stroke-width="2" class="data-point"/>
  
    <circle cx="371.64383561643837" cy="282.7009535480412" r="4" fill="#3b82f6" stroke="#0d1117" stroke-width="2" class="data-point"/>
  
    <circle cx="376.43835616438355" cy="281.72414123233636" r="4" fill="#3b82f6" stroke="#0d1117" stroke-width="2" class="data-point"/>
  
    <circle cx="381.2328767123288" cy="280.6327308237276" r="4" fill="#3b82f6" stroke="#0d1117" stroke-width="2" class="data-point"/>
  
    <circle cx="386.027397260274" cy="279.27392486500975" r="4" fill="#3b82f6" stroke="#0d1117" stroke-width="2" class="data-point"/>
  
    <circle cx="390.82191780821915" cy="278.26164171102516" r="4" fill="#3b82f6" stroke="#0d1117" stroke-width="2" class="data-point"/>
  
    <circle cx="395.61643835616434" cy="277.35577107187993" r="4" fill="#3b82f6" stroke="#0d1117" stroke-width="2" class="data-point"/>
  
    <circle cx="400.4109589041096" cy="276.3489449699384" r="4" fill="#3b82f6" stroke="#0d1117" stroke-width="2" class="data-point"/>
  
    <circle cx="405.20547945205476" cy="275.41033201853486" r="4" fill="#3b82f6" stroke="#0d1117" stroke-width="2" class="data-point"/>
  
    <circle cx="410" cy="274.3789491823996" r="4" fill="#3b82f6" stroke="#0d1117" stroke-width="2" class="data-point"/>
  
    <circle cx="414.79452054794524" cy="273.30390992992" r="4" fill="#3b82f6" stroke="#0d1117" stroke-width="2" class="data-point"/>
  
    <circle cx="419.5890410958904" cy="272.179757209053" r="4" fill="#3b82f6" stroke="#0d1117" stroke-width="2" class="data-point"/>
  
    <circle cx="424.3835616438356" cy="271.1947593152836" r="4" fill="#3b82f6" stroke="#0d1117" stroke-width="2" class="data-point"/>
  
    <circle cx="429.17808219178085" cy="270.3516447746333" r="4" fill="#3b82f6" stroke="#0d1117" stroke-width="2" class="data-point"/>
  
    <circle cx="433.972602739726" cy="269.42667445333745" r="4" fill="#3b82f6" stroke="#0d1117" stroke-width="2" class="data-point"/>
  
    <circle cx="438.76712328767127" cy="268.42530540343887" r="4" fill="#3b82f6" stroke="#0d1117" stroke-width="2" class="data-point"/>
  
    <circle cx="443.5616438356164" cy="267.49760655612147" r="4" fill="#3b82f6" stroke="#0d1117" stroke-width="2" class="data-point"/>
  
    <circle cx="448.35616438356163" cy="266.28886952858727" r="4" fill="#3b82f6" stroke="#0d1117" stroke-width="2" class="data-point"/>
  
    <circle cx="453.1506849315069" cy="265.24930111438744" r="4" fill="#3b82f6" stroke="#0d1117" stroke-width="2" class="data-point"/>
  
    <circle cx="457.9452054794521" cy="264.24793206448896" r="4" fill="#3b82f6" stroke="#0d1117" stroke-width="2" class="data-point"/>
  
    <circle cx="462.73972602739724" cy="263.4157316279248" r="4" fill="#3b82f6" stroke="#0d1117" stroke-width="2" class="data-point"/>
  
    <circle cx="467.5342465753425" cy="262.60808792555434" r="4" fill="#3b82f6" stroke="#0d1117" stroke-width="2" class="data-point"/>
  
    <circle cx="472.32876712328766" cy="261.79771569716235" r="4" fill="#3b82f6" stroke="#0d1117" stroke-width="2" class="data-point"/>
  
    <circle cx="477.1232876712329" cy="260.8290889595221" r="4" fill="#3b82f6" stroke="#0d1117" stroke-width="2" class="data-point"/>
  
    <circle cx="481.9178082191781" cy="259.8331769616666" r="4" fill="#3b82f6" stroke="#0d1117" stroke-width="2" class="data-point"/>
  
    <circle cx="486.71232876712327" cy="258.6244399341324" r="4" fill="#3b82f6" stroke="#0d1117" stroke-width="2" class="data-point"/>
  
    <circle cx="491.5068493150685" cy="257.6448990924061" r="4" fill="#3b82f6" stroke="#0d1117" stroke-width="2" class="data-point"/>
  
    <circle cx="496.30136986301375" cy="256.8454409681002" r="4" fill="#3b82f6" stroke="#0d1117" stroke-width="2" class="data-point"/>
  
    <circle cx="501.0958904109589" cy="256.0241546356221" r="4" fill="#3b82f6" stroke="#0d1117" stroke-width="2" class="data-point"/>
  
    <circle cx="505.8904109589041" cy="255.2383391414238" r="4" fill="#3b82f6" stroke="#0d1117" stroke-width="2" class="data-point"/>
  
    <circle cx="510.68493150684935" cy="254.26698387776202" r="4" fill="#3b82f6" stroke="#0d1117" stroke-width="2" class="data-point"/>
  
    <circle cx="515.4794520547946" cy="253.27107187990657" r="4" fill="#3b82f6" stroke="#0d1117" stroke-width="2" class="data-point"/>
  
    <circle cx="520.2739726027397" cy="251.06915138053841" r="4" fill="#3b82f6" stroke="#0d1117" stroke-width="2" class="data-point"/>
  
    <circle cx="525.0684931506848" cy="246.68713858997435" r="4" fill="#3b82f6" stroke="#0d1117" stroke-width="2" class="data-point"/>
  
    <circle cx="529.8630136986301" cy="241.46746831080304" r="4" fill="#3b82f6" stroke="#0d1117" stroke-width="2" class="data-point"/>
  
    <circle cx="534.6575342465753" cy="236.71164745529046" r="4" fill="#3b82f6" stroke="#0d1117" stroke-width="2" class="data-point"/>
  
    <circle cx="539.4520547945206" cy="234.29963045226515" r="4" fill="#3b82f6" stroke="#0d1117" stroke-width="2" class="data-point"/>
  
    <circle cx="544.2465753424658" cy="230.66523379159804" r="4" fill="#3b82f6" stroke="#0d1117" stroke-width="2" class="data-point"/>
  
    <circle cx="549.041095890411" cy="228.25048826255122" r="4" fill="#3b82f6" stroke="#0d1117" stroke-width="2" class="data-point"/>
  
    <circle cx="553.8356164383562" cy="226.13315206985027" r="4" fill="#3b82f6" stroke="#0d1117" stroke-width="2" class="data-point"/>
  
    <circle cx="558.6301369863013" cy="224.06220081951517" r="4" fill="#3b82f6" stroke="#0d1117" stroke-width="2" class="data-point"/>
  
    <circle cx="563.4246575342465" cy="222.11130471412707" r="4" fill="#3b82f6" stroke="#0d1117" stroke-width="2" class="data-point"/>
  
    <circle cx="568.2191780821918" cy="219.07718377819475" r="4" fill="#3b82f6" stroke="#0d1117" stroke-width="2" class="data-point"/>
  
    <circle cx="573.013698630137" cy="216.66516677516944" r="4" fill="#3b82f6" stroke="#0d1117" stroke-width="2" class="data-point"/>
  
    <circle cx="577.8082191780821" cy="213.58193237084976" r="4" fill="#3b82f6" stroke="#0d1117" stroke-width="2" class="data-point"/>
  
    <circle cx="582.6027397260274" cy="212.95164285987823" r="4" fill="#3b82f6" stroke="#0d1117" stroke-width="2" class="data-point"/>
  
    <circle cx="587.3972602739726" cy="212.86978707923257" r="4" fill="#3b82f6" stroke="#0d1117" stroke-width="2" class="data-point"/>
  
    <circle cx="592.1917808219179" cy="212.7633745643932" r="4" fill="#3b82f6" stroke="#0d1117" stroke-width="2" class="data-point"/>
  
    <circle cx="596.986301369863" cy="212.67333320568298" r="4" fill="#3b82f6" stroke="#0d1117" stroke-width="2" class="data-point"/>
  
    <circle cx="601.7808219178082" cy="212.55600658675755" r="4" fill="#3b82f6" stroke="#0d1117" stroke-width="2" class="data-point"/>
  
    <circle cx="606.5753424657535" cy="212.4523225979397" r="4" fill="#3b82f6" stroke="#0d1117" stroke-width="2" class="data-point"/>
  
    <circle cx="611.3698630136987" cy="212.4113947076169" r="4" fill="#3b82f6" stroke="#0d1117" stroke-width="2" class="data-point"/>
  
    <circle cx="616.1643835616438" cy="212.26132577643318" r="4" fill="#3b82f6" stroke="#0d1117" stroke-width="2" class="data-point"/>
  
    <circle cx="620.9589041095891" cy="212.11671389729253" r="4" fill="#3b82f6" stroke="#0d1117" stroke-width="2" class="data-point"/>
  
    <circle cx="625.7534246575343" cy="212.02121548653926" r="4" fill="#3b82f6" stroke="#0d1117" stroke-width="2" class="data-point"/>
  
    <circle cx="630.5479452054794" cy="211.98574464825947" r="4" fill="#3b82f6" stroke="#0d1117" stroke-width="2" class="data-point"/>
  
    <circle cx="635.3424657534247" cy="211.8247616129897" r="4" fill="#3b82f6" stroke="#0d1117" stroke-width="2" class="data-point"/>
  
    <circle cx="640.1369863013698" cy="207.868398881783" r="4" fill="#3b82f6" stroke="#0d1117" stroke-width="2" class="data-point"/>
  
    <circle cx="644.931506849315" cy="201.6719162869069" r="4" fill="#3b82f6" stroke="#0d1117" stroke-width="2" class="data-point"/>
  
    <circle cx="649.7260273972603" cy="197.52182820817217" r="4" fill="#3b82f6" stroke="#0d1117" stroke-width="2" class="data-point"/>
  
    <circle cx="654.5205479452054" cy="192.70325125416457" r="4" fill="#3b82f6" stroke="#0d1117" stroke-width="2" class="data-point"/>
  
    <circle cx="659.3150684931506" cy="187.73733389499483" r="4" fill="#3b82f6" stroke="#0d1117" stroke-width="2" class="data-point"/>
  
    <circle cx="664.1095890410959" cy="183.84099873626164" r="4" fill="#3b82f6" stroke="#0d1117" stroke-width="2" class="data-point"/>
  
    <circle cx="668.9041095890411" cy="179.48354267989126" r="4" fill="#3b82f6" stroke="#0d1117" stroke-width="2" class="data-point"/>
  
    <circle cx="673.6986301369863" cy="172.8450388695286" r="4" fill="#3b82f6" stroke="#0d1117" stroke-width="2" class="data-point"/>
  
    <circle cx="678.4931506849315" cy="163.89820204495845" r="4" fill="#3b82f6" stroke="#0d1117" stroke-width="2" class="data-point"/>
  
    <circle cx="683.2876712328767" cy="158.0591563589017" r="4" fill="#3b82f6" stroke="#0d1117" stroke-width="2" class="data-point"/>
  
    <circle cx="688.082191780822" cy="151.10960058208556" r="4" fill="#3b82f6" stroke="#0d1117" stroke-width="2" class="data-point"/>
  
    <circle cx="692.8767123287671" cy="143.36604373300653" r="4" fill="#3b82f6" stroke="#0d1117" stroke-width="2" class="data-point"/>
  
    <circle cx="697.6712328767123" cy="137.1559185080228" r="4" fill="#3b82f6" stroke="#0d1117" stroke-width="2" class="data-point"/>
  
    <circle cx="702.4657534246576" cy="130.41645923486385" r="4" fill="#3b82f6" stroke="#0d1117" stroke-width="2" class="data-point"/>
  
    <circle cx="707.2602739726028" cy="124.4382587217095" r="4" fill="#3b82f6" stroke="#0d1117" stroke-width="2" class="data-point"/>
  
    <circle cx="712.054794520548" cy="118.51462872898557" r="4" fill="#3b82f6" stroke="#0d1117" stroke-width="2" class="data-point"/>
  
    <circle cx="716.8493150684932" cy="112.60736989239078" r="4" fill="#3b82f6" stroke="#0d1117" stroke-width="2" class="data-point"/>
  
    <circle cx="721.6438356164383" cy="104.56367518094436" r="4" fill="#3b82f6" stroke="#0d1117" stroke-width="2" class="data-point"/>
  
    <circle cx="726.4383561643835" cy="96.49542373530426" r="4" fill="#3b82f6" stroke="#0d1117" stroke-width="2" class="data-point"/>
  
    <circle cx="731.2328767123287" cy="89.7696070922529" r="4" fill="#3b82f6" stroke="#0d1117" stroke-width="2" class="data-point"/>
  
    <circle cx="736.0273972602739" cy="84.13247233178876" r="4" fill="#3b82f6" stroke="#0d1117" stroke-width="2" class="data-point"/>
  
    <circle cx="740.8219178082192" cy="78.66450618465899" r="4" fill="#3b82f6" stroke="#0d1117" stroke-width="2" class="data-point"/>
  
    <circle cx="745.6164383561644" cy="71.40662696741089" r="4" fill="#3b82f6" stroke="#0d1117" stroke-width="2" class="data-point"/>
  
    <circle cx="750.4109589041095" cy="65.77767778501129" r="4" fill="#3b82f6" stroke="#0d1117" stroke-width="2" class="data-point"/>
  
    <circle cx="755.2054794520548" cy="60.20875617508523" r="4" fill="#3b82f6" stroke="#0d1117" stroke-width="2" class="data-point"/>
  
    <circle cx="760" cy="55" r="4" fill="#3b82f6" stroke="#0d1117" stroke-width="2" class="data-point"/>
  

  <!-- Axis lines -->
  <line x1="60" y1="55" x2="60" y2="340"
        stroke="#30363d" stroke-width="2"/>
  <line x1="60" y1="340" x2="760" y2="340"
        stroke="#30363d" stroke-width="2"/>
</svg>