<?xml version="1.0" encoding="UTF-8"?>
<svg width="800" height="400" xmlns="http://www.w3.org/2000/svg">
  <defs>
    <!-- Gradient for area fill -->
    <linearGradient id="areaGradient" x1="0%" y1="0%" x2="0%" y2="100%">
      <stop offset="0%" style="stop-color:#3b82f6;stop-opacity:0.3" />
      <stop offset="100%" style="stop-color:#3b82f6;stop-opacity:0.05" />
    </linearGradient>

    <!-- Glow filter for line -->
    <filter id="glow">
      <feGaussianBlur stdDeviation="2" result="coloredBlur"/>
      <feMerge>
        <feMergeNode in="coloredBlur"/>
        <feMergeNode in="SourceGraphic"/>
      </feMerge>
    </filter>

    <!-- Animation -->
    <style>
      @keyframes draw {
        from { stroke-dashoffset: 2000; }
        to { stroke-dashoffset: 0; }
      }
      @keyframes fadeIn {
        from { opacity: 0; }
        to { opacity: 1; }
      }
      .line-path {
        stroke-dasharray: 2000;
        stroke-dashoffset: 2000;
        animation: draw 1.5s ease-out forwards;
      }
      .area-path {
        opacity: 0;
        animation: fadeIn 1s ease-out 0.5s forwards;
      }
      .data-point {
        opacity: 0;
        animation: fadeIn 0.5s ease-out 1s forwards;
      }
    </style>
  </defs>

  <!-- Background -->
  <rect width="800" height="400" fill="#0d1117" rx="8"/>

  <!-- Title -->
  <text x="400" y="25" text-anchor="middle" fill="#c9d1d9" font-family="system-ui, -apple-system, sans-serif" font-size="16" font-weight="600">
    zxcloli666/SoundCloud-Desktop Downloads
  </text>

  <!-- Stats -->
  <text x="780" y="25" text-anchor="end" fill="#58a6ff" font-family="system-ui, -apple-system, sans-serif" font-size="14" font-weight="600">
    87.9K total
  </text>
  <text x="780" y="42" text-anchor="end" fill="#3fb950" font-family="system-ui, -apple-system, sans-serif" font-size="12">
    +367 (+0.4%)
  </text>

  <!-- Grid lines -->
  <g opacity="0.1">
    
      <line x1="60" y1="340" x2="760" y2="340"
            stroke="#c9d1d9" stroke-width="1"/>
    
      <line x1="60" y1="268.75" x2="760" y2="268.75"
            stroke="#c9d1d9" stroke-width="1"/>
    
      <line x1="60" y1="197.5" x2="760" y2="197.5"
            stroke="#c9d1d9" stroke-width="1"/>
    
      <line x1="60" y1="126.25" x2="760" y2="126.25"
            stroke="#c9d1d9" stroke-width="1"/>
    
      <line x1="60" y1="55" x2="760" y2="55"
            stroke="#c9d1d9" stroke-width="1"/>
    
  </g>

  <!-- Y-axis labels -->
  
    <text x="50" y="344" text-anchor="end"
          fill="#8b949e" font-family="system-ui, -apple-system, sans-serif" font-size="11">
      60.2K
    </text>
  
    <text x="50" y="272.75" text-anchor="end"
          fill="#8b949e" font-family="system-ui, -apple-system, sans-serif" font-size="11">
      67.1K
    </text>
  
    <text x="50" y="201.5" text-anchor="end"
          fill="#8b949e" font-family="system-ui, -apple-system, sans-serif" font-size="11">
      74.0K
    </text>
  
    <text x="50" y="130.25" text-anchor="end"
          fill="#8b949e" font-family="system-ui, -apple-system, sans-serif" font-size="11">
      81.0K
    </text>
  
    <text x="50" y="59" text-anchor="end"
          fill="#8b949e" font-family="system-ui, -apple-system, sans-serif" font-size="11">
      87.9K
    </text>
  

  <!-- X-axis labels -->
  
    <text x="60" y="360" text-anchor="middle"
          fill="#8b949e" font-family="system-ui, -apple-system, sans-serif" font-size="11">
      Nov 25
    </text>
  
    <text x="144.33734939759034" y="360" text-anchor="middle"
          fill="#8b949e" font-family="system-ui, -apple-system, sans-serif" font-size="11">
      Dec 5
    </text>
  
    <text x="228.67469879518072" y="360" text-anchor="middle"
          fill="#8b949e" font-family="system-ui, -apple-system, sans-serif" font-size="11">
      Dec 15
    </text>
  
    <text x="313.0120481927711" y="360" text-anchor="middle"
          fill="#8b949e" font-family="system-ui, -apple-system, sans-serif" font-size="11">
      Dec 25
    </text>
  
    <text x="397.34939759036143" y="360" text-anchor="middle"
          fill="#8b949e" font-family="system-ui, -apple-system, sans-serif" font-size="11">
      Jan 4
    </text>
  
    <text x="481.68674698795184" y="360" text-anchor="middle"
          fill="#8b949e" font-family="system-ui, -apple-system, sans-serif" font-size="11">
      Jan 14
    </text>
  
    <text x="566.0240963855422" y="360" text-anchor="middle"
          fill="#8b949e" font-family="system-ui, -apple-system, sans-serif" font-size="11">
      Jan 24
    </text>
  
    <text x="650.3614457831326" y="360" text-anchor="middle"
          fill="#8b949e" font-family="system-ui, -apple-system, sans-serif" font-size="11">
      Feb 3
    </text>
  
    <text x="734.6987951807229" y="360" text-anchor="middle"
          fill="#8b949e" font-family="system-ui, -apple-system, sans-serif" font-size="11">
      Feb 13
    </text>
  
    <text x="760" y="360" text-anchor="middle"
          fill="#8b949e" font-family="system-ui, -apple-system, sans-serif" font-size="11">
      Feb 16
    </text>
  

  <!-- Area under line -->
  <path d="M 60 340
    L 60.00 340.00 L 68.43 338.49 L 76.87 335.92 L 85.30 333.54 L 93.73 328.81 L 102.17 323.92 L 110.60 320.07 L 119.04 316.48 L 127.47 313.29 L 135.90 309.54 L 144.34 305.36 L 152.77 300.89 L 161.20 296.82 L 169.64 292.50 L 178.07 289.35 L 186.51 286.09 L 194.94 281.65 L 203.37 278.68 L 211.81 274.58 L 220.24 269.84 L 228.67 266.26 L 237.11 263.33 L 245.54 261.43 L 253.98 259.85 L 262.41 256.92 L 270.84 254.84 L 279.28 250.27 L 287.71 248.47 L 296.14 246.15 L 304.58 243.16 L 313.01 241.10 L 321.45 239.02 L 329.88 236.83 L 338.31 235.31 L 346.75 234.00 L 355.18 232.00 L 363.61 229.56 L 372.05 227.33 L 380.48 224.49 L 388.92 221.40 L 397.35 218.57 L 405.78 215.15 L 414.22 211.79 L 422.65 208.44 L 431.08 204.76 L 439.52 201.25 L 447.95 197.24 L 456.39 193.66 L 464.82 190.63 L 473.25 188.20 L 481.69 184.82 L 490.12 180.95 L 498.55 177.41 L 506.99 173.27 L 515.42 168.17 L 523.86 164.37 L 532.29 161.22 L 540.72 158.22 L 549.16 154.62 L 557.59 150.43 L 566.02 145.79 L 574.46 140.91 L 582.89 136.23 L 591.33 132.11 L 599.76 128.03 L 608.19 124.43 L 616.63 120.75 L 625.06 116.64 L 633.49 111.53 L 641.93 107.72 L 650.36 104.32 L 658.80 100.53 L 667.23 97.00 L 675.66 93.12 L 684.10 89.07 L 692.53 84.84 L 700.96 81.14 L 709.40 77.96 L 717.83 74.48 L 726.27 70.72 L 734.70 67.23 L 743.13 62.68 L 751.57 58.77 L 760.00 55.00
    L 760 340
    Z" fill="url(#areaGradient)" class="area-path"/>

  <!-- Main line with glow -->
  <path d="M 60.00 340.00 L 68.43 338.49 L 76.87 335.92 L 85.30 333.54 L 93.73 328.81 L 102.17 323.92 L 110.60 320.07 L 119.04 316.48 L 127.47 313.29 L 135.90 309.54 L 144.34 305.36 L 152.77 300.89 L 161.20 296.82 L 169.64 292.50 L 178.07 289.35 L 186.51 286.09 L 194.94 281.65 L 203.37 278.68 L 211.81 274.58 L 220.24 269.84 L 228.67 266.26 L 237.11 263.33 L 245.54 261.43 L 253.98 259.85 L 262.41 256.92 L 270.84 254.84 L 279.28 250.27 L 287.71 248.47 L 296.14 246.15 L 304.58 243.16 L 313.01 241.10 L 321.45 239.02 L 329.88 236.83 L 338.31 235.31 L 346.75 234.00 L 355.18 232.00 L 363.61 229.56 L 372.05 227.33 L 380.48 224.49 L 388.92 221.40 L 397.35 218.57 L 405.78 215.15 L 414.22 211.79 L 422.65 208.44 L 431.08 204.76 L 439.52 201.25 L 447.95 197.24 L 456.39 193.66 L 464.82 190.63 L 473.25 188.20 L 481.69 184.82 L 490.12 180.95 L 498.55 177.41 L 506.99 173.27 L 515.42 168.17 L 523.86 164.37 L 532.29 161.22 L 540.72 158.22 L 549.16 154.62 L 557.59 150.43 L 566.02 145.79 L 574.46 140.91 L 582.89 136.23 L 591.33 132.11 L 599.76 128.03 L 608.19 124.43 L 616.63 120.75 L 625.06 116.64 L 633.49 111.53 L 641.93 107.72 L 650.36 104.32 L 658.80 100.53 L 667.23 97.00 L 675.66 93.12 L 684.10 89.07 L 692.53 84.84 L 700.96 81.14 L 709.40 77.96 L 717.83 74.48 L 726.27 70.72 L 734.70 67.23 L 743.13 62.68 L 751.57 58.77 L 760.00 55.00" fill="none" stroke="#3b82f6" stroke-width="3"
        stroke-linecap="round" stroke-linejoin="round" filter="url(#glow)" class="line-path"/>

  <!-- Data points -->
  
    <circle cx="60" cy="340" r="4" fill="#3b82f6" stroke="#0d1117" stroke-width="2" class="data-point"/>
  
    <circle cx="68.43373493975903" cy="338.4909771998703" r="4" fill="#3b82f6" stroke="#0d1117" stroke-width="2" class="data-point"/>
  
    <circle cx="76.86746987951807" cy="335.92461189352736" r="4" fill="#3b82f6" stroke="#0d1117" stroke-width="2" class="data-point"/>
  
    <circle cx="85.3012048192771" cy="333.54302488924105" r="4" fill="#3b82f6" stroke="#0d1117" stroke-width="2" class="data-point"/>
  
    <circle cx="93.73493975903614" cy="328.81064726434465" r="4" fill="#3b82f6" stroke="#0d1117" stroke-width="2" class="data-point"/>
  
    <circle cx="102.16867469879517" cy="323.9242877210676" r="4" fill="#3b82f6" stroke="#0d1117" stroke-width="2" class="data-point"/>
  
    <circle cx="110.6024096385542" cy="320.07473976155313" r="4" fill="#3b82f6" stroke="#0d1117" stroke-width="2" class="data-point"/>
  
    <circle cx="119.03614457831324" cy="316.481828332673" r="4" fill="#3b82f6" stroke="#0d1117" stroke-width="2" class="data-point"/>
  
    <circle cx="127.46987951807229" cy="313.2892698915823" r="4" fill="#3b82f6" stroke="#0d1117" stroke-width="2" class="data-point"/>
  
    <circle cx="135.90361445783134" cy="309.5423765443216" r="4" fill="#3b82f6" stroke="#0d1117" stroke-width="2" class="data-point"/>
  
    <circle cx="144.33734939759034" cy="305.3643338255952" r="4" fill="#3b82f6" stroke="#0d1117" stroke-width="2" class="data-point"/>
  
    <circle cx="152.7710843373494" cy="300.88859273133306" r="4" fill="#3b82f6" stroke="#0d1117" stroke-width="2" class="data-point"/>
  
    <circle cx="161.2048192771084" cy="296.8234700860858" r="4" fill="#3b82f6" stroke="#0d1117" stroke-width="2" class="data-point"/>
  
    <circle cx="169.63855421686748" cy="292.5017109102042" r="4" fill="#3b82f6" stroke="#0d1117" stroke-width="2" class="data-point"/>
  
    <circle cx="178.07228915662648" cy="289.35021431401503" r="4" fill="#3b82f6" stroke="#0d1117" stroke-width="2" class="data-point"/>
  
    <circle cx="186.50602409638554" cy="286.08579764434677" r="4" fill="#3b82f6" stroke="#0d1117" stroke-width="2" class="data-point"/>
  
    <circle cx="194.93975903614458" cy="281.65111839498616" r="4" fill="#3b82f6" stroke="#0d1117" stroke-width="2" class="data-point"/>
  
    <circle cx="203.3734939759036" cy="278.6844001008536" r="4" fill="#3b82f6" stroke="#0d1117" stroke-width="2" class="data-point"/>
  
    <circle cx="211.80722891566265" cy="274.5782156107049" r="4" fill="#3b82f6" stroke="#0d1117" stroke-width="2" class="data-point"/>
  
    <circle cx="220.24096385542168" cy="269.8355725245831" r="4" fill="#3b82f6" stroke="#0d1117" stroke-width="2" class="data-point"/>
  
    <circle cx="228.67469879518072" cy="266.26319201815363" r="4" fill="#3b82f6" stroke="#0d1117" stroke-width="2" class="data-point"/>
  
    <circle cx="237.10843373493975" cy="263.3272701076973" r="4" fill="#3b82f6" stroke="#0d1117" stroke-width="2" class="data-point"/>
  
    <circle cx="245.54216867469881" cy="261.4281597810035" r="4" fill="#3b82f6" stroke="#0d1117" stroke-width="2" class="data-point"/>
  
    <circle cx="253.97590361445782" cy="259.84727875229623" r="4" fill="#3b82f6" stroke="#0d1117" stroke-width="2" class="data-point"/>
  
    <circle cx="262.4096385542168" cy="256.9216223030652" r="4" fill="#3b82f6" stroke="#0d1117" stroke-width="2" class="data-point"/>
  
    <circle cx="270.84337349397595" cy="254.83773367431473" r="4" fill="#3b82f6" stroke="#0d1117" stroke-width="2" class="data-point"/>
  
    <circle cx="279.27710843373495" cy="250.26960342902424" r="4" fill="#3b82f6" stroke="#0d1117" stroke-width="2" class="data-point"/>
  
    <circle cx="287.71084337349396" cy="248.47314771458417" r="4" fill="#3b82f6" stroke="#0d1117" stroke-width="2" class="data-point"/>
  
    <circle cx="296.14457831325296" cy="246.1531534776501" r="4" fill="#3b82f6" stroke="#0d1117" stroke-width="2" class="data-point"/>
  
    <circle cx="304.5783132530121" cy="243.1556387998415" r="4" fill="#3b82f6" stroke="#0d1117" stroke-width="2" class="data-point"/>
  
    <circle cx="313.0120481927711" cy="241.10254655476712" r="4" fill="#3b82f6" stroke="#0d1117" stroke-width="2" class="data-point"/>
  
    <circle cx="321.4457831325301" cy="239.01865792601666" r="4" fill="#3b82f6" stroke="#0d1117" stroke-width="2" class="data-point"/>
  
    <circle cx="329.87951807228916" cy="236.8321146850124" r="4" fill="#3b82f6" stroke="#0d1117" stroke-width="2" class="data-point"/>
  
    <circle cx="338.3132530120482" cy="235.31282642365738" r="4" fill="#3b82f6" stroke="#0d1117" stroke-width="2" class="data-point"/>
  
    <circle cx="346.7469879518072" cy="233.99884738680979" r="4" fill="#3b82f6" stroke="#0d1117" stroke-width="2" class="data-point"/>
  
    <circle cx="355.1807228915663" cy="231.99708244786228" r="4" fill="#3b82f6" stroke="#0d1117" stroke-width="2" class="data-point"/>
  
    <circle cx="363.6144578313253" cy="229.56416813744914" r="4" fill="#3b82f6" stroke="#0d1117" stroke-width="2" class="data-point"/>
  
    <circle cx="372.04819277108436" cy="227.32629759031806" r="4" fill="#3b82f6" stroke="#0d1117" stroke-width="2" class="data-point"/>
  
    <circle cx="380.48192771084337" cy="224.4930302921154" r="4" fill="#3b82f6" stroke="#0d1117" stroke-width="2" class="data-point"/>
  
    <circle cx="388.9156626506024" cy="221.40312646327845" r="4" fill="#3b82f6" stroke="#0d1117" stroke-width="2" class="data-point"/>
  
    <circle cx="397.34939759036143" cy="218.56985916507583" r="4" fill="#3b82f6" stroke="#0d1117" stroke-width="2" class="data-point"/>
  
    <circle cx="405.78313253012044" cy="215.15146057702697" r="4" fill="#3b82f6" stroke="#0d1117" stroke-width="2" class="data-point"/>
  
    <circle cx="414.2168674698795" cy="211.79465475633037" r="4" fill="#3b82f6" stroke="#0d1117" stroke-width="2" class="data-point"/>
  
    <circle cx="422.65060240963857" cy="208.43784893563375" r="4" fill="#3b82f6" stroke="#0d1117" stroke-width="2" class="data-point"/>
  
    <circle cx="431.08433734939763" cy="204.76281381695063" r="4" fill="#3b82f6" stroke="#0d1117" stroke-width="2" class="data-point"/>
  
    <circle cx="439.5180722891566" cy="201.25202607787344" r="4" fill="#3b82f6" stroke="#0d1117" stroke-width="2" class="data-point"/>
  
    <circle cx="447.95180722891564" cy="197.238230738753" r="4" fill="#3b82f6" stroke="#0d1117" stroke-width="2" class="data-point"/>
  
    <circle cx="456.3855421686747" cy="193.65558477109823" r="4" fill="#3b82f6" stroke="#0d1117" stroke-width="2" class="data-point"/>
  
    <circle cx="464.8192771084337" cy="190.62727370961352" r="4" fill="#3b82f6" stroke="#0d1117" stroke-width="2" class="data-point"/>
  
    <circle cx="473.2530120481928" cy="188.20462486042575" r="4" fill="#3b82f6" stroke="#0d1117" stroke-width="2" class="data-point"/>
  
    <circle cx="481.68674698795184" cy="184.817022656053" r="4" fill="#3b82f6" stroke="#0d1117" stroke-width="2" class="data-point"/>
  
    <circle cx="490.12048192771084" cy="180.9469437740878" r="4" fill="#3b82f6" stroke="#0d1117" stroke-width="2" class="data-point"/>
  
    <circle cx="498.5542168674699" cy="177.40535965133452" r="4" fill="#3b82f6" stroke="#0d1117" stroke-width="2" class="data-point"/>
  
    <circle cx="506.98795180722885" cy="173.26837877750964" r="4" fill="#3b82f6" stroke="#0d1117" stroke-width="2" class="data-point"/>
  
    <circle cx="515.4216867469879" cy="168.1664445484998" r="4" fill="#3b82f6" stroke="#0d1117" stroke-width="2" class="data-point"/>
  
    <circle cx="523.8554216867469" cy="164.36822389511218" r="4" fill="#3b82f6" stroke="#0d1117" stroke-width="2" class="data-point"/>
  
    <circle cx="532.2891566265059" cy="161.21672729892302" r="4" fill="#3b82f6" stroke="#0d1117" stroke-width="2" class="data-point"/>
  
    <circle cx="540.722891566265" cy="158.21921262111442" r="4" fill="#3b82f6" stroke="#0d1117" stroke-width="2" class="data-point"/>
  
    <circle cx="549.1566265060242" cy="154.61603573100888" r="4" fill="#3b82f6" stroke="#0d1117" stroke-width="2" class="data-point"/>
  
    <circle cx="557.5903614457832" cy="150.42772755105716" r="4" fill="#3b82f6" stroke="#0d1117" stroke-width="2" class="data-point"/>
  
    <circle cx="566.0240963855422" cy="145.7877390771891" r="4" fill="#3b82f6" stroke="#0d1117" stroke-width="2" class="data-point"/>
  
    <circle cx="574.4578313253012" cy="140.9116449951374" r="4" fill="#3b82f6" stroke="#0d1117" stroke-width="2" class="data-point"/>
  
    <circle cx="582.8915662650602" cy="136.23059467636782" r="4" fill="#3b82f6" stroke="#0d1117" stroke-width="2" class="data-point"/>
  
    <circle cx="591.3253012048193" cy="132.1141447249937" r="4" fill="#3b82f6" stroke="#0d1117" stroke-width="2" class="data-point"/>
  
    <circle cx="599.7590361445783" cy="128.0284911572957" r="4" fill="#3b82f6" stroke="#0d1117" stroke-width="2" class="data-point"/>
  
    <circle cx="608.1927710843373" cy="124.42531426719015" r="4" fill="#3b82f6" stroke="#0d1117" stroke-width="2" class="data-point"/>
  
    <circle cx="616.6265060240964" cy="120.75027914850699" r="4" fill="#3b82f6" stroke="#0d1117" stroke-width="2" class="data-point"/>
  
    <circle cx="625.0602409638554" cy="116.64409465835826" r="4" fill="#3b82f6" stroke="#0d1117" stroke-width="2" class="data-point"/>
  
    <circle cx="633.4939759036145" cy="111.53189496812305" r="4" fill="#3b82f6" stroke="#0d1117" stroke-width="2" class="data-point"/>
  
    <circle cx="641.9277108433735" cy="107.72340885351005" r="4" fill="#3b82f6" stroke="#0d1117" stroke-width="2" class="data-point"/>
  
    <circle cx="650.3614457831326" cy="104.3152757266866" r="4" fill="#3b82f6" stroke="#0d1117" stroke-width="2" class="data-point"/>
  
    <circle cx="658.7951807228916" cy="100.52732053452436" r="4" fill="#3b82f6" stroke="#0d1117" stroke-width="2" class="data-point"/>
  
    <circle cx="667.2289156626506" cy="96.99600187299643" r="4" fill="#3b82f6" stroke="#0d1117" stroke-width="2" class="data-point"/>
  
    <circle cx="675.6626506024096" cy="93.11565752980584" r="4" fill="#3b82f6" stroke="#0d1117" stroke-width="2" class="data-point"/>
  
    <circle cx="684.0963855421687" cy="89.07106580700932" r="4" fill="#3b82f6" stroke="#0d1117" stroke-width="2" class="data-point"/>
  
    <circle cx="692.5301204819277" cy="84.84169578215611" r="4" fill="#3b82f6" stroke="#0d1117" stroke-width="2" class="data-point"/>
  
    <circle cx="700.9638554216867" cy="81.13586427979686" r="4" fill="#3b82f6" stroke="#0d1117" stroke-width="2" class="data-point"/>
  
    <circle cx="709.3975903614457" cy="77.96383676115693" r="4" fill="#3b82f6" stroke="#0d1117" stroke-width="2" class="data-point"/>
  
    <circle cx="717.8313253012049" cy="74.48384540575586" r="4" fill="#3b82f6" stroke="#0d1117" stroke-width="2" class="data-point"/>
  
    <circle cx="726.2650602409639" cy="70.71642113604435" r="4" fill="#3b82f6" stroke="#0d1117" stroke-width="2" class="data-point"/>
  
    <circle cx="734.6987951807229" cy="67.22616431941793" r="4" fill="#3b82f6" stroke="#0d1117" stroke-width="2" class="data-point"/>
  
    <circle cx="743.132530120482" cy="62.67856499657819" r="4" fill="#3b82f6" stroke="#0d1117" stroke-width="2" class="data-point"/>
  
    <circle cx="751.5662650602409" cy="58.767424269711455" r="4" fill="#3b82f6" stroke="#0d1117" stroke-width="2" class="data-point"/>
  
    <circle cx="760" cy="55" r="4" fill="#3b82f6" stroke="#0d1117" stroke-width="2" class="data-point"/>
  

  <!-- Axis lines -->
  <line x1="60" y1="55" x2="60" y2="340"
        stroke="#30363d" stroke-width="2"/>
  <line x1="60" y1="340" x2="760" y2="340"
        stroke="#30363d" stroke-width="2"/>
</svg>