<?xml version="1.0" encoding="UTF-8"?>
<svg width="800" height="400" xmlns="http://www.w3.org/2000/svg">
  <defs>
    <!-- Gradient for area fill -->
    <linearGradient id="areaGradient" x1="0%" y1="0%" x2="0%" y2="100%">
      <stop offset="0%" style="stop-color:#3b82f6;stop-opacity:0.3" />
      <stop offset="100%" style="stop-color:#3b82f6;stop-opacity:0.05" />
    </linearGradient>

    <!-- Glow filter for line -->
    <filter id="glow">
      <feGaussianBlur stdDeviation="2" result="coloredBlur"/>
      <feMerge>
        <feMergeNode in="coloredBlur"/>
        <feMergeNode in="SourceGraphic"/>
      </feMerge>
    </filter>

    <!-- Animation -->
    <style>
      @keyframes draw {
        from { stroke-dashoffset: 2000; }
        to { stroke-dashoffset: 0; }
      }
      @keyframes fadeIn {
        from { opacity: 0; }
        to { opacity: 1; }
      }
      .line-path {
        stroke-dasharray: 2000;
        stroke-dashoffset: 2000;
        animation: draw 1.5s ease-out forwards;
      }
      .area-path {
        opacity: 0;
        animation: fadeIn 1s ease-out 0.5s forwards;
      }
      .data-point {
        opacity: 0;
        animation: fadeIn 0.5s ease-out 1s forwards;
      }
    </style>
  </defs>

  <!-- Background -->
  <rect width="800" height="400" fill="#0d1117" rx="8"/>

  <!-- Title -->
  <text x="400" y="25" text-anchor="middle" fill="#c9d1d9" font-family="system-ui, -apple-system, sans-serif" font-size="16" font-weight="600">
    zxcloli666/SoundCloud-Desktop Downloads
  </text>

  <!-- Stats -->
  <text x="780" y="25" text-anchor="end" fill="#58a6ff" font-family="system-ui, -apple-system, sans-serif" font-size="14" font-weight="600">
    258.7K total
  </text>
  <text x="780" y="42" text-anchor="end" fill="#3fb950" font-family="system-ui, -apple-system, sans-serif" font-size="12">
    +1.5K (+0.6%)
  </text>

  <!-- Grid lines -->
  <g opacity="0.1">
    
      <line x1="60" y1="340" x2="760" y2="340"
            stroke="#c9d1d9" stroke-width="1"/>
    
      <line x1="60" y1="268.75" x2="760" y2="268.75"
            stroke="#c9d1d9" stroke-width="1"/>
    
      <line x1="60" y1="197.5" x2="760" y2="197.5"
            stroke="#c9d1d9" stroke-width="1"/>
    
      <line x1="60" y1="126.25" x2="760" y2="126.25"
            stroke="#c9d1d9" stroke-width="1"/>
    
      <line x1="60" y1="55" x2="760" y2="55"
            stroke="#c9d1d9" stroke-width="1"/>
    
  </g>

  <!-- Y-axis labels -->
  
    <text x="50" y="344" text-anchor="end"
          fill="#8b949e" font-family="system-ui, -apple-system, sans-serif" font-size="11">
      60.2K
    </text>
  
    <text x="50" y="272.75" text-anchor="end"
          fill="#8b949e" font-family="system-ui, -apple-system, sans-serif" font-size="11">
      109.8K
    </text>
  
    <text x="50" y="201.5" text-anchor="end"
          fill="#8b949e" font-family="system-ui, -apple-system, sans-serif" font-size="11">
      159.4K
    </text>
  
    <text x="50" y="130.25" text-anchor="end"
          fill="#8b949e" font-family="system-ui, -apple-system, sans-serif" font-size="11">
      209.1K
    </text>
  
    <text x="50" y="59" text-anchor="end"
          fill="#8b949e" font-family="system-ui, -apple-system, sans-serif" font-size="11">
      258.7K
    </text>
  

  <!-- X-axis labels -->
  
    <text x="60" y="360" text-anchor="middle"
          fill="#8b949e" font-family="system-ui, -apple-system, sans-serif" font-size="11">
      Nov 25
    </text>
  
    <text x="147.92270531400965" y="360" text-anchor="middle"
          fill="#8b949e" font-family="system-ui, -apple-system, sans-serif" font-size="11">
      Dec 21
    </text>
  
    <text x="235.84541062801932" y="360" text-anchor="middle"
          fill="#8b949e" font-family="system-ui, -apple-system, sans-serif" font-size="11">
      Jan 16
    </text>
  
    <text x="323.768115942029" y="360" text-anchor="middle"
          fill="#8b949e" font-family="system-ui, -apple-system, sans-serif" font-size="11">
      Feb 11
    </text>
  
    <text x="411.69082125603865" y="360" text-anchor="middle"
          fill="#8b949e" font-family="system-ui, -apple-system, sans-serif" font-size="11">
      Mar 9
    </text>
  
    <text x="499.6135265700483" y="360" text-anchor="middle"
          fill="#8b949e" font-family="system-ui, -apple-system, sans-serif" font-size="11">
      Apr 4
    </text>
  
    <text x="587.536231884058" y="360" text-anchor="middle"
          fill="#8b949e" font-family="system-ui, -apple-system, sans-serif" font-size="11">
      Apr 30
    </text>
  
    <text x="675.4589371980677" y="360" text-anchor="middle"
          fill="#8b949e" font-family="system-ui, -apple-system, sans-serif" font-size="11">
      May 26
    </text>
  
    <text x="760" y="360" text-anchor="middle"
          fill="#8b949e" font-family="system-ui, -apple-system, sans-serif" font-size="11">
      Jun 20
    </text>
  

  <!-- Area under line -->
  <path d="M 60 340
    L 60.00 340.00 L 63.38 339.79 L 66.76 339.43 L 70.14 339.10 L 73.53 338.44 L 76.91 337.75 L 80.29 337.21 L 83.67 336.71 L 87.05 336.27 L 90.43 335.74 L 93.82 335.16 L 97.20 334.53 L 100.58 333.96 L 103.96 333.36 L 107.34 332.92 L 110.72 332.46 L 114.11 331.84 L 117.49 331.43 L 120.87 330.85 L 124.25 330.19 L 127.63 329.69 L 131.01 329.28 L 134.40 329.01 L 137.78 328.79 L 141.16 328.38 L 144.54 328.09 L 147.92 327.45 L 151.30 327.20 L 154.69 326.88 L 158.07 326.46 L 161.45 326.17 L 164.83 325.88 L 168.21 325.58 L 171.59 325.36 L 174.98 325.18 L 178.36 324.90 L 181.74 324.56 L 185.12 324.25 L 188.50 323.85 L 191.88 323.42 L 195.27 323.02 L 198.65 322.54 L 202.03 322.07 L 205.41 321.61 L 208.79 321.09 L 212.17 320.60 L 215.56 320.04 L 218.94 319.54 L 222.32 319.11 L 225.70 318.78 L 229.08 318.30 L 232.46 317.76 L 235.85 317.27 L 239.23 316.69 L 242.61 315.97 L 245.99 315.44 L 249.37 315.00 L 252.75 314.58 L 256.14 314.08 L 259.52 313.49 L 262.90 312.85 L 266.28 312.16 L 269.66 311.51 L 273.04 310.93 L 276.43 310.36 L 279.81 309.86 L 283.19 309.34 L 286.57 308.77 L 289.95 308.06 L 293.33 307.52 L 296.71 307.05 L 300.10 306.52 L 303.48 306.02 L 306.86 305.48 L 310.24 304.92 L 313.62 304.32 L 317.00 303.81 L 320.39 303.36 L 323.77 302.88 L 327.15 302.35 L 330.53 301.86 L 333.91 301.23 L 337.29 300.68 L 340.68 300.15 L 344.06 299.71 L 347.44 299.29 L 350.82 298.86 L 354.20 298.35 L 357.58 297.83 L 360.97 297.19 L 364.35 296.68 L 367.73 296.26 L 371.11 295.83 L 374.49 295.41 L 377.87 294.90 L 381.26 294.38 L 384.64 293.22 L 388.02 290.91 L 391.40 288.17 L 394.78 285.67 L 398.16 284.40 L 401.55 282.49 L 404.93 281.22 L 408.31 280.10 L 411.69 279.01 L 415.07 277.99 L 418.45 276.39 L 421.84 275.12 L 425.22 273.50 L 428.60 273.17 L 431.98 273.12 L 435.36 273.07 L 438.74 273.02 L 442.13 272.96 L 445.51 272.91 L 448.89 272.88 L 452.27 272.80 L 455.65 272.73 L 459.03 272.68 L 462.42 272.66 L 465.80 272.58 L 469.18 270.49 L 472.56 267.23 L 475.94 265.05 L 479.32 262.52 L 482.71 259.90 L 486.09 257.85 L 489.47 255.56 L 492.85 252.07 L 496.23 247.36 L 499.61 244.29 L 503.00 240.64 L 506.38 236.56 L 509.76 233.30 L 513.14 229.75 L 516.52 226.61 L 519.90 223.49 L 523.29 220.38 L 526.67 216.15 L 530.05 211.91 L 533.43 208.37 L 536.81 205.40 L 540.19 202.53 L 543.57 198.71 L 546.96 195.75 L 550.34 192.82 L 553.72 190.08 L 557.10 187.50 L 560.48 184.85 L 563.86 182.59 L 567.25 180.25 L 570.63 177.86 L 574.01 175.34 L 577.39 173.02 L 580.77 170.90 L 584.15 167.05 L 587.54 163.83 L 590.92 160.74 L 594.30 157.77 L 597.68 153.08 L 601.06 150.11 L 604.44 147.55 L 607.83 144.51 L 611.21 140.04 L 614.59 136.83 L 617.97 134.11 L 621.35 131.81 L 624.73 129.63 L 628.12 127.86 L 631.50 125.86 L 634.88 124.23 L 638.26 122.31 L 641.64 119.55 L 645.02 117.17 L 648.41 115.11 L 651.79 113.32 L 655.17 111.48 L 658.55 109.93 L 661.93 107.32 L 665.31 105.09 L 668.70 102.87 L 672.08 101.05 L 675.46 99.37 L 678.84 97.88 L 682.22 95.33 L 685.60 93.26 L 688.99 91.37 L 692.37 89.56 L 695.75 87.99 L 699.13 86.46 L 702.51 85.06 L 705.89 83.72 L 709.28 82.48 L 712.66 80.95 L 716.04 79.30 L 719.42 77.78 L 722.80 75.42 L 726.18 73.71 L 729.57 72.07 L 732.95 70.63 L 736.33 68.95 L 739.71 66.88 L 743.09 65.04 L 746.47 63.41 L 749.86 61.63 L 753.24 59.17 L 756.62 57.16 L 760.00 55.00
    L 760 340
    Z" fill="url(#areaGradient)" class="area-path"/>

  <!-- Main line with glow -->
  <path d="M 60.00 340.00 L 63.38 339.79 L 66.76 339.43 L 70.14 339.10 L 73.53 338.44 L 76.91 337.75 L 80.29 337.21 L 83.67 336.71 L 87.05 336.27 L 90.43 335.74 L 93.82 335.16 L 97.20 334.53 L 100.58 333.96 L 103.96 333.36 L 107.34 332.92 L 110.72 332.46 L 114.11 331.84 L 117.49 331.43 L 120.87 330.85 L 124.25 330.19 L 127.63 329.69 L 131.01 329.28 L 134.40 329.01 L 137.78 328.79 L 141.16 328.38 L 144.54 328.09 L 147.92 327.45 L 151.30 327.20 L 154.69 326.88 L 158.07 326.46 L 161.45 326.17 L 164.83 325.88 L 168.21 325.58 L 171.59 325.36 L 174.98 325.18 L 178.36 324.90 L 181.74 324.56 L 185.12 324.25 L 188.50 323.85 L 191.88 323.42 L 195.27 323.02 L 198.65 322.54 L 202.03 322.07 L 205.41 321.61 L 208.79 321.09 L 212.17 320.60 L 215.56 320.04 L 218.94 319.54 L 222.32 319.11 L 225.70 318.78 L 229.08 318.30 L 232.46 317.76 L 235.85 317.27 L 239.23 316.69 L 242.61 315.97 L 245.99 315.44 L 249.37 315.00 L 252.75 314.58 L 256.14 314.08 L 259.52 313.49 L 262.90 312.85 L 266.28 312.16 L 269.66 311.51 L 273.04 310.93 L 276.43 310.36 L 279.81 309.86 L 283.19 309.34 L 286.57 308.77 L 289.95 308.06 L 293.33 307.52 L 296.71 307.05 L 300.10 306.52 L 303.48 306.02 L 306.86 305.48 L 310.24 304.92 L 313.62 304.32 L 317.00 303.81 L 320.39 303.36 L 323.77 302.88 L 327.15 302.35 L 330.53 301.86 L 333.91 301.23 L 337.29 300.68 L 340.68 300.15 L 344.06 299.71 L 347.44 299.29 L 350.82 298.86 L 354.20 298.35 L 357.58 297.83 L 360.97 297.19 L 364.35 296.68 L 367.73 296.26 L 371.11 295.83 L 374.49 295.41 L 377.87 294.90 L 381.26 294.38 L 384.64 293.22 L 388.02 290.91 L 391.40 288.17 L 394.78 285.67 L 398.16 284.40 L 401.55 282.49 L 404.93 281.22 L 408.31 280.10 L 411.69 279.01 L 415.07 277.99 L 418.45 276.39 L 421.84 275.12 L 425.22 273.50 L 428.60 273.17 L 431.98 273.12 L 435.36 273.07 L 438.74 273.02 L 442.13 272.96 L 445.51 272.91 L 448.89 272.88 L 452.27 272.80 L 455.65 272.73 L 459.03 272.68 L 462.42 272.66 L 465.80 272.58 L 469.18 270.49 L 472.56 267.23 L 475.94 265.05 L 479.32 262.52 L 482.71 259.90 L 486.09 257.85 L 489.47 255.56 L 492.85 252.07 L 496.23 247.36 L 499.61 244.29 L 503.00 240.64 L 506.38 236.56 L 509.76 233.30 L 513.14 229.75 L 516.52 226.61 L 519.90 223.49 L 523.29 220.38 L 526.67 216.15 L 530.05 211.91 L 533.43 208.37 L 536.81 205.40 L 540.19 202.53 L 543.57 198.71 L 546.96 195.75 L 550.34 192.82 L 553.72 190.08 L 557.10 187.50 L 560.48 184.85 L 563.86 182.59 L 567.25 180.25 L 570.63 177.86 L 574.01 175.34 L 577.39 173.02 L 580.77 170.90 L 584.15 167.05 L 587.54 163.83 L 590.92 160.74 L 594.30 157.77 L 597.68 153.08 L 601.06 150.11 L 604.44 147.55 L 607.83 144.51 L 611.21 140.04 L 614.59 136.83 L 617.97 134.11 L 621.35 131.81 L 624.73 129.63 L 628.12 127.86 L 631.50 125.86 L 634.88 124.23 L 638.26 122.31 L 641.64 119.55 L 645.02 117.17 L 648.41 115.11 L 651.79 113.32 L 655.17 111.48 L 658.55 109.93 L 661.93 107.32 L 665.31 105.09 L 668.70 102.87 L 672.08 101.05 L 675.46 99.37 L 678.84 97.88 L 682.22 95.33 L 685.60 93.26 L 688.99 91.37 L 692.37 89.56 L 695.75 87.99 L 699.13 86.46 L 702.51 85.06 L 705.89 83.72 L 709.28 82.48 L 712.66 80.95 L 716.04 79.30 L 719.42 77.78 L 722.80 75.42 L 726.18 73.71 L 729.57 72.07 L 732.95 70.63 L 736.33 68.95 L 739.71 66.88 L 743.09 65.04 L 746.47 63.41 L 749.86 61.63 L 753.24 59.17 L 756.62 57.16 L 760.00 55.00" fill="none" stroke="#3b82f6" stroke-width="3"
        stroke-linecap="round" stroke-linejoin="round" filter="url(#glow)" class="line-path"/>

  <!-- Data points -->
  
    <circle cx="60" cy="340" r="4" fill="#3b82f6" stroke="#0d1117" stroke-width="2" class="data-point"/>
  
    <circle cx="63.38164251207729" cy="339.7890100924639" r="4" fill="#3b82f6" stroke="#0d1117" stroke-width="2" class="data-point"/>
  
    <circle cx="66.76328502415458" cy="339.4301837191032" r="4" fill="#3b82f6" stroke="#0d1117" stroke-width="2" class="data-point"/>
  
    <circle cx="70.14492753623189" cy="339.09719284462443" r="4" fill="#3b82f6" stroke="#0d1117" stroke-width="2" class="data-point"/>
  
    <circle cx="73.52657004830918" cy="338.4355170121472" r="4" fill="#3b82f6" stroke="#0d1117" stroke-width="2" class="data-point"/>
  
    <circle cx="76.90821256038647" cy="337.7523115972684" r="4" fill="#3b82f6" stroke="#0d1117" stroke-width="2" class="data-point"/>
  
    <circle cx="80.28985507246377" cy="337.2140720372273" r="4" fill="#3b82f6" stroke="#0d1117" stroke-width="2" class="data-point"/>
  
    <circle cx="83.67149758454106" cy="336.7117151145223" r="4" fill="#3b82f6" stroke="#0d1117" stroke-width="2" class="data-point"/>
  
    <circle cx="87.05314009661836" cy="336.2653351060615" r="4" fill="#3b82f6" stroke="#0d1117" stroke-width="2" class="data-point"/>
  
    <circle cx="90.43478260869566" cy="335.74144860095487" r="4" fill="#3b82f6" stroke="#0d1117" stroke-width="2" class="data-point"/>
  
    <circle cx="93.81642512077295" cy="335.1572792651236" r="4" fill="#3b82f6" stroke="#0d1117" stroke-width="2" class="data-point"/>
  
    <circle cx="97.19806763285024" cy="334.53148606998246" r="4" fill="#3b82f6" stroke="#0d1117" stroke-width="2" class="data-point"/>
  
    <circle cx="100.57971014492753" cy="333.9631050945791" r="4" fill="#3b82f6" stroke="#0d1117" stroke-width="2" class="data-point"/>
  
    <circle cx="103.96135265700482" cy="333.3588414818396" r="4" fill="#3b82f6" stroke="#0d1117" stroke-width="2" class="data-point"/>
  
    <circle cx="107.34299516908212" cy="332.91820269535265" r="4" fill="#3b82f6" stroke="#0d1117" stroke-width="2" class="data-point"/>
  
    <circle cx="110.72463768115942" cy="332.4617755484378" r="4" fill="#3b82f6" stroke="#0d1117" stroke-width="2" class="data-point"/>
  
    <circle cx="114.10628019323671" cy="331.84172357527046" r="4" fill="#3b82f6" stroke="#0d1117" stroke-width="2" class="data-point"/>
  
    <circle cx="117.48792270531402" cy="331.42692028766544" r="4" fill="#3b82f6" stroke="#0d1117" stroke-width="2" class="data-point"/>
  
    <circle cx="120.86956521739131" cy="330.8527980902883" r="4" fill="#3b82f6" stroke="#0d1117" stroke-width="2" class="data-point"/>
  
    <circle cx="124.2512077294686" cy="330.18968695231763" r="4" fill="#3b82f6" stroke="#0d1117" stroke-width="2" class="data-point"/>
  
    <circle cx="127.6328502415459" cy="329.6902006405995" r="4" fill="#3b82f6" stroke="#0d1117" stroke-width="2" class="data-point"/>
  
    <circle cx="131.0144927536232" cy="329.27970326947485" r="4" fill="#3b82f6" stroke="#0d1117" stroke-width="2" class="data-point"/>
  
    <circle cx="134.39613526570048" cy="329.0141717531879" r="4" fill="#3b82f6" stroke="#0d1117" stroke-width="2" class="data-point"/>
  
    <circle cx="137.77777777777777" cy="328.7931347071977" r="4" fill="#3b82f6" stroke="#0d1117" stroke-width="2" class="data-point"/>
  
    <circle cx="141.15942028985506" cy="328.38407264156643" r="4" fill="#3b82f6" stroke="#0d1117" stroke-width="2" class="data-point"/>
  
    <circle cx="144.54106280193236" cy="328.09270562639756" r="4" fill="#3b82f6" stroke="#0d1117" stroke-width="2" class="data-point"/>
  
    <circle cx="147.92270531400965" cy="327.45399468181546" r="4" fill="#3b82f6" stroke="#0d1117" stroke-width="2" class="data-point"/>
  
    <circle cx="151.30434782608694" cy="327.2028162204629" r="4" fill="#3b82f6" stroke="#0d1117" stroke-width="2" class="data-point"/>
  
    <circle cx="154.68599033816423" cy="326.8784371789448" r="4" fill="#3b82f6" stroke="#0d1117" stroke-width="2" class="data-point"/>
  
    <circle cx="158.06763285024155" cy="326.4593279748595" r="4" fill="#3b82f6" stroke="#0d1117" stroke-width="2" class="data-point"/>
  
    <circle cx="161.44927536231884" cy="326.1722668761709" r="4" fill="#3b82f6" stroke="#0d1117" stroke-width="2" class="data-point"/>
  
    <circle cx="164.83091787439614" cy="325.880899861002" r="4" fill="#3b82f6" stroke="#0d1117" stroke-width="2" class="data-point"/>
  
    <circle cx="168.21256038647343" cy="325.57517979089863" r="4" fill="#3b82f6" stroke="#0d1117" stroke-width="2" class="data-point"/>
  
    <circle cx="171.59420289855072" cy="325.3627545778691" r="4" fill="#3b82f6" stroke="#0d1117" stroke-width="2" class="data-point"/>
  
    <circle cx="174.97584541062804" cy="325.1790354747084" r="4" fill="#3b82f6" stroke="#0d1117" stroke-width="2" class="data-point"/>
  
    <circle cx="178.35748792270533" cy="324.89915090348705" r="4" fill="#3b82f6" stroke="#0d1117" stroke-width="2" class="data-point"/>
  
    <circle cx="181.73913043478262" cy="324.5589835015411" r="4" fill="#3b82f6" stroke="#0d1117" stroke-width="2" class="data-point"/>
  
    <circle cx="185.12077294685992" cy="324.24608690397054" r="4" fill="#3b82f6" stroke="#0d1117" stroke-width="2" class="data-point"/>
  
    <circle cx="188.5024154589372" cy="323.8499425877803" r="4" fill="#3b82f6" stroke="#0d1117" stroke-width="2" class="data-point"/>
  
    <circle cx="191.8840579710145" cy="323.4179156342539" r="4" fill="#3b82f6" stroke="#0d1117" stroke-width="2" class="data-point"/>
  
    <circle cx="195.2657004830918" cy="323.0217713180637" r="4" fill="#3b82f6" stroke="#0d1117" stroke-width="2" class="data-point"/>
  
    <circle cx="198.64734299516908" cy="322.5438145887472" r="4" fill="#3b82f6" stroke="#0d1117" stroke-width="2" class="data-point"/>
  
    <circle cx="202.02898550724638" cy="322.07446969239135" r="4" fill="#3b82f6" stroke="#0d1117" stroke-width="2" class="data-point"/>
  
    <circle cx="205.41062801932367" cy="321.6051247960355" r="4" fill="#3b82f6" stroke="#0d1117" stroke-width="2" class="data-point"/>
  
    <circle cx="208.79227053140096" cy="321.091285429383" r="4" fill="#3b82f6" stroke="#0d1117" stroke-width="2" class="data-point"/>
  
    <circle cx="212.17391304347825" cy="320.6004109506255" r="4" fill="#3b82f6" stroke="#0d1117" stroke-width="2" class="data-point"/>
  
    <circle cx="215.55555555555554" cy="320.0392065026893" r="4" fill="#3b82f6" stroke="#0d1117" stroke-width="2" class="data-point"/>
  
    <circle cx="218.93719806763286" cy="319.5382848854777" r="4" fill="#3b82f6" stroke="#0d1117" stroke-width="2" class="data-point"/>
  
    <circle cx="222.31884057971016" cy="319.11486976491204" r="4" fill="#3b82f6" stroke="#0d1117" stroke-width="2" class="data-point"/>
  
    <circle cx="225.70048309178745" cy="318.77613766845957" r="4" fill="#3b82f6" stroke="#0d1117" stroke-width="2" class="data-point"/>
  
    <circle cx="229.08212560386474" cy="318.3024868556234" r="4" fill="#3b82f6" stroke="#0d1117" stroke-width="2" class="data-point"/>
  
    <circle cx="232.46376811594203" cy="317.7613766845954" r="4" fill="#3b82f6" stroke="#0d1117" stroke-width="2" class="data-point"/>
  
    <circle cx="235.84541062801932" cy="317.2661962893576" r="4" fill="#3b82f6" stroke="#0d1117" stroke-width="2" class="data-point"/>
  
    <circle cx="239.22705314009664" cy="316.6877681755001" r="4" fill="#3b82f6" stroke="#0d1117" stroke-width="2" class="data-point"/>
  
    <circle cx="242.6086956521739" cy="315.974421345259" r="4" fill="#3b82f6" stroke="#0d1117" stroke-width="2" class="data-point"/>
  
    <circle cx="245.99033816425123" cy="315.44335831268506" r="4" fill="#3b82f6" stroke="#0d1117" stroke-width="2" class="data-point"/>
  
    <circle cx="249.3719806763285" cy="315.0027195261981" r="4" fill="#3b82f6" stroke="#0d1117" stroke-width="2" class="data-point"/>
  
    <circle cx="252.7536231884058" cy="314.58361032211275" r="4" fill="#3b82f6" stroke="#0d1117" stroke-width="2" class="data-point"/>
  
    <circle cx="256.1352657004831" cy="314.0798180939143" r="4" fill="#3b82f6" stroke="#0d1117" stroke-width="2" class="data-point"/>
  
    <circle cx="259.51690821256034" cy="313.4942134525896" r="4" fill="#3b82f6" stroke="#0d1117" stroke-width="2" class="data-point"/>
  
    <circle cx="262.8985507246377" cy="312.8454553695534" r="4" fill="#3b82f6" stroke="#0d1117" stroke-width="2" class="data-point"/>
  
    <circle cx="266.2801932367149" cy="312.163685260168" r="4" fill="#3b82f6" stroke="#0d1117" stroke-width="2" class="data-point"/>
  
    <circle cx="269.66183574879227" cy="311.50918595515805" r="4" fill="#3b82f6" stroke="#0d1117" stroke-width="2" class="data-point"/>
  
    <circle cx="273.0434782608696" cy="310.9336284522874" r="4" fill="#3b82f6" stroke="#0d1117" stroke-width="2" class="data-point"/>
  
    <circle cx="276.42512077294685" cy="310.36237686589715" r="4" fill="#3b82f6" stroke="#0d1117" stroke-width="2" class="data-point"/>
  
    <circle cx="279.80676328502415" cy="309.8585846376987" r="4" fill="#3b82f6" stroke="#0d1117" stroke-width="2" class="data-point"/>
  
    <circle cx="283.18840579710144" cy="309.3447452710461" r="4" fill="#3b82f6" stroke="#0d1117" stroke-width="2" class="data-point"/>
  
    <circle cx="286.57004830917873" cy="308.77062307366896" r="4" fill="#3b82f6" stroke="#0d1117" stroke-width="2" class="data-point"/>
  
    <circle cx="289.9516908212561" cy="308.05584093793436" r="4" fill="#3b82f6" stroke="#0d1117" stroke-width="2" class="data-point"/>
  
    <circle cx="293.3333333333333" cy="307.523342599867" r="4" fill="#3b82f6" stroke="#0d1117" stroke-width="2" class="data-point"/>
  
    <circle cx="296.71497584541066" cy="307.046821176044" r="4" fill="#3b82f6" stroke="#0d1117" stroke-width="2" class="data-point"/>
  
    <circle cx="300.09661835748796" cy="306.51719344896355" r="4" fill="#3b82f6" stroke="#0d1117" stroke-width="2" class="data-point"/>
  
    <circle cx="303.47826086956525" cy="306.0234483592192" r="4" fill="#3b82f6" stroke="#0d1117" stroke-width="2" class="data-point"/>
  
    <circle cx="306.85990338164254" cy="305.48090288269776" r="4" fill="#3b82f6" stroke="#0d1117" stroke-width="2" class="data-point"/>
  
    <circle cx="310.24154589371983" cy="304.91539251828124" r="4" fill="#3b82f6" stroke="#0d1117" stroke-width="2" class="data-point"/>
  
    <circle cx="313.6231884057971" cy="304.3240466549828" r="4" fill="#3b82f6" stroke="#0d1117" stroke-width="2" class="data-point"/>
  
    <circle cx="317.0048309178744" cy="303.80590137184987" r="4" fill="#3b82f6" stroke="#0d1117" stroke-width="2" class="data-point"/>
  
    <circle cx="320.3864734299517" cy="303.362391974376" r="4" fill="#3b82f6" stroke="#0d1117" stroke-width="2" class="data-point"/>
  
    <circle cx="323.768115942029" cy="302.87582341209884" r="4" fill="#3b82f6" stroke="#0d1117" stroke-width="2" class="data-point"/>
  
    <circle cx="327.14975845410623" cy="302.34906629600533" r="4" fill="#3b82f6" stroke="#0d1117" stroke-width="2" class="data-point"/>
  
    <circle cx="330.5314009661836" cy="301.86106242823473" r="4" fill="#3b82f6" stroke="#0d1117" stroke-width="2" class="data-point"/>
  
    <circle cx="333.9130434782609" cy="301.2252220946395" r="4" fill="#3b82f6" stroke="#0d1117" stroke-width="2" class="data-point"/>
  
    <circle cx="337.29468599033817" cy="300.67837070163773" r="4" fill="#3b82f6" stroke="#0d1117" stroke-width="2" class="data-point"/>
  
    <circle cx="340.67632850241546" cy="300.1516135855442" r="4" fill="#3b82f6" stroke="#0d1117" stroke-width="2" class="data-point"/>
  
    <circle cx="344.05797101449275" cy="299.7138454100441" r="4" fill="#3b82f6" stroke="#0d1117" stroke-width="2" class="data-point"/>
  
    <circle cx="347.43961352657004" cy="299.288994983985" r="4" fill="#3b82f6" stroke="#0d1117" stroke-width="2" class="data-point"/>
  
    <circle cx="350.82125603864733" cy="298.86270925243247" r="4" fill="#3b82f6" stroke="#0d1117" stroke-width="2" class="data-point"/>
  
    <circle cx="354.2028985507246" cy="298.35317580226024" r="4" fill="#3b82f6" stroke="#0d1117" stroke-width="2" class="data-point"/>
  
    <circle cx="357.5845410628019" cy="297.82928929715354" r="4" fill="#3b82f6" stroke="#0d1117" stroke-width="2" class="data-point"/>
  
    <circle cx="360.96618357487927" cy="297.19344896355835" r="4" fill="#3b82f6" stroke="#0d1117" stroke-width="2" class="data-point"/>
  
    <circle cx="364.3478260869565" cy="296.67817429141235" r="4" fill="#3b82f6" stroke="#0d1117" stroke-width="2" class="data-point"/>
  
    <circle cx="367.72946859903385" cy="296.25762978183354" r="4" fill="#3b82f6" stroke="#0d1117" stroke-width="2" class="data-point"/>
  
    <circle cx="371.1111111111111" cy="295.82560282830724" r="4" fill="#3b82f6" stroke="#0d1117" stroke-width="2" class="data-point"/>
  
    <circle cx="374.4927536231884" cy="295.4122348461957" r="4" fill="#3b82f6" stroke="#0d1117" stroke-width="2" class="data-point"/>
  
    <circle cx="377.8743961352657" cy="294.90126609053" r="4" fill="#3b82f6" stroke="#0d1117" stroke-width="2" class="data-point"/>
  
    <circle cx="381.25603864734296" cy="294.37737958542334" r="4" fill="#3b82f6" stroke="#0d1117" stroke-width="2" class="data-point"/>
  
    <circle cx="384.6376811594203" cy="293.2190880522149" r="4" fill="#3b82f6" stroke="#0d1117" stroke-width="2" class="data-point"/>
  
    <circle cx="388.0193236714976" cy="290.9139874297456" r="4" fill="#3b82f6" stroke="#0d1117" stroke-width="2" class="data-point"/>
  
    <circle cx="391.4009661835749" cy="288.1682480207893" r="4" fill="#3b82f6" stroke="#0d1117" stroke-width="2" class="data-point"/>
  
    <circle cx="394.7826086956522" cy="285.66651054571827" r="4" fill="#3b82f6" stroke="#0d1117" stroke-width="2" class="data-point"/>
  
    <circle cx="398.1642512077295" cy="284.3977004895147" r="4" fill="#3b82f6" stroke="#0d1117" stroke-width="2" class="data-point"/>
  
    <circle cx="401.54589371980677" cy="282.48587357224875" r="4" fill="#3b82f6" stroke="#0d1117" stroke-width="2" class="data-point"/>
  
    <circle cx="404.92753623188406" cy="281.21562821055176" r="4" fill="#3b82f6" stroke="#0d1117" stroke-width="2" class="data-point"/>
  
    <circle cx="408.30917874396135" cy="280.10183114764004" r="4" fill="#3b82f6" stroke="#0d1117" stroke-width="2" class="data-point"/>
  
    <circle cx="411.69082125603865" cy="279.01243427811687" r="4" fill="#3b82f6" stroke="#0d1117" stroke-width="2" class="data-point"/>
  
    <circle cx="415.07246376811594" cy="277.9861908503052" r="4" fill="#3b82f6" stroke="#0d1117" stroke-width="2" class="data-point"/>
  
    <circle cx="418.4541062801933" cy="276.39013114159667" r="4" fill="#3b82f6" stroke="#0d1117" stroke-width="2" class="data-point"/>
  
    <circle cx="421.8357487922705" cy="275.1213210853931" r="4" fill="#3b82f6" stroke="#0d1117" stroke-width="2" class="data-point"/>
  
    <circle cx="425.2173913043478" cy="273.49942587780265" r="4" fill="#3b82f6" stroke="#0d1117" stroke-width="2" class="data-point"/>
  
    <circle cx="428.5990338164251" cy="273.1678703088173" r="4" fill="#3b82f6" stroke="#0d1117" stroke-width="2" class="data-point"/>
  
    <circle cx="431.98067632850245" cy="273.124811144014" r="4" fill="#3b82f6" stroke="#0d1117" stroke-width="2" class="data-point"/>
  
    <circle cx="435.36231884057975" cy="273.0688342297698" r="4" fill="#3b82f6" stroke="#0d1117" stroke-width="2" class="data-point"/>
  
    <circle cx="438.743961352657" cy="273.0214691484861" r="4" fill="#3b82f6" stroke="#0d1117" stroke-width="2" class="data-point"/>
  
    <circle cx="442.1256038647343" cy="272.9597510122681" r="4" fill="#3b82f6" stroke="#0d1117" stroke-width="2" class="data-point"/>
  
    <circle cx="445.5072463768116" cy="272.90520940351723" r="4" fill="#3b82f6" stroke="#0d1117" stroke-width="2" class="data-point"/>
  
    <circle cx="448.8888888888889" cy="272.8836798211156" r="4" fill="#3b82f6" stroke="#0d1117" stroke-width="2" class="data-point"/>
  
    <circle cx="452.2705314009662" cy="272.80473801897625" r="4" fill="#3b82f6" stroke="#0d1117" stroke-width="2" class="data-point"/>
  
    <circle cx="455.65217391304344" cy="272.72866682782376" r="4" fill="#3b82f6" stroke="#0d1117" stroke-width="2" class="data-point"/>
  
    <circle cx="459.03381642512073" cy="272.6784311355533" r="4" fill="#3b82f6" stroke="#0d1117" stroke-width="2" class="data-point"/>
  
    <circle cx="462.4154589371981" cy="272.65977216413853" r="4" fill="#3b82f6" stroke="#0d1117" stroke-width="2" class="data-point"/>
  
    <circle cx="465.7971014492754" cy="272.5750891400254" r="4" fill="#3b82f6" stroke="#0d1117" stroke-width="2" class="data-point"/>
  
    <circle cx="469.17874396135267" cy="270.4938961745331" r="4" fill="#3b82f6" stroke="#0d1117" stroke-width="2" class="data-point"/>
  
    <circle cx="472.5603864734299" cy="267.2343173989243" r="4" fill="#3b82f6" stroke="#0d1117" stroke-width="2" class="data-point"/>
  
    <circle cx="475.94202898550725" cy="265.0512177433976" r="4" fill="#3b82f6" stroke="#0d1117" stroke-width="2" class="data-point"/>
  
    <circle cx="479.32367149758454" cy="262.5164682419774" r="4" fill="#3b82f6" stroke="#0d1117" stroke-width="2" class="data-point"/>
  
    <circle cx="482.70531400966183" cy="259.9042122439113" r="4" fill="#3b82f6" stroke="#0d1117" stroke-width="2" class="data-point"/>
  
    <circle cx="486.0869565217392" cy="257.8545959992748" r="4" fill="#3b82f6" stroke="#0d1117" stroke-width="2" class="data-point"/>
  
    <circle cx="489.4685990338164" cy="255.56241312624644" r="4" fill="#3b82f6" stroke="#0d1117" stroke-width="2" class="data-point"/>
  
    <circle cx="492.8502415458937" cy="252.07031486069982" r="4" fill="#3b82f6" stroke="#0d1117" stroke-width="2" class="data-point"/>
  
    <circle cx="496.231884057971" cy="247.36394814770048" r="4" fill="#3b82f6" stroke="#0d1117" stroke-width="2" class="data-point"/>
  
    <circle cx="499.6135265700483" cy="244.29239439173264" r="4" fill="#3b82f6" stroke="#0d1117" stroke-width="2" class="data-point"/>
  
    <circle cx="502.99516908212564" cy="240.63667129993354" r="4" fill="#3b82f6" stroke="#0d1117" stroke-width="2" class="data-point"/>
  
    <circle cx="506.3768115942029" cy="236.56327430954252" r="4" fill="#3b82f6" stroke="#0d1117" stroke-width="2" class="data-point"/>
  
    <circle cx="509.75845410628017" cy="233.29651900646644" r="4" fill="#3b82f6" stroke="#0d1117" stroke-width="2" class="data-point"/>
  
    <circle cx="513.1400966183575" cy="229.75131443766242" r="4" fill="#3b82f6" stroke="#0d1117" stroke-width="2" class="data-point"/>
  
    <circle cx="516.5217391304348" cy="226.606560101529" r="4" fill="#3b82f6" stroke="#0d1117" stroke-width="2" class="data-point"/>
  
    <circle cx="519.9033816425122" cy="223.49051187526442" r="4" fill="#3b82f6" stroke="#0d1117" stroke-width="2" class="data-point"/>
  
    <circle cx="523.2850241545893" cy="220.38307548196047" r="4" fill="#3b82f6" stroke="#0d1117" stroke-width="2" class="data-point"/>
  
    <circle cx="526.6666666666666" cy="216.15179488729075" r="4" fill="#3b82f6" stroke="#0d1117" stroke-width="2" class="data-point"/>
  
    <circle cx="530.0483091787439" cy="211.90759654318003" r="4" fill="#3b82f6" stroke="#0d1117" stroke-width="2" class="data-point"/>
  
    <circle cx="533.4299516908213" cy="208.36956850184325" r="4" fill="#3b82f6" stroke="#0d1117" stroke-width="2" class="data-point"/>
  
    <circle cx="536.8115942028985" cy="205.40422735239017" r="4" fill="#3b82f6" stroke="#0d1117" stroke-width="2" class="data-point"/>
  
    <circle cx="540.1932367149759" cy="202.52787514353057" r="4" fill="#3b82f6" stroke="#0d1117" stroke-width="2" class="data-point"/>
  
    <circle cx="543.5748792270531" cy="198.70996253097238" r="4" fill="#3b82f6" stroke="#0d1117" stroke-width="2" class="data-point"/>
  
    <circle cx="546.9565217391305" cy="195.74892729799964" r="4" fill="#3b82f6" stroke="#0d1117" stroke-width="2" class="data-point"/>
  
    <circle cx="550.3381642512077" cy="192.81946878588263" r="4" fill="#3b82f6" stroke="#0d1117" stroke-width="2" class="data-point"/>
  
    <circle cx="553.7198067632851" cy="190.07947059890012" r="4" fill="#3b82f6" stroke="#0d1117" stroke-width="2" class="data-point"/>
  
    <circle cx="557.1014492753624" cy="187.4987913216897" r="4" fill="#3b82f6" stroke="#0d1117" stroke-width="2" class="data-point"/>
  
    <circle cx="560.4830917874397" cy="184.85495860276788" r="4" fill="#3b82f6" stroke="#0d1117" stroke-width="2" class="data-point"/>
  
    <circle cx="563.8647342995168" cy="182.59435245059527" r="4" fill="#3b82f6" stroke="#0d1117" stroke-width="2" class="data-point"/>
  
    <circle cx="567.2463768115942" cy="180.25336919078987" r="4" fill="#3b82f6" stroke="#0d1117" stroke-width="2" class="data-point"/>
  
    <circle cx="570.6280193236715" cy="177.8635855442074" r="4" fill="#3b82f6" stroke="#0d1117" stroke-width="2" class="data-point"/>
  
    <circle cx="574.0096618357488" cy="175.33744787574787" r="4" fill="#3b82f6" stroke="#0d1117" stroke-width="2" class="data-point"/>
  
    <circle cx="577.391304347826" cy="173.01942950383756" r="4" fill="#3b82f6" stroke="#0d1117" stroke-width="2" class="data-point"/>
  
    <circle cx="580.7729468599034" cy="170.89661267903548" r="4" fill="#3b82f6" stroke="#0d1117" stroke-width="2" class="data-point"/>
  
    <circle cx="584.1545893719807" cy="167.04999395660846" r="4" fill="#3b82f6" stroke="#0d1117" stroke-width="2" class="data-point"/>
  
    <circle cx="587.536231884058" cy="163.83060373481598" r="4" fill="#3b82f6" stroke="#0d1117" stroke-width="2" class="data-point"/>
  
    <circle cx="590.9178743961353" cy="160.73895570193994" r="4" fill="#3b82f6" stroke="#0d1117" stroke-width="2" class="data-point"/>
  
    <circle cx="594.2995169082125" cy="157.7693086360065" r="4" fill="#3b82f6" stroke="#0d1117" stroke-width="2" class="data-point"/>
  
    <circle cx="597.6811594202899" cy="153.08016558892848" r="4" fill="#3b82f6" stroke="#0d1117" stroke-width="2" class="data-point"/>
  
    <circle cx="601.0628019323672" cy="150.113389133982" r="4" fill="#3b82f6" stroke="#0d1117" stroke-width="2" class="data-point"/>
  
    <circle cx="604.4444444444445" cy="147.5456276062126" r="4" fill="#3b82f6" stroke="#0d1117" stroke-width="2" class="data-point"/>
  
    <circle cx="607.8260869565217" cy="144.51282709856773" r="4" fill="#3b82f6" stroke="#0d1117" stroke-width="2" class="data-point"/>
  
    <circle cx="611.207729468599" cy="140.04185048649302" r="4" fill="#3b82f6" stroke="#0d1117" stroke-width="2" class="data-point"/>
  
    <circle cx="614.5893719806763" cy="136.82533087568743" r="4" fill="#3b82f6" stroke="#0d1117" stroke-width="2" class="data-point"/>
  
    <circle cx="617.9710144927536" cy="134.10973288209343" r="4" fill="#3b82f6" stroke="#0d1117" stroke-width="2" class="data-point"/>
  
    <circle cx="621.3526570048309" cy="131.8118087870913" r="4" fill="#3b82f6" stroke="#0d1117" stroke-width="2" class="data-point"/>
  
    <circle cx="624.7342995169082" cy="129.63157974255154" r="4" fill="#3b82f6" stroke="#0d1117" stroke-width="2" class="data-point"/>
  
    <circle cx="628.1159420289855" cy="127.85897745814952" r="4" fill="#3b82f6" stroke="#0d1117" stroke-width="2" class="data-point"/>
  
    <circle cx="631.4975845410628" cy="125.86246751677041" r="4" fill="#3b82f6" stroke="#0d1117" stroke-width="2" class="data-point"/>
  
    <circle cx="634.8792270531401" cy="124.23483108720615" r="4" fill="#3b82f6" stroke="#0d1117" stroke-width="2" class="data-point"/>
  
    <circle cx="638.2608695652174" cy="122.31439233697952" r="4" fill="#3b82f6" stroke="#0d1117" stroke-width="2" class="data-point"/>
  
    <circle cx="641.6425120772947" cy="119.54999395660843" r="4" fill="#3b82f6" stroke="#0d1117" stroke-width="2" class="data-point"/>
  
    <circle cx="645.024154589372" cy="117.17456336496042" r="4" fill="#3b82f6" stroke="#0d1117" stroke-width="2" class="data-point"/>
  
    <circle cx="648.4057971014493" cy="115.10915875989608" r="4" fill="#3b82f6" stroke="#0d1117" stroke-width="2" class="data-point"/>
  
    <circle cx="651.7874396135265" cy="113.32363872605308" r="4" fill="#3b82f6" stroke="#0d1117" stroke-width="2" class="data-point"/>
  
    <circle cx="655.1690821256038" cy="111.48214177796581" r="4" fill="#3b82f6" stroke="#0d1117" stroke-width="2" class="data-point"/>
  
    <circle cx="658.5507246376811" cy="109.92914123406055" r="4" fill="#3b82f6" stroke="#0d1117" stroke-width="2" class="data-point"/>
  
    <circle cx="661.9323671497585" cy="107.31832054148788" r="4" fill="#3b82f6" stroke="#0d1117" stroke-width="2" class="data-point"/>
  
    <circle cx="665.3140096618357" cy="105.08642049918413" r="4" fill="#3b82f6" stroke="#0d1117" stroke-width="2" class="data-point"/>
  
    <circle cx="668.695652173913" cy="102.87317942829515" r="4" fill="#3b82f6" stroke="#0d1117" stroke-width="2" class="data-point"/>
  
    <circle cx="672.0772946859903" cy="101.04603553514232" r="4" fill="#3b82f6" stroke="#0d1117" stroke-width="2" class="data-point"/>
  
    <circle cx="675.4589371980677" cy="99.369598718801" r="4" fill="#3b82f6" stroke="#0d1117" stroke-width="2" class="data-point"/>
  
    <circle cx="678.840579710145" cy="97.88118692210068" r="4" fill="#3b82f6" stroke="#0d1117" stroke-width="2" class="data-point"/>
  
    <circle cx="682.2222222222222" cy="95.32921375475917" r="4" fill="#3b82f6" stroke="#0d1117" stroke-width="2" class="data-point"/>
  
    <circle cx="685.6038647342995" cy="93.25663262222761" r="4" fill="#3b82f6" stroke="#0d1117" stroke-width="2" class="data-point"/>
  
    <circle cx="688.9855072463768" cy="91.36777059285669" r="4" fill="#3b82f6" stroke="#0d1117" stroke-width="2" class="data-point"/>
  
    <circle cx="692.3671497584542" cy="89.56359158759895" r="4" fill="#3b82f6" stroke="#0d1117" stroke-width="2" class="data-point"/>
  
    <circle cx="695.7487922705315" cy="87.98906146129207" r="4" fill="#3b82f6" stroke="#0d1117" stroke-width="2" class="data-point"/>
  
    <circle cx="699.1304347826086" cy="86.46046111077538" r="4" fill="#3b82f6" stroke="#0d1117" stroke-width="2" class="data-point"/>
  
    <circle cx="702.5120772946859" cy="85.05960294917509" r="4" fill="#3b82f6" stroke="#0d1117" stroke-width="2" class="data-point"/>
  
    <circle cx="705.8937198067633" cy="83.71615700731252" r="4" fill="#3b82f6" stroke="#0d1117" stroke-width="2" class="data-point"/>
  
    <circle cx="709.2753623188406" cy="82.48466489393849" r="4" fill="#3b82f6" stroke="#0d1117" stroke-width="2" class="data-point"/>
  
    <circle cx="712.6570048309179" cy="80.9474527104611" r="4" fill="#3b82f6" stroke="#0d1117" stroke-width="2" class="data-point"/>
  
    <circle cx="716.0386473429952" cy="79.29685139300176" r="4" fill="#3b82f6" stroke="#0d1117" stroke-width="2" class="data-point"/>
  
    <circle cx="719.4202898550724" cy="77.77829818093915" r="4" fill="#3b82f6" stroke="#0d1117" stroke-width="2" class="data-point"/>
  
    <circle cx="722.8019323671498" cy="75.41865594971898" r="4" fill="#3b82f6" stroke="#0d1117" stroke-width="2" class="data-point"/>
  
    <circle cx="726.1835748792271" cy="73.70633649604156" r="4" fill="#3b82f6" stroke="#0d1117" stroke-width="2" class="data-point"/>
  
    <circle cx="729.5652173913044" cy="72.0686529280232" r="4" fill="#3b82f6" stroke="#0d1117" stroke-width="2" class="data-point"/>
  
    <circle cx="732.9468599033817" cy="70.63191212908686" r="4" fill="#3b82f6" stroke="#0d1117" stroke-width="2" class="data-point"/>
  
    <circle cx="736.328502415459" cy="68.94686347978484" r="4" fill="#3b82f6" stroke="#0d1117" stroke-width="2" class="data-point"/>
  
    <circle cx="739.7101449275362" cy="66.87715295824017" r="4" fill="#3b82f6" stroke="#0d1117" stroke-width="2" class="data-point"/>
  
    <circle cx="743.0917874396135" cy="65.04283253762014" r="4" fill="#3b82f6" stroke="#0d1117" stroke-width="2" class="data-point"/>
  
    <circle cx="746.4734299516908" cy="63.405148969601726" r="4" fill="#3b82f6" stroke="#0d1117" stroke-width="2" class="data-point"/>
  
    <circle cx="749.8550724637681" cy="61.62680546322599" r="4" fill="#3b82f6" stroke="#0d1117" stroke-width="2" class="data-point"/>
  
    <circle cx="753.2367149758454" cy="59.173868374932" r="4" fill="#3b82f6" stroke="#0d1117" stroke-width="2" class="data-point"/>
  
    <circle cx="756.6183574879227" cy="57.160134767631575" r="4" fill="#3b82f6" stroke="#0d1117" stroke-width="2" class="data-point"/>
  
    <circle cx="760" cy="55" r="4" fill="#3b82f6" stroke="#0d1117" stroke-width="2" class="data-point"/>
  

  <!-- Axis lines -->
  <line x1="60" y1="55" x2="60" y2="340"
        stroke="#30363d" stroke-width="2"/>
  <line x1="60" y1="340" x2="760" y2="340"
        stroke="#30363d" stroke-width="2"/>
</svg>