<?xml version="1.0" encoding="UTF-8"?>
<svg width="800" height="400" xmlns="http://www.w3.org/2000/svg">
  <defs>
    <!-- Gradient for area fill -->
    <linearGradient id="areaGradient" x1="0%" y1="0%" x2="0%" y2="100%">
      <stop offset="0%" style="stop-color:#3b82f6;stop-opacity:0.3" />
      <stop offset="100%" style="stop-color:#3b82f6;stop-opacity:0.05" />
    </linearGradient>

    <!-- Glow filter for line -->
    <filter id="glow">
      <feGaussianBlur stdDeviation="2" result="coloredBlur"/>
      <feMerge>
        <feMergeNode in="coloredBlur"/>
        <feMergeNode in="SourceGraphic"/>
      </feMerge>
    </filter>

    <!-- Animation -->
    <style>
      @keyframes draw {
        from { stroke-dashoffset: 2000; }
        to { stroke-dashoffset: 0; }
      }
      @keyframes fadeIn {
        from { opacity: 0; }
        to { opacity: 1; }
      }
      .line-path {
        stroke-dasharray: 2000;
        stroke-dashoffset: 2000;
        animation: draw 1.5s ease-out forwards;
      }
      .area-path {
        opacity: 0;
        animation: fadeIn 1s ease-out 0.5s forwards;
      }
      .data-point {
        opacity: 0;
        animation: fadeIn 0.5s ease-out 1s forwards;
      }
    </style>
  </defs>

  <!-- Background -->
  <rect width="800" height="400" fill="#0d1117" rx="8"/>

  <!-- Title -->
  <text x="400" y="25" text-anchor="middle" fill="#c9d1d9" font-family="system-ui, -apple-system, sans-serif" font-size="16" font-weight="600">
    zxcloli666/SoundCloud-Desktop Downloads
  </text>

  <!-- Stats -->
  <text x="780" y="25" text-anchor="end" fill="#58a6ff" font-family="system-ui, -apple-system, sans-serif" font-size="14" font-weight="600">
    281.8K total
  </text>
  <text x="780" y="42" text-anchor="end" fill="#3fb950" font-family="system-ui, -apple-system, sans-serif" font-size="12">
    +856 (+0.3%)
  </text>

  <!-- Grid lines -->
  <g opacity="0.1">
    
      <line x1="60" y1="340" x2="760" y2="340"
            stroke="#c9d1d9" stroke-width="1"/>
    
      <line x1="60" y1="268.75" x2="760" y2="268.75"
            stroke="#c9d1d9" stroke-width="1"/>
    
      <line x1="60" y1="197.5" x2="760" y2="197.5"
            stroke="#c9d1d9" stroke-width="1"/>
    
      <line x1="60" y1="126.25" x2="760" y2="126.25"
            stroke="#c9d1d9" stroke-width="1"/>
    
      <line x1="60" y1="55" x2="760" y2="55"
            stroke="#c9d1d9" stroke-width="1"/>
    
  </g>

  <!-- Y-axis labels -->
  
    <text x="50" y="344" text-anchor="end"
          fill="#8b949e" font-family="system-ui, -apple-system, sans-serif" font-size="11">
      60.2K
    </text>
  
    <text x="50" y="272.75" text-anchor="end"
          fill="#8b949e" font-family="system-ui, -apple-system, sans-serif" font-size="11">
      115.6K
    </text>
  
    <text x="50" y="201.5" text-anchor="end"
          fill="#8b949e" font-family="system-ui, -apple-system, sans-serif" font-size="11">
      171.0K
    </text>
  
    <text x="50" y="130.25" text-anchor="end"
          fill="#8b949e" font-family="system-ui, -apple-system, sans-serif" font-size="11">
      226.4K
    </text>
  
    <text x="50" y="59" text-anchor="end"
          fill="#8b949e" font-family="system-ui, -apple-system, sans-serif" font-size="11">
      281.8K
    </text>
  

  <!-- X-axis labels -->
  
    <text x="60" y="360" text-anchor="middle"
          fill="#8b949e" font-family="system-ui, -apple-system, sans-serif" font-size="11">
      Nov 25
    </text>
  
    <text x="145.96491228070175" y="360" text-anchor="middle"
          fill="#8b949e" font-family="system-ui, -apple-system, sans-serif" font-size="11">
      Dec 23
    </text>
  
    <text x="231.9298245614035" y="360" text-anchor="middle"
          fill="#8b949e" font-family="system-ui, -apple-system, sans-serif" font-size="11">
      Jan 20
    </text>
  
    <text x="317.89473684210526" y="360" text-anchor="middle"
          fill="#8b949e" font-family="system-ui, -apple-system, sans-serif" font-size="11">
      Feb 17
    </text>
  
    <text x="403.859649122807" y="360" text-anchor="middle"
          fill="#8b949e" font-family="system-ui, -apple-system, sans-serif" font-size="11">
      Mar 17
    </text>
  
    <text x="489.82456140350877" y="360" text-anchor="middle"
          fill="#8b949e" font-family="system-ui, -apple-system, sans-serif" font-size="11">
      Apr 14
    </text>
  
    <text x="575.7894736842105" y="360" text-anchor="middle"
          fill="#8b949e" font-family="system-ui, -apple-system, sans-serif" font-size="11">
      May 12
    </text>
  
    <text x="661.7543859649123" y="360" text-anchor="middle"
          fill="#8b949e" font-family="system-ui, -apple-system, sans-serif" font-size="11">
      Jun 9
    </text>
  
    <text x="747.719298245614" y="360" text-anchor="middle"
          fill="#8b949e" font-family="system-ui, -apple-system, sans-serif" font-size="11">
      Jul 7
    </text>
  
    <text x="760" y="360" text-anchor="middle"
          fill="#8b949e" font-family="system-ui, -apple-system, sans-serif" font-size="11">
      Jul 11
    </text>
  

  <!-- Area under line -->
  <path d="M 60 340
    L 60.00 340.00 L 63.07 339.81 L 66.14 339.49 L 69.21 339.19 L 72.28 338.60 L 75.35 337.99 L 78.42 337.50 L 81.49 337.05 L 84.56 336.65 L 87.63 336.18 L 90.70 335.66 L 93.77 335.10 L 96.84 334.59 L 99.91 334.05 L 102.98 333.65 L 106.05 333.25 L 109.12 332.69 L 112.19 332.32 L 115.26 331.80 L 118.33 331.21 L 121.40 330.76 L 124.47 330.39 L 127.54 330.16 L 130.61 329.96 L 133.68 329.59 L 136.75 329.33 L 139.82 328.76 L 142.89 328.53 L 145.96 328.24 L 149.04 327.87 L 152.11 327.61 L 155.18 327.35 L 158.25 327.08 L 161.32 326.88 L 164.39 326.72 L 167.46 326.47 L 170.53 326.16 L 173.60 325.88 L 176.67 325.53 L 179.74 325.14 L 182.81 324.79 L 185.88 324.36 L 188.95 323.94 L 192.02 323.52 L 195.09 323.06 L 198.16 322.62 L 201.23 322.12 L 204.30 321.67 L 207.37 321.29 L 210.44 320.98 L 213.51 320.56 L 216.58 320.07 L 219.65 319.63 L 222.72 319.11 L 225.79 318.47 L 228.86 318.00 L 231.93 317.60 L 235.00 317.23 L 238.07 316.78 L 241.14 316.25 L 244.21 315.67 L 247.28 315.06 L 250.35 314.47 L 253.42 313.96 L 256.49 313.44 L 259.56 312.99 L 262.63 312.53 L 265.70 312.02 L 268.77 311.38 L 271.84 310.90 L 274.91 310.47 L 277.98 310.00 L 281.05 309.56 L 284.12 309.07 L 287.19 308.56 L 290.26 308.03 L 293.33 307.57 L 296.40 307.17 L 299.47 306.74 L 302.54 306.26 L 305.61 305.83 L 308.68 305.26 L 311.75 304.77 L 314.82 304.30 L 317.89 303.90 L 320.96 303.52 L 324.04 303.14 L 327.11 302.68 L 330.18 302.21 L 333.25 301.65 L 336.32 301.18 L 339.39 300.81 L 342.46 300.42 L 345.53 300.05 L 348.60 299.59 L 351.67 299.12 L 354.74 298.08 L 357.81 296.02 L 360.88 293.56 L 363.95 291.32 L 367.02 290.18 L 370.09 288.47 L 373.16 287.33 L 376.23 286.33 L 379.30 285.35 L 382.37 284.44 L 385.44 283.01 L 388.51 281.87 L 391.58 280.42 L 394.65 280.12 L 397.72 280.08 L 400.79 280.03 L 403.86 279.99 L 406.93 279.93 L 410.00 279.88 L 413.07 279.86 L 416.14 279.79 L 419.21 279.72 L 422.28 279.68 L 425.35 279.66 L 428.42 279.59 L 431.49 277.72 L 434.56 274.80 L 437.63 272.85 L 440.70 270.57 L 443.77 268.23 L 446.84 266.40 L 449.91 264.34 L 452.98 261.21 L 456.05 257.00 L 459.12 254.25 L 462.19 250.97 L 465.26 247.32 L 468.33 244.39 L 471.40 241.22 L 474.47 238.40 L 477.54 235.61 L 480.61 232.82 L 483.68 229.03 L 486.75 225.23 L 489.82 222.06 L 492.89 219.40 L 495.96 216.82 L 499.04 213.40 L 502.11 210.75 L 505.18 208.13 L 508.25 205.67 L 511.32 203.36 L 514.39 200.99 L 517.46 198.96 L 520.53 196.87 L 523.60 194.73 L 526.67 192.46 L 529.74 190.38 L 532.81 188.48 L 535.88 185.04 L 538.95 182.15 L 542.02 179.38 L 545.09 176.72 L 548.16 172.52 L 551.23 169.86 L 554.30 167.56 L 557.37 164.84 L 560.44 160.84 L 563.51 157.95 L 566.58 155.52 L 569.65 153.46 L 572.72 151.51 L 575.79 149.92 L 578.86 148.13 L 581.93 146.67 L 585.00 144.95 L 588.07 142.48 L 591.14 140.35 L 594.21 138.50 L 597.28 136.90 L 600.35 135.25 L 603.42 133.86 L 606.49 131.52 L 609.56 129.52 L 612.63 127.53 L 615.70 125.90 L 618.77 124.39 L 621.84 123.06 L 624.91 120.77 L 627.98 118.92 L 631.05 117.22 L 634.12 115.61 L 637.19 114.20 L 640.26 112.83 L 643.33 111.57 L 646.40 110.37 L 649.47 109.27 L 652.54 107.89 L 655.61 106.41 L 658.68 105.05 L 661.75 102.93 L 664.82 101.40 L 667.89 99.93 L 670.96 98.65 L 674.04 97.14 L 677.11 95.28 L 680.18 93.64 L 683.25 92.17 L 686.32 90.58 L 689.39 88.38 L 692.46 86.57 L 695.53 84.64 L 698.60 82.71 L 701.67 80.91 L 704.74 79.15 L 707.81 77.28 L 710.88 75.61 L 713.95 74.15 L 717.02 72.79 L 720.09 71.35 L 723.16 69.95 L 726.23 68.68 L 729.30 67.41 L 732.37 66.20 L 735.44 64.99 L 738.51 63.78 L 741.58 62.72 L 744.65 61.48 L 747.72 60.21 L 750.79 58.76 L 753.86 57.35 L 756.93 56.10 L 760.00 55.00
    L 760 340
    Z" fill="url(#areaGradient)" class="area-path"/>

  <!-- Main line with glow -->
  <path d="M 60.00 340.00 L 63.07 339.81 L 66.14 339.49 L 69.21 339.19 L 72.28 338.60 L 75.35 337.99 L 78.42 337.50 L 81.49 337.05 L 84.56 336.65 L 87.63 336.18 L 90.70 335.66 L 93.77 335.10 L 96.84 334.59 L 99.91 334.05 L 102.98 333.65 L 106.05 333.25 L 109.12 332.69 L 112.19 332.32 L 115.26 331.80 L 118.33 331.21 L 121.40 330.76 L 124.47 330.39 L 127.54 330.16 L 130.61 329.96 L 133.68 329.59 L 136.75 329.33 L 139.82 328.76 L 142.89 328.53 L 145.96 328.24 L 149.04 327.87 L 152.11 327.61 L 155.18 327.35 L 158.25 327.08 L 161.32 326.88 L 164.39 326.72 L 167.46 326.47 L 170.53 326.16 L 173.60 325.88 L 176.67 325.53 L 179.74 325.14 L 182.81 324.79 L 185.88 324.36 L 188.95 323.94 L 192.02 323.52 L 195.09 323.06 L 198.16 322.62 L 201.23 322.12 L 204.30 321.67 L 207.37 321.29 L 210.44 320.98 L 213.51 320.56 L 216.58 320.07 L 219.65 319.63 L 222.72 319.11 L 225.79 318.47 L 228.86 318.00 L 231.93 317.60 L 235.00 317.23 L 238.07 316.78 L 241.14 316.25 L 244.21 315.67 L 247.28 315.06 L 250.35 314.47 L 253.42 313.96 L 256.49 313.44 L 259.56 312.99 L 262.63 312.53 L 265.70 312.02 L 268.77 311.38 L 271.84 310.90 L 274.91 310.47 L 277.98 310.00 L 281.05 309.56 L 284.12 309.07 L 287.19 308.56 L 290.26 308.03 L 293.33 307.57 L 296.40 307.17 L 299.47 306.74 L 302.54 306.26 L 305.61 305.83 L 308.68 305.26 L 311.75 304.77 L 314.82 304.30 L 317.89 303.90 L 320.96 303.52 L 324.04 303.14 L 327.11 302.68 L 330.18 302.21 L 333.25 301.65 L 336.32 301.18 L 339.39 300.81 L 342.46 300.42 L 345.53 300.05 L 348.60 299.59 L 351.67 299.12 L 354.74 298.08 L 357.81 296.02 L 360.88 293.56 L 363.95 291.32 L 367.02 290.18 L 370.09 288.47 L 373.16 287.33 L 376.23 286.33 L 379.30 285.35 L 382.37 284.44 L 385.44 283.01 L 388.51 281.87 L 391.58 280.42 L 394.65 280.12 L 397.72 280.08 L 400.79 280.03 L 403.86 279.99 L 406.93 279.93 L 410.00 279.88 L 413.07 279.86 L 416.14 279.79 L 419.21 279.72 L 422.28 279.68 L 425.35 279.66 L 428.42 279.59 L 431.49 277.72 L 434.56 274.80 L 437.63 272.85 L 440.70 270.57 L 443.77 268.23 L 446.84 266.40 L 449.91 264.34 L 452.98 261.21 L 456.05 257.00 L 459.12 254.25 L 462.19 250.97 L 465.26 247.32 L 468.33 244.39 L 471.40 241.22 L 474.47 238.40 L 477.54 235.61 L 480.61 232.82 L 483.68 229.03 L 486.75 225.23 L 489.82 222.06 L 492.89 219.40 L 495.96 216.82 L 499.04 213.40 L 502.11 210.75 L 505.18 208.13 L 508.25 205.67 L 511.32 203.36 L 514.39 200.99 L 517.46 198.96 L 520.53 196.87 L 523.60 194.73 L 526.67 192.46 L 529.74 190.38 L 532.81 188.48 L 535.88 185.04 L 538.95 182.15 L 542.02 179.38 L 545.09 176.72 L 548.16 172.52 L 551.23 169.86 L 554.30 167.56 L 557.37 164.84 L 560.44 160.84 L 563.51 157.95 L 566.58 155.52 L 569.65 153.46 L 572.72 151.51 L 575.79 149.92 L 578.86 148.13 L 581.93 146.67 L 585.00 144.95 L 588.07 142.48 L 591.14 140.35 L 594.21 138.50 L 597.28 136.90 L 600.35 135.25 L 603.42 133.86 L 606.49 131.52 L 609.56 129.52 L 612.63 127.53 L 615.70 125.90 L 618.77 124.39 L 621.84 123.06 L 624.91 120.77 L 627.98 118.92 L 631.05 117.22 L 634.12 115.61 L 637.19 114.20 L 640.26 112.83 L 643.33 111.57 L 646.40 110.37 L 649.47 109.27 L 652.54 107.89 L 655.61 106.41 L 658.68 105.05 L 661.75 102.93 L 664.82 101.40 L 667.89 99.93 L 670.96 98.65 L 674.04 97.14 L 677.11 95.28 L 680.18 93.64 L 683.25 92.17 L 686.32 90.58 L 689.39 88.38 L 692.46 86.57 L 695.53 84.64 L 698.60 82.71 L 701.67 80.91 L 704.74 79.15 L 707.81 77.28 L 710.88 75.61 L 713.95 74.15 L 717.02 72.79 L 720.09 71.35 L 723.16 69.95 L 726.23 68.68 L 729.30 67.41 L 732.37 66.20 L 735.44 64.99 L 738.51 63.78 L 741.58 62.72 L 744.65 61.48 L 747.72 60.21 L 750.79 58.76 L 753.86 57.35 L 756.93 56.10 L 760.00 55.00" fill="none" stroke="#3b82f6" stroke-width="3"
        stroke-linecap="round" stroke-linejoin="round" filter="url(#glow)" class="line-path"/>

  <!-- Data points -->
  
    <circle cx="60" cy="340" r="4" fill="#3b82f6" stroke="#0d1117" stroke-width="2" class="data-point"/>
  
    <circle cx="63.07017543859649" cy="339.8109525249198" r="4" fill="#3b82f6" stroke="#0d1117" stroke-width="2" class="data-point"/>
  
    <circle cx="66.14035087719299" cy="339.4894432135589" r="4" fill="#3b82f6" stroke="#0d1117" stroke-width="2" class="data-point"/>
  
    <circle cx="69.21052631578948" cy="339.191082572616" r="4" fill="#3b82f6" stroke="#0d1117" stroke-width="2" class="data-point"/>
  
    <circle cx="72.28070175438596" cy="338.5982194024665" r="4" fill="#3b82f6" stroke="#0d1117" stroke-width="2" class="data-point"/>
  
    <circle cx="75.35087719298245" cy="337.9860656736353" r="4" fill="#3b82f6" stroke="#0d1117" stroke-width="2" class="data-point"/>
  
    <circle cx="78.42105263157895" cy="337.503801706594" r="4" fill="#3b82f6" stroke="#0d1117" stroke-width="2" class="data-point"/>
  
    <circle cx="81.49122807017544" cy="337.05368867068876" r="4" fill="#3b82f6" stroke="#0d1117" stroke-width="2" class="data-point"/>
  
    <circle cx="84.56140350877193" cy="336.65373108735577" r="4" fill="#3b82f6" stroke="#0d1117" stroke-width="2" class="data-point"/>
  
    <circle cx="87.63157894736842" cy="336.1843274927689" r="4" fill="#3b82f6" stroke="#0d1117" stroke-width="2" class="data-point"/>
  
    <circle cx="90.7017543859649" cy="335.66091033387335" r="4" fill="#3b82f6" stroke="#0d1117" stroke-width="2" class="data-point"/>
  
    <circle cx="93.7719298245614" cy="335.10019809485993" r="4" fill="#3b82f6" stroke="#0d1117" stroke-width="2" class="data-point"/>
  
    <circle cx="96.84210526315789" cy="334.5909273456642" r="4" fill="#3b82f6" stroke="#0d1117" stroke-width="2" class="data-point"/>
  
    <circle cx="99.91228070175438" cy="334.0495056653325" r="4" fill="#3b82f6" stroke="#0d1117" stroke-width="2" class="data-point"/>
  
    <circle cx="102.98245614035088" cy="333.6546922309813" r="4" fill="#3b82f6" stroke="#0d1117" stroke-width="2" class="data-point"/>
  
    <circle cx="106.05263157894737" cy="333.24573238693023" r="4" fill="#3b82f6" stroke="#0d1117" stroke-width="2" class="data-point"/>
  
    <circle cx="109.12280701754386" cy="332.6901642968986" r="4" fill="#3b82f6" stroke="#0d1117" stroke-width="2" class="data-point"/>
  
    <circle cx="112.19298245614036" cy="332.3184995329654" r="4" fill="#3b82f6" stroke="#0d1117" stroke-width="2" class="data-point"/>
  
    <circle cx="115.26315789473685" cy="331.80408463478796" r="4" fill="#3b82f6" stroke="#0d1117" stroke-width="2" class="data-point"/>
  
    <circle cx="118.33333333333333" cy="331.209935427393" r="4" fill="#3b82f6" stroke="#0d1117" stroke-width="2" class="data-point"/>
  
    <circle cx="121.40350877192982" cy="330.7623944659787" r="4" fill="#3b82f6" stroke="#0d1117" stroke-width="2" class="data-point"/>
  
    <circle cx="124.47368421052632" cy="330.3945878137818" r="4" fill="#3b82f6" stroke="#0d1117" stroke-width="2" class="data-point"/>
  
    <circle cx="127.54385964912281" cy="330.15667092337475" r="4" fill="#3b82f6" stroke="#0d1117" stroke-width="2" class="data-point"/>
  
    <circle cx="130.6140350877193" cy="329.95862118757645" r="4" fill="#3b82f6" stroke="#0d1117" stroke-width="2" class="data-point"/>
  
    <circle cx="133.68421052631578" cy="329.592100572625" r="4" fill="#3b82f6" stroke="#0d1117" stroke-width="2" class="data-point"/>
  
    <circle cx="136.75438596491227" cy="329.33103501179994" r="4" fill="#3b82f6" stroke="#0d1117" stroke-width="2" class="data-point"/>
  
    <circle cx="139.82456140350877" cy="328.75874843757754" r="4" fill="#3b82f6" stroke="#0d1117" stroke-width="2" class="data-point"/>
  
    <circle cx="142.89473684210526" cy="328.5336919196249" r="4" fill="#3b82f6" stroke="#0d1117" stroke-width="2" class="data-point"/>
  
    <circle cx="145.96491228070175" cy="328.2430475021547" r="4" fill="#3b82f6" stroke="#0d1117" stroke-width="2" class="data-point"/>
  
    <circle cx="149.03508771929825" cy="327.86752462648514" r="4" fill="#3b82f6" stroke="#0d1117" stroke-width="2" class="data-point"/>
  
    <circle cx="152.10526315789474" cy="327.61031717739644" r="4" fill="#3b82f6" stroke="#0d1117" stroke-width="2" class="data-point"/>
  
    <circle cx="155.17543859649123" cy="327.3492516165714" r="4" fill="#3b82f6" stroke="#0d1117" stroke-width="2" class="data-point"/>
  
    <circle cx="158.24561403508773" cy="327.0753256832919" r="4" fill="#3b82f6" stroke="#0d1117" stroke-width="2" class="data-point"/>
  
    <circle cx="161.31578947368422" cy="326.88499217096626" r="4" fill="#3b82f6" stroke="#0d1117" stroke-width="2" class="data-point"/>
  
    <circle cx="164.3859649122807" cy="326.7203794035495" r="4" fill="#3b82f6" stroke="#0d1117" stroke-width="2" class="data-point"/>
  
    <circle cx="167.4561403508772" cy="326.469602140688" r="4" fill="#3b82f6" stroke="#0d1117" stroke-width="2" class="data-point"/>
  
    <circle cx="170.5263157894737" cy="326.1648113135178" r="4" fill="#3b82f6" stroke="#0d1117" stroke-width="2" class="data-point"/>
  
    <circle cx="173.5964912280702" cy="325.88445519401114" r="4" fill="#3b82f6" stroke="#0d1117" stroke-width="2" class="data-point"/>
  
    <circle cx="176.66666666666666" cy="325.5295089142687" r="4" fill="#3b82f6" stroke="#0d1117" stroke-width="2" class="data-point"/>
  
    <circle cx="179.73684210526318" cy="325.14241170339017" r="4" fill="#3b82f6" stroke="#0d1117" stroke-width="2" class="data-point"/>
  
    <circle cx="182.80701754385964" cy="324.78746542364775" r="4" fill="#3b82f6" stroke="#0d1117" stroke-width="2" class="data-point"/>
  
    <circle cx="185.87719298245614" cy="324.35921502091503" r="4" fill="#3b82f6" stroke="#0d1117" stroke-width="2" class="data-point"/>
  
    <circle cx="188.94736842105263" cy="323.93868084165496" r="4" fill="#3b82f6" stroke="#0d1117" stroke-width="2" class="data-point"/>
  
    <circle cx="192.01754385964912" cy="323.51814666239494" r="4" fill="#3b82f6" stroke="#0d1117" stroke-width="2" class="data-point"/>
  
    <circle cx="195.08771929824562" cy="323.0577453285261" r="4" fill="#3b82f6" stroke="#0d1117" stroke-width="2" class="data-point"/>
  
    <circle cx="198.1578947368421" cy="322.6179205905844" r="4" fill="#3b82f6" stroke="#0d1117" stroke-width="2" class="data-point"/>
  
    <circle cx="201.22807017543857" cy="322.11508002761593" r="4" fill="#3b82f6" stroke="#0d1117" stroke-width="2" class="data-point"/>
  
    <circle cx="204.2982456140351" cy="321.66625302895613" r="4" fill="#3b82f6" stroke="#0d1117" stroke-width="2" class="data-point"/>
  
    <circle cx="207.36842105263156" cy="321.2868720415503" r="4" fill="#3b82f6" stroke="#0d1117" stroke-width="2" class="data-point"/>
  
    <circle cx="210.43859649122808" cy="320.9833672516256" r="4" fill="#3b82f6" stroke="#0d1117" stroke-width="2" class="data-point"/>
  
    <circle cx="213.50877192982455" cy="320.5589749606292" r="4" fill="#3b82f6" stroke="#0d1117" stroke-width="2" class="data-point"/>
  
    <circle cx="216.57894736842104" cy="320.074138919097" r="4" fill="#3b82f6" stroke="#0d1117" stroke-width="2" class="data-point"/>
  
    <circle cx="219.64912280701753" cy="319.6304560694189" r="4" fill="#3b82f6" stroke="#0d1117" stroke-width="2" class="data-point"/>
  
    <circle cx="222.71929824561403" cy="319.1121830595052" r="4" fill="#3b82f6" stroke="#0d1117" stroke-width="2" class="data-point"/>
  
    <circle cx="225.78947368421052" cy="318.4730225485197" r="4" fill="#3b82f6" stroke="#0d1117" stroke-width="2" class="data-point"/>
  
    <circle cx="228.859649122807" cy="317.99718876770555" r="4" fill="#3b82f6" stroke="#0d1117" stroke-width="2" class="data-point"/>
  
    <circle cx="231.9298245614035" cy="317.6023753333544" r="4" fill="#3b82f6" stroke="#0d1117" stroke-width="2" class="data-point"/>
  
    <circle cx="235" cy="317.22685245768486" r="4" fill="#3b82f6" stroke="#0d1117" stroke-width="2" class="data-point"/>
  
    <circle cx="238.0701754385965" cy="316.77545338453416" r="4" fill="#3b82f6" stroke="#0d1117" stroke-width="2" class="data-point"/>
  
    <circle cx="241.14035087719301" cy="316.25075018839317" r="4" fill="#3b82f6" stroke="#0d1117" stroke-width="2" class="data-point"/>
  
    <circle cx="244.21052631578945" cy="315.6694613534527" r="4" fill="#3b82f6" stroke="#0d1117" stroke-width="2" class="data-point"/>
  
    <circle cx="247.28070175438597" cy="315.05859366186695" r="4" fill="#3b82f6" stroke="#0d1117" stroke-width="2" class="data-point"/>
  
    <circle cx="250.35087719298247" cy="314.47216067794466" r="4" fill="#3b82f6" stroke="#0d1117" stroke-width="2" class="data-point"/>
  
    <circle cx="253.42105263157896" cy="313.9564597425218" r="4" fill="#3b82f6" stroke="#0d1117" stroke-width="2" class="data-point"/>
  
    <circle cx="256.49122807017545" cy="313.44461691883527" r="4" fill="#3b82f6" stroke="#0d1117" stroke-width="2" class="data-point"/>
  
    <circle cx="259.56140350877195" cy="312.99321784568457" r="4" fill="#3b82f6" stroke="#0d1117" stroke-width="2" class="data-point"/>
  
    <circle cx="262.63157894736844" cy="312.5328165118157" r="4" fill="#3b82f6" stroke="#0d1117" stroke-width="2" class="data-point"/>
  
    <circle cx="265.70175438596493" cy="312.01840161363833" r="4" fill="#3b82f6" stroke="#0d1117" stroke-width="2" class="data-point"/>
  
    <circle cx="268.7719298245614" cy="311.3779550654074" r="4" fill="#3b82f6" stroke="#0d1117" stroke-width="2" class="data-point"/>
  
    <circle cx="271.8421052631579" cy="310.9008352473478" r="4" fill="#3b82f6" stroke="#0d1117" stroke-width="2" class="data-point"/>
  
    <circle cx="274.9122807017544" cy="310.47387088186053" r="4" fill="#3b82f6" stroke="#0d1117" stroke-width="2" class="data-point"/>
  
    <circle cx="277.9824561403509" cy="309.99932313829186" r="4" fill="#3b82f6" stroke="#0d1117" stroke-width="2" class="data-point"/>
  
    <circle cx="281.0526315789474" cy="309.55692632585925" r="4" fill="#3b82f6" stroke="#0d1117" stroke-width="2" class="data-point"/>
  
    <circle cx="284.1228070175439" cy="309.0708042470816" r="4" fill="#3b82f6" stroke="#0d1117" stroke-width="2" class="data-point"/>
  
    <circle cx="287.1929824561404" cy="308.56410557237683" r="4" fill="#3b82f6" stroke="#0d1117" stroke-width="2" class="data-point"/>
  
    <circle cx="290.2631578947369" cy="308.03425822725404" r="4" fill="#3b82f6" stroke="#0d1117" stroke-width="2" class="data-point"/>
  
    <circle cx="293.3333333333333" cy="307.5699987816489" r="4" fill="#3b82f6" stroke="#0d1117" stroke-width="2" class="data-point"/>
  
    <circle cx="296.4035087719298" cy="307.17261327280687" r="4" fill="#3b82f6" stroke="#0d1117" stroke-width="2" class="data-point"/>
  
    <circle cx="299.47368421052636" cy="306.73664664660146" r="4" fill="#3b82f6" stroke="#0d1117" stroke-width="2" class="data-point"/>
  
    <circle cx="302.54385964912285" cy="306.2646709775237" r="4" fill="#3b82f6" stroke="#0d1117" stroke-width="2" class="data-point"/>
  
    <circle cx="305.6140350877193" cy="305.8274183140729" r="4" fill="#3b82f6" stroke="#0d1117" stroke-width="2" class="data-point"/>
  
    <circle cx="308.6842105263158" cy="305.25770381434137" r="4" fill="#3b82f6" stroke="#0d1117" stroke-width="2" class="data-point"/>
  
    <circle cx="311.7543859649123" cy="304.76772362382735" r="4" fill="#3b82f6" stroke="#0d1117" stroke-width="2" class="data-point"/>
  
    <circle cx="314.8245614035088" cy="304.2957479547495" r="4" fill="#3b82f6" stroke="#0d1117" stroke-width="2" class="data-point"/>
  
    <circle cx="317.89473684210526" cy="303.9035065948892" r="4" fill="#3b82f6" stroke="#0d1117" stroke-width="2" class="data-point"/>
  
    <circle cx="320.96491228070175" cy="303.5228395702379" r="4" fill="#3b82f6" stroke="#0d1117" stroke-width="2" class="data-point"/>
  
    <circle cx="324.03508771929825" cy="303.14088650834117" r="4" fill="#3b82f6" stroke="#0d1117" stroke-width="2" class="data-point"/>
  
    <circle cx="327.10526315789474" cy="302.68434328620873" r="4" fill="#3b82f6" stroke="#0d1117" stroke-width="2" class="data-point"/>
  
    <circle cx="330.17543859649123" cy="302.2149396916218" r="4" fill="#3b82f6" stroke="#0d1117" stroke-width="2" class="data-point"/>
  
    <circle cx="333.2456140350877" cy="301.6452251918903" r="4" fill="#3b82f6" stroke="#0d1117" stroke-width="2" class="data-point"/>
  
    <circle cx="336.3157894736842" cy="301.18353782077605" r="4" fill="#3b82f6" stroke="#0d1117" stroke-width="2" class="data-point"/>
  
    <circle cx="339.3859649122807" cy="300.80672890786104" r="4" fill="#3b82f6" stroke="#0d1117" stroke-width="2" class="data-point"/>
  
    <circle cx="342.45614035087715" cy="300.41963169698255" r="4" fill="#3b82f6" stroke="#0d1117" stroke-width="2" class="data-point"/>
  
    <circle cx="345.5263157894737" cy="300.0492529702948" r="4" fill="#3b82f6" stroke="#0d1117" stroke-width="2" class="data-point"/>
  
    <circle cx="348.5964912280702" cy="299.59142371091684" r="4" fill="#3b82f6" stroke="#0d1117" stroke-width="2" class="data-point"/>
  
    <circle cx="351.6666666666667" cy="299.12202011632996" r="4" fill="#3b82f6" stroke="#0d1117" stroke-width="2" class="data-point"/>
  
    <circle cx="354.7368421052631" cy="298.084188059257" r="4" fill="#3b82f6" stroke="#0d1117" stroke-width="2" class="data-point"/>
  
    <circle cx="357.8070175438596" cy="296.0188122430746" r="4" fill="#3b82f6" stroke="#0d1117" stroke-width="2" class="data-point"/>
  
    <circle cx="360.87719298245617" cy="293.558622992541" r="4" fill="#3b82f6" stroke="#0d1117" stroke-width="2" class="data-point"/>
  
    <circle cx="363.94736842105266" cy="291.3170600737328" r="4" fill="#3b82f6" stroke="#0d1117" stroke-width="2" class="data-point"/>
  
    <circle cx="367.0175438596491" cy="290.18020314876065" r="4" fill="#3b82f6" stroke="#0d1117" stroke-width="2" class="data-point"/>
  
    <circle cx="370.0877192982456" cy="288.4672015378298" r="4" fill="#3b82f6" stroke="#0d1117" stroke-width="2" class="data-point"/>
  
    <circle cx="373.1578947368421" cy="287.32905857561224" r="4" fill="#3b82f6" stroke="#0d1117" stroke-width="2" class="data-point"/>
  
    <circle cx="376.22807017543863" cy="286.33109367314796" r="4" fill="#3b82f6" stroke="#0d1117" stroke-width="2" class="data-point"/>
  
    <circle cx="379.29824561403507" cy="285.35499140385633" r="4" fill="#3b82f6" stroke="#0d1117" stroke-width="2" class="data-point"/>
  
    <circle cx="382.36842105263156" cy="284.43547477336415" r="4" fill="#3b82f6" stroke="#0d1117" stroke-width="2" class="data-point"/>
  
    <circle cx="385.43859649122805" cy="283.00540135643087" r="4" fill="#3b82f6" stroke="#0d1117" stroke-width="2" class="data-point"/>
  
    <circle cx="388.50877192982455" cy="281.86854443145876" r="4" fill="#3b82f6" stroke="#0d1117" stroke-width="2" class="data-point"/>
  
    <circle cx="391.57894736842104" cy="280.4153223441075" r="4" fill="#3b82f6" stroke="#0d1117" stroke-width="2" class="data-point"/>
  
    <circle cx="394.64912280701753" cy="280.11824774040997" r="4" fill="#3b82f6" stroke="#0d1117" stroke-width="2" class="data-point"/>
  
    <circle cx="397.719298245614" cy="280.0796666230467" r="4" fill="#3b82f6" stroke="#0d1117" stroke-width="2" class="data-point"/>
  
    <circle cx="400.7894736842105" cy="280.0295111704744" r="4" fill="#3b82f6" stroke="#0d1117" stroke-width="2" class="data-point"/>
  
    <circle cx="403.859649122807" cy="279.9870719413748" r="4" fill="#3b82f6" stroke="#0d1117" stroke-width="2" class="data-point"/>
  
    <circle cx="406.9298245614035" cy="279.93177233982067" r="4" fill="#3b82f6" stroke="#0d1117" stroke-width="2" class="data-point"/>
  
    <circle cx="410" cy="279.8829029244938" r="4" fill="#3b82f6" stroke="#0d1117" stroke-width="2" class="data-point"/>
  
    <circle cx="413.0701754385965" cy="279.8636123658122" r="4" fill="#3b82f6" stroke="#0d1117" stroke-width="2" class="data-point"/>
  
    <circle cx="416.140350877193" cy="279.7928803173128" r="4" fill="#3b82f6" stroke="#0d1117" stroke-width="2" class="data-point"/>
  
    <circle cx="419.2105263157895" cy="279.7247203433043" r="4" fill="#3b82f6" stroke="#0d1117" stroke-width="2" class="data-point"/>
  
    <circle cx="422.28070175438603" cy="279.6797090397137" r="4" fill="#3b82f6" stroke="#0d1117" stroke-width="2" class="data-point"/>
  
    <circle cx="425.3508771929824" cy="279.662990555523" r="4" fill="#3b82f6" stroke="#0d1117" stroke-width="2" class="data-point"/>
  
    <circle cx="428.4210526315789" cy="279.5871143580418" r="4" fill="#3b82f6" stroke="#0d1117" stroke-width="2" class="data-point"/>
  
    <circle cx="431.49122807017545" cy="277.7223603521486" r="4" fill="#3b82f6" stroke="#0d1117" stroke-width="2" class="data-point"/>
  
    <circle cx="434.56140350877195" cy="274.8017697677462" r="4" fill="#3b82f6" stroke="#0d1117" stroke-width="2" class="data-point"/>
  
    <circle cx="437.63157894736844" cy="272.8457071174265" r="4" fill="#3b82f6" stroke="#0d1117" stroke-width="2" class="data-point"/>
  
    <circle cx="440.70175438596493" cy="270.5745653419731" r="4" fill="#3b82f6" stroke="#0d1117" stroke-width="2" class="data-point"/>
  
    <circle cx="443.7719298245614" cy="268.23397755526577" r="4" fill="#3b82f6" stroke="#0d1117" stroke-width="2" class="data-point"/>
  
    <circle cx="446.8421052631579" cy="266.3975163687723" r="4" fill="#3b82f6" stroke="#0d1117" stroke-width="2" class="data-point"/>
  
    <circle cx="449.91228070175436" cy="264.3437148877989" r="4" fill="#3b82f6" stroke="#0d1117" stroke-width="2" class="data-point"/>
  
    <circle cx="452.98245614035085" cy="261.2147862696346" r="4" fill="#3b82f6" stroke="#0d1117" stroke-width="2" class="data-point"/>
  
    <circle cx="456.05263157894734" cy="256.9978701418251" r="4" fill="#3b82f6" stroke="#0d1117" stroke-width="2" class="data-point"/>
  
    <circle cx="459.12280701754383" cy="254.2457504365758" r="4" fill="#3b82f6" stroke="#0d1117" stroke-width="2" class="data-point"/>
  
    <circle cx="462.1929824561404" cy="250.97021357243096" r="4" fill="#3b82f6" stroke="#0d1117" stroke-width="2" class="data-point"/>
  
    <circle cx="465.2631578947369" cy="247.32043986986207" r="4" fill="#3b82f6" stroke="#0d1117" stroke-width="2" class="data-point"/>
  
    <circle cx="468.33333333333337" cy="244.39341909923243" r="4" fill="#3b82f6" stroke="#0d1117" stroke-width="2" class="data-point"/>
  
    <circle cx="471.40350877192986" cy="241.21690710298677" r="4" fill="#3b82f6" stroke="#0d1117" stroke-width="2" class="data-point"/>
  
    <circle cx="474.4736842105263" cy="238.39919949821984" r="4" fill="#3b82f6" stroke="#0d1117" stroke-width="2" class="data-point"/>
  
    <circle cx="477.5438596491228" cy="235.60721263836183" r="4" fill="#3b82f6" stroke="#0d1117" stroke-width="2" class="data-point"/>
  
    <circle cx="480.6140350877193" cy="232.82294200197643" r="4" fill="#3b82f6" stroke="#0d1117" stroke-width="2" class="data-point"/>
  
    <circle cx="483.6842105263158" cy="229.03170420240872" r="4" fill="#3b82f6" stroke="#0d1117" stroke-width="2" class="data-point"/>
  
    <circle cx="486.7543859649123" cy="225.22889206763202" r="4" fill="#3b82f6" stroke="#0d1117" stroke-width="2" class="data-point"/>
  
    <circle cx="489.82456140350877" cy="222.05881025761357" r="4" fill="#3b82f6" stroke="#0d1117" stroke-width="2" class="data-point"/>
  
    <circle cx="492.89473684210526" cy="219.4018573085271" r="4" fill="#3b82f6" stroke="#0d1117" stroke-width="2" class="data-point"/>
  
    <circle cx="495.9649122807018" cy="216.82463866865814" r="4" fill="#3b82f6" stroke="#0d1117" stroke-width="2" class="data-point"/>
  
    <circle cx="499.0350877192982" cy="213.4037795957782" r="4" fill="#3b82f6" stroke="#0d1117" stroke-width="2" class="data-point"/>
  
    <circle cx="502.10526315789474" cy="210.75068475842806" r="4" fill="#3b82f6" stroke="#0d1117" stroke-width="2" class="data-point"/>
  
    <circle cx="505.17543859649123" cy="208.1258827404777" r="4" fill="#3b82f6" stroke="#0d1117" stroke-width="2" class="data-point"/>
  
    <circle cx="508.2456140350877" cy="205.67083763892586" r="4" fill="#3b82f6" stroke="#0d1117" stroke-width="2" class="data-point"/>
  
    <circle cx="511.3157894736842" cy="203.3585426716183" r="4" fill="#3b82f6" stroke="#0d1117" stroke-width="2" class="data-point"/>
  
    <circle cx="514.3859649122808" cy="200.9896620655112" r="4" fill="#3b82f6" stroke="#0d1117" stroke-width="2" class="data-point"/>
  
    <circle cx="517.4561403508771" cy="198.96415340393753" r="4" fill="#3b82f6" stroke="#0d1117" stroke-width="2" class="data-point"/>
  
    <circle cx="520.5263157894738" cy="196.86662665661902" r="4" fill="#3b82f6" stroke="#0d1117" stroke-width="2" class="data-point"/>
  
    <circle cx="523.5964912280701" cy="194.72537464295547" r="4" fill="#3b82f6" stroke="#0d1117" stroke-width="2" class="data-point"/>
  
    <circle cx="526.6666666666666" cy="192.4619490909747" r="4" fill="#3b82f6" stroke="#0d1117" stroke-width="2" class="data-point"/>
  
    <circle cx="529.7368421052631" cy="190.38499893958334" r="4" fill="#3b82f6" stroke="#0d1117" stroke-width="2" class="data-point"/>
  
    <circle cx="532.8070175438596" cy="188.48294985357225" r="4" fill="#3b82f6" stroke="#0d1117" stroke-width="2" class="data-point"/>
  
    <circle cx="535.8771929824561" cy="185.03637003578345" r="4" fill="#3b82f6" stroke="#0d1117" stroke-width="2" class="data-point"/>
  
    <circle cx="538.9473684210527" cy="182.15178849425342" r="4" fill="#3b82f6" stroke="#0d1117" stroke-width="2" class="data-point"/>
  
    <circle cx="542.0175438596491" cy="179.38166426756797" r="4" fill="#3b82f6" stroke="#0d1117" stroke-width="2" class="data-point"/>
  
    <circle cx="545.0877192982457" cy="176.72085320674515" r="4" fill="#3b82f6" stroke="#0d1117" stroke-width="2" class="data-point"/>
  
    <circle cx="548.1578947368421" cy="172.51936952588093" r="4" fill="#3b82f6" stroke="#0d1117" stroke-width="2" class="data-point"/>
  
    <circle cx="551.2280701754386" cy="169.86113053954904" r="4" fill="#3b82f6" stroke="#0d1117" stroke-width="2" class="data-point"/>
  
    <circle cx="554.2982456140351" cy="167.56040990745043" r="4" fill="#3b82f6" stroke="#0d1117" stroke-width="2" class="data-point"/>
  
    <circle cx="557.3684210526316" cy="164.84301320782814" r="4" fill="#3b82f6" stroke="#0d1117" stroke-width="2" class="data-point"/>
  
    <circle cx="560.438596491228" cy="160.83700718827134" r="4" fill="#3b82f6" stroke="#0d1117" stroke-width="2" class="data-point"/>
  
    <circle cx="563.5087719298245" cy="157.95499772123225" r="4" fill="#3b82f6" stroke="#0d1117" stroke-width="2" class="data-point"/>
  
    <circle cx="566.578947368421" cy="155.52181525285297" r="4" fill="#3b82f6" stroke="#0d1117" stroke-width="2" class="data-point"/>
  
    <circle cx="569.6491228070176" cy="153.46286962289778" r="4" fill="#3b82f6" stroke="#0d1117" stroke-width="2" class="data-point"/>
  
    <circle cx="572.719298245614" cy="151.509379047069" r="4" fill="#3b82f6" stroke="#0d1117" stroke-width="2" class="data-point"/>
  
    <circle cx="575.7894736842105" cy="149.92112304894613" r="4" fill="#3b82f6" stroke="#0d1117" stroke-width="2" class="data-point"/>
  
    <circle cx="578.859649122807" cy="148.1322452405341" r="4" fill="#3b82f6" stroke="#0d1117" stroke-width="2" class="data-point"/>
  
    <circle cx="581.9298245614035" cy="146.67387900420104" r="4" fill="#3b82f6" stroke="#0d1117" stroke-width="2" class="data-point"/>
  
    <circle cx="585" cy="144.95316116979754" r="4" fill="#3b82f6" stroke="#0d1117" stroke-width="2" class="data-point"/>
  
    <circle cx="588.0701754385965" cy="142.47625343507318" r="4" fill="#3b82f6" stroke="#0d1117" stroke-width="2" class="data-point"/>
  
    <circle cx="591.140350877193" cy="140.347861793864" r="4" fill="#3b82f6" stroke="#0d1117" stroke-width="2" class="data-point"/>
  
    <circle cx="594.2105263157895" cy="138.49725419767069" r="4" fill="#3b82f6" stroke="#0d1117" stroke-width="2" class="data-point"/>
  
    <circle cx="597.280701754386" cy="136.89742386433886" r="4" fill="#3b82f6" stroke="#0d1117" stroke-width="2" class="data-point"/>
  
    <circle cx="600.3508771929825" cy="135.24743807843473" r="4" fill="#3b82f6" stroke="#0d1117" stroke-width="2" class="data-point"/>
  
    <circle cx="603.421052631579" cy="133.8559457788648" r="4" fill="#3b82f6" stroke="#0d1117" stroke-width="2" class="data-point"/>
  
    <circle cx="606.4912280701755" cy="131.51664402940287" r="4" fill="#3b82f6" stroke="#0d1117" stroke-width="2" class="data-point"/>
  
    <circle cx="609.561403508772" cy="129.51685611273808" r="4" fill="#3b82f6" stroke="#0d1117" stroke-width="2" class="data-point"/>
  
    <circle cx="612.6315789473684" cy="127.53378668026406" r="4" fill="#3b82f6" stroke="#0d1117" stroke-width="2" class="data-point"/>
  
    <circle cx="615.7017543859649" cy="125.89666126681439" r="4" fill="#3b82f6" stroke="#0d1117" stroke-width="2" class="data-point"/>
  
    <circle cx="618.7719298245614" cy="124.39456976413624" r="4" fill="#3b82f6" stroke="#0d1117" stroke-width="2" class="data-point"/>
  
    <circle cx="621.8421052631579" cy="123.06094914061126" r="4" fill="#3b82f6" stroke="#0d1117" stroke-width="2" class="data-point"/>
  
    <circle cx="624.9122807017543" cy="120.77437491821252" r="4" fill="#3b82f6" stroke="#0d1117" stroke-width="2" class="data-point"/>
  
    <circle cx="627.9824561403509" cy="118.91733713579197" r="4" fill="#3b82f6" stroke="#0d1117" stroke-width="2" class="data-point"/>
  
    <circle cx="631.0526315789474" cy="117.22491212078825" r="4" fill="#3b82f6" stroke="#0d1117" stroke-width="2" class="data-point"/>
  
    <circle cx="634.1228070175439" cy="115.60836330326563" r="4" fill="#3b82f6" stroke="#0d1117" stroke-width="2" class="data-point"/>
  
    <circle cx="637.1929824561404" cy="114.19758044501401" r="4" fill="#3b82f6" stroke="#0d1117" stroke-width="2" class="data-point"/>
  
    <circle cx="640.2631578947369" cy="112.82795077861658" r="4" fill="#3b82f6" stroke="#0d1117" stroke-width="2" class="data-point"/>
  
    <circle cx="643.3333333333334" cy="111.57277842706364" r="4" fill="#3b82f6" stroke="#0d1117" stroke-width="2" class="data-point"/>
  
    <circle cx="646.4035087719299" cy="110.36904756532843" r="4" fill="#3b82f6" stroke="#0d1117" stroke-width="2" class="data-point"/>
  
    <circle cx="649.4736842105262" cy="109.26562760873784" r="4" fill="#3b82f6" stroke="#0d1117" stroke-width="2" class="data-point"/>
  
    <circle cx="652.5438596491227" cy="107.88828171886774" r="4" fill="#3b82f6" stroke="#0d1117" stroke-width="2" class="data-point"/>
  
    <circle cx="655.6140350877192" cy="106.40933888660763" r="4" fill="#3b82f6" stroke="#0d1117" stroke-width="2" class="data-point"/>
  
    <circle cx="658.6842105263158" cy="105.04871148092829" r="4" fill="#3b82f6" stroke="#0d1117" stroke-width="2" class="data-point"/>
  
    <circle cx="661.7543859649123" cy="102.93446624941902" r="4" fill="#3b82f6" stroke="#0d1117" stroke-width="2" class="data-point"/>
  
    <circle cx="664.8245614035088" cy="101.40022381560482" r="4" fill="#3b82f6" stroke="#0d1117" stroke-width="2" class="data-point"/>
  
    <circle cx="667.8947368421053" cy="99.93285531855366" r="4" fill="#3b82f6" stroke="#0d1117" stroke-width="2" class="data-point"/>
  
    <circle cx="670.9649122807018" cy="98.64553203586465" r="4" fill="#3b82f6" stroke="#0d1117" stroke-width="2" class="data-point"/>
  
    <circle cx="674.0350877192982" cy="97.13572430971385" r="4" fill="#3b82f6" stroke="#0d1117" stroke-width="2" class="data-point"/>
  
    <circle cx="677.1052631578947" cy="95.2812586017842" r="4" fill="#3b82f6" stroke="#0d1117" stroke-width="2" class="data-point"/>
  
    <circle cx="680.1754385964912" cy="93.63770300210729" r="4" fill="#3b82f6" stroke="#0d1117" stroke-width="2" class="data-point"/>
  
    <circle cx="683.2456140350877" cy="92.17033450505616" r="4" fill="#3b82f6" stroke="#0d1117" stroke-width="2" class="data-point"/>
  
    <circle cx="686.3157894736842" cy="90.57693435795153" r="4" fill="#3b82f6" stroke="#0d1117" stroke-width="2" class="data-point"/>
  
    <circle cx="689.3859649122808" cy="88.37909670548845" r="4" fill="#3b82f6" stroke="#0d1117" stroke-width="2" class="data-point"/>
  
    <circle cx="692.4561403508773" cy="86.57478645013109" r="4" fill="#3b82f6" stroke="#0d1117" stroke-width="2" class="data-point"/>
  
    <circle cx="695.5263157894738" cy="84.63930039573847" r="4" fill="#3b82f6" stroke="#0d1117" stroke-width="2" class="data-point"/>
  
    <circle cx="698.5964912280701" cy="82.71024452757308" r="4" fill="#3b82f6" stroke="#0d1117" stroke-width="2" class="data-point"/>
  
    <circle cx="701.6666666666666" cy="80.91365049568839" r="4" fill="#3b82f6" stroke="#0d1117" stroke-width="2" class="data-point"/>
  
    <circle cx="704.7368421052631" cy="79.15049343218521" r="4" fill="#3b82f6" stroke="#0d1117" stroke-width="2" class="data-point"/>
  
    <circle cx="707.8070175438596" cy="77.28445338904658" r="4" fill="#3b82f6" stroke="#0d1117" stroke-width="2" class="data-point"/>
  
    <circle cx="710.8771929824561" cy="75.61131893272449" r="4" fill="#3b82f6" stroke="#0d1117" stroke-width="2" class="data-point"/>
  
    <circle cx="713.9473684210526" cy="74.14523647291878" r="4" fill="#3b82f6" stroke="#0d1117" stroke-width="2" class="data-point"/>
  
    <circle cx="717.0175438596491" cy="72.78718114173034" r="4" fill="#3b82f6" stroke="#0d1117" stroke-width="2" class="data-point"/>
  
    <circle cx="720.0877192982457" cy="71.35067753856987" r="4" fill="#3b82f6" stroke="#0d1117" stroke-width="2" class="data-point"/>
  
    <circle cx="723.1578947368421" cy="69.94889694103631" r="4" fill="#3b82f6" stroke="#0d1117" stroke-width="2" class="data-point"/>
  
    <circle cx="726.2280701754386" cy="68.68215025427435" r="4" fill="#3b82f6" stroke="#0d1117" stroke-width="2" class="data-point"/>
  
    <circle cx="729.2982456140351" cy="67.41283149302154" r="4" fill="#3b82f6" stroke="#0d1117" stroke-width="2" class="data-point"/>
  
    <circle cx="732.3684210526316" cy="66.19752629607734" r="4" fill="#3b82f6" stroke="#0d1117" stroke-width="2" class="data-point"/>
  
    <circle cx="735.438596491228" cy="64.98993732260584" r="4" fill="#3b82f6" stroke="#0d1117" stroke-width="2" class="data-point"/>
  
    <circle cx="738.5087719298245" cy="63.78492042362518" r="4" fill="#3b82f6" stroke="#0d1117" stroke-width="2" class="data-point"/>
  
    <circle cx="741.578947368421" cy="62.72136762164331" r="4" fill="#3b82f6" stroke="#0d1117" stroke-width="2" class="data-point"/>
  
    <circle cx="744.6491228070175" cy="61.48419979152658" r="4" fill="#3b82f6" stroke="#0d1117" stroke-width="2" class="data-point"/>
  
    <circle cx="747.719298245614" cy="60.20845084404658" r="4" fill="#3b82f6" stroke="#0d1117" stroke-width="2" class="data-point"/>
  
    <circle cx="750.7894736842105" cy="58.75522875669532" r="4" fill="#3b82f6" stroke="#0d1117" stroke-width="2" class="data-point"/>
  
    <circle cx="753.859649122807" cy="57.35473419640721" r="4" fill="#3b82f6" stroke="#0d1117" stroke-width="2" class="data-point"/>
  
    <circle cx="756.9298245614035" cy="56.10084788209974" r="4" fill="#3b82f6" stroke="#0d1117" stroke-width="2" class="data-point"/>
  
    <circle cx="760" cy="55" r="4" fill="#3b82f6" stroke="#0d1117" stroke-width="2" class="data-point"/>
  

  <!-- Axis lines -->
  <line x1="60" y1="55" x2="60" y2="340"
        stroke="#30363d" stroke-width="2"/>
  <line x1="60" y1="340" x2="760" y2="340"
        stroke="#30363d" stroke-width="2"/>
</svg>