<?xml version="1.0" encoding="UTF-8"?>
<svg width="800" height="400" xmlns="http://www.w3.org/2000/svg">
  <defs>
    <!-- Gradient for area fill -->
    <linearGradient id="areaGradient" x1="0%" y1="0%" x2="0%" y2="100%">
      <stop offset="0%" style="stop-color:#3b82f6;stop-opacity:0.3" />
      <stop offset="100%" style="stop-color:#3b82f6;stop-opacity:0.05" />
    </linearGradient>

    <!-- Glow filter for line -->
    <filter id="glow">
      <feGaussianBlur stdDeviation="2" result="coloredBlur"/>
      <feMerge>
        <feMergeNode in="coloredBlur"/>
        <feMergeNode in="SourceGraphic"/>
      </feMerge>
    </filter>

    <!-- Animation -->
    <style>
      @keyframes draw {
        from { stroke-dashoffset: 2000; }
        to { stroke-dashoffset: 0; }
      }
      @keyframes fadeIn {
        from { opacity: 0; }
        to { opacity: 1; }
      }
      .line-path {
        stroke-dasharray: 2000;
        stroke-dashoffset: 2000;
        animation: draw 1.5s ease-out forwards;
      }
      .area-path {
        opacity: 0;
        animation: fadeIn 1s ease-out 0.5s forwards;
      }
      .data-point {
        opacity: 0;
        animation: fadeIn 0.5s ease-out 1s forwards;
      }
    </style>
  </defs>

  <!-- Background -->
  <rect width="800" height="400" fill="#0d1117" rx="8"/>

  <!-- Title -->
  <text x="400" y="25" text-anchor="middle" fill="#c9d1d9" font-family="system-ui, -apple-system, sans-serif" font-size="16" font-weight="600">
    zxcloli666/SoundCloud-Desktop Downloads
  </text>

  <!-- Stats -->
  <text x="780" y="25" text-anchor="end" fill="#58a6ff" font-family="system-ui, -apple-system, sans-serif" font-size="14" font-weight="600">
    239.6K total
  </text>
  <text x="780" y="42" text-anchor="end" fill="#3fb950" font-family="system-ui, -apple-system, sans-serif" font-size="12">
    +858 (+0.4%)
  </text>

  <!-- Grid lines -->
  <g opacity="0.1">
    
      <line x1="60" y1="340" x2="760" y2="340"
            stroke="#c9d1d9" stroke-width="1"/>
    
      <line x1="60" y1="268.75" x2="760" y2="268.75"
            stroke="#c9d1d9" stroke-width="1"/>
    
      <line x1="60" y1="197.5" x2="760" y2="197.5"
            stroke="#c9d1d9" stroke-width="1"/>
    
      <line x1="60" y1="126.25" x2="760" y2="126.25"
            stroke="#c9d1d9" stroke-width="1"/>
    
      <line x1="60" y1="55" x2="760" y2="55"
            stroke="#c9d1d9" stroke-width="1"/>
    
  </g>

  <!-- Y-axis labels -->
  
    <text x="50" y="344" text-anchor="end"
          fill="#8b949e" font-family="system-ui, -apple-system, sans-serif" font-size="11">
      60.2K
    </text>
  
    <text x="50" y="272.75" text-anchor="end"
          fill="#8b949e" font-family="system-ui, -apple-system, sans-serif" font-size="11">
      105.0K
    </text>
  
    <text x="50" y="201.5" text-anchor="end"
          fill="#8b949e" font-family="system-ui, -apple-system, sans-serif" font-size="11">
      149.9K
    </text>
  
    <text x="50" y="130.25" text-anchor="end"
          fill="#8b949e" font-family="system-ui, -apple-system, sans-serif" font-size="11">
      194.7K
    </text>
  
    <text x="50" y="59" text-anchor="end"
          fill="#8b949e" font-family="system-ui, -apple-system, sans-serif" font-size="11">
      239.6K
    </text>
  

  <!-- X-axis labels -->
  
    <text x="60" y="360" text-anchor="middle"
          fill="#8b949e" font-family="system-ui, -apple-system, sans-serif" font-size="11">
      Nov 25
    </text>
  
    <text x="147.5" y="360" text-anchor="middle"
          fill="#8b949e" font-family="system-ui, -apple-system, sans-serif" font-size="11">
      Dec 19
    </text>
  
    <text x="235" y="360" text-anchor="middle"
          fill="#8b949e" font-family="system-ui, -apple-system, sans-serif" font-size="11">
      Jan 12
    </text>
  
    <text x="322.5" y="360" text-anchor="middle"
          fill="#8b949e" font-family="system-ui, -apple-system, sans-serif" font-size="11">
      Feb 5
    </text>
  
    <text x="410" y="360" text-anchor="middle"
          fill="#8b949e" font-family="system-ui, -apple-system, sans-serif" font-size="11">
      Mar 1
    </text>
  
    <text x="497.5" y="360" text-anchor="middle"
          fill="#8b949e" font-family="system-ui, -apple-system, sans-serif" font-size="11">
      Mar 25
    </text>
  
    <text x="585" y="360" text-anchor="middle"
          fill="#8b949e" font-family="system-ui, -apple-system, sans-serif" font-size="11">
      Apr 18
    </text>
  
    <text x="672.5" y="360" text-anchor="middle"
          fill="#8b949e" font-family="system-ui, -apple-system, sans-serif" font-size="11">
      May 12
    </text>
  
    <text x="760" y="360" text-anchor="middle"
          fill="#8b949e" font-family="system-ui, -apple-system, sans-serif" font-size="11">
      Jun 5
    </text>
  

  <!-- Area under line -->
  <path d="M 60 340
    L 60.00 340.00 L 63.65 339.77 L 67.29 339.37 L 70.94 339.00 L 74.58 338.27 L 78.23 337.51 L 81.88 336.92 L 85.52 336.36 L 89.17 335.87 L 92.81 335.29 L 96.46 334.64 L 100.10 333.95 L 103.75 333.32 L 107.40 332.65 L 111.04 332.16 L 114.69 331.66 L 118.33 330.97 L 121.98 330.51 L 125.63 329.88 L 129.27 329.14 L 132.92 328.59 L 136.56 328.14 L 140.21 327.84 L 143.85 327.60 L 147.50 327.14 L 151.15 326.82 L 154.79 326.11 L 158.44 325.84 L 162.08 325.48 L 165.73 325.01 L 169.38 324.70 L 173.02 324.37 L 176.67 324.04 L 180.31 323.80 L 183.96 323.60 L 187.60 323.29 L 191.25 322.91 L 194.90 322.56 L 198.54 322.13 L 202.19 321.65 L 205.83 321.21 L 209.48 320.68 L 213.13 320.16 L 216.77 319.64 L 220.42 319.07 L 224.06 318.53 L 227.71 317.91 L 231.35 317.35 L 235.00 316.89 L 238.65 316.51 L 242.29 315.99 L 245.94 315.39 L 249.58 314.84 L 253.23 314.20 L 256.88 313.41 L 260.52 312.82 L 264.17 312.33 L 267.81 311.87 L 271.46 311.31 L 275.10 310.67 L 278.75 309.95 L 282.40 309.19 L 286.04 308.47 L 289.69 307.83 L 293.33 307.20 L 296.98 306.64 L 300.63 306.07 L 304.27 305.44 L 307.92 304.65 L 311.56 304.06 L 315.21 303.53 L 318.85 302.94 L 322.50 302.40 L 326.15 301.80 L 329.79 301.17 L 333.44 300.52 L 337.08 299.94 L 340.73 299.45 L 344.38 298.91 L 348.02 298.33 L 351.67 297.79 L 355.31 297.09 L 358.96 296.48 L 362.60 295.90 L 366.25 295.41 L 369.90 294.94 L 373.54 294.47 L 377.19 293.91 L 380.83 293.33 L 384.48 292.62 L 388.13 292.05 L 391.77 291.59 L 395.42 291.11 L 399.06 290.65 L 402.71 290.09 L 406.35 289.51 L 410.00 288.23 L 413.65 285.68 L 417.29 282.64 L 420.94 279.87 L 424.58 278.46 L 428.23 276.35 L 431.88 274.94 L 435.52 273.71 L 439.17 272.50 L 442.81 271.37 L 446.46 269.60 L 450.10 268.20 L 453.75 266.40 L 457.40 266.03 L 461.04 265.99 L 464.69 265.93 L 468.33 265.87 L 471.98 265.80 L 475.63 265.74 L 479.27 265.72 L 482.92 265.63 L 486.56 265.55 L 490.21 265.49 L 493.85 265.47 L 497.50 265.38 L 501.15 263.08 L 504.79 259.47 L 508.44 257.05 L 512.08 254.25 L 515.73 251.36 L 519.38 249.09 L 523.02 246.55 L 526.67 242.69 L 530.31 237.48 L 533.96 234.08 L 537.60 230.03 L 541.25 225.52 L 544.90 221.91 L 548.54 217.98 L 552.19 214.50 L 555.83 211.06 L 559.48 207.62 L 563.13 202.93 L 566.77 198.24 L 570.42 194.32 L 574.06 191.04 L 577.71 187.86 L 581.35 183.63 L 585.00 180.35 L 588.65 177.11 L 592.29 174.08 L 595.94 171.22 L 599.58 168.30 L 603.23 165.79 L 606.88 163.20 L 610.52 160.56 L 614.17 157.76 L 617.81 155.20 L 621.46 152.85 L 625.10 148.59 L 628.75 145.03 L 632.40 141.61 L 636.04 138.32 L 639.69 133.13 L 643.33 129.85 L 646.98 127.00 L 650.63 123.65 L 654.27 118.70 L 657.92 115.14 L 661.56 112.14 L 665.21 109.59 L 668.85 107.18 L 672.50 105.22 L 676.15 103.01 L 679.79 101.21 L 683.44 99.08 L 687.08 96.02 L 690.73 93.39 L 694.38 91.11 L 698.02 89.13 L 701.67 87.09 L 705.31 85.37 L 708.96 82.48 L 712.60 80.01 L 716.25 77.56 L 719.90 75.54 L 723.54 73.69 L 727.19 72.04 L 730.83 69.22 L 734.48 66.92 L 738.13 64.83 L 741.77 62.83 L 745.42 61.09 L 749.06 59.40 L 752.71 57.85 L 756.35 56.36 L 760.00 55.00
    L 760 340
    Z" fill="url(#areaGradient)" class="area-path"/>

  <!-- Main line with glow -->
  <path d="M 60.00 340.00 L 63.65 339.77 L 67.29 339.37 L 70.94 339.00 L 74.58 338.27 L 78.23 337.51 L 81.88 336.92 L 85.52 336.36 L 89.17 335.87 L 92.81 335.29 L 96.46 334.64 L 100.10 333.95 L 103.75 333.32 L 107.40 332.65 L 111.04 332.16 L 114.69 331.66 L 118.33 330.97 L 121.98 330.51 L 125.63 329.88 L 129.27 329.14 L 132.92 328.59 L 136.56 328.14 L 140.21 327.84 L 143.85 327.60 L 147.50 327.14 L 151.15 326.82 L 154.79 326.11 L 158.44 325.84 L 162.08 325.48 L 165.73 325.01 L 169.38 324.70 L 173.02 324.37 L 176.67 324.04 L 180.31 323.80 L 183.96 323.60 L 187.60 323.29 L 191.25 322.91 L 194.90 322.56 L 198.54 322.13 L 202.19 321.65 L 205.83 321.21 L 209.48 320.68 L 213.13 320.16 L 216.77 319.64 L 220.42 319.07 L 224.06 318.53 L 227.71 317.91 L 231.35 317.35 L 235.00 316.89 L 238.65 316.51 L 242.29 315.99 L 245.94 315.39 L 249.58 314.84 L 253.23 314.20 L 256.88 313.41 L 260.52 312.82 L 264.17 312.33 L 267.81 311.87 L 271.46 311.31 L 275.10 310.67 L 278.75 309.95 L 282.40 309.19 L 286.04 308.47 L 289.69 307.83 L 293.33 307.20 L 296.98 306.64 L 300.63 306.07 L 304.27 305.44 L 307.92 304.65 L 311.56 304.06 L 315.21 303.53 L 318.85 302.94 L 322.50 302.40 L 326.15 301.80 L 329.79 301.17 L 333.44 300.52 L 337.08 299.94 L 340.73 299.45 L 344.38 298.91 L 348.02 298.33 L 351.67 297.79 L 355.31 297.09 L 358.96 296.48 L 362.60 295.90 L 366.25 295.41 L 369.90 294.94 L 373.54 294.47 L 377.19 293.91 L 380.83 293.33 L 384.48 292.62 L 388.13 292.05 L 391.77 291.59 L 395.42 291.11 L 399.06 290.65 L 402.71 290.09 L 406.35 289.51 L 410.00 288.23 L 413.65 285.68 L 417.29 282.64 L 420.94 279.87 L 424.58 278.46 L 428.23 276.35 L 431.88 274.94 L 435.52 273.71 L 439.17 272.50 L 442.81 271.37 L 446.46 269.60 L 450.10 268.20 L 453.75 266.40 L 457.40 266.03 L 461.04 265.99 L 464.69 265.93 L 468.33 265.87 L 471.98 265.80 L 475.63 265.74 L 479.27 265.72 L 482.92 265.63 L 486.56 265.55 L 490.21 265.49 L 493.85 265.47 L 497.50 265.38 L 501.15 263.08 L 504.79 259.47 L 508.44 257.05 L 512.08 254.25 L 515.73 251.36 L 519.38 249.09 L 523.02 246.55 L 526.67 242.69 L 530.31 237.48 L 533.96 234.08 L 537.60 230.03 L 541.25 225.52 L 544.90 221.91 L 548.54 217.98 L 552.19 214.50 L 555.83 211.06 L 559.48 207.62 L 563.13 202.93 L 566.77 198.24 L 570.42 194.32 L 574.06 191.04 L 577.71 187.86 L 581.35 183.63 L 585.00 180.35 L 588.65 177.11 L 592.29 174.08 L 595.94 171.22 L 599.58 168.30 L 603.23 165.79 L 606.88 163.20 L 610.52 160.56 L 614.17 157.76 L 617.81 155.20 L 621.46 152.85 L 625.10 148.59 L 628.75 145.03 L 632.40 141.61 L 636.04 138.32 L 639.69 133.13 L 643.33 129.85 L 646.98 127.00 L 650.63 123.65 L 654.27 118.70 L 657.92 115.14 L 661.56 112.14 L 665.21 109.59 L 668.85 107.18 L 672.50 105.22 L 676.15 103.01 L 679.79 101.21 L 683.44 99.08 L 687.08 96.02 L 690.73 93.39 L 694.38 91.11 L 698.02 89.13 L 701.67 87.09 L 705.31 85.37 L 708.96 82.48 L 712.60 80.01 L 716.25 77.56 L 719.90 75.54 L 723.54 73.69 L 727.19 72.04 L 730.83 69.22 L 734.48 66.92 L 738.13 64.83 L 741.77 62.83 L 745.42 61.09 L 749.06 59.40 L 752.71 57.85 L 756.35 56.36 L 760.00 55.00" fill="none" stroke="#3b82f6" stroke-width="3"
        stroke-linecap="round" stroke-linejoin="round" filter="url(#glow)" class="line-path"/>

  <!-- Data points -->
  
    <circle cx="60" cy="340" r="4" fill="#3b82f6" stroke="#0d1117" stroke-width="2" class="data-point"/>
  
    <circle cx="63.645833333333336" cy="339.7664910960622" r="4" fill="#3b82f6" stroke="#0d1117" stroke-width="2" class="data-point"/>
  
    <circle cx="67.29166666666667" cy="339.3693671097734" r="4" fill="#3b82f6" stroke="#0d1117" stroke-width="2" class="data-point"/>
  
    <circle cx="70.9375" cy="339.00083605049747" r="4" fill="#3b82f6" stroke="#0d1117" stroke-width="2" class="data-point"/>
  
    <circle cx="74.58333333333333" cy="338.26853941978095" r="4" fill="#3b82f6" stroke="#0d1117" stroke-width="2" class="data-point"/>
  
    <circle cx="78.22916666666667" cy="337.51241534988714" r="4" fill="#3b82f6" stroke="#0d1117" stroke-width="2" class="data-point"/>
  
    <circle cx="81.875" cy="336.916729370454" r="4" fill="#3b82f6" stroke="#0d1117" stroke-width="2" class="data-point"/>
  
    <circle cx="85.52083333333334" cy="336.3607557896497" r="4" fill="#3b82f6" stroke="#0d1117" stroke-width="2" class="data-point"/>
  
    <circle cx="89.16666666666666" cy="335.86673355070644" r="4" fill="#3b82f6" stroke="#0d1117" stroke-width="2" class="data-point"/>
  
    <circle cx="92.8125" cy="335.28693253072487" r="4" fill="#3b82f6" stroke="#0d1117" stroke-width="2" class="data-point"/>
  
    <circle cx="96.45833333333334" cy="334.64041468104676" r="4" fill="#3b82f6" stroke="#0d1117" stroke-width="2" class="data-point"/>
  
    <circle cx="100.10416666666666" cy="333.9478304489591" r="4" fill="#3b82f6" stroke="#0d1117" stroke-width="2" class="data-point"/>
  
    <circle cx="103.75" cy="333.31878605467773" r="4" fill="#3b82f6" stroke="#0d1117" stroke-width="2" class="data-point"/>
  
    <circle cx="107.39583333333333" cy="332.65002926176743" r="4" fill="#3b82f6" stroke="#0d1117" stroke-width="2" class="data-point"/>
  
    <circle cx="111.04166666666667" cy="332.1623610066048" r="4" fill="#3b82f6" stroke="#0d1117" stroke-width="2" class="data-point"/>
  
    <circle cx="114.6875" cy="331.65721929604547" r="4" fill="#3b82f6" stroke="#0d1117" stroke-width="2" class="data-point"/>
  
    <circle cx="118.33333333333333" cy="330.9709890477385" r="4" fill="#3b82f6" stroke="#0d1117" stroke-width="2" class="data-point"/>
  
    <circle cx="121.97916666666667" cy="330.5119137195887" r="4" fill="#3b82f6" stroke="#0d1117" stroke-width="2" class="data-point"/>
  
    <circle cx="125.625" cy="329.8765153415266" r="4" fill="#3b82f6" stroke="#0d1117" stroke-width="2" class="data-point"/>
  
    <circle cx="129.27083333333331" cy="329.142630214865" r="4" fill="#3b82f6" stroke="#0d1117" stroke-width="2" class="data-point"/>
  
    <circle cx="132.91666666666669" cy="328.58983362595103" r="4" fill="#3b82f6" stroke="#0d1117" stroke-width="2" class="data-point"/>
  
    <circle cx="136.5625" cy="328.1355237856367" r="4" fill="#3b82f6" stroke="#0d1117" stroke-width="2" class="data-point"/>
  
    <circle cx="140.20833333333331" cy="327.84165203578294" r="4" fill="#3b82f6" stroke="#0d1117" stroke-width="2" class="data-point"/>
  
    <circle cx="143.85416666666669" cy="327.59702366022907" r="4" fill="#3b82f6" stroke="#0d1117" stroke-width="2" class="data-point"/>
  
    <circle cx="147.5" cy="327.1443023158599" r="4" fill="#3b82f6" stroke="#0d1117" stroke-width="2" class="data-point"/>
  
    <circle cx="151.14583333333334" cy="326.8218376389934" r="4" fill="#3b82f6" stroke="#0d1117" stroke-width="2" class="data-point"/>
  
    <circle cx="154.79166666666666" cy="326.11495694339936" r="4" fill="#3b82f6" stroke="#0d1117" stroke-width="2" class="data-point"/>
  
    <circle cx="158.4375" cy="325.83697015299725" r="4" fill="#3b82f6" stroke="#0d1117" stroke-width="2" class="data-point"/>
  
    <circle cx="162.08333333333334" cy="325.4779700693922" r="4" fill="#3b82f6" stroke="#0d1117" stroke-width="2" class="data-point"/>
  
    <circle cx="165.72916666666666" cy="325.0141292534069" r="4" fill="#3b82f6" stroke="#0d1117" stroke-width="2" class="data-point"/>
  
    <circle cx="169.375" cy="324.6964300643759" r="4" fill="#3b82f6" stroke="#0d1117" stroke-width="2" class="data-point"/>
  
    <circle cx="173.02083333333334" cy="324.37396538750943" r="4" fill="#3b82f6" stroke="#0d1117" stroke-width="2" class="data-point"/>
  
    <circle cx="176.66666666666666" cy="324.03561575119136" r="4" fill="#3b82f6" stroke="#0d1117" stroke-width="2" class="data-point"/>
  
    <circle cx="180.3125" cy="323.8005183513084" r="4" fill="#3b82f6" stroke="#0d1117" stroke-width="2" class="data-point"/>
  
    <circle cx="183.95833333333334" cy="323.5971908703286" r="4" fill="#3b82f6" stroke="#0d1117" stroke-width="2" class="data-point"/>
  
    <circle cx="187.60416666666666" cy="323.2874341610233" r="4" fill="#3b82f6" stroke="#0d1117" stroke-width="2" class="data-point"/>
  
    <circle cx="191.25" cy="322.91096062202155" r="4" fill="#3b82f6" stroke="#0d1117" stroke-width="2" class="data-point"/>
  
    <circle cx="194.89583333333334" cy="322.56466850597775" r="4" fill="#3b82f6" stroke="#0d1117" stroke-width="2" class="data-point"/>
  
    <circle cx="198.54166666666666" cy="322.12624362511497" r="4" fill="#3b82f6" stroke="#0d1117" stroke-width="2" class="data-point"/>
  
    <circle cx="202.1875" cy="321.64810634562326" r="4" fill="#3b82f6" stroke="#0d1117" stroke-width="2" class="data-point"/>
  
    <circle cx="205.83333333333334" cy="321.2096814647605" r="4" fill="#3b82f6" stroke="#0d1117" stroke-width="2" class="data-point"/>
  
    <circle cx="209.47916666666666" cy="320.6807123150238" r="4" fill="#3b82f6" stroke="#0d1117" stroke-width="2" class="data-point"/>
  
    <circle cx="213.125" cy="320.1612741409581" r="4" fill="#3b82f6" stroke="#0d1117" stroke-width="2" class="data-point"/>
  
    <circle cx="216.77083333333334" cy="319.6418359668924" r="4" fill="#3b82f6" stroke="#0d1117" stroke-width="2" class="data-point"/>
  
    <circle cx="220.41666666666666" cy="319.0731544185269" r="4" fill="#3b82f6" stroke="#0d1117" stroke-width="2" class="data-point"/>
  
    <circle cx="224.0625" cy="318.52988880528386" r="4" fill="#3b82f6" stroke="#0d1117" stroke-width="2" class="data-point"/>
  
    <circle cx="227.70833333333334" cy="317.9087868907282" r="4" fill="#3b82f6" stroke="#0d1117" stroke-width="2" class="data-point"/>
  
    <circle cx="231.35416666666666" cy="317.3544018058691" r="4" fill="#3b82f6" stroke="#0d1117" stroke-width="2" class="data-point"/>
  
    <circle cx="235" cy="316.8857955020483" r="4" fill="#3b82f6" stroke="#0d1117" stroke-width="2" class="data-point"/>
  
    <circle cx="238.64583333333331" cy="316.5109104589917" r="4" fill="#3b82f6" stroke="#0d1117" stroke-width="2" class="data-point"/>
  
    <circle cx="242.29166666666669" cy="315.98670679709056" r="4" fill="#3b82f6" stroke="#0d1117" stroke-width="2" class="data-point"/>
  
    <circle cx="245.9375" cy="315.38784382576705" r="4" fill="#3b82f6" stroke="#0d1117" stroke-width="2" class="data-point"/>
  
    <circle cx="249.58333333333331" cy="314.83981272468856" r="4" fill="#3b82f6" stroke="#0d1117" stroke-width="2" class="data-point"/>
  
    <circle cx="253.22916666666669" cy="314.1996488587911" r="4" fill="#3b82f6" stroke="#0d1117" stroke-width="2" class="data-point"/>
  
    <circle cx="256.875" cy="313.41016637404897" r="4" fill="#3b82f6" stroke="#0d1117" stroke-width="2" class="data-point"/>
  
    <circle cx="260.5208333333333" cy="312.8224228743416" r="4" fill="#3b82f6" stroke="#0d1117" stroke-width="2" class="data-point"/>
  
    <circle cx="264.1666666666667" cy="312.334754619179" r="4" fill="#3b82f6" stroke="#0d1117" stroke-width="2" class="data-point"/>
  
    <circle cx="267.8125" cy="311.87091380319373" r="4" fill="#3b82f6" stroke="#0d1117" stroke-width="2" class="data-point"/>
  
    <circle cx="271.4583333333333" cy="311.3133517264443" r="4" fill="#3b82f6" stroke="#0d1117" stroke-width="2" class="data-point"/>
  
    <circle cx="275.1041666666667" cy="310.665245380821" r="4" fill="#3b82f6" stroke="#0d1117" stroke-width="2" class="data-point"/>
  
    <circle cx="278.75" cy="309.9472452136109" r="4" fill="#3b82f6" stroke="#0d1117" stroke-width="2" class="data-point"/>
  
    <circle cx="282.3958333333333" cy="309.1927096396622" r="4" fill="#3b82f6" stroke="#0d1117" stroke-width="2" class="data-point"/>
  
    <circle cx="286.0416666666667" cy="308.46835548867153" r="4" fill="#3b82f6" stroke="#0d1117" stroke-width="2" class="data-point"/>
  
    <circle cx="289.6875" cy="307.8313686146643" r="4" fill="#3b82f6" stroke="#0d1117" stroke-width="2" class="data-point"/>
  
    <circle cx="293.3333333333333" cy="307.1991472284926" r="4" fill="#3b82f6" stroke="#0d1117" stroke-width="2" class="data-point"/>
  
    <circle cx="296.9791666666667" cy="306.6415851517432" r="4" fill="#3b82f6" stroke="#0d1117" stroke-width="2" class="data-point"/>
  
    <circle cx="300.625" cy="306.07290360337765" r="4" fill="#3b82f6" stroke="#0d1117" stroke-width="2" class="data-point"/>
  
    <circle cx="304.2708333333333" cy="305.4375052253156" r="4" fill="#3b82f6" stroke="#0d1117" stroke-width="2" class="data-point"/>
  
    <circle cx="307.9166666666667" cy="304.6464342446284" r="4" fill="#3b82f6" stroke="#0d1117" stroke-width="2" class="data-point"/>
  
    <circle cx="311.5625" cy="304.05710224897587" r="4" fill="#3b82f6" stroke="#0d1117" stroke-width="2" class="data-point"/>
  
    <circle cx="315.2083333333333" cy="303.52972159518436" r="4" fill="#3b82f6" stroke="#0d1117" stroke-width="2" class="data-point"/>
  
    <circle cx="318.8541666666667" cy="302.94356659142215" r="4" fill="#3b82f6" stroke="#0d1117" stroke-width="2" class="data-point"/>
  
    <circle cx="322.5" cy="302.39712398628876" r="4" fill="#3b82f6" stroke="#0d1117" stroke-width="2" class="data-point"/>
  
    <circle cx="326.1458333333333" cy="301.79667251902015" r="4" fill="#3b82f6" stroke="#0d1117" stroke-width="2" class="data-point"/>
  
    <circle cx="329.7916666666667" cy="301.170805116629" r="4" fill="#3b82f6" stroke="#0d1117" stroke-width="2" class="data-point"/>
  
    <circle cx="333.4375" cy="300.51634478722514" r="4" fill="#3b82f6" stroke="#0d1117" stroke-width="2" class="data-point"/>
  
    <circle cx="337.0833333333333" cy="299.94289775102413" r="4" fill="#3b82f6" stroke="#0d1117" stroke-width="2" class="data-point"/>
  
    <circle cx="340.7291666666667" cy="299.45205250397123" r="4" fill="#3b82f6" stroke="#0d1117" stroke-width="2" class="data-point"/>
  
    <circle cx="344.375" cy="298.9135523785637" r="4" fill="#3b82f6" stroke="#0d1117" stroke-width="2" class="data-point"/>
  
    <circle cx="348.0208333333333" cy="298.33057436669174" r="4" fill="#3b82f6" stroke="#0d1117" stroke-width="2" class="data-point"/>
  
    <circle cx="351.6666666666667" cy="297.790485745339" r="4" fill="#3b82f6" stroke="#0d1117" stroke-width="2" class="data-point"/>
  
    <circle cx="355.3125" cy="297.08678204163533" r="4" fill="#3b82f6" stroke="#0d1117" stroke-width="2" class="data-point"/>
  
    <circle cx="358.9583333333333" cy="296.48156508653125" r="4" fill="#3b82f6" stroke="#0d1117" stroke-width="2" class="data-point"/>
  
    <circle cx="362.6041666666667" cy="295.8985870746593" r="4" fill="#3b82f6" stroke="#0d1117" stroke-width="2" class="data-point"/>
  
    <circle cx="366.25" cy="295.414095811387" r="4" fill="#3b82f6" stroke="#0d1117" stroke-width="2" class="data-point"/>
  
    <circle cx="369.8958333333333" cy="294.9439010116211" r="4" fill="#3b82f6" stroke="#0d1117" stroke-width="2" class="data-point"/>
  
    <circle cx="373.5416666666667" cy="294.47211771591003" r="4" fill="#3b82f6" stroke="#0d1117" stroke-width="2" class="data-point"/>
  
    <circle cx="377.1875" cy="293.90820165537997" r="4" fill="#3b82f6" stroke="#0d1117" stroke-width="2" class="data-point"/>
  
    <circle cx="380.8333333333333" cy="293.3284006353984" r="4" fill="#3b82f6" stroke="#0d1117" stroke-width="2" class="data-point"/>
  
    <circle cx="384.4791666666667" cy="292.62469693169464" r="4" fill="#3b82f6" stroke="#0d1117" stroke-width="2" class="data-point"/>
  
    <circle cx="388.125" cy="292.054426887384" r="4" fill="#3b82f6" stroke="#0d1117" stroke-width="2" class="data-point"/>
  
    <circle cx="391.7708333333333" cy="291.58899757545356" r="4" fill="#3b82f6" stroke="#0d1117" stroke-width="2" class="data-point"/>
  
    <circle cx="395.4166666666667" cy="291.11086029596186" r="4" fill="#3b82f6" stroke="#0d1117" stroke-width="2" class="data-point"/>
  
    <circle cx="399.0625" cy="290.6533734637572" r="4" fill="#3b82f6" stroke="#0d1117" stroke-width="2" class="data-point"/>
  
    <circle cx="402.7083333333333" cy="290.087868907282" r="4" fill="#3b82f6" stroke="#0d1117" stroke-width="2" class="data-point"/>
  
    <circle cx="406.3541666666667" cy="289.5080678873004" r="4" fill="#3b82f6" stroke="#0d1117" stroke-width="2" class="data-point"/>
  
    <circle cx="410" cy="288.22615165956023" r="4" fill="#3b82f6" stroke="#0d1117" stroke-width="2" class="data-point"/>
  
    <circle cx="413.64583333333337" cy="285.67502717164115" r="4" fill="#3b82f6" stroke="#0d1117" stroke-width="2" class="data-point"/>
  
    <circle cx="417.29166666666663" cy="282.6362344285595" r="4" fill="#3b82f6" stroke="#0d1117" stroke-width="2" class="data-point"/>
  
    <circle cx="420.9375" cy="279.8674859961542" r="4" fill="#3b82f6" stroke="#0d1117" stroke-width="2" class="data-point"/>
  
    <circle cx="424.58333333333337" cy="278.46325558063705" r="4" fill="#3b82f6" stroke="#0d1117" stroke-width="2" class="data-point"/>
  
    <circle cx="428.22916666666663" cy="276.3473789816905" r="4" fill="#3b82f6" stroke="#0d1117" stroke-width="2" class="data-point"/>
  
    <circle cx="431.875" cy="274.9415600702282" r="4" fill="#3b82f6" stroke="#0d1117" stroke-width="2" class="data-point"/>
  
    <circle cx="435.52083333333337" cy="273.7088872167879" r="4" fill="#3b82f6" stroke="#0d1117" stroke-width="2" class="data-point"/>
  
    <circle cx="439.16666666666663" cy="272.50321879441515" r="4" fill="#3b82f6" stroke="#0d1117" stroke-width="2" class="data-point"/>
  
    <circle cx="442.8125" cy="271.3674441936293" r="4" fill="#3b82f6" stroke="#0d1117" stroke-width="2" class="data-point"/>
  
    <circle cx="446.45833333333337" cy="269.60103670261685" r="4" fill="#3b82f6" stroke="#0d1117" stroke-width="2" class="data-point"/>
  
    <circle cx="450.10416666666663" cy="268.1968062870998" r="4" fill="#3b82f6" stroke="#0d1117" stroke-width="2" class="data-point"/>
  
    <circle cx="453.75" cy="266.4018058690745" r="4" fill="#3b82f6" stroke="#0d1117" stroke-width="2" class="data-point"/>
  
    <circle cx="457.39583333333337" cy="266.03486330574367" r="4" fill="#3b82f6" stroke="#0d1117" stroke-width="2" class="data-point"/>
  
    <circle cx="461.04166666666663" cy="265.987208427389" r="4" fill="#3b82f6" stroke="#0d1117" stroke-width="2" class="data-point"/>
  
    <circle cx="464.6875" cy="265.92525708552796" r="4" fill="#3b82f6" stroke="#0d1117" stroke-width="2" class="data-point"/>
  
    <circle cx="468.33333333333337" cy="265.87283671933784" r="4" fill="#3b82f6" stroke="#0d1117" stroke-width="2" class="data-point"/>
  
    <circle cx="471.97916666666663" cy="265.80453139369615" r="4" fill="#3b82f6" stroke="#0d1117" stroke-width="2" class="data-point"/>
  
    <circle cx="475.625" cy="265.7441685477803" r="4" fill="#3b82f6" stroke="#0d1117" stroke-width="2" class="data-point"/>
  
    <circle cx="479.27083333333337" cy="265.72034110860295" r="4" fill="#3b82f6" stroke="#0d1117" stroke-width="2" class="data-point"/>
  
    <circle cx="482.91666666666663" cy="265.63297383161944" r="4" fill="#3b82f6" stroke="#0d1117" stroke-width="2" class="data-point"/>
  
    <circle cx="486.5625" cy="265.54878354652624" r="4" fill="#3b82f6" stroke="#0d1117" stroke-width="2" class="data-point"/>
  
    <circle cx="490.20833333333337" cy="265.4931861884458" r="4" fill="#3b82f6" stroke="#0d1117" stroke-width="2" class="data-point"/>
  
    <circle cx="493.85416666666663" cy="265.47253574115877" r="4" fill="#3b82f6" stroke="#0d1117" stroke-width="2" class="data-point"/>
  
    <circle cx="497.5" cy="265.3788144803946" r="4" fill="#3b82f6" stroke="#0d1117" stroke-width="2" class="data-point"/>
  
    <circle cx="501.14583333333337" cy="263.0754953599197" r="4" fill="#3b82f6" stroke="#0d1117" stroke-width="2" class="data-point"/>
  
    <circle cx="504.79166666666663" cy="259.4680210684725" r="4" fill="#3b82f6" stroke="#0d1117" stroke-width="2" class="data-point"/>
  
    <circle cx="508.4375" cy="257.05191873589166" r="4" fill="#3b82f6" stroke="#0d1117" stroke-width="2" class="data-point"/>
  
    <circle cx="512.0833333333334" cy="254.24663489674776" r="4" fill="#3b82f6" stroke="#0d1117" stroke-width="2" class="data-point"/>
  
    <circle cx="515.7291666666666" cy="251.3555722765655" r="4" fill="#3b82f6" stroke="#0d1117" stroke-width="2" class="data-point"/>
  
    <circle cx="519.375" cy="249.08720006688404" r="4" fill="#3b82f6" stroke="#0d1117" stroke-width="2" class="data-point"/>
  
    <circle cx="523.0208333333334" cy="246.55037204247137" r="4" fill="#3b82f6" stroke="#0d1117" stroke-width="2" class="data-point"/>
  
    <circle cx="526.6666666666666" cy="242.68556140790903" r="4" fill="#3b82f6" stroke="#0d1117" stroke-width="2" class="data-point"/>
  
    <circle cx="530.3125" cy="237.4768832037455" r="4" fill="#3b82f6" stroke="#0d1117" stroke-width="2" class="data-point"/>
  
    <circle cx="533.9583333333334" cy="234.07750188111362" r="4" fill="#3b82f6" stroke="#0d1117" stroke-width="2" class="data-point"/>
  
    <circle cx="537.6041666666666" cy="230.0316027088036" r="4" fill="#3b82f6" stroke="#0d1117" stroke-width="2" class="data-point"/>
  
    <circle cx="541.25" cy="225.52345121645348" r="4" fill="#3b82f6" stroke="#0d1117" stroke-width="2" class="data-point"/>
  
    <circle cx="544.8958333333334" cy="221.9080344452805" r="4" fill="#3b82f6" stroke="#0d1117" stroke-width="2" class="data-point"/>
  
    <circle cx="548.5416666666666" cy="217.98444946074744" r="4" fill="#3b82f6" stroke="#0d1117" stroke-width="2" class="data-point"/>
  
    <circle cx="552.1875" cy="214.50405484491262" r="4" fill="#3b82f6" stroke="#0d1117" stroke-width="2" class="data-point"/>
  
    <circle cx="555.8333333333334" cy="211.05543014798096" r="4" fill="#3b82f6" stroke="#0d1117" stroke-width="2" class="data-point"/>
  
    <circle cx="559.4791666666666" cy="207.61633642672018" r="4" fill="#3b82f6" stroke="#0d1117" stroke-width="2" class="data-point"/>
  
    <circle cx="563.125" cy="202.93345038040297" r="4" fill="#3b82f6" stroke="#0d1117" stroke-width="2" class="data-point"/>
  
    <circle cx="566.7708333333334" cy="198.23626787057938" r="4" fill="#3b82f6" stroke="#0d1117" stroke-width="2" class="data-point"/>
  
    <circle cx="570.4166666666666" cy="194.3206253657721" r="4" fill="#3b82f6" stroke="#0d1117" stroke-width="2" class="data-point"/>
  
    <circle cx="574.0625" cy="191.0387927430817" r="4" fill="#3b82f6" stroke="#0d1117" stroke-width="2" class="data-point"/>
  
    <circle cx="577.7083333333334" cy="187.8554468689909" r="4" fill="#3b82f6" stroke="#0d1117" stroke-width="2" class="data-point"/>
  
    <circle cx="581.3541666666666" cy="183.63004765487835" r="4" fill="#3b82f6" stroke="#0d1117" stroke-width="2" class="data-point"/>
  
    <circle cx="585" cy="180.3529805200234" r="4" fill="#3b82f6" stroke="#0d1117" stroke-width="2" class="data-point"/>
  
    <circle cx="588.6458333333334" cy="177.11086029596186" r="4" fill="#3b82f6" stroke="#0d1117" stroke-width="2" class="data-point"/>
  
    <circle cx="592.2916666666666" cy="174.0784215366608" r="4" fill="#3b82f6" stroke="#0d1117" stroke-width="2" class="data-point"/>
  
    <circle cx="595.9375" cy="171.22230582727195" r="4" fill="#3b82f6" stroke="#0d1117" stroke-width="2" class="data-point"/>
  
    <circle cx="599.5833333333334" cy="168.29629629629628" r="4" fill="#3b82f6" stroke="#0d1117" stroke-width="2" class="data-point"/>
  
    <circle cx="603.2291666666666" cy="165.79441518267706" r="4" fill="#3b82f6" stroke="#0d1117" stroke-width="2" class="data-point"/>
  
    <circle cx="606.875" cy="163.20357829612908" r="4" fill="#3b82f6" stroke="#0d1117" stroke-width="2" class="data-point"/>
  
    <circle cx="610.5208333333334" cy="160.55873254744586" r="4" fill="#3b82f6" stroke="#0d1117" stroke-width="2" class="data-point"/>
  
    <circle cx="614.1666666666666" cy="157.76297968397293" r="4" fill="#3b82f6" stroke="#0d1117" stroke-width="2" class="data-point"/>
  
    <circle cx="617.8125" cy="155.19755873254746" r="4" fill="#3b82f6" stroke="#0d1117" stroke-width="2" class="data-point"/>
  
    <circle cx="621.4583333333334" cy="152.84817322966308" r="4" fill="#3b82f6" stroke="#0d1117" stroke-width="2" class="data-point"/>
  
    <circle cx="625.1041666666666" cy="148.59100409664742" r="4" fill="#3b82f6" stroke="#0d1117" stroke-width="2" class="data-point"/>
  
    <circle cx="628.75" cy="145.02800769166458" r="4" fill="#3b82f6" stroke="#0d1117" stroke-width="2" class="data-point"/>
  
    <circle cx="632.3958333333334" cy="141.60638742580053" r="4" fill="#3b82f6" stroke="#0d1117" stroke-width="2" class="data-point"/>
  
    <circle cx="636.0416666666666" cy="138.31978931527465" r="4" fill="#3b82f6" stroke="#0d1117" stroke-width="2" class="data-point"/>
  
    <circle cx="639.6875" cy="133.13017306245297" r="4" fill="#3b82f6" stroke="#0d1117" stroke-width="2" class="data-point"/>
  
    <circle cx="643.3333333333334" cy="129.8467519438174" r="4" fill="#3b82f6" stroke="#0d1117" stroke-width="2" class="data-point"/>
  
    <circle cx="646.9791666666666" cy="127.00493269793495" r="4" fill="#3b82f6" stroke="#0d1117" stroke-width="2" class="data-point"/>
  
    <circle cx="650.625" cy="123.64844076582224" r="4" fill="#3b82f6" stroke="#0d1117" stroke-width="2" class="data-point"/>
  
    <circle cx="654.2708333333334" cy="118.70027589666415" r="4" fill="#3b82f6" stroke="#0d1117" stroke-width="2" class="data-point"/>
  
    <circle cx="657.9166666666666" cy="115.1404564835716" r="4" fill="#3b82f6" stroke="#0d1117" stroke-width="2" class="data-point"/>
  
    <circle cx="661.5625" cy="112.13502215533819" r="4" fill="#3b82f6" stroke="#0d1117" stroke-width="2" class="data-point"/>
  
    <circle cx="665.2083333333334" cy="109.5918401471449" r="4" fill="#3b82f6" stroke="#0d1117" stroke-width="2" class="data-point"/>
  
    <circle cx="668.8541666666666" cy="107.17891480645432" r="4" fill="#3b82f6" stroke="#0d1117" stroke-width="2" class="data-point"/>
  
    <circle cx="672.5" cy="105.21712231418778" r="4" fill="#3b82f6" stroke="#0d1117" stroke-width="2" class="data-point"/>
  
    <circle cx="676.1458333333334" cy="103.00752445447705" r="4" fill="#3b82f6" stroke="#0d1117" stroke-width="2" class="data-point"/>
  
    <circle cx="679.7916666666666" cy="101.20617005267118" r="4" fill="#3b82f6" stroke="#0d1117" stroke-width="2" class="data-point"/>
  
    <circle cx="683.4375" cy="99.08076247805369" r="4" fill="#3b82f6" stroke="#0d1117" stroke-width="2" class="data-point"/>
  
    <circle cx="687.0833333333334" cy="96.02131928768497" r="4" fill="#3b82f6" stroke="#0d1117" stroke-width="2" class="data-point"/>
  
    <circle cx="690.7291666666666" cy="93.39235849845329" r="4" fill="#3b82f6" stroke="#0d1117" stroke-width="2" class="data-point"/>
  
    <circle cx="694.375" cy="91.10651283337515" r="4" fill="#3b82f6" stroke="#0d1117" stroke-width="2" class="data-point"/>
  
    <circle cx="698.0208333333334" cy="89.1304238776022" r="4" fill="#3b82f6" stroke="#0d1117" stroke-width="2" class="data-point"/>
  
    <circle cx="701.6666666666666" cy="87.09238357996824" r="4" fill="#3b82f6" stroke="#0d1117" stroke-width="2" class="data-point"/>
  
    <circle cx="705.3125" cy="85.37363096731045" r="4" fill="#3b82f6" stroke="#0d1117" stroke-width="2" class="data-point"/>
  
    <circle cx="708.9583333333334" cy="82.48415684307332" r="4" fill="#3b82f6" stroke="#0d1117" stroke-width="2" class="data-point"/>
  
    <circle cx="712.6041666666666" cy="80.01404564835713" r="4" fill="#3b82f6" stroke="#0d1117" stroke-width="2" class="data-point"/>
  
    <circle cx="716.25" cy="77.56458490092803" r="4" fill="#3b82f6" stroke="#0d1117" stroke-width="2" class="data-point"/>
  
    <circle cx="719.8958333333334" cy="75.54242956274561" r="4" fill="#3b82f6" stroke="#0d1117" stroke-width="2" class="data-point"/>
  
    <circle cx="723.5416666666666" cy="73.68706629880444" r="4" fill="#3b82f6" stroke="#0d1117" stroke-width="2" class="data-point"/>
  
    <circle cx="727.1875" cy="72.03979600367859" r="4" fill="#3b82f6" stroke="#0d1117" stroke-width="2" class="data-point"/>
  
    <circle cx="730.8333333333334" cy="69.21545021319287" r="4" fill="#3b82f6" stroke="#0d1117" stroke-width="2" class="data-point"/>
  
    <circle cx="734.4791666666666" cy="66.92166206838891" r="4" fill="#3b82f6" stroke="#0d1117" stroke-width="2" class="data-point"/>
  
    <circle cx="738.125" cy="64.83120140456487" r="4" fill="#3b82f6" stroke="#0d1117" stroke-width="2" class="data-point"/>
  
    <circle cx="741.7708333333334" cy="62.8344620015049" r="4" fill="#3b82f6" stroke="#0d1117" stroke-width="2" class="data-point"/>
  
    <circle cx="745.4166666666666" cy="61.091881949669755" r="4" fill="#3b82f6" stroke="#0d1117" stroke-width="2" class="data-point"/>
  
    <circle cx="749.0625" cy="59.40013376807963" r="4" fill="#3b82f6" stroke="#0d1117" stroke-width="2" class="data-point"/>
  
    <circle cx="752.7083333333334" cy="57.84976172560823" r="4" fill="#3b82f6" stroke="#0d1117" stroke-width="2" class="data-point"/>
  
    <circle cx="756.3541666666666" cy="56.362929520943055" r="4" fill="#3b82f6" stroke="#0d1117" stroke-width="2" class="data-point"/>
  
    <circle cx="760" cy="55" r="4" fill="#3b82f6" stroke="#0d1117" stroke-width="2" class="data-point"/>
  

  <!-- Axis lines -->
  <line x1="60" y1="55" x2="60" y2="340"
        stroke="#30363d" stroke-width="2"/>
  <line x1="60" y1="340" x2="760" y2="340"
        stroke="#30363d" stroke-width="2"/>
</svg>