<?xml version="1.0" encoding="UTF-8"?>
<svg width="800" height="400" xmlns="http://www.w3.org/2000/svg">
  <defs>
    <!-- Gradient for area fill -->
    <linearGradient id="areaGradient" x1="0%" y1="0%" x2="0%" y2="100%">
      <stop offset="0%" style="stop-color:#3b82f6;stop-opacity:0.3" />
      <stop offset="100%" style="stop-color:#3b82f6;stop-opacity:0.05" />
    </linearGradient>

    <!-- Glow filter for line -->
    <filter id="glow">
      <feGaussianBlur stdDeviation="2" result="coloredBlur"/>
      <feMerge>
        <feMergeNode in="coloredBlur"/>
        <feMergeNode in="SourceGraphic"/>
      </feMerge>
    </filter>

    <!-- Animation -->
    <style>
      @keyframes draw {
        from { stroke-dashoffset: 2000; }
        to { stroke-dashoffset: 0; }
      }
      @keyframes fadeIn {
        from { opacity: 0; }
        to { opacity: 1; }
      }
      .line-path {
        stroke-dasharray: 2000;
        stroke-dashoffset: 2000;
        animation: draw 1.5s ease-out forwards;
      }
      .area-path {
        opacity: 0;
        animation: fadeIn 1s ease-out 0.5s forwards;
      }
      .data-point {
        opacity: 0;
        animation: fadeIn 0.5s ease-out 1s forwards;
      }
    </style>
  </defs>

  <!-- Background -->
  <rect width="800" height="400" fill="#0d1117" rx="8"/>

  <!-- Title -->
  <text x="400" y="25" text-anchor="middle" fill="#c9d1d9" font-family="system-ui, -apple-system, sans-serif" font-size="16" font-weight="600">
    zxcloli666/SoundCloud-Desktop Downloads
  </text>

  <!-- Stats -->
  <text x="780" y="25" text-anchor="end" fill="#58a6ff" font-family="system-ui, -apple-system, sans-serif" font-size="14" font-weight="600">
    74.4K total
  </text>
  <text x="780" y="42" text-anchor="end" fill="#3fb950" font-family="system-ui, -apple-system, sans-serif" font-size="12">
    +349 (+0.5%)
  </text>

  <!-- Grid lines -->
  <g opacity="0.1">
    
      <line x1="60" y1="340" x2="760" y2="340"
            stroke="#c9d1d9" stroke-width="1"/>
    
      <line x1="60" y1="268.75" x2="760" y2="268.75"
            stroke="#c9d1d9" stroke-width="1"/>
    
      <line x1="60" y1="197.5" x2="760" y2="197.5"
            stroke="#c9d1d9" stroke-width="1"/>
    
      <line x1="60" y1="126.25" x2="760" y2="126.25"
            stroke="#c9d1d9" stroke-width="1"/>
    
      <line x1="60" y1="55" x2="760" y2="55"
            stroke="#c9d1d9" stroke-width="1"/>
    
  </g>

  <!-- Y-axis labels -->
  
    <text x="50" y="344" text-anchor="end"
          fill="#8b949e" font-family="system-ui, -apple-system, sans-serif" font-size="11">
      60.2K
    </text>
  
    <text x="50" y="272.75" text-anchor="end"
          fill="#8b949e" font-family="system-ui, -apple-system, sans-serif" font-size="11">
      63.7K
    </text>
  
    <text x="50" y="201.5" text-anchor="end"
          fill="#8b949e" font-family="system-ui, -apple-system, sans-serif" font-size="11">
      67.3K
    </text>
  
    <text x="50" y="130.25" text-anchor="end"
          fill="#8b949e" font-family="system-ui, -apple-system, sans-serif" font-size="11">
      70.8K
    </text>
  
    <text x="50" y="59" text-anchor="end"
          fill="#8b949e" font-family="system-ui, -apple-system, sans-serif" font-size="11">
      74.4K
    </text>
  

  <!-- X-axis labels -->
  
    <text x="60" y="360" text-anchor="middle"
          fill="#8b949e" font-family="system-ui, -apple-system, sans-serif" font-size="11">
      Nov 25
    </text>
  
    <text x="149.36170212765956" y="360" text-anchor="middle"
          fill="#8b949e" font-family="system-ui, -apple-system, sans-serif" font-size="11">
      Dec 1
    </text>
  
    <text x="238.72340425531914" y="360" text-anchor="middle"
          fill="#8b949e" font-family="system-ui, -apple-system, sans-serif" font-size="11">
      Dec 7
    </text>
  
    <text x="328.0851063829787" y="360" text-anchor="middle"
          fill="#8b949e" font-family="system-ui, -apple-system, sans-serif" font-size="11">
      Dec 13
    </text>
  
    <text x="417.4468085106383" y="360" text-anchor="middle"
          fill="#8b949e" font-family="system-ui, -apple-system, sans-serif" font-size="11">
      Dec 19
    </text>
  
    <text x="506.8085106382979" y="360" text-anchor="middle"
          fill="#8b949e" font-family="system-ui, -apple-system, sans-serif" font-size="11">
      Dec 25
    </text>
  
    <text x="596.1702127659574" y="360" text-anchor="middle"
          fill="#8b949e" font-family="system-ui, -apple-system, sans-serif" font-size="11">
      Dec 31
    </text>
  
    <text x="685.531914893617" y="360" text-anchor="middle"
          fill="#8b949e" font-family="system-ui, -apple-system, sans-serif" font-size="11">
      Jan 6
    </text>
  
    <text x="760" y="360" text-anchor="middle"
          fill="#8b949e" font-family="system-ui, -apple-system, sans-serif" font-size="11">
      Jan 11
    </text>
  

  <!-- Area under line -->
  <path d="M 60 340
    L 60.00 340.00 L 74.89 337.06 L 89.79 332.06 L 104.68 327.43 L 119.57 318.21 L 134.47 308.69 L 149.36 301.20 L 164.26 294.20 L 179.15 287.98 L 194.04 280.68 L 208.94 272.55 L 223.83 263.83 L 238.72 255.92 L 253.62 247.50 L 268.51 241.36 L 283.40 235.00 L 298.30 226.37 L 313.19 220.59 L 328.09 212.59 L 342.98 203.36 L 357.87 196.40 L 372.77 190.68 L 387.66 186.98 L 402.55 183.91 L 417.45 178.21 L 432.34 174.15 L 447.23 165.25 L 462.13 161.76 L 477.02 157.24 L 491.91 151.40 L 506.81 147.40 L 521.70 143.34 L 536.60 139.08 L 551.49 136.13 L 566.38 133.57 L 581.28 129.67 L 596.17 124.93 L 611.06 120.57 L 625.96 115.05 L 640.85 109.04 L 655.74 103.52 L 670.64 96.86 L 685.53 90.33 L 700.43 83.79 L 715.32 76.63 L 730.21 69.79 L 745.11 61.98 L 760.00 55.00
    L 760 340
    Z" fill="url(#areaGradient)" class="area-path"/>

  <!-- Main line with glow -->
  <path d="M 60.00 340.00 L 74.89 337.06 L 89.79 332.06 L 104.68 327.43 L 119.57 318.21 L 134.47 308.69 L 149.36 301.20 L 164.26 294.20 L 179.15 287.98 L 194.04 280.68 L 208.94 272.55 L 223.83 263.83 L 238.72 255.92 L 253.62 247.50 L 268.51 241.36 L 283.40 235.00 L 298.30 226.37 L 313.19 220.59 L 328.09 212.59 L 342.98 203.36 L 357.87 196.40 L 372.77 190.68 L 387.66 186.98 L 402.55 183.91 L 417.45 178.21 L 432.34 174.15 L 447.23 165.25 L 462.13 161.76 L 477.02 157.24 L 491.91 151.40 L 506.81 147.40 L 521.70 143.34 L 536.60 139.08 L 551.49 136.13 L 566.38 133.57 L 581.28 129.67 L 596.17 124.93 L 611.06 120.57 L 625.96 115.05 L 640.85 109.04 L 655.74 103.52 L 670.64 96.86 L 685.53 90.33 L 700.43 83.79 L 715.32 76.63 L 730.21 69.79 L 745.11 61.98 L 760.00 55.00" fill="none" stroke="#3b82f6" stroke-width="3"
        stroke-linecap="round" stroke-linejoin="round" filter="url(#glow)" class="line-path"/>

  <!-- Data points -->
  
    <circle cx="60" cy="340" r="4" fill="#3b82f6" stroke="#0d1117" stroke-width="2" class="data-point"/>
  
    <circle cx="74.8936170212766" cy="337.06123737373736" r="4" fill="#3b82f6" stroke="#0d1117" stroke-width="2" class="data-point"/>
  
    <circle cx="89.7872340425532" cy="332.06334175084174" r="4" fill="#3b82f6" stroke="#0d1117" stroke-width="2" class="data-point"/>
  
    <circle cx="104.68085106382978" cy="327.42529461279463" r="4" fill="#3b82f6" stroke="#0d1117" stroke-width="2" class="data-point"/>
  
    <circle cx="119.57446808510639" cy="318.20917508417506" r="4" fill="#3b82f6" stroke="#0d1117" stroke-width="2" class="data-point"/>
  
    <circle cx="134.468085106383" cy="308.6931818181818" r="4" fill="#3b82f6" stroke="#0d1117" stroke-width="2" class="data-point"/>
  
    <circle cx="149.36170212765956" cy="301.1963383838384" r="4" fill="#3b82f6" stroke="#0d1117" stroke-width="2" class="data-point"/>
  
    <circle cx="164.25531914893617" cy="294.1992845117845" r="4" fill="#3b82f6" stroke="#0d1117" stroke-width="2" class="data-point"/>
  
    <circle cx="179.14893617021278" cy="287.98190235690237" r="4" fill="#3b82f6" stroke="#0d1117" stroke-width="2" class="data-point"/>
  
    <circle cx="194.04255319148936" cy="280.68497474747477" r="4" fill="#3b82f6" stroke="#0d1117" stroke-width="2" class="data-point"/>
  
    <circle cx="208.93617021276597" cy="272.5484006734007" r="4" fill="#3b82f6" stroke="#0d1117" stroke-width="2" class="data-point"/>
  
    <circle cx="223.82978723404256" cy="263.8320707070707" r="4" fill="#3b82f6" stroke="#0d1117" stroke-width="2" class="data-point"/>
  
    <circle cx="238.72340425531914" cy="255.91540404040404" r="4" fill="#3b82f6" stroke="#0d1117" stroke-width="2" class="data-point"/>
  
    <circle cx="253.61702127659575" cy="247.4989478114478" r="4" fill="#3b82f6" stroke="#0d1117" stroke-width="2" class="data-point"/>
  
    <circle cx="268.51063829787233" cy="241.361531986532" r="4" fill="#3b82f6" stroke="#0d1117" stroke-width="2" class="data-point"/>
  
    <circle cx="283.40425531914894" cy="235.00420875420875" r="4" fill="#3b82f6" stroke="#0d1117" stroke-width="2" class="data-point"/>
  
    <circle cx="298.29787234042556" cy="226.36784511784512" r="4" fill="#3b82f6" stroke="#0d1117" stroke-width="2" class="data-point"/>
  
    <circle cx="313.1914893617021" cy="220.59027777777777" r="4" fill="#3b82f6" stroke="#0d1117" stroke-width="2" class="data-point"/>
  
    <circle cx="328.0851063829787" cy="212.59364478114477" r="4" fill="#3b82f6" stroke="#0d1117" stroke-width="2" class="data-point"/>
  
    <circle cx="342.9787234042553" cy="203.35753367003366" r="4" fill="#3b82f6" stroke="#0d1117" stroke-width="2" class="data-point"/>
  
    <circle cx="357.87234042553195" cy="196.40046296296296" r="4" fill="#3b82f6" stroke="#0d1117" stroke-width="2" class="data-point"/>
  
    <circle cx="372.7659574468085" cy="190.68287037037035" r="4" fill="#3b82f6" stroke="#0d1117" stroke-width="2" class="data-point"/>
  
    <circle cx="387.6595744680851" cy="186.9844276094276" r="4" fill="#3b82f6" stroke="#0d1117" stroke-width="2" class="data-point"/>
  
    <circle cx="402.55319148936167" cy="183.90572390572393" r="4" fill="#3b82f6" stroke="#0d1117" stroke-width="2" class="data-point"/>
  
    <circle cx="417.4468085106383" cy="178.2081228956229" r="4" fill="#3b82f6" stroke="#0d1117" stroke-width="2" class="data-point"/>
  
    <circle cx="432.3404255319149" cy="174.14983164983167" r="4" fill="#3b82f6" stroke="#0d1117" stroke-width="2" class="data-point"/>
  
    <circle cx="447.2340425531915" cy="165.25357744107743" r="4" fill="#3b82f6" stroke="#0d1117" stroke-width="2" class="data-point"/>
  
    <circle cx="462.1276595744681" cy="161.7550505050505" r="4" fill="#3b82f6" stroke="#0d1117" stroke-width="2" class="data-point"/>
  
    <circle cx="477.02127659574467" cy="157.23695286195286" r="4" fill="#3b82f6" stroke="#0d1117" stroke-width="2" class="data-point"/>
  
    <circle cx="491.9148936170213" cy="151.3994107744108" r="4" fill="#3b82f6" stroke="#0d1117" stroke-width="2" class="data-point"/>
  
    <circle cx="506.8085106382979" cy="147.40109427609428" r="4" fill="#3b82f6" stroke="#0d1117" stroke-width="2" class="data-point"/>
  
    <circle cx="521.7021276595744" cy="143.34280303030303" r="4" fill="#3b82f6" stroke="#0d1117" stroke-width="2" class="data-point"/>
  
    <circle cx="536.5957446808511" cy="139.08459595959596" r="4" fill="#3b82f6" stroke="#0d1117" stroke-width="2" class="data-point"/>
  
    <circle cx="551.4893617021277" cy="136.12584175084174" r="4" fill="#3b82f6" stroke="#0d1117" stroke-width="2" class="data-point"/>
  
    <circle cx="566.3829787234042" cy="133.56691919191917" r="4" fill="#3b82f6" stroke="#0d1117" stroke-width="2" class="data-point"/>
  
    <circle cx="581.2765957446808" cy="129.6685606060606" r="4" fill="#3b82f6" stroke="#0d1117" stroke-width="2" class="data-point"/>
  
    <circle cx="596.1702127659574" cy="124.93055555555554" r="4" fill="#3b82f6" stroke="#0d1117" stroke-width="2" class="data-point"/>
  
    <circle cx="611.0638297872341" cy="120.57239057239056" r="4" fill="#3b82f6" stroke="#0d1117" stroke-width="2" class="data-point"/>
  
    <circle cx="625.9574468085106" cy="115.0547138047138" r="4" fill="#3b82f6" stroke="#0d1117" stroke-width="2" class="data-point"/>
  
    <circle cx="640.8510638297872" cy="109.03724747474746" r="4" fill="#3b82f6" stroke="#0d1117" stroke-width="2" class="data-point"/>
  
    <circle cx="655.7446808510639" cy="103.5195707070707" r="4" fill="#3b82f6" stroke="#0d1117" stroke-width="2" class="data-point"/>
  
    <circle cx="670.6382978723404" cy="96.86237373737373" r="4" fill="#3b82f6" stroke="#0d1117" stroke-width="2" class="data-point"/>
  
    <circle cx="685.531914893617" cy="90.32512626262624" r="4" fill="#3b82f6" stroke="#0d1117" stroke-width="2" class="data-point"/>
  
    <circle cx="700.4255319148936" cy="83.78787878787881" r="4" fill="#3b82f6" stroke="#0d1117" stroke-width="2" class="data-point"/>
  
    <circle cx="715.3191489361702" cy="76.63089225589226" r="4" fill="#3b82f6" stroke="#0d1117" stroke-width="2" class="data-point"/>
  
    <circle cx="730.2127659574469" cy="69.79377104377102" r="4" fill="#3b82f6" stroke="#0d1117" stroke-width="2" class="data-point"/>
  
    <circle cx="745.1063829787233" cy="61.9770622895623" r="4" fill="#3b82f6" stroke="#0d1117" stroke-width="2" class="data-point"/>
  
    <circle cx="760" cy="55" r="4" fill="#3b82f6" stroke="#0d1117" stroke-width="2" class="data-point"/>
  

  <!-- Axis lines -->
  <line x1="60" y1="55" x2="60" y2="340"
        stroke="#30363d" stroke-width="2"/>
  <line x1="60" y1="340" x2="760" y2="340"
        stroke="#30363d" stroke-width="2"/>
</svg>