<?xml version="1.0" encoding="UTF-8"?>
<svg width="800" height="400" xmlns="http://www.w3.org/2000/svg">
  <defs>
    <!-- Gradient for area fill -->
    <linearGradient id="areaGradient" x1="0%" y1="0%" x2="0%" y2="100%">
      <stop offset="0%" style="stop-color:#3b82f6;stop-opacity:0.3" />
      <stop offset="100%" style="stop-color:#3b82f6;stop-opacity:0.05" />
    </linearGradient>

    <!-- Glow filter for line -->
    <filter id="glow">
      <feGaussianBlur stdDeviation="2" result="coloredBlur"/>
      <feMerge>
        <feMergeNode in="coloredBlur"/>
        <feMergeNode in="SourceGraphic"/>
      </feMerge>
    </filter>

    <!-- Animation -->
    <style>
      @keyframes draw {
        from { stroke-dashoffset: 2000; }
        to { stroke-dashoffset: 0; }
      }
      @keyframes fadeIn {
        from { opacity: 0; }
        to { opacity: 1; }
      }
      .line-path {
        stroke-dasharray: 2000;
        stroke-dashoffset: 2000;
        animation: draw 1.5s ease-out forwards;
      }
      .area-path {
        opacity: 0;
        animation: fadeIn 1s ease-out 0.5s forwards;
      }
      .data-point {
        opacity: 0;
        animation: fadeIn 0.5s ease-out 1s forwards;
      }
    </style>
  </defs>

  <!-- Background -->
  <rect width="800" height="400" fill="#0d1117" rx="8"/>

  <!-- Title -->
  <text x="400" y="25" text-anchor="middle" fill="#c9d1d9" font-family="system-ui, -apple-system, sans-serif" font-size="16" font-weight="600">
    zxcloli666/SoundCloud-Desktop Downloads
  </text>

  <!-- Stats -->
  <text x="780" y="25" text-anchor="end" fill="#58a6ff" font-family="system-ui, -apple-system, sans-serif" font-size="14" font-weight="600">
    107.1K total
  </text>
  <text x="780" y="42" text-anchor="end" fill="#3fb950" font-family="system-ui, -apple-system, sans-serif" font-size="12">
    +35 (+0.0%)
  </text>

  <!-- Grid lines -->
  <g opacity="0.1">
    
      <line x1="60" y1="340" x2="760" y2="340"
            stroke="#c9d1d9" stroke-width="1"/>
    
      <line x1="60" y1="268.75" x2="760" y2="268.75"
            stroke="#c9d1d9" stroke-width="1"/>
    
      <line x1="60" y1="197.5" x2="760" y2="197.5"
            stroke="#c9d1d9" stroke-width="1"/>
    
      <line x1="60" y1="126.25" x2="760" y2="126.25"
            stroke="#c9d1d9" stroke-width="1"/>
    
      <line x1="60" y1="55" x2="760" y2="55"
            stroke="#c9d1d9" stroke-width="1"/>
    
  </g>

  <!-- Y-axis labels -->
  
    <text x="50" y="344" text-anchor="end"
          fill="#8b949e" font-family="system-ui, -apple-system, sans-serif" font-size="11">
      60.2K
    </text>
  
    <text x="50" y="272.75" text-anchor="end"
          fill="#8b949e" font-family="system-ui, -apple-system, sans-serif" font-size="11">
      71.9K
    </text>
  
    <text x="50" y="201.5" text-anchor="end"
          fill="#8b949e" font-family="system-ui, -apple-system, sans-serif" font-size="11">
      83.6K
    </text>
  
    <text x="50" y="130.25" text-anchor="end"
          fill="#8b949e" font-family="system-ui, -apple-system, sans-serif" font-size="11">
      95.3K
    </text>
  
    <text x="50" y="59" text-anchor="end"
          fill="#8b949e" font-family="system-ui, -apple-system, sans-serif" font-size="11">
      107.1K
    </text>
  

  <!-- X-axis labels -->
  
    <text x="60" y="360" text-anchor="middle"
          fill="#8b949e" font-family="system-ui, -apple-system, sans-serif" font-size="11">
      Nov 25
    </text>
  
    <text x="143.05084745762713" y="360" text-anchor="middle"
          fill="#8b949e" font-family="system-ui, -apple-system, sans-serif" font-size="11">
      Dec 9
    </text>
  
    <text x="226.10169491525423" y="360" text-anchor="middle"
          fill="#8b949e" font-family="system-ui, -apple-system, sans-serif" font-size="11">
      Dec 23
    </text>
  
    <text x="309.1525423728814" y="360" text-anchor="middle"
          fill="#8b949e" font-family="system-ui, -apple-system, sans-serif" font-size="11">
      Jan 6
    </text>
  
    <text x="392.20338983050846" y="360" text-anchor="middle"
          fill="#8b949e" font-family="system-ui, -apple-system, sans-serif" font-size="11">
      Jan 20
    </text>
  
    <text x="475.2542372881356" y="360" text-anchor="middle"
          fill="#8b949e" font-family="system-ui, -apple-system, sans-serif" font-size="11">
      Feb 3
    </text>
  
    <text x="558.3050847457628" y="360" text-anchor="middle"
          fill="#8b949e" font-family="system-ui, -apple-system, sans-serif" font-size="11">
      Feb 17
    </text>
  
    <text x="641.3559322033898" y="360" text-anchor="middle"
          fill="#8b949e" font-family="system-ui, -apple-system, sans-serif" font-size="11">
      Mar 3
    </text>
  
    <text x="724.4067796610169" y="360" text-anchor="middle"
          fill="#8b949e" font-family="system-ui, -apple-system, sans-serif" font-size="11">
      Mar 17
    </text>
  
    <text x="760" y="360" text-anchor="middle"
          fill="#8b949e" font-family="system-ui, -apple-system, sans-serif" font-size="11">
      Mar 23
    </text>
  

  <!-- Area under line -->
  <path d="M 60 340
    L 60.00 340.00 L 65.93 339.11 L 71.86 337.59 L 77.80 336.18 L 83.73 333.38 L 89.66 330.48 L 95.59 328.21 L 101.53 326.08 L 107.46 324.19 L 113.39 321.97 L 119.32 319.50 L 125.25 316.85 L 131.19 314.44 L 137.12 311.89 L 143.05 310.02 L 148.98 308.09 L 154.92 305.46 L 160.85 303.71 L 166.78 301.28 L 172.71 298.47 L 178.64 296.35 L 184.58 294.62 L 190.51 293.49 L 196.44 292.56 L 202.37 290.82 L 208.31 289.59 L 214.24 286.89 L 220.17 285.82 L 226.10 284.45 L 232.03 282.68 L 237.97 281.46 L 243.90 280.23 L 249.83 278.93 L 255.76 278.03 L 261.69 277.26 L 267.63 276.07 L 273.56 274.63 L 279.49 273.31 L 285.42 271.63 L 291.36 269.80 L 297.29 268.12 L 303.22 266.10 L 309.15 264.11 L 315.08 262.13 L 321.02 259.95 L 326.95 257.87 L 332.88 255.50 L 338.81 253.38 L 344.75 251.58 L 350.68 250.15 L 356.61 248.15 L 362.54 245.85 L 368.47 243.76 L 374.41 241.31 L 380.34 238.29 L 386.27 236.04 L 392.20 234.18 L 398.14 232.40 L 404.07 230.27 L 410.00 227.79 L 415.93 225.04 L 421.86 222.16 L 427.80 219.39 L 433.73 216.95 L 439.66 214.53 L 445.59 212.40 L 451.53 210.22 L 457.46 207.79 L 463.39 204.77 L 469.32 202.51 L 475.25 200.50 L 481.19 198.25 L 487.12 196.16 L 493.05 193.87 L 498.98 191.47 L 504.92 188.97 L 510.85 186.78 L 516.78 184.90 L 522.71 182.84 L 528.64 180.61 L 534.58 178.54 L 540.51 175.85 L 546.44 173.54 L 552.37 171.31 L 558.31 169.45 L 564.24 167.65 L 570.17 165.85 L 576.10 163.69 L 582.03 161.47 L 587.97 158.78 L 593.90 156.60 L 599.83 154.82 L 605.76 152.99 L 611.69 151.24 L 617.63 149.08 L 623.56 146.86 L 629.49 141.96 L 635.42 132.20 L 641.36 120.57 L 647.29 109.98 L 653.22 104.61 L 659.15 96.52 L 665.08 91.14 L 671.02 86.43 L 676.95 81.81 L 682.88 77.47 L 688.81 70.71 L 694.75 65.34 L 700.68 58.48 L 706.61 57.07 L 712.54 56.89 L 718.47 56.65 L 724.41 56.45 L 730.34 56.19 L 736.27 55.96 L 742.20 55.87 L 748.14 55.53 L 754.07 55.21 L 760.00 55.00
    L 760 340
    Z" fill="url(#areaGradient)" class="area-path"/>

  <!-- Main line with glow -->
  <path d="M 60.00 340.00 L 65.93 339.11 L 71.86 337.59 L 77.80 336.18 L 83.73 333.38 L 89.66 330.48 L 95.59 328.21 L 101.53 326.08 L 107.46 324.19 L 113.39 321.97 L 119.32 319.50 L 125.25 316.85 L 131.19 314.44 L 137.12 311.89 L 143.05 310.02 L 148.98 308.09 L 154.92 305.46 L 160.85 303.71 L 166.78 301.28 L 172.71 298.47 L 178.64 296.35 L 184.58 294.62 L 190.51 293.49 L 196.44 292.56 L 202.37 290.82 L 208.31 289.59 L 214.24 286.89 L 220.17 285.82 L 226.10 284.45 L 232.03 282.68 L 237.97 281.46 L 243.90 280.23 L 249.83 278.93 L 255.76 278.03 L 261.69 277.26 L 267.63 276.07 L 273.56 274.63 L 279.49 273.31 L 285.42 271.63 L 291.36 269.80 L 297.29 268.12 L 303.22 266.10 L 309.15 264.11 L 315.08 262.13 L 321.02 259.95 L 326.95 257.87 L 332.88 255.50 L 338.81 253.38 L 344.75 251.58 L 350.68 250.15 L 356.61 248.15 L 362.54 245.85 L 368.47 243.76 L 374.41 241.31 L 380.34 238.29 L 386.27 236.04 L 392.20 234.18 L 398.14 232.40 L 404.07 230.27 L 410.00 227.79 L 415.93 225.04 L 421.86 222.16 L 427.80 219.39 L 433.73 216.95 L 439.66 214.53 L 445.59 212.40 L 451.53 210.22 L 457.46 207.79 L 463.39 204.77 L 469.32 202.51 L 475.25 200.50 L 481.19 198.25 L 487.12 196.16 L 493.05 193.87 L 498.98 191.47 L 504.92 188.97 L 510.85 186.78 L 516.78 184.90 L 522.71 182.84 L 528.64 180.61 L 534.58 178.54 L 540.51 175.85 L 546.44 173.54 L 552.37 171.31 L 558.31 169.45 L 564.24 167.65 L 570.17 165.85 L 576.10 163.69 L 582.03 161.47 L 587.97 158.78 L 593.90 156.60 L 599.83 154.82 L 605.76 152.99 L 611.69 151.24 L 617.63 149.08 L 623.56 146.86 L 629.49 141.96 L 635.42 132.20 L 641.36 120.57 L 647.29 109.98 L 653.22 104.61 L 659.15 96.52 L 665.08 91.14 L 671.02 86.43 L 676.95 81.81 L 682.88 77.47 L 688.81 70.71 L 694.75 65.34 L 700.68 58.48 L 706.61 57.07 L 712.54 56.89 L 718.47 56.65 L 724.41 56.45 L 730.34 56.19 L 736.27 55.96 L 742.20 55.87 L 748.14 55.53 L 754.07 55.21 L 760.00 55.00" fill="none" stroke="#3b82f6" stroke-width="3"
        stroke-linecap="round" stroke-linejoin="round" filter="url(#glow)" class="line-path"/>

  <!-- Data points -->
  
    <circle cx="60" cy="340" r="4" fill="#3b82f6" stroke="#0d1117" stroke-width="2" class="data-point"/>
  
    <circle cx="65.9322033898305" cy="339.10679259764623" r="4" fill="#3b82f6" stroke="#0d1117" stroke-width="2" class="data-point"/>
  
    <circle cx="71.86440677966101" cy="337.58773238956167" r="4" fill="#3b82f6" stroke="#0d1117" stroke-width="2" class="data-point"/>
  
    <circle cx="77.79661016949153" cy="336.1780445164591" r="4" fill="#3b82f6" stroke="#0d1117" stroke-width="2" class="data-point"/>
  
    <circle cx="83.72881355932203" cy="333.37689749275114" r="4" fill="#3b82f6" stroke="#0d1117" stroke-width="2" class="data-point"/>
  
    <circle cx="89.66101694915254" cy="330.48460685655806" r="4" fill="#3b82f6" stroke="#0d1117" stroke-width="2" class="data-point"/>
  
    <circle cx="95.59322033898306" cy="328.2060165444312" r="4" fill="#3b82f6" stroke="#0d1117" stroke-width="2" class="data-point"/>
  
    <circle cx="101.52542372881356" cy="326.07933225311274" r="4" fill="#3b82f6" stroke="#0d1117" stroke-width="2" class="data-point"/>
  
    <circle cx="107.45762711864407" cy="324.1896213542555" r="4" fill="#3b82f6" stroke="#0d1117" stroke-width="2" class="data-point"/>
  
    <circle cx="113.38983050847457" cy="321.97179345045197" r="4" fill="#3b82f6" stroke="#0d1117" stroke-width="2" class="data-point"/>
  
    <circle cx="119.32203389830508" cy="319.49876343169024" r="4" fill="#3b82f6" stroke="#0d1117" stroke-width="2" class="data-point"/>
  
    <circle cx="125.2542372881356" cy="316.84952242879075" r="4" fill="#3b82f6" stroke="#0d1117" stroke-width="2" class="data-point"/>
  
    <circle cx="131.18644067796612" cy="314.44333105918474" r="4" fill="#3b82f6" stroke="#0d1117" stroke-width="2" class="data-point"/>
  
    <circle cx="137.1186440677966" cy="311.88523366877024" r="4" fill="#3b82f6" stroke="#0d1117" stroke-width="2" class="data-point"/>
  
    <circle cx="143.05084745762713" cy="310.0198277332424" r="4" fill="#3b82f6" stroke="#0d1117" stroke-width="2" class="data-point"/>
  
    <circle cx="148.9830508474576" cy="308.08758314855874" r="4" fill="#3b82f6" stroke="#0d1117" stroke-width="2" class="data-point"/>
  
    <circle cx="154.91525423728814" cy="305.46264710898856" r="4" fill="#3b82f6" stroke="#0d1117" stroke-width="2" class="data-point"/>
  
    <circle cx="160.84745762711864" cy="303.7066135084428" r="4" fill="#3b82f6" stroke="#0d1117" stroke-width="2" class="data-point"/>
  
    <circle cx="166.77966101694915" cy="301.2761171755074" r="4" fill="#3b82f6" stroke="#0d1117" stroke-width="2" class="data-point"/>
  
    <circle cx="172.71186440677965" cy="298.4688939109671" r="4" fill="#3b82f6" stroke="#0d1117" stroke-width="2" class="data-point"/>
  
    <circle cx="178.64406779661016" cy="296.3543621013133" r="4" fill="#3b82f6" stroke="#0d1117" stroke-width="2" class="data-point"/>
  
    <circle cx="184.5762711864407" cy="294.6165572232645" r="4" fill="#3b82f6" stroke="#0d1117" stroke-width="2" class="data-point"/>
  
    <circle cx="190.5084745762712" cy="293.49245266928193" r="4" fill="#3b82f6" stroke="#0d1117" stroke-width="2" class="data-point"/>
  
    <circle cx="196.4406779661017" cy="292.5567115811018" r="4" fill="#3b82f6" stroke="#0d1117" stroke-width="2" class="data-point"/>
  
    <circle cx="202.3728813559322" cy="290.8249829438854" r="4" fill="#3b82f6" stroke="#0d1117" stroke-width="2" class="data-point"/>
  
    <circle cx="208.3050847457627" cy="289.59150605492067" r="4" fill="#3b82f6" stroke="#0d1117" stroke-width="2" class="data-point"/>
  
    <circle cx="214.23728813559322" cy="286.8875788845301" r="4" fill="#3b82f6" stroke="#0d1117" stroke-width="2" class="data-point"/>
  
    <circle cx="220.16949152542372" cy="285.82423673887087" r="4" fill="#3b82f6" stroke="#0d1117" stroke-width="2" class="data-point"/>
  
    <circle cx="226.10169491525423" cy="284.4510063107624" r="4" fill="#3b82f6" stroke="#0d1117" stroke-width="2" class="data-point"/>
  
    <circle cx="232.03389830508476" cy="282.6767439877196" r="4" fill="#3b82f6" stroke="#0d1117" stroke-width="2" class="data-point"/>
  
    <circle cx="237.96610169491524" cy="281.4614958212519" r="4" fill="#3b82f6" stroke="#0d1117" stroke-width="2" class="data-point"/>
  
    <circle cx="243.89830508474577" cy="280.2280189322872" r="4" fill="#3b82f6" stroke="#0d1117" stroke-width="2" class="data-point"/>
  
    <circle cx="249.83050847457628" cy="278.93377963499915" r="4" fill="#3b82f6" stroke="#0d1117" stroke-width="2" class="data-point"/>
  
    <circle cx="255.76271186440675" cy="278.03449599181306" r="4" fill="#3b82f6" stroke="#0d1117" stroke-width="2" class="data-point"/>
  
    <circle cx="261.6949152542373" cy="277.25673716527376" r="4" fill="#3b82f6" stroke="#0d1117" stroke-width="2" class="data-point"/>
  
    <circle cx="267.62711864406776" cy="276.0718702029678" r="4" fill="#3b82f6" stroke="#0d1117" stroke-width="2" class="data-point"/>
  
    <circle cx="273.5593220338983" cy="274.63180112570353" r="4" fill="#3b82f6" stroke="#0d1117" stroke-width="2" class="data-point"/>
  
    <circle cx="279.49152542372883" cy="273.30718062425376" r="4" fill="#3b82f6" stroke="#0d1117" stroke-width="2" class="data-point"/>
  
    <circle cx="285.4237288135593" cy="271.63013815452837" r="4" fill="#3b82f6" stroke="#0d1117" stroke-width="2" class="data-point"/>
  
    <circle cx="291.35593220338984" cy="269.80118966399453" r="4" fill="#3b82f6" stroke="#0d1117" stroke-width="2" class="data-point"/>
  
    <circle cx="297.2881355932203" cy="268.12414719426914" r="4" fill="#3b82f6" stroke="#0d1117" stroke-width="2" class="data-point"/>
  
    <circle cx="303.22033898305085" cy="266.10075899710046" r="4" fill="#3b82f6" stroke="#0d1117" stroke-width="2" class="data-point"/>
  
    <circle cx="309.1525423728814" cy="264.1138282449258" r="4" fill="#3b82f6" stroke="#0d1117" stroke-width="2" class="data-point"/>
  
    <circle cx="315.0847457627118" cy="262.12689749275114" r="4" fill="#3b82f6" stroke="#0d1117" stroke-width="2" class="data-point"/>
  
    <circle cx="321.0169491525424" cy="259.951603274774" r="4" fill="#3b82f6" stroke="#0d1117" stroke-width="2" class="data-point"/>
  
    <circle cx="326.9491525423729" cy="257.87352891011426" r="4" fill="#3b82f6" stroke="#0d1117" stroke-width="2" class="data-point"/>
  
    <circle cx="332.8813559322034" cy="255.49771874466995" r="4" fill="#3b82f6" stroke="#0d1117" stroke-width="2" class="data-point"/>
  
    <circle cx="338.8135593220339" cy="253.37711069418384" r="4" fill="#3b82f6" stroke="#0d1117" stroke-width="2" class="data-point"/>
  
    <circle cx="344.7457627118644" cy="251.58461964864404" r="4" fill="#3b82f6" stroke="#0d1117" stroke-width="2" class="data-point"/>
  
    <circle cx="350.6779661016949" cy="250.15062681221218" r="4" fill="#3b82f6" stroke="#0d1117" stroke-width="2" class="data-point"/>
  
    <circle cx="356.6101694915254" cy="248.1454673375405" r="4" fill="#3b82f6" stroke="#0d1117" stroke-width="2" class="data-point"/>
  
    <circle cx="362.54237288135596" cy="245.85472454374894" r="4" fill="#3b82f6" stroke="#0d1117" stroke-width="2" class="data-point"/>
  
    <circle cx="368.47457627118644" cy="243.7584214565922" r="4" fill="#3b82f6" stroke="#0d1117" stroke-width="2" class="data-point"/>
  
    <circle cx="374.40677966101697" cy="241.3096964011598" r="4" fill="#3b82f6" stroke="#0d1117" stroke-width="2" class="data-point"/>
  
    <circle cx="380.33898305084745" cy="238.28980470748763" r="4" fill="#3b82f6" stroke="#0d1117" stroke-width="2" class="data-point"/>
  
    <circle cx="386.271186440678" cy="236.04159559952242" r="4" fill="#3b82f6" stroke="#0d1117" stroke-width="2" class="data-point"/>
  
    <circle cx="392.20338983050846" cy="234.17618966399453" r="4" fill="#3b82f6" stroke="#0d1117" stroke-width="2" class="data-point"/>
  
    <circle cx="398.135593220339" cy="232.40192734095172" r="4" fill="#3b82f6" stroke="#0d1117" stroke-width="2" class="data-point"/>
  
    <circle cx="404.0677966101695" cy="230.26916680880095" r="4" fill="#3b82f6" stroke="#0d1117" stroke-width="2" class="data-point"/>
  
    <circle cx="410" cy="227.79006054920688" r="4" fill="#3b82f6" stroke="#0d1117" stroke-width="2" class="data-point"/>
  
    <circle cx="415.9322033898305" cy="225.04359969298991" r="4" fill="#3b82f6" stroke="#0d1117" stroke-width="2" class="data-point"/>
  
    <circle cx="421.864406779661" cy="222.15738529762922" r="4" fill="#3b82f6" stroke="#0d1117" stroke-width="2" class="data-point"/>
  
    <circle cx="427.79661016949154" cy="219.38661947808288" r="4" fill="#3b82f6" stroke="#0d1117" stroke-width="2" class="data-point"/>
  
    <circle cx="433.728813559322" cy="216.9500469043152" r="4" fill="#3b82f6" stroke="#0d1117" stroke-width="2" class="data-point"/>
  
    <circle cx="439.66101694915255" cy="214.5317030530445" r="4" fill="#3b82f6" stroke="#0d1117" stroke-width="2" class="data-point"/>
  
    <circle cx="445.59322033898303" cy="212.39894252089374" r="4" fill="#3b82f6" stroke="#0d1117" stroke-width="2" class="data-point"/>
  
    <circle cx="451.5254237288135" cy="210.2236483029166" r="4" fill="#3b82f6" stroke="#0d1117" stroke-width="2" class="data-point"/>
  
    <circle cx="457.4576271186441" cy="207.79315196998124" r="4" fill="#3b82f6" stroke="#0d1117" stroke-width="2" class="data-point"/>
  
    <circle cx="463.3898305084746" cy="204.76718403547673" r="4" fill="#3b82f6" stroke="#0d1117" stroke-width="2" class="data-point"/>
  
    <circle cx="469.3220338983051" cy="202.5128986866792" r="4" fill="#3b82f6" stroke="#0d1117" stroke-width="2" class="data-point"/>
  
    <circle cx="475.2542372881356" cy="200.49558673034284" r="4" fill="#3b82f6" stroke="#0d1117" stroke-width="2" class="data-point"/>
  
    <circle cx="481.18644067796606" cy="198.25345386320996" r="4" fill="#3b82f6" stroke="#0d1117" stroke-width="2" class="data-point"/>
  
    <circle cx="487.11864406779665" cy="196.16322701688554" r="4" fill="#3b82f6" stroke="#0d1117" stroke-width="2" class="data-point"/>
  
    <circle cx="493.0508474576271" cy="193.86640798226165" r="4" fill="#3b82f6" stroke="#0d1117" stroke-width="2" class="data-point"/>
  
    <circle cx="498.9830508474576" cy="191.4723690943203" r="4" fill="#3b82f6" stroke="#0d1117" stroke-width="2" class="data-point"/>
  
    <circle cx="504.91525423728814" cy="188.9689578713969" r="4" fill="#3b82f6" stroke="#0d1117" stroke-width="2" class="data-point"/>
  
    <circle cx="510.8474576271186" cy="186.77543493092276" r="4" fill="#3b82f6" stroke="#0d1117" stroke-width="2" class="data-point"/>
  
    <circle cx="516.7796610169491" cy="184.89787651373015" r="4" fill="#3b82f6" stroke="#0d1117" stroke-width="2" class="data-point"/>
  
    <circle cx="522.7118644067797" cy="182.83803087156747" r="4" fill="#3b82f6" stroke="#0d1117" stroke-width="2" class="data-point"/>
  
    <circle cx="528.6440677966102" cy="180.60805048609927" r="4" fill="#3b82f6" stroke="#0d1117" stroke-width="2" class="data-point"/>
  
    <circle cx="534.5762711864406" cy="178.5421286031042" r="4" fill="#3b82f6" stroke="#0d1117" stroke-width="2" class="data-point"/>
  
    <circle cx="540.5084745762712" cy="175.8503539143783" r="4" fill="#3b82f6" stroke="#0d1117" stroke-width="2" class="data-point"/>
  
    <circle cx="546.4406779661017" cy="173.53530615725737" r="4" fill="#3b82f6" stroke="#0d1117" stroke-width="2" class="data-point"/>
  
    <circle cx="552.3728813559322" cy="171.30532577178917" r="4" fill="#3b82f6" stroke="#0d1117" stroke-width="2" class="data-point"/>
  
    <circle cx="558.3050847457628" cy="169.45207231792597" r="4" fill="#3b82f6" stroke="#0d1117" stroke-width="2" class="data-point"/>
  
    <circle cx="564.2372881355932" cy="167.6535050315538" r="4" fill="#3b82f6" stroke="#0d1117" stroke-width="2" class="data-point"/>
  
    <circle cx="570.1694915254236" cy="165.84886150434932" r="4" fill="#3b82f6" stroke="#0d1117" stroke-width="2" class="data-point"/>
  
    <circle cx="576.1016949152543" cy="163.69179600886918" r="4" fill="#3b82f6" stroke="#0d1117" stroke-width="2" class="data-point"/>
  
    <circle cx="582.0338983050848" cy="161.47396810506567" r="4" fill="#3b82f6" stroke="#0d1117" stroke-width="2" class="data-point"/>
  
    <circle cx="587.9661016949152" cy="158.78219341633977" r="4" fill="#3b82f6" stroke="#0d1117" stroke-width="2" class="data-point"/>
  
    <circle cx="593.8983050847457" cy="156.60082295753026" r="4" fill="#3b82f6" stroke="#0d1117" stroke-width="2" class="data-point"/>
  
    <circle cx="599.8305084745763" cy="154.82048439365514" r="4" fill="#3b82f6" stroke="#0d1117" stroke-width="2" class="data-point"/>
  
    <circle cx="605.7627118644068" cy="152.99153590312127" r="4" fill="#3b82f6" stroke="#0d1117" stroke-width="2" class="data-point"/>
  
    <circle cx="611.6949152542373" cy="151.2415785434078" r="4" fill="#3b82f6" stroke="#0d1117" stroke-width="2" class="data-point"/>
  
    <circle cx="617.6271186440678" cy="149.07843680709533" r="4" fill="#3b82f6" stroke="#0d1117" stroke-width="2" class="data-point"/>
  
    <circle cx="623.5593220338983" cy="146.86060890329185" r="4" fill="#3b82f6" stroke="#0d1117" stroke-width="2" class="data-point"/>
  
    <circle cx="629.4915254237288" cy="141.95708255159474" r="4" fill="#3b82f6" stroke="#0d1117" stroke-width="2" class="data-point"/>
  
    <circle cx="635.4237288135594" cy="132.19863977485926" r="4" fill="#3b82f6" stroke="#0d1117" stroke-width="2" class="data-point"/>
  
    <circle cx="641.3559322033898" cy="120.57479106259595" r="4" fill="#3b82f6" stroke="#0d1117" stroke-width="2" class="data-point"/>
  
    <circle cx="647.2881355932203" cy="109.98390329183013" r="4" fill="#3b82f6" stroke="#0d1117" stroke-width="2" class="data-point"/>
  
    <circle cx="653.2203389830509" cy="104.61250639604299" r="4" fill="#3b82f6" stroke="#0d1117" stroke-width="2" class="data-point"/>
  
    <circle cx="659.1525423728814" cy="96.51895360736822" r="4" fill="#3b82f6" stroke="#0d1117" stroke-width="2" class="data-point"/>
  
    <circle cx="665.0847457627119" cy="91.14148047074875" r="4" fill="#3b82f6" stroke="#0d1117" stroke-width="2" class="data-point"/>
  
    <circle cx="671.0169491525423" cy="86.42631758485416" r="4" fill="#3b82f6" stroke="#0d1117" stroke-width="2" class="data-point"/>
  
    <circle cx="676.9491525423729" cy="81.8144507931093" r="4" fill="#3b82f6" stroke="#0d1117" stroke-width="2" class="data-point"/>
  
    <circle cx="682.8813559322034" cy="77.46993859798738" r="4" fill="#3b82f6" stroke="#0d1117" stroke-width="2" class="data-point"/>
  
    <circle cx="688.8135593220339" cy="70.71315879242707" r="4" fill="#3b82f6" stroke="#0d1117" stroke-width="2" class="data-point"/>
  
    <circle cx="694.7457627118645" cy="65.34176189663998" r="4" fill="#3b82f6" stroke="#0d1117" stroke-width="2" class="data-point"/>
  
    <circle cx="700.6779661016949" cy="58.47560975609758" r="4" fill="#3b82f6" stroke="#0d1117" stroke-width="2" class="data-point"/>
  
    <circle cx="706.6101694915254" cy="57.07199812382737" r="4" fill="#3b82f6" stroke="#0d1117" stroke-width="2" class="data-point"/>
  
    <circle cx="712.542372881356" cy="56.88971089885723" r="4" fill="#3b82f6" stroke="#0d1117" stroke-width="2" class="data-point"/>
  
    <circle cx="718.4745762711865" cy="56.65273750639602" r="4" fill="#3b82f6" stroke="#0d1117" stroke-width="2" class="data-point"/>
  
    <circle cx="724.4067796610169" cy="56.4522215589289" r="4" fill="#3b82f6" stroke="#0d1117" stroke-width="2" class="data-point"/>
  
    <circle cx="730.3389830508474" cy="56.19094320313832" r="4" fill="#3b82f6" stroke="#0d1117" stroke-width="2" class="data-point"/>
  
    <circle cx="736.271186440678" cy="55.960046051509494" r="4" fill="#3b82f6" stroke="#0d1117" stroke-width="2" class="data-point"/>
  
    <circle cx="742.2033898305084" cy="55.868902439024396" r="4" fill="#3b82f6" stroke="#0d1117" stroke-width="2" class="data-point"/>
  
    <circle cx="748.135593220339" cy="55.53470919324582" r="4" fill="#3b82f6" stroke="#0d1117" stroke-width="2" class="data-point"/>
  
    <circle cx="754.0677966101695" cy="55.21266842913184" r="4" fill="#3b82f6" stroke="#0d1117" stroke-width="2" class="data-point"/>
  
    <circle cx="760" cy="55" r="4" fill="#3b82f6" stroke="#0d1117" stroke-width="2" class="data-point"/>
  

  <!-- Axis lines -->
  <line x1="60" y1="55" x2="60" y2="340"
        stroke="#30363d" stroke-width="2"/>
  <line x1="60" y1="340" x2="760" y2="340"
        stroke="#30363d" stroke-width="2"/>
</svg>