<?xml version="1.0" encoding="UTF-8"?>
<svg width="800" height="400" xmlns="http://www.w3.org/2000/svg">
  <defs>
    <!-- Gradient for area fill -->
    <linearGradient id="areaGradient" x1="0%" y1="0%" x2="0%" y2="100%">
      <stop offset="0%" style="stop-color:#3b82f6;stop-opacity:0.3" />
      <stop offset="100%" style="stop-color:#3b82f6;stop-opacity:0.05" />
    </linearGradient>

    <!-- Glow filter for line -->
    <filter id="glow">
      <feGaussianBlur stdDeviation="2" result="coloredBlur"/>
      <feMerge>
        <feMergeNode in="coloredBlur"/>
        <feMergeNode in="SourceGraphic"/>
      </feMerge>
    </filter>

    <!-- Animation -->
    <style>
      @keyframes draw {
        from { stroke-dashoffset: 2000; }
        to { stroke-dashoffset: 0; }
      }
      @keyframes fadeIn {
        from { opacity: 0; }
        to { opacity: 1; }
      }
      .line-path {
        stroke-dasharray: 2000;
        stroke-dashoffset: 2000;
        animation: draw 1.5s ease-out forwards;
      }
      .area-path {
        opacity: 0;
        animation: fadeIn 1s ease-out 0.5s forwards;
      }
      .data-point {
        opacity: 0;
        animation: fadeIn 0.5s ease-out 1s forwards;
      }
    </style>
  </defs>

  <!-- Background -->
  <rect width="800" height="400" fill="#0d1117" rx="8"/>

  <!-- Title -->
  <text x="400" y="25" text-anchor="middle" fill="#c9d1d9" font-family="system-ui, -apple-system, sans-serif" font-size="16" font-weight="600">
    zxcloli666/SoundCloud-Desktop Downloads
  </text>

  <!-- Stats -->
  <text x="780" y="25" text-anchor="end" fill="#58a6ff" font-family="system-ui, -apple-system, sans-serif" font-size="14" font-weight="600">
    199.5K total
  </text>
  <text x="780" y="42" text-anchor="end" fill="#3fb950" font-family="system-ui, -apple-system, sans-serif" font-size="12">
    +3.1K (+1.6%)
  </text>

  <!-- Grid lines -->
  <g opacity="0.1">
    
      <line x1="60" y1="340" x2="760" y2="340"
            stroke="#c9d1d9" stroke-width="1"/>
    
      <line x1="60" y1="268.75" x2="760" y2="268.75"
            stroke="#c9d1d9" stroke-width="1"/>
    
      <line x1="60" y1="197.5" x2="760" y2="197.5"
            stroke="#c9d1d9" stroke-width="1"/>
    
      <line x1="60" y1="126.25" x2="760" y2="126.25"
            stroke="#c9d1d9" stroke-width="1"/>
    
      <line x1="60" y1="55" x2="760" y2="55"
            stroke="#c9d1d9" stroke-width="1"/>
    
  </g>

  <!-- Y-axis labels -->
  
    <text x="50" y="344" text-anchor="end"
          fill="#8b949e" font-family="system-ui, -apple-system, sans-serif" font-size="11">
      60.2K
    </text>
  
    <text x="50" y="272.75" text-anchor="end"
          fill="#8b949e" font-family="system-ui, -apple-system, sans-serif" font-size="11">
      95.0K
    </text>
  
    <text x="50" y="201.5" text-anchor="end"
          fill="#8b949e" font-family="system-ui, -apple-system, sans-serif" font-size="11">
      129.8K
    </text>
  
    <text x="50" y="130.25" text-anchor="end"
          fill="#8b949e" font-family="system-ui, -apple-system, sans-serif" font-size="11">
      164.6K
    </text>
  
    <text x="50" y="59" text-anchor="end"
          fill="#8b949e" font-family="system-ui, -apple-system, sans-serif" font-size="11">
      199.5K
    </text>
  

  <!-- X-axis labels -->
  
    <text x="60" y="360" text-anchor="middle"
          fill="#8b949e" font-family="system-ui, -apple-system, sans-serif" font-size="11">
      Nov 25
    </text>
  
    <text x="145.88957055214723" y="360" text-anchor="middle"
          fill="#8b949e" font-family="system-ui, -apple-system, sans-serif" font-size="11">
      Dec 15
    </text>
  
    <text x="231.77914110429447" y="360" text-anchor="middle"
          fill="#8b949e" font-family="system-ui, -apple-system, sans-serif" font-size="11">
      Jan 4
    </text>
  
    <text x="317.6687116564417" y="360" text-anchor="middle"
          fill="#8b949e" font-family="system-ui, -apple-system, sans-serif" font-size="11">
      Jan 24
    </text>
  
    <text x="403.55828220858893" y="360" text-anchor="middle"
          fill="#8b949e" font-family="system-ui, -apple-system, sans-serif" font-size="11">
      Feb 13
    </text>
  
    <text x="489.4478527607362" y="360" text-anchor="middle"
          fill="#8b949e" font-family="system-ui, -apple-system, sans-serif" font-size="11">
      Mar 5
    </text>
  
    <text x="575.3374233128834" y="360" text-anchor="middle"
          fill="#8b949e" font-family="system-ui, -apple-system, sans-serif" font-size="11">
      Mar 25
    </text>
  
    <text x="661.2269938650307" y="360" text-anchor="middle"
          fill="#8b949e" font-family="system-ui, -apple-system, sans-serif" font-size="11">
      Apr 14
    </text>
  
    <text x="747.1165644171779" y="360" text-anchor="middle"
          fill="#8b949e" font-family="system-ui, -apple-system, sans-serif" font-size="11">
      May 4
    </text>
  
    <text x="760" y="360" text-anchor="middle"
          fill="#8b949e" font-family="system-ui, -apple-system, sans-serif" font-size="11">
      May 7
    </text>
  

  <!-- Area under line -->
  <path d="M 60 340
    L 60.00 340.00 L 64.29 339.70 L 68.59 339.19 L 72.88 338.71 L 77.18 337.77 L 81.47 336.80 L 85.77 336.03 L 90.06 335.31 L 94.36 334.68 L 98.65 333.93 L 102.94 333.10 L 107.24 332.21 L 111.53 331.40 L 115.83 330.53 L 120.12 329.91 L 124.42 329.26 L 128.71 328.37 L 133.01 327.78 L 137.30 326.96 L 141.60 326.02 L 145.89 325.31 L 150.18 324.72 L 154.48 324.34 L 158.77 324.03 L 163.07 323.44 L 167.36 323.03 L 171.66 322.12 L 175.95 321.76 L 180.25 321.30 L 184.54 320.70 L 188.83 320.29 L 193.13 319.88 L 197.42 319.44 L 201.72 319.14 L 206.01 318.88 L 210.31 318.48 L 214.60 317.99 L 218.90 317.55 L 223.19 316.98 L 227.48 316.37 L 231.78 315.80 L 236.07 315.12 L 240.37 314.45 L 244.66 313.78 L 248.96 313.05 L 253.25 312.35 L 257.55 311.55 L 261.84 310.84 L 266.13 310.23 L 270.43 309.75 L 274.72 309.07 L 279.02 308.30 L 283.31 307.60 L 287.61 306.77 L 291.90 305.76 L 296.20 305.00 L 300.49 304.37 L 304.79 303.77 L 309.08 303.06 L 313.37 302.22 L 317.67 301.30 L 321.96 300.32 L 326.26 299.39 L 330.55 298.57 L 334.85 297.76 L 339.14 297.04 L 343.44 296.31 L 347.73 295.49 L 352.02 294.47 L 356.32 293.71 L 360.61 293.03 L 364.91 292.28 L 369.20 291.57 L 373.50 290.80 L 377.79 289.99 L 382.09 289.15 L 386.38 288.41 L 390.67 287.78 L 394.97 287.09 L 399.26 286.34 L 403.56 285.64 L 407.85 284.73 L 412.15 283.95 L 416.44 283.20 L 420.74 282.58 L 425.03 281.97 L 429.33 281.37 L 433.62 280.64 L 437.91 279.89 L 442.21 278.99 L 446.50 278.25 L 450.80 277.65 L 455.09 277.04 L 459.39 276.45 L 463.68 275.72 L 467.98 274.97 L 472.27 273.32 L 476.56 270.04 L 480.86 266.12 L 485.15 262.56 L 489.45 260.75 L 493.74 258.03 L 498.04 256.21 L 502.33 254.63 L 506.63 253.07 L 510.92 251.61 L 515.21 249.34 L 519.51 247.53 L 523.80 245.22 L 528.10 244.74 L 532.39 244.68 L 536.69 244.60 L 540.98 244.54 L 545.28 244.45 L 549.57 244.37 L 553.87 244.34 L 558.16 244.23 L 562.45 244.12 L 566.75 244.05 L 571.04 244.02 L 575.34 243.90 L 579.63 240.93 L 583.93 236.29 L 588.22 233.18 L 592.52 229.56 L 596.81 225.84 L 601.10 222.92 L 605.40 219.65 L 609.69 214.67 L 613.99 207.97 L 618.28 203.59 L 622.58 198.38 L 626.87 192.57 L 631.17 187.92 L 635.46 182.86 L 639.75 178.38 L 644.05 173.94 L 648.34 169.51 L 652.64 163.48 L 656.93 157.43 L 661.23 152.39 L 665.52 148.16 L 669.82 144.06 L 674.11 138.62 L 678.40 134.40 L 682.70 130.22 L 686.99 126.32 L 691.29 122.64 L 695.58 118.87 L 699.88 115.65 L 704.17 112.31 L 708.47 108.91 L 712.76 105.31 L 717.06 102.00 L 721.35 98.98 L 725.64 93.49 L 729.94 88.91 L 734.23 84.50 L 738.53 80.27 L 742.82 73.58 L 747.12 69.35 L 751.41 65.70 L 755.71 61.37 L 760.00 55.00
    L 760 340
    Z" fill="url(#areaGradient)" class="area-path"/>

  <!-- Main line with glow -->
  <path d="M 60.00 340.00 L 64.29 339.70 L 68.59 339.19 L 72.88 338.71 L 77.18 337.77 L 81.47 336.80 L 85.77 336.03 L 90.06 335.31 L 94.36 334.68 L 98.65 333.93 L 102.94 333.10 L 107.24 332.21 L 111.53 331.40 L 115.83 330.53 L 120.12 329.91 L 124.42 329.26 L 128.71 328.37 L 133.01 327.78 L 137.30 326.96 L 141.60 326.02 L 145.89 325.31 L 150.18 324.72 L 154.48 324.34 L 158.77 324.03 L 163.07 323.44 L 167.36 323.03 L 171.66 322.12 L 175.95 321.76 L 180.25 321.30 L 184.54 320.70 L 188.83 320.29 L 193.13 319.88 L 197.42 319.44 L 201.72 319.14 L 206.01 318.88 L 210.31 318.48 L 214.60 317.99 L 218.90 317.55 L 223.19 316.98 L 227.48 316.37 L 231.78 315.80 L 236.07 315.12 L 240.37 314.45 L 244.66 313.78 L 248.96 313.05 L 253.25 312.35 L 257.55 311.55 L 261.84 310.84 L 266.13 310.23 L 270.43 309.75 L 274.72 309.07 L 279.02 308.30 L 283.31 307.60 L 287.61 306.77 L 291.90 305.76 L 296.20 305.00 L 300.49 304.37 L 304.79 303.77 L 309.08 303.06 L 313.37 302.22 L 317.67 301.30 L 321.96 300.32 L 326.26 299.39 L 330.55 298.57 L 334.85 297.76 L 339.14 297.04 L 343.44 296.31 L 347.73 295.49 L 352.02 294.47 L 356.32 293.71 L 360.61 293.03 L 364.91 292.28 L 369.20 291.57 L 373.50 290.80 L 377.79 289.99 L 382.09 289.15 L 386.38 288.41 L 390.67 287.78 L 394.97 287.09 L 399.26 286.34 L 403.56 285.64 L 407.85 284.73 L 412.15 283.95 L 416.44 283.20 L 420.74 282.58 L 425.03 281.97 L 429.33 281.37 L 433.62 280.64 L 437.91 279.89 L 442.21 278.99 L 446.50 278.25 L 450.80 277.65 L 455.09 277.04 L 459.39 276.45 L 463.68 275.72 L 467.98 274.97 L 472.27 273.32 L 476.56 270.04 L 480.86 266.12 L 485.15 262.56 L 489.45 260.75 L 493.74 258.03 L 498.04 256.21 L 502.33 254.63 L 506.63 253.07 L 510.92 251.61 L 515.21 249.34 L 519.51 247.53 L 523.80 245.22 L 528.10 244.74 L 532.39 244.68 L 536.69 244.60 L 540.98 244.54 L 545.28 244.45 L 549.57 244.37 L 553.87 244.34 L 558.16 244.23 L 562.45 244.12 L 566.75 244.05 L 571.04 244.02 L 575.34 243.90 L 579.63 240.93 L 583.93 236.29 L 588.22 233.18 L 592.52 229.56 L 596.81 225.84 L 601.10 222.92 L 605.40 219.65 L 609.69 214.67 L 613.99 207.97 L 618.28 203.59 L 622.58 198.38 L 626.87 192.57 L 631.17 187.92 L 635.46 182.86 L 639.75 178.38 L 644.05 173.94 L 648.34 169.51 L 652.64 163.48 L 656.93 157.43 L 661.23 152.39 L 665.52 148.16 L 669.82 144.06 L 674.11 138.62 L 678.40 134.40 L 682.70 130.22 L 686.99 126.32 L 691.29 122.64 L 695.58 118.87 L 699.88 115.65 L 704.17 112.31 L 708.47 108.91 L 712.76 105.31 L 717.06 102.00 L 721.35 98.98 L 725.64 93.49 L 729.94 88.91 L 734.23 84.50 L 738.53 80.27 L 742.82 73.58 L 747.12 69.35 L 751.41 65.70 L 755.71 61.37 L 760.00 55.00" fill="none" stroke="#3b82f6" stroke-width="3"
        stroke-linecap="round" stroke-linejoin="round" filter="url(#glow)" class="line-path"/>

  <!-- Data points -->
  
    <circle cx="60" cy="340" r="4" fill="#3b82f6" stroke="#0d1117" stroke-width="2" class="data-point"/>
  
    <circle cx="64.29447852760737" cy="339.6992764546277" r="4" fill="#3b82f6" stroke="#0d1117" stroke-width="2" class="data-point"/>
  
    <circle cx="68.58895705521472" cy="339.18784185365433" r="4" fill="#3b82f6" stroke="#0d1117" stroke-width="2" class="data-point"/>
  
    <circle cx="72.88343558282209" cy="338.71323054395106" r="4" fill="#3b82f6" stroke="#0d1117" stroke-width="2" class="data-point"/>
  
    <circle cx="77.17791411042944" cy="337.7701451397562" r="4" fill="#3b82f6" stroke="#0d1117" stroke-width="2" class="data-point"/>
  
    <circle cx="81.47239263803681" cy="336.796373659503" r="4" fill="#3b82f6" stroke="#0d1117" stroke-width="2" class="data-point"/>
  
    <circle cx="85.76687116564418" cy="336.029221758043" r="4" fill="#3b82f6" stroke="#0d1117" stroke-width="2" class="data-point"/>
  
    <circle cx="90.06134969325154" cy="335.31321331668033" r="4" fill="#3b82f6" stroke="#0d1117" stroke-width="2" class="data-point"/>
  
    <circle cx="94.3558282208589" cy="334.67698867306945" r="4" fill="#3b82f6" stroke="#0d1117" stroke-width="2" class="data-point"/>
  
    <circle cx="98.65030674846625" cy="333.93029415564837" r="4" fill="#3b82f6" stroke="#0d1117" stroke-width="2" class="data-point"/>
  
    <circle cx="102.94478527607362" cy="333.09767862526377" r="4" fill="#3b82f6" stroke="#0d1117" stroke-width="2" class="data-point"/>
  
    <circle cx="107.23926380368098" cy="332.2057366811663" r="4" fill="#3b82f6" stroke="#0d1117" stroke-width="2" class="data-point"/>
  
    <circle cx="111.53374233128835" cy="331.39562427322454" r="4" fill="#3b82f6" stroke="#0d1117" stroke-width="2" class="data-point"/>
  
    <circle cx="115.8282208588957" cy="330.53436840518543" r="4" fill="#3b82f6" stroke="#0d1117" stroke-width="2" class="data-point"/>
  
    <circle cx="120.12269938650307" cy="329.9063267151901" r="4" fill="#3b82f6" stroke="#0d1117" stroke-width="2" class="data-point"/>
  
    <circle cx="124.41717791411043" cy="329.25578190275206" r="4" fill="#3b82f6" stroke="#0d1117" stroke-width="2" class="data-point"/>
  
    <circle cx="128.7116564417178" cy="328.3720229122701" r="4" fill="#3b82f6" stroke="#0d1117" stroke-width="2" class="data-point"/>
  
    <circle cx="133.00613496932516" cy="327.7808045135449" r="4" fill="#3b82f6" stroke="#0d1117" stroke-width="2" class="data-point"/>
  
    <circle cx="137.3006134969325" cy="326.9625091519876" r="4" fill="#3b82f6" stroke="#0d1117" stroke-width="2" class="data-point"/>
  
    <circle cx="141.59509202453987" cy="326.01737800938884" r="4" fill="#3b82f6" stroke="#0d1117" stroke-width="2" class="data-point"/>
  
    <circle cx="145.88957055214723" cy="325.305461044834" r="4" fill="#3b82f6" stroke="#0d1117" stroke-width="2" class="data-point"/>
  
    <circle cx="150.1840490797546" cy="324.72037986132045" r="4" fill="#3b82f6" stroke="#0d1117" stroke-width="2" class="data-point"/>
  
    <circle cx="154.47852760736197" cy="324.3419182566002" r="4" fill="#3b82f6" stroke="#0d1117" stroke-width="2" class="data-point"/>
  
    <circle cx="158.7730061349693" cy="324.0268745424006" r="4" fill="#3b82f6" stroke="#0d1117" stroke-width="2" class="data-point"/>
  
    <circle cx="163.0674846625767" cy="323.443839097291" r="4" fill="#3b82f6" stroke="#0d1117" stroke-width="2" class="data-point"/>
  
    <circle cx="167.36196319018404" cy="323.02855420130066" r="4" fill="#3b82f6" stroke="#0d1117" stroke-width="2" class="data-point"/>
  
    <circle cx="171.6564417177914" cy="322.1182006115681" r="4" fill="#3b82f6" stroke="#0d1117" stroke-width="2" class="data-point"/>
  
    <circle cx="175.95092024539878" cy="321.7601963908868" r="4" fill="#3b82f6" stroke="#0d1117" stroke-width="2" class="data-point"/>
  
    <circle cx="180.24539877300614" cy="321.2978595116069" r="4" fill="#3b82f6" stroke="#0d1117" stroke-width="2" class="data-point"/>
  
    <circle cx="184.5398773006135" cy="320.70050389767" r="4" fill="#3b82f6" stroke="#0d1117" stroke-width="2" class="data-point"/>
  
    <circle cx="188.83435582822085" cy="320.29135621689136" r="4" fill="#3b82f6" stroke="#0d1117" stroke-width="2" class="data-point"/>
  
    <circle cx="193.12883435582822" cy="319.87607132090096" r="4" fill="#3b82f6" stroke="#0d1117" stroke-width="2" class="data-point"/>
  
    <circle cx="197.42331288343559" cy="319.4403290408717" r="4" fill="#3b82f6" stroke="#0d1117" stroke-width="2" class="data-point"/>
  
    <circle cx="201.71779141104295" cy="319.13755975709546" r="4" fill="#3b82f6" stroke="#0d1117" stroke-width="2" class="data-point"/>
  
    <circle cx="206.0122699386503" cy="318.87570524139716" r="4" fill="#3b82f6" stroke="#0d1117" stroke-width="2" class="data-point"/>
  
    <circle cx="210.3067484662577" cy="318.4767862526379" r="4" fill="#3b82f6" stroke="#0d1117" stroke-width="2" class="data-point"/>
  
    <circle cx="214.60122699386503" cy="317.9919462509152" r="4" fill="#3b82f6" stroke="#0d1117" stroke-width="2" class="data-point"/>
  
    <circle cx="218.8957055214724" cy="317.5459752788664" r="4" fill="#3b82f6" stroke="#0d1117" stroke-width="2" class="data-point"/>
  
    <circle cx="223.19018404907973" cy="316.9813514793919" r="4" fill="#3b82f6" stroke="#0d1117" stroke-width="2" class="data-point"/>
  
    <circle cx="227.48466257668713" cy="316.36558421982" r="4" fill="#3b82f6" stroke="#0d1117" stroke-width="2" class="data-point"/>
  
    <circle cx="231.77914110429447" cy="315.8009604203454" r="4" fill="#3b82f6" stroke="#0d1117" stroke-width="2" class="data-point"/>
  
    <circle cx="236.07361963190183" cy="315.1197295318489" r="4" fill="#3b82f6" stroke="#0d1117" stroke-width="2" class="data-point"/>
  
    <circle cx="240.3680981595092" cy="314.4507730737758" r="4" fill="#3b82f6" stroke="#0d1117" stroke-width="2" class="data-point"/>
  
    <circle cx="244.66257668711654" cy="313.78181661570267" r="4" fill="#3b82f6" stroke="#0d1117" stroke-width="2" class="data-point"/>
  
    <circle cx="248.95705521472394" cy="313.0494422671088" r="4" fill="#3b82f6" stroke="#0d1117" stroke-width="2" class="data-point"/>
  
    <circle cx="253.2515337423313" cy="312.3497997329773" r="4" fill="#3b82f6" stroke="#0d1117" stroke-width="2" class="data-point"/>
  
    <circle cx="257.5460122699386" cy="311.549916017055" r="4" fill="#3b82f6" stroke="#0d1117" stroke-width="2" class="data-point"/>
  
    <circle cx="261.840490797546" cy="310.83595331409623" r="4" fill="#3b82f6" stroke="#0d1117" stroke-width="2" class="data-point"/>
  
    <circle cx="266.1349693251534" cy="310.2324604849477" r="4" fill="#3b82f6" stroke="#0d1117" stroke-width="2" class="data-point"/>
  
    <circle cx="270.42944785276075" cy="309.74966622162884" r="4" fill="#3b82f6" stroke="#0d1117" stroke-width="2" class="data-point"/>
  
    <circle cx="274.7239263803681" cy="309.074572548344" r="4" fill="#3b82f6" stroke="#0d1117" stroke-width="2" class="data-point"/>
  
    <circle cx="279.0184049079755" cy="308.3033291700762" r="4" fill="#3b82f6" stroke="#0d1117" stroke-width="2" class="data-point"/>
  
    <circle cx="283.3128834355828" cy="307.597549420733" r="4" fill="#3b82f6" stroke="#0d1117" stroke-width="2" class="data-point"/>
  
    <circle cx="287.6073619631902" cy="306.773116843964" r="4" fill="#3b82f6" stroke="#0d1117" stroke-width="2" class="data-point"/>
  
    <circle cx="291.90184049079755" cy="305.756384857229" r="4" fill="#3b82f6" stroke="#0d1117" stroke-width="2" class="data-point"/>
  
    <circle cx="296.1963190184049" cy="304.99946164778845" r="4" fill="#3b82f6" stroke="#0d1117" stroke-width="2" class="data-point"/>
  
    <circle cx="300.4907975460123" cy="304.3714199577932" r="4" fill="#3b82f6" stroke="#0d1117" stroke-width="2" class="data-point"/>
  
    <circle cx="304.7852760736196" cy="303.7740643438563" r="4" fill="#3b82f6" stroke="#0d1117" stroke-width="2" class="data-point"/>
  
    <circle cx="309.079754601227" cy="303.05601016408974" r="4" fill="#3b82f6" stroke="#0d1117" stroke-width="2" class="data-point"/>
  
    <circle cx="313.37423312883436" cy="302.2213488953013" r="4" fill="#3b82f6" stroke="#0d1117" stroke-width="2" class="data-point"/>
  
    <circle cx="317.6687116564417" cy="301.29667513674144" r="4" fill="#3b82f6" stroke="#0d1117" stroke-width="2" class="data-point"/>
  
    <circle cx="321.9631901840491" cy="300.3249493948921" r="4" fill="#3b82f6" stroke="#0d1117" stroke-width="2" class="data-point"/>
  
    <circle cx="326.25766871165644" cy="299.39209268271674" r="4" fill="#3b82f6" stroke="#0d1117" stroke-width="2" class="data-point"/>
  
    <circle cx="330.5521472392638" cy="298.5717515827555" r="4" fill="#3b82f6" stroke="#0d1117" stroke-width="2" class="data-point"/>
  
    <circle cx="334.84662576687117" cy="297.75754769800596" r="4" fill="#3b82f6" stroke="#0d1117" stroke-width="2" class="data-point"/>
  
    <circle cx="339.1411042944785" cy="297.0394935182394" r="4" fill="#3b82f6" stroke="#0d1117" stroke-width="2" class="data-point"/>
  
    <circle cx="343.4355828220859" cy="296.30711916964555" r="4" fill="#3b82f6" stroke="#0d1117" stroke-width="2" class="data-point"/>
  
    <circle cx="347.73006134969324" cy="295.4888238080882" r="4" fill="#3b82f6" stroke="#0d1117" stroke-width="2" class="data-point"/>
  
    <circle cx="352.0245398773006" cy="294.4700460829493" r="4" fill="#3b82f6" stroke="#0d1117" stroke-width="2" class="data-point"/>
  
    <circle cx="356.319018404908" cy="293.71107713510486" r="4" fill="#3b82f6" stroke="#0d1117" stroke-width="2" class="data-point"/>
  
    <circle cx="360.6134969325154" cy="293.0318919850123" r="4" fill="#3b82f6" stroke="#0d1117" stroke-width="2" class="data-point"/>
  
    <circle cx="364.9079754601227" cy="292.27701451397564" r="4" fill="#3b82f6" stroke="#0d1117" stroke-width="2" class="data-point"/>
  
    <circle cx="369.20245398773005" cy="291.5732805030363" r="4" fill="#3b82f6" stroke="#0d1117" stroke-width="2" class="data-point"/>
  
    <circle cx="373.49693251533745" cy="290.7999913863646" r="4" fill="#3b82f6" stroke="#0d1117" stroke-width="2" class="data-point"/>
  
    <circle cx="377.7914110429448" cy="289.9939704552306" r="4" fill="#3b82f6" stroke="#0d1117" stroke-width="2" class="data-point"/>
  
    <circle cx="382.0858895705521" cy="289.1511262328266" r="4" fill="#3b82f6" stroke="#0d1117" stroke-width="2" class="data-point"/>
  
    <circle cx="386.38036809815947" cy="288.4126146690211" r="4" fill="#3b82f6" stroke="#0d1117" stroke-width="2" class="data-point"/>
  
    <circle cx="390.67484662576686" cy="287.780481502218" r="4" fill="#3b82f6" stroke="#0d1117" stroke-width="2" class="data-point"/>
  
    <circle cx="394.96932515337426" cy="287.08697618329813" r="4" fill="#3b82f6" stroke="#0d1117" stroke-width="2" class="data-point"/>
  
    <circle cx="399.2638036809816" cy="286.33619018906927" r="4" fill="#3b82f6" stroke="#0d1117" stroke-width="2" class="data-point"/>
  
    <circle cx="403.55828220858893" cy="285.64063913174556" r="4" fill="#3b82f6" stroke="#0d1117" stroke-width="2" class="data-point"/>
  
    <circle cx="407.85276073619633" cy="284.7343770188208" r="4" fill="#3b82f6" stroke="#0d1117" stroke-width="2" class="data-point"/>
  
    <circle cx="412.14723926380367" cy="283.9549506869374" r="4" fill="#3b82f6" stroke="#0d1117" stroke-width="2" class="data-point"/>
  
    <circle cx="416.441717791411" cy="283.20416469270856" r="4" fill="#3b82f6" stroke="#0d1117" stroke-width="2" class="data-point"/>
  
    <circle cx="420.7361963190184" cy="282.5802144795211" r="4" fill="#3b82f6" stroke="#0d1117" stroke-width="2" class="data-point"/>
  
    <circle cx="425.03067484662574" cy="281.97467591196863" r="4" fill="#3b82f6" stroke="#0d1117" stroke-width="2" class="data-point"/>
  
    <circle cx="429.3251533742331" cy="281.3670916060123" r="4" fill="#3b82f6" stroke="#0d1117" stroke-width="2" class="data-point"/>
  
    <circle cx="433.61963190184053" cy="280.64085447263017" r="4" fill="#3b82f6" stroke="#0d1117" stroke-width="2" class="data-point"/>
  
    <circle cx="437.9141104294479" cy="279.8941599552091" r="4" fill="#3b82f6" stroke="#0d1117" stroke-width="2" class="data-point"/>
  
    <circle cx="442.2085889570552" cy="278.9878978422843" r="4" fill="#3b82f6" stroke="#0d1117" stroke-width="2" class="data-point"/>
  
    <circle cx="446.5030674846626" cy="278.2534777552866" r="4" fill="#3b82f6" stroke="#0d1117" stroke-width="2" class="data-point"/>
  
    <circle cx="450.79754601226995" cy="277.65407640294586" r="4" fill="#3b82f6" stroke="#0d1117" stroke-width="2" class="data-point"/>
  
    <circle cx="455.0920245398773" cy="277.03830914337397" r="4" fill="#3b82f6" stroke="#0d1117" stroke-width="2" class="data-point"/>
  
    <circle cx="459.3865030674847" cy="276.44913648305265" r="4" fill="#3b82f6" stroke="#0d1117" stroke-width="2" class="data-point"/>
  
    <circle cx="463.680981595092" cy="275.72085361126665" r="4" fill="#3b82f6" stroke="#0d1117" stroke-width="2" class="data-point"/>
  
    <circle cx="467.97546012269936" cy="274.97415909384557" r="4" fill="#3b82f6" stroke="#0d1117" stroke-width="2" class="data-point"/>
  
    <circle cx="472.26993865030676" cy="273.3232482019036" r="4" fill="#3b82f6" stroke="#0d1117" stroke-width="2" class="data-point"/>
  
    <circle cx="476.5644171779141" cy="270.03779232525085" r="4" fill="#3b82f6" stroke="#0d1117" stroke-width="2" class="data-point"/>
  
    <circle cx="480.85889570552143" cy="266.1242947586029" r="4" fill="#3b82f6" stroke="#0d1117" stroke-width="2" class="data-point"/>
  
    <circle cx="485.1533742331289" cy="262.5585727206167" r="4" fill="#3b82f6" stroke="#0d1117" stroke-width="2" class="data-point"/>
  
    <circle cx="489.4478527607362" cy="260.750139971575" r="4" fill="#3b82f6" stroke="#0d1117" stroke-width="2" class="data-point"/>
  
    <circle cx="493.74233128834356" cy="258.02521641758904" r="4" fill="#3b82f6" stroke="#0d1117" stroke-width="2" class="data-point"/>
  
    <circle cx="498.03680981595096" cy="256.21473793014343" r="4" fill="#3b82f6" stroke="#0d1117" stroke-width="2" class="data-point"/>
  
    <circle cx="502.3312883435583" cy="254.62724492872218" r="4" fill="#3b82f6" stroke="#0d1117" stroke-width="2" class="data-point"/>
  
    <circle cx="506.62576687116564" cy="253.0745294801671" r="4" fill="#3b82f6" stroke="#0d1117" stroke-width="2" class="data-point"/>
  
    <circle cx="510.920245398773" cy="251.61182652138336" r="4" fill="#3b82f6" stroke="#0d1117" stroke-width="2" class="data-point"/>
  
    <circle cx="515.2147239263804" cy="249.33696541625392" r="4" fill="#3b82f6" stroke="#0d1117" stroke-width="2" class="data-point"/>
  
    <circle cx="519.5092024539877" cy="247.5285326672122" r="4" fill="#3b82f6" stroke="#0d1117" stroke-width="2" class="data-point"/>
  
    <circle cx="523.8036809815951" cy="245.2168482708127" r="4" fill="#3b82f6" stroke="#0d1117" stroke-width="2" class="data-point"/>
  
    <circle cx="528.0981595092024" cy="244.74428269951335" r="4" fill="#3b82f6" stroke="#0d1117" stroke-width="2" class="data-point"/>
  
    <circle cx="532.3926380368098" cy="244.68291054739655" r="4" fill="#3b82f6" stroke="#0d1117" stroke-width="2" class="data-point"/>
  
    <circle cx="536.6871165644171" cy="244.60312674964467" r="4" fill="#3b82f6" stroke="#0d1117" stroke-width="2" class="data-point"/>
  
    <circle cx="540.9815950920246" cy="244.53561738231622" r="4" fill="#3b82f6" stroke="#0d1117" stroke-width="2" class="data-point"/>
  
    <circle cx="545.2760736196319" cy="244.4476506309488" r="4" fill="#3b82f6" stroke="#0d1117" stroke-width="2" class="data-point"/>
  
    <circle cx="549.5705521472393" cy="244.36991257160085" r="4" fill="#3b82f6" stroke="#0d1117" stroke-width="2" class="data-point"/>
  
    <circle cx="553.8650306748466" cy="244.33922649554245" r="4" fill="#3b82f6" stroke="#0d1117" stroke-width="2" class="data-point"/>
  
    <circle cx="558.159509202454" cy="244.2267108833283" r="4" fill="#3b82f6" stroke="#0d1117" stroke-width="2" class="data-point"/>
  
    <circle cx="562.4539877300613" cy="244.11828674792196" r="4" fill="#3b82f6" stroke="#0d1117" stroke-width="2" class="data-point"/>
  
    <circle cx="566.7484662576687" cy="244.04668590378571" r="4" fill="#3b82f6" stroke="#0d1117" stroke-width="2" class="data-point"/>
  
    <circle cx="571.0429447852761" cy="244.02009130453507" r="4" fill="#3b82f6" stroke="#0d1117" stroke-width="2" class="data-point"/>
  
    <circle cx="575.3374233128834" cy="243.89939273870536" r="4" fill="#3b82f6" stroke="#0d1117" stroke-width="2" class="data-point"/>
  
    <circle cx="579.6319018404909" cy="240.93307205306" r="4" fill="#3b82f6" stroke="#0d1117" stroke-width="2" class="data-point"/>
  
    <circle cx="583.9263803680982" cy="236.28720013781816" r="4" fill="#3b82f6" stroke="#0d1117" stroke-width="2" class="data-point"/>
  
    <circle cx="588.2208588957055" cy="233.17563202549638" r="4" fill="#3b82f6" stroke="#0d1117" stroke-width="2" class="data-point"/>
  
    <circle cx="592.5153374233129" cy="229.5628580042207" r="4" fill="#3b82f6" stroke="#0d1117" stroke-width="2" class="data-point"/>
  
    <circle cx="596.8098159509202" cy="225.83961410913474" r="4" fill="#3b82f6" stroke="#0d1117" stroke-width="2" class="data-point"/>
  
    <circle cx="601.1042944785275" cy="222.91829966837503" r="4" fill="#3b82f6" stroke="#0d1117" stroke-width="2" class="data-point"/>
  
    <circle cx="605.398773006135" cy="219.65125543735735" r="4" fill="#3b82f6" stroke="#0d1117" stroke-width="2" class="data-point"/>
  
    <circle cx="609.6932515337423" cy="214.67397390068479" r="4" fill="#3b82f6" stroke="#0d1117" stroke-width="2" class="data-point"/>
  
    <circle cx="613.9877300613497" cy="207.96599767431846" r="4" fill="#3b82f6" stroke="#0d1117" stroke-width="2" class="data-point"/>
  
    <circle cx="618.282208588957" cy="203.58811748998664" r="4" fill="#3b82f6" stroke="#0d1117" stroke-width="2" class="data-point"/>
  
    <circle cx="622.5766871165645" cy="198.37762177527026" r="4" fill="#3b82f6" stroke="#0d1117" stroke-width="2" class="data-point"/>
  
    <circle cx="626.8711656441718" cy="192.57181618502088" r="4" fill="#3b82f6" stroke="#0d1117" stroke-width="2" class="data-point"/>
  
    <circle cx="631.1656441717791" cy="187.91571557775958" r="4" fill="#3b82f6" stroke="#0d1117" stroke-width="2" class="data-point"/>
  
    <circle cx="635.4601226993865" cy="182.862741720143" r="4" fill="#3b82f6" stroke="#0d1117" stroke-width="2" class="data-point"/>
  
    <circle cx="639.7546012269938" cy="178.38052887721264" r="4" fill="#3b82f6" stroke="#0d1117" stroke-width="2" class="data-point"/>
  
    <circle cx="644.0490797546012" cy="173.93923080236013" r="4" fill="#3b82f6" stroke="#0d1117" stroke-width="2" class="data-point"/>
  
    <circle cx="648.3435582822086" cy="169.51020715793098" r="4" fill="#3b82f6" stroke="#0d1117" stroke-width="2" class="data-point"/>
  
    <circle cx="652.638036809816" cy="163.47937034325338" r="4" fill="#3b82f6" stroke="#0d1117" stroke-width="2" class="data-point"/>
  
    <circle cx="656.9325153374233" cy="157.43012188294068" r="4" fill="#3b82f6" stroke="#0d1117" stroke-width="2" class="data-point"/>
  
    <circle cx="661.2269938650307" cy="152.38737671734356" r="4" fill="#3b82f6" stroke="#0d1117" stroke-width="2" class="data-point"/>
  
    <circle cx="665.5214723926381" cy="148.16088117489986" r="4" fill="#3b82f6" stroke="#0d1117" stroke-width="2" class="data-point"/>
  
    <circle cx="669.8159509202454" cy="144.06122141349755" r="4" fill="#3b82f6" stroke="#0d1117" stroke-width="2" class="data-point"/>
  
    <circle cx="674.1104294478528" cy="138.61955725914123" r="4" fill="#3b82f6" stroke="#0d1117" stroke-width="2" class="data-point"/>
  
    <circle cx="678.4049079754601" cy="134.39919893190924" r="4" fill="#3b82f6" stroke="#0d1117" stroke-width="2" class="data-point"/>
  
    <circle cx="682.6993865030674" cy="130.22384684956288" r="4" fill="#3b82f6" stroke="#0d1117" stroke-width="2" class="data-point"/>
  
    <circle cx="686.9938650306749" cy="126.31853223653042" r="4" fill="#3b82f6" stroke="#0d1117" stroke-width="2" class="data-point"/>
  
    <circle cx="691.2883435582822" cy="122.64029458633016" r="4" fill="#3b82f6" stroke="#0d1117" stroke-width="2" class="data-point"/>
  
    <circle cx="695.5828220858896" cy="118.87204444635859" r="4" fill="#3b82f6" stroke="#0d1117" stroke-width="2" class="data-point"/>
  
    <circle cx="699.8773006134969" cy="115.65000646022656" r="4" fill="#3b82f6" stroke="#0d1117" stroke-width="2" class="data-point"/>
  
    <circle cx="704.1717791411043" cy="112.31340712347648" r="4" fill="#3b82f6" stroke="#0d1117" stroke-width="2" class="data-point"/>
  
    <circle cx="708.4662576687116" cy="108.90725268099402" r="4" fill="#3b82f6" stroke="#0d1117" stroke-width="2" class="data-point"/>
  
    <circle cx="712.7607361963189" cy="105.30675309014168" r="4" fill="#3b82f6" stroke="#0d1117" stroke-width="2" class="data-point"/>
  
    <circle cx="717.0552147239264" cy="102.00288556785392" r="4" fill="#3b82f6" stroke="#0d1117" stroke-width="2" class="data-point"/>
  
    <circle cx="721.3496932515337" cy="98.97723846849561" r="4" fill="#3b82f6" stroke="#0d1117" stroke-width="2" class="data-point"/>
  
    <circle cx="725.6441717791411" cy="93.4946595460614" r="4" fill="#3b82f6" stroke="#0d1117" stroke-width="2" class="data-point"/>
  
    <circle cx="729.9386503067485" cy="88.90606830612862" r="4" fill="#3b82f6" stroke="#0d1117" stroke-width="2" class="data-point"/>
  
    <circle cx="734.2331288343559" cy="84.4995477841423" r="4" fill="#3b82f6" stroke="#0d1117" stroke-width="2" class="data-point"/>
  
    <circle cx="738.5276073619632" cy="80.26691502648691" r="4" fill="#3b82f6" stroke="#0d1117" stroke-width="2" class="data-point"/>
  
    <circle cx="742.8220858895705" cy="73.58348766096731" r="4" fill="#3b82f6" stroke="#0d1117" stroke-width="2" class="data-point"/>
  
    <circle cx="747.1165644171779" cy="69.35494638011971" r="4" fill="#3b82f6" stroke="#0d1117" stroke-width="2" class="data-point"/>
  
    <circle cx="751.4110429447852" cy="65.6951203755545" r="4" fill="#3b82f6" stroke="#0d1117" stroke-width="2" class="data-point"/>
  
    <circle cx="755.7055214723927" cy="61.3724751281278" r="4" fill="#3b82f6" stroke="#0d1117" stroke-width="2" class="data-point"/>
  
    <circle cx="760" cy="55" r="4" fill="#3b82f6" stroke="#0d1117" stroke-width="2" class="data-point"/>
  

  <!-- Axis lines -->
  <line x1="60" y1="55" x2="60" y2="340"
        stroke="#30363d" stroke-width="2"/>
  <line x1="60" y1="340" x2="760" y2="340"
        stroke="#30363d" stroke-width="2"/>
</svg>