<?xml version="1.0" encoding="UTF-8"?>
<svg width="800" height="400" xmlns="http://www.w3.org/2000/svg">
  <defs>
    <!-- Gradient for area fill -->
    <linearGradient id="areaGradient" x1="0%" y1="0%" x2="0%" y2="100%">
      <stop offset="0%" style="stop-color:#3b82f6;stop-opacity:0.3" />
      <stop offset="100%" style="stop-color:#3b82f6;stop-opacity:0.05" />
    </linearGradient>

    <!-- Glow filter for line -->
    <filter id="glow">
      <feGaussianBlur stdDeviation="2" result="coloredBlur"/>
      <feMerge>
        <feMergeNode in="coloredBlur"/>
        <feMergeNode in="SourceGraphic"/>
      </feMerge>
    </filter>

    <!-- Animation -->
    <style>
      @keyframes draw {
        from { stroke-dashoffset: 2000; }
        to { stroke-dashoffset: 0; }
      }
      @keyframes fadeIn {
        from { opacity: 0; }
        to { opacity: 1; }
      }
      .line-path {
        stroke-dasharray: 2000;
        stroke-dashoffset: 2000;
        animation: draw 1.5s ease-out forwards;
      }
      .area-path {
        opacity: 0;
        animation: fadeIn 1s ease-out 0.5s forwards;
      }
      .data-point {
        opacity: 0;
        animation: fadeIn 0.5s ease-out 1s forwards;
      }
    </style>
  </defs>

  <!-- Background -->
  <rect width="800" height="400" fill="#0d1117" rx="8"/>

  <!-- Title -->
  <text x="400" y="25" text-anchor="middle" fill="#c9d1d9" font-family="system-ui, -apple-system, sans-serif" font-size="16" font-weight="600">
    zxcloli666/SoundCloud-Desktop Downloads
  </text>

  <!-- Stats -->
  <text x="780" y="25" text-anchor="end" fill="#58a6ff" font-family="system-ui, -apple-system, sans-serif" font-size="14" font-weight="600">
    293.1K total
  </text>
  <text x="780" y="42" text-anchor="end" fill="#3fb950" font-family="system-ui, -apple-system, sans-serif" font-size="12">
    +879 (+0.3%)
  </text>

  <!-- Grid lines -->
  <g opacity="0.1">
    
      <line x1="60" y1="340" x2="760" y2="340"
            stroke="#c9d1d9" stroke-width="1"/>
    
      <line x1="60" y1="268.75" x2="760" y2="268.75"
            stroke="#c9d1d9" stroke-width="1"/>
    
      <line x1="60" y1="197.5" x2="760" y2="197.5"
            stroke="#c9d1d9" stroke-width="1"/>
    
      <line x1="60" y1="126.25" x2="760" y2="126.25"
            stroke="#c9d1d9" stroke-width="1"/>
    
      <line x1="60" y1="55" x2="760" y2="55"
            stroke="#c9d1d9" stroke-width="1"/>
    
  </g>

  <!-- Y-axis labels -->
  
    <text x="50" y="344" text-anchor="end"
          fill="#8b949e" font-family="system-ui, -apple-system, sans-serif" font-size="11">
      60.2K
    </text>
  
    <text x="50" y="272.75" text-anchor="end"
          fill="#8b949e" font-family="system-ui, -apple-system, sans-serif" font-size="11">
      118.4K
    </text>
  
    <text x="50" y="201.5" text-anchor="end"
          fill="#8b949e" font-family="system-ui, -apple-system, sans-serif" font-size="11">
      176.6K
    </text>
  
    <text x="50" y="130.25" text-anchor="end"
          fill="#8b949e" font-family="system-ui, -apple-system, sans-serif" font-size="11">
      234.8K
    </text>
  
    <text x="50" y="59" text-anchor="end"
          fill="#8b949e" font-family="system-ui, -apple-system, sans-serif" font-size="11">
      293.1K
    </text>
  

  <!-- X-axis labels -->
  
    <text x="60" y="360" text-anchor="middle"
          fill="#8b949e" font-family="system-ui, -apple-system, sans-serif" font-size="11">
      Nov 25
    </text>
  
    <text x="147.13692946058092" y="360" text-anchor="middle"
          fill="#8b949e" font-family="system-ui, -apple-system, sans-serif" font-size="11">
      Dec 25
    </text>
  
    <text x="234.27385892116183" y="360" text-anchor="middle"
          fill="#8b949e" font-family="system-ui, -apple-system, sans-serif" font-size="11">
      Jan 24
    </text>
  
    <text x="321.41078838174275" y="360" text-anchor="middle"
          fill="#8b949e" font-family="system-ui, -apple-system, sans-serif" font-size="11">
      Feb 23
    </text>
  
    <text x="408.54771784232366" y="360" text-anchor="middle"
          fill="#8b949e" font-family="system-ui, -apple-system, sans-serif" font-size="11">
      Mar 25
    </text>
  
    <text x="495.6846473029046" y="360" text-anchor="middle"
          fill="#8b949e" font-family="system-ui, -apple-system, sans-serif" font-size="11">
      Apr 24
    </text>
  
    <text x="582.8215767634855" y="360" text-anchor="middle"
          fill="#8b949e" font-family="system-ui, -apple-system, sans-serif" font-size="11">
      May 24
    </text>
  
    <text x="669.9585062240664" y="360" text-anchor="middle"
          fill="#8b949e" font-family="system-ui, -apple-system, sans-serif" font-size="11">
      Jun 23
    </text>
  
    <text x="757.0954356846473" y="360" text-anchor="middle"
          fill="#8b949e" font-family="system-ui, -apple-system, sans-serif" font-size="11">
      Jul 23
    </text>
  
    <text x="760" y="360" text-anchor="middle"
          fill="#8b949e" font-family="system-ui, -apple-system, sans-serif" font-size="11">
      Jul 24
    </text>
  

  <!-- Area under line -->
  <path d="M 60 340
    L 60.00 340.00 L 62.90 339.82 L 65.81 339.51 L 68.71 339.23 L 71.62 338.67 L 74.52 338.08 L 77.43 337.63 L 80.33 337.20 L 83.24 336.82 L 86.14 336.37 L 89.05 335.87 L 91.95 335.34 L 94.85 334.85 L 97.76 334.34 L 100.66 333.96 L 103.57 333.57 L 106.47 333.05 L 109.38 332.69 L 112.28 332.20 L 115.19 331.64 L 118.09 331.21 L 121.00 330.86 L 123.90 330.64 L 126.80 330.45 L 129.71 330.10 L 132.61 329.85 L 135.52 329.31 L 138.42 329.09 L 141.33 328.81 L 144.23 328.46 L 147.14 328.21 L 150.04 327.96 L 152.95 327.70 L 155.85 327.52 L 158.76 327.37 L 161.66 327.13 L 164.56 326.84 L 167.47 326.57 L 170.37 326.23 L 173.28 325.86 L 176.18 325.53 L 179.09 325.12 L 181.99 324.72 L 184.90 324.32 L 187.80 323.88 L 190.71 323.46 L 193.61 322.98 L 196.51 322.56 L 199.42 322.20 L 202.32 321.91 L 205.23 321.50 L 208.13 321.04 L 211.04 320.62 L 213.94 320.13 L 216.85 319.52 L 219.75 319.07 L 222.66 318.69 L 225.56 318.33 L 228.46 317.90 L 231.37 317.41 L 234.27 316.85 L 237.18 316.27 L 240.08 315.71 L 242.99 315.22 L 245.89 314.74 L 248.80 314.31 L 251.70 313.87 L 254.61 313.38 L 257.51 312.77 L 260.41 312.32 L 263.32 311.91 L 266.22 311.46 L 269.13 311.04 L 272.03 310.57 L 274.94 310.09 L 277.84 309.59 L 280.75 309.15 L 283.65 308.77 L 286.56 308.35 L 289.46 307.90 L 292.37 307.49 L 295.27 306.95 L 298.17 306.48 L 301.08 306.03 L 303.98 305.66 L 306.89 305.30 L 309.79 304.93 L 312.70 304.50 L 315.60 304.05 L 318.51 303.51 L 321.41 303.07 L 324.32 302.71 L 327.22 302.34 L 330.12 301.99 L 333.03 301.56 L 335.93 301.11 L 338.84 300.12 L 341.74 298.16 L 344.65 295.82 L 347.55 293.68 L 350.46 292.60 L 353.36 290.97 L 356.27 289.89 L 359.17 288.94 L 362.07 288.01 L 364.98 287.14 L 367.88 285.78 L 370.79 284.69 L 373.69 283.31 L 376.60 283.03 L 379.50 282.99 L 382.41 282.94 L 385.31 282.90 L 388.22 282.85 L 391.12 282.80 L 394.02 282.79 L 396.93 282.72 L 399.83 282.65 L 402.74 282.61 L 405.64 282.60 L 408.55 282.52 L 411.45 280.75 L 414.36 277.97 L 417.26 276.11 L 420.17 273.95 L 423.07 271.72 L 425.98 269.97 L 428.88 268.02 L 431.78 265.04 L 434.69 261.03 L 437.59 258.41 L 440.50 255.30 L 443.40 251.82 L 446.31 249.04 L 449.21 246.02 L 452.12 243.34 L 455.02 240.68 L 457.93 238.03 L 460.83 234.43 L 463.73 230.81 L 466.64 227.79 L 469.54 225.26 L 472.45 222.81 L 475.35 219.56 L 478.26 217.03 L 481.16 214.54 L 484.07 212.20 L 486.97 210.00 L 489.88 207.75 L 492.78 205.82 L 495.68 203.82 L 498.59 201.79 L 501.49 199.63 L 504.40 197.66 L 507.30 195.85 L 510.21 192.57 L 513.11 189.82 L 516.02 187.19 L 518.92 184.66 L 521.83 180.66 L 524.73 178.13 L 527.63 175.94 L 530.54 173.36 L 533.44 169.54 L 536.35 166.80 L 539.25 164.49 L 542.16 162.53 L 545.06 160.67 L 547.97 159.16 L 550.87 157.46 L 553.78 156.07 L 556.68 154.43 L 559.59 152.08 L 562.49 150.05 L 565.39 148.29 L 568.30 146.77 L 571.20 145.20 L 574.11 143.87 L 577.01 141.65 L 579.92 139.75 L 582.82 137.86 L 585.73 136.30 L 588.63 134.87 L 591.54 133.60 L 594.44 131.43 L 597.34 129.66 L 600.25 128.05 L 603.15 126.51 L 606.06 125.17 L 608.96 123.87 L 611.87 122.67 L 614.77 121.53 L 617.68 120.48 L 620.58 119.17 L 623.49 117.76 L 626.39 116.47 L 629.29 114.46 L 632.20 113.00 L 635.10 111.60 L 638.01 110.38 L 640.91 108.94 L 643.82 107.18 L 646.72 105.61 L 649.63 104.22 L 652.53 102.70 L 655.44 100.61 L 658.34 98.89 L 661.24 97.05 L 664.15 95.22 L 667.05 93.51 L 669.96 91.83 L 672.86 90.05 L 675.77 88.46 L 678.67 87.07 L 681.58 85.77 L 684.48 84.41 L 687.39 83.07 L 690.29 81.87 L 693.20 80.66 L 696.10 79.50 L 699.00 78.36 L 701.91 77.21 L 704.81 76.20 L 707.72 75.02 L 710.62 73.81 L 713.53 72.42 L 716.43 71.09 L 719.34 69.90 L 722.24 68.85 L 725.15 67.77 L 728.05 66.79 L 730.95 65.66 L 733.86 64.55 L 736.76 63.48 L 739.67 62.40 L 742.57 61.24 L 745.48 60.12 L 748.38 59.02 L 751.29 58.06 L 754.19 57.09 L 757.10 56.08 L 760.00 55.00
    L 760 340
    Z" fill="url(#areaGradient)" class="area-path"/>

  <!-- Main line with glow -->
  <path d="M 60.00 340.00 L 62.90 339.82 L 65.81 339.51 L 68.71 339.23 L 71.62 338.67 L 74.52 338.08 L 77.43 337.63 L 80.33 337.20 L 83.24 336.82 L 86.14 336.37 L 89.05 335.87 L 91.95 335.34 L 94.85 334.85 L 97.76 334.34 L 100.66 333.96 L 103.57 333.57 L 106.47 333.05 L 109.38 332.69 L 112.28 332.20 L 115.19 331.64 L 118.09 331.21 L 121.00 330.86 L 123.90 330.64 L 126.80 330.45 L 129.71 330.10 L 132.61 329.85 L 135.52 329.31 L 138.42 329.09 L 141.33 328.81 L 144.23 328.46 L 147.14 328.21 L 150.04 327.96 L 152.95 327.70 L 155.85 327.52 L 158.76 327.37 L 161.66 327.13 L 164.56 326.84 L 167.47 326.57 L 170.37 326.23 L 173.28 325.86 L 176.18 325.53 L 179.09 325.12 L 181.99 324.72 L 184.90 324.32 L 187.80 323.88 L 190.71 323.46 L 193.61 322.98 L 196.51 322.56 L 199.42 322.20 L 202.32 321.91 L 205.23 321.50 L 208.13 321.04 L 211.04 320.62 L 213.94 320.13 L 216.85 319.52 L 219.75 319.07 L 222.66 318.69 L 225.56 318.33 L 228.46 317.90 L 231.37 317.41 L 234.27 316.85 L 237.18 316.27 L 240.08 315.71 L 242.99 315.22 L 245.89 314.74 L 248.80 314.31 L 251.70 313.87 L 254.61 313.38 L 257.51 312.77 L 260.41 312.32 L 263.32 311.91 L 266.22 311.46 L 269.13 311.04 L 272.03 310.57 L 274.94 310.09 L 277.84 309.59 L 280.75 309.15 L 283.65 308.77 L 286.56 308.35 L 289.46 307.90 L 292.37 307.49 L 295.27 306.95 L 298.17 306.48 L 301.08 306.03 L 303.98 305.66 L 306.89 305.30 L 309.79 304.93 L 312.70 304.50 L 315.60 304.05 L 318.51 303.51 L 321.41 303.07 L 324.32 302.71 L 327.22 302.34 L 330.12 301.99 L 333.03 301.56 L 335.93 301.11 L 338.84 300.12 L 341.74 298.16 L 344.65 295.82 L 347.55 293.68 L 350.46 292.60 L 353.36 290.97 L 356.27 289.89 L 359.17 288.94 L 362.07 288.01 L 364.98 287.14 L 367.88 285.78 L 370.79 284.69 L 373.69 283.31 L 376.60 283.03 L 379.50 282.99 L 382.41 282.94 L 385.31 282.90 L 388.22 282.85 L 391.12 282.80 L 394.02 282.79 L 396.93 282.72 L 399.83 282.65 L 402.74 282.61 L 405.64 282.60 L 408.55 282.52 L 411.45 280.75 L 414.36 277.97 L 417.26 276.11 L 420.17 273.95 L 423.07 271.72 L 425.98 269.97 L 428.88 268.02 L 431.78 265.04 L 434.69 261.03 L 437.59 258.41 L 440.50 255.30 L 443.40 251.82 L 446.31 249.04 L 449.21 246.02 L 452.12 243.34 L 455.02 240.68 L 457.93 238.03 L 460.83 234.43 L 463.73 230.81 L 466.64 227.79 L 469.54 225.26 L 472.45 222.81 L 475.35 219.56 L 478.26 217.03 L 481.16 214.54 L 484.07 212.20 L 486.97 210.00 L 489.88 207.75 L 492.78 205.82 L 495.68 203.82 L 498.59 201.79 L 501.49 199.63 L 504.40 197.66 L 507.30 195.85 L 510.21 192.57 L 513.11 189.82 L 516.02 187.19 L 518.92 184.66 L 521.83 180.66 L 524.73 178.13 L 527.63 175.94 L 530.54 173.36 L 533.44 169.54 L 536.35 166.80 L 539.25 164.49 L 542.16 162.53 L 545.06 160.67 L 547.97 159.16 L 550.87 157.46 L 553.78 156.07 L 556.68 154.43 L 559.59 152.08 L 562.49 150.05 L 565.39 148.29 L 568.30 146.77 L 571.20 145.20 L 574.11 143.87 L 577.01 141.65 L 579.92 139.75 L 582.82 137.86 L 585.73 136.30 L 588.63 134.87 L 591.54 133.60 L 594.44 131.43 L 597.34 129.66 L 600.25 128.05 L 603.15 126.51 L 606.06 125.17 L 608.96 123.87 L 611.87 122.67 L 614.77 121.53 L 617.68 120.48 L 620.58 119.17 L 623.49 117.76 L 626.39 116.47 L 629.29 114.46 L 632.20 113.00 L 635.10 111.60 L 638.01 110.38 L 640.91 108.94 L 643.82 107.18 L 646.72 105.61 L 649.63 104.22 L 652.53 102.70 L 655.44 100.61 L 658.34 98.89 L 661.24 97.05 L 664.15 95.22 L 667.05 93.51 L 669.96 91.83 L 672.86 90.05 L 675.77 88.46 L 678.67 87.07 L 681.58 85.77 L 684.48 84.41 L 687.39 83.07 L 690.29 81.87 L 693.20 80.66 L 696.10 79.50 L 699.00 78.36 L 701.91 77.21 L 704.81 76.20 L 707.72 75.02 L 710.62 73.81 L 713.53 72.42 L 716.43 71.09 L 719.34 69.90 L 722.24 68.85 L 725.15 67.77 L 728.05 66.79 L 730.95 65.66 L 733.86 64.55 L 736.76 63.48 L 739.67 62.40 L 742.57 61.24 L 745.48 60.12 L 748.38 59.02 L 751.29 58.06 L 754.19 57.09 L 757.10 56.08 L 760.00 55.00" fill="none" stroke="#3b82f6" stroke-width="3"
        stroke-linecap="round" stroke-linejoin="round" filter="url(#glow)" class="line-path"/>

  <!-- Data points -->
  
    <circle cx="60" cy="340" r="4" fill="#3b82f6" stroke="#0d1117" stroke-width="2" class="data-point"/>
  
    <circle cx="62.904564315352694" cy="339.82014064190406" r="4" fill="#3b82f6" stroke="#0d1117" stroke-width="2" class="data-point"/>
  
    <circle cx="65.80912863070539" cy="339.5142573798362" r="4" fill="#3b82f6" stroke="#0d1117" stroke-width="2" class="data-point"/>
  
    <circle cx="68.71369294605809" cy="339.23039771263717" r="4" fill="#3b82f6" stroke="#0d1117" stroke-width="2" class="data-point"/>
  
    <circle cx="71.61825726141079" cy="338.66634897738396" r="4" fill="#3b82f6" stroke="#0d1117" stroke-width="2" class="data-point"/>
  
    <circle cx="74.52282157676349" cy="338.0839472464067" r="4" fill="#3b82f6" stroke="#0d1117" stroke-width="2" class="data-point"/>
  
    <circle cx="77.42738589211618" cy="337.62512235330485" r="4" fill="#3b82f6" stroke="#0d1117" stroke-width="2" class="data-point"/>
  
    <circle cx="80.33195020746888" cy="337.1968857864098" r="4" fill="#3b82f6" stroke="#0d1117" stroke-width="2" class="data-point"/>
  
    <circle cx="83.23651452282158" cy="336.8163670083973" r="4" fill="#3b82f6" stroke="#0d1117" stroke-width="2" class="data-point"/>
  
    <circle cx="86.14107883817428" cy="336.36977744577814" r="4" fill="#3b82f6" stroke="#0d1117" stroke-width="2" class="data-point"/>
  
    <circle cx="89.04564315352697" cy="335.87179949513165" r="4" fill="#3b82f6" stroke="#0d1117" stroke-width="2" class="data-point"/>
  
    <circle cx="91.95020746887967" cy="335.3383390860852" r="4" fill="#3b82f6" stroke="#0d1117" stroke-width="2" class="data-point"/>
  
    <circle cx="94.85477178423236" cy="334.85381999896964" r="4" fill="#3b82f6" stroke="#0d1117" stroke-width="2" class="data-point"/>
  
    <circle cx="97.75933609958506" cy="334.33871258564733" r="4" fill="#3b82f6" stroke="#0d1117" stroke-width="2" class="data-point"/>
  
    <circle cx="100.66390041493776" cy="333.9630879398279" r="4" fill="#3b82f6" stroke="#0d1117" stroke-width="2" class="data-point"/>
  
    <circle cx="103.56846473029046" cy="333.57400443047754" r="4" fill="#3b82f6" stroke="#0d1117" stroke-width="2" class="data-point"/>
  
    <circle cx="106.47302904564316" cy="333.0454381536242" r="4" fill="#3b82f6" stroke="#0d1117" stroke-width="2" class="data-point"/>
  
    <circle cx="109.37759336099586" cy="332.69183710267373" r="4" fill="#3b82f6" stroke="#0d1117" stroke-width="2" class="data-point"/>
  
    <circle cx="112.28215767634855" cy="332.2024238833651" r="4" fill="#3b82f6" stroke="#0d1117" stroke-width="2" class="data-point"/>
  
    <circle cx="115.18672199170123" cy="331.6371516150636" r="4" fill="#3b82f6" stroke="#0d1117" stroke-width="2" class="data-point"/>
  
    <circle cx="118.09128630705393" cy="331.2113621142651" r="4" fill="#3b82f6" stroke="#0d1117" stroke-width="2" class="data-point"/>
  
    <circle cx="120.99585062240664" cy="330.86143166245944" r="4" fill="#3b82f6" stroke="#0d1117" stroke-width="2" class="data-point"/>
  
    <circle cx="123.90041493775934" cy="330.6350780485292" r="4" fill="#3b82f6" stroke="#0d1117" stroke-width="2" class="data-point"/>
  
    <circle cx="126.80497925311202" cy="330.44665395909533" r="4" fill="#3b82f6" stroke="#0d1117" stroke-width="2" class="data-point"/>
  
    <circle cx="129.7095435684647" cy="330.09794704033794" r="4" fill="#3b82f6" stroke="#0d1117" stroke-width="2" class="data-point"/>
  
    <circle cx="132.61410788381744" cy="329.8495698315388" r="4" fill="#3b82f6" stroke="#0d1117" stroke-width="2" class="data-point"/>
  
    <circle cx="135.5186721991701" cy="329.30509762505795" r="4" fill="#3b82f6" stroke="#0d1117" stroke-width="2" class="data-point"/>
  
    <circle cx="138.42323651452284" cy="329.0909793416104" r="4" fill="#3b82f6" stroke="#0d1117" stroke-width="2" class="data-point"/>
  
    <circle cx="141.3278008298755" cy="328.81446087270103" r="4" fill="#3b82f6" stroke="#0d1117" stroke-width="2" class="data-point"/>
  
    <circle cx="144.23236514522821" cy="328.45718922260573" r="4" fill="#3b82f6" stroke="#0d1117" stroke-width="2" class="data-point"/>
  
    <circle cx="147.13692946058092" cy="328.2124826129514" r="4" fill="#3b82f6" stroke="#0d1117" stroke-width="2" class="data-point"/>
  
    <circle cx="150.0414937759336" cy="327.9641054041523" r="4" fill="#3b82f6" stroke="#0d1117" stroke-width="2" class="data-point"/>
  
    <circle cx="152.94605809128632" cy="327.70349286487044" r="4" fill="#3b82f6" stroke="#0d1117" stroke-width="2" class="data-point"/>
  
    <circle cx="155.85062240663902" cy="327.5224099737262" r="4" fill="#3b82f6" stroke="#0d1117" stroke-width="2" class="data-point"/>
  
    <circle cx="158.75518672199172" cy="327.3657977435475" r="4" fill="#3b82f6" stroke="#0d1117" stroke-width="2" class="data-point"/>
  
    <circle cx="161.6597510373444" cy="327.1272087991345" r="4" fill="#3b82f6" stroke="#0d1117" stroke-width="2" class="data-point"/>
  
    <circle cx="164.5643153526971" cy="326.83723146669416" r="4" fill="#3b82f6" stroke="#0d1117" stroke-width="2" class="data-point"/>
  
    <circle cx="167.4688796680498" cy="326.5705012621709" r="4" fill="#3b82f6" stroke="#0d1117" stroke-width="2" class="data-point"/>
  
    <circle cx="170.37344398340247" cy="326.23280614084797" r="4" fill="#3b82f6" stroke="#0d1117" stroke-width="2" class="data-point"/>
  
    <circle cx="173.2780082987552" cy="325.86452269331824" r="4" fill="#3b82f6" stroke="#0d1117" stroke-width="2" class="data-point"/>
  
    <circle cx="176.18257261410787" cy="325.5268275719953" r="4" fill="#3b82f6" stroke="#0d1117" stroke-width="2" class="data-point"/>
  
    <circle cx="179.0871369294606" cy="325.1193910669208" r="4" fill="#3b82f6" stroke="#0d1117" stroke-width="2" class="data-point"/>
  
    <circle cx="181.99170124481327" cy="324.719295760136" r="4" fill="#3b82f6" stroke="#0d1117" stroke-width="2" class="data-point"/>
  
    <circle cx="184.89626556016597" cy="324.3192004533512" r="4" fill="#3b82f6" stroke="#0d1117" stroke-width="2" class="data-point"/>
  
    <circle cx="187.80082987551867" cy="323.88117562207" r="4" fill="#3b82f6" stroke="#0d1117" stroke-width="2" class="data-point"/>
  
    <circle cx="190.70539419087137" cy="323.46272731956105" r="4" fill="#3b82f6" stroke="#0d1117" stroke-width="2" class="data-point"/>
  
    <circle cx="193.60995850622405" cy="322.98432589768686" r="4" fill="#3b82f6" stroke="#0d1117" stroke-width="2" class="data-point"/>
  
    <circle cx="196.51452282157678" cy="322.5573128638401" r="4" fill="#3b82f6" stroke="#0d1117" stroke-width="2" class="data-point"/>
  
    <circle cx="199.41908713692945" cy="322.19637061459997" r="4" fill="#3b82f6" stroke="#0d1117" stroke-width="2" class="data-point"/>
  
    <circle cx="202.32365145228215" cy="321.90761681520786" r="4" fill="#3b82f6" stroke="#0d1117" stroke-width="2" class="data-point"/>
  
    <circle cx="205.22821576763485" cy="321.50385090927824" r="4" fill="#3b82f6" stroke="#0d1117" stroke-width="2" class="data-point"/>
  
    <circle cx="208.13278008298755" cy="321.04257895007987" r="4" fill="#3b82f6" stroke="#0d1117" stroke-width="2" class="data-point"/>
  
    <circle cx="211.03734439834025" cy="320.62046004842614" r="4" fill="#3b82f6" stroke="#0d1117" stroke-width="2" class="data-point"/>
  
    <circle cx="213.94190871369295" cy="320.1273762299727" r="4" fill="#3b82f6" stroke="#0d1117" stroke-width="2" class="data-point"/>
  
    <circle cx="216.84647302904565" cy="319.5192803049817" r="4" fill="#3b82f6" stroke="#0d1117" stroke-width="2" class="data-point"/>
  
    <circle cx="219.75103734439833" cy="319.06657307712123" r="4" fill="#3b82f6" stroke="#0d1117" stroke-width="2" class="data-point"/>
  
    <circle cx="222.65560165975106" cy="318.6909484313018" r="4" fill="#3b82f6" stroke="#0d1117" stroke-width="2" class="data-point"/>
  
    <circle cx="225.56016597510373" cy="318.3336767812065" r="4" fill="#3b82f6" stroke="#0d1117" stroke-width="2" class="data-point"/>
  
    <circle cx="228.46473029045643" cy="317.9042166812632" r="4" fill="#3b82f6" stroke="#0d1117" stroke-width="2" class="data-point"/>
  
    <circle cx="231.36929460580913" cy="317.4050151975684" r="4" fill="#3b82f6" stroke="#0d1117" stroke-width="2" class="data-point"/>
  
    <circle cx="234.27385892116183" cy="316.8519782597496" r="4" fill="#3b82f6" stroke="#0d1117" stroke-width="2" class="data-point"/>
  
    <circle cx="237.1784232365145" cy="316.27080006182064" r="4" fill="#3b82f6" stroke="#0d1117" stroke-width="2" class="data-point"/>
  
    <circle cx="240.0829875518672" cy="315.71286899180876" r="4" fill="#3b82f6" stroke="#0d1117" stroke-width="2" class="data-point"/>
  
    <circle cx="242.98755186721993" cy="315.22223223945184" r="4" fill="#3b82f6" stroke="#0d1117" stroke-width="2" class="data-point"/>
  
    <circle cx="245.8921161825726" cy="314.7352660862398" r="4" fill="#3b82f6" stroke="#0d1117" stroke-width="2" class="data-point"/>
  
    <circle cx="248.7966804979253" cy="314.30580598629643" r="4" fill="#3b82f6" stroke="#0d1117" stroke-width="2" class="data-point"/>
  
    <circle cx="251.70124481327804" cy="313.8677811550152" r="4" fill="#3b82f6" stroke="#0d1117" stroke-width="2" class="data-point"/>
  
    <circle cx="254.6058091286307" cy="313.37836793570654" r="4" fill="#3b82f6" stroke="#0d1117" stroke-width="2" class="data-point"/>
  
    <circle cx="257.51037344398344" cy="312.7690484776673" r="4" fill="#3b82f6" stroke="#0d1117" stroke-width="2" class="data-point"/>
  
    <circle cx="260.4149377593361" cy="312.31511771675855" r="4" fill="#3b82f6" stroke="#0d1117" stroke-width="2" class="data-point"/>
  
    <circle cx="263.3195020746888" cy="311.90890474473235" r="4" fill="#3b82f6" stroke="#0d1117" stroke-width="2" class="data-point"/>
  
    <circle cx="266.22406639004146" cy="311.45742104992013" r="4" fill="#3b82f6" stroke="#0d1117" stroke-width="2" class="data-point"/>
  
    <circle cx="269.1286307053942" cy="311.03652568131474" r="4" fill="#3b82f6" stroke="#0d1117" stroke-width="2" class="data-point"/>
  
    <circle cx="272.03319502074686" cy="310.574030189068" r="4" fill="#3b82f6" stroke="#0d1117" stroke-width="2" class="data-point"/>
  
    <circle cx="274.9377593360996" cy="310.091958168049" r="4" fill="#3b82f6" stroke="#0d1117" stroke-width="2" class="data-point"/>
  
    <circle cx="277.84232365145226" cy="309.58786255216114" r="4" fill="#3b82f6" stroke="#0d1117" stroke-width="2" class="data-point"/>
  
    <circle cx="280.74688796680493" cy="309.1461671217351" r="4" fill="#3b82f6" stroke="#0d1117" stroke-width="2" class="data-point"/>
  
    <circle cx="283.65145228215766" cy="308.7680954098192" r="4" fill="#3b82f6" stroke="#0d1117" stroke-width="2" class="data-point"/>
  
    <circle cx="286.5560165975104" cy="308.3533177064551" r="4" fill="#3b82f6" stroke="#0d1117" stroke-width="2" class="data-point"/>
  
    <circle cx="289.46058091286307" cy="307.9042810777394" r="4" fill="#3b82f6" stroke="#0d1117" stroke-width="2" class="data-point"/>
  
    <circle cx="292.36514522821574" cy="307.4882798413271" r="4" fill="#3b82f6" stroke="#0d1117" stroke-width="2" class="data-point"/>
  
    <circle cx="295.2697095435685" cy="306.94625470094275" r="4" fill="#3b82f6" stroke="#0d1117" stroke-width="2" class="data-point"/>
  
    <circle cx="298.1742738589212" cy="306.4800886095513" r="4" fill="#3b82f6" stroke="#0d1117" stroke-width="2" class="data-point"/>
  
    <circle cx="301.07883817427387" cy="306.0310519808356" r="4" fill="#3b82f6" stroke="#0d1117" stroke-width="2" class="data-point"/>
  
    <circle cx="303.98340248962654" cy="305.6578744011128" r="4" fill="#3b82f6" stroke="#0d1117" stroke-width="2" class="data-point"/>
  
    <circle cx="306.88796680497927" cy="305.2957086188244" r="4" fill="#3b82f6" stroke="#0d1117" stroke-width="2" class="data-point"/>
  
    <circle cx="309.79253112033194" cy="304.9323193034877" r="4" fill="#3b82f6" stroke="#0d1117" stroke-width="2" class="data-point"/>
  
    <circle cx="312.6970954356847" cy="304.4979650713513" r="4" fill="#3b82f6" stroke="#0d1117" stroke-width="2" class="data-point"/>
  
    <circle cx="315.60165975103735" cy="304.0513755087322" r="4" fill="#3b82f6" stroke="#0d1117" stroke-width="2" class="data-point"/>
  
    <circle cx="318.5062240663901" cy="303.50935036834784" r="4" fill="#3b82f6" stroke="#0d1117" stroke-width="2" class="data-point"/>
  
    <circle cx="321.41078838174275" cy="303.07010200401834" r="4" fill="#3b82f6" stroke="#0d1117" stroke-width="2" class="data-point"/>
  
    <circle cx="324.3153526970954" cy="302.71160682087475" r="4" fill="#3b82f6" stroke="#0d1117" stroke-width="2" class="data-point"/>
  
    <circle cx="327.2199170124481" cy="302.343323373345" r="4" fill="#3b82f6" stroke="#0d1117" stroke-width="2" class="data-point"/>
  
    <circle cx="330.1244813278008" cy="301.99094585544276" r="4" fill="#3b82f6" stroke="#0d1117" stroke-width="2" class="data-point"/>
  
    <circle cx="333.02904564315355" cy="301.5553680902581" r="4" fill="#3b82f6" stroke="#0d1117" stroke-width="2" class="data-point"/>
  
    <circle cx="335.9336099585062" cy="301.10877852763895" r="4" fill="#3b82f6" stroke="#0d1117" stroke-width="2" class="data-point"/>
  
    <circle cx="338.8381742738589" cy="300.1213873576838" r="4" fill="#3b82f6" stroke="#0d1117" stroke-width="2" class="data-point"/>
  
    <circle cx="341.7427385892116" cy="298.15639328215957" r="4" fill="#3b82f6" stroke="#0d1117" stroke-width="2" class="data-point"/>
  
    <circle cx="344.6473029045643" cy="295.81577456081607" r="4" fill="#3b82f6" stroke="#0d1117" stroke-width="2" class="data-point"/>
  
    <circle cx="347.551867219917" cy="293.68315645767865" r="4" fill="#3b82f6" stroke="#0d1117" stroke-width="2" class="data-point"/>
  
    <circle cx="350.4564315352697" cy="292.60155324300655" r="4" fill="#3b82f6" stroke="#0d1117" stroke-width="2" class="data-point"/>
  
    <circle cx="353.36099585062243" cy="290.9718072227088" r="4" fill="#3b82f6" stroke="#0d1117" stroke-width="2" class="data-point"/>
  
    <circle cx="356.2655601659751" cy="289.8889804749884" r="4" fill="#3b82f6" stroke="#0d1117" stroke-width="2" class="data-point"/>
  
    <circle cx="359.1701244813278" cy="288.9395188295297" r="4" fill="#3b82f6" stroke="#0d1117" stroke-width="2" class="data-point"/>
  
    <circle cx="362.0746887966805" cy="288.0108572458915" r="4" fill="#3b82f6" stroke="#0d1117" stroke-width="2" class="data-point"/>
  
    <circle cx="364.9792531120332" cy="287.1360311163773" r="4" fill="#3b82f6" stroke="#0d1117" stroke-width="2" class="data-point"/>
  
    <circle cx="367.8838174273859" cy="285.7754623666993" r="4" fill="#3b82f6" stroke="#0d1117" stroke-width="2" class="data-point"/>
  
    <circle cx="370.7883817427386" cy="284.6938591520272" r="4" fill="#3b82f6" stroke="#0d1117" stroke-width="2" class="data-point"/>
  
    <circle cx="373.6929460580913" cy="283.3112668074803" r="4" fill="#3b82f6" stroke="#0d1117" stroke-width="2" class="data-point"/>
  
    <circle cx="376.597510373444" cy="283.02863067332953" r="4" fill="#3b82f6" stroke="#0d1117" stroke-width="2" class="data-point"/>
  
    <circle cx="379.50207468879665" cy="282.9919246818814" r="4" fill="#3b82f6" stroke="#0d1117" stroke-width="2" class="data-point"/>
  
    <circle cx="382.4066390041494" cy="282.9442068929988" r="4" fill="#3b82f6" stroke="#0d1117" stroke-width="2" class="data-point"/>
  
    <circle cx="385.3112033195021" cy="282.9038303024059" r="4" fill="#3b82f6" stroke="#0d1117" stroke-width="2" class="data-point"/>
  
    <circle cx="388.2157676348548" cy="282.85121838133017" r="4" fill="#3b82f6" stroke="#0d1117" stroke-width="2" class="data-point"/>
  
    <circle cx="391.12033195020746" cy="282.80472412549585" r="4" fill="#3b82f6" stroke="#0d1117" stroke-width="2" class="data-point"/>
  
    <circle cx="394.0248962655602" cy="282.7863711297718" r="4" fill="#3b82f6" stroke="#0d1117" stroke-width="2" class="data-point"/>
  
    <circle cx="396.92946058091286" cy="282.71907681211684" r="4" fill="#3b82f6" stroke="#0d1117" stroke-width="2" class="data-point"/>
  
    <circle cx="399.83402489626553" cy="282.65422956055846" r="4" fill="#3b82f6" stroke="#0d1117" stroke-width="2" class="data-point"/>
  
    <circle cx="402.73858921161826" cy="282.61140590386896" r="4" fill="#3b82f6" stroke="#0d1117" stroke-width="2" class="data-point"/>
  
    <circle cx="405.643153526971" cy="282.5954999742414" r="4" fill="#3b82f6" stroke="#0d1117" stroke-width="2" class="data-point"/>
  
    <circle cx="408.54771784232366" cy="282.52331152439336" r="4" fill="#3b82f6" stroke="#0d1117" stroke-width="2" class="data-point"/>
  
    <circle cx="411.45228215767634" cy="280.7491886043996" r="4" fill="#3b82f6" stroke="#0d1117" stroke-width="2" class="data-point"/>
  
    <circle cx="414.356846473029" cy="277.97054505177476" r="4" fill="#3b82f6" stroke="#0d1117" stroke-width="2" class="data-point"/>
  
    <circle cx="417.26141078838174" cy="276.10955128535363" r="4" fill="#3b82f6" stroke="#0d1117" stroke-width="2" class="data-point"/>
  
    <circle cx="420.1659751037344" cy="273.948791922106" r="4" fill="#3b82f6" stroke="#0d1117" stroke-width="2" class="data-point"/>
  
    <circle cx="423.07053941908714" cy="271.7219617742517" r="4" fill="#3b82f6" stroke="#0d1117" stroke-width="2" class="data-point"/>
  
    <circle cx="425.97510373443987" cy="269.97475658131987" r="4" fill="#3b82f6" stroke="#0d1117" stroke-width="2" class="data-point"/>
  
    <circle cx="428.87966804979254" cy="268.02077430323016" r="4" fill="#3b82f6" stroke="#0d1117" stroke-width="2" class="data-point"/>
  
    <circle cx="431.7842323651452" cy="265.04391839678533" r="4" fill="#3b82f6" stroke="#0d1117" stroke-width="2" class="data-point"/>
  
    <circle cx="434.6887966804979" cy="261.0319535315028" r="4" fill="#3b82f6" stroke="#0d1117" stroke-width="2" class="data-point"/>
  
    <circle cx="437.5933609958506" cy="258.41359280820154" r="4" fill="#3b82f6" stroke="#0d1117" stroke-width="2" class="data-point"/>
  
    <circle cx="440.4979253112033" cy="255.29725413425376" r="4" fill="#3b82f6" stroke="#0d1117" stroke-width="2" class="data-point"/>
  
    <circle cx="443.4024896265561" cy="251.82486734325897" r="4" fill="#3b82f6" stroke="#0d1117" stroke-width="2" class="data-point"/>
  
    <circle cx="446.30705394190875" cy="249.0401061253928" r="4" fill="#3b82f6" stroke="#0d1117" stroke-width="2" class="data-point"/>
  
    <circle cx="449.2116182572614" cy="246.01797949616196" r="4" fill="#3b82f6" stroke="#0d1117" stroke-width="2" class="data-point"/>
  
    <circle cx="452.1161825726141" cy="243.3372185873989" r="4" fill="#3b82f6" stroke="#0d1117" stroke-width="2" class="data-point"/>
  
    <circle cx="455.0207468879668" cy="240.68092833960125" r="4" fill="#3b82f6" stroke="#0d1117" stroke-width="2" class="data-point"/>
  
    <circle cx="457.9253112033195" cy="238.03197929009326" r="4" fill="#3b82f6" stroke="#0d1117" stroke-width="2" class="data-point"/>
  
    <circle cx="460.82987551867217" cy="234.42500386378856" r="4" fill="#3b82f6" stroke="#0d1117" stroke-width="2" class="data-point"/>
  
    <circle cx="463.73443983402484" cy="230.80701664004945" r="4" fill="#3b82f6" stroke="#0d1117" stroke-width="2" class="data-point"/>
  
    <circle cx="466.6390041493776" cy="227.79100767605996" r="4" fill="#3b82f6" stroke="#0d1117" stroke-width="2" class="data-point"/>
  
    <circle cx="469.5435684647303" cy="225.26318839833084" r="4" fill="#3b82f6" stroke="#0d1117" stroke-width="2" class="data-point"/>
  
    <circle cx="472.448132780083" cy="222.81122816959456" r="4" fill="#3b82f6" stroke="#0d1117" stroke-width="2" class="data-point"/>
  
    <circle cx="475.3526970954357" cy="219.5566302611921" r="4" fill="#3b82f6" stroke="#0d1117" stroke-width="2" class="data-point"/>
  
    <circle cx="478.2572614107884" cy="217.0324815826078" r="4" fill="#3b82f6" stroke="#0d1117" stroke-width="2" class="data-point"/>
  
    <circle cx="481.16182572614105" cy="214.53525063108546" r="4" fill="#3b82f6" stroke="#0d1117" stroke-width="2" class="data-point"/>
  
    <circle cx="484.0663900414937" cy="212.19952604193497" r="4" fill="#3b82f6" stroke="#0d1117" stroke-width="2" class="data-point"/>
  
    <circle cx="486.9709543568465" cy="209.99961362114266" r="4" fill="#3b82f6" stroke="#0d1117" stroke-width="2" class="data-point"/>
  
    <circle cx="489.8755186721992" cy="207.74586574622637" r="4" fill="#3b82f6" stroke="#0d1117" stroke-width="2" class="data-point"/>
  
    <circle cx="492.7800829875519" cy="205.8188011951986" r="4" fill="#3b82f6" stroke="#0d1117" stroke-width="2" class="data-point"/>
  
    <circle cx="495.6846473029046" cy="203.82321879346762" r="4" fill="#3b82f6" stroke="#0d1117" stroke-width="2" class="data-point"/>
  
    <circle cx="498.58921161825725" cy="201.78603626809542" r="4" fill="#3b82f6" stroke="#0d1117" stroke-width="2" class="data-point"/>
  
    <circle cx="501.4937759336099" cy="199.6326181031374" r="4" fill="#3b82f6" stroke="#0d1117" stroke-width="2" class="data-point"/>
  
    <circle cx="504.39834024896265" cy="197.65661223017878" r="4" fill="#3b82f6" stroke="#0d1117" stroke-width="2" class="data-point"/>
  
    <circle cx="507.3029045643153" cy="195.84700685178507" r="4" fill="#3b82f6" stroke="#0d1117" stroke-width="2" class="data-point"/>
  
    <circle cx="510.20746887966806" cy="192.5679382824172" r="4" fill="#3b82f6" stroke="#0d1117" stroke-width="2" class="data-point"/>
  
    <circle cx="513.1120331950208" cy="189.823553655144" r="4" fill="#3b82f6" stroke="#0d1117" stroke-width="2" class="data-point"/>
  
    <circle cx="516.0165975103735" cy="187.18806346916696" r="4" fill="#3b82f6" stroke="#0d1117" stroke-width="2" class="data-point"/>
  
    <circle cx="518.9211618257261" cy="184.65657359229306" r="4" fill="#3b82f6" stroke="#0d1117" stroke-width="2" class="data-point"/>
  
    <circle cx="521.8257261410788" cy="180.65929112358972" r="4" fill="#3b82f6" stroke="#0d1117" stroke-width="2" class="data-point"/>
  
    <circle cx="524.7302904564315" cy="178.1302483128123" r="4" fill="#3b82f6" stroke="#0d1117" stroke-width="2" class="data-point"/>
  
    <circle cx="527.6348547717841" cy="175.94134768945443" r="4" fill="#3b82f6" stroke="#0d1117" stroke-width="2" class="data-point"/>
  
    <circle cx="530.539419087137" cy="173.35602235845656" r="4" fill="#3b82f6" stroke="#0d1117" stroke-width="2" class="data-point"/>
  
    <circle cx="533.4439834024897" cy="169.5447169130905" r="4" fill="#3b82f6" stroke="#0d1117" stroke-width="2" class="data-point"/>
  
    <circle cx="536.3485477178424" cy="166.80277935191387" r="4" fill="#3b82f6" stroke="#0d1117" stroke-width="2" class="data-point"/>
  
    <circle cx="539.2531120331951" cy="164.487854824584" r="4" fill="#3b82f6" stroke="#0d1117" stroke-width="2" class="data-point"/>
  
    <circle cx="542.1576763485477" cy="162.52897841430115" r="4" fill="#3b82f6" stroke="#0d1117" stroke-width="2" class="data-point"/>
  
    <circle cx="545.0622406639004" cy="160.67043171397663" r="4" fill="#3b82f6" stroke="#0d1117" stroke-width="2" class="data-point"/>
  
    <circle cx="547.9668049792531" cy="159.15936839936117" r="4" fill="#3b82f6" stroke="#0d1117" stroke-width="2" class="data-point"/>
  
    <circle cx="550.8713692946058" cy="157.4574339292154" r="4" fill="#3b82f6" stroke="#0d1117" stroke-width="2" class="data-point"/>
  
    <circle cx="553.7759336099585" cy="156.0699474524754" r="4" fill="#3b82f6" stroke="#0d1117" stroke-width="2" class="data-point"/>
  
    <circle cx="556.6804979253112" cy="154.43286023388802" r="4" fill="#3b82f6" stroke="#0d1117" stroke-width="2" class="data-point"/>
  
    <circle cx="559.5850622406639" cy="152.0763355829169" r="4" fill="#3b82f6" stroke="#0d1117" stroke-width="2" class="data-point"/>
  
    <circle cx="562.4896265560167" cy="150.0513883880274" r="4" fill="#3b82f6" stroke="#0d1117" stroke-width="2" class="data-point"/>
  
    <circle cx="565.3941908713693" cy="148.29072433156458" r="4" fill="#3b82f6" stroke="#0d1117" stroke-width="2" class="data-point"/>
  
    <circle cx="568.298755186722" cy="146.7686492195147" r="4" fill="#3b82f6" stroke="#0d1117" stroke-width="2" class="data-point"/>
  
    <circle cx="571.2033195020747" cy="145.19885631858227" r="4" fill="#3b82f6" stroke="#0d1117" stroke-width="2" class="data-point"/>
  
    <circle cx="574.1078838174275" cy="143.87499356035235" r="4" fill="#3b82f6" stroke="#0d1117" stroke-width="2" class="data-point"/>
  
    <circle cx="577.0124481327802" cy="141.64938694554635" r="4" fill="#3b82f6" stroke="#0d1117" stroke-width="2" class="data-point"/>
  
    <circle cx="579.9170124481328" cy="139.746793055484" r="4" fill="#3b82f6" stroke="#0d1117" stroke-width="2" class="data-point"/>
  
    <circle cx="582.8215767634855" cy="137.8601050950492" r="4" fill="#3b82f6" stroke="#0d1117" stroke-width="2" class="data-point"/>
  
    <circle cx="585.7261410788382" cy="136.30254752459945" r="4" fill="#3b82f6" stroke="#0d1117" stroke-width="2" class="data-point"/>
  
    <circle cx="588.6307053941908" cy="134.87346092421822" r="4" fill="#3b82f6" stroke="#0d1117" stroke-width="2" class="data-point"/>
  
    <circle cx="591.5352697095435" cy="133.6046571531606" r="4" fill="#3b82f6" stroke="#0d1117" stroke-width="2" class="data-point"/>
  
    <circle cx="594.4398340248962" cy="131.42921539333366" r="4" fill="#3b82f6" stroke="#0d1117" stroke-width="2" class="data-point"/>
  
    <circle cx="597.344398340249" cy="129.66243367162951" r="4" fill="#3b82f6" stroke="#0d1117" stroke-width="2" class="data-point"/>
  
    <circle cx="600.2489626556016" cy="128.05226418010406" r="4" fill="#3b82f6" stroke="#0d1117" stroke-width="2" class="data-point"/>
  
    <circle cx="603.1535269709543" cy="126.51428313842666" r="4" fill="#3b82f6" stroke="#0d1117" stroke-width="2" class="data-point"/>
  
    <circle cx="606.0580912863071" cy="125.17206738447271" r="4" fill="#3b82f6" stroke="#0d1117" stroke-width="2" class="data-point"/>
  
    <circle cx="608.9626556016598" cy="123.86900468806346" r="4" fill="#3b82f6" stroke="#0d1117" stroke-width="2" class="data-point"/>
  
    <circle cx="611.8672199170124" cy="122.6748364329504" r="4" fill="#3b82f6" stroke="#0d1117" stroke-width="2" class="data-point"/>
  
    <circle cx="614.7717842323651" cy="121.52960949976818" r="4" fill="#3b82f6" stroke="#0d1117" stroke-width="2" class="data-point"/>
  
    <circle cx="617.6763485477178" cy="120.47981814435116" r="4" fill="#3b82f6" stroke="#0d1117" stroke-width="2" class="data-point"/>
  
    <circle cx="620.5809128630706" cy="119.16941424965228" r="4" fill="#3b82f6" stroke="#0d1117" stroke-width="2" class="data-point"/>
  
    <circle cx="623.4854771784233" cy="117.76235124413992" r="4" fill="#3b82f6" stroke="#0d1117" stroke-width="2" class="data-point"/>
  
    <circle cx="626.3900414937759" cy="116.46785327906858" r="4" fill="#3b82f6" stroke="#0d1117" stroke-width="2" class="data-point"/>
  
    <circle cx="629.2946058091286" cy="114.45636494771006" r="4" fill="#3b82f6" stroke="#0d1117" stroke-width="2" class="data-point"/>
  
    <circle cx="632.1991701244813" cy="112.99669002112205" r="4" fill="#3b82f6" stroke="#0d1117" stroke-width="2" class="data-point"/>
  
    <circle cx="635.103734439834" cy="111.60063881304413" r="4" fill="#3b82f6" stroke="#0d1117" stroke-width="2" class="data-point"/>
  
    <circle cx="638.0082987551867" cy="110.37588223172426" r="4" fill="#3b82f6" stroke="#0d1117" stroke-width="2" class="data-point"/>
  
    <circle cx="640.9128630705394" cy="108.93945443305341" r="4" fill="#3b82f6" stroke="#0d1117" stroke-width="2" class="data-point"/>
  
    <circle cx="643.8174273858922" cy="107.17511977744576" r="4" fill="#3b82f6" stroke="#0d1117" stroke-width="2" class="data-point"/>
  
    <circle cx="646.7219917012449" cy="105.61144454175465" r="4" fill="#3b82f6" stroke="#0d1117" stroke-width="2" class="data-point"/>
  
    <circle cx="649.6265560165975" cy="104.21539333367679" r="4" fill="#3b82f6" stroke="#0d1117" stroke-width="2" class="data-point"/>
  
    <circle cx="652.5311203319502" cy="102.69943588686826" r="4" fill="#3b82f6" stroke="#0d1117" stroke-width="2" class="data-point"/>
  
    <circle cx="655.4356846473029" cy="100.60841790737211" r="4" fill="#3b82f6" stroke="#0d1117" stroke-width="2" class="data-point"/>
  
    <circle cx="658.3402489626556" cy="98.89180104064704" r="4" fill="#3b82f6" stroke="#0d1117" stroke-width="2" class="data-point"/>
  
    <circle cx="661.2448132780082" cy="97.05038380299831" r="4" fill="#3b82f6" stroke="#0d1117" stroke-width="2" class="data-point"/>
  
    <circle cx="664.149377593361" cy="95.21508423059089" r="4" fill="#3b82f6" stroke="#0d1117" stroke-width="2" class="data-point"/>
  
    <circle cx="667.0539419087137" cy="93.50580856215547" r="4" fill="#3b82f6" stroke="#0d1117" stroke-width="2" class="data-point"/>
  
    <circle cx="669.9585062240664" cy="91.82834475297511" r="4" fill="#3b82f6" stroke="#0d1117" stroke-width="2" class="data-point"/>
  
    <circle cx="672.8630705394191" cy="90.05299829993302" r="4" fill="#3b82f6" stroke="#0d1117" stroke-width="2" class="data-point"/>
  
    <circle cx="675.7676348547718" cy="88.46118180413168" r="4" fill="#3b82f6" stroke="#0d1117" stroke-width="2" class="data-point"/>
  
    <circle cx="678.6721991701245" cy="87.06635412910205" r="4" fill="#3b82f6" stroke="#0d1117" stroke-width="2" class="data-point"/>
  
    <circle cx="681.5767634854772" cy="85.77430323012723" r="4" fill="#3b82f6" stroke="#0d1117" stroke-width="2" class="data-point"/>
  
    <circle cx="684.48132780083" cy="84.40761681520786" r="4" fill="#3b82f6" stroke="#0d1117" stroke-width="2" class="data-point"/>
  
    <circle cx="687.3858921161826" cy="83.07396579259182" r="4" fill="#3b82f6" stroke="#0d1117" stroke-width="2" class="data-point"/>
  
    <circle cx="690.2904564315353" cy="81.8687857400443" r="4" fill="#3b82f6" stroke="#0d1117" stroke-width="2" class="data-point"/>
  
    <circle cx="693.195020746888" cy="80.66115862140026" r="4" fill="#3b82f6" stroke="#0d1117" stroke-width="2" class="data-point"/>
  
    <circle cx="696.0995850622406" cy="79.50491989078358" r="4" fill="#3b82f6" stroke="#0d1117" stroke-width="2" class="data-point"/>
  
    <circle cx="699.0041493775933" cy="78.35602235845653" r="4" fill="#3b82f6" stroke="#0d1117" stroke-width="2" class="data-point"/>
  
    <circle cx="701.908713692946" cy="77.20957189222605" r="4" fill="#3b82f6" stroke="#0d1117" stroke-width="2" class="data-point"/>
  
    <circle cx="704.8132780082988" cy="76.19771006130543" r="4" fill="#3b82f6" stroke="#0d1117" stroke-width="2" class="data-point"/>
  
    <circle cx="707.7178423236514" cy="75.02067126886817" r="4" fill="#3b82f6" stroke="#0d1117" stroke-width="2" class="data-point"/>
  
    <circle cx="710.6224066390042" cy="73.80692648498274" r="4" fill="#3b82f6" stroke="#0d1117" stroke-width="2" class="data-point"/>
  
    <circle cx="713.5269709543569" cy="72.42433414043586" r="4" fill="#3b82f6" stroke="#0d1117" stroke-width="2" class="data-point"/>
  
    <circle cx="716.4315352697096" cy="71.09190665086805" r="4" fill="#3b82f6" stroke="#0d1117" stroke-width="2" class="data-point"/>
  
    <circle cx="719.3360995850622" cy="69.89896192880326" r="4" fill="#3b82f6" stroke="#0d1117" stroke-width="2" class="data-point"/>
  
    <circle cx="722.2406639004149" cy="68.85161763948275" r="4" fill="#3b82f6" stroke="#0d1117" stroke-width="2" class="data-point"/>
  
    <circle cx="725.1452282157676" cy="67.77123795785894" r="4" fill="#3b82f6" stroke="#0d1117" stroke-width="2" class="data-point"/>
  
    <circle cx="728.0497925311204" cy="66.78996445314516" r="4" fill="#3b82f6" stroke="#0d1117" stroke-width="2" class="data-point"/>
  
    <circle cx="730.954356846473" cy="65.65697285044564" r="4" fill="#3b82f6" stroke="#0d1117" stroke-width="2" class="data-point"/>
  
    <circle cx="733.8589211618257" cy="64.54600484261499" r="4" fill="#3b82f6" stroke="#0d1117" stroke-width="2" class="data-point"/>
  
    <circle cx="736.7634854771784" cy="63.482754623667006" r="4" fill="#3b82f6" stroke="#0d1117" stroke-width="2" class="data-point"/>
  
    <circle cx="739.6680497925311" cy="62.401151408994906" r="4" fill="#3b82f6" stroke="#0d1117" stroke-width="2" class="data-point"/>
  
    <circle cx="742.5726141078839" cy="61.24001854618513" r="4" fill="#3b82f6" stroke="#0d1117" stroke-width="2" class="data-point"/>
  
    <circle cx="745.4771784232365" cy="60.1180387409201" r="4" fill="#3b82f6" stroke="#0d1117" stroke-width="2" class="data-point"/>
  
    <circle cx="748.3817427385892" cy="59.01563546442742" r="4" fill="#3b82f6" stroke="#0d1117" stroke-width="2" class="data-point"/>
  
    <circle cx="751.286307053942" cy="58.06495028592036" r="4" fill="#3b82f6" stroke="#0d1117" stroke-width="2" class="data-point"/>
  
    <circle cx="754.1908713692947" cy="57.091017979496144" r="4" fill="#3b82f6" stroke="#0d1117" stroke-width="2" class="data-point"/>
  
    <circle cx="757.0954356846473" cy="56.07548554943071" r="4" fill="#3b82f6" stroke="#0d1117" stroke-width="2" class="data-point"/>
  
    <circle cx="760" cy="55" r="4" fill="#3b82f6" stroke="#0d1117" stroke-width="2" class="data-point"/>
  

  <!-- Axis lines -->
  <line x1="60" y1="55" x2="60" y2="340"
        stroke="#30363d" stroke-width="2"/>
  <line x1="60" y1="340" x2="760" y2="340"
        stroke="#30363d" stroke-width="2"/>
</svg>