<?xml version="1.0" encoding="UTF-8"?>
<svg width="800" height="400" xmlns="http://www.w3.org/2000/svg">
  <defs>
    <!-- Gradient for area fill -->
    <linearGradient id="areaGradient" x1="0%" y1="0%" x2="0%" y2="100%">
      <stop offset="0%" style="stop-color:#3b82f6;stop-opacity:0.3" />
      <stop offset="100%" style="stop-color:#3b82f6;stop-opacity:0.05" />
    </linearGradient>

    <!-- Glow filter for line -->
    <filter id="glow">
      <feGaussianBlur stdDeviation="2" result="coloredBlur"/>
      <feMerge>
        <feMergeNode in="coloredBlur"/>
        <feMergeNode in="SourceGraphic"/>
      </feMerge>
    </filter>

    <!-- Animation -->
    <style>
      @keyframes draw {
        from { stroke-dashoffset: 2000; }
        to { stroke-dashoffset: 0; }
      }
      @keyframes fadeIn {
        from { opacity: 0; }
        to { opacity: 1; }
      }
      .line-path {
        stroke-dasharray: 2000;
        stroke-dashoffset: 2000;
        animation: draw 1.5s ease-out forwards;
      }
      .area-path {
        opacity: 0;
        animation: fadeIn 1s ease-out 0.5s forwards;
      }
      .data-point {
        opacity: 0;
        animation: fadeIn 0.5s ease-out 1s forwards;
      }
    </style>
  </defs>

  <!-- Background -->
  <rect width="800" height="400" fill="#0d1117" rx="8"/>

  <!-- Title -->
  <text x="400" y="25" text-anchor="middle" fill="#c9d1d9" font-family="system-ui, -apple-system, sans-serif" font-size="16" font-weight="600">
    zxcloli666/SoundCloud-Desktop Downloads
  </text>

  <!-- Stats -->
  <text x="780" y="25" text-anchor="end" fill="#58a6ff" font-family="system-ui, -apple-system, sans-serif" font-size="14" font-weight="600">
    216.8K total
  </text>
  <text x="780" y="42" text-anchor="end" fill="#3fb950" font-family="system-ui, -apple-system, sans-serif" font-size="12">
    +1.4K (+0.7%)
  </text>

  <!-- Grid lines -->
  <g opacity="0.1">
    
      <line x1="60" y1="340" x2="760" y2="340"
            stroke="#c9d1d9" stroke-width="1"/>
    
      <line x1="60" y1="268.75" x2="760" y2="268.75"
            stroke="#c9d1d9" stroke-width="1"/>
    
      <line x1="60" y1="197.5" x2="760" y2="197.5"
            stroke="#c9d1d9" stroke-width="1"/>
    
      <line x1="60" y1="126.25" x2="760" y2="126.25"
            stroke="#c9d1d9" stroke-width="1"/>
    
      <line x1="60" y1="55" x2="760" y2="55"
            stroke="#c9d1d9" stroke-width="1"/>
    
  </g>

  <!-- Y-axis labels -->
  
    <text x="50" y="344" text-anchor="end"
          fill="#8b949e" font-family="system-ui, -apple-system, sans-serif" font-size="11">
      60.2K
    </text>
  
    <text x="50" y="272.75" text-anchor="end"
          fill="#8b949e" font-family="system-ui, -apple-system, sans-serif" font-size="11">
      99.3K
    </text>
  
    <text x="50" y="201.5" text-anchor="end"
          fill="#8b949e" font-family="system-ui, -apple-system, sans-serif" font-size="11">
      138.5K
    </text>
  
    <text x="50" y="130.25" text-anchor="end"
          fill="#8b949e" font-family="system-ui, -apple-system, sans-serif" font-size="11">
      177.7K
    </text>
  
    <text x="50" y="59" text-anchor="end"
          fill="#8b949e" font-family="system-ui, -apple-system, sans-serif" font-size="11">
      216.8K
    </text>
  

  <!-- X-axis labels -->
  
    <text x="60" y="360" text-anchor="middle"
          fill="#8b949e" font-family="system-ui, -apple-system, sans-serif" font-size="11">
      Nov 25
    </text>
  
    <text x="144.48275862068965" y="360" text-anchor="middle"
          fill="#8b949e" font-family="system-ui, -apple-system, sans-serif" font-size="11">
      Dec 16
    </text>
  
    <text x="228.96551724137933" y="360" text-anchor="middle"
          fill="#8b949e" font-family="system-ui, -apple-system, sans-serif" font-size="11">
      Jan 6
    </text>
  
    <text x="313.44827586206895" y="360" text-anchor="middle"
          fill="#8b949e" font-family="system-ui, -apple-system, sans-serif" font-size="11">
      Jan 27
    </text>
  
    <text x="397.93103448275866" y="360" text-anchor="middle"
          fill="#8b949e" font-family="system-ui, -apple-system, sans-serif" font-size="11">
      Feb 17
    </text>
  
    <text x="482.41379310344826" y="360" text-anchor="middle"
          fill="#8b949e" font-family="system-ui, -apple-system, sans-serif" font-size="11">
      Mar 10
    </text>
  
    <text x="566.8965517241379" y="360" text-anchor="middle"
          fill="#8b949e" font-family="system-ui, -apple-system, sans-serif" font-size="11">
      Mar 31
    </text>
  
    <text x="651.3793103448276" y="360" text-anchor="middle"
          fill="#8b949e" font-family="system-ui, -apple-system, sans-serif" font-size="11">
      Apr 21
    </text>
  
    <text x="735.8620689655173" y="360" text-anchor="middle"
          fill="#8b949e" font-family="system-ui, -apple-system, sans-serif" font-size="11">
      May 12
    </text>
  
    <text x="760" y="360" text-anchor="middle"
          fill="#8b949e" font-family="system-ui, -apple-system, sans-serif" font-size="11">
      May 18
    </text>
  

  <!-- Area under line -->
  <path d="M 60 340
    L 60.00 340.00 L 64.02 339.73 L 68.05 339.28 L 72.07 338.86 L 76.09 338.02 L 80.11 337.15 L 84.14 336.47 L 88.16 335.83 L 92.18 335.27 L 96.21 334.60 L 100.23 333.86 L 104.25 333.07 L 108.28 332.35 L 112.30 331.58 L 116.32 331.03 L 120.34 330.45 L 124.37 329.66 L 128.39 329.14 L 132.41 328.41 L 136.44 327.57 L 140.46 326.93 L 144.48 326.41 L 148.51 326.08 L 152.53 325.80 L 156.55 325.28 L 160.57 324.91 L 164.60 324.10 L 168.62 323.78 L 172.64 323.37 L 176.67 322.84 L 180.69 322.48 L 184.71 322.11 L 188.74 321.72 L 192.76 321.45 L 196.78 321.22 L 200.80 320.86 L 204.83 320.43 L 208.85 320.04 L 212.87 319.53 L 216.90 318.99 L 220.92 318.48 L 224.94 317.88 L 228.97 317.28 L 232.99 316.69 L 237.01 316.04 L 241.03 315.42 L 245.06 314.70 L 249.08 314.07 L 253.10 313.53 L 257.13 313.10 L 261.15 312.50 L 265.17 311.82 L 269.20 311.19 L 273.22 310.46 L 277.24 309.55 L 281.26 308.88 L 285.29 308.32 L 289.31 307.79 L 293.33 307.15 L 297.36 306.41 L 301.38 305.59 L 305.40 304.72 L 309.43 303.89 L 313.45 303.16 L 317.47 302.44 L 321.49 301.80 L 325.52 301.15 L 329.54 300.42 L 333.56 299.52 L 337.59 298.84 L 341.61 298.24 L 345.63 297.57 L 349.66 296.94 L 353.68 296.25 L 357.70 295.54 L 361.72 294.79 L 365.75 294.13 L 369.77 293.57 L 373.79 292.95 L 377.82 292.29 L 381.84 291.67 L 385.86 290.86 L 389.89 290.17 L 393.91 289.50 L 397.93 288.95 L 401.95 288.41 L 405.98 287.87 L 410.00 287.22 L 414.02 286.56 L 418.05 285.75 L 422.07 285.10 L 426.09 284.57 L 430.11 284.02 L 434.14 283.49 L 438.16 282.85 L 442.18 282.18 L 446.21 280.72 L 450.23 277.79 L 454.25 274.31 L 458.28 271.14 L 462.30 269.54 L 466.32 267.11 L 470.34 265.50 L 474.37 264.09 L 478.39 262.71 L 482.41 261.41 L 486.44 259.39 L 490.46 257.78 L 494.48 255.73 L 498.51 255.30 L 502.53 255.25 L 506.55 255.18 L 510.57 255.12 L 514.60 255.04 L 518.62 254.97 L 522.64 254.94 L 526.67 254.84 L 530.69 254.75 L 534.71 254.68 L 538.74 254.66 L 542.76 254.55 L 546.78 251.92 L 550.80 247.79 L 554.83 245.02 L 558.85 241.81 L 562.87 238.50 L 566.90 235.90 L 570.92 232.99 L 574.94 228.57 L 578.97 222.60 L 582.99 218.71 L 587.01 214.08 L 591.03 208.92 L 595.06 204.78 L 599.08 200.28 L 603.10 196.30 L 607.13 192.35 L 611.15 188.41 L 615.17 183.05 L 619.20 177.67 L 623.22 173.19 L 627.24 169.43 L 631.26 165.78 L 635.29 160.95 L 639.31 157.19 L 643.33 153.48 L 647.36 150.01 L 651.38 146.74 L 655.40 143.39 L 659.43 140.52 L 663.45 137.56 L 667.47 134.53 L 671.49 131.33 L 675.52 128.39 L 679.54 125.70 L 683.56 120.82 L 687.59 116.74 L 691.61 112.83 L 695.63 109.06 L 699.66 103.12 L 703.68 99.36 L 707.70 96.11 L 711.72 92.26 L 715.75 86.60 L 719.77 82.52 L 723.79 79.08 L 727.82 76.17 L 731.84 73.40 L 735.86 71.16 L 739.89 68.63 L 743.91 66.56 L 747.93 64.13 L 751.95 60.63 L 755.98 57.62 L 760.00 55.00
    L 760 340
    Z" fill="url(#areaGradient)" class="area-path"/>

  <!-- Main line with glow -->
  <path d="M 60.00 340.00 L 64.02 339.73 L 68.05 339.28 L 72.07 338.86 L 76.09 338.02 L 80.11 337.15 L 84.14 336.47 L 88.16 335.83 L 92.18 335.27 L 96.21 334.60 L 100.23 333.86 L 104.25 333.07 L 108.28 332.35 L 112.30 331.58 L 116.32 331.03 L 120.34 330.45 L 124.37 329.66 L 128.39 329.14 L 132.41 328.41 L 136.44 327.57 L 140.46 326.93 L 144.48 326.41 L 148.51 326.08 L 152.53 325.80 L 156.55 325.28 L 160.57 324.91 L 164.60 324.10 L 168.62 323.78 L 172.64 323.37 L 176.67 322.84 L 180.69 322.48 L 184.71 322.11 L 188.74 321.72 L 192.76 321.45 L 196.78 321.22 L 200.80 320.86 L 204.83 320.43 L 208.85 320.04 L 212.87 319.53 L 216.90 318.99 L 220.92 318.48 L 224.94 317.88 L 228.97 317.28 L 232.99 316.69 L 237.01 316.04 L 241.03 315.42 L 245.06 314.70 L 249.08 314.07 L 253.10 313.53 L 257.13 313.10 L 261.15 312.50 L 265.17 311.82 L 269.20 311.19 L 273.22 310.46 L 277.24 309.55 L 281.26 308.88 L 285.29 308.32 L 289.31 307.79 L 293.33 307.15 L 297.36 306.41 L 301.38 305.59 L 305.40 304.72 L 309.43 303.89 L 313.45 303.16 L 317.47 302.44 L 321.49 301.80 L 325.52 301.15 L 329.54 300.42 L 333.56 299.52 L 337.59 298.84 L 341.61 298.24 L 345.63 297.57 L 349.66 296.94 L 353.68 296.25 L 357.70 295.54 L 361.72 294.79 L 365.75 294.13 L 369.77 293.57 L 373.79 292.95 L 377.82 292.29 L 381.84 291.67 L 385.86 290.86 L 389.89 290.17 L 393.91 289.50 L 397.93 288.95 L 401.95 288.41 L 405.98 287.87 L 410.00 287.22 L 414.02 286.56 L 418.05 285.75 L 422.07 285.10 L 426.09 284.57 L 430.11 284.02 L 434.14 283.49 L 438.16 282.85 L 442.18 282.18 L 446.21 280.72 L 450.23 277.79 L 454.25 274.31 L 458.28 271.14 L 462.30 269.54 L 466.32 267.11 L 470.34 265.50 L 474.37 264.09 L 478.39 262.71 L 482.41 261.41 L 486.44 259.39 L 490.46 257.78 L 494.48 255.73 L 498.51 255.30 L 502.53 255.25 L 506.55 255.18 L 510.57 255.12 L 514.60 255.04 L 518.62 254.97 L 522.64 254.94 L 526.67 254.84 L 530.69 254.75 L 534.71 254.68 L 538.74 254.66 L 542.76 254.55 L 546.78 251.92 L 550.80 247.79 L 554.83 245.02 L 558.85 241.81 L 562.87 238.50 L 566.90 235.90 L 570.92 232.99 L 574.94 228.57 L 578.97 222.60 L 582.99 218.71 L 587.01 214.08 L 591.03 208.92 L 595.06 204.78 L 599.08 200.28 L 603.10 196.30 L 607.13 192.35 L 611.15 188.41 L 615.17 183.05 L 619.20 177.67 L 623.22 173.19 L 627.24 169.43 L 631.26 165.78 L 635.29 160.95 L 639.31 157.19 L 643.33 153.48 L 647.36 150.01 L 651.38 146.74 L 655.40 143.39 L 659.43 140.52 L 663.45 137.56 L 667.47 134.53 L 671.49 131.33 L 675.52 128.39 L 679.54 125.70 L 683.56 120.82 L 687.59 116.74 L 691.61 112.83 L 695.63 109.06 L 699.66 103.12 L 703.68 99.36 L 707.70 96.11 L 711.72 92.26 L 715.75 86.60 L 719.77 82.52 L 723.79 79.08 L 727.82 76.17 L 731.84 73.40 L 735.86 71.16 L 739.89 68.63 L 743.91 66.56 L 747.93 64.13 L 751.95 60.63 L 755.98 57.62 L 760.00 55.00" fill="none" stroke="#3b82f6" stroke-width="3"
        stroke-linecap="round" stroke-linejoin="round" filter="url(#glow)" class="line-path"/>

  <!-- Data points -->
  
    <circle cx="60" cy="340" r="4" fill="#3b82f6" stroke="#0d1117" stroke-width="2" class="data-point"/>
  
    <circle cx="64.02298850574712" cy="339.73261639595364" r="4" fill="#3b82f6" stroke="#0d1117" stroke-width="2" class="data-point"/>
  
    <circle cx="68.04597701149426" cy="339.2778823754667" r="4" fill="#3b82f6" stroke="#0d1117" stroke-width="2" class="data-point"/>
  
    <circle cx="72.06896551724138" cy="338.8558892044548" r="4" fill="#3b82f6" stroke="#0d1117" stroke-width="2" class="data-point"/>
  
    <circle cx="76.0919540229885" cy="338.01735967067685" r="4" fill="#3b82f6" stroke="#0d1117" stroke-width="2" class="data-point"/>
  
    <circle cx="80.11494252873564" cy="337.15154609566963" r="4" fill="#3b82f6" stroke="#0d1117" stroke-width="2" class="data-point"/>
  
    <circle cx="84.13793103448276" cy="336.46944506493924" r="4" fill="#3b82f6" stroke="#0d1117" stroke-width="2" class="data-point"/>
  
    <circle cx="88.16091954022988" cy="335.83281743625747" r="4" fill="#3b82f6" stroke="#0d1117" stroke-width="2" class="data-point"/>
  
    <circle cx="92.183908045977" cy="335.2671283147717" r="4" fill="#3b82f6" stroke="#0d1117" stroke-width="2" class="data-point"/>
  
    <circle cx="96.20689655172413" cy="334.6032166448607" r="4" fill="#3b82f6" stroke="#0d1117" stroke-width="2" class="data-point"/>
  
    <circle cx="100.22988505747126" cy="333.8629096595079" r="4" fill="#3b82f6" stroke="#0d1117" stroke-width="2" class="data-point"/>
  
    <circle cx="104.2528735632184" cy="333.06985352777866" r="4" fill="#3b82f6" stroke="#0d1117" stroke-width="2" class="data-point"/>
  
    <circle cx="108.27586206896552" cy="332.3495548393273" r="4" fill="#3b82f6" stroke="#0d1117" stroke-width="2" class="data-point"/>
  
    <circle cx="112.29885057471265" cy="331.5837827488273" r="4" fill="#3b82f6" stroke="#0d1117" stroke-width="2" class="data-point"/>
  
    <circle cx="116.32183908045977" cy="331.0253693716693" r="4" fill="#3b82f6" stroke="#0d1117" stroke-width="2" class="data-point"/>
  
    <circle cx="120.3448275862069" cy="330.44694769760986" r="4" fill="#3b82f6" stroke="#0d1117" stroke-width="2" class="data-point"/>
  
    <circle cx="124.36781609195403" cy="329.6611673102084" r="4" fill="#3b82f6" stroke="#0d1117" stroke-width="2" class="data-point"/>
  
    <circle cx="128.39080459770116" cy="329.1354947825254" r="4" fill="#3b82f6" stroke="#0d1117" stroke-width="2" class="data-point"/>
  
    <circle cx="132.41379310344826" cy="328.4079203497463" r="4" fill="#3b82f6" stroke="#0d1117" stroke-width="2" class="data-point"/>
  
    <circle cx="136.4367816091954" cy="327.5675718798864" r="4" fill="#3b82f6" stroke="#0d1117" stroke-width="2" class="data-point"/>
  
    <circle cx="140.45977011494253" cy="326.93458212336856" r="4" fill="#3b82f6" stroke="#0d1117" stroke-width="2" class="data-point"/>
  
    <circle cx="144.48275862068965" cy="326.41436640393147" r="4" fill="#3b82f6" stroke="#0d1117" stroke-width="2" class="data-point"/>
  
    <circle cx="148.5057471264368" cy="326.0778632287711" r="4" fill="#3b82f6" stroke="#0d1117" stroke-width="2" class="data-point"/>
  
    <circle cx="152.5287356321839" cy="325.79774707215114" r="4" fill="#3b82f6" stroke="#0d1117" stroke-width="2" class="data-point"/>
  
    <circle cx="156.55172413793105" cy="325.27935028879597" r="4" fill="#3b82f6" stroke="#0d1117" stroke-width="2" class="data-point"/>
  
    <circle cx="160.57471264367814" cy="324.91010626416056" r="4" fill="#3b82f6" stroke="#0d1117" stroke-width="2" class="data-point"/>
  
    <circle cx="164.5977011494253" cy="324.10067970769376" r="4" fill="#3b82f6" stroke="#0d1117" stroke-width="2" class="data-point"/>
  
    <circle cx="168.6206896551724" cy="323.7823658933529" r="4" fill="#3b82f6" stroke="#0d1117" stroke-width="2" class="data-point"/>
  
    <circle cx="172.64367816091954" cy="323.3712863388327" r="4" fill="#3b82f6" stroke="#0d1117" stroke-width="2" class="data-point"/>
  
    <circle cx="176.66666666666666" cy="322.84015700290394" r="4" fill="#3b82f6" stroke="#0d1117" stroke-width="2" class="data-point"/>
  
    <circle cx="180.6896551724138" cy="322.47636978651434" r="4" fill="#3b82f6" stroke="#0d1117" stroke-width="2" class="data-point"/>
  
    <circle cx="184.71264367816093" cy="322.10712576187893" r="4" fill="#3b82f6" stroke="#0d1117" stroke-width="2" class="data-point"/>
  
    <circle cx="188.73563218390805" cy="321.71969237642406" r="4" fill="#3b82f6" stroke="#0d1117" stroke-width="2" class="data-point"/>
  
    <circle cx="192.75862068965517" cy="321.45048983629573" r="4" fill="#3b82f6" stroke="#0d1117" stroke-width="2" class="data-point"/>
  
    <circle cx="196.7816091954023" cy="321.21766601780644" r="4" fill="#3b82f6" stroke="#0d1117" stroke-width="2" class="data-point"/>
  
    <circle cx="200.80459770114942" cy="320.8629734818266" r="4" fill="#3b82f6" stroke="#0d1117" stroke-width="2" class="data-point"/>
  
    <circle cx="204.82758620689654" cy="320.43188563040496" r="4" fill="#3b82f6" stroke="#0d1117" stroke-width="2" class="data-point"/>
  
    <circle cx="208.85057471264366" cy="320.03535756454033" r="4" fill="#3b82f6" stroke="#0d1117" stroke-width="2" class="data-point"/>
  
    <circle cx="212.8735632183908" cy="319.5333312059227" r="4" fill="#3b82f6" stroke="#0d1117" stroke-width="2" class="data-point"/>
  
    <circle cx="216.89655172413794" cy="318.9858314452564" r="4" fill="#3b82f6" stroke="#0d1117" stroke-width="2" class="data-point"/>
  
    <circle cx="220.91954022988506" cy="318.48380508663877" r="4" fill="#3b82f6" stroke="#0d1117" stroke-width="2" class="data-point"/>
  
    <circle cx="224.94252873563218" cy="317.8780993713502" r="4" fill="#3b82f6" stroke="#0d1117" stroke-width="2" class="data-point"/>
  
    <circle cx="228.96551724137933" cy="317.2833072725532" r="4" fill="#3b82f6" stroke="#0d1117" stroke-width="2" class="data-point"/>
  
    <circle cx="232.98850574712645" cy="316.6885151737563" r="4" fill="#3b82f6" stroke="#0d1117" stroke-width="2" class="data-point"/>
  
    <circle cx="237.01149425287358" cy="316.03733605641895" r="4" fill="#3b82f6" stroke="#0d1117" stroke-width="2" class="data-point"/>
  
    <circle cx="241.0344827586207" cy="315.41525991639276" r="4" fill="#3b82f6" stroke="#0d1117" stroke-width="2" class="data-point"/>
  
    <circle cx="245.05747126436782" cy="314.70405590835117" r="4" fill="#3b82f6" stroke="#0d1117" stroke-width="2" class="data-point"/>
  
    <circle cx="249.08045977011494" cy="314.0692472157514" r="4" fill="#3b82f6" stroke="#0d1117" stroke-width="2" class="data-point"/>
  
    <circle cx="253.10344827586206" cy="313.53266107157674" r="4" fill="#3b82f6" stroke="#0d1117" stroke-width="2" class="data-point"/>
  
    <circle cx="257.1264367816092" cy="313.103392156237" r="4" fill="#3b82f6" stroke="#0d1117" stroke-width="2" class="data-point"/>
  
    <circle cx="261.1494252873563" cy="312.50314324919424" r="4" fill="#3b82f6" stroke="#0d1117" stroke-width="2" class="data-point"/>
  
    <circle cx="265.17241379310343" cy="311.8174043462999" r="4" fill="#3b82f6" stroke="#0d1117" stroke-width="2" class="data-point"/>
  
    <circle cx="269.1954022988506" cy="311.1898713980279" r="4" fill="#3b82f6" stroke="#0d1117" stroke-width="2" class="data-point"/>
  
    <circle cx="273.2183908045977" cy="310.4568401570029" r="4" fill="#3b82f6" stroke="#0d1117" stroke-width="2" class="data-point"/>
  
    <circle cx="277.2413793103448" cy="309.5528289242748" r="4" fill="#3b82f6" stroke="#0d1117" stroke-width="2" class="data-point"/>
  
    <circle cx="281.264367816092" cy="308.87982257395413" r="4" fill="#3b82f6" stroke="#0d1117" stroke-width="2" class="data-point"/>
  
    <circle cx="285.28735632183907" cy="308.32140919679614" r="4" fill="#3b82f6" stroke="#0d1117" stroke-width="2" class="data-point"/>
  
    <circle cx="289.31034482758616" cy="307.7902798608674" r="4" fill="#3b82f6" stroke="#0d1117" stroke-width="2" class="data-point"/>
  
    <circle cx="293.3333333333333" cy="307.15183329610363" r="4" fill="#3b82f6" stroke="#0d1117" stroke-width="2" class="data-point"/>
  
    <circle cx="297.35632183908046" cy="306.4097073746689" r="4" fill="#3b82f6" stroke="#0d1117" stroke-width="2" class="data-point"/>
  
    <circle cx="301.3793103448276" cy="305.58754826562847" r="4" fill="#3b82f6" stroke="#0d1117" stroke-width="2" class="data-point"/>
  
    <circle cx="305.40229885057477" cy="304.7235536267033" r="4" fill="#3b82f6" stroke="#0d1117" stroke-width="2" class="data-point"/>
  
    <circle cx="309.42528735632186" cy="303.89411877333504" r="4" fill="#3b82f6" stroke="#0d1117" stroke-width="2" class="data-point"/>
  
    <circle cx="313.44827586206895" cy="303.1647254044739" r="4" fill="#3b82f6" stroke="#0d1117" stroke-width="2" class="data-point"/>
  
    <circle cx="317.4712643678161" cy="302.4407888438587" r="4" fill="#3b82f6" stroke="#0d1117" stroke-width="2" class="data-point"/>
  
    <circle cx="321.4942528735632" cy="301.802342279095" r="4" fill="#3b82f6" stroke="#0d1117" stroke-width="2" class="data-point"/>
  
    <circle cx="325.51724137931035" cy="301.15116316175767" r="4" fill="#3b82f6" stroke="#0d1117" stroke-width="2" class="data-point"/>
  
    <circle cx="329.54022988505744" cy="300.42358872897853" r="4" fill="#3b82f6" stroke="#0d1117" stroke-width="2" class="data-point"/>
  
    <circle cx="333.5632183908046" cy="299.5177585601685" r="4" fill="#3b82f6" stroke="#0d1117" stroke-width="2" class="data-point"/>
  
    <circle cx="337.58620689655174" cy="298.8429332737658" r="4" fill="#3b82f6" stroke="#0d1117" stroke-width="2" class="data-point"/>
  
    <circle cx="341.60919540229884" cy="298.23904649455915" r="4" fill="#3b82f6" stroke="#0d1117" stroke-width="2" class="data-point"/>
  
    <circle cx="345.632183908046" cy="297.5678590803204" r="4" fill="#3b82f6" stroke="#0d1117" stroke-width="2" class="data-point"/>
  
    <circle cx="349.6551724137931" cy="296.94214506813034" r="4" fill="#3b82f6" stroke="#0d1117" stroke-width="2" class="data-point"/>
  
    <circle cx="353.67816091954023" cy="296.254587229154" r="4" fill="#3b82f6" stroke="#0d1117" stroke-width="2" class="data-point"/>
  
    <circle cx="357.7011494252873" cy="295.53792641286657" r="4" fill="#3b82f6" stroke="#0d1117" stroke-width="2" class="data-point"/>
  
    <circle cx="361.7241379310345" cy="294.7885247471041" r="4" fill="#3b82f6" stroke="#0d1117" stroke-width="2" class="data-point"/>
  
    <circle cx="365.7471264367816" cy="294.1318888215209" r="4" fill="#3b82f6" stroke="#0d1117" stroke-width="2" class="data-point"/>
  
    <circle cx="369.7701149425287" cy="293.569837572199" r="4" fill="#3b82f6" stroke="#0d1117" stroke-width="2" class="data-point"/>
  
    <circle cx="373.7931034482759" cy="292.95321824041866" r="4" fill="#3b82f6" stroke="#0d1117" stroke-width="2" class="data-point"/>
  
    <circle cx="377.81609195402297" cy="292.2856686983438" r="4" fill="#3b82f6" stroke="#0d1117" stroke-width="2" class="data-point"/>
  
    <circle cx="381.8390804597701" cy="291.66723043048154" r="4" fill="#3b82f6" stroke="#0d1117" stroke-width="2" class="data-point"/>
  
    <circle cx="385.8620689655172" cy="290.8614417461786" r="4" fill="#3b82f6" stroke="#0d1117" stroke-width="2" class="data-point"/>
  
    <circle cx="389.88505747126436" cy="290.1684270989565" r="4" fill="#3b82f6" stroke="#0d1117" stroke-width="2" class="data-point"/>
  
    <circle cx="393.90804597701145" cy="289.5008775568816" r="4" fill="#3b82f6" stroke="#0d1117" stroke-width="2" class="data-point"/>
  
    <circle cx="397.93103448275866" cy="288.9461020518876" r="4" fill="#3b82f6" stroke="#0d1117" stroke-width="2" class="data-point"/>
  
    <circle cx="401.95402298850576" cy="288.40769697163097" r="4" fill="#3b82f6" stroke="#0d1117" stroke-width="2" class="data-point"/>
  
    <circle cx="405.9770114942529" cy="287.86747295529244" r="4" fill="#3b82f6" stroke="#0d1117" stroke-width="2" class="data-point"/>
  
    <circle cx="410" cy="287.221750646201" r="4" fill="#3b82f6" stroke="#0d1117" stroke-width="2" class="data-point"/>
  
    <circle cx="414.02298850574715" cy="286.55783897629" r="4" fill="#3b82f6" stroke="#0d1117" stroke-width="2" class="data-point"/>
  
    <circle cx="418.04597701149424" cy="285.75205029198713" r="4" fill="#3b82f6" stroke="#0d1117" stroke-width="2" class="data-point"/>
  
    <circle cx="422.0689655172414" cy="285.0990522385678" r="4" fill="#3b82f6" stroke="#0d1117" stroke-width="2" class="data-point"/>
  
    <circle cx="426.0919540229885" cy="284.5661039665571" r="4" fill="#3b82f6" stroke="#0d1117" stroke-width="2" class="data-point"/>
  
    <circle cx="430.11494252873564" cy="284.0186042058908" r="4" fill="#3b82f6" stroke="#0d1117" stroke-width="2" class="data-point"/>
  
    <circle cx="434.13793103448273" cy="283.49475061428984" r="4" fill="#3b82f6" stroke="#0d1117" stroke-width="2" class="data-point"/>
  
    <circle cx="438.1609195402299" cy="282.8472093691164" r="4" fill="#3b82f6" stroke="#0d1117" stroke-width="2" class="data-point"/>
  
    <circle cx="442.18390804597703" cy="282.1832976992054" r="4" fill="#3b82f6" stroke="#0d1117" stroke-width="2" class="data-point"/>
  
    <circle cx="446.2068965517241" cy="280.7154162810735" r="4" fill="#3b82f6" stroke="#0d1117" stroke-width="2" class="data-point"/>
  
    <circle cx="450.2298850574713" cy="277.7942049334652" r="4" fill="#3b82f6" stroke="#0d1117" stroke-width="2" class="data-point"/>
  
    <circle cx="454.2528735632184" cy="274.314580208699" r="4" fill="#3b82f6" stroke="#0d1117" stroke-width="2" class="data-point"/>
  
    <circle cx="458.2758620689655" cy="271.1441746178639" r="4" fill="#3b82f6" stroke="#0d1117" stroke-width="2" class="data-point"/>
  
    <circle cx="462.2988505747126" cy="269.53623512142195" r="4" fill="#3b82f6" stroke="#0d1117" stroke-width="2" class="data-point"/>
  
    <circle cx="466.32183908045977" cy="267.1134122602674" r="4" fill="#3b82f6" stroke="#0d1117" stroke-width="2" class="data-point"/>
  
    <circle cx="470.34482758620686" cy="265.50365382774356" r="4" fill="#3b82f6" stroke="#0d1117" stroke-width="2" class="data-point"/>
  
    <circle cx="474.367816091954" cy="264.092159428152" r="4" fill="#3b82f6" stroke="#0d1117" stroke-width="2" class="data-point"/>
  
    <circle cx="478.39080459770116" cy="262.7115869419536" r="4" fill="#3b82f6" stroke="#0d1117" stroke-width="2" class="data-point"/>
  
    <circle cx="482.41379310344826" cy="261.4110476433609" r="4" fill="#3b82f6" stroke="#0d1117" stroke-width="2" class="data-point"/>
  
    <circle cx="486.4367816091954" cy="259.38839072023484" r="4" fill="#3b82f6" stroke="#0d1117" stroke-width="2" class="data-point"/>
  
    <circle cx="490.4597701149425" cy="257.78045122379297" r="4" fill="#3b82f6" stroke="#0d1117" stroke-width="2" class="data-point"/>
  
    <circle cx="494.48275862068965" cy="255.72505345119188" r="4" fill="#3b82f6" stroke="#0d1117" stroke-width="2" class="data-point"/>
  
    <circle cx="498.50574712643675" cy="255.30487921626192" r="4" fill="#3b82f6" stroke="#0d1117" stroke-width="2" class="data-point"/>
  
    <circle cx="502.5287356321839" cy="255.2503111338035" r="4" fill="#3b82f6" stroke="#0d1117" stroke-width="2" class="data-point"/>
  
    <circle cx="506.55172413793105" cy="255.17937262660752" r="4" fill="#3b82f6" stroke="#0d1117" stroke-width="2" class="data-point"/>
  
    <circle cx="510.57471264367814" cy="255.11934773590326" r="4" fill="#3b82f6" stroke="#0d1117" stroke-width="2" class="data-point"/>
  
    <circle cx="514.5977011494253" cy="255.0411334843795" r="4" fill="#3b82f6" stroke="#0d1117" stroke-width="2" class="data-point"/>
  
    <circle cx="518.6206896551723" cy="254.97201391326547" r="4" fill="#3b82f6" stroke="#0d1117" stroke-width="2" class="data-point"/>
  
    <circle cx="522.6436781609195" cy="254.94472987203625" r="4" fill="#3b82f6" stroke="#0d1117" stroke-width="2" class="data-point"/>
  
    <circle cx="526.6666666666666" cy="254.84468838752912" r="4" fill="#3b82f6" stroke="#0d1117" stroke-width="2" class="data-point"/>
  
    <circle cx="530.6896551724137" cy="254.74828477518588" r="4" fill="#3b82f6" stroke="#0d1117" stroke-width="2" class="data-point"/>
  
    <circle cx="534.7126436781609" cy="254.6846220123177" r="4" fill="#3b82f6" stroke="#0d1117" stroke-width="2" class="data-point"/>
  
    <circle cx="538.735632183908" cy="254.66097584325237" r="4" fill="#3b82f6" stroke="#0d1117" stroke-width="2" class="data-point"/>
  
    <circle cx="542.7586206896552" cy="254.55365861441746" r="4" fill="#3b82f6" stroke="#0d1117" stroke-width="2" class="data-point"/>
  
    <circle cx="546.7816091954023" cy="251.91620129559305" r="4" fill="#3b82f6" stroke="#0d1117" stroke-width="2" class="data-point"/>
  
    <circle cx="550.8045977011495" cy="247.7853974534895" r="4" fill="#3b82f6" stroke="#0d1117" stroke-width="2" class="data-point"/>
  
    <circle cx="554.8275862068965" cy="245.0187956728468" r="4" fill="#3b82f6" stroke="#0d1117" stroke-width="2" class="data-point"/>
  
    <circle cx="558.8505747126437" cy="241.8065545521269" r="4" fill="#3b82f6" stroke="#0d1117" stroke-width="2" class="data-point"/>
  
    <circle cx="562.8735632183907" cy="238.49609088298178" r="4" fill="#3b82f6" stroke="#0d1117" stroke-width="2" class="data-point"/>
  
    <circle cx="566.8965517241379" cy="235.89865015796025" r="4" fill="#3b82f6" stroke="#0d1117" stroke-width="2" class="data-point"/>
  
    <circle cx="570.9195402298851" cy="232.99380923508951" r="4" fill="#3b82f6" stroke="#0d1117" stroke-width="2" class="data-point"/>
  
    <circle cx="574.9425287356322" cy="228.56833774771036" r="4" fill="#3b82f6" stroke="#0d1117" stroke-width="2" class="data-point"/>
  
    <circle cx="578.9655172413793" cy="222.60404633500335" r="4" fill="#3b82f6" stroke="#0d1117" stroke-width="2" class="data-point"/>
  
    <circle cx="582.9885057471264" cy="218.71152311963493" r="4" fill="#3b82f6" stroke="#0d1117" stroke-width="2" class="data-point"/>
  
    <circle cx="587.0114942528736" cy="214.07869291891376" r="4" fill="#3b82f6" stroke="#0d1117" stroke-width="2" class="data-point"/>
  
    <circle cx="591.0344827586207" cy="208.9165523183457" r="4" fill="#3b82f6" stroke="#0d1117" stroke-width="2" class="data-point"/>
  
    <circle cx="595.0574712643678" cy="204.7766537958324" r="4" fill="#3b82f6" stroke="#0d1117" stroke-width="2" class="data-point"/>
  
    <circle cx="599.0804597701149" cy="200.2838816734212" r="4" fill="#3b82f6" stroke="#0d1117" stroke-width="2" class="data-point"/>
  
    <circle cx="603.1034482758621" cy="196.29859271787345" r="4" fill="#3b82f6" stroke="#0d1117" stroke-width="2" class="data-point"/>
  
    <circle cx="607.1264367816092" cy="192.34968248396464" r="4" fill="#3b82f6" stroke="#0d1117" stroke-width="2" class="data-point"/>
  
    <circle cx="611.1494252873563" cy="188.41168586654751" r="4" fill="#3b82f6" stroke="#0d1117" stroke-width="2" class="data-point"/>
  
    <circle cx="615.1724137931035" cy="183.04946229696523" r="4" fill="#3b82f6" stroke="#0d1117" stroke-width="2" class="data-point"/>
  
    <circle cx="619.1954022988506" cy="177.67086830264546" r="4" fill="#3b82f6" stroke="#0d1117" stroke-width="2" class="data-point"/>
  
    <circle cx="623.2183908045977" cy="173.18719086064397" r="4" fill="#3b82f6" stroke="#0d1117" stroke-width="2" class="data-point"/>
  
    <circle cx="627.2413793103448" cy="169.42926891533972" r="4" fill="#3b82f6" stroke="#0d1117" stroke-width="2" class="data-point"/>
  
    <circle cx="631.264367816092" cy="165.7841210071162" r="4" fill="#3b82f6" stroke="#0d1117" stroke-width="2" class="data-point"/>
  
    <circle cx="635.2873563218391" cy="160.9457510291349" r="4" fill="#3b82f6" stroke="#0d1117" stroke-width="2" class="data-point"/>
  
    <circle cx="639.3103448275862" cy="157.19328589207646" r="4" fill="#3b82f6" stroke="#0d1117" stroke-width="2" class="data-point"/>
  
    <circle cx="643.3333333333334" cy="153.48083734882087" r="4" fill="#3b82f6" stroke="#0d1117" stroke-width="2" class="data-point"/>
  
    <circle cx="647.3563218390805" cy="150.00848836838242" r="4" fill="#3b82f6" stroke="#0d1117" stroke-width="2" class="data-point"/>
  
    <circle cx="651.3793103448276" cy="146.7380412930402" r="4" fill="#3b82f6" stroke="#0d1117" stroke-width="2" class="data-point"/>
  
    <circle cx="655.4022988505747" cy="143.3875610300922" r="4" fill="#3b82f6" stroke="#0d1117" stroke-width="2" class="data-point"/>
  
    <circle cx="659.4252873563219" cy="140.52273670102434" r="4" fill="#3b82f6" stroke="#0d1117" stroke-width="2" class="data-point"/>
  
    <circle cx="663.448275862069" cy="137.55605195136738" r="4" fill="#3b82f6" stroke="#0d1117" stroke-width="2" class="data-point"/>
  
    <circle cx="667.471264367816" cy="134.52752337492421" r="4" fill="#3b82f6" stroke="#0d1117" stroke-width="2" class="data-point"/>
  
    <circle cx="671.4942528735633" cy="131.32619587069598" r="4" fill="#3b82f6" stroke="#0d1117" stroke-width="2" class="data-point"/>
  
    <circle cx="675.5172413793103" cy="128.38861409835022" r="4" fill="#3b82f6" stroke="#0d1117" stroke-width="2" class="data-point"/>
  
    <circle cx="679.5402298850574" cy="125.69840763314932" r="4" fill="#3b82f6" stroke="#0d1117" stroke-width="2" class="data-point"/>
  
    <circle cx="683.5632183908045" cy="120.82365893352906" r="4" fill="#3b82f6" stroke="#0d1117" stroke-width="2" class="data-point"/>
  
    <circle cx="687.5862068965517" cy="116.74378530172001" r="4" fill="#3b82f6" stroke="#0d1117" stroke-width="2" class="data-point"/>
  
    <circle cx="691.6091954022988" cy="112.82579698120432" r="4" fill="#3b82f6" stroke="#0d1117" stroke-width="2" class="data-point"/>
  
    <circle cx="695.6321839080459" cy="109.0624182276542" r="4" fill="#3b82f6" stroke="#0d1117" stroke-width="2" class="data-point"/>
  
    <circle cx="699.6551724137931" cy="103.11995404793055" r="4" fill="#3b82f6" stroke="#0d1117" stroke-width="2" class="data-point"/>
  
    <circle cx="703.6781609195402" cy="99.36021316654436" r="4" fill="#3b82f6" stroke="#0d1117" stroke-width="2" class="data-point"/>
  
    <circle cx="707.7011494252873" cy="96.1061365159396" r="4" fill="#3b82f6" stroke="#0d1117" stroke-width="2" class="data-point"/>
  
    <circle cx="711.7241379310344" cy="92.26272457478379" r="4" fill="#3b82f6" stroke="#0d1117" stroke-width="2" class="data-point"/>
  
    <circle cx="715.7471264367816" cy="86.59673867951622" r="4" fill="#3b82f6" stroke="#0d1117" stroke-width="2" class="data-point"/>
  
    <circle cx="719.7701149425287" cy="82.52050291987109" r="4" fill="#3b82f6" stroke="#0d1117" stroke-width="2" class="data-point"/>
  
    <circle cx="723.7931034482758" cy="79.07907585282572" r="4" fill="#3b82f6" stroke="#0d1117" stroke-width="2" class="data-point"/>
  
    <circle cx="727.8160919540229" cy="76.1669591856272" r="4" fill="#3b82f6" stroke="#0d1117" stroke-width="2" class="data-point"/>
  
    <circle cx="731.8390804597701" cy="73.4039952771484" r="4" fill="#3b82f6" stroke="#0d1117" stroke-width="2" class="data-point"/>
  
    <circle cx="735.8620689655173" cy="71.15760921594278" r="4" fill="#3b82f6" stroke="#0d1117" stroke-width="2" class="data-point"/>
  
    <circle cx="739.8850574712643" cy="68.62746912595333" r="4" fill="#3b82f6" stroke="#0d1117" stroke-width="2" class="data-point"/>
  
    <circle cx="743.9080459770115" cy="66.56479560902449" r="4" fill="#3b82f6" stroke="#0d1117" stroke-width="2" class="data-point"/>
  
    <circle cx="747.9310344827586" cy="64.13105913137827" r="4" fill="#3b82f6" stroke="#0d1117" stroke-width="2" class="data-point"/>
  
    <circle cx="751.9540229885058" cy="60.62778823754667" r="4" fill="#3b82f6" stroke="#0d1117" stroke-width="2" class="data-point"/>
  
    <circle cx="755.9770114942528" cy="57.61744902192294" r="4" fill="#3b82f6" stroke="#0d1117" stroke-width="2" class="data-point"/>
  
    <circle cx="760" cy="55" r="4" fill="#3b82f6" stroke="#0d1117" stroke-width="2" class="data-point"/>
  

  <!-- Axis lines -->
  <line x1="60" y1="55" x2="60" y2="340"
        stroke="#30363d" stroke-width="2"/>
  <line x1="60" y1="340" x2="760" y2="340"
        stroke="#30363d" stroke-width="2"/>
</svg>