<?xml version="1.0" encoding="UTF-8"?>
<svg width="800" height="400" xmlns="http://www.w3.org/2000/svg">
  <defs>
    <!-- Gradient for area fill -->
    <linearGradient id="areaGradient" x1="0%" y1="0%" x2="0%" y2="100%">
      <stop offset="0%" style="stop-color:#3b82f6;stop-opacity:0.3" />
      <stop offset="100%" style="stop-color:#3b82f6;stop-opacity:0.05" />
    </linearGradient>

    <!-- Glow filter for line -->
    <filter id="glow">
      <feGaussianBlur stdDeviation="2" result="coloredBlur"/>
      <feMerge>
        <feMergeNode in="coloredBlur"/>
        <feMergeNode in="SourceGraphic"/>
      </feMerge>
    </filter>

    <!-- Animation -->
    <style>
      @keyframes draw {
        from { stroke-dashoffset: 2000; }
        to { stroke-dashoffset: 0; }
      }
      @keyframes fadeIn {
        from { opacity: 0; }
        to { opacity: 1; }
      }
      .line-path {
        stroke-dasharray: 2000;
        stroke-dashoffset: 2000;
        animation: draw 1.5s ease-out forwards;
      }
      .area-path {
        opacity: 0;
        animation: fadeIn 1s ease-out 0.5s forwards;
      }
      .data-point {
        opacity: 0;
        animation: fadeIn 0.5s ease-out 1s forwards;
      }
    </style>
  </defs>

  <!-- Background -->
  <rect width="800" height="400" fill="#0d1117" rx="8"/>

  <!-- Title -->
  <text x="400" y="25" text-anchor="middle" fill="#c9d1d9" font-family="system-ui, -apple-system, sans-serif" font-size="16" font-weight="600">
    zxcloli666/SoundCloud-Desktop Downloads
  </text>

  <!-- Stats -->
  <text x="780" y="25" text-anchor="end" fill="#58a6ff" font-family="system-ui, -apple-system, sans-serif" font-size="14" font-weight="600">
    119.0K total
  </text>
  <text x="780" y="42" text-anchor="end" fill="#3fb950" font-family="system-ui, -apple-system, sans-serif" font-size="12">
    +1.6K (+1.4%)
  </text>

  <!-- Grid lines -->
  <g opacity="0.1">
    
      <line x1="60" y1="340" x2="760" y2="340"
            stroke="#c9d1d9" stroke-width="1"/>
    
      <line x1="60" y1="268.75" x2="760" y2="268.75"
            stroke="#c9d1d9" stroke-width="1"/>
    
      <line x1="60" y1="197.5" x2="760" y2="197.5"
            stroke="#c9d1d9" stroke-width="1"/>
    
      <line x1="60" y1="126.25" x2="760" y2="126.25"
            stroke="#c9d1d9" stroke-width="1"/>
    
      <line x1="60" y1="55" x2="760" y2="55"
            stroke="#c9d1d9" stroke-width="1"/>
    
  </g>

  <!-- Y-axis labels -->
  
    <text x="50" y="344" text-anchor="end"
          fill="#8b949e" font-family="system-ui, -apple-system, sans-serif" font-size="11">
      60.2K
    </text>
  
    <text x="50" y="272.75" text-anchor="end"
          fill="#8b949e" font-family="system-ui, -apple-system, sans-serif" font-size="11">
      74.9K
    </text>
  
    <text x="50" y="201.5" text-anchor="end"
          fill="#8b949e" font-family="system-ui, -apple-system, sans-serif" font-size="11">
      89.6K
    </text>
  
    <text x="50" y="130.25" text-anchor="end"
          fill="#8b949e" font-family="system-ui, -apple-system, sans-serif" font-size="11">
      104.3K
    </text>
  
    <text x="50" y="59" text-anchor="end"
          fill="#8b949e" font-family="system-ui, -apple-system, sans-serif" font-size="11">
      119.0K
    </text>
  

  <!-- X-axis labels -->
  
    <text x="60" y="360" text-anchor="middle"
          fill="#8b949e" font-family="system-ui, -apple-system, sans-serif" font-size="11">
      Nov 25
    </text>
  
    <text x="148.18897637795277" y="360" text-anchor="middle"
          fill="#8b949e" font-family="system-ui, -apple-system, sans-serif" font-size="11">
      Dec 11
    </text>
  
    <text x="236.3779527559055" y="360" text-anchor="middle"
          fill="#8b949e" font-family="system-ui, -apple-system, sans-serif" font-size="11">
      Dec 27
    </text>
  
    <text x="324.56692913385825" y="360" text-anchor="middle"
          fill="#8b949e" font-family="system-ui, -apple-system, sans-serif" font-size="11">
      Jan 12
    </text>
  
    <text x="412.755905511811" y="360" text-anchor="middle"
          fill="#8b949e" font-family="system-ui, -apple-system, sans-serif" font-size="11">
      Jan 28
    </text>
  
    <text x="500.9448818897638" y="360" text-anchor="middle"
          fill="#8b949e" font-family="system-ui, -apple-system, sans-serif" font-size="11">
      Feb 13
    </text>
  
    <text x="589.1338582677165" y="360" text-anchor="middle"
          fill="#8b949e" font-family="system-ui, -apple-system, sans-serif" font-size="11">
      Mar 1
    </text>
  
    <text x="677.3228346456693" y="360" text-anchor="middle"
          fill="#8b949e" font-family="system-ui, -apple-system, sans-serif" font-size="11">
      Mar 17
    </text>
  
    <text x="760" y="360" text-anchor="middle"
          fill="#8b949e" font-family="system-ui, -apple-system, sans-serif" font-size="11">
      Apr 1
    </text>
  

  <!-- Area under line -->
  <path d="M 60 340
    L 60.00 340.00 L 65.51 339.29 L 71.02 338.08 L 76.54 336.95 L 82.05 334.72 L 87.56 332.41 L 93.07 330.60 L 98.58 328.90 L 104.09 327.39 L 109.61 325.63 L 115.12 323.65 L 120.63 321.54 L 126.14 319.62 L 131.65 317.58 L 137.17 316.10 L 142.68 314.56 L 148.19 312.46 L 153.70 311.06 L 159.21 309.13 L 164.72 306.89 L 170.24 305.20 L 175.75 303.82 L 181.26 302.92 L 186.77 302.17 L 192.28 300.79 L 197.80 299.81 L 203.31 297.65 L 208.82 296.81 L 214.33 295.71 L 219.84 294.30 L 225.35 293.33 L 230.87 292.34 L 236.38 291.31 L 241.89 290.60 L 247.40 289.98 L 252.91 289.03 L 258.43 287.88 L 263.94 286.83 L 269.45 285.49 L 274.96 284.03 L 280.47 282.69 L 285.98 281.08 L 291.50 279.50 L 297.01 277.91 L 302.52 276.18 L 308.03 274.52 L 313.54 272.63 L 319.06 270.94 L 324.57 269.51 L 330.08 268.36 L 335.59 266.76 L 341.10 264.94 L 346.61 263.27 L 352.13 261.31 L 357.64 258.91 L 363.15 257.11 L 368.66 255.63 L 374.17 254.21 L 379.69 252.51 L 385.20 250.54 L 390.71 248.35 L 396.22 246.04 L 401.73 243.84 L 407.24 241.89 L 412.76 239.96 L 418.27 238.26 L 423.78 236.53 L 429.29 234.59 L 434.80 232.18 L 440.31 230.38 L 445.83 228.77 L 451.34 226.99 L 456.85 225.32 L 462.36 223.49 L 467.87 221.58 L 473.39 219.58 L 478.90 217.83 L 484.41 216.34 L 489.92 214.70 L 495.43 212.92 L 500.94 211.27 L 506.46 209.12 L 511.97 207.28 L 517.48 205.50 L 522.99 204.02 L 528.50 202.59 L 534.02 201.15 L 539.53 199.43 L 545.04 197.66 L 550.55 195.52 L 556.06 193.78 L 561.57 192.36 L 567.09 190.90 L 572.60 189.50 L 578.11 187.78 L 583.62 186.01 L 589.13 182.10 L 594.65 174.32 L 600.16 165.05 L 605.67 156.61 L 611.18 152.33 L 616.69 145.87 L 622.20 141.59 L 627.72 137.83 L 633.23 134.15 L 638.74 130.69 L 644.25 125.30 L 649.76 121.02 L 655.28 115.54 L 660.79 114.42 L 666.30 114.28 L 671.81 114.09 L 677.32 113.93 L 682.83 113.72 L 688.35 113.54 L 693.86 113.46 L 699.37 113.20 L 704.88 112.94 L 710.39 112.77 L 715.91 112.71 L 721.42 112.42 L 726.93 105.40 L 732.44 94.40 L 737.95 87.03 L 743.46 78.47 L 748.98 69.65 L 754.49 62.74 L 760.00 55.00
    L 760 340
    Z" fill="url(#areaGradient)" class="area-path"/>

  <!-- Main line with glow -->
  <path d="M 60.00 340.00 L 65.51 339.29 L 71.02 338.08 L 76.54 336.95 L 82.05 334.72 L 87.56 332.41 L 93.07 330.60 L 98.58 328.90 L 104.09 327.39 L 109.61 325.63 L 115.12 323.65 L 120.63 321.54 L 126.14 319.62 L 131.65 317.58 L 137.17 316.10 L 142.68 314.56 L 148.19 312.46 L 153.70 311.06 L 159.21 309.13 L 164.72 306.89 L 170.24 305.20 L 175.75 303.82 L 181.26 302.92 L 186.77 302.17 L 192.28 300.79 L 197.80 299.81 L 203.31 297.65 L 208.82 296.81 L 214.33 295.71 L 219.84 294.30 L 225.35 293.33 L 230.87 292.34 L 236.38 291.31 L 241.89 290.60 L 247.40 289.98 L 252.91 289.03 L 258.43 287.88 L 263.94 286.83 L 269.45 285.49 L 274.96 284.03 L 280.47 282.69 L 285.98 281.08 L 291.50 279.50 L 297.01 277.91 L 302.52 276.18 L 308.03 274.52 L 313.54 272.63 L 319.06 270.94 L 324.57 269.51 L 330.08 268.36 L 335.59 266.76 L 341.10 264.94 L 346.61 263.27 L 352.13 261.31 L 357.64 258.91 L 363.15 257.11 L 368.66 255.63 L 374.17 254.21 L 379.69 252.51 L 385.20 250.54 L 390.71 248.35 L 396.22 246.04 L 401.73 243.84 L 407.24 241.89 L 412.76 239.96 L 418.27 238.26 L 423.78 236.53 L 429.29 234.59 L 434.80 232.18 L 440.31 230.38 L 445.83 228.77 L 451.34 226.99 L 456.85 225.32 L 462.36 223.49 L 467.87 221.58 L 473.39 219.58 L 478.90 217.83 L 484.41 216.34 L 489.92 214.70 L 495.43 212.92 L 500.94 211.27 L 506.46 209.12 L 511.97 207.28 L 517.48 205.50 L 522.99 204.02 L 528.50 202.59 L 534.02 201.15 L 539.53 199.43 L 545.04 197.66 L 550.55 195.52 L 556.06 193.78 L 561.57 192.36 L 567.09 190.90 L 572.60 189.50 L 578.11 187.78 L 583.62 186.01 L 589.13 182.10 L 594.65 174.32 L 600.16 165.05 L 605.67 156.61 L 611.18 152.33 L 616.69 145.87 L 622.20 141.59 L 627.72 137.83 L 633.23 134.15 L 638.74 130.69 L 644.25 125.30 L 649.76 121.02 L 655.28 115.54 L 660.79 114.42 L 666.30 114.28 L 671.81 114.09 L 677.32 113.93 L 682.83 113.72 L 688.35 113.54 L 693.86 113.46 L 699.37 113.20 L 704.88 112.94 L 710.39 112.77 L 715.91 112.71 L 721.42 112.42 L 726.93 105.40 L 732.44 94.40 L 737.95 87.03 L 743.46 78.47 L 748.98 69.65 L 754.49 62.74 L 760.00 55.00" fill="none" stroke="#3b82f6" stroke-width="3"
        stroke-linecap="round" stroke-linejoin="round" filter="url(#glow)" class="line-path"/>

  <!-- Data points -->
  
    <circle cx="60" cy="340" r="4" fill="#3b82f6" stroke="#0d1117" stroke-width="2" class="data-point"/>
  
    <circle cx="65.51181102362204" cy="339.2878512298356" r="4" fill="#3b82f6" stroke="#0d1117" stroke-width="2" class="data-point"/>
  
    <circle cx="71.02362204724409" cy="338.0767138656105" r="4" fill="#3b82f6" stroke="#0d1117" stroke-width="2" class="data-point"/>
  
    <circle cx="76.53543307086613" cy="336.95277839160957" r="4" fill="#3b82f6" stroke="#0d1117" stroke-width="2" class="data-point"/>
  
    <circle cx="82.04724409448819" cy="334.71944109197847" r="4" fill="#3b82f6" stroke="#0d1117" stroke-width="2" class="data-point"/>
  
    <circle cx="87.55905511811024" cy="332.41343555049383" r="4" fill="#3b82f6" stroke="#0d1117" stroke-width="2" class="data-point"/>
  
    <circle cx="93.07086614173228" cy="330.5967295041561" r="4" fill="#3b82f6" stroke="#0d1117" stroke-width="2" class="data-point"/>
  
    <circle cx="98.58267716535434" cy="328.90113719424096" r="4" fill="#3b82f6" stroke="#0d1117" stroke-width="2" class="data-point"/>
  
    <circle cx="104.09448818897638" cy="327.39448231314486" r="4" fill="#3b82f6" stroke="#0d1117" stroke-width="2" class="data-point"/>
  
    <circle cx="109.60629921259843" cy="325.6262217613762" r="4" fill="#3b82f6" stroke="#0d1117" stroke-width="2" class="data-point"/>
  
    <circle cx="115.11811023622047" cy="323.65449013241766" r="4" fill="#3b82f6" stroke="#0d1117" stroke-width="2" class="data-point"/>
  
    <circle cx="120.62992125984252" cy="321.54226656920906" r="4" fill="#3b82f6" stroke="#0d1117" stroke-width="2" class="data-point"/>
  
    <circle cx="126.14173228346456" cy="319.62382498427644" r="4" fill="#3b82f6" stroke="#0d1117" stroke-width="2" class="data-point"/>
  
    <circle cx="131.6535433070866" cy="317.5842696629214" r="4" fill="#3b82f6" stroke="#0d1117" stroke-width="2" class="data-point"/>
  
    <circle cx="137.16535433070868" cy="316.0969929796529" r="4" fill="#3b82f6" stroke="#0d1117" stroke-width="2" class="data-point"/>
  
    <circle cx="142.67716535433073" cy="314.5564262523585" r="4" fill="#3b82f6" stroke="#0d1117" stroke-width="2" class="data-point"/>
  
    <circle cx="148.18897637795277" cy="312.4635808869775" r="4" fill="#3b82f6" stroke="#0d1117" stroke-width="2" class="data-point"/>
  
    <circle cx="153.70078740157481" cy="311.06350609393326" r="4" fill="#3b82f6" stroke="#0d1117" stroke-width="2" class="data-point"/>
  
    <circle cx="159.21259842519686" cy="309.12568631117307" r="4" fill="#3b82f6" stroke="#0d1117" stroke-width="2" class="data-point"/>
  
    <circle cx="164.7244094488189" cy="306.887504462085" r="4" fill="#3b82f6" stroke="#0d1117" stroke-width="2" class="data-point"/>
  
    <circle cx="170.23622047244095" cy="305.2016012510837" r="4" fill="#3b82f6" stroke="#0d1117" stroke-width="2" class="data-point"/>
  
    <circle cx="175.748031496063" cy="303.8160601064101" r="4" fill="#3b82f6" stroke="#0d1117" stroke-width="2" class="data-point"/>
  
    <circle cx="181.25984251968504" cy="302.9198184568835" r="4" fill="#3b82f6" stroke="#0d1117" stroke-width="2" class="data-point"/>
  
    <circle cx="186.77165354330708" cy="302.1737578405208" r="4" fill="#3b82f6" stroke="#0d1117" stroke-width="2" class="data-point"/>
  
    <circle cx="192.28346456692913" cy="300.7930612453042" r="4" fill="#3b82f6" stroke="#0d1117" stroke-width="2" class="data-point"/>
  
    <circle cx="197.7952755905512" cy="299.80961770555336" r="4" fill="#3b82f6" stroke="#0d1117" stroke-width="2" class="data-point"/>
  
    <circle cx="203.30708661417322" cy="297.65379319723263" r="4" fill="#3b82f6" stroke="#0d1117" stroke-width="2" class="data-point"/>
  
    <circle cx="208.8188976377953" cy="296.80599704227507" r="4" fill="#3b82f6" stroke="#0d1117" stroke-width="2" class="data-point"/>
  
    <circle cx="214.33070866141733" cy="295.71112886501555" r="4" fill="#3b82f6" stroke="#0d1117" stroke-width="2" class="data-point"/>
  
    <circle cx="219.84251968503938" cy="294.2965204236006" r="4" fill="#3b82f6" stroke="#0d1117" stroke-width="2" class="data-point"/>
  
    <circle cx="225.35433070866142" cy="293.3276105322205" r="4" fill="#3b82f6" stroke="#0d1117" stroke-width="2" class="data-point"/>
  
    <circle cx="230.86614173228347" cy="292.3441669924697" r="4" fill="#3b82f6" stroke="#0d1117" stroke-width="2" class="data-point"/>
  
    <circle cx="236.3779527559055" cy="291.3122779581499" r="4" fill="#3b82f6" stroke="#0d1117" stroke-width="2" class="data-point"/>
  
    <circle cx="241.88976377952756" cy="290.5952846385286" r="4" fill="#3b82f6" stroke="#0d1117" stroke-width="2" class="data-point"/>
  
    <circle cx="247.40157480314963" cy="289.97518230804536" r="4" fill="#3b82f6" stroke="#0d1117" stroke-width="2" class="data-point"/>
  
    <circle cx="252.91338582677167" cy="289.03049516394975" r="4" fill="#3b82f6" stroke="#0d1117" stroke-width="2" class="data-point"/>
  
    <circle cx="258.4251968503937" cy="287.8823369426643" r="4" fill="#3b82f6" stroke="#0d1117" stroke-width="2" class="data-point"/>
  
    <circle cx="263.93700787401576" cy="286.82622516106005" r="4" fill="#3b82f6" stroke="#0d1117" stroke-width="2" class="data-point"/>
  
    <circle cx="269.4488188976378" cy="285.4891295109555" r="4" fill="#3b82f6" stroke="#0d1117" stroke-width="2" class="data-point"/>
  
    <circle cx="274.96062992125985" cy="284.0309201244284" r="4" fill="#3b82f6" stroke="#0d1117" stroke-width="2" class="data-point"/>
  
    <circle cx="280.4724409448819" cy="282.6938244743239" r="4" fill="#3b82f6" stroke="#0d1117" stroke-width="2" class="data-point"/>
  
    <circle cx="285.98425196850394" cy="281.080589505176" r="4" fill="#3b82f6" stroke="#0d1117" stroke-width="2" class="data-point"/>
  
    <circle cx="291.496062992126" cy="279.49642183276956" r="4" fill="#3b82f6" stroke="#0d1117" stroke-width="2" class="data-point"/>
  
    <circle cx="297.00787401574803" cy="277.9122541603631" r="4" fill="#3b82f6" stroke="#0d1117" stroke-width="2" class="data-point"/>
  
    <circle cx="302.5196850393701" cy="276.1779054547927" r="4" fill="#3b82f6" stroke="#0d1117" stroke-width="2" class="data-point"/>
  
    <circle cx="308.0314960629921" cy="274.5210695405327" r="4" fill="#3b82f6" stroke="#0d1117" stroke-width="2" class="data-point"/>
  
    <circle cx="313.54330708661416" cy="272.62685070288467" r="4" fill="#3b82f6" stroke="#0d1117" stroke-width="2" class="data-point"/>
  
    <circle cx="319.0551181102362" cy="270.9361029424264" r="4" fill="#3b82f6" stroke="#0d1117" stroke-width="2" class="data-point"/>
  
    <circle cx="324.56692913385825" cy="269.5069608526407" r="4" fill="#3b82f6" stroke="#0d1117" stroke-width="2" class="data-point"/>
  
    <circle cx="330.0787401574803" cy="268.36364718081217" r="4" fill="#3b82f6" stroke="#0d1117" stroke-width="2" class="data-point"/>
  
    <circle cx="335.5905511811024" cy="266.764945860035" r="4" fill="#3b82f6" stroke="#0d1117" stroke-width="2" class="data-point"/>
  
    <circle cx="341.10236220472444" cy="264.9385507147835" r="4" fill="#3b82f6" stroke="#0d1117" stroke-width="2" class="data-point"/>
  
    <circle cx="346.61417322834643" cy="263.26718115215283" r="4" fill="#3b82f6" stroke="#0d1117" stroke-width="2" class="data-point"/>
  
    <circle cx="352.1259842519685" cy="261.31482772102197" r="4" fill="#3b82f6" stroke="#0d1117" stroke-width="2" class="data-point"/>
  
    <circle cx="357.6377952755906" cy="258.9070866409424" r="4" fill="#3b82f6" stroke="#0d1117" stroke-width="2" class="data-point"/>
  
    <circle cx="363.1496062992126" cy="257.1146033418892" r="4" fill="#3b82f6" stroke="#0d1117" stroke-width="2" class="data-point"/>
  
    <circle cx="368.66141732283467" cy="255.62732665862075" r="4" fill="#3b82f6" stroke="#0d1117" stroke-width="2" class="data-point"/>
  
    <circle cx="374.17322834645665" cy="254.2127182172058" r="4" fill="#3b82f6" stroke="#0d1117" stroke-width="2" class="data-point"/>
  
    <circle cx="379.68503937007875" cy="252.51228135783373" r="4" fill="#3b82f6" stroke="#0d1117" stroke-width="2" class="data-point"/>
  
    <circle cx="385.1968503937008" cy="250.5357051794183" r="4" fill="#3b82f6" stroke="#0d1117" stroke-width="2" class="data-point"/>
  
    <circle cx="390.70866141732284" cy="248.34596882489927" r="4" fill="#3b82f6" stroke="#0d1117" stroke-width="2" class="data-point"/>
  
    <circle cx="396.2204724409449" cy="246.04480783287153" r="4" fill="#3b82f6" stroke="#0d1117" stroke-width="2" class="data-point"/>
  
    <circle cx="401.73228346456693" cy="243.83569328052494" r="4" fill="#3b82f6" stroke="#0d1117" stroke-width="2" class="data-point"/>
  
    <circle cx="407.244094488189" cy="241.8930289483078" r="4" fill="#3b82f6" stroke="#0d1117" stroke-width="2" class="data-point"/>
  
    <circle cx="412.755905511811" cy="239.9648982644614" r="4" fill="#3b82f6" stroke="#0d1117" stroke-width="2" class="data-point"/>
  
    <circle cx="418.26771653543307" cy="238.26446140508932" r="4" fill="#3b82f6" stroke="#0d1117" stroke-width="2" class="data-point"/>
  
    <circle cx="423.7795275590551" cy="236.53011269951895" r="4" fill="#3b82f6" stroke="#0d1117" stroke-width="2" class="data-point"/>
  
    <circle cx="429.29133858267716" cy="234.59229291675874" r="4" fill="#3b82f6" stroke="#0d1117" stroke-width="2" class="data-point"/>
  
    <circle cx="434.80314960629926" cy="232.1797072872223" r="4" fill="#3b82f6" stroke="#0d1117" stroke-width="2" class="data-point"/>
  
    <circle cx="440.3149606299213" cy="230.3823794387122" r="4" fill="#3b82f6" stroke="#0d1117" stroke-width="2" class="data-point"/>
  
    <circle cx="445.82677165354335" cy="228.77398901902126" r="4" fill="#3b82f6" stroke="#0d1117" stroke-width="2" class="data-point"/>
  
    <circle cx="451.33858267716533" cy="226.98635026942495" r="4" fill="#3b82f6" stroke="#0d1117" stroke-width="2" class="data-point"/>
  
    <circle cx="456.8503937007874" cy="225.31982525625116" r="4" fill="#3b82f6" stroke="#0d1117" stroke-width="2" class="data-point"/>
  
    <circle cx="462.3622047244094" cy="223.48858556154278" r="4" fill="#3b82f6" stroke="#0d1117" stroke-width="2" class="data-point"/>
  
    <circle cx="467.87401574803147" cy="221.57983307552396" r="4" fill="#3b82f6" stroke="#0d1117" stroke-width="2" class="data-point"/>
  
    <circle cx="473.3858267716535" cy="219.58387869928097" r="4" fill="#3b82f6" stroke="#0d1117" stroke-width="2" class="data-point"/>
  
    <circle cx="478.8976377952756" cy="217.8349963453399" r="4" fill="#3b82f6" stroke="#0d1117" stroke-width="2" class="data-point"/>
  
    <circle cx="484.40944881889766" cy="216.33803056315764" r="4" fill="#3b82f6" stroke="#0d1117" stroke-width="2" class="data-point"/>
  
    <circle cx="489.9212598425197" cy="214.69572829726835" r="4" fill="#3b82f6" stroke="#0d1117" stroke-width="2" class="data-point"/>
  
    <circle cx="495.43307086614175" cy="212.91777864658587" r="4" fill="#3b82f6" stroke="#0d1117" stroke-width="2" class="data-point"/>
  
    <circle cx="500.9448818897638" cy="211.2706318312397" r="4" fill="#3b82f6" stroke="#0d1117" stroke-width="2" class="data-point"/>
  
    <circle cx="506.45669291338584" cy="209.12449642183276" r="4" fill="#3b82f6" stroke="#0d1117" stroke-width="2" class="data-point"/>
  
    <circle cx="511.9685039370078" cy="207.27872307875367" r="4" fill="#3b82f6" stroke="#0d1117" stroke-width="2" class="data-point"/>
  
    <circle cx="517.4803149606298" cy="205.5007734280712" r="4" fill="#3b82f6" stroke="#0d1117" stroke-width="2" class="data-point"/>
  
    <circle cx="522.992125984252" cy="204.02318584371653" r="4" fill="#3b82f6" stroke="#0d1117" stroke-width="2" class="data-point"/>
  
    <circle cx="528.503937007874" cy="202.589199204474" r="4" fill="#3b82f6" stroke="#0d1117" stroke-width="2" class="data-point"/>
  
    <circle cx="534.0157480314961" cy="201.15036801577455" r="4" fill="#3b82f6" stroke="#0d1117" stroke-width="2" class="data-point"/>
  
    <circle cx="539.5275590551181" cy="199.43055295857485" r="4" fill="#3b82f6" stroke="#0d1117" stroke-width="2" class="data-point"/>
  
    <circle cx="545.0393700787401" cy="197.66229240680616" r="4" fill="#3b82f6" stroke="#0d1117" stroke-width="2" class="data-point"/>
  
    <circle cx="550.5511811023622" cy="195.51615699739924" r="4" fill="#3b82f6" stroke="#0d1117" stroke-width="2" class="data-point"/>
  
    <circle cx="556.0629921259842" cy="193.77696374237195" r="4" fill="#3b82f6" stroke="#0d1117" stroke-width="2" class="data-point"/>
  
    <circle cx="561.5748031496063" cy="192.35751075150012" r="4" fill="#3b82f6" stroke="#0d1117" stroke-width="2" class="data-point"/>
  
    <circle cx="567.0866141732283" cy="190.89930136497307" r="4" fill="#3b82f6" stroke="#0d1117" stroke-width="2" class="data-point"/>
  
    <circle cx="572.5984251968504" cy="189.5040711213857" r="4" fill="#3b82f6" stroke="#0d1117" stroke-width="2" class="data-point"/>
  
    <circle cx="578.1102362204724" cy="187.77941151472913" r="4" fill="#3b82f6" stroke="#0d1117" stroke-width="2" class="data-point"/>
  
    <circle cx="583.6220472440945" cy="186.01115096296044" r="4" fill="#3b82f6" stroke="#0d1117" stroke-width="2" class="data-point"/>
  
    <circle cx="589.1338582677165" cy="182.10159955124172" r="4" fill="#3b82f6" stroke="#0d1117" stroke-width="2" class="data-point"/>
  
    <circle cx="594.6456692913385" cy="174.32125312345954" r="4" fill="#3b82f6" stroke="#0d1117" stroke-width="2" class="data-point"/>
  
    <circle cx="600.1574803149606" cy="165.05363001240886" r="4" fill="#3b82f6" stroke="#0d1117" stroke-width="2" class="data-point"/>
  
    <circle cx="605.6692913385826" cy="156.60958030903126" r="4" fill="#3b82f6" stroke="#0d1117" stroke-width="2" class="data-point"/>
  
    <circle cx="611.1811023622048" cy="152.32699858913122" r="4" fill="#3b82f6" stroke="#0d1117" stroke-width="2" class="data-point"/>
  
    <circle cx="616.6929133858268" cy="145.87405871253972" r="4" fill="#3b82f6" stroke="#0d1117" stroke-width="2" class="data-point"/>
  
    <circle cx="622.2047244094489" cy="141.58663244318276" r="4" fill="#3b82f6" stroke="#0d1117" stroke-width="2" class="data-point"/>
  
    <circle cx="627.7165354330708" cy="137.827262064628" r="4" fill="#3b82f6" stroke="#0d1117" stroke-width="2" class="data-point"/>
  
    <circle cx="633.2283464566929" cy="134.1502490268405" r="4" fill="#3b82f6" stroke="#0d1117" stroke-width="2" class="data-point"/>
  
    <circle cx="638.7401574803149" cy="130.68639616515662" r="4" fill="#3b82f6" stroke="#0d1117" stroke-width="2" class="data-point"/>
  
    <circle cx="644.251968503937" cy="125.29925716908329" r="4" fill="#3b82f6" stroke="#0d1117" stroke-width="2" class="data-point"/>
  
    <circle cx="649.763779527559" cy="121.01667544918323" r="4" fill="#3b82f6" stroke="#0d1117" stroke-width="2" class="data-point"/>
  
    <circle cx="655.2755905511812" cy="115.54233456288566" r="4" fill="#3b82f6" stroke="#0d1117" stroke-width="2" class="data-point"/>
  
    <circle cx="660.7874015748032" cy="114.42324363834163" r="4" fill="#3b82f6" stroke="#0d1117" stroke-width="2" class="data-point"/>
  
    <circle cx="666.2992125984252" cy="114.27790715463459" r="4" fill="#3b82f6" stroke="#0d1117" stroke-width="2" class="data-point"/>
  
    <circle cx="671.8110236220473" cy="114.0889697258155" r="4" fill="#3b82f6" stroke="#0d1117" stroke-width="2" class="data-point"/>
  
    <circle cx="677.3228346456693" cy="113.92909959373776" r="4" fill="#3b82f6" stroke="#0d1117" stroke-width="2" class="data-point"/>
  
    <circle cx="682.8346456692914" cy="113.72078396709108" r="4" fill="#3b82f6" stroke="#0d1117" stroke-width="2" class="data-point"/>
  
    <circle cx="688.3464566929133" cy="113.53669108772885" r="4" fill="#3b82f6" stroke="#0d1117" stroke-width="2" class="data-point"/>
  
    <circle cx="693.8582677165354" cy="113.46402284587535" r="4" fill="#3b82f6" stroke="#0d1117" stroke-width="2" class="data-point"/>
  
    <circle cx="699.3700787401575" cy="113.1975726257458" r="4" fill="#3b82f6" stroke="#0d1117" stroke-width="2" class="data-point"/>
  
    <circle cx="704.8818897637796" cy="112.9408115045301" r="4" fill="#3b82f6" stroke="#0d1117" stroke-width="2" class="data-point"/>
  
    <circle cx="710.3937007874016" cy="112.77125227353855" r="4" fill="#3b82f6" stroke="#0d1117" stroke-width="2" class="data-point"/>
  
    <circle cx="715.9055118110236" cy="112.70827313059885" r="4" fill="#3b82f6" stroke="#0d1117" stroke-width="2" class="data-point"/>
  
    <circle cx="721.4173228346457" cy="112.42244471264172" r="4" fill="#3b82f6" stroke="#0d1117" stroke-width="2" class="data-point"/>
  
    <circle cx="726.9291338582677" cy="105.39784800013598" r="4" fill="#3b82f6" stroke="#0d1117" stroke-width="2" class="data-point"/>
  
    <circle cx="732.4409448818898" cy="94.39587618351496" r="4" fill="#3b82f6" stroke="#0d1117" stroke-width="2" class="data-point"/>
  
    <circle cx="737.9527559055118" cy="87.02731645956925" r="4" fill="#3b82f6" stroke="#0d1117" stroke-width="2" class="data-point"/>
  
    <circle cx="743.4645669291339" cy="78.47184211868296" r="4" fill="#3b82f6" stroke="#0d1117" stroke-width="2" class="data-point"/>
  
    <circle cx="748.9763779527559" cy="69.65476210712404" r="4" fill="#3b82f6" stroke="#0d1117" stroke-width="2" class="data-point"/>
  
    <circle cx="754.488188976378" cy="62.73674548267013" r="4" fill="#3b82f6" stroke="#0d1117" stroke-width="2" class="data-point"/>
  
    <circle cx="760" cy="55" r="4" fill="#3b82f6" stroke="#0d1117" stroke-width="2" class="data-point"/>
  

  <!-- Axis lines -->
  <line x1="60" y1="55" x2="60" y2="340"
        stroke="#30363d" stroke-width="2"/>
  <line x1="60" y1="340" x2="760" y2="340"
        stroke="#30363d" stroke-width="2"/>
</svg>