<?xml version="1.0" encoding="UTF-8"?>
<svg width="800" height="400" xmlns="http://www.w3.org/2000/svg">
  <defs>
    <!-- Gradient for area fill -->
    <linearGradient id="areaGradient" x1="0%" y1="0%" x2="0%" y2="100%">
      <stop offset="0%" style="stop-color:#3b82f6;stop-opacity:0.3" />
      <stop offset="100%" style="stop-color:#3b82f6;stop-opacity:0.05" />
    </linearGradient>

    <!-- Glow filter for line -->
    <filter id="glow">
      <feGaussianBlur stdDeviation="2" result="coloredBlur"/>
      <feMerge>
        <feMergeNode in="coloredBlur"/>
        <feMergeNode in="SourceGraphic"/>
      </feMerge>
    </filter>

    <!-- Animation -->
    <style>
      @keyframes draw {
        from { stroke-dashoffset: 2000; }
        to { stroke-dashoffset: 0; }
      }
      @keyframes fadeIn {
        from { opacity: 0; }
        to { opacity: 1; }
      }
      .line-path {
        stroke-dasharray: 2000;
        stroke-dashoffset: 2000;
        animation: draw 1.5s ease-out forwards;
      }
      .area-path {
        opacity: 0;
        animation: fadeIn 1s ease-out 0.5s forwards;
      }
      .data-point {
        opacity: 0;
        animation: fadeIn 0.5s ease-out 1s forwards;
      }
    </style>
  </defs>

  <!-- Background -->
  <rect width="800" height="400" fill="#0d1117" rx="8"/>

  <!-- Title -->
  <text x="400" y="25" text-anchor="middle" fill="#c9d1d9" font-family="system-ui, -apple-system, sans-serif" font-size="16" font-weight="600">
    zxcloli666/SoundCloud-Desktop Downloads
  </text>

  <!-- Stats -->
  <text x="780" y="25" text-anchor="end" fill="#58a6ff" font-family="system-ui, -apple-system, sans-serif" font-size="14" font-weight="600">
    250.4K total
  </text>
  <text x="780" y="42" text-anchor="end" fill="#3fb950" font-family="system-ui, -apple-system, sans-serif" font-size="12">
    +1.4K (+0.6%)
  </text>

  <!-- Grid lines -->
  <g opacity="0.1">
    
      <line x1="60" y1="340" x2="760" y2="340"
            stroke="#c9d1d9" stroke-width="1"/>
    
      <line x1="60" y1="268.75" x2="760" y2="268.75"
            stroke="#c9d1d9" stroke-width="1"/>
    
      <line x1="60" y1="197.5" x2="760" y2="197.5"
            stroke="#c9d1d9" stroke-width="1"/>
    
      <line x1="60" y1="126.25" x2="760" y2="126.25"
            stroke="#c9d1d9" stroke-width="1"/>
    
      <line x1="60" y1="55" x2="760" y2="55"
            stroke="#c9d1d9" stroke-width="1"/>
    
  </g>

  <!-- Y-axis labels -->
  
    <text x="50" y="344" text-anchor="end"
          fill="#8b949e" font-family="system-ui, -apple-system, sans-serif" font-size="11">
      60.2K
    </text>
  
    <text x="50" y="272.75" text-anchor="end"
          fill="#8b949e" font-family="system-ui, -apple-system, sans-serif" font-size="11">
      107.7K
    </text>
  
    <text x="50" y="201.5" text-anchor="end"
          fill="#8b949e" font-family="system-ui, -apple-system, sans-serif" font-size="11">
      155.3K
    </text>
  
    <text x="50" y="130.25" text-anchor="end"
          fill="#8b949e" font-family="system-ui, -apple-system, sans-serif" font-size="11">
      202.9K
    </text>
  
    <text x="50" y="59" text-anchor="end"
          fill="#8b949e" font-family="system-ui, -apple-system, sans-serif" font-size="11">
      250.4K
    </text>
  

  <!-- X-axis labels -->
  
    <text x="60" y="360" text-anchor="middle"
          fill="#8b949e" font-family="system-ui, -apple-system, sans-serif" font-size="11">
      Nov 25
    </text>
  
    <text x="147.06467661691542" y="360" text-anchor="middle"
          fill="#8b949e" font-family="system-ui, -apple-system, sans-serif" font-size="11">
      Dec 20
    </text>
  
    <text x="234.12935323383084" y="360" text-anchor="middle"
          fill="#8b949e" font-family="system-ui, -apple-system, sans-serif" font-size="11">
      Jan 14
    </text>
  
    <text x="321.1940298507463" y="360" text-anchor="middle"
          fill="#8b949e" font-family="system-ui, -apple-system, sans-serif" font-size="11">
      Feb 8
    </text>
  
    <text x="408.2587064676617" y="360" text-anchor="middle"
          fill="#8b949e" font-family="system-ui, -apple-system, sans-serif" font-size="11">
      Mar 5
    </text>
  
    <text x="495.3233830845771" y="360" text-anchor="middle"
          fill="#8b949e" font-family="system-ui, -apple-system, sans-serif" font-size="11">
      Mar 30
    </text>
  
    <text x="582.3880597014926" y="360" text-anchor="middle"
          fill="#8b949e" font-family="system-ui, -apple-system, sans-serif" font-size="11">
      Apr 24
    </text>
  
    <text x="669.452736318408" y="360" text-anchor="middle"
          fill="#8b949e" font-family="system-ui, -apple-system, sans-serif" font-size="11">
      May 19
    </text>
  
    <text x="756.5174129353234" y="360" text-anchor="middle"
          fill="#8b949e" font-family="system-ui, -apple-system, sans-serif" font-size="11">
      Jun 13
    </text>
  
    <text x="760" y="360" text-anchor="middle"
          fill="#8b949e" font-family="system-ui, -apple-system, sans-serif" font-size="11">
      Jun 14
    </text>
  

  <!-- Area under line -->
  <path d="M 60 340
    L 60.00 340.00 L 63.48 339.78 L 66.97 339.41 L 70.45 339.06 L 73.93 338.37 L 77.41 337.65 L 80.90 337.09 L 84.38 336.57 L 87.86 336.10 L 91.34 335.56 L 94.83 334.95 L 98.31 334.29 L 101.79 333.70 L 105.27 333.07 L 108.76 332.61 L 112.24 332.13 L 115.72 331.49 L 119.20 331.05 L 122.69 330.46 L 126.17 329.76 L 129.65 329.24 L 133.13 328.81 L 136.62 328.54 L 140.10 328.31 L 143.58 327.88 L 147.06 327.57 L 150.55 326.91 L 154.03 326.65 L 157.51 326.31 L 161.00 325.87 L 164.48 325.57 L 167.96 325.27 L 171.44 324.95 L 174.93 324.73 L 178.41 324.53 L 181.89 324.24 L 185.37 323.89 L 188.86 323.56 L 192.34 323.15 L 195.82 322.70 L 199.30 322.28 L 202.79 321.78 L 206.27 321.29 L 209.75 320.81 L 213.23 320.27 L 216.72 319.76 L 220.20 319.17 L 223.68 318.65 L 227.16 318.21 L 230.65 317.85 L 234.13 317.36 L 237.61 316.79 L 241.09 316.28 L 244.58 315.67 L 248.06 314.93 L 251.54 314.38 L 255.02 313.92 L 258.51 313.48 L 261.99 312.95 L 265.47 312.34 L 268.96 311.66 L 272.44 310.95 L 275.92 310.27 L 279.40 309.67 L 282.89 309.07 L 286.37 308.55 L 289.85 308.01 L 293.33 307.41 L 296.82 306.67 L 300.30 306.11 L 303.78 305.61 L 307.26 305.06 L 310.75 304.55 L 314.23 303.98 L 317.71 303.39 L 321.19 302.77 L 324.68 302.23 L 328.16 301.77 L 331.64 301.26 L 335.12 300.71 L 338.61 300.20 L 342.09 299.54 L 345.57 298.97 L 349.05 298.42 L 352.54 297.96 L 356.02 297.52 L 359.50 297.07 L 362.99 296.54 L 366.47 296.00 L 369.95 295.33 L 373.43 294.79 L 376.92 294.36 L 380.40 293.90 L 383.88 293.47 L 387.36 292.94 L 390.85 292.39 L 394.33 291.18 L 397.81 288.78 L 401.29 285.91 L 404.78 283.30 L 408.26 281.98 L 411.74 279.98 L 415.22 278.66 L 418.71 277.50 L 422.19 276.36 L 425.67 275.29 L 429.15 273.62 L 432.64 272.30 L 436.12 270.61 L 439.60 270.26 L 443.08 270.22 L 446.57 270.16 L 450.05 270.11 L 453.53 270.04 L 457.01 269.99 L 460.50 269.97 L 463.98 269.88 L 467.46 269.80 L 470.95 269.75 L 474.43 269.73 L 477.91 269.64 L 481.39 267.47 L 484.88 264.07 L 488.36 261.79 L 491.84 259.15 L 495.32 256.42 L 498.81 254.28 L 502.29 251.89 L 505.77 248.25 L 509.25 243.34 L 512.74 240.13 L 516.22 236.32 L 519.70 232.07 L 523.18 228.66 L 526.67 224.96 L 530.15 221.68 L 533.63 218.42 L 537.11 215.18 L 540.60 210.77 L 544.08 206.34 L 547.56 202.65 L 551.04 199.55 L 554.53 196.55 L 558.01 192.57 L 561.49 189.48 L 564.98 186.42 L 568.46 183.56 L 571.94 180.87 L 575.42 178.11 L 578.91 175.75 L 582.39 173.31 L 585.87 170.81 L 589.35 168.18 L 592.84 165.76 L 596.32 163.54 L 599.80 159.53 L 603.28 156.17 L 606.77 152.94 L 610.25 149.84 L 613.73 144.95 L 617.21 141.86 L 620.70 139.18 L 624.18 136.01 L 627.66 131.35 L 631.14 127.99 L 634.63 125.16 L 638.11 122.76 L 641.59 120.48 L 645.07 118.63 L 648.56 116.55 L 652.04 114.85 L 655.52 112.85 L 659.00 109.96 L 662.49 107.48 L 665.97 105.33 L 669.45 103.47 L 672.94 101.54 L 676.42 99.92 L 679.90 97.20 L 683.38 94.87 L 686.87 92.56 L 690.35 90.65 L 693.83 88.91 L 697.31 87.35 L 700.80 84.69 L 704.28 82.53 L 707.76 80.56 L 711.24 78.67 L 714.73 77.03 L 718.21 75.43 L 721.69 73.97 L 725.17 72.57 L 728.66 71.29 L 732.14 69.68 L 735.62 67.96 L 739.10 66.38 L 742.59 63.91 L 746.07 62.13 L 749.55 60.42 L 753.03 58.92 L 756.52 57.16 L 760.00 55.00
    L 760 340
    Z" fill="url(#areaGradient)" class="area-path"/>

  <!-- Main line with glow -->
  <path d="M 60.00 340.00 L 63.48 339.78 L 66.97 339.41 L 70.45 339.06 L 73.93 338.37 L 77.41 337.65 L 80.90 337.09 L 84.38 336.57 L 87.86 336.10 L 91.34 335.56 L 94.83 334.95 L 98.31 334.29 L 101.79 333.70 L 105.27 333.07 L 108.76 332.61 L 112.24 332.13 L 115.72 331.49 L 119.20 331.05 L 122.69 330.46 L 126.17 329.76 L 129.65 329.24 L 133.13 328.81 L 136.62 328.54 L 140.10 328.31 L 143.58 327.88 L 147.06 327.57 L 150.55 326.91 L 154.03 326.65 L 157.51 326.31 L 161.00 325.87 L 164.48 325.57 L 167.96 325.27 L 171.44 324.95 L 174.93 324.73 L 178.41 324.53 L 181.89 324.24 L 185.37 323.89 L 188.86 323.56 L 192.34 323.15 L 195.82 322.70 L 199.30 322.28 L 202.79 321.78 L 206.27 321.29 L 209.75 320.81 L 213.23 320.27 L 216.72 319.76 L 220.20 319.17 L 223.68 318.65 L 227.16 318.21 L 230.65 317.85 L 234.13 317.36 L 237.61 316.79 L 241.09 316.28 L 244.58 315.67 L 248.06 314.93 L 251.54 314.38 L 255.02 313.92 L 258.51 313.48 L 261.99 312.95 L 265.47 312.34 L 268.96 311.66 L 272.44 310.95 L 275.92 310.27 L 279.40 309.67 L 282.89 309.07 L 286.37 308.55 L 289.85 308.01 L 293.33 307.41 L 296.82 306.67 L 300.30 306.11 L 303.78 305.61 L 307.26 305.06 L 310.75 304.55 L 314.23 303.98 L 317.71 303.39 L 321.19 302.77 L 324.68 302.23 L 328.16 301.77 L 331.64 301.26 L 335.12 300.71 L 338.61 300.20 L 342.09 299.54 L 345.57 298.97 L 349.05 298.42 L 352.54 297.96 L 356.02 297.52 L 359.50 297.07 L 362.99 296.54 L 366.47 296.00 L 369.95 295.33 L 373.43 294.79 L 376.92 294.36 L 380.40 293.90 L 383.88 293.47 L 387.36 292.94 L 390.85 292.39 L 394.33 291.18 L 397.81 288.78 L 401.29 285.91 L 404.78 283.30 L 408.26 281.98 L 411.74 279.98 L 415.22 278.66 L 418.71 277.50 L 422.19 276.36 L 425.67 275.29 L 429.15 273.62 L 432.64 272.30 L 436.12 270.61 L 439.60 270.26 L 443.08 270.22 L 446.57 270.16 L 450.05 270.11 L 453.53 270.04 L 457.01 269.99 L 460.50 269.97 L 463.98 269.88 L 467.46 269.80 L 470.95 269.75 L 474.43 269.73 L 477.91 269.64 L 481.39 267.47 L 484.88 264.07 L 488.36 261.79 L 491.84 259.15 L 495.32 256.42 L 498.81 254.28 L 502.29 251.89 L 505.77 248.25 L 509.25 243.34 L 512.74 240.13 L 516.22 236.32 L 519.70 232.07 L 523.18 228.66 L 526.67 224.96 L 530.15 221.68 L 533.63 218.42 L 537.11 215.18 L 540.60 210.77 L 544.08 206.34 L 547.56 202.65 L 551.04 199.55 L 554.53 196.55 L 558.01 192.57 L 561.49 189.48 L 564.98 186.42 L 568.46 183.56 L 571.94 180.87 L 575.42 178.11 L 578.91 175.75 L 582.39 173.31 L 585.87 170.81 L 589.35 168.18 L 592.84 165.76 L 596.32 163.54 L 599.80 159.53 L 603.28 156.17 L 606.77 152.94 L 610.25 149.84 L 613.73 144.95 L 617.21 141.86 L 620.70 139.18 L 624.18 136.01 L 627.66 131.35 L 631.14 127.99 L 634.63 125.16 L 638.11 122.76 L 641.59 120.48 L 645.07 118.63 L 648.56 116.55 L 652.04 114.85 L 655.52 112.85 L 659.00 109.96 L 662.49 107.48 L 665.97 105.33 L 669.45 103.47 L 672.94 101.54 L 676.42 99.92 L 679.90 97.20 L 683.38 94.87 L 686.87 92.56 L 690.35 90.65 L 693.83 88.91 L 697.31 87.35 L 700.80 84.69 L 704.28 82.53 L 707.76 80.56 L 711.24 78.67 L 714.73 77.03 L 718.21 75.43 L 721.69 73.97 L 725.17 72.57 L 728.66 71.29 L 732.14 69.68 L 735.62 67.96 L 739.10 66.38 L 742.59 63.91 L 746.07 62.13 L 749.55 60.42 L 753.03 58.92 L 756.52 57.16 L 760.00 55.00" fill="none" stroke="#3b82f6" stroke-width="3"
        stroke-linecap="round" stroke-linejoin="round" filter="url(#glow)" class="line-path"/>

  <!-- Data points -->
  
    <circle cx="60" cy="340" r="4" fill="#3b82f6" stroke="#0d1117" stroke-width="2" class="data-point"/>
  
    <circle cx="63.482587064676615" cy="339.779834882731" r="4" fill="#3b82f6" stroke="#0d1117" stroke-width="2" class="data-point"/>
  
    <circle cx="66.96517412935323" cy="339.4054044111851" r="4" fill="#3b82f6" stroke="#0d1117" stroke-width="2" class="data-point"/>
  
    <circle cx="70.44776119402985" cy="339.0579329335905" r="4" fill="#3b82f6" stroke="#0d1117" stroke-width="2" class="data-point"/>
  
    <circle cx="73.93034825870647" cy="338.3674831440598" r="4" fill="#3b82f6" stroke="#0d1117" stroke-width="2" class="data-point"/>
  
    <circle cx="77.41293532338308" cy="337.6545675262364" r="4" fill="#3b82f6" stroke="#0d1117" stroke-width="2" class="data-point"/>
  
    <circle cx="80.8955223880597" cy="337.09292181891755" r="4" fill="#3b82f6" stroke="#0d1117" stroke-width="2" class="data-point"/>
  
    <circle cx="84.37810945273631" cy="336.56871915875325" r="4" fill="#3b82f6" stroke="#0d1117" stroke-width="2" class="data-point"/>
  
    <circle cx="87.86069651741293" cy="336.10292765215013" r="4" fill="#3b82f6" stroke="#0d1117" stroke-width="2" class="data-point"/>
  
    <circle cx="91.34328358208955" cy="335.55625916369314" r="4" fill="#3b82f6" stroke="#0d1117" stroke-width="2" class="data-point"/>
  
    <circle cx="94.82587064676616" cy="334.94668635601636" r="4" fill="#3b82f6" stroke="#0d1117" stroke-width="2" class="data-point"/>
  
    <circle cx="98.30845771144278" cy="334.2936796136403" r="4" fill="#3b82f6" stroke="#0d1117" stroke-width="2" class="data-point"/>
  
    <circle cx="101.7910447761194" cy="333.7005817467116" r="4" fill="#3b82f6" stroke="#0d1117" stroke-width="2" class="data-point"/>
  
    <circle cx="105.27363184079601" cy="333.07004083262825" r="4" fill="#3b82f6" stroke="#0d1117" stroke-width="2" class="data-point"/>
  
    <circle cx="108.75621890547264" cy="332.6102402135699" r="4" fill="#3b82f6" stroke="#0d1117" stroke-width="2" class="data-point"/>
  
    <circle cx="112.23880597014926" cy="332.1339646537635" r="4" fill="#3b82f6" stroke="#0d1117" stroke-width="2" class="data-point"/>
  
    <circle cx="115.72139303482587" cy="331.48694879893213" r="4" fill="#3b82f6" stroke="#0d1117" stroke-width="2" class="data-point"/>
  
    <circle cx="119.20398009950249" cy="331.05410717382506" r="4" fill="#3b82f6" stroke="#0d1117" stroke-width="2" class="data-point"/>
  
    <circle cx="122.68656716417911" cy="330.45501841935163" r="4" fill="#3b82f6" stroke="#0d1117" stroke-width="2" class="data-point"/>
  
    <circle cx="126.16915422885572" cy="329.7630709079348" r="4" fill="#3b82f6" stroke="#0d1117" stroke-width="2" class="data-point"/>
  
    <circle cx="129.65174129353233" cy="329.24186369154285" r="4" fill="#3b82f6" stroke="#0d1117" stroke-width="2" class="data-point"/>
  
    <circle cx="133.13432835820896" cy="328.81351523209435" r="4" fill="#3b82f6" stroke="#0d1117" stroke-width="2" class="data-point"/>
  
    <circle cx="136.61691542288557" cy="328.5364366831504" r="4" fill="#3b82f6" stroke="#0d1117" stroke-width="2" class="data-point"/>
  
    <circle cx="140.09950248756218" cy="328.3057875126781" r="4" fill="#3b82f6" stroke="#0d1117" stroke-width="2" class="data-point"/>
  
    <circle cx="143.5820895522388" cy="327.87893677511573" r="4" fill="#3b82f6" stroke="#0d1117" stroke-width="2" class="data-point"/>
  
    <circle cx="147.06467661691542" cy="327.57489923222045" r="4" fill="#3b82f6" stroke="#0d1117" stroke-width="2" class="data-point"/>
  
    <circle cx="150.54726368159203" cy="326.90841299286876" r="4" fill="#3b82f6" stroke="#0d1117" stroke-width="2" class="data-point"/>
  
    <circle cx="154.02985074626866" cy="326.6463116627866" r="4" fill="#3b82f6" stroke="#0d1117" stroke-width="2" class="data-point"/>
  
    <circle cx="157.51243781094527" cy="326.3078265165091" r="4" fill="#3b82f6" stroke="#0d1117" stroke-width="2" class="data-point"/>
  
    <circle cx="160.99502487562188" cy="325.8704917257435" r="4" fill="#3b82f6" stroke="#0d1117" stroke-width="2" class="data-point"/>
  
    <circle cx="164.47761194029852" cy="325.57094734850676" r="4" fill="#3b82f6" stroke="#0d1117" stroke-width="2" class="data-point"/>
  
    <circle cx="167.96019900497512" cy="325.2669098056115" r="4" fill="#3b82f6" stroke="#0d1117" stroke-width="2" class="data-point"/>
  
    <circle cx="171.44278606965173" cy="324.9478950438544" r="4" fill="#3b82f6" stroke="#0d1117" stroke-width="2" class="data-point"/>
  
    <circle cx="174.92537313432837" cy="324.72623220469916" r="4" fill="#3b82f6" stroke="#0d1117" stroke-width="2" class="data-point"/>
  
    <circle cx="178.40796019900498" cy="324.5345238032677" r="4" fill="#3b82f6" stroke="#0d1117" stroke-width="2" class="data-point"/>
  
    <circle cx="181.89054726368158" cy="324.24246803546185" r="4" fill="#3b82f6" stroke="#0d1117" stroke-width="2" class="data-point"/>
  
    <circle cx="185.37313432835822" cy="323.88750794843634" r="4" fill="#3b82f6" stroke="#0d1117" stroke-width="2" class="data-point"/>
  
    <circle cx="188.85572139303483" cy="323.5610045772483" r="4" fill="#3b82f6" stroke="#0d1117" stroke-width="2" class="data-point"/>
  
    <circle cx="192.33830845771143" cy="323.1476333366616" r="4" fill="#3b82f6" stroke="#0d1117" stroke-width="2" class="data-point"/>
  
    <circle cx="195.82089552238807" cy="322.6968190489203" r="4" fill="#3b82f6" stroke="#0d1117" stroke-width="2" class="data-point"/>
  
    <circle cx="199.30348258706468" cy="322.2834478083336" r="4" fill="#3b82f6" stroke="#0d1117" stroke-width="2" class="data-point"/>
  
    <circle cx="202.7860696517413" cy="321.7847064202345" r="4" fill="#3b82f6" stroke="#0d1117" stroke-width="2" class="data-point"/>
  
    <circle cx="206.2686567164179" cy="321.2949513634524" r="4" fill="#3b82f6" stroke="#0d1117" stroke-width="2" class="data-point"/>
  
    <circle cx="209.75124378109453" cy="320.8051963066704" r="4" fill="#3b82f6" stroke="#0d1117" stroke-width="2" class="data-point"/>
  
    <circle cx="213.23383084577114" cy="320.26901187141664" r="4" fill="#3b82f6" stroke="#0d1117" stroke-width="2" class="data-point"/>
  
    <circle cx="216.71641791044777" cy="319.7567909863418" r="4" fill="#3b82f6" stroke="#0d1117" stroke-width="2" class="data-point"/>
  
    <circle cx="220.19900497512438" cy="319.17118172884403" r="4" fill="#3b82f6" stroke="#0d1117" stroke-width="2" class="data-point"/>
  
    <circle cx="223.681592039801" cy="318.64847679056595" r="4" fill="#3b82f6" stroke="#0d1117" stroke-width="2" class="data-point"/>
  
    <circle cx="227.1641791044776" cy="318.20664883414173" r="4" fill="#3b82f6" stroke="#0d1117" stroke-width="2" class="data-point"/>
  
    <circle cx="230.64676616915423" cy="317.8531864690024" r="4" fill="#3b82f6" stroke="#0d1117" stroke-width="2" class="data-point"/>
  
    <circle cx="234.12935323383084" cy="317.3589382465618" r="4" fill="#3b82f6" stroke="#0d1117" stroke-width="2" class="data-point"/>
  
    <circle cx="237.61194029850748" cy="316.7942970954706" r="4" fill="#3b82f6" stroke="#0d1117" stroke-width="2" class="data-point"/>
  
    <circle cx="241.09452736318408" cy="316.27758304473724" r="4" fill="#3b82f6" stroke="#0d1117" stroke-width="2" class="data-point"/>
  
    <circle cx="244.57711442786072" cy="315.6740011246052" r="4" fill="#3b82f6" stroke="#0d1117" stroke-width="2" class="data-point"/>
  
    <circle cx="248.0597014925373" cy="314.92963334717194" r="4" fill="#3b82f6" stroke="#0d1117" stroke-width="2" class="data-point"/>
  
    <circle cx="251.5422885572139" cy="314.37547624928396" r="4" fill="#3b82f6" stroke="#0d1117" stroke-width="2" class="data-point"/>
  
    <circle cx="255.02487562189054" cy="313.9156756302256" r="4" fill="#3b82f6" stroke="#0d1117" stroke-width="2" class="data-point"/>
  
    <circle cx="258.5074626865671" cy="313.47834083946" r="4" fill="#3b82f6" stroke="#0d1117" stroke-width="2" class="data-point"/>
  
    <circle cx="261.99004975124376" cy="312.95264045740953" r="4" fill="#3b82f6" stroke="#0d1117" stroke-width="2" class="data-point"/>
  
    <circle cx="265.4726368159204" cy="312.3415699278466" r="4" fill="#3b82f6" stroke="#0d1117" stroke-width="2" class="data-point"/>
  
    <circle cx="268.95522388059703" cy="311.6645996352916" r="4" fill="#3b82f6" stroke="#0d1117" stroke-width="2" class="data-point"/>
  
    <circle cx="272.43781094527367" cy="310.95318173935436" r="4" fill="#3b82f6" stroke="#0d1117" stroke-width="2" class="data-point"/>
  
    <circle cx="275.92039800995025" cy="310.2702205592546" r="4" fill="#3b82f6" stroke="#0d1117" stroke-width="2" class="data-point"/>
  
    <circle cx="279.4029850746269" cy="309.66963408289496" r="4" fill="#3b82f6" stroke="#0d1117" stroke-width="2" class="data-point"/>
  
    <circle cx="282.88557213930346" cy="309.0735407721939" r="4" fill="#3b82f6" stroke="#0d1117" stroke-width="2" class="data-point"/>
  
    <circle cx="286.3681592039801" cy="308.5478403901434" r="4" fill="#3b82f6" stroke="#0d1117" stroke-width="2" class="data-point"/>
  
    <circle cx="289.85074626865674" cy="308.01165595488965" r="4" fill="#3b82f6" stroke="#0d1117" stroke-width="2" class="data-point"/>
  
    <circle cx="293.3333333333333" cy="307.4125672004162" r="4" fill="#3b82f6" stroke="#0d1117" stroke-width="2" class="data-point"/>
  
    <circle cx="296.81592039800995" cy="306.66670170109677" r="4" fill="#3b82f6" stroke="#0d1117" stroke-width="2" class="data-point"/>
  
    <circle cx="300.29850746268653" cy="306.11104688132264" r="4" fill="#3b82f6" stroke="#0d1117" stroke-width="2" class="data-point"/>
  
    <circle cx="303.78109452736317" cy="305.61380321510967" r="4" fill="#3b82f6" stroke="#0d1117" stroke-width="2" class="data-point"/>
  
    <circle cx="307.2636815920398" cy="305.0611438391079" r="4" fill="#3b82f6" stroke="#0d1117" stroke-width="2" class="data-point"/>
  
    <circle cx="310.74626865671644" cy="304.5459275102607" r="4" fill="#3b82f6" stroke="#0d1117" stroke-width="2" class="data-point"/>
  
    <circle cx="314.2288557213931" cy="303.97978863728326" r="4" fill="#3b82f6" stroke="#0d1117" stroke-width="2" class="data-point"/>
  
    <circle cx="317.71144278606965" cy="303.3896862141269" r="4" fill="#3b82f6" stroke="#0d1117" stroke-width="2" class="data-point"/>
  
    <circle cx="321.1940298507463" cy="302.77262479701926" r="4" fill="#3b82f6" stroke="#0d1117" stroke-width="2" class="data-point"/>
  
    <circle cx="324.67661691542287" cy="302.23194719610694" r="4" fill="#3b82f6" stroke="#0d1117" stroke-width="2" class="data-point"/>
  
    <circle cx="328.1592039800995" cy="301.76915113327624" r="4" fill="#3b82f6" stroke="#0d1117" stroke-width="2" class="data-point"/>
  
    <circle cx="331.64179104477614" cy="301.26142341386" r="4" fill="#3b82f6" stroke="#0d1117" stroke-width="2" class="data-point"/>
  
    <circle cx="335.1243781094527" cy="300.71175948163057" r="4" fill="#3b82f6" stroke="#0d1117" stroke-width="2" class="data-point"/>
  
    <circle cx="338.60696517412936" cy="300.20253404032815" r="4" fill="#3b82f6" stroke="#0d1117" stroke-width="2" class="data-point"/>
  
    <circle cx="342.089552238806" cy="299.53904324474877" r="4" fill="#3b82f6" stroke="#0d1117" stroke-width="2" class="data-point"/>
  
    <circle cx="345.5721393034826" cy="298.9684112061128" r="4" fill="#3b82f6" stroke="#0d1117" stroke-width="2" class="data-point"/>
  
    <circle cx="349.0547263681592" cy="298.4187472738834" r="4" fill="#3b82f6" stroke="#0d1117" stroke-width="2" class="data-point"/>
  
    <circle cx="352.5373134328358" cy="297.9619420985974" r="4" fill="#3b82f6" stroke="#0d1117" stroke-width="2" class="data-point"/>
  
    <circle cx="356.0199004975124" cy="297.51861642028706" r="4" fill="#3b82f6" stroke="#0d1117" stroke-width="2" class="data-point"/>
  
    <circle cx="359.50248756218906" cy="297.0737930200905" r="4" fill="#3b82f6" stroke="#0d1117" stroke-width="2" class="data-point"/>
  
    <circle cx="362.98507462686564" cy="296.5421017504953" r="4" fill="#3b82f6" stroke="#0d1117" stroke-width="2" class="data-point"/>
  
    <circle cx="366.4676616915423" cy="295.99543326203826" r="4" fill="#3b82f6" stroke="#0d1117" stroke-width="2" class="data-point"/>
  
    <circle cx="369.9502487562189" cy="295.33194246645894" r="4" fill="#3b82f6" stroke="#0d1117" stroke-width="2" class="data-point"/>
  
    <circle cx="373.43283582089555" cy="294.794260309319" r="4" fill="#3b82f6" stroke="#0d1117" stroke-width="2" class="data-point"/>
  
    <circle cx="376.9154228855721" cy="294.3554277966672" r="4" fill="#3b82f6" stroke="#0d1117" stroke-width="2" class="data-point"/>
  
    <circle cx="380.39800995024876" cy="293.9046135089259" r="4" fill="#3b82f6" stroke="#0d1117" stroke-width="2" class="data-point"/>
  
    <circle cx="383.8805970149254" cy="293.473269605705" r="4" fill="#3b82f6" stroke="#0d1117" stroke-width="2" class="data-point"/>
  
    <circle cx="387.363184079602" cy="292.94008061422363" r="4" fill="#3b82f6" stroke="#0d1117" stroke-width="2" class="data-point"/>
  
    <circle cx="390.8457711442786" cy="292.3934121257666" r="4" fill="#3b82f6" stroke="#0d1117" stroke-width="2" class="data-point"/>
  
    <circle cx="394.3283582089552" cy="291.1847505636164" r="4" fill="#3b82f6" stroke="#0d1117" stroke-width="2" class="data-point"/>
  
    <circle cx="397.81094527363183" cy="288.77940921440546" r="4" fill="#3b82f6" stroke="#0d1117" stroke-width="2" class="data-point"/>
  
    <circle cx="401.29353233830847" cy="285.91426724613615" r="4" fill="#3b82f6" stroke="#0d1117" stroke-width="2" class="data-point"/>
  
    <circle cx="404.77611940298505" cy="283.30373799851805" r="4" fill="#3b82f6" stroke="#0d1117" stroke-width="2" class="data-point"/>
  
    <circle cx="408.2587064676617" cy="281.9797518511317" r="4" fill="#3b82f6" stroke="#0d1117" stroke-width="2" class="data-point"/>
  
    <circle cx="411.7412935323383" cy="279.9847862987351" r="4" fill="#3b82f6" stroke="#0d1117" stroke-width="2" class="data-point"/>
  
    <circle cx="415.22388059701495" cy="278.65930242946257" r="4" fill="#3b82f6" stroke="#0d1117" stroke-width="2" class="data-point"/>
  
    <circle cx="418.70646766169153" cy="277.497070245784" r="4" fill="#3b82f6" stroke="#0d1117" stroke-width="2" class="data-point"/>
  
    <circle cx="422.18905472636817" cy="276.36029933417063" r="4" fill="#3b82f6" stroke="#0d1117" stroke-width="2" class="data-point"/>
  
    <circle cx="425.67164179104475" cy="275.28942818554935" r="4" fill="#3b82f6" stroke="#0d1117" stroke-width="2" class="data-point"/>
  
    <circle cx="429.15422885572144" cy="273.62396144811316" r="4" fill="#3b82f6" stroke="#0d1117" stroke-width="2" class="data-point"/>
  
    <circle cx="432.636815920398" cy="272.29997530072677" r="4" fill="#3b82f6" stroke="#0d1117" stroke-width="2" class="data-point"/>
  
    <circle cx="436.1194029850746" cy="270.60754956933926" r="4" fill="#3b82f6" stroke="#0d1117" stroke-width="2" class="data-point"/>
  
    <circle cx="439.60199004975124" cy="270.2615758136309" r="4" fill="#3b82f6" stroke="#0d1117" stroke-width="2" class="data-point"/>
  
    <circle cx="443.0845771144278" cy="270.2166441570453" r="4" fill="#3b82f6" stroke="#0d1117" stroke-width="2" class="data-point"/>
  
    <circle cx="446.5671641791045" cy="270.15823300348416" r="4" fill="#3b82f6" stroke="#0d1117" stroke-width="2" class="data-point"/>
  
    <circle cx="450.0497512437811" cy="270.10880818124014" r="4" fill="#3b82f6" stroke="#0d1117" stroke-width="2" class="data-point"/>
  
    <circle cx="453.5323383084577" cy="270.04440614013424" r="4" fill="#3b82f6" stroke="#0d1117" stroke-width="2" class="data-point"/>
  
    <circle cx="457.0149253731343" cy="269.98749270845923" r="4" fill="#3b82f6" stroke="#0d1117" stroke-width="2" class="data-point"/>
  
    <circle cx="460.4975124378109" cy="269.9650268801665" r="4" fill="#3b82f6" stroke="#0d1117" stroke-width="2" class="data-point"/>
  
    <circle cx="463.9800995024876" cy="269.8826521764264" r="4" fill="#3b82f6" stroke="#0d1117" stroke-width="2" class="data-point"/>
  
    <circle cx="467.4626865671642" cy="269.80327291645864" r="4" fill="#3b82f6" stroke="#0d1117" stroke-width="2" class="data-point"/>
  
    <circle cx="470.9452736318408" cy="269.7508526504422" r="4" fill="#3b82f6" stroke="#0d1117" stroke-width="2" class="data-point"/>
  
    <circle cx="474.42786069651737" cy="269.73138226592187" r="4" fill="#3b82f6" stroke="#0d1117" stroke-width="2" class="data-point"/>
  
    <circle cx="477.910447761194" cy="269.643016674637" r="4" fill="#3b82f6" stroke="#0d1117" stroke-width="2" class="data-point"/>
  
    <circle cx="481.3930348258707" cy="267.4713199396707" r="4" fill="#3b82f6" stroke="#0d1117" stroke-width="2" class="data-point"/>
  
    <circle cx="484.8756218905473" cy="264.06999353614765" r="4" fill="#3b82f6" stroke="#0d1117" stroke-width="2" class="data-point"/>
  
    <circle cx="488.35820895522386" cy="261.7919585472623" r="4" fill="#3b82f6" stroke="#0d1117" stroke-width="2" class="data-point"/>
  
    <circle cx="491.8407960199005" cy="259.146981696262" r="4" fill="#3b82f6" stroke="#0d1117" stroke-width="2" class="data-point"/>
  
    <circle cx="495.3233830845771" cy="256.4211278634078" r="4" fill="#3b82f6" stroke="#0d1117" stroke-width="2" class="data-point"/>
  
    <circle cx="498.80597014925377" cy="254.28238100993752" r="4" fill="#3b82f6" stroke="#0d1117" stroke-width="2" class="data-point"/>
  
    <circle cx="502.28855721393035" cy="251.89051915770222" r="4" fill="#3b82f6" stroke="#0d1117" stroke-width="2" class="data-point"/>
  
    <circle cx="505.771144278607" cy="248.24656180861743" r="4" fill="#3b82f6" stroke="#0d1117" stroke-width="2" class="data-point"/>
  
    <circle cx="509.25373134328356" cy="243.33553174382124" r="4" fill="#3b82f6" stroke="#0d1117" stroke-width="2" class="data-point"/>
  
    <circle cx="512.7363184079602" cy="240.13040690738825" r="4" fill="#3b82f6" stroke="#0d1117" stroke-width="2" class="data-point"/>
  
    <circle cx="516.2189054726368" cy="236.31570926327848" r="4" fill="#3b82f6" stroke="#0d1117" stroke-width="2" class="data-point"/>
  
    <circle cx="519.7014925373135" cy="232.06517455028927" r="4" fill="#3b82f6" stroke="#0d1117" stroke-width="2" class="data-point"/>
  
    <circle cx="523.1840796019901" cy="228.6563595373353" r="4" fill="#3b82f6" stroke="#0d1117" stroke-width="2" class="data-point"/>
  
    <circle cx="526.6666666666666" cy="224.95698647846172" r="4" fill="#3b82f6" stroke="#0d1117" stroke-width="2" class="data-point"/>
  
    <circle cx="530.1492537313434" cy="221.67547782583335" r="4" fill="#3b82f6" stroke="#0d1117" stroke-width="2" class="data-point"/>
  
    <circle cx="533.6318407960199" cy="218.42392361092865" r="4" fill="#3b82f6" stroke="#0d1117" stroke-width="2" class="data-point"/>
  
    <circle cx="537.1144278606965" cy="215.18135572734104" r="4" fill="#3b82f6" stroke="#0d1117" stroke-width="2" class="data-point"/>
  
    <circle cx="540.5970149253731" cy="210.76607160687166" r="4" fill="#3b82f6" stroke="#0d1117" stroke-width="2" class="data-point"/>
  
    <circle cx="544.0796019900497" cy="206.33730798942662" r="4" fill="#3b82f6" stroke="#0d1117" stroke-width="2" class="data-point"/>
  
    <circle cx="547.5621890547263" cy="202.6454235399839" r="4" fill="#3b82f6" stroke="#0d1117" stroke-width="2" class="data-point"/>
  
    <circle cx="551.044776119403" cy="199.5511301231285" r="4" fill="#3b82f6" stroke="#0d1117" stroke-width="2" class="data-point"/>
  
    <circle cx="554.5273631840796" cy="196.5496954632165" r="4" fill="#3b82f6" stroke="#0d1117" stroke-width="2" class="data-point"/>
  
    <circle cx="558.0099502487562" cy="192.56575524596798" r="4" fill="#3b82f6" stroke="#0d1117" stroke-width="2" class="data-point"/>
  
    <circle cx="561.4925373134329" cy="189.47595499477112" r="4" fill="#3b82f6" stroke="#0d1117" stroke-width="2" class="data-point"/>
  
    <circle cx="564.9751243781095" cy="186.41910462507028" r="4" fill="#3b82f6" stroke="#0d1117" stroke-width="2" class="data-point"/>
  
    <circle cx="568.4577114427861" cy="183.55995354434572" r="4" fill="#3b82f6" stroke="#0d1117" stroke-width="2" class="data-point"/>
  
    <circle cx="571.9402985074627" cy="180.86704959298748" r="4" fill="#3b82f6" stroke="#0d1117" stroke-width="2" class="data-point"/>
  
    <circle cx="575.4228855721393" cy="178.10824587863723" r="4" fill="#3b82f6" stroke="#0d1117" stroke-width="2" class="data-point"/>
  
    <circle cx="578.905472636816" cy="175.74933390789798" r="4" fill="#3b82f6" stroke="#0d1117" stroke-width="2" class="data-point"/>
  
    <circle cx="582.3880597014926" cy="173.30654951153247" r="4" fill="#3b82f6" stroke="#0d1117" stroke-width="2" class="data-point"/>
  
    <circle cx="585.8706467661692" cy="170.81284257103667" r="4" fill="#3b82f6" stroke="#0d1117" stroke-width="2" class="data-point"/>
  
    <circle cx="589.3532338308457" cy="168.17685205135348" r="4" fill="#3b82f6" stroke="#0d1117" stroke-width="2" class="data-point"/>
  
    <circle cx="592.8358208955224" cy="165.75803120516687" r="4" fill="#3b82f6" stroke="#0d1117" stroke-width="2" class="data-point"/>
  
    <circle cx="596.318407960199" cy="163.54290053550125" r="4" fill="#3b82f6" stroke="#0d1117" stroke-width="2" class="data-point"/>
  
    <circle cx="599.8009950248756" cy="159.5290058805291" r="4" fill="#3b82f6" stroke="#0d1117" stroke-width="2" class="data-point"/>
  
    <circle cx="603.2835820895523" cy="156.16961568981918" r="4" fill="#3b82f6" stroke="#0d1117" stroke-width="2" class="data-point"/>
  
    <circle cx="606.7661691542288" cy="152.9435227469796" r="4" fill="#3b82f6" stroke="#0d1117" stroke-width="2" class="data-point"/>
  
    <circle cx="610.2487562189054" cy="149.84473616446562" r="4" fill="#3b82f6" stroke="#0d1117" stroke-width="2" class="data-point"/>
  
    <circle cx="613.7313432835821" cy="144.95167876230366" r="4" fill="#3b82f6" stroke="#0d1117" stroke-width="2" class="data-point"/>
  
    <circle cx="617.2139303482587" cy="141.85588762356207" r="4" fill="#3b82f6" stroke="#0d1117" stroke-width="2" class="data-point"/>
  
    <circle cx="620.6965174129353" cy="139.17646316917953" r="4" fill="#3b82f6" stroke="#0d1117" stroke-width="2" class="data-point"/>
  
    <circle cx="624.179104477612" cy="136.01177682367347" r="4" fill="#3b82f6" stroke="#0d1117" stroke-width="2" class="data-point"/>
  
    <circle cx="627.6616915422885" cy="131.3463731482114" r="4" fill="#3b82f6" stroke="#0d1117" stroke-width="2" class="data-point"/>
  
    <circle cx="631.1442786069651" cy="127.98997840127385" r="4" fill="#3b82f6" stroke="#0d1117" stroke-width="2" class="data-point"/>
  
    <circle cx="634.6268656716418" cy="125.1562885926144" r="4" fill="#3b82f6" stroke="#0d1117" stroke-width="2" class="data-point"/>
  
    <circle cx="638.1094527363184" cy="122.7584358528344" r="4" fill="#3b82f6" stroke="#0d1117" stroke-width="2" class="data-point"/>
  
    <circle cx="641.592039800995" cy="120.48339630772142" r="4" fill="#3b82f6" stroke="#0d1117" stroke-width="2" class="data-point"/>
  
    <circle cx="645.0746268656716" cy="118.63370977828461" r="4" fill="#3b82f6" stroke="#0d1117" stroke-width="2" class="data-point"/>
  
    <circle cx="648.5572139303482" cy="116.55037863460316" r="4" fill="#3b82f6" stroke="#0d1117" stroke-width="2" class="data-point"/>
  
    <circle cx="652.0398009950248" cy="114.85196201567089" r="4" fill="#3b82f6" stroke="#0d1117" stroke-width="2" class="data-point"/>
  
    <circle cx="655.5223880597015" cy="112.84801013195718" r="4" fill="#3b82f6" stroke="#0d1117" stroke-width="2" class="data-point"/>
  
    <circle cx="659.0049751243781" cy="109.96339777916748" r="4" fill="#3b82f6" stroke="#0d1117" stroke-width="2" class="data-point"/>
  
    <circle cx="662.4875621890548" cy="107.48466805753355" r="4" fill="#3b82f6" stroke="#0d1117" stroke-width="2" class="data-point"/>
  
    <circle cx="665.9701492537313" cy="105.32944626331528" r="4" fill="#3b82f6" stroke="#0d1117" stroke-width="2" class="data-point"/>
  
    <circle cx="669.452736318408" cy="103.46628023690283" r="4" fill="#3b82f6" stroke="#0d1117" stroke-width="2" class="data-point"/>
  
    <circle cx="672.9353233830846" cy="101.5447030569292" r="4" fill="#3b82f6" stroke="#0d1117" stroke-width="2" class="data-point"/>
  
    <circle cx="676.4179104477612" cy="99.92416797607848" r="4" fill="#3b82f6" stroke="#0d1117" stroke-width="2" class="data-point"/>
  
    <circle cx="679.9004975124378" cy="97.19981186511043" r="4" fill="#3b82f6" stroke="#0d1117" stroke-width="2" class="data-point"/>
  
    <circle cx="683.3830845771145" cy="94.87085433209486" r="4" fill="#3b82f6" stroke="#0d1117" stroke-width="2" class="data-point"/>
  
    <circle cx="686.8656716417911" cy="92.56136718359969" r="4" fill="#3b82f6" stroke="#0d1117" stroke-width="2" class="data-point"/>
  
    <circle cx="690.3482587064676" cy="90.65476722248792" r="4" fill="#3b82f6" stroke="#0d1117" stroke-width="2" class="data-point"/>
  
    <circle cx="693.8308457711443" cy="88.90542805942539" r="4" fill="#3b82f6" stroke="#0d1117" stroke-width="2" class="data-point"/>
  
    <circle cx="697.3134328358209" cy="87.35229046345296" r="4" fill="#3b82f6" stroke="#0d1117" stroke-width="2" class="data-point"/>
  
    <circle cx="700.7960199004975" cy="84.68934094981844" r="4" fill="#3b82f6" stroke="#0d1117" stroke-width="2" class="data-point"/>
  
    <circle cx="704.2786069651742" cy="82.52663054616926" r="4" fill="#3b82f6" stroke="#0d1117" stroke-width="2" class="data-point"/>
  
    <circle cx="707.7611940298508" cy="80.55562854395157" r="4" fill="#3b82f6" stroke="#0d1117" stroke-width="2" class="data-point"/>
  
    <circle cx="711.2437810945273" cy="78.67299213301874" r="4" fill="#3b82f6" stroke="#0d1117" stroke-width="2" class="data-point"/>
  
    <circle cx="714.726368159204" cy="77.02999122387524" r="4" fill="#3b82f6" stroke="#0d1117" stroke-width="2" class="data-point"/>
  
    <circle cx="718.2089552238806" cy="75.43491741508967" r="4" fill="#3b82f6" stroke="#0d1117" stroke-width="2" class="data-point"/>
  
    <circle cx="721.6915422885572" cy="73.9731408541744" r="4" fill="#3b82f6" stroke="#0d1117" stroke-width="2" class="data-point"/>
  
    <circle cx="725.1741293532339" cy="72.57127316870651" r="4" fill="#3b82f6" stroke="#0d1117" stroke-width="2" class="data-point"/>
  
    <circle cx="728.6567164179104" cy="71.28622779036095" r="4" fill="#3b82f6" stroke="#0d1117" stroke-width="2" class="data-point"/>
  
    <circle cx="732.139303482587" cy="69.6821676502583" r="4" fill="#3b82f6" stroke="#0d1117" stroke-width="2" class="data-point"/>
  
    <circle cx="735.6218905472637" cy="67.95978748114709" r="4" fill="#3b82f6" stroke="#0d1117" stroke-width="2" class="data-point"/>
  
    <circle cx="739.1044776119403" cy="66.37519772556482" r="4" fill="#3b82f6" stroke="#0d1117" stroke-width="2" class="data-point"/>
  
    <circle cx="742.5870646766169" cy="63.91294294467889" r="4" fill="#3b82f6" stroke="#0d1117" stroke-width="2" class="data-point"/>
  
    <circle cx="746.0696517412936" cy="62.12616073446179" r="4" fill="#3b82f6" stroke="#0d1117" stroke-width="2" class="data-point"/>
  
    <circle cx="749.5522388059701" cy="60.41726006232625" r="4" fill="#3b82f6" stroke="#0d1117" stroke-width="2" class="data-point"/>
  
    <circle cx="753.0348258706468" cy="58.91804045425641" r="4" fill="#3b82f6" stroke="#0d1117" stroke-width="2" class="data-point"/>
  
    <circle cx="756.5174129353234" cy="57.159714959876794" r="4" fill="#3b82f6" stroke="#0d1117" stroke-width="2" class="data-point"/>
  
    <circle cx="760" cy="55" r="4" fill="#3b82f6" stroke="#0d1117" stroke-width="2" class="data-point"/>
  

  <!-- Axis lines -->
  <line x1="60" y1="55" x2="60" y2="340"
        stroke="#30363d" stroke-width="2"/>
  <line x1="60" y1="340" x2="760" y2="340"
        stroke="#30363d" stroke-width="2"/>
</svg>