<?xml version="1.0" encoding="UTF-8"?>
<svg width="800" height="400" xmlns="http://www.w3.org/2000/svg">
  <defs>
    <!-- Gradient for area fill -->
    <linearGradient id="areaGradient" x1="0%" y1="0%" x2="0%" y2="100%">
      <stop offset="0%" style="stop-color:#3b82f6;stop-opacity:0.3" />
      <stop offset="100%" style="stop-color:#3b82f6;stop-opacity:0.05" />
    </linearGradient>

    <!-- Glow filter for line -->
    <filter id="glow">
      <feGaussianBlur stdDeviation="2" result="coloredBlur"/>
      <feMerge>
        <feMergeNode in="coloredBlur"/>
        <feMergeNode in="SourceGraphic"/>
      </feMerge>
    </filter>

    <!-- Animation -->
    <style>
      @keyframes draw {
        from { stroke-dashoffset: 2000; }
        to { stroke-dashoffset: 0; }
      }
      @keyframes fadeIn {
        from { opacity: 0; }
        to { opacity: 1; }
      }
      .line-path {
        stroke-dasharray: 2000;
        stroke-dashoffset: 2000;
        animation: draw 1.5s ease-out forwards;
      }
      .area-path {
        opacity: 0;
        animation: fadeIn 1s ease-out 0.5s forwards;
      }
      .data-point {
        opacity: 0;
        animation: fadeIn 0.5s ease-out 1s forwards;
      }
    </style>
  </defs>

  <!-- Background -->
  <rect width="800" height="400" fill="#0d1117" rx="8"/>

  <!-- Title -->
  <text x="400" y="25" text-anchor="middle" fill="#c9d1d9" font-family="system-ui, -apple-system, sans-serif" font-size="16" font-weight="600">
    zxcloli666/SoundCloud-Desktop Downloads
  </text>

  <!-- Stats -->
  <text x="780" y="25" text-anchor="end" fill="#58a6ff" font-family="system-ui, -apple-system, sans-serif" font-size="14" font-weight="600">
    279.9K total
  </text>
  <text x="780" y="42" text-anchor="end" fill="#3fb950" font-family="system-ui, -apple-system, sans-serif" font-size="12">
    +1.1K (+0.4%)
  </text>

  <!-- Grid lines -->
  <g opacity="0.1">
    
      <line x1="60" y1="340" x2="760" y2="340"
            stroke="#c9d1d9" stroke-width="1"/>
    
      <line x1="60" y1="268.75" x2="760" y2="268.75"
            stroke="#c9d1d9" stroke-width="1"/>
    
      <line x1="60" y1="197.5" x2="760" y2="197.5"
            stroke="#c9d1d9" stroke-width="1"/>
    
      <line x1="60" y1="126.25" x2="760" y2="126.25"
            stroke="#c9d1d9" stroke-width="1"/>
    
      <line x1="60" y1="55" x2="760" y2="55"
            stroke="#c9d1d9" stroke-width="1"/>
    
  </g>

  <!-- Y-axis labels -->
  
    <text x="50" y="344" text-anchor="end"
          fill="#8b949e" font-family="system-ui, -apple-system, sans-serif" font-size="11">
      60.2K
    </text>
  
    <text x="50" y="272.75" text-anchor="end"
          fill="#8b949e" font-family="system-ui, -apple-system, sans-serif" font-size="11">
      115.1K
    </text>
  
    <text x="50" y="201.5" text-anchor="end"
          fill="#8b949e" font-family="system-ui, -apple-system, sans-serif" font-size="11">
      170.0K
    </text>
  
    <text x="50" y="130.25" text-anchor="end"
          fill="#8b949e" font-family="system-ui, -apple-system, sans-serif" font-size="11">
      225.0K
    </text>
  
    <text x="50" y="59" text-anchor="end"
          fill="#8b949e" font-family="system-ui, -apple-system, sans-serif" font-size="11">
      279.9K
    </text>
  

  <!-- X-axis labels -->
  
    <text x="60" y="360" text-anchor="middle"
          fill="#8b949e" font-family="system-ui, -apple-system, sans-serif" font-size="11">
      Nov 25
    </text>
  
    <text x="146.72566371681415" y="360" text-anchor="middle"
          fill="#8b949e" font-family="system-ui, -apple-system, sans-serif" font-size="11">
      Dec 23
    </text>
  
    <text x="233.4513274336283" y="360" text-anchor="middle"
          fill="#8b949e" font-family="system-ui, -apple-system, sans-serif" font-size="11">
      Jan 20
    </text>
  
    <text x="320.1769911504425" y="360" text-anchor="middle"
          fill="#8b949e" font-family="system-ui, -apple-system, sans-serif" font-size="11">
      Feb 17
    </text>
  
    <text x="406.9026548672566" y="360" text-anchor="middle"
          fill="#8b949e" font-family="system-ui, -apple-system, sans-serif" font-size="11">
      Mar 17
    </text>
  
    <text x="493.62831858407077" y="360" text-anchor="middle"
          fill="#8b949e" font-family="system-ui, -apple-system, sans-serif" font-size="11">
      Apr 14
    </text>
  
    <text x="580.353982300885" y="360" text-anchor="middle"
          fill="#8b949e" font-family="system-ui, -apple-system, sans-serif" font-size="11">
      May 12
    </text>
  
    <text x="667.0796460176991" y="360" text-anchor="middle"
          fill="#8b949e" font-family="system-ui, -apple-system, sans-serif" font-size="11">
      Jun 9
    </text>
  
    <text x="753.8053097345132" y="360" text-anchor="middle"
          fill="#8b949e" font-family="system-ui, -apple-system, sans-serif" font-size="11">
      Jul 7
    </text>
  
    <text x="760" y="360" text-anchor="middle"
          fill="#8b949e" font-family="system-ui, -apple-system, sans-serif" font-size="11">
      Jul 9
    </text>
  

  <!-- Area under line -->
  <path d="M 60 340
    L 60.00 340.00 L 63.10 339.81 L 66.19 339.49 L 69.29 339.18 L 72.39 338.59 L 75.49 337.97 L 78.58 337.48 L 81.68 337.03 L 84.78 336.63 L 87.88 336.15 L 90.97 335.62 L 94.07 335.06 L 97.17 334.55 L 100.27 334.00 L 103.36 333.60 L 106.46 333.19 L 109.56 332.63 L 112.65 332.25 L 115.75 331.74 L 118.85 331.14 L 121.95 330.69 L 125.04 330.31 L 128.14 330.07 L 131.24 329.87 L 134.34 329.51 L 137.43 329.24 L 140.53 328.67 L 143.63 328.44 L 146.73 328.15 L 149.82 327.77 L 152.92 327.51 L 156.02 327.24 L 159.12 326.97 L 162.21 326.78 L 165.31 326.61 L 168.41 326.36 L 171.50 326.05 L 174.60 325.77 L 177.70 325.41 L 180.80 325.02 L 183.89 324.66 L 186.99 324.23 L 190.09 323.80 L 193.19 323.38 L 196.28 322.92 L 199.38 322.47 L 202.48 321.97 L 205.58 321.51 L 208.67 321.13 L 211.77 320.82 L 214.87 320.40 L 217.96 319.91 L 221.06 319.46 L 224.16 318.94 L 227.26 318.29 L 230.35 317.81 L 233.45 317.42 L 236.55 317.04 L 239.65 316.58 L 242.74 316.05 L 245.84 315.47 L 248.94 314.85 L 252.04 314.26 L 255.13 313.74 L 258.23 313.22 L 261.33 312.77 L 264.42 312.30 L 267.52 311.79 L 270.62 311.14 L 273.72 310.66 L 276.81 310.23 L 279.91 309.75 L 283.01 309.30 L 286.11 308.81 L 289.20 308.30 L 292.30 307.77 L 295.40 307.30 L 298.50 306.90 L 301.59 306.46 L 304.69 305.98 L 307.79 305.54 L 310.88 304.97 L 313.98 304.47 L 317.08 304.00 L 320.18 303.60 L 323.27 303.22 L 326.37 302.83 L 329.47 302.37 L 332.57 301.90 L 335.66 301.33 L 338.76 300.86 L 341.86 300.48 L 344.96 300.09 L 348.05 299.72 L 351.15 299.25 L 354.25 298.78 L 357.35 297.73 L 360.44 295.65 L 363.54 293.17 L 366.64 290.91 L 369.73 289.77 L 372.83 288.04 L 375.93 286.89 L 379.03 285.88 L 382.12 284.90 L 385.22 283.97 L 388.32 282.53 L 391.42 281.38 L 394.51 279.92 L 397.61 279.62 L 400.71 279.58 L 403.81 279.53 L 406.90 279.49 L 410.00 279.43 L 413.10 279.38 L 416.19 279.36 L 419.29 279.29 L 422.39 279.22 L 425.49 279.18 L 428.58 279.16 L 431.68 279.08 L 434.78 277.20 L 437.88 274.26 L 440.97 272.29 L 444.07 270.00 L 447.17 267.64 L 450.27 265.78 L 453.36 263.71 L 456.46 260.56 L 459.56 256.31 L 462.65 253.53 L 465.75 250.23 L 468.85 246.55 L 471.95 243.60 L 475.04 240.39 L 478.14 237.55 L 481.24 234.74 L 484.34 231.93 L 487.43 228.11 L 490.53 224.27 L 493.63 221.08 L 496.73 218.40 L 499.82 215.80 L 502.92 212.35 L 506.02 209.67 L 509.12 207.03 L 512.21 204.55 L 515.31 202.22 L 518.41 199.83 L 521.50 197.79 L 524.60 195.67 L 527.70 193.52 L 530.80 191.23 L 533.89 189.14 L 536.99 187.22 L 540.09 183.75 L 543.19 180.84 L 546.28 178.04 L 549.38 175.36 L 552.48 171.12 L 555.58 168.44 L 558.67 166.12 L 561.77 163.38 L 564.87 159.34 L 567.96 156.44 L 571.06 153.98 L 574.16 151.91 L 577.26 149.94 L 580.35 148.34 L 583.45 146.53 L 586.55 145.06 L 589.65 143.33 L 592.74 140.83 L 595.84 138.68 L 598.94 136.82 L 602.04 135.21 L 605.13 133.54 L 608.23 132.14 L 611.33 129.78 L 614.42 127.76 L 617.52 125.76 L 620.62 124.11 L 623.72 122.60 L 626.81 121.25 L 629.91 118.95 L 633.01 117.08 L 636.11 115.37 L 639.20 113.74 L 642.30 112.32 L 645.40 110.94 L 648.50 109.67 L 651.59 108.46 L 654.69 107.34 L 657.79 105.95 L 660.88 104.46 L 663.98 103.09 L 667.08 100.96 L 670.18 99.41 L 673.27 97.93 L 676.37 96.63 L 679.47 95.11 L 682.57 93.24 L 685.66 91.59 L 688.76 90.11 L 691.86 88.50 L 694.96 86.28 L 698.05 84.46 L 701.15 82.51 L 704.25 80.57 L 707.35 78.76 L 710.44 76.98 L 713.54 75.10 L 716.64 73.41 L 719.73 71.93 L 722.83 70.56 L 725.93 69.11 L 729.03 67.70 L 732.12 66.42 L 735.22 65.14 L 738.32 63.92 L 741.42 62.70 L 744.51 61.48 L 747.61 60.41 L 750.71 59.16 L 753.81 57.88 L 756.90 56.41 L 760.00 55.00
    L 760 340
    Z" fill="url(#areaGradient)" class="area-path"/>

  <!-- Main line with glow -->
  <path d="M 60.00 340.00 L 63.10 339.81 L 66.19 339.49 L 69.29 339.18 L 72.39 338.59 L 75.49 337.97 L 78.58 337.48 L 81.68 337.03 L 84.78 336.63 L 87.88 336.15 L 90.97 335.62 L 94.07 335.06 L 97.17 334.55 L 100.27 334.00 L 103.36 333.60 L 106.46 333.19 L 109.56 332.63 L 112.65 332.25 L 115.75 331.74 L 118.85 331.14 L 121.95 330.69 L 125.04 330.31 L 128.14 330.07 L 131.24 329.87 L 134.34 329.51 L 137.43 329.24 L 140.53 328.67 L 143.63 328.44 L 146.73 328.15 L 149.82 327.77 L 152.92 327.51 L 156.02 327.24 L 159.12 326.97 L 162.21 326.78 L 165.31 326.61 L 168.41 326.36 L 171.50 326.05 L 174.60 325.77 L 177.70 325.41 L 180.80 325.02 L 183.89 324.66 L 186.99 324.23 L 190.09 323.80 L 193.19 323.38 L 196.28 322.92 L 199.38 322.47 L 202.48 321.97 L 205.58 321.51 L 208.67 321.13 L 211.77 320.82 L 214.87 320.40 L 217.96 319.91 L 221.06 319.46 L 224.16 318.94 L 227.26 318.29 L 230.35 317.81 L 233.45 317.42 L 236.55 317.04 L 239.65 316.58 L 242.74 316.05 L 245.84 315.47 L 248.94 314.85 L 252.04 314.26 L 255.13 313.74 L 258.23 313.22 L 261.33 312.77 L 264.42 312.30 L 267.52 311.79 L 270.62 311.14 L 273.72 310.66 L 276.81 310.23 L 279.91 309.75 L 283.01 309.30 L 286.11 308.81 L 289.20 308.30 L 292.30 307.77 L 295.40 307.30 L 298.50 306.90 L 301.59 306.46 L 304.69 305.98 L 307.79 305.54 L 310.88 304.97 L 313.98 304.47 L 317.08 304.00 L 320.18 303.60 L 323.27 303.22 L 326.37 302.83 L 329.47 302.37 L 332.57 301.90 L 335.66 301.33 L 338.76 300.86 L 341.86 300.48 L 344.96 300.09 L 348.05 299.72 L 351.15 299.25 L 354.25 298.78 L 357.35 297.73 L 360.44 295.65 L 363.54 293.17 L 366.64 290.91 L 369.73 289.77 L 372.83 288.04 L 375.93 286.89 L 379.03 285.88 L 382.12 284.90 L 385.22 283.97 L 388.32 282.53 L 391.42 281.38 L 394.51 279.92 L 397.61 279.62 L 400.71 279.58 L 403.81 279.53 L 406.90 279.49 L 410.00 279.43 L 413.10 279.38 L 416.19 279.36 L 419.29 279.29 L 422.39 279.22 L 425.49 279.18 L 428.58 279.16 L 431.68 279.08 L 434.78 277.20 L 437.88 274.26 L 440.97 272.29 L 444.07 270.00 L 447.17 267.64 L 450.27 265.78 L 453.36 263.71 L 456.46 260.56 L 459.56 256.31 L 462.65 253.53 L 465.75 250.23 L 468.85 246.55 L 471.95 243.60 L 475.04 240.39 L 478.14 237.55 L 481.24 234.74 L 484.34 231.93 L 487.43 228.11 L 490.53 224.27 L 493.63 221.08 L 496.73 218.40 L 499.82 215.80 L 502.92 212.35 L 506.02 209.67 L 509.12 207.03 L 512.21 204.55 L 515.31 202.22 L 518.41 199.83 L 521.50 197.79 L 524.60 195.67 L 527.70 193.52 L 530.80 191.23 L 533.89 189.14 L 536.99 187.22 L 540.09 183.75 L 543.19 180.84 L 546.28 178.04 L 549.38 175.36 L 552.48 171.12 L 555.58 168.44 L 558.67 166.12 L 561.77 163.38 L 564.87 159.34 L 567.96 156.44 L 571.06 153.98 L 574.16 151.91 L 577.26 149.94 L 580.35 148.34 L 583.45 146.53 L 586.55 145.06 L 589.65 143.33 L 592.74 140.83 L 595.84 138.68 L 598.94 136.82 L 602.04 135.21 L 605.13 133.54 L 608.23 132.14 L 611.33 129.78 L 614.42 127.76 L 617.52 125.76 L 620.62 124.11 L 623.72 122.60 L 626.81 121.25 L 629.91 118.95 L 633.01 117.08 L 636.11 115.37 L 639.20 113.74 L 642.30 112.32 L 645.40 110.94 L 648.50 109.67 L 651.59 108.46 L 654.69 107.34 L 657.79 105.95 L 660.88 104.46 L 663.98 103.09 L 667.08 100.96 L 670.18 99.41 L 673.27 97.93 L 676.37 96.63 L 679.47 95.11 L 682.57 93.24 L 685.66 91.59 L 688.76 90.11 L 691.86 88.50 L 694.96 86.28 L 698.05 84.46 L 701.15 82.51 L 704.25 80.57 L 707.35 78.76 L 710.44 76.98 L 713.54 75.10 L 716.64 73.41 L 719.73 71.93 L 722.83 70.56 L 725.93 69.11 L 729.03 67.70 L 732.12 66.42 L 735.22 65.14 L 738.32 63.92 L 741.42 62.70 L 744.51 61.48 L 747.61 60.41 L 750.71 59.16 L 753.81 57.88 L 756.90 56.41 L 760.00 55.00" fill="none" stroke="#3b82f6" stroke-width="3"
        stroke-linecap="round" stroke-linejoin="round" filter="url(#glow)" class="line-path"/>

  <!-- Data points -->
  
    <circle cx="60" cy="340" r="4" fill="#3b82f6" stroke="#0d1117" stroke-width="2" class="data-point"/>
  
    <circle cx="63.097345132743364" cy="339.80937755937754" r="4" fill="#3b82f6" stroke="#0d1117" stroke-width="2" class="data-point"/>
  
    <circle cx="66.19469026548673" cy="339.48518973518975" r="4" fill="#3b82f6" stroke="#0d1117" stroke-width="2" class="data-point"/>
  
    <circle cx="69.29203539823008" cy="339.1843434343434" r="4" fill="#3b82f6" stroke="#0d1117" stroke-width="2" class="data-point"/>
  
    <circle cx="72.38938053097345" cy="338.5865410865411" r="4" fill="#3b82f6" stroke="#0d1117" stroke-width="2" class="data-point"/>
  
    <circle cx="75.48672566371681" cy="337.96928746928745" r="4" fill="#3b82f6" stroke="#0d1117" stroke-width="2" class="data-point"/>
  
    <circle cx="78.58407079646018" cy="337.4830057330057" r="4" fill="#3b82f6" stroke="#0d1117" stroke-width="2" class="data-point"/>
  
    <circle cx="81.68141592920354" cy="337.0291427791428" r="4" fill="#3b82f6" stroke="#0d1117" stroke-width="2" class="data-point"/>
  
    <circle cx="84.77876106194691" cy="336.6258531258531" r="4" fill="#3b82f6" stroke="#0d1117" stroke-width="2" class="data-point"/>
  
    <circle cx="87.87610619469027" cy="336.1525389025389" r="4" fill="#3b82f6" stroke="#0d1117" stroke-width="2" class="data-point"/>
  
    <circle cx="90.97345132743362" cy="335.6247611247611" r="4" fill="#3b82f6" stroke="#0d1117" stroke-width="2" class="data-point"/>
  
    <circle cx="94.070796460177" cy="335.05937755937754" r="4" fill="#3b82f6" stroke="#0d1117" stroke-width="2" class="data-point"/>
  
    <circle cx="97.16814159292036" cy="334.54586404586405" r="4" fill="#3b82f6" stroke="#0d1117" stroke-width="2" class="data-point"/>
  
    <circle cx="100.26548672566372" cy="333.99993174993176" r="4" fill="#3b82f6" stroke="#0d1117" stroke-width="2" class="data-point"/>
  
    <circle cx="103.36283185840708" cy="333.6018291018291" r="4" fill="#3b82f6" stroke="#0d1117" stroke-width="2" class="data-point"/>
  
    <circle cx="106.46017699115045" cy="333.1894621894622" r="4" fill="#3b82f6" stroke="#0d1117" stroke-width="2" class="data-point"/>
  
    <circle cx="109.5575221238938" cy="332.6292656292656" r="4" fill="#3b82f6" stroke="#0d1117" stroke-width="2" class="data-point"/>
  
    <circle cx="112.65486725663717" cy="332.2545045045045" r="4" fill="#3b82f6" stroke="#0d1117" stroke-width="2" class="data-point"/>
  
    <circle cx="115.75221238938053" cy="331.735803985804" r="4" fill="#3b82f6" stroke="#0d1117" stroke-width="2" class="data-point"/>
  
    <circle cx="118.84955752212389" cy="331.1367048867049" r="4" fill="#3b82f6" stroke="#0d1117" stroke-width="2" class="data-point"/>
  
    <circle cx="121.94690265486726" cy="330.6854354354354" r="4" fill="#3b82f6" stroke="#0d1117" stroke-width="2" class="data-point"/>
  
    <circle cx="125.04424778761063" cy="330.31456456456453" r="4" fill="#3b82f6" stroke="#0d1117" stroke-width="2" class="data-point"/>
  
    <circle cx="128.141592920354" cy="330.0746655746656" r="4" fill="#3b82f6" stroke="#0d1117" stroke-width="2" class="data-point"/>
  
    <circle cx="131.23893805309734" cy="329.8749658749659" r="4" fill="#3b82f6" stroke="#0d1117" stroke-width="2" class="data-point"/>
  
    <circle cx="134.33628318584073" cy="329.50539175539177" r="4" fill="#3b82f6" stroke="#0d1117" stroke-width="2" class="data-point"/>
  
    <circle cx="137.43362831858406" cy="329.24215124215124" r="4" fill="#3b82f6" stroke="#0d1117" stroke-width="2" class="data-point"/>
  
    <circle cx="140.53097345132744" cy="328.6650969150969" r="4" fill="#3b82f6" stroke="#0d1117" stroke-width="2" class="data-point"/>
  
    <circle cx="143.6283185840708" cy="328.4381654381654" r="4" fill="#3b82f6" stroke="#0d1117" stroke-width="2" class="data-point"/>
  
    <circle cx="146.72566371681415" cy="328.14509964509966" r="4" fill="#3b82f6" stroke="#0d1117" stroke-width="2" class="data-point"/>
  
    <circle cx="149.82300884955754" cy="327.76644826644826" r="4" fill="#3b82f6" stroke="#0d1117" stroke-width="2" class="data-point"/>
  
    <circle cx="152.9203539823009" cy="327.507098007098" r="4" fill="#3b82f6" stroke="#0d1117" stroke-width="2" class="data-point"/>
  
    <circle cx="156.01769911504425" cy="327.2438574938575" r="4" fill="#3b82f6" stroke="#0d1117" stroke-width="2" class="data-point"/>
  
    <circle cx="159.1150442477876" cy="326.9676494676495" r="4" fill="#3b82f6" stroke="#0d1117" stroke-width="2" class="data-point"/>
  
    <circle cx="162.21238938053096" cy="326.77573027573027" r="4" fill="#3b82f6" stroke="#0d1117" stroke-width="2" class="data-point"/>
  
    <circle cx="165.30973451327435" cy="326.6097461097461" r="4" fill="#3b82f6" stroke="#0d1117" stroke-width="2" class="data-point"/>
  
    <circle cx="168.40707964601768" cy="326.3568796068796" r="4" fill="#3b82f6" stroke="#0d1117" stroke-width="2" class="data-point"/>
  
    <circle cx="171.50442477876106" cy="326.04954954954957" r="4" fill="#3b82f6" stroke="#0d1117" stroke-width="2" class="data-point"/>
  
    <circle cx="174.60176991150445" cy="325.76685776685775" r="4" fill="#3b82f6" stroke="#0d1117" stroke-width="2" class="data-point"/>
  
    <circle cx="177.69911504424778" cy="325.4089544089544" r="4" fill="#3b82f6" stroke="#0d1117" stroke-width="2" class="data-point"/>
  
    <circle cx="180.79646017699116" cy="325.01863226863225" r="4" fill="#3b82f6" stroke="#0d1117" stroke-width="2" class="data-point"/>
  
    <circle cx="183.89380530973452" cy="324.6607289107289" r="4" fill="#3b82f6" stroke="#0d1117" stroke-width="2" class="data-point"/>
  
    <circle cx="186.99115044247787" cy="324.2289107289107" r="4" fill="#3b82f6" stroke="#0d1117" stroke-width="2" class="data-point"/>
  
    <circle cx="190.08849557522126" cy="323.80487305487304" r="4" fill="#3b82f6" stroke="#0d1117" stroke-width="2" class="data-point"/>
  
    <circle cx="193.1858407079646" cy="323.3808353808354" r="4" fill="#3b82f6" stroke="#0d1117" stroke-width="2" class="data-point"/>
  
    <circle cx="196.28318584070797" cy="322.9165984165984" r="4" fill="#3b82f6" stroke="#0d1117" stroke-width="2" class="data-point"/>
  
    <circle cx="199.38053097345133" cy="322.4731094731095" r="4" fill="#3b82f6" stroke="#0d1117" stroke-width="2" class="data-point"/>
  
    <circle cx="202.47787610619469" cy="321.9660797160797" r="4" fill="#3b82f6" stroke="#0d1117" stroke-width="2" class="data-point"/>
  
    <circle cx="205.57522123893804" cy="321.5135135135135" r="4" fill="#3b82f6" stroke="#0d1117" stroke-width="2" class="data-point"/>
  
    <circle cx="208.67256637168143" cy="321.13097188097186" r="4" fill="#3b82f6" stroke="#0d1117" stroke-width="2" class="data-point"/>
  
    <circle cx="211.76991150442478" cy="320.8249385749386" r="4" fill="#3b82f6" stroke="#0d1117" stroke-width="2" class="data-point"/>
  
    <circle cx="214.86725663716814" cy="320.39701064701063" r="4" fill="#3b82f6" stroke="#0d1117" stroke-width="2" class="data-point"/>
  
    <circle cx="217.9646017699115" cy="319.9081354081354" r="4" fill="#3b82f6" stroke="#0d1117" stroke-width="2" class="data-point"/>
  
    <circle cx="221.06194690265485" cy="319.4607562107562" r="4" fill="#3b82f6" stroke="#0d1117" stroke-width="2" class="data-point"/>
  
    <circle cx="224.15929203539824" cy="318.9381654381654" r="4" fill="#3b82f6" stroke="#0d1117" stroke-width="2" class="data-point"/>
  
    <circle cx="227.2566371681416" cy="318.29368004368007" r="4" fill="#3b82f6" stroke="#0d1117" stroke-width="2" class="data-point"/>
  
    <circle cx="230.35398230088495" cy="317.8138820638821" r="4" fill="#3b82f6" stroke="#0d1117" stroke-width="2" class="data-point"/>
  
    <circle cx="233.4513274336283" cy="317.4157794157794" r="4" fill="#3b82f6" stroke="#0d1117" stroke-width="2" class="data-point"/>
  
    <circle cx="236.5486725663717" cy="317.037128037128" r="4" fill="#3b82f6" stroke="#0d1117" stroke-width="2" class="data-point"/>
  
    <circle cx="239.64601769911505" cy="316.5819683319683" r="4" fill="#3b82f6" stroke="#0d1117" stroke-width="2" class="data-point"/>
  
    <circle cx="242.7433628318584" cy="316.0528938028938" r="4" fill="#3b82f6" stroke="#0d1117" stroke-width="2" class="data-point"/>
  
    <circle cx="245.8407079646018" cy="315.4667622167622" r="4" fill="#3b82f6" stroke="#0d1117" stroke-width="2" class="data-point"/>
  
    <circle cx="248.93805309734512" cy="314.85080535080533" r="4" fill="#3b82f6" stroke="#0d1117" stroke-width="2" class="data-point"/>
  
    <circle cx="252.03539823008848" cy="314.2594867594868" r="4" fill="#3b82f6" stroke="#0d1117" stroke-width="2" class="data-point"/>
  
    <circle cx="255.13274336283186" cy="313.7394894894895" r="4" fill="#3b82f6" stroke="#0d1117" stroke-width="2" class="data-point"/>
  
    <circle cx="258.2300884955752" cy="313.22338247338246" r="4" fill="#3b82f6" stroke="#0d1117" stroke-width="2" class="data-point"/>
  
    <circle cx="261.32743362831854" cy="312.76822276822276" r="4" fill="#3b82f6" stroke="#0d1117" stroke-width="2" class="data-point"/>
  
    <circle cx="264.42477876106193" cy="312.3039858039858" r="4" fill="#3b82f6" stroke="#0d1117" stroke-width="2" class="data-point"/>
  
    <circle cx="267.5221238938053" cy="311.7852852852853" r="4" fill="#3b82f6" stroke="#0d1117" stroke-width="2" class="data-point"/>
  
    <circle cx="270.6194690265487" cy="311.1395031395031" r="4" fill="#3b82f6" stroke="#0d1117" stroke-width="2" class="data-point"/>
  
    <circle cx="273.716814159292" cy="310.65840840840843" r="4" fill="#3b82f6" stroke="#0d1117" stroke-width="2" class="data-point"/>
  
    <circle cx="276.81415929203536" cy="310.22788697788695" r="4" fill="#3b82f6" stroke="#0d1117" stroke-width="2" class="data-point"/>
  
    <circle cx="279.91150442477874" cy="309.74938574938574" r="4" fill="#3b82f6" stroke="#0d1117" stroke-width="2" class="data-point"/>
  
    <circle cx="283.0088495575221" cy="309.3033033033033" r="4" fill="#3b82f6" stroke="#0d1117" stroke-width="2" class="data-point"/>
  
    <circle cx="286.1061946902655" cy="308.8131313131313" r="4" fill="#3b82f6" stroke="#0d1117" stroke-width="2" class="data-point"/>
  
    <circle cx="289.2035398230089" cy="308.3022113022113" r="4" fill="#3b82f6" stroke="#0d1117" stroke-width="2" class="data-point"/>
  
    <circle cx="292.3008849557522" cy="307.76794976794974" r="4" fill="#3b82f6" stroke="#0d1117" stroke-width="2" class="data-point"/>
  
    <circle cx="295.39823008849555" cy="307.2998225498226" r="4" fill="#3b82f6" stroke="#0d1117" stroke-width="2" class="data-point"/>
  
    <circle cx="298.49557522123894" cy="306.89912639912643" r="4" fill="#3b82f6" stroke="#0d1117" stroke-width="2" class="data-point"/>
  
    <circle cx="301.5929203539823" cy="306.4595277095277" r="4" fill="#3b82f6" stroke="#0d1117" stroke-width="2" class="data-point"/>
  
    <circle cx="304.69026548672565" cy="305.98361998362" r="4" fill="#3b82f6" stroke="#0d1117" stroke-width="2" class="data-point"/>
  
    <circle cx="307.78761061946904" cy="305.54272454272456" r="4" fill="#3b82f6" stroke="#0d1117" stroke-width="2" class="data-point"/>
  
    <circle cx="310.88495575221236" cy="304.9682637182637" r="4" fill="#3b82f6" stroke="#0d1117" stroke-width="2" class="data-point"/>
  
    <circle cx="313.98230088495575" cy="304.4742014742015" r="4" fill="#3b82f6" stroke="#0d1117" stroke-width="2" class="data-point"/>
  
    <circle cx="317.07964601769913" cy="303.99829374829375" r="4" fill="#3b82f6" stroke="#0d1117" stroke-width="2" class="data-point"/>
  
    <circle cx="320.1769911504425" cy="303.6027846027846" r="4" fill="#3b82f6" stroke="#0d1117" stroke-width="2" class="data-point"/>
  
    <circle cx="323.27433628318585" cy="303.2189462189462" r="4" fill="#3b82f6" stroke="#0d1117" stroke-width="2" class="data-point"/>
  
    <circle cx="326.3716814159292" cy="302.8338110838111" r="4" fill="#3b82f6" stroke="#0d1117" stroke-width="2" class="data-point"/>
  
    <circle cx="329.46902654867256" cy="302.37346437346434" r="4" fill="#3b82f6" stroke="#0d1117" stroke-width="2" class="data-point"/>
  
    <circle cx="332.56637168141594" cy="301.9001501501501" r="4" fill="#3b82f6" stroke="#0d1117" stroke-width="2" class="data-point"/>
  
    <circle cx="335.6637168141593" cy="301.3256893256893" r="4" fill="#3b82f6" stroke="#0d1117" stroke-width="2" class="data-point"/>
  
    <circle cx="338.76106194690266" cy="300.86015561015563" r="4" fill="#3b82f6" stroke="#0d1117" stroke-width="2" class="data-point"/>
  
    <circle cx="341.85840707964604" cy="300.48020748020747" r="4" fill="#3b82f6" stroke="#0d1117" stroke-width="2" class="data-point"/>
  
    <circle cx="344.95575221238937" cy="300.0898853398853" r="4" fill="#3b82f6" stroke="#0d1117" stroke-width="2" class="data-point"/>
  
    <circle cx="348.0530973451327" cy="299.71642096642097" r="4" fill="#3b82f6" stroke="#0d1117" stroke-width="2" class="data-point"/>
  
    <circle cx="351.1504424778761" cy="299.2547775047775" r="4" fill="#3b82f6" stroke="#0d1117" stroke-width="2" class="data-point"/>
  
    <circle cx="354.24778761061947" cy="298.7814632814633" r="4" fill="#3b82f6" stroke="#0d1117" stroke-width="2" class="data-point"/>
  
    <circle cx="357.34513274336285" cy="297.734984984985" r="4" fill="#3b82f6" stroke="#0d1117" stroke-width="2" class="data-point"/>
  
    <circle cx="360.4424778761062" cy="295.6524024024024" r="4" fill="#3b82f6" stroke="#0d1117" stroke-width="2" class="data-point"/>
  
    <circle cx="363.53982300884957" cy="293.17171717171715" r="4" fill="#3b82f6" stroke="#0d1117" stroke-width="2" class="data-point"/>
  
    <circle cx="366.63716814159295" cy="290.9114796614797" r="4" fill="#3b82f6" stroke="#0d1117" stroke-width="2" class="data-point"/>
  
    <circle cx="369.7345132743363" cy="289.7651515151515" r="4" fill="#3b82f6" stroke="#0d1117" stroke-width="2" class="data-point"/>
  
    <circle cx="372.8318584070796" cy="288.0378787878788" r="4" fill="#3b82f6" stroke="#0d1117" stroke-width="2" class="data-point"/>
  
    <circle cx="375.929203539823" cy="286.8902538902539" r="4" fill="#3b82f6" stroke="#0d1117" stroke-width="2" class="data-point"/>
  
    <circle cx="379.0265486725664" cy="285.8839748839749" r="4" fill="#3b82f6" stroke="#0d1117" stroke-width="2" class="data-point"/>
  
    <circle cx="382.1238938053097" cy="284.89974064974064" r="4" fill="#3b82f6" stroke="#0d1117" stroke-width="2" class="data-point"/>
  
    <circle cx="385.2212389380531" cy="283.9725634725635" r="4" fill="#3b82f6" stroke="#0d1117" stroke-width="2" class="data-point"/>
  
    <circle cx="388.3185840707965" cy="282.530576030576" r="4" fill="#3b82f6" stroke="#0d1117" stroke-width="2" class="data-point"/>
  
    <circle cx="391.41592920353986" cy="281.3842478842479" r="4" fill="#3b82f6" stroke="#0d1117" stroke-width="2" class="data-point"/>
  
    <circle cx="394.5132743362832" cy="279.9189189189189" r="4" fill="#3b82f6" stroke="#0d1117" stroke-width="2" class="data-point"/>
  
    <circle cx="397.6106194690265" cy="279.61936936936934" r="4" fill="#3b82f6" stroke="#0d1117" stroke-width="2" class="data-point"/>
  
    <circle cx="400.7079646017699" cy="279.58046683046683" r="4" fill="#3b82f6" stroke="#0d1117" stroke-width="2" class="data-point"/>
  
    <circle cx="403.8053097345133" cy="279.5298935298935" r="4" fill="#3b82f6" stroke="#0d1117" stroke-width="2" class="data-point"/>
  
    <circle cx="406.9026548672566" cy="279.4871007371007" r="4" fill="#3b82f6" stroke="#0d1117" stroke-width="2" class="data-point"/>
  
    <circle cx="410" cy="279.43134043134046" r="4" fill="#3b82f6" stroke="#0d1117" stroke-width="2" class="data-point"/>
  
    <circle cx="413.0973451327434" cy="279.3820638820639" r="4" fill="#3b82f6" stroke="#0d1117" stroke-width="2" class="data-point"/>
  
    <circle cx="416.1946902654867" cy="279.3626126126126" r="4" fill="#3b82f6" stroke="#0d1117" stroke-width="2" class="data-point"/>
  
    <circle cx="419.2920353982301" cy="279.2912912912913" r="4" fill="#3b82f6" stroke="#0d1117" stroke-width="2" class="data-point"/>
  
    <circle cx="422.3893805309735" cy="279.2225634725635" r="4" fill="#3b82f6" stroke="#0d1117" stroke-width="2" class="data-point"/>
  
    <circle cx="425.4867256637168" cy="279.17717717717716" r="4" fill="#3b82f6" stroke="#0d1117" stroke-width="2" class="data-point"/>
  
    <circle cx="428.5840707964602" cy="279.1603194103194" r="4" fill="#3b82f6" stroke="#0d1117" stroke-width="2" class="data-point"/>
  
    <circle cx="431.6814159292036" cy="279.0838110838111" r="4" fill="#3b82f6" stroke="#0d1117" stroke-width="2" class="data-point"/>
  
    <circle cx="434.77876106194697" cy="277.2035217035217" r="4" fill="#3b82f6" stroke="#0d1117" stroke-width="2" class="data-point"/>
  
    <circle cx="437.87610619469024" cy="274.2585995085995" r="4" fill="#3b82f6" stroke="#0d1117" stroke-width="2" class="data-point"/>
  
    <circle cx="440.9734513274336" cy="272.2862407862408" r="4" fill="#3b82f6" stroke="#0d1117" stroke-width="2" class="data-point"/>
  
    <circle cx="444.07079646017695" cy="269.996177996178" r="4" fill="#3b82f6" stroke="#0d1117" stroke-width="2" class="data-point"/>
  
    <circle cx="447.16814159292034" cy="267.63609063609067" r="4" fill="#3b82f6" stroke="#0d1117" stroke-width="2" class="data-point"/>
  
    <circle cx="450.2654867256637" cy="265.78432978432977" r="4" fill="#3b82f6" stroke="#0d1117" stroke-width="2" class="data-point"/>
  
    <circle cx="453.36283185840705" cy="263.71341796341795" r="4" fill="#3b82f6" stroke="#0d1117" stroke-width="2" class="data-point"/>
  
    <circle cx="456.46017699115043" cy="260.5584220584221" r="4" fill="#3b82f6" stroke="#0d1117" stroke-width="2" class="data-point"/>
  
    <circle cx="459.5575221238938" cy="256.3063745563745" r="4" fill="#3b82f6" stroke="#0d1117" stroke-width="2" class="data-point"/>
  
    <circle cx="462.65486725663715" cy="253.53132678132678" r="4" fill="#3b82f6" stroke="#0d1117" stroke-width="2" class="data-point"/>
  
    <circle cx="465.75221238938053" cy="250.22850122850122" r="4" fill="#3b82f6" stroke="#0d1117" stroke-width="2" class="data-point"/>
  
    <circle cx="468.8495575221239" cy="246.54832104832104" r="4" fill="#3b82f6" stroke="#0d1117" stroke-width="2" class="data-point"/>
  
    <circle cx="471.9469026548673" cy="243.5969150969151" r="4" fill="#3b82f6" stroke="#0d1117" stroke-width="2" class="data-point"/>
  
    <circle cx="475.04424778761063" cy="240.3939393939394" r="4" fill="#3b82f6" stroke="#0d1117" stroke-width="2" class="data-point"/>
  
    <circle cx="478.141592920354" cy="237.5527573027573" r="4" fill="#3b82f6" stroke="#0d1117" stroke-width="2" class="data-point"/>
  
    <circle cx="481.2389380530974" cy="234.73751023751024" r="4" fill="#3b82f6" stroke="#0d1117" stroke-width="2" class="data-point"/>
  
    <circle cx="484.3362831858407" cy="231.9300436800437" r="4" fill="#3b82f6" stroke="#0d1117" stroke-width="2" class="data-point"/>
  
    <circle cx="487.43362831858406" cy="228.10722085722085" r="4" fill="#3b82f6" stroke="#0d1117" stroke-width="2" class="data-point"/>
  
    <circle cx="490.5309734513274" cy="224.27272727272725" r="4" fill="#3b82f6" stroke="#0d1117" stroke-width="2" class="data-point"/>
  
    <circle cx="493.62831858407077" cy="221.07623532623532" r="4" fill="#3b82f6" stroke="#0d1117" stroke-width="2" class="data-point"/>
  
    <circle cx="496.72566371681415" cy="218.39714714714714" r="4" fill="#3b82f6" stroke="#0d1117" stroke-width="2" class="data-point"/>
  
    <circle cx="499.8230088495575" cy="215.79845754845755" r="4" fill="#3b82f6" stroke="#0d1117" stroke-width="2" class="data-point"/>
  
    <circle cx="502.92035398230087" cy="212.34909909909908" r="4" fill="#3b82f6" stroke="#0d1117" stroke-width="2" class="data-point"/>
  
    <circle cx="506.01769911504425" cy="209.67390117390116" r="4" fill="#3b82f6" stroke="#0d1117" stroke-width="2" class="data-point"/>
  
    <circle cx="509.11504424778764" cy="207.02723177723178" r="4" fill="#3b82f6" stroke="#0d1117" stroke-width="2" class="data-point"/>
  
    <circle cx="512.212389380531" cy="204.55173355173355" r="4" fill="#3b82f6" stroke="#0d1117" stroke-width="2" class="data-point"/>
  
    <circle cx="515.3097345132744" cy="202.22017472017473" r="4" fill="#3b82f6" stroke="#0d1117" stroke-width="2" class="data-point"/>
  
    <circle cx="518.4070796460178" cy="199.83155883155882" r="4" fill="#3b82f6" stroke="#0d1117" stroke-width="2" class="data-point"/>
  
    <circle cx="521.5044247787611" cy="197.78917553917555" r="4" fill="#3b82f6" stroke="#0d1117" stroke-width="2" class="data-point"/>
  
    <circle cx="524.6017699115044" cy="195.67417417417417" r="4" fill="#3b82f6" stroke="#0d1117" stroke-width="2" class="data-point"/>
  
    <circle cx="527.6991150442478" cy="193.51508326508326" r="4" fill="#3b82f6" stroke="#0d1117" stroke-width="2" class="data-point"/>
  
    <circle cx="530.7964601769911" cy="191.232800982801" r="4" fill="#3b82f6" stroke="#0d1117" stroke-width="2" class="data-point"/>
  
    <circle cx="533.8938053097345" cy="189.13854763854764" r="4" fill="#3b82f6" stroke="#0d1117" stroke-width="2" class="data-point"/>
  
    <circle cx="536.9911504424779" cy="187.22065247065248" r="4" fill="#3b82f6" stroke="#0d1117" stroke-width="2" class="data-point"/>
  
    <circle cx="540.0884955752213" cy="183.74535899535897" r="4" fill="#3b82f6" stroke="#0d1117" stroke-width="2" class="data-point"/>
  
    <circle cx="543.1858407079646" cy="180.83674583674585" r="4" fill="#3b82f6" stroke="#0d1117" stroke-width="2" class="data-point"/>
  
    <circle cx="546.2831858407079" cy="178.04354354354354" r="4" fill="#3b82f6" stroke="#0d1117" stroke-width="2" class="data-point"/>
  
    <circle cx="549.3805309734513" cy="175.36056511056512" r="4" fill="#3b82f6" stroke="#0d1117" stroke-width="2" class="data-point"/>
  
    <circle cx="552.4778761061947" cy="171.1240786240786" r="4" fill="#3b82f6" stroke="#0d1117" stroke-width="2" class="data-point"/>
  
    <circle cx="555.5752212389381" cy="168.4436936936937" r="4" fill="#3b82f6" stroke="#0d1117" stroke-width="2" class="data-point"/>
  
    <circle cx="558.6725663716813" cy="166.12380562380562" r="4" fill="#3b82f6" stroke="#0d1117" stroke-width="2" class="data-point"/>
  
    <circle cx="561.7699115044247" cy="163.38377013377016" r="4" fill="#3b82f6" stroke="#0d1117" stroke-width="2" class="data-point"/>
  
    <circle cx="564.8672566371681" cy="159.34438984438984" r="4" fill="#3b82f6" stroke="#0d1117" stroke-width="2" class="data-point"/>
  
    <circle cx="567.9646017699115" cy="156.4383701883702" r="4" fill="#3b82f6" stroke="#0d1117" stroke-width="2" class="data-point"/>
  
    <circle cx="571.0619469026549" cy="153.9849167349167" r="4" fill="#3b82f6" stroke="#0d1117" stroke-width="2" class="data-point"/>
  
    <circle cx="574.1592920353983" cy="151.90881790881792" r="4" fill="#3b82f6" stroke="#0d1117" stroke-width="2" class="data-point"/>
  
    <circle cx="577.2566371681417" cy="149.9390526890527" r="4" fill="#3b82f6" stroke="#0d1117" stroke-width="2" class="data-point"/>
  
    <circle cx="580.353982300885" cy="148.33756483756483" r="4" fill="#3b82f6" stroke="#0d1117" stroke-width="2" class="data-point"/>
  
    <circle cx="583.4513274336283" cy="146.5337837837838" r="4" fill="#3b82f6" stroke="#0d1117" stroke-width="2" class="data-point"/>
  
    <circle cx="586.5486725663717" cy="145.06326781326783" r="4" fill="#3b82f6" stroke="#0d1117" stroke-width="2" class="data-point"/>
  
    <circle cx="589.646017699115" cy="143.32821457821458" r="4" fill="#3b82f6" stroke="#0d1117" stroke-width="2" class="data-point"/>
  
    <circle cx="592.7433628318583" cy="140.83067158067158" r="4" fill="#3b82f6" stroke="#0d1117" stroke-width="2" class="data-point"/>
  
    <circle cx="595.8407079646017" cy="138.6845481845482" r="4" fill="#3b82f6" stroke="#0d1117" stroke-width="2" class="data-point"/>
  
    <circle cx="598.9380530973451" cy="136.81852306852306" r="4" fill="#3b82f6" stroke="#0d1117" stroke-width="2" class="data-point"/>
  
    <circle cx="602.0353982300885" cy="135.20536445536445" r="4" fill="#3b82f6" stroke="#0d1117" stroke-width="2" class="data-point"/>
  
    <circle cx="605.1327433628319" cy="133.54163254163254" r="4" fill="#3b82f6" stroke="#0d1117" stroke-width="2" class="data-point"/>
  
    <circle cx="608.2300884955753" cy="132.13854763854766" r="4" fill="#3b82f6" stroke="#0d1117" stroke-width="2" class="data-point"/>
  
    <circle cx="611.3274336283185" cy="129.77975702975704" r="4" fill="#3b82f6" stroke="#0d1117" stroke-width="2" class="data-point"/>
  
    <circle cx="614.4247787610619" cy="127.76330876330874" r="4" fill="#3b82f6" stroke="#0d1117" stroke-width="2" class="data-point"/>
  
    <circle cx="617.5221238938053" cy="125.76371826371826" r="4" fill="#3b82f6" stroke="#0d1117" stroke-width="2" class="data-point"/>
  
    <circle cx="620.6194690265487" cy="124.11295386295387" r="4" fill="#3b82f6" stroke="#0d1117" stroke-width="2" class="data-point"/>
  
    <circle cx="623.7168141592921" cy="122.59834834834837" r="4" fill="#3b82f6" stroke="#0d1117" stroke-width="2" class="data-point"/>
  
    <circle cx="626.8141592920355" cy="121.25361725361725" r="4" fill="#3b82f6" stroke="#0d1117" stroke-width="2" class="data-point"/>
  
    <circle cx="629.9115044247787" cy="118.94799344799344" r="4" fill="#3b82f6" stroke="#0d1117" stroke-width="2" class="data-point"/>
  
    <circle cx="633.0088495575221" cy="117.07548457548458" r="4" fill="#3b82f6" stroke="#0d1117" stroke-width="2" class="data-point"/>
  
    <circle cx="636.1061946902654" cy="115.36895986895985" r="4" fill="#3b82f6" stroke="#0d1117" stroke-width="2" class="data-point"/>
  
    <circle cx="639.2035398230088" cy="113.7389434889435" r="4" fill="#3b82f6" stroke="#0d1117" stroke-width="2" class="data-point"/>
  
    <circle cx="642.3008849557522" cy="112.3164073164073" r="4" fill="#3b82f6" stroke="#0d1117" stroke-width="2" class="data-point"/>
  
    <circle cx="645.3982300884956" cy="110.9353671853672" r="4" fill="#3b82f6" stroke="#0d1117" stroke-width="2" class="data-point"/>
  
    <circle cx="648.4955752212389" cy="109.66973791973794" r="4" fill="#3b82f6" stroke="#0d1117" stroke-width="2" class="data-point"/>
  
    <circle cx="651.5929203539823" cy="108.45597870597871" r="4" fill="#3b82f6" stroke="#0d1117" stroke-width="2" class="data-point"/>
  
    <circle cx="654.6902654867257" cy="107.34336609336609" r="4" fill="#3b82f6" stroke="#0d1117" stroke-width="2" class="data-point"/>
  
    <circle cx="657.787610619469" cy="105.95454545454547" r="4" fill="#3b82f6" stroke="#0d1117" stroke-width="2" class="data-point"/>
  
    <circle cx="660.8849557522124" cy="104.46328146328145" r="4" fill="#3b82f6" stroke="#0d1117" stroke-width="2" class="data-point"/>
  
    <circle cx="663.9823008849557" cy="103.09131859131861" r="4" fill="#3b82f6" stroke="#0d1117" stroke-width="2" class="data-point"/>
  
    <circle cx="667.0796460176991" cy="100.95945945945945" r="4" fill="#3b82f6" stroke="#0d1117" stroke-width="2" class="data-point"/>
  
    <circle cx="670.1769911504425" cy="99.41243516243517" r="4" fill="#3b82f6" stroke="#0d1117" stroke-width="2" class="data-point"/>
  
    <circle cx="673.2743362831859" cy="97.93284193284191" r="4" fill="#3b82f6" stroke="#0d1117" stroke-width="2" class="data-point"/>
  
    <circle cx="676.3716814159292" cy="96.63479388479388" r="4" fill="#3b82f6" stroke="#0d1117" stroke-width="2" class="data-point"/>
  
    <circle cx="679.4690265486726" cy="95.11240786240785" r="4" fill="#3b82f6" stroke="#0d1117" stroke-width="2" class="data-point"/>
  
    <circle cx="682.566371681416" cy="93.24249249249249" r="4" fill="#3b82f6" stroke="#0d1117" stroke-width="2" class="data-point"/>
  
    <circle cx="685.6637168141592" cy="91.58524433524434" r="4" fill="#3b82f6" stroke="#0d1117" stroke-width="2" class="data-point"/>
  
    <circle cx="688.7610619469026" cy="90.1056511056511" r="4" fill="#3b82f6" stroke="#0d1117" stroke-width="2" class="data-point"/>
  
    <circle cx="691.858407079646" cy="88.49897624897625" r="4" fill="#3b82f6" stroke="#0d1117" stroke-width="2" class="data-point"/>
  
    <circle cx="694.9557522123894" cy="86.28282828282826" r="4" fill="#3b82f6" stroke="#0d1117" stroke-width="2" class="data-point"/>
  
    <circle cx="698.0530973451328" cy="84.46348621348622" r="4" fill="#3b82f6" stroke="#0d1117" stroke-width="2" class="data-point"/>
  
    <circle cx="701.1504424778761" cy="82.51187551187553" r="4" fill="#3b82f6" stroke="#0d1117" stroke-width="2" class="data-point"/>
  
    <circle cx="704.2477876106194" cy="80.56674856674857" r="4" fill="#3b82f6" stroke="#0d1117" stroke-width="2" class="data-point"/>
  
    <circle cx="707.3451327433628" cy="78.755187005187" r="4" fill="#3b82f6" stroke="#0d1117" stroke-width="2" class="data-point"/>
  
    <circle cx="710.4424778761062" cy="76.97734097734099" r="4" fill="#3b82f6" stroke="#0d1117" stroke-width="2" class="data-point"/>
  
    <circle cx="713.5398230088496" cy="75.09575484575487" r="4" fill="#3b82f6" stroke="#0d1117" stroke-width="2" class="data-point"/>
  
    <circle cx="716.637168141593" cy="73.40868140868139" r="4" fill="#3b82f6" stroke="#0d1117" stroke-width="2" class="data-point"/>
  
    <circle cx="719.7345132743363" cy="71.93038493038495" r="4" fill="#3b82f6" stroke="#0d1117" stroke-width="2" class="data-point"/>
  
    <circle cx="722.8318584070797" cy="70.56101556101555" r="4" fill="#3b82f6" stroke="#0d1117" stroke-width="2" class="data-point"/>
  
    <circle cx="725.929203539823" cy="69.11254436254433" r="4" fill="#3b82f6" stroke="#0d1117" stroke-width="2" class="data-point"/>
  
    <circle cx="729.0265486725664" cy="67.69908544908543" r="4" fill="#3b82f6" stroke="#0d1117" stroke-width="2" class="data-point"/>
  
    <circle cx="732.1238938053098" cy="66.42178542178544" r="4" fill="#3b82f6" stroke="#0d1117" stroke-width="2" class="data-point"/>
  
    <circle cx="735.221238938053" cy="65.14189189189187" r="4" fill="#3b82f6" stroke="#0d1117" stroke-width="2" class="data-point"/>
  
    <circle cx="738.3185840707964" cy="63.91646191646191" r="4" fill="#3b82f6" stroke="#0d1117" stroke-width="2" class="data-point"/>
  
    <circle cx="741.4159292035398" cy="62.698812448812475" r="4" fill="#3b82f6" stroke="#0d1117" stroke-width="2" class="data-point"/>
  
    <circle cx="744.5132743362832" cy="61.48375648375651" r="4" fill="#3b82f6" stroke="#0d1117" stroke-width="2" class="data-point"/>
  
    <circle cx="747.6106194690266" cy="60.411343161343154" r="4" fill="#3b82f6" stroke="#0d1117" stroke-width="2" class="data-point"/>
  
    <circle cx="750.7079646017698" cy="59.16386841386844" r="4" fill="#3b82f6" stroke="#0d1117" stroke-width="2" class="data-point"/>
  
    <circle cx="753.8053097345132" cy="57.87749112749117" r="4" fill="#3b82f6" stroke="#0d1117" stroke-width="2" class="data-point"/>
  
    <circle cx="756.9026548672566" cy="56.41216216216213" r="4" fill="#3b82f6" stroke="#0d1117" stroke-width="2" class="data-point"/>
  
    <circle cx="760" cy="55" r="4" fill="#3b82f6" stroke="#0d1117" stroke-width="2" class="data-point"/>
  

  <!-- Axis lines -->
  <line x1="60" y1="55" x2="60" y2="340"
        stroke="#30363d" stroke-width="2"/>
  <line x1="60" y1="340" x2="760" y2="340"
        stroke="#30363d" stroke-width="2"/>
</svg>