<?xml version="1.0" encoding="UTF-8"?>
<svg width="800" height="400" xmlns="http://www.w3.org/2000/svg">
  <defs>
    <!-- Gradient for area fill -->
    <linearGradient id="areaGradient" x1="0%" y1="0%" x2="0%" y2="100%">
      <stop offset="0%" style="stop-color:#3b82f6;stop-opacity:0.3" />
      <stop offset="100%" style="stop-color:#3b82f6;stop-opacity:0.05" />
    </linearGradient>

    <!-- Glow filter for line -->
    <filter id="glow">
      <feGaussianBlur stdDeviation="2" result="coloredBlur"/>
      <feMerge>
        <feMergeNode in="coloredBlur"/>
        <feMergeNode in="SourceGraphic"/>
      </feMerge>
    </filter>

    <!-- Animation -->
    <style>
      @keyframes draw {
        from { stroke-dashoffset: 2000; }
        to { stroke-dashoffset: 0; }
      }
      @keyframes fadeIn {
        from { opacity: 0; }
        to { opacity: 1; }
      }
      .line-path {
        stroke-dasharray: 2000;
        stroke-dashoffset: 2000;
        animation: draw 1.5s ease-out forwards;
      }
      .area-path {
        opacity: 0;
        animation: fadeIn 1s ease-out 0.5s forwards;
      }
      .data-point {
        opacity: 0;
        animation: fadeIn 0.5s ease-out 1s forwards;
      }
    </style>
  </defs>

  <!-- Background -->
  <rect width="800" height="400" fill="#0d1117" rx="8"/>

  <!-- Title -->
  <text x="400" y="25" text-anchor="middle" fill="#c9d1d9" font-family="system-ui, -apple-system, sans-serif" font-size="16" font-weight="600">
    zxcloli666/SoundCloud-Desktop Downloads
  </text>

  <!-- Stats -->
  <text x="780" y="25" text-anchor="end" fill="#58a6ff" font-family="system-ui, -apple-system, sans-serif" font-size="14" font-weight="600">
    102.6K total
  </text>
  <text x="780" y="42" text-anchor="end" fill="#3fb950" font-family="system-ui, -apple-system, sans-serif" font-size="12">
    +759 (+0.7%)
  </text>

  <!-- Grid lines -->
  <g opacity="0.1">
    
      <line x1="60" y1="340" x2="760" y2="340"
            stroke="#c9d1d9" stroke-width="1"/>
    
      <line x1="60" y1="268.75" x2="760" y2="268.75"
            stroke="#c9d1d9" stroke-width="1"/>
    
      <line x1="60" y1="197.5" x2="760" y2="197.5"
            stroke="#c9d1d9" stroke-width="1"/>
    
      <line x1="60" y1="126.25" x2="760" y2="126.25"
            stroke="#c9d1d9" stroke-width="1"/>
    
      <line x1="60" y1="55" x2="760" y2="55"
            stroke="#c9d1d9" stroke-width="1"/>
    
  </g>

  <!-- Y-axis labels -->
  
    <text x="50" y="344" text-anchor="end"
          fill="#8b949e" font-family="system-ui, -apple-system, sans-serif" font-size="11">
      60.2K
    </text>
  
    <text x="50" y="272.75" text-anchor="end"
          fill="#8b949e" font-family="system-ui, -apple-system, sans-serif" font-size="11">
      70.8K
    </text>
  
    <text x="50" y="201.5" text-anchor="end"
          fill="#8b949e" font-family="system-ui, -apple-system, sans-serif" font-size="11">
      81.4K
    </text>
  
    <text x="50" y="130.25" text-anchor="end"
          fill="#8b949e" font-family="system-ui, -apple-system, sans-serif" font-size="11">
      92.0K
    </text>
  
    <text x="50" y="59" text-anchor="end"
          fill="#8b949e" font-family="system-ui, -apple-system, sans-serif" font-size="11">
      102.6K
    </text>
  

  <!-- X-axis labels -->
  
    <text x="60" y="360" text-anchor="middle"
          fill="#8b949e" font-family="system-ui, -apple-system, sans-serif" font-size="11">
      Nov 25
    </text>
  
    <text x="147.5" y="360" text-anchor="middle"
          fill="#8b949e" font-family="system-ui, -apple-system, sans-serif" font-size="11">
      Dec 8
    </text>
  
    <text x="235" y="360" text-anchor="middle"
          fill="#8b949e" font-family="system-ui, -apple-system, sans-serif" font-size="11">
      Dec 21
    </text>
  
    <text x="322.5" y="360" text-anchor="middle"
          fill="#8b949e" font-family="system-ui, -apple-system, sans-serif" font-size="11">
      Jan 3
    </text>
  
    <text x="410" y="360" text-anchor="middle"
          fill="#8b949e" font-family="system-ui, -apple-system, sans-serif" font-size="11">
      Jan 16
    </text>
  
    <text x="497.5" y="360" text-anchor="middle"
          fill="#8b949e" font-family="system-ui, -apple-system, sans-serif" font-size="11">
      Jan 29
    </text>
  
    <text x="585" y="360" text-anchor="middle"
          fill="#8b949e" font-family="system-ui, -apple-system, sans-serif" font-size="11">
      Feb 11
    </text>
  
    <text x="672.5" y="360" text-anchor="middle"
          fill="#8b949e" font-family="system-ui, -apple-system, sans-serif" font-size="11">
      Feb 24
    </text>
  
    <text x="760" y="360" text-anchor="middle"
          fill="#8b949e" font-family="system-ui, -apple-system, sans-serif" font-size="11">
      Mar 9
    </text>
  

  <!-- Area under line -->
  <path d="M 60 340
    L 60.00 340.00 L 66.73 339.01 L 73.46 337.34 L 80.19 335.78 L 86.92 332.69 L 93.65 329.50 L 100.38 326.98 L 107.12 324.63 L 113.85 322.55 L 120.58 320.10 L 127.31 317.37 L 134.04 314.45 L 140.77 311.79 L 147.50 308.97 L 154.23 306.91 L 160.96 304.77 L 167.69 301.88 L 174.42 299.94 L 181.15 297.25 L 187.88 294.16 L 194.62 291.82 L 201.35 289.90 L 208.08 288.66 L 214.81 287.63 L 221.54 285.72 L 228.27 284.36 L 235.00 281.37 L 241.73 280.20 L 248.46 278.68 L 255.19 276.72 L 261.92 275.38 L 268.65 274.02 L 275.38 272.59 L 282.12 271.60 L 288.85 270.74 L 295.58 269.43 L 302.31 267.84 L 309.04 266.38 L 315.77 264.53 L 322.50 262.51 L 329.23 260.66 L 335.96 258.43 L 342.69 256.23 L 349.42 254.04 L 356.15 251.64 L 362.88 249.34 L 369.62 246.72 L 376.35 244.38 L 383.08 242.40 L 389.81 240.82 L 396.54 238.61 L 403.27 236.08 L 410.00 233.76 L 416.73 231.06 L 423.46 227.73 L 430.19 225.24 L 436.92 223.19 L 443.65 221.23 L 450.38 218.87 L 457.12 216.14 L 463.85 213.10 L 470.58 209.92 L 477.31 206.86 L 484.04 204.17 L 490.77 201.50 L 497.50 199.15 L 504.23 196.75 L 510.96 194.06 L 517.69 190.72 L 524.42 188.23 L 531.15 186.01 L 537.88 183.53 L 544.62 181.22 L 551.35 178.69 L 558.08 176.05 L 564.81 173.28 L 571.54 170.86 L 578.27 168.79 L 585.00 166.52 L 591.73 164.05 L 598.46 161.77 L 605.19 158.80 L 611.92 156.25 L 618.65 153.79 L 625.38 151.74 L 632.12 149.75 L 638.85 147.76 L 645.58 145.38 L 652.31 142.93 L 659.04 139.96 L 665.77 137.55 L 672.50 135.59 L 679.23 133.57 L 685.96 131.64 L 692.69 129.25 L 699.42 126.80 L 706.15 121.39 L 712.88 110.62 L 719.62 97.79 L 726.35 86.10 L 733.08 80.17 L 739.81 71.23 L 746.54 65.30 L 753.27 60.09 L 760.00 55.00
    L 760 340
    Z" fill="url(#areaGradient)" class="area-path"/>

  <!-- Main line with glow -->
  <path d="M 60.00 340.00 L 66.73 339.01 L 73.46 337.34 L 80.19 335.78 L 86.92 332.69 L 93.65 329.50 L 100.38 326.98 L 107.12 324.63 L 113.85 322.55 L 120.58 320.10 L 127.31 317.37 L 134.04 314.45 L 140.77 311.79 L 147.50 308.97 L 154.23 306.91 L 160.96 304.77 L 167.69 301.88 L 174.42 299.94 L 181.15 297.25 L 187.88 294.16 L 194.62 291.82 L 201.35 289.90 L 208.08 288.66 L 214.81 287.63 L 221.54 285.72 L 228.27 284.36 L 235.00 281.37 L 241.73 280.20 L 248.46 278.68 L 255.19 276.72 L 261.92 275.38 L 268.65 274.02 L 275.38 272.59 L 282.12 271.60 L 288.85 270.74 L 295.58 269.43 L 302.31 267.84 L 309.04 266.38 L 315.77 264.53 L 322.50 262.51 L 329.23 260.66 L 335.96 258.43 L 342.69 256.23 L 349.42 254.04 L 356.15 251.64 L 362.88 249.34 L 369.62 246.72 L 376.35 244.38 L 383.08 242.40 L 389.81 240.82 L 396.54 238.61 L 403.27 236.08 L 410.00 233.76 L 416.73 231.06 L 423.46 227.73 L 430.19 225.24 L 436.92 223.19 L 443.65 221.23 L 450.38 218.87 L 457.12 216.14 L 463.85 213.10 L 470.58 209.92 L 477.31 206.86 L 484.04 204.17 L 490.77 201.50 L 497.50 199.15 L 504.23 196.75 L 510.96 194.06 L 517.69 190.72 L 524.42 188.23 L 531.15 186.01 L 537.88 183.53 L 544.62 181.22 L 551.35 178.69 L 558.08 176.05 L 564.81 173.28 L 571.54 170.86 L 578.27 168.79 L 585.00 166.52 L 591.73 164.05 L 598.46 161.77 L 605.19 158.80 L 611.92 156.25 L 618.65 153.79 L 625.38 151.74 L 632.12 149.75 L 638.85 147.76 L 645.58 145.38 L 652.31 142.93 L 659.04 139.96 L 665.77 137.55 L 672.50 135.59 L 679.23 133.57 L 685.96 131.64 L 692.69 129.25 L 699.42 126.80 L 706.15 121.39 L 712.88 110.62 L 719.62 97.79 L 726.35 86.10 L 733.08 80.17 L 739.81 71.23 L 746.54 65.30 L 753.27 60.09 L 760.00 55.00" fill="none" stroke="#3b82f6" stroke-width="3"
        stroke-linecap="round" stroke-linejoin="round" filter="url(#glow)" class="line-path"/>

  <!-- Data points -->
  
    <circle cx="60" cy="340" r="4" fill="#3b82f6" stroke="#0d1117" stroke-width="2" class="data-point"/>
  
    <circle cx="66.73076923076923" cy="339.01402649972937" r="4" fill="#3b82f6" stroke="#0d1117" stroke-width="2" class="data-point"/>
  
    <circle cx="73.46153846153847" cy="337.33720081899696" r="4" fill="#3b82f6" stroke="#0d1117" stroke-width="2" class="data-point"/>
  
    <circle cx="80.1923076923077" cy="335.7811065872773" r="4" fill="#3b82f6" stroke="#0d1117" stroke-width="2" class="data-point"/>
  
    <circle cx="86.92307692307692" cy="332.6890400320068" r="4" fill="#3b82f6" stroke="#0d1117" stroke-width="2" class="data-point"/>
  
    <circle cx="93.65384615384616" cy="329.4963639358923" r="4" fill="#3b82f6" stroke="#0d1117" stroke-width="2" class="data-point"/>
  
    <circle cx="100.38461538461539" cy="326.9811254147937" r="4" fill="#3b82f6" stroke="#0d1117" stroke-width="2" class="data-point"/>
  
    <circle cx="107.11538461538461" cy="324.6335694617684" r="4" fill="#3b82f6" stroke="#0d1117" stroke-width="2" class="data-point"/>
  
    <circle cx="113.84615384615384" cy="322.54759831493726" r="4" fill="#3b82f6" stroke="#0d1117" stroke-width="2" class="data-point"/>
  
    <circle cx="120.57692307692307" cy="320.099432821068" r="4" fill="#3b82f6" stroke="#0d1117" stroke-width="2" class="data-point"/>
  
    <circle cx="127.3076923076923" cy="317.36956061283564" r="4" fill="#3b82f6" stroke="#0d1117" stroke-width="2" class="data-point"/>
  
    <circle cx="134.03846153846155" cy="314.4451766256384" r="4" fill="#3b82f6" stroke="#0d1117" stroke-width="2" class="data-point"/>
  
    <circle cx="140.76923076923077" cy="311.7890847473583" r="4" fill="#3b82f6" stroke="#0d1117" stroke-width="2" class="data-point"/>
  
    <circle cx="147.5" cy="308.96531030100493" r="4" fill="#3b82f6" stroke="#0d1117" stroke-width="2" class="data-point"/>
  
    <circle cx="154.23076923076923" cy="306.9061683650655" r="4" fill="#3b82f6" stroke="#0d1117" stroke-width="2" class="data-point"/>
  
    <circle cx="160.96153846153845" cy="304.77324609917395" r="4" fill="#3b82f6" stroke="#0d1117" stroke-width="2" class="data-point"/>
  
    <circle cx="167.69230769230768" cy="301.87569132286836" r="4" fill="#3b82f6" stroke="#0d1117" stroke-width="2" class="data-point"/>
  
    <circle cx="174.4230769230769" cy="299.93728083594175" r="4" fill="#3b82f6" stroke="#0d1117" stroke-width="2" class="data-point"/>
  
    <circle cx="181.15384615384613" cy="297.2543597467699" r="4" fill="#3b82f6" stroke="#0d1117" stroke-width="2" class="data-point"/>
  
    <circle cx="187.88461538461536" cy="294.15558588877644" r="4" fill="#3b82f6" stroke="#0d1117" stroke-width="2" class="data-point"/>
  
    <circle cx="194.6153846153846" cy="291.82144454119697" r="4" fill="#3b82f6" stroke="#0d1117" stroke-width="2" class="data-point"/>
  
    <circle cx="201.34615384615384" cy="289.9031559624391" r="4" fill="#3b82f6" stroke="#0d1117" stroke-width="2" class="data-point"/>
  
    <circle cx="208.07692307692307" cy="288.6623049586971" r="4" fill="#3b82f6" stroke="#0d1117" stroke-width="2" class="data-point"/>
  
    <circle cx="214.8076923076923" cy="287.629380339366" r="4" fill="#3b82f6" stroke="#0d1117" stroke-width="2" class="data-point"/>
  
    <circle cx="221.53846153846155" cy="285.7177990633311" r="4" fill="#3b82f6" stroke="#0d1117" stroke-width="2" class="data-point"/>
  
    <circle cx="228.26923076923077" cy="284.3562166105764" r="4" fill="#3b82f6" stroke="#0d1117" stroke-width="2" class="data-point"/>
  
    <circle cx="235" cy="281.3714668988727" r="4" fill="#3b82f6" stroke="#0d1117" stroke-width="2" class="data-point"/>
  
    <circle cx="241.73076923076925" cy="280.19768892236004" r="4" fill="#3b82f6" stroke="#0d1117" stroke-width="2" class="data-point"/>
  
    <circle cx="248.46153846153845" cy="278.68183850697795" r="4" fill="#3b82f6" stroke="#0d1117" stroke-width="2" class="data-point"/>
  
    <circle cx="255.1923076923077" cy="276.7233061118825" r="4" fill="#3b82f6" stroke="#0d1117" stroke-width="2" class="data-point"/>
  
    <circle cx="261.9230769230769" cy="275.38184556729664" r="4" fill="#3b82f6" stroke="#0d1117" stroke-width="2" class="data-point"/>
  
    <circle cx="268.6538461538462" cy="274.0202631145419" r="4" fill="#3b82f6" stroke="#0d1117" stroke-width="2" class="data-point"/>
  
    <circle cx="275.38461538461536" cy="272.59160763455793" r="4" fill="#3b82f6" stroke="#0d1117" stroke-width="2" class="data-point"/>
  
    <circle cx="282.11538461538464" cy="271.5989268315643" r="4" fill="#3b82f6" stroke="#0d1117" stroke-width="2" class="data-point"/>
  
    <circle cx="288.8461538461538" cy="270.74039208302935" r="4" fill="#3b82f6" stroke="#0d1117" stroke-width="2" class="data-point"/>
  
    <circle cx="295.5769230769231" cy="269.4324680520581" r="4" fill="#3b82f6" stroke="#0d1117" stroke-width="2" class="data-point"/>
  
    <circle cx="302.30769230769226" cy="267.84283730672377" r="4" fill="#3b82f6" stroke="#0d1117" stroke-width="2" class="data-point"/>
  
    <circle cx="309.03846153846155" cy="266.3806453131251" r="4" fill="#3b82f6" stroke="#0d1117" stroke-width="2" class="data-point"/>
  
    <circle cx="315.7692307692307" cy="264.5294297615966" r="4" fill="#3b82f6" stroke="#0d1117" stroke-width="2" class="data-point"/>
  
    <circle cx="322.5" cy="262.51053164199476" r="4" fill="#3b82f6" stroke="#0d1117" stroke-width="2" class="data-point"/>
  
    <circle cx="329.2307692307692" cy="260.65931609046623" r="4" fill="#3b82f6" stroke="#0d1117" stroke-width="2" class="data-point"/>
  
    <circle cx="335.96153846153845" cy="258.42578428373065" r="4" fill="#3b82f6" stroke="#0d1117" stroke-width="2" class="data-point"/>
  
    <circle cx="342.6923076923077" cy="256.2324962933327" r="4" fill="#3b82f6" stroke="#0d1117" stroke-width="2" class="data-point"/>
  
    <circle cx="349.4230769230769" cy="254.03920830293475" r="4" fill="#3b82f6" stroke="#0d1117" stroke-width="2" class="data-point"/>
  
    <circle cx="356.15384615384613" cy="251.63799392812598" r="4" fill="#3b82f6" stroke="#0d1117" stroke-width="2" class="data-point"/>
  
    <circle cx="362.8846153846154" cy="249.34409639688405" r="4" fill="#3b82f6" stroke="#0d1117" stroke-width="2" class="data-point"/>
  
    <circle cx="369.6153846153846" cy="246.7215410322186" r="4" fill="#3b82f6" stroke="#0d1117" stroke-width="2" class="data-point"/>
  
    <circle cx="376.34615384615387" cy="244.38069238191616" r="4" fill="#3b82f6" stroke="#0d1117" stroke-width="2" class="data-point"/>
  
    <circle cx="383.0769230769231" cy="242.40203807865197" r="4" fill="#3b82f6" stroke="#0d1117" stroke-width="2" class="data-point"/>
  
    <circle cx="389.8076923076923" cy="240.81911463604058" r="4" fill="#3b82f6" stroke="#0d1117" stroke-width="2" class="data-point"/>
  
    <circle cx="396.53846153846155" cy="238.60570473747381" r="4" fill="#3b82f6" stroke="#0d1117" stroke-width="2" class="data-point"/>
  
    <circle cx="403.2692307692308" cy="236.07705161092937" r="4" fill="#3b82f6" stroke="#0d1117" stroke-width="2" class="data-point"/>
  
    <circle cx="410" cy="233.7630321715187" r="4" fill="#3b82f6" stroke="#0d1117" stroke-width="2" class="data-point"/>
  
    <circle cx="416.7307692307692" cy="231.05998917417804" r="4" fill="#3b82f6" stroke="#0d1117" stroke-width="2" class="data-point"/>
  
    <circle cx="423.4615384615385" cy="227.72645972088208" r="4" fill="#3b82f6" stroke="#0d1117" stroke-width="2" class="data-point"/>
  
    <circle cx="430.1923076923077" cy="225.24475771339814" r="4" fill="#3b82f6" stroke="#0d1117" stroke-width="2" class="data-point"/>
  
    <circle cx="436.9230769230769" cy="223.18561577745876" r="4" fill="#3b82f6" stroke="#0d1117" stroke-width="2" class="data-point"/>
  
    <circle cx="443.6538461538462" cy="221.22708338236333" r="4" fill="#3b82f6" stroke="#0d1117" stroke-width="2" class="data-point"/>
  
    <circle cx="450.3846153846154" cy="218.87282012661507" r="4" fill="#3b82f6" stroke="#0d1117" stroke-width="2" class="data-point"/>
  
    <circle cx="457.1153846153846" cy="216.1362406156598" r="4" fill="#3b82f6" stroke="#0d1117" stroke-width="2" class="data-point"/>
  
    <circle cx="463.8461538461538" cy="213.10453978489562" r="4" fill="#3b82f6" stroke="#0d1117" stroke-width="2" class="data-point"/>
  
    <circle cx="470.5769230769231" cy="209.91857099150408" r="4" fill="#3b82f6" stroke="#0d1117" stroke-width="2" class="data-point"/>
  
    <circle cx="477.3076923076923" cy="206.8600409498482" r="4" fill="#3b82f6" stroke="#0d1117" stroke-width="2" class="data-point"/>
  
    <circle cx="484.0384615384615" cy="204.17041255795345" r="4" fill="#3b82f6" stroke="#0d1117" stroke-width="2" class="data-point"/>
  
    <circle cx="490.7692307692308" cy="201.5009060742275" r="4" fill="#3b82f6" stroke="#0d1117" stroke-width="2" class="data-point"/>
  
    <circle cx="497.5" cy="199.14664281847922" r="4" fill="#3b82f6" stroke="#0d1117" stroke-width="2" class="data-point"/>
  
    <circle cx="504.2307692307692" cy="196.74542844367045" r="4" fill="#3b82f6" stroke="#0d1117" stroke-width="2" class="data-point"/>
  
    <circle cx="510.9615384615385" cy="194.0625073544986" r="4" fill="#3b82f6" stroke="#0d1117" stroke-width="2" class="data-point"/>
  
    <circle cx="517.6923076923076" cy="190.72227059847967" r="4" fill="#3b82f6" stroke="#0d1117" stroke-width="2" class="data-point"/>
  
    <circle cx="524.4230769230769" cy="188.2338612882728" r="4" fill="#3b82f6" stroke="#0d1117" stroke-width="2" class="data-point"/>
  
    <circle cx="531.1538461538462" cy="186.0070367842602" r="4" fill="#3b82f6" stroke="#0d1117" stroke-width="2" class="data-point"/>
  
    <circle cx="537.8846153846155" cy="183.53204207949918" r="4" fill="#3b82f6" stroke="#0d1117" stroke-width="2" class="data-point"/>
  
    <circle cx="544.6153846153845" cy="181.2247299428114" r="4" fill="#3b82f6" stroke="#0d1117" stroke-width="2" class="data-point"/>
  
    <circle cx="551.3461538461538" cy="178.68936951354405" r="4" fill="#3b82f6" stroke="#0d1117" stroke-width="2" class="data-point"/>
  
    <circle cx="558.0769230769231" cy="176.04669224070977" r="4" fill="#3b82f6" stroke="#0d1117" stroke-width="2" class="data-point"/>
  
    <circle cx="564.8076923076924" cy="173.28328351886282" r="4" fill="#3b82f6" stroke="#0d1117" stroke-width="2" class="data-point"/>
  
    <circle cx="571.5384615384614" cy="170.86194723588522" r="4" fill="#3b82f6" stroke="#0d1117" stroke-width="2" class="data-point"/>
  
    <circle cx="578.2692307692308" cy="168.7893906945" r="4" fill="#3b82f6" stroke="#0d1117" stroke-width="2" class="data-point"/>
  
    <circle cx="585" cy="166.51561507142688" r="4" fill="#3b82f6" stroke="#0d1117" stroke-width="2" class="data-point"/>
  
    <circle cx="591.7307692307692" cy="164.05403497211174" r="4" fill="#3b82f6" stroke="#0d1117" stroke-width="2" class="data-point"/>
  
    <circle cx="598.4615384615385" cy="161.7735520463157" r="4" fill="#3b82f6" stroke="#0d1117" stroke-width="2" class="data-point"/>
  
    <circle cx="605.1923076923077" cy="158.8022169400579" r="4" fill="#3b82f6" stroke="#0d1117" stroke-width="2" class="data-point"/>
  
    <circle cx="611.9230769230769" cy="156.24673460262173" r="4" fill="#3b82f6" stroke="#0d1117" stroke-width="2" class="data-point"/>
  
    <circle cx="618.6538461538462" cy="153.7851545033066" r="4" fill="#3b82f6" stroke="#0d1117" stroke-width="2" class="data-point"/>
  
    <circle cx="625.3846153846154" cy="151.73942717281307" r="4" fill="#3b82f6" stroke="#0d1117" stroke-width="2" class="data-point"/>
  
    <circle cx="632.1153846153846" cy="149.75406556682594" r="4" fill="#3b82f6" stroke="#0d1117" stroke-width="2" class="data-point"/>
  
    <circle cx="638.8461538461538" cy="147.76199665811583" r="4" fill="#3b82f6" stroke="#0d1117" stroke-width="2" class="data-point"/>
  
    <circle cx="645.5769230769231" cy="145.38090419147585" r="4" fill="#3b82f6" stroke="#0d1117" stroke-width="2" class="data-point"/>
  
    <circle cx="652.3076923076923" cy="142.93273869760654" r="4" fill="#3b82f6" stroke="#0d1117" stroke-width="2" class="data-point"/>
  
    <circle cx="659.0384615384615" cy="139.96140359134876" r="4" fill="#3b82f6" stroke="#0d1117" stroke-width="2" class="data-point"/>
  
    <circle cx="665.7692307692308" cy="137.55348191381705" r="4" fill="#3b82f6" stroke="#0d1117" stroke-width="2" class="data-point"/>
  
    <circle cx="672.5" cy="135.5882422159987" r="4" fill="#3b82f6" stroke="#0d1117" stroke-width="2" class="data-point"/>
  
    <circle cx="679.2307692307692" cy="133.5693440963969" r="4" fill="#3b82f6" stroke="#0d1117" stroke-width="2" class="data-point"/>
  
    <circle cx="685.9615384615385" cy="131.63764091219315" r="4" fill="#3b82f6" stroke="#0d1117" stroke-width="2" class="data-point"/>
  
    <circle cx="692.6923076923077" cy="129.24984114283026" r="4" fill="#3b82f6" stroke="#0d1117" stroke-width="2" class="data-point"/>
  
    <circle cx="699.4230769230769" cy="126.80167564896095" r="4" fill="#3b82f6" stroke="#0d1117" stroke-width="2" class="data-point"/>
  
    <circle cx="706.1538461538462" cy="121.38888235155682" r="4" fill="#3b82f6" stroke="#0d1117" stroke-width="2" class="data-point"/>
  
    <circle cx="712.8846153846154" cy="110.61695417853193" r="4" fill="#3b82f6" stroke="#0d1117" stroke-width="2" class="data-point"/>
  
    <circle cx="719.6153846153846" cy="97.78588406956769" r="4" fill="#3b82f6" stroke="#0d1117" stroke-width="2" class="data-point"/>
  
    <circle cx="726.3461538461538" cy="86.09505542350144" r="4" fill="#3b82f6" stroke="#0d1117" stroke-width="2" class="data-point"/>
  
    <circle cx="733.0769230769231" cy="80.16579981643173" r="4" fill="#3b82f6" stroke="#0d1117" stroke-width="2" class="data-point"/>
  
    <circle cx="739.8076923076923" cy="71.23167258948956" r="4" fill="#3b82f6" stroke="#0d1117" stroke-width="2" class="data-point"/>
  
    <circle cx="746.5384615384615" cy="65.29570967969687" r="4" fill="#3b82f6" stroke="#0d1117" stroke-width="2" class="data-point"/>
  
    <circle cx="753.2692307692308" cy="60.09084276670353" r="4" fill="#3b82f6" stroke="#0d1117" stroke-width="2" class="data-point"/>
  
    <circle cx="760" cy="55" r="4" fill="#3b82f6" stroke="#0d1117" stroke-width="2" class="data-point"/>
  

  <!-- Axis lines -->
  <line x1="60" y1="55" x2="60" y2="340"
        stroke="#30363d" stroke-width="2"/>
  <line x1="60" y1="340" x2="760" y2="340"
        stroke="#30363d" stroke-width="2"/>
</svg>