<?xml version="1.0" encoding="UTF-8"?>
<svg width="800" height="400" xmlns="http://www.w3.org/2000/svg">
  <defs>
    <!-- Gradient for area fill -->
    <linearGradient id="areaGradient" x1="0%" y1="0%" x2="0%" y2="100%">
      <stop offset="0%" style="stop-color:#3b82f6;stop-opacity:0.3" />
      <stop offset="100%" style="stop-color:#3b82f6;stop-opacity:0.05" />
    </linearGradient>

    <!-- Glow filter for line -->
    <filter id="glow">
      <feGaussianBlur stdDeviation="2" result="coloredBlur"/>
      <feMerge>
        <feMergeNode in="coloredBlur"/>
        <feMergeNode in="SourceGraphic"/>
      </feMerge>
    </filter>

    <!-- Animation -->
    <style>
      @keyframes draw {
        from { stroke-dashoffset: 2000; }
        to { stroke-dashoffset: 0; }
      }
      @keyframes fadeIn {
        from { opacity: 0; }
        to { opacity: 1; }
      }
      .line-path {
        stroke-dasharray: 2000;
        stroke-dashoffset: 2000;
        animation: draw 1.5s ease-out forwards;
      }
      .area-path {
        opacity: 0;
        animation: fadeIn 1s ease-out 0.5s forwards;
      }
      .data-point {
        opacity: 0;
        animation: fadeIn 0.5s ease-out 1s forwards;
      }
    </style>
  </defs>

  <!-- Background -->
  <rect width="800" height="400" fill="#0d1117" rx="8"/>

  <!-- Title -->
  <text x="400" y="25" text-anchor="middle" fill="#c9d1d9" font-family="system-ui, -apple-system, sans-serif" font-size="16" font-weight="600">
    zxcloli666/SoundCloud-Desktop Downloads
  </text>

  <!-- Stats -->
  <text x="780" y="25" text-anchor="end" fill="#58a6ff" font-family="system-ui, -apple-system, sans-serif" font-size="14" font-weight="600">
    230.6K total
  </text>
  <text x="780" y="42" text-anchor="end" fill="#3fb950" font-family="system-ui, -apple-system, sans-serif" font-size="12">
    +1.8K (+0.8%)
  </text>

  <!-- Grid lines -->
  <g opacity="0.1">
    
      <line x1="60" y1="340" x2="760" y2="340"
            stroke="#c9d1d9" stroke-width="1"/>
    
      <line x1="60" y1="268.75" x2="760" y2="268.75"
            stroke="#c9d1d9" stroke-width="1"/>
    
      <line x1="60" y1="197.5" x2="760" y2="197.5"
            stroke="#c9d1d9" stroke-width="1"/>
    
      <line x1="60" y1="126.25" x2="760" y2="126.25"
            stroke="#c9d1d9" stroke-width="1"/>
    
      <line x1="60" y1="55" x2="760" y2="55"
            stroke="#c9d1d9" stroke-width="1"/>
    
  </g>

  <!-- Y-axis labels -->
  
    <text x="50" y="344" text-anchor="end"
          fill="#8b949e" font-family="system-ui, -apple-system, sans-serif" font-size="11">
      60.2K
    </text>
  
    <text x="50" y="272.75" text-anchor="end"
          fill="#8b949e" font-family="system-ui, -apple-system, sans-serif" font-size="11">
      102.8K
    </text>
  
    <text x="50" y="201.5" text-anchor="end"
          fill="#8b949e" font-family="system-ui, -apple-system, sans-serif" font-size="11">
      145.4K
    </text>
  
    <text x="50" y="130.25" text-anchor="end"
          fill="#8b949e" font-family="system-ui, -apple-system, sans-serif" font-size="11">
      188.0K
    </text>
  
    <text x="50" y="59" text-anchor="end"
          fill="#8b949e" font-family="system-ui, -apple-system, sans-serif" font-size="11">
      230.6K
    </text>
  

  <!-- X-axis labels -->
  
    <text x="60" y="360" text-anchor="middle"
          fill="#8b949e" font-family="system-ui, -apple-system, sans-serif" font-size="11">
      Nov 25
    </text>
  
    <text x="147.5" y="360" text-anchor="middle"
          fill="#8b949e" font-family="system-ui, -apple-system, sans-serif" font-size="11">
      Dec 18
    </text>
  
    <text x="235" y="360" text-anchor="middle"
          fill="#8b949e" font-family="system-ui, -apple-system, sans-serif" font-size="11">
      Jan 10
    </text>
  
    <text x="322.5" y="360" text-anchor="middle"
          fill="#8b949e" font-family="system-ui, -apple-system, sans-serif" font-size="11">
      Feb 2
    </text>
  
    <text x="410" y="360" text-anchor="middle"
          fill="#8b949e" font-family="system-ui, -apple-system, sans-serif" font-size="11">
      Feb 25
    </text>
  
    <text x="497.5" y="360" text-anchor="middle"
          fill="#8b949e" font-family="system-ui, -apple-system, sans-serif" font-size="11">
      Mar 20
    </text>
  
    <text x="585" y="360" text-anchor="middle"
          fill="#8b949e" font-family="system-ui, -apple-system, sans-serif" font-size="11">
      Apr 12
    </text>
  
    <text x="672.5" y="360" text-anchor="middle"
          fill="#8b949e" font-family="system-ui, -apple-system, sans-serif" font-size="11">
      May 5
    </text>
  
    <text x="760" y="360" text-anchor="middle"
          fill="#8b949e" font-family="system-ui, -apple-system, sans-serif" font-size="11">
      May 28
    </text>
  

  <!-- Area under line -->
  <path d="M 60 340
    L 60.00 340.00 L 63.80 339.75 L 67.61 339.34 L 71.41 338.95 L 75.22 338.18 L 79.02 337.38 L 82.83 336.75 L 86.63 336.17 L 90.43 335.65 L 94.24 335.04 L 98.04 334.36 L 101.85 333.63 L 105.65 332.97 L 109.46 332.26 L 113.26 331.75 L 117.07 331.22 L 120.87 330.50 L 124.67 330.01 L 128.48 329.35 L 132.28 328.57 L 136.09 327.99 L 139.89 327.51 L 143.70 327.20 L 147.50 326.95 L 151.30 326.47 L 155.11 326.13 L 158.91 325.39 L 162.72 325.09 L 166.52 324.72 L 170.33 324.23 L 174.13 323.89 L 177.93 323.55 L 181.74 323.20 L 185.54 322.95 L 189.35 322.74 L 193.15 322.41 L 196.96 322.01 L 200.76 321.65 L 204.57 321.19 L 208.37 320.68 L 212.17 320.22 L 215.98 319.67 L 219.78 319.12 L 223.59 318.57 L 227.39 317.97 L 231.20 317.40 L 235.00 316.75 L 238.80 316.17 L 242.61 315.67 L 246.41 315.28 L 250.22 314.73 L 254.02 314.10 L 257.83 313.52 L 261.63 312.85 L 265.43 312.01 L 269.24 311.40 L 273.04 310.88 L 276.85 310.39 L 280.65 309.81 L 284.46 309.13 L 288.26 308.37 L 292.07 307.58 L 295.87 306.81 L 299.67 306.14 L 303.48 305.48 L 307.28 304.89 L 311.09 304.29 L 314.89 303.62 L 318.70 302.79 L 322.50 302.17 L 326.30 301.62 L 330.11 301.00 L 333.91 300.42 L 337.72 299.79 L 341.52 299.13 L 345.33 298.44 L 349.13 297.84 L 352.93 297.32 L 356.74 296.76 L 360.54 296.14 L 364.35 295.57 L 368.15 294.83 L 371.96 294.20 L 375.76 293.58 L 379.57 293.07 L 383.37 292.58 L 387.17 292.08 L 390.98 291.49 L 394.78 290.88 L 398.59 290.14 L 402.39 289.54 L 406.20 289.05 L 410.00 288.54 L 413.80 288.06 L 417.61 287.47 L 421.41 286.86 L 425.22 285.51 L 429.02 282.82 L 432.83 279.62 L 436.63 276.71 L 440.43 275.23 L 444.24 273.01 L 448.04 271.53 L 451.85 270.23 L 455.65 268.96 L 459.46 267.76 L 463.26 265.91 L 467.07 264.43 L 470.87 262.54 L 474.67 262.15 L 478.48 262.10 L 482.28 262.04 L 486.09 261.98 L 489.89 261.91 L 493.70 261.85 L 497.50 261.82 L 501.30 261.73 L 505.11 261.64 L 508.91 261.58 L 512.72 261.56 L 516.52 261.46 L 520.33 259.04 L 524.13 255.24 L 527.93 252.70 L 531.74 249.74 L 535.54 246.70 L 539.35 244.31 L 543.15 241.64 L 546.96 237.58 L 550.76 232.09 L 554.57 228.52 L 558.37 224.26 L 562.17 219.51 L 565.98 215.71 L 569.78 211.58 L 573.59 207.92 L 577.39 204.29 L 581.20 200.67 L 585.00 195.74 L 588.80 190.79 L 592.61 186.67 L 596.41 183.22 L 600.22 179.87 L 604.02 175.42 L 607.83 171.97 L 611.63 168.56 L 615.43 165.37 L 619.24 162.36 L 623.04 159.28 L 626.85 156.65 L 630.65 153.92 L 634.46 151.14 L 638.26 148.20 L 642.07 145.50 L 645.87 143.02 L 649.67 138.54 L 653.48 134.79 L 657.28 131.19 L 661.09 127.73 L 664.89 122.27 L 668.70 118.81 L 672.50 115.82 L 676.30 112.29 L 680.11 107.08 L 683.91 103.34 L 687.72 100.17 L 691.52 97.50 L 695.33 94.96 L 699.13 92.89 L 702.93 90.57 L 706.74 88.67 L 710.54 86.43 L 714.35 83.21 L 718.15 80.45 L 721.96 78.04 L 725.76 75.96 L 729.57 73.82 L 733.37 72.01 L 737.17 68.97 L 740.98 66.37 L 744.78 63.79 L 748.59 61.66 L 752.39 59.71 L 756.20 57.97 L 760.00 55.00
    L 760 340
    Z" fill="url(#areaGradient)" class="area-path"/>

  <!-- Main line with glow -->
  <path d="M 60.00 340.00 L 63.80 339.75 L 67.61 339.34 L 71.41 338.95 L 75.22 338.18 L 79.02 337.38 L 82.83 336.75 L 86.63 336.17 L 90.43 335.65 L 94.24 335.04 L 98.04 334.36 L 101.85 333.63 L 105.65 332.97 L 109.46 332.26 L 113.26 331.75 L 117.07 331.22 L 120.87 330.50 L 124.67 330.01 L 128.48 329.35 L 132.28 328.57 L 136.09 327.99 L 139.89 327.51 L 143.70 327.20 L 147.50 326.95 L 151.30 326.47 L 155.11 326.13 L 158.91 325.39 L 162.72 325.09 L 166.52 324.72 L 170.33 324.23 L 174.13 323.89 L 177.93 323.55 L 181.74 323.20 L 185.54 322.95 L 189.35 322.74 L 193.15 322.41 L 196.96 322.01 L 200.76 321.65 L 204.57 321.19 L 208.37 320.68 L 212.17 320.22 L 215.98 319.67 L 219.78 319.12 L 223.59 318.57 L 227.39 317.97 L 231.20 317.40 L 235.00 316.75 L 238.80 316.17 L 242.61 315.67 L 246.41 315.28 L 250.22 314.73 L 254.02 314.10 L 257.83 313.52 L 261.63 312.85 L 265.43 312.01 L 269.24 311.40 L 273.04 310.88 L 276.85 310.39 L 280.65 309.81 L 284.46 309.13 L 288.26 308.37 L 292.07 307.58 L 295.87 306.81 L 299.67 306.14 L 303.48 305.48 L 307.28 304.89 L 311.09 304.29 L 314.89 303.62 L 318.70 302.79 L 322.50 302.17 L 326.30 301.62 L 330.11 301.00 L 333.91 300.42 L 337.72 299.79 L 341.52 299.13 L 345.33 298.44 L 349.13 297.84 L 352.93 297.32 L 356.74 296.76 L 360.54 296.14 L 364.35 295.57 L 368.15 294.83 L 371.96 294.20 L 375.76 293.58 L 379.57 293.07 L 383.37 292.58 L 387.17 292.08 L 390.98 291.49 L 394.78 290.88 L 398.59 290.14 L 402.39 289.54 L 406.20 289.05 L 410.00 288.54 L 413.80 288.06 L 417.61 287.47 L 421.41 286.86 L 425.22 285.51 L 429.02 282.82 L 432.83 279.62 L 436.63 276.71 L 440.43 275.23 L 444.24 273.01 L 448.04 271.53 L 451.85 270.23 L 455.65 268.96 L 459.46 267.76 L 463.26 265.91 L 467.07 264.43 L 470.87 262.54 L 474.67 262.15 L 478.48 262.10 L 482.28 262.04 L 486.09 261.98 L 489.89 261.91 L 493.70 261.85 L 497.50 261.82 L 501.30 261.73 L 505.11 261.64 L 508.91 261.58 L 512.72 261.56 L 516.52 261.46 L 520.33 259.04 L 524.13 255.24 L 527.93 252.70 L 531.74 249.74 L 535.54 246.70 L 539.35 244.31 L 543.15 241.64 L 546.96 237.58 L 550.76 232.09 L 554.57 228.52 L 558.37 224.26 L 562.17 219.51 L 565.98 215.71 L 569.78 211.58 L 573.59 207.92 L 577.39 204.29 L 581.20 200.67 L 585.00 195.74 L 588.80 190.79 L 592.61 186.67 L 596.41 183.22 L 600.22 179.87 L 604.02 175.42 L 607.83 171.97 L 611.63 168.56 L 615.43 165.37 L 619.24 162.36 L 623.04 159.28 L 626.85 156.65 L 630.65 153.92 L 634.46 151.14 L 638.26 148.20 L 642.07 145.50 L 645.87 143.02 L 649.67 138.54 L 653.48 134.79 L 657.28 131.19 L 661.09 127.73 L 664.89 122.27 L 668.70 118.81 L 672.50 115.82 L 676.30 112.29 L 680.11 107.08 L 683.91 103.34 L 687.72 100.17 L 691.52 97.50 L 695.33 94.96 L 699.13 92.89 L 702.93 90.57 L 706.74 88.67 L 710.54 86.43 L 714.35 83.21 L 718.15 80.45 L 721.96 78.04 L 725.76 75.96 L 729.57 73.82 L 733.37 72.01 L 737.17 68.97 L 740.98 66.37 L 744.78 63.79 L 748.59 61.66 L 752.39 59.71 L 756.20 57.97 L 760.00 55.00" fill="none" stroke="#3b82f6" stroke-width="3"
        stroke-linecap="round" stroke-linejoin="round" filter="url(#glow)" class="line-path"/>

  <!-- Data points -->
  
    <circle cx="60" cy="340" r="4" fill="#3b82f6" stroke="#0d1117" stroke-width="2" class="data-point"/>
  
    <circle cx="63.80434782608695" cy="339.7542325155749" r="4" fill="#3b82f6" stroke="#0d1117" stroke-width="2" class="data-point"/>
  
    <circle cx="67.6086956521739" cy="339.3362606032875" r="4" fill="#3b82f6" stroke="#0d1117" stroke-width="2" class="data-point"/>
  
    <circle cx="71.41304347826087" cy="338.94838266868464" r="4" fill="#3b82f6" stroke="#0d1117" stroke-width="2" class="data-point"/>
  
    <circle cx="75.21739130434783" cy="338.17764246242655" r="4" fill="#3b82f6" stroke="#0d1117" stroke-width="2" class="data-point"/>
  
    <circle cx="79.02173913043478" cy="337.38182394143115" r="4" fill="#3b82f6" stroke="#0d1117" stroke-width="2" class="data-point"/>
  
    <circle cx="82.82608695652173" cy="336.7548660729999" r="4" fill="#3b82f6" stroke="#0d1117" stroke-width="2" class="data-point"/>
  
    <circle cx="86.6304347826087" cy="336.1697053957974" r="4" fill="#3b82f6" stroke="#0d1117" stroke-width="2" class="data-point"/>
  
    <circle cx="90.43478260869566" cy="335.6497483369118" r="4" fill="#3b82f6" stroke="#0d1117" stroke-width="2" class="data-point"/>
  
    <circle cx="94.23913043478261" cy="335.03950934497203" r="4" fill="#3b82f6" stroke="#0d1117" stroke-width="2" class="data-point"/>
  
    <circle cx="98.04347826086956" cy="334.35905107176796" r="4" fill="#3b82f6" stroke="#0d1117" stroke-width="2" class="data-point"/>
  
    <circle cx="101.84782608695653" cy="333.6301080567386" r="4" fill="#3b82f6" stroke="#0d1117" stroke-width="2" class="data-point"/>
  
    <circle cx="105.65217391304347" cy="332.9680405476752" r="4" fill="#3b82f6" stroke="#0d1117" stroke-width="2" class="data-point"/>
  
    <circle cx="109.45652173913044" cy="332.26417584738306" r="4" fill="#3b82f6" stroke="#0d1117" stroke-width="2" class="data-point"/>
  
    <circle cx="113.2608695652174" cy="331.750906339094" r="4" fill="#3b82f6" stroke="#0d1117" stroke-width="2" class="data-point"/>
  
    <circle cx="117.06521739130434" cy="331.2192460666643" r="4" fill="#3b82f6" stroke="#0d1117" stroke-width="2" class="data-point"/>
  
    <circle cx="120.86956521739131" cy="330.4969906022315" r="4" fill="#3b82f6" stroke="#0d1117" stroke-width="2" class="data-point"/>
  
    <circle cx="124.67391304347825" cy="330.01381507162716" r="4" fill="#3b82f6" stroke="#0d1117" stroke-width="2" class="data-point"/>
  
    <circle cx="128.47826086956522" cy="329.3450600119672" r="4" fill="#3b82f6" stroke="#0d1117" stroke-width="2" class="data-point"/>
  
    <circle cx="132.2826086956522" cy="328.5726479180599" r="4" fill="#3b82f6" stroke="#0d1117" stroke-width="2" class="data-point"/>
  
    <circle cx="136.08695652173913" cy="327.9908310161557" r="4" fill="#3b82f6" stroke="#0d1117" stroke-width="2" class="data-point"/>
  
    <circle cx="139.89130434782606" cy="327.51267114849884" r="4" fill="#3b82f6" stroke="#0d1117" stroke-width="2" class="data-point"/>
  
    <circle cx="143.69565217391306" cy="327.20337193340606" r="4" fill="#3b82f6" stroke="#0d1117" stroke-width="2" class="data-point"/>
  
    <circle cx="147.5" cy="326.94590123543696" r="4" fill="#3b82f6" stroke="#0d1117" stroke-width="2" class="data-point"/>
  
    <circle cx="151.30434782608694" cy="326.46941325542923" r="4" fill="#3b82f6" stroke="#0d1117" stroke-width="2" class="data-point"/>
  
    <circle cx="155.1086956521739" cy="326.1300200626518" r="4" fill="#3b82f6" stroke="#0d1117" stroke-width="2" class="data-point"/>
  
    <circle cx="158.91304347826087" cy="325.3860300587801" r="4" fill="#3b82f6" stroke="#0d1117" stroke-width="2" class="data-point"/>
  
    <circle cx="162.71739130434784" cy="325.0934497201788" r="4" fill="#3b82f6" stroke="#0d1117" stroke-width="2" class="data-point"/>
  
    <circle cx="166.5217391304348" cy="324.7156031114709" r="4" fill="#3b82f6" stroke="#0d1117" stroke-width="2" class="data-point"/>
  
    <circle cx="170.32608695652175" cy="324.22741191791914" r="4" fill="#3b82f6" stroke="#0d1117" stroke-width="2" class="data-point"/>
  
    <circle cx="174.1304347826087" cy="323.8930343880891" r="4" fill="#3b82f6" stroke="#0d1117" stroke-width="2" class="data-point"/>
  
    <circle cx="177.93478260869566" cy="323.5536411953117" r="4" fill="#3b82f6" stroke="#0d1117" stroke-width="2" class="data-point"/>
  
    <circle cx="181.73913043478262" cy="323.19752912604275" r="4" fill="#3b82f6" stroke="#0d1117" stroke-width="2" class="data-point"/>
  
    <circle cx="185.54347826086956" cy="322.95008975396854" r="4" fill="#3b82f6" stroke="#0d1117" stroke-width="2" class="data-point"/>
  
    <circle cx="189.3478260869565" cy="322.7360881348773" r="4" fill="#3b82f6" stroke="#0d1117" stroke-width="2" class="data-point"/>
  
    <circle cx="193.1521739130435" cy="322.4100700432931" r="4" fill="#3b82f6" stroke="#0d1117" stroke-width="2" class="data-point"/>
  
    <circle cx="196.95652173913044" cy="322.0138326704446" r="4" fill="#3b82f6" stroke="#0d1117" stroke-width="2" class="data-point"/>
  
    <circle cx="200.7608695652174" cy="321.64936116292984" r="4" fill="#3b82f6" stroke="#0d1117" stroke-width="2" class="data-point"/>
  
    <circle cx="204.56521739130434" cy="321.18792017176446" r="4" fill="#3b82f6" stroke="#0d1117" stroke-width="2" class="data-point"/>
  
    <circle cx="208.3695652173913" cy="320.6846819893703" r="4" fill="#3b82f6" stroke="#0d1117" stroke-width="2" class="data-point"/>
  
    <circle cx="212.17391304347825" cy="320.2232409982049" r="4" fill="#3b82f6" stroke="#0d1117" stroke-width="2" class="data-point"/>
  
    <circle cx="215.97826086956522" cy="319.666502411038" r="4" fill="#3b82f6" stroke="#0d1117" stroke-width="2" class="data-point"/>
  
    <circle cx="219.78260869565216" cy="319.11979514976593" r="4" fill="#3b82f6" stroke="#0d1117" stroke-width="2" class="data-point"/>
  
    <circle cx="223.58695652173913" cy="318.5730878884939" r="4" fill="#3b82f6" stroke="#0d1117" stroke-width="2" class="data-point"/>
  
    <circle cx="227.3913043478261" cy="317.9745521100982" r="4" fill="#3b82f6" stroke="#0d1117" stroke-width="2" class="data-point"/>
  
    <circle cx="231.19565217391303" cy="317.4027665340889" r="4" fill="#3b82f6" stroke="#0d1117" stroke-width="2" class="data-point"/>
  
    <circle cx="235" cy="316.74905846327124" r="4" fill="#3b82f6" stroke="#0d1117" stroke-width="2" class="data-point"/>
  
    <circle cx="238.80434782608697" cy="316.1655696737179" r="4" fill="#3b82f6" stroke="#0d1117" stroke-width="2" class="data-point"/>
  
    <circle cx="242.6086956521739" cy="315.6723628172187" r="4" fill="#3b82f6" stroke="#0d1117" stroke-width="2" class="data-point"/>
  
    <circle cx="246.41304347826087" cy="315.2777973320193" r="4" fill="#3b82f6" stroke="#0d1117" stroke-width="2" class="data-point"/>
  
    <circle cx="250.2173913043478" cy="314.7260744077998" r="4" fill="#3b82f6" stroke="#0d1117" stroke-width="2" class="data-point"/>
  
    <circle cx="254.02173913043478" cy="314.09577276407026" r="4" fill="#3b82f6" stroke="#0d1117" stroke-width="2" class="data-point"/>
  
    <circle cx="257.82608695652175" cy="313.5189715251135" r="4" fill="#3b82f6" stroke="#0d1117" stroke-width="2" class="data-point"/>
  
    <circle cx="261.6304347826087" cy="312.84520080250604" r="4" fill="#3b82f6" stroke="#0d1117" stroke-width="2" class="data-point"/>
  
    <circle cx="265.4347826086957" cy="312.0142726408785" r="4" fill="#3b82f6" stroke="#0d1117" stroke-width="2" class="data-point"/>
  
    <circle cx="269.2391304347826" cy="311.395674210693" r="4" fill="#3b82f6" stroke="#0d1117" stroke-width="2" class="data-point"/>
  
    <circle cx="273.0434782608696" cy="310.882404702404" r="4" fill="#3b82f6" stroke="#0d1117" stroke-width="2" class="data-point"/>
  
    <circle cx="276.8478260869565" cy="310.3942135088522" r="4" fill="#3b82f6" stroke="#0d1117" stroke-width="2" class="data-point"/>
  
    <circle cx="280.6521739130435" cy="309.80738094400056" r="4" fill="#3b82f6" stroke="#0d1117" stroke-width="2" class="data-point"/>
  
    <circle cx="284.4565217391304" cy="309.12525078314735" r="4" fill="#3b82f6" stroke="#0d1117" stroke-width="2" class="data-point"/>
  
    <circle cx="288.2608695652174" cy="308.3695575657316" r="4" fill="#3b82f6" stroke="#0d1117" stroke-width="2" class="data-point"/>
  
    <circle cx="292.0652173913043" cy="307.57541093238535" r="4" fill="#3b82f6" stroke="#0d1117" stroke-width="2" class="data-point"/>
  
    <circle cx="295.8695652173913" cy="306.81303016437295" r="4" fill="#3b82f6" stroke="#0d1117" stroke-width="2" class="data-point"/>
  
    <circle cx="299.67391304347825" cy="306.1426032170638" r="4" fill="#3b82f6" stroke="#0d1117" stroke-width="2" class="data-point"/>
  
    <circle cx="303.47826086956525" cy="305.4771919327021" r="4" fill="#3b82f6" stroke="#0d1117" stroke-width="2" class="data-point"/>
  
    <circle cx="307.2826086956522" cy="304.89035936785046" r="4" fill="#3b82f6" stroke="#0d1117" stroke-width="2" class="data-point"/>
  
    <circle cx="311.0869565217391" cy="304.2918235894548" r="4" fill="#3b82f6" stroke="#0d1117" stroke-width="2" class="data-point"/>
  
    <circle cx="314.8913043478261" cy="303.6230685297948" r="4" fill="#3b82f6" stroke="#0d1117" stroke-width="2" class="data-point"/>
  
    <circle cx="318.695652173913" cy="302.7904684805181" r="4" fill="#3b82f6" stroke="#0d1117" stroke-width="2" class="data-point"/>
  
    <circle cx="322.5" cy="302.17019816268345" r="4" fill="#3b82f6" stroke="#0d1117" stroke-width="2" class="data-point"/>
  
    <circle cx="326.304347826087" cy="301.61513146316565" r="4" fill="#3b82f6" stroke="#0d1117" stroke-width="2" class="data-point"/>
  
    <circle cx="330.10869565217394" cy="300.99820492062935" r="4" fill="#3b82f6" stroke="#0d1117" stroke-width="2" class="data-point"/>
  
    <circle cx="333.9130434782609" cy="300.4230755693217" r="4" fill="#3b82f6" stroke="#0d1117" stroke-width="2" class="data-point"/>
  
    <circle cx="337.7173913043478" cy="299.79110203794306" r="4" fill="#3b82f6" stroke="#0d1117" stroke-width="2" class="data-point"/>
  
    <circle cx="341.5217391304348" cy="299.13237830417796" r="4" fill="#3b82f6" stroke="#0d1117" stroke-width="2" class="data-point"/>
  
    <circle cx="345.32608695652175" cy="298.44356059272815" r="4" fill="#3b82f6" stroke="#0d1117" stroke-width="2" class="data-point"/>
  
    <circle cx="349.1304347826087" cy="297.840009151385" r="4" fill="#3b82f6" stroke="#0d1117" stroke-width="2" class="data-point"/>
  
    <circle cx="352.9347826086957" cy="297.3233958677977" r="4" fill="#3b82f6" stroke="#0d1117" stroke-width="2" class="data-point"/>
  
    <circle cx="356.7391304347826" cy="296.75662595473585" r="4" fill="#3b82f6" stroke="#0d1117" stroke-width="2" class="data-point"/>
  
    <circle cx="360.54347826086956" cy="296.1430431874978" r="4" fill="#3b82f6" stroke="#0d1117" stroke-width="2" class="data-point"/>
  
    <circle cx="364.3478260869565" cy="295.5746013867868" r="4" fill="#3b82f6" stroke="#0d1117" stroke-width="2" class="data-point"/>
  
    <circle cx="368.1521739130435" cy="294.83395515821337" r="4" fill="#3b82f6" stroke="#0d1117" stroke-width="2" class="data-point"/>
  
    <circle cx="371.95652173913044" cy="294.19696596388724" r="4" fill="#3b82f6" stroke="#0d1117" stroke-width="2" class="data-point"/>
  
    <circle cx="375.7608695652174" cy="293.5833831966492" r="4" fill="#3b82f6" stroke="#0d1117" stroke-width="2" class="data-point"/>
  
    <circle cx="379.5652173913043" cy="293.07345746365843" r="4" fill="#3b82f6" stroke="#0d1117" stroke-width="2" class="data-point"/>
  
    <circle cx="383.3695652173913" cy="292.57857871951006" r="4" fill="#3b82f6" stroke="#0d1117" stroke-width="2" class="data-point"/>
  
    <circle cx="387.17391304347825" cy="292.0820280877125" r="4" fill="#3b82f6" stroke="#0d1117" stroke-width="2" class="data-point"/>
  
    <circle cx="390.9782608695652" cy="291.48850797226424" r="4" fill="#3b82f6" stroke="#0d1117" stroke-width="2" class="data-point"/>
  
    <circle cx="394.7826086956522" cy="290.8782689803245" r="4" fill="#3b82f6" stroke="#0d1117" stroke-width="2" class="data-point"/>
  
    <circle cx="398.5869565217391" cy="290.1376227517511" r="4" fill="#3b82f6" stroke="#0d1117" stroke-width="2" class="data-point"/>
  
    <circle cx="402.39130434782606" cy="289.53741508570624" r="4" fill="#3b82f6" stroke="#0d1117" stroke-width="2" class="data-point"/>
  
    <circle cx="406.195652173913" cy="289.0475520045053" r="4" fill="#3b82f6" stroke="#0d1117" stroke-width="2" class="data-point"/>
  
    <circle cx="410" cy="288.5443138221112" r="4" fill="#3b82f6" stroke="#0d1117" stroke-width="2" class="data-point"/>
  
    <circle cx="413.804347826087" cy="288.062810179156" r="4" fill="#3b82f6" stroke="#0d1117" stroke-width="2" class="data-point"/>
  
    <circle cx="417.60869565217394" cy="287.4676181760586" r="4" fill="#3b82f6" stroke="#0d1117" stroke-width="2" class="data-point"/>
  
    <circle cx="421.4130434782608" cy="286.8573791841188" r="4" fill="#3b82f6" stroke="#0d1117" stroke-width="2" class="data-point"/>
  
    <circle cx="425.2173913043478" cy="285.5081658512548" r="4" fill="#3b82f6" stroke="#0d1117" stroke-width="2" class="data-point"/>
  
    <circle cx="429.0217391304348" cy="282.82311428671994" r="4" fill="#3b82f6" stroke="#0d1117" stroke-width="2" class="data-point"/>
  
    <circle cx="432.82608695652175" cy="279.62479321389606" r="4" fill="#3b82f6" stroke="#0d1117" stroke-width="2" class="data-point"/>
  
    <circle cx="436.63043478260863" cy="276.7106930414276" r="4" fill="#3b82f6" stroke="#0d1117" stroke-width="2" class="data-point"/>
  
    <circle cx="440.4347826086956" cy="275.23274435957904" r="4" fill="#3b82f6" stroke="#0d1117" stroke-width="2" class="data-point"/>
  
    <circle cx="444.2391304347826" cy="273.00579001091126" r="4" fill="#3b82f6" stroke="#0d1117" stroke-width="2" class="data-point"/>
  
    <circle cx="448.04347826086956" cy="271.5261694414135" r="4" fill="#3b82f6" stroke="#0d1117" stroke-width="2" class="data-point"/>
  
    <circle cx="451.84782608695656" cy="270.22878462567314" r="4" fill="#3b82f6" stroke="#0d1117" stroke-width="2" class="data-point"/>
  
    <circle cx="455.65217391304344" cy="268.95982189996835" r="4" fill="#3b82f6" stroke="#0d1117" stroke-width="2" class="data-point"/>
  
    <circle cx="459.45652173913044" cy="267.7644222308261" r="4" fill="#3b82f6" stroke="#0d1117" stroke-width="2" class="data-point"/>
  
    <circle cx="463.2608695652174" cy="265.9052831649713" r="4" fill="#3b82f6" stroke="#0d1117" stroke-width="2" class="data-point"/>
  
    <circle cx="467.0652173913044" cy="264.42733448312276" r="4" fill="#3b82f6" stroke="#0d1117" stroke-width="2" class="data-point"/>
  
    <circle cx="470.86956521739137" cy="262.5381014395833" r="4" fill="#3b82f6" stroke="#0d1117" stroke-width="2" class="data-point"/>
  
    <circle cx="474.67391304347825" cy="262.1518953926296" r="4" fill="#3b82f6" stroke="#0d1117" stroke-width="2" class="data-point"/>
  
    <circle cx="478.4782608695652" cy="262.10173876315514" r="4" fill="#3b82f6" stroke="#0d1117" stroke-width="2" class="data-point"/>
  
    <circle cx="482.2826086956522" cy="262.03653514483824" r="4" fill="#3b82f6" stroke="#0d1117" stroke-width="2" class="data-point"/>
  
    <circle cx="486.0869565217392" cy="261.9813628524163" r="4" fill="#3b82f6" stroke="#0d1117" stroke-width="2" class="data-point"/>
  
    <circle cx="489.89130434782606" cy="261.9094716835029" r="4" fill="#3b82f6" stroke="#0d1117" stroke-width="2" class="data-point"/>
  
    <circle cx="493.695652173913" cy="261.8459399528352" r="4" fill="#3b82f6" stroke="#0d1117" stroke-width="2" class="data-point"/>
  
    <circle cx="497.5" cy="261.8208616380979" r="4" fill="#3b82f6" stroke="#0d1117" stroke-width="2" class="data-point"/>
  
    <circle cx="501.304347826087" cy="261.72890781739466" r="4" fill="#3b82f6" stroke="#0d1117" stroke-width="2" class="data-point"/>
  
    <circle cx="505.10869565217394" cy="261.6402977719897" r="4" fill="#3b82f6" stroke="#0d1117" stroke-width="2" class="data-point"/>
  
    <circle cx="508.9130434782608" cy="261.5817817042695" r="4" fill="#3b82f6" stroke="#0d1117" stroke-width="2" class="data-point"/>
  
    <circle cx="512.7173913043478" cy="261.5600471648305" r="4" fill="#3b82f6" stroke="#0d1117" stroke-width="2" class="data-point"/>
  
    <circle cx="516.5217391304348" cy="261.4614057935307" r="4" fill="#3b82f6" stroke="#0d1117" stroke-width="2" class="data-point"/>
  
    <circle cx="520.3260869565217" cy="259.0371687022632" r="4" fill="#3b82f6" stroke="#0d1117" stroke-width="2" class="data-point"/>
  
    <circle cx="524.1304347826086" cy="255.2403118510436" r="4" fill="#3b82f6" stroke="#0d1117" stroke-width="2" class="data-point"/>
  
    <circle cx="527.9347826086956" cy="252.69737073668648" r="4" fill="#3b82f6" stroke="#0d1117" stroke-width="2" class="data-point"/>
  
    <circle cx="531.7391304347826" cy="249.74481714828764" r="4" fill="#3b82f6" stroke="#0d1117" stroke-width="2" class="data-point"/>
  
    <circle cx="535.5434782608695" cy="246.70198162683468" r="4" fill="#3b82f6" stroke="#0d1117" stroke-width="2" class="data-point"/>
  
    <circle cx="539.3478260869565" cy="244.31452606384852" r="4" fill="#3b82f6" stroke="#0d1117" stroke-width="2" class="data-point"/>
  
    <circle cx="543.1521739130435" cy="241.644521488156" r="4" fill="#3b82f6" stroke="#0d1117" stroke-width="2" class="data-point"/>
  
    <circle cx="546.9565217391305" cy="237.5768188377741" r="4" fill="#3b82f6" stroke="#0d1117" stroke-width="2" class="data-point"/>
  
    <circle cx="550.7608695652174" cy="232.09469923621134" r="4" fill="#3b82f6" stroke="#0d1117" stroke-width="2" class="data-point"/>
  
    <circle cx="554.5652173913044" cy="228.51685966703036" r="4" fill="#3b82f6" stroke="#0d1117" stroke-width="2" class="data-point"/>
  
    <circle cx="558.3695652173914" cy="224.2585618246454" r="4" fill="#3b82f6" stroke="#0d1117" stroke-width="2" class="data-point"/>
  
    <circle cx="562.1739130434783" cy="219.51374467635776" r="4" fill="#3b82f6" stroke="#0d1117" stroke-width="2" class="data-point"/>
  
    <circle cx="565.9782608695652" cy="215.7085283868924" r="4" fill="#3b82f6" stroke="#0d1117" stroke-width="2" class="data-point"/>
  
    <circle cx="569.7826086956522" cy="211.57896589349195" r="4" fill="#3b82f6" stroke="#0d1117" stroke-width="2" class="data-point"/>
  
    <circle cx="573.5869565217391" cy="207.91586005420436" r="4" fill="#3b82f6" stroke="#0d1117" stroke-width="2" class="data-point"/>
  
    <circle cx="577.391304347826" cy="204.28619196789975" r="4" fill="#3b82f6" stroke="#0d1117" stroke-width="2" class="data-point"/>
  
    <circle cx="581.195652173913" cy="200.66655520749006" r="4" fill="#3b82f6" stroke="#0d1117" stroke-width="2" class="data-point"/>
  
    <circle cx="585" cy="195.73783041779592" r="4" fill="#3b82f6" stroke="#0d1117" stroke-width="2" class="data-point"/>
  
    <circle cx="588.804347826087" cy="190.79405863925945" r="4" fill="#3b82f6" stroke="#0d1117" stroke-width="2" class="data-point"/>
  
    <circle cx="592.608695652174" cy="186.67285558410475" r="4" fill="#3b82f6" stroke="#0d1117" stroke-width="2" class="data-point"/>
  
    <circle cx="596.4130434782609" cy="183.21873570096088" r="4" fill="#3b82f6" stroke="#0d1117" stroke-width="2" class="data-point"/>
  
    <circle cx="600.2173913043479" cy="179.86827285206434" r="4" fill="#3b82f6" stroke="#0d1117" stroke-width="2" class="data-point"/>
  
    <circle cx="604.0217391304348" cy="175.4210517053254" r="4" fill="#3b82f6" stroke="#0d1117" stroke-width="2" class="data-point"/>
  
    <circle cx="607.8260869565217" cy="171.97194748512902" r="4" fill="#3b82f6" stroke="#0d1117" stroke-width="2" class="data-point"/>
  
    <circle cx="611.6304347826086" cy="168.55962479321389" r="4" fill="#3b82f6" stroke="#0d1117" stroke-width="2" class="data-point"/>
  
    <circle cx="615.4347826086956" cy="165.36799127098658" r="4" fill="#3b82f6" stroke="#0d1117" stroke-width="2" class="data-point"/>
  
    <circle cx="619.2391304347826" cy="162.36193727781495" r="4" fill="#3b82f6" stroke="#0d1117" stroke-width="2" class="data-point"/>
  
    <circle cx="623.0434782608696" cy="159.28232022808066" r="4" fill="#3b82f6" stroke="#0d1117" stroke-width="2" class="data-point"/>
  
    <circle cx="626.8478260869565" cy="156.64909718066946" r="4" fill="#3b82f6" stroke="#0d1117" stroke-width="2" class="data-point"/>
  
    <circle cx="630.6521739130435" cy="153.92224842490586" r="4" fill="#3b82f6" stroke="#0d1117" stroke-width="2" class="data-point"/>
  
    <circle cx="634.4565217391304" cy="151.13855548907114" r="4" fill="#3b82f6" stroke="#0d1117" stroke-width="2" class="data-point"/>
  
    <circle cx="638.2608695652174" cy="148.19603322656718" r="4" fill="#3b82f6" stroke="#0d1117" stroke-width="2" class="data-point"/>
  
    <circle cx="642.0652173913044" cy="145.49593467318996" r="4" fill="#3b82f6" stroke="#0d1117" stroke-width="2" class="data-point"/>
  
    <circle cx="645.8695652173914" cy="143.02321284009716" r="4" fill="#3b82f6" stroke="#0d1117" stroke-width="2" class="data-point"/>
  
    <circle cx="649.6739130434783" cy="138.5425539403752" r="4" fill="#3b82f6" stroke="#0d1117" stroke-width="2" class="data-point"/>
  
    <circle cx="653.4782608695652" cy="134.7925099433318" r="4" fill="#3b82f6" stroke="#0d1117" stroke-width="2" class="data-point"/>
  
    <circle cx="657.2826086956521" cy="131.19126394706277" r="4" fill="#3b82f6" stroke="#0d1117" stroke-width="2" class="data-point"/>
  
    <circle cx="661.0869565217391" cy="127.73212840097145" r="4" fill="#3b82f6" stroke="#0d1117" stroke-width="2" class="data-point"/>
  
    <circle cx="664.891304347826" cy="122.27007145119848" r="4" fill="#3b82f6" stroke="#0d1117" stroke-width="2" class="data-point"/>
  
    <circle cx="668.695652173913" cy="118.81427968040549" r="4" fill="#3b82f6" stroke="#0d1117" stroke-width="2" class="data-point"/>
  
    <circle cx="672.5" cy="115.82327267607619" r="4" fill="#3b82f6" stroke="#0d1117" stroke-width="2" class="data-point"/>
  
    <circle cx="676.304347826087" cy="112.29057407342228" r="4" fill="#3b82f6" stroke="#0d1117" stroke-width="2" class="data-point"/>
  
    <circle cx="680.108695652174" cy="107.0826440463201" r="4" fill="#3b82f6" stroke="#0d1117" stroke-width="2" class="data-point"/>
  
    <circle cx="683.9130434782609" cy="103.335943824575" r="4" fill="#3b82f6" stroke="#0d1117" stroke-width="2" class="data-point"/>
  
    <circle cx="687.7173913043479" cy="100.17273239238324" r="4" fill="#3b82f6" stroke="#0d1117" stroke-width="2" class="data-point"/>
  
    <circle cx="691.5217391304348" cy="97.49604026609413" r="4" fill="#3b82f6" stroke="#0d1117" stroke-width="2" class="data-point"/>
  
    <circle cx="695.3260869565217" cy="94.95644292703531" r="4" fill="#3b82f6" stroke="#0d1117" stroke-width="2" class="data-point"/>
  
    <circle cx="699.1304347826086" cy="92.89166168033509" r="4" fill="#3b82f6" stroke="#0d1117" stroke-width="2" class="data-point"/>
  
    <circle cx="702.9347826086956" cy="90.56606596036747" r="4" fill="#3b82f6" stroke="#0d1117" stroke-width="2" class="data-point"/>
  
    <circle cx="706.7391304347826" cy="88.6701453662314" r="4" fill="#3b82f6" stroke="#0d1117" stroke-width="2" class="data-point"/>
  
    <circle cx="710.5434782608696" cy="86.43315969166872" r="4" fill="#3b82f6" stroke="#0d1117" stroke-width="2" class="data-point"/>
  
    <circle cx="714.3478260869565" cy="83.21310407940587" r="4" fill="#3b82f6" stroke="#0d1117" stroke-width="2" class="data-point"/>
  
    <circle cx="718.1521739130435" cy="80.44613002006264" r="4" fill="#3b82f6" stroke="#0d1117" stroke-width="2" class="data-point"/>
  
    <circle cx="721.9565217391304" cy="78.04028369293582" r="4" fill="#3b82f6" stroke="#0d1117" stroke-width="2" class="data-point"/>
  
    <circle cx="725.7608695652174" cy="75.96045545739327" r="4" fill="#3b82f6" stroke="#0d1117" stroke-width="2" class="data-point"/>
  
    <circle cx="729.5652173913044" cy="73.81542360353387" r="4" fill="#3b82f6" stroke="#0d1117" stroke-width="2" class="data-point"/>
  
    <circle cx="733.3695652173914" cy="72.00644116715358" r="4" fill="#3b82f6" stroke="#0d1117" stroke-width="2" class="data-point"/>
  
    <circle cx="737.1739130434783" cy="68.96527753334976" r="4" fill="#3b82f6" stroke="#0d1117" stroke-width="2" class="data-point"/>
  
    <circle cx="740.9782608695652" cy="66.36549223892155" r="4" fill="#3b82f6" stroke="#0d1117" stroke-width="2" class="data-point"/>
  
    <circle cx="744.7826086956521" cy="63.7874414839323" r="4" fill="#3b82f6" stroke="#0d1117" stroke-width="2" class="data-point"/>
  
    <circle cx="748.5869565217391" cy="61.65912850656434" r="4" fill="#3b82f6" stroke="#0d1117" stroke-width="2" class="data-point"/>
  
    <circle cx="752.391304347826" cy="59.706363732357204" r="4" fill="#3b82f6" stroke="#0d1117" stroke-width="2" class="data-point"/>
  
    <circle cx="756.195652173913" cy="57.97261624018864" r="4" fill="#3b82f6" stroke="#0d1117" stroke-width="2" class="data-point"/>
  
    <circle cx="760" cy="55" r="4" fill="#3b82f6" stroke="#0d1117" stroke-width="2" class="data-point"/>
  

  <!-- Axis lines -->
  <line x1="60" y1="55" x2="60" y2="340"
        stroke="#30363d" stroke-width="2"/>
  <line x1="60" y1="340" x2="760" y2="340"
        stroke="#30363d" stroke-width="2"/>
</svg>