<?xml version="1.0" encoding="UTF-8"?>
<svg width="800" height="400" xmlns="http://www.w3.org/2000/svg">
  <defs>
    <!-- Gradient for area fill -->
    <linearGradient id="areaGradient" x1="0%" y1="0%" x2="0%" y2="100%">
      <stop offset="0%" style="stop-color:#3b82f6;stop-opacity:0.3" />
      <stop offset="100%" style="stop-color:#3b82f6;stop-opacity:0.05" />
    </linearGradient>

    <!-- Glow filter for line -->
    <filter id="glow">
      <feGaussianBlur stdDeviation="2" result="coloredBlur"/>
      <feMerge>
        <feMergeNode in="coloredBlur"/>
        <feMergeNode in="SourceGraphic"/>
      </feMerge>
    </filter>

    <!-- Animation -->
    <style>
      @keyframes draw {
        from { stroke-dashoffset: 2000; }
        to { stroke-dashoffset: 0; }
      }
      @keyframes fadeIn {
        from { opacity: 0; }
        to { opacity: 1; }
      }
      .line-path {
        stroke-dasharray: 2000;
        stroke-dashoffset: 2000;
        animation: draw 1.5s ease-out forwards;
      }
      .area-path {
        opacity: 0;
        animation: fadeIn 1s ease-out 0.5s forwards;
      }
      .data-point {
        opacity: 0;
        animation: fadeIn 0.5s ease-out 1s forwards;
      }
    </style>
  </defs>

  <!-- Background -->
  <rect width="800" height="400" fill="#0d1117" rx="8"/>

  <!-- Title -->
  <text x="400" y="25" text-anchor="middle" fill="#c9d1d9" font-family="system-ui, -apple-system, sans-serif" font-size="16" font-weight="600">
    zxcloli666/SoundCloud-Desktop Downloads
  </text>

  <!-- Stats -->
  <text x="780" y="25" text-anchor="end" fill="#58a6ff" font-family="system-ui, -apple-system, sans-serif" font-size="14" font-weight="600">
    269.0K total
  </text>
  <text x="780" y="42" text-anchor="end" fill="#3fb950" font-family="system-ui, -apple-system, sans-serif" font-size="12">
    +1.1K (+0.4%)
  </text>

  <!-- Grid lines -->
  <g opacity="0.1">
    
      <line x1="60" y1="340" x2="760" y2="340"
            stroke="#c9d1d9" stroke-width="1"/>
    
      <line x1="60" y1="268.75" x2="760" y2="268.75"
            stroke="#c9d1d9" stroke-width="1"/>
    
      <line x1="60" y1="197.5" x2="760" y2="197.5"
            stroke="#c9d1d9" stroke-width="1"/>
    
      <line x1="60" y1="126.25" x2="760" y2="126.25"
            stroke="#c9d1d9" stroke-width="1"/>
    
      <line x1="60" y1="55" x2="760" y2="55"
            stroke="#c9d1d9" stroke-width="1"/>
    
  </g>

  <!-- Y-axis labels -->
  
    <text x="50" y="344" text-anchor="end"
          fill="#8b949e" font-family="system-ui, -apple-system, sans-serif" font-size="11">
      60.2K
    </text>
  
    <text x="50" y="272.75" text-anchor="end"
          fill="#8b949e" font-family="system-ui, -apple-system, sans-serif" font-size="11">
      112.4K
    </text>
  
    <text x="50" y="201.5" text-anchor="end"
          fill="#8b949e" font-family="system-ui, -apple-system, sans-serif" font-size="11">
      164.6K
    </text>
  
    <text x="50" y="130.25" text-anchor="end"
          fill="#8b949e" font-family="system-ui, -apple-system, sans-serif" font-size="11">
      216.8K
    </text>
  
    <text x="50" y="59" text-anchor="end"
          fill="#8b949e" font-family="system-ui, -apple-system, sans-serif" font-size="11">
      269.0K
    </text>
  

  <!-- X-axis labels -->
  
    <text x="60" y="360" text-anchor="middle"
          fill="#8b949e" font-family="system-ui, -apple-system, sans-serif" font-size="11">
      Nov 25
    </text>
  
    <text x="147.90697674418607" y="360" text-anchor="middle"
          fill="#8b949e" font-family="system-ui, -apple-system, sans-serif" font-size="11">
      Dec 22
    </text>
  
    <text x="235.8139534883721" y="360" text-anchor="middle"
          fill="#8b949e" font-family="system-ui, -apple-system, sans-serif" font-size="11">
      Jan 18
    </text>
  
    <text x="323.72093023255815" y="360" text-anchor="middle"
          fill="#8b949e" font-family="system-ui, -apple-system, sans-serif" font-size="11">
      Feb 14
    </text>
  
    <text x="411.6279069767442" y="360" text-anchor="middle"
          fill="#8b949e" font-family="system-ui, -apple-system, sans-serif" font-size="11">
      Mar 13
    </text>
  
    <text x="499.5348837209302" y="360" text-anchor="middle"
          fill="#8b949e" font-family="system-ui, -apple-system, sans-serif" font-size="11">
      Apr 9
    </text>
  
    <text x="587.4418604651163" y="360" text-anchor="middle"
          fill="#8b949e" font-family="system-ui, -apple-system, sans-serif" font-size="11">
      May 6
    </text>
  
    <text x="675.3488372093024" y="360" text-anchor="middle"
          fill="#8b949e" font-family="system-ui, -apple-system, sans-serif" font-size="11">
      Jun 2
    </text>
  
    <text x="760" y="360" text-anchor="middle"
          fill="#8b949e" font-family="system-ui, -apple-system, sans-serif" font-size="11">
      Jun 28
    </text>
  

  <!-- Area under line -->
  <path d="M 60 340
    L 60.00 340.00 L 63.26 339.80 L 66.51 339.46 L 69.77 339.14 L 73.02 338.51 L 76.28 337.86 L 79.53 337.35 L 82.79 336.87 L 86.05 336.45 L 89.30 335.95 L 92.56 335.40 L 95.81 334.80 L 99.07 334.26 L 102.33 333.69 L 105.58 333.27 L 108.84 332.83 L 112.09 332.25 L 115.35 331.85 L 118.60 331.31 L 121.86 330.67 L 125.12 330.20 L 128.37 329.81 L 131.63 329.56 L 134.88 329.35 L 138.14 328.96 L 141.40 328.68 L 144.65 328.07 L 147.91 327.84 L 151.16 327.53 L 154.42 327.13 L 157.67 326.86 L 160.93 326.58 L 164.19 326.29 L 167.44 326.09 L 170.70 325.91 L 173.95 325.65 L 177.21 325.32 L 180.47 325.03 L 183.72 324.65 L 186.98 324.24 L 190.23 323.86 L 193.49 323.41 L 196.74 322.96 L 200.00 322.52 L 203.26 322.03 L 206.51 321.56 L 209.77 321.03 L 213.02 320.55 L 216.28 320.15 L 219.53 319.83 L 222.79 319.38 L 226.05 318.86 L 229.30 318.39 L 232.56 317.84 L 235.81 317.16 L 239.07 316.66 L 242.33 316.24 L 245.58 315.84 L 248.84 315.36 L 252.09 314.81 L 255.35 314.19 L 258.60 313.54 L 261.86 312.92 L 265.12 312.37 L 268.37 311.83 L 271.63 311.35 L 274.88 310.86 L 278.14 310.32 L 281.40 309.64 L 284.65 309.13 L 287.91 308.68 L 291.16 308.17 L 294.42 307.70 L 297.67 307.19 L 300.93 306.65 L 304.19 306.09 L 307.44 305.60 L 310.70 305.17 L 313.95 304.71 L 317.21 304.21 L 320.47 303.75 L 323.72 303.14 L 326.98 302.62 L 330.23 302.12 L 333.49 301.71 L 336.74 301.30 L 340.00 300.90 L 343.26 300.41 L 346.51 299.92 L 349.77 299.31 L 353.02 298.82 L 356.28 298.42 L 359.53 298.01 L 362.79 297.62 L 366.05 297.13 L 369.30 296.63 L 372.56 295.53 L 375.81 293.34 L 379.07 290.73 L 382.33 288.35 L 385.58 287.15 L 388.84 285.33 L 392.09 284.12 L 395.35 283.06 L 398.60 282.03 L 401.86 281.05 L 405.12 279.54 L 408.37 278.33 L 411.63 276.79 L 414.88 276.47 L 418.14 276.43 L 421.40 276.38 L 424.65 276.33 L 427.91 276.28 L 431.16 276.22 L 434.42 276.20 L 437.67 276.13 L 440.93 276.06 L 444.19 276.01 L 447.44 275.99 L 450.70 275.91 L 453.95 273.93 L 457.21 270.83 L 460.47 268.76 L 463.72 266.35 L 466.98 263.87 L 470.23 261.92 L 473.49 259.74 L 476.74 256.42 L 480.00 251.95 L 483.26 249.03 L 486.51 245.55 L 489.77 241.68 L 493.02 238.57 L 496.28 235.20 L 499.53 232.22 L 502.79 229.25 L 506.05 226.30 L 509.30 222.28 L 512.56 218.24 L 515.81 214.88 L 519.07 212.06 L 522.33 209.33 L 525.58 205.70 L 528.84 202.88 L 532.09 200.10 L 535.35 197.50 L 538.60 195.04 L 541.86 192.53 L 545.12 190.38 L 548.37 188.16 L 551.63 185.88 L 554.88 183.48 L 558.14 181.28 L 561.40 179.26 L 564.65 175.60 L 567.91 172.54 L 571.16 169.61 L 574.42 166.78 L 577.67 162.33 L 580.93 159.51 L 584.19 157.07 L 587.44 154.18 L 590.70 149.93 L 593.95 146.88 L 597.21 144.29 L 600.47 142.11 L 603.72 140.04 L 606.98 138.35 L 610.23 136.45 L 613.49 134.91 L 616.74 133.08 L 620.00 130.45 L 623.26 128.20 L 626.51 126.23 L 629.77 124.54 L 633.02 122.79 L 636.28 121.31 L 639.53 118.83 L 642.79 116.71 L 646.05 114.60 L 649.30 112.87 L 652.56 111.27 L 655.81 109.86 L 659.07 107.43 L 662.33 105.46 L 665.58 103.67 L 668.84 101.95 L 672.09 100.45 L 675.35 99.00 L 678.60 97.67 L 681.86 96.39 L 685.12 95.22 L 688.37 93.76 L 691.63 92.19 L 694.88 90.75 L 698.14 88.51 L 701.40 86.88 L 704.65 85.32 L 707.91 83.96 L 711.16 82.35 L 714.42 80.39 L 717.67 78.64 L 720.93 77.09 L 724.19 75.40 L 727.44 73.06 L 730.70 71.15 L 733.95 69.10 L 737.21 67.05 L 740.47 65.14 L 743.72 63.27 L 746.98 61.29 L 750.23 59.52 L 753.49 57.96 L 756.74 56.52 L 760.00 55.00
    L 760 340
    Z" fill="url(#areaGradient)" class="area-path"/>

  <!-- Main line with glow -->
  <path d="M 60.00 340.00 L 63.26 339.80 L 66.51 339.46 L 69.77 339.14 L 73.02 338.51 L 76.28 337.86 L 79.53 337.35 L 82.79 336.87 L 86.05 336.45 L 89.30 335.95 L 92.56 335.40 L 95.81 334.80 L 99.07 334.26 L 102.33 333.69 L 105.58 333.27 L 108.84 332.83 L 112.09 332.25 L 115.35 331.85 L 118.60 331.31 L 121.86 330.67 L 125.12 330.20 L 128.37 329.81 L 131.63 329.56 L 134.88 329.35 L 138.14 328.96 L 141.40 328.68 L 144.65 328.07 L 147.91 327.84 L 151.16 327.53 L 154.42 327.13 L 157.67 326.86 L 160.93 326.58 L 164.19 326.29 L 167.44 326.09 L 170.70 325.91 L 173.95 325.65 L 177.21 325.32 L 180.47 325.03 L 183.72 324.65 L 186.98 324.24 L 190.23 323.86 L 193.49 323.41 L 196.74 322.96 L 200.00 322.52 L 203.26 322.03 L 206.51 321.56 L 209.77 321.03 L 213.02 320.55 L 216.28 320.15 L 219.53 319.83 L 222.79 319.38 L 226.05 318.86 L 229.30 318.39 L 232.56 317.84 L 235.81 317.16 L 239.07 316.66 L 242.33 316.24 L 245.58 315.84 L 248.84 315.36 L 252.09 314.81 L 255.35 314.19 L 258.60 313.54 L 261.86 312.92 L 265.12 312.37 L 268.37 311.83 L 271.63 311.35 L 274.88 310.86 L 278.14 310.32 L 281.40 309.64 L 284.65 309.13 L 287.91 308.68 L 291.16 308.17 L 294.42 307.70 L 297.67 307.19 L 300.93 306.65 L 304.19 306.09 L 307.44 305.60 L 310.70 305.17 L 313.95 304.71 L 317.21 304.21 L 320.47 303.75 L 323.72 303.14 L 326.98 302.62 L 330.23 302.12 L 333.49 301.71 L 336.74 301.30 L 340.00 300.90 L 343.26 300.41 L 346.51 299.92 L 349.77 299.31 L 353.02 298.82 L 356.28 298.42 L 359.53 298.01 L 362.79 297.62 L 366.05 297.13 L 369.30 296.63 L 372.56 295.53 L 375.81 293.34 L 379.07 290.73 L 382.33 288.35 L 385.58 287.15 L 388.84 285.33 L 392.09 284.12 L 395.35 283.06 L 398.60 282.03 L 401.86 281.05 L 405.12 279.54 L 408.37 278.33 L 411.63 276.79 L 414.88 276.47 L 418.14 276.43 L 421.40 276.38 L 424.65 276.33 L 427.91 276.28 L 431.16 276.22 L 434.42 276.20 L 437.67 276.13 L 440.93 276.06 L 444.19 276.01 L 447.44 275.99 L 450.70 275.91 L 453.95 273.93 L 457.21 270.83 L 460.47 268.76 L 463.72 266.35 L 466.98 263.87 L 470.23 261.92 L 473.49 259.74 L 476.74 256.42 L 480.00 251.95 L 483.26 249.03 L 486.51 245.55 L 489.77 241.68 L 493.02 238.57 L 496.28 235.20 L 499.53 232.22 L 502.79 229.25 L 506.05 226.30 L 509.30 222.28 L 512.56 218.24 L 515.81 214.88 L 519.07 212.06 L 522.33 209.33 L 525.58 205.70 L 528.84 202.88 L 532.09 200.10 L 535.35 197.50 L 538.60 195.04 L 541.86 192.53 L 545.12 190.38 L 548.37 188.16 L 551.63 185.88 L 554.88 183.48 L 558.14 181.28 L 561.40 179.26 L 564.65 175.60 L 567.91 172.54 L 571.16 169.61 L 574.42 166.78 L 577.67 162.33 L 580.93 159.51 L 584.19 157.07 L 587.44 154.18 L 590.70 149.93 L 593.95 146.88 L 597.21 144.29 L 600.47 142.11 L 603.72 140.04 L 606.98 138.35 L 610.23 136.45 L 613.49 134.91 L 616.74 133.08 L 620.00 130.45 L 623.26 128.20 L 626.51 126.23 L 629.77 124.54 L 633.02 122.79 L 636.28 121.31 L 639.53 118.83 L 642.79 116.71 L 646.05 114.60 L 649.30 112.87 L 652.56 111.27 L 655.81 109.86 L 659.07 107.43 L 662.33 105.46 L 665.58 103.67 L 668.84 101.95 L 672.09 100.45 L 675.35 99.00 L 678.60 97.67 L 681.86 96.39 L 685.12 95.22 L 688.37 93.76 L 691.63 92.19 L 694.88 90.75 L 698.14 88.51 L 701.40 86.88 L 704.65 85.32 L 707.91 83.96 L 711.16 82.35 L 714.42 80.39 L 717.67 78.64 L 720.93 77.09 L 724.19 75.40 L 727.44 73.06 L 730.70 71.15 L 733.95 69.10 L 737.21 67.05 L 740.47 65.14 L 743.72 63.27 L 746.98 61.29 L 750.23 59.52 L 753.49 57.96 L 756.74 56.52 L 760.00 55.00" fill="none" stroke="#3b82f6" stroke-width="3"
        stroke-linecap="round" stroke-linejoin="round" filter="url(#glow)" class="line-path"/>

  <!-- Data points -->
  
    <circle cx="60" cy="340" r="4" fill="#3b82f6" stroke="#0d1117" stroke-width="2" class="data-point"/>
  
    <circle cx="63.25581395348837" cy="339.79944661723243" r="4" fill="#3b82f6" stroke="#0d1117" stroke-width="2" class="data-point"/>
  
    <circle cx="66.51162790697674" cy="339.4583694356549" r="4" fill="#3b82f6" stroke="#0d1117" stroke-width="2" class="data-point"/>
  
    <circle cx="69.76744186046511" cy="339.14184981115096" r="4" fill="#3b82f6" stroke="#0d1117" stroke-width="2" class="data-point"/>
  
    <circle cx="73.02325581395348" cy="338.512903488322" r="4" fill="#3b82f6" stroke="#0d1117" stroke-width="2" class="data-point"/>
  
    <circle cx="76.27906976744185" cy="337.8634925345984" r="4" fill="#3b82f6" stroke="#0d1117" stroke-width="2" class="data-point"/>
  
    <circle cx="79.53488372093022" cy="337.3518767622321" r="4" fill="#3b82f6" stroke="#0d1117" stroke-width="2" class="data-point"/>
  
    <circle cx="82.79069767441861" cy="336.87436870802355" r="4" fill="#3b82f6" stroke="#0d1117" stroke-width="2" class="data-point"/>
  
    <circle cx="86.04651162790698" cy="336.4500686941411" r="4" fill="#3b82f6" stroke="#0d1117" stroke-width="2" class="data-point"/>
  
    <circle cx="89.30232558139535" cy="335.952096009038" r="4" fill="#3b82f6" stroke="#0d1117" stroke-width="2" class="data-point"/>
  
    <circle cx="92.55813953488372" cy="335.39682235742976" r="4" fill="#3b82f6" stroke="#0d1117" stroke-width="2" class="data-point"/>
  
    <circle cx="95.81395348837209" cy="334.80198375275853" r="4" fill="#3b82f6" stroke="#0d1117" stroke-width="2" class="data-point"/>
  
    <circle cx="99.06976744186046" cy="334.2617174971397" r="4" fill="#3b82f6" stroke="#0d1117" stroke-width="2" class="data-point"/>
  
    <circle cx="102.32558139534883" cy="333.6873435233632" r="4" fill="#3b82f6" stroke="#0d1117" stroke-width="2" class="data-point"/>
  
    <circle cx="105.58139534883722" cy="333.268500744386" r="4" fill="#3b82f6" stroke="#0d1117" stroke-width="2" class="data-point"/>
  
    <circle cx="108.83720930232559" cy="332.83465056941935" r="4" fill="#3b82f6" stroke="#0d1117" stroke-width="2" class="data-point"/>
  
    <circle cx="112.09302325581396" cy="332.2452691996534" r="4" fill="#3b82f6" stroke="#0d1117" stroke-width="2" class="data-point"/>
  
    <circle cx="115.34883720930233" cy="331.8509839777498" r="4" fill="#3b82f6" stroke="#0d1117" stroke-width="2" class="data-point"/>
  
    <circle cx="118.6046511627907" cy="331.3052604872258" r="4" fill="#3b82f6" stroke="#0d1117" stroke-width="2" class="data-point"/>
  
    <circle cx="121.86046511627907" cy="330.6749498556705" r="4" fill="#3b82f6" stroke="#0d1117" stroke-width="2" class="data-point"/>
  
    <circle cx="125.11627906976744" cy="330.2001704189146" r="4" fill="#3b82f6" stroke="#0d1117" stroke-width="2" class="data-point"/>
  
    <circle cx="128.37209302325581" cy="329.8099781231899" r="4" fill="#3b82f6" stroke="#0d1117" stroke-width="2" class="data-point"/>
  
    <circle cx="131.62790697674419" cy="329.5575810088225" r="4" fill="#3b82f6" stroke="#0d1117" stroke-width="2" class="data-point"/>
  
    <circle cx="134.88372093023256" cy="329.3474774649708" r="4" fill="#3b82f6" stroke="#0d1117" stroke-width="2" class="data-point"/>
  
    <circle cx="138.13953488372093" cy="328.9586494779724" r="4" fill="#3b82f6" stroke="#0d1117" stroke-width="2" class="data-point"/>
  
    <circle cx="141.3953488372093" cy="328.6816948065314" r="4" fill="#3b82f6" stroke="#0d1117" stroke-width="2" class="data-point"/>
  
    <circle cx="144.65116279069767" cy="328.07457742332343" r="4" fill="#3b82f6" stroke="#0d1117" stroke-width="2" class="data-point"/>
  
    <circle cx="147.90697674418607" cy="327.8358233962192" r="4" fill="#3b82f6" stroke="#0d1117" stroke-width="2" class="data-point"/>
  
    <circle cx="151.16279069767444" cy="327.5274896240731" r="4" fill="#3b82f6" stroke="#0d1117" stroke-width="2" class="data-point"/>
  
    <circle cx="154.4186046511628" cy="327.12911147599056" r="4" fill="#3b82f6" stroke="#0d1117" stroke-width="2" class="data-point"/>
  
    <circle cx="157.67441860465118" cy="326.85624973072856" r="4" fill="#3b82f6" stroke="#0d1117" stroke-width="2" class="data-point"/>
  
    <circle cx="160.93023255813955" cy="326.5792950592876" r="4" fill="#3b82f6" stroke="#0d1117" stroke-width="2" class="data-point"/>
  
    <circle cx="164.18604651162792" cy="326.2886973005835" r="4" fill="#3b82f6" stroke="#0d1117" stroke-width="2" class="data-point"/>
  
    <circle cx="167.4418604651163" cy="326.08677960908966" r="4" fill="#3b82f6" stroke="#0d1117" stroke-width="2" class="data-point"/>
  
    <circle cx="170.69767441860466" cy="325.912148092122" r="4" fill="#3b82f6" stroke="#0d1117" stroke-width="2" class="data-point"/>
  
    <circle cx="173.95348837209303" cy="325.64610789049146" r="4" fill="#3b82f6" stroke="#0d1117" stroke-width="2" class="data-point"/>
  
    <circle cx="177.2093023255814" cy="325.322766722356" r="4" fill="#3b82f6" stroke="#0d1117" stroke-width="2" class="data-point"/>
  
    <circle cx="180.46511627906978" cy="325.0253474200204" r="4" fill="#3b82f6" stroke="#0d1117" stroke-width="2" class="data-point"/>
  
    <circle cx="183.72093023255815" cy="324.6487982115588" r="4" fill="#3b82f6" stroke="#0d1117" stroke-width="2" class="data-point"/>
  
    <circle cx="186.97674418604652" cy="324.23814128493945" r="4" fill="#3b82f6" stroke="#0d1117" stroke-width="2" class="data-point"/>
  
    <circle cx="190.2325581395349" cy="323.8615920764779" r="4" fill="#3b82f6" stroke="#0d1117" stroke-width="2" class="data-point"/>
  
    <circle cx="193.48837209302326" cy="323.40727727061665" r="4" fill="#3b82f6" stroke="#0d1117" stroke-width="2" class="data-point"/>
  
    <circle cx="196.74418604651163" cy="322.9611483171132" r="4" fill="#3b82f6" stroke="#0d1117" stroke-width="2" class="data-point"/>
  
    <circle cx="200" cy="322.51501936360984" r="4" fill="#3b82f6" stroke="#0d1117" stroke-width="2" class="data-point"/>
  
    <circle cx="203.25581395348837" cy="322.0265968395908" r="4" fill="#3b82f6" stroke="#0d1117" stroke-width="2" class="data-point"/>
  
    <circle cx="206.51162790697674" cy="321.5600032551927" r="4" fill="#3b82f6" stroke="#0d1117" stroke-width="2" class="data-point"/>
  
    <circle cx="209.7674418604651" cy="321.0265585432055" r="4" fill="#3b82f6" stroke="#0d1117" stroke-width="2" class="data-point"/>
  
    <circle cx="213.02325581395348" cy="320.5504147977233" r="4" fill="#3b82f6" stroke="#0d1117" stroke-width="2" class="data-point"/>
  
    <circle cx="216.27906976744185" cy="320.1479437234618" r="4" fill="#3b82f6" stroke="#0d1117" stroke-width="2" class="data-point"/>
  
    <circle cx="219.53488372093025" cy="319.8259668640526" r="4" fill="#3b82f6" stroke="#0d1117" stroke-width="2" class="data-point"/>
  
    <circle cx="222.7906976744186" cy="319.3757449843703" r="4" fill="#3b82f6" stroke="#0d1117" stroke-width="2" class="data-point"/>
  
    <circle cx="226.046511627907" cy="318.86140059455136" r="4" fill="#3b82f6" stroke="#0d1117" stroke-width="2" class="data-point"/>
  
    <circle cx="229.30232558139534" cy="318.3907140839744" r="4" fill="#3b82f6" stroke="#0d1117" stroke-width="2" class="data-point"/>
  
    <circle cx="232.55813953488374" cy="317.8408976672714" r="4" fill="#3b82f6" stroke="#0d1117" stroke-width="2" class="data-point"/>
  
    <circle cx="235.8139534883721" cy="317.1628362302953" r="4" fill="#3b82f6" stroke="#0d1117" stroke-width="2" class="data-point"/>
  
    <circle cx="239.06976744186048" cy="316.6580420015606" r="4" fill="#3b82f6" stroke="#0d1117" stroke-width="2" class="data-point"/>
  
    <circle cx="242.32558139534885" cy="316.23919922258335" r="4" fill="#3b82f6" stroke="#0d1117" stroke-width="2" class="data-point"/>
  
    <circle cx="245.5813953488372" cy="315.8408210745008" r="4" fill="#3b82f6" stroke="#0d1117" stroke-width="2" class="data-point"/>
  
    <circle cx="248.8372093023256" cy="315.361948711566" r="4" fill="#3b82f6" stroke="#0d1117" stroke-width="2" class="data-point"/>
  
    <circle cx="252.09302325581396" cy="314.80531075123145" r="4" fill="#3b82f6" stroke="#0d1117" stroke-width="2" class="data-point"/>
  
    <circle cx="255.34883720930233" cy="314.18864320693933" r="4" fill="#3b82f6" stroke="#0d1117" stroke-width="2" class="data-point"/>
  
    <circle cx="258.6046511627907" cy="313.54059656194204" r="4" fill="#3b82f6" stroke="#0d1117" stroke-width="2" class="data-point"/>
  
    <circle cx="261.8604651162791" cy="312.91847178274463" r="4" fill="#3b82f6" stroke="#0d1117" stroke-width="2" class="data-point"/>
  
    <circle cx="265.1162790697674" cy="312.37138398349424" r="4" fill="#3b82f6" stroke="#0d1117" stroke-width="2" class="data-point"/>
  
    <circle cx="268.37209302325584" cy="311.82838911042285" r="4" fill="#3b82f6" stroke="#0d1117" stroke-width="2" class="data-point"/>
  
    <circle cx="271.62790697674416" cy="311.349516747488" r="4" fill="#3b82f6" stroke="#0d1117" stroke-width="2" class="data-point"/>
  
    <circle cx="274.8837209302326" cy="310.86109422346897" r="4" fill="#3b82f6" stroke="#0d1117" stroke-width="2" class="data-point"/>
  
    <circle cx="278.1395348837209" cy="310.3153707329449" r="4" fill="#3b82f6" stroke="#0d1117" stroke-width="2" class="data-point"/>
  
    <circle cx="281.3953488372093" cy="309.6359449872425" r="4" fill="#3b82f6" stroke="#0d1117" stroke-width="2" class="data-point"/>
  
    <circle cx="284.65116279069764" cy="309.1297864497815" r="4" fill="#3b82f6" stroke="#0d1117" stroke-width="2" class="data-point"/>
  
    <circle cx="287.90697674418607" cy="308.6768359526465" r="4" fill="#3b82f6" stroke="#0d1117" stroke-width="2" class="data-point"/>
  
    <circle cx="291.16279069767444" cy="308.17340603263807" r="4" fill="#3b82f6" stroke="#0d1117" stroke-width="2" class="data-point"/>
  
    <circle cx="294.4186046511628" cy="307.70408383078745" r="4" fill="#3b82f6" stroke="#0d1117" stroke-width="2" class="data-point"/>
  
    <circle cx="297.6744186046511" cy="307.1883751322422" r="4" fill="#3b82f6" stroke="#0d1117" stroke-width="2" class="data-point"/>
  
    <circle cx="300.93023255813955" cy="306.65083749407603" r="4" fill="#3b82f6" stroke="#0d1117" stroke-width="2" class="data-point"/>
  
    <circle cx="304.1860465116279" cy="306.0887422988363" r="4" fill="#3b82f6" stroke="#0d1117" stroke-width="2" class="data-point"/>
  
    <circle cx="307.4418604651163" cy="305.5962268486383" r="4" fill="#3b82f6" stroke="#0d1117" stroke-width="2" class="data-point"/>
  
    <circle cx="310.6976744186046" cy="305.1746554522085" r="4" fill="#3b82f6" stroke="#0d1117" stroke-width="2" class="data-point"/>
  
    <circle cx="313.95348837209303" cy="304.7121547939894" r="4" fill="#3b82f6" stroke="#0d1117" stroke-width="2" class="data-point"/>
  
    <circle cx="317.2093023255814" cy="304.2114534914336" r="4" fill="#3b82f6" stroke="#0d1117" stroke-width="2" class="data-point"/>
  
    <circle cx="320.4651162790698" cy="303.74758852448815" r="4" fill="#3b82f6" stroke="#0d1117" stroke-width="2" class="data-point"/>
  
    <circle cx="323.72093023255815" cy="303.14319975873275" r="4" fill="#3b82f6" stroke="#0d1117" stroke-width="2" class="data-point"/>
  
    <circle cx="326.9767441860465" cy="302.62339813400865" r="4" fill="#3b82f6" stroke="#0d1117" stroke-width="2" class="data-point"/>
  
    <circle cx="330.2325581395349" cy="302.1226968314528" r="4" fill="#3b82f6" stroke="#0d1117" stroke-width="2" class="data-point"/>
  
    <circle cx="333.48837209302326" cy="301.70658266992825" r="4" fill="#3b82f6" stroke="#0d1117" stroke-width="2" class="data-point"/>
  
    <circle cx="336.74418604651163" cy="301.3027472869405" r="4" fill="#3b82f6" stroke="#0d1117" stroke-width="2" class="data-point"/>
  
    <circle cx="340" cy="300.89754759522634" r="4" fill="#3b82f6" stroke="#0d1117" stroke-width="2" class="data-point"/>
  
    <circle cx="343.25581395348837" cy="300.41321799738625" r="4" fill="#3b82f6" stroke="#0d1117" stroke-width="2" class="data-point"/>
  
    <circle cx="346.51162790697674" cy="299.9152453122831" r="4" fill="#3b82f6" stroke="#0d1117" stroke-width="2" class="data-point"/>
  
    <circle cx="349.7674418604651" cy="299.3108565465277" r="4" fill="#3b82f6" stroke="#0d1117" stroke-width="2" class="data-point"/>
  
    <circle cx="353.0232558139535" cy="298.8210697137824" r="4" fill="#3b82f6" stroke="#0d1117" stroke-width="2" class="data-point"/>
  
    <circle cx="356.27906976744185" cy="298.42132725697354" r="4" fill="#3b82f6" stroke="#0d1117" stroke-width="2" class="data-point"/>
  
    <circle cx="359.5348837209302" cy="298.0106703303542" r="4" fill="#3b82f6" stroke="#0d1117" stroke-width="2" class="data-point"/>
  
    <circle cx="362.7906976744186" cy="297.61774941717687" r="4" fill="#3b82f6" stroke="#0d1117" stroke-width="2" class="data-point"/>
  
    <circle cx="366.04651162790697" cy="297.1320555106105" r="4" fill="#3b82f6" stroke="#0d1117" stroke-width="2" class="data-point"/>
  
    <circle cx="369.30232558139534" cy="296.63408282550733" r="4" fill="#3b82f6" stroke="#0d1117" stroke-width="2" class="data-point"/>
  
    <circle cx="372.5581395348837" cy="295.5330856833751" r="4" fill="#3b82f6" stroke="#0d1117" stroke-width="2" class="data-point"/>
  
    <circle cx="375.8139534883721" cy="293.34200586892104" r="4" fill="#3b82f6" stroke="#0d1117" stroke-width="2" class="data-point"/>
  
    <circle cx="379.0697674418605" cy="290.73208327548986" r="4" fill="#3b82f6" stroke="#0d1117" stroke-width="2" class="data-point"/>
  
    <circle cx="382.3255813953488" cy="288.35409316553137" r="4" fill="#3b82f6" stroke="#0d1117" stroke-width="2" class="data-point"/>
  
    <circle cx="385.5813953488372" cy="287.1480442514732" r="4" fill="#3b82f6" stroke="#0d1117" stroke-width="2" class="data-point"/>
  
    <circle cx="388.83720930232556" cy="285.3307850280282" r="4" fill="#3b82f6" stroke="#0d1117" stroke-width="2" class="data-point"/>
  
    <circle cx="392.093023255814" cy="284.1233718052437" r="4" fill="#3b82f6" stroke="#0d1117" stroke-width="2" class="data-point"/>
  
    <circle cx="395.3488372093023" cy="283.0646682336271" r="4" fill="#3b82f6" stroke="#0d1117" stroke-width="2" class="data-point"/>
  
    <circle cx="398.6046511627907" cy="282.02915791035775" r="4" fill="#3b82f6" stroke="#0d1117" stroke-width="2" class="data-point"/>
  
    <circle cx="401.86046511627904" cy="281.05367717104605" r="4" fill="#3b82f6" stroke="#0d1117" stroke-width="2" class="data-point"/>
  
    <circle cx="405.1162790697675" cy="279.5365658673892" r="4" fill="#3b82f6" stroke="#0d1117" stroke-width="2" class="data-point"/>
  
    <circle cx="408.37209302325584" cy="278.3305169533311" r="4" fill="#3b82f6" stroke="#0d1117" stroke-width="2" class="data-point"/>
  
    <circle cx="411.6279069767442" cy="276.7888480926007" r="4" fill="#3b82f6" stroke="#0d1117" stroke-width="2" class="data-point"/>
  
    <circle cx="414.8837209302326" cy="276.47369277682304" r="4" fill="#3b82f6" stroke="#0d1117" stroke-width="2" class="data-point"/>
  
    <circle cx="418.13953488372096" cy="276.43276351503374" r="4" fill="#3b82f6" stroke="#0d1117" stroke-width="2" class="data-point"/>
  
    <circle cx="421.3953488372093" cy="276.3795554747076" r="4" fill="#3b82f6" stroke="#0d1117" stroke-width="2" class="data-point"/>
  
    <circle cx="424.6511627906977" cy="276.3345332867394" r="4" fill="#3b82f6" stroke="#0d1117" stroke-width="2" class="data-point"/>
  
    <circle cx="427.906976744186" cy="276.27586801150807" r="4" fill="#3b82f6" stroke="#0d1117" stroke-width="2" class="data-point"/>
  
    <circle cx="431.1627906976744" cy="276.2240242799083" r="4" fill="#3b82f6" stroke="#0d1117" stroke-width="2" class="data-point"/>
  
    <circle cx="434.41860465116275" cy="276.20355964901364" r="4" fill="#3b82f6" stroke="#0d1117" stroke-width="2" class="data-point"/>
  
    <circle cx="437.6744186046512" cy="276.12852266906657" r="4" fill="#3b82f6" stroke="#0d1117" stroke-width="2" class="data-point"/>
  
    <circle cx="440.93023255813955" cy="276.05621430657214" r="4" fill="#3b82f6" stroke="#0d1117" stroke-width="2" class="data-point"/>
  
    <circle cx="444.1860465116279" cy="276.0084635011513" r="4" fill="#3b82f6" stroke="#0d1117" stroke-width="2" class="data-point"/>
  
    <circle cx="447.4418604651163" cy="275.99072748770925" r="4" fill="#3b82f6" stroke="#0d1117" stroke-width="2" class="data-point"/>
  
    <circle cx="450.69767441860466" cy="275.91023327285694" r="4" fill="#3b82f6" stroke="#0d1117" stroke-width="2" class="data-point"/>
  
    <circle cx="453.95348837209303" cy="273.93198561970735" r="4" fill="#3b82f6" stroke="#0d1117" stroke-width="2" class="data-point"/>
  
    <circle cx="457.20930232558135" cy="270.8336405022571" r="4" fill="#3b82f6" stroke="#0d1117" stroke-width="2" class="data-point"/>
  
    <circle cx="460.4651162790697" cy="268.75852692953947" r="4" fill="#3b82f6" stroke="#0d1117" stroke-width="2" class="data-point"/>
  
    <circle cx="463.72093023255815" cy="266.3491577188758" r="4" fill="#3b82f6" stroke="#0d1117" stroke-width="2" class="data-point"/>
  
    <circle cx="466.9767441860465" cy="263.8661158369914" r="4" fill="#3b82f6" stroke="#0d1117" stroke-width="2" class="data-point"/>
  
    <circle cx="470.2325581395349" cy="261.9178829758206" r="4" fill="#3b82f6" stroke="#0d1117" stroke-width="2" class="data-point"/>
  
    <circle cx="473.48837209302326" cy="259.7390819399034" r="4" fill="#3b82f6" stroke="#0d1117" stroke-width="2" class="data-point"/>
  
    <circle cx="476.74418604651163" cy="256.41971880879095" r="4" fill="#3b82f6" stroke="#0d1117" stroke-width="2" class="data-point"/>
  
    <circle cx="480" cy="251.94615049522014" r="4" fill="#3b82f6" stroke="#0d1117" stroke-width="2" class="data-point"/>
  
    <circle cx="483.25581395348837" cy="249.02652982091655" r="4" fill="#3b82f6" stroke="#0d1117" stroke-width="2" class="data-point"/>
  
    <circle cx="486.5116279069767" cy="245.55163549500472" r="4" fill="#3b82f6" stroke="#0d1117" stroke-width="2" class="data-point"/>
  
    <circle cx="489.76744186046517" cy="241.67972732973666" r="4" fill="#3b82f6" stroke="#0d1117" stroke-width="2" class="data-point"/>
  
    <circle cx="493.0232558139535" cy="238.5745606686549" r="4" fill="#3b82f6" stroke="#0d1117" stroke-width="2" class="data-point"/>
  
    <circle cx="496.27906976744185" cy="235.20471811466894" r="4" fill="#3b82f6" stroke="#0d1117" stroke-width="2" class="data-point"/>
  
    <circle cx="499.5348837209302" cy="232.2155176953235" r="4" fill="#3b82f6" stroke="#0d1117" stroke-width="2" class="data-point"/>
  
    <circle cx="502.7906976744186" cy="229.25360345050433" r="4" fill="#3b82f6" stroke="#0d1117" stroke-width="2" class="data-point"/>
  
    <circle cx="506.04651162790697" cy="226.29987505804297" r="4" fill="#3b82f6" stroke="#0d1117" stroke-width="2" class="data-point"/>
  
    <circle cx="509.30232558139534" cy="222.27789293288077" r="4" fill="#3b82f6" stroke="#0d1117" stroke-width="2" class="data-point"/>
  
    <circle cx="512.5581395348837" cy="218.24363202918187" r="4" fill="#3b82f6" stroke="#0d1117" stroke-width="2" class="data-point"/>
  
    <circle cx="515.8139534883721" cy="214.88061101882747" r="4" fill="#3b82f6" stroke="#0d1117" stroke-width="2" class="data-point"/>
  
    <circle cx="519.0697674418604" cy="212.0619491902708" r="4" fill="#3b82f6" stroke="#0d1117" stroke-width="2" class="data-point"/>
  
    <circle cx="522.3255813953489" cy="209.32787450274537" r="4" fill="#3b82f6" stroke="#0d1117" stroke-width="2" class="data-point"/>
  
    <circle cx="525.5813953488372" cy="205.6988132907605" r="4" fill="#3b82f6" stroke="#0d1117" stroke-width="2" class="data-point"/>
  
    <circle cx="528.8372093023256" cy="202.8842443883828" r="4" fill="#3b82f6" stroke="#0d1117" stroke-width="2" class="data-point"/>
  
    <circle cx="532.0930232558139" cy="200.09969027798388" r="4" fill="#3b82f6" stroke="#0d1117" stroke-width="2" class="data-point"/>
  
    <circle cx="535.3488372093022" cy="197.4952249194579" r="4" fill="#3b82f6" stroke="#0d1117" stroke-width="2" class="data-point"/>
  
    <circle cx="538.6046511627907" cy="195.04219782955238" r="4" fill="#3b82f6" stroke="#0d1117" stroke-width="2" class="data-point"/>
  
    <circle cx="541.8604651162791" cy="192.5291411556892" r="4" fill="#3b82f6" stroke="#0d1117" stroke-width="2" class="data-point"/>
  
    <circle cx="545.1162790697674" cy="190.38035491175074" r="4" fill="#3b82f6" stroke="#0d1117" stroke-width="2" class="data-point"/>
  
    <circle cx="548.3720930232558" cy="188.15516737913902" r="4" fill="#3b82f6" stroke="#0d1117" stroke-width="2" class="data-point"/>
  
    <circle cx="551.6279069767443" cy="185.8835933498327" r="4" fill="#3b82f6" stroke="#0d1117" stroke-width="2" class="data-point"/>
  
    <circle cx="554.8837209302326" cy="183.48240999152694" r="4" fill="#3b82f6" stroke="#0d1117" stroke-width="2" class="data-point"/>
  
    <circle cx="558.1395348837209" cy="181.27905139853613" r="4" fill="#3b82f6" stroke="#0d1117" stroke-width="2" class="data-point"/>
  
    <circle cx="561.3953488372092" cy="179.2612387923235" r="4" fill="#3b82f6" stroke="#0d1117" stroke-width="2" class="data-point"/>
  
    <circle cx="564.6511627906976" cy="175.60489140581242" r="4" fill="#3b82f6" stroke="#0d1117" stroke-width="2" class="data-point"/>
  
    <circle cx="567.9069767441861" cy="172.54474693269887" r="4" fill="#3b82f6" stroke="#0d1117" stroke-width="2" class="data-point"/>
  
    <circle cx="571.1627906976744" cy="169.60602593622696" r="4" fill="#3b82f6" stroke="#0d1117" stroke-width="2" class="data-point"/>
  
    <circle cx="574.4186046511628" cy="166.78327118149136" r="4" fill="#3b82f6" stroke="#0d1117" stroke-width="2" class="data-point"/>
  
    <circle cx="577.6744186046511" cy="162.3260745726363" r="4" fill="#3b82f6" stroke="#0d1117" stroke-width="2" class="data-point"/>
  
    <circle cx="580.9302325581396" cy="159.5060484353533" r="4" fill="#3b82f6" stroke="#0d1117" stroke-width="2" class="data-point"/>
  
    <circle cx="584.1860465116279" cy="157.06530012398454" r="4" fill="#3b82f6" stroke="#0d1117" stroke-width="2" class="data-point"/>
  
    <circle cx="587.4418604651163" cy="154.18251578529132" r="4" fill="#3b82f6" stroke="#0d1117" stroke-width="2" class="data-point"/>
  
    <circle cx="590.6976744186046" cy="149.93269410283537" r="4" fill="#3b82f6" stroke="#0d1117" stroke-width="2" class="data-point"/>
  
    <circle cx="593.953488372093" cy="146.87527824717444" r="4" fill="#3b82f6" stroke="#0d1117" stroke-width="2" class="data-point"/>
  
    <circle cx="597.2093023255815" cy="144.29400613699573" r="4" fill="#3b82f6" stroke="#0d1117" stroke-width="2" class="data-point"/>
  
    <circle cx="600.4651162790698" cy="142.10974786617328" r="4" fill="#3b82f6" stroke="#0d1117" stroke-width="2" class="data-point"/>
  
    <circle cx="603.7209302325581" cy="140.03736291090826" r="4" fill="#3b82f6" stroke="#0d1117" stroke-width="2" class="data-point"/>
  
    <circle cx="606.9767441860465" cy="138.35244163391528" r="4" fill="#3b82f6" stroke="#0d1117" stroke-width="2" class="data-point"/>
  
    <circle cx="610.2325581395348" cy="136.45468819561793" r="4" fill="#3b82f6" stroke="#0d1117" stroke-width="2" class="data-point"/>
  
    <circle cx="613.4883720930233" cy="134.9075620999823" r="4" fill="#3b82f6" stroke="#0d1117" stroke-width="2" class="data-point"/>
  
    <circle cx="616.7441860465116" cy="133.08211702417938" r="4" fill="#3b82f6" stroke="#0d1117" stroke-width="2" class="data-point"/>
  
    <circle cx="620" cy="130.45445841730614" r="4" fill="#3b82f6" stroke="#0d1117" stroke-width="2" class="data-point"/>
  
    <circle cx="623.2558139534884" cy="128.1965274752629" r="4" fill="#3b82f6" stroke="#0d1117" stroke-width="2" class="data-point"/>
  
    <circle cx="626.5116279069767" cy="126.2332872181027" r="4" fill="#3b82f6" stroke="#0d1117" stroke-width="2" class="data-point"/>
  
    <circle cx="629.7674418604652" cy="124.53608716257295" r="4" fill="#3b82f6" stroke="#0d1117" stroke-width="2" class="data-point"/>
  
    <circle cx="633.0232558139535" cy="122.78567906671708" r="4" fill="#3b82f6" stroke="#0d1117" stroke-width="2" class="data-point"/>
  
    <circle cx="636.2790697674418" cy="121.30949702484955" r="4" fill="#3b82f6" stroke="#0d1117" stroke-width="2" class="data-point"/>
  
    <circle cx="639.5348837209302" cy="118.82781945169151" r="4" fill="#3b82f6" stroke="#0d1117" stroke-width="2" class="data-point"/>
  
    <circle cx="642.7906976744185" cy="116.7063193822793" r="4" fill="#3b82f6" stroke="#0d1117" stroke-width="2" class="data-point"/>
  
    <circle cx="646.046511627907" cy="114.60255532630916" r="4" fill="#3b82f6" stroke="#0d1117" stroke-width="2" class="data-point"/>
  
    <circle cx="649.3023255813954" cy="112.8657903177164" r="4" fill="#3b82f6" stroke="#0d1117" stroke-width="2" class="data-point"/>
  
    <circle cx="652.5581395348837" cy="111.27227772538618" r="4" fill="#3b82f6" stroke="#0d1117" stroke-width="2" class="data-point"/>
  
    <circle cx="655.8139534883721" cy="109.85748957620262" r="4" fill="#3b82f6" stroke="#0d1117" stroke-width="2" class="data-point"/>
  
    <circle cx="659.0697674418604" cy="107.43174866082327" r="4" fill="#3b82f6" stroke="#0d1117" stroke-width="2" class="data-point"/>
  
    <circle cx="662.3255813953488" cy="105.4616868600315" r="4" fill="#3b82f6" stroke="#0d1117" stroke-width="2" class="data-point"/>
  
    <circle cx="665.5813953488372" cy="103.66625657620742" r="4" fill="#3b82f6" stroke="#0d1117" stroke-width="2" class="data-point"/>
  
    <circle cx="668.8372093023255" cy="101.95132050723564" r="4" fill="#3b82f6" stroke="#0d1117" stroke-width="2" class="data-point"/>
  
    <circle cx="672.0930232558139" cy="100.45467383447345" r="4" fill="#3b82f6" stroke="#0d1117" stroke-width="2" class="data-point"/>
  
    <circle cx="675.3488372093024" cy="99.00168504095322" r="4" fill="#3b82f6" stroke="#0d1117" stroke-width="2" class="data-point"/>
  
    <circle cx="678.6046511627907" cy="97.67011972407454" r="4" fill="#3b82f6" stroke="#0d1117" stroke-width="2" class="data-point"/>
  
    <circle cx="681.8604651162791" cy="96.39312675624828" r="4" fill="#3b82f6" stroke="#0d1117" stroke-width="2" class="data-point"/>
  
    <circle cx="685.1162790697674" cy="95.22254986907424" r="4" fill="#3b82f6" stroke="#0d1117" stroke-width="2" class="data-point"/>
  
    <circle cx="688.3720930232558" cy="93.76137522319613" r="4" fill="#3b82f6" stroke="#0d1117" stroke-width="2" class="data-point"/>
  
    <circle cx="691.6279069767442" cy="92.19242018793952" r="4" fill="#3b82f6" stroke="#0d1117" stroke-width="2" class="data-point"/>
  
    <circle cx="694.8837209302325" cy="90.74898155550343" r="4" fill="#3b82f6" stroke="#0d1117" stroke-width="2" class="data-point"/>
  
    <circle cx="698.139534883721" cy="88.50605800944965" r="4" fill="#3b82f6" stroke="#0d1117" stroke-width="2" class="data-point"/>
  
    <circle cx="701.3953488372093" cy="86.87843769896168" r="4" fill="#3b82f6" stroke="#0d1117" stroke-width="2" class="data-point"/>
  
    <circle cx="704.6511627906976" cy="85.32176144224186" r="4" fill="#3b82f6" stroke="#0d1117" stroke-width="2" class="data-point"/>
  
    <circle cx="707.9069767441861" cy="83.95608840720547" r="4" fill="#3b82f6" stroke="#0d1117" stroke-width="2" class="data-point"/>
  
    <circle cx="711.1627906976744" cy="82.35438996251742" r="4" fill="#3b82f6" stroke="#0d1117" stroke-width="2" class="data-point"/>
  
    <circle cx="714.4186046511628" cy="80.38705677917824" r="4" fill="#3b82f6" stroke="#0d1117" stroke-width="2" class="data-point"/>
  
    <circle cx="717.6744186046511" cy="78.64347022695392" r="4" fill="#3b82f6" stroke="#0d1117" stroke-width="2" class="data-point"/>
  
    <circle cx="720.9302325581396" cy="77.08679397023411" r="4" fill="#3b82f6" stroke="#0d1117" stroke-width="2" class="data-point"/>
  
    <circle cx="724.186046511628" cy="75.39641545833592" r="4" fill="#3b82f6" stroke="#0d1117" stroke-width="2" class="data-point"/>
  
    <circle cx="727.4418604651163" cy="73.06481184507197" r="4" fill="#3b82f6" stroke="#0d1117" stroke-width="2" class="data-point"/>
  
    <circle cx="730.6976744186046" cy="71.15068670205892" r="4" fill="#3b82f6" stroke="#0d1117" stroke-width="2" class="data-point"/>
  
    <circle cx="733.953488372093" cy="69.0974020689622" r="4" fill="#3b82f6" stroke="#0d1117" stroke-width="2" class="data-point"/>
  
    <circle cx="737.2093023255813" cy="67.05093897949706" r="4" fill="#3b82f6" stroke="#0d1117" stroke-width="2" class="data-point"/>
  
    <circle cx="740.4651162790698" cy="65.14499968884189" r="4" fill="#3b82f6" stroke="#0d1117" stroke-width="2" class="data-point"/>
  
    <circle cx="743.7209302325581" cy="63.27453242507073" r="4" fill="#3b82f6" stroke="#0d1117" stroke-width="2" class="data-point"/>
  
    <circle cx="746.9767441860465" cy="61.294920463194785" r="4" fill="#3b82f6" stroke="#0d1117" stroke-width="2" class="data-point"/>
  
    <circle cx="750.232558139535" cy="59.51995481026535" r="4" fill="#3b82f6" stroke="#0d1117" stroke-width="2" class="data-point"/>
  
    <circle cx="753.4883720930233" cy="57.96464286227183" r="4" fill="#3b82f6" stroke="#0d1117" stroke-width="2" class="data-point"/>
  
    <circle cx="756.7441860465117" cy="56.52393284728839" r="4" fill="#3b82f6" stroke="#0d1117" stroke-width="2" class="data-point"/>
  
    <circle cx="760" cy="55" r="4" fill="#3b82f6" stroke="#0d1117" stroke-width="2" class="data-point"/>
  

  <!-- Axis lines -->
  <line x1="60" y1="55" x2="60" y2="340"
        stroke="#30363d" stroke-width="2"/>
  <line x1="60" y1="340" x2="760" y2="340"
        stroke="#30363d" stroke-width="2"/>
</svg>