<?xml version="1.0" encoding="UTF-8"?>
<svg width="800" height="400" xmlns="http://www.w3.org/2000/svg">
  <defs>
    <!-- Gradient for area fill -->
    <linearGradient id="areaGradient" x1="0%" y1="0%" x2="0%" y2="100%">
      <stop offset="0%" style="stop-color:#3b82f6;stop-opacity:0.3" />
      <stop offset="100%" style="stop-color:#3b82f6;stop-opacity:0.05" />
    </linearGradient>

    <!-- Glow filter for line -->
    <filter id="glow">
      <feGaussianBlur stdDeviation="2" result="coloredBlur"/>
      <feMerge>
        <feMergeNode in="coloredBlur"/>
        <feMergeNode in="SourceGraphic"/>
      </feMerge>
    </filter>

    <!-- Animation -->
    <style>
      @keyframes draw {
        from { stroke-dashoffset: 2000; }
        to { stroke-dashoffset: 0; }
      }
      @keyframes fadeIn {
        from { opacity: 0; }
        to { opacity: 1; }
      }
      .line-path {
        stroke-dasharray: 2000;
        stroke-dashoffset: 2000;
        animation: draw 1.5s ease-out forwards;
      }
      .area-path {
        opacity: 0;
        animation: fadeIn 1s ease-out 0.5s forwards;
      }
      .data-point {
        opacity: 0;
        animation: fadeIn 0.5s ease-out 1s forwards;
      }
    </style>
  </defs>

  <!-- Background -->
  <rect width="800" height="400" fill="#0d1117" rx="8"/>

  <!-- Title -->
  <text x="400" y="25" text-anchor="middle" fill="#c9d1d9" font-family="system-ui, -apple-system, sans-serif" font-size="16" font-weight="600">
    zxcloli666/SoundCloud-Desktop Downloads
  </text>

  <!-- Stats -->
  <text x="780" y="25" text-anchor="end" fill="#58a6ff" font-family="system-ui, -apple-system, sans-serif" font-size="14" font-weight="600">
    283.4K total
  </text>
  <text x="780" y="42" text-anchor="end" fill="#3fb950" font-family="system-ui, -apple-system, sans-serif" font-size="12">
    +802 (+0.3%)
  </text>

  <!-- Grid lines -->
  <g opacity="0.1">
    
      <line x1="60" y1="340" x2="760" y2="340"
            stroke="#c9d1d9" stroke-width="1"/>
    
      <line x1="60" y1="268.75" x2="760" y2="268.75"
            stroke="#c9d1d9" stroke-width="1"/>
    
      <line x1="60" y1="197.5" x2="760" y2="197.5"
            stroke="#c9d1d9" stroke-width="1"/>
    
      <line x1="60" y1="126.25" x2="760" y2="126.25"
            stroke="#c9d1d9" stroke-width="1"/>
    
      <line x1="60" y1="55" x2="760" y2="55"
            stroke="#c9d1d9" stroke-width="1"/>
    
  </g>

  <!-- Y-axis labels -->
  
    <text x="50" y="344" text-anchor="end"
          fill="#8b949e" font-family="system-ui, -apple-system, sans-serif" font-size="11">
      60.2K
    </text>
  
    <text x="50" y="272.75" text-anchor="end"
          fill="#8b949e" font-family="system-ui, -apple-system, sans-serif" font-size="11">
      116.0K
    </text>
  
    <text x="50" y="201.5" text-anchor="end"
          fill="#8b949e" font-family="system-ui, -apple-system, sans-serif" font-size="11">
      171.8K
    </text>
  
    <text x="50" y="130.25" text-anchor="end"
          fill="#8b949e" font-family="system-ui, -apple-system, sans-serif" font-size="11">
      227.6K
    </text>
  
    <text x="50" y="59" text-anchor="end"
          fill="#8b949e" font-family="system-ui, -apple-system, sans-serif" font-size="11">
      283.4K
    </text>
  

  <!-- X-axis labels -->
  
    <text x="60" y="360" text-anchor="middle"
          fill="#8b949e" font-family="system-ui, -apple-system, sans-serif" font-size="11">
      Nov 25
    </text>
  
    <text x="145.2173913043478" y="360" text-anchor="middle"
          fill="#8b949e" font-family="system-ui, -apple-system, sans-serif" font-size="11">
      Dec 23
    </text>
  
    <text x="230.43478260869566" y="360" text-anchor="middle"
          fill="#8b949e" font-family="system-ui, -apple-system, sans-serif" font-size="11">
      Jan 20
    </text>
  
    <text x="315.6521739130435" y="360" text-anchor="middle"
          fill="#8b949e" font-family="system-ui, -apple-system, sans-serif" font-size="11">
      Feb 17
    </text>
  
    <text x="400.8695652173913" y="360" text-anchor="middle"
          fill="#8b949e" font-family="system-ui, -apple-system, sans-serif" font-size="11">
      Mar 17
    </text>
  
    <text x="486.0869565217392" y="360" text-anchor="middle"
          fill="#8b949e" font-family="system-ui, -apple-system, sans-serif" font-size="11">
      Apr 14
    </text>
  
    <text x="571.304347826087" y="360" text-anchor="middle"
          fill="#8b949e" font-family="system-ui, -apple-system, sans-serif" font-size="11">
      May 12
    </text>
  
    <text x="656.5217391304348" y="360" text-anchor="middle"
          fill="#8b949e" font-family="system-ui, -apple-system, sans-serif" font-size="11">
      Jun 9
    </text>
  
    <text x="741.7391304347826" y="360" text-anchor="middle"
          fill="#8b949e" font-family="system-ui, -apple-system, sans-serif" font-size="11">
      Jul 7
    </text>
  
    <text x="760" y="360" text-anchor="middle"
          fill="#8b949e" font-family="system-ui, -apple-system, sans-serif" font-size="11">
      Jul 13
    </text>
  

  <!-- Area under line -->
  <path d="M 60 340
    L 60.00 340.00 L 63.04 339.81 L 66.09 339.49 L 69.13 339.20 L 72.17 338.61 L 75.22 338.00 L 78.26 337.52 L 81.30 337.08 L 84.35 336.68 L 87.39 336.21 L 90.43 335.69 L 93.48 335.14 L 96.52 334.63 L 99.57 334.09 L 102.61 333.70 L 105.65 333.30 L 108.70 332.75 L 111.74 332.38 L 114.78 331.87 L 117.83 331.28 L 120.87 330.83 L 123.91 330.47 L 126.96 330.23 L 130.00 330.03 L 133.04 329.67 L 136.09 329.41 L 139.13 328.84 L 142.17 328.62 L 145.22 328.33 L 148.26 327.96 L 151.30 327.70 L 154.35 327.44 L 157.39 327.17 L 160.43 326.98 L 163.48 326.82 L 166.52 326.57 L 169.57 326.27 L 172.61 325.99 L 175.65 325.64 L 178.70 325.25 L 181.74 324.90 L 184.78 324.48 L 187.83 324.06 L 190.87 323.64 L 193.91 323.19 L 196.96 322.75 L 200.00 322.25 L 203.04 321.80 L 206.09 321.43 L 209.13 321.13 L 212.17 320.71 L 215.22 320.22 L 218.26 319.78 L 221.30 319.27 L 224.35 318.64 L 227.39 318.16 L 230.43 317.77 L 233.48 317.40 L 236.52 316.95 L 239.57 316.43 L 242.61 315.85 L 245.65 315.25 L 248.70 314.66 L 251.74 314.15 L 254.78 313.65 L 257.83 313.20 L 260.87 312.74 L 263.91 312.23 L 266.96 311.59 L 270.00 311.12 L 273.04 310.70 L 276.09 310.23 L 279.13 309.79 L 282.17 309.30 L 285.22 308.80 L 288.26 308.28 L 291.30 307.81 L 294.35 307.42 L 297.39 306.99 L 300.43 306.52 L 303.48 306.09 L 306.52 305.52 L 309.57 305.03 L 312.61 304.57 L 315.65 304.18 L 318.70 303.80 L 321.74 303.42 L 324.78 302.97 L 327.83 302.50 L 330.87 301.93 L 333.91 301.48 L 336.96 301.10 L 340.00 300.72 L 343.04 300.35 L 346.09 299.90 L 349.13 299.43 L 352.17 298.40 L 355.22 296.35 L 358.26 293.91 L 361.30 291.68 L 364.35 290.56 L 367.39 288.86 L 370.43 287.73 L 373.48 286.74 L 376.52 285.77 L 379.57 284.85 L 382.61 283.44 L 385.65 282.31 L 388.70 280.86 L 391.74 280.57 L 394.78 280.53 L 397.83 280.48 L 400.87 280.44 L 403.91 280.39 L 406.96 280.34 L 410.00 280.32 L 413.04 280.25 L 416.09 280.18 L 419.13 280.13 L 422.17 280.12 L 425.22 280.04 L 428.26 278.19 L 431.30 275.29 L 434.35 273.35 L 437.39 271.10 L 440.43 268.78 L 443.48 266.95 L 446.52 264.91 L 449.57 261.81 L 452.61 257.62 L 455.65 254.89 L 458.70 251.64 L 461.74 248.02 L 464.78 245.11 L 467.83 241.96 L 470.87 239.17 L 473.91 236.39 L 476.96 233.63 L 480.00 229.87 L 483.04 226.09 L 486.09 222.95 L 489.13 220.31 L 492.17 217.75 L 495.22 214.36 L 498.26 211.73 L 501.30 209.12 L 504.35 206.68 L 507.39 204.39 L 510.43 202.04 L 513.48 200.03 L 516.52 197.95 L 519.57 195.82 L 522.61 193.58 L 525.65 191.51 L 528.70 189.63 L 531.74 186.21 L 534.78 183.34 L 537.83 180.59 L 540.87 177.95 L 543.91 173.78 L 546.96 171.15 L 550.00 168.86 L 553.04 166.16 L 556.09 162.19 L 559.13 159.33 L 562.17 156.91 L 565.22 154.87 L 568.26 152.93 L 571.30 151.36 L 574.35 149.58 L 577.39 148.13 L 580.43 146.42 L 583.48 143.97 L 586.52 141.85 L 589.57 140.02 L 592.61 138.43 L 595.65 136.79 L 598.70 135.41 L 601.74 133.09 L 604.78 131.11 L 607.83 129.14 L 610.87 127.51 L 613.91 126.02 L 616.96 124.70 L 620.00 122.43 L 623.04 120.59 L 626.09 118.91 L 629.13 117.30 L 632.17 115.90 L 635.22 114.54 L 638.26 113.30 L 641.30 112.10 L 644.35 111.01 L 647.39 109.64 L 650.43 108.17 L 653.48 106.82 L 656.52 104.72 L 659.57 103.20 L 662.61 101.74 L 665.65 100.47 L 668.70 98.97 L 671.74 97.13 L 674.78 95.50 L 677.83 94.04 L 680.87 92.46 L 683.91 90.28 L 686.96 88.49 L 690.00 86.57 L 693.04 84.65 L 696.09 82.87 L 699.13 81.12 L 702.17 79.27 L 705.22 77.61 L 708.26 76.15 L 711.30 74.80 L 714.35 73.38 L 717.39 71.99 L 720.43 70.73 L 723.48 69.47 L 726.52 68.26 L 729.57 67.07 L 732.61 65.87 L 735.65 64.81 L 738.70 63.59 L 741.74 62.32 L 744.78 60.88 L 747.83 59.49 L 750.87 58.24 L 753.91 57.15 L 756.96 56.02 L 760.00 55.00
    L 760 340
    Z" fill="url(#areaGradient)" class="area-path"/>

  <!-- Main line with glow -->
  <path d="M 60.00 340.00 L 63.04 339.81 L 66.09 339.49 L 69.13 339.20 L 72.17 338.61 L 75.22 338.00 L 78.26 337.52 L 81.30 337.08 L 84.35 336.68 L 87.39 336.21 L 90.43 335.69 L 93.48 335.14 L 96.52 334.63 L 99.57 334.09 L 102.61 333.70 L 105.65 333.30 L 108.70 332.75 L 111.74 332.38 L 114.78 331.87 L 117.83 331.28 L 120.87 330.83 L 123.91 330.47 L 126.96 330.23 L 130.00 330.03 L 133.04 329.67 L 136.09 329.41 L 139.13 328.84 L 142.17 328.62 L 145.22 328.33 L 148.26 327.96 L 151.30 327.70 L 154.35 327.44 L 157.39 327.17 L 160.43 326.98 L 163.48 326.82 L 166.52 326.57 L 169.57 326.27 L 172.61 325.99 L 175.65 325.64 L 178.70 325.25 L 181.74 324.90 L 184.78 324.48 L 187.83 324.06 L 190.87 323.64 L 193.91 323.19 L 196.96 322.75 L 200.00 322.25 L 203.04 321.80 L 206.09 321.43 L 209.13 321.13 L 212.17 320.71 L 215.22 320.22 L 218.26 319.78 L 221.30 319.27 L 224.35 318.64 L 227.39 318.16 L 230.43 317.77 L 233.48 317.40 L 236.52 316.95 L 239.57 316.43 L 242.61 315.85 L 245.65 315.25 L 248.70 314.66 L 251.74 314.15 L 254.78 313.65 L 257.83 313.20 L 260.87 312.74 L 263.91 312.23 L 266.96 311.59 L 270.00 311.12 L 273.04 310.70 L 276.09 310.23 L 279.13 309.79 L 282.17 309.30 L 285.22 308.80 L 288.26 308.28 L 291.30 307.81 L 294.35 307.42 L 297.39 306.99 L 300.43 306.52 L 303.48 306.09 L 306.52 305.52 L 309.57 305.03 L 312.61 304.57 L 315.65 304.18 L 318.70 303.80 L 321.74 303.42 L 324.78 302.97 L 327.83 302.50 L 330.87 301.93 L 333.91 301.48 L 336.96 301.10 L 340.00 300.72 L 343.04 300.35 L 346.09 299.90 L 349.13 299.43 L 352.17 298.40 L 355.22 296.35 L 358.26 293.91 L 361.30 291.68 L 364.35 290.56 L 367.39 288.86 L 370.43 287.73 L 373.48 286.74 L 376.52 285.77 L 379.57 284.85 L 382.61 283.44 L 385.65 282.31 L 388.70 280.86 L 391.74 280.57 L 394.78 280.53 L 397.83 280.48 L 400.87 280.44 L 403.91 280.39 L 406.96 280.34 L 410.00 280.32 L 413.04 280.25 L 416.09 280.18 L 419.13 280.13 L 422.17 280.12 L 425.22 280.04 L 428.26 278.19 L 431.30 275.29 L 434.35 273.35 L 437.39 271.10 L 440.43 268.78 L 443.48 266.95 L 446.52 264.91 L 449.57 261.81 L 452.61 257.62 L 455.65 254.89 L 458.70 251.64 L 461.74 248.02 L 464.78 245.11 L 467.83 241.96 L 470.87 239.17 L 473.91 236.39 L 476.96 233.63 L 480.00 229.87 L 483.04 226.09 L 486.09 222.95 L 489.13 220.31 L 492.17 217.75 L 495.22 214.36 L 498.26 211.73 L 501.30 209.12 L 504.35 206.68 L 507.39 204.39 L 510.43 202.04 L 513.48 200.03 L 516.52 197.95 L 519.57 195.82 L 522.61 193.58 L 525.65 191.51 L 528.70 189.63 L 531.74 186.21 L 534.78 183.34 L 537.83 180.59 L 540.87 177.95 L 543.91 173.78 L 546.96 171.15 L 550.00 168.86 L 553.04 166.16 L 556.09 162.19 L 559.13 159.33 L 562.17 156.91 L 565.22 154.87 L 568.26 152.93 L 571.30 151.36 L 574.35 149.58 L 577.39 148.13 L 580.43 146.42 L 583.48 143.97 L 586.52 141.85 L 589.57 140.02 L 592.61 138.43 L 595.65 136.79 L 598.70 135.41 L 601.74 133.09 L 604.78 131.11 L 607.83 129.14 L 610.87 127.51 L 613.91 126.02 L 616.96 124.70 L 620.00 122.43 L 623.04 120.59 L 626.09 118.91 L 629.13 117.30 L 632.17 115.90 L 635.22 114.54 L 638.26 113.30 L 641.30 112.10 L 644.35 111.01 L 647.39 109.64 L 650.43 108.17 L 653.48 106.82 L 656.52 104.72 L 659.57 103.20 L 662.61 101.74 L 665.65 100.47 L 668.70 98.97 L 671.74 97.13 L 674.78 95.50 L 677.83 94.04 L 680.87 92.46 L 683.91 90.28 L 686.96 88.49 L 690.00 86.57 L 693.04 84.65 L 696.09 82.87 L 699.13 81.12 L 702.17 79.27 L 705.22 77.61 L 708.26 76.15 L 711.30 74.80 L 714.35 73.38 L 717.39 71.99 L 720.43 70.73 L 723.48 69.47 L 726.52 68.26 L 729.57 67.07 L 732.61 65.87 L 735.65 64.81 L 738.70 63.59 L 741.74 62.32 L 744.78 60.88 L 747.83 59.49 L 750.87 58.24 L 753.91 57.15 L 756.96 56.02 L 760.00 55.00" fill="none" stroke="#3b82f6" stroke-width="3"
        stroke-linecap="round" stroke-linejoin="round" filter="url(#glow)" class="line-path"/>

  <!-- Data points -->
  
    <circle cx="60" cy="340" r="4" fill="#3b82f6" stroke="#0d1117" stroke-width="2" class="data-point"/>
  
    <circle cx="63.04347826086956" cy="339.8123790842648" r="4" fill="#3b82f6" stroke="#0d1117" stroke-width="2" class="data-point"/>
  
    <circle cx="66.08695652173913" cy="339.49329589423905" r="4" fill="#3b82f6" stroke="#0d1117" stroke-width="2" class="data-point"/>
  
    <circle cx="69.13043478260869" cy="339.1971866938951" r="4" fill="#3b82f6" stroke="#0d1117" stroke-width="2" class="data-point"/>
  
    <circle cx="72.17391304347827" cy="338.6087972914875" r="4" fill="#3b82f6" stroke="#0d1117" stroke-width="2" class="data-point"/>
  
    <circle cx="75.21739130434783" cy="338.00126289767843" r="4" fill="#3b82f6" stroke="#0d1117" stroke-width="2" class="data-point"/>
  
    <circle cx="78.26086956521739" cy="337.5226381126397" r="4" fill="#3b82f6" stroke="#0d1117" stroke-width="2" class="data-point"/>
  
    <circle cx="81.30434782608695" cy="337.0759216466036" r="4" fill="#3b82f6" stroke="#0d1117" stroke-width="2" class="data-point"/>
  
    <circle cx="84.34782608695653" cy="336.6789821582115" r="4" fill="#3b82f6" stroke="#0d1117" stroke-width="2" class="data-point"/>
  
    <circle cx="87.3913043478261" cy="336.21312070077386" r="4" fill="#3b82f6" stroke="#0d1117" stroke-width="2" class="data-point"/>
  
    <circle cx="90.43478260869566" cy="335.6936532674119" r="4" fill="#3b82f6" stroke="#0d1117" stroke-width="2" class="data-point"/>
  
    <circle cx="93.47826086956522" cy="335.1371721840069" r="4" fill="#3b82f6" stroke="#0d1117" stroke-width="2" class="data-point"/>
  
    <circle cx="96.52173913043478" cy="334.631744411006" r="4" fill="#3b82f6" stroke="#0d1117" stroke-width="2" class="data-point"/>
  
    <circle cx="99.56521739130434" cy="334.0944083190026" r="4" fill="#3b82f6" stroke="#0d1117" stroke-width="2" class="data-point"/>
  
    <circle cx="102.6086956521739" cy="333.7025741616509" r="4" fill="#3b82f6" stroke="#0d1117" stroke-width="2" class="data-point"/>
  
    <circle cx="105.65217391304347" cy="333.2967003439381" r="4" fill="#3b82f6" stroke="#0d1117" stroke-width="2" class="data-point"/>
  
    <circle cx="108.69565217391305" cy="332.74532459157354" r="4" fill="#3b82f6" stroke="#0d1117" stroke-width="2" class="data-point"/>
  
    <circle cx="111.73913043478261" cy="332.3764644239037" r="4" fill="#3b82f6" stroke="#0d1117" stroke-width="2" class="data-point"/>
  
    <circle cx="114.78260869565219" cy="331.8659313198624" r="4" fill="#3b82f6" stroke="#0d1117" stroke-width="2" class="data-point"/>
  
    <circle cx="117.82608695652173" cy="331.2762655846948" r="4" fill="#3b82f6" stroke="#0d1117" stroke-width="2" class="data-point"/>
  
    <circle cx="120.86956521739131" cy="330.83210178417886" r="4" fill="#3b82f6" stroke="#0d1117" stroke-width="2" class="data-point"/>
  
    <circle cx="123.91304347826087" cy="330.46707061478935" r="4" fill="#3b82f6" stroke="#0d1117" stroke-width="2" class="data-point"/>
  
    <circle cx="126.95652173913044" cy="330.23094905417025" r="4" fill="#3b82f6" stroke="#0d1117" stroke-width="2" class="data-point"/>
  
    <circle cx="130" cy="330.03439380911436" r="4" fill="#3b82f6" stroke="#0d1117" stroke-width="2" class="data-point"/>
  
    <circle cx="133.04347826086956" cy="329.67063897248494" r="4" fill="#3b82f6" stroke="#0d1117" stroke-width="2" class="data-point"/>
  
    <circle cx="136.08695652173913" cy="329.411543422184" r="4" fill="#3b82f6" stroke="#0d1117" stroke-width="2" class="data-point"/>
  
    <circle cx="139.1304347826087" cy="328.8435753439381" r="4" fill="#3b82f6" stroke="#0d1117" stroke-width="2" class="data-point"/>
  
    <circle cx="142.17391304347825" cy="328.62021711092" r="4" fill="#3b82f6" stroke="#0d1117" stroke-width="2" class="data-point"/>
  
    <circle cx="145.2173913043478" cy="328.33176590713674" r="4" fill="#3b82f6" stroke="#0d1117" stroke-width="2" class="data-point"/>
  
    <circle cx="148.26086956521738" cy="327.9590767411866" r="4" fill="#3b82f6" stroke="#0d1117" stroke-width="2" class="data-point"/>
  
    <circle cx="151.30434782608694" cy="327.70381018916595" r="4" fill="#3b82f6" stroke="#0d1117" stroke-width="2" class="data-point"/>
  
    <circle cx="154.3478260869565" cy="327.444714638865" r="4" fill="#3b82f6" stroke="#0d1117" stroke-width="2" class="data-point"/>
  
    <circle cx="157.3913043478261" cy="327.17285576096305" r="4" fill="#3b82f6" stroke="#0d1117" stroke-width="2" class="data-point"/>
  
    <circle cx="160.43478260869566" cy="326.9839585124678" r="4" fill="#3b82f6" stroke="#0d1117" stroke-width="2" class="data-point"/>
  
    <circle cx="163.47826086956522" cy="326.82058791917456" r="4" fill="#3b82f6" stroke="#0d1117" stroke-width="2" class="data-point"/>
  
    <circle cx="166.5217391304348" cy="326.57170303095444" r="4" fill="#3b82f6" stroke="#0d1117" stroke-width="2" class="data-point"/>
  
    <circle cx="169.56521739130437" cy="326.26921216680995" r="4" fill="#3b82f6" stroke="#0d1117" stroke-width="2" class="data-point"/>
  
    <circle cx="172.6086956521739" cy="325.9909716251075" r="4" fill="#3b82f6" stroke="#0d1117" stroke-width="2" class="data-point"/>
  
    <circle cx="175.65217391304347" cy="325.638703783319" r="4" fill="#3b82f6" stroke="#0d1117" stroke-width="2" class="data-point"/>
  
    <circle cx="178.69565217391303" cy="325.2545276225279" r="4" fill="#3b82f6" stroke="#0d1117" stroke-width="2" class="data-point"/>
  
    <circle cx="181.73913043478262" cy="324.9022597807395" r="4" fill="#3b82f6" stroke="#0d1117" stroke-width="2" class="data-point"/>
  
    <circle cx="184.7826086956522" cy="324.4772409716251" r="4" fill="#3b82f6" stroke="#0d1117" stroke-width="2" class="data-point"/>
  
    <circle cx="187.82608695652175" cy="324.0598801590714" r="4" fill="#3b82f6" stroke="#0d1117" stroke-width="2" class="data-point"/>
  
    <circle cx="190.8695652173913" cy="323.64251934651764" r="4" fill="#3b82f6" stroke="#0d1117" stroke-width="2" class="data-point"/>
  
    <circle cx="193.91304347826087" cy="323.1855922184007" r="4" fill="#3b82f6" stroke="#0d1117" stroke-width="2" class="data-point"/>
  
    <circle cx="196.95652173913044" cy="322.7490864144454" r="4" fill="#3b82f6" stroke="#0d1117" stroke-width="2" class="data-point"/>
  
    <circle cx="200" cy="322.2500403052451" r="4" fill="#3b82f6" stroke="#0d1117" stroke-width="2" class="data-point"/>
  
    <circle cx="203.04347826086956" cy="321.80460017196907" r="4" fill="#3b82f6" stroke="#0d1117" stroke-width="2" class="data-point"/>
  
    <circle cx="206.08695652173913" cy="321.4280820077386" r="4" fill="#3b82f6" stroke="#0d1117" stroke-width="2" class="data-point"/>
  
    <circle cx="209.1304347826087" cy="321.1268674763543" r="4" fill="#3b82f6" stroke="#0d1117" stroke-width="2" class="data-point"/>
  
    <circle cx="212.17391304347825" cy="320.7056776655202" r="4" fill="#3b82f6" stroke="#0d1117" stroke-width="2" class="data-point"/>
  
    <circle cx="215.2173913043478" cy="320.2245002149613" r="4" fill="#3b82f6" stroke="#0d1117" stroke-width="2" class="data-point"/>
  
    <circle cx="218.2608695652174" cy="319.7841654127257" r="4" fill="#3b82f6" stroke="#0d1117" stroke-width="2" class="data-point"/>
  
    <circle cx="221.30434782608697" cy="319.26980331040414" r="4" fill="#3b82f6" stroke="#0d1117" stroke-width="2" class="data-point"/>
  
    <circle cx="224.34782608695653" cy="318.63546592863287" r="4" fill="#3b82f6" stroke="#0d1117" stroke-width="2" class="data-point"/>
  
    <circle cx="227.3913043478261" cy="318.1632228073947" r="4" fill="#3b82f6" stroke="#0d1117" stroke-width="2" class="data-point"/>
  
    <circle cx="230.43478260869566" cy="317.771388650043" r="4" fill="#3b82f6" stroke="#0d1117" stroke-width="2" class="data-point"/>
  
    <circle cx="233.47826086956522" cy="317.39869948409284" r="4" fill="#3b82f6" stroke="#0d1117" stroke-width="2" class="data-point"/>
  
    <circle cx="236.52173913043478" cy="316.95070668529667" r="4" fill="#3b82f6" stroke="#0d1117" stroke-width="2" class="data-point"/>
  
    <circle cx="239.56521739130437" cy="316.42996291917456" r="4" fill="#3b82f6" stroke="#0d1117" stroke-width="2" class="data-point"/>
  
    <circle cx="242.6086956521739" cy="315.8530605116079" r="4" fill="#3b82f6" stroke="#0d1117" stroke-width="2" class="data-point"/>
  
    <circle cx="245.6521739130435" cy="315.2468024505589" r="4" fill="#3b82f6" stroke="#0d1117" stroke-width="2" class="data-point"/>
  
    <circle cx="248.69565217391303" cy="314.66479471195186" r="4" fill="#3b82f6" stroke="#0d1117" stroke-width="2" class="data-point"/>
  
    <circle cx="251.7391304347826" cy="314.15298527515046" r="4" fill="#3b82f6" stroke="#0d1117" stroke-width="2" class="data-point"/>
  
    <circle cx="254.7826086956522" cy="313.6450048366294" r="4" fill="#3b82f6" stroke="#0d1117" stroke-width="2" class="data-point"/>
  
    <circle cx="257.82608695652175" cy="313.1970120378332" r="4" fill="#3b82f6" stroke="#0d1117" stroke-width="2" class="data-point"/>
  
    <circle cx="260.8695652173913" cy="312.74008490971624" r="4" fill="#3b82f6" stroke="#0d1117" stroke-width="2" class="data-point"/>
  
    <circle cx="263.9130434782609" cy="312.229551805675" r="4" fill="#3b82f6" stroke="#0d1117" stroke-width="2" class="data-point"/>
  
    <circle cx="266.95652173913044" cy="311.59393809114357" r="4" fill="#3b82f6" stroke="#0d1117" stroke-width="2" class="data-point"/>
  
    <circle cx="270" cy="311.1204186371453" r="4" fill="#3b82f6" stroke="#0d1117" stroke-width="2" class="data-point"/>
  
    <circle cx="273.0434782608696" cy="310.69667616079107" r="4" fill="#3b82f6" stroke="#0d1117" stroke-width="2" class="data-point"/>
  
    <circle cx="276.0869565217391" cy="310.22570937231296" r="4" fill="#3b82f6" stroke="#0d1117" stroke-width="2" class="data-point"/>
  
    <circle cx="279.13043478260875" cy="309.7866509028375" r="4" fill="#3b82f6" stroke="#0d1117" stroke-width="2" class="data-point"/>
  
    <circle cx="282.17391304347825" cy="309.3041971195185" r="4" fill="#3b82f6" stroke="#0d1117" stroke-width="2" class="data-point"/>
  
    <circle cx="285.2173913043478" cy="308.8013220120378" r="4" fill="#3b82f6" stroke="#0d1117" stroke-width="2" class="data-point"/>
  
    <circle cx="288.2608695652174" cy="308.2754729148753" r="4" fill="#3b82f6" stroke="#0d1117" stroke-width="2" class="data-point"/>
  
    <circle cx="291.30434782608694" cy="307.81471678847805" r="4" fill="#3b82f6" stroke="#0d1117" stroke-width="2" class="data-point"/>
  
    <circle cx="294.3478260869565" cy="307.4203299656062" r="4" fill="#3b82f6" stroke="#0d1117" stroke-width="2" class="data-point"/>
  
    <circle cx="297.39130434782606" cy="306.9876531599312" r="4" fill="#3b82f6" stroke="#0d1117" stroke-width="2" class="data-point"/>
  
    <circle cx="300.4347826086956" cy="306.5192390369733" r="4" fill="#3b82f6" stroke="#0d1117" stroke-width="2" class="data-point"/>
  
    <circle cx="303.47826086956525" cy="306.08528589853825" r="4" fill="#3b82f6" stroke="#0d1117" stroke-width="2" class="data-point"/>
  
    <circle cx="306.5217391304348" cy="305.51987048581253" r="4" fill="#3b82f6" stroke="#0d1117" stroke-width="2" class="data-point"/>
  
    <circle cx="309.5652173913044" cy="305.03358770421323" r="4" fill="#3b82f6" stroke="#0d1117" stroke-width="2" class="data-point"/>
  
    <circle cx="312.60869565217394" cy="304.56517358125535" r="4" fill="#3b82f6" stroke="#0d1117" stroke-width="2" class="data-point"/>
  
    <circle cx="315.6521739130435" cy="304.1758920894239" r="4" fill="#3b82f6" stroke="#0d1117" stroke-width="2" class="data-point"/>
  
    <circle cx="318.695652173913" cy="303.79809759243335" r="4" fill="#3b82f6" stroke="#0d1117" stroke-width="2" class="data-point"/>
  
    <circle cx="321.7391304347826" cy="303.41902676268273" r="4" fill="#3b82f6" stroke="#0d1117" stroke-width="2" class="data-point"/>
  
    <circle cx="324.7826086956522" cy="302.9659286328461" r="4" fill="#3b82f6" stroke="#0d1117" stroke-width="2" class="data-point"/>
  
    <circle cx="327.82608695652175" cy="302.50006717540845" r="4" fill="#3b82f6" stroke="#0d1117" stroke-width="2" class="data-point"/>
  
    <circle cx="330.8695652173913" cy="301.93465176268273" r="4" fill="#3b82f6" stroke="#0d1117" stroke-width="2" class="data-point"/>
  
    <circle cx="333.9130434782609" cy="301.4764483018057" r="4" fill="#3b82f6" stroke="#0d1117" stroke-width="2" class="data-point"/>
  
    <circle cx="336.95652173913044" cy="301.1024828030954" r="4" fill="#3b82f6" stroke="#0d1117" stroke-width="2" class="data-point"/>
  
    <circle cx="340" cy="300.7183066423044" r="4" fill="#3b82f6" stroke="#0d1117" stroke-width="2" class="data-point"/>
  
    <circle cx="343.04347826086956" cy="300.3507228073947" r="4" fill="#3b82f6" stroke="#0d1117" stroke-width="2" class="data-point"/>
  
    <circle cx="346.0869565217391" cy="299.89634834479796" r="4" fill="#3b82f6" stroke="#0d1117" stroke-width="2" class="data-point"/>
  
    <circle cx="349.1304347826087" cy="299.4304868873603" r="4" fill="#3b82f6" stroke="#0d1117" stroke-width="2" class="data-point"/>
  
    <circle cx="352.17391304347825" cy="298.400486349957" r="4" fill="#3b82f6" stroke="#0d1117" stroke-width="2" class="data-point"/>
  
    <circle cx="355.2173913043478" cy="296.3506959372313" r="4" fill="#3b82f6" stroke="#0d1117" stroke-width="2" class="data-point"/>
  
    <circle cx="358.2608695652174" cy="293.9090713671539" r="4" fill="#3b82f6" stroke="#0d1117" stroke-width="2" class="data-point"/>
  
    <circle cx="361.30434782608694" cy="291.6844233662941" r="4" fill="#3b82f6" stroke="#0d1117" stroke-width="2" class="data-point"/>
  
    <circle cx="364.3478260869565" cy="290.5561452063629" r="4" fill="#3b82f6" stroke="#0d1117" stroke-width="2" class="data-point"/>
  
    <circle cx="367.3913043478261" cy="288.85606996990543" r="4" fill="#3b82f6" stroke="#0d1117" stroke-width="2" class="data-point"/>
  
    <circle cx="370.4347826086956" cy="287.7265154772141" r="4" fill="#3b82f6" stroke="#0d1117" stroke-width="2" class="data-point"/>
  
    <circle cx="373.47826086956525" cy="286.736081255374" r="4" fill="#3b82f6" stroke="#0d1117" stroke-width="2" class="data-point"/>
  
    <circle cx="376.5217391304348" cy="285.76734469045573" r="4" fill="#3b82f6" stroke="#0d1117" stroke-width="2" class="data-point"/>
  
    <circle cx="379.5652173913043" cy="284.8547667669819" r="4" fill="#3b82f6" stroke="#0d1117" stroke-width="2" class="data-point"/>
  
    <circle cx="382.60869565217394" cy="283.4354847377472" r="4" fill="#3b82f6" stroke="#0d1117" stroke-width="2" class="data-point"/>
  
    <circle cx="385.65217391304344" cy="282.307206577816" r="4" fill="#3b82f6" stroke="#0d1117" stroke-width="2" class="data-point"/>
  
    <circle cx="388.69565217391306" cy="280.8649505588994" r="4" fill="#3b82f6" stroke="#0d1117" stroke-width="2" class="data-point"/>
  
    <circle cx="391.7391304347826" cy="280.57011769131555" r="4" fill="#3b82f6" stroke="#0d1117" stroke-width="2" class="data-point"/>
  
    <circle cx="394.7826086956522" cy="280.5318277085125" r="4" fill="#3b82f6" stroke="#0d1117" stroke-width="2" class="data-point"/>
  
    <circle cx="397.82608695652175" cy="280.4820507308684" r="4" fill="#3b82f6" stroke="#0d1117" stroke-width="2" class="data-point"/>
  
    <circle cx="400.8695652173913" cy="280.43993174978505" r="4" fill="#3b82f6" stroke="#0d1117" stroke-width="2" class="data-point"/>
  
    <circle cx="403.9130434782609" cy="280.3850494411006" r="4" fill="#3b82f6" stroke="#0d1117" stroke-width="2" class="data-point"/>
  
    <circle cx="406.95652173913044" cy="280.3365487962167" r="4" fill="#3b82f6" stroke="#0d1117" stroke-width="2" class="data-point"/>
  
    <circle cx="410" cy="280.3174038048151" r="4" fill="#3b82f6" stroke="#0d1117" stroke-width="2" class="data-point"/>
  
    <circle cx="413.04347826086956" cy="280.24720550300947" r="4" fill="#3b82f6" stroke="#0d1117" stroke-width="2" class="data-point"/>
  
    <circle cx="416.08695652173907" cy="280.179559866724" r="4" fill="#3b82f6" stroke="#0d1117" stroke-width="2" class="data-point"/>
  
    <circle cx="419.13043478260875" cy="280.1348882201204" r="4" fill="#3b82f6" stroke="#0d1117" stroke-width="2" class="data-point"/>
  
    <circle cx="422.17391304347825" cy="280.11829589423905" r="4" fill="#3b82f6" stroke="#0d1117" stroke-width="2" class="data-point"/>
  
    <circle cx="425.2173913043478" cy="280.04299226139295" r="4" fill="#3b82f6" stroke="#0d1117" stroke-width="2" class="data-point"/>
  
    <circle cx="428.2608695652174" cy="278.19230975924336" r="4" fill="#3b82f6" stroke="#0d1117" stroke-width="2" class="data-point"/>
  
    <circle cx="431.304347826087" cy="275.293758061049" r="4" fill="#3b82f6" stroke="#0d1117" stroke-width="2" class="data-point"/>
  
    <circle cx="434.34782608695656" cy="273.35245593293206" r="4" fill="#3b82f6" stroke="#0d1117" stroke-width="2" class="data-point"/>
  
    <circle cx="437.39130434782606" cy="271.09845227858983" r="4" fill="#3b82f6" stroke="#0d1117" stroke-width="2" class="data-point"/>
  
    <circle cx="440.4347826086956" cy="268.77552665520204" r="4" fill="#3b82f6" stroke="#0d1117" stroke-width="2" class="data-point"/>
  
    <circle cx="443.4782608695652" cy="266.9529234737747" r="4" fill="#3b82f6" stroke="#0d1117" stroke-width="2" class="data-point"/>
  
    <circle cx="446.5217391304348" cy="264.91462005588994" r="4" fill="#3b82f6" stroke="#0d1117" stroke-width="2" class="data-point"/>
  
    <circle cx="449.5652173913044" cy="261.8093024505589" r="4" fill="#3b82f6" stroke="#0d1117" stroke-width="2" class="data-point"/>
  
    <circle cx="452.6086956521739" cy="257.6242073301806" r="4" fill="#3b82f6" stroke="#0d1117" stroke-width="2" class="data-point"/>
  
    <circle cx="455.65217391304344" cy="254.89285522355976" r="4" fill="#3b82f6" stroke="#0d1117" stroke-width="2" class="data-point"/>
  
    <circle cx="458.69565217391306" cy="251.64203568357695" r="4" fill="#3b82f6" stroke="#0d1117" stroke-width="2" class="data-point"/>
  
    <circle cx="461.7391304347826" cy="248.01980331040414" r="4" fill="#3b82f6" stroke="#0d1117" stroke-width="2" class="data-point"/>
  
    <circle cx="464.7826086956522" cy="245.1148699484093" r="4" fill="#3b82f6" stroke="#0d1117" stroke-width="2" class="data-point"/>
  
    <circle cx="467.8260869565217" cy="241.96232803095444" r="4" fill="#3b82f6" stroke="#0d1117" stroke-width="2" class="data-point"/>
  
    <circle cx="470.86956521739137" cy="239.16588295356837" r="4" fill="#3b82f6" stroke="#0d1117" stroke-width="2" class="data-point"/>
  
    <circle cx="473.9130434782609" cy="236.39496453138435" r="4" fill="#3b82f6" stroke="#0d1117" stroke-width="2" class="data-point"/>
  
    <circle cx="476.95652173913044" cy="233.63170410576097" r="4" fill="#3b82f6" stroke="#0d1117" stroke-width="2" class="data-point"/>
  
    <circle cx="480" cy="229.8690751289768" r="4" fill="#3b82f6" stroke="#0d1117" stroke-width="2" class="data-point"/>
  
    <circle cx="483.0434782608695" cy="226.0949591573517" r="4" fill="#3b82f6" stroke="#0d1117" stroke-width="2" class="data-point"/>
  
    <circle cx="486.0869565217392" cy="222.94879890369734" r="4" fill="#3b82f6" stroke="#0d1117" stroke-width="2" class="data-point"/>
  
    <circle cx="489.1304347826087" cy="220.31189542132415" r="4" fill="#3b82f6" stroke="#0d1117" stroke-width="2" class="data-point"/>
  
    <circle cx="492.17391304347825" cy="217.75412457007738" r="4" fill="#3b82f6" stroke="#0d1117" stroke-width="2" class="data-point"/>
  
    <circle cx="495.2173913043478" cy="214.3590794282029" r="4" fill="#3b82f6" stroke="#0d1117" stroke-width="2" class="data-point"/>
  
    <circle cx="498.26086956521743" cy="211.72600494411006" r="4" fill="#3b82f6" stroke="#0d1117" stroke-width="2" class="data-point"/>
  
    <circle cx="501.304347826087" cy="209.12100978073946" r="4" fill="#3b82f6" stroke="#0d1117" stroke-width="2" class="data-point"/>
  
    <circle cx="504.3478260869565" cy="206.6844905417025" r="4" fill="#3b82f6" stroke="#0d1117" stroke-width="2" class="data-point"/>
  
    <circle cx="507.39130434782606" cy="204.38964423903695" r="4" fill="#3b82f6" stroke="#0d1117" stroke-width="2" class="data-point"/>
  
    <circle cx="510.4347826086956" cy="202.03863929492692" r="4" fill="#3b82f6" stroke="#0d1117" stroke-width="2" class="data-point"/>
  
    <circle cx="513.4782608695652" cy="200.0284151977644" r="4" fill="#3b82f6" stroke="#0d1117" stroke-width="2" class="data-point"/>
  
    <circle cx="516.5217391304348" cy="197.94671646603612" r="4" fill="#3b82f6" stroke="#0d1117" stroke-width="2" class="data-point"/>
  
    <circle cx="519.5652173913043" cy="195.8216224204643" r="4" fill="#3b82f6" stroke="#0d1117" stroke-width="2" class="data-point"/>
  
    <circle cx="522.6086956521739" cy="193.5752767626827" r="4" fill="#3b82f6" stroke="#0d1117" stroke-width="2" class="data-point"/>
  
    <circle cx="525.6521739130435" cy="191.51399935511608" r="4" fill="#3b82f6" stroke="#0d1117" stroke-width="2" class="data-point"/>
  
    <circle cx="528.695652173913" cy="189.62630320292345" r="4" fill="#3b82f6" stroke="#0d1117" stroke-width="2" class="data-point"/>
  
    <circle cx="531.7391304347826" cy="186.20573140584696" r="4" fill="#3b82f6" stroke="#0d1117" stroke-width="2" class="data-point"/>
  
    <circle cx="534.7826086956521" cy="183.3429170249355" r="4" fill="#3b82f6" stroke="#0d1117" stroke-width="2" class="data-point"/>
  
    <circle cx="537.8260869565217" cy="180.59369625967327" r="4" fill="#3b82f6" stroke="#0d1117" stroke-width="2" class="data-point"/>
  
    <circle cx="540.8695652173913" cy="177.9529637790198" r="4" fill="#3b82f6" stroke="#0d1117" stroke-width="2" class="data-point"/>
  
    <circle cx="543.9130434782609" cy="173.7831846517627" r="4" fill="#3b82f6" stroke="#0d1117" stroke-width="2" class="data-point"/>
  
    <circle cx="546.9565217391305" cy="171.1450048366294" r="4" fill="#3b82f6" stroke="#0d1117" stroke-width="2" class="data-point"/>
  
    <circle cx="550" cy="168.86164552880481" r="4" fill="#3b82f6" stroke="#0d1117" stroke-width="2" class="data-point"/>
  
    <circle cx="553.0434782608696" cy="166.16475440670678" r="4" fill="#3b82f6" stroke="#0d1117" stroke-width="2" class="data-point"/>
  
    <circle cx="556.0869565217391" cy="162.18897785898537" r="4" fill="#3b82f6" stroke="#0d1117" stroke-width="2" class="data-point"/>
  
    <circle cx="559.1304347826087" cy="159.32871614359416" r="4" fill="#3b82f6" stroke="#0d1117" stroke-width="2" class="data-point"/>
  
    <circle cx="562.1739130434783" cy="156.9138945614789" r="4" fill="#3b82f6" stroke="#0d1117" stroke-width="2" class="data-point"/>
  
    <circle cx="565.2173913043479" cy="154.87048581255374" r="4" fill="#3b82f6" stroke="#0d1117" stroke-width="2" class="data-point"/>
  
    <circle cx="568.2608695652175" cy="152.93173634995702" r="4" fill="#3b82f6" stroke="#0d1117" stroke-width="2" class="data-point"/>
  
    <circle cx="571.304347826087" cy="151.35546539122956" r="4" fill="#3b82f6" stroke="#0d1117" stroke-width="2" class="data-point"/>
  
    <circle cx="574.3478260869565" cy="149.58008652192603" r="4" fill="#3b82f6" stroke="#0d1117" stroke-width="2" class="data-point"/>
  
    <circle cx="577.391304347826" cy="148.13272517196904" r="4" fill="#3b82f6" stroke="#0d1117" stroke-width="2" class="data-point"/>
  
    <circle cx="580.4347826086956" cy="146.424991938951" r="4" fill="#3b82f6" stroke="#0d1117" stroke-width="2" class="data-point"/>
  
    <circle cx="583.4782608695652" cy="143.96677504299225" r="4" fill="#3b82f6" stroke="#0d1117" stroke-width="2" class="data-point"/>
  
    <circle cx="586.5217391304348" cy="141.85444432502152" r="4" fill="#3b82f6" stroke="#0d1117" stroke-width="2" class="data-point"/>
  
    <circle cx="589.5652173913044" cy="140.01780148323303" r="4" fill="#3b82f6" stroke="#0d1117" stroke-width="2" class="data-point"/>
  
    <circle cx="592.608695652174" cy="138.43004352966466" r="4" fill="#3b82f6" stroke="#0d1117" stroke-width="2" class="data-point"/>
  
    <circle cx="595.6521739130435" cy="136.7925085984523" r="4" fill="#3b82f6" stroke="#0d1117" stroke-width="2" class="data-point"/>
  
    <circle cx="598.695652173913" cy="135.41151655202063" r="4" fill="#3b82f6" stroke="#0d1117" stroke-width="2" class="data-point"/>
  
    <circle cx="601.7391304347826" cy="133.08986726139295" r="4" fill="#3b82f6" stroke="#0d1117" stroke-width="2" class="data-point"/>
  
    <circle cx="604.7826086956521" cy="131.10516981943252" r="4" fill="#3b82f6" stroke="#0d1117" stroke-width="2" class="data-point"/>
  
    <circle cx="607.8260869565217" cy="129.1370647033534" r="4" fill="#3b82f6" stroke="#0d1117" stroke-width="2" class="data-point"/>
  
    <circle cx="610.8695652173913" cy="127.51229309974207" r="4" fill="#3b82f6" stroke="#0d1117" stroke-width="2" class="data-point"/>
  
    <circle cx="613.9130434782609" cy="126.02153643594153" r="4" fill="#3b82f6" stroke="#0d1117" stroke-width="2" class="data-point"/>
  
    <circle cx="616.9565217391304" cy="124.69797936371452" r="4" fill="#3b82f6" stroke="#0d1117" stroke-width="2" class="data-point"/>
  
    <circle cx="620" cy="122.42865971625108" r="4" fill="#3b82f6" stroke="#0d1117" stroke-width="2" class="data-point"/>
  
    <circle cx="623.0434782608696" cy="120.58563521066208" r="4" fill="#3b82f6" stroke="#0d1117" stroke-width="2" class="data-point"/>
  
    <circle cx="626.0869565217391" cy="118.9059812983663" r="4" fill="#3b82f6" stroke="#0d1117" stroke-width="2" class="data-point"/>
  
    <circle cx="629.1304347826086" cy="117.3016310189166" r="4" fill="#3b82f6" stroke="#0d1117" stroke-width="2" class="data-point"/>
  
    <circle cx="632.1739130434783" cy="115.9014939810834" r="4" fill="#3b82f6" stroke="#0d1117" stroke-width="2" class="data-point"/>
  
    <circle cx="635.2173913043479" cy="114.54219959157354" r="4" fill="#3b82f6" stroke="#0d1117" stroke-width="2" class="data-point"/>
  
    <circle cx="638.2608695652174" cy="113.2964988177128" r="4" fill="#3b82f6" stroke="#0d1117" stroke-width="2" class="data-point"/>
  
    <circle cx="641.304347826087" cy="112.10185135425624" r="4" fill="#3b82f6" stroke="#0d1117" stroke-width="2" class="data-point"/>
  
    <circle cx="644.3478260869565" cy="111.00675784608768" r="4" fill="#3b82f6" stroke="#0d1117" stroke-width="2" class="data-point"/>
  
    <circle cx="647.3913043478261" cy="109.63980546001719" r="4" fill="#3b82f6" stroke="#0d1117" stroke-width="2" class="data-point"/>
  
    <circle cx="650.4347826086956" cy="108.17202278589855" r="4" fill="#3b82f6" stroke="#0d1117" stroke-width="2" class="data-point"/>
  
    <circle cx="653.4782608695652" cy="106.82166272570939" r="4" fill="#3b82f6" stroke="#0d1117" stroke-width="2" class="data-point"/>
  
    <circle cx="656.5217391304348" cy="104.72337166809973" r="4" fill="#3b82f6" stroke="#0d1117" stroke-width="2" class="data-point"/>
  
    <circle cx="659.5652173913044" cy="103.20070668529667" r="4" fill="#3b82f6" stroke="#0d1117" stroke-width="2" class="data-point"/>
  
    <circle cx="662.6086956521739" cy="101.74441100601891" r="4" fill="#3b82f6" stroke="#0d1117" stroke-width="2" class="data-point"/>
  
    <circle cx="665.6521739130435" cy="100.46680191315562" r="4" fill="#3b82f6" stroke="#0d1117" stroke-width="2" class="data-point"/>
  
    <circle cx="668.695652173913" cy="98.96838725279449" r="4" fill="#3b82f6" stroke="#0d1117" stroke-width="2" class="data-point"/>
  
    <circle cx="671.7391304347826" cy="97.12791541272571" r="4" fill="#3b82f6" stroke="#0d1117" stroke-width="2" class="data-point"/>
  
    <circle cx="674.7826086956522" cy="95.49676214531385" r="4" fill="#3b82f6" stroke="#0d1117" stroke-width="2" class="data-point"/>
  
    <circle cx="677.8260869565217" cy="94.04046646603612" r="4" fill="#3b82f6" stroke="#0d1117" stroke-width="2" class="data-point"/>
  
    <circle cx="680.8695652173913" cy="92.45909017626826" r="4" fill="#3b82f6" stroke="#0d1117" stroke-width="2" class="data-point"/>
  
    <circle cx="683.9130434782609" cy="90.27783748925194" r="4" fill="#3b82f6" stroke="#0d1117" stroke-width="2" class="data-point"/>
  
    <circle cx="686.9565217391305" cy="88.4871426268272" r="4" fill="#3b82f6" stroke="#0d1117" stroke-width="2" class="data-point"/>
  
    <circle cx="690" cy="86.56626182287187" r="4" fill="#3b82f6" stroke="#0d1117" stroke-width="2" class="data-point"/>
  
    <circle cx="693.0434782608696" cy="84.6517626827171" r="4" fill="#3b82f6" stroke="#0d1117" stroke-width="2" class="data-point"/>
  
    <circle cx="696.0869565217391" cy="82.86872581685299" r="4" fill="#3b82f6" stroke="#0d1117" stroke-width="2" class="data-point"/>
  
    <circle cx="699.1304347826086" cy="81.11887360275153" r="4" fill="#3b82f6" stroke="#0d1117" stroke-width="2" class="data-point"/>
  
    <circle cx="702.1739130434783" cy="79.2669147678418" r="4" fill="#3b82f6" stroke="#0d1117" stroke-width="2" class="data-point"/>
  
    <circle cx="705.2173913043479" cy="77.60640584694755" r="4" fill="#3b82f6" stroke="#0d1117" stroke-width="2" class="data-point"/>
  
    <circle cx="708.2608695652174" cy="76.15138650042991" r="4" fill="#3b82f6" stroke="#0d1117" stroke-width="2" class="data-point"/>
  
    <circle cx="711.3043478260869" cy="74.80357910576095" r="4" fill="#3b82f6" stroke="#0d1117" stroke-width="2" class="data-point"/>
  
    <circle cx="714.3478260869565" cy="73.37791541272571" r="4" fill="#3b82f6" stroke="#0d1117" stroke-width="2" class="data-point"/>
  
    <circle cx="717.3913043478261" cy="71.98671270421323" r="4" fill="#3b82f6" stroke="#0d1117" stroke-width="2" class="data-point"/>
  
    <circle cx="720.4347826086956" cy="70.72952493551162" r="4" fill="#3b82f6" stroke="#0d1117" stroke-width="2" class="data-point"/>
  
    <circle cx="723.4782608695652" cy="69.46978450128978" r="4" fill="#3b82f6" stroke="#0d1117" stroke-width="2" class="data-point"/>
  
    <circle cx="726.5217391304349" cy="68.26365004299225" r="4" fill="#3b82f6" stroke="#0d1117" stroke-width="2" class="data-point"/>
  
    <circle cx="729.5652173913044" cy="67.06517358125535" r="4" fill="#3b82f6" stroke="#0d1117" stroke-width="2" class="data-point"/>
  
    <circle cx="732.6086956521739" cy="65.86924978503868" r="4" fill="#3b82f6" stroke="#0d1117" stroke-width="2" class="data-point"/>
  
    <circle cx="735.6521739130435" cy="64.81372259243335" r="4" fill="#3b82f6" stroke="#0d1117" stroke-width="2" class="data-point"/>
  
    <circle cx="738.695652173913" cy="63.58589047721409" r="4" fill="#3b82f6" stroke="#0d1117" stroke-width="2" class="data-point"/>
  
    <circle cx="741.7391304347826" cy="62.31976837919177" r="4" fill="#3b82f6" stroke="#0d1117" stroke-width="2" class="data-point"/>
  
    <circle cx="744.7826086956521" cy="60.87751236027515" r="4" fill="#3b82f6" stroke="#0d1117" stroke-width="2" class="data-point"/>
  
    <circle cx="747.8260869565217" cy="59.48758598452281" r="4" fill="#3b82f6" stroke="#0d1117" stroke-width="2" class="data-point"/>
  
    <circle cx="750.8695652173913" cy="58.24316154342216" r="4" fill="#3b82f6" stroke="#0d1117" stroke-width="2" class="data-point"/>
  
    <circle cx="753.9130434782609" cy="57.15062070077386" r="4" fill="#3b82f6" stroke="#0d1117" stroke-width="2" class="data-point"/>
  
    <circle cx="756.9565217391305" cy="56.02361887360274" r="4" fill="#3b82f6" stroke="#0d1117" stroke-width="2" class="data-point"/>
  
    <circle cx="760" cy="55" r="4" fill="#3b82f6" stroke="#0d1117" stroke-width="2" class="data-point"/>
  

  <!-- Axis lines -->
  <line x1="60" y1="55" x2="60" y2="340"
        stroke="#30363d" stroke-width="2"/>
  <line x1="60" y1="340" x2="760" y2="340"
        stroke="#30363d" stroke-width="2"/>
</svg>