<?xml version="1.0" encoding="UTF-8"?>
<svg width="800" height="400" xmlns="http://www.w3.org/2000/svg">
  <defs>
    <!-- Gradient for area fill -->
    <linearGradient id="areaGradient" x1="0%" y1="0%" x2="0%" y2="100%">
      <stop offset="0%" style="stop-color:#3b82f6;stop-opacity:0.3" />
      <stop offset="100%" style="stop-color:#3b82f6;stop-opacity:0.05" />
    </linearGradient>

    <!-- Glow filter for line -->
    <filter id="glow">
      <feGaussianBlur stdDeviation="2" result="coloredBlur"/>
      <feMerge>
        <feMergeNode in="coloredBlur"/>
        <feMergeNode in="SourceGraphic"/>
      </feMerge>
    </filter>

    <!-- Animation -->
    <style>
      @keyframes draw {
        from { stroke-dashoffset: 2000; }
        to { stroke-dashoffset: 0; }
      }
      @keyframes fadeIn {
        from { opacity: 0; }
        to { opacity: 1; }
      }
      .line-path {
        stroke-dasharray: 2000;
        stroke-dashoffset: 2000;
        animation: draw 1.5s ease-out forwards;
      }
      .area-path {
        opacity: 0;
        animation: fadeIn 1s ease-out 0.5s forwards;
      }
      .data-point {
        opacity: 0;
        animation: fadeIn 0.5s ease-out 1s forwards;
      }
    </style>
  </defs>

  <!-- Background -->
  <rect width="800" height="400" fill="#0d1117" rx="8"/>

  <!-- Title -->
  <text x="400" y="25" text-anchor="middle" fill="#c9d1d9" font-family="system-ui, -apple-system, sans-serif" font-size="16" font-weight="600">
    zxcloli666/SoundCloud-Desktop Downloads
  </text>

  <!-- Stats -->
  <text x="780" y="25" text-anchor="end" fill="#58a6ff" font-family="system-ui, -apple-system, sans-serif" font-size="14" font-weight="600">
    88.5K total
  </text>
  <text x="780" y="42" text-anchor="end" fill="#3fb950" font-family="system-ui, -apple-system, sans-serif" font-size="12">
    +296 (+0.3%)
  </text>

  <!-- Grid lines -->
  <g opacity="0.1">
    
      <line x1="60" y1="340" x2="760" y2="340"
            stroke="#c9d1d9" stroke-width="1"/>
    
      <line x1="60" y1="268.75" x2="760" y2="268.75"
            stroke="#c9d1d9" stroke-width="1"/>
    
      <line x1="60" y1="197.5" x2="760" y2="197.5"
            stroke="#c9d1d9" stroke-width="1"/>
    
      <line x1="60" y1="126.25" x2="760" y2="126.25"
            stroke="#c9d1d9" stroke-width="1"/>
    
      <line x1="60" y1="55" x2="760" y2="55"
            stroke="#c9d1d9" stroke-width="1"/>
    
  </g>

  <!-- Y-axis labels -->
  
    <text x="50" y="344" text-anchor="end"
          fill="#8b949e" font-family="system-ui, -apple-system, sans-serif" font-size="11">
      60.2K
    </text>
  
    <text x="50" y="272.75" text-anchor="end"
          fill="#8b949e" font-family="system-ui, -apple-system, sans-serif" font-size="11">
      67.2K
    </text>
  
    <text x="50" y="201.5" text-anchor="end"
          fill="#8b949e" font-family="system-ui, -apple-system, sans-serif" font-size="11">
      74.3K
    </text>
  
    <text x="50" y="130.25" text-anchor="end"
          fill="#8b949e" font-family="system-ui, -apple-system, sans-serif" font-size="11">
      81.4K
    </text>
  
    <text x="50" y="59" text-anchor="end"
          fill="#8b949e" font-family="system-ui, -apple-system, sans-serif" font-size="11">
      88.5K
    </text>
  

  <!-- X-axis labels -->
  
    <text x="60" y="360" text-anchor="middle"
          fill="#8b949e" font-family="system-ui, -apple-system, sans-serif" font-size="11">
      Nov 25
    </text>
  
    <text x="142.3529411764706" y="360" text-anchor="middle"
          fill="#8b949e" font-family="system-ui, -apple-system, sans-serif" font-size="11">
      Dec 5
    </text>
  
    <text x="224.7058823529412" y="360" text-anchor="middle"
          fill="#8b949e" font-family="system-ui, -apple-system, sans-serif" font-size="11">
      Dec 15
    </text>
  
    <text x="307.05882352941177" y="360" text-anchor="middle"
          fill="#8b949e" font-family="system-ui, -apple-system, sans-serif" font-size="11">
      Dec 25
    </text>
  
    <text x="389.4117647058824" y="360" text-anchor="middle"
          fill="#8b949e" font-family="system-ui, -apple-system, sans-serif" font-size="11">
      Jan 4
    </text>
  
    <text x="471.7647058823529" y="360" text-anchor="middle"
          fill="#8b949e" font-family="system-ui, -apple-system, sans-serif" font-size="11">
      Jan 14
    </text>
  
    <text x="554.1176470588235" y="360" text-anchor="middle"
          fill="#8b949e" font-family="system-ui, -apple-system, sans-serif" font-size="11">
      Jan 24
    </text>
  
    <text x="636.4705882352941" y="360" text-anchor="middle"
          fill="#8b949e" font-family="system-ui, -apple-system, sans-serif" font-size="11">
      Feb 3
    </text>
  
    <text x="718.8235294117648" y="360" text-anchor="middle"
          fill="#8b949e" font-family="system-ui, -apple-system, sans-serif" font-size="11">
      Feb 13
    </text>
  
    <text x="760" y="360" text-anchor="middle"
          fill="#8b949e" font-family="system-ui, -apple-system, sans-serif" font-size="11">
      Feb 18
    </text>
  

  <!-- Area under line -->
  <path d="M 60 340
    L 60.00 340.00 L 68.24 338.52 L 76.47 336.01 L 84.71 333.68 L 92.94 329.05 L 101.18 324.26 L 109.41 320.50 L 117.65 316.98 L 125.88 313.86 L 134.12 310.19 L 142.35 306.10 L 150.59 301.72 L 158.82 297.74 L 167.06 293.51 L 175.29 290.42 L 183.53 287.23 L 191.76 282.89 L 200.00 279.98 L 208.24 275.96 L 216.47 271.32 L 224.71 267.83 L 232.94 264.95 L 241.18 263.09 L 249.41 261.55 L 257.65 258.68 L 265.88 256.64 L 274.12 252.17 L 282.35 250.41 L 290.59 248.14 L 298.82 245.21 L 307.06 243.20 L 315.29 241.16 L 323.53 239.02 L 331.76 237.53 L 340.00 236.24 L 348.24 234.29 L 356.47 231.90 L 364.71 229.71 L 372.94 226.94 L 381.18 223.92 L 389.41 221.14 L 397.65 217.80 L 405.88 214.51 L 414.12 211.23 L 422.35 207.63 L 430.59 204.19 L 438.82 200.26 L 447.06 196.76 L 455.29 193.79 L 463.53 191.42 L 471.76 188.11 L 480.00 184.32 L 488.24 180.85 L 496.47 176.80 L 504.71 171.81 L 512.94 168.09 L 521.18 165.00 L 529.41 162.07 L 537.65 158.54 L 545.88 154.44 L 554.12 149.90 L 562.35 145.13 L 570.59 140.55 L 578.82 136.52 L 587.06 132.52 L 595.29 128.99 L 603.53 125.40 L 611.76 121.38 L 620.00 116.37 L 628.24 112.65 L 636.47 109.31 L 644.71 105.60 L 652.94 102.14 L 661.18 98.35 L 669.41 94.39 L 677.65 90.25 L 685.88 86.62 L 694.12 83.52 L 702.35 80.11 L 710.59 76.42 L 718.82 73.01 L 727.06 68.55 L 735.29 64.73 L 743.53 61.04 L 751.76 57.97 L 760.00 55.00
    L 760 340
    Z" fill="url(#areaGradient)" class="area-path"/>

  <!-- Main line with glow -->
  <path d="M 60.00 340.00 L 68.24 338.52 L 76.47 336.01 L 84.71 333.68 L 92.94 329.05 L 101.18 324.26 L 109.41 320.50 L 117.65 316.98 L 125.88 313.86 L 134.12 310.19 L 142.35 306.10 L 150.59 301.72 L 158.82 297.74 L 167.06 293.51 L 175.29 290.42 L 183.53 287.23 L 191.76 282.89 L 200.00 279.98 L 208.24 275.96 L 216.47 271.32 L 224.71 267.83 L 232.94 264.95 L 241.18 263.09 L 249.41 261.55 L 257.65 258.68 L 265.88 256.64 L 274.12 252.17 L 282.35 250.41 L 290.59 248.14 L 298.82 245.21 L 307.06 243.20 L 315.29 241.16 L 323.53 239.02 L 331.76 237.53 L 340.00 236.24 L 348.24 234.29 L 356.47 231.90 L 364.71 229.71 L 372.94 226.94 L 381.18 223.92 L 389.41 221.14 L 397.65 217.80 L 405.88 214.51 L 414.12 211.23 L 422.35 207.63 L 430.59 204.19 L 438.82 200.26 L 447.06 196.76 L 455.29 193.79 L 463.53 191.42 L 471.76 188.11 L 480.00 184.32 L 488.24 180.85 L 496.47 176.80 L 504.71 171.81 L 512.94 168.09 L 521.18 165.00 L 529.41 162.07 L 537.65 158.54 L 545.88 154.44 L 554.12 149.90 L 562.35 145.13 L 570.59 140.55 L 578.82 136.52 L 587.06 132.52 L 595.29 128.99 L 603.53 125.40 L 611.76 121.38 L 620.00 116.37 L 628.24 112.65 L 636.47 109.31 L 644.71 105.60 L 652.94 102.14 L 661.18 98.35 L 669.41 94.39 L 677.65 90.25 L 685.88 86.62 L 694.12 83.52 L 702.35 80.11 L 710.59 76.42 L 718.82 73.01 L 727.06 68.55 L 735.29 64.73 L 743.53 61.04 L 751.76 57.97 L 760.00 55.00" fill="none" stroke="#3b82f6" stroke-width="3"
        stroke-linecap="round" stroke-linejoin="round" filter="url(#glow)" class="line-path"/>

  <!-- Data points -->
  
    <circle cx="60" cy="340" r="4" fill="#3b82f6" stroke="#0d1117" stroke-width="2" class="data-point"/>
  
    <circle cx="68.23529411764706" cy="338.5229516288253" r="4" fill="#3b82f6" stroke="#0d1117" stroke-width="2" class="data-point"/>
  
    <circle cx="76.47058823529412" cy="336.0109646030179" r="4" fill="#3b82f6" stroke="#0d1117" stroke-width="2" class="data-point"/>
  
    <circle cx="84.70588235294117" cy="333.6798406430687" r="4" fill="#3b82f6" stroke="#0d1117" stroke-width="2" class="data-point"/>
  
    <circle cx="92.94117647058823" cy="329.0477365674799" r="4" fill="#3b82f6" stroke="#0d1117" stroke-width="2" class="data-point"/>
  
    <circle cx="101.1764705882353" cy="324.2649132703427" r="4" fill="#3b82f6" stroke="#0d1117" stroke-width="2" class="data-point"/>
  
    <circle cx="109.41176470588235" cy="320.49693273163166" r="4" fill="#3b82f6" stroke="#0d1117" stroke-width="2" class="data-point"/>
  
    <circle cx="117.64705882352942" cy="316.9801508955013" r="4" fill="#3b82f6" stroke="#0d1117" stroke-width="2" class="data-point"/>
  
    <circle cx="125.88235294117646" cy="313.855239035397" r="4" fill="#3b82f6" stroke="#0d1117" stroke-width="2" class="data-point"/>
  
    <circle cx="134.11764705882354" cy="310.18773797771826" r="4" fill="#3b82f6" stroke="#0d1117" stroke-width="2" class="data-point"/>
  
    <circle cx="142.3529411764706" cy="306.09822309970383" r="4" fill="#3b82f6" stroke="#0d1117" stroke-width="2" class="data-point"/>
  
    <circle cx="150.58823529411765" cy="301.7173177266958" r="4" fill="#3b82f6" stroke="#0d1117" stroke-width="2" class="data-point"/>
  
    <circle cx="158.8235294117647" cy="297.73833027781694" r="4" fill="#3b82f6" stroke="#0d1117" stroke-width="2" class="data-point"/>
  
    <circle cx="167.05882352941177" cy="293.50814412635737" r="4" fill="#3b82f6" stroke="#0d1117" stroke-width="2" class="data-point"/>
  
    <circle cx="175.29411764705884" cy="290.4234240586659" r="4" fill="#3b82f6" stroke="#0d1117" stroke-width="2" class="data-point"/>
  
    <circle cx="183.52941176470588" cy="287.22817656183895" r="4" fill="#3b82f6" stroke="#0d1117" stroke-width="2" class="data-point"/>
  
    <circle cx="191.76470588235293" cy="282.88746298124386" r="4" fill="#3b82f6" stroke="#0d1117" stroke-width="2" class="data-point"/>
  
    <circle cx="200" cy="279.9836059794105" r="4" fill="#3b82f6" stroke="#0d1117" stroke-width="2" class="data-point"/>
  
    <circle cx="208.23529411764704" cy="275.96442673811873" r="4" fill="#3b82f6" stroke="#0d1117" stroke-width="2" class="data-point"/>
  
    <circle cx="216.47058823529412" cy="271.3222747144267" r="4" fill="#3b82f6" stroke="#0d1117" stroke-width="2" class="data-point"/>
  
    <circle cx="224.7058823529412" cy="267.8255887745029" r="4" fill="#3b82f6" stroke="#0d1117" stroke-width="2" class="data-point"/>
  
    <circle cx="232.94117647058823" cy="264.95187561697924" r="4" fill="#3b82f6" stroke="#0d1117" stroke-width="2" class="data-point"/>
  
    <circle cx="241.1764705882353" cy="263.0930052178818" r="4" fill="#3b82f6" stroke="#0d1117" stroke-width="2" class="data-point"/>
  
    <circle cx="249.41176470588235" cy="261.54562120998446" r="4" fill="#3b82f6" stroke="#0d1117" stroke-width="2" class="data-point"/>
  
    <circle cx="257.6470588235294" cy="258.6819560005641" r="4" fill="#3b82f6" stroke="#0d1117" stroke-width="2" class="data-point"/>
  
    <circle cx="265.88235294117646" cy="256.64222253560854" r="4" fill="#3b82f6" stroke="#0d1117" stroke-width="2" class="data-point"/>
  
    <circle cx="274.11764705882354" cy="252.1708856296714" r="4" fill="#3b82f6" stroke="#0d1117" stroke-width="2" class="data-point"/>
  
    <circle cx="282.3529411764706" cy="250.41249471160626" r="4" fill="#3b82f6" stroke="#0d1117" stroke-width="2" class="data-point"/>
  
    <circle cx="290.5882352941177" cy="248.14165844027642" r="4" fill="#3b82f6" stroke="#0d1117" stroke-width="2" class="data-point"/>
  
    <circle cx="298.82352941176475" cy="245.20765759413342" r="4" fill="#3b82f6" stroke="#0d1117" stroke-width="2" class="data-point"/>
  
    <circle cx="307.05882352941177" cy="243.19806797348753" r="4" fill="#3b82f6" stroke="#0d1117" stroke-width="2" class="data-point"/>
  
    <circle cx="315.2941176470588" cy="241.15833450853194" r="4" fill="#3b82f6" stroke="#0d1117" stroke-width="2" class="data-point"/>
  
    <circle cx="323.52941176470586" cy="239.01812156254408" r="4" fill="#3b82f6" stroke="#0d1117" stroke-width="2" class="data-point"/>
  
    <circle cx="331.7647058823529" cy="237.5310252432661" r="4" fill="#3b82f6" stroke="#0d1117" stroke-width="2" class="data-point"/>
  
    <circle cx="340" cy="236.24488788605274" r="4" fill="#3b82f6" stroke="#0d1117" stroke-width="2" class="data-point"/>
  
    <circle cx="348.2352941176471" cy="234.285538005923" r="4" fill="#3b82f6" stroke="#0d1117" stroke-width="2" class="data-point"/>
  
    <circle cx="356.4705882352941" cy="231.90417430545762" r="4" fill="#3b82f6" stroke="#0d1117" stroke-width="2" class="data-point"/>
  
    <circle cx="364.70588235294116" cy="229.7137216189536" r="4" fill="#3b82f6" stroke="#0d1117" stroke-width="2" class="data-point"/>
  
    <circle cx="372.94117647058823" cy="226.94048794246228" r="4" fill="#3b82f6" stroke="#0d1117" stroke-width="2" class="data-point"/>
  
    <circle cx="381.1764705882353" cy="223.91605556339022" r="4" fill="#3b82f6" stroke="#0d1117" stroke-width="2" class="data-point"/>
  
    <circle cx="389.4117647058824" cy="221.1428218868989" r="4" fill="#3b82f6" stroke="#0d1117" stroke-width="2" class="data-point"/>
  
    <circle cx="397.6470588235294" cy="217.79685516852348" r="4" fill="#3b82f6" stroke="#0d1117" stroke-width="2" class="data-point"/>
  
    <circle cx="405.88235294117646" cy="214.51117613876744" r="4" fill="#3b82f6" stroke="#0d1117" stroke-width="2" class="data-point"/>
  
    <circle cx="414.11764705882354" cy="211.22549710901143" r="4" fill="#3b82f6" stroke="#0d1117" stroke-width="2" class="data-point"/>
  
    <circle cx="422.3529411764706" cy="207.62833168805528" r="4" fill="#3b82f6" stroke="#0d1117" stroke-width="2" class="data-point"/>
  
    <circle cx="430.5882352941176" cy="204.19193343675082" r="4" fill="#3b82f6" stroke="#0d1117" stroke-width="2" class="data-point"/>
  
    <circle cx="438.8235294117647" cy="200.2631857283881" r="4" fill="#3b82f6" stroke="#0d1117" stroke-width="2" class="data-point"/>
  
    <circle cx="447.05882352941177" cy="196.75645184036102" r="4" fill="#3b82f6" stroke="#0d1117" stroke-width="2" class="data-point"/>
  
    <circle cx="455.29411764705884" cy="193.79230714990834" r="4" fill="#3b82f6" stroke="#0d1117" stroke-width="2" class="data-point"/>
  
    <circle cx="463.52941176470586" cy="191.42099139754617" r="4" fill="#3b82f6" stroke="#0d1117" stroke-width="2" class="data-point"/>
  
    <circle cx="471.7647058823529" cy="188.10516852348047" r="4" fill="#3b82f6" stroke="#0d1117" stroke-width="2" class="data-point"/>
  
    <circle cx="480" cy="184.31709208856296" r="4" fill="#3b82f6" stroke="#0d1117" stroke-width="2" class="data-point"/>
  
    <circle cx="488.2352941176471" cy="180.85054999294883" r="4" fill="#3b82f6" stroke="#0d1117" stroke-width="2" class="data-point"/>
  
    <circle cx="496.47058823529414" cy="176.80122690734734" r="4" fill="#3b82f6" stroke="#0d1117" stroke-width="2" class="data-point"/>
  
    <circle cx="504.70588235294116" cy="171.8073967000423" r="4" fill="#3b82f6" stroke="#0d1117" stroke-width="2" class="data-point"/>
  
    <circle cx="512.9411764705883" cy="168.0896559018474" r="4" fill="#3b82f6" stroke="#0d1117" stroke-width="2" class="data-point"/>
  
    <circle cx="521.1764705882354" cy="165.004935834156" r="4" fill="#3b82f6" stroke="#0d1117" stroke-width="2" class="data-point"/>
  
    <circle cx="529.4117647058823" cy="162.07093498801297" r="4" fill="#3b82f6" stroke="#0d1117" stroke-width="2" class="data-point"/>
  
    <circle cx="537.6470588235295" cy="158.54410520377945" r="4" fill="#3b82f6" stroke="#0d1117" stroke-width="2" class="data-point"/>
  
    <circle cx="545.8823529411765" cy="154.44454237766183" r="4" fill="#3b82f6" stroke="#0d1117" stroke-width="2" class="data-point"/>
  
    <circle cx="554.1176470588235" cy="149.90286983500212" r="4" fill="#3b82f6" stroke="#0d1117" stroke-width="2" class="data-point"/>
  
    <circle cx="562.3529411764706" cy="145.13009448596813" r="4" fill="#3b82f6" stroke="#0d1117" stroke-width="2" class="data-point"/>
  
    <circle cx="570.5882352941176" cy="140.5482301508955" r="4" fill="#3b82f6" stroke="#0d1117" stroke-width="2" class="data-point"/>
  
    <circle cx="578.8235294117648" cy="136.5190029615005" r="4" fill="#3b82f6" stroke="#0d1117" stroke-width="2" class="data-point"/>
  
    <circle cx="587.0588235294117" cy="132.51991961641517" r="4" fill="#3b82f6" stroke="#0d1117" stroke-width="2" class="data-point"/>
  
    <circle cx="595.2941176470588" cy="128.99308983218165" r="4" fill="#3b82f6" stroke="#0d1117" stroke-width="2" class="data-point"/>
  
    <circle cx="603.5294117647059" cy="125.39592441122548" r="4" fill="#3b82f6" stroke="#0d1117" stroke-width="2" class="data-point"/>
  
    <circle cx="611.7647058823529" cy="121.37674516993371" r="4" fill="#3b82f6" stroke="#0d1117" stroke-width="2" class="data-point"/>
  
    <circle cx="620" cy="116.37286701452547" r="4" fill="#3b82f6" stroke="#0d1117" stroke-width="2" class="data-point"/>
  
    <circle cx="628.2352941176471" cy="112.64507826822734" r="4" fill="#3b82f6" stroke="#0d1117" stroke-width="2" class="data-point"/>
  
    <circle cx="636.4705882352941" cy="109.30915949795516" r="4" fill="#3b82f6" stroke="#0d1117" stroke-width="2" class="data-point"/>
  
    <circle cx="644.7058823529412" cy="105.6014666478635" r="4" fill="#3b82f6" stroke="#0d1117" stroke-width="2" class="data-point"/>
  
    <circle cx="652.9411764705882" cy="102.14497250035257" r="4" fill="#3b82f6" stroke="#0d1117" stroke-width="2" class="data-point"/>
  
    <circle cx="661.1764705882352" cy="98.34684811733183" r="4" fill="#3b82f6" stroke="#0d1117" stroke-width="2" class="data-point"/>
  
    <circle cx="669.4117647058823" cy="94.38795656465942" r="4" fill="#3b82f6" stroke="#0d1117" stroke-width="2" class="data-point"/>
  
    <circle cx="677.6470588235294" cy="90.24820194612889" r="4" fill="#3b82f6" stroke="#0d1117" stroke-width="2" class="data-point"/>
  
    <circle cx="685.8823529411765" cy="86.62089268086305" r="4" fill="#3b82f6" stroke="#0d1117" stroke-width="2" class="data-point"/>
  
    <circle cx="694.1176470588235" cy="83.51607671696519" r="4" fill="#3b82f6" stroke="#0d1117" stroke-width="2" class="data-point"/>
  
    <circle cx="702.3529411764706" cy="80.10982230997041" r="4" fill="#3b82f6" stroke="#0d1117" stroke-width="2" class="data-point"/>
  
    <circle cx="710.5882352941177" cy="76.42222535608516" r="4" fill="#3b82f6" stroke="#0d1117" stroke-width="2" class="data-point"/>
  
    <circle cx="718.8235294117648" cy="73.0059230009872" r="4" fill="#3b82f6" stroke="#0d1117" stroke-width="2" class="data-point"/>
  
    <circle cx="727.0588235294117" cy="68.55468199125653" r="4" fill="#3b82f6" stroke="#0d1117" stroke-width="2" class="data-point"/>
  
    <circle cx="735.2941176470588" cy="64.72641376392613" r="4" fill="#3b82f6" stroke="#0d1117" stroke-width="2" class="data-point"/>
  
    <circle cx="743.5294117647059" cy="61.038816810040885" r="4" fill="#3b82f6" stroke="#0d1117" stroke-width="2" class="data-point"/>
  
    <circle cx="751.7647058823529" cy="57.974192638555905" r="4" fill="#3b82f6" stroke="#0d1117" stroke-width="2" class="data-point"/>
  
    <circle cx="760" cy="55" r="4" fill="#3b82f6" stroke="#0d1117" stroke-width="2" class="data-point"/>
  

  <!-- Axis lines -->
  <line x1="60" y1="55" x2="60" y2="340"
        stroke="#30363d" stroke-width="2"/>
  <line x1="60" y1="340" x2="760" y2="340"
        stroke="#30363d" stroke-width="2"/>
</svg>