<?xml version="1.0" encoding="UTF-8"?>
<svg width="800" height="400" xmlns="http://www.w3.org/2000/svg">
  <defs>
    <!-- Gradient for area fill -->
    <linearGradient id="areaGradient" x1="0%" y1="0%" x2="0%" y2="100%">
      <stop offset="0%" style="stop-color:#3b82f6;stop-opacity:0.3" />
      <stop offset="100%" style="stop-color:#3b82f6;stop-opacity:0.05" />
    </linearGradient>

    <!-- Glow filter for line -->
    <filter id="glow">
      <feGaussianBlur stdDeviation="2" result="coloredBlur"/>
      <feMerge>
        <feMergeNode in="coloredBlur"/>
        <feMergeNode in="SourceGraphic"/>
      </feMerge>
    </filter>

    <!-- Animation -->
    <style>
      @keyframes draw {
        from { stroke-dashoffset: 2000; }
        to { stroke-dashoffset: 0; }
      }
      @keyframes fadeIn {
        from { opacity: 0; }
        to { opacity: 1; }
      }
      .line-path {
        stroke-dasharray: 2000;
        stroke-dashoffset: 2000;
        animation: draw 1.5s ease-out forwards;
      }
      .area-path {
        opacity: 0;
        animation: fadeIn 1s ease-out 0.5s forwards;
      }
      .data-point {
        opacity: 0;
        animation: fadeIn 0.5s ease-out 1s forwards;
      }
    </style>
  </defs>

  <!-- Background -->
  <rect width="800" height="400" fill="#0d1117" rx="8"/>

  <!-- Title -->
  <text x="400" y="25" text-anchor="middle" fill="#c9d1d9" font-family="system-ui, -apple-system, sans-serif" font-size="16" font-weight="600">
    zxcloli666/SoundCloud-Desktop Downloads
  </text>

  <!-- Stats -->
  <text x="780" y="25" text-anchor="end" fill="#58a6ff" font-family="system-ui, -apple-system, sans-serif" font-size="14" font-weight="600">
    235.7K total
  </text>
  <text x="780" y="42" text-anchor="end" fill="#3fb950" font-family="system-ui, -apple-system, sans-serif" font-size="12">
    +1.1K (+0.5%)
  </text>

  <!-- Grid lines -->
  <g opacity="0.1">
    
      <line x1="60" y1="340" x2="760" y2="340"
            stroke="#c9d1d9" stroke-width="1"/>
    
      <line x1="60" y1="268.75" x2="760" y2="268.75"
            stroke="#c9d1d9" stroke-width="1"/>
    
      <line x1="60" y1="197.5" x2="760" y2="197.5"
            stroke="#c9d1d9" stroke-width="1"/>
    
      <line x1="60" y1="126.25" x2="760" y2="126.25"
            stroke="#c9d1d9" stroke-width="1"/>
    
      <line x1="60" y1="55" x2="760" y2="55"
            stroke="#c9d1d9" stroke-width="1"/>
    
  </g>

  <!-- Y-axis labels -->
  
    <text x="50" y="344" text-anchor="end"
          fill="#8b949e" font-family="system-ui, -apple-system, sans-serif" font-size="11">
      60.2K
    </text>
  
    <text x="50" y="272.75" text-anchor="end"
          fill="#8b949e" font-family="system-ui, -apple-system, sans-serif" font-size="11">
      104.0K
    </text>
  
    <text x="50" y="201.5" text-anchor="end"
          fill="#8b949e" font-family="system-ui, -apple-system, sans-serif" font-size="11">
      147.9K
    </text>
  
    <text x="50" y="130.25" text-anchor="end"
          fill="#8b949e" font-family="system-ui, -apple-system, sans-serif" font-size="11">
      191.8K
    </text>
  
    <text x="50" y="59" text-anchor="end"
          fill="#8b949e" font-family="system-ui, -apple-system, sans-serif" font-size="11">
      235.7K
    </text>
  

  <!-- X-axis labels -->
  
    <text x="60" y="360" text-anchor="middle"
          fill="#8b949e" font-family="system-ui, -apple-system, sans-serif" font-size="11">
      Nov 25
    </text>
  
    <text x="145.63829787234042" y="360" text-anchor="middle"
          fill="#8b949e" font-family="system-ui, -apple-system, sans-serif" font-size="11">
      Dec 18
    </text>
  
    <text x="231.27659574468083" y="360" text-anchor="middle"
          fill="#8b949e" font-family="system-ui, -apple-system, sans-serif" font-size="11">
      Jan 10
    </text>
  
    <text x="316.9148936170213" y="360" text-anchor="middle"
          fill="#8b949e" font-family="system-ui, -apple-system, sans-serif" font-size="11">
      Feb 2
    </text>
  
    <text x="402.55319148936167" y="360" text-anchor="middle"
          fill="#8b949e" font-family="system-ui, -apple-system, sans-serif" font-size="11">
      Feb 25
    </text>
  
    <text x="488.1914893617021" y="360" text-anchor="middle"
          fill="#8b949e" font-family="system-ui, -apple-system, sans-serif" font-size="11">
      Mar 20
    </text>
  
    <text x="573.8297872340426" y="360" text-anchor="middle"
          fill="#8b949e" font-family="system-ui, -apple-system, sans-serif" font-size="11">
      Apr 12
    </text>
  
    <text x="659.468085106383" y="360" text-anchor="middle"
          fill="#8b949e" font-family="system-ui, -apple-system, sans-serif" font-size="11">
      May 5
    </text>
  
    <text x="745.1063829787233" y="360" text-anchor="middle"
          fill="#8b949e" font-family="system-ui, -apple-system, sans-serif" font-size="11">
      May 28
    </text>
  
    <text x="760" y="360" text-anchor="middle"
          fill="#8b949e" font-family="system-ui, -apple-system, sans-serif" font-size="11">
      Jun 1
    </text>
  

  <!-- Area under line -->
  <path d="M 60 340
    L 60.00 340.00 L 63.72 339.76 L 67.45 339.36 L 71.17 338.98 L 74.89 338.23 L 78.62 337.46 L 82.34 336.85 L 86.06 336.28 L 89.79 335.78 L 93.51 335.18 L 97.23 334.52 L 100.96 333.82 L 104.68 333.17 L 108.40 332.49 L 112.13 331.99 L 115.85 331.47 L 119.57 330.77 L 123.30 330.30 L 127.02 329.66 L 130.74 328.91 L 134.47 328.34 L 138.19 327.88 L 141.91 327.58 L 145.64 327.33 L 149.36 326.86 L 153.09 326.53 L 156.81 325.81 L 160.53 325.53 L 164.26 325.16 L 167.98 324.69 L 171.70 324.36 L 175.43 324.03 L 179.15 323.69 L 182.87 323.45 L 186.60 323.24 L 190.32 322.92 L 194.04 322.54 L 197.77 322.18 L 201.49 321.74 L 205.21 321.25 L 208.94 320.80 L 212.66 320.26 L 216.38 319.73 L 220.11 319.20 L 223.83 318.62 L 227.55 318.06 L 231.28 317.43 L 235.00 316.86 L 238.72 316.38 L 242.45 316.00 L 246.17 315.46 L 249.89 314.85 L 253.62 314.29 L 257.34 313.64 L 261.06 312.83 L 264.79 312.23 L 268.51 311.73 L 272.23 311.26 L 275.96 310.69 L 279.68 310.02 L 283.40 309.29 L 287.13 308.52 L 290.85 307.78 L 294.57 307.13 L 298.30 306.48 L 302.02 305.91 L 305.74 305.33 L 309.47 304.68 L 313.19 303.87 L 316.91 303.27 L 320.64 302.73 L 324.36 302.13 L 328.09 301.58 L 331.81 300.96 L 335.53 300.32 L 339.26 299.65 L 342.98 299.07 L 346.70 298.57 L 350.43 298.02 L 354.15 297.42 L 357.87 296.87 L 361.60 296.15 L 365.32 295.53 L 369.04 294.94 L 372.77 294.44 L 376.49 293.96 L 380.21 293.48 L 383.94 292.90 L 387.66 292.31 L 391.38 291.59 L 395.11 291.01 L 398.83 290.53 L 402.55 290.04 L 406.28 289.58 L 410.00 289.00 L 413.72 288.41 L 417.45 287.10 L 421.17 284.49 L 424.89 281.38 L 428.62 278.55 L 432.34 277.12 L 436.06 274.96 L 439.79 273.52 L 443.51 272.26 L 447.23 271.03 L 450.96 269.87 L 454.68 268.06 L 458.40 266.63 L 462.13 264.79 L 465.85 264.42 L 469.57 264.37 L 473.30 264.31 L 477.02 264.25 L 480.74 264.18 L 484.47 264.12 L 488.19 264.10 L 491.91 264.01 L 495.64 263.92 L 499.36 263.87 L 503.09 263.84 L 506.81 263.75 L 510.53 261.40 L 514.26 257.71 L 517.98 255.24 L 521.70 252.37 L 525.43 249.42 L 529.15 247.10 L 532.87 244.51 L 536.60 240.56 L 540.32 235.24 L 544.04 231.76 L 547.77 227.63 L 551.49 223.02 L 555.21 219.33 L 558.94 215.32 L 562.66 211.76 L 566.38 208.24 L 570.11 204.72 L 573.83 199.94 L 577.55 195.14 L 581.28 191.14 L 585.00 187.79 L 588.72 184.53 L 592.45 180.21 L 596.17 176.87 L 599.89 173.55 L 603.62 170.45 L 607.34 167.54 L 611.06 164.55 L 614.79 161.99 L 618.51 159.34 L 622.23 156.64 L 625.96 153.78 L 629.68 151.16 L 633.40 148.76 L 637.13 144.41 L 640.85 140.77 L 644.57 137.27 L 648.30 133.91 L 652.02 128.61 L 655.74 125.26 L 659.47 122.35 L 663.19 118.92 L 666.91 113.87 L 670.64 110.23 L 674.36 107.16 L 678.09 104.56 L 681.81 102.09 L 685.53 100.09 L 689.26 97.83 L 692.98 95.99 L 696.70 93.82 L 700.43 90.69 L 704.15 88.01 L 707.87 85.67 L 711.60 83.65 L 715.32 81.57 L 719.04 79.81 L 722.77 76.86 L 726.49 74.34 L 730.21 71.83 L 733.94 69.77 L 737.66 67.87 L 741.38 66.19 L 745.11 63.30 L 748.83 60.96 L 752.55 58.82 L 756.28 56.78 L 760.00 55.00
    L 760 340
    Z" fill="url(#areaGradient)" class="area-path"/>

  <!-- Main line with glow -->
  <path d="M 60.00 340.00 L 63.72 339.76 L 67.45 339.36 L 71.17 338.98 L 74.89 338.23 L 78.62 337.46 L 82.34 336.85 L 86.06 336.28 L 89.79 335.78 L 93.51 335.18 L 97.23 334.52 L 100.96 333.82 L 104.68 333.17 L 108.40 332.49 L 112.13 331.99 L 115.85 331.47 L 119.57 330.77 L 123.30 330.30 L 127.02 329.66 L 130.74 328.91 L 134.47 328.34 L 138.19 327.88 L 141.91 327.58 L 145.64 327.33 L 149.36 326.86 L 153.09 326.53 L 156.81 325.81 L 160.53 325.53 L 164.26 325.16 L 167.98 324.69 L 171.70 324.36 L 175.43 324.03 L 179.15 323.69 L 182.87 323.45 L 186.60 323.24 L 190.32 322.92 L 194.04 322.54 L 197.77 322.18 L 201.49 321.74 L 205.21 321.25 L 208.94 320.80 L 212.66 320.26 L 216.38 319.73 L 220.11 319.20 L 223.83 318.62 L 227.55 318.06 L 231.28 317.43 L 235.00 316.86 L 238.72 316.38 L 242.45 316.00 L 246.17 315.46 L 249.89 314.85 L 253.62 314.29 L 257.34 313.64 L 261.06 312.83 L 264.79 312.23 L 268.51 311.73 L 272.23 311.26 L 275.96 310.69 L 279.68 310.02 L 283.40 309.29 L 287.13 308.52 L 290.85 307.78 L 294.57 307.13 L 298.30 306.48 L 302.02 305.91 L 305.74 305.33 L 309.47 304.68 L 313.19 303.87 L 316.91 303.27 L 320.64 302.73 L 324.36 302.13 L 328.09 301.58 L 331.81 300.96 L 335.53 300.32 L 339.26 299.65 L 342.98 299.07 L 346.70 298.57 L 350.43 298.02 L 354.15 297.42 L 357.87 296.87 L 361.60 296.15 L 365.32 295.53 L 369.04 294.94 L 372.77 294.44 L 376.49 293.96 L 380.21 293.48 L 383.94 292.90 L 387.66 292.31 L 391.38 291.59 L 395.11 291.01 L 398.83 290.53 L 402.55 290.04 L 406.28 289.58 L 410.00 289.00 L 413.72 288.41 L 417.45 287.10 L 421.17 284.49 L 424.89 281.38 L 428.62 278.55 L 432.34 277.12 L 436.06 274.96 L 439.79 273.52 L 443.51 272.26 L 447.23 271.03 L 450.96 269.87 L 454.68 268.06 L 458.40 266.63 L 462.13 264.79 L 465.85 264.42 L 469.57 264.37 L 473.30 264.31 L 477.02 264.25 L 480.74 264.18 L 484.47 264.12 L 488.19 264.10 L 491.91 264.01 L 495.64 263.92 L 499.36 263.87 L 503.09 263.84 L 506.81 263.75 L 510.53 261.40 L 514.26 257.71 L 517.98 255.24 L 521.70 252.37 L 525.43 249.42 L 529.15 247.10 L 532.87 244.51 L 536.60 240.56 L 540.32 235.24 L 544.04 231.76 L 547.77 227.63 L 551.49 223.02 L 555.21 219.33 L 558.94 215.32 L 562.66 211.76 L 566.38 208.24 L 570.11 204.72 L 573.83 199.94 L 577.55 195.14 L 581.28 191.14 L 585.00 187.79 L 588.72 184.53 L 592.45 180.21 L 596.17 176.87 L 599.89 173.55 L 603.62 170.45 L 607.34 167.54 L 611.06 164.55 L 614.79 161.99 L 618.51 159.34 L 622.23 156.64 L 625.96 153.78 L 629.68 151.16 L 633.40 148.76 L 637.13 144.41 L 640.85 140.77 L 644.57 137.27 L 648.30 133.91 L 652.02 128.61 L 655.74 125.26 L 659.47 122.35 L 663.19 118.92 L 666.91 113.87 L 670.64 110.23 L 674.36 107.16 L 678.09 104.56 L 681.81 102.09 L 685.53 100.09 L 689.26 97.83 L 692.98 95.99 L 696.70 93.82 L 700.43 90.69 L 704.15 88.01 L 707.87 85.67 L 711.60 83.65 L 715.32 81.57 L 719.04 79.81 L 722.77 76.86 L 726.49 74.34 L 730.21 71.83 L 733.94 69.77 L 737.66 67.87 L 741.38 66.19 L 745.11 63.30 L 748.83 60.96 L 752.55 58.82 L 756.28 56.78 L 760.00 55.00" fill="none" stroke="#3b82f6" stroke-width="3"
        stroke-linecap="round" stroke-linejoin="round" filter="url(#glow)" class="line-path"/>

  <!-- Data points -->
  
    <circle cx="60" cy="340" r="4" fill="#3b82f6" stroke="#0d1117" stroke-width="2" class="data-point"/>
  
    <circle cx="63.723404255319146" cy="339.76139081899987" r="4" fill="#3b82f6" stroke="#0d1117" stroke-width="2" class="data-point"/>
  
    <circle cx="67.44680851063829" cy="339.3555928921289" r="4" fill="#3b82f6" stroke="#0d1117" stroke-width="2" class="data-point"/>
  
    <circle cx="71.17021276595744" cy="338.9790124159927" r="4" fill="#3b82f6" stroke="#0d1117" stroke-width="2" class="data-point"/>
  
    <circle cx="74.8936170212766" cy="338.2307210388427" r="4" fill="#3b82f6" stroke="#0d1117" stroke-width="2" class="data-point"/>
  
    <circle cx="78.61702127659575" cy="337.4580817860804" r="4" fill="#3b82f6" stroke="#0d1117" stroke-width="2" class="data-point"/>
  
    <circle cx="82.34042553191489" cy="336.849384895774" r="4" fill="#3b82f6" stroke="#0d1117" stroke-width="2" class="data-point"/>
  
    <circle cx="86.06382978723404" cy="336.2812677981547" r="4" fill="#3b82f6" stroke="#0d1117" stroke-width="2" class="data-point"/>
  
    <circle cx="89.7872340425532" cy="335.7764551771272" r="4" fill="#3b82f6" stroke="#0d1117" stroke-width="2" class="data-point"/>
  
    <circle cx="93.51063829787233" cy="335.18399020389563" r="4" fill="#3b82f6" stroke="#0d1117" stroke-width="2" class="data-point"/>
  
    <circle cx="97.2340425531915" cy="334.5233511789498" r="4" fill="#3b82f6" stroke="#0d1117" stroke-width="2" class="data-point"/>
  
    <circle cx="100.95744680851064" cy="333.81563959448687" r="4" fill="#3b82f6" stroke="#0d1117" stroke-width="2" class="data-point"/>
  
    <circle cx="104.68085106382978" cy="333.1728556783233" r="4" fill="#3b82f6" stroke="#0d1117" stroke-width="2" class="data-point"/>
  
    <circle cx="108.40425531914894" cy="332.4894919694726" r="4" fill="#3b82f6" stroke="#0d1117" stroke-width="2" class="data-point"/>
  
    <circle cx="112.12765957446808" cy="331.9911721152751" r="4" fill="#3b82f6" stroke="#0d1117" stroke-width="2" class="data-point"/>
  
    <circle cx="115.85106382978724" cy="331.47499715229526" r="4" fill="#3b82f6" stroke="#0d1117" stroke-width="2" class="data-point"/>
  
    <circle cx="119.57446808510639" cy="330.77377833466227" r="4" fill="#3b82f6" stroke="#0d1117" stroke-width="2" class="data-point"/>
  
    <circle cx="123.29787234042553" cy="330.3046759311994" r="4" fill="#3b82f6" stroke="#0d1117" stroke-width="2" class="data-point"/>
  
    <circle cx="127.02127659574468" cy="329.6553992482059" r="4" fill="#3b82f6" stroke="#0d1117" stroke-width="2" class="data-point"/>
  
    <circle cx="130.74468085106383" cy="328.90548467934843" r="4" fill="#3b82f6" stroke="#0d1117" stroke-width="2" class="data-point"/>
  
    <circle cx="134.468085106383" cy="328.3406139651441" r="4" fill="#3b82f6" stroke="#0d1117" stroke-width="2" class="data-point"/>
  
    <circle cx="138.1914893617021" cy="327.87638113680373" r="4" fill="#3b82f6" stroke="#0d1117" stroke-width="2" class="data-point"/>
  
    <circle cx="141.91489361702128" cy="327.57609067091926" r="4" fill="#3b82f6" stroke="#0d1117" stroke-width="2" class="data-point"/>
  
    <circle cx="145.63829787234042" cy="327.3261191479667" r="4" fill="#3b82f6" stroke="#0d1117" stroke-width="2" class="data-point"/>
  
    <circle cx="149.36170212765956" cy="326.86350951133386" r="4" fill="#3b82f6" stroke="#0d1117" stroke-width="2" class="data-point"/>
  
    <circle cx="153.08510638297872" cy="326.53400159471465" r="4" fill="#3b82f6" stroke="#0d1117" stroke-width="2" class="data-point"/>
  
    <circle cx="156.8085106382979" cy="325.8116812848844" r="4" fill="#3b82f6" stroke="#0d1117" stroke-width="2" class="data-point"/>
  
    <circle cx="160.53191489361703" cy="325.5276227360747" r="4" fill="#3b82f6" stroke="#0d1117" stroke-width="2" class="data-point"/>
  
    <circle cx="164.25531914893617" cy="325.1607814101834" r="4" fill="#3b82f6" stroke="#0d1117" stroke-width="2" class="data-point"/>
  
    <circle cx="167.97872340425533" cy="324.68680943159814" r="4" fill="#3b82f6" stroke="#0d1117" stroke-width="2" class="data-point"/>
  
    <circle cx="171.70212765957447" cy="324.36217109010136" r="4" fill="#3b82f6" stroke="#0d1117" stroke-width="2" class="data-point"/>
  
    <circle cx="175.4255319148936" cy="324.03266317348215" r="4" fill="#3b82f6" stroke="#0d1117" stroke-width="2" class="data-point"/>
  
    <circle cx="179.14893617021278" cy="323.6869233397881" r="4" fill="#3b82f6" stroke="#0d1117" stroke-width="2" class="data-point"/>
  
    <circle cx="182.87234042553192" cy="323.44669096708054" r="4" fill="#3b82f6" stroke="#0d1117" stroke-width="2" class="data-point"/>
  
    <circle cx="186.59574468085106" cy="323.2389224285226" r="4" fill="#3b82f6" stroke="#0d1117" stroke-width="2" class="data-point"/>
  
    <circle cx="190.3191489361702" cy="322.9224000455633" r="4" fill="#3b82f6" stroke="#0d1117" stroke-width="2" class="data-point"/>
  
    <circle cx="194.04255319148936" cy="322.5377036108896" r="4" fill="#3b82f6" stroke="#0d1117" stroke-width="2" class="data-point"/>
  
    <circle cx="197.76595744680853" cy="322.18384781865814" r="4" fill="#3b82f6" stroke="#0d1117" stroke-width="2" class="data-point"/>
  
    <circle cx="201.48936170212764" cy="321.7358469073926" r="4" fill="#3b82f6" stroke="#0d1117" stroke-width="2" class="data-point"/>
  
    <circle cx="205.2127659574468" cy="321.24726620344" r="4" fill="#3b82f6" stroke="#0d1117" stroke-width="2" class="data-point"/>
  
    <circle cx="208.93617021276597" cy="320.7992652921745" r="4" fill="#3b82f6" stroke="#0d1117" stroke-width="2" class="data-point"/>
  
    <circle cx="212.6595744680851" cy="320.2587424535824" r="4" fill="#3b82f6" stroke="#0d1117" stroke-width="2" class="data-point"/>
  
    <circle cx="216.38297872340425" cy="319.7279587652352" r="4" fill="#3b82f6" stroke="#0d1117" stroke-width="2" class="data-point"/>
  
    <circle cx="220.1063829787234" cy="319.197175076888" r="4" fill="#3b82f6" stroke="#0d1117" stroke-width="2" class="data-point"/>
  
    <circle cx="223.82978723404256" cy="318.61607244560884" r="4" fill="#3b82f6" stroke="#0d1117" stroke-width="2" class="data-point"/>
  
    <circle cx="227.55319148936172" cy="318.0609408816494" r="4" fill="#3b82f6" stroke="#0d1117" stroke-width="2" class="data-point"/>
  
    <circle cx="231.27659574468083" cy="317.42627292402324" r="4" fill="#3b82f6" stroke="#0d1117" stroke-width="2" class="data-point"/>
  
    <circle cx="235" cy="316.8597790181114" r="4" fill="#3b82f6" stroke="#0d1117" stroke-width="2" class="data-point"/>
  
    <circle cx="238.72340425531914" cy="316.3809374644037" r="4" fill="#3b82f6" stroke="#0d1117" stroke-width="2" class="data-point"/>
  
    <circle cx="242.4468085106383" cy="315.9978642214375" r="4" fill="#3b82f6" stroke="#0d1117" stroke-width="2" class="data-point"/>
  
    <circle cx="246.17021276595744" cy="315.4622109579679" r="4" fill="#3b82f6" stroke="#0d1117" stroke-width="2" class="data-point"/>
  
    <circle cx="249.89361702127658" cy="314.8502676842465" r="4" fill="#3b82f6" stroke="#0d1117" stroke-width="2" class="data-point"/>
  
    <circle cx="253.61702127659575" cy="314.2902665451646" r="4" fill="#3b82f6" stroke="#0d1117" stroke-width="2" class="data-point"/>
  
    <circle cx="257.3404255319149" cy="313.63612028704864" r="4" fill="#3b82f6" stroke="#0d1117" stroke-width="2" class="data-point"/>
  
    <circle cx="261.06382978723406" cy="312.8293940084292" r="4" fill="#3b82f6" stroke="#0d1117" stroke-width="2" class="data-point"/>
  
    <circle cx="264.7872340425532" cy="312.22881307666023" r="4" fill="#3b82f6" stroke="#0d1117" stroke-width="2" class="data-point"/>
  
    <circle cx="268.51063829787233" cy="311.7304932224627" r="4" fill="#3b82f6" stroke="#0d1117" stroke-width="2" class="data-point"/>
  
    <circle cx="272.2340425531915" cy="311.25652124387744" r="4" fill="#3b82f6" stroke="#0d1117" stroke-width="2" class="data-point"/>
  
    <circle cx="275.95744680851067" cy="310.6867809545506" r="4" fill="#3b82f6" stroke="#0d1117" stroke-width="2" class="data-point"/>
  
    <circle cx="279.6808510638298" cy="310.02451873789727" r="4" fill="#3b82f6" stroke="#0d1117" stroke-width="2" class="data-point"/>
  
    <circle cx="283.40425531914894" cy="309.2908360861146" r="4" fill="#3b82f6" stroke="#0d1117" stroke-width="2" class="data-point"/>
  
    <circle cx="287.1276595744681" cy="308.5198200250598" r="4" fill="#3b82f6" stroke="#0d1117" stroke-width="2" class="data-point"/>
  
    <circle cx="290.8510638297872" cy="307.7796446064472" r="4" fill="#3b82f6" stroke="#0d1117" stroke-width="2" class="data-point"/>
  
    <circle cx="294.5744680851064" cy="307.1287447317462" r="4" fill="#3b82f6" stroke="#0d1117" stroke-width="2" class="data-point"/>
  
    <circle cx="298.29787234042556" cy="306.48271443216765" r="4" fill="#3b82f6" stroke="#0d1117" stroke-width="2" class="data-point"/>
  
    <circle cx="302.02127659574467" cy="305.9129741428409" r="4" fill="#3b82f6" stroke="#0d1117" stroke-width="2" class="data-point"/>
  
    <circle cx="305.74468085106383" cy="305.3318715115617" r="4" fill="#3b82f6" stroke="#0d1117" stroke-width="2" class="data-point"/>
  
    <circle cx="309.468085106383" cy="304.6825948285682" r="4" fill="#3b82f6" stroke="#0d1117" stroke-width="2" class="data-point"/>
  
    <circle cx="313.1914893617021" cy="303.87424535824124" r="4" fill="#3b82f6" stroke="#0d1117" stroke-width="2" class="data-point"/>
  
    <circle cx="316.9148936170213" cy="303.2720412347648" r="4" fill="#3b82f6" stroke="#0d1117" stroke-width="2" class="data-point"/>
  
    <circle cx="320.6382978723404" cy="302.73314158788014" r="4" fill="#3b82f6" stroke="#0d1117" stroke-width="2" class="data-point"/>
  
    <circle cx="324.3617021276596" cy="302.1341838478187" r="4" fill="#3b82f6" stroke="#0d1117" stroke-width="2" class="data-point"/>
  
    <circle cx="328.0851063829787" cy="301.57580590044427" r="4" fill="#3b82f6" stroke="#0d1117" stroke-width="2" class="data-point"/>
  
    <circle cx="331.80851063829783" cy="300.96223943501536" r="4" fill="#3b82f6" stroke="#0d1117" stroke-width="2" class="data-point"/>
  
    <circle cx="335.53191489361706" cy="300.3227019022668" r="4" fill="#3b82f6" stroke="#0d1117" stroke-width="2" class="data-point"/>
  
    <circle cx="339.25531914893617" cy="299.65394691878345" r="4" fill="#3b82f6" stroke="#0d1117" stroke-width="2" class="data-point"/>
  
    <circle cx="342.9787234042553" cy="299.06797471238184" r="4" fill="#3b82f6" stroke="#0d1117" stroke-width="2" class="data-point"/>
  
    <circle cx="346.7021276595745" cy="298.56640847476933" r="4" fill="#3b82f6" stroke="#0d1117" stroke-width="2" class="data-point"/>
  
    <circle cx="350.4255319148936" cy="298.0161464859323" r="4" fill="#3b82f6" stroke="#0d1117" stroke-width="2" class="data-point"/>
  
    <circle cx="354.1489361702128" cy="297.4204351292858" r="4" fill="#3b82f6" stroke="#0d1117" stroke-width="2" class="data-point"/>
  
    <circle cx="357.87234042553195" cy="296.8685499487413" r="4" fill="#3b82f6" stroke="#0d1117" stroke-width="2" class="data-point"/>
  
    <circle cx="361.59574468085106" cy="296.149476022326" r="4" fill="#3b82f6" stroke="#0d1117" stroke-width="2" class="data-point"/>
  
    <circle cx="365.3191489361702" cy="295.5310399817747" r="4" fill="#3b82f6" stroke="#0d1117" stroke-width="2" class="data-point"/>
  
    <circle cx="369.04255319148933" cy="294.93532862512814" r="4" fill="#3b82f6" stroke="#0d1117" stroke-width="2" class="data-point"/>
  
    <circle cx="372.7659574468085" cy="294.4402551543456" r="4" fill="#3b82f6" stroke="#0d1117" stroke-width="2" class="data-point"/>
  
    <circle cx="376.48936170212767" cy="293.9597904089304" r="4" fill="#3b82f6" stroke="#0d1117" stroke-width="2" class="data-point"/>
  
    <circle cx="380.2127659574468" cy="293.47770247180773" r="4" fill="#3b82f6" stroke="#0d1117" stroke-width="2" class="data-point"/>
  
    <circle cx="383.93617021276594" cy="292.901469415651" r="4" fill="#3b82f6" stroke="#0d1117" stroke-width="2" class="data-point"/>
  
    <circle cx="387.6595744680851" cy="292.3090044424194" r="4" fill="#3b82f6" stroke="#0d1117" stroke-width="2" class="data-point"/>
  
    <circle cx="391.3829787234042" cy="291.5899305160041" r="4" fill="#3b82f6" stroke="#0d1117" stroke-width="2" class="data-point"/>
  
    <circle cx="395.10638297872345" cy="291.00720469301746" r="4" fill="#3b82f6" stroke="#0d1117" stroke-width="2" class="data-point"/>
  
    <circle cx="398.82978723404256" cy="290.5316095227247" r="4" fill="#3b82f6" stroke="#0d1117" stroke-width="2" class="data-point"/>
  
    <circle cx="402.55319148936167" cy="290.0430288187721" r="4" fill="#3b82f6" stroke="#0d1117" stroke-width="2" class="data-point"/>
  
    <circle cx="406.2765957446809" cy="289.57554960701674" r="4" fill="#3b82f6" stroke="#0d1117" stroke-width="2" class="data-point"/>
  
    <circle cx="410" cy="288.99769335915255" r="4" fill="#3b82f6" stroke="#0d1117" stroke-width="2" class="data-point"/>
  
    <circle cx="413.72340425531917" cy="288.40522838592096" r="4" fill="#3b82f6" stroke="#0d1117" stroke-width="2" class="data-point"/>
  
    <circle cx="417.4468085106383" cy="287.09531267798155" r="4" fill="#3b82f6" stroke="#0d1117" stroke-width="2" class="data-point"/>
  
    <circle cx="421.17021276595744" cy="284.48846679576263" r="4" fill="#3b82f6" stroke="#0d1117" stroke-width="2" class="data-point"/>
  
    <circle cx="424.8936170212766" cy="281.3833010593462" r="4" fill="#3b82f6" stroke="#0d1117" stroke-width="2" class="data-point"/>
  
    <circle cx="428.6170212765957" cy="278.554077913202" r="4" fill="#3b82f6" stroke="#0d1117" stroke-width="2" class="data-point"/>
  
    <circle cx="432.3404255319149" cy="277.11917644378633" r="4" fill="#3b82f6" stroke="#0d1117" stroke-width="2" class="data-point"/>
  
    <circle cx="436.06382978723406" cy="274.95708508941794" r="4" fill="#3b82f6" stroke="#0d1117" stroke-width="2" class="data-point"/>
  
    <circle cx="439.78723404255317" cy="273.5205604282948" r="4" fill="#3b82f6" stroke="#0d1117" stroke-width="2" class="data-point"/>
  
    <circle cx="443.51063829787233" cy="272.2609636632874" r="4" fill="#3b82f6" stroke="#0d1117" stroke-width="2" class="data-point"/>
  
    <circle cx="447.2340425531915" cy="271.0289611573072" r="4" fill="#3b82f6" stroke="#0d1117" stroke-width="2" class="data-point"/>
  
    <circle cx="450.9574468085106" cy="269.86837908645634" r="4" fill="#3b82f6" stroke="#0d1117" stroke-width="2" class="data-point"/>
  
    <circle cx="454.6808510638298" cy="268.06338990773435" r="4" fill="#3b82f6" stroke="#0d1117" stroke-width="2" class="data-point"/>
  
    <circle cx="458.40425531914894" cy="266.6284884383187" r="4" fill="#3b82f6" stroke="#0d1117" stroke-width="2" class="data-point"/>
  
    <circle cx="462.1276595744681" cy="264.794281808862" r="4" fill="#3b82f6" stroke="#0d1117" stroke-width="2" class="data-point"/>
  
    <circle cx="465.8510638297872" cy="264.4193245244333" r="4" fill="#3b82f6" stroke="#0d1117" stroke-width="2" class="data-point"/>
  
    <circle cx="469.5744680851064" cy="264.3706287732088" r="4" fill="#3b82f6" stroke="#0d1117" stroke-width="2" class="data-point"/>
  
    <circle cx="473.29787234042556" cy="264.3073242966169" r="4" fill="#3b82f6" stroke="#0d1117" stroke-width="2" class="data-point"/>
  
    <circle cx="477.02127659574467" cy="264.2537589702699" r="4" fill="#3b82f6" stroke="#0d1117" stroke-width="2" class="data-point"/>
  
    <circle cx="480.74468085106383" cy="264.18396172684817" r="4" fill="#3b82f6" stroke="#0d1117" stroke-width="2" class="data-point"/>
  
    <circle cx="484.468085106383" cy="264.12228044196377" r="4" fill="#3b82f6" stroke="#0d1117" stroke-width="2" class="data-point"/>
  
    <circle cx="488.1914893617021" cy="264.0979325663515" r="4" fill="#3b82f6" stroke="#0d1117" stroke-width="2" class="data-point"/>
  
    <circle cx="491.9148936170213" cy="264.00865702243993" r="4" fill="#3b82f6" stroke="#0d1117" stroke-width="2" class="data-point"/>
  
    <circle cx="495.63829787234044" cy="263.9226278619433" r="4" fill="#3b82f6" stroke="#0d1117" stroke-width="2" class="data-point"/>
  
    <circle cx="499.36170212765956" cy="263.8658161521813" r="4" fill="#3b82f6" stroke="#0d1117" stroke-width="2" class="data-point"/>
  
    <circle cx="503.0851063829787" cy="263.84471465998405" r="4" fill="#3b82f6" stroke="#0d1117" stroke-width="2" class="data-point"/>
  
    <circle cx="506.8085106382979" cy="263.7489463492425" r="4" fill="#3b82f6" stroke="#0d1117" stroke-width="2" class="data-point"/>
  
    <circle cx="510.531914893617" cy="261.39531837339104" r="4" fill="#3b82f6" stroke="#0d1117" stroke-width="2" class="data-point"/>
  
    <circle cx="514.2553191489362" cy="257.7090500056954" r="4" fill="#3b82f6" stroke="#0d1117" stroke-width="2" class="data-point"/>
  
    <circle cx="517.9787234042553" cy="255.24017541861258" r="4" fill="#3b82f6" stroke="#0d1117" stroke-width="2" class="data-point"/>
  
    <circle cx="521.7021276595744" cy="252.37361886319627" r="4" fill="#3b82f6" stroke="#0d1117" stroke-width="2" class="data-point"/>
  
    <circle cx="525.4255319148936" cy="249.41940995557582" r="4" fill="#3b82f6" stroke="#0d1117" stroke-width="2" class="data-point"/>
  
    <circle cx="529.1489361702128" cy="247.10149219728896" r="4" fill="#3b82f6" stroke="#0d1117" stroke-width="2" class="data-point"/>
  
    <circle cx="532.8723404255319" cy="244.5092550404374" r="4" fill="#3b82f6" stroke="#0d1117" stroke-width="2" class="data-point"/>
  
    <circle cx="536.5957446808511" cy="240.56002961612938" r="4" fill="#3b82f6" stroke="#0d1117" stroke-width="2" class="data-point"/>
  
    <circle cx="540.3191489361702" cy="235.23758400729014" r="4" fill="#3b82f6" stroke="#0d1117" stroke-width="2" class="data-point"/>
  
    <circle cx="544.0425531914893" cy="231.76395375327485" r="4" fill="#3b82f6" stroke="#0d1117" stroke-width="2" class="data-point"/>
  
    <circle cx="547.7659574468084" cy="227.6296844743137" r="4" fill="#3b82f6" stroke="#0d1117" stroke-width="2" class="data-point"/>
  
    <circle cx="551.4893617021277" cy="223.02306640847476" r="4" fill="#3b82f6" stroke="#0d1117" stroke-width="2" class="data-point"/>
  
    <circle cx="555.2127659574469" cy="219.3286820822417" r="4" fill="#3b82f6" stroke="#0d1117" stroke-width="2" class="data-point"/>
  
    <circle cx="558.936170212766" cy="215.3193985647568" r="4" fill="#3b82f6" stroke="#0d1117" stroke-width="2" class="data-point"/>
  
    <circle cx="562.6595744680851" cy="211.76298553365987" r="4" fill="#3b82f6" stroke="#0d1117" stroke-width="2" class="data-point"/>
  
    <circle cx="566.3829787234042" cy="208.23903633671262" r="4" fill="#3b82f6" stroke="#0d1117" stroke-width="2" class="data-point"/>
  
    <circle cx="570.1063829787233" cy="204.72482629001024" r="4" fill="#3b82f6" stroke="#0d1117" stroke-width="2" class="data-point"/>
  
    <circle cx="573.8297872340426" cy="199.9396571363481" r="4" fill="#3b82f6" stroke="#0d1117" stroke-width="2" class="data-point"/>
  
    <circle cx="577.5531914893618" cy="195.13987925731863" r="4" fill="#3b82f6" stroke="#0d1117" stroke-width="2" class="data-point"/>
  
    <circle cx="581.2765957446808" cy="191.1387116983711" r="4" fill="#3b82f6" stroke="#0d1117" stroke-width="2" class="data-point"/>
  
    <circle cx="585" cy="187.78519763070963" r="4" fill="#3b82f6" stroke="#0d1117" stroke-width="2" class="data-point"/>
  
    <circle cx="588.7234042553192" cy="184.53232144891217" r="4" fill="#3b82f6" stroke="#0d1117" stroke-width="2" class="data-point"/>
  
    <circle cx="592.4468085106382" cy="180.21463150700535" r="4" fill="#3b82f6" stroke="#0d1117" stroke-width="2" class="data-point"/>
  
    <circle cx="596.1702127659574" cy="176.86598701446636" r="4" fill="#3b82f6" stroke="#0d1117" stroke-width="2" class="data-point"/>
  
    <circle cx="599.8936170212767" cy="173.55305273949196" r="4" fill="#3b82f6" stroke="#0d1117" stroke-width="2" class="data-point"/>
  
    <circle cx="603.6170212765957" cy="170.45437976990544" r="4" fill="#3b82f6" stroke="#0d1117" stroke-width="2" class="data-point"/>
  
    <circle cx="607.3404255319149" cy="167.53588107984964" r="4" fill="#3b82f6" stroke="#0d1117" stroke-width="2" class="data-point"/>
  
    <circle cx="611.0638297872341" cy="164.54596195466453" r="4" fill="#3b82f6" stroke="#0d1117" stroke-width="2" class="data-point"/>
  
    <circle cx="614.7872340425531" cy="161.9894350153776" r="4" fill="#3b82f6" stroke="#0d1117" stroke-width="2" class="data-point"/>
  
    <circle cx="618.5106382978723" cy="159.34200934047158" r="4" fill="#3b82f6" stroke="#0d1117" stroke-width="2" class="data-point"/>
  
    <circle cx="622.2340425531916" cy="156.6393951475111" r="4" fill="#3b82f6" stroke="#0d1117" stroke-width="2" class="data-point"/>
  
    <circle cx="625.9574468085106" cy="153.78257774233967" r="4" fill="#3b82f6" stroke="#0d1117" stroke-width="2" class="data-point"/>
  
    <circle cx="629.6808510638298" cy="151.1611231347534" r="4" fill="#3b82f6" stroke="#0d1117" stroke-width="2" class="data-point"/>
  
    <circle cx="633.404255319149" cy="148.7604225993849" r="4" fill="#3b82f6" stroke="#0d1117" stroke-width="2" class="data-point"/>
  
    <circle cx="637.1276595744681" cy="144.4102688233284" r="4" fill="#3b82f6" stroke="#0d1117" stroke-width="2" class="data-point"/>
  
    <circle cx="640.8510638297872" cy="140.76944982344233" r="4" fill="#3b82f6" stroke="#0d1117" stroke-width="2" class="data-point"/>
  
    <circle cx="644.5744680851064" cy="137.27309488552226" r="4" fill="#3b82f6" stroke="#0d1117" stroke-width="2" class="data-point"/>
  
    <circle cx="648.2978723404256" cy="133.91471124273838" r="4" fill="#3b82f6" stroke="#0d1117" stroke-width="2" class="data-point"/>
  
    <circle cx="652.0212765957447" cy="128.6117439343889" r="4" fill="#3b82f6" stroke="#0d1117" stroke-width="2" class="data-point"/>
  
    <circle cx="655.7446808510639" cy="125.25660667501992" r="4" fill="#3b82f6" stroke="#0d1117" stroke-width="2" class="data-point"/>
  
    <circle cx="659.468085106383" cy="122.35271671033146" r="4" fill="#3b82f6" stroke="#0d1117" stroke-width="2" class="data-point"/>
  
    <circle cx="663.1914893617021" cy="118.92291263241825" r="4" fill="#3b82f6" stroke="#0d1117" stroke-width="2" class="data-point"/>
  
    <circle cx="666.9148936170213" cy="113.86667046360634" r="4" fill="#3b82f6" stroke="#0d1117" stroke-width="2" class="data-point"/>
  
    <circle cx="670.6382978723404" cy="110.2290978471352" r="4" fill="#3b82f6" stroke="#0d1117" stroke-width="2" class="data-point"/>
  
    <circle cx="674.3617021276596" cy="107.15801913657592" r="4" fill="#3b82f6" stroke="#0d1117" stroke-width="2" class="data-point"/>
  
    <circle cx="678.0851063829787" cy="104.55928921289441" r="4" fill="#3b82f6" stroke="#0d1117" stroke-width="2" class="data-point"/>
  
    <circle cx="681.8085106382979" cy="102.09366100922657" r="4" fill="#3b82f6" stroke="#0d1117" stroke-width="2" class="data-point"/>
  
    <circle cx="685.531914893617" cy="100.08901925048411" r="4" fill="#3b82f6" stroke="#0d1117" stroke-width="2" class="data-point"/>
  
    <circle cx="689.2553191489361" cy="97.83115958537417" r="4" fill="#3b82f6" stroke="#0d1117" stroke-width="2" class="data-point"/>
  
    <circle cx="692.9787234042553" cy="95.9904601890876" r="4" fill="#3b82f6" stroke="#0d1117" stroke-width="2" class="data-point"/>
  
    <circle cx="696.7021276595744" cy="93.8186296844743" r="4" fill="#3b82f6" stroke="#0d1117" stroke-width="2" class="data-point"/>
  
    <circle cx="700.4255319148936" cy="90.69236245586058" r="4" fill="#3b82f6" stroke="#0d1117" stroke-width="2" class="data-point"/>
  
    <circle cx="704.1489361702128" cy="88.00598017997493" r="4" fill="#3b82f6" stroke="#0d1117" stroke-width="2" class="data-point"/>
  
    <circle cx="707.8723404255319" cy="85.6702073129058" r="4" fill="#3b82f6" stroke="#0d1117" stroke-width="2" class="data-point"/>
  
    <circle cx="711.595744680851" cy="83.65095682879598" r="4" fill="#3b82f6" stroke="#0d1117" stroke-width="2" class="data-point"/>
  
    <circle cx="715.3191489361702" cy="81.56840186809433" r="4" fill="#3b82f6" stroke="#0d1117" stroke-width="2" class="data-point"/>
  
    <circle cx="719.0425531914894" cy="79.81210844059689" r="4" fill="#3b82f6" stroke="#0d1117" stroke-width="2" class="data-point"/>
  
    <circle cx="722.7659574468084" cy="76.85952272468393" r="4" fill="#3b82f6" stroke="#0d1117" stroke-width="2" class="data-point"/>
  
    <circle cx="726.4893617021277" cy="74.33545961954667" r="4" fill="#3b82f6" stroke="#0d1117" stroke-width="2" class="data-point"/>
  
    <circle cx="730.2127659574469" cy="71.83249800660667" r="4" fill="#3b82f6" stroke="#0d1117" stroke-width="2" class="data-point"/>
  
    <circle cx="733.9361702127659" cy="69.76617496297985" r="4" fill="#3b82f6" stroke="#0d1117" stroke-width="2" class="data-point"/>
  
    <circle cx="737.6595744680851" cy="67.87028704863883" r="4" fill="#3b82f6" stroke="#0d1117" stroke-width="2" class="data-point"/>
  
    <circle cx="741.3829787234043" cy="66.18703724797814" r="4" fill="#3b82f6" stroke="#0d1117" stroke-width="2" class="data-point"/>
  
    <circle cx="745.1063829787233" cy="63.30100239207201" r="4" fill="#3b82f6" stroke="#0d1117" stroke-width="2" class="data-point"/>
  
    <circle cx="748.8297872340426" cy="60.957113566465466" r="4" fill="#3b82f6" stroke="#0d1117" stroke-width="2" class="data-point"/>
  
    <circle cx="752.5531914893618" cy="58.82099327941677" r="4" fill="#3b82f6" stroke="#0d1117" stroke-width="2" class="data-point"/>
  
    <circle cx="756.2765957446808" cy="56.78064130310969" r="4" fill="#3b82f6" stroke="#0d1117" stroke-width="2" class="data-point"/>
  
    <circle cx="760" cy="55" r="4" fill="#3b82f6" stroke="#0d1117" stroke-width="2" class="data-point"/>
  

  <!-- Axis lines -->
  <line x1="60" y1="55" x2="60" y2="340"
        stroke="#30363d" stroke-width="2"/>
  <line x1="60" y1="340" x2="760" y2="340"
        stroke="#30363d" stroke-width="2"/>
</svg>