<?xml version="1.0" encoding="UTF-8"?>
<svg width="800" height="400" xmlns="http://www.w3.org/2000/svg">
  <defs>
    <!-- Gradient for area fill -->
    <linearGradient id="areaGradient" x1="0%" y1="0%" x2="0%" y2="100%">
      <stop offset="0%" style="stop-color:#3b82f6;stop-opacity:0.3" />
      <stop offset="100%" style="stop-color:#3b82f6;stop-opacity:0.05" />
    </linearGradient>

    <!-- Glow filter for line -->
    <filter id="glow">
      <feGaussianBlur stdDeviation="2" result="coloredBlur"/>
      <feMerge>
        <feMergeNode in="coloredBlur"/>
        <feMergeNode in="SourceGraphic"/>
      </feMerge>
    </filter>

    <!-- Animation -->
    <style>
      @keyframes draw {
        from { stroke-dashoffset: 2000; }
        to { stroke-dashoffset: 0; }
      }
      @keyframes fadeIn {
        from { opacity: 0; }
        to { opacity: 1; }
      }
      .line-path {
        stroke-dasharray: 2000;
        stroke-dashoffset: 2000;
        animation: draw 1.5s ease-out forwards;
      }
      .area-path {
        opacity: 0;
        animation: fadeIn 1s ease-out 0.5s forwards;
      }
      .data-point {
        opacity: 0;
        animation: fadeIn 0.5s ease-out 1s forwards;
      }
    </style>
  </defs>

  <!-- Background -->
  <rect width="800" height="400" fill="#0d1117" rx="8"/>

  <!-- Title -->
  <text x="400" y="25" text-anchor="middle" fill="#c9d1d9" font-family="system-ui, -apple-system, sans-serif" font-size="16" font-weight="600">
    zxcloli666/SoundCloud-Desktop Downloads
  </text>

  <!-- Stats -->
  <text x="780" y="25" text-anchor="end" fill="#58a6ff" font-family="system-ui, -apple-system, sans-serif" font-size="14" font-weight="600">
    222.3K total
  </text>
  <text x="780" y="42" text-anchor="end" fill="#3fb950" font-family="system-ui, -apple-system, sans-serif" font-size="12">
    +1.8K (+0.8%)
  </text>

  <!-- Grid lines -->
  <g opacity="0.1">
    
      <line x1="60" y1="340" x2="760" y2="340"
            stroke="#c9d1d9" stroke-width="1"/>
    
      <line x1="60" y1="268.75" x2="760" y2="268.75"
            stroke="#c9d1d9" stroke-width="1"/>
    
      <line x1="60" y1="197.5" x2="760" y2="197.5"
            stroke="#c9d1d9" stroke-width="1"/>
    
      <line x1="60" y1="126.25" x2="760" y2="126.25"
            stroke="#c9d1d9" stroke-width="1"/>
    
      <line x1="60" y1="55" x2="760" y2="55"
            stroke="#c9d1d9" stroke-width="1"/>
    
  </g>

  <!-- Y-axis labels -->
  
    <text x="50" y="344" text-anchor="end"
          fill="#8b949e" font-family="system-ui, -apple-system, sans-serif" font-size="11">
      60.2K
    </text>
  
    <text x="50" y="272.75" text-anchor="end"
          fill="#8b949e" font-family="system-ui, -apple-system, sans-serif" font-size="11">
      100.7K
    </text>
  
    <text x="50" y="201.5" text-anchor="end"
          fill="#8b949e" font-family="system-ui, -apple-system, sans-serif" font-size="11">
      141.2K
    </text>
  
    <text x="50" y="130.25" text-anchor="end"
          fill="#8b949e" font-family="system-ui, -apple-system, sans-serif" font-size="11">
      181.7K
    </text>
  
    <text x="50" y="59" text-anchor="end"
          fill="#8b949e" font-family="system-ui, -apple-system, sans-serif" font-size="11">
      222.3K
    </text>
  

  <!-- X-axis labels -->
  
    <text x="60" y="360" text-anchor="middle"
          fill="#8b949e" font-family="system-ui, -apple-system, sans-serif" font-size="11">
      Nov 25
    </text>
  
    <text x="146.51685393258427" y="360" text-anchor="middle"
          fill="#8b949e" font-family="system-ui, -apple-system, sans-serif" font-size="11">
      Dec 17
    </text>
  
    <text x="233.03370786516854" y="360" text-anchor="middle"
          fill="#8b949e" font-family="system-ui, -apple-system, sans-serif" font-size="11">
      Jan 8
    </text>
  
    <text x="319.55056179775283" y="360" text-anchor="middle"
          fill="#8b949e" font-family="system-ui, -apple-system, sans-serif" font-size="11">
      Jan 30
    </text>
  
    <text x="406.0674157303371" y="360" text-anchor="middle"
          fill="#8b949e" font-family="system-ui, -apple-system, sans-serif" font-size="11">
      Feb 21
    </text>
  
    <text x="492.5842696629213" y="360" text-anchor="middle"
          fill="#8b949e" font-family="system-ui, -apple-system, sans-serif" font-size="11">
      Mar 15
    </text>
  
    <text x="579.1011235955057" y="360" text-anchor="middle"
          fill="#8b949e" font-family="system-ui, -apple-system, sans-serif" font-size="11">
      Apr 6
    </text>
  
    <text x="665.6179775280899" y="360" text-anchor="middle"
          fill="#8b949e" font-family="system-ui, -apple-system, sans-serif" font-size="11">
      Apr 28
    </text>
  
    <text x="752.1348314606741" y="360" text-anchor="middle"
          fill="#8b949e" font-family="system-ui, -apple-system, sans-serif" font-size="11">
      May 20
    </text>
  
    <text x="760" y="360" text-anchor="middle"
          fill="#8b949e" font-family="system-ui, -apple-system, sans-serif" font-size="11">
      May 22
    </text>
  

  <!-- Area under line -->
  <path d="M 60 340
    L 60.00 340.00 L 63.93 339.74 L 67.87 339.30 L 71.80 338.89 L 75.73 338.08 L 79.66 337.25 L 83.60 336.59 L 87.53 335.97 L 91.46 335.43 L 95.39 334.78 L 99.33 334.07 L 103.26 333.30 L 107.19 332.61 L 111.12 331.87 L 115.06 331.33 L 118.99 330.77 L 122.92 330.01 L 126.85 329.50 L 130.79 328.80 L 134.72 327.98 L 138.65 327.37 L 142.58 326.87 L 146.52 326.54 L 150.45 326.27 L 154.38 325.77 L 158.31 325.42 L 162.25 324.63 L 166.18 324.33 L 170.11 323.93 L 174.04 323.41 L 177.98 323.06 L 181.91 322.71 L 185.84 322.33 L 189.78 322.07 L 193.71 321.85 L 197.64 321.50 L 201.57 321.09 L 205.51 320.70 L 209.44 320.22 L 213.37 319.69 L 217.30 319.20 L 221.24 318.62 L 225.17 318.04 L 229.10 317.47 L 233.03 316.84 L 236.97 316.24 L 240.90 315.55 L 244.83 314.94 L 248.76 314.42 L 252.70 314.00 L 256.63 313.42 L 260.56 312.76 L 264.49 312.15 L 268.43 311.45 L 272.36 310.57 L 276.29 309.92 L 280.22 309.38 L 284.16 308.87 L 288.09 308.25 L 292.02 307.53 L 295.96 306.74 L 299.89 305.90 L 303.82 305.10 L 307.75 304.40 L 311.69 303.70 L 315.62 303.08 L 319.55 302.45 L 323.48 301.75 L 327.42 300.87 L 331.35 300.22 L 335.28 299.64 L 339.21 298.99 L 343.15 298.38 L 347.08 297.72 L 351.01 297.03 L 354.94 296.30 L 358.88 295.67 L 362.81 295.12 L 366.74 294.53 L 370.67 293.88 L 374.61 293.29 L 378.54 292.51 L 382.47 291.84 L 386.40 291.19 L 390.34 290.66 L 394.27 290.14 L 398.20 289.61 L 402.13 288.99 L 406.07 288.35 L 410.00 287.57 L 413.93 286.94 L 417.87 286.42 L 421.80 285.89 L 425.73 285.39 L 429.66 284.76 L 433.60 284.12 L 437.53 282.70 L 441.46 279.88 L 445.39 276.51 L 449.33 273.45 L 453.26 271.90 L 457.19 269.55 L 461.12 268.00 L 465.06 266.63 L 468.99 265.30 L 472.92 264.04 L 476.85 262.09 L 480.79 260.53 L 484.72 258.55 L 488.65 258.14 L 492.58 258.09 L 496.52 258.02 L 500.45 257.96 L 504.38 257.89 L 508.31 257.82 L 512.25 257.79 L 516.18 257.70 L 520.11 257.60 L 524.04 257.54 L 527.98 257.52 L 531.91 257.41 L 535.84 254.87 L 539.78 250.87 L 543.71 248.20 L 547.64 245.09 L 551.57 241.89 L 555.51 239.38 L 559.44 236.58 L 563.37 232.30 L 567.30 226.53 L 571.24 222.77 L 575.17 218.29 L 579.10 213.31 L 583.03 209.30 L 586.97 204.96 L 590.90 201.11 L 594.83 197.29 L 598.76 193.49 L 602.70 188.30 L 606.63 183.11 L 610.56 178.77 L 614.49 175.14 L 618.43 171.62 L 622.36 166.94 L 626.29 163.31 L 630.22 159.73 L 634.16 156.37 L 638.09 153.21 L 642.02 149.97 L 645.96 147.20 L 649.89 144.33 L 653.82 141.41 L 657.75 138.31 L 661.69 135.47 L 665.62 132.87 L 669.55 128.16 L 673.48 124.22 L 677.42 120.43 L 681.35 116.79 L 685.28 111.05 L 689.21 107.42 L 693.15 104.27 L 697.08 100.56 L 701.01 95.08 L 704.94 91.14 L 708.88 87.82 L 712.81 85.00 L 716.74 82.33 L 720.67 80.16 L 724.61 77.71 L 728.54 75.72 L 732.47 73.37 L 736.40 69.98 L 740.34 67.07 L 744.27 64.54 L 748.20 62.36 L 752.13 60.10 L 756.07 58.20 L 760.00 55.00
    L 760 340
    Z" fill="url(#areaGradient)" class="area-path"/>

  <!-- Main line with glow -->
  <path d="M 60.00 340.00 L 63.93 339.74 L 67.87 339.30 L 71.80 338.89 L 75.73 338.08 L 79.66 337.25 L 83.60 336.59 L 87.53 335.97 L 91.46 335.43 L 95.39 334.78 L 99.33 334.07 L 103.26 333.30 L 107.19 332.61 L 111.12 331.87 L 115.06 331.33 L 118.99 330.77 L 122.92 330.01 L 126.85 329.50 L 130.79 328.80 L 134.72 327.98 L 138.65 327.37 L 142.58 326.87 L 146.52 326.54 L 150.45 326.27 L 154.38 325.77 L 158.31 325.42 L 162.25 324.63 L 166.18 324.33 L 170.11 323.93 L 174.04 323.41 L 177.98 323.06 L 181.91 322.71 L 185.84 322.33 L 189.78 322.07 L 193.71 321.85 L 197.64 321.50 L 201.57 321.09 L 205.51 320.70 L 209.44 320.22 L 213.37 319.69 L 217.30 319.20 L 221.24 318.62 L 225.17 318.04 L 229.10 317.47 L 233.03 316.84 L 236.97 316.24 L 240.90 315.55 L 244.83 314.94 L 248.76 314.42 L 252.70 314.00 L 256.63 313.42 L 260.56 312.76 L 264.49 312.15 L 268.43 311.45 L 272.36 310.57 L 276.29 309.92 L 280.22 309.38 L 284.16 308.87 L 288.09 308.25 L 292.02 307.53 L 295.96 306.74 L 299.89 305.90 L 303.82 305.10 L 307.75 304.40 L 311.69 303.70 L 315.62 303.08 L 319.55 302.45 L 323.48 301.75 L 327.42 300.87 L 331.35 300.22 L 335.28 299.64 L 339.21 298.99 L 343.15 298.38 L 347.08 297.72 L 351.01 297.03 L 354.94 296.30 L 358.88 295.67 L 362.81 295.12 L 366.74 294.53 L 370.67 293.88 L 374.61 293.29 L 378.54 292.51 L 382.47 291.84 L 386.40 291.19 L 390.34 290.66 L 394.27 290.14 L 398.20 289.61 L 402.13 288.99 L 406.07 288.35 L 410.00 287.57 L 413.93 286.94 L 417.87 286.42 L 421.80 285.89 L 425.73 285.39 L 429.66 284.76 L 433.60 284.12 L 437.53 282.70 L 441.46 279.88 L 445.39 276.51 L 449.33 273.45 L 453.26 271.90 L 457.19 269.55 L 461.12 268.00 L 465.06 266.63 L 468.99 265.30 L 472.92 264.04 L 476.85 262.09 L 480.79 260.53 L 484.72 258.55 L 488.65 258.14 L 492.58 258.09 L 496.52 258.02 L 500.45 257.96 L 504.38 257.89 L 508.31 257.82 L 512.25 257.79 L 516.18 257.70 L 520.11 257.60 L 524.04 257.54 L 527.98 257.52 L 531.91 257.41 L 535.84 254.87 L 539.78 250.87 L 543.71 248.20 L 547.64 245.09 L 551.57 241.89 L 555.51 239.38 L 559.44 236.58 L 563.37 232.30 L 567.30 226.53 L 571.24 222.77 L 575.17 218.29 L 579.10 213.31 L 583.03 209.30 L 586.97 204.96 L 590.90 201.11 L 594.83 197.29 L 598.76 193.49 L 602.70 188.30 L 606.63 183.11 L 610.56 178.77 L 614.49 175.14 L 618.43 171.62 L 622.36 166.94 L 626.29 163.31 L 630.22 159.73 L 634.16 156.37 L 638.09 153.21 L 642.02 149.97 L 645.96 147.20 L 649.89 144.33 L 653.82 141.41 L 657.75 138.31 L 661.69 135.47 L 665.62 132.87 L 669.55 128.16 L 673.48 124.22 L 677.42 120.43 L 681.35 116.79 L 685.28 111.05 L 689.21 107.42 L 693.15 104.27 L 697.08 100.56 L 701.01 95.08 L 704.94 91.14 L 708.88 87.82 L 712.81 85.00 L 716.74 82.33 L 720.67 80.16 L 724.61 77.71 L 728.54 75.72 L 732.47 73.37 L 736.40 69.98 L 740.34 67.07 L 744.27 64.54 L 748.20 62.36 L 752.13 60.10 L 756.07 58.20 L 760.00 55.00" fill="none" stroke="#3b82f6" stroke-width="3"
        stroke-linecap="round" stroke-linejoin="round" filter="url(#glow)" class="line-path"/>

  <!-- Data points -->
  
    <circle cx="60" cy="340" r="4" fill="#3b82f6" stroke="#0d1117" stroke-width="2" class="data-point"/>
  
    <circle cx="63.93258426966292" cy="339.7415691523814" r="4" fill="#3b82f6" stroke="#0d1117" stroke-width="2" class="data-point"/>
  
    <circle cx="67.86516853932584" cy="339.302060908132" r="4" fill="#3b82f6" stroke="#0d1117" stroke-width="2" class="data-point"/>
  
    <circle cx="71.79775280898876" cy="338.89419725746853" r="4" fill="#3b82f6" stroke="#0d1117" stroke-width="2" class="data-point"/>
  
    <circle cx="75.73033707865169" cy="338.0837440550727" r="4" fill="#3b82f6" stroke="#0d1117" stroke-width="2" class="data-point"/>
  
    <circle cx="79.6629213483146" cy="337.2469203580219" r="4" fill="#3b82f6" stroke="#0d1117" stroke-width="2" class="data-point"/>
  
    <circle cx="83.59550561797752" cy="336.5876579916478" r="4" fill="#3b82f6" stroke="#0d1117" stroke-width="2" class="data-point"/>
  
    <circle cx="87.52808988764045" cy="335.97234644969865" r="4" fill="#3b82f6" stroke="#0d1117" stroke-width="2" class="data-point"/>
  
    <circle cx="91.46067415730337" cy="335.4255981938524" r="4" fill="#3b82f6" stroke="#0d1117" stroke-width="2" class="data-point"/>
  
    <circle cx="95.3932584269663" cy="334.7839161572483" r="4" fill="#3b82f6" stroke="#0d1117" stroke-width="2" class="data-point"/>
  
    <circle cx="99.32584269662921" cy="334.06839673561035" r="4" fill="#3b82f6" stroke="#0d1117" stroke-width="2" class="data-point"/>
  
    <circle cx="103.25842696629213" cy="333.3018943576394" r="4" fill="#3b82f6" stroke="#0d1117" stroke-width="2" class="data-point"/>
  
    <circle cx="107.19101123595505" cy="332.6057132987484" r="4" fill="#3b82f6" stroke="#0d1117" stroke-width="2" class="data-point"/>
  
    <circle cx="111.12359550561797" cy="331.8655814154325" r="4" fill="#3b82f6" stroke="#0d1117" stroke-width="2" class="data-point"/>
  
    <circle cx="115.0561797752809" cy="331.3258652914942" r="4" fill="#3b82f6" stroke="#0d1117" stroke-width="2" class="data-point"/>
  
    <circle cx="118.98876404494382" cy="330.766810804809" r="4" fill="#3b82f6" stroke="#0d1117" stroke-width="2" class="data-point"/>
  
    <circle cx="122.92134831460675" cy="330.0073405587461" r="4" fill="#3b82f6" stroke="#0d1117" stroke-width="2" class="data-point"/>
  
    <circle cx="126.85393258426966" cy="329.49926902839377" r="4" fill="#3b82f6" stroke="#0d1117" stroke-width="2" class="data-point"/>
  
    <circle cx="130.7865168539326" cy="328.79605583759474" r="4" fill="#3b82f6" stroke="#0d1117" stroke-width="2" class="data-point"/>
  
    <circle cx="134.71910112359552" cy="327.9838446022219" r="4" fill="#3b82f6" stroke="#0d1117" stroke-width="2" class="data-point"/>
  
    <circle cx="138.65168539325842" cy="327.3720491262268" r="4" fill="#3b82f6" stroke="#0d1117" stroke-width="2" class="data-point"/>
  
    <circle cx="142.58426966292134" cy="326.8692516948055" r="4" fill="#3b82f6" stroke="#0d1117" stroke-width="2" class="data-point"/>
  
    <circle cx="146.51685393258427" cy="326.5440155940609" r="4" fill="#3b82f6" stroke="#0d1117" stroke-width="2" class="data-point"/>
  
    <circle cx="150.4494382022472" cy="326.2732785156033" r="4" fill="#3b82f6" stroke="#0d1117" stroke-width="2" class="data-point"/>
  
    <circle cx="154.3820224719101" cy="325.772239117159" r="4" fill="#3b82f6" stroke="#0d1117" stroke-width="2" class="data-point"/>
  
    <circle cx="158.31460674157304" cy="325.41535842282855" r="4" fill="#3b82f6" stroke="#0d1117" stroke-width="2" class="data-point"/>
  
    <circle cx="162.24719101123594" cy="324.63303374806463" r="4" fill="#3b82f6" stroke="#0d1117" stroke-width="2" class="data-point"/>
  
    <circle cx="166.17977528089887" cy="324.32537797709006" r="4" fill="#3b82f6" stroke="#0d1117" stroke-width="2" class="data-point"/>
  
    <circle cx="170.1123595505618" cy="323.92806252428863" r="4" fill="#3b82f6" stroke="#0d1117" stroke-width="2" class="data-point"/>
  
    <circle cx="174.04494382022472" cy="323.4147168950053" r="4" fill="#3b82f6" stroke="#0d1117" stroke-width="2" class="data-point"/>
  
    <circle cx="177.97752808988764" cy="323.06311029960585" r="4" fill="#3b82f6" stroke="#0d1117" stroke-width="2" class="data-point"/>
  
    <circle cx="181.91011235955057" cy="322.7062296052753" r="4" fill="#3b82f6" stroke="#0d1117" stroke-width="2" class="data-point"/>
  
    <circle cx="185.8426966292135" cy="322.33176858117486" r="4" fill="#3b82f6" stroke="#0d1117" stroke-width="2" class="data-point"/>
  
    <circle cx="189.77528089887642" cy="322.0715797005792" r="4" fill="#3b82f6" stroke="#0d1117" stroke-width="2" class="data-point"/>
  
    <circle cx="193.7078651685393" cy="321.84655147952355" r="4" fill="#3b82f6" stroke="#0d1117" stroke-width="2" class="data-point"/>
  
    <circle cx="197.64044943820224" cy="321.50373504900904" r="4" fill="#3b82f6" stroke="#0d1117" stroke-width="2" class="data-point"/>
  
    <circle cx="201.57303370786516" cy="321.0870812334606" r="4" fill="#3b82f6" stroke="#0d1117" stroke-width="2" class="data-point"/>
  
    <circle cx="205.5056179775281" cy="320.7038300444751" r="4" fill="#3b82f6" stroke="#0d1117" stroke-width="2" class="data-point"/>
  
    <circle cx="209.43820224719101" cy="320.2186129428238" r="4" fill="#3b82f6" stroke="#0d1117" stroke-width="2" class="data-point"/>
  
    <circle cx="213.37078651685394" cy="319.6894450167476" r="4" fill="#3b82f6" stroke="#0d1117" stroke-width="2" class="data-point"/>
  
    <circle cx="217.30337078651684" cy="319.2042279150963" r="4" fill="#3b82f6" stroke="#0d1117" stroke-width="2" class="data-point"/>
  
    <circle cx="221.2359550561798" cy="318.6188029337561" r="4" fill="#3b82f6" stroke="#0d1117" stroke-width="2" class="data-point"/>
  
    <circle cx="225.1685393258427" cy="318.0439261502779" r="4" fill="#3b82f6" stroke="#0d1117" stroke-width="2" class="data-point"/>
  
    <circle cx="229.1011235955056" cy="317.4690493667997" r="4" fill="#3b82f6" stroke="#0d1117" stroke-width="2" class="data-point"/>
  
    <circle cx="233.03370786516854" cy="316.8396735610346" r="4" fill="#3b82f6" stroke="#0d1117" stroke-width="2" class="data-point"/>
  
    <circle cx="236.96629213483146" cy="316.23842628290146" r="4" fill="#3b82f6" stroke="#0d1117" stroke-width="2" class="data-point"/>
  
    <circle cx="240.8988764044944" cy="315.5510353888954" r="4" fill="#3b82f6" stroke="#0d1117" stroke-width="2" class="data-point"/>
  
    <circle cx="244.83146067415728" cy="314.93748187992327" r="4" fill="#3b82f6" stroke="#0d1117" stroke-width="2" class="data-point"/>
  
    <circle cx="248.7640449438202" cy="314.418862151709" r="4" fill="#3b82f6" stroke="#0d1117" stroke-width="2" class="data-point"/>
  
    <circle cx="252.69662921348316" cy="314.0039663691376" r="4" fill="#3b82f6" stroke="#0d1117" stroke-width="2" class="data-point"/>
  
    <circle cx="256.6292134831461" cy="313.4238154867284" r="4" fill="#3b82f6" stroke="#0d1117" stroke-width="2" class="data-point"/>
  
    <circle cx="260.56179775280896" cy="312.76103705440033" r="4" fill="#3b82f6" stroke="#0d1117" stroke-width="2" class="data-point"/>
  
    <circle cx="264.4943820224719" cy="312.1545156773362" r="4" fill="#3b82f6" stroke="#0d1117" stroke-width="2" class="data-point"/>
  
    <circle cx="268.4269662921348" cy="311.4460283876062" r="4" fill="#3b82f6" stroke="#0d1117" stroke-width="2" class="data-point"/>
  
    <circle cx="272.35955056179773" cy="310.5722859980384" r="4" fill="#3b82f6" stroke="#0d1117" stroke-width="2" class="data-point"/>
  
    <circle cx="276.29213483146066" cy="309.9218137965493" r="4" fill="#3b82f6" stroke="#0d1117" stroke-width="2" class="data-point"/>
  
    <circle cx="280.2247191011236" cy="309.38209767261105" r="4" fill="#3b82f6" stroke="#0d1117" stroke-width="2" class="data-point"/>
  
    <circle cx="284.1573033707865" cy="308.8687520433278" r="4" fill="#3b82f6" stroke="#0d1117" stroke-width="2" class="data-point"/>
  
    <circle cx="288.08988764044943" cy="308.25168246840167" r="4" fill="#3b82f6" stroke="#0d1117" stroke-width="2" class="data-point"/>
  
    <circle cx="292.02247191011236" cy="307.5344050137867" r="4" fill="#3b82f6" stroke="#0d1117" stroke-width="2" class="data-point"/>
  
    <circle cx="295.9550561797753" cy="306.7397741081838" r="4" fill="#3b82f6" stroke="#0d1117" stroke-width="2" class="data-point"/>
  
    <circle cx="299.8876404494382" cy="305.90470844411" r="4" fill="#3b82f6" stroke="#0d1117" stroke-width="2" class="data-point"/>
  
    <circle cx="303.82022471910113" cy="305.1030454065991" r="4" fill="#3b82f6" stroke="#0d1117" stroke-width="2" class="data-point"/>
  
    <circle cx="307.75280898876406" cy="304.3980741828231" r="4" fill="#3b82f6" stroke="#0d1117" stroke-width="2" class="data-point"/>
  
    <circle cx="311.685393258427" cy="303.69837705797806" r="4" fill="#3b82f6" stroke="#0d1117" stroke-width="2" class="data-point"/>
  
    <circle cx="315.6179775280899" cy="303.08130748305194" r="4" fill="#3b82f6" stroke="#0d1117" stroke-width="2" class="data-point"/>
  
    <circle cx="319.55056179775283" cy="302.45193167728684" r="4" fill="#3b82f6" stroke="#0d1117" stroke-width="2" class="data-point"/>
  
    <circle cx="323.4831460674157" cy="301.7487184864878" r="4" fill="#3b82f6" stroke="#0d1117" stroke-width="2" class="data-point"/>
  
    <circle cx="327.4157303370786" cy="300.87321806394306" r="4" fill="#3b82f6" stroke="#0d1117" stroke-width="2" class="data-point"/>
  
    <circle cx="331.34831460674155" cy="300.220987829477" r="4" fill="#3b82f6" stroke="#0d1117" stroke-width="2" class="data-point"/>
  
    <circle cx="335.2808988764045" cy="299.6373208811138" r="4" fill="#3b82f6" stroke="#0d1117" stroke-width="2" class="data-point"/>
  
    <circle cx="339.2134831460674" cy="298.9886067126017" r="4" fill="#3b82f6" stroke="#0d1117" stroke-width="2" class="data-point"/>
  
    <circle cx="343.14606741573033" cy="298.38384336851453" r="4" fill="#3b82f6" stroke="#0d1117" stroke-width="2" class="data-point"/>
  
    <circle cx="347.07865168539325" cy="297.7193069032095" r="4" fill="#3b82f6" stroke="#0d1117" stroke-width="2" class="data-point"/>
  
    <circle cx="351.0112359550562" cy="297.0266419102725" r="4" fill="#3b82f6" stroke="#0d1117" stroke-width="2" class="data-point"/>
  
    <circle cx="354.9438202247191" cy="296.3023323237495" r="4" fill="#3b82f6" stroke="#0d1117" stroke-width="2" class="data-point"/>
  
    <circle cx="358.87640449438203" cy="295.6676824190534" r="4" fill="#3b82f6" stroke="#0d1117" stroke-width="2" class="data-point"/>
  
    <circle cx="362.80898876404495" cy="295.12445022916114" r="4" fill="#3b82f6" stroke="#0d1117" stroke-width="2" class="data-point"/>
  
    <circle cx="366.7415730337079" cy="294.52847704995895" r="4" fill="#3b82f6" stroke="#0d1117" stroke-width="2" class="data-point"/>
  
    <circle cx="370.67415730337075" cy="293.88327894740087" r="4" fill="#3b82f6" stroke="#0d1117" stroke-width="2" class="data-point"/>
  
    <circle cx="374.6067415730337" cy="293.2855477352217" r="4" fill="#3b82f6" stroke="#0d1117" stroke-width="2" class="data-point"/>
  
    <circle cx="378.53932584269666" cy="292.50673912641184" r="4" fill="#3b82f6" stroke="#0d1117" stroke-width="2" class="data-point"/>
  
    <circle cx="382.4719101123596" cy="291.8369285621758" r="4" fill="#3b82f6" stroke="#0d1117" stroke-width="2" class="data-point"/>
  
    <circle cx="386.40449438202245" cy="291.1917304596177" r="4" fill="#3b82f6" stroke="#0d1117" stroke-width="2" class="data-point"/>
  
    <circle cx="390.3370786516854" cy="290.6555304016334" r="4" fill="#3b82f6" stroke="#0d1117" stroke-width="2" class="data-point"/>
  
    <circle cx="394.2696629213483" cy="290.13515264044213" r="4" fill="#3b82f6" stroke="#0d1117" stroke-width="2" class="data-point"/>
  
    <circle cx="398.2022471910112" cy="289.6130168462739" r="4" fill="#3b82f6" stroke="#0d1117" stroke-width="2" class="data-point"/>
  
    <circle cx="402.13483146067415" cy="288.98891513943977" r="4" fill="#3b82f6" stroke="#0d1117" stroke-width="2" class="data-point"/>
  
    <circle cx="406.0674157303371" cy="288.3472331028357" r="4" fill="#3b82f6" stroke="#0d1117" stroke-width="2" class="data-point"/>
  
    <circle cx="410" cy="287.56842449402575" r="4" fill="#3b82f6" stroke="#0d1117" stroke-width="2" class="data-point"/>
  
    <circle cx="413.9325842696629" cy="286.9372906552837" r="4" fill="#3b82f6" stroke="#0d1117" stroke-width="2" class="data-point"/>
  
    <circle cx="417.86516853932585" cy="286.4221869930234" r="4" fill="#3b82f6" stroke="#0d1117" stroke-width="2" class="data-point"/>
  
    <circle cx="421.7977528089888" cy="285.89301906694715" r="4" fill="#3b82f6" stroke="#0d1117" stroke-width="2" class="data-point"/>
  
    <circle cx="425.7303370786517" cy="285.38670556957186" r="4" fill="#3b82f6" stroke="#0d1117" stroke-width="2" class="data-point"/>
  
    <circle cx="429.66292134831457" cy="284.76084582976074" r="4" fill="#3b82f6" stroke="#0d1117" stroke-width="2" class="data-point"/>
  
    <circle cx="433.5955056179775" cy="284.11916379315664" r="4" fill="#3b82f6" stroke="#0d1117" stroke-width="2" class="data-point"/>
  
    <circle cx="437.5280898876404" cy="282.70043118071965" r="4" fill="#3b82f6" stroke="#0d1117" stroke-width="2" class="data-point"/>
  
    <circle cx="441.46067415730334" cy="279.8770302196616" r="4" fill="#3b82f6" stroke="#0d1117" stroke-width="2" class="data-point"/>
  
    <circle cx="445.3932584269663" cy="276.5139131346653" r="4" fill="#3b82f6" stroke="#0d1117" stroke-width="2" class="data-point"/>
  
    <circle cx="449.32584269662925" cy="273.44966165575863" r="4" fill="#3b82f6" stroke="#0d1117" stroke-width="2" class="data-point"/>
  
    <circle cx="453.2584269662922" cy="271.8955605040928" r="4" fill="#3b82f6" stroke="#0d1117" stroke-width="2" class="data-point"/>
  
    <circle cx="457.1910112359551" cy="269.55386057873216" r="4" fill="#3b82f6" stroke="#0d1117" stroke-width="2" class="data-point"/>
  
    <circle cx="461.12359550561797" cy="267.99800139408933" r="4" fill="#3b82f6" stroke="#0d1117" stroke-width="2" class="data-point"/>
  
    <circle cx="465.0561797752809" cy="266.63376780393924" r="4" fill="#3b82f6" stroke="#0d1117" stroke-width="2" class="data-point"/>
  
    <circle cx="468.9887640449438" cy="265.2994207743981" r="4" fill="#3b82f6" stroke="#0d1117" stroke-width="2" class="data-point"/>
  
    <circle cx="472.92134831460675" cy="264.0424271958449" r="4" fill="#3b82f6" stroke="#0d1117" stroke-width="2" class="data-point"/>
  
    <circle cx="476.85393258426967" cy="262.0874945254236" r="4" fill="#3b82f6" stroke="#0d1117" stroke-width="2" class="data-point"/>
  
    <circle cx="480.7865168539326" cy="260.5333933737578" r="4" fill="#3b82f6" stroke="#0d1117" stroke-width="2" class="data-point"/>
  
    <circle cx="484.7191011235955" cy="258.5468161097506" r="4" fill="#3b82f6" stroke="#0d1117" stroke-width="2" class="data-point"/>
  
    <circle cx="488.65168539325845" cy="258.14071049206416" r="4" fill="#3b82f6" stroke="#0d1117" stroke-width="2" class="data-point"/>
  
    <circle cx="492.5842696629213" cy="258.0879695027543" r="4" fill="#3b82f6" stroke="#0d1117" stroke-width="2" class="data-point"/>
  
    <circle cx="496.51685393258424" cy="258.01940621665136" r="4" fill="#3b82f6" stroke="#0d1117" stroke-width="2" class="data-point"/>
  
    <circle cx="500.44943820224717" cy="257.96139112841047" r="4" fill="#3b82f6" stroke="#0d1117" stroke-width="2" class="data-point"/>
  
    <circle cx="504.3820224719101" cy="257.8857957103995" r="4" fill="#3b82f6" stroke="#0d1117" stroke-width="2" class="data-point"/>
  
    <circle cx="508.314606741573" cy="257.8189904572736" r="4" fill="#3b82f6" stroke="#0d1117" stroke-width="2" class="data-point"/>
  
    <circle cx="512.247191011236" cy="257.7926199626187" r="4" fill="#3b82f6" stroke="#0d1117" stroke-width="2" class="data-point"/>
  
    <circle cx="516.1797752808989" cy="257.6959281488838" r="4" fill="#3b82f6" stroke="#0d1117" stroke-width="2" class="data-point"/>
  
    <circle cx="520.1123595505619" cy="257.6027524011029" r="4" fill="#3b82f6" stroke="#0d1117" stroke-width="2" class="data-point"/>
  
    <circle cx="524.0449438202247" cy="257.541221246908" r="4" fill="#3b82f6" stroke="#0d1117" stroke-width="2" class="data-point"/>
  
    <circle cx="527.9775280898876" cy="257.518366818207" r="4" fill="#3b82f6" stroke="#0d1117" stroke-width="2" class="data-point"/>
  
    <circle cx="531.9101123595506" cy="257.4146428725642" r="4" fill="#3b82f6" stroke="#0d1117" stroke-width="2" class="data-point"/>
  
    <circle cx="535.8426966292135" cy="254.8654950559178" r="4" fill="#3b82f6" stroke="#0d1117" stroke-width="2" class="data-point"/>
  
    <circle cx="539.7752808988764" cy="250.87300216515638" r="4" fill="#3b82f6" stroke="#0d1117" stroke-width="2" class="data-point"/>
  
    <circle cx="543.7078651685393" cy="248.19903400714315" r="4" fill="#3b82f6" stroke="#0d1117" stroke-width="2" class="data-point"/>
  
    <circle cx="547.6404494382023" cy="245.09434776976553" r="4" fill="#3b82f6" stroke="#0d1117" stroke-width="2" class="data-point"/>
  
    <circle cx="551.5730337078652" cy="241.89472775163003" r="4" fill="#3b82f6" stroke="#0d1117" stroke-width="2" class="data-point"/>
  
    <circle cx="555.5056179775281" cy="239.38425666047758" r="4" fill="#3b82f6" stroke="#0d1117" stroke-width="2" class="data-point"/>
  
    <circle cx="559.4382022471909" cy="236.57667799621254" r="4" fill="#3b82f6" stroke="#0d1117" stroke-width="2" class="data-point"/>
  
    <circle cx="563.370786516854" cy="232.29938376317756" r="4" fill="#3b82f6" stroke="#0d1117" stroke-width="2" class="data-point"/>
  
    <circle cx="567.3033707865168" cy="226.53479363160267" r="4" fill="#3b82f6" stroke="#0d1117" stroke-width="2" class="data-point"/>
  
    <circle cx="571.2359550561798" cy="222.77260306082792" r="4" fill="#3b82f6" stroke="#0d1117" stroke-width="2" class="data-point"/>
  
    <circle cx="575.1685393258427" cy="218.29489306841523" r="4" fill="#3b82f6" stroke="#0d1117" stroke-width="2" class="data-point"/>
  
    <circle cx="579.1011235955057" cy="213.30559547969625" r="4" fill="#3b82f6" stroke="#0d1117" stroke-width="2" class="data-point"/>
  
    <circle cx="583.0337078651686" cy="209.3043124240499" r="4" fill="#3b82f6" stroke="#0d1117" stroke-width="2" class="data-point"/>
  
    <circle cx="586.9662921348314" cy="204.961970970866" r="4" fill="#3b82f6" stroke="#0d1117" stroke-width="2" class="data-point"/>
  
    <circle cx="590.8988764044943" cy="201.11012071826443" r="4" fill="#3b82f6" stroke="#0d1117" stroke-width="2" class="data-point"/>
  
    <circle cx="594.8314606741573" cy="197.2934311252028" r="4" fill="#3b82f6" stroke="#0d1117" stroke-width="2" class="data-point"/>
  
    <circle cx="598.7640449438202" cy="193.48728973000314" r="4" fill="#3b82f6" stroke="#0d1117" stroke-width="2" class="data-point"/>
  
    <circle cx="602.6966292134831" cy="188.30460851381443" r="4" fill="#3b82f6" stroke="#0d1117" stroke-width="2" class="data-point"/>
  
    <circle cx="606.629213483146" cy="183.10610500083274" r="4" fill="#3b82f6" stroke="#0d1117" stroke-width="2" class="data-point"/>
  
    <circle cx="610.561797752809" cy="178.77255371253386" r="4" fill="#3b82f6" stroke="#0d1117" stroke-width="2" class="data-point"/>
  
    <circle cx="614.494382022472" cy="175.14045758205697" r="4" fill="#3b82f6" stroke="#0d1117" stroke-width="2" class="data-point"/>
  
    <circle cx="618.4269662921348" cy="171.6173594961539" r="4" fill="#3b82f6" stroke="#0d1117" stroke-width="2" class="data-point"/>
  
    <circle cx="622.3595505617977" cy="166.9409917773405" r="4" fill="#3b82f6" stroke="#0d1117" stroke-width="2" class="data-point"/>
  
    <circle cx="626.2921348314607" cy="163.3141697457946" r="4" fill="#3b82f6" stroke="#0d1117" stroke-width="2" class="data-point"/>
  
    <circle cx="630.2247191011236" cy="159.72602443974264" r="4" fill="#3b82f6" stroke="#0d1117" stroke-width="2" class="data-point"/>
  
    <circle cx="634.1573033707865" cy="156.36993948665437" r="4" fill="#3b82f6" stroke="#0d1117" stroke-width="2" class="data-point"/>
  
    <circle cx="638.0898876404494" cy="153.20899619401283" r="4" fill="#3b82f6" stroke="#0d1117" stroke-width="2" class="data-point"/>
  
    <circle cx="642.0224719101124" cy="149.97069945038336" r="4" fill="#3b82f6" stroke="#0d1117" stroke-width="2" class="data-point"/>
  
    <circle cx="645.9550561797753" cy="147.20179751161228" r="4" fill="#3b82f6" stroke="#0d1117" stroke-width="2" class="data-point"/>
  
    <circle cx="649.8876404494382" cy="144.33444572612933" r="4" fill="#3b82f6" stroke="#0d1117" stroke-width="2" class="data-point"/>
  
    <circle cx="653.8202247191011" cy="141.40732081942843" r="4" fill="#3b82f6" stroke="#0d1117" stroke-width="2" class="data-point"/>
  
    <circle cx="657.7528089887641" cy="138.31318277991278" r="4" fill="#3b82f6" stroke="#0d1117" stroke-width="2" class="data-point"/>
  
    <circle cx="661.685393258427" cy="135.4739595220618" r="4" fill="#3b82f6" stroke="#0d1117" stroke-width="2" class="data-point"/>
  
    <circle cx="665.6179775280899" cy="132.87382874908243" r="4" fill="#3b82f6" stroke="#0d1117" stroke-width="2" class="data-point"/>
  
    <circle cx="669.5505617977528" cy="128.16230037072907" r="4" fill="#3b82f6" stroke="#0d1117" stroke-width="2" class="data-point"/>
  
    <circle cx="673.4831460674158" cy="124.21903240332361" r="4" fill="#3b82f6" stroke="#0d1117" stroke-width="2" class="data-point"/>
  
    <circle cx="677.4157303370787" cy="120.43222937087094" r="4" fill="#3b82f6" stroke="#0d1117" stroke-width="2" class="data-point"/>
  
    <circle cx="681.3483146067415" cy="116.79485914146306" r="4" fill="#3b82f6" stroke="#0d1117" stroke-width="2" class="data-point"/>
  
    <circle cx="685.2808988764044" cy="111.05136540561213" r="4" fill="#3b82f6" stroke="#0d1117" stroke-width="2" class="data-point"/>
  
    <circle cx="689.2134831460673" cy="107.41751124215824" r="4" fill="#3b82f6" stroke="#0d1117" stroke-width="2" class="data-point"/>
  
    <circle cx="693.1460674157304" cy="104.27239024630967" r="4" fill="#3b82f6" stroke="#0d1117" stroke-width="2" class="data-point"/>
  
    <circle cx="697.0786516853933" cy="100.5576665659139" r="4" fill="#3b82f6" stroke="#0d1117" stroke-width="2" class="data-point"/>
  
    <circle cx="701.0112359550562" cy="95.08139384256663" r="4" fill="#3b82f6" stroke="#0d1117" stroke-width="2" class="data-point"/>
  
    <circle cx="704.9438202247192" cy="91.14164194111515" r="4" fill="#3b82f6" stroke="#0d1117" stroke-width="2" class="data-point"/>
  
    <circle cx="708.8764044943821" cy="87.81544354863581" r="4" fill="#3b82f6" stroke="#0d1117" stroke-width="2" class="data-point"/>
  
    <circle cx="712.8089887640449" cy="85.0008327524628" r="4" fill="#3b82f6" stroke="#0d1117" stroke-width="2" class="data-point"/>
  
    <circle cx="716.7415730337078" cy="82.33038066040353" r="4" fill="#3b82f6" stroke="#0d1117" stroke-width="2" class="data-point"/>
  
    <circle cx="720.6741573033707" cy="80.15920993381161" r="4" fill="#3b82f6" stroke="#0d1117" stroke-width="2" class="data-point"/>
  
    <circle cx="724.6067415730337" cy="77.71378606280803" r="4" fill="#3b82f6" stroke="#0d1117" stroke-width="2" class="data-point"/>
  
    <circle cx="728.5393258426966" cy="75.72017666689283" r="4" fill="#3b82f6" stroke="#0d1117" stroke-width="2" class="data-point"/>
  
    <circle cx="732.4719101123595" cy="73.36792854367013" r="4" fill="#3b82f6" stroke="#0d1117" stroke-width="2" class="data-point"/>
  
    <circle cx="736.4044943820224" cy="69.98195702997293" r="4" fill="#3b82f6" stroke="#0d1117" stroke-width="2" class="data-point"/>
  
    <circle cx="740.3370786516854" cy="67.07241245304203" r="4" fill="#3b82f6" stroke="#0d1117" stroke-width="2" class="data-point"/>
  
    <circle cx="744.2696629213483" cy="64.54260299914256" r="4" fill="#3b82f6" stroke="#0d1117" stroke-width="2" class="data-point"/>
  
    <circle cx="748.2022471910112" cy="62.35560997575766" r="4" fill="#3b82f6" stroke="#0d1117" stroke-width="2" class="data-point"/>
  
    <circle cx="752.1348314606741" cy="60.100053666269844" r="4" fill="#3b82f6" stroke="#0d1117" stroke-width="2" class="data-point"/>
  
    <circle cx="756.0674157303371" cy="58.19786198515851" r="4" fill="#3b82f6" stroke="#0d1117" stroke-width="2" class="data-point"/>
  
    <circle cx="760" cy="55" r="4" fill="#3b82f6" stroke="#0d1117" stroke-width="2" class="data-point"/>
  

  <!-- Axis lines -->
  <line x1="60" y1="55" x2="60" y2="340"
        stroke="#30363d" stroke-width="2"/>
  <line x1="60" y1="340" x2="760" y2="340"
        stroke="#30363d" stroke-width="2"/>
</svg>