<?xml version="1.0" encoding="UTF-8"?>
<svg width="800" height="400" xmlns="http://www.w3.org/2000/svg">
  <defs>
    <!-- Gradient for area fill -->
    <linearGradient id="areaGradient" x1="0%" y1="0%" x2="0%" y2="100%">
      <stop offset="0%" style="stop-color:#3b82f6;stop-opacity:0.3" />
      <stop offset="100%" style="stop-color:#3b82f6;stop-opacity:0.05" />
    </linearGradient>

    <!-- Glow filter for line -->
    <filter id="glow">
      <feGaussianBlur stdDeviation="2" result="coloredBlur"/>
      <feMerge>
        <feMergeNode in="coloredBlur"/>
        <feMergeNode in="SourceGraphic"/>
      </feMerge>
    </filter>

    <!-- Animation -->
    <style>
      @keyframes draw {
        from { stroke-dashoffset: 2000; }
        to { stroke-dashoffset: 0; }
      }
      @keyframes fadeIn {
        from { opacity: 0; }
        to { opacity: 1; }
      }
      .line-path {
        stroke-dasharray: 2000;
        stroke-dashoffset: 2000;
        animation: draw 1.5s ease-out forwards;
      }
      .area-path {
        opacity: 0;
        animation: fadeIn 1s ease-out 0.5s forwards;
      }
      .data-point {
        opacity: 0;
        animation: fadeIn 0.5s ease-out 1s forwards;
      }
    </style>
  </defs>

  <!-- Background -->
  <rect width="800" height="400" fill="#0d1117" rx="8"/>

  <!-- Title -->
  <text x="400" y="25" text-anchor="middle" fill="#c9d1d9" font-family="system-ui, -apple-system, sans-serif" font-size="16" font-weight="600">
    zxcloli666/SoundCloud-Desktop Downloads
  </text>

  <!-- Stats -->
  <text x="780" y="25" text-anchor="end" fill="#58a6ff" font-family="system-ui, -apple-system, sans-serif" font-size="14" font-weight="600">
    254.1K total
  </text>
  <text x="780" y="42" text-anchor="end" fill="#3fb950" font-family="system-ui, -apple-system, sans-serif" font-size="12">
    +1.2K (+0.5%)
  </text>

  <!-- Grid lines -->
  <g opacity="0.1">
    
      <line x1="60" y1="340" x2="760" y2="340"
            stroke="#c9d1d9" stroke-width="1"/>
    
      <line x1="60" y1="268.75" x2="760" y2="268.75"
            stroke="#c9d1d9" stroke-width="1"/>
    
      <line x1="60" y1="197.5" x2="760" y2="197.5"
            stroke="#c9d1d9" stroke-width="1"/>
    
      <line x1="60" y1="126.25" x2="760" y2="126.25"
            stroke="#c9d1d9" stroke-width="1"/>
    
      <line x1="60" y1="55" x2="760" y2="55"
            stroke="#c9d1d9" stroke-width="1"/>
    
  </g>

  <!-- Y-axis labels -->
  
    <text x="50" y="344" text-anchor="end"
          fill="#8b949e" font-family="system-ui, -apple-system, sans-serif" font-size="11">
      60.2K
    </text>
  
    <text x="50" y="272.75" text-anchor="end"
          fill="#8b949e" font-family="system-ui, -apple-system, sans-serif" font-size="11">
      108.6K
    </text>
  
    <text x="50" y="201.5" text-anchor="end"
          fill="#8b949e" font-family="system-ui, -apple-system, sans-serif" font-size="11">
      157.1K
    </text>
  
    <text x="50" y="130.25" text-anchor="end"
          fill="#8b949e" font-family="system-ui, -apple-system, sans-serif" font-size="11">
      205.6K
    </text>
  
    <text x="50" y="59" text-anchor="end"
          fill="#8b949e" font-family="system-ui, -apple-system, sans-serif" font-size="11">
      254.1K
    </text>
  

  <!-- X-axis labels -->
  
    <text x="60" y="360" text-anchor="middle"
          fill="#8b949e" font-family="system-ui, -apple-system, sans-serif" font-size="11">
      Nov 25
    </text>
  
    <text x="145.7843137254902" y="360" text-anchor="middle"
          fill="#8b949e" font-family="system-ui, -apple-system, sans-serif" font-size="11">
      Dec 20
    </text>
  
    <text x="231.5686274509804" y="360" text-anchor="middle"
          fill="#8b949e" font-family="system-ui, -apple-system, sans-serif" font-size="11">
      Jan 14
    </text>
  
    <text x="317.3529411764706" y="360" text-anchor="middle"
          fill="#8b949e" font-family="system-ui, -apple-system, sans-serif" font-size="11">
      Feb 8
    </text>
  
    <text x="403.1372549019608" y="360" text-anchor="middle"
          fill="#8b949e" font-family="system-ui, -apple-system, sans-serif" font-size="11">
      Mar 5
    </text>
  
    <text x="488.921568627451" y="360" text-anchor="middle"
          fill="#8b949e" font-family="system-ui, -apple-system, sans-serif" font-size="11">
      Mar 30
    </text>
  
    <text x="574.7058823529412" y="360" text-anchor="middle"
          fill="#8b949e" font-family="system-ui, -apple-system, sans-serif" font-size="11">
      Apr 24
    </text>
  
    <text x="660.4901960784314" y="360" text-anchor="middle"
          fill="#8b949e" font-family="system-ui, -apple-system, sans-serif" font-size="11">
      May 19
    </text>
  
    <text x="746.2745098039215" y="360" text-anchor="middle"
          fill="#8b949e" font-family="system-ui, -apple-system, sans-serif" font-size="11">
      Jun 13
    </text>
  
    <text x="760" y="360" text-anchor="middle"
          fill="#8b949e" font-family="system-ui, -apple-system, sans-serif" font-size="11">
      Jun 17
    </text>
  

  <!-- Area under line -->
  <path d="M 60 340
    L 60.00 340.00 L 63.43 339.78 L 66.86 339.42 L 70.29 339.08 L 73.73 338.40 L 77.16 337.70 L 80.59 337.15 L 84.02 336.63 L 87.45 336.18 L 90.88 335.64 L 94.31 335.04 L 97.75 334.40 L 101.18 333.82 L 104.61 333.20 L 108.04 332.75 L 111.47 332.28 L 114.90 331.65 L 118.33 331.22 L 121.76 330.64 L 125.20 329.96 L 128.63 329.44 L 132.06 329.02 L 135.49 328.75 L 138.92 328.53 L 142.35 328.11 L 145.78 327.81 L 149.22 327.16 L 152.65 326.90 L 156.08 326.57 L 159.51 326.14 L 162.94 325.84 L 166.37 325.54 L 169.80 325.23 L 173.24 325.01 L 176.67 324.83 L 180.10 324.54 L 183.53 324.19 L 186.96 323.87 L 190.39 323.47 L 193.82 323.02 L 197.25 322.62 L 200.69 322.13 L 204.12 321.65 L 207.55 321.17 L 210.98 320.64 L 214.41 320.14 L 217.84 319.56 L 221.27 319.05 L 224.71 318.62 L 228.14 318.27 L 231.57 317.79 L 235.00 317.23 L 238.43 316.73 L 241.86 316.13 L 245.29 315.40 L 248.73 314.86 L 252.16 314.41 L 255.59 313.98 L 259.02 313.46 L 262.45 312.86 L 265.88 312.20 L 269.31 311.50 L 272.75 310.83 L 276.18 310.24 L 279.61 309.66 L 283.04 309.14 L 286.47 308.61 L 289.90 308.03 L 293.33 307.30 L 296.76 306.75 L 300.20 306.26 L 303.63 305.72 L 307.06 305.21 L 310.49 304.66 L 313.92 304.08 L 317.35 303.47 L 320.78 302.94 L 324.22 302.49 L 327.65 301.99 L 331.08 301.45 L 334.51 300.95 L 337.94 300.30 L 341.37 299.74 L 344.80 299.20 L 348.24 298.75 L 351.67 298.32 L 355.10 297.88 L 358.53 297.36 L 361.96 296.83 L 365.39 296.17 L 368.82 295.65 L 372.25 295.22 L 375.69 294.77 L 379.12 294.35 L 382.55 293.83 L 385.98 293.29 L 389.41 292.11 L 392.84 289.75 L 396.27 286.93 L 399.71 284.37 L 403.14 283.07 L 406.57 281.12 L 410.00 279.82 L 413.43 278.68 L 416.86 277.56 L 420.29 276.51 L 423.73 274.88 L 427.16 273.58 L 430.59 271.92 L 434.02 271.58 L 437.45 271.53 L 440.88 271.48 L 444.31 271.43 L 447.75 271.36 L 451.18 271.31 L 454.61 271.29 L 458.04 271.21 L 461.47 271.13 L 464.90 271.08 L 468.33 271.06 L 471.76 270.97 L 475.20 268.84 L 478.63 265.50 L 482.06 263.27 L 485.49 260.67 L 488.92 258.00 L 492.35 255.90 L 495.78 253.55 L 499.22 249.98 L 502.65 245.16 L 506.08 242.01 L 509.51 238.27 L 512.94 234.10 L 516.37 230.76 L 519.80 227.13 L 523.24 223.91 L 526.67 220.72 L 530.10 217.54 L 533.53 213.20 L 536.96 208.86 L 540.39 205.24 L 543.82 202.20 L 547.25 199.26 L 550.69 195.35 L 554.12 192.31 L 557.55 189.32 L 560.98 186.51 L 564.41 183.87 L 567.84 181.16 L 571.27 178.85 L 574.71 176.45 L 578.14 174.00 L 581.57 171.42 L 585.00 169.04 L 588.43 166.87 L 591.86 162.93 L 595.29 159.64 L 598.73 156.47 L 602.16 153.43 L 605.59 148.63 L 609.02 145.59 L 612.45 142.96 L 615.88 139.86 L 619.31 135.28 L 622.75 131.99 L 626.18 129.21 L 629.61 126.86 L 633.04 124.62 L 636.47 122.81 L 639.90 120.76 L 643.33 119.10 L 646.76 117.13 L 650.20 114.30 L 653.63 111.87 L 657.06 109.76 L 660.49 107.93 L 663.92 106.04 L 667.35 104.45 L 670.78 101.78 L 674.22 99.49 L 677.65 97.23 L 681.08 95.36 L 684.51 93.64 L 687.94 92.12 L 691.37 89.50 L 694.80 87.38 L 698.24 85.45 L 701.67 83.60 L 705.10 81.99 L 708.53 80.42 L 711.96 78.99 L 715.39 77.62 L 718.82 76.35 L 722.25 74.78 L 725.69 73.09 L 729.12 71.54 L 732.55 69.12 L 735.98 67.37 L 739.41 65.69 L 742.84 64.22 L 746.27 62.49 L 749.71 60.38 L 753.14 58.50 L 756.57 56.82 L 760.00 55.00
    L 760 340
    Z" fill="url(#areaGradient)" class="area-path"/>

  <!-- Main line with glow -->
  <path d="M 60.00 340.00 L 63.43 339.78 L 66.86 339.42 L 70.29 339.08 L 73.73 338.40 L 77.16 337.70 L 80.59 337.15 L 84.02 336.63 L 87.45 336.18 L 90.88 335.64 L 94.31 335.04 L 97.75 334.40 L 101.18 333.82 L 104.61 333.20 L 108.04 332.75 L 111.47 332.28 L 114.90 331.65 L 118.33 331.22 L 121.76 330.64 L 125.20 329.96 L 128.63 329.44 L 132.06 329.02 L 135.49 328.75 L 138.92 328.53 L 142.35 328.11 L 145.78 327.81 L 149.22 327.16 L 152.65 326.90 L 156.08 326.57 L 159.51 326.14 L 162.94 325.84 L 166.37 325.54 L 169.80 325.23 L 173.24 325.01 L 176.67 324.83 L 180.10 324.54 L 183.53 324.19 L 186.96 323.87 L 190.39 323.47 L 193.82 323.02 L 197.25 322.62 L 200.69 322.13 L 204.12 321.65 L 207.55 321.17 L 210.98 320.64 L 214.41 320.14 L 217.84 319.56 L 221.27 319.05 L 224.71 318.62 L 228.14 318.27 L 231.57 317.79 L 235.00 317.23 L 238.43 316.73 L 241.86 316.13 L 245.29 315.40 L 248.73 314.86 L 252.16 314.41 L 255.59 313.98 L 259.02 313.46 L 262.45 312.86 L 265.88 312.20 L 269.31 311.50 L 272.75 310.83 L 276.18 310.24 L 279.61 309.66 L 283.04 309.14 L 286.47 308.61 L 289.90 308.03 L 293.33 307.30 L 296.76 306.75 L 300.20 306.26 L 303.63 305.72 L 307.06 305.21 L 310.49 304.66 L 313.92 304.08 L 317.35 303.47 L 320.78 302.94 L 324.22 302.49 L 327.65 301.99 L 331.08 301.45 L 334.51 300.95 L 337.94 300.30 L 341.37 299.74 L 344.80 299.20 L 348.24 298.75 L 351.67 298.32 L 355.10 297.88 L 358.53 297.36 L 361.96 296.83 L 365.39 296.17 L 368.82 295.65 L 372.25 295.22 L 375.69 294.77 L 379.12 294.35 L 382.55 293.83 L 385.98 293.29 L 389.41 292.11 L 392.84 289.75 L 396.27 286.93 L 399.71 284.37 L 403.14 283.07 L 406.57 281.12 L 410.00 279.82 L 413.43 278.68 L 416.86 277.56 L 420.29 276.51 L 423.73 274.88 L 427.16 273.58 L 430.59 271.92 L 434.02 271.58 L 437.45 271.53 L 440.88 271.48 L 444.31 271.43 L 447.75 271.36 L 451.18 271.31 L 454.61 271.29 L 458.04 271.21 L 461.47 271.13 L 464.90 271.08 L 468.33 271.06 L 471.76 270.97 L 475.20 268.84 L 478.63 265.50 L 482.06 263.27 L 485.49 260.67 L 488.92 258.00 L 492.35 255.90 L 495.78 253.55 L 499.22 249.98 L 502.65 245.16 L 506.08 242.01 L 509.51 238.27 L 512.94 234.10 L 516.37 230.76 L 519.80 227.13 L 523.24 223.91 L 526.67 220.72 L 530.10 217.54 L 533.53 213.20 L 536.96 208.86 L 540.39 205.24 L 543.82 202.20 L 547.25 199.26 L 550.69 195.35 L 554.12 192.31 L 557.55 189.32 L 560.98 186.51 L 564.41 183.87 L 567.84 181.16 L 571.27 178.85 L 574.71 176.45 L 578.14 174.00 L 581.57 171.42 L 585.00 169.04 L 588.43 166.87 L 591.86 162.93 L 595.29 159.64 L 598.73 156.47 L 602.16 153.43 L 605.59 148.63 L 609.02 145.59 L 612.45 142.96 L 615.88 139.86 L 619.31 135.28 L 622.75 131.99 L 626.18 129.21 L 629.61 126.86 L 633.04 124.62 L 636.47 122.81 L 639.90 120.76 L 643.33 119.10 L 646.76 117.13 L 650.20 114.30 L 653.63 111.87 L 657.06 109.76 L 660.49 107.93 L 663.92 106.04 L 667.35 104.45 L 670.78 101.78 L 674.22 99.49 L 677.65 97.23 L 681.08 95.36 L 684.51 93.64 L 687.94 92.12 L 691.37 89.50 L 694.80 87.38 L 698.24 85.45 L 701.67 83.60 L 705.10 81.99 L 708.53 80.42 L 711.96 78.99 L 715.39 77.62 L 718.82 76.35 L 722.25 74.78 L 725.69 73.09 L 729.12 71.54 L 732.55 69.12 L 735.98 67.37 L 739.41 65.69 L 742.84 64.22 L 746.27 62.49 L 749.71 60.38 L 753.14 58.50 L 756.57 56.82 L 760.00 55.00" fill="none" stroke="#3b82f6" stroke-width="3"
        stroke-linecap="round" stroke-linejoin="round" filter="url(#glow)" class="line-path"/>

  <!-- Data points -->
  
    <circle cx="60" cy="340" r="4" fill="#3b82f6" stroke="#0d1117" stroke-width="2" class="data-point"/>
  
    <circle cx="63.431372549019606" cy="339.783987377995" r="4" fill="#3b82f6" stroke="#0d1117" stroke-width="2" class="data-point"/>
  
    <circle cx="66.86274509803921" cy="339.4166189732247" r="4" fill="#3b82f6" stroke="#0d1117" stroke-width="2" class="data-point"/>
  
    <circle cx="70.29411764705883" cy="339.07570109359773" r="4" fill="#3b82f6" stroke="#0d1117" stroke-width="2" class="data-point"/>
  
    <circle cx="73.72549019607843" cy="338.39827375520116" r="4" fill="#3b82f6" stroke="#0d1117" stroke-width="2" class="data-point"/>
  
    <circle cx="77.15686274509804" cy="337.69880431251835" r="4" fill="#3b82f6" stroke="#0d1117" stroke-width="2" class="data-point"/>
  
    <circle cx="80.58823529411765" cy="337.1477517053628" r="4" fill="#3b82f6" stroke="#0d1117" stroke-width="2" class="data-point"/>
  
    <circle cx="84.01960784313727" cy="336.6334359386843" r="4" fill="#3b82f6" stroke="#0d1117" stroke-width="2" class="data-point"/>
  
    <circle cx="87.45098039215686" cy="336.17642964314996" r="4" fill="#3b82f6" stroke="#0d1117" stroke-width="2" class="data-point"/>
  
    <circle cx="90.88235294117646" cy="335.6400717721852" r="4" fill="#3b82f6" stroke="#0d1117" stroke-width="2" class="data-point"/>
  
    <circle cx="94.31372549019608" cy="335.041996009219" r="4" fill="#3b82f6" stroke="#0d1117" stroke-width="2" class="data-point"/>
  
    <circle cx="97.74509803921569" cy="334.4013055112995" r="4" fill="#3b82f6" stroke="#0d1117" stroke-width="2" class="data-point"/>
  
    <circle cx="101.1764705882353" cy="333.8193939581432" r="4" fill="#3b82f6" stroke="#0d1117" stroke-width="2" class="data-point"/>
  
    <circle cx="104.60784313725489" cy="333.2007455645099" r="4" fill="#3b82f6" stroke="#0d1117" stroke-width="2" class="data-point"/>
  
    <circle cx="108.03921568627452" cy="332.7496171634519" r="4" fill="#3b82f6" stroke="#0d1117" stroke-width="2" class="data-point"/>
  
    <circle cx="111.47058823529412" cy="332.28232455258393" r="4" fill="#3b82f6" stroke="#0d1117" stroke-width="2" class="data-point"/>
  
    <circle cx="114.90196078431373" cy="331.6475119491407" r="4" fill="#3b82f6" stroke="#0d1117" stroke-width="2" class="data-point"/>
  
    <circle cx="118.33333333333333" cy="331.2228340732262" r="4" fill="#3b82f6" stroke="#0d1117" stroke-width="2" class="data-point"/>
  
    <circle cx="121.76470588235294" cy="330.6350446255936" r="4" fill="#3b82f6" stroke="#0d1117" stroke-width="2" class="data-point"/>
  
    <circle cx="125.19607843137256" cy="329.95614781357796" r="4" fill="#3b82f6" stroke="#0d1117" stroke-width="2" class="data-point"/>
  
    <circle cx="128.62745098039215" cy="329.44477099413757" r="4" fill="#3b82f6" stroke="#0d1117" stroke-width="2" class="data-point"/>
  
    <circle cx="132.05882352941177" cy="329.0245015390803" r="4" fill="#3b82f6" stroke="#0d1117" stroke-width="2" class="data-point"/>
  
    <circle cx="135.49019607843138" cy="328.7526489195502" r="4" fill="#3b82f6" stroke="#0d1117" stroke-width="2" class="data-point"/>
  
    <circle cx="138.921568627451" cy="328.5263499822116" r="4" fill="#3b82f6" stroke="#0d1117" stroke-width="2" class="data-point"/>
  
    <circle cx="142.3529411764706" cy="328.1075500007734" r="4" fill="#3b82f6" stroke="#0d1117" stroke-width="2" class="data-point"/>
  
    <circle cx="145.7843137254902" cy="327.8092468560999" r="4" fill="#3b82f6" stroke="#0d1117" stroke-width="2" class="data-point"/>
  
    <circle cx="149.21568627450978" cy="327.1553310956086" r="4" fill="#3b82f6" stroke="#0d1117" stroke-width="2" class="data-point"/>
  
    <circle cx="152.6470588235294" cy="326.89817321226934" r="4" fill="#3b82f6" stroke="#0d1117" stroke-width="2" class="data-point"/>
  
    <circle cx="156.07843137254903" cy="326.5660721743569" r="4" fill="#3b82f6" stroke="#0d1117" stroke-width="2" class="data-point"/>
  
    <circle cx="159.50980392156862" cy="326.1369858775851" r="4" fill="#3b82f6" stroke="#0d1117" stroke-width="2" class="data-point"/>
  
    <circle cx="162.94117647058823" cy="325.8430911537688" r="4" fill="#3b82f6" stroke="#0d1117" stroke-width="2" class="data-point"/>
  
    <circle cx="166.37254901960785" cy="325.54478800909527" r="4" fill="#3b82f6" stroke="#0d1117" stroke-width="2" class="data-point"/>
  
    <circle cx="169.80392156862746" cy="325.2317901282309" r="4" fill="#3b82f6" stroke="#0d1117" stroke-width="2" class="data-point"/>
  
    <circle cx="173.23529411764707" cy="325.01430803260683" r="4" fill="#3b82f6" stroke="#0d1117" stroke-width="2" class="data-point"/>
  
    <circle cx="176.66666666666666" cy="324.8262154093644" r="4" fill="#3b82f6" stroke="#0d1117" stroke-width="2" class="data-point"/>
  
    <circle cx="180.09803921568627" cy="324.53966805364354" r="4" fill="#3b82f6" stroke="#0d1117" stroke-width="2" class="data-point"/>
  
    <circle cx="183.52941176470588" cy="324.1914028059212" r="4" fill="#3b82f6" stroke="#0d1117" stroke-width="2" class="data-point"/>
  
    <circle cx="186.96078431372547" cy="323.87105755696143" r="4" fill="#3b82f6" stroke="#0d1117" stroke-width="2" class="data-point"/>
  
    <circle cx="190.3921568627451" cy="323.46548283809494" r="4" fill="#3b82f6" stroke="#0d1117" stroke-width="2" class="data-point"/>
  
    <circle cx="193.8235294117647" cy="323.0231712787514" r="4" fill="#3b82f6" stroke="#0d1117" stroke-width="2" class="data-point"/>
  
    <circle cx="197.2549019607843" cy="322.61759655988493" r="4" fill="#3b82f6" stroke="#0d1117" stroke-width="2" class="data-point"/>
  
    <circle cx="200.68627450980392" cy="322.1282618447308" r="4" fill="#3b82f6" stroke="#0d1117" stroke-width="2" class="data-point"/>
  
    <circle cx="204.11764705882354" cy="321.6477439712911" r="4" fill="#3b82f6" stroke="#0d1117" stroke-width="2" class="data-point"/>
  
    <circle cx="207.54901960784315" cy="321.1672260978515" r="4" fill="#3b82f6" stroke="#0d1117" stroke-width="2" class="data-point"/>
  
    <circle cx="210.98039215686276" cy="320.6411545422203" r="4" fill="#3b82f6" stroke="#0d1117" stroke-width="2" class="data-point"/>
  
    <circle cx="214.41176470588235" cy="320.13859456449444" r="4" fill="#3b82f6" stroke="#0d1117" stroke-width="2" class="data-point"/>
  
    <circle cx="217.84313725490196" cy="319.5640303794336" r="4" fill="#3b82f6" stroke="#0d1117" stroke-width="2" class="data-point"/>
  
    <circle cx="221.27450980392155" cy="319.0511840863741" r="4" fill="#3b82f6" stroke="#0d1117" stroke-width="2" class="data-point"/>
  
    <circle cx="224.7058823529412" cy="318.61768936874506" r="4" fill="#3b82f6" stroke="#0d1117" stroke-width="2" class="data-point"/>
  
    <circle cx="228.1372549019608" cy="318.27089359464185" r="4" fill="#3b82f6" stroke="#0d1117" stroke-width="2" class="data-point"/>
  
    <circle cx="231.5686274509804" cy="317.78596730034496" r="4" fill="#3b82f6" stroke="#0d1117" stroke-width="2" class="data-point"/>
  
    <circle cx="235" cy="317.2319757459512" r="4" fill="#3b82f6" stroke="#0d1117" stroke-width="2" class="data-point"/>
  
    <circle cx="238.43137254901958" cy="316.7250073473681" r="4" fill="#3b82f6" stroke="#0d1117" stroke-width="2" class="data-point"/>
  
    <circle cx="241.86274509803923" cy="316.13280947887824" r="4" fill="#3b82f6" stroke="#0d1117" stroke-width="2" class="data-point"/>
  
    <circle cx="245.2941176470588" cy="315.4024810901947" r="4" fill="#3b82f6" stroke="#0d1117" stroke-width="2" class="data-point"/>
  
    <circle cx="248.72549019607843" cy="314.85877585113457" r="4" fill="#3b82f6" stroke="#0d1117" stroke-width="2" class="data-point"/>
  
    <circle cx="252.15686274509807" cy="314.4076474500766" r="4" fill="#3b82f6" stroke="#0d1117" stroke-width="2" class="data-point"/>
  
    <circle cx="255.58823529411765" cy="313.9785611533048" r="4" fill="#3b82f6" stroke="#0d1117" stroke-width="2" class="data-point"/>
  
    <circle cx="259.01960784313724" cy="313.46277591300714" r="4" fill="#3b82f6" stroke="#0d1117" stroke-width="2" class="data-point"/>
  
    <circle cx="262.4509803921569" cy="312.8632306764219" r="4" fill="#3b82f6" stroke="#0d1117" stroke-width="2" class="data-point"/>
  
    <circle cx="265.88235294117646" cy="312.19902860059705" r="4" fill="#3b82f6" stroke="#0d1117" stroke-width="2" class="data-point"/>
  
    <circle cx="269.3137254901961" cy="311.50102863153336" r="4" fill="#3b82f6" stroke="#0d1117" stroke-width="2" class="data-point"/>
  
    <circle cx="272.7450980392157" cy="310.8309486612322" r="4" fill="#3b82f6" stroke="#0d1117" stroke-width="2" class="data-point"/>
  
    <circle cx="276.1764705882353" cy="310.24168973998053" r="4" fill="#3b82f6" stroke="#0d1117" stroke-width="2" class="data-point"/>
  
    <circle cx="279.6078431372549" cy="309.6568392395861" r="4" fill="#3b82f6" stroke="#0d1117" stroke-width="2" class="data-point"/>
  
    <circle cx="283.0392156862745" cy="309.1410539992885" r="4" fill="#3b82f6" stroke="#0d1117" stroke-width="2" class="data-point"/>
  
    <circle cx="286.47058823529414" cy="308.6149824436573" r="4" fill="#3b82f6" stroke="#0d1117" stroke-width="2" class="data-point"/>
  
    <circle cx="289.9019607843137" cy="308.02719299602467" r="4" fill="#3b82f6" stroke="#0d1117" stroke-width="2" class="data-point"/>
  
    <circle cx="293.3333333333333" cy="307.2953951337221" r="4" fill="#3b82f6" stroke="#0d1117" stroke-width="2" class="data-point"/>
  
    <circle cx="296.7647058823529" cy="306.75022042104285" r="4" fill="#3b82f6" stroke="#0d1117" stroke-width="2" class="data-point"/>
  
    <circle cx="300.19607843137254" cy="306.2623551795078" r="4" fill="#3b82f6" stroke="#0d1117" stroke-width="2" class="data-point"/>
  
    <circle cx="303.62745098039215" cy="305.72011941406674" r="4" fill="#3b82f6" stroke="#0d1117" stroke-width="2" class="data-point"/>
  
    <circle cx="307.05882352941177" cy="305.2146204891027" r="4" fill="#3b82f6" stroke="#0d1117" stroke-width="2" class="data-point"/>
  
    <circle cx="310.4901960784314" cy="304.65915946108987" r="4" fill="#3b82f6" stroke="#0d1117" stroke-width="2" class="data-point"/>
  
    <circle cx="313.92156862745094" cy="304.08018685517175" r="4" fill="#3b82f6" stroke="#0d1117" stroke-width="2" class="data-point"/>
  
    <circle cx="317.3529411764706" cy="303.4747637241102" r="4" fill="#3b82f6" stroke="#0d1117" stroke-width="2" class="data-point"/>
  
    <circle cx="320.7843137254902" cy="302.9442837476218" r="4" fill="#3b82f6" stroke="#0d1117" stroke-width="2" class="data-point"/>
  
    <circle cx="324.2156862745098" cy="302.4902163993256" r="4" fill="#3b82f6" stroke="#0d1117" stroke-width="2" class="data-point"/>
  
    <circle cx="327.6470588235294" cy="301.99206484245695" r="4" fill="#3b82f6" stroke="#0d1117" stroke-width="2" class="data-point"/>
  
    <circle cx="331.078431372549" cy="301.45276802425406" r="4" fill="#3b82f6" stroke="#0d1117" stroke-width="2" class="data-point"/>
  
    <circle cx="334.5098039215686" cy="300.9531469937663" r="4" fill="#3b82f6" stroke="#0d1117" stroke-width="2" class="data-point"/>
  
    <circle cx="337.94117647058823" cy="300.30217018051326" r="4" fill="#3b82f6" stroke="#0d1117" stroke-width="2" class="data-point"/>
  
    <circle cx="341.37254901960785" cy="299.7423007316432" r="4" fill="#3b82f6" stroke="#0d1117" stroke-width="2" class="data-point"/>
  
    <circle cx="344.80392156862746" cy="299.2030039134403" r="4" fill="#3b82f6" stroke="#0d1117" stroke-width="2" class="data-point"/>
  
    <circle cx="348.2352941176471" cy="298.75481445962043" r="4" fill="#3b82f6" stroke="#0d1117" stroke-width="2" class="data-point"/>
  
    <circle cx="351.6666666666667" cy="298.3198502683723" r="4" fill="#3b82f6" stroke="#0d1117" stroke-width="2" class="data-point"/>
  
    <circle cx="355.0980392156863" cy="297.8834166035051" r="4" fill="#3b82f6" stroke="#0d1117" stroke-width="2" class="data-point"/>
  
    <circle cx="358.52941176470586" cy="297.36175346873114" r="4" fill="#3b82f6" stroke="#0d1117" stroke-width="2" class="data-point"/>
  
    <circle cx="361.9607843137255" cy="296.8253955977664" r="4" fill="#3b82f6" stroke="#0d1117" stroke-width="2" class="data-point"/>
  
    <circle cx="365.3921568627451" cy="296.1744187845133" r="4" fill="#3b82f6" stroke="#0d1117" stroke-width="2" class="data-point"/>
  
    <circle cx="368.8235294117647" cy="295.64687775526306" r="4" fill="#3b82f6" stroke="#0d1117" stroke-width="2" class="data-point"/>
  
    <circle cx="372.2549019607843" cy="295.21632198487214" r="4" fill="#3b82f6" stroke="#0d1117" stroke-width="2" class="data-point"/>
  
    <circle cx="375.6862745098039" cy="294.7740104255286" r="4" fill="#3b82f6" stroke="#0d1117" stroke-width="2" class="data-point"/>
  
    <circle cx="379.11764705882354" cy="294.35080202323314" r="4" fill="#3b82f6" stroke="#0d1117" stroke-width="2" class="data-point"/>
  
    <circle cx="382.5490196078431" cy="293.82766941484016" r="4" fill="#3b82f6" stroke="#0d1117" stroke-width="2" class="data-point"/>
  
    <circle cx="385.98039215686276" cy="293.2913115438754" r="4" fill="#3b82f6" stroke="#0d1117" stroke-width="2" class="data-point"/>
  
    <circle cx="389.4117647058824" cy="292.10544633327663" r="4" fill="#3b82f6" stroke="#0d1117" stroke-width="2" class="data-point"/>
  
    <circle cx="392.84313725490193" cy="289.7454717010317" r="4" fill="#3b82f6" stroke="#0d1117" stroke-width="2" class="data-point"/>
  
    <circle cx="396.2745098039216" cy="286.9343686677288" r="4" fill="#3b82f6" stroke="#0d1117" stroke-width="2" class="data-point"/>
  
    <circle cx="399.70588235294116" cy="284.37307614966977" r="4" fill="#3b82f6" stroke="#0d1117" stroke-width="2" class="data-point"/>
  
    <circle cx="403.1372549019608" cy="283.0740614704017" r="4" fill="#3b82f6" stroke="#0d1117" stroke-width="2" class="data-point"/>
  
    <circle cx="406.5686274509804" cy="281.11672260978514" r="4" fill="#3b82f6" stroke="#0d1117" stroke-width="2" class="data-point"/>
  
    <circle cx="410" cy="279.816238456898" r="4" fill="#3b82f6" stroke="#0d1117" stroke-width="2" class="data-point"/>
  
    <circle cx="413.4313725490196" cy="278.67592692849075" r="4" fill="#3b82f6" stroke="#0d1117" stroke-width="2" class="data-point"/>
  
    <circle cx="416.86274509803917" cy="277.5605964516079" r="4" fill="#3b82f6" stroke="#0d1117" stroke-width="2" class="data-point"/>
  
    <circle cx="420.2941176470588" cy="276.50992281396464" r="4" fill="#3b82f6" stroke="#0d1117" stroke-width="2" class="data-point"/>
  
    <circle cx="423.72549019607845" cy="274.875868149546" r="4" fill="#3b82f6" stroke="#0d1117" stroke-width="2" class="data-point"/>
  
    <circle cx="427.15686274509807" cy="273.57685347027797" r="4" fill="#3b82f6" stroke="#0d1117" stroke-width="2" class="data-point"/>
  
    <circle cx="430.5882352941176" cy="271.91634828071585" r="4" fill="#3b82f6" stroke="#0d1117" stroke-width="2" class="data-point"/>
  
    <circle cx="434.01960784313724" cy="271.57689987470803" r="4" fill="#3b82f6" stroke="#0d1117" stroke-width="2" class="data-point"/>
  
    <circle cx="437.45098039215685" cy="271.5328156661356" r="4" fill="#3b82f6" stroke="#0d1117" stroke-width="2" class="data-point"/>
  
    <circle cx="440.88235294117646" cy="271.4755061949914" r="4" fill="#3b82f6" stroke="#0d1117" stroke-width="2" class="data-point"/>
  
    <circle cx="444.31372549019613" cy="271.4270135655617" r="4" fill="#3b82f6" stroke="#0d1117" stroke-width="2" class="data-point"/>
  
    <circle cx="447.7450980392157" cy="271.36382619994123" r="4" fill="#3b82f6" stroke="#0d1117" stroke-width="2" class="data-point"/>
  
    <circle cx="451.1764705882353" cy="271.30798620241615" r="4" fill="#3b82f6" stroke="#0d1117" stroke-width="2" class="data-point"/>
  
    <circle cx="454.6078431372549" cy="271.2859440981299" r="4" fill="#3b82f6" stroke="#0d1117" stroke-width="2" class="data-point"/>
  
    <circle cx="458.0392156862745" cy="271.20512304908044" r="4" fill="#3b82f6" stroke="#0d1117" stroke-width="2" class="data-point"/>
  
    <circle cx="461.4705882352941" cy="271.1272409472691" r="4" fill="#3b82f6" stroke="#0d1117" stroke-width="2" class="data-point"/>
  
    <circle cx="464.90196078431376" cy="271.07580937060123" r="4" fill="#3b82f6" stroke="#0d1117" stroke-width="2" class="data-point"/>
  
    <circle cx="468.33333333333337" cy="271.0567062135532" r="4" fill="#3b82f6" stroke="#0d1117" stroke-width="2" class="data-point"/>
  
    <circle cx="471.7647058823529" cy="270.9700072700274" r="4" fill="#3b82f6" stroke="#0d1117" stroke-width="2" class="data-point"/>
  
    <circle cx="475.19607843137254" cy="268.8392705223592" r="4" fill="#3b82f6" stroke="#0d1117" stroke-width="2" class="data-point"/>
  
    <circle cx="478.62745098039215" cy="265.5020959334251" r="4" fill="#3b82f6" stroke="#0d1117" stroke-width="2" class="data-point"/>
  
    <circle cx="482.05882352941177" cy="263.2670265588022" r="4" fill="#3b82f6" stroke="#0d1117" stroke-width="2" class="data-point"/>
  
    <circle cx="485.4901960784313" cy="260.6719361475042" r="4" fill="#3b82f6" stroke="#0d1117" stroke-width="2" class="data-point"/>
  
    <circle cx="488.921568627451" cy="257.9974941607759" r="4" fill="#3b82f6" stroke="#0d1117" stroke-width="2" class="data-point"/>
  
    <circle cx="492.3529411764706" cy="255.8990858327275" r="4" fill="#3b82f6" stroke="#0d1117" stroke-width="2" class="data-point"/>
  
    <circle cx="495.7843137254902" cy="253.55233646305433" r="4" fill="#3b82f6" stroke="#0d1117" stroke-width="2" class="data-point"/>
  
    <circle cx="499.2156862745098" cy="249.97710714782903" r="4" fill="#3b82f6" stroke="#0d1117" stroke-width="2" class="data-point"/>
  
    <circle cx="502.6470588235294" cy="245.1587031508608" r="4" fill="#3b82f6" stroke="#0d1117" stroke-width="2" class="data-point"/>
  
    <circle cx="506.078431372549" cy="242.01402960602638" r="4" fill="#3b82f6" stroke="#0d1117" stroke-width="2" class="data-point"/>
  
    <circle cx="509.5098039215687" cy="238.2712802982258" r="4" fill="#3b82f6" stroke="#0d1117" stroke-width="2" class="data-point"/>
  
    <circle cx="512.9411764705883" cy="234.1009141672725" r="4" fill="#3b82f6" stroke="#0d1117" stroke-width="2" class="data-point"/>
  
    <circle cx="516.3725490196078" cy="230.756392210243" r="4" fill="#3b82f6" stroke="#0d1117" stroke-width="2" class="data-point"/>
  
    <circle cx="519.8039215686274" cy="227.1267923711117" r="4" fill="#3b82f6" stroke="#0d1117" stroke-width="2" class="data-point"/>
  
    <circle cx="523.2352941176471" cy="223.90717567170412" r="4" fill="#3b82f6" stroke="#0d1117" stroke-width="2" class="data-point"/>
  
    <circle cx="526.6666666666666" cy="220.7169484446782" r="4" fill="#3b82f6" stroke="#0d1117" stroke-width="2" class="data-point"/>
  
    <circle cx="530.0980392156862" cy="217.53553805936673" r="4" fill="#3b82f6" stroke="#0d1117" stroke-width="2" class="data-point"/>
  
    <circle cx="533.5294117647059" cy="213.20352983031447" r="4" fill="#3b82f6" stroke="#0d1117" stroke-width="2" class="data-point"/>
  
    <circle cx="536.9607843137255" cy="208.85829633869048" r="4" fill="#3b82f6" stroke="#0d1117" stroke-width="2" class="data-point"/>
  
    <circle cx="540.3921568627451" cy="205.23604386765456" r="4" fill="#3b82f6" stroke="#0d1117" stroke-width="2" class="data-point"/>
  
    <circle cx="543.8235294117646" cy="202.2001113706322" r="4" fill="#3b82f6" stroke="#0d1117" stroke-width="2" class="data-point"/>
  
    <circle cx="547.2549019607843" cy="199.25528623799286" r="4" fill="#3b82f6" stroke="#0d1117" stroke-width="2" class="data-point"/>
  
    <circle cx="550.6862745098039" cy="195.34648641123607" r="4" fill="#3b82f6" stroke="#0d1117" stroke-width="2" class="data-point"/>
  
    <circle cx="554.1176470588235" cy="192.31496233507093" r="4" fill="#3b82f6" stroke="#0d1117" stroke-width="2" class="data-point"/>
  
    <circle cx="557.5490196078431" cy="189.31576667852556" r="4" fill="#3b82f6" stroke="#0d1117" stroke-width="2" class="data-point"/>
  
    <circle cx="560.9803921568628" cy="186.510541539699" r="4" fill="#3b82f6" stroke="#0d1117" stroke-width="2" class="data-point"/>
  
    <circle cx="564.4117647058824" cy="183.86842797259044" r="4" fill="#3b82f6" stroke="#0d1117" stroke-width="2" class="data-point"/>
  
    <circle cx="567.8431372549019" cy="181.1616575662423" r="4" fill="#3b82f6" stroke="#0d1117" stroke-width="2" class="data-point"/>
  
    <circle cx="571.2745098039215" cy="178.84723661618895" r="4" fill="#3b82f6" stroke="#0d1117" stroke-width="2" class="data-point"/>
  
    <circle cx="574.7058823529412" cy="176.45052514346705" r="4" fill="#3b82f6" stroke="#0d1117" stroke-width="2" class="data-point"/>
  
    <circle cx="578.1372549019608" cy="174.00385156769633" r="4" fill="#3b82f6" stroke="#0d1117" stroke-width="2" class="data-point"/>
  
    <circle cx="581.5686274509804" cy="171.4175779981129" r="4" fill="#3b82f6" stroke="#0d1117" stroke-width="2" class="data-point"/>
  
    <circle cx="585" cy="169.04437810329625" r="4" fill="#3b82f6" stroke="#0d1117" stroke-width="2" class="data-point"/>
  
    <circle cx="588.4313725490196" cy="166.87102662067474" r="4" fill="#3b82f6" stroke="#0d1117" stroke-width="2" class="data-point"/>
  
    <circle cx="591.8627450980392" cy="162.9328373215363" r="4" fill="#3b82f6" stroke="#0d1117" stroke-width="2" class="data-point"/>
  
    <circle cx="595.2941176470588" cy="159.6368079939365" r="4" fill="#3b82f6" stroke="#0d1117" stroke-width="2" class="data-point"/>
  
    <circle cx="598.7254901960785" cy="156.47156181843494" r="4" fill="#3b82f6" stroke="#0d1117" stroke-width="2" class="data-point"/>
  
    <circle cx="602.156862745098" cy="153.4312209005553" r="4" fill="#3b82f6" stroke="#0d1117" stroke-width="2" class="data-point"/>
  
    <circle cx="605.5882352941177" cy="148.63045058701604" r="4" fill="#3b82f6" stroke="#0d1117" stroke-width="2" class="data-point"/>
  
    <circle cx="609.0196078431372" cy="145.59304861637457" r="4" fill="#3b82f6" stroke="#0d1117" stroke-width="2" class="data-point"/>
  
    <circle cx="612.4509803921568" cy="142.9641603118378" r="4" fill="#3b82f6" stroke="#0d1117" stroke-width="2" class="data-point"/>
  
    <circle cx="615.8823529411765" cy="139.85916255471855" r="4" fill="#3b82f6" stroke="#0d1117" stroke-width="2" class="data-point"/>
  
    <circle cx="619.3137254901961" cy="135.28175223127968" r="4" fill="#3b82f6" stroke="#0d1117" stroke-width="2" class="data-point"/>
  
    <circle cx="622.7450980392157" cy="131.98866185091805" r="4" fill="#3b82f6" stroke="#0d1117" stroke-width="2" class="data-point"/>
  
    <circle cx="626.1764705882352" cy="129.20841776361584" r="4" fill="#3b82f6" stroke="#0d1117" stroke-width="2" class="data-point"/>
  
    <circle cx="629.6078431372549" cy="126.85579049946634" r="4" fill="#3b82f6" stroke="#0d1117" stroke-width="2" class="data-point"/>
  
    <circle cx="633.0392156862745" cy="124.62366007208155" r="4" fill="#3b82f6" stroke="#0d1117" stroke-width="2" class="data-point"/>
  
    <circle cx="636.4705882352941" cy="122.8088601525159" r="4" fill="#3b82f6" stroke="#0d1117" stroke-width="2" class="data-point"/>
  
    <circle cx="639.9019607843138" cy="120.76482234837351" r="4" fill="#3b82f6" stroke="#0d1117" stroke-width="2" class="data-point"/>
  
    <circle cx="643.3333333333334" cy="119.0984392643351" r="4" fill="#3b82f6" stroke="#0d1117" stroke-width="2" class="data-point"/>
  
    <circle cx="646.7647058823529" cy="117.13228356200406" r="4" fill="#3b82f6" stroke="#0d1117" stroke-width="2" class="data-point"/>
  
    <circle cx="650.1960784313726" cy="114.30207737165307" r="4" fill="#3b82f6" stroke="#0d1117" stroke-width="2" class="data-point"/>
  
    <circle cx="653.6274509803922" cy="111.8700985320732" r="4" fill="#3b82f6" stroke="#0d1117" stroke-width="2" class="data-point"/>
  
    <circle cx="657.0588235294117" cy="109.7555259942149" r="4" fill="#3b82f6" stroke="#0d1117" stroke-width="2" class="data-point"/>
  
    <circle cx="660.4901960784314" cy="107.92750081207751" r="4" fill="#3b82f6" stroke="#0d1117" stroke-width="2" class="data-point"/>
  
    <circle cx="663.921568627451" cy="106.04216615879594" r="4" fill="#3b82f6" stroke="#0d1117" stroke-width="2" class="data-point"/>
  
    <circle cx="667.3529411764706" cy="104.45219570294978" r="4" fill="#3b82f6" stroke="#0d1117" stroke-width="2" class="data-point"/>
  
    <circle cx="670.7843137254902" cy="101.77922318984054" r="4" fill="#3b82f6" stroke="#0d1117" stroke-width="2" class="data-point"/>
  
    <circle cx="674.2156862745098" cy="99.4941917121688" r="4" fill="#3b82f6" stroke="#0d1117" stroke-width="2" class="data-point"/>
  
    <circle cx="677.6470588235294" cy="97.22826339154514" r="4" fill="#3b82f6" stroke="#0d1117" stroke-width="2" class="data-point"/>
  
    <circle cx="681.078431372549" cy="95.35762347445436" r="4" fill="#3b82f6" stroke="#0d1117" stroke-width="2" class="data-point"/>
  
    <circle cx="684.5098039215686" cy="93.64127828736719" r="4" fill="#3b82f6" stroke="#0d1117" stroke-width="2" class="data-point"/>
  
    <circle cx="687.9411764705883" cy="92.11743414437964" r="4" fill="#3b82f6" stroke="#0d1117" stroke-width="2" class="data-point"/>
  
    <circle cx="691.3725490196078" cy="89.50471004965274" r="4" fill="#3b82f6" stroke="#0d1117" stroke-width="2" class="data-point"/>
  
    <circle cx="694.8039215686274" cy="87.38279014369905" r="4" fill="#3b82f6" stroke="#0d1117" stroke-width="2" class="data-point"/>
  
    <circle cx="698.2352941176471" cy="85.44896286098779" r="4" fill="#3b82f6" stroke="#0d1117" stroke-width="2" class="data-point"/>
  
    <circle cx="701.6666666666666" cy="83.60183452180235" r="4" fill="#3b82f6" stroke="#0d1117" stroke-width="2" class="data-point"/>
  
    <circle cx="705.0980392156862" cy="81.98982196166992" r="4" fill="#3b82f6" stroke="#0d1117" stroke-width="2" class="data-point"/>
  
    <circle cx="708.5294117647059" cy="80.42483255734817" r="4" fill="#3b82f6" stroke="#0d1117" stroke-width="2" class="data-point"/>
  
    <circle cx="711.9607843137255" cy="78.99062630512464" r="4" fill="#3b82f6" stroke="#0d1117" stroke-width="2" class="data-point"/>
  
    <circle cx="715.3921568627451" cy="77.61519899766432" r="4" fill="#3b82f6" stroke="#0d1117" stroke-width="2" class="data-point"/>
  
    <circle cx="718.8235294117648" cy="76.35439063249237" r="4" fill="#3b82f6" stroke="#0d1117" stroke-width="2" class="data-point"/>
  
    <circle cx="722.2549019607843" cy="74.7805843864561" r="4" fill="#3b82f6" stroke="#0d1117" stroke-width="2" class="data-point"/>
  
    <circle cx="725.6862745098039" cy="73.09068972451234" r="4" fill="#3b82f6" stroke="#0d1117" stroke-width="2" class="data-point"/>
  
    <circle cx="729.1176470588235" cy="71.53598663552413" r="4" fill="#3b82f6" stroke="#0d1117" stroke-width="2" class="data-point"/>
  
    <circle cx="732.5490196078432" cy="69.12017200575411" r="4" fill="#3b82f6" stroke="#0d1117" stroke-width="2" class="data-point"/>
  
    <circle cx="735.9803921568628" cy="67.36708997818994" r="4" fill="#3b82f6" stroke="#0d1117" stroke-width="2" class="data-point"/>
  
    <circle cx="739.4117647058823" cy="65.6904205788179" r="4" fill="#3b82f6" stroke="#0d1117" stroke-width="2" class="data-point"/>
  
    <circle cx="742.843137254902" cy="64.21947748611734" r="4" fill="#3b82f6" stroke="#0d1117" stroke-width="2" class="data-point"/>
  
    <circle cx="746.2745098039215" cy="62.49431545731562" r="4" fill="#3b82f6" stroke="#0d1117" stroke-width="2" class="data-point"/>
  
    <circle cx="749.7058823529412" cy="60.375334498600125" r="4" fill="#3b82f6" stroke="#0d1117" stroke-width="2" class="data-point"/>
  
    <circle cx="753.1372549019608" cy="58.497347213413946" r="4" fill="#3b82f6" stroke="#0d1117" stroke-width="2" class="data-point"/>
  
    <circle cx="756.5686274509804" cy="56.82067781404197" r="4" fill="#3b82f6" stroke="#0d1117" stroke-width="2" class="data-point"/>
  
    <circle cx="760" cy="55" r="4" fill="#3b82f6" stroke="#0d1117" stroke-width="2" class="data-point"/>
  

  <!-- Axis lines -->
  <line x1="60" y1="55" x2="60" y2="340"
        stroke="#30363d" stroke-width="2"/>
  <line x1="60" y1="340" x2="760" y2="340"
        stroke="#30363d" stroke-width="2"/>
</svg>