<?xml version="1.0" encoding="UTF-8"?>
<svg width="800" height="400" xmlns="http://www.w3.org/2000/svg">
  <defs>
    <!-- Gradient for area fill -->
    <linearGradient id="areaGradient" x1="0%" y1="0%" x2="0%" y2="100%">
      <stop offset="0%" style="stop-color:#3b82f6;stop-opacity:0.3" />
      <stop offset="100%" style="stop-color:#3b82f6;stop-opacity:0.05" />
    </linearGradient>

    <!-- Glow filter for line -->
    <filter id="glow">
      <feGaussianBlur stdDeviation="2" result="coloredBlur"/>
      <feMerge>
        <feMergeNode in="coloredBlur"/>
        <feMergeNode in="SourceGraphic"/>
      </feMerge>
    </filter>

    <!-- Animation -->
    <style>
      @keyframes draw {
        from { stroke-dashoffset: 2000; }
        to { stroke-dashoffset: 0; }
      }
      @keyframes fadeIn {
        from { opacity: 0; }
        to { opacity: 1; }
      }
      .line-path {
        stroke-dasharray: 2000;
        stroke-dashoffset: 2000;
        animation: draw 1.5s ease-out forwards;
      }
      .area-path {
        opacity: 0;
        animation: fadeIn 1s ease-out 0.5s forwards;
      }
      .data-point {
        opacity: 0;
        animation: fadeIn 0.5s ease-out 1s forwards;
      }
    </style>
  </defs>

  <!-- Background -->
  <rect width="800" height="400" fill="#0d1117" rx="8"/>

  <!-- Title -->
  <text x="400" y="25" text-anchor="middle" fill="#c9d1d9" font-family="system-ui, -apple-system, sans-serif" font-size="16" font-weight="600">
    zxcloli666/SoundCloud-Desktop Downloads
  </text>

  <!-- Stats -->
  <text x="780" y="25" text-anchor="end" fill="#58a6ff" font-family="system-ui, -apple-system, sans-serif" font-size="14" font-weight="600">
    211.8K total
  </text>
  <text x="780" y="42" text-anchor="end" fill="#3fb950" font-family="system-ui, -apple-system, sans-serif" font-size="12">
    +1.3K (+0.6%)
  </text>

  <!-- Grid lines -->
  <g opacity="0.1">
    
      <line x1="60" y1="340" x2="760" y2="340"
            stroke="#c9d1d9" stroke-width="1"/>
    
      <line x1="60" y1="268.75" x2="760" y2="268.75"
            stroke="#c9d1d9" stroke-width="1"/>
    
      <line x1="60" y1="197.5" x2="760" y2="197.5"
            stroke="#c9d1d9" stroke-width="1"/>
    
      <line x1="60" y1="126.25" x2="760" y2="126.25"
            stroke="#c9d1d9" stroke-width="1"/>
    
      <line x1="60" y1="55" x2="760" y2="55"
            stroke="#c9d1d9" stroke-width="1"/>
    
  </g>

  <!-- Y-axis labels -->
  
    <text x="50" y="344" text-anchor="end"
          fill="#8b949e" font-family="system-ui, -apple-system, sans-serif" font-size="11">
      60.2K
    </text>
  
    <text x="50" y="272.75" text-anchor="end"
          fill="#8b949e" font-family="system-ui, -apple-system, sans-serif" font-size="11">
      98.1K
    </text>
  
    <text x="50" y="201.5" text-anchor="end"
          fill="#8b949e" font-family="system-ui, -apple-system, sans-serif" font-size="11">
      136.0K
    </text>
  
    <text x="50" y="130.25" text-anchor="end"
          fill="#8b949e" font-family="system-ui, -apple-system, sans-serif" font-size="11">
      173.9K
    </text>
  
    <text x="50" y="59" text-anchor="end"
          fill="#8b949e" font-family="system-ui, -apple-system, sans-serif" font-size="11">
      211.8K
    </text>
  

  <!-- X-axis labels -->
  
    <text x="60" y="360" text-anchor="middle"
          fill="#8b949e" font-family="system-ui, -apple-system, sans-serif" font-size="11">
      Nov 25
    </text>
  
    <text x="145.96491228070175" y="360" text-anchor="middle"
          fill="#8b949e" font-family="system-ui, -apple-system, sans-serif" font-size="11">
      Dec 16
    </text>
  
    <text x="231.9298245614035" y="360" text-anchor="middle"
          fill="#8b949e" font-family="system-ui, -apple-system, sans-serif" font-size="11">
      Jan 6
    </text>
  
    <text x="317.89473684210526" y="360" text-anchor="middle"
          fill="#8b949e" font-family="system-ui, -apple-system, sans-serif" font-size="11">
      Jan 27
    </text>
  
    <text x="403.859649122807" y="360" text-anchor="middle"
          fill="#8b949e" font-family="system-ui, -apple-system, sans-serif" font-size="11">
      Feb 17
    </text>
  
    <text x="489.82456140350877" y="360" text-anchor="middle"
          fill="#8b949e" font-family="system-ui, -apple-system, sans-serif" font-size="11">
      Mar 10
    </text>
  
    <text x="575.7894736842105" y="360" text-anchor="middle"
          fill="#8b949e" font-family="system-ui, -apple-system, sans-serif" font-size="11">
      Mar 31
    </text>
  
    <text x="661.7543859649123" y="360" text-anchor="middle"
          fill="#8b949e" font-family="system-ui, -apple-system, sans-serif" font-size="11">
      Apr 21
    </text>
  
    <text x="747.719298245614" y="360" text-anchor="middle"
          fill="#8b949e" font-family="system-ui, -apple-system, sans-serif" font-size="11">
      May 12
    </text>
  
    <text x="760" y="360" text-anchor="middle"
          fill="#8b949e" font-family="system-ui, -apple-system, sans-serif" font-size="11">
      May 15
    </text>
  

  <!-- Area under line -->
  <path d="M 60 340
    L 60.00 340.00 L 64.09 339.72 L 68.19 339.25 L 72.28 338.82 L 76.37 337.95 L 80.47 337.06 L 84.56 336.35 L 88.65 335.69 L 92.75 335.11 L 96.84 334.42 L 100.94 333.66 L 105.03 332.84 L 109.12 332.10 L 113.22 331.31 L 117.31 330.73 L 121.40 330.13 L 125.50 329.32 L 129.59 328.78 L 133.68 328.02 L 137.78 327.16 L 141.87 326.50 L 145.96 325.96 L 150.06 325.62 L 154.15 325.33 L 158.25 324.79 L 162.34 324.41 L 166.43 323.57 L 170.53 323.25 L 174.62 322.82 L 178.71 322.27 L 182.81 321.90 L 186.90 321.51 L 190.99 321.11 L 195.09 320.84 L 199.18 320.60 L 203.27 320.23 L 207.37 319.78 L 211.46 319.37 L 215.56 318.86 L 219.65 318.29 L 223.74 317.77 L 227.84 317.15 L 231.93 316.53 L 236.02 315.92 L 240.12 315.24 L 244.21 314.60 L 248.30 313.87 L 252.40 313.21 L 256.49 312.66 L 260.58 312.21 L 264.68 311.59 L 268.77 310.88 L 272.87 310.24 L 276.96 309.48 L 281.05 308.55 L 285.15 307.85 L 289.24 307.27 L 293.33 306.72 L 297.43 306.06 L 301.52 305.30 L 305.61 304.45 L 309.71 303.56 L 313.80 302.70 L 317.89 301.95 L 321.99 301.20 L 326.08 300.54 L 330.18 299.87 L 334.27 299.11 L 338.36 298.18 L 342.46 297.48 L 346.55 296.86 L 350.64 296.16 L 354.74 295.52 L 358.83 294.81 L 362.92 294.07 L 367.02 293.29 L 371.11 292.61 L 375.20 292.03 L 379.30 291.40 L 383.39 290.71 L 387.49 290.07 L 391.58 289.23 L 395.67 288.52 L 399.77 287.83 L 403.86 287.26 L 407.95 286.70 L 412.05 286.14 L 416.14 285.47 L 420.23 284.79 L 424.33 283.96 L 428.42 283.28 L 432.51 282.73 L 436.61 282.17 L 440.70 281.62 L 444.80 280.96 L 448.89 280.27 L 452.98 278.75 L 457.08 275.74 L 461.17 272.14 L 465.26 268.87 L 469.36 267.20 L 473.45 264.70 L 477.54 263.04 L 481.64 261.58 L 485.73 260.15 L 489.82 258.81 L 493.92 256.72 L 498.01 255.06 L 502.11 252.94 L 506.20 252.50 L 510.29 252.45 L 514.39 252.37 L 518.48 252.31 L 522.57 252.23 L 526.67 252.16 L 530.76 252.13 L 534.85 252.03 L 538.95 251.93 L 543.04 251.86 L 547.13 251.84 L 551.23 251.73 L 555.32 249.00 L 559.42 244.73 L 563.51 241.87 L 567.60 238.56 L 571.70 235.14 L 575.79 232.45 L 579.88 229.45 L 583.98 224.88 L 588.07 218.72 L 592.16 214.70 L 596.26 209.91 L 600.35 204.58 L 604.44 200.30 L 608.54 195.66 L 612.63 191.54 L 616.73 187.46 L 620.82 183.39 L 624.91 177.85 L 629.01 172.30 L 633.10 167.67 L 637.19 163.78 L 641.29 160.02 L 645.38 155.02 L 649.47 151.14 L 653.57 147.31 L 657.66 143.72 L 661.75 140.34 L 665.85 136.88 L 669.94 133.92 L 674.04 130.86 L 678.13 127.73 L 682.22 124.42 L 686.32 121.38 L 690.41 118.61 L 694.50 113.57 L 698.60 109.35 L 702.69 105.31 L 706.78 101.42 L 710.88 95.28 L 714.97 91.40 L 719.06 88.03 L 723.16 84.06 L 727.25 78.21 L 731.35 74.00 L 735.44 70.44 L 739.53 67.43 L 743.63 64.58 L 747.72 62.26 L 751.81 59.65 L 755.91 57.51 L 760.00 55.00
    L 760 340
    Z" fill="url(#areaGradient)" class="area-path"/>

  <!-- Main line with glow -->
  <path d="M 60.00 340.00 L 64.09 339.72 L 68.19 339.25 L 72.28 338.82 L 76.37 337.95 L 80.47 337.06 L 84.56 336.35 L 88.65 335.69 L 92.75 335.11 L 96.84 334.42 L 100.94 333.66 L 105.03 332.84 L 109.12 332.10 L 113.22 331.31 L 117.31 330.73 L 121.40 330.13 L 125.50 329.32 L 129.59 328.78 L 133.68 328.02 L 137.78 327.16 L 141.87 326.50 L 145.96 325.96 L 150.06 325.62 L 154.15 325.33 L 158.25 324.79 L 162.34 324.41 L 166.43 323.57 L 170.53 323.25 L 174.62 322.82 L 178.71 322.27 L 182.81 321.90 L 186.90 321.51 L 190.99 321.11 L 195.09 320.84 L 199.18 320.60 L 203.27 320.23 L 207.37 319.78 L 211.46 319.37 L 215.56 318.86 L 219.65 318.29 L 223.74 317.77 L 227.84 317.15 L 231.93 316.53 L 236.02 315.92 L 240.12 315.24 L 244.21 314.60 L 248.30 313.87 L 252.40 313.21 L 256.49 312.66 L 260.58 312.21 L 264.68 311.59 L 268.77 310.88 L 272.87 310.24 L 276.96 309.48 L 281.05 308.55 L 285.15 307.85 L 289.24 307.27 L 293.33 306.72 L 297.43 306.06 L 301.52 305.30 L 305.61 304.45 L 309.71 303.56 L 313.80 302.70 L 317.89 301.95 L 321.99 301.20 L 326.08 300.54 L 330.18 299.87 L 334.27 299.11 L 338.36 298.18 L 342.46 297.48 L 346.55 296.86 L 350.64 296.16 L 354.74 295.52 L 358.83 294.81 L 362.92 294.07 L 367.02 293.29 L 371.11 292.61 L 375.20 292.03 L 379.30 291.40 L 383.39 290.71 L 387.49 290.07 L 391.58 289.23 L 395.67 288.52 L 399.77 287.83 L 403.86 287.26 L 407.95 286.70 L 412.05 286.14 L 416.14 285.47 L 420.23 284.79 L 424.33 283.96 L 428.42 283.28 L 432.51 282.73 L 436.61 282.17 L 440.70 281.62 L 444.80 280.96 L 448.89 280.27 L 452.98 278.75 L 457.08 275.74 L 461.17 272.14 L 465.26 268.87 L 469.36 267.20 L 473.45 264.70 L 477.54 263.04 L 481.64 261.58 L 485.73 260.15 L 489.82 258.81 L 493.92 256.72 L 498.01 255.06 L 502.11 252.94 L 506.20 252.50 L 510.29 252.45 L 514.39 252.37 L 518.48 252.31 L 522.57 252.23 L 526.67 252.16 L 530.76 252.13 L 534.85 252.03 L 538.95 251.93 L 543.04 251.86 L 547.13 251.84 L 551.23 251.73 L 555.32 249.00 L 559.42 244.73 L 563.51 241.87 L 567.60 238.56 L 571.70 235.14 L 575.79 232.45 L 579.88 229.45 L 583.98 224.88 L 588.07 218.72 L 592.16 214.70 L 596.26 209.91 L 600.35 204.58 L 604.44 200.30 L 608.54 195.66 L 612.63 191.54 L 616.73 187.46 L 620.82 183.39 L 624.91 177.85 L 629.01 172.30 L 633.10 167.67 L 637.19 163.78 L 641.29 160.02 L 645.38 155.02 L 649.47 151.14 L 653.57 147.31 L 657.66 143.72 L 661.75 140.34 L 665.85 136.88 L 669.94 133.92 L 674.04 130.86 L 678.13 127.73 L 682.22 124.42 L 686.32 121.38 L 690.41 118.61 L 694.50 113.57 L 698.60 109.35 L 702.69 105.31 L 706.78 101.42 L 710.88 95.28 L 714.97 91.40 L 719.06 88.03 L 723.16 84.06 L 727.25 78.21 L 731.35 74.00 L 735.44 70.44 L 739.53 67.43 L 743.63 64.58 L 747.72 62.26 L 751.81 59.65 L 755.91 57.51 L 760.00 55.00" fill="none" stroke="#3b82f6" stroke-width="3"
        stroke-linecap="round" stroke-linejoin="round" filter="url(#glow)" class="line-path"/>

  <!-- Data points -->
  
    <circle cx="60" cy="340" r="4" fill="#3b82f6" stroke="#0d1117" stroke-width="2" class="data-point"/>
  
    <circle cx="64.09356725146199" cy="339.72376619523294" r="4" fill="#3b82f6" stroke="#0d1117" stroke-width="2" class="data-point"/>
  
    <circle cx="68.18713450292398" cy="339.25398081297595" r="4" fill="#3b82f6" stroke="#0d1117" stroke-width="2" class="data-point"/>
  
    <circle cx="72.28070175438596" cy="338.8180199782415" r="4" fill="#3b82f6" stroke="#0d1117" stroke-width="2" class="data-point"/>
  
    <circle cx="76.37426900584795" cy="337.9517357333597" r="4" fill="#3b82f6" stroke="#0d1117" stroke-width="2" class="data-point"/>
  
    <circle cx="80.46783625730994" cy="337.0572643655425" r="4" fill="#3b82f6" stroke="#0d1117" stroke-width="2" class="data-point"/>
  
    <circle cx="84.56140350877193" cy="336.35258629215707" r="4" fill="#3b82f6" stroke="#0d1117" stroke-width="2" class="data-point"/>
  
    <circle cx="88.65497076023391" cy="335.69488675699733" r="4" fill="#3b82f6" stroke="#0d1117" stroke-width="2" class="data-point"/>
  
    <circle cx="92.7485380116959" cy="335.11047374146966" r="4" fill="#3b82f6" stroke="#0d1117" stroke-width="2" class="data-point"/>
  
    <circle cx="96.84210526315789" cy="334.42458708337455" r="4" fill="#3b82f6" stroke="#0d1117" stroke-width="2" class="data-point"/>
  
    <circle cx="100.93567251461988" cy="333.65977648106025" r="4" fill="#3b82f6" stroke="#0d1117" stroke-width="2" class="data-point"/>
  
    <circle cx="105.02923976608187" cy="332.84047077440414" r="4" fill="#3b82f6" stroke="#0d1117" stroke-width="2" class="data-point"/>
  
    <circle cx="109.12280701754386" cy="332.0963307289091" r="4" fill="#3b82f6" stroke="#0d1117" stroke-width="2" class="data-point"/>
  
    <circle cx="113.21637426900585" cy="331.3052121451884" r="4" fill="#3b82f6" stroke="#0d1117" stroke-width="2" class="data-point"/>
  
    <circle cx="117.30994152046783" cy="330.72831569577687" r="4" fill="#3b82f6" stroke="#0d1117" stroke-width="2" class="data-point"/>
  
    <circle cx="121.40350877192982" cy="330.13074868954607" r="4" fill="#3b82f6" stroke="#0d1117" stroke-width="2" class="data-point"/>
  
    <circle cx="125.49707602339181" cy="329.318959549006" r="4" fill="#3b82f6" stroke="#0d1117" stroke-width="2" class="data-point"/>
  
    <circle cx="129.5906432748538" cy="328.775887647117" r="4" fill="#3b82f6" stroke="#0d1117" stroke-width="2" class="data-point"/>
  
    <circle cx="133.68421052631578" cy="328.02423103550586" r="4" fill="#3b82f6" stroke="#0d1117" stroke-width="2" class="data-point"/>
  
    <circle cx="137.77777777777777" cy="327.15606764909506" r="4" fill="#3b82f6" stroke="#0d1117" stroke-width="2" class="data-point"/>
  
    <circle cx="141.87134502923976" cy="326.5021263969934" r="4" fill="#3b82f6" stroke="#0d1117" stroke-width="2" class="data-point"/>
  
    <circle cx="145.96491228070175" cy="325.9646919196914" r="4" fill="#3b82f6" stroke="#0d1117" stroke-width="2" class="data-point"/>
  
    <circle cx="150.05847953216374" cy="325.6170507368213" r="4" fill="#3b82f6" stroke="#0d1117" stroke-width="2" class="data-point"/>
  
    <circle cx="154.15204678362574" cy="325.327662941351" r="4" fill="#3b82f6" stroke="#0d1117" stroke-width="2" class="data-point"/>
  
    <circle cx="158.24561403508773" cy="324.7921076055781" r="4" fill="#3b82f6" stroke="#0d1117" stroke-width="2" class="data-point"/>
  
    <circle cx="162.33918128654972" cy="324.41064187518543" r="4" fill="#3b82f6" stroke="#0d1117" stroke-width="2" class="data-point"/>
  
    <circle cx="166.4327485380117" cy="323.5744238947681" r="4" fill="#3b82f6" stroke="#0d1117" stroke-width="2" class="data-point"/>
  
    <circle cx="170.5263157894737" cy="323.2455741271882" r="4" fill="#3b82f6" stroke="#0d1117" stroke-width="2" class="data-point"/>
  
    <circle cx="174.61988304093566" cy="322.8208881416279" r="4" fill="#3b82f6" stroke="#0d1117" stroke-width="2" class="data-point"/>
  
    <circle cx="178.71345029239765" cy="322.2721788151518" r="4" fill="#3b82f6" stroke="#0d1117" stroke-width="2" class="data-point"/>
  
    <circle cx="182.80701754385964" cy="321.89635050934623" r="4" fill="#3b82f6" stroke="#0d1117" stroke-width="2" class="data-point"/>
  
    <circle cx="186.90058479532163" cy="321.5148847789536" r="4" fill="#3b82f6" stroke="#0d1117" stroke-width="2" class="data-point"/>
  
    <circle cx="190.99415204678363" cy="321.1146276332707" r="4" fill="#3b82f6" stroke="#0d1117" stroke-width="2" class="data-point"/>
  
    <circle cx="195.08771929824562" cy="320.83651468697457" r="4" fill="#3b82f6" stroke="#0d1117" stroke-width="2" class="data-point"/>
  
    <circle cx="199.1812865497076" cy="320.595984571259" r="4" fill="#3b82f6" stroke="#0d1117" stroke-width="2" class="data-point"/>
  
    <circle cx="203.27485380116957" cy="320.22955197309864" r="4" fill="#3b82f6" stroke="#0d1117" stroke-width="2" class="data-point"/>
  
    <circle cx="207.36842105263156" cy="319.784195430719" r="4" fill="#3b82f6" stroke="#0d1117" stroke-width="2" class="data-point"/>
  
    <circle cx="211.46198830409355" cy="319.37454257739097" r="4" fill="#3b82f6" stroke="#0d1117" stroke-width="2" class="data-point"/>
  
    <circle cx="215.55555555555554" cy="318.8558995153793" r="4" fill="#3b82f6" stroke="#0d1117" stroke-width="2" class="data-point"/>
  
    <circle cx="219.64912280701753" cy="318.2902779151419" r="4" fill="#3b82f6" stroke="#0d1117" stroke-width="2" class="data-point"/>
  
    <circle cx="223.74269005847952" cy="317.77163485313025" r="4" fill="#3b82f6" stroke="#0d1117" stroke-width="2" class="data-point"/>
  
    <circle cx="227.83625730994152" cy="317.145880723964" r="4" fill="#3b82f6" stroke="#0d1117" stroke-width="2" class="data-point"/>
  
    <circle cx="231.9298245614035" cy="316.5314014439719" r="4" fill="#3b82f6" stroke="#0d1117" stroke-width="2" class="data-point"/>
  
    <circle cx="236.0233918128655" cy="315.91692216397985" r="4" fill="#3b82f6" stroke="#0d1117" stroke-width="2" class="data-point"/>
  
    <circle cx="240.1169590643275" cy="315.24418949658786" r="4" fill="#3b82f6" stroke="#0d1117" stroke-width="2" class="data-point"/>
  
    <circle cx="244.21052631578945" cy="314.6015230936604" r="4" fill="#3b82f6" stroke="#0d1117" stroke-width="2" class="data-point"/>
  
    <circle cx="248.30409356725144" cy="313.8667787558105" r="4" fill="#3b82f6" stroke="#0d1117" stroke-width="2" class="data-point"/>
  
    <circle cx="252.39766081871343" cy="313.2109583621798" r="4" fill="#3b82f6" stroke="#0d1117" stroke-width="2" class="data-point"/>
  
    <circle cx="256.49122807017545" cy="312.6566116111166" r="4" fill="#3b82f6" stroke="#0d1117" stroke-width="2" class="data-point"/>
  
    <circle cx="260.58479532163744" cy="312.21313421026605" r="4" fill="#3b82f6" stroke="#0d1117" stroke-width="2" class="data-point"/>
  
    <circle cx="264.67836257309943" cy="311.5930175056869" r="4" fill="#3b82f6" stroke="#0d1117" stroke-width="2" class="data-point"/>
  
    <circle cx="268.7719298245614" cy="310.8845811492434" r="4" fill="#3b82f6" stroke="#0d1117" stroke-width="2" class="data-point"/>
  
    <circle cx="272.8654970760234" cy="310.23627732172883" r="4" fill="#3b82f6" stroke="#0d1117" stroke-width="2" class="data-point"/>
  
    <circle cx="276.9590643274854" cy="309.4789832855306" r="4" fill="#3b82f6" stroke="#0d1117" stroke-width="2" class="data-point"/>
  
    <circle cx="281.0526315789474" cy="308.5450499456038" r="4" fill="#3b82f6" stroke="#0d1117" stroke-width="2" class="data-point"/>
  
    <circle cx="285.14619883040933" cy="307.8497675798635" r="4" fill="#3b82f6" stroke="#0d1117" stroke-width="2" class="data-point"/>
  
    <circle cx="289.2397660818713" cy="307.27287113045196" r="4" fill="#3b82f6" stroke="#0d1117" stroke-width="2" class="data-point"/>
  
    <circle cx="293.3333333333333" cy="306.72416180397585" r="4" fill="#3b82f6" stroke="#0d1117" stroke-width="2" class="data-point"/>
  
    <circle cx="297.4269005847953" cy="306.0645831272871" r="4" fill="#3b82f6" stroke="#0d1117" stroke-width="2" class="data-point"/>
  
    <circle cx="301.5204678362573" cy="305.29789338344375" r="4" fill="#3b82f6" stroke="#0d1117" stroke-width="2" class="data-point"/>
  
    <circle cx="305.6140350877193" cy="304.4485214123232" r="4" fill="#3b82f6" stroke="#0d1117" stroke-width="2" class="data-point"/>
  
    <circle cx="309.7076023391813" cy="303.55592918603503" r="4" fill="#3b82f6" stroke="#0d1117" stroke-width="2" class="data-point"/>
  
    <circle cx="313.80116959064327" cy="302.69904064879836" r="4" fill="#3b82f6" stroke="#0d1117" stroke-width="2" class="data-point"/>
  
    <circle cx="317.89473684210526" cy="301.9455048956582" r="4" fill="#3b82f6" stroke="#0d1117" stroke-width="2" class="data-point"/>
  
    <circle cx="321.98830409356725" cy="301.19760656710514" r="4" fill="#3b82f6" stroke="#0d1117" stroke-width="2" class="data-point"/>
  
    <circle cx="326.08187134502924" cy="300.5380278904164" r="4" fill="#3b82f6" stroke="#0d1117" stroke-width="2" class="data-point"/>
  
    <circle cx="330.17543859649123" cy="299.8652952230244" r="4" fill="#3b82f6" stroke="#0d1117" stroke-width="2" class="data-point"/>
  
    <circle cx="334.2690058479532" cy="299.1136386114133" r="4" fill="#3b82f6" stroke="#0d1117" stroke-width="2" class="data-point"/>
  
    <circle cx="338.3625730994152" cy="298.17782612995745" r="4" fill="#3b82f6" stroke="#0d1117" stroke-width="2" class="data-point"/>
  
    <circle cx="342.45614035087715" cy="297.48066462268815" r="4" fill="#3b82f6" stroke="#0d1117" stroke-width="2" class="data-point"/>
  
    <circle cx="346.54970760233914" cy="296.8567896350509" r="4" fill="#3b82f6" stroke="#0d1117" stroke-width="2" class="data-point"/>
  
    <circle cx="350.64327485380113" cy="296.1633864108397" r="4" fill="#3b82f6" stroke="#0d1117" stroke-width="2" class="data-point"/>
  
    <circle cx="354.7368421052631" cy="295.5169617248541" r="4" fill="#3b82f6" stroke="#0d1117" stroke-width="2" class="data-point"/>
  
    <circle cx="358.8304093567251" cy="294.80664622688164" r="4" fill="#3b82f6" stroke="#0d1117" stroke-width="2" class="data-point"/>
  
    <circle cx="362.9239766081871" cy="294.06626446444466" r="4" fill="#3b82f6" stroke="#0d1117" stroke-width="2" class="data-point"/>
  
    <circle cx="367.0175438596491" cy="293.29205815448523" r="4" fill="#3b82f6" stroke="#0d1117" stroke-width="2" class="data-point"/>
  
    <circle cx="371.1111111111111" cy="292.6136880625062" r="4" fill="#3b82f6" stroke="#0d1117" stroke-width="2" class="data-point"/>
  
    <circle cx="375.2046783625731" cy="292.0330333300366" r="4" fill="#3b82f6" stroke="#0d1117" stroke-width="2" class="data-point"/>
  
    <circle cx="379.29824561403507" cy="291.3960043516962" r="4" fill="#3b82f6" stroke="#0d1117" stroke-width="2" class="data-point"/>
  
    <circle cx="383.39181286549706" cy="290.706359410543" r="4" fill="#3b82f6" stroke="#0d1117" stroke-width="2" class="data-point"/>
  
    <circle cx="387.48538011695905" cy="290.06745129067355" r="4" fill="#3b82f6" stroke="#0d1117" stroke-width="2" class="data-point"/>
  
    <circle cx="391.57894736842104" cy="289.2349915933142" r="4" fill="#3b82f6" stroke="#0d1117" stroke-width="2" class="data-point"/>
  
    <circle cx="395.67251461988303" cy="288.51903867075464" r="4" fill="#3b82f6" stroke="#0d1117" stroke-width="2" class="data-point"/>
  
    <circle cx="399.766081871345" cy="287.8293937296014" r="4" fill="#3b82f6" stroke="#0d1117" stroke-width="2" class="data-point"/>
  
    <circle cx="403.859649122807" cy="287.2562555632479" r="4" fill="#3b82f6" stroke="#0d1117" stroke-width="2" class="data-point"/>
  
    <circle cx="407.953216374269" cy="286.70002967065574" r="4" fill="#3b82f6" stroke="#0d1117" stroke-width="2" class="data-point"/>
  
    <circle cx="412.046783625731" cy="286.14192463653444" r="4" fill="#3b82f6" stroke="#0d1117" stroke-width="2" class="data-point"/>
  
    <circle cx="416.140350877193" cy="285.4748293937296" r="4" fill="#3b82f6" stroke="#0d1117" stroke-width="2" class="data-point"/>
  
    <circle cx="420.233918128655" cy="284.78894273563446" r="4" fill="#3b82f6" stroke="#0d1117" stroke-width="2" class="data-point"/>
  
    <circle cx="424.32748538011697" cy="283.95648303827517" r="4" fill="#3b82f6" stroke="#0d1117" stroke-width="2" class="data-point"/>
  
    <circle cx="428.4210526315789" cy="283.2818712293542" r="4" fill="#3b82f6" stroke="#0d1117" stroke-width="2" class="data-point"/>
  
    <circle cx="432.51461988304095" cy="282.731282761349" r="4" fill="#3b82f6" stroke="#0d1117" stroke-width="2" class="data-point"/>
  
    <circle cx="436.6081871345029" cy="282.16566116111164" r="4" fill="#3b82f6" stroke="#0d1117" stroke-width="2" class="data-point"/>
  
    <circle cx="440.70175438596493" cy="281.62446840075165" r="4" fill="#3b82f6" stroke="#0d1117" stroke-width="2" class="data-point"/>
  
    <circle cx="444.79532163742687" cy="280.9554940164178" r="4" fill="#3b82f6" stroke="#0d1117" stroke-width="2" class="data-point"/>
  
    <circle cx="448.8888888888889" cy="280.2696073583226" r="4" fill="#3b82f6" stroke="#0d1117" stroke-width="2" class="data-point"/>
  
    <circle cx="452.98245614035085" cy="278.7531401443972" r="4" fill="#3b82f6" stroke="#0d1117" stroke-width="2" class="data-point"/>
  
    <circle cx="457.0760233918129" cy="275.7352388487786" r="4" fill="#3b82f6" stroke="#0d1117" stroke-width="2" class="data-point"/>
  
    <circle cx="461.16959064327483" cy="272.1404411037484" r="4" fill="#3b82f6" stroke="#0d1117" stroke-width="2" class="data-point"/>
  
    <circle cx="465.2631578947369" cy="268.86509741865297" r="4" fill="#3b82f6" stroke="#0d1117" stroke-width="2" class="data-point"/>
  
    <circle cx="469.3567251461988" cy="267.2039363069924" r="4" fill="#3b82f6" stroke="#0d1117" stroke-width="2" class="data-point"/>
  
    <circle cx="473.45029239766086" cy="264.70091979032736" r="4" fill="#3b82f6" stroke="#0d1117" stroke-width="2" class="data-point"/>
  
    <circle cx="477.5438596491228" cy="263.03787953713777" r="4" fill="#3b82f6" stroke="#0d1117" stroke-width="2" class="data-point"/>
  
    <circle cx="481.6374269005848" cy="261.5796657106122" r="4" fill="#3b82f6" stroke="#0d1117" stroke-width="2" class="data-point"/>
  
    <circle cx="485.7309941520468" cy="260.1533972900801" r="4" fill="#3b82f6" stroke="#0d1117" stroke-width="2" class="data-point"/>
  
    <circle cx="489.82456140350877" cy="258.80981109682523" r="4" fill="#3b82f6" stroke="#0d1117" stroke-width="2" class="data-point"/>
  
    <circle cx="493.91812865497076" cy="256.72020571654633" r="4" fill="#3b82f6" stroke="#0d1117" stroke-width="2" class="data-point"/>
  
    <circle cx="498.01169590643275" cy="255.05904460488577" r="4" fill="#3b82f6" stroke="#0d1117" stroke-width="2" class="data-point"/>
  
    <circle cx="502.10526315789474" cy="252.93561467708435" r="4" fill="#3b82f6" stroke="#0d1117" stroke-width="2" class="data-point"/>
  
    <circle cx="506.19883040935673" cy="252.50153298387895" r="4" fill="#3b82f6" stroke="#0d1117" stroke-width="2" class="data-point"/>
  
    <circle cx="510.29239766081866" cy="252.4451587380081" r="4" fill="#3b82f6" stroke="#0d1117" stroke-width="2" class="data-point"/>
  
    <circle cx="514.3859649122808" cy="252.37187221837604" r="4" fill="#3b82f6" stroke="#0d1117" stroke-width="2" class="data-point"/>
  
    <circle cx="518.4795321637426" cy="252.3098605479181" r="4" fill="#3b82f6" stroke="#0d1117" stroke-width="2" class="data-point"/>
  
    <circle cx="522.5730994152048" cy="252.22905746216992" r="4" fill="#3b82f6" stroke="#0d1117" stroke-width="2" class="data-point"/>
  
    <circle cx="526.6666666666666" cy="252.15765008406686" r="4" fill="#3b82f6" stroke="#0d1117" stroke-width="2" class="data-point"/>
  
    <circle cx="530.7602339181287" cy="252.12946296113142" r="4" fill="#3b82f6" stroke="#0d1117" stroke-width="2" class="data-point"/>
  
    <circle cx="534.8538011695906" cy="252.02611017703492" r="4" fill="#3b82f6" stroke="#0d1117" stroke-width="2" class="data-point"/>
  
    <circle cx="538.9473684210527" cy="251.92651567599643" r="4" fill="#3b82f6" stroke="#0d1117" stroke-width="2" class="data-point"/>
  
    <circle cx="543.0409356725146" cy="251.8607457224805" r="4" fill="#3b82f6" stroke="#0d1117" stroke-width="2" class="data-point"/>
  
    <circle cx="547.1345029239767" cy="251.8363168826031" r="4" fill="#3b82f6" stroke="#0d1117" stroke-width="2" class="data-point"/>
  
    <circle cx="551.2280701754386" cy="251.72544753239046" r="4" fill="#3b82f6" stroke="#0d1117" stroke-width="2" class="data-point"/>
  
    <circle cx="555.3216374269007" cy="249.00069231530017" r="4" fill="#3b82f6" stroke="#0d1117" stroke-width="2" class="data-point"/>
  
    <circle cx="559.4152046783626" cy="244.73316190287807" r="4" fill="#3b82f6" stroke="#0d1117" stroke-width="2" class="data-point"/>
  
    <circle cx="563.5087719298245" cy="241.87498763722678" r="4" fill="#3b82f6" stroke="#0d1117" stroke-width="2" class="data-point"/>
  
    <circle cx="567.6023391812865" cy="238.5564236969637" r="4" fill="#3b82f6" stroke="#0d1117" stroke-width="2" class="data-point"/>
  
    <circle cx="571.6959064327485" cy="235.13638611413313" r="4" fill="#3b82f6" stroke="#0d1117" stroke-width="2" class="data-point"/>
  
    <circle cx="575.7894736842105" cy="232.45297201068144" r="4" fill="#3b82f6" stroke="#0d1117" stroke-width="2" class="data-point"/>
  
    <circle cx="579.8830409356725" cy="229.45198298882406" r="4" fill="#3b82f6" stroke="#0d1117" stroke-width="2" class="data-point"/>
  
    <circle cx="583.9766081871345" cy="224.88003164869946" r="4" fill="#3b82f6" stroke="#0d1117" stroke-width="2" class="data-point"/>
  
    <circle cx="588.0701754385965" cy="218.7183265750173" r="4" fill="#3b82f6" stroke="#0d1117" stroke-width="2" class="data-point"/>
  
    <circle cx="592.1637426900585" cy="214.69696370289785" r="4" fill="#3b82f6" stroke="#0d1117" stroke-width="2" class="data-point"/>
  
    <circle cx="596.2573099415205" cy="209.91079022846404" r="4" fill="#3b82f6" stroke="#0d1117" stroke-width="2" class="data-point"/>
  
    <circle cx="600.3508771929825" cy="204.57778656908317" r="4" fill="#3b82f6" stroke="#0d1117" stroke-width="2" class="data-point"/>
  
    <circle cx="604.4444444444445" cy="200.30086044901591" r="4" fill="#3b82f6" stroke="#0d1117" stroke-width="2" class="data-point"/>
  
    <circle cx="608.5380116959064" cy="195.65938087231726" r="4" fill="#3b82f6" stroke="#0d1117" stroke-width="2" class="data-point"/>
  
    <circle cx="612.6315789473684" cy="191.5421817822174" r="4" fill="#3b82f6" stroke="#0d1117" stroke-width="2" class="data-point"/>
  
    <circle cx="616.7251461988304" cy="187.46256552269807" r="4" fill="#3b82f6" stroke="#0d1117" stroke-width="2" class="data-point"/>
  
    <circle cx="620.8187134502924" cy="183.39422411235287" r="4" fill="#3b82f6" stroke="#0d1117" stroke-width="2" class="data-point"/>
  
    <circle cx="624.9122807017543" cy="177.85451488477895" r="4" fill="#3b82f6" stroke="#0d1117" stroke-width="2" class="data-point"/>
  
    <circle cx="629.0058479532164" cy="172.29789338344378" r="4" fill="#3b82f6" stroke="#0d1117" stroke-width="2" class="data-point"/>
  
    <circle cx="633.0994152046783" cy="167.66580951439028" r="4" fill="#3b82f6" stroke="#0d1117" stroke-width="2" class="data-point"/>
  
    <circle cx="637.1929824561404" cy="163.78350311541885" r="4" fill="#3b82f6" stroke="#0d1117" stroke-width="2" class="data-point"/>
  
    <circle cx="641.2865497076023" cy="160.01770349124715" r="4" fill="#3b82f6" stroke="#0d1117" stroke-width="2" class="data-point"/>
  
    <circle cx="645.3801169590644" cy="155.01918702403324" r="4" fill="#3b82f6" stroke="#0d1117" stroke-width="2" class="data-point"/>
  
    <circle cx="649.4736842105262" cy="151.1425180496489" r="4" fill="#3b82f6" stroke="#0d1117" stroke-width="2" class="data-point"/>
  
    <circle cx="653.5672514619883" cy="147.30719018890318" r="4" fill="#3b82f6" stroke="#0d1117" stroke-width="2" class="data-point"/>
  
    <circle cx="657.6608187134502" cy="143.7199090099891" r="4" fill="#3b82f6" stroke="#0d1117" stroke-width="2" class="data-point"/>
  
    <circle cx="661.7543859649123" cy="140.34121254079713" r="4" fill="#3b82f6" stroke="#0d1117" stroke-width="2" class="data-point"/>
  
    <circle cx="665.8479532163742" cy="136.87983384432795" r="4" fill="#3b82f6" stroke="#0d1117" stroke-width="2" class="data-point"/>
  
    <circle cx="669.9415204678363" cy="133.92018593610916" r="4" fill="#3b82f6" stroke="#0d1117" stroke-width="2" class="data-point"/>
  
    <circle cx="674.0350877192982" cy="130.85530610226485" r="4" fill="#3b82f6" stroke="#0d1117" stroke-width="2" class="data-point"/>
  
    <circle cx="678.1286549707603" cy="127.72653545643357" r="4" fill="#3b82f6" stroke="#0d1117" stroke-width="2" class="data-point"/>
  
    <circle cx="682.2222222222222" cy="124.41924636534466" r="4" fill="#3b82f6" stroke="#0d1117" stroke-width="2" class="data-point"/>
  
    <circle cx="686.3157894736842" cy="121.38443279596478" r="4" fill="#3b82f6" stroke="#0d1117" stroke-width="2" class="data-point"/>
  
    <circle cx="690.4093567251462" cy="118.60518247453268" r="4" fill="#3b82f6" stroke="#0d1117" stroke-width="2" class="data-point"/>
  
    <circle cx="694.5029239766081" cy="113.56908317673822" r="4" fill="#3b82f6" stroke="#0d1117" stroke-width="2" class="data-point"/>
  
    <circle cx="698.5964912280701" cy="109.35416872712887" r="4" fill="#3b82f6" stroke="#0d1117" stroke-width="2" class="data-point"/>
  
    <circle cx="702.6900584795321" cy="105.306497873603" r="4" fill="#3b82f6" stroke="#0d1117" stroke-width="2" class="data-point"/>
  
    <circle cx="706.7836257309941" cy="101.41855405004452" r="4" fill="#3b82f6" stroke="#0d1117" stroke-width="2" class="data-point"/>
  
    <circle cx="710.8771929824561" cy="95.2793986747107" r="4" fill="#3b82f6" stroke="#0d1117" stroke-width="2" class="data-point"/>
  
    <circle cx="714.9707602339181" cy="91.39521313421028" r="4" fill="#3b82f6" stroke="#0d1117" stroke-width="2" class="data-point"/>
  
    <circle cx="719.0643274853801" cy="88.03342893877954" r="4" fill="#3b82f6" stroke="#0d1117" stroke-width="2" class="data-point"/>
  
    <circle cx="723.1578947368421" cy="84.0628028879438" r="4" fill="#3b82f6" stroke="#0d1117" stroke-width="2" class="data-point"/>
  
    <circle cx="727.2514619883041" cy="78.20927702502223" r="4" fill="#3b82f6" stroke="#0d1117" stroke-width="2" class="data-point"/>
  
    <circle cx="731.3450292397661" cy="73.998120858471" r="4" fill="#3b82f6" stroke="#0d1117" stroke-width="2" class="data-point"/>
  
    <circle cx="735.438596491228" cy="70.44278508555038" r="4" fill="#3b82f6" stroke="#0d1117" stroke-width="2" class="data-point"/>
  
    <circle cx="739.53216374269" cy="67.43427949757688" r="4" fill="#3b82f6" stroke="#0d1117" stroke-width="2" class="data-point"/>
  
    <circle cx="743.625730994152" cy="64.57986351498369" r="4" fill="#3b82f6" stroke="#0d1117" stroke-width="2" class="data-point"/>
  
    <circle cx="747.719298245614" cy="62.25912372663436" r="4" fill="#3b82f6" stroke="#0d1117" stroke-width="2" class="data-point"/>
  
    <circle cx="751.812865497076" cy="59.64523785975672" r="4" fill="#3b82f6" stroke="#0d1117" stroke-width="2" class="data-point"/>
  
    <circle cx="755.906432748538" cy="57.5142913658392" r="4" fill="#3b82f6" stroke="#0d1117" stroke-width="2" class="data-point"/>
  
    <circle cx="760" cy="55" r="4" fill="#3b82f6" stroke="#0d1117" stroke-width="2" class="data-point"/>
  

  <!-- Axis lines -->
  <line x1="60" y1="55" x2="60" y2="340"
        stroke="#30363d" stroke-width="2"/>
  <line x1="60" y1="340" x2="760" y2="340"
        stroke="#30363d" stroke-width="2"/>
</svg>