<?xml version="1.0" encoding="UTF-8"?>
<svg width="800" height="400" xmlns="http://www.w3.org/2000/svg">
  <defs>
    <!-- Gradient for area fill -->
    <linearGradient id="areaGradient" x1="0%" y1="0%" x2="0%" y2="100%">
      <stop offset="0%" style="stop-color:#3b82f6;stop-opacity:0.3" />
      <stop offset="100%" style="stop-color:#3b82f6;stop-opacity:0.05" />
    </linearGradient>

    <!-- Glow filter for line -->
    <filter id="glow">
      <feGaussianBlur stdDeviation="2" result="coloredBlur"/>
      <feMerge>
        <feMergeNode in="coloredBlur"/>
        <feMergeNode in="SourceGraphic"/>
      </feMerge>
    </filter>

    <!-- Animation -->
    <style>
      @keyframes draw {
        from { stroke-dashoffset: 2000; }
        to { stroke-dashoffset: 0; }
      }
      @keyframes fadeIn {
        from { opacity: 0; }
        to { opacity: 1; }
      }
      .line-path {
        stroke-dasharray: 2000;
        stroke-dashoffset: 2000;
        animation: draw 1.5s ease-out forwards;
      }
      .area-path {
        opacity: 0;
        animation: fadeIn 1s ease-out 0.5s forwards;
      }
      .data-point {
        opacity: 0;
        animation: fadeIn 0.5s ease-out 1s forwards;
      }
    </style>
  </defs>

  <!-- Background -->
  <rect width="800" height="400" fill="#0d1117" rx="8"/>

  <!-- Title -->
  <text x="400" y="25" text-anchor="middle" fill="#c9d1d9" font-family="system-ui, -apple-system, sans-serif" font-size="16" font-weight="600">
    zxcloli666/SoundCloud-Desktop Downloads
  </text>

  <!-- Stats -->
  <text x="780" y="25" text-anchor="end" fill="#58a6ff" font-family="system-ui, -apple-system, sans-serif" font-size="14" font-weight="600">
    226.6K total
  </text>
  <text x="780" y="42" text-anchor="end" fill="#3fb950" font-family="system-ui, -apple-system, sans-serif" font-size="12">
    +1.3K (+0.6%)
  </text>

  <!-- Grid lines -->
  <g opacity="0.1">
    
      <line x1="60" y1="340" x2="760" y2="340"
            stroke="#c9d1d9" stroke-width="1"/>
    
      <line x1="60" y1="268.75" x2="760" y2="268.75"
            stroke="#c9d1d9" stroke-width="1"/>
    
      <line x1="60" y1="197.5" x2="760" y2="197.5"
            stroke="#c9d1d9" stroke-width="1"/>
    
      <line x1="60" y1="126.25" x2="760" y2="126.25"
            stroke="#c9d1d9" stroke-width="1"/>
    
      <line x1="60" y1="55" x2="760" y2="55"
            stroke="#c9d1d9" stroke-width="1"/>
    
  </g>

  <!-- Y-axis labels -->
  
    <text x="50" y="344" text-anchor="end"
          fill="#8b949e" font-family="system-ui, -apple-system, sans-serif" font-size="11">
      60.2K
    </text>
  
    <text x="50" y="272.75" text-anchor="end"
          fill="#8b949e" font-family="system-ui, -apple-system, sans-serif" font-size="11">
      101.8K
    </text>
  
    <text x="50" y="201.5" text-anchor="end"
          fill="#8b949e" font-family="system-ui, -apple-system, sans-serif" font-size="11">
      143.4K
    </text>
  
    <text x="50" y="130.25" text-anchor="end"
          fill="#8b949e" font-family="system-ui, -apple-system, sans-serif" font-size="11">
      185.0K
    </text>
  
    <text x="50" y="59" text-anchor="end"
          fill="#8b949e" font-family="system-ui, -apple-system, sans-serif" font-size="11">
      226.6K
    </text>
  

  <!-- X-axis labels -->
  
    <text x="60" y="360" text-anchor="middle"
          fill="#8b949e" font-family="system-ui, -apple-system, sans-serif" font-size="11">
      Nov 25
    </text>
  
    <text x="145.0828729281768" y="360" text-anchor="middle"
          fill="#8b949e" font-family="system-ui, -apple-system, sans-serif" font-size="11">
      Dec 17
    </text>
  
    <text x="230.1657458563536" y="360" text-anchor="middle"
          fill="#8b949e" font-family="system-ui, -apple-system, sans-serif" font-size="11">
      Jan 8
    </text>
  
    <text x="315.24861878453044" y="360" text-anchor="middle"
          fill="#8b949e" font-family="system-ui, -apple-system, sans-serif" font-size="11">
      Jan 30
    </text>
  
    <text x="400.3314917127072" y="360" text-anchor="middle"
          fill="#8b949e" font-family="system-ui, -apple-system, sans-serif" font-size="11">
      Feb 21
    </text>
  
    <text x="485.414364640884" y="360" text-anchor="middle"
          fill="#8b949e" font-family="system-ui, -apple-system, sans-serif" font-size="11">
      Mar 15
    </text>
  
    <text x="570.4972375690609" y="360" text-anchor="middle"
          fill="#8b949e" font-family="system-ui, -apple-system, sans-serif" font-size="11">
      Apr 6
    </text>
  
    <text x="655.5801104972376" y="360" text-anchor="middle"
          fill="#8b949e" font-family="system-ui, -apple-system, sans-serif" font-size="11">
      Apr 28
    </text>
  
    <text x="740.6629834254144" y="360" text-anchor="middle"
          fill="#8b949e" font-family="system-ui, -apple-system, sans-serif" font-size="11">
      May 20
    </text>
  
    <text x="760" y="360" text-anchor="middle"
          fill="#8b949e" font-family="system-ui, -apple-system, sans-serif" font-size="11">
      May 25
    </text>
  

  <!-- Area under line -->
  <path d="M 60 340
    L 60.00 340.00 L 63.87 339.75 L 67.73 339.32 L 71.60 338.92 L 75.47 338.13 L 79.34 337.32 L 83.20 336.68 L 87.07 336.08 L 90.94 335.55 L 94.81 334.92 L 98.67 334.22 L 102.54 333.48 L 106.41 332.80 L 110.28 332.08 L 114.14 331.55 L 118.01 331.01 L 121.88 330.27 L 125.75 329.77 L 129.61 329.09 L 133.48 328.30 L 137.35 327.70 L 141.22 327.21 L 145.08 326.90 L 148.95 326.63 L 152.82 326.15 L 156.69 325.80 L 160.55 325.04 L 164.42 324.74 L 168.29 324.35 L 172.15 323.85 L 176.02 323.51 L 179.89 323.16 L 183.76 322.80 L 187.62 322.54 L 191.49 322.32 L 195.36 321.99 L 199.23 321.58 L 203.09 321.21 L 206.96 320.74 L 210.83 320.22 L 214.70 319.75 L 218.56 319.18 L 222.43 318.62 L 226.30 318.06 L 230.17 317.45 L 234.03 316.86 L 237.90 316.19 L 241.77 315.60 L 245.64 315.09 L 249.50 314.69 L 253.37 314.12 L 257.24 313.48 L 261.10 312.89 L 264.97 312.20 L 268.84 311.34 L 272.71 310.71 L 276.57 310.19 L 280.44 309.69 L 284.31 309.09 L 288.18 308.39 L 292.04 307.61 L 295.91 306.80 L 299.78 306.02 L 303.65 305.33 L 307.51 304.65 L 311.38 304.05 L 315.25 303.44 L 319.12 302.75 L 322.98 301.90 L 326.85 301.27 L 330.72 300.70 L 334.59 300.07 L 338.45 299.48 L 342.32 298.83 L 346.19 298.15 L 350.06 297.45 L 353.92 296.83 L 357.79 296.30 L 361.66 295.72 L 365.52 295.09 L 369.39 294.51 L 373.26 293.75 L 377.13 293.10 L 380.99 292.47 L 384.86 291.95 L 388.73 291.44 L 392.60 290.94 L 396.46 290.33 L 400.33 289.70 L 404.20 288.94 L 408.07 288.33 L 411.93 287.83 L 415.80 287.31 L 419.67 286.82 L 423.54 286.21 L 427.40 285.59 L 431.27 284.20 L 435.14 281.46 L 439.01 278.18 L 442.87 275.20 L 446.74 273.68 L 450.61 271.40 L 454.48 269.89 L 458.34 268.56 L 462.21 267.26 L 466.08 266.04 L 469.94 264.13 L 473.81 262.62 L 477.68 260.68 L 481.55 260.29 L 485.41 260.24 L 489.28 260.17 L 493.15 260.11 L 497.02 260.04 L 500.88 259.98 L 504.75 259.95 L 508.62 259.86 L 512.49 259.77 L 516.35 259.71 L 520.22 259.68 L 524.09 259.58 L 527.96 257.10 L 531.82 253.21 L 535.69 250.61 L 539.56 247.59 L 543.43 244.47 L 547.29 242.03 L 551.16 239.29 L 555.03 235.13 L 558.90 229.51 L 562.76 225.85 L 566.63 221.49 L 570.50 216.63 L 574.36 212.73 L 578.23 208.51 L 582.10 204.76 L 585.97 201.04 L 589.83 197.33 L 593.70 192.29 L 597.57 187.22 L 601.44 183.00 L 605.30 179.47 L 609.17 176.04 L 613.04 171.48 L 616.91 167.95 L 620.77 164.46 L 624.64 161.19 L 628.51 158.11 L 632.38 154.96 L 636.24 152.26 L 640.11 149.47 L 643.98 146.62 L 647.85 143.61 L 651.71 140.84 L 655.58 138.31 L 659.45 133.72 L 663.31 129.88 L 667.18 126.20 L 671.05 122.65 L 674.92 117.06 L 678.78 113.52 L 682.65 110.46 L 686.52 106.84 L 690.39 101.51 L 694.25 97.67 L 698.12 94.44 L 701.99 91.69 L 705.86 89.09 L 709.72 86.98 L 713.59 84.60 L 717.46 82.66 L 721.33 80.37 L 725.19 77.07 L 729.06 74.24 L 732.93 71.77 L 736.80 69.64 L 740.66 67.45 L 744.53 65.59 L 748.40 62.48 L 752.27 59.82 L 756.13 57.18 L 760.00 55.00
    L 760 340
    Z" fill="url(#areaGradient)" class="area-path"/>

  <!-- Main line with glow -->
  <path d="M 60.00 340.00 L 63.87 339.75 L 67.73 339.32 L 71.60 338.92 L 75.47 338.13 L 79.34 337.32 L 83.20 336.68 L 87.07 336.08 L 90.94 335.55 L 94.81 334.92 L 98.67 334.22 L 102.54 333.48 L 106.41 332.80 L 110.28 332.08 L 114.14 331.55 L 118.01 331.01 L 121.88 330.27 L 125.75 329.77 L 129.61 329.09 L 133.48 328.30 L 137.35 327.70 L 141.22 327.21 L 145.08 326.90 L 148.95 326.63 L 152.82 326.15 L 156.69 325.80 L 160.55 325.04 L 164.42 324.74 L 168.29 324.35 L 172.15 323.85 L 176.02 323.51 L 179.89 323.16 L 183.76 322.80 L 187.62 322.54 L 191.49 322.32 L 195.36 321.99 L 199.23 321.58 L 203.09 321.21 L 206.96 320.74 L 210.83 320.22 L 214.70 319.75 L 218.56 319.18 L 222.43 318.62 L 226.30 318.06 L 230.17 317.45 L 234.03 316.86 L 237.90 316.19 L 241.77 315.60 L 245.64 315.09 L 249.50 314.69 L 253.37 314.12 L 257.24 313.48 L 261.10 312.89 L 264.97 312.20 L 268.84 311.34 L 272.71 310.71 L 276.57 310.19 L 280.44 309.69 L 284.31 309.09 L 288.18 308.39 L 292.04 307.61 L 295.91 306.80 L 299.78 306.02 L 303.65 305.33 L 307.51 304.65 L 311.38 304.05 L 315.25 303.44 L 319.12 302.75 L 322.98 301.90 L 326.85 301.27 L 330.72 300.70 L 334.59 300.07 L 338.45 299.48 L 342.32 298.83 L 346.19 298.15 L 350.06 297.45 L 353.92 296.83 L 357.79 296.30 L 361.66 295.72 L 365.52 295.09 L 369.39 294.51 L 373.26 293.75 L 377.13 293.10 L 380.99 292.47 L 384.86 291.95 L 388.73 291.44 L 392.60 290.94 L 396.46 290.33 L 400.33 289.70 L 404.20 288.94 L 408.07 288.33 L 411.93 287.83 L 415.80 287.31 L 419.67 286.82 L 423.54 286.21 L 427.40 285.59 L 431.27 284.20 L 435.14 281.46 L 439.01 278.18 L 442.87 275.20 L 446.74 273.68 L 450.61 271.40 L 454.48 269.89 L 458.34 268.56 L 462.21 267.26 L 466.08 266.04 L 469.94 264.13 L 473.81 262.62 L 477.68 260.68 L 481.55 260.29 L 485.41 260.24 L 489.28 260.17 L 493.15 260.11 L 497.02 260.04 L 500.88 259.98 L 504.75 259.95 L 508.62 259.86 L 512.49 259.77 L 516.35 259.71 L 520.22 259.68 L 524.09 259.58 L 527.96 257.10 L 531.82 253.21 L 535.69 250.61 L 539.56 247.59 L 543.43 244.47 L 547.29 242.03 L 551.16 239.29 L 555.03 235.13 L 558.90 229.51 L 562.76 225.85 L 566.63 221.49 L 570.50 216.63 L 574.36 212.73 L 578.23 208.51 L 582.10 204.76 L 585.97 201.04 L 589.83 197.33 L 593.70 192.29 L 597.57 187.22 L 601.44 183.00 L 605.30 179.47 L 609.17 176.04 L 613.04 171.48 L 616.91 167.95 L 620.77 164.46 L 624.64 161.19 L 628.51 158.11 L 632.38 154.96 L 636.24 152.26 L 640.11 149.47 L 643.98 146.62 L 647.85 143.61 L 651.71 140.84 L 655.58 138.31 L 659.45 133.72 L 663.31 129.88 L 667.18 126.20 L 671.05 122.65 L 674.92 117.06 L 678.78 113.52 L 682.65 110.46 L 686.52 106.84 L 690.39 101.51 L 694.25 97.67 L 698.12 94.44 L 701.99 91.69 L 705.86 89.09 L 709.72 86.98 L 713.59 84.60 L 717.46 82.66 L 721.33 80.37 L 725.19 77.07 L 729.06 74.24 L 732.93 71.77 L 736.80 69.64 L 740.66 67.45 L 744.53 65.59 L 748.40 62.48 L 752.27 59.82 L 756.13 57.18 L 760.00 55.00" fill="none" stroke="#3b82f6" stroke-width="3"
        stroke-linecap="round" stroke-linejoin="round" filter="url(#glow)" class="line-path"/>

  <!-- Data points -->
  
    <circle cx="60" cy="340" r="4" fill="#3b82f6" stroke="#0d1117" stroke-width="2" class="data-point"/>
  
    <circle cx="63.86740331491713" cy="339.74835268465847" r="4" fill="#3b82f6" stroke="#0d1117" stroke-width="2" class="data-point"/>
  
    <circle cx="67.73480662983425" cy="339.320381059928" r="4" fill="#3b82f6" stroke="#0d1117" stroke-width="2" class="data-point"/>
  
    <circle cx="71.60220994475138" cy="338.92322339217816" r="4" fill="#3b82f6" stroke="#0d1117" stroke-width="2" class="data-point"/>
  
    <circle cx="75.4696132596685" cy="338.1340437161752" r="4" fill="#3b82f6" stroke="#0d1117" stroke-width="2" class="data-point"/>
  
    <circle cx="79.33701657458563" cy="337.31918574268843" r="4" fill="#3b82f6" stroke="#0d1117" stroke-width="2" class="data-point"/>
  
    <circle cx="83.20441988950276" cy="336.67722830559273" r="4" fill="#3b82f6" stroke="#0d1117" stroke-width="2" class="data-point"/>
  
    <circle cx="87.07182320441989" cy="336.07806803097014" r="4" fill="#3b82f6" stroke="#0d1117" stroke-width="2" class="data-point"/>
  
    <circle cx="90.93922651933701" cy="335.54567132980543" r="4" fill="#3b82f6" stroke="#0d1117" stroke-width="2" class="data-point"/>
  
    <circle cx="94.80662983425414" cy="334.920832757699" r="4" fill="#3b82f6" stroke="#0d1117" stroke-width="2" class="data-point"/>
  
    <circle cx="98.67403314917127" cy="334.2240949526378" r="4" fill="#3b82f6" stroke="#0d1117" stroke-width="2" class="data-point"/>
  
    <circle cx="102.5414364640884" cy="333.4777124391079" r="4" fill="#3b82f6" stroke="#0d1117" stroke-width="2" class="data-point"/>
  
    <circle cx="106.40883977900552" cy="332.79980538553485" r="4" fill="#3b82f6" stroke="#0d1117" stroke-width="2" class="data-point"/>
  
    <circle cx="110.27624309392266" cy="332.07910116948875" r="4" fill="#3b82f6" stroke="#0d1117" stroke-width="2" class="data-point"/>
  
    <circle cx="114.14364640883977" cy="331.5535520143198" r="4" fill="#3b82f6" stroke="#0d1117" stroke-width="2" class="data-point"/>
  
    <circle cx="118.01104972375691" cy="331.00917210766266" r="4" fill="#3b82f6" stroke="#0d1117" stroke-width="2" class="data-point"/>
  
    <circle cx="121.87845303867402" cy="330.2696371401284" r="4" fill="#3b82f6" stroke="#0d1117" stroke-width="2" class="data-point"/>
  
    <circle cx="125.74585635359115" cy="329.77490194194" r="4" fill="#3b82f6" stroke="#0d1117" stroke-width="2" class="data-point"/>
  
    <circle cx="129.61325966850828" cy="329.09014734237127" r="4" fill="#3b82f6" stroke="#0d1117" stroke-width="2" class="data-point"/>
  
    <circle cx="133.48066298342542" cy="328.29925577986944" r="4" fill="#3b82f6" stroke="#0d1117" stroke-width="2" class="data-point"/>
  
    <circle cx="137.34806629834253" cy="327.70351927824464" r="4" fill="#3b82f6" stroke="#0d1117" stroke-width="2" class="data-point"/>
  
    <circle cx="141.21546961325967" cy="327.213919739553" r="4" fill="#3b82f6" stroke="#0d1117" stroke-width="2" class="data-point"/>
  
    <circle cx="145.0828729281768" cy="326.89722073725244" r="4" fill="#3b82f6" stroke="#0d1117" stroke-width="2" class="data-point"/>
  
    <circle cx="148.95027624309392" cy="326.6335902164185" r="4" fill="#3b82f6" stroke="#0d1117" stroke-width="2" class="data-point"/>
  
    <circle cx="152.81767955801104" cy="326.14570256422576" r="4" fill="#3b82f6" stroke="#0d1117" stroke-width="2" class="data-point"/>
  
    <circle cx="156.68508287292818" cy="325.79818960494464" r="4" fill="#3b82f6" stroke="#0d1117" stroke-width="2" class="data-point"/>
  
    <circle cx="160.55248618784532" cy="325.03640011292447" r="4" fill="#3b82f6" stroke="#0d1117" stroke-width="2" class="data-point"/>
  
    <circle cx="164.41988950276243" cy="324.7368199756131" r="4" fill="#3b82f6" stroke="#0d1117" stroke-width="2" class="data-point"/>
  
    <circle cx="168.28729281767954" cy="324.3499336268568" r="4" fill="#3b82f6" stroke="#0d1117" stroke-width="2" class="data-point"/>
  
    <circle cx="172.15469613259668" cy="323.85006276917164" r="4" fill="#3b82f6" stroke="#0d1117" stroke-width="2" class="data-point"/>
  
    <circle cx="176.02209944751382" cy="323.50768546938724" r="4" fill="#3b82f6" stroke="#0d1117" stroke-width="2" class="data-point"/>
  
    <circle cx="179.88950276243094" cy="323.1601725101061" r="4" fill="#3b82f6" stroke="#0d1117" stroke-width="2" class="data-point"/>
  
    <circle cx="183.75690607734805" cy="322.7955406858358" r="4" fill="#3b82f6" stroke="#0d1117" stroke-width="2" class="data-point"/>
  
    <circle cx="187.62430939226522" cy="322.54218148399536" r="4" fill="#3b82f6" stroke="#0d1117" stroke-width="2" class="data-point"/>
  
    <circle cx="191.4917127071823" cy="322.3230600121334" r="4" fill="#3b82f6" stroke="#0d1117" stroke-width="2" class="data-point"/>
  
    <circle cx="195.35911602209944" cy="321.9892421448436" r="4" fill="#3b82f6" stroke="#0d1117" stroke-width="2" class="data-point"/>
  
    <circle cx="199.22651933701655" cy="321.5835250445991" r="4" fill="#3b82f6" stroke="#0d1117" stroke-width="2" class="data-point"/>
  
    <circle cx="203.0939226519337" cy="321.2103337878342" r="4" fill="#3b82f6" stroke="#0d1117" stroke-width="2" class="data-point"/>
  
    <circle cx="206.96132596685084" cy="320.7378531141318" r="4" fill="#3b82f6" stroke="#0d1117" stroke-width="2" class="data-point"/>
  
    <circle cx="210.82872928176795" cy="320.2225752779563" r="4" fill="#3b82f6" stroke="#0d1117" stroke-width="2" class="data-point"/>
  
    <circle cx="214.6961325966851" cy="319.7500946042539" r="4" fill="#3b82f6" stroke="#0d1117" stroke-width="2" class="data-point"/>
  
    <circle cx="218.5635359116022" cy="319.18003640011295" r="4" fill="#3b82f6" stroke="#0d1117" stroke-width="2" class="data-point"/>
  
    <circle cx="222.43093922651934" cy="318.6202495149655" r="4" fill="#3b82f6" stroke="#0d1117" stroke-width="2" class="data-point"/>
  
    <circle cx="226.29834254143645" cy="318.06046262981806" r="4" fill="#3b82f6" stroke="#0d1117" stroke-width="2" class="data-point"/>
  
    <circle cx="230.1657458563536" cy="317.4476072632041" r="4" fill="#3b82f6" stroke="#0d1117" stroke-width="2" class="data-point"/>
  
    <circle cx="234.0331491712707" cy="316.86214208057277" r="4" fill="#3b82f6" stroke="#0d1117" stroke-width="2" class="data-point"/>
  
    <circle cx="237.90055248618785" cy="316.19279445949434" r="4" fill="#3b82f6" stroke="#0d1117" stroke-width="2" class="data-point"/>
  
    <circle cx="241.76795580110496" cy="315.59534607137067" r="4" fill="#3b82f6" stroke="#0d1117" stroke-width="2" class="data-point"/>
  
    <circle cx="245.6353591160221" cy="315.09033955418874" r="4" fill="#3b82f6" stroke="#0d1117" stroke-width="2" class="data-point"/>
  
    <circle cx="249.5027624309392" cy="314.6863343404432" r="4" fill="#3b82f6" stroke="#0d1117" stroke-width="2" class="data-point"/>
  
    <circle cx="253.37016574585635" cy="314.12141179579896" r="4" fill="#3b82f6" stroke="#0d1117" stroke-width="2" class="data-point"/>
  
    <circle cx="257.23756906077347" cy="313.4760305857055" r="4" fill="#3b82f6" stroke="#0d1117" stroke-width="2" class="data-point"/>
  
    <circle cx="261.10497237569064" cy="312.88542974357745" r="4" fill="#3b82f6" stroke="#0d1117" stroke-width="2" class="data-point"/>
  
    <circle cx="264.9723756906077" cy="312.1955394845119" r="4" fill="#3b82f6" stroke="#0d1117" stroke-width="2" class="data-point"/>
  
    <circle cx="268.83977900552486" cy="311.3447318945478" r="4" fill="#3b82f6" stroke="#0d1117" stroke-width="2" class="data-point"/>
  
    <circle cx="272.70718232044203" cy="310.71133388994673" r="4" fill="#3b82f6" stroke="#0d1117" stroke-width="2" class="data-point"/>
  
    <circle cx="276.5745856353591" cy="310.1857847347777" r="4" fill="#3b82f6" stroke="#0d1117" stroke-width="2" class="data-point"/>
  
    <circle cx="280.44198895027625" cy="309.68591387709256" r="4" fill="#3b82f6" stroke="#0d1117" stroke-width="2" class="data-point"/>
  
    <circle cx="284.30939226519337" cy="309.085041715971" r="4" fill="#3b82f6" stroke="#0d1117" stroke-width="2" class="data-point"/>
  
    <circle cx="288.1767955801105" cy="308.3865920244109" r="4" fill="#3b82f6" stroke="#0d1117" stroke-width="2" class="data-point"/>
  
    <circle cx="292.04419889502765" cy="307.61281932689826" r="4" fill="#3b82f6" stroke="#0d1117" stroke-width="2" class="data-point"/>
  
    <circle cx="295.91160220994476" cy="306.79967323991036" r="4" fill="#3b82f6" stroke="#0d1117" stroke-width="2" class="data-point"/>
  
    <circle cx="299.7790055248619" cy="306.019052996402" r="4" fill="#3b82f6" stroke="#0d1117" stroke-width="2" class="data-point"/>
  
    <circle cx="303.64640883977904" cy="305.3325865103344" r="4" fill="#3b82f6" stroke="#0d1117" stroke-width="2" class="data-point"/>
  
    <circle cx="307.5138121546961" cy="304.6512556837635" r="4" fill="#3b82f6" stroke="#0d1117" stroke-width="2" class="data-point"/>
  
    <circle cx="311.38121546961327" cy="304.05038352264194" r="4" fill="#3b82f6" stroke="#0d1117" stroke-width="2" class="data-point"/>
  
    <circle cx="315.24861878453044" cy="303.43752815602795" r="4" fill="#3b82f6" stroke="#0d1117" stroke-width="2" class="data-point"/>
  
    <circle cx="319.1160220994475" cy="302.7527735564592" r="4" fill="#3b82f6" stroke="#0d1117" stroke-width="2" class="data-point"/>
  
    <circle cx="322.9834254143646" cy="301.90025407999616" r="4" fill="#3b82f6" stroke="#0d1117" stroke-width="2" class="data-point"/>
  
    <circle cx="326.8508287292818" cy="301.26514418889616" r="4" fill="#3b82f6" stroke="#0d1117" stroke-width="2" class="data-point"/>
  
    <circle cx="330.7182320441989" cy="300.69679787125415" r="4" fill="#3b82f6" stroke="#0d1117" stroke-width="2" class="data-point"/>
  
    <circle cx="334.585635359116" cy="300.065111753152" r="4" fill="#3b82f6" stroke="#0d1117" stroke-width="2" class="data-point"/>
  
    <circle cx="338.4530386740331" cy="299.4762227975229" r="4" fill="#3b82f6" stroke="#0d1117" stroke-width="2" class="data-point"/>
  
    <circle cx="342.3204419889503" cy="298.8291297009304" r="4" fill="#3b82f6" stroke="#0d1117" stroke-width="2" class="data-point"/>
  
    <circle cx="346.1878453038674" cy="298.1546464203552" r="4" fill="#3b82f6" stroke="#0d1117" stroke-width="2" class="data-point"/>
  
    <circle cx="350.0552486187845" cy="297.44934918279944" r="4" fill="#3b82f6" stroke="#0d1117" stroke-width="2" class="data-point"/>
  
    <circle cx="353.9226519337017" cy="296.8313581566887" r="4" fill="#3b82f6" stroke="#0d1117" stroke-width="2" class="data-point"/>
  
    <circle cx="357.7900552486188" cy="296.3023852285218" r="4" fill="#3b82f6" stroke="#0d1117" stroke-width="2" class="data-point"/>
  
    <circle cx="361.6574585635359" cy="295.72205570538733" r="4" fill="#3b82f6" stroke="#0d1117" stroke-width="2" class="data-point"/>
  
    <circle cx="365.524861878453" cy="295.09379336028303" r="4" fill="#3b82f6" stroke="#0d1117" stroke-width="2" class="data-point"/>
  
    <circle cx="369.3922651933702" cy="294.5117519506496" r="4" fill="#3b82f6" stroke="#0d1117" stroke-width="2" class="data-point"/>
  
    <circle cx="373.2596685082873" cy="293.75338623162725" r="4" fill="#3b82f6" stroke="#0d1117" stroke-width="2" class="data-point"/>
  
    <circle cx="377.1270718232044" cy="293.10115747553806" r="4" fill="#3b82f6" stroke="#0d1117" stroke-width="2" class="data-point"/>
  
    <circle cx="380.9944751381215" cy="292.47289513043376" r="4" fill="#3b82f6" stroke="#0d1117" stroke-width="2" class="data-point"/>
  
    <circle cx="384.8618784530387" cy="291.9507697482626" r="4" fill="#3b82f6" stroke="#0d1117" stroke-width="2" class="data-point"/>
  
    <circle cx="388.7292817679558" cy="291.44405134458174" r="4" fill="#3b82f6" stroke="#0d1117" stroke-width="2" class="data-point"/>
  
    <circle cx="392.5966850828729" cy="290.93562105440196" r="4" fill="#3b82f6" stroke="#0d1117" stroke-width="2" class="data-point"/>
  
    <circle cx="396.4640883977901" cy="290.3279013472847" r="4" fill="#3b82f6" stroke="#0d1117" stroke-width="2" class="data-point"/>
  
    <circle cx="400.3314917127072" cy="289.70306277517824" r="4" fill="#3b82f6" stroke="#0d1117" stroke-width="2" class="data-point"/>
  
    <circle cx="404.1988950276243" cy="288.94469705615586" r="4" fill="#3b82f6" stroke="#0d1117" stroke-width="2" class="data-point"/>
  
    <circle cx="408.0662983425414" cy="288.33012980304295" r="4" fill="#3b82f6" stroke="#0d1117" stroke-width="2" class="data-point"/>
  
    <circle cx="411.9337016574586" cy="287.8285470588589" r="4" fill="#3b82f6" stroke="#0d1117" stroke-width="2" class="data-point"/>
  
    <circle cx="415.8011049723757" cy="287.3132692226834" r="4" fill="#3b82f6" stroke="#0d1117" stroke-width="2" class="data-point"/>
  
    <circle cx="419.6685082872928" cy="286.8202459109939" r="4" fill="#3b82f6" stroke="#0d1117" stroke-width="2" class="data-point"/>
  
    <circle cx="423.5359116022099" cy="286.21081431737775" r="4" fill="#3b82f6" stroke="#0d1117" stroke-width="2" class="data-point"/>
  
    <circle cx="427.4033149171271" cy="285.5859757452713" r="4" fill="#3b82f6" stroke="#0d1117" stroke-width="2" class="data-point"/>
  
    <circle cx="431.2707182320442" cy="284.2044833406414" r="4" fill="#3b82f6" stroke="#0d1117" stroke-width="2" class="data-point"/>
  
    <circle cx="435.1381215469613" cy="281.45519362337296" r="4" fill="#3b82f6" stroke="#0d1117" stroke-width="2" class="data-point"/>
  
    <circle cx="439.0055248618784" cy="278.1803547509355" r="4" fill="#3b82f6" stroke="#0d1117" stroke-width="2" class="data-point"/>
  
    <circle cx="442.8729281767956" cy="275.1965365833148" r="4" fill="#3b82f6" stroke="#0d1117" stroke-width="2" class="data-point"/>
  
    <circle cx="446.7403314917127" cy="273.6832289182679" r="4" fill="#3b82f6" stroke="#0d1117" stroke-width="2" class="data-point"/>
  
    <circle cx="450.6077348066298" cy="271.40299610170405" r="4" fill="#3b82f6" stroke="#0d1117" stroke-width="2" class="data-point"/>
  
    <circle cx="454.475138121547" cy="269.88797655015827" r="4" fill="#3b82f6" stroke="#0d1117" stroke-width="2" class="data-point"/>
  
    <circle cx="458.3425414364641" cy="268.55955262699496" r="4" fill="#3b82f6" stroke="#0d1117" stroke-width="2" class="data-point"/>
  
    <circle cx="462.2099447513812" cy="267.2602307743133" r="4" fill="#3b82f6" stroke="#0d1117" stroke-width="2" class="data-point"/>
  
    <circle cx="466.0773480662983" cy="266.0362319275842" r="4" fill="#3b82f6" stroke="#0d1117" stroke-width="2" class="data-point"/>
  
    <circle cx="469.94475138121544" cy="264.1326141407832" r="4" fill="#3b82f6" stroke="#0d1117" stroke-width="2" class="data-point"/>
  
    <circle cx="473.8121546961326" cy="262.61930647573627" r="4" fill="#3b82f6" stroke="#0d1117" stroke-width="2" class="data-point"/>
  
    <circle cx="477.6795580110497" cy="260.6848747319546" r="4" fill="#3b82f6" stroke="#0d1117" stroke-width="2" class="data-point"/>
  
    <circle cx="481.5469613259669" cy="260.28942895070367" r="4" fill="#3b82f6" stroke="#0d1117" stroke-width="2" class="data-point"/>
  
    <circle cx="485.414364640884" cy="260.238072355736" r="4" fill="#3b82f6" stroke="#0d1117" stroke-width="2" class="data-point"/>
  
    <circle cx="489.2817679558011" cy="260.17130878227806" r="4" fill="#3b82f6" stroke="#0d1117" stroke-width="2" class="data-point"/>
  
    <circle cx="493.1491712707182" cy="260.1148165278137" r="4" fill="#3b82f6" stroke="#0d1117" stroke-width="2" class="data-point"/>
  
    <circle cx="497.01657458563534" cy="260.04120540836004" r="4" fill="#3b82f6" stroke="#0d1117" stroke-width="2" class="data-point"/>
  
    <circle cx="500.88397790055245" cy="259.976153721401" r="4" fill="#3b82f6" stroke="#0d1117" stroke-width="2" class="data-point"/>
  
    <circle cx="504.7513812154696" cy="259.95047542391717" r="4" fill="#3b82f6" stroke="#0d1117" stroke-width="2" class="data-point"/>
  
    <circle cx="508.61878453038673" cy="259.85632166647645" r="4" fill="#3b82f6" stroke="#0d1117" stroke-width="2" class="data-point"/>
  
    <circle cx="512.4861878453039" cy="259.7655916820336" r="4" fill="#3b82f6" stroke="#0d1117" stroke-width="2" class="data-point"/>
  
    <circle cx="516.353591160221" cy="259.70567565457134" r="4" fill="#3b82f6" stroke="#0d1117" stroke-width="2" class="data-point"/>
  
    <circle cx="520.2209944751381" cy="259.6834211300853" r="4" fill="#3b82f6" stroke="#0d1117" stroke-width="2" class="data-point"/>
  
    <circle cx="524.0883977900553" cy="259.58241982664896" r="4" fill="#3b82f6" stroke="#0d1117" stroke-width="2" class="data-point"/>
  
    <circle cx="527.9558011049724" cy="257.1001844032123" r="4" fill="#3b82f6" stroke="#0d1117" stroke-width="2" class="data-point"/>
  
    <circle cx="531.8232044198895" cy="253.2124901641609" r="4" fill="#3b82f6" stroke="#0d1117" stroke-width="2" class="data-point"/>
  
    <circle cx="535.6906077348067" cy="250.6087107993008" r="4" fill="#3b82f6" stroke="#0d1117" stroke-width="2" class="data-point"/>
  
    <circle cx="539.5580110497237" cy="247.5855192422049" r="4" fill="#3b82f6" stroke="#0d1117" stroke-width="2" class="data-point"/>
  
    <circle cx="543.4254143646409" cy="244.4698858141672" r="4" fill="#3b82f6" stroke="#0d1117" stroke-width="2" class="data-point"/>
  
    <circle cx="547.2928176795581" cy="242.02531189370688" r="4" fill="#3b82f6" stroke="#0d1117" stroke-width="2" class="data-point"/>
  
    <circle cx="551.1602209944751" cy="239.29142915492872" r="4" fill="#3b82f6" stroke="#0d1117" stroke-width="2" class="data-point"/>
  
    <circle cx="555.0276243093922" cy="235.12640930305196" r="4" fill="#3b82f6" stroke="#0d1117" stroke-width="2" class="data-point"/>
  
    <circle cx="558.8950276243094" cy="229.51313347308735" r="4" fill="#3b82f6" stroke="#0d1117" stroke-width="2" class="data-point"/>
  
    <circle cx="562.7624309392265" cy="225.84969636539466" r="4" fill="#3b82f6" stroke="#0d1117" stroke-width="2" class="data-point"/>
  
    <circle cx="566.6298342541437" cy="221.48952145264082" r="4" fill="#3b82f6" stroke="#0d1117" stroke-width="2" class="data-point"/>
  
    <circle cx="570.4972375690609" cy="216.63118756870068" r="4" fill="#3b82f6" stroke="#0d1117" stroke-width="2" class="data-point"/>
  
    <circle cx="574.3646408839779" cy="212.73493389715466" r="4" fill="#3b82f6" stroke="#0d1117" stroke-width="2" class="data-point"/>
  
    <circle cx="578.232044198895" cy="208.50657424481778" r="4" fill="#3b82f6" stroke="#0d1117" stroke-width="2" class="data-point"/>
  
    <circle cx="582.0994475138122" cy="204.7558309256801" r="4" fill="#3b82f6" stroke="#0d1117" stroke-width="2" class="data-point"/>
  
    <circle cx="585.9668508287292" cy="201.03932533652085" r="4" fill="#3b82f6" stroke="#0d1117" stroke-width="2" class="data-point"/>
  
    <circle cx="589.8342541436464" cy="197.33309106635514" r="4" fill="#3b82f6" stroke="#0d1117" stroke-width="2" class="data-point"/>
  
    <circle cx="593.7016574585635" cy="192.28644966753362" r="4" fill="#3b82f6" stroke="#0d1117" stroke-width="2" class="data-point"/>
  
    <circle cx="597.5690607734807" cy="187.22440129022183" r="4" fill="#3b82f6" stroke="#0d1117" stroke-width="2" class="data-point"/>
  
    <circle cx="601.4364640883978" cy="183.00460107037955" r="4" fill="#3b82f6" stroke="#0d1117" stroke-width="2" class="data-point"/>
  
    <circle cx="605.3038674033149" cy="179.46784356360712" r="4" fill="#3b82f6" stroke="#0d1117" stroke-width="2" class="data-point"/>
  
    <circle cx="609.171270718232" cy="176.03722301976777" r="4" fill="#3b82f6" stroke="#0d1117" stroke-width="2" class="data-point"/>
  
    <circle cx="613.0386740331492" cy="171.48360493263576" r="4" fill="#3b82f6" stroke="#0d1117" stroke-width="2" class="data-point"/>
  
    <circle cx="616.9060773480662" cy="167.95198308536007" r="4" fill="#3b82f6" stroke="#0d1117" stroke-width="2" class="data-point"/>
  
    <circle cx="620.7734806629834" cy="164.45802274106063" r="4" fill="#3b82f6" stroke="#0d1117" stroke-width="2" class="data-point"/>
  
    <circle cx="624.6408839779006" cy="161.19003141461891" r="4" fill="#3b82f6" stroke="#0d1117" stroke-width="2" class="data-point"/>
  
    <circle cx="628.5082872928177" cy="158.11205948955748" r="4" fill="#3b82f6" stroke="#0d1117" stroke-width="2" class="data-point"/>
  
    <circle cx="632.3756906077348" cy="154.95876455854352" r="4" fill="#3b82f6" stroke="#0d1117" stroke-width="2" class="data-point"/>
  
    <circle cx="636.243093922652" cy="152.26254332274166" r="4" fill="#3b82f6" stroke="#0d1117" stroke-width="2" class="data-point"/>
  
    <circle cx="640.110497237569" cy="149.4704564430002" r="4" fill="#3b82f6" stroke="#0d1117" stroke-width="2" class="data-point"/>
  
    <circle cx="643.9779005524862" cy="146.62016542229537" r="4" fill="#3b82f6" stroke="#0d1117" stroke-width="2" class="data-point"/>
  
    <circle cx="647.8453038674033" cy="143.607245184193" r="4" fill="#3b82f6" stroke="#0d1117" stroke-width="2" class="data-point"/>
  
    <circle cx="651.7127071823204" cy="140.84254848843426" r="4" fill="#3b82f6" stroke="#0d1117" stroke-width="2" class="data-point"/>
  
    <circle cx="655.5801104972376" cy="138.31066835652888" r="4" fill="#3b82f6" stroke="#0d1117" stroke-width="2" class="data-point"/>
  
    <circle cx="659.4475138121547" cy="133.7228125394184" r="4" fill="#3b82f6" stroke="#0d1117" stroke-width="2" class="data-point"/>
  
    <circle cx="663.3149171270718" cy="129.88305112233684" r="4" fill="#3b82f6" stroke="#0d1117" stroke-width="2" class="data-point"/>
  
    <circle cx="667.182320441989" cy="126.19564760365924" r="4" fill="#3b82f6" stroke="#0d1117" stroke-width="2" class="data-point"/>
  
    <circle cx="671.049723756906" cy="122.65375443739" r="4" fill="#3b82f6" stroke="#0d1117" stroke-width="2" class="data-point"/>
  
    <circle cx="674.9171270718232" cy="117.06102124541246" r="4" fill="#3b82f6" stroke="#0d1117" stroke-width="2" class="data-point"/>
  
    <circle cx="678.7845303867404" cy="113.52255185214108" r="4" fill="#3b82f6" stroke="#0d1117" stroke-width="2" class="data-point"/>
  
    <circle cx="682.6519337016574" cy="110.45998690556996" r="4" fill="#3b82f6" stroke="#0d1117" stroke-width="2" class="data-point"/>
  
    <circle cx="686.5193370165746" cy="106.84277073334815" r="4" fill="#3b82f6" stroke="#0d1117" stroke-width="2" class="data-point"/>
  
    <circle cx="690.3867403314918" cy="101.5102442892067" r="4" fill="#3b82f6" stroke="#0d1117" stroke-width="2" class="data-point"/>
  
    <circle cx="694.2541436464088" cy="97.67390664512294" r="4" fill="#3b82f6" stroke="#0d1117" stroke-width="2" class="data-point"/>
  
    <circle cx="698.121546961326" cy="94.43501738916285" r="4" fill="#3b82f6" stroke="#0d1117" stroke-width="2" class="data-point"/>
  
    <circle cx="701.988950276243" cy="91.69428710438905" r="4" fill="#3b82f6" stroke="#0d1117" stroke-width="2" class="data-point"/>
  
    <circle cx="705.8563535911602" cy="89.09393151252678" r="4" fill="#3b82f6" stroke="#0d1117" stroke-width="2" class="data-point"/>
  
    <circle cx="709.7237569060774" cy="86.97975168635836" r="4" fill="#3b82f6" stroke="#0d1117" stroke-width="2" class="data-point"/>
  
    <circle cx="713.5911602209944" cy="84.59851756635814" r="4" fill="#3b82f6" stroke="#0d1117" stroke-width="2" class="data-point"/>
  
    <circle cx="717.4585635359116" cy="82.65723827658076" r="4" fill="#3b82f6" stroke="#0d1117" stroke-width="2" class="data-point"/>
  
    <circle cx="721.3259668508288" cy="80.36673414102341" r="4" fill="#3b82f6" stroke="#0d1117" stroke-width="2" class="data-point"/>
  
    <circle cx="725.1933701657458" cy="77.06964074410001" r="4" fill="#3b82f6" stroke="#0d1117" stroke-width="2" class="data-point"/>
  
    <circle cx="729.060773480663" cy="74.23646858838441" r="4" fill="#3b82f6" stroke="#0d1117" stroke-width="2" class="data-point"/>
  
    <circle cx="732.9281767955802" cy="71.77306391643589" r="4" fill="#3b82f6" stroke="#0d1117" stroke-width="2" class="data-point"/>
  
    <circle cx="736.7955801104972" cy="69.6434771117772" r="4" fill="#3b82f6" stroke="#0d1117" stroke-width="2" class="data-point"/>
  
    <circle cx="740.6629834254144" cy="67.44712673366053" r="4" fill="#3b82f6" stroke="#0d1117" stroke-width="2" class="data-point"/>
  
    <circle cx="744.5303867403314" cy="65.59486554182706" r="4" fill="#3b82f6" stroke="#0d1117" stroke-width="2" class="data-point"/>
  
    <circle cx="748.3977900552486" cy="62.48094400028833" r="4" fill="#3b82f6" stroke="#0d1117" stroke-width="2" class="data-point"/>
  
    <circle cx="752.2651933701658" cy="59.818960494464875" r="4" fill="#3b82f6" stroke="#0d1117" stroke-width="2" class="data-point"/>
  
    <circle cx="756.1325966850828" cy="57.17923151312749" r="4" fill="#3b82f6" stroke="#0d1117" stroke-width="2" class="data-point"/>
  
    <circle cx="760" cy="55" r="4" fill="#3b82f6" stroke="#0d1117" stroke-width="2" class="data-point"/>
  

  <!-- Axis lines -->
  <line x1="60" y1="55" x2="60" y2="340"
        stroke="#30363d" stroke-width="2"/>
  <line x1="60" y1="340" x2="760" y2="340"
        stroke="#30363d" stroke-width="2"/>
</svg>