<?xml version="1.0" encoding="UTF-8"?>
<svg width="800" height="400" xmlns="http://www.w3.org/2000/svg">
  <defs>
    <!-- Gradient for area fill -->
    <linearGradient id="areaGradient" x1="0%" y1="0%" x2="0%" y2="100%">
      <stop offset="0%" style="stop-color:#3b82f6;stop-opacity:0.3" />
      <stop offset="100%" style="stop-color:#3b82f6;stop-opacity:0.05" />
    </linearGradient>

    <!-- Glow filter for line -->
    <filter id="glow">
      <feGaussianBlur stdDeviation="2" result="coloredBlur"/>
      <feMerge>
        <feMergeNode in="coloredBlur"/>
        <feMergeNode in="SourceGraphic"/>
      </feMerge>
    </filter>

    <!-- Animation -->
    <style>
      @keyframes draw {
        from { stroke-dashoffset: 2000; }
        to { stroke-dashoffset: 0; }
      }
      @keyframes fadeIn {
        from { opacity: 0; }
        to { opacity: 1; }
      }
      .line-path {
        stroke-dasharray: 2000;
        stroke-dashoffset: 2000;
        animation: draw 1.5s ease-out forwards;
      }
      .area-path {
        opacity: 0;
        animation: fadeIn 1s ease-out 0.5s forwards;
      }
      .data-point {
        opacity: 0;
        animation: fadeIn 0.5s ease-out 1s forwards;
      }
    </style>
  </defs>

  <!-- Background -->
  <rect width="800" height="400" fill="#0d1117" rx="8"/>

  <!-- Title -->
  <text x="400" y="25" text-anchor="middle" fill="#c9d1d9" font-family="system-ui, -apple-system, sans-serif" font-size="16" font-weight="600">
    zxcloli666/SoundCloud-Desktop Downloads
  </text>

  <!-- Stats -->
  <text x="780" y="25" text-anchor="end" fill="#58a6ff" font-family="system-ui, -apple-system, sans-serif" font-size="14" font-weight="600">
    205.2K total
  </text>
  <text x="780" y="42" text-anchor="end" fill="#3fb950" font-family="system-ui, -apple-system, sans-serif" font-size="12">
    +1.6K (+0.8%)
  </text>

  <!-- Grid lines -->
  <g opacity="0.1">
    
      <line x1="60" y1="340" x2="760" y2="340"
            stroke="#c9d1d9" stroke-width="1"/>
    
      <line x1="60" y1="268.75" x2="760" y2="268.75"
            stroke="#c9d1d9" stroke-width="1"/>
    
      <line x1="60" y1="197.5" x2="760" y2="197.5"
            stroke="#c9d1d9" stroke-width="1"/>
    
      <line x1="60" y1="126.25" x2="760" y2="126.25"
            stroke="#c9d1d9" stroke-width="1"/>
    
      <line x1="60" y1="55" x2="760" y2="55"
            stroke="#c9d1d9" stroke-width="1"/>
    
  </g>

  <!-- Y-axis labels -->
  
    <text x="50" y="344" text-anchor="end"
          fill="#8b949e" font-family="system-ui, -apple-system, sans-serif" font-size="11">
      60.2K
    </text>
  
    <text x="50" y="272.75" text-anchor="end"
          fill="#8b949e" font-family="system-ui, -apple-system, sans-serif" font-size="11">
      96.4K
    </text>
  
    <text x="50" y="201.5" text-anchor="end"
          fill="#8b949e" font-family="system-ui, -apple-system, sans-serif" font-size="11">
      132.7K
    </text>
  
    <text x="50" y="130.25" text-anchor="end"
          fill="#8b949e" font-family="system-ui, -apple-system, sans-serif" font-size="11">
      168.9K
    </text>
  
    <text x="50" y="59" text-anchor="end"
          fill="#8b949e" font-family="system-ui, -apple-system, sans-serif" font-size="11">
      205.2K
    </text>
  

  <!-- X-axis labels -->
  
    <text x="60" y="360" text-anchor="middle"
          fill="#8b949e" font-family="system-ui, -apple-system, sans-serif" font-size="11">
      Nov 25
    </text>
  
    <text x="144.33734939759034" y="360" text-anchor="middle"
          fill="#8b949e" font-family="system-ui, -apple-system, sans-serif" font-size="11">
      Dec 15
    </text>
  
    <text x="228.67469879518072" y="360" text-anchor="middle"
          fill="#8b949e" font-family="system-ui, -apple-system, sans-serif" font-size="11">
      Jan 4
    </text>
  
    <text x="313.0120481927711" y="360" text-anchor="middle"
          fill="#8b949e" font-family="system-ui, -apple-system, sans-serif" font-size="11">
      Jan 24
    </text>
  
    <text x="397.34939759036143" y="360" text-anchor="middle"
          fill="#8b949e" font-family="system-ui, -apple-system, sans-serif" font-size="11">
      Feb 13
    </text>
  
    <text x="481.68674698795184" y="360" text-anchor="middle"
          fill="#8b949e" font-family="system-ui, -apple-system, sans-serif" font-size="11">
      Mar 5
    </text>
  
    <text x="566.0240963855422" y="360" text-anchor="middle"
          fill="#8b949e" font-family="system-ui, -apple-system, sans-serif" font-size="11">
      Mar 25
    </text>
  
    <text x="650.3614457831326" y="360" text-anchor="middle"
          fill="#8b949e" font-family="system-ui, -apple-system, sans-serif" font-size="11">
      Apr 14
    </text>
  
    <text x="734.6987951807229" y="360" text-anchor="middle"
          fill="#8b949e" font-family="system-ui, -apple-system, sans-serif" font-size="11">
      May 4
    </text>
  
    <text x="760" y="360" text-anchor="middle"
          fill="#8b949e" font-family="system-ui, -apple-system, sans-serif" font-size="11">
      May 10
    </text>
  

  <!-- Area under line -->
  <path d="M 60 340
    L 60.00 340.00 L 64.22 339.71 L 68.43 339.22 L 72.65 338.76 L 76.87 337.86 L 81.08 336.92 L 85.30 336.19 L 89.52 335.50 L 93.73 334.89 L 97.95 334.17 L 102.17 333.37 L 106.39 332.51 L 110.60 331.74 L 114.82 330.91 L 119.04 330.31 L 123.25 329.68 L 127.47 328.83 L 131.69 328.26 L 135.90 327.48 L 140.12 326.57 L 144.34 325.89 L 148.55 325.32 L 152.77 324.96 L 156.99 324.66 L 161.20 324.10 L 165.42 323.70 L 169.64 322.83 L 173.86 322.48 L 178.07 322.04 L 182.29 321.46 L 186.51 321.07 L 190.72 320.67 L 194.94 320.25 L 199.16 319.96 L 203.37 319.71 L 207.59 319.33 L 211.81 318.86 L 216.02 318.43 L 220.24 317.89 L 224.46 317.30 L 228.67 316.76 L 232.89 316.10 L 237.11 315.46 L 241.33 314.82 L 245.54 314.11 L 249.76 313.44 L 253.98 312.67 L 258.19 311.99 L 262.41 311.41 L 266.63 310.95 L 270.84 310.30 L 275.06 309.56 L 279.28 308.88 L 283.49 308.09 L 287.71 307.11 L 291.93 306.38 L 296.14 305.78 L 300.36 305.21 L 304.58 304.52 L 308.80 303.71 L 313.01 302.83 L 317.23 301.89 L 321.45 301.00 L 325.66 300.21 L 329.88 299.43 L 334.10 298.74 L 338.31 298.03 L 342.53 297.25 L 346.75 296.27 L 350.96 295.54 L 355.18 294.89 L 359.40 294.16 L 363.61 293.49 L 367.83 292.74 L 372.05 291.97 L 376.27 291.16 L 380.48 290.45 L 384.70 289.84 L 388.92 289.18 L 393.13 288.46 L 397.35 287.79 L 401.57 286.92 L 405.78 286.17 L 410.00 285.45 L 414.22 284.85 L 418.43 284.27 L 422.65 283.68 L 426.87 282.99 L 431.08 282.27 L 435.30 281.40 L 439.52 280.69 L 443.73 280.12 L 447.95 279.53 L 452.17 278.96 L 456.39 278.26 L 460.60 277.54 L 464.82 275.96 L 469.04 272.80 L 473.25 269.04 L 477.47 265.62 L 481.69 263.88 L 485.90 261.27 L 490.12 259.53 L 494.34 258.00 L 498.55 256.51 L 502.77 255.11 L 506.99 252.92 L 511.20 251.18 L 515.42 248.96 L 519.64 248.51 L 523.86 248.45 L 528.07 248.37 L 532.29 248.31 L 536.51 248.23 L 540.72 248.15 L 544.94 248.12 L 549.16 248.01 L 553.37 247.91 L 557.59 247.84 L 561.81 247.81 L 566.02 247.70 L 570.24 244.85 L 574.46 240.39 L 578.67 237.40 L 582.89 233.93 L 587.11 230.35 L 591.33 227.55 L 595.54 224.41 L 599.76 219.63 L 603.98 213.19 L 608.19 208.98 L 612.41 203.98 L 616.63 198.40 L 620.84 193.93 L 625.06 189.07 L 629.28 184.77 L 633.49 180.50 L 637.71 176.25 L 641.93 170.46 L 646.14 164.65 L 650.36 159.80 L 654.58 155.74 L 658.80 151.81 L 663.01 146.58 L 667.23 142.53 L 671.45 138.52 L 675.66 134.77 L 679.88 131.23 L 684.10 127.61 L 688.31 124.52 L 692.53 121.31 L 696.75 118.04 L 700.96 114.58 L 705.18 111.41 L 709.40 108.51 L 713.61 103.24 L 717.83 98.83 L 722.05 94.60 L 726.27 90.53 L 730.48 84.12 L 734.70 80.05 L 738.92 76.54 L 743.13 72.39 L 747.35 66.27 L 751.57 61.86 L 755.78 58.15 L 760.00 55.00
    L 760 340
    Z" fill="url(#areaGradient)" class="area-path"/>

  <!-- Main line with glow -->
  <path d="M 60.00 340.00 L 64.22 339.71 L 68.43 339.22 L 72.65 338.76 L 76.87 337.86 L 81.08 336.92 L 85.30 336.19 L 89.52 335.50 L 93.73 334.89 L 97.95 334.17 L 102.17 333.37 L 106.39 332.51 L 110.60 331.74 L 114.82 330.91 L 119.04 330.31 L 123.25 329.68 L 127.47 328.83 L 131.69 328.26 L 135.90 327.48 L 140.12 326.57 L 144.34 325.89 L 148.55 325.32 L 152.77 324.96 L 156.99 324.66 L 161.20 324.10 L 165.42 323.70 L 169.64 322.83 L 173.86 322.48 L 178.07 322.04 L 182.29 321.46 L 186.51 321.07 L 190.72 320.67 L 194.94 320.25 L 199.16 319.96 L 203.37 319.71 L 207.59 319.33 L 211.81 318.86 L 216.02 318.43 L 220.24 317.89 L 224.46 317.30 L 228.67 316.76 L 232.89 316.10 L 237.11 315.46 L 241.33 314.82 L 245.54 314.11 L 249.76 313.44 L 253.98 312.67 L 258.19 311.99 L 262.41 311.41 L 266.63 310.95 L 270.84 310.30 L 275.06 309.56 L 279.28 308.88 L 283.49 308.09 L 287.71 307.11 L 291.93 306.38 L 296.14 305.78 L 300.36 305.21 L 304.58 304.52 L 308.80 303.71 L 313.01 302.83 L 317.23 301.89 L 321.45 301.00 L 325.66 300.21 L 329.88 299.43 L 334.10 298.74 L 338.31 298.03 L 342.53 297.25 L 346.75 296.27 L 350.96 295.54 L 355.18 294.89 L 359.40 294.16 L 363.61 293.49 L 367.83 292.74 L 372.05 291.97 L 376.27 291.16 L 380.48 290.45 L 384.70 289.84 L 388.92 289.18 L 393.13 288.46 L 397.35 287.79 L 401.57 286.92 L 405.78 286.17 L 410.00 285.45 L 414.22 284.85 L 418.43 284.27 L 422.65 283.68 L 426.87 282.99 L 431.08 282.27 L 435.30 281.40 L 439.52 280.69 L 443.73 280.12 L 447.95 279.53 L 452.17 278.96 L 456.39 278.26 L 460.60 277.54 L 464.82 275.96 L 469.04 272.80 L 473.25 269.04 L 477.47 265.62 L 481.69 263.88 L 485.90 261.27 L 490.12 259.53 L 494.34 258.00 L 498.55 256.51 L 502.77 255.11 L 506.99 252.92 L 511.20 251.18 L 515.42 248.96 L 519.64 248.51 L 523.86 248.45 L 528.07 248.37 L 532.29 248.31 L 536.51 248.23 L 540.72 248.15 L 544.94 248.12 L 549.16 248.01 L 553.37 247.91 L 557.59 247.84 L 561.81 247.81 L 566.02 247.70 L 570.24 244.85 L 574.46 240.39 L 578.67 237.40 L 582.89 233.93 L 587.11 230.35 L 591.33 227.55 L 595.54 224.41 L 599.76 219.63 L 603.98 213.19 L 608.19 208.98 L 612.41 203.98 L 616.63 198.40 L 620.84 193.93 L 625.06 189.07 L 629.28 184.77 L 633.49 180.50 L 637.71 176.25 L 641.93 170.46 L 646.14 164.65 L 650.36 159.80 L 654.58 155.74 L 658.80 151.81 L 663.01 146.58 L 667.23 142.53 L 671.45 138.52 L 675.66 134.77 L 679.88 131.23 L 684.10 127.61 L 688.31 124.52 L 692.53 121.31 L 696.75 118.04 L 700.96 114.58 L 705.18 111.41 L 709.40 108.51 L 713.61 103.24 L 717.83 98.83 L 722.05 94.60 L 726.27 90.53 L 730.48 84.12 L 734.70 80.05 L 738.92 76.54 L 743.13 72.39 L 747.35 66.27 L 751.57 61.86 L 755.78 58.15 L 760.00 55.00" fill="none" stroke="#3b82f6" stroke-width="3"
        stroke-linecap="round" stroke-linejoin="round" filter="url(#glow)" class="line-path"/>

  <!-- Data points -->
  
    <circle cx="60" cy="340" r="4" fill="#3b82f6" stroke="#0d1117" stroke-width="2" class="data-point"/>
  
    <circle cx="64.21686746987952" cy="339.7111645800011" r="4" fill="#3b82f6" stroke="#0d1117" stroke-width="2" class="data-point"/>
  
    <circle cx="68.43373493975903" cy="339.2199478793227" r="4" fill="#3b82f6" stroke="#0d1117" stroke-width="2" class="data-point"/>
  
    <circle cx="72.65060240963855" cy="338.76409878109314" r="4" fill="#3b82f6" stroke="#0d1117" stroke-width="2" class="data-point"/>
  
    <circle cx="76.86746987951807" cy="337.8582951850422" r="4" fill="#3b82f6" stroke="#0d1117" stroke-width="2" class="data-point"/>
  
    <circle cx="81.08433734939759" cy="336.92301858695055" r="4" fill="#3b82f6" stroke="#0d1117" stroke-width="2" class="data-point"/>
  
    <circle cx="85.3012048192771" cy="336.18619353593294" r="4" fill="#3b82f6" stroke="#0d1117" stroke-width="2" class="data-point"/>
  
    <circle cx="89.51807228915662" cy="335.4984901549832" r="4" fill="#3b82f6" stroke="#0d1117" stroke-width="2" class="data-point"/>
  
    <circle cx="93.73493975903614" cy="334.88741657933923" r="4" fill="#3b82f6" stroke="#0d1117" stroke-width="2" class="data-point"/>
  
    <circle cx="97.95180722891567" cy="334.1702401963488" r="4" fill="#3b82f6" stroke="#0d1117" stroke-width="2" class="data-point"/>
  
    <circle cx="102.16867469879517" cy="333.37053940764434" r="4" fill="#3b82f6" stroke="#0d1117" stroke-width="2" class="data-point"/>
  
    <circle cx="106.3855421686747" cy="332.51385748166126" r="4" fill="#3b82f6" stroke="#0d1117" stroke-width="2" class="data-point"/>
  
    <circle cx="110.6024096385542" cy="331.73577022778665" r="4" fill="#3b82f6" stroke="#0d1117" stroke-width="2" class="data-point"/>
  
    <circle cx="114.81927710843374" cy="330.90856130384424" r="4" fill="#3b82f6" stroke="#0d1117" stroke-width="2" class="data-point"/>
  
    <circle cx="119.03614457831324" cy="330.3053471954112" r="4" fill="#3b82f6" stroke="#0d1117" stroke-width="2" class="data-point"/>
  
    <circle cx="123.25301204819277" cy="329.68051955214827" r="4" fill="#3b82f6" stroke="#0d1117" stroke-width="2" class="data-point"/>
  
    <circle cx="127.46987951807229" cy="328.83169709337596" r="4" fill="#3b82f6" stroke="#0d1117" stroke-width="2" class="data-point"/>
  
    <circle cx="131.6867469879518" cy="328.26385058739174" r="4" fill="#3b82f6" stroke="#0d1117" stroke-width="2" class="data-point"/>
  
    <circle cx="135.90361445783134" cy="327.47790386630635" r="4" fill="#3b82f6" stroke="#0d1117" stroke-width="2" class="data-point"/>
  
    <circle cx="140.12048192771084" cy="326.57013540345264" r="4" fill="#3b82f6" stroke="#0d1117" stroke-width="2" class="data-point"/>
  
    <circle cx="144.33734939759034" cy="325.88636175610833" r="4" fill="#3b82f6" stroke="#0d1117" stroke-width="2" class="data-point"/>
  
    <circle cx="148.55421686746988" cy="325.3244098505322" r="4" fill="#3b82f6" stroke="#0d1117" stroke-width="2" class="data-point"/>
  
    <circle cx="152.7710843373494" cy="324.9609094920302" r="4" fill="#3b82f6" stroke="#0d1117" stroke-width="2" class="data-point"/>
  
    <circle cx="156.9879518072289" cy="324.6583200044123" r="4" fill="#3b82f6" stroke="#0d1117" stroke-width="2" class="data-point"/>
  
    <circle cx="161.2048192771084" cy="324.098332965639" r="4" fill="#3b82f6" stroke="#0d1117" stroke-width="2" class="data-point"/>
  
    <circle cx="165.42168674698797" cy="323.6994650046881" r="4" fill="#3b82f6" stroke="#0d1117" stroke-width="2" class="data-point"/>
  
    <circle cx="169.63855421686748" cy="322.82509927748055" r="4" fill="#3b82f6" stroke="#0d1117" stroke-width="2" class="data-point"/>
  
    <circle cx="173.85542168674698" cy="322.48124758700567" r="4" fill="#3b82f6" stroke="#0d1117" stroke-width="2" class="data-point"/>
  
    <circle cx="178.07228915662648" cy="322.03718768959243" r="4" fill="#3b82f6" stroke="#0d1117" stroke-width="2" class="data-point"/>
  
    <circle cx="182.28915662650604" cy="321.46344658320004" r="4" fill="#3b82f6" stroke="#0d1117" stroke-width="2" class="data-point"/>
  
    <circle cx="186.50602409638554" cy="321.0704732226573" r="4" fill="#3b82f6" stroke="#0d1117" stroke-width="2" class="data-point"/>
  
    <circle cx="190.72289156626505" cy="320.6716052617065" r="4" fill="#3b82f6" stroke="#0d1117" stroke-width="2" class="data-point"/>
  
    <circle cx="194.93975903614458" cy="320.25308863272846" r="4" fill="#3b82f6" stroke="#0d1117" stroke-width="2" class="data-point"/>
  
    <circle cx="199.1566265060241" cy="319.9622883459269" r="4" fill="#3b82f6" stroke="#0d1117" stroke-width="2" class="data-point"/>
  
    <circle cx="203.3734939759036" cy="319.7107853951795" r="4" fill="#3b82f6" stroke="#0d1117" stroke-width="2" class="data-point"/>
  
    <circle cx="207.59036144578315" cy="319.32763636865036" r="4" fill="#3b82f6" stroke="#0d1117" stroke-width="2" class="data-point"/>
  
    <circle cx="211.80722891566265" cy="318.8619629364073" r="4" fill="#3b82f6" stroke="#0d1117" stroke-width="2" class="data-point"/>
  
    <circle cx="216.02409638554218" cy="318.4336219734157" r="4" fill="#3b82f6" stroke="#0d1117" stroke-width="2" class="data-point"/>
  
    <circle cx="220.24096385542168" cy="317.8913187358668" r="4" fill="#3b82f6" stroke="#0d1117" stroke-width="2" class="data-point"/>
  
    <circle cx="224.4578313253012" cy="317.29989382824994" r="4" fill="#3b82f6" stroke="#0d1117" stroke-width="2" class="data-point"/>
  
    <circle cx="228.67469879518072" cy="316.757590590701" r="4" fill="#3b82f6" stroke="#0d1117" stroke-width="2" class="data-point"/>
  
    <circle cx="232.89156626506022" cy="316.10328994539736" r="4" fill="#3b82f6" stroke="#0d1117" stroke-width="2" class="data-point"/>
  
    <circle cx="237.10843373493975" cy="315.46077850091007" r="4" fill="#3b82f6" stroke="#0d1117" stroke-width="2" class="data-point"/>
  
    <circle cx="241.32530120481928" cy="314.8182670564227" r="4" fill="#3b82f6" stroke="#0d1117" stroke-width="2" class="data-point"/>
  
    <circle cx="245.54216867469881" cy="314.11484474105123" r="4" fill="#3b82f6" stroke="#0d1117" stroke-width="2" class="data-point"/>
  
    <circle cx="249.7590361445783" cy="313.4428602945232" r="4" fill="#3b82f6" stroke="#0d1117" stroke-width="2" class="data-point"/>
  
    <circle cx="253.97590361445782" cy="312.6745973746622" r="4" fill="#3b82f6" stroke="#0d1117" stroke-width="2" class="data-point"/>
  
    <circle cx="258.1927710843373" cy="311.98885886051517" r="4" fill="#3b82f6" stroke="#0d1117" stroke-width="2" class="data-point"/>
  
    <circle cx="262.4096385542168" cy="311.4092231537146" r="4" fill="#3b82f6" stroke="#0d1117" stroke-width="2" class="data-point"/>
  
    <circle cx="266.6265060240964" cy="310.94551458827425" r="4" fill="#3b82f6" stroke="#0d1117" stroke-width="2" class="data-point"/>
  
    <circle cx="270.84337349397595" cy="310.2971085433787" r="4" fill="#3b82f6" stroke="#0d1117" stroke-width="2" class="data-point"/>
  
    <circle cx="275.06024096385545" cy="309.55635375875573" r="4" fill="#3b82f6" stroke="#0d1117" stroke-width="2" class="data-point"/>
  
    <circle cx="279.27710843373495" cy="308.87847471181954" r="4" fill="#3b82f6" stroke="#0d1117" stroke-width="2" class="data-point"/>
  
    <circle cx="283.49397590361446" cy="308.08663339032597" r="4" fill="#3b82f6" stroke="#0d1117" stroke-width="2" class="data-point"/>
  
    <circle cx="287.71084337349396" cy="307.1100945893773" r="4" fill="#3b82f6" stroke="#0d1117" stroke-width="2" class="data-point"/>
  
    <circle cx="291.92771084337346" cy="306.38309387237325" r="4" fill="#3b82f6" stroke="#0d1117" stroke-width="2" class="data-point"/>
  
    <circle cx="296.14457831325296" cy="305.77987976394024" r="4" fill="#3b82f6" stroke="#0d1117" stroke-width="2" class="data-point"/>
  
    <circle cx="300.3614457831325" cy="305.20613865754785" r="4" fill="#3b82f6" stroke="#0d1117" stroke-width="2" class="data-point"/>
  
    <circle cx="304.5783132530121" cy="304.5164704097954" r="4" fill="#3b82f6" stroke="#0d1117" stroke-width="2" class="data-point"/>
  
    <circle cx="308.7951807228916" cy="303.71480475428825" r="4" fill="#3b82f6" stroke="#0d1117" stroke-width="2" class="data-point"/>
  
    <circle cx="313.0120481927711" cy="302.8266849594617" r="4" fill="#3b82f6" stroke="#0d1117" stroke-width="2" class="data-point"/>
  
    <circle cx="317.2289156626506" cy="301.8933732281727" r="4" fill="#3b82f6" stroke="#0d1117" stroke-width="2" class="data-point"/>
  
    <circle cx="321.4457831325301" cy="300.99739396613535" r="4" fill="#3b82f6" stroke="#0d1117" stroke-width="2" class="data-point"/>
  
    <circle cx="325.66265060240966" cy="300.2094823782472" r="4" fill="#3b82f6" stroke="#0d1117" stroke-width="2" class="data-point"/>
  
    <circle cx="329.87951807228916" cy="299.4274653907672" r="4" fill="#3b82f6" stroke="#0d1117" stroke-width="2" class="data-point"/>
  
    <circle cx="334.09638554216866" cy="298.73779714301475" r="4" fill="#3b82f6" stroke="#0d1117" stroke-width="2" class="data-point"/>
  
    <circle cx="338.3132530120482" cy="298.03437482764326" r="4" fill="#3b82f6" stroke="#0d1117" stroke-width="2" class="data-point"/>
  
    <circle cx="342.5301204819277" cy="297.2484281065578" r="4" fill="#3b82f6" stroke="#0d1117" stroke-width="2" class="data-point"/>
  
    <circle cx="346.7469879518072" cy="296.26992443880647" r="4" fill="#3b82f6" stroke="#0d1117" stroke-width="2" class="data-point"/>
  
    <circle cx="350.96385542168673" cy="295.54095885499976" r="4" fill="#3b82f6" stroke="#0d1117" stroke-width="2" class="data-point"/>
  
    <circle cx="355.1807228915663" cy="294.8886230764988" r="4" fill="#3b82f6" stroke="#0d1117" stroke-width="2" class="data-point"/>
  
    <circle cx="359.3975903614458" cy="294.1635872262975" r="4" fill="#3b82f6" stroke="#0d1117" stroke-width="2" class="data-point"/>
  
    <circle cx="363.6144578313253" cy="293.48767304616405" r="4" fill="#3b82f6" stroke="#0d1117" stroke-width="2" class="data-point"/>
  
    <circle cx="367.8313253012048" cy="292.7449533947383" r="4" fill="#3b82f6" stroke="#0d1117" stroke-width="2" class="data-point"/>
  
    <circle cx="372.04819277108436" cy="291.97079587446916" r="4" fill="#3b82f6" stroke="#0d1117" stroke-width="2" class="data-point"/>
  
    <circle cx="376.26506024096386" cy="291.16127075175115" r="4" fill="#3b82f6" stroke="#0d1117" stroke-width="2" class="data-point"/>
  
    <circle cx="380.48192771084337" cy="290.45195383597155" r="4" fill="#3b82f6" stroke="#0d1117" stroke-width="2" class="data-point"/>
  
    <circle cx="384.69879518072287" cy="289.84480999393304" r="4" fill="#3b82f6" stroke="#0d1117" stroke-width="2" class="data-point"/>
  
    <circle cx="388.9156626506024" cy="289.1787201478131" r="4" fill="#3b82f6" stroke="#0d1117" stroke-width="2" class="data-point"/>
  
    <circle cx="393.13253012048193" cy="288.45761403121725" r="4" fill="#3b82f6" stroke="#0d1117" stroke-width="2" class="data-point"/>
  
    <circle cx="397.34939759036143" cy="287.7895593182946" r="4" fill="#3b82f6" stroke="#0d1117" stroke-width="2" class="data-point"/>
  
    <circle cx="401.566265060241" cy="286.9191233246925" r="4" fill="#3b82f6" stroke="#0d1117" stroke-width="2" class="data-point"/>
  
    <circle cx="405.78313253012044" cy="286.17050907285864" r="4" fill="#3b82f6" stroke="#0d1117" stroke-width="2" class="data-point"/>
  
    <circle cx="410" cy="285.44940295626276" r="4" fill="#3b82f6" stroke="#0d1117" stroke-width="2" class="data-point"/>
  
    <circle cx="414.2168674698795" cy="284.85011858143514" r="4" fill="#3b82f6" stroke="#0d1117" stroke-width="2" class="data-point"/>
  
    <circle cx="418.43373493975906" cy="284.2685180078319" r="4" fill="#3b82f6" stroke="#0d1117" stroke-width="2" class="data-point"/>
  
    <circle cx="422.65060240963857" cy="283.68495256742597" r="4" fill="#3b82f6" stroke="#0d1117" stroke-width="2" class="data-point"/>
  
    <circle cx="426.86746987951807" cy="282.98742485246265" r="4" fill="#3b82f6" stroke="#0d1117" stroke-width="2" class="data-point"/>
  
    <circle cx="431.08433734939763" cy="282.27024846947216" r="4" fill="#3b82f6" stroke="#0d1117" stroke-width="2" class="data-point"/>
  
    <circle cx="435.30120481927713" cy="281.3998124758701" r="4" fill="#3b82f6" stroke="#0d1117" stroke-width="2" class="data-point"/>
  
    <circle cx="439.5180722891566" cy="280.6944252936959" r="4" fill="#3b82f6" stroke="#0d1117" stroke-width="2" class="data-point"/>
  
    <circle cx="443.7349397590362" cy="280.1187193205008" r="4" fill="#3b82f6" stroke="#0d1117" stroke-width="2" class="data-point"/>
  
    <circle cx="447.95180722891564" cy="279.52729441288403" r="4" fill="#3b82f6" stroke="#0d1117" stroke-width="2" class="data-point"/>
  
    <circle cx="452.16867469879514" cy="278.9614127737025" r="4" fill="#3b82f6" stroke="#0d1117" stroke-width="2" class="data-point"/>
  
    <circle cx="456.3855421686747" cy="278.26192019193644" r="4" fill="#3b82f6" stroke="#0d1117" stroke-width="2" class="data-point"/>
  
    <circle cx="460.6024096385542" cy="277.544743808946" r="4" fill="#3b82f6" stroke="#0d1117" stroke-width="2" class="data-point"/>
  
    <circle cx="464.8192771084337" cy="275.95909629915616" r="4" fill="#3b82f6" stroke="#0d1117" stroke-width="2" class="data-point"/>
  
    <circle cx="469.03614457831327" cy="272.8035202139981" r="4" fill="#3b82f6" stroke="#0d1117" stroke-width="2" class="data-point"/>
  
    <circle cx="473.2530120481928" cy="269.04473002040703" r="4" fill="#3b82f6" stroke="#0d1117" stroke-width="2" class="data-point"/>
  
    <circle cx="477.4698795180723" cy="265.61996718327725" r="4" fill="#3b82f6" stroke="#0d1117" stroke-width="2" class="data-point"/>
  
    <circle cx="481.68674698795184" cy="263.88302492967847" r="4" fill="#3b82f6" stroke="#0d1117" stroke-width="2" class="data-point"/>
  
    <circle cx="485.90361445783134" cy="261.265822348464" r="4" fill="#3b82f6" stroke="#0d1117" stroke-width="2" class="data-point"/>
  
    <circle cx="490.12048192771084" cy="259.5269152280624" r="4" fill="#3b82f6" stroke="#0d1117" stroke-width="2" class="data-point"/>
  
    <circle cx="494.3373493975904" cy="258.0021785891567" r="4" fill="#3b82f6" stroke="#0d1117" stroke-width="2" class="data-point"/>
  
    <circle cx="498.5542168674699" cy="256.5108446858971" r="4" fill="#3b82f6" stroke="#0d1117" stroke-width="2" class="data-point"/>
  
    <circle cx="502.7710843373494" cy="255.10596492195685" r="4" fill="#3b82f6" stroke="#0d1117" stroke-width="2" class="data-point"/>
  
    <circle cx="506.98795180722885" cy="252.92103303733938" r="4" fill="#3b82f6" stroke="#0d1117" stroke-width="2" class="data-point"/>
  
    <circle cx="511.20481927710847" cy="251.18409078374054" r="4" fill="#3b82f6" stroke="#0d1117" stroke-width="2" class="data-point"/>
  
    <circle cx="515.4216867469879" cy="248.96379129667423" r="4" fill="#3b82f6" stroke="#0d1117" stroke-width="2" class="data-point"/>
  
    <circle cx="519.6385542168674" cy="248.50990706524738" r="4" fill="#3b82f6" stroke="#0d1117" stroke-width="2" class="data-point"/>
  
    <circle cx="523.8554216867469" cy="248.45096106116597" r="4" fill="#3b82f6" stroke="#0d1117" stroke-width="2" class="data-point"/>
  
    <circle cx="528.0722891566265" cy="248.3743312558601" r="4" fill="#3b82f6" stroke="#0d1117" stroke-width="2" class="data-point"/>
  
    <circle cx="532.2891566265059" cy="248.3094906513706" r="4" fill="#3b82f6" stroke="#0d1117" stroke-width="2" class="data-point"/>
  
    <circle cx="536.5060240963855" cy="248.2250013788539" r="4" fill="#3b82f6" stroke="#0d1117" stroke-width="2" class="data-point"/>
  
    <circle cx="540.722891566265" cy="248.15033644035077" r="4" fill="#3b82f6" stroke="#0d1117" stroke-width="2" class="data-point"/>
  
    <circle cx="544.9397590361446" cy="248.1208634383101" r="4" fill="#3b82f6" stroke="#0d1117" stroke-width="2" class="data-point"/>
  
    <circle cx="549.1566265060242" cy="248.01279576416084" r="4" fill="#3b82f6" stroke="#0d1117" stroke-width="2" class="data-point"/>
  
    <circle cx="553.3734939759036" cy="247.90865782361703" r="4" fill="#3b82f6" stroke="#0d1117" stroke-width="2" class="data-point"/>
  
    <circle cx="557.5903614457832" cy="247.83988748552204" r="4" fill="#3b82f6" stroke="#0d1117" stroke-width="2" class="data-point"/>
  
    <circle cx="561.8072289156627" cy="247.81434421708676" r="4" fill="#3b82f6" stroke="#0d1117" stroke-width="2" class="data-point"/>
  
    <circle cx="566.0240963855422" cy="247.69841707572664" r="4" fill="#3b82f6" stroke="#0d1117" stroke-width="2" class="data-point"/>
  
    <circle cx="570.2409638554217" cy="244.84936021179197" r="4" fill="#3b82f6" stroke="#0d1117" stroke-width="2" class="data-point"/>
  
    <circle cx="574.4578313253012" cy="240.3871477028294" r="4" fill="#3b82f6" stroke="#0d1117" stroke-width="2" class="data-point"/>
  
    <circle cx="578.6746987951807" cy="237.39858529590202" r="4" fill="#3b82f6" stroke="#0d1117" stroke-width="2" class="data-point"/>
  
    <circle cx="582.8915662650602" cy="233.92863052230985" r="4" fill="#3b82f6" stroke="#0d1117" stroke-width="2" class="data-point"/>
  
    <circle cx="587.1084337349398" cy="230.35257294137114" r="4" fill="#3b82f6" stroke="#0d1117" stroke-width="2" class="data-point"/>
  
    <circle cx="591.3253012048193" cy="227.54674314709615" r="4" fill="#3b82f6" stroke="#0d1117" stroke-width="2" class="data-point"/>
  
    <circle cx="595.5421686746988" cy="224.40885086316254" r="4" fill="#3b82f6" stroke="#0d1117" stroke-width="2" class="data-point"/>
  
    <circle cx="599.7590361445783" cy="219.6283299321604" r="4" fill="#3b82f6" stroke="#0d1117" stroke-width="2" class="data-point"/>
  
    <circle cx="603.9759036144578" cy="213.18553168606255" r="4" fill="#3b82f6" stroke="#0d1117" stroke-width="2" class="data-point"/>
  
    <circle cx="608.1927710843373" cy="208.9807167282555" r="4" fill="#3b82f6" stroke="#0d1117" stroke-width="2" class="data-point"/>
  
    <circle cx="612.4096385542169" cy="203.97620098174397" r="4" fill="#3b82f6" stroke="#0d1117" stroke-width="2" class="data-point"/>
  
    <circle cx="616.6265060240964" cy="198.39990899564282" r="4" fill="#3b82f6" stroke="#0d1117" stroke-width="2" class="data-point"/>
  
    <circle cx="620.8433734939758" cy="193.9278721526667" r="4" fill="#3b82f6" stroke="#0d1117" stroke-width="2" class="data-point"/>
  
    <circle cx="625.0602409638554" cy="189.07465114996415" r="4" fill="#3b82f6" stroke="#0d1117" stroke-width="2" class="data-point"/>
  
    <circle cx="629.277108433735" cy="184.76962798521868" r="4" fill="#3b82f6" stroke="#0d1117" stroke-width="2" class="data-point"/>
  
    <circle cx="633.4939759036145" cy="180.5039021565275" r="4" fill="#3b82f6" stroke="#0d1117" stroke-width="2" class="data-point"/>
  
    <circle cx="637.710843373494" cy="176.24996552865258" r="4" fill="#3b82f6" stroke="#0d1117" stroke-width="2" class="data-point"/>
  
    <circle cx="641.9277108433735" cy="170.45753819425292" r="4" fill="#3b82f6" stroke="#0d1117" stroke-width="2" class="data-point"/>
  
    <circle cx="646.144578313253" cy="164.64742705862886" r="4" fill="#3b82f6" stroke="#0d1117" stroke-width="2" class="data-point"/>
  
    <circle cx="650.3614457831326" cy="159.80403038993987" r="4" fill="#3b82f6" stroke="#0d1117" stroke-width="2" class="data-point"/>
  
    <circle cx="654.5783132530121" cy="155.7446155755336" r="4" fill="#3b82f6" stroke="#0d1117" stroke-width="2" class="data-point"/>
  
    <circle cx="658.7951807228916" cy="151.8070225028956" r="4" fill="#3b82f6" stroke="#0d1117" stroke-width="2" class="data-point"/>
  
    <circle cx="663.0120481927711" cy="146.58047680767746" r="4" fill="#3b82f6" stroke="#0d1117" stroke-width="2" class="data-point"/>
  
    <circle cx="667.2289156626506" cy="142.52695659367933" r="4" fill="#3b82f6" stroke="#0d1117" stroke-width="2" class="data-point"/>
  
    <circle cx="671.4457831325301" cy="138.51666344934088" r="4" fill="#3b82f6" stroke="#0d1117" stroke-width="2" class="data-point"/>
  
    <circle cx="675.6626506024096" cy="134.76573272296068" r="4" fill="#3b82f6" stroke="#0d1117" stroke-width="2" class="data-point"/>
  
    <circle cx="679.8795180722892" cy="131.23290221168165" r="4" fill="#3b82f6" stroke="#0d1117" stroke-width="2" class="data-point"/>
  
    <circle cx="684.0963855421687" cy="127.61361756108323" r="4" fill="#3b82f6" stroke="#0d1117" stroke-width="2" class="data-point"/>
  
    <circle cx="688.3132530120481" cy="124.51895234680933" r="4" fill="#3b82f6" stroke="#0d1117" stroke-width="2" class="data-point"/>
  
    <circle cx="692.5301204819277" cy="121.31425459158348" r="4" fill="#3b82f6" stroke="#0d1117" stroke-width="2" class="data-point"/>
  
    <circle cx="696.7469879518072" cy="118.04275136506536" r="4" fill="#3b82f6" stroke="#0d1117" stroke-width="2" class="data-point"/>
  
    <circle cx="700.9638554216867" cy="114.58458579228946" r="4" fill="#3b82f6" stroke="#0d1117" stroke-width="2" class="data-point"/>
  
    <circle cx="705.1807228915662" cy="111.411325905907" r="4" fill="#3b82f6" stroke="#0d1117" stroke-width="2" class="data-point"/>
  
    <circle cx="709.3975903614457" cy="108.5052879046936" r="4" fill="#3b82f6" stroke="#0d1117" stroke-width="2" class="data-point"/>
  
    <circle cx="713.6144578313252" cy="103.2394448734212" r="4" fill="#3b82f6" stroke="#0d1117" stroke-width="2" class="data-point"/>
  
    <circle cx="717.8313253012049" cy="98.83224863493464" r="4" fill="#3b82f6" stroke="#0d1117" stroke-width="2" class="data-point"/>
  
    <circle cx="722.0481927710844" cy="94.59992554188958" r="4" fill="#3b82f6" stroke="#0d1117" stroke-width="2" class="data-point"/>
  
    <circle cx="726.2650602409639" cy="90.53461612707517" r="4" fill="#3b82f6" stroke="#0d1117" stroke-width="2" class="data-point"/>
  
    <circle cx="730.4819277108434" cy="84.11539628260991" r="4" fill="#3b82f6" stroke="#0d1117" stroke-width="2" class="data-point"/>
  
    <circle cx="734.6987951807229" cy="80.05401660140092" r="4" fill="#3b82f6" stroke="#0d1117" stroke-width="2" class="data-point"/>
  
    <circle cx="738.9156626506024" cy="76.53886989134628" r="4" fill="#3b82f6" stroke="#0d1117" stroke-width="2" class="data-point"/>
  
    <circle cx="743.132530120482" cy="72.38710633721251" r="4" fill="#3b82f6" stroke="#0d1117" stroke-width="2" class="data-point"/>
  
    <circle cx="747.3493975903615" cy="66.26654624675967" r="4" fill="#3b82f6" stroke="#0d1117" stroke-width="2" class="data-point"/>
  
    <circle cx="751.5662650602409" cy="61.86327974187856" r="4" fill="#3b82f6" stroke="#0d1117" stroke-width="2" class="data-point"/>
  
    <circle cx="755.7831325301205" cy="58.14575175114442" r="4" fill="#3b82f6" stroke="#0d1117" stroke-width="2" class="data-point"/>
  
    <circle cx="760" cy="55" r="4" fill="#3b82f6" stroke="#0d1117" stroke-width="2" class="data-point"/>
  

  <!-- Axis lines -->
  <line x1="60" y1="55" x2="60" y2="340"
        stroke="#30363d" stroke-width="2"/>
  <line x1="60" y1="340" x2="760" y2="340"
        stroke="#30363d" stroke-width="2"/>
</svg>