<?xml version="1.0" encoding="UTF-8"?>
<svg width="800" height="400" xmlns="http://www.w3.org/2000/svg">
  <defs>
    <!-- Gradient for area fill -->
    <linearGradient id="areaGradient" x1="0%" y1="0%" x2="0%" y2="100%">
      <stop offset="0%" style="stop-color:#3b82f6;stop-opacity:0.3" />
      <stop offset="100%" style="stop-color:#3b82f6;stop-opacity:0.05" />
    </linearGradient>

    <!-- Glow filter for line -->
    <filter id="glow">
      <feGaussianBlur stdDeviation="2" result="coloredBlur"/>
      <feMerge>
        <feMergeNode in="coloredBlur"/>
        <feMergeNode in="SourceGraphic"/>
      </feMerge>
    </filter>

    <!-- Animation -->
    <style>
      @keyframes draw {
        from { stroke-dashoffset: 2000; }
        to { stroke-dashoffset: 0; }
      }
      @keyframes fadeIn {
        from { opacity: 0; }
        to { opacity: 1; }
      }
      .line-path {
        stroke-dasharray: 2000;
        stroke-dashoffset: 2000;
        animation: draw 1.5s ease-out forwards;
      }
      .area-path {
        opacity: 0;
        animation: fadeIn 1s ease-out 0.5s forwards;
      }
      .data-point {
        opacity: 0;
        animation: fadeIn 0.5s ease-out 1s forwards;
      }
    </style>
  </defs>

  <!-- Background -->
  <rect width="800" height="400" fill="#0d1117" rx="8"/>

  <!-- Title -->
  <text x="400" y="25" text-anchor="middle" fill="#c9d1d9" font-family="system-ui, -apple-system, sans-serif" font-size="16" font-weight="600">
    zxcloli666/SoundCloud-Desktop Downloads
  </text>

  <!-- Stats -->
  <text x="780" y="25" text-anchor="end" fill="#58a6ff" font-family="system-ui, -apple-system, sans-serif" font-size="14" font-weight="600">
    106.8K total
  </text>
  <text x="780" y="42" text-anchor="end" fill="#3fb950" font-family="system-ui, -apple-system, sans-serif" font-size="12">
    +39 (+0.0%)
  </text>

  <!-- Grid lines -->
  <g opacity="0.1">
    
      <line x1="60" y1="340" x2="760" y2="340"
            stroke="#c9d1d9" stroke-width="1"/>
    
      <line x1="60" y1="268.75" x2="760" y2="268.75"
            stroke="#c9d1d9" stroke-width="1"/>
    
      <line x1="60" y1="197.5" x2="760" y2="197.5"
            stroke="#c9d1d9" stroke-width="1"/>
    
      <line x1="60" y1="126.25" x2="760" y2="126.25"
            stroke="#c9d1d9" stroke-width="1"/>
    
      <line x1="60" y1="55" x2="760" y2="55"
            stroke="#c9d1d9" stroke-width="1"/>
    
  </g>

  <!-- Y-axis labels -->
  
    <text x="50" y="344" text-anchor="end"
          fill="#8b949e" font-family="system-ui, -apple-system, sans-serif" font-size="11">
      60.2K
    </text>
  
    <text x="50" y="272.75" text-anchor="end"
          fill="#8b949e" font-family="system-ui, -apple-system, sans-serif" font-size="11">
      71.8K
    </text>
  
    <text x="50" y="201.5" text-anchor="end"
          fill="#8b949e" font-family="system-ui, -apple-system, sans-serif" font-size="11">
      83.5K
    </text>
  
    <text x="50" y="130.25" text-anchor="end"
          fill="#8b949e" font-family="system-ui, -apple-system, sans-serif" font-size="11">
      95.1K
    </text>
  
    <text x="50" y="59" text-anchor="end"
          fill="#8b949e" font-family="system-ui, -apple-system, sans-serif" font-size="11">
      106.8K
    </text>
  

  <!-- X-axis labels -->
  
    <text x="60" y="360" text-anchor="middle"
          fill="#8b949e" font-family="system-ui, -apple-system, sans-serif" font-size="11">
      Nov 25
    </text>
  
    <text x="148.2882882882883" y="360" text-anchor="middle"
          fill="#8b949e" font-family="system-ui, -apple-system, sans-serif" font-size="11">
      Dec 9
    </text>
  
    <text x="236.57657657657657" y="360" text-anchor="middle"
          fill="#8b949e" font-family="system-ui, -apple-system, sans-serif" font-size="11">
      Dec 23
    </text>
  
    <text x="324.8648648648649" y="360" text-anchor="middle"
          fill="#8b949e" font-family="system-ui, -apple-system, sans-serif" font-size="11">
      Jan 6
    </text>
  
    <text x="413.15315315315314" y="360" text-anchor="middle"
          fill="#8b949e" font-family="system-ui, -apple-system, sans-serif" font-size="11">
      Jan 20
    </text>
  
    <text x="501.44144144144144" y="360" text-anchor="middle"
          fill="#8b949e" font-family="system-ui, -apple-system, sans-serif" font-size="11">
      Feb 3
    </text>
  
    <text x="589.7297297297298" y="360" text-anchor="middle"
          fill="#8b949e" font-family="system-ui, -apple-system, sans-serif" font-size="11">
      Feb 17
    </text>
  
    <text x="678.018018018018" y="360" text-anchor="middle"
          fill="#8b949e" font-family="system-ui, -apple-system, sans-serif" font-size="11">
      Mar 3
    </text>
  
    <text x="760" y="360" text-anchor="middle"
          fill="#8b949e" font-family="system-ui, -apple-system, sans-serif" font-size="11">
      Mar 16
    </text>
  

  <!-- Area under line -->
  <path d="M 60 340
    L 60.00 340.00 L 66.31 339.10 L 72.61 337.57 L 78.92 336.16 L 85.23 333.34 L 91.53 330.43 L 97.84 328.14 L 104.14 326.00 L 110.45 324.10 L 116.76 321.87 L 123.06 319.38 L 129.37 316.71 L 135.68 314.29 L 141.98 311.72 L 148.29 309.84 L 154.59 307.90 L 160.90 305.26 L 167.21 303.49 L 173.51 301.05 L 179.82 298.23 L 186.13 296.10 L 192.43 294.35 L 198.74 293.22 L 205.05 292.28 L 211.35 290.54 L 217.66 289.30 L 223.96 286.58 L 230.27 285.51 L 236.58 284.13 L 242.88 282.34 L 249.19 281.12 L 255.50 279.88 L 261.80 278.58 L 268.11 277.67 L 274.41 276.89 L 280.72 275.70 L 287.03 274.25 L 293.33 272.92 L 299.64 271.23 L 305.95 269.39 L 312.25 267.70 L 318.56 265.67 L 324.86 263.67 L 331.17 261.67 L 337.48 259.48 L 343.78 257.39 L 350.09 255.00 L 356.40 252.87 L 362.70 251.07 L 369.01 249.63 L 375.32 247.61 L 381.62 245.31 L 387.93 243.20 L 394.23 240.73 L 400.54 237.70 L 406.85 235.44 L 413.15 233.56 L 419.46 231.77 L 425.77 229.63 L 432.07 227.14 L 438.38 224.37 L 444.68 221.47 L 450.99 218.68 L 457.30 216.23 L 463.60 213.80 L 469.91 211.65 L 476.22 209.47 L 482.52 207.02 L 488.83 203.98 L 495.14 201.71 L 501.44 199.68 L 507.75 197.43 L 514.05 195.32 L 520.36 193.01 L 526.67 190.61 L 532.97 188.09 L 539.28 185.88 L 545.59 183.99 L 551.89 181.92 L 558.20 179.68 L 564.50 177.60 L 570.81 174.89 L 577.12 172.56 L 583.42 170.32 L 589.73 168.46 L 596.04 166.65 L 602.34 164.83 L 608.65 162.66 L 614.95 160.43 L 621.26 157.73 L 627.57 155.53 L 633.87 153.74 L 640.18 151.90 L 646.49 150.14 L 652.79 147.96 L 659.10 145.73 L 665.41 140.80 L 671.71 130.99 L 678.02 119.29 L 684.32 108.64 L 690.63 103.24 L 696.94 95.10 L 703.24 89.69 L 709.55 84.95 L 715.86 80.31 L 722.16 75.94 L 728.47 69.14 L 734.77 63.74 L 741.08 56.83 L 747.39 55.42 L 753.69 55.24 L 760.00 55.00
    L 760 340
    Z" fill="url(#areaGradient)" class="area-path"/>

  <!-- Main line with glow -->
  <path d="M 60.00 340.00 L 66.31 339.10 L 72.61 337.57 L 78.92 336.16 L 85.23 333.34 L 91.53 330.43 L 97.84 328.14 L 104.14 326.00 L 110.45 324.10 L 116.76 321.87 L 123.06 319.38 L 129.37 316.71 L 135.68 314.29 L 141.98 311.72 L 148.29 309.84 L 154.59 307.90 L 160.90 305.26 L 167.21 303.49 L 173.51 301.05 L 179.82 298.23 L 186.13 296.10 L 192.43 294.35 L 198.74 293.22 L 205.05 292.28 L 211.35 290.54 L 217.66 289.30 L 223.96 286.58 L 230.27 285.51 L 236.58 284.13 L 242.88 282.34 L 249.19 281.12 L 255.50 279.88 L 261.80 278.58 L 268.11 277.67 L 274.41 276.89 L 280.72 275.70 L 287.03 274.25 L 293.33 272.92 L 299.64 271.23 L 305.95 269.39 L 312.25 267.70 L 318.56 265.67 L 324.86 263.67 L 331.17 261.67 L 337.48 259.48 L 343.78 257.39 L 350.09 255.00 L 356.40 252.87 L 362.70 251.07 L 369.01 249.63 L 375.32 247.61 L 381.62 245.31 L 387.93 243.20 L 394.23 240.73 L 400.54 237.70 L 406.85 235.44 L 413.15 233.56 L 419.46 231.77 L 425.77 229.63 L 432.07 227.14 L 438.38 224.37 L 444.68 221.47 L 450.99 218.68 L 457.30 216.23 L 463.60 213.80 L 469.91 211.65 L 476.22 209.47 L 482.52 207.02 L 488.83 203.98 L 495.14 201.71 L 501.44 199.68 L 507.75 197.43 L 514.05 195.32 L 520.36 193.01 L 526.67 190.61 L 532.97 188.09 L 539.28 185.88 L 545.59 183.99 L 551.89 181.92 L 558.20 179.68 L 564.50 177.60 L 570.81 174.89 L 577.12 172.56 L 583.42 170.32 L 589.73 168.46 L 596.04 166.65 L 602.34 164.83 L 608.65 162.66 L 614.95 160.43 L 621.26 157.73 L 627.57 155.53 L 633.87 153.74 L 640.18 151.90 L 646.49 150.14 L 652.79 147.96 L 659.10 145.73 L 665.41 140.80 L 671.71 130.99 L 678.02 119.29 L 684.32 108.64 L 690.63 103.24 L 696.94 95.10 L 703.24 89.69 L 709.55 84.95 L 715.86 80.31 L 722.16 75.94 L 728.47 69.14 L 734.77 63.74 L 741.08 56.83 L 747.39 55.42 L 753.69 55.24 L 760.00 55.00" fill="none" stroke="#3b82f6" stroke-width="3"
        stroke-linecap="round" stroke-linejoin="round" filter="url(#glow)" class="line-path"/>

  <!-- Data points -->
  
    <circle cx="60" cy="340" r="4" fill="#3b82f6" stroke="#0d1117" stroke-width="2" class="data-point"/>
  
    <circle cx="66.30630630630631" cy="339.10158260422025" r="4" fill="#3b82f6" stroke="#0d1117" stroke-width="2" class="data-point"/>
  
    <circle cx="72.61261261261261" cy="337.5736618630983" r="4" fill="#3b82f6" stroke="#0d1117" stroke-width="2" class="data-point"/>
  
    <circle cx="78.91891891891892" cy="336.15575141533714" r="4" fill="#3b82f6" stroke="#0d1117" stroke-width="2" class="data-point"/>
  
    <circle cx="85.22522522522522" cy="333.3382655687082" r="4" fill="#3b82f6" stroke="#0d1117" stroke-width="2" class="data-point"/>
  
    <circle cx="91.53153153153153" cy="330.42910447761193" r="4" fill="#3b82f6" stroke="#0d1117" stroke-width="2" class="data-point"/>
  
    <circle cx="97.83783783783784" cy="328.137223365929" r="4" fill="#3b82f6" stroke="#0d1117" stroke-width="2" class="data-point"/>
  
    <circle cx="104.14414414414415" cy="325.9981343283582" r="4" fill="#3b82f6" stroke="#0d1117" stroke-width="2" class="data-point"/>
  
    <circle cx="110.45045045045045" cy="324.0974009264025" r="4" fill="#3b82f6" stroke="#0d1117" stroke-width="2" class="data-point"/>
  
    <circle cx="116.75675675675676" cy="321.8666366443644" r="4" fill="#3b82f6" stroke="#0d1117" stroke-width="2" class="data-point"/>
  
    <circle cx="123.06306306306305" cy="319.3791816778178" r="4" fill="#3b82f6" stroke="#0d1117" stroke-width="2" class="data-point"/>
  
    <circle cx="129.36936936936937" cy="316.7144879053011" r="4" fill="#3b82f6" stroke="#0d1117" stroke-width="2" class="data-point"/>
  
    <circle cx="135.67567567567568" cy="314.29426145136387" r="4" fill="#3b82f6" stroke="#0d1117" stroke-width="2" class="data-point"/>
  
    <circle cx="141.98198198198196" cy="311.72124292331443" r="4" fill="#3b82f6" stroke="#0d1117" stroke-width="2" class="data-point"/>
  
    <circle cx="148.2882882882883" cy="309.84495625321665" r="4" fill="#3b82f6" stroke="#0d1117" stroke-width="2" class="data-point"/>
  
    <circle cx="154.59459459459458" cy="307.9014410705095" r="4" fill="#3b82f6" stroke="#0d1117" stroke-width="2" class="data-point"/>
  
    <circle cx="160.9009009009009" cy="305.26119402985074" r="4" fill="#3b82f6" stroke="#0d1117" stroke-width="2" class="data-point"/>
  
    <circle cx="167.2072072072072" cy="303.49491765311376" r="4" fill="#3b82f6" stroke="#0d1117" stroke-width="2" class="data-point"/>
  
    <circle cx="173.51351351351352" cy="301.0502444673186" r="4" fill="#3b82f6" stroke="#0d1117" stroke-width="2" class="data-point"/>
  
    <circle cx="179.81981981981983" cy="298.22664693772515" r="4" fill="#3b82f6" stroke="#0d1117" stroke-width="2" class="data-point"/>
  
    <circle cx="186.1261261261261" cy="296.09978126608337" r="4" fill="#3b82f6" stroke="#0d1117" stroke-width="2" class="data-point"/>
  
    <circle cx="192.43243243243245" cy="294.35183993823983" r="4" fill="#3b82f6" stroke="#0d1117" stroke-width="2" class="data-point"/>
  
    <circle cx="198.73873873873873" cy="293.2211785898096" r="4" fill="#3b82f6" stroke="#0d1117" stroke-width="2" class="data-point"/>
  
    <circle cx="205.04504504504504" cy="292.27997941327845" r="4" fill="#3b82f6" stroke="#0d1117" stroke-width="2" class="data-point"/>
  
    <circle cx="211.35135135135135" cy="290.53814976839936" r="4" fill="#3b82f6" stroke="#0d1117" stroke-width="2" class="data-point"/>
  
    <circle cx="217.65765765765767" cy="289.2974781266083" r="4" fill="#3b82f6" stroke="#0d1117" stroke-width="2" class="data-point"/>
  
    <circle cx="223.96396396396395" cy="286.57777920741125" r="4" fill="#3b82f6" stroke="#0d1117" stroke-width="2" class="data-point"/>
  
    <circle cx="230.2702702702703" cy="285.50823468862586" r="4" fill="#3b82f6" stroke="#0d1117" stroke-width="2" class="data-point"/>
  
    <circle cx="236.57657657657657" cy="284.12699433865157" r="4" fill="#3b82f6" stroke="#0d1117" stroke-width="2" class="data-point"/>
  
    <circle cx="242.88288288288288" cy="282.3423829130211" r="4" fill="#3b82f6" stroke="#0d1117" stroke-width="2" class="data-point"/>
  
    <circle cx="249.1891891891892" cy="281.1200463201235" r="4" fill="#3b82f6" stroke="#0d1117" stroke-width="2" class="data-point"/>
  
    <circle cx="255.49549549549548" cy="279.87937467833245" r="4" fill="#3b82f6" stroke="#0d1117" stroke-width="2" class="data-point"/>
  
    <circle cx="261.8018018018018" cy="278.57758620689657" r="4" fill="#3b82f6" stroke="#0d1117" stroke-width="2" class="data-point"/>
  
    <circle cx="268.1081081081081" cy="277.6730571281523" r="4" fill="#3b82f6" stroke="#0d1117" stroke-width="2" class="data-point"/>
  
    <circle cx="274.4144144144144" cy="276.8907617086979" r="4" fill="#3b82f6" stroke="#0d1117" stroke-width="2" class="data-point"/>
  
    <circle cx="280.7207207207207" cy="275.69898353062274" r="4" fill="#3b82f6" stroke="#0d1117" stroke-width="2" class="data-point"/>
  
    <circle cx="287.02702702702703" cy="274.2505146680391" r="4" fill="#3b82f6" stroke="#0d1117" stroke-width="2" class="data-point"/>
  
    <circle cx="293.3333333333333" cy="272.91816778178077" r="4" fill="#3b82f6" stroke="#0d1117" stroke-width="2" class="data-point"/>
  
    <circle cx="299.63963963963965" cy="271.2313432835821" r="4" fill="#3b82f6" stroke="#0d1117" stroke-width="2" class="data-point"/>
  
    <circle cx="305.94594594594594" cy="269.39172671127125" r="4" fill="#3b82f6" stroke="#0d1117" stroke-width="2" class="data-point"/>
  
    <circle cx="312.2522522522522" cy="267.70490221307256" r="4" fill="#3b82f6" stroke="#0d1117" stroke-width="2" class="data-point"/>
  
    <circle cx="318.55855855855856" cy="265.66971178589813" r="4" fill="#3b82f6" stroke="#0d1117" stroke-width="2" class="data-point"/>
  
    <circle cx="324.8648648648649" cy="263.67119145651054" r="4" fill="#3b82f6" stroke="#0d1117" stroke-width="2" class="data-point"/>
  
    <circle cx="331.1711711711712" cy="261.672671127123" r="4" fill="#3b82f6" stroke="#0d1117" stroke-width="2" class="data-point"/>
  
    <circle cx="337.47747747747746" cy="259.4846886258363" r="4" fill="#3b82f6" stroke="#0d1117" stroke-width="2" class="data-point"/>
  
    <circle cx="343.7837837837838" cy="257.3944930519815" r="4" fill="#3b82f6" stroke="#0d1117" stroke-width="2" class="data-point"/>
  
    <circle cx="350.0900900900901" cy="255.00482501286672" r="4" fill="#3b82f6" stroke="#0d1117" stroke-width="2" class="data-point"/>
  
    <circle cx="356.3963963963964" cy="252.87184765826044" r="4" fill="#3b82f6" stroke="#0d1117" stroke-width="2" class="data-point"/>
  
    <circle cx="362.7027027027027" cy="251.0689011837365" r="4" fill="#3b82f6" stroke="#0d1117" stroke-width="2" class="data-point"/>
  
    <circle cx="369.009009009009" cy="249.62654400411736" r="4" fill="#3b82f6" stroke="#0d1117" stroke-width="2" class="data-point"/>
  
    <circle cx="375.31531531531533" cy="247.60968862583633" r="4" fill="#3b82f6" stroke="#0d1117" stroke-width="2" class="data-point"/>
  
    <circle cx="381.6216216216216" cy="245.3055841482244" r="4" fill="#3b82f6" stroke="#0d1117" stroke-width="2" class="data-point"/>
  
    <circle cx="387.9279279279279" cy="243.19705352547606" r="4" fill="#3b82f6" stroke="#0d1117" stroke-width="2" class="data-point"/>
  
    <circle cx="394.23423423423424" cy="240.73404529078744" r="4" fill="#3b82f6" stroke="#0d1117" stroke-width="2" class="data-point"/>
  
    <circle cx="400.5405405405406" cy="237.69653885743696" r="4" fill="#3b82f6" stroke="#0d1117" stroke-width="2" class="data-point"/>
  
    <circle cx="406.84684684684686" cy="235.43521616057643" r="4" fill="#3b82f6" stroke="#0d1117" stroke-width="2" class="data-point"/>
  
    <circle cx="413.15315315315314" cy="233.55892949047865" r="4" fill="#3b82f6" stroke="#0d1117" stroke-width="2" class="data-point"/>
  
    <circle cx="419.4594594594594" cy="231.77431806484816" r="4" fill="#3b82f6" stroke="#0d1117" stroke-width="2" class="data-point"/>
  
    <circle cx="425.76576576576576" cy="229.62911734431293" r="4" fill="#3b82f6" stroke="#0d1117" stroke-width="2" class="data-point"/>
  
    <circle cx="432.0720720720721" cy="227.13555069480185" r="4" fill="#3b82f6" stroke="#0d1117" stroke-width="2" class="data-point"/>
  
    <circle cx="438.3783783783784" cy="224.37306999485332" r="4" fill="#3b82f6" stroke="#0d1117" stroke-width="2" class="data-point"/>
  
    <circle cx="444.6846846846847" cy="221.47002058672155" r="4" fill="#3b82f6" stroke="#0d1117" stroke-width="2" class="data-point"/>
  
    <circle cx="450.99099099099095" cy="218.68309315491507" r="4" fill="#3b82f6" stroke="#0d1117" stroke-width="2" class="data-point"/>
  
    <circle cx="457.2972972972973" cy="216.23230828615544" r="4" fill="#3b82f6" stroke="#0d1117" stroke-width="2" class="data-point"/>
  
    <circle cx="463.6036036036036" cy="213.79985846628927" r="4" fill="#3b82f6" stroke="#0d1117" stroke-width="2" class="data-point"/>
  
    <circle cx="469.9099099099099" cy="211.654657745754" r="4" fill="#3b82f6" stroke="#0d1117" stroke-width="2" class="data-point"/>
  
    <circle cx="476.21621621621625" cy="209.46667524446733" r="4" fill="#3b82f6" stroke="#0d1117" stroke-width="2" class="data-point"/>
  
    <circle cx="482.52252252252254" cy="207.02200205867214" r="4" fill="#3b82f6" stroke="#0d1117" stroke-width="2" class="data-point"/>
  
    <circle cx="488.8288288288288" cy="203.97838394235717" r="4" fill="#3b82f6" stroke="#0d1117" stroke-width="2" class="data-point"/>
  
    <circle cx="495.1351351351351" cy="201.71094956253216" r="4" fill="#3b82f6" stroke="#0d1117" stroke-width="2" class="data-point"/>
  
    <circle cx="501.44144144144144" cy="199.68187081832218" r="4" fill="#3b82f6" stroke="#0d1117" stroke-width="2" class="data-point"/>
  
    <circle cx="507.7477477477478" cy="197.42665980442615" r="4" fill="#3b82f6" stroke="#0d1117" stroke-width="2" class="data-point"/>
  
    <circle cx="514.0540540540541" cy="195.32424086464232" r="4" fill="#3b82f6" stroke="#0d1117" stroke-width="2" class="data-point"/>
  
    <circle cx="520.3603603603603" cy="193.0140247040659" r="4" fill="#3b82f6" stroke="#0d1117" stroke-width="2" class="data-point"/>
  
    <circle cx="526.6666666666666" cy="190.60602161605763" r="4" fill="#3b82f6" stroke="#0d1117" stroke-width="2" class="data-point"/>
  
    <circle cx="532.9729729729729" cy="188.08800823468863" r="4" fill="#3b82f6" stroke="#0d1117" stroke-width="2" class="data-point"/>
  
    <circle cx="539.2792792792793" cy="185.88169068450847" r="4" fill="#3b82f6" stroke="#0d1117" stroke-width="2" class="data-point"/>
  
    <circle cx="545.5855855855856" cy="183.9931806484817" r="4" fill="#3b82f6" stroke="#0d1117" stroke-width="2" class="data-point"/>
  
    <circle cx="551.8918918918919" cy="181.92132012352033" r="4" fill="#3b82f6" stroke="#0d1117" stroke-width="2" class="data-point"/>
  
    <circle cx="558.1981981981982" cy="179.67833247555328" r="4" fill="#3b82f6" stroke="#0d1117" stroke-width="2" class="data-point"/>
  
    <circle cx="564.5045045045044" cy="177.6003602676274" r="4" fill="#3b82f6" stroke="#0d1117" stroke-width="2" class="data-point"/>
  
    <circle cx="570.8108108108108" cy="174.89288471435924" r="4" fill="#3b82f6" stroke="#0d1117" stroke-width="2" class="data-point"/>
  
    <circle cx="577.1171171171171" cy="172.56433350488936" r="4" fill="#3b82f6" stroke="#0d1117" stroke-width="2" class="data-point"/>
  
    <circle cx="583.4234234234234" cy="170.3213458569223" r="4" fill="#3b82f6" stroke="#0d1117" stroke-width="2" class="data-point"/>
  
    <circle cx="589.7297297297298" cy="168.4572825527535" r="4" fill="#3b82f6" stroke="#0d1117" stroke-width="2" class="data-point"/>
  
    <circle cx="596.036036036036" cy="166.64822439526506" r="4" fill="#3b82f6" stroke="#0d1117" stroke-width="2" class="data-point"/>
  
    <circle cx="602.3423423423424" cy="164.83305455481215" r="4" fill="#3b82f6" stroke="#0d1117" stroke-width="2" class="data-point"/>
  
    <circle cx="608.6486486486486" cy="162.66340710241892" r="4" fill="#3b82f6" stroke="#0d1117" stroke-width="2" class="data-point"/>
  
    <circle cx="614.9549549549549" cy="160.43264282038086" r="4" fill="#3b82f6" stroke="#0d1117" stroke-width="2" class="data-point"/>
  
    <circle cx="621.2612612612613" cy="157.72516726711274" r="4" fill="#3b82f6" stroke="#0d1117" stroke-width="2" class="data-point"/>
  
    <circle cx="627.5675675675676" cy="155.53107308286155" r="4" fill="#3b82f6" stroke="#0d1117" stroke-width="2" class="data-point"/>
  
    <circle cx="633.8738738738739" cy="153.7403499742666" r="4" fill="#3b82f6" stroke="#0d1117" stroke-width="2" class="data-point"/>
  
    <circle cx="640.1801801801802" cy="151.90073340195573" r="4" fill="#3b82f6" stroke="#0d1117" stroke-width="2" class="data-point"/>
  
    <circle cx="646.4864864864865" cy="150.14056870818322" r="4" fill="#3b82f6" stroke="#0d1117" stroke-width="2" class="data-point"/>
  
    <circle cx="652.7927927927929" cy="147.96480957282554" r="4" fill="#3b82f6" stroke="#0d1117" stroke-width="2" class="data-point"/>
  
    <circle cx="659.0990990990991" cy="145.73404529078744" r="4" fill="#3b82f6" stroke="#0d1117" stroke-width="2" class="data-point"/>
  
    <circle cx="665.4054054054054" cy="140.8019171384457" r="4" fill="#3b82f6" stroke="#0d1117" stroke-width="2" class="data-point"/>
  
    <circle cx="671.7117117117117" cy="130.98655429747814" r="4" fill="#3b82f6" stroke="#0d1117" stroke-width="2" class="data-point"/>
  
    <circle cx="678.018018018018" cy="119.29490478641276" r="4" fill="#3b82f6" stroke="#0d1117" stroke-width="2" class="data-point"/>
  
    <circle cx="684.3243243243243" cy="108.64224137931035" r="4" fill="#3b82f6" stroke="#0d1117" stroke-width="2" class="data-point"/>
  
    <circle cx="690.6306306306307" cy="103.23951363870302" r="4" fill="#3b82f6" stroke="#0d1117" stroke-width="2" class="data-point"/>
  
    <circle cx="696.936936936937" cy="95.09875193000514" r="4" fill="#3b82f6" stroke="#0d1117" stroke-width="2" class="data-point"/>
  
    <circle cx="703.2432432432432" cy="89.68991250643336" r="4" fill="#3b82f6" stroke="#0d1117" stroke-width="2" class="data-point"/>
  
    <circle cx="709.5495495495495" cy="84.94724652599072" r="4" fill="#3b82f6" stroke="#0d1117" stroke-width="2" class="data-point"/>
  
    <circle cx="715.8558558558558" cy="80.30847915594438" r="4" fill="#3b82f6" stroke="#0d1117" stroke-width="2" class="data-point"/>
  
    <circle cx="722.1621621621622" cy="75.93862583633558" r="4" fill="#3b82f6" stroke="#0d1117" stroke-width="2" class="data-point"/>
  
    <circle cx="728.4684684684685" cy="69.14243437982503" r="4" fill="#3b82f6" stroke="#0d1117" stroke-width="2" class="data-point"/>
  
    <circle cx="734.7747747747748" cy="63.73970663921773" r="4" fill="#3b82f6" stroke="#0d1117" stroke-width="2" class="data-point"/>
  
    <circle cx="741.0810810810812" cy="56.833504889346386" r="4" fill="#3b82f6" stroke="#0d1117" stroke-width="2" class="data-point"/>
  
    <circle cx="747.3873873873873" cy="55.4217061245497" r="4" fill="#3b82f6" stroke="#0d1117" stroke-width="2" class="data-point"/>
  
    <circle cx="753.6936936936937" cy="55.23835563561505" r="4" fill="#3b82f6" stroke="#0d1117" stroke-width="2" class="data-point"/>
  
    <circle cx="760" cy="55" r="4" fill="#3b82f6" stroke="#0d1117" stroke-width="2" class="data-point"/>
  

  <!-- Axis lines -->
  <line x1="60" y1="55" x2="60" y2="340"
        stroke="#30363d" stroke-width="2"/>
  <line x1="60" y1="340" x2="760" y2="340"
        stroke="#30363d" stroke-width="2"/>
</svg>