<?xml version="1.0" encoding="UTF-8"?>
<svg width="800" height="400" xmlns="http://www.w3.org/2000/svg">
  <defs>
    <!-- Gradient for area fill -->
    <linearGradient id="areaGradient" x1="0%" y1="0%" x2="0%" y2="100%">
      <stop offset="0%" style="stop-color:#3b82f6;stop-opacity:0.3" />
      <stop offset="100%" style="stop-color:#3b82f6;stop-opacity:0.05" />
    </linearGradient>

    <!-- Glow filter for line -->
    <filter id="glow">
      <feGaussianBlur stdDeviation="2" result="coloredBlur"/>
      <feMerge>
        <feMergeNode in="coloredBlur"/>
        <feMergeNode in="SourceGraphic"/>
      </feMerge>
    </filter>

    <!-- Animation -->
    <style>
      @keyframes draw {
        from { stroke-dashoffset: 2000; }
        to { stroke-dashoffset: 0; }
      }
      @keyframes fadeIn {
        from { opacity: 0; }
        to { opacity: 1; }
      }
      .line-path {
        stroke-dasharray: 2000;
        stroke-dashoffset: 2000;
        animation: draw 1.5s ease-out forwards;
      }
      .area-path {
        opacity: 0;
        animation: fadeIn 1s ease-out 0.5s forwards;
      }
      .data-point {
        opacity: 0;
        animation: fadeIn 0.5s ease-out 1s forwards;
      }
    </style>
  </defs>

  <!-- Background -->
  <rect width="800" height="400" fill="#0d1117" rx="8"/>

  <!-- Title -->
  <text x="400" y="25" text-anchor="middle" fill="#c9d1d9" font-family="system-ui, -apple-system, sans-serif" font-size="16" font-weight="600">
    zxcloli666/SoundCloud-Desktop Downloads
  </text>

  <!-- Stats -->
  <text x="780" y="25" text-anchor="end" fill="#58a6ff" font-family="system-ui, -apple-system, sans-serif" font-size="14" font-weight="600">
    180.6K total
  </text>
  <text x="780" y="42" text-anchor="end" fill="#3fb950" font-family="system-ui, -apple-system, sans-serif" font-size="12">
    +2.7K (+1.5%)
  </text>

  <!-- Grid lines -->
  <g opacity="0.1">
    
      <line x1="60" y1="340" x2="760" y2="340"
            stroke="#c9d1d9" stroke-width="1"/>
    
      <line x1="60" y1="268.75" x2="760" y2="268.75"
            stroke="#c9d1d9" stroke-width="1"/>
    
      <line x1="60" y1="197.5" x2="760" y2="197.5"
            stroke="#c9d1d9" stroke-width="1"/>
    
      <line x1="60" y1="126.25" x2="760" y2="126.25"
            stroke="#c9d1d9" stroke-width="1"/>
    
      <line x1="60" y1="55" x2="760" y2="55"
            stroke="#c9d1d9" stroke-width="1"/>
    
  </g>

  <!-- Y-axis labels -->
  
    <text x="50" y="344" text-anchor="end"
          fill="#8b949e" font-family="system-ui, -apple-system, sans-serif" font-size="11">
      60.2K
    </text>
  
    <text x="50" y="272.75" text-anchor="end"
          fill="#8b949e" font-family="system-ui, -apple-system, sans-serif" font-size="11">
      90.3K
    </text>
  
    <text x="50" y="201.5" text-anchor="end"
          fill="#8b949e" font-family="system-ui, -apple-system, sans-serif" font-size="11">
      120.4K
    </text>
  
    <text x="50" y="130.25" text-anchor="end"
          fill="#8b949e" font-family="system-ui, -apple-system, sans-serif" font-size="11">
      150.5K
    </text>
  
    <text x="50" y="59" text-anchor="end"
          fill="#8b949e" font-family="system-ui, -apple-system, sans-serif" font-size="11">
      180.6K
    </text>
  

  <!-- X-axis labels -->
  
    <text x="60" y="360" text-anchor="middle"
          fill="#8b949e" font-family="system-ui, -apple-system, sans-serif" font-size="11">
      Nov 25
    </text>
  
    <text x="145.80645161290323" y="360" text-anchor="middle"
          fill="#8b949e" font-family="system-ui, -apple-system, sans-serif" font-size="11">
      Dec 14
    </text>
  
    <text x="231.61290322580643" y="360" text-anchor="middle"
          fill="#8b949e" font-family="system-ui, -apple-system, sans-serif" font-size="11">
      Jan 2
    </text>
  
    <text x="317.4193548387097" y="360" text-anchor="middle"
          fill="#8b949e" font-family="system-ui, -apple-system, sans-serif" font-size="11">
      Jan 21
    </text>
  
    <text x="403.22580645161287" y="360" text-anchor="middle"
          fill="#8b949e" font-family="system-ui, -apple-system, sans-serif" font-size="11">
      Feb 9
    </text>
  
    <text x="489.03225806451616" y="360" text-anchor="middle"
          fill="#8b949e" font-family="system-ui, -apple-system, sans-serif" font-size="11">
      Feb 28
    </text>
  
    <text x="574.8387096774194" y="360" text-anchor="middle"
          fill="#8b949e" font-family="system-ui, -apple-system, sans-serif" font-size="11">
      Mar 19
    </text>
  
    <text x="660.6451612903226" y="360" text-anchor="middle"
          fill="#8b949e" font-family="system-ui, -apple-system, sans-serif" font-size="11">
      Apr 7
    </text>
  
    <text x="746.4516129032257" y="360" text-anchor="middle"
          fill="#8b949e" font-family="system-ui, -apple-system, sans-serif" font-size="11">
      Apr 26
    </text>
  
    <text x="760" y="360" text-anchor="middle"
          fill="#8b949e" font-family="system-ui, -apple-system, sans-serif" font-size="11">
      Apr 29
    </text>
  

  <!-- Area under line -->
  <path d="M 60 340
    L 60.00 340.00 L 64.52 339.65 L 69.03 339.06 L 73.55 338.51 L 78.06 337.42 L 82.58 336.30 L 87.10 335.41 L 91.61 334.58 L 96.13 333.85 L 100.65 332.98 L 105.16 332.02 L 109.68 330.99 L 114.19 330.05 L 118.71 329.06 L 123.23 328.33 L 127.74 327.58 L 132.26 326.56 L 136.77 325.87 L 141.29 324.93 L 145.81 323.83 L 150.32 323.01 L 154.84 322.33 L 159.35 321.90 L 163.87 321.53 L 168.39 320.86 L 172.90 320.38 L 177.42 319.33 L 181.94 318.91 L 186.45 318.38 L 190.97 317.69 L 195.48 317.21 L 200.00 316.73 L 204.52 316.23 L 209.03 315.88 L 213.55 315.58 L 218.06 315.12 L 222.58 314.56 L 227.10 314.04 L 231.61 313.39 L 236.13 312.67 L 240.65 312.02 L 245.16 311.23 L 249.68 310.46 L 254.19 309.69 L 258.71 308.84 L 263.23 308.03 L 267.74 307.11 L 272.26 306.28 L 276.77 305.58 L 281.29 305.03 L 285.81 304.25 L 290.32 303.35 L 294.84 302.54 L 299.35 301.58 L 303.87 300.41 L 308.39 299.53 L 312.90 298.81 L 317.42 298.12 L 321.94 297.29 L 326.45 296.32 L 330.97 295.25 L 335.48 294.13 L 340.00 293.05 L 344.52 292.10 L 349.03 291.16 L 353.55 290.33 L 358.06 289.48 L 362.58 288.54 L 367.10 287.36 L 371.61 286.48 L 376.13 285.70 L 380.65 284.82 L 385.16 284.01 L 389.68 283.12 L 394.19 282.18 L 398.71 281.21 L 403.23 280.36 L 407.74 279.63 L 412.26 278.82 L 416.77 277.96 L 421.29 277.15 L 425.81 276.10 L 430.32 275.20 L 434.84 274.33 L 439.35 273.61 L 443.87 272.91 L 448.39 272.21 L 452.90 271.37 L 457.42 270.51 L 461.94 269.46 L 466.45 268.61 L 470.97 267.92 L 475.48 267.21 L 480.00 266.52 L 484.52 265.68 L 489.03 264.82 L 493.55 262.91 L 498.06 259.11 L 502.58 254.59 L 507.10 250.47 L 511.61 248.37 L 516.13 245.22 L 520.65 243.13 L 525.16 241.30 L 529.68 239.50 L 534.19 237.81 L 538.71 235.18 L 543.23 233.09 L 547.74 230.42 L 552.26 229.87 L 556.77 229.80 L 561.29 229.71 L 565.81 229.63 L 570.32 229.53 L 574.84 229.44 L 579.35 229.40 L 583.87 229.27 L 588.39 229.15 L 592.90 229.06 L 597.42 229.03 L 601.94 228.89 L 606.45 225.46 L 610.97 220.09 L 615.48 216.49 L 620.00 212.32 L 624.52 208.01 L 629.03 204.63 L 633.55 200.86 L 638.06 195.10 L 642.58 187.35 L 647.10 182.29 L 651.61 176.26 L 656.13 169.55 L 660.65 164.17 L 665.16 158.32 L 669.68 153.14 L 674.19 148.01 L 678.71 142.89 L 683.23 135.91 L 687.74 128.92 L 692.26 123.09 L 696.77 118.20 L 701.29 113.46 L 705.81 107.17 L 710.32 102.29 L 714.84 97.46 L 719.35 92.95 L 723.87 88.70 L 728.39 84.34 L 732.90 80.62 L 737.42 76.76 L 741.94 72.82 L 746.45 68.66 L 750.97 64.84 L 755.48 61.34 L 760.00 55.00
    L 760 340
    Z" fill="url(#areaGradient)" class="area-path"/>

  <!-- Main line with glow -->
  <path d="M 60.00 340.00 L 64.52 339.65 L 69.03 339.06 L 73.55 338.51 L 78.06 337.42 L 82.58 336.30 L 87.10 335.41 L 91.61 334.58 L 96.13 333.85 L 100.65 332.98 L 105.16 332.02 L 109.68 330.99 L 114.19 330.05 L 118.71 329.06 L 123.23 328.33 L 127.74 327.58 L 132.26 326.56 L 136.77 325.87 L 141.29 324.93 L 145.81 323.83 L 150.32 323.01 L 154.84 322.33 L 159.35 321.90 L 163.87 321.53 L 168.39 320.86 L 172.90 320.38 L 177.42 319.33 L 181.94 318.91 L 186.45 318.38 L 190.97 317.69 L 195.48 317.21 L 200.00 316.73 L 204.52 316.23 L 209.03 315.88 L 213.55 315.58 L 218.06 315.12 L 222.58 314.56 L 227.10 314.04 L 231.61 313.39 L 236.13 312.67 L 240.65 312.02 L 245.16 311.23 L 249.68 310.46 L 254.19 309.69 L 258.71 308.84 L 263.23 308.03 L 267.74 307.11 L 272.26 306.28 L 276.77 305.58 L 281.29 305.03 L 285.81 304.25 L 290.32 303.35 L 294.84 302.54 L 299.35 301.58 L 303.87 300.41 L 308.39 299.53 L 312.90 298.81 L 317.42 298.12 L 321.94 297.29 L 326.45 296.32 L 330.97 295.25 L 335.48 294.13 L 340.00 293.05 L 344.52 292.10 L 349.03 291.16 L 353.55 290.33 L 358.06 289.48 L 362.58 288.54 L 367.10 287.36 L 371.61 286.48 L 376.13 285.70 L 380.65 284.82 L 385.16 284.01 L 389.68 283.12 L 394.19 282.18 L 398.71 281.21 L 403.23 280.36 L 407.74 279.63 L 412.26 278.82 L 416.77 277.96 L 421.29 277.15 L 425.81 276.10 L 430.32 275.20 L 434.84 274.33 L 439.35 273.61 L 443.87 272.91 L 448.39 272.21 L 452.90 271.37 L 457.42 270.51 L 461.94 269.46 L 466.45 268.61 L 470.97 267.92 L 475.48 267.21 L 480.00 266.52 L 484.52 265.68 L 489.03 264.82 L 493.55 262.91 L 498.06 259.11 L 502.58 254.59 L 507.10 250.47 L 511.61 248.37 L 516.13 245.22 L 520.65 243.13 L 525.16 241.30 L 529.68 239.50 L 534.19 237.81 L 538.71 235.18 L 543.23 233.09 L 547.74 230.42 L 552.26 229.87 L 556.77 229.80 L 561.29 229.71 L 565.81 229.63 L 570.32 229.53 L 574.84 229.44 L 579.35 229.40 L 583.87 229.27 L 588.39 229.15 L 592.90 229.06 L 597.42 229.03 L 601.94 228.89 L 606.45 225.46 L 610.97 220.09 L 615.48 216.49 L 620.00 212.32 L 624.52 208.01 L 629.03 204.63 L 633.55 200.86 L 638.06 195.10 L 642.58 187.35 L 647.10 182.29 L 651.61 176.26 L 656.13 169.55 L 660.65 164.17 L 665.16 158.32 L 669.68 153.14 L 674.19 148.01 L 678.71 142.89 L 683.23 135.91 L 687.74 128.92 L 692.26 123.09 L 696.77 118.20 L 701.29 113.46 L 705.81 107.17 L 710.32 102.29 L 714.84 97.46 L 719.35 92.95 L 723.87 88.70 L 728.39 84.34 L 732.90 80.62 L 737.42 76.76 L 741.94 72.82 L 746.45 68.66 L 750.97 64.84 L 755.48 61.34 L 760.00 55.00" fill="none" stroke="#3b82f6" stroke-width="3"
        stroke-linecap="round" stroke-linejoin="round" filter="url(#glow)" class="line-path"/>

  <!-- Data points -->
  
    <circle cx="60" cy="340" r="4" fill="#3b82f6" stroke="#0d1117" stroke-width="2" class="data-point"/>
  
    <circle cx="64.51612903225806" cy="339.6523149953941" r="4" fill="#3b82f6" stroke="#0d1117" stroke-width="2" class="data-point"/>
  
    <circle cx="69.03225806451613" cy="339.0610139671527" r="4" fill="#3b82f6" stroke="#0d1117" stroke-width="2" class="data-point"/>
  
    <circle cx="73.54838709677419" cy="338.5122866129447" r="4" fill="#3b82f6" stroke="#0d1117" stroke-width="2" class="data-point"/>
  
    <circle cx="78.06451612903226" cy="337.42192751686764" r="4" fill="#3b82f6" stroke="#0d1117" stroke-width="2" class="data-point"/>
  
    <circle cx="82.58064516129032" cy="336.29609035909607" r="4" fill="#3b82f6" stroke="#0d1117" stroke-width="2" class="data-point"/>
  
    <circle cx="87.09677419354838" cy="335.409138816734" r="4" fill="#3b82f6" stroke="#0d1117" stroke-width="2" class="data-point"/>
  
    <circle cx="91.61290322580645" cy="334.5813173771961" r="4" fill="#3b82f6" stroke="#0d1117" stroke-width="2" class="data-point"/>
  
    <circle cx="96.12903225806451" cy="333.84573889806387" r="4" fill="#3b82f6" stroke="#0d1117" stroke-width="2" class="data-point"/>
  
    <circle cx="100.64516129032259" cy="332.98243939683147" r="4" fill="#3b82f6" stroke="#0d1117" stroke-width="2" class="data-point"/>
  
    <circle cx="105.16129032258064" cy="332.0198013228545" r="4" fill="#3b82f6" stroke="#0d1117" stroke-width="2" class="data-point"/>
  
    <circle cx="109.67741935483872" cy="330.98857232960154" r="4" fill="#3b82f6" stroke="#0d1117" stroke-width="2" class="data-point"/>
  
    <circle cx="114.19354838709677" cy="330.05195150086723" r="4" fill="#3b82f6" stroke="#0d1117" stroke-width="2" class="data-point"/>
  
    <circle cx="118.70967741935485" cy="329.05620056930877" r="4" fill="#3b82f6" stroke="#0d1117" stroke-width="2" class="data-point"/>
  
    <circle cx="123.2258064516129" cy="328.3300829066284" r="4" fill="#3b82f6" stroke="#0d1117" stroke-width="2" class="data-point"/>
  
    <circle cx="127.74193548387096" cy="327.5779479987054" r="4" fill="#3b82f6" stroke="#0d1117" stroke-width="2" class="data-point"/>
  
    <circle cx="132.25806451612902" cy="326.55617982190427" r="4" fill="#3b82f6" stroke="#0d1117" stroke-width="2" class="data-point"/>
  
    <circle cx="136.7741935483871" cy="325.8726358332573" r="4" fill="#3b82f6" stroke="#0d1117" stroke-width="2" class="data-point"/>
  
    <circle cx="141.29032258064518" cy="324.92655418807107" r="4" fill="#3b82f6" stroke="#0d1117" stroke-width="2" class="data-point"/>
  
    <circle cx="145.80645161290323" cy="323.83382988788105" r="4" fill="#3b82f6" stroke="#0d1117" stroke-width="2" class="data-point"/>
  
    <circle cx="150.32258064516128" cy="323.01073885656905" r="4" fill="#3b82f6" stroke="#0d1117" stroke-width="2" class="data-point"/>
  
    <circle cx="154.83870967741936" cy="322.3342904802609" r="4" fill="#3b82f6" stroke="#0d1117" stroke-width="2" class="data-point"/>
  
    <circle cx="159.35483870967744" cy="321.89672771936233" r="4" fill="#3b82f6" stroke="#0d1117" stroke-width="2" class="data-point"/>
  
    <circle cx="163.8709677419355" cy="321.5324862859656" r="4" fill="#3b82f6" stroke="#0d1117" stroke-width="2" class="data-point"/>
  
    <circle cx="168.38709677419354" cy="320.85840311377046" r="4" fill="#3b82f6" stroke="#0d1117" stroke-width="2" class="data-point"/>
  
    <circle cx="172.90322580645162" cy="320.3782666788385" r="4" fill="#3b82f6" stroke="#0d1117" stroke-width="2" class="data-point"/>
  
    <circle cx="177.4193548387097" cy="319.3257508485689" r="4" fill="#3b82f6" stroke="#0d1117" stroke-width="2" class="data-point"/>
  
    <circle cx="181.93548387096774" cy="318.9118401287999" r="4" fill="#3b82f6" stroke="#0d1117" stroke-width="2" class="data-point"/>
  
    <circle cx="186.4516129032258" cy="318.3773039992697" r="4" fill="#3b82f6" stroke="#0d1117" stroke-width="2" class="data-point"/>
  
    <circle cx="190.96774193548387" cy="317.68666439828377" r="4" fill="#3b82f6" stroke="#0d1117" stroke-width="2" class="data-point"/>
  
    <circle cx="195.48387096774192" cy="317.2136235756907" r="4" fill="#3b82f6" stroke="#0d1117" stroke-width="2" class="data-point"/>
  
    <circle cx="200" cy="316.7334871407587" r="4" fill="#3b82f6" stroke="#0d1117" stroke-width="2" class="data-point"/>
  
    <circle cx="204.51612903225808" cy="316.229698664697" r="4" fill="#3b82f6" stroke="#0d1117" stroke-width="2" class="data-point"/>
  
    <circle cx="209.03225806451613" cy="315.87964845597816" r="4" fill="#3b82f6" stroke="#0d1117" stroke-width="2" class="data-point"/>
  
    <circle cx="213.5483870967742" cy="315.5769023295186" r="4" fill="#3b82f6" stroke="#0d1117" stroke-width="2" class="data-point"/>
  
    <circle cx="218.06451612903226" cy="315.1156875274903" r="4" fill="#3b82f6" stroke="#0d1117" stroke-width="2" class="data-point"/>
  
    <circle cx="222.58064516129033" cy="314.55513415271747" r="4" fill="#3b82f6" stroke="#0d1117" stroke-width="2" class="data-point"/>
  
    <circle cx="227.09677419354838" cy="314.03951965609104" r="4" fill="#3b82f6" stroke="#0d1117" stroke-width="2" class="data-point"/>
  
    <circle cx="231.61290322580643" cy="313.38672332091255" r="4" fill="#3b82f6" stroke="#0d1117" stroke-width="2" class="data-point"/>
  
    <circle cx="236.1290322580645" cy="312.67479688290996" r="4" fill="#3b82f6" stroke="#0d1117" stroke-width="2" class="data-point"/>
  
    <circle cx="240.64516129032256" cy="312.02200054773147" r="4" fill="#3b82f6" stroke="#0d1117" stroke-width="2" class="data-point"/>
  
    <circle cx="245.16129032258064" cy="311.23438757811397" r="4" fill="#3b82f6" stroke="#0d1117" stroke-width="2" class="data-point"/>
  
    <circle cx="249.67741935483872" cy="310.46096583317427" r="4" fill="#3b82f6" stroke="#0d1117" stroke-width="2" class="data-point"/>
  
    <circle cx="254.19354838709677" cy="309.6875440882346" r="4" fill="#3b82f6" stroke="#0d1117" stroke-width="2" class="data-point"/>
  
    <circle cx="258.7096774193549" cy="308.8408010157929" r="4" fill="#3b82f6" stroke="#0d1117" stroke-width="2" class="data-point"/>
  
    <circle cx="263.2258064516129" cy="308.0319012091587" r="4" fill="#3b82f6" stroke="#0d1117" stroke-width="2" class="data-point"/>
  
    <circle cx="267.741935483871" cy="307.1071064009892" r="4" fill="#3b82f6" stroke="#0d1117" stroke-width="2" class="data-point"/>
  
    <circle cx="272.258064516129" cy="306.2816501655643" r="4" fill="#3b82f6" stroke="#0d1117" stroke-width="2" class="data-point"/>
  
    <circle cx="276.7741935483871" cy="305.58391495223947" r="4" fill="#3b82f6" stroke="#0d1117" stroke-width="2" class="data-point"/>
  
    <circle cx="281.2903225806451" cy="305.02572678157964" r="4" fill="#3b82f6" stroke="#0d1117" stroke-width="2" class="data-point"/>
  
    <circle cx="285.80645161290323" cy="304.24520942430104" r="4" fill="#3b82f6" stroke="#0d1117" stroke-width="2" class="data-point"/>
  
    <circle cx="290.32258064516134" cy="303.35352747371303" r="4" fill="#3b82f6" stroke="#0d1117" stroke-width="2" class="data-point"/>
  
    <circle cx="294.8387096774194" cy="302.5375320547399" r="4" fill="#3b82f6" stroke="#0d1117" stroke-width="2" class="data-point"/>
  
    <circle cx="299.35483870967744" cy="301.58435479721487" r="4" fill="#3b82f6" stroke="#0d1117" stroke-width="2" class="data-point"/>
  
    <circle cx="303.8709677419355" cy="300.40884835307105" r="4" fill="#3b82f6" stroke="#0d1117" stroke-width="2" class="data-point"/>
  
    <circle cx="308.38709677419354" cy="299.5337228312738" r="4" fill="#3b82f6" stroke="#0d1117" stroke-width="2" class="data-point"/>
  
    <circle cx="312.9032258064516" cy="298.8076051685934" r="4" fill="#3b82f6" stroke="#0d1117" stroke-width="2" class="data-point"/>
  
    <circle cx="317.4193548387097" cy="298.1169655676075" r="4" fill="#3b82f6" stroke="#0d1117" stroke-width="2" class="data-point"/>
  
    <circle cx="321.93548387096774" cy="297.2867789239566" r="4" fill="#3b82f6" stroke="#0d1117" stroke-width="2" class="data-point"/>
  
    <circle cx="326.4516129032258" cy="296.3217756458667" r="4" fill="#3b82f6" stroke="#0d1117" stroke-width="2" class="data-point"/>
  
    <circle cx="330.96774193548384" cy="295.25270338680633" r="4" fill="#3b82f6" stroke="#0d1117" stroke-width="2" class="data-point"/>
  
    <circle cx="335.48387096774195" cy="294.1292314331477" r="4" fill="#3b82f6" stroke="#0d1117" stroke-width="2" class="data-point"/>
  
    <circle cx="340" cy="293.05069835763544" r="4" fill="#3b82f6" stroke="#0d1117" stroke-width="2" class="data-point"/>
  
    <circle cx="344.51612903225805" cy="292.1022515083363" r="4" fill="#3b82f6" stroke="#0d1117" stroke-width="2" class="data-point"/>
  
    <circle cx="349.03225806451616" cy="291.160900271376" r="4" fill="#3b82f6" stroke="#0d1117" stroke-width="2" class="data-point"/>
  
    <circle cx="353.5483870967742" cy="290.3307136277252" r="4" fill="#3b82f6" stroke="#0d1117" stroke-width="2" class="data-point"/>
  
    <circle cx="358.06451612903226" cy="289.4839705552835" r="4" fill="#3b82f6" stroke="#0d1117" stroke-width="2" class="data-point"/>
  
    <circle cx="362.5806451612903" cy="288.53788891009737" r="4" fill="#3b82f6" stroke="#0d1117" stroke-width="2" class="data-point"/>
  
    <circle cx="367.0967741935484" cy="287.36001726184054" r="4" fill="#3b82f6" stroke="#0d1117" stroke-width="2" class="data-point"/>
  
    <circle cx="371.61290322580646" cy="286.48252653593033" r="4" fill="#3b82f6" stroke="#0d1117" stroke-width="2" class="data-point"/>
  
    <circle cx="376.1290322580645" cy="285.69727877042584" r="4" fill="#3b82f6" stroke="#0d1117" stroke-width="2" class="data-point"/>
  
    <circle cx="380.64516129032256" cy="284.8245184527416" r="4" fill="#3b82f6" stroke="#0d1117" stroke-width="2" class="data-point"/>
  
    <circle cx="385.16129032258067" cy="284.01088823788143" r="4" fill="#3b82f6" stroke="#0d1117" stroke-width="2" class="data-point"/>
  
    <circle cx="389.6774193548387" cy="283.1168410831805" r="4" fill="#3b82f6" stroke="#0d1117" stroke-width="2" class="data-point"/>
  
    <circle cx="394.19354838709677" cy="282.1849506626721" r="4" fill="#3b82f6" stroke="#0d1117" stroke-width="2" class="data-point"/>
  
    <circle cx="398.7096774193549" cy="281.2104865681303" r="4" fill="#3b82f6" stroke="#0d1117" stroke-width="2" class="data-point"/>
  
    <circle cx="403.22580645161287" cy="280.3566478833498" r="4" fill="#3b82f6" stroke="#0d1117" stroke-width="2" class="data-point"/>
  
    <circle cx="407.741935483871" cy="279.62579981244346" r="4" fill="#3b82f6" stroke="#0d1117" stroke-width="2" class="data-point"/>
  
    <circle cx="412.258064516129" cy="278.82399561814816" r="4" fill="#3b82f6" stroke="#0d1117" stroke-width="2" class="data-point"/>
  
    <circle cx="416.7741935483871" cy="277.95596570868986" r="4" fill="#3b82f6" stroke="#0d1117" stroke-width="2" class="data-point"/>
  
    <circle cx="421.2903225806451" cy="277.1517963102816" r="4" fill="#3b82f6" stroke="#0d1117" stroke-width="2" class="data-point"/>
  
    <circle cx="425.80645161290323" cy="276.1040108882379" r="4" fill="#3b82f6" stroke="#0d1117" stroke-width="2" class="data-point"/>
  
    <circle cx="430.3225806451613" cy="275.20286812119804" r="4" fill="#3b82f6" stroke="#0d1117" stroke-width="2" class="data-point"/>
  
    <circle cx="434.8387096774194" cy="274.3348382117397" r="4" fill="#3b82f6" stroke="#0d1117" stroke-width="2" class="data-point"/>
  
    <circle cx="439.35483870967744" cy="273.61345095728524" r="4" fill="#3b82f6" stroke="#0d1117" stroke-width="2" class="data-point"/>
  
    <circle cx="443.87096774193543" cy="272.91335053984744" r="4" fill="#3b82f6" stroke="#0d1117" stroke-width="2" class="data-point"/>
  
    <circle cx="448.38709677419354" cy="272.21088491829676" r="4" fill="#3b82f6" stroke="#0d1117" stroke-width="2" class="data-point"/>
  
    <circle cx="452.9032258064516" cy="271.37123745819395" r="4" fill="#3b82f6" stroke="#0d1117" stroke-width="2" class="data-point"/>
  
    <circle cx="457.4193548387097" cy="270.5079379569616" r="4" fill="#3b82f6" stroke="#0d1117" stroke-width="2" class="data-point"/>
  
    <circle cx="461.93548387096774" cy="269.4601525349179" r="4" fill="#3b82f6" stroke="#0d1117" stroke-width="2" class="data-point"/>
  
    <circle cx="466.45161290322585" cy="268.6110442583633" r="4" fill="#3b82f6" stroke="#0d1117" stroke-width="2" class="data-point"/>
  
    <circle cx="470.96774193548384" cy="267.9180394532644" r="4" fill="#3b82f6" stroke="#0d1117" stroke-width="2" class="data-point"/>
  
    <circle cx="475.4838709677419" cy="267.2061130152618" r="4" fill="#3b82f6" stroke="#0d1117" stroke-width="2" class="data-point"/>
  
    <circle cx="480" cy="266.5249342307277" r="4" fill="#3b82f6" stroke="#0d1117" stroke-width="2" class="data-point"/>
  
    <circle cx="484.51612903225805" cy="265.68292156651205" r="4" fill="#3b82f6" stroke="#0d1117" stroke-width="2" class="data-point"/>
  
    <circle cx="489.03225806451616" cy="264.81962206527965" r="4" fill="#3b82f6" stroke="#0d1117" stroke-width="2" class="data-point"/>
  
    <circle cx="493.5483870967742" cy="262.9109023461165" r="4" fill="#3b82f6" stroke="#0d1117" stroke-width="2" class="data-point"/>
  
    <circle cx="498.0645161290323" cy="259.11238454069394" r="4" fill="#3b82f6" stroke="#0d1117" stroke-width="2" class="data-point"/>
  
    <circle cx="502.5806451612903" cy="254.587749072591" r="4" fill="#3b82f6" stroke="#0d1117" stroke-width="2" class="data-point"/>
  
    <circle cx="507.09677419354836" cy="250.4651983036922" r="4" fill="#3b82f6" stroke="#0d1117" stroke-width="2" class="data-point"/>
  
    <circle cx="511.61290322580646" cy="248.37435786783072" r="4" fill="#3b82f6" stroke="#0d1117" stroke-width="2" class="data-point"/>
  
    <circle cx="516.1290322580645" cy="245.22390598936073" r="4" fill="#3b82f6" stroke="#0d1117" stroke-width="2" class="data-point"/>
  
    <circle cx="520.6451612903227" cy="243.1307003493863" r="4" fill="#3b82f6" stroke="#0d1117" stroke-width="2" class="data-point"/>
  
    <circle cx="525.1612903225807" cy="241.2953019577251" r="4" fill="#3b82f6" stroke="#0d1117" stroke-width="2" class="data-point"/>
  
    <circle cx="529.6774193548388" cy="239.50011203598427" r="4" fill="#3b82f6" stroke="#0d1117" stroke-width="2" class="data-point"/>
  
    <circle cx="534.1935483870968" cy="237.80899109521397" r="4" fill="#3b82f6" stroke="#0d1117" stroke-width="2" class="data-point"/>
  
    <circle cx="538.7096774193549" cy="235.17888412159638" r="4" fill="#3b82f6" stroke="#0d1117" stroke-width="2" class="data-point"/>
  
    <circle cx="543.2258064516129" cy="233.0880436857349" r="4" fill="#3b82f6" stroke="#0d1117" stroke-width="2" class="data-point"/>
  
    <circle cx="547.741935483871" cy="230.41536303808394" r="4" fill="#3b82f6" stroke="#0d1117" stroke-width="2" class="data-point"/>
  
    <circle cx="552.258064516129" cy="229.86900088798893" r="4" fill="#3b82f6" stroke="#0d1117" stroke-width="2" class="data-point"/>
  
    <circle cx="556.7741935483871" cy="229.79804476459995" r="4" fill="#3b82f6" stroke="#0d1117" stroke-width="2" class="data-point"/>
  
    <circle cx="561.2903225806451" cy="229.7058018041943" r="4" fill="#3b82f6" stroke="#0d1117" stroke-width="2" class="data-point"/>
  
    <circle cx="565.8064516129032" cy="229.6277500684664" r="4" fill="#3b82f6" stroke="#0d1117" stroke-width="2" class="data-point"/>
  
    <circle cx="570.3225806451612" cy="229.5260462916089" r="4" fill="#3b82f6" stroke="#0d1117" stroke-width="2" class="data-point"/>
  
    <circle cx="574.8387096774194" cy="229.43616853531623" r="4" fill="#3b82f6" stroke="#0d1117" stroke-width="2" class="data-point"/>
  
    <circle cx="579.3548387096774" cy="229.40069047362175" r="4" fill="#3b82f6" stroke="#0d1117" stroke-width="2" class="data-point"/>
  
    <circle cx="583.8709677419355" cy="229.27060424740864" r="4" fill="#3b82f6" stroke="#0d1117" stroke-width="2" class="data-point"/>
  
    <circle cx="588.3870967741935" cy="229.14524842942149" r="4" fill="#3b82f6" stroke="#0d1117" stroke-width="2" class="data-point"/>
  
    <circle cx="592.9032258064516" cy="229.06246628546768" r="4" fill="#3b82f6" stroke="#0d1117" stroke-width="2" class="data-point"/>
  
    <circle cx="597.4193548387096" cy="229.03171863199913" r="4" fill="#3b82f6" stroke="#0d1117" stroke-width="2" class="data-point"/>
  
    <circle cx="601.9354838709677" cy="228.89217158933417" r="4" fill="#3b82f6" stroke="#0d1117" stroke-width="2" class="data-point"/>
  
    <circle cx="606.4516129032259" cy="225.46262562553426" r="4" fill="#3b82f6" stroke="#0d1117" stroke-width="2" class="data-point"/>
  
    <circle cx="610.9677419354839" cy="220.09124708498967" r="4" fill="#3b82f6" stroke="#0d1117" stroke-width="2" class="data-point"/>
  
    <circle cx="615.483870967742" cy="216.4937716291692" r="4" fill="#3b82f6" stroke="#0d1117" stroke-width="2" class="data-point"/>
  
    <circle cx="620" cy="212.31682116567217" r="4" fill="#3b82f6" stroke="#0d1117" stroke-width="2" class="data-point"/>
  
    <circle cx="624.516129032258" cy="208.01214968007503" r="4" fill="#3b82f6" stroke="#0d1117" stroke-width="2" class="data-point"/>
  
    <circle cx="629.0322580645161" cy="204.63463820676031" r="4" fill="#3b82f6" stroke="#0d1117" stroke-width="2" class="data-point"/>
  
    <circle cx="633.5483870967741" cy="200.85740723835448" r="4" fill="#3b82f6" stroke="#0d1117" stroke-width="2" class="data-point"/>
  
    <circle cx="638.0645161290323" cy="195.1028656315095" r="4" fill="#3b82f6" stroke="#0d1117" stroke-width="2" class="data-point"/>
  
    <circle cx="642.5806451612904" cy="187.34736134509572" r="4" fill="#3b82f6" stroke="#0d1117" stroke-width="2" class="data-point"/>
  
    <circle cx="647.0967741935484" cy="182.28582454334963" r="4" fill="#3b82f6" stroke="#0d1117" stroke-width="2" class="data-point"/>
  
    <circle cx="651.6129032258065" cy="176.26164966762659" r="4" fill="#3b82f6" stroke="#0d1117" stroke-width="2" class="data-point"/>
  
    <circle cx="656.1290322580645" cy="169.5492003950306" r="4" fill="#3b82f6" stroke="#0d1117" stroke-width="2" class="data-point"/>
  
    <circle cx="660.6451612903226" cy="164.1659958339212" r="4" fill="#3b82f6" stroke="#0d1117" stroke-width="2" class="data-point"/>
  
    <circle cx="665.1612903225806" cy="158.32394167489647" r="4" fill="#3b82f6" stroke="#0d1117" stroke-width="2" class="data-point"/>
  
    <circle cx="669.6774193548387" cy="153.14177946338913" r="4" fill="#3b82f6" stroke="#0d1117" stroke-width="2" class="data-point"/>
  
    <circle cx="674.1935483870968" cy="148.00692133414108" r="4" fill="#3b82f6" stroke="#0d1117" stroke-width="2" class="data-point"/>
  
    <circle cx="678.7096774193549" cy="142.88625442957084" r="4" fill="#3b82f6" stroke="#0d1117" stroke-width="2" class="data-point"/>
  
    <circle cx="683.2258064516129" cy="135.91363270454866" r="4" fill="#3b82f6" stroke="#0d1117" stroke-width="2" class="data-point"/>
  
    <circle cx="687.741935483871" cy="128.91972414250978" r="4" fill="#3b82f6" stroke="#0d1117" stroke-width="2" class="data-point"/>
  
    <circle cx="692.258064516129" cy="123.08949600404989" r="4" fill="#3b82f6" stroke="#0d1117" stroke-width="2" class="data-point"/>
  
    <circle cx="696.7741935483871" cy="118.20298430666321" r="4" fill="#3b82f6" stroke="#0d1117" stroke-width="2" class="data-point"/>
  
    <circle cx="701.2903225806451" cy="113.46311526428042" r="4" fill="#3b82f6" stroke="#0d1117" stroke-width="2" class="data-point"/>
  
    <circle cx="705.8064516129033" cy="107.17167232379231" r="4" fill="#3b82f6" stroke="#0d1117" stroke-width="2" class="data-point"/>
  
    <circle cx="710.3225806451613" cy="102.29225623874453" r="4" fill="#3b82f6" stroke="#0d1117" stroke-width="2" class="data-point"/>
  
    <circle cx="714.8387096774193" cy="97.464874644182" r="4" fill="#3b82f6" stroke="#0d1117" stroke-width="2" class="data-point"/>
  
    <circle cx="719.3548387096774" cy="92.94969999253092" r="4" fill="#3b82f6" stroke="#0d1117" stroke-width="2" class="data-point"/>
  
    <circle cx="723.8709677419355" cy="88.69706299741904" r="4" fill="#3b82f6" stroke="#0d1117" stroke-width="2" class="data-point"/>
  
    <circle cx="728.3870967741935" cy="84.34035702133662" r="4" fill="#3b82f6" stroke="#0d1117" stroke-width="2" class="data-point"/>
  
    <circle cx="732.9032258064516" cy="80.61516054341604" r="4" fill="#3b82f6" stroke="#0d1117" stroke-width="2" class="data-point"/>
  
    <circle cx="737.4193548387098" cy="76.75751263516935" r="4" fill="#3b82f6" stroke="#0d1117" stroke-width="2" class="data-point"/>
  
    <circle cx="741.9354838709678" cy="72.8194477870818" r="4" fill="#3b82f6" stroke="#0d1117" stroke-width="2" class="data-point"/>
  
    <circle cx="746.4516129032257" cy="68.6566885482626" r="4" fill="#3b82f6" stroke="#0d1117" stroke-width="2" class="data-point"/>
  
    <circle cx="750.9677419354839" cy="64.83688390582336" r="4" fill="#3b82f6" stroke="#0d1117" stroke-width="2" class="data-point"/>
  
    <circle cx="755.483870967742" cy="61.33874702274744" r="4" fill="#3b82f6" stroke="#0d1117" stroke-width="2" class="data-point"/>
  
    <circle cx="760" cy="55" r="4" fill="#3b82f6" stroke="#0d1117" stroke-width="2" class="data-point"/>
  

  <!-- Axis lines -->
  <line x1="60" y1="55" x2="60" y2="340"
        stroke="#30363d" stroke-width="2"/>
  <line x1="60" y1="340" x2="760" y2="340"
        stroke="#30363d" stroke-width="2"/>
</svg>