<?xml version="1.0" encoding="UTF-8"?>
<svg width="800" height="400" xmlns="http://www.w3.org/2000/svg">
  <defs>
    <!-- Gradient for area fill -->
    <linearGradient id="areaGradient" x1="0%" y1="0%" x2="0%" y2="100%">
      <stop offset="0%" style="stop-color:#3b82f6;stop-opacity:0.3" />
      <stop offset="100%" style="stop-color:#3b82f6;stop-opacity:0.05" />
    </linearGradient>

    <!-- Glow filter for line -->
    <filter id="glow">
      <feGaussianBlur stdDeviation="2" result="coloredBlur"/>
      <feMerge>
        <feMergeNode in="coloredBlur"/>
        <feMergeNode in="SourceGraphic"/>
      </feMerge>
    </filter>

    <!-- Animation -->
    <style>
      @keyframes draw {
        from { stroke-dashoffset: 2000; }
        to { stroke-dashoffset: 0; }
      }
      @keyframes fadeIn {
        from { opacity: 0; }
        to { opacity: 1; }
      }
      .line-path {
        stroke-dasharray: 2000;
        stroke-dashoffset: 2000;
        animation: draw 1.5s ease-out forwards;
      }
      .area-path {
        opacity: 0;
        animation: fadeIn 1s ease-out 0.5s forwards;
      }
      .data-point {
        opacity: 0;
        animation: fadeIn 0.5s ease-out 1s forwards;
      }
    </style>
  </defs>

  <!-- Background -->
  <rect width="800" height="400" fill="#0d1117" rx="8"/>

  <!-- Title -->
  <text x="400" y="25" text-anchor="middle" fill="#c9d1d9" font-family="system-ui, -apple-system, sans-serif" font-size="16" font-weight="600">
    zxcloli666/SoundCloud-Desktop Downloads
  </text>

  <!-- Stats -->
  <text x="780" y="25" text-anchor="end" fill="#58a6ff" font-family="system-ui, -apple-system, sans-serif" font-size="14" font-weight="600">
    168.2K total
  </text>
  <text x="780" y="42" text-anchor="end" fill="#3fb950" font-family="system-ui, -apple-system, sans-serif" font-size="12">
    +1.8K (+1.1%)
  </text>

  <!-- Grid lines -->
  <g opacity="0.1">
    
      <line x1="60" y1="340" x2="760" y2="340"
            stroke="#c9d1d9" stroke-width="1"/>
    
      <line x1="60" y1="268.75" x2="760" y2="268.75"
            stroke="#c9d1d9" stroke-width="1"/>
    
      <line x1="60" y1="197.5" x2="760" y2="197.5"
            stroke="#c9d1d9" stroke-width="1"/>
    
      <line x1="60" y1="126.25" x2="760" y2="126.25"
            stroke="#c9d1d9" stroke-width="1"/>
    
      <line x1="60" y1="55" x2="760" y2="55"
            stroke="#c9d1d9" stroke-width="1"/>
    
  </g>

  <!-- Y-axis labels -->
  
    <text x="50" y="344" text-anchor="end"
          fill="#8b949e" font-family="system-ui, -apple-system, sans-serif" font-size="11">
      60.2K
    </text>
  
    <text x="50" y="272.75" text-anchor="end"
          fill="#8b949e" font-family="system-ui, -apple-system, sans-serif" font-size="11">
      87.2K
    </text>
  
    <text x="50" y="201.5" text-anchor="end"
          fill="#8b949e" font-family="system-ui, -apple-system, sans-serif" font-size="11">
      114.2K
    </text>
  
    <text x="50" y="130.25" text-anchor="end"
          fill="#8b949e" font-family="system-ui, -apple-system, sans-serif" font-size="11">
      141.2K
    </text>
  
    <text x="50" y="59" text-anchor="end"
          fill="#8b949e" font-family="system-ui, -apple-system, sans-serif" font-size="11">
      168.2K
    </text>
  

  <!-- X-axis labels -->
  
    <text x="60" y="360" text-anchor="middle"
          fill="#8b949e" font-family="system-ui, -apple-system, sans-serif" font-size="11">
      Nov 25
    </text>
  
    <text x="145.13513513513516" y="360" text-anchor="middle"
          fill="#8b949e" font-family="system-ui, -apple-system, sans-serif" font-size="11">
      Dec 13
    </text>
  
    <text x="230.2702702702703" y="360" text-anchor="middle"
          fill="#8b949e" font-family="system-ui, -apple-system, sans-serif" font-size="11">
      Dec 31
    </text>
  
    <text x="315.4054054054054" y="360" text-anchor="middle"
          fill="#8b949e" font-family="system-ui, -apple-system, sans-serif" font-size="11">
      Jan 18
    </text>
  
    <text x="400.5405405405406" y="360" text-anchor="middle"
          fill="#8b949e" font-family="system-ui, -apple-system, sans-serif" font-size="11">
      Feb 5
    </text>
  
    <text x="485.6756756756757" y="360" text-anchor="middle"
          fill="#8b949e" font-family="system-ui, -apple-system, sans-serif" font-size="11">
      Feb 23
    </text>
  
    <text x="570.8108108108108" y="360" text-anchor="middle"
          fill="#8b949e" font-family="system-ui, -apple-system, sans-serif" font-size="11">
      Mar 13
    </text>
  
    <text x="655.9459459459459" y="360" text-anchor="middle"
          fill="#8b949e" font-family="system-ui, -apple-system, sans-serif" font-size="11">
      Mar 31
    </text>
  
    <text x="741.0810810810812" y="360" text-anchor="middle"
          fill="#8b949e" font-family="system-ui, -apple-system, sans-serif" font-size="11">
      Apr 18
    </text>
  
    <text x="760" y="360" text-anchor="middle"
          fill="#8b949e" font-family="system-ui, -apple-system, sans-serif" font-size="11">
      Apr 22
    </text>
  

  <!-- Area under line -->
  <path d="M 60 340
    L 60.00 340.00 L 64.73 339.61 L 69.46 338.95 L 74.19 338.34 L 78.92 337.13 L 83.65 335.87 L 88.38 334.88 L 93.11 333.96 L 97.84 333.14 L 102.57 332.18 L 107.30 331.10 L 112.03 329.95 L 116.76 328.91 L 121.49 327.80 L 126.22 326.99 L 130.95 326.15 L 135.68 325.01 L 140.41 324.25 L 145.14 323.20 L 149.86 321.98 L 154.59 321.06 L 159.32 320.31 L 164.05 319.82 L 168.78 319.41 L 173.51 318.66 L 178.24 318.13 L 182.97 316.95 L 187.70 316.49 L 192.43 315.90 L 197.16 315.13 L 201.89 314.60 L 206.62 314.06 L 211.35 313.50 L 216.08 313.11 L 220.81 312.77 L 225.54 312.26 L 230.27 311.63 L 235.00 311.06 L 239.73 310.33 L 244.46 309.54 L 249.19 308.81 L 253.92 307.93 L 258.65 307.07 L 263.38 306.21 L 268.11 305.26 L 272.84 304.36 L 277.57 303.33 L 282.30 302.41 L 287.03 301.63 L 291.76 301.01 L 296.49 300.14 L 301.22 299.15 L 305.95 298.24 L 310.68 297.18 L 315.41 295.87 L 320.14 294.89 L 324.86 294.08 L 329.59 293.31 L 334.32 292.38 L 339.05 291.31 L 343.78 290.12 L 348.51 288.86 L 353.24 287.66 L 357.97 286.61 L 362.70 285.56 L 367.43 284.63 L 372.16 283.69 L 376.89 282.63 L 381.62 281.32 L 386.35 280.34 L 391.08 279.47 L 395.81 278.49 L 400.54 277.59 L 405.27 276.59 L 410.00 275.55 L 414.73 274.46 L 419.46 273.51 L 424.19 272.70 L 428.92 271.80 L 433.65 270.84 L 438.38 269.94 L 443.11 268.77 L 447.84 267.77 L 452.57 266.80 L 457.30 265.99 L 462.03 265.21 L 466.76 264.43 L 471.49 263.50 L 476.22 262.53 L 480.95 261.36 L 485.68 260.42 L 490.41 259.65 L 495.14 258.85 L 499.86 258.09 L 504.59 257.15 L 509.32 256.19 L 514.05 254.06 L 518.78 249.83 L 523.51 244.79 L 528.24 240.19 L 532.97 237.86 L 537.70 234.35 L 542.43 232.01 L 547.16 229.97 L 551.89 227.97 L 556.62 226.08 L 561.35 223.15 L 566.08 220.82 L 570.81 217.84 L 575.54 217.23 L 580.27 217.15 L 585.00 217.05 L 589.73 216.96 L 594.46 216.85 L 599.19 216.75 L 603.92 216.71 L 608.65 216.56 L 613.38 216.42 L 618.11 216.33 L 622.84 216.30 L 627.57 216.14 L 632.30 212.32 L 637.03 206.33 L 641.76 202.32 L 646.49 197.66 L 651.22 192.86 L 655.95 189.10 L 660.68 184.89 L 665.41 178.47 L 670.14 169.83 L 674.86 164.19 L 679.59 157.47 L 684.32 149.99 L 689.05 143.99 L 693.78 137.47 L 698.51 131.70 L 703.24 125.97 L 707.97 120.26 L 712.70 112.49 L 717.43 104.70 L 722.16 98.20 L 726.89 92.75 L 731.62 87.46 L 736.35 80.45 L 741.08 75.01 L 745.81 69.63 L 750.54 64.60 L 755.27 59.86 L 760.00 55.00
    L 760 340
    Z" fill="url(#areaGradient)" class="area-path"/>

  <!-- Main line with glow -->
  <path d="M 60.00 340.00 L 64.73 339.61 L 69.46 338.95 L 74.19 338.34 L 78.92 337.13 L 83.65 335.87 L 88.38 334.88 L 93.11 333.96 L 97.84 333.14 L 102.57 332.18 L 107.30 331.10 L 112.03 329.95 L 116.76 328.91 L 121.49 327.80 L 126.22 326.99 L 130.95 326.15 L 135.68 325.01 L 140.41 324.25 L 145.14 323.20 L 149.86 321.98 L 154.59 321.06 L 159.32 320.31 L 164.05 319.82 L 168.78 319.41 L 173.51 318.66 L 178.24 318.13 L 182.97 316.95 L 187.70 316.49 L 192.43 315.90 L 197.16 315.13 L 201.89 314.60 L 206.62 314.06 L 211.35 313.50 L 216.08 313.11 L 220.81 312.77 L 225.54 312.26 L 230.27 311.63 L 235.00 311.06 L 239.73 310.33 L 244.46 309.54 L 249.19 308.81 L 253.92 307.93 L 258.65 307.07 L 263.38 306.21 L 268.11 305.26 L 272.84 304.36 L 277.57 303.33 L 282.30 302.41 L 287.03 301.63 L 291.76 301.01 L 296.49 300.14 L 301.22 299.15 L 305.95 298.24 L 310.68 297.18 L 315.41 295.87 L 320.14 294.89 L 324.86 294.08 L 329.59 293.31 L 334.32 292.38 L 339.05 291.31 L 343.78 290.12 L 348.51 288.86 L 353.24 287.66 L 357.97 286.61 L 362.70 285.56 L 367.43 284.63 L 372.16 283.69 L 376.89 282.63 L 381.62 281.32 L 386.35 280.34 L 391.08 279.47 L 395.81 278.49 L 400.54 277.59 L 405.27 276.59 L 410.00 275.55 L 414.73 274.46 L 419.46 273.51 L 424.19 272.70 L 428.92 271.80 L 433.65 270.84 L 438.38 269.94 L 443.11 268.77 L 447.84 267.77 L 452.57 266.80 L 457.30 265.99 L 462.03 265.21 L 466.76 264.43 L 471.49 263.50 L 476.22 262.53 L 480.95 261.36 L 485.68 260.42 L 490.41 259.65 L 495.14 258.85 L 499.86 258.09 L 504.59 257.15 L 509.32 256.19 L 514.05 254.06 L 518.78 249.83 L 523.51 244.79 L 528.24 240.19 L 532.97 237.86 L 537.70 234.35 L 542.43 232.01 L 547.16 229.97 L 551.89 227.97 L 556.62 226.08 L 561.35 223.15 L 566.08 220.82 L 570.81 217.84 L 575.54 217.23 L 580.27 217.15 L 585.00 217.05 L 589.73 216.96 L 594.46 216.85 L 599.19 216.75 L 603.92 216.71 L 608.65 216.56 L 613.38 216.42 L 618.11 216.33 L 622.84 216.30 L 627.57 216.14 L 632.30 212.32 L 637.03 206.33 L 641.76 202.32 L 646.49 197.66 L 651.22 192.86 L 655.95 189.10 L 660.68 184.89 L 665.41 178.47 L 670.14 169.83 L 674.86 164.19 L 679.59 157.47 L 684.32 149.99 L 689.05 143.99 L 693.78 137.47 L 698.51 131.70 L 703.24 125.97 L 707.97 120.26 L 712.70 112.49 L 717.43 104.70 L 722.16 98.20 L 726.89 92.75 L 731.62 87.46 L 736.35 80.45 L 741.08 75.01 L 745.81 69.63 L 750.54 64.60 L 755.27 59.86 L 760.00 55.00" fill="none" stroke="#3b82f6" stroke-width="3"
        stroke-linecap="round" stroke-linejoin="round" filter="url(#glow)" class="line-path"/>

  <!-- Data points -->
  
    <circle cx="60" cy="340" r="4" fill="#3b82f6" stroke="#0d1117" stroke-width="2" class="data-point"/>
  
    <circle cx="64.72972972972973" cy="339.6124134996114" r="4" fill="#3b82f6" stroke="#0d1117" stroke-width="2" class="data-point"/>
  
    <circle cx="69.45945945945945" cy="338.9532527846649" r="4" fill="#3b82f6" stroke="#0d1117" stroke-width="2" class="data-point"/>
  
    <circle cx="74.1891891891892" cy="338.34155164119454" r="4" fill="#3b82f6" stroke="#0d1117" stroke-width="2" class="data-point"/>
  
    <circle cx="78.91891891891892" cy="337.1260592828331" r="4" fill="#3b82f6" stroke="#0d1117" stroke-width="2" class="data-point"/>
  
    <circle cx="83.64864864864865" cy="335.87101728157495" r="4" fill="#3b82f6" stroke="#0d1117" stroke-width="2" class="data-point"/>
  
    <circle cx="88.37837837837839" cy="334.8822762091552" r="4" fill="#3b82f6" stroke="#0d1117" stroke-width="2" class="data-point"/>
  
    <circle cx="93.10810810810811" cy="333.95945120823" r="4" fill="#3b82f6" stroke="#0d1117" stroke-width="2" class="data-point"/>
  
    <circle cx="97.83783783783784" cy="333.1394552788365" r="4" fill="#3b82f6" stroke="#0d1117" stroke-width="2" class="data-point"/>
  
    <circle cx="102.56756756756758" cy="332.1770806350146" r="4" fill="#3b82f6" stroke="#0d1117" stroke-width="2" class="data-point"/>
  
    <circle cx="107.29729729729729" cy="331.1039669910817" r="4" fill="#3b82f6" stroke="#0d1117" stroke-width="2" class="data-point"/>
  
    <circle cx="112.02702702702703" cy="329.9543907042149" r="4" fill="#3b82f6" stroke="#0d1117" stroke-width="2" class="data-point"/>
  
    <circle cx="116.75675675675676" cy="328.9102801317396" r="4" fill="#3b82f6" stroke="#0d1117" stroke-width="2" class="data-point"/>
  
    <circle cx="121.48648648648648" cy="327.8002534877697" r="4" fill="#3b82f6" stroke="#0d1117" stroke-width="2" class="data-point"/>
  
    <circle cx="126.21621621621622" cy="326.99080412981533" r="4" fill="#3b82f6" stroke="#0d1117" stroke-width="2" class="data-point"/>
  
    <circle cx="130.94594594594594" cy="326.15235170040336" r="4" fill="#3b82f6" stroke="#0d1117" stroke-width="2" class="data-point"/>
  
    <circle cx="135.67567567567568" cy="325.0133219849758" r="4" fill="#3b82f6" stroke="#0d1117" stroke-width="2" class="data-point"/>
  
    <circle cx="140.40540540540542" cy="324.25133219849755" r="4" fill="#3b82f6" stroke="#0d1117" stroke-width="2" class="data-point"/>
  
    <circle cx="145.13513513513516" cy="323.1966750545831" r="4" fill="#3b82f6" stroke="#0d1117" stroke-width="2" class="data-point"/>
  
    <circle cx="149.86486486486484" cy="321.9785460533619" r="4" fill="#3b82f6" stroke="#0d1117" stroke-width="2" class="data-point"/>
  
    <circle cx="154.59459459459458" cy="321.0609943381564" r="4" fill="#3b82f6" stroke="#0d1117" stroke-width="2" class="data-point"/>
  
    <circle cx="159.32432432432432" cy="320.30691448025755" r="4" fill="#3b82f6" stroke="#0d1117" stroke-width="2" class="data-point"/>
  
    <circle cx="164.05405405405406" cy="319.8191355511971" r="4" fill="#3b82f6" stroke="#0d1117" stroke-width="2" class="data-point"/>
  
    <circle cx="168.78378378378378" cy="319.41309255079005" r="4" fill="#3b82f6" stroke="#0d1117" stroke-width="2" class="data-point"/>
  
    <circle cx="173.51351351351352" cy="318.661649335751" r="4" fill="#3b82f6" stroke="#0d1117" stroke-width="2" class="data-point"/>
  
    <circle cx="178.24324324324323" cy="318.1264108352145" r="4" fill="#3b82f6" stroke="#0d1117" stroke-width="2" class="data-point"/>
  
    <circle cx="182.97297297297297" cy="316.95310476260966" r="4" fill="#3b82f6" stroke="#0d1117" stroke-width="2" class="data-point"/>
  
    <circle cx="187.7027027027027" cy="316.49169226214707" r="4" fill="#3b82f6" stroke="#0d1117" stroke-width="2" class="data-point"/>
  
    <circle cx="192.43243243243245" cy="315.8958109758354" r="4" fill="#3b82f6" stroke="#0d1117" stroke-width="2" class="data-point"/>
  
    <circle cx="197.16216216216216" cy="315.12591126077785" r="4" fill="#3b82f6" stroke="#0d1117" stroke-width="2" class="data-point"/>
  
    <circle cx="201.8918918918919" cy="314.5985826888206" r="4" fill="#3b82f6" stroke="#0d1117" stroke-width="2" class="data-point"/>
  
    <circle cx="206.6216216216216" cy="314.0633441882841" r="4" fill="#3b82f6" stroke="#0d1117" stroke-width="2" class="data-point"/>
  
    <circle cx="211.35135135135135" cy="313.5017392591496" r="4" fill="#3b82f6" stroke="#0d1117" stroke-width="2" class="data-point"/>
  
    <circle cx="216.08108108108107" cy="313.1115161159013" r="4" fill="#3b82f6" stroke="#0d1117" stroke-width="2" class="data-point"/>
  
    <circle cx="220.8108108108108" cy="312.77402582984865" r="4" fill="#3b82f6" stroke="#0d1117" stroke-width="2" class="data-point"/>
  
    <circle cx="225.54054054054055" cy="312.25988047219033" r="4" fill="#3b82f6" stroke="#0d1117" stroke-width="2" class="data-point"/>
  
    <circle cx="230.2702702702703" cy="311.634996114421" r="4" fill="#3b82f6" stroke="#0d1117" stroke-width="2" class="data-point"/>
  
    <circle cx="235" cy="311.0602079709877" r="4" fill="#3b82f6" stroke="#0d1117" stroke-width="2" class="data-point"/>
  
    <circle cx="239.7297297297297" cy="310.33249454168674" r="4" fill="#3b82f6" stroke="#0d1117" stroke-width="2" class="data-point"/>
  
    <circle cx="244.45945945945945" cy="309.5388650408911" r="4" fill="#3b82f6" stroke="#0d1117" stroke-width="2" class="data-point"/>
  
    <circle cx="249.1891891891892" cy="308.8111516115901" r="4" fill="#3b82f6" stroke="#0d1117" stroke-width="2" class="data-point"/>
  
    <circle cx="253.91891891891893" cy="307.9331495392814" r="4" fill="#3b82f6" stroke="#0d1117" stroke-width="2" class="data-point"/>
  
    <circle cx="258.64864864864865" cy="307.0709673241313" r="4" fill="#3b82f6" stroke="#0d1117" stroke-width="2" class="data-point"/>
  
    <circle cx="263.37837837837833" cy="306.20878510898126" r="4" fill="#3b82f6" stroke="#0d1117" stroke-width="2" class="data-point"/>
  
    <circle cx="268.1081081081081" cy="305.2648669651778" r="4" fill="#3b82f6" stroke="#0d1117" stroke-width="2" class="data-point"/>
  
    <circle cx="272.8378378378378" cy="304.363135107131" r="4" fill="#3b82f6" stroke="#0d1117" stroke-width="2" class="data-point"/>
  
    <circle cx="277.56756756756755" cy="303.3322077489546" r="4" fill="#3b82f6" stroke="#0d1117" stroke-width="2" class="data-point"/>
  
    <circle cx="282.2972972972973" cy="302.4120193908892" r="4" fill="#3b82f6" stroke="#0d1117" stroke-width="2" class="data-point"/>
  
    <circle cx="287.02702702702703" cy="301.6342097472523" r="4" fill="#3b82f6" stroke="#0d1117" stroke-width="2" class="data-point"/>
  
    <circle cx="291.7567567567568" cy="301.0119620323428" r="4" fill="#3b82f6" stroke="#0d1117" stroke-width="2" class="data-point"/>
  
    <circle cx="296.48648648648646" cy="300.1418698886134" r="4" fill="#3b82f6" stroke="#0d1117" stroke-width="2" class="data-point"/>
  
    <circle cx="301.2162162162162" cy="299.14785553047403" r="4" fill="#3b82f6" stroke="#0d1117" stroke-width="2" class="data-point"/>
  
    <circle cx="305.94594594594594" cy="298.23821374384784" r="4" fill="#3b82f6" stroke="#0d1117" stroke-width="2" class="data-point"/>
  
    <circle cx="310.6756756756757" cy="297.175646671354" r="4" fill="#3b82f6" stroke="#0d1117" stroke-width="2" class="data-point"/>
  
    <circle cx="315.4054054054054" cy="295.86523517004036" r="4" fill="#3b82f6" stroke="#0d1117" stroke-width="2" class="data-point"/>
  
    <circle cx="320.1351351351351" cy="294.88967731191946" r="4" fill="#3b82f6" stroke="#0d1117" stroke-width="2" class="data-point"/>
  
    <circle cx="324.8648648648649" cy="294.08022795396516" r="4" fill="#3b82f6" stroke="#0d1117" stroke-width="2" class="data-point"/>
  
    <circle cx="329.5945945945946" cy="293.3103282389076" r="4" fill="#3b82f6" stroke="#0d1117" stroke-width="2" class="data-point"/>
  
    <circle cx="334.3243243243243" cy="292.3848665951227" r="4" fill="#3b82f6" stroke="#0d1117" stroke-width="2" class="data-point"/>
  
    <circle cx="339.05405405405406" cy="291.3091163083299" r="4" fill="#3b82f6" stroke="#0d1117" stroke-width="2" class="data-point"/>
  
    <circle cx="343.7837837837838" cy="290.1173537357066" r="4" fill="#3b82f6" stroke="#0d1117" stroke-width="2" class="data-point"/>
  
    <circle cx="348.51351351351354" cy="288.8649483773082" r="4" fill="#3b82f6" stroke="#0d1117" stroke-width="2" class="data-point"/>
  
    <circle cx="353.2432432432432" cy="287.6626392332457" r="4" fill="#3b82f6" stroke="#0d1117" stroke-width="2" class="data-point"/>
  
    <circle cx="357.97297297297297" cy="286.6053454464715" r="4" fill="#3b82f6" stroke="#0d1117" stroke-width="2" class="data-point"/>
  
    <circle cx="362.7027027027027" cy="285.55596158827666" r="4" fill="#3b82f6" stroke="#0d1117" stroke-width="2" class="data-point"/>
  
    <circle cx="367.43243243243245" cy="284.6304999444917" r="4" fill="#3b82f6" stroke="#0d1117" stroke-width="2" class="data-point"/>
  
    <circle cx="372.16216216216213" cy="283.6865818006883" r="4" fill="#3b82f6" stroke="#0d1117" stroke-width="2" class="data-point"/>
  
    <circle cx="376.8918918918919" cy="282.63192465677383" r="4" fill="#3b82f6" stroke="#0d1117" stroke-width="2" class="data-point"/>
  
    <circle cx="381.6216216216216" cy="281.31887651260035" r="4" fill="#3b82f6" stroke="#0d1117" stroke-width="2" class="data-point"/>
  
    <circle cx="386.35135135135135" cy="280.3406820116197" r="4" fill="#3b82f6" stroke="#0d1117" stroke-width="2" class="data-point"/>
  
    <circle cx="391.0810810810811" cy="279.4653165821708" r="4" fill="#3b82f6" stroke="#0d1117" stroke-width="2" class="data-point"/>
  
    <circle cx="395.8108108108108" cy="278.49239536690965" r="4" fill="#3b82f6" stroke="#0d1117" stroke-width="2" class="data-point"/>
  
    <circle cx="400.5405405405406" cy="277.58539022314324" r="4" fill="#3b82f6" stroke="#0d1117" stroke-width="2" class="data-point"/>
  
    <circle cx="405.27027027027026" cy="276.5887392221441" r="4" fill="#3b82f6" stroke="#0d1117" stroke-width="2" class="data-point"/>
  
    <circle cx="410" cy="275.5499019353884" r="4" fill="#3b82f6" stroke="#0d1117" stroke-width="2" class="data-point"/>
  
    <circle cx="414.72972972972974" cy="274.4636050771565" r="4" fill="#3b82f6" stroke="#0d1117" stroke-width="2" class="data-point"/>
  
    <circle cx="419.4594594594594" cy="273.5117770047737" r="4" fill="#3b82f6" stroke="#0d1117" stroke-width="2" class="data-point"/>
  
    <circle cx="424.1891891891892" cy="272.6970543610998" r="4" fill="#3b82f6" stroke="#0d1117" stroke-width="2" class="data-point"/>
  
    <circle cx="428.9189189189189" cy="271.8032324316323" r="4" fill="#3b82f6" stroke="#0d1117" stroke-width="2" class="data-point"/>
  
    <circle cx="433.64864864864865" cy="270.8355845020908" r="4" fill="#3b82f6" stroke="#0d1117" stroke-width="2" class="data-point"/>
  
    <circle cx="438.3783783783784" cy="269.9391259297635" r="4" fill="#3b82f6" stroke="#0d1117" stroke-width="2" class="data-point"/>
  
    <circle cx="443.10810810810807" cy="268.77109314287827" r="4" fill="#3b82f6" stroke="#0d1117" stroke-width="2" class="data-point"/>
  
    <circle cx="447.83783783783787" cy="267.7665322132998" r="4" fill="#3b82f6" stroke="#0d1117" stroke-width="2" class="data-point"/>
  
    <circle cx="452.5675675675676" cy="266.7988842837583" r="4" fill="#3b82f6" stroke="#0d1117" stroke-width="2" class="data-point"/>
  
    <circle cx="457.2972972972973" cy="265.9947082115235" r="4" fill="#3b82f6" stroke="#0d1117" stroke-width="2" class="data-point"/>
  
    <circle cx="462.02702702702703" cy="265.21426192502685" r="4" fill="#3b82f6" stroke="#0d1117" stroke-width="2" class="data-point"/>
  
    <circle cx="466.7567567567567" cy="264.4311789956704" r="4" fill="#3b82f6" stroke="#0d1117" stroke-width="2" class="data-point"/>
  
    <circle cx="471.48648648648646" cy="263.4951707804463" r="4" fill="#3b82f6" stroke="#0d1117" stroke-width="2" class="data-point"/>
  
    <circle cx="476.21621621621625" cy="262.53279613662437" r="4" fill="#3b82f6" stroke="#0d1117" stroke-width="2" class="data-point"/>
  
    <circle cx="480.94594594594594" cy="261.3647633497391" r="4" fill="#3b82f6" stroke="#0d1117" stroke-width="2" class="data-point"/>
  
    <circle cx="485.6756756756757" cy="260.4182085630759" r="4" fill="#3b82f6" stroke="#0d1117" stroke-width="2" class="data-point"/>
  
    <circle cx="490.4054054054054" cy="259.6456722051586" r="4" fill="#3b82f6" stroke="#0d1117" stroke-width="2" class="data-point"/>
  
    <circle cx="495.1351351351351" cy="258.85204270436293" r="4" fill="#3b82f6" stroke="#0d1117" stroke-width="2" class="data-point"/>
  
    <circle cx="499.8648648648649" cy="258.09268956074453" r="4" fill="#3b82f6" stroke="#0d1117" stroke-width="2" class="data-point"/>
  
    <circle cx="504.5945945945946" cy="257.1540447026607" r="4" fill="#3b82f6" stroke="#0d1117" stroke-width="2" class="data-point"/>
  
    <circle cx="509.3243243243243" cy="256.1916700588388" r="4" fill="#3b82f6" stroke="#0d1117" stroke-width="2" class="data-point"/>
  
    <circle cx="514.0540540540541" cy="254.06389927099139" r="4" fill="#3b82f6" stroke="#0d1117" stroke-width="2" class="data-point"/>
  
    <circle cx="518.7837837837837" cy="249.8294508381749" r="4" fill="#3b82f6" stroke="#0d1117" stroke-width="2" class="data-point"/>
  
    <circle cx="523.5135135135135" cy="244.78555304740405" r="4" fill="#3b82f6" stroke="#0d1117" stroke-width="2" class="data-point"/>
  
    <circle cx="528.2432432432433" cy="240.18988454279688" r="4" fill="#3b82f6" stroke="#0d1117" stroke-width="2" class="data-point"/>
  
    <circle cx="532.9729729729729" cy="237.85909225474597" r="4" fill="#3b82f6" stroke="#0d1117" stroke-width="2" class="data-point"/>
  
    <circle cx="537.7027027027027" cy="234.34708396551088" r="4" fill="#3b82f6" stroke="#0d1117" stroke-width="2" class="data-point"/>
  
    <circle cx="542.4324324324324" cy="232.01365503460016" r="4" fill="#3b82f6" stroke="#0d1117" stroke-width="2" class="data-point"/>
  
    <circle cx="547.1621621621621" cy="229.96762017540613" r="4" fill="#3b82f6" stroke="#0d1117" stroke-width="2" class="data-point"/>
  
    <circle cx="551.8918918918919" cy="227.96640824482847" r="4" fill="#3b82f6" stroke="#0d1117" stroke-width="2" class="data-point"/>
  
    <circle cx="556.6216216216217" cy="226.08120860008142" r="4" fill="#3b82f6" stroke="#0d1117" stroke-width="2" class="data-point"/>
  
    <circle cx="561.3513513513514" cy="223.14926173999925" r="4" fill="#3b82f6" stroke="#0d1117" stroke-width="2" class="data-point"/>
  
    <circle cx="566.081081081081" cy="220.81846945194835" r="4" fill="#3b82f6" stroke="#0d1117" stroke-width="2" class="data-point"/>
  
    <circle cx="570.8108108108108" cy="217.83906302039003" r="4" fill="#3b82f6" stroke="#0d1117" stroke-width="2" class="data-point"/>
  
    <circle cx="575.5405405405405" cy="217.22999851977943" r="4" fill="#3b82f6" stroke="#0d1117" stroke-width="2" class="data-point"/>
  
    <circle cx="580.2702702702702" cy="217.15089923398585" r="4" fill="#3b82f6" stroke="#0d1117" stroke-width="2" class="data-point"/>
  
    <circle cx="585" cy="217.0480701624542" r="4" fill="#3b82f6" stroke="#0d1117" stroke-width="2" class="data-point"/>
  
    <circle cx="589.7297297297298" cy="216.96106094808124" r="4" fill="#3b82f6" stroke="#0d1117" stroke-width="2" class="data-point"/>
  
    <circle cx="594.4594594594595" cy="216.84768530511047" r="4" fill="#3b82f6" stroke="#0d1117" stroke-width="2" class="data-point"/>
  
    <circle cx="599.1891891891892" cy="216.7474928764386" r="4" fill="#3b82f6" stroke="#0d1117" stroke-width="2" class="data-point"/>
  
    <circle cx="603.9189189189188" cy="216.7079432335418" r="4" fill="#3b82f6" stroke="#0d1117" stroke-width="2" class="data-point"/>
  
    <circle cx="608.6486486486486" cy="216.56292787625358" r="4" fill="#3b82f6" stroke="#0d1117" stroke-width="2" class="data-point"/>
  
    <circle cx="613.3783783783784" cy="216.42318580468492" r="4" fill="#3b82f6" stroke="#0d1117" stroke-width="2" class="data-point"/>
  
    <circle cx="618.1081081081081" cy="216.33090330459237" r="4" fill="#3b82f6" stroke="#0d1117" stroke-width="2" class="data-point"/>
  
    <circle cx="622.8378378378378" cy="216.29662694741518" r="4" fill="#3b82f6" stroke="#0d1117" stroke-width="2" class="data-point"/>
  
    <circle cx="627.5675675675676" cy="216.14106501868778" r="4" fill="#3b82f6" stroke="#0d1117" stroke-width="2" class="data-point"/>
  
    <circle cx="632.2972972972973" cy="212.31793287199793" r="4" fill="#3b82f6" stroke="#0d1117" stroke-width="2" class="data-point"/>
  
    <circle cx="637.0270270270271" cy="206.33011693742367" r="4" fill="#3b82f6" stroke="#0d1117" stroke-width="2" class="data-point"/>
  
    <circle cx="641.7567567567568" cy="202.319783147689" r="4" fill="#3b82f6" stroke="#0d1117" stroke-width="2" class="data-point"/>
  
    <circle cx="646.4864864864865" cy="197.66347185730675" r="4" fill="#3b82f6" stroke="#0d1117" stroke-width="2" class="data-point"/>
  
    <circle cx="651.2162162162163" cy="192.864781852496" r="4" fill="#3b82f6" stroke="#0d1117" stroke-width="2" class="data-point"/>
  
    <circle cx="655.9459459459459" cy="189.09965584872145" r="4" fill="#3b82f6" stroke="#0d1117" stroke-width="2" class="data-point"/>
  
    <circle cx="660.6756756756757" cy="184.88893720164305" r="4" fill="#3b82f6" stroke="#0d1117" stroke-width="2" class="data-point"/>
  
    <circle cx="665.4054054054054" cy="178.47398512378345" r="4" fill="#3b82f6" stroke="#0d1117" stroke-width="2" class="data-point"/>
  
    <circle cx="670.1351351351351" cy="169.8284331865448" r="4" fill="#3b82f6" stroke="#0d1117" stroke-width="2" class="data-point"/>
  
    <circle cx="674.8648648648649" cy="164.18601746660252" r="4" fill="#3b82f6" stroke="#0d1117" stroke-width="2" class="data-point"/>
  
    <circle cx="679.5945945945946" cy="157.47048810272733" r="4" fill="#3b82f6" stroke="#0d1117" stroke-width="2" class="data-point"/>
  
    <circle cx="684.3243243243243" cy="149.98769566665433" r="4" fill="#3b82f6" stroke="#0d1117" stroke-width="2" class="data-point"/>
  
    <circle cx="689.0540540540541" cy="143.98669651778113" r="4" fill="#3b82f6" stroke="#0d1117" stroke-width="2" class="data-point"/>
  
    <circle cx="693.7837837837837" cy="137.47418865410947" r="4" fill="#3b82f6" stroke="#0d1117" stroke-width="2" class="data-point"/>
  
    <circle cx="698.5135135135135" cy="131.6973041483181" r="4" fill="#3b82f6" stroke="#0d1117" stroke-width="2" class="data-point"/>
  
    <circle cx="703.2432432432432" cy="125.97315249972246" r="4" fill="#3b82f6" stroke="#0d1117" stroke-width="2" class="data-point"/>
  
    <circle cx="707.9729729729729" cy="120.26482070828553" r="4" fill="#3b82f6" stroke="#0d1117" stroke-width="2" class="data-point"/>
  
    <circle cx="712.7027027027027" cy="112.49199755763607" r="4" fill="#3b82f6" stroke="#0d1117" stroke-width="2" class="data-point"/>
  
    <circle cx="717.4324324324324" cy="104.69544462124855" r="4" fill="#3b82f6" stroke="#0d1117" stroke-width="2" class="data-point"/>
  
    <circle cx="722.1621621621622" cy="98.19611997187579" r="4" fill="#3b82f6" stroke="#0d1117" stroke-width="2" class="data-point"/>
  
    <circle cx="726.8918918918919" cy="92.74881582355769" r="4" fill="#3b82f6" stroke="#0d1117" stroke-width="2" class="data-point"/>
  
    <circle cx="731.6216216216216" cy="87.46498353254634" r="4" fill="#3b82f6" stroke="#0d1117" stroke-width="2" class="data-point"/>
  
    <circle cx="736.3513513513514" cy="80.45151352551534" r="4" fill="#3b82f6" stroke="#0d1117" stroke-width="2" class="data-point"/>
  
    <circle cx="741.0810810810812" cy="75.01211930577654" r="4" fill="#3b82f6" stroke="#0d1117" stroke-width="2" class="data-point"/>
  
    <circle cx="745.8108108108108" cy="69.6307312289531" r="4" fill="#3b82f6" stroke="#0d1117" stroke-width="2" class="data-point"/>
  
    <circle cx="750.5405405405405" cy="64.59738000962142" r="4" fill="#3b82f6" stroke="#0d1117" stroke-width="2" class="data-point"/>
  
    <circle cx="755.2702702702702" cy="59.85669614772604" r="4" fill="#3b82f6" stroke="#0d1117" stroke-width="2" class="data-point"/>
  
    <circle cx="760" cy="55" r="4" fill="#3b82f6" stroke="#0d1117" stroke-width="2" class="data-point"/>
  

  <!-- Axis lines -->
  <line x1="60" y1="55" x2="60" y2="340"
        stroke="#30363d" stroke-width="2"/>
  <line x1="60" y1="340" x2="760" y2="340"
        stroke="#30363d" stroke-width="2"/>
</svg>