<?xml version="1.0" encoding="UTF-8"?>
<svg width="800" height="400" xmlns="http://www.w3.org/2000/svg">
  <defs>
    <!-- Gradient for area fill -->
    <linearGradient id="areaGradient" x1="0%" y1="0%" x2="0%" y2="100%">
      <stop offset="0%" style="stop-color:#3b82f6;stop-opacity:0.3" />
      <stop offset="100%" style="stop-color:#3b82f6;stop-opacity:0.05" />
    </linearGradient>

    <!-- Glow filter for line -->
    <filter id="glow">
      <feGaussianBlur stdDeviation="2" result="coloredBlur"/>
      <feMerge>
        <feMergeNode in="coloredBlur"/>
        <feMergeNode in="SourceGraphic"/>
      </feMerge>
    </filter>

    <!-- Animation -->
    <style>
      @keyframes draw {
        from { stroke-dashoffset: 2000; }
        to { stroke-dashoffset: 0; }
      }
      @keyframes fadeIn {
        from { opacity: 0; }
        to { opacity: 1; }
      }
      .line-path {
        stroke-dasharray: 2000;
        stroke-dashoffset: 2000;
        animation: draw 1.5s ease-out forwards;
      }
      .area-path {
        opacity: 0;
        animation: fadeIn 1s ease-out 0.5s forwards;
      }
      .data-point {
        opacity: 0;
        animation: fadeIn 0.5s ease-out 1s forwards;
      }
    </style>
  </defs>

  <!-- Background -->
  <rect width="800" height="400" fill="#0d1117" rx="8"/>

  <!-- Title -->
  <text x="400" y="25" text-anchor="middle" fill="#c9d1d9" font-family="system-ui, -apple-system, sans-serif" font-size="16" font-weight="600">
    zxcloli666/SoundCloud-Desktop Downloads
  </text>

  <!-- Stats -->
  <text x="780" y="25" text-anchor="end" fill="#58a6ff" font-family="system-ui, -apple-system, sans-serif" font-size="14" font-weight="600">
    218.1K total
  </text>
  <text x="780" y="42" text-anchor="end" fill="#3fb950" font-family="system-ui, -apple-system, sans-serif" font-size="12">
    +1.2K (+0.6%)
  </text>

  <!-- Grid lines -->
  <g opacity="0.1">
    
      <line x1="60" y1="340" x2="760" y2="340"
            stroke="#c9d1d9" stroke-width="1"/>
    
      <line x1="60" y1="268.75" x2="760" y2="268.75"
            stroke="#c9d1d9" stroke-width="1"/>
    
      <line x1="60" y1="197.5" x2="760" y2="197.5"
            stroke="#c9d1d9" stroke-width="1"/>
    
      <line x1="60" y1="126.25" x2="760" y2="126.25"
            stroke="#c9d1d9" stroke-width="1"/>
    
      <line x1="60" y1="55" x2="760" y2="55"
            stroke="#c9d1d9" stroke-width="1"/>
    
  </g>

  <!-- Y-axis labels -->
  
    <text x="50" y="344" text-anchor="end"
          fill="#8b949e" font-family="system-ui, -apple-system, sans-serif" font-size="11">
      60.2K
    </text>
  
    <text x="50" y="272.75" text-anchor="end"
          fill="#8b949e" font-family="system-ui, -apple-system, sans-serif" font-size="11">
      99.6K
    </text>
  
    <text x="50" y="201.5" text-anchor="end"
          fill="#8b949e" font-family="system-ui, -apple-system, sans-serif" font-size="11">
      139.1K
    </text>
  
    <text x="50" y="130.25" text-anchor="end"
          fill="#8b949e" font-family="system-ui, -apple-system, sans-serif" font-size="11">
      178.6K
    </text>
  
    <text x="50" y="59" text-anchor="end"
          fill="#8b949e" font-family="system-ui, -apple-system, sans-serif" font-size="11">
      218.1K
    </text>
  

  <!-- X-axis labels -->
  
    <text x="60" y="360" text-anchor="middle"
          fill="#8b949e" font-family="system-ui, -apple-system, sans-serif" font-size="11">
      Nov 25
    </text>
  
    <text x="148" y="360" text-anchor="middle"
          fill="#8b949e" font-family="system-ui, -apple-system, sans-serif" font-size="11">
      Dec 17
    </text>
  
    <text x="236" y="360" text-anchor="middle"
          fill="#8b949e" font-family="system-ui, -apple-system, sans-serif" font-size="11">
      Jan 8
    </text>
  
    <text x="324" y="360" text-anchor="middle"
          fill="#8b949e" font-family="system-ui, -apple-system, sans-serif" font-size="11">
      Jan 30
    </text>
  
    <text x="412" y="360" text-anchor="middle"
          fill="#8b949e" font-family="system-ui, -apple-system, sans-serif" font-size="11">
      Feb 21
    </text>
  
    <text x="500" y="360" text-anchor="middle"
          fill="#8b949e" font-family="system-ui, -apple-system, sans-serif" font-size="11">
      Mar 15
    </text>
  
    <text x="588" y="360" text-anchor="middle"
          fill="#8b949e" font-family="system-ui, -apple-system, sans-serif" font-size="11">
      Apr 6
    </text>
  
    <text x="676" y="360" text-anchor="middle"
          fill="#8b949e" font-family="system-ui, -apple-system, sans-serif" font-size="11">
      Apr 28
    </text>
  
    <text x="760" y="360" text-anchor="middle"
          fill="#8b949e" font-family="system-ui, -apple-system, sans-serif" font-size="11">
      May 19
    </text>
  

  <!-- Area under line -->
  <path d="M 60 340
    L 60.00 340.00 L 64.00 339.73 L 68.00 339.28 L 72.00 338.86 L 76.00 338.03 L 80.00 337.17 L 84.00 336.50 L 88.00 335.87 L 92.00 335.30 L 96.00 334.65 L 100.00 333.91 L 104.00 333.12 L 108.00 332.41 L 112.00 331.65 L 116.00 331.10 L 120.00 330.52 L 124.00 329.74 L 128.00 329.22 L 132.00 328.50 L 136.00 327.67 L 140.00 327.04 L 144.00 326.52 L 148.00 326.19 L 152.00 325.91 L 156.00 325.40 L 160.00 325.03 L 164.00 324.23 L 168.00 323.91 L 172.00 323.50 L 176.00 322.98 L 180.00 322.61 L 184.00 322.25 L 188.00 321.86 L 192.00 321.60 L 196.00 321.37 L 200.00 321.01 L 204.00 320.59 L 208.00 320.19 L 212.00 319.69 L 216.00 319.15 L 220.00 318.65 L 224.00 318.05 L 228.00 317.46 L 232.00 316.87 L 236.00 316.23 L 240.00 315.61 L 244.00 314.90 L 248.00 314.27 L 252.00 313.74 L 256.00 313.32 L 260.00 312.72 L 264.00 312.04 L 268.00 311.42 L 272.00 310.69 L 276.00 309.79 L 280.00 309.12 L 284.00 308.57 L 288.00 308.04 L 292.00 307.41 L 296.00 306.67 L 300.00 305.86 L 304.00 305.00 L 308.00 304.18 L 312.00 303.45 L 316.00 302.74 L 320.00 302.10 L 324.00 301.46 L 328.00 300.74 L 332.00 299.84 L 336.00 299.17 L 340.00 298.57 L 344.00 297.90 L 348.00 297.28 L 352.00 296.60 L 356.00 295.89 L 360.00 295.14 L 364.00 294.49 L 368.00 293.94 L 372.00 293.32 L 376.00 292.66 L 380.00 292.05 L 384.00 291.25 L 388.00 290.56 L 392.00 289.90 L 396.00 289.35 L 400.00 288.81 L 404.00 288.28 L 408.00 287.64 L 412.00 286.98 L 416.00 286.18 L 420.00 285.53 L 424.00 285.00 L 428.00 284.46 L 432.00 283.94 L 436.00 283.30 L 440.00 282.64 L 444.00 281.18 L 448.00 278.28 L 452.00 274.83 L 456.00 271.69 L 460.00 270.09 L 464.00 267.69 L 468.00 266.09 L 472.00 264.69 L 476.00 263.32 L 480.00 262.03 L 484.00 260.02 L 488.00 258.43 L 492.00 256.39 L 496.00 255.97 L 500.00 255.92 L 504.00 255.85 L 508.00 255.79 L 512.00 255.71 L 516.00 255.64 L 520.00 255.61 L 524.00 255.52 L 528.00 255.42 L 532.00 255.36 L 536.00 255.33 L 540.00 255.23 L 544.00 252.61 L 548.00 248.51 L 552.00 245.77 L 556.00 242.58 L 560.00 239.30 L 564.00 236.72 L 568.00 233.84 L 572.00 229.45 L 576.00 223.53 L 580.00 219.67 L 584.00 215.07 L 588.00 209.95 L 592.00 205.84 L 596.00 201.38 L 600.00 197.43 L 604.00 193.51 L 608.00 189.61 L 612.00 184.29 L 616.00 178.95 L 620.00 174.50 L 624.00 170.77 L 628.00 167.16 L 632.00 162.36 L 636.00 158.63 L 640.00 154.95 L 644.00 151.51 L 648.00 148.26 L 652.00 144.94 L 656.00 142.09 L 660.00 139.15 L 664.00 136.15 L 668.00 132.97 L 672.00 130.06 L 676.00 127.39 L 680.00 122.55 L 684.00 118.50 L 688.00 114.62 L 692.00 110.88 L 696.00 104.99 L 700.00 101.26 L 704.00 98.03 L 708.00 94.21 L 712.00 88.59 L 716.00 84.55 L 720.00 81.13 L 724.00 78.25 L 728.00 75.50 L 732.00 73.28 L 736.00 70.77 L 740.00 68.72 L 744.00 66.30 L 748.00 62.83 L 752.00 59.84 L 756.00 57.24 L 760.00 55.00
    L 760 340
    Z" fill="url(#areaGradient)" class="area-path"/>

  <!-- Main line with glow -->
  <path d="M 60.00 340.00 L 64.00 339.73 L 68.00 339.28 L 72.00 338.86 L 76.00 338.03 L 80.00 337.17 L 84.00 336.50 L 88.00 335.87 L 92.00 335.30 L 96.00 334.65 L 100.00 333.91 L 104.00 333.12 L 108.00 332.41 L 112.00 331.65 L 116.00 331.10 L 120.00 330.52 L 124.00 329.74 L 128.00 329.22 L 132.00 328.50 L 136.00 327.67 L 140.00 327.04 L 144.00 326.52 L 148.00 326.19 L 152.00 325.91 L 156.00 325.40 L 160.00 325.03 L 164.00 324.23 L 168.00 323.91 L 172.00 323.50 L 176.00 322.98 L 180.00 322.61 L 184.00 322.25 L 188.00 321.86 L 192.00 321.60 L 196.00 321.37 L 200.00 321.01 L 204.00 320.59 L 208.00 320.19 L 212.00 319.69 L 216.00 319.15 L 220.00 318.65 L 224.00 318.05 L 228.00 317.46 L 232.00 316.87 L 236.00 316.23 L 240.00 315.61 L 244.00 314.90 L 248.00 314.27 L 252.00 313.74 L 256.00 313.32 L 260.00 312.72 L 264.00 312.04 L 268.00 311.42 L 272.00 310.69 L 276.00 309.79 L 280.00 309.12 L 284.00 308.57 L 288.00 308.04 L 292.00 307.41 L 296.00 306.67 L 300.00 305.86 L 304.00 305.00 L 308.00 304.18 L 312.00 303.45 L 316.00 302.74 L 320.00 302.10 L 324.00 301.46 L 328.00 300.74 L 332.00 299.84 L 336.00 299.17 L 340.00 298.57 L 344.00 297.90 L 348.00 297.28 L 352.00 296.60 L 356.00 295.89 L 360.00 295.14 L 364.00 294.49 L 368.00 293.94 L 372.00 293.32 L 376.00 292.66 L 380.00 292.05 L 384.00 291.25 L 388.00 290.56 L 392.00 289.90 L 396.00 289.35 L 400.00 288.81 L 404.00 288.28 L 408.00 287.64 L 412.00 286.98 L 416.00 286.18 L 420.00 285.53 L 424.00 285.00 L 428.00 284.46 L 432.00 283.94 L 436.00 283.30 L 440.00 282.64 L 444.00 281.18 L 448.00 278.28 L 452.00 274.83 L 456.00 271.69 L 460.00 270.09 L 464.00 267.69 L 468.00 266.09 L 472.00 264.69 L 476.00 263.32 L 480.00 262.03 L 484.00 260.02 L 488.00 258.43 L 492.00 256.39 L 496.00 255.97 L 500.00 255.92 L 504.00 255.85 L 508.00 255.79 L 512.00 255.71 L 516.00 255.64 L 520.00 255.61 L 524.00 255.52 L 528.00 255.42 L 532.00 255.36 L 536.00 255.33 L 540.00 255.23 L 544.00 252.61 L 548.00 248.51 L 552.00 245.77 L 556.00 242.58 L 560.00 239.30 L 564.00 236.72 L 568.00 233.84 L 572.00 229.45 L 576.00 223.53 L 580.00 219.67 L 584.00 215.07 L 588.00 209.95 L 592.00 205.84 L 596.00 201.38 L 600.00 197.43 L 604.00 193.51 L 608.00 189.61 L 612.00 184.29 L 616.00 178.95 L 620.00 174.50 L 624.00 170.77 L 628.00 167.16 L 632.00 162.36 L 636.00 158.63 L 640.00 154.95 L 644.00 151.51 L 648.00 148.26 L 652.00 144.94 L 656.00 142.09 L 660.00 139.15 L 664.00 136.15 L 668.00 132.97 L 672.00 130.06 L 676.00 127.39 L 680.00 122.55 L 684.00 118.50 L 688.00 114.62 L 692.00 110.88 L 696.00 104.99 L 700.00 101.26 L 704.00 98.03 L 708.00 94.21 L 712.00 88.59 L 716.00 84.55 L 720.00 81.13 L 724.00 78.25 L 728.00 75.50 L 732.00 73.28 L 736.00 70.77 L 740.00 68.72 L 744.00 66.30 L 748.00 62.83 L 752.00 59.84 L 756.00 57.24 L 760.00 55.00" fill="none" stroke="#3b82f6" stroke-width="3"
        stroke-linecap="round" stroke-linejoin="round" filter="url(#glow)" class="line-path"/>

  <!-- Data points -->
  
    <circle cx="60" cy="340" r="4" fill="#3b82f6" stroke="#0d1117" stroke-width="2" class="data-point"/>
  
    <circle cx="64" cy="339.73472256520336" r="4" fill="#3b82f6" stroke="#0d1117" stroke-width="2" class="data-point"/>
  
    <circle cx="68" cy="339.28357046520904" r="4" fill="#3b82f6" stroke="#0d1117" stroke-width="2" class="data-point"/>
  
    <circle cx="72" cy="338.8649013164143" r="4" fill="#3b82f6" stroke="#0d1117" stroke-width="2" class="data-point"/>
  
    <circle cx="76" cy="338.03297684402486" r="4" fill="#3b82f6" stroke="#0d1117" stroke-width="2" class="data-point"/>
  
    <circle cx="80" cy="337.1739832456357" r="4" fill="#3b82f6" stroke="#0d1117" stroke-width="2" class="data-point"/>
  
    <circle cx="84" cy="336.4972550956442" r="4" fill="#3b82f6" stroke="#0d1117" stroke-width="2" class="data-point"/>
  
    <circle cx="88" cy="335.8656421556522" r="4" fill="#3b82f6" stroke="#0d1117" stroke-width="2" class="data-point"/>
  
    <circle cx="92" cy="335.3044089432593" r="4" fill="#3b82f6" stroke="#0d1117" stroke-width="2" class="data-point"/>
  
    <circle cx="96" cy="334.64572687726763" r="4" fill="#3b82f6" stroke="#0d1117" stroke-width="2" class="data-point"/>
  
    <circle cx="100" cy="333.9112512584769" r="4" fill="#3b82f6" stroke="#0d1117" stroke-width="2" class="data-point"/>
  
    <circle cx="104" cy="333.12444199608683" r="4" fill="#3b82f6" stroke="#0d1117" stroke-width="2" class="data-point"/>
  
    <circle cx="108" cy="332.40981706969586" r="4" fill="#3b82f6" stroke="#0d1117" stroke-width="2" class="data-point"/>
  
    <circle cx="112" cy="331.65007693330546" r="4" fill="#3b82f6" stroke="#0d1117" stroke-width="2" class="data-point"/>
  
    <circle cx="116" cy="331.0960621545125" r="4" fill="#3b82f6" stroke="#0d1117" stroke-width="2" class="data-point"/>
  
    <circle cx="120" cy="330.52219668331975" r="4" fill="#3b82f6" stroke="#0d1117" stroke-width="2" class="data-point"/>
  
    <circle cx="124" cy="329.7426058545296" r="4" fill="#3b82f6" stroke="#0d1117" stroke-width="2" class="data-point"/>
  
    <circle cx="128" cy="329.22107402693615" r="4" fill="#3b82f6" stroke="#0d1117" stroke-width="2" class="data-point"/>
  
    <circle cx="132" cy="328.49923066694527" r="4" fill="#3b82f6" stroke="#0d1117" stroke-width="2" class="data-point"/>
  
    <circle cx="136" cy="327.6655015861558" r="4" fill="#3b82f6" stroke="#0d1117" stroke-width="2" class="data-point"/>
  
    <circle cx="140" cy="327.03749786296373" r="4" fill="#3b82f6" stroke="#0d1117" stroke-width="2" class="data-point"/>
  
    <circle cx="144" cy="326.5213798605703" r="4" fill="#3b82f6" stroke="#0d1117" stroke-width="2" class="data-point"/>
  
    <circle cx="148" cy="326.18752730657445" r="4" fill="#3b82f6" stroke="#0d1117" stroke-width="2" class="data-point"/>
  
    <circle cx="152" cy="325.90961761297797" r="4" fill="#3b82f6" stroke="#0d1117" stroke-width="2" class="data-point"/>
  
    <circle cx="156" cy="325.3953042189845" r="4" fill="#3b82f6" stroke="#0d1117" stroke-width="2" class="data-point"/>
  
    <circle cx="160" cy="325.0289687137891" r="4" fill="#3b82f6" stroke="#0d1117" stroke-width="2" class="data-point"/>
  
    <circle cx="164" cy="324.22591797579923" r="4" fill="#3b82f6" stroke="#0d1117" stroke-width="2" class="data-point"/>
  
    <circle cx="168" cy="323.91011150580323" r="4" fill="#3b82f6" stroke="#0d1117" stroke-width="2" class="data-point"/>
  
    <circle cx="172" cy="323.5022700074084" r="4" fill="#3b82f6" stroke="#0d1117" stroke-width="2" class="data-point"/>
  
    <circle cx="176" cy="322.97532435461505" r="4" fill="#3b82f6" stroke="#0d1117" stroke-width="2" class="data-point"/>
  
    <circle cx="180" cy="322.6144026746196" r="4" fill="#3b82f6" stroke="#0d1117" stroke-width="2" class="data-point"/>
  
    <circle cx="184" cy="322.24806716942425" r="4" fill="#3b82f6" stroke="#0d1117" stroke-width="2" class="data-point"/>
  
    <circle cx="188" cy="321.8636855802291" r="4" fill="#3b82f6" stroke="#0d1117" stroke-width="2" class="data-point"/>
  
    <circle cx="192" cy="321.5966035370325" r="4" fill="#3b82f6" stroke="#0d1117" stroke-width="2" class="data-point"/>
  
    <circle cx="196" cy="321.36561366183537" r="4" fill="#3b82f6" stroke="#0d1117" stroke-width="2" class="data-point"/>
  
    <circle cx="200" cy="321.01371502383984" r="4" fill="#3b82f6" stroke="#0d1117" stroke-width="2" class="data-point"/>
  
    <circle cx="204" cy="320.5860228330452" r="4" fill="#3b82f6" stroke="#0d1117" stroke-width="2" class="data-point"/>
  
    <circle cx="208" cy="320.1926182018502" r="4" fill="#3b82f6" stroke="#0d1117" stroke-width="2" class="data-point"/>
  
    <circle cx="212" cy="319.6945462834565" r="4" fill="#3b82f6" stroke="#0d1117" stroke-width="2" class="data-point"/>
  
    <circle cx="216" cy="319.15135915506335" r="4" fill="#3b82f6" stroke="#0d1117" stroke-width="2" class="data-point"/>
  
    <circle cx="220" cy="318.65328723666966" r="4" fill="#3b82f6" stroke="#0d1117" stroke-width="2" class="data-point"/>
  
    <circle cx="224" cy="318.05235263947725" r="4" fill="#3b82f6" stroke="#0d1117" stroke-width="2" class="data-point"/>
  
    <circle cx="228" cy="317.4622456926847" r="4" fill="#3b82f6" stroke="#0d1117" stroke-width="2" class="data-point"/>
  
    <circle cx="232" cy="316.87213874589213" r="4" fill="#3b82f6" stroke="#0d1117" stroke-width="2" class="data-point"/>
  
    <circle cx="236" cy="316.2260889387003" r="4" fill="#3b82f6" stroke="#0d1117" stroke-width="2" class="data-point"/>
  
    <circle cx="239.99999999999997" cy="315.6089128659081" r="4" fill="#3b82f6" stroke="#0d1117" stroke-width="2" class="data-point"/>
  
    <circle cx="244" cy="314.903310981517" r="4" fill="#3b82f6" stroke="#0d1117" stroke-width="2" class="data-point"/>
  
    <circle cx="248" cy="314.273502649925" r="4" fill="#3b82f6" stroke="#0d1117" stroke-width="2" class="data-point"/>
  
    <circle cx="252" cy="313.7411431719317" r="4" fill="#3b82f6" stroke="#0d1117" stroke-width="2" class="data-point"/>
  
    <circle cx="256" cy="313.31525558953706" r="4" fill="#3b82f6" stroke="#0d1117" stroke-width="2" class="data-point"/>
  
    <circle cx="260" cy="312.7197348175446" r="4" fill="#3b82f6" stroke="#0d1117" stroke-width="2" class="data-point"/>
  
    <circle cx="264" cy="312.0393974507532" r="4" fill="#3b82f6" stroke="#0d1117" stroke-width="2" class="data-point"/>
  
    <circle cx="268" cy="311.41680755276104" r="4" fill="#3b82f6" stroke="#0d1117" stroke-width="2" class="data-point"/>
  
    <circle cx="272" cy="310.68955036757023" r="4" fill="#3b82f6" stroke="#0d1117" stroke-width="2" class="data-point"/>
  
    <circle cx="276" cy="309.7926599927816" r="4" fill="#3b82f6" stroke="#0d1117" stroke-width="2" class="data-point"/>
  
    <circle cx="280" cy="309.12495488479" r="4" fill="#3b82f6" stroke="#0d1117" stroke-width="2" class="data-point"/>
  
    <circle cx="284" cy="308.570940105997" r="4" fill="#3b82f6" stroke="#0d1117" stroke-width="2" class="data-point"/>
  
    <circle cx="288" cy="308.04399445320365" r="4" fill="#3b82f6" stroke="#0d1117" stroke-width="2" class="data-point"/>
  
    <circle cx="292" cy="307.41057690481165" r="4" fill="#3b82f6" stroke="#0d1117" stroke-width="2" class="data-point"/>
  
    <circle cx="296" cy="306.674296677621" r="4" fill="#3b82f6" stroke="#0d1117" stroke-width="2" class="data-point"/>
  
    <circle cx="300" cy="305.85861368083124" r="4" fill="#3b82f6" stroke="#0d1117" stroke-width="2" class="data-point"/>
  
    <circle cx="304" cy="305.0014246908421" r="4" fill="#3b82f6" stroke="#0d1117" stroke-width="2" class="data-point"/>
  
    <circle cx="308" cy="304.1785232604525" r="4" fill="#3b82f6" stroke="#0d1117" stroke-width="2" class="data-point"/>
  
    <circle cx="312" cy="303.4548752920616" r="4" fill="#3b82f6" stroke="#0d1117" stroke-width="2" class="data-point"/>
  
    <circle cx="316" cy="302.7366411488707" r="4" fill="#3b82f6" stroke="#0d1117" stroke-width="2" class="data-point"/>
  
    <circle cx="320" cy="302.1032236004787" r="4" fill="#3b82f6" stroke="#0d1117" stroke-width="2" class="data-point"/>
  
    <circle cx="324" cy="301.45717379328687" r="4" fill="#3b82f6" stroke="#0d1117" stroke-width="2" class="data-point"/>
  
    <circle cx="328" cy="300.735330433296" r="4" fill="#3b82f6" stroke="#0d1117" stroke-width="2" class="data-point"/>
  
    <circle cx="332" cy="299.83663545010734" r="4" fill="#3b82f6" stroke="#0d1117" stroke-width="2" class="data-point"/>
  
    <circle cx="336" cy="299.1671257337158" r="4" fill="#3b82f6" stroke="#0d1117" stroke-width="2" class="data-point"/>
  
    <circle cx="340" cy="298.56799574492334" r="4" fill="#3b82f6" stroke="#0d1117" stroke-width="2" class="data-point"/>
  
    <circle cx="344" cy="297.9020952453318" r="4" fill="#3b82f6" stroke="#0d1117" stroke-width="2" class="data-point"/>
  
    <circle cx="348" cy="297.28130995573963" r="4" fill="#3b82f6" stroke="#0d1117" stroke-width="2" class="data-point"/>
  
    <circle cx="352" cy="296.5991679805482" r="4" fill="#3b82f6" stroke="#0d1117" stroke-width="2" class="data-point"/>
  
    <circle cx="356" cy="295.8881522709572" r="4" fill="#3b82f6" stroke="#0d1117" stroke-width="2" class="data-point"/>
  
    <circle cx="360" cy="295.1446536101666" r="4" fill="#3b82f6" stroke="#0d1117" stroke-width="2" class="data-point"/>
  
    <circle cx="364" cy="294.4931899777748" r="4" fill="#3b82f6" stroke="#0d1117" stroke-width="2" class="data-point"/>
  
    <circle cx="368" cy="293.93556598218186" r="4" fill="#3b82f6" stroke="#0d1117" stroke-width="2" class="data-point"/>
  
    <circle cx="372" cy="293.3238037345896" r="4" fill="#3b82f6" stroke="#0d1117" stroke-width="2" class="data-point"/>
  
    <circle cx="376" cy="292.661512451798" r="4" fill="#3b82f6" stroke="#0d1117" stroke-width="2" class="data-point"/>
  
    <circle cx="380" cy="292.0479455958057" r="4" fill="#3b82f6" stroke="#0d1117" stroke-width="2" class="data-point"/>
  
    <circle cx="384" cy="291.2485040746158" r="4" fill="#3b82f6" stroke="#0d1117" stroke-width="2" class="data-point"/>
  
    <circle cx="388" cy="290.5609482742245" r="4" fill="#3b82f6" stroke="#0d1117" stroke-width="2" class="data-point"/>
  
    <circle cx="392" cy="289.89865699143286" r="4" fill="#3b82f6" stroke="#0d1117" stroke-width="2" class="data-point"/>
  
    <circle cx="396" cy="289.3482514294398" r="4" fill="#3b82f6" stroke="#0d1117" stroke-width="2" class="data-point"/>
  
    <circle cx="400" cy="288.81408734304654" r="4" fill="#3b82f6" stroke="#0d1117" stroke-width="2" class="data-point"/>
  
    <circle cx="404" cy="288.2781186482533" r="4" fill="#3b82f6" stroke="#0d1117" stroke-width="2" class="data-point"/>
  
    <circle cx="408" cy="287.6374826662614" r="4" fill="#3b82f6" stroke="#0d1117" stroke-width="2" class="data-point"/>
  
    <circle cx="412" cy="286.9788006002697" r="4" fill="#3b82f6" stroke="#0d1117" stroke-width="2" class="data-point"/>
  
    <circle cx="416" cy="286.17935907907986" r="4" fill="#3b82f6" stroke="#0d1117" stroke-width="2" class="data-point"/>
  
    <circle cx="419.99999999999994" cy="285.531504663488" r="4" fill="#3b82f6" stroke="#0d1117" stroke-width="2" class="data-point"/>
  
    <circle cx="424" cy="285.0027544022947" r="4" fill="#3b82f6" stroke="#0d1117" stroke-width="2" class="data-point"/>
  
    <circle cx="428" cy="284.4595672739016" r="4" fill="#3b82f6" stroke="#0d1117" stroke-width="2" class="data-point"/>
  
    <circle cx="432.00000000000006" cy="283.93984005470816" r="4" fill="#3b82f6" stroke="#0d1117" stroke-width="2" class="data-point"/>
  
    <circle cx="436" cy="283.29739946431624" r="4" fill="#3b82f6" stroke="#0d1117" stroke-width="2" class="data-point"/>
  
    <circle cx="439.99999999999994" cy="282.63871739832456" r="4" fill="#3b82f6" stroke="#0d1117" stroke-width="2" class="data-point"/>
  
    <circle cx="444" cy="281.18239841954295" r="4" fill="#3b82f6" stroke="#0d1117" stroke-width="2" class="data-point"/>
  
    <circle cx="448" cy="278.28419732917956" r="4" fill="#3b82f6" stroke="#0d1117" stroke-width="2" class="data-point"/>
  
    <circle cx="452.00000000000006" cy="274.83198146002314" r="4" fill="#3b82f6" stroke="#0d1117" stroke-width="2" class="data-point"/>
  
    <circle cx="456" cy="271.68654901886293" r="4" fill="#3b82f6" stroke="#0d1117" stroke-width="2" class="data-point"/>
  
    <circle cx="460" cy="270.0912751932831" r="4" fill="#3b82f6" stroke="#0d1117" stroke-width="2" class="data-point"/>
  
    <circle cx="464" cy="267.6875368045134" r="4" fill="#3b82f6" stroke="#0d1117" stroke-width="2" class="data-point"/>
  
    <circle cx="468" cy="266.0904583705336" r="4" fill="#3b82f6" stroke="#0d1117" stroke-width="2" class="data-point"/>
  
    <circle cx="471.99999999999994" cy="264.6900822521513" r="4" fill="#3b82f6" stroke="#0d1117" stroke-width="2" class="data-point"/>
  
    <circle cx="476" cy="263.32038447656856" r="4" fill="#3b82f6" stroke="#0d1117" stroke-width="2" class="data-point"/>
  
    <circle cx="480" cy="262.03008947058487" r="4" fill="#3b82f6" stroke="#0d1117" stroke-width="2" class="data-point"/>
  
    <circle cx="484.00000000000006" cy="260.0233649298102" r="4" fill="#3b82f6" stroke="#0d1117" stroke-width="2" class="data-point"/>
  
    <circle cx="488" cy="258.42809110423036" r="4" fill="#3b82f6" stroke="#0d1117" stroke-width="2" class="data-point"/>
  
    <circle cx="492" cy="256.3888836122561" r="4" fill="#3b82f6" stroke="#0d1117" stroke-width="2" class="data-point"/>
  
    <circle cx="496" cy="255.9720190718614" r="4" fill="#3b82f6" stroke="#0d1117" stroke-width="2" class="data-point"/>
  
    <circle cx="500" cy="255.9178808198621" r="4" fill="#3b82f6" stroke="#0d1117" stroke-width="2" class="data-point"/>
  
    <circle cx="503.99999999999994" cy="255.84750109226297" r="4" fill="#3b82f6" stroke="#0d1117" stroke-width="2" class="data-point"/>
  
    <circle cx="508" cy="255.78794901506373" r="4" fill="#3b82f6" stroke="#0d1117" stroke-width="2" class="data-point"/>
  
    <circle cx="512" cy="255.71035085386472" r="4" fill="#3b82f6" stroke="#0d1117" stroke-width="2" class="data-point"/>
  
    <circle cx="516" cy="255.64177573466557" r="4" fill="#3b82f6" stroke="#0d1117" stroke-width="2" class="data-point"/>
  
    <circle cx="520" cy="255.61470660866593" r="4" fill="#3b82f6" stroke="#0d1117" stroke-width="2" class="data-point"/>
  
    <circle cx="524" cy="255.51545314666717" r="4" fill="#3b82f6" stroke="#0d1117" stroke-width="2" class="data-point"/>
  
    <circle cx="528" cy="255.41980890146837" r="4" fill="#3b82f6" stroke="#0d1117" stroke-width="2" class="data-point"/>
  
    <circle cx="532" cy="255.35664760746917" r="4" fill="#3b82f6" stroke="#0d1117" stroke-width="2" class="data-point"/>
  
    <circle cx="536" cy="255.33318769826948" r="4" fill="#3b82f6" stroke="#0d1117" stroke-width="2" class="data-point"/>
  
    <circle cx="540" cy="255.2267158026708" r="4" fill="#3b82f6" stroke="#0d1117" stroke-width="2" class="data-point"/>
  
    <circle cx="544" cy="252.6100336227039" r="4" fill="#3b82f6" stroke="#0d1117" stroke-width="2" class="data-point"/>
  
    <circle cx="548" cy="248.51176794635563" r="4" fill="#3b82f6" stroke="#0d1117" stroke-width="2" class="data-point"/>
  
    <circle cx="552" cy="245.76695856999032" r="4" fill="#3b82f6" stroke="#0d1117" stroke-width="2" class="data-point"/>
  
    <circle cx="556" cy="242.58002013563055" r="4" fill="#3b82f6" stroke="#0d1117" stroke-width="2" class="data-point"/>
  
    <circle cx="560" cy="239.29563284767204" r="4" fill="#3b82f6" stroke="#0d1117" stroke-width="2" class="data-point"/>
  
    <circle cx="564" cy="236.7186520525046" r="4" fill="#3b82f6" stroke="#0d1117" stroke-width="2" class="data-point"/>
  
    <circle cx="568" cy="233.83669243774102" r="4" fill="#3b82f6" stroke="#0d1117" stroke-width="2" class="data-point"/>
  
    <circle cx="572" cy="229.44608020059647" r="4" fill="#3b82f6" stroke="#0d1117" stroke-width="2" class="data-point"/>
  
    <circle cx="576" cy="223.52876925707122" r="4" fill="#3b82f6" stroke="#0d1117" stroke-width="2" class="data-point"/>
  
    <circle cx="580" cy="219.66690728112" r="4" fill="#3b82f6" stroke="#0d1117" stroke-width="2" class="data-point"/>
  
    <circle cx="584" cy="215.07056968637806" r="4" fill="#3b82f6" stroke="#0d1117" stroke-width="2" class="data-point"/>
  
    <circle cx="588" cy="209.94909104724275" r="4" fill="#3b82f6" stroke="#0d1117" stroke-width="2" class="data-point"/>
  
    <circle cx="592" cy="205.84180232889463" r="4" fill="#3b82f6" stroke="#0d1117" stroke-width="2" class="data-point"/>
  
    <circle cx="596" cy="201.38441958095095" r="4" fill="#3b82f6" stroke="#0d1117" stroke-width="2" class="data-point"/>
  
    <circle cx="600" cy="197.43052257660088" r="4" fill="#3b82f6" stroke="#0d1117" stroke-width="2" class="data-point"/>
  
    <circle cx="604" cy="193.51271774025037" r="4" fill="#3b82f6" stroke="#0d1117" stroke-width="2" class="data-point"/>
  
    <circle cx="608" cy="189.60574055429973" r="4" fill="#3b82f6" stroke="#0d1117" stroke-width="2" class="data-point"/>
  
    <circle cx="612" cy="184.28575499116693" r="4" fill="#3b82f6" stroke="#0d1117" stroke-width="2" class="data-point"/>
  
    <circle cx="616" cy="178.9495279524343" r="4" fill="#3b82f6" stroke="#0d1117" stroke-width="2" class="data-point"/>
  
    <circle cx="620" cy="174.50116824649052" r="4" fill="#3b82f6" stroke="#0d1117" stroke-width="2" class="data-point"/>
  
    <circle cx="624" cy="170.77284729213758" r="4" fill="#3b82f6" stroke="#0d1117" stroke-width="2" class="data-point"/>
  
    <circle cx="628" cy="167.1564120585833" r="4" fill="#3b82f6" stroke="#0d1117" stroke-width="2" class="data-point"/>
  
    <circle cx="632" cy="162.3561537146439" r="4" fill="#3b82f6" stroke="#0d1117" stroke-width="2" class="data-point"/>
  
    <circle cx="636" cy="158.63324658549095" r="4" fill="#3b82f6" stroke="#0d1117" stroke-width="2" class="data-point"/>
  
    <circle cx="640" cy="154.95004084113748" r="4" fill="#3b82f6" stroke="#0d1117" stroke-width="2" class="data-point"/>
  
    <circle cx="644" cy="151.50504340558098" r="4" fill="#3b82f6" stroke="#0d1117" stroke-width="2" class="data-point"/>
  
    <circle cx="648" cy="148.26035750242195" r="4" fill="#3b82f6" stroke="#0d1117" stroke-width="2" class="data-point"/>
  
    <circle cx="652" cy="144.93626882966396" r="4" fill="#3b82f6" stroke="#0d1117" stroke-width="2" class="data-point"/>
  
    <circle cx="656" cy="142.09401059969989" r="4" fill="#3b82f6" stroke="#0d1117" stroke-width="2" class="data-point"/>
  
    <circle cx="660" cy="139.15069429933703" r="4" fill="#3b82f6" stroke="#0d1117" stroke-width="2" class="data-point"/>
  
    <circle cx="664" cy="136.146021313375" r="4" fill="#3b82f6" stroke="#0d1117" stroke-width="2" class="data-point"/>
  
    <circle cx="668" cy="132.96991052941513" r="4" fill="#3b82f6" stroke="#0d1117" stroke-width="2" class="data-point"/>
  
    <circle cx="672" cy="130.05546796345195" r="4" fill="#3b82f6" stroke="#0d1117" stroke-width="2" class="data-point"/>
  
    <circle cx="676" cy="127.38645213988562" r="4" fill="#3b82f6" stroke="#0d1117" stroke-width="2" class="data-point"/>
  
    <circle cx="680" cy="122.55010162794673" r="4" fill="#3b82f6" stroke="#0d1117" stroke-width="2" class="data-point"/>
  
    <circle cx="684" cy="118.50236498679786" r="4" fill="#3b82f6" stroke="#0d1117" stroke-width="2" class="data-point"/>
  
    <circle cx="688" cy="114.61523849324695" r="4" fill="#3b82f6" stroke="#0d1117" stroke-width="2" class="data-point"/>
  
    <circle cx="692" cy="110.88150371369412" r="4" fill="#3b82f6" stroke="#0d1117" stroke-width="2" class="data-point"/>
  
    <circle cx="696" cy="104.98584807096861" r="4" fill="#3b82f6" stroke="#0d1117" stroke-width="2" class="data-point"/>
  
    <circle cx="700" cy="101.25572250821574" r="4" fill="#3b82f6" stroke="#0d1117" stroke-width="2" class="data-point"/>
  
    <circle cx="704" cy="98.02727808065649" r="4" fill="#3b82f6" stroke="#0d1117" stroke-width="2" class="data-point"/>
  
    <circle cx="708" cy="94.21414053150465" r="4" fill="#3b82f6" stroke="#0d1117" stroke-width="2" class="data-point"/>
  
    <circle cx="712" cy="88.59278536557568" r="4" fill="#3b82f6" stroke="#0d1117" stroke-width="2" class="data-point"/>
  
    <circle cx="716" cy="84.54865794122676" r="4" fill="#3b82f6" stroke="#0d1117" stroke-width="2" class="data-point"/>
  
    <circle cx="720" cy="81.1343388484699" r="4" fill="#3b82f6" stroke="#0d1117" stroke-width="2" class="data-point"/>
  
    <circle cx="724" cy="78.24516080010636" r="4" fill="#3b82f6" stroke="#0d1117" stroke-width="2" class="data-point"/>
  
    <circle cx="728" cy="75.50396064054098" r="4" fill="#3b82f6" stroke="#0d1117" stroke-width="2" class="data-point"/>
  
    <circle cx="732" cy="73.27526926656918" r="4" fill="#3b82f6" stroke="#0d1117" stroke-width="2" class="data-point"/>
  
    <circle cx="736" cy="70.76505898220086" r="4" fill="#3b82f6" stroke="#0d1117" stroke-width="2" class="data-point"/>
  
    <circle cx="740" cy="68.71863305662669" r="4" fill="#3b82f6" stroke="#0d1117" stroke-width="2" class="data-point"/>
  
    <circle cx="744" cy="66.30406701745721" r="4" fill="#3b82f6" stroke="#0d1117" stroke-width="2" class="data-point"/>
  
    <circle cx="748" cy="62.82839123910111" r="4" fill="#3b82f6" stroke="#0d1117" stroke-width="2" class="data-point"/>
  
    <circle cx="752" cy="59.84176433713884" r="4" fill="#3b82f6" stroke="#0d1117" stroke-width="2" class="data-point"/>
  
    <circle cx="756" cy="57.244932849571626" r="4" fill="#3b82f6" stroke="#0d1117" stroke-width="2" class="data-point"/>
  
    <circle cx="760" cy="55" r="4" fill="#3b82f6" stroke="#0d1117" stroke-width="2" class="data-point"/>
  

  <!-- Axis lines -->
  <line x1="60" y1="55" x2="60" y2="340"
        stroke="#30363d" stroke-width="2"/>
  <line x1="60" y1="340" x2="760" y2="340"
        stroke="#30363d" stroke-width="2"/>
</svg>