<?xml version="1.0" encoding="UTF-8"?>
<svg width="800" height="400" xmlns="http://www.w3.org/2000/svg">
  <defs>
    <!-- Gradient for area fill -->
    <linearGradient id="areaGradient" x1="0%" y1="0%" x2="0%" y2="100%">
      <stop offset="0%" style="stop-color:#3b82f6;stop-opacity:0.3" />
      <stop offset="100%" style="stop-color:#3b82f6;stop-opacity:0.05" />
    </linearGradient>

    <!-- Glow filter for line -->
    <filter id="glow">
      <feGaussianBlur stdDeviation="2" result="coloredBlur"/>
      <feMerge>
        <feMergeNode in="coloredBlur"/>
        <feMergeNode in="SourceGraphic"/>
      </feMerge>
    </filter>

    <!-- Animation -->
    <style>
      @keyframes draw {
        from { stroke-dashoffset: 2000; }
        to { stroke-dashoffset: 0; }
      }
      @keyframes fadeIn {
        from { opacity: 0; }
        to { opacity: 1; }
      }
      .line-path {
        stroke-dasharray: 2000;
        stroke-dashoffset: 2000;
        animation: draw 1.5s ease-out forwards;
      }
      .area-path {
        opacity: 0;
        animation: fadeIn 1s ease-out 0.5s forwards;
      }
      .data-point {
        opacity: 0;
        animation: fadeIn 0.5s ease-out 1s forwards;
      }
    </style>
  </defs>

  <!-- Background -->
  <rect width="800" height="400" fill="#0d1117" rx="8"/>

  <!-- Title -->
  <text x="400" y="25" text-anchor="middle" fill="#c9d1d9" font-family="system-ui, -apple-system, sans-serif" font-size="16" font-weight="600">
    zxcloli666/SoundCloud-Desktop Downloads
  </text>

  <!-- Stats -->
  <text x="780" y="25" text-anchor="end" fill="#58a6ff" font-family="system-ui, -apple-system, sans-serif" font-size="14" font-weight="600">
    265.7K total
  </text>
  <text x="780" y="42" text-anchor="end" fill="#3fb950" font-family="system-ui, -apple-system, sans-serif" font-size="12">
    +1.3K (+0.5%)
  </text>

  <!-- Grid lines -->
  <g opacity="0.1">
    
      <line x1="60" y1="340" x2="760" y2="340"
            stroke="#c9d1d9" stroke-width="1"/>
    
      <line x1="60" y1="268.75" x2="760" y2="268.75"
            stroke="#c9d1d9" stroke-width="1"/>
    
      <line x1="60" y1="197.5" x2="760" y2="197.5"
            stroke="#c9d1d9" stroke-width="1"/>
    
      <line x1="60" y1="126.25" x2="760" y2="126.25"
            stroke="#c9d1d9" stroke-width="1"/>
    
      <line x1="60" y1="55" x2="760" y2="55"
            stroke="#c9d1d9" stroke-width="1"/>
    
  </g>

  <!-- Y-axis labels -->
  
    <text x="50" y="344" text-anchor="end"
          fill="#8b949e" font-family="system-ui, -apple-system, sans-serif" font-size="11">
      60.2K
    </text>
  
    <text x="50" y="272.75" text-anchor="end"
          fill="#8b949e" font-family="system-ui, -apple-system, sans-serif" font-size="11">
      111.5K
    </text>
  
    <text x="50" y="201.5" text-anchor="end"
          fill="#8b949e" font-family="system-ui, -apple-system, sans-serif" font-size="11">
      162.9K
    </text>
  
    <text x="50" y="130.25" text-anchor="end"
          fill="#8b949e" font-family="system-ui, -apple-system, sans-serif" font-size="11">
      214.3K
    </text>
  
    <text x="50" y="59" text-anchor="end"
          fill="#8b949e" font-family="system-ui, -apple-system, sans-serif" font-size="11">
      265.7K
    </text>
  

  <!-- X-axis labels -->
  
    <text x="60" y="360" text-anchor="middle"
          fill="#8b949e" font-family="system-ui, -apple-system, sans-serif" font-size="11">
      Nov 25
    </text>
  
    <text x="145.8490566037736" y="360" text-anchor="middle"
          fill="#8b949e" font-family="system-ui, -apple-system, sans-serif" font-size="11">
      Dec 21
    </text>
  
    <text x="231.69811320754718" y="360" text-anchor="middle"
          fill="#8b949e" font-family="system-ui, -apple-system, sans-serif" font-size="11">
      Jan 16
    </text>
  
    <text x="317.5471698113207" y="360" text-anchor="middle"
          fill="#8b949e" font-family="system-ui, -apple-system, sans-serif" font-size="11">
      Feb 11
    </text>
  
    <text x="403.39622641509436" y="360" text-anchor="middle"
          fill="#8b949e" font-family="system-ui, -apple-system, sans-serif" font-size="11">
      Mar 9
    </text>
  
    <text x="489.2452830188679" y="360" text-anchor="middle"
          fill="#8b949e" font-family="system-ui, -apple-system, sans-serif" font-size="11">
      Apr 4
    </text>
  
    <text x="575.0943396226414" y="360" text-anchor="middle"
          fill="#8b949e" font-family="system-ui, -apple-system, sans-serif" font-size="11">
      Apr 30
    </text>
  
    <text x="660.9433962264151" y="360" text-anchor="middle"
          fill="#8b949e" font-family="system-ui, -apple-system, sans-serif" font-size="11">
      May 26
    </text>
  
    <text x="746.7924528301887" y="360" text-anchor="middle"
          fill="#8b949e" font-family="system-ui, -apple-system, sans-serif" font-size="11">
      Jun 21
    </text>
  
    <text x="760" y="360" text-anchor="middle"
          fill="#8b949e" font-family="system-ui, -apple-system, sans-serif" font-size="11">
      Jun 25
    </text>
  

  <!-- Area under line -->
  <path d="M 60 340
    L 60.00 340.00 L 63.30 339.80 L 66.60 339.45 L 69.91 339.13 L 73.21 338.49 L 76.51 337.83 L 79.81 337.31 L 83.11 336.82 L 86.42 336.39 L 89.72 335.89 L 93.02 335.32 L 96.32 334.72 L 99.62 334.17 L 102.92 333.59 L 106.23 333.16 L 109.53 332.72 L 112.83 332.12 L 116.13 331.72 L 119.43 331.17 L 122.74 330.52 L 126.04 330.04 L 129.34 329.65 L 132.64 329.39 L 135.94 329.18 L 139.25 328.78 L 142.55 328.50 L 145.85 327.88 L 149.15 327.64 L 152.45 327.33 L 155.75 326.92 L 159.06 326.64 L 162.36 326.36 L 165.66 326.07 L 168.96 325.86 L 172.26 325.69 L 175.57 325.41 L 178.87 325.09 L 182.17 324.78 L 185.47 324.40 L 188.77 323.98 L 192.08 323.60 L 195.38 323.14 L 198.68 322.69 L 201.98 322.23 L 205.28 321.74 L 208.58 321.26 L 211.89 320.72 L 215.19 320.24 L 218.49 319.83 L 221.79 319.50 L 225.09 319.04 L 228.40 318.52 L 231.70 318.04 L 235.00 317.48 L 238.30 316.79 L 241.60 316.28 L 244.91 315.86 L 248.21 315.45 L 251.51 314.96 L 254.81 314.40 L 258.11 313.77 L 261.42 313.11 L 264.72 312.48 L 268.02 311.93 L 271.32 311.37 L 274.62 310.89 L 277.92 310.39 L 281.23 309.84 L 284.53 309.15 L 287.83 308.63 L 291.13 308.17 L 294.43 307.66 L 297.74 307.18 L 301.04 306.66 L 304.34 306.11 L 307.64 305.54 L 310.94 305.04 L 314.25 304.61 L 317.55 304.14 L 320.85 303.63 L 324.15 303.16 L 327.45 302.55 L 330.75 302.02 L 334.06 301.51 L 337.36 301.09 L 340.66 300.68 L 343.96 300.27 L 347.26 299.78 L 350.57 299.27 L 353.87 298.66 L 357.17 298.16 L 360.47 297.75 L 363.77 297.33 L 367.08 296.93 L 370.38 296.44 L 373.68 295.94 L 376.98 294.82 L 380.28 292.59 L 383.58 289.94 L 386.89 287.52 L 390.19 286.30 L 393.49 284.45 L 396.79 283.22 L 400.09 282.15 L 403.40 281.09 L 406.70 280.10 L 410.00 278.56 L 413.30 277.34 L 416.60 275.77 L 419.91 275.45 L 423.21 275.41 L 426.51 275.35 L 429.81 275.31 L 433.11 275.25 L 436.42 275.20 L 439.72 275.18 L 443.02 275.10 L 446.32 275.03 L 449.62 274.98 L 452.92 274.96 L 456.23 274.88 L 459.53 272.87 L 462.83 269.72 L 466.13 267.61 L 469.43 265.16 L 472.74 262.64 L 476.04 260.66 L 479.34 258.45 L 482.64 255.07 L 485.94 250.53 L 489.25 247.56 L 492.55 244.03 L 495.85 240.10 L 499.15 236.94 L 502.45 233.52 L 505.75 230.48 L 509.06 227.47 L 512.36 224.47 L 515.66 220.38 L 518.96 216.28 L 522.26 212.86 L 525.57 210.00 L 528.87 207.22 L 532.17 203.53 L 535.47 200.67 L 538.77 197.85 L 542.08 195.20 L 545.38 192.71 L 548.68 190.15 L 551.98 187.97 L 555.28 185.71 L 558.58 183.40 L 561.89 180.96 L 565.19 178.72 L 568.49 176.67 L 571.79 172.96 L 575.09 169.85 L 578.40 166.86 L 581.70 163.99 L 585.00 159.46 L 588.30 156.60 L 591.60 154.12 L 594.91 151.19 L 598.21 146.87 L 601.51 143.76 L 604.81 141.14 L 608.11 138.92 L 611.42 136.81 L 614.72 135.10 L 618.02 133.17 L 621.32 131.60 L 624.62 129.75 L 627.92 127.08 L 631.23 124.78 L 634.53 122.79 L 637.83 121.06 L 641.13 119.29 L 644.43 117.79 L 647.74 115.26 L 651.04 113.11 L 654.34 110.97 L 657.64 109.21 L 660.94 107.59 L 664.25 106.15 L 667.55 103.68 L 670.85 101.68 L 674.15 99.86 L 677.45 98.12 L 680.75 96.59 L 684.06 95.12 L 687.36 93.76 L 690.66 92.47 L 693.96 91.28 L 697.26 89.79 L 700.57 88.20 L 703.87 86.73 L 707.17 84.45 L 710.47 82.80 L 713.77 81.22 L 717.08 79.83 L 720.38 78.20 L 723.68 76.20 L 726.98 74.43 L 730.28 72.85 L 733.58 71.13 L 736.89 68.76 L 740.19 66.82 L 743.49 64.73 L 746.79 62.65 L 750.09 60.72 L 753.40 58.82 L 756.70 56.80 L 760.00 55.00
    L 760 340
    Z" fill="url(#areaGradient)" class="area-path"/>

  <!-- Main line with glow -->
  <path d="M 60.00 340.00 L 63.30 339.80 L 66.60 339.45 L 69.91 339.13 L 73.21 338.49 L 76.51 337.83 L 79.81 337.31 L 83.11 336.82 L 86.42 336.39 L 89.72 335.89 L 93.02 335.32 L 96.32 334.72 L 99.62 334.17 L 102.92 333.59 L 106.23 333.16 L 109.53 332.72 L 112.83 332.12 L 116.13 331.72 L 119.43 331.17 L 122.74 330.52 L 126.04 330.04 L 129.34 329.65 L 132.64 329.39 L 135.94 329.18 L 139.25 328.78 L 142.55 328.50 L 145.85 327.88 L 149.15 327.64 L 152.45 327.33 L 155.75 326.92 L 159.06 326.64 L 162.36 326.36 L 165.66 326.07 L 168.96 325.86 L 172.26 325.69 L 175.57 325.41 L 178.87 325.09 L 182.17 324.78 L 185.47 324.40 L 188.77 323.98 L 192.08 323.60 L 195.38 323.14 L 198.68 322.69 L 201.98 322.23 L 205.28 321.74 L 208.58 321.26 L 211.89 320.72 L 215.19 320.24 L 218.49 319.83 L 221.79 319.50 L 225.09 319.04 L 228.40 318.52 L 231.70 318.04 L 235.00 317.48 L 238.30 316.79 L 241.60 316.28 L 244.91 315.86 L 248.21 315.45 L 251.51 314.96 L 254.81 314.40 L 258.11 313.77 L 261.42 313.11 L 264.72 312.48 L 268.02 311.93 L 271.32 311.37 L 274.62 310.89 L 277.92 310.39 L 281.23 309.84 L 284.53 309.15 L 287.83 308.63 L 291.13 308.17 L 294.43 307.66 L 297.74 307.18 L 301.04 306.66 L 304.34 306.11 L 307.64 305.54 L 310.94 305.04 L 314.25 304.61 L 317.55 304.14 L 320.85 303.63 L 324.15 303.16 L 327.45 302.55 L 330.75 302.02 L 334.06 301.51 L 337.36 301.09 L 340.66 300.68 L 343.96 300.27 L 347.26 299.78 L 350.57 299.27 L 353.87 298.66 L 357.17 298.16 L 360.47 297.75 L 363.77 297.33 L 367.08 296.93 L 370.38 296.44 L 373.68 295.94 L 376.98 294.82 L 380.28 292.59 L 383.58 289.94 L 386.89 287.52 L 390.19 286.30 L 393.49 284.45 L 396.79 283.22 L 400.09 282.15 L 403.40 281.09 L 406.70 280.10 L 410.00 278.56 L 413.30 277.34 L 416.60 275.77 L 419.91 275.45 L 423.21 275.41 L 426.51 275.35 L 429.81 275.31 L 433.11 275.25 L 436.42 275.20 L 439.72 275.18 L 443.02 275.10 L 446.32 275.03 L 449.62 274.98 L 452.92 274.96 L 456.23 274.88 L 459.53 272.87 L 462.83 269.72 L 466.13 267.61 L 469.43 265.16 L 472.74 262.64 L 476.04 260.66 L 479.34 258.45 L 482.64 255.07 L 485.94 250.53 L 489.25 247.56 L 492.55 244.03 L 495.85 240.10 L 499.15 236.94 L 502.45 233.52 L 505.75 230.48 L 509.06 227.47 L 512.36 224.47 L 515.66 220.38 L 518.96 216.28 L 522.26 212.86 L 525.57 210.00 L 528.87 207.22 L 532.17 203.53 L 535.47 200.67 L 538.77 197.85 L 542.08 195.20 L 545.38 192.71 L 548.68 190.15 L 551.98 187.97 L 555.28 185.71 L 558.58 183.40 L 561.89 180.96 L 565.19 178.72 L 568.49 176.67 L 571.79 172.96 L 575.09 169.85 L 578.40 166.86 L 581.70 163.99 L 585.00 159.46 L 588.30 156.60 L 591.60 154.12 L 594.91 151.19 L 598.21 146.87 L 601.51 143.76 L 604.81 141.14 L 608.11 138.92 L 611.42 136.81 L 614.72 135.10 L 618.02 133.17 L 621.32 131.60 L 624.62 129.75 L 627.92 127.08 L 631.23 124.78 L 634.53 122.79 L 637.83 121.06 L 641.13 119.29 L 644.43 117.79 L 647.74 115.26 L 651.04 113.11 L 654.34 110.97 L 657.64 109.21 L 660.94 107.59 L 664.25 106.15 L 667.55 103.68 L 670.85 101.68 L 674.15 99.86 L 677.45 98.12 L 680.75 96.59 L 684.06 95.12 L 687.36 93.76 L 690.66 92.47 L 693.96 91.28 L 697.26 89.79 L 700.57 88.20 L 703.87 86.73 L 707.17 84.45 L 710.47 82.80 L 713.77 81.22 L 717.08 79.83 L 720.38 78.20 L 723.68 76.20 L 726.98 74.43 L 730.28 72.85 L 733.58 71.13 L 736.89 68.76 L 740.19 66.82 L 743.49 64.73 L 746.79 62.65 L 750.09 60.72 L 753.40 58.82 L 756.70 56.80 L 760.00 55.00" fill="none" stroke="#3b82f6" stroke-width="3"
        stroke-linecap="round" stroke-linejoin="round" filter="url(#glow)" class="line-path"/>

  <!-- Data points -->
  
    <circle cx="60" cy="340" r="4" fill="#3b82f6" stroke="#0d1117" stroke-width="2" class="data-point"/>
  
    <circle cx="63.301886792452834" cy="339.79621468596775" r="4" fill="#3b82f6" stroke="#0d1117" stroke-width="2" class="data-point"/>
  
    <circle cx="66.60377358490567" cy="339.44964102264765" r="4" fill="#3b82f6" stroke="#0d1117" stroke-width="2" class="data-point"/>
  
    <circle cx="69.90566037735849" cy="339.1280206630866" r="4" fill="#3b82f6" stroke="#0d1117" stroke-width="2" class="data-point"/>
  
    <circle cx="73.20754716981132" cy="338.48893882792436" r="4" fill="#3b82f6" stroke="#0d1117" stroke-width="2" class="data-point"/>
  
    <circle cx="76.50943396226415" cy="337.82906257296287" r="4" fill="#3b82f6" stroke="#0d1117" stroke-width="2" class="data-point"/>
  
    <circle cx="79.81132075471697" cy="337.3092020779827" r="4" fill="#3b82f6" stroke="#0d1117" stroke-width="2" class="data-point"/>
  
    <circle cx="83.11320754716981" cy="336.82399894933457" r="4" fill="#3b82f6" stroke="#0d1117" stroke-width="2" class="data-point"/>
  
    <circle cx="86.41509433962264" cy="336.39286131216437" r="4" fill="#3b82f6" stroke="#0d1117" stroke-width="2" class="data-point"/>
  
    <circle cx="89.71698113207547" cy="335.88686376371703" r="4" fill="#3b82f6" stroke="#0d1117" stroke-width="2" class="data-point"/>
  
    <circle cx="93.01886792452831" cy="335.3226418398319" r="4" fill="#3b82f6" stroke="#0d1117" stroke-width="2" class="data-point"/>
  
    <circle cx="96.32075471698113" cy="334.71821737100163" r="4" fill="#3b82f6" stroke="#0d1117" stroke-width="2" class="data-point"/>
  
    <circle cx="99.62264150943396" cy="334.16924468830257" r="4" fill="#3b82f6" stroke="#0d1117" stroke-width="2" class="data-point"/>
  
    <circle cx="102.9245283018868" cy="333.5856146392715" r="4" fill="#3b82f6" stroke="#0d1117" stroke-width="2" class="data-point"/>
  
    <circle cx="106.22641509433961" cy="333.16002218071446" r="4" fill="#3b82f6" stroke="#0d1117" stroke-width="2" class="data-point"/>
  
    <circle cx="109.52830188679245" cy="332.71918048097126" r="4" fill="#3b82f6" stroke="#0d1117" stroke-width="2" class="data-point"/>
  
    <circle cx="112.83018867924528" cy="332.12030119075416" r="4" fill="#3b82f6" stroke="#0d1117" stroke-width="2" class="data-point"/>
  
    <circle cx="116.1320754716981" cy="331.7196620359561" r="4" fill="#3b82f6" stroke="#0d1117" stroke-width="2" class="data-point"/>
  
    <circle cx="119.43396226415095" cy="331.16514417464396" r="4" fill="#3b82f6" stroke="#0d1117" stroke-width="2" class="data-point"/>
  
    <circle cx="122.73584905660377" cy="330.52467604482837" r="4" fill="#3b82f6" stroke="#0d1117" stroke-width="2" class="data-point"/>
  
    <circle cx="126.0377358490566" cy="330.0422455054868" r="4" fill="#3b82f6" stroke="#0d1117" stroke-width="2" class="data-point"/>
  
    <circle cx="129.33962264150944" cy="329.6457652346486" r="4" fill="#3b82f6" stroke="#0d1117" stroke-width="2" class="data-point"/>
  
    <circle cx="132.64150943396226" cy="329.38930072379173" r="4" fill="#3b82f6" stroke="#0d1117" stroke-width="2" class="data-point"/>
  
    <circle cx="135.9433962264151" cy="329.17581134718654" r="4" fill="#3b82f6" stroke="#0d1117" stroke-width="2" class="data-point"/>
  
    <circle cx="139.24528301886792" cy="328.78071737100163" r="4" fill="#3b82f6" stroke="#0d1117" stroke-width="2" class="data-point"/>
  
    <circle cx="142.54716981132077" cy="328.4992995563857" r="4" fill="#3b82f6" stroke="#0d1117" stroke-width="2" class="data-point"/>
  
    <circle cx="145.8490566037736" cy="327.88239843567595" r="4" fill="#3b82f6" stroke="#0d1117" stroke-width="2" class="data-point"/>
  
    <circle cx="149.1509433962264" cy="327.63979687135185" r="4" fill="#3b82f6" stroke="#0d1117" stroke-width="2" class="data-point"/>
  
    <circle cx="152.45283018867923" cy="327.32649427971046" r="4" fill="#3b82f6" stroke="#0d1117" stroke-width="2" class="data-point"/>
  
    <circle cx="155.75471698113208" cy="326.9216962409526" r="4" fill="#3b82f6" stroke="#0d1117" stroke-width="2" class="data-point"/>
  
    <circle cx="159.0566037735849" cy="326.6444373102965" r="4" fill="#3b82f6" stroke="#0d1117" stroke-width="2" class="data-point"/>
  
    <circle cx="162.35849056603774" cy="326.3630194956806" r="4" fill="#3b82f6" stroke="#0d1117" stroke-width="2" class="data-point"/>
  
    <circle cx="165.66037735849056" cy="326.0677387345319" r="4" fill="#3b82f6" stroke="#0d1117" stroke-width="2" class="data-point"/>
  
    <circle cx="168.96226415094338" cy="325.8625671258464" r="4" fill="#3b82f6" stroke="#0d1117" stroke-width="2" class="data-point"/>
  
    <circle cx="172.2641509433962" cy="325.6851214102265" r="4" fill="#3b82f6" stroke="#0d1117" stroke-width="2" class="data-point"/>
  
    <circle cx="175.56603773584905" cy="325.4147939528368" r="4" fill="#3b82f6" stroke="#0d1117" stroke-width="2" class="data-point"/>
  
    <circle cx="178.8679245283019" cy="325.08624212000933" r="4" fill="#3b82f6" stroke="#0d1117" stroke-width="2" class="data-point"/>
  
    <circle cx="182.16981132075472" cy="324.78402988559424" r="4" fill="#3b82f6" stroke="#0d1117" stroke-width="2" class="data-point"/>
  
    <circle cx="185.47169811320754" cy="324.4014125612888" r="4" fill="#3b82f6" stroke="#0d1117" stroke-width="2" class="data-point"/>
  
    <circle cx="188.77358490566036" cy="323.9841378706514" r="4" fill="#3b82f6" stroke="#0d1117" stroke-width="2" class="data-point"/>
  
    <circle cx="192.0754716981132" cy="323.601520546346" r="4" fill="#3b82f6" stroke="#0d1117" stroke-width="2" class="data-point"/>
  
    <circle cx="195.37735849056605" cy="323.13988442680363" r="4" fill="#3b82f6" stroke="#0d1117" stroke-width="2" class="data-point"/>
  
    <circle cx="198.67924528301887" cy="322.68656607518096" r="4" fill="#3b82f6" stroke="#0d1117" stroke-width="2" class="data-point"/>
  
    <circle cx="201.9811320754717" cy="322.23324772355824" r="4" fill="#3b82f6" stroke="#0d1117" stroke-width="2" class="data-point"/>
  
    <circle cx="205.28301886792454" cy="321.73695423768385" r="4" fill="#3b82f6" stroke="#0d1117" stroke-width="2" class="data-point"/>
  
    <circle cx="208.58490566037736" cy="321.262841466262" r="4" fill="#3b82f6" stroke="#0d1117" stroke-width="2" class="data-point"/>
  
    <circle cx="211.8867924528302" cy="320.7208002568293" r="4" fill="#3b82f6" stroke="#0d1117" stroke-width="2" class="data-point"/>
  
    <circle cx="215.18867924528303" cy="320.23698342283444" r="4" fill="#3b82f6" stroke="#0d1117" stroke-width="2" class="data-point"/>
  
    <circle cx="218.49056603773585" cy="319.8280265001167" r="4" fill="#3b82f6" stroke="#0d1117" stroke-width="2" class="data-point"/>
  
    <circle cx="221.7924528301887" cy="319.5008609619426" r="4" fill="#3b82f6" stroke="#0d1117" stroke-width="2" class="data-point"/>
  
    <circle cx="225.0943396226415" cy="319.04338372636005" r="4" fill="#3b82f6" stroke="#0d1117" stroke-width="2" class="data-point"/>
  
    <circle cx="228.39622641509433" cy="318.5207506420733" r="4" fill="#3b82f6" stroke="#0d1117" stroke-width="2" class="data-point"/>
  
    <circle cx="231.69811320754718" cy="318.04247898669155" r="4" fill="#3b82f6" stroke="#0d1117" stroke-width="2" class="data-point"/>
  
    <circle cx="235" cy="317.48380224141954" r="4" fill="#3b82f6" stroke="#0d1117" stroke-width="2" class="data-point"/>
  
    <circle cx="238.30188679245282" cy="316.7948137987392" r="4" fill="#3b82f6" stroke="#0d1117" stroke-width="2" class="data-point"/>
  
    <circle cx="241.60377358490567" cy="316.2818847770254" r="4" fill="#3b82f6" stroke="#0d1117" stroke-width="2" class="data-point"/>
  
    <circle cx="244.9056603773585" cy="315.8562923184684" r="4" fill="#3b82f6" stroke="#0d1117" stroke-width="2" class="data-point"/>
  
    <circle cx="248.2075471698113" cy="315.45149427971046" r="4" fill="#3b82f6" stroke="#0d1117" stroke-width="2" class="data-point"/>
  
    <circle cx="251.50943396226415" cy="314.9649048564091" r="4" fill="#3b82f6" stroke="#0d1117" stroke-width="2" class="data-point"/>
  
    <circle cx="254.81132075471697" cy="314.39929663787063" r="4" fill="#3b82f6" stroke="#0d1117" stroke-width="2" class="data-point"/>
  
    <circle cx="258.1132075471698" cy="313.7726914545879" r="4" fill="#3b82f6" stroke="#0d1117" stroke-width="2" class="data-point"/>
  
    <circle cx="261.41509433962267" cy="313.1142014942797" r="4" fill="#3b82f6" stroke="#0d1117" stroke-width="2" class="data-point"/>
  
    <circle cx="264.7169811320755" cy="312.48205113238384" r="4" fill="#3b82f6" stroke="#0d1117" stroke-width="2" class="data-point"/>
  
    <circle cx="268.0188679245283" cy="311.9261469764184" r="4" fill="#3b82f6" stroke="#0d1117" stroke-width="2" class="data-point"/>
  
    <circle cx="271.3207547169811" cy="311.3744017044128" r="4" fill="#3b82f6" stroke="#0d1117" stroke-width="2" class="data-point"/>
  
    <circle cx="274.62264150943395" cy="310.8878122811114" r="4" fill="#3b82f6" stroke="#0d1117" stroke-width="2" class="data-point"/>
  
    <circle cx="277.92452830188677" cy="310.391518795237" r="4" fill="#3b82f6" stroke="#0d1117" stroke-width="2" class="data-point"/>
  
    <circle cx="281.2264150943396" cy="309.8370009339248" r="4" fill="#3b82f6" stroke="#0d1117" stroke-width="2" class="data-point"/>
  
    <circle cx="284.5283018867924" cy="309.14662619659117" r="4" fill="#3b82f6" stroke="#0d1117" stroke-width="2" class="data-point"/>
  
    <circle cx="287.8301886792453" cy="308.63231088022417" r="4" fill="#3b82f6" stroke="#0d1117" stroke-width="2" class="data-point"/>
  
    <circle cx="291.1320754716981" cy="308.17206105533506" r="4" fill="#3b82f6" stroke="#0d1117" stroke-width="2" class="data-point"/>
  
    <circle cx="294.4339622641509" cy="307.6605183282746" r="4" fill="#3b82f6" stroke="#0d1117" stroke-width="2" class="data-point"/>
  
    <circle cx="297.7358490566038" cy="307.1836329675461" r="4" fill="#3b82f6" stroke="#0d1117" stroke-width="2" class="data-point"/>
  
    <circle cx="301.0377358490566" cy="306.65961358860613" r="4" fill="#3b82f6" stroke="#0d1117" stroke-width="2" class="data-point"/>
  
    <circle cx="304.33962264150944" cy="306.11341349521365" r="4" fill="#3b82f6" stroke="#0d1117" stroke-width="2" class="data-point"/>
  
    <circle cx="307.64150943396226" cy="305.5422600980621" r="4" fill="#3b82f6" stroke="#0d1117" stroke-width="2" class="data-point"/>
  
    <circle cx="310.9433962264151" cy="305.04180772822787" r="4" fill="#3b82f6" stroke="#0d1117" stroke-width="2" class="data-point"/>
  
    <circle cx="314.2452830188679" cy="304.61344268036424" r="4" fill="#3b82f6" stroke="#0d1117" stroke-width="2" class="data-point"/>
  
    <circle cx="317.5471698113207" cy="304.1434887929022" r="4" fill="#3b82f6" stroke="#0d1117" stroke-width="2" class="data-point"/>
  
    <circle cx="320.8490566037736" cy="303.6347186551483" r="4" fill="#3b82f6" stroke="#0d1117" stroke-width="2" class="data-point"/>
  
    <circle cx="324.1509433962264" cy="303.16337847303294" r="4" fill="#3b82f6" stroke="#0d1117" stroke-width="2" class="data-point"/>
  
    <circle cx="327.4528301886793" cy="302.5492499416297" r="4" fill="#3b82f6" stroke="#0d1117" stroke-width="2" class="data-point"/>
  
    <circle cx="330.7547169811321" cy="302.02107167872987" r="4" fill="#3b82f6" stroke="#0d1117" stroke-width="2" class="data-point"/>
  
    <circle cx="334.0566037735849" cy="301.51230154097595" r="4" fill="#3b82f6" stroke="#0d1117" stroke-width="2" class="data-point"/>
  
    <circle cx="337.35849056603774" cy="301.0894816717254" r="4" fill="#3b82f6" stroke="#0d1117" stroke-width="2" class="data-point"/>
  
    <circle cx="340.66037735849056" cy="300.6791384543544" r="4" fill="#3b82f6" stroke="#0d1117" stroke-width="2" class="data-point"/>
  
    <circle cx="343.9622641509434" cy="300.2674089423301" r="4" fill="#3b82f6" stroke="#0d1117" stroke-width="2" class="data-point"/>
  
    <circle cx="347.26415094339626" cy="299.7752743404156" r="4" fill="#3b82f6" stroke="#0d1117" stroke-width="2" class="data-point"/>
  
    <circle cx="350.5660377358491" cy="299.26927679196825" r="4" fill="#3b82f6" stroke="#0d1117" stroke-width="2" class="data-point"/>
  
    <circle cx="353.8679245283019" cy="298.655148260565" r="4" fill="#3b82f6" stroke="#0d1117" stroke-width="2" class="data-point"/>
  
    <circle cx="357.1698113207547" cy="298.1574684800374" r="4" fill="#3b82f6" stroke="#0d1117" stroke-width="2" class="data-point"/>
  
    <circle cx="360.47169811320754" cy="297.7512841466262" r="4" fill="#3b82f6" stroke="#0d1117" stroke-width="2" class="data-point"/>
  
    <circle cx="363.7735849056604" cy="297.3340094559888" r="4" fill="#3b82f6" stroke="#0d1117" stroke-width="2" class="data-point"/>
  
    <circle cx="367.07547169811323" cy="296.934756595844" r="4" fill="#3b82f6" stroke="#0d1117" stroke-width="2" class="data-point"/>
  
    <circle cx="370.37735849056605" cy="296.4412356992762" r="4" fill="#3b82f6" stroke="#0d1117" stroke-width="2" class="data-point"/>
  
    <circle cx="373.6792452830189" cy="295.93523815082887" r="4" fill="#3b82f6" stroke="#0d1117" stroke-width="2" class="data-point"/>
  
    <circle cx="376.9811320754717" cy="294.81649836563156" r="4" fill="#3b82f6" stroke="#0d1117" stroke-width="2" class="data-point"/>
  
    <circle cx="380.2830188679245" cy="292.59010915246324" r="4" fill="#3b82f6" stroke="#0d1117" stroke-width="2" class="data-point"/>
  
    <circle cx="383.5849056603774" cy="289.9381274807378" r="4" fill="#3b82f6" stroke="#0d1117" stroke-width="2" class="data-point"/>
  
    <circle cx="386.8867924528302" cy="287.52181590007007" r="4" fill="#3b82f6" stroke="#0d1117" stroke-width="2" class="data-point"/>
  
    <circle cx="390.188679245283" cy="286.29633142657013" r="4" fill="#3b82f6" stroke="#0d1117" stroke-width="2" class="data-point"/>
  
    <circle cx="393.49056603773585" cy="284.44978694840063" r="4" fill="#3b82f6" stroke="#0d1117" stroke-width="2" class="data-point"/>
  
    <circle cx="396.79245283018867" cy="283.22291618024747" r="4" fill="#3b82f6" stroke="#0d1117" stroke-width="2" class="data-point"/>
  
    <circle cx="400.0943396226415" cy="282.1471515293019" r="4" fill="#3b82f6" stroke="#0d1117" stroke-width="2" class="data-point"/>
  
    <circle cx="403.39622641509436" cy="281.09495388746205" r="4" fill="#3b82f6" stroke="#0d1117" stroke-width="2" class="data-point"/>
  
    <circle cx="406.6981132075472" cy="280.10375321036656" r="4" fill="#3b82f6" stroke="#0d1117" stroke-width="2" class="data-point"/>
  
    <circle cx="410" cy="278.5621935559187" r="4" fill="#3b82f6" stroke="#0d1117" stroke-width="2" class="data-point"/>
  
    <circle cx="413.3018867924529" cy="277.33670908241885" r="4" fill="#3b82f6" stroke="#0d1117" stroke-width="2" class="data-point"/>
  
    <circle cx="416.60377358490564" cy="275.770196124212" r="4" fill="#3b82f6" stroke="#0d1117" stroke-width="2" class="data-point"/>
  
    <circle cx="419.9056603773585" cy="275.4499620593042" r="4" fill="#3b82f6" stroke="#0d1117" stroke-width="2" class="data-point"/>
  
    <circle cx="423.20754716981133" cy="275.4083732197058" r="4" fill="#3b82f6" stroke="#0d1117" stroke-width="2" class="data-point"/>
  
    <circle cx="426.5094339622642" cy="275.35430772822787" r="4" fill="#3b82f6" stroke="#0d1117" stroke-width="2" class="data-point"/>
  
    <circle cx="429.811320754717" cy="275.30856000466963" r="4" fill="#3b82f6" stroke="#0d1117" stroke-width="2" class="data-point"/>
  
    <circle cx="433.11320754716985" cy="275.2489493345786" r="4" fill="#3b82f6" stroke="#0d1117" stroke-width="2" class="data-point"/>
  
    <circle cx="436.4150943396226" cy="275.1962701377539" r="4" fill="#3b82f6" stroke="#0d1117" stroke-width="2" class="data-point"/>
  
    <circle cx="439.7169811320755" cy="275.1754757179547" r="4" fill="#3b82f6" stroke="#0d1117" stroke-width="2" class="data-point"/>
  
    <circle cx="443.0188679245283" cy="275.0992295120243" r="4" fill="#3b82f6" stroke="#0d1117" stroke-width="2" class="data-point"/>
  
    <circle cx="446.3207547169812" cy="275.02575589540044" r="4" fill="#3b82f6" stroke="#0d1117" stroke-width="2" class="data-point"/>
  
    <circle cx="449.62264150943395" cy="274.9772355825356" r="4" fill="#3b82f6" stroke="#0d1117" stroke-width="2" class="data-point"/>
  
    <circle cx="452.9245283018868" cy="274.95921375204296" r="4" fill="#3b82f6" stroke="#0d1117" stroke-width="2" class="data-point"/>
  
    <circle cx="456.2264150943396" cy="274.87742236749943" r="4" fill="#3b82f6" stroke="#0d1117" stroke-width="2" class="data-point"/>
  
    <circle cx="459.52830188679246" cy="272.86729512024283" r="4" fill="#3b82f6" stroke="#0d1117" stroke-width="2" class="data-point"/>
  
    <circle cx="462.8301886792453" cy="269.719019962643" r="4" fill="#3b82f6" stroke="#0d1117" stroke-width="2" class="data-point"/>
  
    <circle cx="466.13207547169816" cy="267.6104657950035" r="4" fill="#3b82f6" stroke="#0d1117" stroke-width="2" class="data-point"/>
  
    <circle cx="469.4339622641509" cy="265.16226943731033" r="4" fill="#3b82f6" stroke="#0d1117" stroke-width="2" class="data-point"/>
  
    <circle cx="472.7358490566038" cy="262.63921316833995" r="4" fill="#3b82f6" stroke="#0d1117" stroke-width="2" class="data-point"/>
  
    <circle cx="476.0377358490566" cy="260.65958440345554" r="4" fill="#3b82f6" stroke="#0d1117" stroke-width="2" class="data-point"/>
  
    <circle cx="479.33962264150944" cy="258.4456718421667" r="4" fill="#3b82f6" stroke="#0d1117" stroke-width="2" class="data-point"/>
  
    <circle cx="482.64150943396226" cy="255.07281695073544" r="4" fill="#3b82f6" stroke="#0d1117" stroke-width="2" class="data-point"/>
  
    <circle cx="485.94339622641513" cy="250.527156782629" r="4" fill="#3b82f6" stroke="#0d1117" stroke-width="2" class="data-point"/>
  
    <circle cx="489.2452830188679" cy="247.56048622460892" r="4" fill="#3b82f6" stroke="#0d1117" stroke-width="2" class="data-point"/>
  
    <circle cx="492.54716981132077" cy="244.0295937427037" r="4" fill="#3b82f6" stroke="#0d1117" stroke-width="2" class="data-point"/>
  
    <circle cx="495.8490566037736" cy="240.0952895166939" r="4" fill="#3b82f6" stroke="#0d1117" stroke-width="2" class="data-point"/>
  
    <circle cx="499.1509433962264" cy="236.94008288582768" r="4" fill="#3b82f6" stroke="#0d1117" stroke-width="2" class="data-point"/>
  
    <circle cx="502.45283018867923" cy="233.51593509222508" r="4" fill="#3b82f6" stroke="#0d1117" stroke-width="2" class="data-point"/>
  
    <circle cx="505.7547169811321" cy="230.4785635068877" r="4" fill="#3b82f6" stroke="#0d1117" stroke-width="2" class="data-point"/>
  
    <circle cx="509.05660377358487" cy="227.4689178146159" r="4" fill="#3b82f6" stroke="#0d1117" stroke-width="2" class="data-point"/>
  
    <circle cx="512.3584905660377" cy="224.4675898902638" r="4" fill="#3b82f6" stroke="#0d1117" stroke-width="2" class="data-point"/>
  
    <circle cx="515.6603773584906" cy="220.38079325239318" r="4" fill="#3b82f6" stroke="#0d1117" stroke-width="2" class="data-point"/>
  
    <circle cx="518.9622641509434" cy="216.28151996264302" r="4" fill="#3b82f6" stroke="#0d1117" stroke-width="2" class="data-point"/>
  
    <circle cx="522.2641509433962" cy="212.8643036423068" r="4" fill="#3b82f6" stroke="#0d1117" stroke-width="2" class="data-point"/>
  
    <circle cx="525.566037735849" cy="210.00021888862946" r="4" fill="#3b82f6" stroke="#0d1117" stroke-width="2" class="data-point"/>
  
    <circle cx="528.8679245283018" cy="207.22208440345554" r="4" fill="#3b82f6" stroke="#0d1117" stroke-width="2" class="data-point"/>
  
    <circle cx="532.1698113207547" cy="203.53454062572962" r="4" fill="#3b82f6" stroke="#0d1117" stroke-width="2" class="data-point"/>
  
    <circle cx="535.4716981132076" cy="200.67461475601215" r="4" fill="#3b82f6" stroke="#0d1117" stroke-width="2" class="data-point"/>
  
    <circle cx="538.7735849056604" cy="197.8451873686668" r="4" fill="#3b82f6" stroke="#0d1117" stroke-width="2" class="data-point"/>
  
    <circle cx="542.0754716981132" cy="195.1987508755545" r="4" fill="#3b82f6" stroke="#0d1117" stroke-width="2" class="data-point"/>
  
    <circle cx="545.377358490566" cy="192.70619308895635" r="4" fill="#3b82f6" stroke="#0d1117" stroke-width="2" class="data-point"/>
  
    <circle cx="548.6792452830189" cy="190.1526383376138" r="4" fill="#3b82f6" stroke="#0d1117" stroke-width="2" class="data-point"/>
  
    <circle cx="551.9811320754717" cy="187.96922425869718" r="4" fill="#3b82f6" stroke="#0d1117" stroke-width="2" class="data-point"/>
  
    <circle cx="555.2830188679245" cy="185.70817767919684" r="4" fill="#3b82f6" stroke="#0d1117" stroke-width="2" class="data-point"/>
  
    <circle cx="558.5849056603774" cy="183.3999970814849" r="4" fill="#3b82f6" stroke="#0d1117" stroke-width="2" class="data-point"/>
  
    <circle cx="561.8867924528302" cy="180.9601184917114" r="4" fill="#3b82f6" stroke="#0d1117" stroke-width="2" class="data-point"/>
  
    <circle cx="565.1886792452831" cy="178.72125262666356" r="4" fill="#3b82f6" stroke="#0d1117" stroke-width="2" class="data-point"/>
  
    <circle cx="568.4905660377358" cy="176.67092283446183" r="4" fill="#3b82f6" stroke="#0d1117" stroke-width="2" class="data-point"/>
  
    <circle cx="571.7924528301887" cy="172.95565316367032" r="4" fill="#3b82f6" stroke="#0d1117" stroke-width="2" class="data-point"/>
  
    <circle cx="575.0943396226414" cy="169.84619425636237" r="4" fill="#3b82f6" stroke="#0d1117" stroke-width="2" class="data-point"/>
  
    <circle cx="578.3962264150944" cy="166.86011557319637" r="4" fill="#3b82f6" stroke="#0d1117" stroke-width="2" class="data-point"/>
  
    <circle cx="581.6981132075472" cy="163.9918719355592" r="4" fill="#3b82f6" stroke="#0d1117" stroke-width="2" class="data-point"/>
  
    <circle cx="585" cy="159.4628473032921" r="4" fill="#3b82f6" stroke="#0d1117" stroke-width="2" class="data-point"/>
  
    <circle cx="588.3018867924528" cy="156.59737625496146" r="4" fill="#3b82f6" stroke="#0d1117" stroke-width="2" class="data-point"/>
  
    <circle cx="591.6037735849056" cy="154.11729512024283" r="4" fill="#3b82f6" stroke="#0d1117" stroke-width="2" class="data-point"/>
  
    <circle cx="594.9056603773586" cy="151.1880545178613" r="4" fill="#3b82f6" stroke="#0d1117" stroke-width="2" class="data-point"/>
  
    <circle cx="598.2075471698113" cy="146.86974667289283" r="4" fill="#3b82f6" stroke="#0d1117" stroke-width="2" class="data-point"/>
  
    <circle cx="601.5094339622642" cy="143.76306035489142" r="4" fill="#3b82f6" stroke="#0d1117" stroke-width="2" class="data-point"/>
  
    <circle cx="604.811320754717" cy="141.14019087088488" r="4" fill="#3b82f6" stroke="#0d1117" stroke-width="2" class="data-point"/>
  
    <circle cx="608.1132075471698" cy="138.92073313098297" r="4" fill="#3b82f6" stroke="#0d1117" stroke-width="2" class="data-point"/>
  
    <circle cx="611.4150943396227" cy="136.81495155265" r="4" fill="#3b82f6" stroke="#0d1117" stroke-width="2" class="data-point"/>
  
    <circle cx="614.7169811320755" cy="135.1028776558487" r="4" fill="#3b82f6" stroke="#0d1117" stroke-width="2" class="data-point"/>
  
    <circle cx="618.0188679245283" cy="133.17454179313566" r="4" fill="#3b82f6" stroke="#0d1117" stroke-width="2" class="data-point"/>
  
    <circle cx="621.3207547169811" cy="131.60248365631566" r="4" fill="#3b82f6" stroke="#0d1117" stroke-width="2" class="data-point"/>
  
    <circle cx="624.622641509434" cy="129.74762141022646" r="4" fill="#3b82f6" stroke="#0d1117" stroke-width="2" class="data-point"/>
  
    <circle cx="627.9245283018868" cy="127.07761790800839" r="4" fill="#3b82f6" stroke="#0d1117" stroke-width="2" class="data-point"/>
  
    <circle cx="631.2264150943396" cy="124.7833002568293" r="4" fill="#3b82f6" stroke="#0d1117" stroke-width="2" class="data-point"/>
  
    <circle cx="634.5283018867925" cy="122.78842225075883" r="4" fill="#3b82f6" stroke="#0d1117" stroke-width="2" class="data-point"/>
  
    <circle cx="637.8301886792452" cy="121.06387170207796" r="4" fill="#3b82f6" stroke="#0d1117" stroke-width="2" class="data-point"/>
  
    <circle cx="641.1320754716982" cy="119.28525566191922" r="4" fill="#3b82f6" stroke="#0d1117" stroke-width="2" class="data-point"/>
  
    <circle cx="644.433962264151" cy="117.78528484706982" r="4" fill="#3b82f6" stroke="#0d1117" stroke-width="2" class="data-point"/>
  
    <circle cx="647.7358490566038" cy="115.26361487275275" r="4" fill="#3b82f6" stroke="#0d1117" stroke-width="2" class="data-point"/>
  
    <circle cx="651.0377358490566" cy="113.10792668690169" r="4" fill="#3b82f6" stroke="#0d1117" stroke-width="2" class="data-point"/>
  
    <circle cx="654.3396226415094" cy="110.9702603315433" r="4" fill="#3b82f6" stroke="#0d1117" stroke-width="2" class="data-point"/>
  
    <circle cx="657.6415094339623" cy="109.20550723791735" r="4" fill="#3b82f6" stroke="#0d1117" stroke-width="2" class="data-point"/>
  
    <circle cx="660.9433962264151" cy="107.58631508288585" r="4" fill="#3b82f6" stroke="#0d1117" stroke-width="2" class="data-point"/>
  
    <circle cx="664.2452830188679" cy="106.14872752743406" r="4" fill="#3b82f6" stroke="#0d1117" stroke-width="2" class="data-point"/>
  
    <circle cx="667.5471698113208" cy="103.68389563390147" r="4" fill="#3b82f6" stroke="#0d1117" stroke-width="2" class="data-point"/>
  
    <circle cx="670.8490566037735" cy="101.68208615456456" r="4" fill="#3b82f6" stroke="#0d1117" stroke-width="2" class="data-point"/>
  
    <circle cx="674.1509433962265" cy="99.85772239084753" r="4" fill="#3b82f6" stroke="#0d1117" stroke-width="2" class="data-point"/>
  
    <circle cx="677.4528301886792" cy="98.11515001167407" r="4" fill="#3b82f6" stroke="#0d1117" stroke-width="2" class="data-point"/>
  
    <circle cx="680.7547169811321" cy="96.59438477702545" r="4" fill="#3b82f6" stroke="#0d1117" stroke-width="2" class="data-point"/>
  
    <circle cx="684.0566037735849" cy="95.11798097128181" r="4" fill="#3b82f6" stroke="#0d1117" stroke-width="2" class="data-point"/>
  
    <circle cx="687.3584905660377" cy="93.76495738968012" r="4" fill="#3b82f6" stroke="#0d1117" stroke-width="2" class="data-point"/>
  
    <circle cx="690.6603773584906" cy="92.46738559420967" r="4" fill="#3b82f6" stroke="#0d1117" stroke-width="2" class="data-point"/>
  
    <circle cx="693.9622641509434" cy="91.27794478169506" r="4" fill="#3b82f6" stroke="#0d1117" stroke-width="2" class="data-point"/>
  
    <circle cx="697.2641509433962" cy="89.79322320803178" r="4" fill="#3b82f6" stroke="#0d1117" stroke-width="2" class="data-point"/>
  
    <circle cx="700.566037735849" cy="88.1989843567593" r="4" fill="#3b82f6" stroke="#0d1117" stroke-width="2" class="data-point"/>
  
    <circle cx="703.8679245283018" cy="86.7322846135886" r="4" fill="#3b82f6" stroke="#0d1117" stroke-width="2" class="data-point"/>
  
    <circle cx="707.1698113207548" cy="84.45321620359559" r="4" fill="#3b82f6" stroke="#0d1117" stroke-width="2" class="data-point"/>
  
    <circle cx="710.4716981132075" cy="82.79936668223212" r="4" fill="#3b82f6" stroke="#0d1117" stroke-width="2" class="data-point"/>
  
    <circle cx="713.7735849056604" cy="81.21760448283914" r="4" fill="#3b82f6" stroke="#0d1117" stroke-width="2" class="data-point"/>
  
    <circle cx="717.0754716981132" cy="79.82992353490545" r="4" fill="#3b82f6" stroke="#0d1117" stroke-width="2" class="data-point"/>
  
    <circle cx="720.377358490566" cy="78.20241361195423" r="4" fill="#3b82f6" stroke="#0d1117" stroke-width="2" class="data-point"/>
  
    <circle cx="723.6792452830189" cy="76.20337672192392" r="4" fill="#3b82f6" stroke="#0d1117" stroke-width="2" class="data-point"/>
  
    <circle cx="726.9811320754717" cy="74.4316921550315" r="4" fill="#3b82f6" stroke="#0d1117" stroke-width="2" class="data-point"/>
  
    <circle cx="730.2830188679245" cy="72.84992995563857" r="4" fill="#3b82f6" stroke="#0d1117" stroke-width="2" class="data-point"/>
  
    <circle cx="733.5849056603773" cy="71.13231088022417" r="4" fill="#3b82f6" stroke="#0d1117" stroke-width="2" class="data-point"/>
  
    <circle cx="736.8867924528302" cy="68.76313331776794" r="4" fill="#3b82f6" stroke="#0d1117" stroke-width="2" class="data-point"/>
  
    <circle cx="740.188679245283" cy="66.81816191921553" r="4" fill="#3b82f6" stroke="#0d1117" stroke-width="2" class="data-point"/>
  
    <circle cx="743.4905660377358" cy="64.73178846602849" r="4" fill="#3b82f6" stroke="#0d1117" stroke-width="2" class="data-point"/>
  
    <circle cx="746.7924528301887" cy="62.65234648610789" r="4" fill="#3b82f6" stroke="#0d1117" stroke-width="2" class="data-point"/>
  
    <circle cx="750.0943396226414" cy="60.71569285547514" r="4" fill="#3b82f6" stroke="#0d1117" stroke-width="2" class="data-point"/>
  
    <circle cx="753.3962264150944" cy="58.81508288582768" r="4" fill="#3b82f6" stroke="#0d1117" stroke-width="2" class="data-point"/>
  
    <circle cx="756.6981132075472" cy="56.803569343917786" r="4" fill="#3b82f6" stroke="#0d1117" stroke-width="2" class="data-point"/>
  
    <circle cx="760" cy="55" r="4" fill="#3b82f6" stroke="#0d1117" stroke-width="2" class="data-point"/>
  

  <!-- Axis lines -->
  <line x1="60" y1="55" x2="60" y2="340"
        stroke="#30363d" stroke-width="2"/>
  <line x1="60" y1="340" x2="760" y2="340"
        stroke="#30363d" stroke-width="2"/>
</svg>