<?xml version="1.0" encoding="UTF-8"?>
<svg width="800" height="400" xmlns="http://www.w3.org/2000/svg">
  <defs>
    <!-- Gradient for area fill -->
    <linearGradient id="areaGradient" x1="0%" y1="0%" x2="0%" y2="100%">
      <stop offset="0%" style="stop-color:#3b82f6;stop-opacity:0.3" />
      <stop offset="100%" style="stop-color:#3b82f6;stop-opacity:0.05" />
    </linearGradient>

    <!-- Glow filter for line -->
    <filter id="glow">
      <feGaussianBlur stdDeviation="2" result="coloredBlur"/>
      <feMerge>
        <feMergeNode in="coloredBlur"/>
        <feMergeNode in="SourceGraphic"/>
      </feMerge>
    </filter>

    <!-- Animation -->
    <style>
      @keyframes draw {
        from { stroke-dashoffset: 2000; }
        to { stroke-dashoffset: 0; }
      }
      @keyframes fadeIn {
        from { opacity: 0; }
        to { opacity: 1; }
      }
      .line-path {
        stroke-dasharray: 2000;
        stroke-dashoffset: 2000;
        animation: draw 1.5s ease-out forwards;
      }
      .area-path {
        opacity: 0;
        animation: fadeIn 1s ease-out 0.5s forwards;
      }
      .data-point {
        opacity: 0;
        animation: fadeIn 0.5s ease-out 1s forwards;
      }
    </style>
  </defs>

  <!-- Background -->
  <rect width="800" height="400" fill="#0d1117" rx="8"/>

  <!-- Title -->
  <text x="400" y="25" text-anchor="middle" fill="#c9d1d9" font-family="system-ui, -apple-system, sans-serif" font-size="16" font-weight="600">
    zxcloli666/SoundCloud-Desktop Downloads
  </text>

  <!-- Stats -->
  <text x="780" y="25" text-anchor="end" fill="#58a6ff" font-family="system-ui, -apple-system, sans-serif" font-size="14" font-weight="600">
    260.2K total
  </text>
  <text x="780" y="42" text-anchor="end" fill="#3fb950" font-family="system-ui, -apple-system, sans-serif" font-size="12">
    +1.5K (+0.6%)
  </text>

  <!-- Grid lines -->
  <g opacity="0.1">
    
      <line x1="60" y1="340" x2="760" y2="340"
            stroke="#c9d1d9" stroke-width="1"/>
    
      <line x1="60" y1="268.75" x2="760" y2="268.75"
            stroke="#c9d1d9" stroke-width="1"/>
    
      <line x1="60" y1="197.5" x2="760" y2="197.5"
            stroke="#c9d1d9" stroke-width="1"/>
    
      <line x1="60" y1="126.25" x2="760" y2="126.25"
            stroke="#c9d1d9" stroke-width="1"/>
    
      <line x1="60" y1="55" x2="760" y2="55"
            stroke="#c9d1d9" stroke-width="1"/>
    
  </g>

  <!-- Y-axis labels -->
  
    <text x="50" y="344" text-anchor="end"
          fill="#8b949e" font-family="system-ui, -apple-system, sans-serif" font-size="11">
      60.2K
    </text>
  
    <text x="50" y="272.75" text-anchor="end"
          fill="#8b949e" font-family="system-ui, -apple-system, sans-serif" font-size="11">
      110.2K
    </text>
  
    <text x="50" y="201.5" text-anchor="end"
          fill="#8b949e" font-family="system-ui, -apple-system, sans-serif" font-size="11">
      160.2K
    </text>
  
    <text x="50" y="130.25" text-anchor="end"
          fill="#8b949e" font-family="system-ui, -apple-system, sans-serif" font-size="11">
      210.2K
    </text>
  
    <text x="50" y="59" text-anchor="end"
          fill="#8b949e" font-family="system-ui, -apple-system, sans-serif" font-size="11">
      260.2K
    </text>
  

  <!-- X-axis labels -->
  
    <text x="60" y="360" text-anchor="middle"
          fill="#8b949e" font-family="system-ui, -apple-system, sans-serif" font-size="11">
      Nov 25
    </text>
  
    <text x="147.5" y="360" text-anchor="middle"
          fill="#8b949e" font-family="system-ui, -apple-system, sans-serif" font-size="11">
      Dec 21
    </text>
  
    <text x="235" y="360" text-anchor="middle"
          fill="#8b949e" font-family="system-ui, -apple-system, sans-serif" font-size="11">
      Jan 16
    </text>
  
    <text x="322.5" y="360" text-anchor="middle"
          fill="#8b949e" font-family="system-ui, -apple-system, sans-serif" font-size="11">
      Feb 11
    </text>
  
    <text x="410" y="360" text-anchor="middle"
          fill="#8b949e" font-family="system-ui, -apple-system, sans-serif" font-size="11">
      Mar 9
    </text>
  
    <text x="497.5" y="360" text-anchor="middle"
          fill="#8b949e" font-family="system-ui, -apple-system, sans-serif" font-size="11">
      Apr 4
    </text>
  
    <text x="585" y="360" text-anchor="middle"
          fill="#8b949e" font-family="system-ui, -apple-system, sans-serif" font-size="11">
      Apr 30
    </text>
  
    <text x="672.5" y="360" text-anchor="middle"
          fill="#8b949e" font-family="system-ui, -apple-system, sans-serif" font-size="11">
      May 26
    </text>
  
    <text x="760" y="360" text-anchor="middle"
          fill="#8b949e" font-family="system-ui, -apple-system, sans-serif" font-size="11">
      Jun 21
    </text>
  

  <!-- Area under line -->
  <path d="M 60 340
    L 60.00 340.00 L 63.37 339.79 L 66.73 339.43 L 70.10 339.10 L 73.46 338.45 L 76.83 337.77 L 80.19 337.23 L 83.56 336.74 L 86.92 336.29 L 90.29 335.77 L 93.65 335.19 L 97.02 334.57 L 100.38 334.01 L 103.75 333.41 L 107.12 332.97 L 110.48 332.52 L 113.85 331.90 L 117.21 331.49 L 120.58 330.92 L 123.94 330.26 L 127.31 329.77 L 130.67 329.36 L 134.04 329.10 L 137.40 328.88 L 140.77 328.47 L 144.13 328.18 L 147.50 327.55 L 150.87 327.30 L 154.23 326.98 L 157.60 326.56 L 160.96 326.28 L 164.33 325.99 L 167.69 325.68 L 171.06 325.47 L 174.42 325.29 L 177.79 325.01 L 181.15 324.67 L 184.52 324.36 L 187.88 323.97 L 191.25 323.54 L 194.62 323.15 L 197.98 322.67 L 201.35 322.21 L 204.71 321.74 L 208.08 321.23 L 211.44 320.75 L 214.81 320.19 L 218.17 319.69 L 221.54 319.27 L 224.90 318.94 L 228.27 318.47 L 231.63 317.93 L 235.00 317.44 L 238.37 316.86 L 241.73 316.15 L 245.10 315.63 L 248.46 315.19 L 251.83 314.77 L 255.19 314.27 L 258.56 313.69 L 261.92 313.05 L 265.29 312.37 L 268.65 311.72 L 272.02 311.15 L 275.38 310.58 L 278.75 310.08 L 282.12 309.57 L 285.48 309.00 L 288.85 308.30 L 292.21 307.77 L 295.58 307.29 L 298.94 306.77 L 302.31 306.28 L 305.67 305.74 L 309.04 305.18 L 312.40 304.59 L 315.77 304.08 L 319.13 303.64 L 322.50 303.15 L 325.87 302.63 L 329.23 302.15 L 332.60 301.52 L 335.96 300.97 L 339.33 300.45 L 342.69 300.02 L 346.06 299.59 L 349.42 299.17 L 352.79 298.67 L 356.15 298.15 L 359.52 297.51 L 362.88 297.00 L 366.25 296.59 L 369.62 296.16 L 372.98 295.75 L 376.35 295.24 L 379.71 294.72 L 383.08 293.57 L 386.44 291.28 L 389.81 288.56 L 393.17 286.07 L 396.54 284.81 L 399.90 282.92 L 403.27 281.66 L 406.63 280.55 L 410.00 279.47 L 413.37 278.45 L 416.73 276.87 L 420.10 275.61 L 423.46 274.00 L 426.83 273.67 L 430.19 273.63 L 433.56 273.57 L 436.92 273.52 L 440.29 273.46 L 443.65 273.41 L 447.02 273.39 L 450.38 273.31 L 453.75 273.23 L 457.12 273.18 L 460.48 273.16 L 463.85 273.08 L 467.21 271.02 L 470.58 267.78 L 473.94 265.61 L 477.31 263.10 L 480.67 260.50 L 484.04 258.47 L 487.40 256.20 L 490.77 252.73 L 494.13 248.06 L 497.50 245.01 L 500.87 241.38 L 504.23 237.34 L 507.60 234.10 L 510.96 230.58 L 514.33 227.46 L 517.69 224.36 L 521.06 221.28 L 524.42 217.08 L 527.79 212.87 L 531.15 209.36 L 534.52 206.41 L 537.88 203.56 L 541.25 199.77 L 544.62 196.83 L 547.98 193.92 L 551.35 191.20 L 554.71 188.64 L 558.08 186.02 L 561.44 183.77 L 564.81 181.45 L 568.17 179.08 L 571.54 176.57 L 574.90 174.27 L 578.27 172.16 L 581.63 168.35 L 585.00 165.15 L 588.37 162.08 L 591.73 159.14 L 595.10 154.48 L 598.46 151.54 L 601.83 148.99 L 605.19 145.98 L 608.56 141.54 L 611.92 138.35 L 615.29 135.65 L 618.65 133.37 L 622.02 131.21 L 625.38 129.45 L 628.75 127.47 L 632.12 125.85 L 635.48 123.95 L 638.85 121.20 L 642.21 118.85 L 645.58 116.80 L 648.94 115.02 L 652.31 113.20 L 655.67 111.65 L 659.04 109.06 L 662.40 106.85 L 665.77 104.65 L 669.13 102.84 L 672.50 101.17 L 675.87 99.70 L 679.23 97.16 L 682.60 95.11 L 685.96 93.23 L 689.33 91.44 L 692.69 89.88 L 696.06 88.36 L 699.42 86.97 L 702.79 85.64 L 706.15 84.42 L 709.52 82.89 L 712.88 81.25 L 716.25 79.74 L 719.62 77.40 L 722.98 75.70 L 726.35 74.08 L 729.71 72.65 L 733.08 70.98 L 736.44 68.92 L 739.81 67.10 L 743.17 65.48 L 746.54 63.71 L 749.90 61.28 L 753.27 59.28 L 756.63 57.14 L 760.00 55.00
    L 760 340
    Z" fill="url(#areaGradient)" class="area-path"/>

  <!-- Main line with glow -->
  <path d="M 60.00 340.00 L 63.37 339.79 L 66.73 339.43 L 70.10 339.10 L 73.46 338.45 L 76.83 337.77 L 80.19 337.23 L 83.56 336.74 L 86.92 336.29 L 90.29 335.77 L 93.65 335.19 L 97.02 334.57 L 100.38 334.01 L 103.75 333.41 L 107.12 332.97 L 110.48 332.52 L 113.85 331.90 L 117.21 331.49 L 120.58 330.92 L 123.94 330.26 L 127.31 329.77 L 130.67 329.36 L 134.04 329.10 L 137.40 328.88 L 140.77 328.47 L 144.13 328.18 L 147.50 327.55 L 150.87 327.30 L 154.23 326.98 L 157.60 326.56 L 160.96 326.28 L 164.33 325.99 L 167.69 325.68 L 171.06 325.47 L 174.42 325.29 L 177.79 325.01 L 181.15 324.67 L 184.52 324.36 L 187.88 323.97 L 191.25 323.54 L 194.62 323.15 L 197.98 322.67 L 201.35 322.21 L 204.71 321.74 L 208.08 321.23 L 211.44 320.75 L 214.81 320.19 L 218.17 319.69 L 221.54 319.27 L 224.90 318.94 L 228.27 318.47 L 231.63 317.93 L 235.00 317.44 L 238.37 316.86 L 241.73 316.15 L 245.10 315.63 L 248.46 315.19 L 251.83 314.77 L 255.19 314.27 L 258.56 313.69 L 261.92 313.05 L 265.29 312.37 L 268.65 311.72 L 272.02 311.15 L 275.38 310.58 L 278.75 310.08 L 282.12 309.57 L 285.48 309.00 L 288.85 308.30 L 292.21 307.77 L 295.58 307.29 L 298.94 306.77 L 302.31 306.28 L 305.67 305.74 L 309.04 305.18 L 312.40 304.59 L 315.77 304.08 L 319.13 303.64 L 322.50 303.15 L 325.87 302.63 L 329.23 302.15 L 332.60 301.52 L 335.96 300.97 L 339.33 300.45 L 342.69 300.02 L 346.06 299.59 L 349.42 299.17 L 352.79 298.67 L 356.15 298.15 L 359.52 297.51 L 362.88 297.00 L 366.25 296.59 L 369.62 296.16 L 372.98 295.75 L 376.35 295.24 L 379.71 294.72 L 383.08 293.57 L 386.44 291.28 L 389.81 288.56 L 393.17 286.07 L 396.54 284.81 L 399.90 282.92 L 403.27 281.66 L 406.63 280.55 L 410.00 279.47 L 413.37 278.45 L 416.73 276.87 L 420.10 275.61 L 423.46 274.00 L 426.83 273.67 L 430.19 273.63 L 433.56 273.57 L 436.92 273.52 L 440.29 273.46 L 443.65 273.41 L 447.02 273.39 L 450.38 273.31 L 453.75 273.23 L 457.12 273.18 L 460.48 273.16 L 463.85 273.08 L 467.21 271.02 L 470.58 267.78 L 473.94 265.61 L 477.31 263.10 L 480.67 260.50 L 484.04 258.47 L 487.40 256.20 L 490.77 252.73 L 494.13 248.06 L 497.50 245.01 L 500.87 241.38 L 504.23 237.34 L 507.60 234.10 L 510.96 230.58 L 514.33 227.46 L 517.69 224.36 L 521.06 221.28 L 524.42 217.08 L 527.79 212.87 L 531.15 209.36 L 534.52 206.41 L 537.88 203.56 L 541.25 199.77 L 544.62 196.83 L 547.98 193.92 L 551.35 191.20 L 554.71 188.64 L 558.08 186.02 L 561.44 183.77 L 564.81 181.45 L 568.17 179.08 L 571.54 176.57 L 574.90 174.27 L 578.27 172.16 L 581.63 168.35 L 585.00 165.15 L 588.37 162.08 L 591.73 159.14 L 595.10 154.48 L 598.46 151.54 L 601.83 148.99 L 605.19 145.98 L 608.56 141.54 L 611.92 138.35 L 615.29 135.65 L 618.65 133.37 L 622.02 131.21 L 625.38 129.45 L 628.75 127.47 L 632.12 125.85 L 635.48 123.95 L 638.85 121.20 L 642.21 118.85 L 645.58 116.80 L 648.94 115.02 L 652.31 113.20 L 655.67 111.65 L 659.04 109.06 L 662.40 106.85 L 665.77 104.65 L 669.13 102.84 L 672.50 101.17 L 675.87 99.70 L 679.23 97.16 L 682.60 95.11 L 685.96 93.23 L 689.33 91.44 L 692.69 89.88 L 696.06 88.36 L 699.42 86.97 L 702.79 85.64 L 706.15 84.42 L 709.52 82.89 L 712.88 81.25 L 716.25 79.74 L 719.62 77.40 L 722.98 75.70 L 726.35 74.08 L 729.71 72.65 L 733.08 70.98 L 736.44 68.92 L 739.81 67.10 L 743.17 65.48 L 746.54 63.71 L 749.90 61.28 L 753.27 59.28 L 756.63 57.14 L 760.00 55.00" fill="none" stroke="#3b82f6" stroke-width="3"
        stroke-linecap="round" stroke-linejoin="round" filter="url(#glow)" class="line-path"/>

  <!-- Data points -->
  
    <circle cx="60" cy="340" r="4" fill="#3b82f6" stroke="#0d1117" stroke-width="2" class="data-point"/>
  
    <circle cx="63.36538461538461" cy="339.7905920105566" r="4" fill="#3b82f6" stroke="#0d1117" stroke-width="2" class="data-point"/>
  
    <circle cx="66.73076923076923" cy="339.4344559740883" r="4" fill="#3b82f6" stroke="#0d1117" stroke-width="2" class="data-point"/>
  
    <circle cx="70.09615384615384" cy="339.1039617322457" r="4" fill="#3b82f6" stroke="#0d1117" stroke-width="2" class="data-point"/>
  
    <circle cx="73.46153846153847" cy="338.4472468809981" r="4" fill="#3b82f6" stroke="#0d1117" stroke-width="2" class="data-point"/>
  
    <circle cx="76.82692307692308" cy="337.7691638675624" r="4" fill="#3b82f6" stroke="#0d1117" stroke-width="2" class="data-point"/>
  
    <circle cx="80.1923076923077" cy="337.23495981285987" r="4" fill="#3b82f6" stroke="#0d1117" stroke-width="2" class="data-point"/>
  
    <circle cx="83.5576923076923" cy="336.73636936180424" r="4" fill="#3b82f6" stroke="#0d1117" stroke-width="2" class="data-point"/>
  
    <circle cx="86.92307692307692" cy="336.2933361324376" r="4" fill="#3b82f6" stroke="#0d1117" stroke-width="2" class="data-point"/>
  
    <circle cx="90.28846153846153" cy="335.77337751919384" r="4" fill="#3b82f6" stroke="#0d1117" stroke-width="2" class="data-point"/>
  
    <circle cx="93.65384615384616" cy="335.19358805182344" r="4" fill="#3b82f6" stroke="#0d1117" stroke-width="2" class="data-point"/>
  
    <circle cx="97.01923076923077" cy="334.57248680422265" r="4" fill="#3b82f6" stroke="#0d1117" stroke-width="2" class="data-point"/>
  
    <circle cx="100.38461538461539" cy="334.0083673224568" r="4" fill="#3b82f6" stroke="#0d1117" stroke-width="2" class="data-point"/>
  
    <circle cx="103.75" cy="333.40863423704417" r="4" fill="#3b82f6" stroke="#0d1117" stroke-width="2" class="data-point"/>
  
    <circle cx="107.11538461538461" cy="332.97129918426106" r="4" fill="#3b82f6" stroke="#0d1117" stroke-width="2" class="data-point"/>
  
    <circle cx="110.48076923076923" cy="332.5182941458733" r="4" fill="#3b82f6" stroke="#0d1117" stroke-width="2" class="data-point"/>
  
    <circle cx="113.84615384615384" cy="331.90289107485603" r="4" fill="#3b82f6" stroke="#0d1117" stroke-width="2" class="data-point"/>
  
    <circle cx="117.21153846153845" cy="331.4911978166987" r="4" fill="#3b82f6" stroke="#0d1117" stroke-width="2" class="data-point"/>
  
    <circle cx="120.57692307692307" cy="330.92138015834934" r="4" fill="#3b82f6" stroke="#0d1117" stroke-width="2" class="data-point"/>
  
    <circle cx="123.94230769230768" cy="330.26324076295583" r="4" fill="#3b82f6" stroke="#0d1117" stroke-width="2" class="data-point"/>
  
    <circle cx="127.3076923076923" cy="329.7674994001919" r="4" fill="#3b82f6" stroke="#0d1117" stroke-width="2" class="data-point"/>
  
    <circle cx="130.6730769230769" cy="329.3600797744722" r="4" fill="#3b82f6" stroke="#0d1117" stroke-width="2" class="data-point"/>
  
    <circle cx="134.03846153846155" cy="329.0965391074856" r="4" fill="#3b82f6" stroke="#0d1117" stroke-width="2" class="data-point"/>
  
    <circle cx="137.40384615384613" cy="328.8771593090211" r="4" fill="#3b82f6" stroke="#0d1117" stroke-width="2" class="data-point"/>
  
    <circle cx="140.76923076923077" cy="328.4711642274472" r="4" fill="#3b82f6" stroke="#0d1117" stroke-width="2" class="data-point"/>
  
    <circle cx="144.1346153846154" cy="328.18198176583496" r="4" fill="#3b82f6" stroke="#0d1117" stroke-width="2" class="data-point"/>
  
    <circle cx="147.5" cy="327.5480596209213" r="4" fill="#3b82f6" stroke="#0d1117" stroke-width="2" class="data-point"/>
  
    <circle cx="150.86538461538464" cy="327.29876439539345" r="4" fill="#3b82f6" stroke="#0d1117" stroke-width="2" class="data-point"/>
  
    <circle cx="154.23076923076923" cy="326.9768174184261" r="4" fill="#3b82f6" stroke="#0d1117" stroke-width="2" class="data-point"/>
  
    <circle cx="157.59615384615387" cy="326.5608505278311" r="4" fill="#3b82f6" stroke="#0d1117" stroke-width="2" class="data-point"/>
  
    <circle cx="160.96153846153845" cy="326.2759416986564" r="4" fill="#3b82f6" stroke="#0d1117" stroke-width="2" class="data-point"/>
  
    <circle cx="164.3269230769231" cy="325.98675923704417" r="4" fill="#3b82f6" stroke="#0d1117" stroke-width="2" class="data-point"/>
  
    <circle cx="167.69230769230768" cy="325.6833313339731" r="4" fill="#3b82f6" stroke="#0d1117" stroke-width="2" class="data-point"/>
  
    <circle cx="171.05769230769232" cy="325.4724988003839" r="4" fill="#3b82f6" stroke="#0d1117" stroke-width="2" class="data-point"/>
  
    <circle cx="174.4230769230769" cy="325.2901571497121" r="4" fill="#3b82f6" stroke="#0d1117" stroke-width="2" class="data-point"/>
  
    <circle cx="177.78846153846155" cy="325.0123710412668" r="4" fill="#3b82f6" stroke="#0d1117" stroke-width="2" class="data-point"/>
  
    <circle cx="181.15384615384613" cy="324.67475407869483" r="4" fill="#3b82f6" stroke="#0d1117" stroke-width="2" class="data-point"/>
  
    <circle cx="184.51923076923077" cy="324.36420345489444" r="4" fill="#3b82f6" stroke="#0d1117" stroke-width="2" class="data-point"/>
  
    <circle cx="187.88461538461536" cy="323.9710292706334" r="4" fill="#3b82f6" stroke="#0d1117" stroke-width="2" class="data-point"/>
  
    <circle cx="191.25" cy="323.5422414827255" r="4" fill="#3b82f6" stroke="#0d1117" stroke-width="2" class="data-point"/>
  
    <circle cx="194.6153846153846" cy="323.1490672984645" r="4" fill="#3b82f6" stroke="#0d1117" stroke-width="2" class="data-point"/>
  
    <circle cx="197.98076923076923" cy="322.6746940978887" r="4" fill="#3b82f6" stroke="#0d1117" stroke-width="2" class="data-point"/>
  
    <circle cx="201.34615384615384" cy="322.2088681621881" r="4" fill="#3b82f6" stroke="#0d1117" stroke-width="2" class="data-point"/>
  
    <circle cx="204.71153846153845" cy="321.74304222648755" r="4" fill="#3b82f6" stroke="#0d1117" stroke-width="2" class="data-point"/>
  
    <circle cx="208.07692307692307" cy="321.2330554222649" r="4" fill="#3b82f6" stroke="#0d1117" stroke-width="2" class="data-point"/>
  
    <circle cx="211.4423076923077" cy="320.7458613243762" r="4" fill="#3b82f6" stroke="#0d1117" stroke-width="2" class="data-point"/>
  
    <circle cx="214.8076923076923" cy="320.18886456333973" r="4" fill="#3b82f6" stroke="#0d1117" stroke-width="2" class="data-point"/>
  
    <circle cx="218.17307692307693" cy="319.69169865642993" r="4" fill="#3b82f6" stroke="#0d1117" stroke-width="2" class="data-point"/>
  
    <circle cx="221.53846153846155" cy="319.2714581333973" r="4" fill="#3b82f6" stroke="#0d1117" stroke-width="2" class="data-point"/>
  
    <circle cx="224.90384615384616" cy="318.9352657149712" r="4" fill="#3b82f6" stroke="#0d1117" stroke-width="2" class="data-point"/>
  
    <circle cx="228.26923076923077" cy="318.465166146833" r="4" fill="#3b82f6" stroke="#0d1117" stroke-width="2" class="data-point"/>
  
    <circle cx="231.6346153846154" cy="317.9281130038388" r="4" fill="#3b82f6" stroke="#0d1117" stroke-width="2" class="data-point"/>
  
    <circle cx="235" cy="317.43664527351245" r="4" fill="#3b82f6" stroke="#0d1117" stroke-width="2" class="data-point"/>
  
    <circle cx="238.3653846153846" cy="316.86255398272556" r="4" fill="#3b82f6" stroke="#0d1117" stroke-width="2" class="data-point"/>
  
    <circle cx="241.73076923076925" cy="316.1545555422265" r="4" fill="#3b82f6" stroke="#0d1117" stroke-width="2" class="data-point"/>
  
    <circle cx="245.09615384615384" cy="315.6274742082534" r="4" fill="#3b82f6" stroke="#0d1117" stroke-width="2" class="data-point"/>
  
    <circle cx="248.46153846153845" cy="315.19013915547026" r="4" fill="#3b82f6" stroke="#0d1117" stroke-width="2" class="data-point"/>
  
    <circle cx="251.8269230769231" cy="314.77417226487523" r="4" fill="#3b82f6" stroke="#0d1117" stroke-width="2" class="data-point"/>
  
    <circle cx="255.1923076923077" cy="314.2741572696737" r="4" fill="#3b82f6" stroke="#0d1117" stroke-width="2" class="data-point"/>
  
    <circle cx="258.55769230769226" cy="313.6929432581574" r="4" fill="#3b82f6" stroke="#0d1117" stroke-width="2" class="data-point"/>
  
    <circle cx="261.9230769230769" cy="313.04904930422265" r="4" fill="#3b82f6" stroke="#0d1117" stroke-width="2" class="data-point"/>
  
    <circle cx="265.28846153846155" cy="312.37239083493284" r="4" fill="#3b82f6" stroke="#0d1117" stroke-width="2" class="data-point"/>
  
    <circle cx="268.6538461538462" cy="311.7227987044146" r="4" fill="#3b82f6" stroke="#0d1117" stroke-width="2" class="data-point"/>
  
    <circle cx="272.0192307692307" cy="311.1515565019194" r="4" fill="#3b82f6" stroke="#0d1117" stroke-width="2" class="data-point"/>
  
    <circle cx="275.38461538461536" cy="310.5845879318618" r="4" fill="#3b82f6" stroke="#0d1117" stroke-width="2" class="data-point"/>
  
    <circle cx="278.75" cy="310.08457293666027" r="4" fill="#3b82f6" stroke="#0d1117" stroke-width="2" class="data-point"/>
  
    <circle cx="282.11538461538464" cy="309.5745861324376" r="4" fill="#3b82f6" stroke="#0d1117" stroke-width="2" class="data-point"/>
  
    <circle cx="285.4807692307693" cy="309.0047684740883" r="4" fill="#3b82f6" stroke="#0d1117" stroke-width="2" class="data-point"/>
  
    <circle cx="288.8461538461538" cy="308.2953454894434" r="4" fill="#3b82f6" stroke="#0d1117" stroke-width="2" class="data-point"/>
  
    <circle cx="292.21153846153845" cy="307.7668396113244" r="4" fill="#3b82f6" stroke="#0d1117" stroke-width="2" class="data-point"/>
  
    <circle cx="295.5769230769231" cy="307.29389095489444" r="4" fill="#3b82f6" stroke="#0d1117" stroke-width="2" class="data-point"/>
  
    <circle cx="298.94230769230774" cy="306.76823416506716" r="4" fill="#3b82f6" stroke="#0d1117" stroke-width="2" class="data-point"/>
  
    <circle cx="302.30769230769226" cy="306.27819097888676" r="4" fill="#3b82f6" stroke="#0d1117" stroke-width="2" class="data-point"/>
  
    <circle cx="305.6730769230769" cy="305.7397132917466" r="4" fill="#3b82f6" stroke="#0d1117" stroke-width="2" class="data-point"/>
  
    <circle cx="309.03846153846155" cy="305.1784428982726" r="4" fill="#3b82f6" stroke="#0d1117" stroke-width="2" class="data-point"/>
  
    <circle cx="312.4038461538462" cy="304.5915307101727" r="4" fill="#3b82f6" stroke="#0d1117" stroke-width="2" class="data-point"/>
  
    <circle cx="315.7692307692307" cy="304.07727027351245" r="4" fill="#3b82f6" stroke="#0d1117" stroke-width="2" class="data-point"/>
  
    <circle cx="319.1346153846154" cy="303.6370861324376" r="4" fill="#3b82f6" stroke="#0d1117" stroke-width="2" class="data-point"/>
  
    <circle cx="322.5" cy="303.15416566698656" r="4" fill="#3b82f6" stroke="#0d1117" stroke-width="2" class="data-point"/>
  
    <circle cx="325.8653846153846" cy="302.63135796545106" r="4" fill="#3b82f6" stroke="#0d1117" stroke-width="2" class="data-point"/>
  
    <circle cx="329.2307692307692" cy="302.1470129558541" r="4" fill="#3b82f6" stroke="#0d1117" stroke-width="2" class="data-point"/>
  
    <circle cx="332.59615384615387" cy="301.51593989923225" r="4" fill="#3b82f6" stroke="#0d1117" stroke-width="2" class="data-point"/>
  
    <circle cx="335.96153846153845" cy="300.9731885796545" r="4" fill="#3b82f6" stroke="#0d1117" stroke-width="2" class="data-point"/>
  
    <circle cx="339.3269230769231" cy="300.450380878119" r="4" fill="#3b82f6" stroke="#0d1117" stroke-width="2" class="data-point"/>
  
    <circle cx="342.6923076923077" cy="300.0158949136276" r="4" fill="#3b82f6" stroke="#0d1117" stroke-width="2" class="data-point"/>
  
    <circle cx="346.0576923076923" cy="299.59422984644914" r="4" fill="#3b82f6" stroke="#0d1117" stroke-width="2" class="data-point"/>
  
    <circle cx="349.4230769230769" cy="299.17114023512477" r="4" fill="#3b82f6" stroke="#0d1117" stroke-width="2" class="data-point"/>
  
    <circle cx="352.78846153846155" cy="298.66542706333973" r="4" fill="#3b82f6" stroke="#0d1117" stroke-width="2" class="data-point"/>
  
    <circle cx="356.15384615384613" cy="298.14546845009596" r="4" fill="#3b82f6" stroke="#0d1117" stroke-width="2" class="data-point"/>
  
    <circle cx="359.5192307692308" cy="297.5143953934741" r="4" fill="#3b82f6" stroke="#0d1117" stroke-width="2" class="data-point"/>
  
    <circle cx="362.8846153846154" cy="297.00298404510556" r="4" fill="#3b82f6" stroke="#0d1117" stroke-width="2" class="data-point"/>
  
    <circle cx="366.25" cy="296.5855926103647" r="4" fill="#3b82f6" stroke="#0d1117" stroke-width="2" class="data-point"/>
  
    <circle cx="369.6153846153846" cy="296.1568048224568" r="4" fill="#3b82f6" stroke="#0d1117" stroke-width="2" class="data-point"/>
  
    <circle cx="372.9807692307692" cy="295.7465361084453" r="4" fill="#3b82f6" stroke="#0d1117" stroke-width="2" class="data-point"/>
  
    <circle cx="376.34615384615387" cy="295.2393983925144" r="4" fill="#3b82f6" stroke="#0d1117" stroke-width="2" class="data-point"/>
  
    <circle cx="379.71153846153845" cy="294.71943977927066" r="4" fill="#3b82f6" stroke="#0d1117" stroke-width="2" class="data-point"/>
  
    <circle cx="383.0769230769231" cy="293.56983265355086" r="4" fill="#3b82f6" stroke="#0d1117" stroke-width="2" class="data-point"/>
  
    <circle cx="386.4423076923077" cy="291.2820147552783" r="4" fill="#3b82f6" stroke="#0d1117" stroke-width="2" class="data-point"/>
  
    <circle cx="389.8076923076923" cy="288.55686180422265" r="4" fill="#3b82f6" stroke="#0d1117" stroke-width="2" class="data-point"/>
  
    <circle cx="393.1730769230769" cy="286.07388135796543" r="4" fill="#3b82f6" stroke="#0d1117" stroke-width="2" class="data-point"/>
  
    <circle cx="396.53846153846155" cy="284.81458433301344" r="4" fill="#3b82f6" stroke="#0d1117" stroke-width="2" class="data-point"/>
  
    <circle cx="399.90384615384613" cy="282.9170915307102" r="4" fill="#3b82f6" stroke="#0d1117" stroke-width="2" class="data-point"/>
  
    <circle cx="403.2692307692308" cy="281.65636996161226" r="4" fill="#3b82f6" stroke="#0d1117" stroke-width="2" class="data-point"/>
  
    <circle cx="406.6346153846154" cy="280.5509237044146" r="4" fill="#3b82f6" stroke="#0d1117" stroke-width="2" class="data-point"/>
  
    <circle cx="410" cy="279.46969469769675" r="4" fill="#3b82f6" stroke="#0d1117" stroke-width="2" class="data-point"/>
  
    <circle cx="413.3653846153846" cy="278.4511456333973" r="4" fill="#3b82f6" stroke="#0d1117" stroke-width="2" class="data-point"/>
  
    <circle cx="416.7307692307692" cy="276.86705254318616" r="4" fill="#3b82f6" stroke="#0d1117" stroke-width="2" class="data-point"/>
  
    <circle cx="420.0961538461538" cy="275.60775551823417" r="4" fill="#3b82f6" stroke="#0d1117" stroke-width="2" class="data-point"/>
  
    <circle cx="423.4615384615385" cy="273.99802063339735" r="4" fill="#3b82f6" stroke="#0d1117" stroke-width="2" class="data-point"/>
  
    <circle cx="426.8269230769231" cy="273.6689509357006" r="4" fill="#3b82f6" stroke="#0d1117" stroke-width="2" class="data-point"/>
  
    <circle cx="430.1923076923077" cy="273.6262146113244" r="4" fill="#3b82f6" stroke="#0d1117" stroke-width="2" class="data-point"/>
  
    <circle cx="433.5576923076923" cy="273.5706573896353" r="4" fill="#3b82f6" stroke="#0d1117" stroke-width="2" class="data-point"/>
  
    <circle cx="436.9230769230769" cy="273.52364743282146" r="4" fill="#3b82f6" stroke="#0d1117" stroke-width="2" class="data-point"/>
  
    <circle cx="440.2884615384615" cy="273.46239203454894" r="4" fill="#3b82f6" stroke="#0d1117" stroke-width="2" class="data-point"/>
  
    <circle cx="443.6538461538462" cy="273.40825935700576" r="4" fill="#3b82f6" stroke="#0d1117" stroke-width="2" class="data-point"/>
  
    <circle cx="447.0192307692308" cy="273.3868911948177" r="4" fill="#3b82f6" stroke="#0d1117" stroke-width="2" class="data-point"/>
  
    <circle cx="450.3846153846154" cy="273.30854126679463" r="4" fill="#3b82f6" stroke="#0d1117" stroke-width="2" class="data-point"/>
  
    <circle cx="453.75" cy="273.2330404270633" r="4" fill="#3b82f6" stroke="#0d1117" stroke-width="2" class="data-point"/>
  
    <circle cx="457.1153846153846" cy="273.18318138195775" r="4" fill="#3b82f6" stroke="#0d1117" stroke-width="2" class="data-point"/>
  
    <circle cx="460.4807692307692" cy="273.16466230806145" r="4" fill="#3b82f6" stroke="#0d1117" stroke-width="2" class="data-point"/>
  
    <circle cx="463.8461538461538" cy="273.0806142034549" r="4" fill="#3b82f6" stroke="#0d1117" stroke-width="2" class="data-point"/>
  
    <circle cx="467.2115384615385" cy="271.01502519193855" r="4" fill="#3b82f6" stroke="#0d1117" stroke-width="2" class="data-point"/>
  
    <circle cx="470.5769230769231" cy="267.77988543666027" r="4" fill="#3b82f6" stroke="#0d1117" stroke-width="2" class="data-point"/>
  
    <circle cx="473.9423076923077" cy="265.61315379078695" r="4" fill="#3b82f6" stroke="#0d1117" stroke-width="2" class="data-point"/>
  
    <circle cx="477.3076923076923" cy="263.0974088291747" r="4" fill="#3b82f6" stroke="#0d1117" stroke-width="2" class="data-point"/>
  
    <circle cx="480.6730769230769" cy="260.50473848368523" r="4" fill="#3b82f6" stroke="#0d1117" stroke-width="2" class="data-point"/>
  
    <circle cx="484.0384615384615" cy="258.47048944337814" r="4" fill="#3b82f6" stroke="#0d1117" stroke-width="2" class="data-point"/>
  
    <circle cx="487.4038461538462" cy="256.1954924424184" r="4" fill="#3b82f6" stroke="#0d1117" stroke-width="2" class="data-point"/>
  
    <circle cx="490.7692307692308" cy="252.72957653550864" r="4" fill="#3b82f6" stroke="#0d1117" stroke-width="2" class="data-point"/>
  
    <circle cx="494.1346153846154" cy="248.05849628119" r="4" fill="#3b82f6" stroke="#0d1117" stroke-width="2" class="data-point"/>
  
    <circle cx="497.5" cy="245.00997180902112" r="4" fill="#3b82f6" stroke="#0d1117" stroke-width="2" class="data-point"/>
  
    <circle cx="500.8653846153846" cy="241.38165786948176" r="4" fill="#3b82f6" stroke="#0d1117" stroke-width="2" class="data-point"/>
  
    <circle cx="504.2307692307692" cy="237.3388015834933" r="4" fill="#3b82f6" stroke="#0d1117" stroke-width="2" class="data-point"/>
  
    <circle cx="507.5961538461538" cy="234.0965391074856" r="4" fill="#3b82f6" stroke="#0d1117" stroke-width="2" class="data-point"/>
  
    <circle cx="510.9615384615385" cy="230.57791506717848" r="4" fill="#3b82f6" stroke="#0d1117" stroke-width="2" class="data-point"/>
  
    <circle cx="514.3269230769231" cy="227.45673884357007" r="4" fill="#3b82f6" stroke="#0d1117" stroke-width="2" class="data-point"/>
  
    <circle cx="517.6923076923076" cy="224.36405350287907" r="4" fill="#3b82f6" stroke="#0d1117" stroke-width="2" class="data-point"/>
  
    <circle cx="521.0576923076924" cy="221.27991542706334" r="4" fill="#3b82f6" stroke="#0d1117" stroke-width="2" class="data-point"/>
  
    <circle cx="524.4230769230769" cy="217.0803592850288" r="4" fill="#3b82f6" stroke="#0d1117" stroke-width="2" class="data-point"/>
  
    <circle cx="527.7884615384614" cy="212.8679822456814" r="4" fill="#3b82f6" stroke="#0d1117" stroke-width="2" class="data-point"/>
  
    <circle cx="531.1538461538462" cy="209.35648092610364" r="4" fill="#3b82f6" stroke="#0d1117" stroke-width="2" class="data-point"/>
  
    <circle cx="534.5192307692307" cy="206.41337272072937" r="4" fill="#3b82f6" stroke="#0d1117" stroke-width="2" class="data-point"/>
  
    <circle cx="537.8846153846155" cy="203.55858625239924" r="4" fill="#3b82f6" stroke="#0d1117" stroke-width="2" class="data-point"/>
  
    <circle cx="541.25" cy="199.7692988243762" r="4" fill="#3b82f6" stroke="#0d1117" stroke-width="2" class="data-point"/>
  
    <circle cx="544.6153846153845" cy="196.83046425143954" r="4" fill="#3b82f6" stroke="#0d1117" stroke-width="2" class="data-point"/>
  
    <circle cx="547.9807692307693" cy="193.9229696497121" r="4" fill="#3b82f6" stroke="#0d1117" stroke-width="2" class="data-point"/>
  
    <circle cx="551.3461538461538" cy="191.20351487523993" r="4" fill="#3b82f6" stroke="#0d1117" stroke-width="2" class="data-point"/>
  
    <circle cx="554.7115384615386" cy="188.6421845009597" r="4" fill="#3b82f6" stroke="#0d1117" stroke-width="2" class="data-point"/>
  
    <circle cx="558.0769230769231" cy="186.01817418426106" r="4" fill="#3b82f6" stroke="#0d1117" stroke-width="2" class="data-point"/>
  
    <circle cx="561.4423076923076" cy="183.77451715451056" r="4" fill="#3b82f6" stroke="#0d1117" stroke-width="2" class="data-point"/>
  
    <circle cx="564.8076923076924" cy="181.4510856525912" r="4" fill="#3b82f6" stroke="#0d1117" stroke-width="2" class="data-point"/>
  
    <circle cx="568.1730769230769" cy="179.0792196497121" r="4" fill="#3b82f6" stroke="#0d1117" stroke-width="2" class="data-point"/>
  
    <circle cx="571.5384615384614" cy="176.57202195297506" r="4" fill="#3b82f6" stroke="#0d1117" stroke-width="2" class="data-point"/>
  
    <circle cx="574.9038461538462" cy="174.27138315738964" r="4" fill="#3b82f6" stroke="#0d1117" stroke-width="2" class="data-point"/>
  
    <circle cx="578.2692307692308" cy="172.16448236564298" r="4" fill="#3b82f6" stroke="#0d1117" stroke-width="2" class="data-point"/>
  
    <circle cx="581.6346153846154" cy="168.34670405470249" r="4" fill="#3b82f6" stroke="#0d1117" stroke-width="2" class="data-point"/>
  
    <circle cx="585" cy="165.15145153550864" r="4" fill="#3b82f6" stroke="#0d1117" stroke-width="2" class="data-point"/>
  
    <circle cx="588.3653846153846" cy="162.08298344529751" r="4" fill="#3b82f6" stroke="#0d1117" stroke-width="2" class="data-point"/>
  
    <circle cx="591.7307692307692" cy="159.1356016074856" r="4" fill="#3b82f6" stroke="#0d1117" stroke-width="2" class="data-point"/>
  
    <circle cx="595.0961538461538" cy="154.48161588291748" r="4" fill="#3b82f6" stroke="#0d1117" stroke-width="2" class="data-point"/>
  
    <circle cx="598.4615384615385" cy="151.5370831333973" r="4" fill="#3b82f6" stroke="#0d1117" stroke-width="2" class="data-point"/>
  
    <circle cx="601.8269230769231" cy="148.98857365642993" r="4" fill="#3b82f6" stroke="#0d1117" stroke-width="2" class="data-point"/>
  
    <circle cx="605.1923076923077" cy="145.9785118761996" r="4" fill="#3b82f6" stroke="#0d1117" stroke-width="2" class="data-point"/>
  
    <circle cx="608.5576923076923" cy="141.54105686180424" r="4" fill="#3b82f6" stroke="#0d1117" stroke-width="2" class="data-point"/>
  
    <circle cx="611.9230769230769" cy="138.3486534309021" r="4" fill="#3b82f6" stroke="#0d1117" stroke-width="2" class="data-point"/>
  
    <circle cx="615.2884615384615" cy="135.6534159069098" r="4" fill="#3b82f6" stroke="#0d1117" stroke-width="2" class="data-point"/>
  
    <circle cx="618.6538461538462" cy="133.37272072936662" r="4" fill="#3b82f6" stroke="#0d1117" stroke-width="2" class="data-point"/>
  
    <circle cx="622.0192307692308" cy="131.208838171785" r="4" fill="#3b82f6" stroke="#0d1117" stroke-width="2" class="data-point"/>
  
    <circle cx="625.3846153846154" cy="129.4495261516315" r="4" fill="#3b82f6" stroke="#0d1117" stroke-width="2" class="data-point"/>
  
    <circle cx="628.75" cy="127.46798524472169" r="4" fill="#3b82f6" stroke="#0d1117" stroke-width="2" class="data-point"/>
  
    <circle cx="632.1153846153846" cy="125.85255218330136" r="4" fill="#3b82f6" stroke="#0d1117" stroke-width="2" class="data-point"/>
  
    <circle cx="635.4807692307692" cy="123.94651211612285" r="4" fill="#3b82f6" stroke="#0d1117" stroke-width="2" class="data-point"/>
  
    <circle cx="638.8461538461538" cy="121.20284009117083" r="4" fill="#3b82f6" stroke="#0d1117" stroke-width="2" class="data-point"/>
  
    <circle cx="642.2115384615385" cy="118.8452195297505" r="4" fill="#3b82f6" stroke="#0d1117" stroke-width="2" class="data-point"/>
  
    <circle cx="645.5769230769231" cy="116.79530050383875" r="4" fill="#3b82f6" stroke="#0d1117" stroke-width="2" class="data-point"/>
  
    <circle cx="648.9423076923077" cy="115.02316758637235" r="4" fill="#3b82f6" stroke="#0d1117" stroke-width="2" class="data-point"/>
  
    <circle cx="652.3076923076923" cy="113.19547744721689" r="4" fill="#3b82f6" stroke="#0d1117" stroke-width="2" class="data-point"/>
  
    <circle cx="655.6730769230769" cy="111.65412068138195" r="4" fill="#3b82f6" stroke="#0d1117" stroke-width="2" class="data-point"/>
  
    <circle cx="659.0384615384615" cy="109.06287488003838" r="4" fill="#3b82f6" stroke="#0d1117" stroke-width="2" class="data-point"/>
  
    <circle cx="662.4038461538462" cy="106.84770873320537" r="4" fill="#3b82f6" stroke="#0d1117" stroke-width="2" class="data-point"/>
  
    <circle cx="665.7692307692308" cy="104.65106166026874" r="4" fill="#3b82f6" stroke="#0d1117" stroke-width="2" class="data-point"/>
  
    <circle cx="669.1346153846154" cy="102.83761696257199" r="4" fill="#3b82f6" stroke="#0d1117" stroke-width="2" class="data-point"/>
  
    <circle cx="672.5" cy="101.17374940019195" r="4" fill="#3b82f6" stroke="#0d1117" stroke-width="2" class="data-point"/>
  
    <circle cx="675.8653846153846" cy="99.69649712092132" r="4" fill="#3b82f6" stroke="#0d1117" stroke-width="2" class="data-point"/>
  
    <circle cx="679.2307692307692" cy="97.16365762955854" r="4" fill="#3b82f6" stroke="#0d1117" stroke-width="2" class="data-point"/>
  
    <circle cx="682.5961538461538" cy="95.10661588291745" r="4" fill="#3b82f6" stroke="#0d1117" stroke-width="2" class="data-point"/>
  
    <circle cx="685.9615384615385" cy="93.23191578694818" r="4" fill="#3b82f6" stroke="#0d1117" stroke-width="2" class="data-point"/>
  
    <circle cx="689.3269230769231" cy="91.44126379558543" r="4" fill="#3b82f6" stroke="#0d1117" stroke-width="2" class="data-point"/>
  
    <circle cx="692.6923076923077" cy="89.87853886756236" r="4" fill="#3b82f6" stroke="#0d1117" stroke-width="2" class="data-point"/>
  
    <circle cx="696.0576923076923" cy="88.36139935220729" r="4" fill="#3b82f6" stroke="#0d1117" stroke-width="2" class="data-point"/>
  
    <circle cx="699.4230769230769" cy="86.97104426583493" r="4" fill="#3b82f6" stroke="#0d1117" stroke-width="2" class="data-point"/>
  
    <circle cx="702.7884615384615" cy="85.63767094529749" r="4" fill="#3b82f6" stroke="#0d1117" stroke-width="2" class="data-point"/>
  
    <circle cx="706.1538461538462" cy="84.41541206813821" r="4" fill="#3b82f6" stroke="#0d1117" stroke-width="2" class="data-point"/>
  
    <circle cx="709.5192307692308" cy="82.88972528790788" r="4" fill="#3b82f6" stroke="#0d1117" stroke-width="2" class="data-point"/>
  
    <circle cx="712.8846153846154" cy="81.25149952015357" r="4" fill="#3b82f6" stroke="#0d1117" stroke-width="2" class="data-point"/>
  
    <circle cx="716.25" cy="79.7443318138196" r="4" fill="#3b82f6" stroke="#0d1117" stroke-width="2" class="data-point"/>
  
    <circle cx="719.6153846153846" cy="77.40238123800384" r="4" fill="#3b82f6" stroke="#0d1117" stroke-width="2" class="data-point"/>
  
    <circle cx="722.9807692307692" cy="75.70290007197696" r="4" fill="#3b82f6" stroke="#0d1117" stroke-width="2" class="data-point"/>
  
    <circle cx="726.3461538461538" cy="74.0774952015355" r="4" fill="#3b82f6" stroke="#0d1117" stroke-width="2" class="data-point"/>
  
    <circle cx="729.7115384615385" cy="72.6515265115163" r="4" fill="#3b82f6" stroke="#0d1117" stroke-width="2" class="data-point"/>
  
    <circle cx="733.0769230769231" cy="70.97911168426106" r="4" fill="#3b82f6" stroke="#0d1117" stroke-width="2" class="data-point"/>
  
    <circle cx="736.4423076923077" cy="68.92491902591172" r="4" fill="#3b82f6" stroke="#0d1117" stroke-width="2" class="data-point"/>
  
    <circle cx="739.8076923076923" cy="67.10435160748563" r="4" fill="#3b82f6" stroke="#0d1117" stroke-width="2" class="data-point"/>
  
    <circle cx="743.1730769230769" cy="65.47894673704411" r="4" fill="#3b82f6" stroke="#0d1117" stroke-width="2" class="data-point"/>
  
    <circle cx="746.5384615384615" cy="63.71393654030709" r="4" fill="#3b82f6" stroke="#0d1117" stroke-width="2" class="data-point"/>
  
    <circle cx="749.9038461538462" cy="61.2793905950096" r="4" fill="#3b82f6" stroke="#0d1117" stroke-width="2" class="data-point"/>
  
    <circle cx="753.2692307692308" cy="59.280755158349336" r="4" fill="#3b82f6" stroke="#0d1117" stroke-width="2" class="data-point"/>
  
    <circle cx="756.6346153846154" cy="57.13681621881" r="4" fill="#3b82f6" stroke="#0d1117" stroke-width="2" class="data-point"/>
  
    <circle cx="760" cy="55" r="4" fill="#3b82f6" stroke="#0d1117" stroke-width="2" class="data-point"/>
  

  <!-- Axis lines -->
  <line x1="60" y1="55" x2="60" y2="340"
        stroke="#30363d" stroke-width="2"/>
  <line x1="60" y1="340" x2="760" y2="340"
        stroke="#30363d" stroke-width="2"/>
</svg>