<?xml version="1.0" encoding="UTF-8"?>
<svg width="800" height="400" xmlns="http://www.w3.org/2000/svg">
  <defs>
    <!-- Gradient for area fill -->
    <linearGradient id="areaGradient" x1="0%" y1="0%" x2="0%" y2="100%">
      <stop offset="0%" style="stop-color:#3b82f6;stop-opacity:0.3" />
      <stop offset="100%" style="stop-color:#3b82f6;stop-opacity:0.05" />
    </linearGradient>

    <!-- Glow filter for line -->
    <filter id="glow">
      <feGaussianBlur stdDeviation="2" result="coloredBlur"/>
      <feMerge>
        <feMergeNode in="coloredBlur"/>
        <feMergeNode in="SourceGraphic"/>
      </feMerge>
    </filter>

    <!-- Animation -->
    <style>
      @keyframes draw {
        from { stroke-dashoffset: 2000; }
        to { stroke-dashoffset: 0; }
      }
      @keyframes fadeIn {
        from { opacity: 0; }
        to { opacity: 1; }
      }
      .line-path {
        stroke-dasharray: 2000;
        stroke-dashoffset: 2000;
        animation: draw 1.5s ease-out forwards;
      }
      .area-path {
        opacity: 0;
        animation: fadeIn 1s ease-out 0.5s forwards;
      }
      .data-point {
        opacity: 0;
        animation: fadeIn 0.5s ease-out 1s forwards;
      }
    </style>
  </defs>

  <!-- Background -->
  <rect width="800" height="400" fill="#0d1117" rx="8"/>

  <!-- Title -->
  <text x="400" y="25" text-anchor="middle" fill="#c9d1d9" font-family="system-ui, -apple-system, sans-serif" font-size="16" font-weight="600">
    zxcloli666/SoundCloud-Desktop Downloads
  </text>

  <!-- Stats -->
  <text x="780" y="25" text-anchor="end" fill="#58a6ff" font-family="system-ui, -apple-system, sans-serif" font-size="14" font-weight="600">
    106.7K total
  </text>
  <text x="780" y="42" text-anchor="end" fill="#3fb950" font-family="system-ui, -apple-system, sans-serif" font-size="12">
    +30 (+0.0%)
  </text>

  <!-- Grid lines -->
  <g opacity="0.1">
    
      <line x1="60" y1="340" x2="760" y2="340"
            stroke="#c9d1d9" stroke-width="1"/>
    
      <line x1="60" y1="268.75" x2="760" y2="268.75"
            stroke="#c9d1d9" stroke-width="1"/>
    
      <line x1="60" y1="197.5" x2="760" y2="197.5"
            stroke="#c9d1d9" stroke-width="1"/>
    
      <line x1="60" y1="126.25" x2="760" y2="126.25"
            stroke="#c9d1d9" stroke-width="1"/>
    
      <line x1="60" y1="55" x2="760" y2="55"
            stroke="#c9d1d9" stroke-width="1"/>
    
  </g>

  <!-- Y-axis labels -->
  
    <text x="50" y="344" text-anchor="end"
          fill="#8b949e" font-family="system-ui, -apple-system, sans-serif" font-size="11">
      60.2K
    </text>
  
    <text x="50" y="272.75" text-anchor="end"
          fill="#8b949e" font-family="system-ui, -apple-system, sans-serif" font-size="11">
      71.8K
    </text>
  
    <text x="50" y="201.5" text-anchor="end"
          fill="#8b949e" font-family="system-ui, -apple-system, sans-serif" font-size="11">
      83.4K
    </text>
  
    <text x="50" y="130.25" text-anchor="end"
          fill="#8b949e" font-family="system-ui, -apple-system, sans-serif" font-size="11">
      95.1K
    </text>
  
    <text x="50" y="59" text-anchor="end"
          fill="#8b949e" font-family="system-ui, -apple-system, sans-serif" font-size="11">
      106.7K
    </text>
  

  <!-- X-axis labels -->
  
    <text x="60" y="360" text-anchor="middle"
          fill="#8b949e" font-family="system-ui, -apple-system, sans-serif" font-size="11">
      Nov 25
    </text>
  
    <text x="142.72727272727272" y="360" text-anchor="middle"
          fill="#8b949e" font-family="system-ui, -apple-system, sans-serif" font-size="11">
      Dec 8
    </text>
  
    <text x="225.45454545454544" y="360" text-anchor="middle"
          fill="#8b949e" font-family="system-ui, -apple-system, sans-serif" font-size="11">
      Dec 21
    </text>
  
    <text x="308.1818181818182" y="360" text-anchor="middle"
          fill="#8b949e" font-family="system-ui, -apple-system, sans-serif" font-size="11">
      Jan 3
    </text>
  
    <text x="390.9090909090909" y="360" text-anchor="middle"
          fill="#8b949e" font-family="system-ui, -apple-system, sans-serif" font-size="11">
      Jan 16
    </text>
  
    <text x="473.6363636363637" y="360" text-anchor="middle"
          fill="#8b949e" font-family="system-ui, -apple-system, sans-serif" font-size="11">
      Jan 29
    </text>
  
    <text x="556.3636363636364" y="360" text-anchor="middle"
          fill="#8b949e" font-family="system-ui, -apple-system, sans-serif" font-size="11">
      Feb 11
    </text>
  
    <text x="639.0909090909091" y="360" text-anchor="middle"
          fill="#8b949e" font-family="system-ui, -apple-system, sans-serif" font-size="11">
      Feb 24
    </text>
  
    <text x="721.8181818181818" y="360" text-anchor="middle"
          fill="#8b949e" font-family="system-ui, -apple-system, sans-serif" font-size="11">
      Mar 9
    </text>
  
    <text x="760" y="360" text-anchor="middle"
          fill="#8b949e" font-family="system-ui, -apple-system, sans-serif" font-size="11">
      Mar 15
    </text>
  

  <!-- Area under line -->
  <path d="M 60 340
    L 60.00 340.00 L 66.36 339.10 L 72.73 337.57 L 79.09 336.15 L 85.45 333.33 L 91.82 330.42 L 98.18 328.13 L 104.55 325.99 L 110.91 324.08 L 117.27 321.85 L 123.64 319.36 L 130.00 316.69 L 136.36 314.27 L 142.73 311.70 L 149.09 309.82 L 155.45 307.87 L 161.82 305.23 L 168.18 303.46 L 174.55 301.02 L 180.91 298.19 L 187.27 296.06 L 193.64 294.31 L 200.00 293.18 L 206.36 292.24 L 212.73 290.50 L 219.09 289.26 L 225.45 286.53 L 231.82 285.46 L 238.18 284.08 L 244.55 282.29 L 250.91 281.07 L 257.27 279.83 L 263.64 278.53 L 270.00 277.62 L 276.36 276.84 L 282.73 275.65 L 289.09 274.20 L 295.45 272.86 L 301.82 271.17 L 308.18 269.33 L 314.55 267.64 L 320.91 265.61 L 327.27 263.61 L 333.64 261.61 L 340.00 259.42 L 346.36 257.33 L 352.73 254.93 L 359.09 252.80 L 365.45 250.99 L 371.82 249.55 L 378.18 247.53 L 384.55 245.23 L 390.91 243.12 L 397.27 240.65 L 403.64 237.61 L 410.00 235.35 L 416.36 233.47 L 422.73 231.68 L 429.09 229.54 L 435.45 227.04 L 441.82 224.28 L 448.18 221.37 L 454.55 218.58 L 460.91 216.13 L 467.27 213.69 L 473.64 211.55 L 480.00 209.36 L 486.36 206.91 L 492.73 203.86 L 499.09 201.60 L 505.45 199.56 L 511.82 197.31 L 518.18 195.20 L 524.55 192.89 L 530.91 190.48 L 537.27 187.96 L 543.64 185.75 L 550.00 183.86 L 556.36 181.79 L 562.73 179.54 L 569.09 177.46 L 575.45 174.75 L 581.82 172.42 L 588.18 170.18 L 594.55 168.31 L 600.91 166.50 L 607.27 164.69 L 613.64 162.51 L 620.00 160.28 L 626.36 157.57 L 632.73 155.38 L 639.09 153.58 L 645.45 151.74 L 651.82 149.98 L 658.18 147.80 L 664.55 145.57 L 670.91 140.64 L 677.27 130.81 L 683.64 119.11 L 690.00 108.45 L 696.36 103.04 L 702.73 94.89 L 709.09 89.48 L 715.45 84.73 L 721.82 80.09 L 728.18 75.72 L 734.55 68.92 L 740.91 63.51 L 747.27 56.60 L 753.64 55.18 L 760.00 55.00
    L 760 340
    Z" fill="url(#areaGradient)" class="area-path"/>

  <!-- Main line with glow -->
  <path d="M 60.00 340.00 L 66.36 339.10 L 72.73 337.57 L 79.09 336.15 L 85.45 333.33 L 91.82 330.42 L 98.18 328.13 L 104.55 325.99 L 110.91 324.08 L 117.27 321.85 L 123.64 319.36 L 130.00 316.69 L 136.36 314.27 L 142.73 311.70 L 149.09 309.82 L 155.45 307.87 L 161.82 305.23 L 168.18 303.46 L 174.55 301.02 L 180.91 298.19 L 187.27 296.06 L 193.64 294.31 L 200.00 293.18 L 206.36 292.24 L 212.73 290.50 L 219.09 289.26 L 225.45 286.53 L 231.82 285.46 L 238.18 284.08 L 244.55 282.29 L 250.91 281.07 L 257.27 279.83 L 263.64 278.53 L 270.00 277.62 L 276.36 276.84 L 282.73 275.65 L 289.09 274.20 L 295.45 272.86 L 301.82 271.17 L 308.18 269.33 L 314.55 267.64 L 320.91 265.61 L 327.27 263.61 L 333.64 261.61 L 340.00 259.42 L 346.36 257.33 L 352.73 254.93 L 359.09 252.80 L 365.45 250.99 L 371.82 249.55 L 378.18 247.53 L 384.55 245.23 L 390.91 243.12 L 397.27 240.65 L 403.64 237.61 L 410.00 235.35 L 416.36 233.47 L 422.73 231.68 L 429.09 229.54 L 435.45 227.04 L 441.82 224.28 L 448.18 221.37 L 454.55 218.58 L 460.91 216.13 L 467.27 213.69 L 473.64 211.55 L 480.00 209.36 L 486.36 206.91 L 492.73 203.86 L 499.09 201.60 L 505.45 199.56 L 511.82 197.31 L 518.18 195.20 L 524.55 192.89 L 530.91 190.48 L 537.27 187.96 L 543.64 185.75 L 550.00 183.86 L 556.36 181.79 L 562.73 179.54 L 569.09 177.46 L 575.45 174.75 L 581.82 172.42 L 588.18 170.18 L 594.55 168.31 L 600.91 166.50 L 607.27 164.69 L 613.64 162.51 L 620.00 160.28 L 626.36 157.57 L 632.73 155.38 L 639.09 153.58 L 645.45 151.74 L 651.82 149.98 L 658.18 147.80 L 664.55 145.57 L 670.91 140.64 L 677.27 130.81 L 683.64 119.11 L 690.00 108.45 L 696.36 103.04 L 702.73 94.89 L 709.09 89.48 L 715.45 84.73 L 721.82 80.09 L 728.18 75.72 L 734.55 68.92 L 740.91 63.51 L 747.27 56.60 L 753.64 55.18 L 760.00 55.00" fill="none" stroke="#3b82f6" stroke-width="3"
        stroke-linecap="round" stroke-linejoin="round" filter="url(#glow)" class="line-path"/>

  <!-- Data points -->
  
    <circle cx="60" cy="340" r="4" fill="#3b82f6" stroke="#0d1117" stroke-width="2" class="data-point"/>
  
    <circle cx="66.36363636363636" cy="339.10083059687076" r="4" fill="#3b82f6" stroke="#0d1117" stroke-width="2" class="data-point"/>
  
    <circle cx="72.72727272727272" cy="337.57163093168504" r="4" fill="#3b82f6" stroke="#0d1117" stroke-width="2" class="data-point"/>
  
    <circle cx="79.0909090909091" cy="336.15253364239265" r="4" fill="#3b82f6" stroke="#0d1117" stroke-width="2" class="data-point"/>
  
    <circle cx="85.45454545454545" cy="333.3326894597901" r="4" fill="#3b82f6" stroke="#0d1117" stroke-width="2" class="data-point"/>
  
    <circle cx="91.81818181818181" cy="330.4210932972764" r="4" fill="#3b82f6" stroke="#0d1117" stroke-width="2" class="data-point"/>
  
    <circle cx="98.18181818181819" cy="328.1272937994978" r="4" fill="#3b82f6" stroke="#0d1117" stroke-width="2" class="data-point"/>
  
    <circle cx="104.54545454545453" cy="325.9864142682377" r="4" fill="#3b82f6" stroke="#0d1117" stroke-width="2" class="data-point"/>
  
    <circle cx="110.9090909090909" cy="324.0840898847466" r="4" fill="#3b82f6" stroke="#0d1117" stroke-width="2" class="data-point"/>
  
    <circle cx="117.27272727272728" cy="321.85145837357544" r="4" fill="#3b82f6" stroke="#0d1117" stroke-width="2" class="data-point"/>
  
    <circle cx="123.63636363636364" cy="319.361921318653" r="4" fill="#3b82f6" stroke="#0d1117" stroke-width="2" class="data-point"/>
  
    <circle cx="130" cy="316.69499710256906" r="4" fill="#3b82f6" stroke="#0d1117" stroke-width="2" class="data-point"/>
  
    <circle cx="136.36363636363637" cy="314.27274483291484" r="4" fill="#3b82f6" stroke="#0d1117" stroke-width="2" class="data-point"/>
  
    <circle cx="142.72727272727272" cy="311.697572596742" r="4" fill="#3b82f6" stroke="#0d1117" stroke-width="2" class="data-point"/>
  
    <circle cx="149.09090909090907" cy="309.8197154078939" r="4" fill="#3b82f6" stroke="#0d1117" stroke-width="2" class="data-point"/>
  
    <circle cx="155.45454545454544" cy="307.8745734337776" r="4" fill="#3b82f6" stroke="#0d1117" stroke-width="2" class="data-point"/>
  
    <circle cx="161.8181818181818" cy="305.2321164123366" r="4" fill="#3b82f6" stroke="#0d1117" stroke-width="2" class="data-point"/>
  
    <circle cx="168.1818181818182" cy="303.4643615993819" r="4" fill="#3b82f6" stroke="#0d1117" stroke-width="2" class="data-point"/>
  
    <circle cx="174.54545454545456" cy="301.01764213508466" r="4" fill="#3b82f6" stroke="#0d1117" stroke-width="2" class="data-point"/>
  
    <circle cx="180.9090909090909" cy="298.1916811538214" r="4" fill="#3b82f6" stroke="#0d1117" stroke-width="2" class="data-point"/>
  
    <circle cx="187.27272727272728" cy="296.0630352198828" r="4" fill="#3b82f6" stroke="#0d1117" stroke-width="2" class="data-point"/>
  
    <circle cx="193.63636363636365" cy="294.3136308029103" r="4" fill="#3b82f6" stroke="#0d1117" stroke-width="2" class="data-point"/>
  
    <circle cx="200" cy="293.18202305067285" r="4" fill="#3b82f6" stroke="#0d1117" stroke-width="2" class="data-point"/>
  
    <circle cx="206.36363636363635" cy="292.2400360569184" r="4" fill="#3b82f6" stroke="#0d1117" stroke-width="2" class="data-point"/>
  
    <circle cx="212.72727272727272" cy="290.49674843860663" r="4" fill="#3b82f6" stroke="#0d1117" stroke-width="2" class="data-point"/>
  
    <circle cx="219.0909090909091" cy="289.2550383104758" r="4" fill="#3b82f6" stroke="#0d1117" stroke-width="2" class="data-point"/>
  
    <circle cx="225.45454545454544" cy="286.5330629064452" r="4" fill="#3b82f6" stroke="#0d1117" stroke-width="2" class="data-point"/>
  
    <circle cx="231.8181818181818" cy="285.46262314081514" r="4" fill="#3b82f6" stroke="#0d1117" stroke-width="2" class="data-point"/>
  
    <circle cx="238.18181818181816" cy="284.0802266434872" r="4" fill="#3b82f6" stroke="#0d1117" stroke-width="2" class="data-point"/>
  
    <circle cx="244.54545454545453" cy="282.2941214345503" r="4" fill="#3b82f6" stroke="#0d1117" stroke-width="2" class="data-point"/>
  
    <circle cx="250.9090909090909" cy="281.0707617024016" r="4" fill="#3b82f6" stroke="#0d1117" stroke-width="2" class="data-point"/>
  
    <circle cx="257.27272727272725" cy="279.8290515742708" r="4" fill="#3b82f6" stroke="#0d1117" stroke-width="2" class="data-point"/>
  
    <circle cx="263.6363636363636" cy="278.5261734595325" r="4" fill="#3b82f6" stroke="#0d1117" stroke-width="2" class="data-point"/>
  
    <circle cx="270" cy="277.6208872577426" r="4" fill="#3b82f6" stroke="#0d1117" stroke-width="2" class="data-point"/>
  
    <circle cx="276.3636363636364" cy="276.83793702916745" r="4" fill="#3b82f6" stroke="#0d1117" stroke-width="2" class="data-point"/>
  
    <circle cx="282.72727272727275" cy="275.64516129032256" r="4" fill="#3b82f6" stroke="#0d1117" stroke-width="2" class="data-point"/>
  
    <circle cx="289.0909090909091" cy="274.1954800077265" r="4" fill="#3b82f6" stroke="#0d1117" stroke-width="2" class="data-point"/>
  
    <circle cx="295.4545454545455" cy="272.8620178996845" r="4" fill="#3b82f6" stroke="#0d1117" stroke-width="2" class="data-point"/>
  
    <circle cx="301.8181818181818" cy="271.1737814693194" r="4" fill="#3b82f6" stroke="#0d1117" stroke-width="2" class="data-point"/>
  
    <circle cx="308.1818181818182" cy="269.3326250724358" r="4" fill="#3b82f6" stroke="#0d1117" stroke-width="2" class="data-point"/>
  
    <circle cx="314.54545454545456" cy="267.6443886420707" r="4" fill="#3b82f6" stroke="#0d1117" stroke-width="2" class="data-point"/>
  
    <circle cx="320.90909090909093" cy="265.6074946880433" r="4" fill="#3b82f6" stroke="#0d1117" stroke-width="2" class="data-point"/>
  
    <circle cx="327.2727272727273" cy="263.6073015259803" r="4" fill="#3b82f6" stroke="#0d1117" stroke-width="2" class="data-point"/>
  
    <circle cx="333.6363636363636" cy="261.60710836391735" r="4" fill="#3b82f6" stroke="#0d1117" stroke-width="2" class="data-point"/>
  
    <circle cx="340" cy="259.4172944433713" r="4" fill="#3b82f6" stroke="#0d1117" stroke-width="2" class="data-point"/>
  
    <circle cx="346.3636363636364" cy="257.3253493013972" r="4" fill="#3b82f6" stroke="#0d1117" stroke-width="2" class="data-point"/>
  
    <circle cx="352.7272727272727" cy="254.93368102504667" r="4" fill="#3b82f6" stroke="#0d1117" stroke-width="2" class="data-point"/>
  
    <circle cx="359.09090909090907" cy="252.79891829244735" r="4" fill="#3b82f6" stroke="#0d1117" stroke-width="2" class="data-point"/>
  
    <circle cx="365.45454545454544" cy="250.99446268752817" r="4" fill="#3b82f6" stroke="#0d1117" stroke-width="2" class="data-point"/>
  
    <circle cx="371.8181818181818" cy="249.5508982035928" r="4" fill="#3b82f6" stroke="#0d1117" stroke-width="2" class="data-point"/>
  
    <circle cx="378.1818181818182" cy="247.53235464554763" r="4" fill="#3b82f6" stroke="#0d1117" stroke-width="2" class="data-point"/>
  
    <circle cx="384.54545454545456" cy="245.2263215504475" r="4" fill="#3b82f6" stroke="#0d1117" stroke-width="2" class="data-point"/>
  
    <circle cx="390.9090909090909" cy="243.11602601249115" r="4" fill="#3b82f6" stroke="#0d1117" stroke-width="2" class="data-point"/>
  
    <circle cx="397.27272727272725" cy="240.6509561522117" r="4" fill="#3b82f6" stroke="#0d1117" stroke-width="2" class="data-point"/>
  
    <circle cx="403.6363636363636" cy="237.61090721782242" r="4" fill="#3b82f6" stroke="#0d1117" stroke-width="2" class="data-point"/>
  
    <circle cx="410" cy="235.3476917133475" r="4" fill="#3b82f6" stroke="#0d1117" stroke-width="2" class="data-point"/>
  
    <circle cx="416.3636363636363" cy="233.4698345244994" r="4" fill="#3b82f6" stroke="#0d1117" stroke-width="2" class="data-point"/>
  
    <circle cx="422.72727272727275" cy="231.6837293155624" r="4" fill="#3b82f6" stroke="#0d1117" stroke-width="2" class="data-point"/>
  
    <circle cx="429.09090909090907" cy="229.5367329856416" r="4" fill="#3b82f6" stroke="#0d1117" stroke-width="2" class="data-point"/>
  
    <circle cx="435.45454545454544" cy="227.04107913205848" r="4" fill="#3b82f6" stroke="#0d1117" stroke-width="2" class="data-point"/>
  
    <circle cx="441.8181818181818" cy="224.27628613740262" r="4" fill="#3b82f6" stroke="#0d1117" stroke-width="2" class="data-point"/>
  
    <circle cx="448.1818181818182" cy="221.37080677354967" r="4" fill="#3b82f6" stroke="#0d1117" stroke-width="2" class="data-point"/>
  
    <circle cx="454.5454545454545" cy="218.58154658425084" r="4" fill="#3b82f6" stroke="#0d1117" stroke-width="2" class="data-point"/>
  
    <circle cx="460.90909090909093" cy="216.12871032129289" r="4" fill="#3b82f6" stroke="#0d1117" stroke-width="2" class="data-point"/>
  
    <circle cx="467.27272727272725" cy="213.69422445431718" r="4" fill="#3b82f6" stroke="#0d1117" stroke-width="2" class="data-point"/>
  
    <circle cx="473.6363636363637" cy="211.54722812439636" r="4" fill="#3b82f6" stroke="#0d1117" stroke-width="2" class="data-point"/>
  
    <circle cx="480" cy="209.35741420385037" r="4" fill="#3b82f6" stroke="#0d1117" stroke-width="2" class="data-point"/>
  
    <circle cx="486.3636363636364" cy="206.91069473955315" r="4" fill="#3b82f6" stroke="#0d1117" stroke-width="2" class="data-point"/>
  
    <circle cx="492.7272727272727" cy="203.86452900650312" r="4" fill="#3b82f6" stroke="#0d1117" stroke-width="2" class="data-point"/>
  
    <circle cx="499.0909090909091" cy="201.59519670336746" r="4" fill="#3b82f6" stroke="#0d1117" stroke-width="2" class="data-point"/>
  
    <circle cx="505.45454545454544" cy="199.56441954800079" r="4" fill="#3b82f6" stroke="#0d1117" stroke-width="2" class="data-point"/>
  
    <circle cx="511.81818181818187" cy="197.30732084218658" r="4" fill="#3b82f6" stroke="#0d1117" stroke-width="2" class="data-point"/>
  
    <circle cx="518.1818181818182" cy="195.20314210289098" r="4" fill="#3b82f6" stroke="#0d1117" stroke-width="2" class="data-point"/>
  
    <circle cx="524.5454545454545" cy="192.89099220913013" r="4" fill="#3b82f6" stroke="#0d1117" stroke-width="2" class="data-point"/>
  
    <circle cx="530.909090909091" cy="190.4809735367974" r="4" fill="#3b82f6" stroke="#0d1117" stroke-width="2" class="data-point"/>
  
    <circle cx="537.2727272727273" cy="187.96085248857125" r="4" fill="#3b82f6" stroke="#0d1117" stroke-width="2" class="data-point"/>
  
    <circle cx="543.6363636363636" cy="185.752688172043" r="4" fill="#3b82f6" stroke="#0d1117" stroke-width="2" class="data-point"/>
  
    <circle cx="550" cy="183.8625973858734" r="4" fill="#3b82f6" stroke="#0d1117" stroke-width="2" class="data-point"/>
  
    <circle cx="556.3636363636364" cy="181.78900263988155" r="4" fill="#3b82f6" stroke="#0d1117" stroke-width="2" class="data-point"/>
  
    <circle cx="562.7272727272727" cy="179.54413753138883" r="4" fill="#3b82f6" stroke="#0d1117" stroke-width="2" class="data-point"/>
  
    <circle cx="569.0909090909091" cy="177.4644259867362" r="4" fill="#3b82f6" stroke="#0d1117" stroke-width="2" class="data-point"/>
  
    <circle cx="575.4545454545454" cy="174.75468418002703" r="4" fill="#3b82f6" stroke="#0d1117" stroke-width="2" class="data-point"/>
  
    <circle cx="581.8181818181819" cy="172.42418389028396" r="4" fill="#3b82f6" stroke="#0d1117" stroke-width="2" class="data-point"/>
  
    <circle cx="588.1818181818181" cy="170.17931878179124" r="4" fill="#3b82f6" stroke="#0d1117" stroke-width="2" class="data-point"/>
  
    <circle cx="594.5454545454546" cy="168.31369519026464" r="4" fill="#3b82f6" stroke="#0d1117" stroke-width="2" class="data-point"/>
  
    <circle cx="600.9090909090909" cy="166.50312278668468" r="4" fill="#3b82f6" stroke="#0d1117" stroke-width="2" class="data-point"/>
  
    <circle cx="607.2727272727273" cy="164.68643358444402" r="4" fill="#3b82f6" stroke="#0d1117" stroke-width="2" class="data-point"/>
  
    <circle cx="613.6363636363636" cy="162.51497005988023" r="4" fill="#3b82f6" stroke="#0d1117" stroke-width="2" class="data-point"/>
  
    <circle cx="620" cy="160.28233854870902" r="4" fill="#3b82f6" stroke="#0d1117" stroke-width="2" class="data-point"/>
  
    <circle cx="626.3636363636364" cy="157.57259674199986" r="4" fill="#3b82f6" stroke="#0d1117" stroke-width="2" class="data-point"/>
  
    <circle cx="632.7272727272727" cy="155.37666602279313" r="4" fill="#3b82f6" stroke="#0d1117" stroke-width="2" class="data-point"/>
  
    <circle cx="639.0909090909091" cy="153.5844440151954" r="4" fill="#3b82f6" stroke="#0d1117" stroke-width="2" class="data-point"/>
  
    <circle cx="645.4545454545454" cy="151.74328761831177" r="4" fill="#3b82f6" stroke="#0d1117" stroke-width="2" class="data-point"/>
  
    <circle cx="651.8181818181819" cy="149.98164960401778" r="4" fill="#3b82f6" stroke="#0d1117" stroke-width="2" class="data-point"/>
  
    <circle cx="658.1818181818181" cy="147.80406928079324" r="4" fill="#3b82f6" stroke="#0d1117" stroke-width="2" class="data-point"/>
  
    <circle cx="664.5454545454545" cy="145.57143776962204" r="4" fill="#3b82f6" stroke="#0d1117" stroke-width="2" class="data-point"/>
  
    <circle cx="670.9090909090909" cy="140.6351812504024" r="4" fill="#3b82f6" stroke="#0d1117" stroke-width="2" class="data-point"/>
  
    <circle cx="677.2727272727273" cy="130.81160260124912" r="4" fill="#3b82f6" stroke="#0d1117" stroke-width="2" class="data-point"/>
  
    <circle cx="683.6363636363636" cy="119.11016676324769" r="4" fill="#3b82f6" stroke="#0d1117" stroke-width="2" class="data-point"/>
  
    <circle cx="690" cy="108.44858669757261" r="4" fill="#3b82f6" stroke="#0d1117" stroke-width="2" class="data-point"/>
  
    <circle cx="696.3636363636364" cy="103.04133668147574" r="4" fill="#3b82f6" stroke="#0d1117" stroke-width="2" class="data-point"/>
  
    <circle cx="702.7272727272727" cy="94.89376086536603" r="4" fill="#3b82f6" stroke="#0d1117" stroke-width="2" class="data-point"/>
  
    <circle cx="709.0909090909091" cy="89.48039405060848" r="4" fill="#3b82f6" stroke="#0d1117" stroke-width="2" class="data-point"/>
  
    <circle cx="715.4545454545455" cy="84.73375828987184" r="4" fill="#3b82f6" stroke="#0d1117" stroke-width="2" class="data-point"/>
  
    <circle cx="721.8181818181818" cy="80.09110810636793" r="4" fill="#3b82f6" stroke="#0d1117" stroke-width="2" class="data-point"/>
  
    <circle cx="728.1818181818182" cy="75.71759706393664" r="4" fill="#3b82f6" stroke="#0d1117" stroke-width="2" class="data-point"/>
  
    <circle cx="734.5454545454545" cy="68.91571695319038" r="4" fill="#3b82f6" stroke="#0d1117" stroke-width="2" class="data-point"/>
  
    <circle cx="740.909090909091" cy="63.508466937093544" r="4" fill="#3b82f6" stroke="#0d1117" stroke-width="2" class="data-point"/>
  
    <circle cx="747.2727272727273" cy="56.59648445045394" r="4" fill="#3b82f6" stroke="#0d1117" stroke-width="2" class="data-point"/>
  
    <circle cx="753.6363636363636" cy="55.1835039598223" r="4" fill="#3b82f6" stroke="#0d1117" stroke-width="2" class="data-point"/>
  
    <circle cx="760" cy="55" r="4" fill="#3b82f6" stroke="#0d1117" stroke-width="2" class="data-point"/>
  

  <!-- Axis lines -->
  <line x1="60" y1="55" x2="60" y2="340"
        stroke="#30363d" stroke-width="2"/>
  <line x1="60" y1="340" x2="760" y2="340"
        stroke="#30363d" stroke-width="2"/>
</svg>