<?xml version="1.0" encoding="UTF-8"?>
<svg width="800" height="400" xmlns="http://www.w3.org/2000/svg">
  <defs>
    <!-- Gradient for area fill -->
    <linearGradient id="areaGradient" x1="0%" y1="0%" x2="0%" y2="100%">
      <stop offset="0%" style="stop-color:#3b82f6;stop-opacity:0.3" />
      <stop offset="100%" style="stop-color:#3b82f6;stop-opacity:0.05" />
    </linearGradient>

    <!-- Glow filter for line -->
    <filter id="glow">
      <feGaussianBlur stdDeviation="2" result="coloredBlur"/>
      <feMerge>
        <feMergeNode in="coloredBlur"/>
        <feMergeNode in="SourceGraphic"/>
      </feMerge>
    </filter>

    <!-- Animation -->
    <style>
      @keyframes draw {
        from { stroke-dashoffset: 2000; }
        to { stroke-dashoffset: 0; }
      }
      @keyframes fadeIn {
        from { opacity: 0; }
        to { opacity: 1; }
      }
      .line-path {
        stroke-dasharray: 2000;
        stroke-dashoffset: 2000;
        animation: draw 1.5s ease-out forwards;
      }
      .area-path {
        opacity: 0;
        animation: fadeIn 1s ease-out 0.5s forwards;
      }
      .data-point {
        opacity: 0;
        animation: fadeIn 0.5s ease-out 1s forwards;
      }
    </style>
  </defs>

  <!-- Background -->
  <rect width="800" height="400" fill="#0d1117" rx="8"/>

  <!-- Title -->
  <text x="400" y="25" text-anchor="middle" fill="#c9d1d9" font-family="system-ui, -apple-system, sans-serif" font-size="16" font-weight="600">
    zxcloli666/SoundCloud-Desktop Downloads
  </text>

  <!-- Stats -->
  <text x="780" y="25" text-anchor="end" fill="#58a6ff" font-family="system-ui, -apple-system, sans-serif" font-size="14" font-weight="600">
    305.8K total
  </text>
  <text x="780" y="42" text-anchor="end" fill="#3fb950" font-family="system-ui, -apple-system, sans-serif" font-size="12">
    +1.1K (+0.4%)
  </text>

  <!-- Grid lines -->
  <g opacity="0.1">
    
      <line x1="60" y1="340" x2="760" y2="340"
            stroke="#c9d1d9" stroke-width="1"/>
    
      <line x1="60" y1="268.75" x2="760" y2="268.75"
            stroke="#c9d1d9" stroke-width="1"/>
    
      <line x1="60" y1="197.5" x2="760" y2="197.5"
            stroke="#c9d1d9" stroke-width="1"/>
    
      <line x1="60" y1="126.25" x2="760" y2="126.25"
            stroke="#c9d1d9" stroke-width="1"/>
    
      <line x1="60" y1="55" x2="760" y2="55"
            stroke="#c9d1d9" stroke-width="1"/>
    
  </g>

  <!-- Y-axis labels -->
  
    <text x="50" y="344" text-anchor="end"
          fill="#8b949e" font-family="system-ui, -apple-system, sans-serif" font-size="11">
      60.2K
    </text>
  
    <text x="50" y="272.75" text-anchor="end"
          fill="#8b949e" font-family="system-ui, -apple-system, sans-serif" font-size="11">
      121.6K
    </text>
  
    <text x="50" y="201.5" text-anchor="end"
          fill="#8b949e" font-family="system-ui, -apple-system, sans-serif" font-size="11">
      183.0K
    </text>
  
    <text x="50" y="130.25" text-anchor="end"
          fill="#8b949e" font-family="system-ui, -apple-system, sans-serif" font-size="11">
      244.4K
    </text>
  
    <text x="50" y="59" text-anchor="end"
          fill="#8b949e" font-family="system-ui, -apple-system, sans-serif" font-size="11">
      305.8K
    </text>
  

  <!-- X-axis labels -->
  
    <text x="60" y="360" text-anchor="middle"
          fill="#8b949e" font-family="system-ui, -apple-system, sans-serif" font-size="11">
      Nov 25
    </text>
  
    <text x="146.45418326693226" y="360" text-anchor="middle"
          fill="#8b949e" font-family="system-ui, -apple-system, sans-serif" font-size="11">
      Dec 26
    </text>
  
    <text x="232.90836653386455" y="360" text-anchor="middle"
          fill="#8b949e" font-family="system-ui, -apple-system, sans-serif" font-size="11">
      Jan 26
    </text>
  
    <text x="319.36254980079684" y="360" text-anchor="middle"
          fill="#8b949e" font-family="system-ui, -apple-system, sans-serif" font-size="11">
      Feb 26
    </text>
  
    <text x="405.8167330677291" y="360" text-anchor="middle"
          fill="#8b949e" font-family="system-ui, -apple-system, sans-serif" font-size="11">
      Mar 29
    </text>
  
    <text x="492.27091633466136" y="360" text-anchor="middle"
          fill="#8b949e" font-family="system-ui, -apple-system, sans-serif" font-size="11">
      Apr 29
    </text>
  
    <text x="578.7250996015937" y="360" text-anchor="middle"
          fill="#8b949e" font-family="system-ui, -apple-system, sans-serif" font-size="11">
      May 30
    </text>
  
    <text x="665.1792828685259" y="360" text-anchor="middle"
          fill="#8b949e" font-family="system-ui, -apple-system, sans-serif" font-size="11">
      Jun 30
    </text>
  
    <text x="751.6334661354582" y="360" text-anchor="middle"
          fill="#8b949e" font-family="system-ui, -apple-system, sans-serif" font-size="11">
      Jul 31
    </text>
  
    <text x="760" y="360" text-anchor="middle"
          fill="#8b949e" font-family="system-ui, -apple-system, sans-serif" font-size="11">
      Aug 3
    </text>
  

  <!-- Area under line -->
  <path d="M 60 340
    L 60.00 340.00 L 62.79 339.83 L 65.58 339.54 L 68.37 339.27 L 71.16 338.74 L 73.94 338.18 L 76.73 337.75 L 79.52 337.34 L 82.31 336.98 L 85.10 336.56 L 87.89 336.09 L 90.68 335.58 L 93.47 335.12 L 96.25 334.63 L 99.04 334.28 L 101.83 333.91 L 104.62 333.40 L 107.41 333.07 L 110.20 332.61 L 112.99 332.07 L 115.78 331.67 L 118.57 331.33 L 121.35 331.12 L 124.14 330.94 L 126.93 330.61 L 129.72 330.37 L 132.51 329.86 L 135.30 329.65 L 138.09 329.39 L 140.88 329.05 L 143.67 328.82 L 146.45 328.59 L 149.24 328.34 L 152.03 328.17 L 154.82 328.02 L 157.61 327.79 L 160.40 327.52 L 163.19 327.26 L 165.98 326.94 L 168.76 326.60 L 171.55 326.27 L 174.34 325.89 L 177.13 325.51 L 179.92 325.13 L 182.71 324.71 L 185.50 324.32 L 188.29 323.86 L 191.08 323.46 L 193.86 323.12 L 196.65 322.84 L 199.44 322.46 L 202.23 322.02 L 205.02 321.62 L 207.81 321.15 L 210.60 320.58 L 213.39 320.15 L 216.18 319.79 L 218.96 319.45 L 221.75 319.05 L 224.54 318.57 L 227.33 318.05 L 230.12 317.50 L 232.91 316.97 L 235.70 316.50 L 238.49 316.04 L 241.27 315.63 L 244.06 315.22 L 246.85 314.75 L 249.64 314.18 L 252.43 313.75 L 255.22 313.36 L 258.01 312.93 L 260.80 312.53 L 263.59 312.09 L 266.37 311.64 L 269.16 311.16 L 271.95 310.74 L 274.74 310.38 L 277.53 309.99 L 280.32 309.56 L 283.11 309.17 L 285.90 308.65 L 288.69 308.21 L 291.47 307.79 L 294.26 307.43 L 297.05 307.09 L 299.84 306.74 L 302.63 306.33 L 305.42 305.91 L 308.21 305.40 L 311.00 304.98 L 313.78 304.64 L 316.57 304.29 L 319.36 303.96 L 322.15 303.54 L 324.94 303.12 L 327.73 302.18 L 330.52 300.32 L 333.31 298.10 L 336.10 296.08 L 338.88 295.05 L 341.67 293.51 L 344.46 292.48 L 347.25 291.58 L 350.04 290.70 L 352.83 289.87 L 355.62 288.58 L 358.41 287.55 L 361.20 286.24 L 363.98 285.97 L 366.77 285.94 L 369.56 285.89 L 372.35 285.86 L 375.14 285.81 L 377.93 285.76 L 380.72 285.74 L 383.51 285.68 L 386.29 285.62 L 389.08 285.58 L 391.87 285.56 L 394.66 285.49 L 397.45 283.81 L 400.24 281.18 L 403.03 279.41 L 405.82 277.36 L 408.61 275.25 L 411.39 273.59 L 414.18 271.74 L 416.97 268.92 L 419.76 265.11 L 422.55 262.63 L 425.34 259.68 L 428.13 256.38 L 430.92 253.74 L 433.71 250.88 L 436.49 248.33 L 439.28 245.81 L 442.07 243.30 L 444.86 239.88 L 447.65 236.45 L 450.44 233.59 L 453.23 231.19 L 456.02 228.87 L 458.80 225.78 L 461.59 223.39 L 464.38 221.02 L 467.17 218.81 L 469.96 216.72 L 472.75 214.58 L 475.54 212.75 L 478.33 210.86 L 481.12 208.93 L 483.90 206.89 L 486.69 205.01 L 489.48 203.30 L 492.27 200.19 L 495.06 197.59 L 497.85 195.09 L 500.64 192.69 L 503.43 188.90 L 506.22 186.50 L 509.00 184.42 L 511.79 181.97 L 514.58 178.36 L 517.37 175.75 L 520.16 173.56 L 522.95 171.70 L 525.74 169.94 L 528.53 168.51 L 531.31 166.89 L 534.10 165.58 L 536.89 164.02 L 539.68 161.79 L 542.47 159.87 L 545.26 158.20 L 548.05 156.76 L 550.84 155.27 L 553.63 154.01 L 556.41 151.90 L 559.20 150.10 L 561.99 148.31 L 564.78 146.83 L 567.57 145.48 L 570.36 144.27 L 573.15 142.21 L 575.94 140.53 L 578.73 139.01 L 581.51 137.55 L 584.30 136.28 L 587.09 135.04 L 589.88 133.91 L 592.67 132.82 L 595.46 131.83 L 598.25 130.58 L 601.04 129.25 L 603.82 128.02 L 606.61 126.11 L 609.40 124.73 L 612.19 123.41 L 614.98 122.24 L 617.77 120.88 L 620.56 119.21 L 623.35 117.73 L 626.14 116.40 L 628.92 114.97 L 631.71 112.98 L 634.50 111.35 L 637.29 109.61 L 640.08 107.87 L 642.87 106.25 L 645.66 104.66 L 648.45 102.97 L 651.24 101.46 L 654.02 100.14 L 656.81 98.91 L 659.60 97.62 L 662.39 96.35 L 665.18 95.21 L 667.97 94.07 L 670.76 92.97 L 673.55 91.88 L 676.33 90.79 L 679.12 89.83 L 681.91 88.72 L 684.70 87.57 L 687.49 86.25 L 690.28 84.99 L 693.07 83.86 L 695.86 82.87 L 698.65 81.84 L 701.43 80.91 L 704.22 79.84 L 707.01 78.78 L 709.80 77.78 L 712.59 76.75 L 715.38 75.65 L 718.17 74.58 L 720.96 73.54 L 723.75 72.64 L 726.53 71.71 L 729.32 70.75 L 732.11 69.73 L 734.90 68.43 L 737.69 66.77 L 740.48 65.01 L 743.27 63.44 L 746.06 62.78 L 748.84 60.89 L 751.63 58.86 L 754.42 57.47 L 757.21 56.29 L 760.00 55.00
    L 760 340
    Z" fill="url(#areaGradient)" class="area-path"/>

  <!-- Main line with glow -->
  <path d="M 60.00 340.00 L 62.79 339.83 L 65.58 339.54 L 68.37 339.27 L 71.16 338.74 L 73.94 338.18 L 76.73 337.75 L 79.52 337.34 L 82.31 336.98 L 85.10 336.56 L 87.89 336.09 L 90.68 335.58 L 93.47 335.12 L 96.25 334.63 L 99.04 334.28 L 101.83 333.91 L 104.62 333.40 L 107.41 333.07 L 110.20 332.61 L 112.99 332.07 L 115.78 331.67 L 118.57 331.33 L 121.35 331.12 L 124.14 330.94 L 126.93 330.61 L 129.72 330.37 L 132.51 329.86 L 135.30 329.65 L 138.09 329.39 L 140.88 329.05 L 143.67 328.82 L 146.45 328.59 L 149.24 328.34 L 152.03 328.17 L 154.82 328.02 L 157.61 327.79 L 160.40 327.52 L 163.19 327.26 L 165.98 326.94 L 168.76 326.60 L 171.55 326.27 L 174.34 325.89 L 177.13 325.51 L 179.92 325.13 L 182.71 324.71 L 185.50 324.32 L 188.29 323.86 L 191.08 323.46 L 193.86 323.12 L 196.65 322.84 L 199.44 322.46 L 202.23 322.02 L 205.02 321.62 L 207.81 321.15 L 210.60 320.58 L 213.39 320.15 L 216.18 319.79 L 218.96 319.45 L 221.75 319.05 L 224.54 318.57 L 227.33 318.05 L 230.12 317.50 L 232.91 316.97 L 235.70 316.50 L 238.49 316.04 L 241.27 315.63 L 244.06 315.22 L 246.85 314.75 L 249.64 314.18 L 252.43 313.75 L 255.22 313.36 L 258.01 312.93 L 260.80 312.53 L 263.59 312.09 L 266.37 311.64 L 269.16 311.16 L 271.95 310.74 L 274.74 310.38 L 277.53 309.99 L 280.32 309.56 L 283.11 309.17 L 285.90 308.65 L 288.69 308.21 L 291.47 307.79 L 294.26 307.43 L 297.05 307.09 L 299.84 306.74 L 302.63 306.33 L 305.42 305.91 L 308.21 305.40 L 311.00 304.98 L 313.78 304.64 L 316.57 304.29 L 319.36 303.96 L 322.15 303.54 L 324.94 303.12 L 327.73 302.18 L 330.52 300.32 L 333.31 298.10 L 336.10 296.08 L 338.88 295.05 L 341.67 293.51 L 344.46 292.48 L 347.25 291.58 L 350.04 290.70 L 352.83 289.87 L 355.62 288.58 L 358.41 287.55 L 361.20 286.24 L 363.98 285.97 L 366.77 285.94 L 369.56 285.89 L 372.35 285.86 L 375.14 285.81 L 377.93 285.76 L 380.72 285.74 L 383.51 285.68 L 386.29 285.62 L 389.08 285.58 L 391.87 285.56 L 394.66 285.49 L 397.45 283.81 L 400.24 281.18 L 403.03 279.41 L 405.82 277.36 L 408.61 275.25 L 411.39 273.59 L 414.18 271.74 L 416.97 268.92 L 419.76 265.11 L 422.55 262.63 L 425.34 259.68 L 428.13 256.38 L 430.92 253.74 L 433.71 250.88 L 436.49 248.33 L 439.28 245.81 L 442.07 243.30 L 444.86 239.88 L 447.65 236.45 L 450.44 233.59 L 453.23 231.19 L 456.02 228.87 L 458.80 225.78 L 461.59 223.39 L 464.38 221.02 L 467.17 218.81 L 469.96 216.72 L 472.75 214.58 L 475.54 212.75 L 478.33 210.86 L 481.12 208.93 L 483.90 206.89 L 486.69 205.01 L 489.48 203.30 L 492.27 200.19 L 495.06 197.59 L 497.85 195.09 L 500.64 192.69 L 503.43 188.90 L 506.22 186.50 L 509.00 184.42 L 511.79 181.97 L 514.58 178.36 L 517.37 175.75 L 520.16 173.56 L 522.95 171.70 L 525.74 169.94 L 528.53 168.51 L 531.31 166.89 L 534.10 165.58 L 536.89 164.02 L 539.68 161.79 L 542.47 159.87 L 545.26 158.20 L 548.05 156.76 L 550.84 155.27 L 553.63 154.01 L 556.41 151.90 L 559.20 150.10 L 561.99 148.31 L 564.78 146.83 L 567.57 145.48 L 570.36 144.27 L 573.15 142.21 L 575.94 140.53 L 578.73 139.01 L 581.51 137.55 L 584.30 136.28 L 587.09 135.04 L 589.88 133.91 L 592.67 132.82 L 595.46 131.83 L 598.25 130.58 L 601.04 129.25 L 603.82 128.02 L 606.61 126.11 L 609.40 124.73 L 612.19 123.41 L 614.98 122.24 L 617.77 120.88 L 620.56 119.21 L 623.35 117.73 L 626.14 116.40 L 628.92 114.97 L 631.71 112.98 L 634.50 111.35 L 637.29 109.61 L 640.08 107.87 L 642.87 106.25 L 645.66 104.66 L 648.45 102.97 L 651.24 101.46 L 654.02 100.14 L 656.81 98.91 L 659.60 97.62 L 662.39 96.35 L 665.18 95.21 L 667.97 94.07 L 670.76 92.97 L 673.55 91.88 L 676.33 90.79 L 679.12 89.83 L 681.91 88.72 L 684.70 87.57 L 687.49 86.25 L 690.28 84.99 L 693.07 83.86 L 695.86 82.87 L 698.65 81.84 L 701.43 80.91 L 704.22 79.84 L 707.01 78.78 L 709.80 77.78 L 712.59 76.75 L 715.38 75.65 L 718.17 74.58 L 720.96 73.54 L 723.75 72.64 L 726.53 71.71 L 729.32 70.75 L 732.11 69.73 L 734.90 68.43 L 737.69 66.77 L 740.48 65.01 L 743.27 63.44 L 746.06 62.78 L 748.84 60.89 L 751.63 58.86 L 754.42 57.47 L 757.21 56.29 L 760.00 55.00" fill="none" stroke="#3b82f6" stroke-width="3"
        stroke-linecap="round" stroke-linejoin="round" filter="url(#glow)" class="line-path"/>

  <!-- Data points -->
  
    <circle cx="60" cy="340" r="4" fill="#3b82f6" stroke="#0d1117" stroke-width="2" class="data-point"/>
  
    <circle cx="62.788844621513945" cy="339.8294371977136" r="4" fill="#3b82f6" stroke="#0d1117" stroke-width="2" class="data-point"/>
  
    <circle cx="65.57768924302789" cy="339.53936440470954" r="4" fill="#3b82f6" stroke="#0d1117" stroke-width="2" class="data-point"/>
  
    <circle cx="68.36653386454184" cy="339.2701768528018" r="4" fill="#3b82f6" stroke="#0d1117" stroke-width="2" class="data-point"/>
  
    <circle cx="71.15537848605578" cy="338.7352826225023" r="4" fill="#3b82f6" stroke="#0d1117" stroke-width="2" class="data-point"/>
  
    <circle cx="73.94422310756973" cy="338.1829840246226" r="4" fill="#3b82f6" stroke="#0d1117" stroke-width="2" class="data-point"/>
  
    <circle cx="76.73306772908367" cy="337.74787483511653" r="4" fill="#3b82f6" stroke="#0d1117" stroke-width="2" class="data-point"/>
  
    <circle cx="79.5219123505976" cy="337.34177292491086" r="4" fill="#3b82f6" stroke="#0d1117" stroke-width="2" class="data-point"/>
  
    <circle cx="82.31075697211155" cy="336.9809223704138" r="4" fill="#3b82f6" stroke="#0d1117" stroke-width="2" class="data-point"/>
  
    <circle cx="85.0996015936255" cy="336.5574160926279" r="4" fill="#3b82f6" stroke="#0d1117" stroke-width="2" class="data-point"/>
  
    <circle cx="87.88844621513944" cy="336.08517758561726" r="4" fill="#3b82f6" stroke="#0d1117" stroke-width="2" class="data-point"/>
  
    <circle cx="90.67729083665338" cy="335.5792906346182" r="4" fill="#3b82f6" stroke="#0d1117" stroke-width="2" class="data-point"/>
  
    <circle cx="93.46613545816733" cy="335.11981533049976" r="4" fill="#3b82f6" stroke="#0d1117" stroke-width="2" class="data-point"/>
  
    <circle cx="96.25498007968127" cy="334.63133274708093" r="4" fill="#3b82f6" stroke="#0d1117" stroke-width="2" class="data-point"/>
  
    <circle cx="99.04382470119522" cy="334.275123357272" r="4" fill="#3b82f6" stroke="#0d1117" stroke-width="2" class="data-point"/>
  
    <circle cx="101.83266932270917" cy="333.90615076457084" r="4" fill="#3b82f6" stroke="#0d1117" stroke-width="2" class="data-point"/>
  
    <circle cx="104.6215139442231" cy="333.4049049782598" r="4" fill="#3b82f6" stroke="#0d1117" stroke-width="2" class="data-point"/>
  
    <circle cx="107.41035856573706" cy="333.06958082954714" r="4" fill="#3b82f6" stroke="#0d1117" stroke-width="2" class="data-point"/>
  
    <circle cx="110.199203187251" cy="332.60546436074065" r="4" fill="#3b82f6" stroke="#0d1117" stroke-width="2" class="data-point"/>
  
    <circle cx="112.98804780876495" cy="332.06940983926916" r="4" fill="#3b82f6" stroke="#0d1117" stroke-width="2" class="data-point"/>
  
    <circle cx="115.77689243027888" cy="331.6656285114075" r="4" fill="#3b82f6" stroke="#0d1117" stroke-width="2" class="data-point"/>
  
    <circle cx="118.56573705179282" cy="331.3337852362109" r="4" fill="#3b82f6" stroke="#0d1117" stroke-width="2" class="data-point"/>
  
    <circle cx="121.35458167330677" cy="331.11913136938784" r="4" fill="#3b82f6" stroke="#0d1117" stroke-width="2" class="data-point"/>
  
    <circle cx="124.14342629482071" cy="330.9404465288974" r="4" fill="#3b82f6" stroke="#0d1117" stroke-width="2" class="data-point"/>
  
    <circle cx="126.93227091633466" cy="330.60976354487275" r="4" fill="#3b82f6" stroke="#0d1117" stroke-width="2" class="data-point"/>
  
    <circle cx="129.72111553784862" cy="330.37422443695345" r="4" fill="#3b82f6" stroke="#0d1117" stroke-width="2" class="data-point"/>
  
    <circle cx="132.50996015936255" cy="329.85789486540625" r="4" fill="#3b82f6" stroke="#0d1117" stroke-width="2" class="data-point"/>
  
    <circle cx="135.29880478087648" cy="329.6548439103034" r="4" fill="#3b82f6" stroke="#0d1117" stroke-width="2" class="data-point"/>
  
    <circle cx="138.08764940239044" cy="329.39261810542774" r="4" fill="#3b82f6" stroke="#0d1117" stroke-width="2" class="data-point"/>
  
    <circle cx="140.8764940239044" cy="329.053813083199" r="4" fill="#3b82f6" stroke="#0d1117" stroke-width="2" class="data-point"/>
  
    <circle cx="143.66533864541833" cy="328.82175484879576" r="4" fill="#3b82f6" stroke="#0d1117" stroke-width="2" class="data-point"/>
  
    <circle cx="146.45418326693226" cy="328.58621574087647" r="4" fill="#3b82f6" stroke="#0d1117" stroke-width="2" class="data-point"/>
  
    <circle cx="149.2430278884462" cy="328.339073721237" r="4" fill="#3b82f6" stroke="#0d1117" stroke-width="2" class="data-point"/>
  
    <circle cx="152.03187250996015" cy="328.1673506277786" r="4" fill="#3b82f6" stroke="#0d1117" stroke-width="2" class="data-point"/>
  
    <circle cx="154.8207171314741" cy="328.0188333577605" r="4" fill="#3b82f6" stroke="#0d1117" stroke-width="2" class="data-point"/>
  
    <circle cx="157.60956175298804" cy="327.7925765792173" r="4" fill="#3b82f6" stroke="#0d1117" stroke-width="2" class="data-point"/>
  
    <circle cx="160.398406374502" cy="327.5175875714495" r="4" fill="#3b82f6" stroke="#0d1117" stroke-width="2" class="data-point"/>
  
    <circle cx="163.18725099601596" cy="327.26464409594996" r="4" fill="#3b82f6" stroke="#0d1117" stroke-width="2" class="data-point"/>
  
    <circle cx="165.9760956175299" cy="326.9444037324735" r="4" fill="#3b82f6" stroke="#0d1117" stroke-width="2" class="data-point"/>
  
    <circle cx="168.76494023904382" cy="326.5951560896966" r="4" fill="#3b82f6" stroke="#0d1117" stroke-width="2" class="data-point"/>
  
    <circle cx="171.55378486055776" cy="326.2749157262201" r="4" fill="#3b82f6" stroke="#0d1117" stroke-width="2" class="data-point"/>
  
    <circle cx="174.34262948207171" cy="325.88853876593873" r="4" fill="#3b82f6" stroke="#0d1117" stroke-width="2" class="data-point"/>
  
    <circle cx="177.13147410358565" cy="325.50912355268946" r="4" fill="#3b82f6" stroke="#0d1117" stroke-width="2" class="data-point"/>
  
    <circle cx="179.9203187250996" cy="325.1297083394401" r="4" fill="#3b82f6" stroke="#0d1117" stroke-width="2" class="data-point"/>
  
    <circle cx="182.70916334661354" cy="324.71432409985835" r="4" fill="#3b82f6" stroke="#0d1117" stroke-width="2" class="data-point"/>
  
    <circle cx="185.4980079681275" cy="324.3175045190288" r="4" fill="#3b82f6" stroke="#0d1117" stroke-width="2" class="data-point"/>
  
    <circle cx="188.28685258964143" cy="323.8638306707704" r="4" fill="#3b82f6" stroke="#0d1117" stroke-width="2" class="data-point"/>
  
    <circle cx="191.0756972111554" cy="323.4588890517368" r="4" fill="#3b82f6" stroke="#0d1117" stroke-width="2" class="data-point"/>
  
    <circle cx="193.86454183266932" cy="323.116603155992" r="4" fill="#3b82f6" stroke="#0d1117" stroke-width="2" class="data-point"/>
  
    <circle cx="196.65338645418325" cy="322.8427744393962" r="4" fill="#3b82f6" stroke="#0d1117" stroke-width="2" class="data-point"/>
  
    <circle cx="199.4422310756972" cy="322.4598783526308" r="4" fill="#3b82f6" stroke="#0d1117" stroke-width="2" class="data-point"/>
  
    <circle cx="202.23107569721117" cy="322.0224485807807" r="4" fill="#3b82f6" stroke="#0d1117" stroke-width="2" class="data-point"/>
  
    <circle cx="205.0199203187251" cy="321.6221481264351" r="4" fill="#3b82f6" stroke="#0d1117" stroke-width="2" class="data-point"/>
  
    <circle cx="207.80876494023906" cy="321.15455078411253" r="4" fill="#3b82f6" stroke="#0d1117" stroke-width="2" class="data-point"/>
  
    <circle cx="210.597609561753" cy="320.57788607162047" r="4" fill="#3b82f6" stroke="#0d1117" stroke-width="2" class="data-point"/>
  
    <circle cx="213.38645418326692" cy="320.1485783379745" r="4" fill="#3b82f6" stroke="#0d1117" stroke-width="2" class="data-point"/>
  
    <circle cx="216.17529880478088" cy="319.7923689481655" r="4" fill="#3b82f6" stroke="#0d1117" stroke-width="2" class="data-point"/>
  
    <circle cx="218.9641434262948" cy="319.4535639259368" r="4" fill="#3b82f6" stroke="#0d1117" stroke-width="2" class="data-point"/>
  
    <circle cx="221.75298804780877" cy="319.0463017245591" r="4" fill="#3b82f6" stroke="#0d1117" stroke-width="2" class="data-point"/>
  
    <circle cx="224.54183266932273" cy="318.57290292637646" r="4" fill="#3b82f6" stroke="#0d1117" stroke-width="2" class="data-point"/>
  
    <circle cx="227.33067729083666" cy="318.0484513166251" r="4" fill="#3b82f6" stroke="#0d1117" stroke-width="2" class="data-point"/>
  
    <circle cx="230.1195219123506" cy="317.49731300991743" r="4" fill="#3b82f6" stroke="#0d1117" stroke-width="2" class="data-point"/>
  
    <circle cx="232.90836653386455" cy="316.96822023547804" r="4" fill="#3b82f6" stroke="#0d1117" stroke-width="2" class="data-point"/>
  
    <circle cx="235.69721115537848" cy="316.50294347549953" r="4" fill="#3b82f6" stroke="#0d1117" stroke-width="2" class="data-point"/>
  
    <circle cx="238.4860557768924" cy="316.04114758903705" r="4" fill="#3b82f6" stroke="#0d1117" stroke-width="2" class="data-point"/>
  
    <circle cx="241.27490039840637" cy="315.6338853876594" r="4" fill="#3b82f6" stroke="#0d1117" stroke-width="2" class="data-point"/>
  
    <circle cx="244.0637450199203" cy="315.21850114807756" r="4" fill="#3b82f6" stroke="#0d1117" stroke-width="2" class="data-point"/>
  
    <circle cx="246.85258964143426" cy="314.7543846792711" r="4" fill="#3b82f6" stroke="#0d1117" stroke-width="2" class="data-point"/>
  
    <circle cx="249.6414342629482" cy="314.176559675607" r="4" fill="#3b82f6" stroke="#0d1117" stroke-width="2" class="data-point"/>
  
    <circle cx="252.43027888446213" cy="313.746091650789" r="4" fill="#3b82f6" stroke="#0d1117" stroke-width="2" class="data-point"/>
  
    <circle cx="255.21912350597609" cy="313.3608749816796" r="4" fill="#3b82f6" stroke="#0d1117" stroke-width="2" class="data-point"/>
  
    <circle cx="258.00796812749" cy="312.93272753920564" r="4" fill="#3b82f6" stroke="#0d1117" stroke-width="2" class="data-point"/>
  
    <circle cx="260.796812749004" cy="312.5335873760321" r="4" fill="#3b82f6" stroke="#0d1117" stroke-width="2" class="data-point"/>
  
    <circle cx="263.58565737051794" cy="312.0949973130099" r="4" fill="#3b82f6" stroke="#0d1117" stroke-width="2" class="data-point"/>
  
    <circle cx="266.3745019920319" cy="311.63784259123554" r="4" fill="#3b82f6" stroke="#0d1117" stroke-width="2" class="data-point"/>
  
    <circle cx="269.16334661354585" cy="311.15980262836484" r="4" fill="#3b82f6" stroke="#0d1117" stroke-width="2" class="data-point"/>
  
    <circle cx="271.9521912350598" cy="310.740937515267" r="4" fill="#3b82f6" stroke="#0d1117" stroke-width="2" class="data-point"/>
  
    <circle cx="274.7410358565737" cy="310.38240754311397" r="4" fill="#3b82f6" stroke="#0d1117" stroke-width="2" class="data-point"/>
  
    <circle cx="277.52988047808765" cy="309.9890688358005" r="4" fill="#3b82f6" stroke="#0d1117" stroke-width="2" class="data-point"/>
  
    <circle cx="280.3187250996016" cy="309.5632419756705" r="4" fill="#3b82f6" stroke="#0d1117" stroke-width="2" class="data-point"/>
  
    <circle cx="283.1075697211155" cy="309.168742977185" r="4" fill="#3b82f6" stroke="#0d1117" stroke-width="2" class="data-point"/>
  
    <circle cx="285.89641434262944" cy="308.65473398798184" r="4" fill="#3b82f6" stroke="#0d1117" stroke-width="2" class="data-point"/>
  
    <circle cx="288.68525896414343" cy="308.21266305144366" r="4" fill="#3b82f6" stroke="#0d1117" stroke-width="2" class="data-point"/>
  
    <circle cx="291.47410358565736" cy="307.7868361913137" r="4" fill="#3b82f6" stroke="#0d1117" stroke-width="2" class="data-point"/>
  
    <circle cx="294.2629482071713" cy="307.4329473838487" r="4" fill="#3b82f6" stroke="#0d1117" stroke-width="2" class="data-point"/>
  
    <circle cx="297.0517928286853" cy="307.08950119693196" r="4" fill="#3b82f6" stroke="#0d1117" stroke-width="2" class="data-point"/>
  
    <circle cx="299.8406374501992" cy="306.7448947188431" r="4" fill="#3b82f6" stroke="#0d1117" stroke-width="2" class="data-point"/>
  
    <circle cx="302.62948207171314" cy="306.33299135277736" r="4" fill="#3b82f6" stroke="#0d1117" stroke-width="2" class="data-point"/>
  
    <circle cx="305.4183266932271" cy="305.90948507499144" r="4" fill="#3b82f6" stroke="#0d1117" stroke-width="2" class="data-point"/>
  
    <circle cx="308.20717131474106" cy="305.3954760857883" r="4" fill="#3b82f6" stroke="#0d1117" stroke-width="2" class="data-point"/>
  
    <circle cx="310.996015936255" cy="304.9789315550344" r="4" fill="#3b82f6" stroke="#0d1117" stroke-width="2" class="data-point"/>
  
    <circle cx="313.7848605577689" cy="304.6389662416337" r="4" fill="#3b82f6" stroke="#0d1117" stroke-width="2" class="data-point"/>
  
    <circle cx="316.57370517928285" cy="304.2897185988568" r="4" fill="#3b82f6" stroke="#0d1117" stroke-width="2" class="data-point"/>
  
    <circle cx="319.36254980079684" cy="303.9555547413161" r="4" fill="#3b82f6" stroke="#0d1117" stroke-width="2" class="data-point"/>
  
    <circle cx="322.1513944223108" cy="303.5424910840784" r="4" fill="#3b82f6" stroke="#0d1117" stroke-width="2" class="data-point"/>
  
    <circle cx="324.9402390438247" cy="303.1189848062924" r="4" fill="#3b82f6" stroke="#0d1117" stroke-width="2" class="data-point"/>
  
    <circle cx="327.72908366533864" cy="302.1826298304754" r="4" fill="#3b82f6" stroke="#0d1117" stroke-width="2" class="data-point"/>
  
    <circle cx="330.51792828685257" cy="300.3192022082173" r="4" fill="#3b82f6" stroke="#0d1117" stroke-width="2" class="data-point"/>
  
    <circle cx="333.3067729083665" cy="298.09956519615025" r="4" fill="#3b82f6" stroke="#0d1117" stroke-width="2" class="data-point"/>
  
    <circle cx="336.0956175298805" cy="296.077177683326" r="4" fill="#3b82f6" stroke="#0d1117" stroke-width="2" class="data-point"/>
  
    <circle cx="338.8844621513944" cy="295.05148028726364" r="4" fill="#3b82f6" stroke="#0d1117" stroke-width="2" class="data-point"/>
  
    <circle cx="341.67330677290835" cy="293.50597244613806" r="4" fill="#3b82f6" stroke="#0d1117" stroke-width="2" class="data-point"/>
  
    <circle cx="344.46215139442234" cy="292.47911475890373" r="4" fill="#3b82f6" stroke="#0d1117" stroke-width="2" class="data-point"/>
  
    <circle cx="347.25099601593627" cy="291.57872880941915" r="4" fill="#3b82f6" stroke="#0d1117" stroke-width="2" class="data-point"/>
  
    <circle cx="350.0398406374502" cy="290.6980678098588" r="4" fill="#3b82f6" stroke="#0d1117" stroke-width="2" class="data-point"/>
  
    <circle cx="352.82868525896413" cy="289.8684596218672" r="4" fill="#3b82f6" stroke="#0d1117" stroke-width="2" class="data-point"/>
  
    <circle cx="355.6175298804781" cy="288.57821583858515" r="4" fill="#3b82f6" stroke="#0d1117" stroke-width="2" class="data-point"/>
  
    <circle cx="358.40637450199205" cy="287.55251844252285" r="4" fill="#3b82f6" stroke="#0d1117" stroke-width="2" class="data-point"/>
  
    <circle cx="361.195219123506" cy="286.24138941814454" r="4" fill="#3b82f6" stroke="#0d1117" stroke-width="2" class="data-point"/>
  
    <circle cx="363.9840637450199" cy="285.97336215740876" r="4" fill="#3b82f6" stroke="#0d1117" stroke-width="2" class="data-point"/>
  
    <circle cx="366.77290836653384" cy="285.9385534222483" r="4" fill="#3b82f6" stroke="#0d1117" stroke-width="2" class="data-point"/>
  
    <circle cx="369.56175298804783" cy="285.89330206653966" r="4" fill="#3b82f6" stroke="#0d1117" stroke-width="2" class="data-point"/>
  
    <circle cx="372.35059760956176" cy="285.8550124578631" r="4" fill="#3b82f6" stroke="#0d1117" stroke-width="2" class="data-point"/>
  
    <circle cx="375.1394422310757" cy="285.80511993746643" r="4" fill="#3b82f6" stroke="#0d1117" stroke-width="2" class="data-point"/>
  
    <circle cx="377.9282868525896" cy="285.7610288729298" r="4" fill="#3b82f6" stroke="#0d1117" stroke-width="2" class="data-point"/>
  
    <circle cx="380.71713147410355" cy="285.74362450534954" r="4" fill="#3b82f6" stroke="#0d1117" stroke-width="2" class="data-point"/>
  
    <circle cx="383.50597609561754" cy="285.67980849088866" r="4" fill="#3b82f6" stroke="#0d1117" stroke-width="2" class="data-point"/>
  
    <circle cx="386.2948207171315" cy="285.61831305877183" r="4" fill="#3b82f6" stroke="#0d1117" stroke-width="2" class="data-point"/>
  
    <circle cx="389.08366533864546" cy="285.5777028677512" r="4" fill="#3b82f6" stroke="#0d1117" stroke-width="2" class="data-point"/>
  
    <circle cx="391.8725099601594" cy="285.562619082515" r="4" fill="#3b82f6" stroke="#0d1117" stroke-width="2" class="data-point"/>
  
    <circle cx="394.6613545816733" cy="285.49416190336603" r="4" fill="#3b82f6" stroke="#0d1117" stroke-width="2" class="data-point"/>
  
    <circle cx="397.45019920318725" cy="283.8117397039425" r="4" fill="#3b82f6" stroke="#0d1117" stroke-width="2" class="data-point"/>
  
    <circle cx="400.2390438247012" cy="281.1767184522937" r="4" fill="#3b82f6" stroke="#0d1117" stroke-width="2" class="data-point"/>
  
    <circle cx="403.0278884462152" cy="279.41191557965703" r="4" fill="#3b82f6" stroke="#0d1117" stroke-width="2" class="data-point"/>
  
    <circle cx="405.8167330677291" cy="277.3628413698764" r="4" fill="#3b82f6" stroke="#0d1117" stroke-width="2" class="data-point"/>
  
    <circle cx="408.60557768924303" cy="275.25111143680687" r="4" fill="#3b82f6" stroke="#0d1117" stroke-width="2" class="data-point"/>
  
    <circle cx="411.39442231075697" cy="273.59421564316773" r="4" fill="#3b82f6" stroke="#0d1117" stroke-width="2" class="data-point"/>
  
    <circle cx="414.1832669322709" cy="271.74123064145783" r="4" fill="#3b82f6" stroke="#0d1117" stroke-width="2" class="data-point"/>
  
    <circle cx="416.9721115537848" cy="268.91824221994233" r="4" fill="#3b82f6" stroke="#0d1117" stroke-width="2" class="data-point"/>
  
    <circle cx="419.7609561752988" cy="265.11364746690117" r="4" fill="#3b82f6" stroke="#0d1117" stroke-width="2" class="data-point"/>
  
    <circle cx="422.54980079681275" cy="262.63062435878646" r="4" fill="#3b82f6" stroke="#0d1117" stroke-width="2" class="data-point"/>
  
    <circle cx="425.3386454183267" cy="259.67536274366114" r="4" fill="#3b82f6" stroke="#0d1117" stroke-width="2" class="data-point"/>
  
    <circle cx="428.1274900398406" cy="256.38245639747913" r="4" fill="#3b82f6" stroke="#0d1117" stroke-width="2" class="data-point"/>
  
    <circle cx="430.91633466135454" cy="253.7416336899702" r="4" fill="#3b82f6" stroke="#0d1117" stroke-width="2" class="data-point"/>
  
    <circle cx="433.7051792828685" cy="250.87571449509014" r="4" fill="#3b82f6" stroke="#0d1117" stroke-width="2" class="data-point"/>
  
    <circle cx="436.49402390438246" cy="248.33351653720263" r="4" fill="#3b82f6" stroke="#0d1117" stroke-width="2" class="data-point"/>
  
    <circle cx="439.2828685258964" cy="245.81452440275538" r="4" fill="#3b82f6" stroke="#0d1117" stroke-width="2" class="data-point"/>
  
    <circle cx="442.0717131474103" cy="243.30249401534027" r="4" fill="#3b82f6" stroke="#0d1117" stroke-width="2" class="data-point"/>
  
    <circle cx="444.86055776892425" cy="239.88195564023647" r="4" fill="#3b82f6" stroke="#0d1117" stroke-width="2" class="data-point"/>
  
    <circle cx="447.64940239043824" cy="236.4509746445845" r="4" fill="#3b82f6" stroke="#0d1117" stroke-width="2" class="data-point"/>
  
    <circle cx="450.43824701195217" cy="233.59085690556452" r="4" fill="#3b82f6" stroke="#0d1117" stroke-width="2" class="data-point"/>
  
    <circle cx="453.2270916334661" cy="231.193695344179" r="4" fill="#3b82f6" stroke="#0d1117" stroke-width="2" class="data-point"/>
  
    <circle cx="456.0159362549801" cy="228.86847183545848" r="4" fill="#3b82f6" stroke="#0d1117" stroke-width="2" class="data-point"/>
  
    <circle cx="458.8047808764941" cy="225.78209731789536" r="4" fill="#3b82f6" stroke="#0d1117" stroke-width="2" class="data-point"/>
  
    <circle cx="461.593625498008" cy="223.3884166300259" r="4" fill="#3b82f6" stroke="#0d1117" stroke-width="2" class="data-point"/>
  
    <circle cx="464.38247011952194" cy="221.0202623479408" r="4" fill="#3b82f6" stroke="#0d1117" stroke-width="2" class="data-point"/>
  
    <circle cx="467.17131474103587" cy="218.80526650056183" r="4" fill="#3b82f6" stroke="#0d1117" stroke-width="2" class="data-point"/>
  
    <circle cx="469.9601593625498" cy="216.71906297327666" r="4" fill="#3b82f6" stroke="#0d1117" stroke-width="2" class="data-point"/>
  
    <circle cx="472.7490039840638" cy="214.58180663442278" r="4" fill="#3b82f6" stroke="#0d1117" stroke-width="2" class="data-point"/>
  
    <circle cx="475.5378486055777" cy="212.75434803849726" r="4" fill="#3b82f6" stroke="#0d1117" stroke-width="2" class="data-point"/>
  
    <circle cx="478.32669322709165" cy="210.8619131369388" r="4" fill="#3b82f6" stroke="#0d1117" stroke-width="2" class="data-point"/>
  
    <circle cx="481.1155378486056" cy="208.93002833553177" r="4" fill="#3b82f6" stroke="#0d1117" stroke-width="2" class="data-point"/>
  
    <circle cx="483.9043824701195" cy="206.88791587278322" r="4" fill="#3b82f6" stroke="#0d1117" stroke-width="2" class="data-point"/>
  
    <circle cx="486.6932270916335" cy="205.01404562997703" r="4" fill="#3b82f6" stroke="#0d1117" stroke-width="2" class="data-point"/>
  
    <circle cx="489.48207171314743" cy="203.29797498656504" r="4" fill="#3b82f6" stroke="#0d1117" stroke-width="2" class="data-point"/>
  
    <circle cx="492.27091633466136" cy="200.18839464556157" r="4" fill="#3b82f6" stroke="#0d1117" stroke-width="2" class="data-point"/>
  
    <circle cx="495.0597609561753" cy="197.5858615467292" r="4" fill="#3b82f6" stroke="#0d1117" stroke-width="2" class="data-point"/>
  
    <circle cx="497.8486055776892" cy="195.08659436220628" r="4" fill="#3b82f6" stroke="#0d1117" stroke-width="2" class="data-point"/>
  
    <circle cx="500.63745019920316" cy="192.68595192730473" r="4" fill="#3b82f6" stroke="#0d1117" stroke-width="2" class="data-point"/>
  
    <circle cx="503.42629482071715" cy="188.8952806683277" r="4" fill="#3b82f6" stroke="#0d1117" stroke-width="2" class="data-point"/>
  
    <circle cx="506.2151394422311" cy="186.49695881577017" r="4" fill="#3b82f6" stroke="#0d1117" stroke-width="2" class="data-point"/>
  
    <circle cx="509.003984063745" cy="184.42119790903317" r="4" fill="#3b82f6" stroke="#0d1117" stroke-width="2" class="data-point"/>
  
    <circle cx="511.79282868525894" cy="181.9695026625629" r="4" fill="#3b82f6" stroke="#0d1117" stroke-width="2" class="data-point"/>
  
    <circle cx="514.5816733067729" cy="178.35519566173238" r="4" fill="#3b82f6" stroke="#0d1117" stroke-width="2" class="data-point"/>
  
    <circle cx="517.3705179282869" cy="175.75498314524404" r="4" fill="#3b82f6" stroke="#0d1117" stroke-width="2" class="data-point"/>
  
    <circle cx="520.1593625498008" cy="173.55971224778935" r="4" fill="#3b82f6" stroke="#0d1117" stroke-width="2" class="data-point"/>
  
    <circle cx="522.9482071713147" cy="171.70208608139137" r="4" fill="#3b82f6" stroke="#0d1117" stroke-width="2" class="data-point"/>
  
    <circle cx="525.7370517928287" cy="169.93960379109873" r="4" fill="#3b82f6" stroke="#0d1117" stroke-width="2" class="data-point"/>
  
    <circle cx="528.5258964143426" cy="168.5066441936587" r="4" fill="#3b82f6" stroke="#0d1117" stroke-width="2" class="data-point"/>
  
    <circle cx="531.3147410358565" cy="166.89267917338412" r="4" fill="#3b82f6" stroke="#0d1117" stroke-width="2" class="data-point"/>
  
    <circle cx="534.1035856573706" cy="165.57690898431775" r="4" fill="#3b82f6" stroke="#0d1117" stroke-width="2" class="data-point"/>
  
    <circle cx="536.8924302788844" cy="164.02443939616006" r="4" fill="#3b82f6" stroke="#0d1117" stroke-width="2" class="data-point"/>
  
    <circle cx="539.6812749003984" cy="161.78971859885678" r="4" fill="#3b82f6" stroke="#0d1117" stroke-width="2" class="data-point"/>
  
    <circle cx="542.4701195219125" cy="159.86943670916995" r="4" fill="#3b82f6" stroke="#0d1117" stroke-width="2" class="data-point"/>
  
    <circle cx="545.2589641434263" cy="158.19977771263862" r="4" fill="#3b82f6" stroke="#0d1117" stroke-width="2" class="data-point"/>
  
    <circle cx="548.0478087649403" cy="156.75637549465046" r="4" fill="#3b82f6" stroke="#0d1117" stroke-width="2" class="data-point"/>
  
    <circle cx="550.8366533864541" cy="155.26772192095365" r="4" fill="#3b82f6" stroke="#0d1117" stroke-width="2" class="data-point"/>
  
    <circle cx="553.6254980079682" cy="154.01228687283208" r="4" fill="#3b82f6" stroke="#0d1117" stroke-width="2" class="data-point"/>
  
    <circle cx="556.4143426294821" cy="151.9017172309346" r="4" fill="#3b82f6" stroke="#0d1117" stroke-width="2" class="data-point"/>
  
    <circle cx="559.203187250996" cy="150.09746445844937" r="4" fill="#3b82f6" stroke="#0d1117" stroke-width="2" class="data-point"/>
  
    <circle cx="561.99203187251" cy="148.30829547120035" r="4" fill="#3b82f6" stroke="#0d1117" stroke-width="2" class="data-point"/>
  
    <circle cx="564.7808764940239" cy="146.8312448092237" r="4" fill="#3b82f6" stroke="#0d1117" stroke-width="2" class="data-point"/>
  
    <circle cx="567.5697211155378" cy="145.47602472030877" r="4" fill="#3b82f6" stroke="#0d1117" stroke-width="2" class="data-point"/>
  
    <circle cx="570.3585657370518" cy="144.27280277492792" r="4" fill="#3b82f6" stroke="#0d1117" stroke-width="2" class="data-point"/>
  
    <circle cx="573.1474103585657" cy="142.2098050710831" r="4" fill="#3b82f6" stroke="#0d1117" stroke-width="2" class="data-point"/>
  
    <circle cx="575.9362549800796" cy="140.53434461869168" r="4" fill="#3b82f6" stroke="#0d1117" stroke-width="2" class="data-point"/>
  
    <circle cx="578.7250996015937" cy="139.00740143631833" r="4" fill="#3b82f6" stroke="#0d1117" stroke-width="2" class="data-point"/>
  
    <circle cx="581.5139442231076" cy="137.54891543309395" r="4" fill="#3b82f6" stroke="#0d1117" stroke-width="2" class="data-point"/>
  
    <circle cx="584.3027888446215" cy="136.27607601739214" r="4" fill="#3b82f6" stroke="#0d1117" stroke-width="2" class="data-point"/>
  
    <circle cx="587.0916334661355" cy="135.0403659191949" r="4" fill="#3b82f6" stroke="#0d1117" stroke-width="2" class="data-point"/>
  
    <circle cx="589.8804780876494" cy="133.90792173530704" r="4" fill="#3b82f6" stroke="#0d1117" stroke-width="2" class="data-point"/>
  
    <circle cx="592.6693227091633" cy="132.82188919829986" r="4" fill="#3b82f6" stroke="#0d1117" stroke-width="2" class="data-point"/>
  
    <circle cx="595.4581673306773" cy="131.82635937270996" r="4" fill="#3b82f6" stroke="#0d1117" stroke-width="2" class="data-point"/>
  
    <circle cx="598.2470119521912" cy="130.58368752748058" r="4" fill="#3b82f6" stroke="#0d1117" stroke-width="2" class="data-point"/>
  
    <circle cx="601.0358565737051" cy="129.24935267966194" r="4" fill="#3b82f6" stroke="#0d1117" stroke-width="2" class="data-point"/>
  
    <circle cx="603.8247011952191" cy="128.02176461966874" r="4" fill="#3b82f6" stroke="#0d1117" stroke-width="2" class="data-point"/>
  
    <circle cx="606.613545816733" cy="126.1142459328741" r="4" fill="#3b82f6" stroke="#0d1117" stroke-width="2" class="data-point"/>
  
    <circle cx="609.402390438247" cy="124.73001856465876" r="4" fill="#3b82f6" stroke="#0d1117" stroke-width="2" class="data-point"/>
  
    <circle cx="612.191235059761" cy="123.40612633738823" r="4" fill="#3b82f6" stroke="#0d1117" stroke-width="2" class="data-point"/>
  
    <circle cx="614.9800796812749" cy="122.2446748742" r="4" fill="#3b82f6" stroke="#0d1117" stroke-width="2" class="data-point"/>
  
    <circle cx="617.7689243027888" cy="120.88249303825299" r="4" fill="#3b82f6" stroke="#0d1117" stroke-width="2" class="data-point"/>
  
    <circle cx="620.5577689243028" cy="119.20935316820558" r="4" fill="#3b82f6" stroke="#0d1117" stroke-width="2" class="data-point"/>
  
    <circle cx="623.3466135458167" cy="117.72650105036885" r="4" fill="#3b82f6" stroke="#0d1117" stroke-width="2" class="data-point"/>
  
    <circle cx="626.1354581673306" cy="116.40260882309835" r="4" fill="#3b82f6" stroke="#0d1117" stroke-width="2" class="data-point"/>
  
    <circle cx="628.9243027888447" cy="114.96500806097026" r="4" fill="#3b82f6" stroke="#0d1117" stroke-width="2" class="data-point"/>
  
    <circle cx="631.7131474103586" cy="112.98207044799454" r="4" fill="#3b82f6" stroke="#0d1117" stroke-width="2" class="data-point"/>
  
    <circle cx="634.5019920318725" cy="111.35418193365575" r="4" fill="#3b82f6" stroke="#0d1117" stroke-width="2" class="data-point"/>
  
    <circle cx="637.2908366533865" cy="109.60794371977138" r="4" fill="#3b82f6" stroke="#0d1117" stroke-width="2" class="data-point"/>
  
    <circle cx="640.0796812749004" cy="107.86750696174704" r="4" fill="#3b82f6" stroke="#0d1117" stroke-width="2" class="data-point"/>
  
    <circle cx="642.8685258964143" cy="106.24658019444038" r="4" fill="#3b82f6" stroke="#0d1117" stroke-width="2" class="data-point"/>
  
    <circle cx="645.6573705179283" cy="104.65582099760613" r="4" fill="#3b82f6" stroke="#0d1117" stroke-width="2" class="data-point"/>
  
    <circle cx="648.4462151394423" cy="102.97223850701059" r="4" fill="#3b82f6" stroke="#0d1117" stroke-width="2" class="data-point"/>
  
    <circle cx="651.2350597609562" cy="101.46269969221748" r="4" fill="#3b82f6" stroke="#0d1117" stroke-width="2" class="data-point"/>
  
    <circle cx="654.0239043824702" cy="100.139967756119" r="4" fill="#3b82f6" stroke="#0d1117" stroke-width="2" class="data-point"/>
  
    <circle cx="656.8127490039841" cy="98.9147002784699" r="4" fill="#3b82f6" stroke="#0d1117" stroke-width="2" class="data-point"/>
  
    <circle cx="659.601593625498" cy="97.61865503932773" r="4" fill="#3b82f6" stroke="#0d1117" stroke-width="2" class="data-point"/>
  
    <circle cx="662.390438247012" cy="96.35393766183009" r="4" fill="#3b82f6" stroke="#0d1117" stroke-width="2" class="data-point"/>
  
    <circle cx="665.1792828685259" cy="95.21105085739413" r="4" fill="#3b82f6" stroke="#0d1117" stroke-width="2" class="data-point"/>
  
    <circle cx="667.9681274900398" cy="94.06584347061408" r="4" fill="#3b82f6" stroke="#0d1117" stroke-width="2" class="data-point"/>
  
    <circle cx="670.7569721115538" cy="92.9693683130588" r="4" fill="#3b82f6" stroke="#0d1117" stroke-width="2" class="data-point"/>
  
    <circle cx="673.5458167330677" cy="91.87985490253556" r="4" fill="#3b82f6" stroke="#0d1117" stroke-width="2" class="data-point"/>
  
    <circle cx="676.3346613545817" cy="90.79266207435634" r="4" fill="#3b82f6" stroke="#0d1117" stroke-width="2" class="data-point"/>
  
    <circle cx="679.1235059760957" cy="89.83310127509893" r="4" fill="#3b82f6" stroke="#0d1117" stroke-width="2" class="data-point"/>
  
    <circle cx="681.9123505976096" cy="88.71690116761931" r="4" fill="#3b82f6" stroke="#0d1117" stroke-width="2" class="data-point"/>
  
    <circle cx="684.7011952191235" cy="87.56589232497922" r="4" fill="#3b82f6" stroke="#0d1117" stroke-width="2" class="data-point"/>
  
    <circle cx="687.4900398406375" cy="86.2547633006009" r="4" fill="#3b82f6" stroke="#0d1117" stroke-width="2" class="data-point"/>
  
    <circle cx="690.2788844621514" cy="84.99120621427525" r="4" fill="#3b82f6" stroke="#0d1117" stroke-width="2" class="data-point"/>
  
    <circle cx="693.0677290836653" cy="83.85992232155945" r="4" fill="#3b82f6" stroke="#0d1117" stroke-width="2" class="data-point"/>
  
    <circle cx="695.8565737051792" cy="82.86671307831352" r="4" fill="#3b82f6" stroke="#0d1117" stroke-width="2" class="data-point"/>
  
    <circle cx="698.6454183266932" cy="81.8421759734232" r="4" fill="#3b82f6" stroke="#0d1117" stroke-width="2" class="data-point"/>
  
    <circle cx="701.4342629482071" cy="80.91162245346624" r="4" fill="#3b82f6" stroke="#0d1117" stroke-width="2" class="data-point"/>
  
    <circle cx="704.223107569721" cy="79.83719282817918" r="4" fill="#3b82f6" stroke="#0d1117" stroke-width="2" class="data-point"/>
  
    <circle cx="707.0119521912351" cy="78.78364844398845" r="4" fill="#3b82f6" stroke="#0d1117" stroke-width="2" class="data-point"/>
  
    <circle cx="709.800796812749" cy="77.77535541550634" r="4" fill="#3b82f6" stroke="#0d1117" stroke-width="2" class="data-point"/>
  
    <circle cx="712.589641434263" cy="76.74965801944404" r="4" fill="#3b82f6" stroke="#0d1117" stroke-width="2" class="data-point"/>
  
    <circle cx="715.3784860557769" cy="75.64854169720064" r="4" fill="#3b82f6" stroke="#0d1117" stroke-width="2" class="data-point"/>
  
    <circle cx="718.1673306772909" cy="74.58455469246178" r="4" fill="#3b82f6" stroke="#0d1117" stroke-width="2" class="data-point"/>
  
    <circle cx="720.9561752988049" cy="73.53913234647518" r="4" fill="#3b82f6" stroke="#0d1117" stroke-width="2" class="data-point"/>
  
    <circle cx="723.7450199203188" cy="72.63758610581857" r="4" fill="#3b82f6" stroke="#0d1117" stroke-width="2" class="data-point"/>
  
    <circle cx="726.5338645418327" cy="71.7139943328936" r="4" fill="#3b82f6" stroke="#0d1117" stroke-width="2" class="data-point"/>
  
    <circle cx="729.3227091633466" cy="70.75095266012022" r="4" fill="#3b82f6" stroke="#0d1117" stroke-width="2" class="data-point"/>
  
    <circle cx="732.1115537848606" cy="69.73105671991789" r="4" fill="#3b82f6" stroke="#0d1117" stroke-width="2" class="data-point"/>
  
    <circle cx="734.9003984063745" cy="68.4280497337437" r="4" fill="#3b82f6" stroke="#0d1117" stroke-width="2" class="data-point"/>
  
    <circle cx="737.6892430278884" cy="66.76883335776051" r="4" fill="#3b82f6" stroke="#0d1117" stroke-width="2" class="data-point"/>
  
    <circle cx="740.4780876494024" cy="65.01331281449995" r="4" fill="#3b82f6" stroke="#0d1117" stroke-width="2" class="data-point"/>
  
    <circle cx="743.2669322709163" cy="63.43879769407397" r="4" fill="#3b82f6" stroke="#0d1117" stroke-width="2" class="data-point"/>
  
    <circle cx="746.0557768924303" cy="62.776271434852674" r="4" fill="#3b82f6" stroke="#0d1117" stroke-width="2" class="data-point"/>
  
    <circle cx="748.8446215139443" cy="60.894279153842376" r="4" fill="#3b82f6" stroke="#0d1117" stroke-width="2" class="data-point"/>
  
    <circle cx="751.6334661354582" cy="58.85680785578194" r="4" fill="#3b82f6" stroke="#0d1117" stroke-width="2" class="data-point"/>
  
    <circle cx="754.4223107569721" cy="57.47142019639455" r="4" fill="#3b82f6" stroke="#0d1117" stroke-width="2" class="data-point"/>
  
    <circle cx="757.2111553784861" cy="56.28676290976597" r="4" fill="#3b82f6" stroke="#0d1117" stroke-width="2" class="data-point"/>
  
    <circle cx="760" cy="55" r="4" fill="#3b82f6" stroke="#0d1117" stroke-width="2" class="data-point"/>
  

  <!-- Axis lines -->
  <line x1="60" y1="55" x2="60" y2="340"
        stroke="#30363d" stroke-width="2"/>
  <line x1="60" y1="340" x2="760" y2="340"
        stroke="#30363d" stroke-width="2"/>
</svg>