<?xml version="1.0" encoding="UTF-8"?>
<svg width="800" height="400" xmlns="http://www.w3.org/2000/svg">
  <defs>
    <!-- Gradient for area fill -->
    <linearGradient id="areaGradient" x1="0%" y1="0%" x2="0%" y2="100%">
      <stop offset="0%" style="stop-color:#3b82f6;stop-opacity:0.3" />
      <stop offset="100%" style="stop-color:#3b82f6;stop-opacity:0.05" />
    </linearGradient>

    <!-- Glow filter for line -->
    <filter id="glow">
      <feGaussianBlur stdDeviation="2" result="coloredBlur"/>
      <feMerge>
        <feMergeNode in="coloredBlur"/>
        <feMergeNode in="SourceGraphic"/>
      </feMerge>
    </filter>

    <!-- Animation -->
    <style>
      @keyframes draw {
        from { stroke-dashoffset: 2000; }
        to { stroke-dashoffset: 0; }
      }
      @keyframes fadeIn {
        from { opacity: 0; }
        to { opacity: 1; }
      }
      .line-path {
        stroke-dasharray: 2000;
        stroke-dashoffset: 2000;
        animation: draw 1.5s ease-out forwards;
      }
      .area-path {
        opacity: 0;
        animation: fadeIn 1s ease-out 0.5s forwards;
      }
      .data-point {
        opacity: 0;
        animation: fadeIn 0.5s ease-out 1s forwards;
      }
    </style>
  </defs>

  <!-- Background -->
  <rect width="800" height="400" fill="#0d1117" rx="8"/>

  <!-- Title -->
  <text x="400" y="25" text-anchor="middle" fill="#c9d1d9" font-family="system-ui, -apple-system, sans-serif" font-size="16" font-weight="600">
    zxcloli666/SoundCloud-Desktop Downloads
  </text>

  <!-- Stats -->
  <text x="780" y="25" text-anchor="end" fill="#58a6ff" font-family="system-ui, -apple-system, sans-serif" font-size="14" font-weight="600">
    267.9K total
  </text>
  <text x="780" y="42" text-anchor="end" fill="#3fb950" font-family="system-ui, -apple-system, sans-serif" font-size="12">
    +1.1K (+0.4%)
  </text>

  <!-- Grid lines -->
  <g opacity="0.1">
    
      <line x1="60" y1="340" x2="760" y2="340"
            stroke="#c9d1d9" stroke-width="1"/>
    
      <line x1="60" y1="268.75" x2="760" y2="268.75"
            stroke="#c9d1d9" stroke-width="1"/>
    
      <line x1="60" y1="197.5" x2="760" y2="197.5"
            stroke="#c9d1d9" stroke-width="1"/>
    
      <line x1="60" y1="126.25" x2="760" y2="126.25"
            stroke="#c9d1d9" stroke-width="1"/>
    
      <line x1="60" y1="55" x2="760" y2="55"
            stroke="#c9d1d9" stroke-width="1"/>
    
  </g>

  <!-- Y-axis labels -->
  
    <text x="50" y="344" text-anchor="end"
          fill="#8b949e" font-family="system-ui, -apple-system, sans-serif" font-size="11">
      60.2K
    </text>
  
    <text x="50" y="272.75" text-anchor="end"
          fill="#8b949e" font-family="system-ui, -apple-system, sans-serif" font-size="11">
      112.1K
    </text>
  
    <text x="50" y="201.5" text-anchor="end"
          fill="#8b949e" font-family="system-ui, -apple-system, sans-serif" font-size="11">
      164.0K
    </text>
  
    <text x="50" y="130.25" text-anchor="end"
          fill="#8b949e" font-family="system-ui, -apple-system, sans-serif" font-size="11">
      216.0K
    </text>
  
    <text x="50" y="59" text-anchor="end"
          fill="#8b949e" font-family="system-ui, -apple-system, sans-serif" font-size="11">
      267.9K
    </text>
  

  <!-- X-axis labels -->
  
    <text x="60" y="360" text-anchor="middle"
          fill="#8b949e" font-family="system-ui, -apple-system, sans-serif" font-size="11">
      Nov 25
    </text>
  
    <text x="145.04672897196264" y="360" text-anchor="middle"
          fill="#8b949e" font-family="system-ui, -apple-system, sans-serif" font-size="11">
      Dec 21
    </text>
  
    <text x="230.09345794392524" y="360" text-anchor="middle"
          fill="#8b949e" font-family="system-ui, -apple-system, sans-serif" font-size="11">
      Jan 16
    </text>
  
    <text x="315.14018691588785" y="360" text-anchor="middle"
          fill="#8b949e" font-family="system-ui, -apple-system, sans-serif" font-size="11">
      Feb 11
    </text>
  
    <text x="400.1869158878505" y="360" text-anchor="middle"
          fill="#8b949e" font-family="system-ui, -apple-system, sans-serif" font-size="11">
      Mar 9
    </text>
  
    <text x="485.23364485981307" y="360" text-anchor="middle"
          fill="#8b949e" font-family="system-ui, -apple-system, sans-serif" font-size="11">
      Apr 4
    </text>
  
    <text x="570.2803738317757" y="360" text-anchor="middle"
          fill="#8b949e" font-family="system-ui, -apple-system, sans-serif" font-size="11">
      Apr 30
    </text>
  
    <text x="655.3271028037383" y="360" text-anchor="middle"
          fill="#8b949e" font-family="system-ui, -apple-system, sans-serif" font-size="11">
      May 26
    </text>
  
    <text x="740.373831775701" y="360" text-anchor="middle"
          fill="#8b949e" font-family="system-ui, -apple-system, sans-serif" font-size="11">
      Jun 21
    </text>
  
    <text x="760" y="360" text-anchor="middle"
          fill="#8b949e" font-family="system-ui, -apple-system, sans-serif" font-size="11">
      Jun 27
    </text>
  

  <!-- Area under line -->
  <path d="M 60 340
    L 60.00 340.00 L 63.27 339.80 L 66.54 339.46 L 69.81 339.14 L 73.08 338.50 L 76.36 337.85 L 79.63 337.34 L 82.90 336.86 L 86.17 336.43 L 89.44 335.93 L 92.71 335.37 L 95.98 334.77 L 99.25 334.23 L 102.52 333.65 L 105.79 333.23 L 109.07 332.80 L 112.34 332.20 L 115.61 331.81 L 118.88 331.26 L 122.15 330.62 L 125.42 330.15 L 128.69 329.76 L 131.96 329.50 L 135.23 329.29 L 138.50 328.90 L 141.78 328.62 L 145.05 328.01 L 148.32 327.77 L 151.59 327.46 L 154.86 327.06 L 158.13 326.79 L 161.40 326.51 L 164.67 326.21 L 167.94 326.01 L 171.21 325.84 L 174.49 325.57 L 177.76 325.24 L 181.03 324.94 L 184.30 324.57 L 187.57 324.15 L 190.84 323.77 L 194.11 323.32 L 197.38 322.87 L 200.65 322.42 L 203.93 321.93 L 207.20 321.46 L 210.47 320.92 L 213.74 320.45 L 217.01 320.04 L 220.28 319.72 L 223.55 319.26 L 226.82 318.75 L 230.09 318.27 L 233.36 317.72 L 236.64 317.04 L 239.91 316.53 L 243.18 316.11 L 246.45 315.71 L 249.72 315.23 L 252.99 314.67 L 256.26 314.05 L 259.53 313.40 L 262.80 312.77 L 266.07 312.22 L 269.35 311.68 L 272.62 311.20 L 275.89 310.70 L 279.16 310.16 L 282.43 309.47 L 285.70 308.96 L 288.97 308.51 L 292.24 308.00 L 295.51 307.53 L 298.79 307.01 L 302.06 306.47 L 305.33 305.91 L 308.60 305.41 L 311.87 304.99 L 315.14 304.52 L 318.41 304.02 L 321.68 303.55 L 324.95 302.95 L 328.22 302.42 L 331.50 301.92 L 334.77 301.50 L 338.04 301.09 L 341.31 300.69 L 344.58 300.20 L 347.85 299.70 L 351.12 299.09 L 354.39 298.60 L 357.66 298.20 L 360.93 297.78 L 364.21 297.39 L 367.48 296.90 L 370.75 296.40 L 374.02 295.29 L 377.29 293.09 L 380.56 290.47 L 383.83 288.08 L 387.10 286.86 L 390.37 285.04 L 393.64 283.82 L 396.92 282.76 L 400.19 281.72 L 403.46 280.74 L 406.73 279.21 L 410.00 278.00 L 413.27 276.45 L 416.54 276.13 L 419.81 276.09 L 423.08 276.04 L 426.36 275.99 L 429.63 275.93 L 432.90 275.88 L 436.17 275.86 L 439.44 275.79 L 442.71 275.71 L 445.98 275.66 L 449.25 275.65 L 452.52 275.57 L 455.79 273.58 L 459.07 270.46 L 462.34 268.38 L 465.61 265.95 L 468.88 263.46 L 472.15 261.50 L 475.42 259.31 L 478.69 255.97 L 481.96 251.47 L 485.23 248.54 L 488.50 245.04 L 491.78 241.15 L 495.05 238.03 L 498.32 234.64 L 501.59 231.64 L 504.86 228.66 L 508.13 225.69 L 511.40 221.65 L 514.67 217.59 L 517.94 214.21 L 521.21 211.37 L 524.49 208.63 L 527.76 204.98 L 531.03 202.15 L 534.30 199.35 L 537.57 196.73 L 540.84 194.26 L 544.11 191.74 L 547.38 189.58 L 550.65 187.34 L 553.93 185.06 L 557.20 182.64 L 560.47 180.43 L 563.74 178.40 L 567.01 174.72 L 570.28 171.64 L 573.55 168.69 L 576.82 165.85 L 580.09 161.37 L 583.36 158.54 L 586.64 156.08 L 589.91 153.18 L 593.18 148.91 L 596.45 145.84 L 599.72 143.24 L 602.99 141.05 L 606.26 138.96 L 609.53 137.27 L 612.80 135.36 L 616.07 133.81 L 619.35 131.97 L 622.62 129.33 L 625.89 127.06 L 629.16 125.08 L 632.43 123.38 L 635.70 121.62 L 638.97 120.13 L 642.24 117.64 L 645.51 115.51 L 648.79 113.39 L 652.06 111.64 L 655.33 110.04 L 658.60 108.62 L 661.87 106.18 L 665.14 104.20 L 668.41 102.40 L 671.68 100.67 L 674.95 99.17 L 678.22 97.71 L 681.50 96.37 L 684.77 95.08 L 688.04 93.91 L 691.31 92.44 L 694.58 90.86 L 697.85 89.41 L 701.12 87.15 L 704.39 85.52 L 707.66 83.95 L 710.93 82.58 L 714.21 80.97 L 717.48 78.99 L 720.75 77.24 L 724.02 75.67 L 727.29 73.97 L 730.56 71.63 L 733.83 69.71 L 737.10 67.64 L 740.37 65.58 L 743.64 63.67 L 746.92 61.79 L 750.19 59.80 L 753.46 58.01 L 756.73 56.45 L 760.00 55.00
    L 760 340
    Z" fill="url(#areaGradient)" class="area-path"/>

  <!-- Main line with glow -->
  <path d="M 60.00 340.00 L 63.27 339.80 L 66.54 339.46 L 69.81 339.14 L 73.08 338.50 L 76.36 337.85 L 79.63 337.34 L 82.90 336.86 L 86.17 336.43 L 89.44 335.93 L 92.71 335.37 L 95.98 334.77 L 99.25 334.23 L 102.52 333.65 L 105.79 333.23 L 109.07 332.80 L 112.34 332.20 L 115.61 331.81 L 118.88 331.26 L 122.15 330.62 L 125.42 330.15 L 128.69 329.76 L 131.96 329.50 L 135.23 329.29 L 138.50 328.90 L 141.78 328.62 L 145.05 328.01 L 148.32 327.77 L 151.59 327.46 L 154.86 327.06 L 158.13 326.79 L 161.40 326.51 L 164.67 326.21 L 167.94 326.01 L 171.21 325.84 L 174.49 325.57 L 177.76 325.24 L 181.03 324.94 L 184.30 324.57 L 187.57 324.15 L 190.84 323.77 L 194.11 323.32 L 197.38 322.87 L 200.65 322.42 L 203.93 321.93 L 207.20 321.46 L 210.47 320.92 L 213.74 320.45 L 217.01 320.04 L 220.28 319.72 L 223.55 319.26 L 226.82 318.75 L 230.09 318.27 L 233.36 317.72 L 236.64 317.04 L 239.91 316.53 L 243.18 316.11 L 246.45 315.71 L 249.72 315.23 L 252.99 314.67 L 256.26 314.05 L 259.53 313.40 L 262.80 312.77 L 266.07 312.22 L 269.35 311.68 L 272.62 311.20 L 275.89 310.70 L 279.16 310.16 L 282.43 309.47 L 285.70 308.96 L 288.97 308.51 L 292.24 308.00 L 295.51 307.53 L 298.79 307.01 L 302.06 306.47 L 305.33 305.91 L 308.60 305.41 L 311.87 304.99 L 315.14 304.52 L 318.41 304.02 L 321.68 303.55 L 324.95 302.95 L 328.22 302.42 L 331.50 301.92 L 334.77 301.50 L 338.04 301.09 L 341.31 300.69 L 344.58 300.20 L 347.85 299.70 L 351.12 299.09 L 354.39 298.60 L 357.66 298.20 L 360.93 297.78 L 364.21 297.39 L 367.48 296.90 L 370.75 296.40 L 374.02 295.29 L 377.29 293.09 L 380.56 290.47 L 383.83 288.08 L 387.10 286.86 L 390.37 285.04 L 393.64 283.82 L 396.92 282.76 L 400.19 281.72 L 403.46 280.74 L 406.73 279.21 L 410.00 278.00 L 413.27 276.45 L 416.54 276.13 L 419.81 276.09 L 423.08 276.04 L 426.36 275.99 L 429.63 275.93 L 432.90 275.88 L 436.17 275.86 L 439.44 275.79 L 442.71 275.71 L 445.98 275.66 L 449.25 275.65 L 452.52 275.57 L 455.79 273.58 L 459.07 270.46 L 462.34 268.38 L 465.61 265.95 L 468.88 263.46 L 472.15 261.50 L 475.42 259.31 L 478.69 255.97 L 481.96 251.47 L 485.23 248.54 L 488.50 245.04 L 491.78 241.15 L 495.05 238.03 L 498.32 234.64 L 501.59 231.64 L 504.86 228.66 L 508.13 225.69 L 511.40 221.65 L 514.67 217.59 L 517.94 214.21 L 521.21 211.37 L 524.49 208.63 L 527.76 204.98 L 531.03 202.15 L 534.30 199.35 L 537.57 196.73 L 540.84 194.26 L 544.11 191.74 L 547.38 189.58 L 550.65 187.34 L 553.93 185.06 L 557.20 182.64 L 560.47 180.43 L 563.74 178.40 L 567.01 174.72 L 570.28 171.64 L 573.55 168.69 L 576.82 165.85 L 580.09 161.37 L 583.36 158.54 L 586.64 156.08 L 589.91 153.18 L 593.18 148.91 L 596.45 145.84 L 599.72 143.24 L 602.99 141.05 L 606.26 138.96 L 609.53 137.27 L 612.80 135.36 L 616.07 133.81 L 619.35 131.97 L 622.62 129.33 L 625.89 127.06 L 629.16 125.08 L 632.43 123.38 L 635.70 121.62 L 638.97 120.13 L 642.24 117.64 L 645.51 115.51 L 648.79 113.39 L 652.06 111.64 L 655.33 110.04 L 658.60 108.62 L 661.87 106.18 L 665.14 104.20 L 668.41 102.40 L 671.68 100.67 L 674.95 99.17 L 678.22 97.71 L 681.50 96.37 L 684.77 95.08 L 688.04 93.91 L 691.31 92.44 L 694.58 90.86 L 697.85 89.41 L 701.12 87.15 L 704.39 85.52 L 707.66 83.95 L 710.93 82.58 L 714.21 80.97 L 717.48 78.99 L 720.75 77.24 L 724.02 75.67 L 727.29 73.97 L 730.56 71.63 L 733.83 69.71 L 737.10 67.64 L 740.37 65.58 L 743.64 63.67 L 746.92 61.79 L 750.19 59.80 L 753.46 58.01 L 756.73 56.45 L 760.00 55.00" fill="none" stroke="#3b82f6" stroke-width="3"
        stroke-linecap="round" stroke-linejoin="round" filter="url(#glow)" class="line-path"/>

  <!-- Data points -->
  
    <circle cx="60" cy="340" r="4" fill="#3b82f6" stroke="#0d1117" stroke-width="2" class="data-point"/>
  
    <circle cx="63.271028037383175" cy="339.7983684666474" r="4" fill="#3b82f6" stroke="#0d1117" stroke-width="2" class="data-point"/>
  
    <circle cx="66.54205607476635" cy="339.4554576956396" r="4" fill="#3b82f6" stroke="#0d1117" stroke-width="2" class="data-point"/>
  
    <circle cx="69.81308411214954" cy="339.1372365001444" r="4" fill="#3b82f6" stroke="#0d1117" stroke-width="2" class="data-point"/>
  
    <circle cx="73.08411214953271" cy="338.504909038406" r="4" fill="#3b82f6" stroke="#0d1117" stroke-width="2" class="data-point"/>
  
    <circle cx="76.35514018691589" cy="337.8520069304072" r="4" fill="#3b82f6" stroke="#0d1117" stroke-width="2" class="data-point"/>
  
    <circle cx="79.62616822429906" cy="337.3376407738955" r="4" fill="#3b82f6" stroke="#0d1117" stroke-width="2" class="data-point"/>
  
    <circle cx="82.89719626168224" cy="336.85756569448455" r="4" fill="#3b82f6" stroke="#0d1117" stroke-width="2" class="data-point"/>
  
    <circle cx="86.16822429906541" cy="336.43098469535084" r="4" fill="#3b82f6" stroke="#0d1117" stroke-width="2" class="data-point"/>
  
    <circle cx="89.43925233644859" cy="335.93033496967945" r="4" fill="#3b82f6" stroke="#0d1117" stroke-width="2" class="data-point"/>
  
    <circle cx="92.71028037383178" cy="335.37207623447875" r="4" fill="#3b82f6" stroke="#0d1117" stroke-width="2" class="data-point"/>
  
    <circle cx="95.98130841121495" cy="334.7740398498412" r="4" fill="#3b82f6" stroke="#0d1117" stroke-width="2" class="data-point"/>
  
    <circle cx="99.25233644859813" cy="334.23086918856484" r="4" fill="#3b82f6" stroke="#0d1117" stroke-width="2" class="data-point"/>
  
    <circle cx="102.52336448598132" cy="333.6534074501877" r="4" fill="#3b82f6" stroke="#0d1117" stroke-width="2" class="data-point"/>
  
    <circle cx="105.79439252336448" cy="333.23231302339013" r="4" fill="#3b82f6" stroke="#0d1117" stroke-width="2" class="data-point"/>
  
    <circle cx="109.06542056074767" cy="332.7961305226682" r="4" fill="#3b82f6" stroke="#0d1117" stroke-width="2" class="data-point"/>
  
    <circle cx="112.33644859813083" cy="332.20358071036674" r="4" fill="#3b82f6" stroke="#0d1117" stroke-width="2" class="data-point"/>
  
    <circle cx="115.60747663551402" cy="331.8071758590817" r="4" fill="#3b82f6" stroke="#0d1117" stroke-width="2" class="data-point"/>
  
    <circle cx="118.8785046728972" cy="331.25851862546926" r="4" fill="#3b82f6" stroke="#0d1117" stroke-width="2" class="data-point"/>
  
    <circle cx="122.14953271028037" cy="330.62481952064684" r="4" fill="#3b82f6" stroke="#0d1117" stroke-width="2" class="data-point"/>
  
    <circle cx="125.42056074766354" cy="330.147487727404" r="4" fill="#3b82f6" stroke="#0d1117" stroke-width="2" class="data-point"/>
  
    <circle cx="128.69158878504675" cy="329.75519780537104" r="4" fill="#3b82f6" stroke="#0d1117" stroke-width="2" class="data-point"/>
  
    <circle cx="131.9626168224299" cy="329.5014438348253" r="4" fill="#3b82f6" stroke="#0d1117" stroke-width="2" class="data-point"/>
  
    <circle cx="135.23364485981307" cy="329.2902107998845" r="4" fill="#3b82f6" stroke="#0d1117" stroke-width="2" class="data-point"/>
  
    <circle cx="138.50467289719626" cy="328.8992925209356" r="4" fill="#3b82f6" stroke="#0d1117" stroke-width="2" class="data-point"/>
  
    <circle cx="141.77570093457945" cy="328.6208489748773" r="4" fill="#3b82f6" stroke="#0d1117" stroke-width="2" class="data-point"/>
  
    <circle cx="145.04672897196264" cy="328.0104678024834" r="4" fill="#3b82f6" stroke="#0d1117" stroke-width="2" class="data-point"/>
  
    <circle cx="148.31775700934577" cy="327.77043026277795" r="4" fill="#3b82f6" stroke="#0d1117" stroke-width="2" class="data-point"/>
  
    <circle cx="151.58878504672896" cy="327.4604389257869" r="4" fill="#3b82f6" stroke="#0d1117" stroke-width="2" class="data-point"/>
  
    <circle cx="154.85981308411215" cy="327.0599191452498" r="4" fill="#3b82f6" stroke="#0d1117" stroke-width="2" class="data-point"/>
  
    <circle cx="158.13084112149534" cy="326.78559052844355" r="4" fill="#3b82f6" stroke="#0d1117" stroke-width="2" class="data-point"/>
  
    <circle cx="161.4018691588785" cy="326.5071469823852" r="4" fill="#3b82f6" stroke="#0d1117" stroke-width="2" class="data-point"/>
  
    <circle cx="164.67289719626166" cy="326.2149870054866" r="4" fill="#3b82f6" stroke="#0d1117" stroke-width="2" class="data-point"/>
  
    <circle cx="167.94392523364485" cy="326.01198382904994" r="4" fill="#3b82f6" stroke="#0d1117" stroke-width="2" class="data-point"/>
  
    <circle cx="171.21495327102804" cy="325.83641351429395" r="4" fill="#3b82f6" stroke="#0d1117" stroke-width="2" class="data-point"/>
  
    <circle cx="174.48598130841123" cy="325.5689431129079" r="4" fill="#3b82f6" stroke="#0d1117" stroke-width="2" class="data-point"/>
  
    <circle cx="177.7570093457944" cy="325.2438637019925" r="4" fill="#3b82f6" stroke="#0d1117" stroke-width="2" class="data-point"/>
  
    <circle cx="181.02803738317755" cy="324.9448455096737" r="4" fill="#3b82f6" stroke="#0d1117" stroke-width="2" class="data-point"/>
  
    <circle cx="184.29906542056074" cy="324.5662720184811" r="4" fill="#3b82f6" stroke="#0d1117" stroke-width="2" class="data-point"/>
  
    <circle cx="187.57009345794393" cy="324.1534074501877" r="4" fill="#3b82f6" stroke="#0d1117" stroke-width="2" class="data-point"/>
  
    <circle cx="190.8411214953271" cy="323.7748339589951" r="4" fill="#3b82f6" stroke="#0d1117" stroke-width="2" class="data-point"/>
  
    <circle cx="194.11214953271028" cy="323.3180768120127" r="4" fill="#3b82f6" stroke="#0d1117" stroke-width="2" class="data-point"/>
  
    <circle cx="197.38317757009347" cy="322.8695495235345" r="4" fill="#3b82f6" stroke="#0d1117" stroke-width="2" class="data-point"/>
  
    <circle cx="200.65420560747663" cy="322.4210222350563" r="4" fill="#3b82f6" stroke="#0d1117" stroke-width="2" class="data-point"/>
  
    <circle cx="203.92523364485982" cy="321.9299740109731" r="4" fill="#3b82f6" stroke="#0d1117" stroke-width="2" class="data-point"/>
  
    <circle cx="207.19626168224298" cy="321.46087207623447" r="4" fill="#3b82f6" stroke="#0d1117" stroke-width="2" class="data-point"/>
  
    <circle cx="210.46728971962617" cy="320.92455963037827" r="4" fill="#3b82f6" stroke="#0d1117" stroke-width="2" class="data-point"/>
  
    <circle cx="213.73831775700936" cy="320.4458561940514" r="4" fill="#3b82f6" stroke="#0d1117" stroke-width="2" class="data-point"/>
  
    <circle cx="217.00934579439252" cy="320.0412214842622" r="4" fill="#3b82f6" stroke="#0d1117" stroke-width="2" class="data-point"/>
  
    <circle cx="220.2803738317757" cy="319.71751371643086" r="4" fill="#3b82f6" stroke="#0d1117" stroke-width="2" class="data-point"/>
  
    <circle cx="223.55140186915887" cy="319.26487149870053" r="4" fill="#3b82f6" stroke="#0d1117" stroke-width="2" class="data-point"/>
  
    <circle cx="226.82242990654206" cy="318.7477620560208" r="4" fill="#3b82f6" stroke="#0d1117" stroke-width="2" class="data-point"/>
  
    <circle cx="230.09345794392524" cy="318.27454519203" r="4" fill="#3b82f6" stroke="#0d1117" stroke-width="2" class="data-point"/>
  
    <circle cx="233.3644859813084" cy="317.72177302916543" r="4" fill="#3b82f6" stroke="#0d1117" stroke-width="2" class="data-point"/>
  
    <circle cx="236.63551401869157" cy="317.04006641640194" r="4" fill="#3b82f6" stroke="#0d1117" stroke-width="2" class="data-point"/>
  
    <circle cx="239.90654205607476" cy="316.53255847531045" r="4" fill="#3b82f6" stroke="#0d1117" stroke-width="2" class="data-point"/>
  
    <circle cx="243.17757009345792" cy="316.11146404851286" r="4" fill="#3b82f6" stroke="#0d1117" stroke-width="2" class="data-point"/>
  
    <circle cx="246.4485981308411" cy="315.7109442679757" r="4" fill="#3b82f6" stroke="#0d1117" stroke-width="2" class="data-point"/>
  
    <circle cx="249.7196261682243" cy="315.2294975454808" r="4" fill="#3b82f6" stroke="#0d1117" stroke-width="2" class="data-point"/>
  
    <circle cx="252.99065420560746" cy="314.66986716719606" r="4" fill="#3b82f6" stroke="#0d1117" stroke-width="2" class="data-point"/>
  
    <circle cx="256.2616822429907" cy="314.049884493214" r="4" fill="#3b82f6" stroke="#0d1117" stroke-width="2" class="data-point"/>
  
    <circle cx="259.5327102803738" cy="313.39835402829914" r="4" fill="#3b82f6" stroke="#0d1117" stroke-width="2" class="data-point"/>
  
    <circle cx="262.803738317757" cy="312.77288478198096" r="4" fill="#3b82f6" stroke="#0d1117" stroke-width="2" class="data-point"/>
  
    <circle cx="266.0747663551402" cy="312.2228559052844" r="4" fill="#3b82f6" stroke="#0d1117" stroke-width="2" class="data-point"/>
  
    <circle cx="269.3457943925233" cy="311.67694195784003" r="4" fill="#3b82f6" stroke="#0d1117" stroke-width="2" class="data-point"/>
  
    <circle cx="272.6168224299065" cy="311.1954952353451" r="4" fill="#3b82f6" stroke="#0d1117" stroke-width="2" class="data-point"/>
  
    <circle cx="275.8878504672897" cy="310.7044470112619" r="4" fill="#3b82f6" stroke="#0d1117" stroke-width="2" class="data-point"/>
  
    <circle cx="279.1588785046729" cy="310.15578977764943" r="4" fill="#3b82f6" stroke="#0d1117" stroke-width="2" class="data-point"/>
  
    <circle cx="282.4299065420561" cy="309.4727115218019" r="4" fill="#3b82f6" stroke="#0d1117" stroke-width="2" class="data-point"/>
  
    <circle cx="285.70093457943926" cy="308.9638319376263" r="4" fill="#3b82f6" stroke="#0d1117" stroke-width="2" class="data-point"/>
  
    <circle cx="288.97196261682245" cy="308.50844643372795" r="4" fill="#3b82f6" stroke="#0d1117" stroke-width="2" class="data-point"/>
  
    <circle cx="292.2429906542056" cy="308.00231013572045" r="4" fill="#3b82f6" stroke="#0d1117" stroke-width="2" class="data-point"/>
  
    <circle cx="295.5140186915888" cy="307.53046491481376" r="4" fill="#3b82f6" stroke="#0d1117" stroke-width="2" class="data-point"/>
  
    <circle cx="298.78504672897196" cy="307.01198382904994" r="4" fill="#3b82f6" stroke="#0d1117" stroke-width="2" class="data-point"/>
  
    <circle cx="302.0560747663551" cy="306.4715564539417" r="4" fill="#3b82f6" stroke="#0d1117" stroke-width="2" class="data-point"/>
  
    <circle cx="305.3271028037383" cy="305.9064395033208" r="4" fill="#3b82f6" stroke="#0d1117" stroke-width="2" class="data-point"/>
  
    <circle cx="308.5981308411215" cy="305.41127634998554" r="4" fill="#3b82f6" stroke="#0d1117" stroke-width="2" class="data-point"/>
  
    <circle cx="311.86915887850466" cy="304.9874386370199" r="4" fill="#3b82f6" stroke="#0d1117" stroke-width="2" class="data-point"/>
  
    <circle cx="315.14018691588785" cy="304.5224516315334" r="4" fill="#3b82f6" stroke="#0d1117" stroke-width="2" class="data-point"/>
  
    <circle cx="318.41121495327104" cy="304.0190586196939" r="4" fill="#3b82f6" stroke="#0d1117" stroke-width="2" class="data-point"/>
  
    <circle cx="321.6822429906542" cy="303.5526999711233" r="4" fill="#3b82f6" stroke="#0d1117" stroke-width="2" class="data-point"/>
  
    <circle cx="324.95327102803736" cy="302.9450620848975" r="4" fill="#3b82f6" stroke="#0d1117" stroke-width="2" class="data-point"/>
  
    <circle cx="328.22429906542055" cy="302.4224660698816" r="4" fill="#3b82f6" stroke="#0d1117" stroke-width="2" class="data-point"/>
  
    <circle cx="331.49532710280374" cy="301.91907305804216" r="4" fill="#3b82f6" stroke="#0d1117" stroke-width="2" class="data-point"/>
  
    <circle cx="334.76635514018693" cy="301.50072191741265" r="4" fill="#3b82f6" stroke="#0d1117" stroke-width="2" class="data-point"/>
  
    <circle cx="338.03738317757006" cy="301.0947155645394" r="4" fill="#3b82f6" stroke="#0d1117" stroke-width="2" class="data-point"/>
  
    <circle cx="341.30841121495325" cy="300.68733756858217" r="4" fill="#3b82f6" stroke="#0d1117" stroke-width="2" class="data-point"/>
  
    <circle cx="344.57943925233644" cy="300.2004042737511" r="4" fill="#3b82f6" stroke="#0d1117" stroke-width="2" class="data-point"/>
  
    <circle cx="347.85046728971963" cy="299.6997545480797" r="4" fill="#3b82f6" stroke="#0d1117" stroke-width="2" class="data-point"/>
  
    <circle cx="351.1214953271028" cy="299.0921166618539" r="4" fill="#3b82f6" stroke="#0d1117" stroke-width="2" class="data-point"/>
  
    <circle cx="354.39252336448595" cy="298.5996967946867" r="4" fill="#3b82f6" stroke="#0d1117" stroke-width="2" class="data-point"/>
  
    <circle cx="357.66355140186914" cy="298.19780537106556" r="4" fill="#3b82f6" stroke="#0d1117" stroke-width="2" class="data-point"/>
  
    <circle cx="360.93457943925233" cy="297.78494080277216" r="4" fill="#3b82f6" stroke="#0d1117" stroke-width="2" class="data-point"/>
  
    <circle cx="364.2056074766355" cy="297.3899075945712" r="4" fill="#3b82f6" stroke="#0d1117" stroke-width="2" class="data-point"/>
  
    <circle cx="367.4766355140187" cy="296.90160265665605" r="4" fill="#3b82f6" stroke="#0d1117" stroke-width="2" class="data-point"/>
  
    <circle cx="370.74766355140184" cy="296.4009529309847" r="4" fill="#3b82f6" stroke="#0d1117" stroke-width="2" class="data-point"/>
  
    <circle cx="374.01869158878503" cy="295.2940369621715" r="4" fill="#3b82f6" stroke="#0d1117" stroke-width="2" class="data-point"/>
  
    <circle cx="377.2897196261682" cy="293.0911781692174" r="4" fill="#3b82f6" stroke="#0d1117" stroke-width="2" class="data-point"/>
  
    <circle cx="380.5607476635514" cy="290.4672249494658" r="4" fill="#3b82f6" stroke="#0d1117" stroke-width="2" class="data-point"/>
  
    <circle cx="383.8317757009346" cy="288.07645105399945" r="4" fill="#3b82f6" stroke="#0d1117" stroke-width="2" class="data-point"/>
  
    <circle cx="387.10280373831773" cy="286.86391856771587" r="4" fill="#3b82f6" stroke="#0d1117" stroke-width="2" class="data-point"/>
  
    <circle cx="390.3738317757009" cy="285.03688997978634" r="4" fill="#3b82f6" stroke="#0d1117" stroke-width="2" class="data-point"/>
  
    <circle cx="393.6448598130841" cy="283.8229858504187" r="4" fill="#3b82f6" stroke="#0d1117" stroke-width="2" class="data-point"/>
  
    <circle cx="396.9158878504673" cy="282.7585908172105" r="4" fill="#3b82f6" stroke="#0d1117" stroke-width="2" class="data-point"/>
  
    <circle cx="400.1869158878505" cy="281.71751371643086" r="4" fill="#3b82f6" stroke="#0d1117" stroke-width="2" class="data-point"/>
  
    <circle cx="403.4579439252336" cy="280.7367889113485" r="4" fill="#3b82f6" stroke="#0d1117" stroke-width="2" class="data-point"/>
  
    <circle cx="406.7289719626168" cy="279.21152180190586" r="4" fill="#3b82f6" stroke="#0d1117" stroke-width="2" class="data-point"/>
  
    <circle cx="410" cy="277.9989893156223" r="4" fill="#3b82f6" stroke="#0d1117" stroke-width="2" class="data-point"/>
  
    <circle cx="413.27102803738313" cy="276.44903263066703" r="4" fill="#3b82f6" stroke="#0d1117" stroke-width="2" class="data-point"/>
  
    <circle cx="416.5420560747664" cy="276.1321830782558" r="4" fill="#3b82f6" stroke="#0d1117" stroke-width="2" class="data-point"/>
  
    <circle cx="419.8130841121495" cy="276.0910337857349" r="4" fill="#3b82f6" stroke="#0d1117" stroke-width="2" class="data-point"/>
  
    <circle cx="423.0841121495327" cy="276.0375397054577" r="4" fill="#3b82f6" stroke="#0d1117" stroke-width="2" class="data-point"/>
  
    <circle cx="426.35514018691583" cy="275.9922754836847" r="4" fill="#3b82f6" stroke="#0d1117" stroke-width="2" class="data-point"/>
  
    <circle cx="429.6261682242991" cy="275.9332948310713" r="4" fill="#3b82f6" stroke="#0d1117" stroke-width="2" class="data-point"/>
  
    <circle cx="432.8971962616822" cy="275.88117239387816" r="4" fill="#3b82f6" stroke="#0d1117" stroke-width="2" class="data-point"/>
  
    <circle cx="436.1682242990654" cy="275.8605977476177" r="4" fill="#3b82f6" stroke="#0d1117" stroke-width="2" class="data-point"/>
  
    <circle cx="439.4392523364486" cy="275.785157377996" r="4" fill="#3b82f6" stroke="#0d1117" stroke-width="2" class="data-point"/>
  
    <circle cx="442.7102803738318" cy="275.7124602945423" r="4" fill="#3b82f6" stroke="#0d1117" stroke-width="2" class="data-point"/>
  
    <circle cx="445.9813084112149" cy="275.6644527866012" r="4" fill="#3b82f6" stroke="#0d1117" stroke-width="2" class="data-point"/>
  
    <circle cx="449.25233644859816" cy="275.6466214265088" r="4" fill="#3b82f6" stroke="#0d1117" stroke-width="2" class="data-point"/>
  
    <circle cx="452.5233644859813" cy="275.56569448455093" r="4" fill="#3b82f6" stroke="#0d1117" stroke-width="2" class="data-point"/>
  
    <circle cx="455.7943925233645" cy="273.5768120127058" r="4" fill="#3b82f6" stroke="#0d1117" stroke-width="2" class="data-point"/>
  
    <circle cx="459.0654205607476" cy="270.46181056887093" r="4" fill="#3b82f6" stroke="#0d1117" stroke-width="2" class="data-point"/>
  
    <circle cx="462.33644859813086" cy="268.3755414380595" r="4" fill="#3b82f6" stroke="#0d1117" stroke-width="2" class="data-point"/>
  
    <circle cx="465.607476635514" cy="265.9532197516604" r="4" fill="#3b82f6" stroke="#0d1117" stroke-width="2" class="data-point"/>
  
    <circle cx="468.8785046728972" cy="263.45682933872365" r="4" fill="#3b82f6" stroke="#0d1117" stroke-width="2" class="data-point"/>
  
    <circle cx="472.14953271028037" cy="261.4981230147271" r="4" fill="#3b82f6" stroke="#0d1117" stroke-width="2" class="data-point"/>
  
    <circle cx="475.42056074766356" cy="259.3076090095293" r="4" fill="#3b82f6" stroke="#0d1117" stroke-width="2" class="data-point"/>
  
    <circle cx="478.6915887850467" cy="255.97040138608145" r="4" fill="#3b82f6" stroke="#0d1117" stroke-width="2" class="data-point"/>
  
    <circle cx="481.96261682242994" cy="251.47278371354315" r="4" fill="#3b82f6" stroke="#0d1117" stroke-width="2" class="data-point"/>
  
    <circle cx="485.23364485981307" cy="248.53746751371642" r="4" fill="#3b82f6" stroke="#0d1117" stroke-width="2" class="data-point"/>
  
    <circle cx="488.50467289719626" cy="245.043892578689" r="4" fill="#3b82f6" stroke="#0d1117" stroke-width="2" class="data-point"/>
  
    <circle cx="491.7757009345794" cy="241.1511695062085" r="4" fill="#3b82f6" stroke="#0d1117" stroke-width="2" class="data-point"/>
  
    <circle cx="495.04672897196264" cy="238.02930984695348" r="4" fill="#3b82f6" stroke="#0d1117" stroke-width="2" class="data-point"/>
  
    <circle cx="498.31775700934577" cy="234.64135142939648" r="4" fill="#3b82f6" stroke="#0d1117" stroke-width="2" class="data-point"/>
  
    <circle cx="501.58878504672896" cy="231.63608143228413" r="4" fill="#3b82f6" stroke="#0d1117" stroke-width="2" class="data-point"/>
  
    <circle cx="504.85981308411215" cy="228.65824429685244" r="4" fill="#3b82f6" stroke="#0d1117" stroke-width="2" class="data-point"/>
  
    <circle cx="508.13084112149534" cy="225.68863701992493" r="4" fill="#3b82f6" stroke="#0d1117" stroke-width="2" class="data-point"/>
  
    <circle cx="511.40186915887847" cy="221.64503320820097" r="4" fill="#3b82f6" stroke="#0d1117" stroke-width="2" class="data-point"/>
  
    <circle cx="514.6728971962617" cy="217.58908460872075" r="4" fill="#3b82f6" stroke="#0d1117" stroke-width="2" class="data-point"/>
  
    <circle cx="517.9439252336449" cy="214.20798440658388" r="4" fill="#3b82f6" stroke="#0d1117" stroke-width="2" class="data-point"/>
  
    <circle cx="521.214953271028" cy="211.37416979497547" r="4" fill="#3b82f6" stroke="#0d1117" stroke-width="2" class="data-point"/>
  
    <circle cx="524.4859813084112" cy="208.62539705457695" r="4" fill="#3b82f6" stroke="#0d1117" stroke-width="2" class="data-point"/>
  
    <circle cx="527.7570093457944" cy="204.976826451054" r="4" fill="#3b82f6" stroke="#0d1117" stroke-width="2" class="data-point"/>
  
    <circle cx="531.0280373831775" cy="202.14712676869766" r="4" fill="#3b82f6" stroke="#0d1117" stroke-width="2" class="data-point"/>
  
    <circle cx="534.2990654205607" cy="199.34760323419" r="4" fill="#3b82f6" stroke="#0d1117" stroke-width="2" class="data-point"/>
  
    <circle cx="537.5700934579439" cy="196.72913658677447" r="4" fill="#3b82f6" stroke="#0d1117" stroke-width="2" class="data-point"/>
  
    <circle cx="540.8411214953271" cy="194.2629223216864" r="4" fill="#3b82f6" stroke="#0d1117" stroke-width="2" class="data-point"/>
  
    <circle cx="544.1121495327102" cy="191.73635576090095" r="4" fill="#3b82f6" stroke="#0d1117" stroke-width="2" class="data-point"/>
  
    <circle cx="547.3831775700935" cy="189.57601790355184" r="4" fill="#3b82f6" stroke="#0d1117" stroke-width="2" class="data-point"/>
  
    <circle cx="550.6542056074766" cy="187.33886803349696" r="4" fill="#3b82f6" stroke="#0d1117" stroke-width="2" class="data-point"/>
  
    <circle cx="553.9252336448599" cy="185.05508229858503" r="4" fill="#3b82f6" stroke="#0d1117" stroke-width="2" class="data-point"/>
  
    <circle cx="557.196261682243" cy="182.64099047069016" r="4" fill="#3b82f6" stroke="#0d1117" stroke-width="2" class="data-point"/>
  
    <circle cx="560.4672897196263" cy="180.42578688997978" r="4" fill="#3b82f6" stroke="#0d1117" stroke-width="2" class="data-point"/>
  
    <circle cx="563.7383177570093" cy="178.39712676869766" r="4" fill="#3b82f6" stroke="#0d1117" stroke-width="2" class="data-point"/>
  
    <circle cx="567.0093457943925" cy="174.7211233034941" r="4" fill="#3b82f6" stroke="#0d1117" stroke-width="2" class="data-point"/>
  
    <circle cx="570.2803738317757" cy="171.64452786601214" r="4" fill="#3b82f6" stroke="#0d1117" stroke-width="2" class="data-point"/>
  
    <circle cx="573.5514018691589" cy="168.69000866300897" r="4" fill="#3b82f6" stroke="#0d1117" stroke-width="2" class="data-point"/>
  
    <circle cx="576.8224299065421" cy="165.8520791221484" r="4" fill="#3b82f6" stroke="#0d1117" stroke-width="2" class="data-point"/>
  
    <circle cx="580.0934579439253" cy="161.37092116661856" r="4" fill="#3b82f6" stroke="#0d1117" stroke-width="2" class="data-point"/>
  
    <circle cx="583.3644859813083" cy="158.53573491192608" r="4" fill="#3b82f6" stroke="#0d1117" stroke-width="2" class="data-point"/>
  
    <circle cx="586.6355140186917" cy="156.0818654345943" r="4" fill="#3b82f6" stroke="#0d1117" stroke-width="2" class="data-point"/>
  
    <circle cx="589.9065420560747" cy="153.1835835980364" r="4" fill="#3b82f6" stroke="#0d1117" stroke-width="2" class="data-point"/>
  
    <circle cx="593.1775700934579" cy="148.91091539127925" r="4" fill="#3b82f6" stroke="#0d1117" stroke-width="2" class="data-point"/>
  
    <circle cx="596.4485981308411" cy="145.83706323996537" r="4" fill="#3b82f6" stroke="#0d1117" stroke-width="2" class="data-point"/>
  
    <circle cx="599.7196261682243" cy="143.24191452497834" r="4" fill="#3b82f6" stroke="#0d1117" stroke-width="2" class="data-point"/>
  
    <circle cx="602.9906542056075" cy="141.04591394744443" r="4" fill="#3b82f6" stroke="#0d1117" stroke-width="2" class="data-point"/>
  
    <circle cx="606.2616822429907" cy="138.96238810280104" r="4" fill="#3b82f6" stroke="#0d1117" stroke-width="2" class="data-point"/>
  
    <circle cx="609.5327102803739" cy="137.2684088940225" r="4" fill="#3b82f6" stroke="#0d1117" stroke-width="2" class="data-point"/>
  
    <circle cx="612.803738317757" cy="135.36045336413517" r="4" fill="#3b82f6" stroke="#0d1117" stroke-width="2" class="data-point"/>
  
    <circle cx="616.0747663551401" cy="133.80501010684378" r="4" fill="#3b82f6" stroke="#0d1117" stroke-width="2" class="data-point"/>
  
    <circle cx="619.3457943925234" cy="131.96975166041005" r="4" fill="#3b82f6" stroke="#0d1117" stroke-width="2" class="data-point"/>
  
    <circle cx="622.6168224299065" cy="129.327967080566" r="4" fill="#3b82f6" stroke="#0d1117" stroke-width="2" class="data-point"/>
  
    <circle cx="625.8878504672897" cy="127.05789777649437" r="4" fill="#3b82f6" stroke="#0d1117" stroke-width="2" class="data-point"/>
  
    <circle cx="629.1588785046729" cy="125.0841033785735" r="4" fill="#3b82f6" stroke="#0d1117" stroke-width="2" class="data-point"/>
  
    <circle cx="632.4299065420561" cy="123.37777938203871" r="4" fill="#3b82f6" stroke="#0d1117" stroke-width="2" class="data-point"/>
  
    <circle cx="635.7009345794393" cy="121.61796130522669" r="4" fill="#3b82f6" stroke="#0d1117" stroke-width="2" class="data-point"/>
  
    <circle cx="638.9719626168225" cy="120.13384348830493" r="4" fill="#3b82f6" stroke="#0d1117" stroke-width="2" class="data-point"/>
  
    <circle cx="642.2429906542056" cy="117.63882471845221" r="4" fill="#3b82f6" stroke="#0d1117" stroke-width="2" class="data-point"/>
  
    <circle cx="645.5140186915888" cy="115.50591972278372" r="4" fill="#3b82f6" stroke="#0d1117" stroke-width="2" class="data-point"/>
  
    <circle cx="648.7850467289719" cy="113.39084608720762" r="4" fill="#3b82f6" stroke="#0d1117" stroke-width="2" class="data-point"/>
  
    <circle cx="652.0560747663552" cy="111.64474444123593" r="4" fill="#3b82f6" stroke="#0d1117" stroke-width="2" class="data-point"/>
  
    <circle cx="655.3271028037383" cy="110.04266531908749" r="4" fill="#3b82f6" stroke="#0d1117" stroke-width="2" class="data-point"/>
  
    <circle cx="658.5981308411215" cy="108.62027144094716" r="4" fill="#3b82f6" stroke="#0d1117" stroke-width="2" class="data-point"/>
  
    <circle cx="661.8691588785047" cy="106.18149003753973" r="4" fill="#3b82f6" stroke="#0d1117" stroke-width="2" class="data-point"/>
  
    <circle cx="665.1401869158879" cy="104.20083742419865" r="4" fill="#3b82f6" stroke="#0d1117" stroke-width="2" class="data-point"/>
  
    <circle cx="668.411214953271" cy="102.39575512561365" r="4" fill="#3b82f6" stroke="#0d1117" stroke-width="2" class="data-point"/>
  
    <circle cx="671.6822429906542" cy="100.67159976898643" r="4" fill="#3b82f6" stroke="#0d1117" stroke-width="2" class="data-point"/>
  
    <circle cx="674.9532710280374" cy="99.16690730580422" r="4" fill="#3b82f6" stroke="#0d1117" stroke-width="2" class="data-point"/>
  
    <circle cx="678.2242990654206" cy="97.70610742131097" r="4" fill="#3b82f6" stroke="#0d1117" stroke-width="2" class="data-point"/>
  
    <circle cx="681.4953271028037" cy="96.36738377129655" r="4" fill="#3b82f6" stroke="#0d1117" stroke-width="2" class="data-point"/>
  
    <circle cx="684.766355140187" cy="95.08352584464336" r="4" fill="#3b82f6" stroke="#0d1117" stroke-width="2" class="data-point"/>
  
    <circle cx="688.0373831775701" cy="93.90665607854461" r="4" fill="#3b82f6" stroke="#0d1117" stroke-width="2" class="data-point"/>
  
    <circle cx="691.3084112149533" cy="92.43762633554721" r="4" fill="#3b82f6" stroke="#0d1117" stroke-width="2" class="data-point"/>
  
    <circle cx="694.5794392523364" cy="90.86023678891135" r="4" fill="#3b82f6" stroke="#0d1117" stroke-width="2" class="data-point"/>
  
    <circle cx="697.8504672897196" cy="89.40903840600637" r="4" fill="#3b82f6" stroke="#0d1117" stroke-width="2" class="data-point"/>
  
    <circle cx="701.1214953271028" cy="87.15405717585907" r="4" fill="#3b82f6" stroke="#0d1117" stroke-width="2" class="data-point"/>
  
    <circle cx="704.392523364486" cy="85.51768697660987" r="4" fill="#3b82f6" stroke="#0d1117" stroke-width="2" class="data-point"/>
  
    <circle cx="707.6635514018692" cy="83.95264221773027" r="4" fill="#3b82f6" stroke="#0d1117" stroke-width="2" class="data-point"/>
  
    <circle cx="710.9345794392524" cy="82.57962749061505" r="4" fill="#3b82f6" stroke="#0d1117" stroke-width="2" class="data-point"/>
  
    <circle cx="714.2056074766355" cy="80.96931850996248" r="4" fill="#3b82f6" stroke="#0d1117" stroke-width="2" class="data-point"/>
  
    <circle cx="717.4766355140188" cy="78.99140918278948" r="4" fill="#3b82f6" stroke="#0d1117" stroke-width="2" class="data-point"/>
  
    <circle cx="720.7476635514018" cy="77.23844932139764" r="4" fill="#3b82f6" stroke="#0d1117" stroke-width="2" class="data-point"/>
  
    <circle cx="724.018691588785" cy="75.67340456251804" r="4" fill="#3b82f6" stroke="#0d1117" stroke-width="2" class="data-point"/>
  
    <circle cx="727.2897196261682" cy="73.97393878140343" r="4" fill="#3b82f6" stroke="#0d1117" stroke-width="2" class="data-point"/>
  
    <circle cx="730.5607476635514" cy="71.62980075079412" r="4" fill="#3b82f6" stroke="#0d1117" stroke-width="2" class="data-point"/>
  
    <circle cx="733.8317757009346" cy="69.70538550389836" r="4" fill="#3b82f6" stroke="#0d1117" stroke-width="2" class="data-point"/>
  
    <circle cx="737.1028037383178" cy="67.64106266243141" r="4" fill="#3b82f6" stroke="#0d1117" stroke-width="2" class="data-point"/>
  
    <circle cx="740.373831775701" cy="65.58359803638461" r="4" fill="#3b82f6" stroke="#0d1117" stroke-width="2" class="data-point"/>
  
    <circle cx="743.6448598130842" cy="63.66741264799305" r="4" fill="#3b82f6" stroke="#0d1117" stroke-width="2" class="data-point"/>
  
    <circle cx="746.9158878504672" cy="61.78688997978628" r="4" fill="#3b82f6" stroke="#0d1117" stroke-width="2" class="data-point"/>
  
    <circle cx="750.1869158878505" cy="59.79663586485708" r="4" fill="#3b82f6" stroke="#0d1117" stroke-width="2" class="data-point"/>
  
    <circle cx="753.4579439252336" cy="58.0121282125325" r="4" fill="#3b82f6" stroke="#0d1117" stroke-width="2" class="data-point"/>
  
    <circle cx="756.7289719626168" cy="56.44845509673695" r="4" fill="#3b82f6" stroke="#0d1117" stroke-width="2" class="data-point"/>
  
    <circle cx="760" cy="55" r="4" fill="#3b82f6" stroke="#0d1117" stroke-width="2" class="data-point"/>
  

  <!-- Axis lines -->
  <line x1="60" y1="55" x2="60" y2="340"
        stroke="#30363d" stroke-width="2"/>
  <line x1="60" y1="340" x2="760" y2="340"
        stroke="#30363d" stroke-width="2"/>
</svg>