<?xml version="1.0" encoding="UTF-8"?>
<svg width="800" height="400" xmlns="http://www.w3.org/2000/svg">
  <defs>
    <!-- Gradient for area fill -->
    <linearGradient id="areaGradient" x1="0%" y1="0%" x2="0%" y2="100%">
      <stop offset="0%" style="stop-color:#3b82f6;stop-opacity:0.3" />
      <stop offset="100%" style="stop-color:#3b82f6;stop-opacity:0.05" />
    </linearGradient>

    <!-- Glow filter for line -->
    <filter id="glow">
      <feGaussianBlur stdDeviation="2" result="coloredBlur"/>
      <feMerge>
        <feMergeNode in="coloredBlur"/>
        <feMergeNode in="SourceGraphic"/>
      </feMerge>
    </filter>

    <!-- Animation -->
    <style>
      @keyframes draw {
        from { stroke-dashoffset: 2000; }
        to { stroke-dashoffset: 0; }
      }
      @keyframes fadeIn {
        from { opacity: 0; }
        to { opacity: 1; }
      }
      .line-path {
        stroke-dasharray: 2000;
        stroke-dashoffset: 2000;
        animation: draw 1.5s ease-out forwards;
      }
      .area-path {
        opacity: 0;
        animation: fadeIn 1s ease-out 0.5s forwards;
      }
      .data-point {
        opacity: 0;
        animation: fadeIn 0.5s ease-out 1s forwards;
      }
    </style>
  </defs>

  <!-- Background -->
  <rect width="800" height="400" fill="#0d1117" rx="8"/>

  <!-- Title -->
  <text x="400" y="25" text-anchor="middle" fill="#c9d1d9" font-family="system-ui, -apple-system, sans-serif" font-size="16" font-weight="600">
    zxcloli666/SoundCloud-Desktop Downloads
  </text>

  <!-- Stats -->
  <text x="780" y="25" text-anchor="end" fill="#58a6ff" font-family="system-ui, -apple-system, sans-serif" font-size="14" font-weight="600">
    101.9K total
  </text>
  <text x="780" y="42" text-anchor="end" fill="#3fb950" font-family="system-ui, -apple-system, sans-serif" font-size="12">
    +776 (+0.8%)
  </text>

  <!-- Grid lines -->
  <g opacity="0.1">
    
      <line x1="60" y1="340" x2="760" y2="340"
            stroke="#c9d1d9" stroke-width="1"/>
    
      <line x1="60" y1="268.75" x2="760" y2="268.75"
            stroke="#c9d1d9" stroke-width="1"/>
    
      <line x1="60" y1="197.5" x2="760" y2="197.5"
            stroke="#c9d1d9" stroke-width="1"/>
    
      <line x1="60" y1="126.25" x2="760" y2="126.25"
            stroke="#c9d1d9" stroke-width="1"/>
    
      <line x1="60" y1="55" x2="760" y2="55"
            stroke="#c9d1d9" stroke-width="1"/>
    
  </g>

  <!-- Y-axis labels -->
  
    <text x="50" y="344" text-anchor="end"
          fill="#8b949e" font-family="system-ui, -apple-system, sans-serif" font-size="11">
      60.2K
    </text>
  
    <text x="50" y="272.75" text-anchor="end"
          fill="#8b949e" font-family="system-ui, -apple-system, sans-serif" font-size="11">
      70.6K
    </text>
  
    <text x="50" y="201.5" text-anchor="end"
          fill="#8b949e" font-family="system-ui, -apple-system, sans-serif" font-size="11">
      81.0K
    </text>
  
    <text x="50" y="130.25" text-anchor="end"
          fill="#8b949e" font-family="system-ui, -apple-system, sans-serif" font-size="11">
      91.5K
    </text>
  
    <text x="50" y="59" text-anchor="end"
          fill="#8b949e" font-family="system-ui, -apple-system, sans-serif" font-size="11">
      101.9K
    </text>
  

  <!-- X-axis labels -->
  
    <text x="60" y="360" text-anchor="middle"
          fill="#8b949e" font-family="system-ui, -apple-system, sans-serif" font-size="11">
      Nov 25
    </text>
  
    <text x="148.3495145631068" y="360" text-anchor="middle"
          fill="#8b949e" font-family="system-ui, -apple-system, sans-serif" font-size="11">
      Dec 8
    </text>
  
    <text x="236.6990291262136" y="360" text-anchor="middle"
          fill="#8b949e" font-family="system-ui, -apple-system, sans-serif" font-size="11">
      Dec 21
    </text>
  
    <text x="325.0485436893204" y="360" text-anchor="middle"
          fill="#8b949e" font-family="system-ui, -apple-system, sans-serif" font-size="11">
      Jan 3
    </text>
  
    <text x="413.3980582524272" y="360" text-anchor="middle"
          fill="#8b949e" font-family="system-ui, -apple-system, sans-serif" font-size="11">
      Jan 16
    </text>
  
    <text x="501.747572815534" y="360" text-anchor="middle"
          fill="#8b949e" font-family="system-ui, -apple-system, sans-serif" font-size="11">
      Jan 29
    </text>
  
    <text x="590.0970873786408" y="360" text-anchor="middle"
          fill="#8b949e" font-family="system-ui, -apple-system, sans-serif" font-size="11">
      Feb 11
    </text>
  
    <text x="678.4466019417476" y="360" text-anchor="middle"
          fill="#8b949e" font-family="system-ui, -apple-system, sans-serif" font-size="11">
      Feb 24
    </text>
  
    <text x="760" y="360" text-anchor="middle"
          fill="#8b949e" font-family="system-ui, -apple-system, sans-serif" font-size="11">
      Mar 8
    </text>
  

  <!-- Area under line -->
  <path d="M 60 340
    L 60.00 340.00 L 66.80 339.00 L 73.59 337.29 L 80.39 335.70 L 87.18 332.56 L 93.98 329.31 L 100.78 326.74 L 107.57 324.35 L 114.37 322.23 L 121.17 319.74 L 127.96 316.96 L 134.76 313.98 L 141.55 311.28 L 148.35 308.40 L 155.15 306.30 L 161.94 304.13 L 168.74 301.18 L 175.53 299.21 L 182.33 296.48 L 189.13 293.32 L 195.92 290.95 L 202.72 288.99 L 209.51 287.73 L 216.31 286.68 L 223.11 284.73 L 229.90 283.34 L 236.70 280.31 L 243.50 279.11 L 250.29 277.57 L 257.09 275.57 L 263.88 274.21 L 270.68 272.82 L 277.48 271.37 L 284.27 270.35 L 291.07 269.48 L 297.86 268.15 L 304.66 266.53 L 311.46 265.04 L 318.25 263.16 L 325.05 261.10 L 331.84 259.22 L 338.64 256.94 L 345.44 254.71 L 352.23 252.48 L 359.03 250.03 L 365.83 247.70 L 372.62 245.03 L 379.42 242.64 L 386.21 240.63 L 393.01 239.02 L 399.81 236.76 L 406.60 234.19 L 413.40 231.83 L 420.19 229.08 L 426.99 225.68 L 433.79 223.16 L 440.58 221.06 L 447.38 219.07 L 454.17 216.67 L 460.97 213.88 L 467.77 210.80 L 474.56 207.55 L 481.36 204.44 L 488.16 201.70 L 494.95 198.98 L 501.75 196.58 L 508.54 194.14 L 515.34 191.41 L 522.14 188.01 L 528.93 185.47 L 535.73 183.21 L 542.52 180.69 L 549.32 178.34 L 556.12 175.76 L 562.91 173.06 L 569.71 170.25 L 576.50 167.79 L 583.30 165.68 L 590.10 163.36 L 596.89 160.85 L 603.69 158.53 L 610.49 155.51 L 617.28 152.90 L 624.08 150.40 L 630.87 148.32 L 637.67 146.29 L 644.47 144.27 L 651.26 141.84 L 658.06 139.35 L 664.85 136.32 L 671.65 133.87 L 678.45 131.87 L 685.24 129.81 L 692.04 127.85 L 698.83 125.42 L 705.63 122.92 L 712.43 117.41 L 719.22 106.45 L 726.02 93.38 L 732.82 81.48 L 739.61 75.44 L 746.41 66.34 L 753.20 60.30 L 760.00 55.00
    L 760 340
    Z" fill="url(#areaGradient)" class="area-path"/>

  <!-- Main line with glow -->
  <path d="M 60.00 340.00 L 66.80 339.00 L 73.59 337.29 L 80.39 335.70 L 87.18 332.56 L 93.98 329.31 L 100.78 326.74 L 107.57 324.35 L 114.37 322.23 L 121.17 319.74 L 127.96 316.96 L 134.76 313.98 L 141.55 311.28 L 148.35 308.40 L 155.15 306.30 L 161.94 304.13 L 168.74 301.18 L 175.53 299.21 L 182.33 296.48 L 189.13 293.32 L 195.92 290.95 L 202.72 288.99 L 209.51 287.73 L 216.31 286.68 L 223.11 284.73 L 229.90 283.34 L 236.70 280.31 L 243.50 279.11 L 250.29 277.57 L 257.09 275.57 L 263.88 274.21 L 270.68 272.82 L 277.48 271.37 L 284.27 270.35 L 291.07 269.48 L 297.86 268.15 L 304.66 266.53 L 311.46 265.04 L 318.25 263.16 L 325.05 261.10 L 331.84 259.22 L 338.64 256.94 L 345.44 254.71 L 352.23 252.48 L 359.03 250.03 L 365.83 247.70 L 372.62 245.03 L 379.42 242.64 L 386.21 240.63 L 393.01 239.02 L 399.81 236.76 L 406.60 234.19 L 413.40 231.83 L 420.19 229.08 L 426.99 225.68 L 433.79 223.16 L 440.58 221.06 L 447.38 219.07 L 454.17 216.67 L 460.97 213.88 L 467.77 210.80 L 474.56 207.55 L 481.36 204.44 L 488.16 201.70 L 494.95 198.98 L 501.75 196.58 L 508.54 194.14 L 515.34 191.41 L 522.14 188.01 L 528.93 185.47 L 535.73 183.21 L 542.52 180.69 L 549.32 178.34 L 556.12 175.76 L 562.91 173.06 L 569.71 170.25 L 576.50 167.79 L 583.30 165.68 L 590.10 163.36 L 596.89 160.85 L 603.69 158.53 L 610.49 155.51 L 617.28 152.90 L 624.08 150.40 L 630.87 148.32 L 637.67 146.29 L 644.47 144.27 L 651.26 141.84 L 658.06 139.35 L 664.85 136.32 L 671.65 133.87 L 678.45 131.87 L 685.24 129.81 L 692.04 127.85 L 698.83 125.42 L 705.63 122.92 L 712.43 117.41 L 719.22 106.45 L 726.02 93.38 L 732.82 81.48 L 739.61 75.44 L 746.41 66.34 L 753.20 60.30 L 760.00 55.00" fill="none" stroke="#3b82f6" stroke-width="3"
        stroke-linecap="round" stroke-linejoin="round" filter="url(#glow)" class="line-path"/>

  <!-- Data points -->
  
    <circle cx="60" cy="340" r="4" fill="#3b82f6" stroke="#0d1117" stroke-width="2" class="data-point"/>
  
    <circle cx="66.79611650485437" cy="338.99609412441293" r="4" fill="#3b82f6" stroke="#0d1117" stroke-width="2" class="data-point"/>
  
    <circle cx="73.59223300970874" cy="337.2887712067478" r="4" fill="#3b82f6" stroke="#0d1117" stroke-width="2" class="data-point"/>
  
    <circle cx="80.3883495145631" cy="335.7043755391546" r="4" fill="#3b82f6" stroke="#0d1117" stroke-width="2" class="data-point"/>
  
    <circle cx="87.18446601941747" cy="332.55607207898015" r="4" fill="#3b82f6" stroke="#0d1117" stroke-width="2" class="data-point"/>
  
    <circle cx="93.98058252427185" cy="329.3053292437458" r="4" fill="#3b82f6" stroke="#0d1117" stroke-width="2" class="data-point"/>
  
    <circle cx="100.7766990291262" cy="326.7443448672482" r="4" fill="#3b82f6" stroke="#0d1117" stroke-width="2" class="data-point"/>
  
    <circle cx="107.57281553398059" cy="324.354092782517" r="4" fill="#3b82f6" stroke="#0d1117" stroke-width="2" class="data-point"/>
  
    <circle cx="114.36893203883494" cy="322.2301830729416" r="4" fill="#3b82f6" stroke="#0d1117" stroke-width="2" class="data-point"/>
  
    <circle cx="121.16504854368932" cy="319.73749161315055" r="4" fill="#3b82f6" stroke="#0d1117" stroke-width="2" class="data-point"/>
  
    <circle cx="127.96116504854369" cy="316.9579699031918" r="4" fill="#3b82f6" stroke="#0d1117" stroke-width="2" class="data-point"/>
  
    <circle cx="134.75728155339806" cy="313.9803987347839" r="4" fill="#3b82f6" stroke="#0d1117" stroke-width="2" class="data-point"/>
  
    <circle cx="141.5533980582524" cy="311.27599923320236" r="4" fill="#3b82f6" stroke="#0d1117" stroke-width="2" class="data-point"/>
  
    <circle cx="148.3495145631068" cy="308.4008674398543" r="4" fill="#3b82f6" stroke="#0d1117" stroke-width="2" class="data-point"/>
  
    <circle cx="155.14563106796118" cy="306.30427489696154" r="4" fill="#3b82f6" stroke="#0d1117" stroke-width="2" class="data-point"/>
  
    <circle cx="161.94174757281553" cy="304.13256014569157" r="4" fill="#3b82f6" stroke="#0d1117" stroke-width="2" class="data-point"/>
  
    <circle cx="168.73786407766988" cy="301.18230614396623" r="4" fill="#3b82f6" stroke="#0d1117" stroke-width="2" class="data-point"/>
  
    <circle cx="175.5339805825243" cy="299.2086408511454" r="4" fill="#3b82f6" stroke="#0d1117" stroke-width="2" class="data-point"/>
  
    <circle cx="182.33009708737865" cy="296.47692418288125" r="4" fill="#3b82f6" stroke="#0d1117" stroke-width="2" class="data-point"/>
  
    <circle cx="189.126213592233" cy="293.3217914310361" r="4" fill="#3b82f6" stroke="#0d1117" stroke-width="2" class="data-point"/>
  
    <circle cx="195.92233009708738" cy="290.9451979296463" r="4" fill="#3b82f6" stroke="#0d1117" stroke-width="2" class="data-point"/>
  
    <circle cx="202.71844660194174" cy="288.99202051183744" r="4" fill="#3b82f6" stroke="#0d1117" stroke-width="2" class="data-point"/>
  
    <circle cx="209.51456310679612" cy="287.72860155276527" r="4" fill="#3b82f6" stroke="#0d1117" stroke-width="2" class="data-point"/>
  
    <circle cx="216.3106796116505" cy="286.6768906354836" r="4" fill="#3b82f6" stroke="#0d1117" stroke-width="2" class="data-point"/>
  
    <circle cx="223.10679611650485" cy="284.73054250934536" r="4" fill="#3b82f6" stroke="#0d1117" stroke-width="2" class="data-point"/>
  
    <circle cx="229.90291262135923" cy="283.3441963002013" r="4" fill="#3b82f6" stroke="#0d1117" stroke-width="2" class="data-point"/>
  
    <circle cx="236.6990291262136" cy="280.30516150675743" r="4" fill="#3b82f6" stroke="#0d1117" stroke-width="2" class="data-point"/>
  
    <circle cx="243.49514563106797" cy="279.11003546439184" r="4" fill="#3b82f6" stroke="#0d1117" stroke-width="2" class="data-point"/>
  
    <circle cx="250.29126213592232" cy="277.56661554682256" r="4" fill="#3b82f6" stroke="#0d1117" stroke-width="2" class="data-point"/>
  
    <circle cx="257.0873786407767" cy="275.5724623789897" r="4" fill="#3b82f6" stroke="#0d1117" stroke-width="2" class="data-point"/>
  
    <circle cx="263.88349514563106" cy="274.20660404485767" r="4" fill="#3b82f6" stroke="#0d1117" stroke-width="2" class="data-point"/>
  
    <circle cx="270.6796116504854" cy="272.8202578357136" r="4" fill="#3b82f6" stroke="#0d1117" stroke-width="2" class="data-point"/>
  
    <circle cx="277.47572815533977" cy="271.36561870986293" r="4" fill="#3b82f6" stroke="#0d1117" stroke-width="2" class="data-point"/>
  
    <circle cx="284.27184466019423" cy="270.3548835426052" r="4" fill="#3b82f6" stroke="#0d1117" stroke-width="2" class="data-point"/>
  
    <circle cx="291.0679611650486" cy="269.4807342087607" r="4" fill="#3b82f6" stroke="#0d1117" stroke-width="2" class="data-point"/>
  
    <circle cx="297.86407766990294" cy="268.1490223329819" r="4" fill="#3b82f6" stroke="#0d1117" stroke-width="2" class="data-point"/>
  
    <circle cx="304.6601941747573" cy="266.53048020703534" r="4" fill="#3b82f6" stroke="#0d1117" stroke-width="2" class="data-point"/>
  
    <circle cx="311.45631067961165" cy="265.0416946228314" r="4" fill="#3b82f6" stroke="#0d1117" stroke-width="2" class="data-point"/>
  
    <circle cx="318.252427184466" cy="263.1568101217291" r="4" fill="#3b82f6" stroke="#0d1117" stroke-width="2" class="data-point"/>
  
    <circle cx="325.0485436893204" cy="261.10119332886035" r="4" fill="#3b82f6" stroke="#0d1117" stroke-width="2" class="data-point"/>
  
    <circle cx="331.84466019417476" cy="259.2163088277581" r="4" fill="#3b82f6" stroke="#0d1117" stroke-width="2" class="data-point"/>
  
    <circle cx="338.6407766990291" cy="256.9421547014282" r="4" fill="#3b82f6" stroke="#0d1117" stroke-width="2" class="data-point"/>
  
    <circle cx="345.43689320388347" cy="254.7089763251222" r="4" fill="#3b82f6" stroke="#0d1117" stroke-width="2" class="data-point"/>
  
    <circle cx="352.2330097087378" cy="252.47579794881625" r="4" fill="#3b82f6" stroke="#0d1117" stroke-width="2" class="data-point"/>
  
    <circle cx="359.02912621359224" cy="250.03091153071983" r="4" fill="#3b82f6" stroke="#0d1117" stroke-width="2" class="data-point"/>
  
    <circle cx="365.8252427184466" cy="247.69529377935396" r="4" fill="#3b82f6" stroke="#0d1117" stroke-width="2" class="data-point"/>
  
    <circle cx="372.621359223301" cy="245.02504073612576" r="4" fill="#3b82f6" stroke="#0d1117" stroke-width="2" class="data-point"/>
  
    <circle cx="379.41747572815535" cy="242.64161794306528" r="4" fill="#3b82f6" stroke="#0d1117" stroke-width="2" class="data-point"/>
  
    <circle cx="386.2135922330097" cy="240.62697690022046" r="4" fill="#3b82f6" stroke="#0d1117" stroke-width="2" class="data-point"/>
  
    <circle cx="393.00970873786406" cy="239.01526406594462" r="4" fill="#3b82f6" stroke="#0d1117" stroke-width="2" class="data-point"/>
  
    <circle cx="399.80582524271847" cy="236.76159781462667" r="4" fill="#3b82f6" stroke="#0d1117" stroke-width="2" class="data-point"/>
  
    <circle cx="406.6019417475728" cy="234.1869548547877" r="4" fill="#3b82f6" stroke="#0d1117" stroke-width="2" class="data-point"/>
  
    <circle cx="413.3980582524272" cy="231.83084922840985" r="4" fill="#3b82f6" stroke="#0d1117" stroke-width="2" class="data-point"/>
  
    <circle cx="420.19417475728153" cy="229.07864468513372" r="4" fill="#3b82f6" stroke="#0d1117" stroke-width="2" class="data-point"/>
  
    <circle cx="426.99029126213594" cy="225.68448672481549" r="4" fill="#3b82f6" stroke="#0d1117" stroke-width="2" class="data-point"/>
  
    <circle cx="433.7864077669903" cy="223.15764880667115" r="4" fill="#3b82f6" stroke="#0d1117" stroke-width="2" class="data-point"/>
  
    <circle cx="440.58252427184465" cy="221.0610562637784" r="4" fill="#3b82f6" stroke="#0d1117" stroke-width="2" class="data-point"/>
  
    <circle cx="447.378640776699" cy="219.06690309594555" r="4" fill="#3b82f6" stroke="#0d1117" stroke-width="2" class="data-point"/>
  
    <circle cx="454.17475728155335" cy="216.66982171954373" r="4" fill="#3b82f6" stroke="#0d1117" stroke-width="2" class="data-point"/>
  
    <circle cx="460.97087378640776" cy="213.88347071791432" r="4" fill="#3b82f6" stroke="#0d1117" stroke-width="2" class="data-point"/>
  
    <circle cx="467.7669902912621" cy="210.79663088277582" r="4" fill="#3b82f6" stroke="#0d1117" stroke-width="2" class="data-point"/>
  
    <circle cx="474.5631067961165" cy="207.5527173392121" r="4" fill="#3b82f6" stroke="#0d1117" stroke-width="2" class="data-point"/>
  
    <circle cx="481.3592233009708" cy="204.43856033739098" r="4" fill="#3b82f6" stroke="#0d1117" stroke-width="2" class="data-point"/>
  
    <circle cx="488.15533980582524" cy="201.70001437745614" r="4" fill="#3b82f6" stroke="#0d1117" stroke-width="2" class="data-point"/>
  
    <circle cx="494.9514563106796" cy="198.9819562925333" r="4" fill="#3b82f6" stroke="#0d1117" stroke-width="2" class="data-point"/>
  
    <circle cx="501.747572815534" cy="196.5848749161315" r="4" fill="#3b82f6" stroke="#0d1117" stroke-width="2" class="data-point"/>
  
    <circle cx="508.5436893203884" cy="194.13998849803508" r="4" fill="#3b82f6" stroke="#0d1117" stroke-width="2" class="data-point"/>
  
    <circle cx="515.3398058252428" cy="191.4082718297709" r="4" fill="#3b82f6" stroke="#0d1117" stroke-width="2" class="data-point"/>
  
    <circle cx="522.1359223300972" cy="188.00728457778203" r="4" fill="#3b82f6" stroke="#0d1117" stroke-width="2" class="data-point"/>
  
    <circle cx="528.9320388349515" cy="185.47361736796702" r="4" fill="#3b82f6" stroke="#0d1117" stroke-width="2" class="data-point"/>
  
    <circle cx="535.7281553398059" cy="183.2062925333078" r="4" fill="#3b82f6" stroke="#0d1117" stroke-width="2" class="data-point"/>
  
    <circle cx="542.5242718446602" cy="180.6862839068341" r="4" fill="#3b82f6" stroke="#0d1117" stroke-width="2" class="data-point"/>
  
    <circle cx="549.3203883495146" cy="178.3370075721269" r="4" fill="#3b82f6" stroke="#0d1117" stroke-width="2" class="data-point"/>
  
    <circle cx="556.1165048543689" cy="175.7555353206173" r="4" fill="#3b82f6" stroke="#0d1117" stroke-width="2" class="data-point"/>
  
    <circle cx="562.9126213592233" cy="173.0647944023771" r="4" fill="#3b82f6" stroke="#0d1117" stroke-width="2" class="data-point"/>
  
    <circle cx="569.7087378640776" cy="170.25112623406497" r="4" fill="#3b82f6" stroke="#0d1117" stroke-width="2" class="data-point"/>
  
    <circle cx="576.504854368932" cy="167.7857519409566" r="4" fill="#3b82f6" stroke="#0d1117" stroke-width="2" class="data-point"/>
  
    <circle cx="583.3009708737864" cy="165.67550081472254" r="4" fill="#3b82f6" stroke="#0d1117" stroke-width="2" class="data-point"/>
  
    <circle cx="590.0970873786408" cy="163.36037093836865" r="4" fill="#3b82f6" stroke="#0d1117" stroke-width="2" class="data-point"/>
  
    <circle cx="596.8932038834952" cy="160.8540208952363" r="4" fill="#3b82f6" stroke="#0d1117" stroke-width="2" class="data-point"/>
  
    <circle cx="603.6893203883495" cy="158.53206172721173" r="4" fill="#3b82f6" stroke="#0d1117" stroke-width="2" class="data-point"/>
  
    <circle cx="610.4854368932039" cy="155.50668551710916" r="4" fill="#3b82f6" stroke="#0d1117" stroke-width="2" class="data-point"/>
  
    <circle cx="617.2815533980582" cy="152.90472539058757" r="4" fill="#3b82f6" stroke="#0d1117" stroke-width="2" class="data-point"/>
  
    <circle cx="624.0776699029126" cy="150.39837534745521" r="4" fill="#3b82f6" stroke="#0d1117" stroke-width="2" class="data-point"/>
  
    <circle cx="630.8737864077669" cy="148.31544138790375" r="4" fill="#3b82f6" stroke="#0d1117" stroke-width="2" class="data-point"/>
  
    <circle cx="637.6699029126213" cy="146.29397105338828" r="4" fill="#3b82f6" stroke="#0d1117" stroke-width="2" class="data-point"/>
  
    <circle cx="644.4660194174756" cy="144.26567142720216" r="4" fill="#3b82f6" stroke="#0d1117" stroke-width="2" class="data-point"/>
  
    <circle cx="651.2621359223301" cy="141.8412728841177" r="4" fill="#3b82f6" stroke="#0d1117" stroke-width="2" class="data-point"/>
  
    <circle cx="658.0582524271845" cy="139.34858142432668" r="4" fill="#3b82f6" stroke="#0d1117" stroke-width="2" class="data-point"/>
  
    <circle cx="664.8543689320388" cy="136.3232052142241" r="4" fill="#3b82f6" stroke="#0d1117" stroke-width="2" class="data-point"/>
  
    <circle cx="671.6504854368932" cy="133.871489504457" r="4" fill="#3b82f6" stroke="#0d1117" stroke-width="2" class="data-point"/>
  
    <circle cx="678.4466019417476" cy="131.8705070449535" r="4" fill="#3b82f6" stroke="#0d1117" stroke-width="2" class="data-point"/>
  
    <circle cx="685.242718446602" cy="129.81489025208472" r="4" fill="#3b82f6" stroke="#0d1117" stroke-width="2" class="data-point"/>
  
    <circle cx="692.0388349514564" cy="127.84805425093455" r="4" fill="#3b82f6" stroke="#0d1117" stroke-width="2" class="data-point"/>
  
    <circle cx="698.8349514563107" cy="125.41682641617945" r="4" fill="#3b82f6" stroke="#0d1117" stroke-width="2" class="data-point"/>
  
    <circle cx="705.6310679611651" cy="122.92413495638837" r="4" fill="#3b82f6" stroke="#0d1117" stroke-width="2" class="data-point"/>
  
    <circle cx="712.4271844660194" cy="117.41289657816543" r="4" fill="#3b82f6" stroke="#0d1117" stroke-width="2" class="data-point"/>
  
    <circle cx="719.2233009708738" cy="106.44505415508485" r="4" fill="#3b82f6" stroke="#0d1117" stroke-width="2" class="data-point"/>
  
    <circle cx="726.0194174757281" cy="93.38061918911148" r="4" fill="#3b82f6" stroke="#0d1117" stroke-width="2" class="data-point"/>
  
    <circle cx="732.8155339805826" cy="81.47716380715036" r="4" fill="#3b82f6" stroke="#0d1117" stroke-width="2" class="data-point"/>
  
    <circle cx="739.6116504854369" cy="75.44006997028657" r="4" fill="#3b82f6" stroke="#0d1117" stroke-width="2" class="data-point"/>
  
    <circle cx="746.4077669902913" cy="66.34345346496696" r="4" fill="#3b82f6" stroke="#0d1117" stroke-width="2" class="data-point"/>
  
    <circle cx="753.2038834951456" cy="60.2995303364325" r="4" fill="#3b82f6" stroke="#0d1117" stroke-width="2" class="data-point"/>
  
    <circle cx="760" cy="55" r="4" fill="#3b82f6" stroke="#0d1117" stroke-width="2" class="data-point"/>
  

  <!-- Axis lines -->
  <line x1="60" y1="55" x2="60" y2="340"
        stroke="#30363d" stroke-width="2"/>
  <line x1="60" y1="340" x2="760" y2="340"
        stroke="#30363d" stroke-width="2"/>
</svg>