<?xml version="1.0" encoding="UTF-8"?>
<svg width="800" height="400" xmlns="http://www.w3.org/2000/svg">
  <defs>
    <!-- Gradient for area fill -->
    <linearGradient id="areaGradient" x1="0%" y1="0%" x2="0%" y2="100%">
      <stop offset="0%" style="stop-color:#3b82f6;stop-opacity:0.3" />
      <stop offset="100%" style="stop-color:#3b82f6;stop-opacity:0.05" />
    </linearGradient>

    <!-- Glow filter for line -->
    <filter id="glow">
      <feGaussianBlur stdDeviation="2" result="coloredBlur"/>
      <feMerge>
        <feMergeNode in="coloredBlur"/>
        <feMergeNode in="SourceGraphic"/>
      </feMerge>
    </filter>

    <!-- Animation -->
    <style>
      @keyframes draw {
        from { stroke-dashoffset: 2000; }
        to { stroke-dashoffset: 0; }
      }
      @keyframes fadeIn {
        from { opacity: 0; }
        to { opacity: 1; }
      }
      .line-path {
        stroke-dasharray: 2000;
        stroke-dashoffset: 2000;
        animation: draw 1.5s ease-out forwards;
      }
      .area-path {
        opacity: 0;
        animation: fadeIn 1s ease-out 0.5s forwards;
      }
      .data-point {
        opacity: 0;
        animation: fadeIn 0.5s ease-out 1s forwards;
      }
    </style>
  </defs>

  <!-- Background -->
  <rect width="800" height="400" fill="#0d1117" rx="8"/>

  <!-- Title -->
  <text x="400" y="25" text-anchor="middle" fill="#c9d1d9" font-family="system-ui, -apple-system, sans-serif" font-size="16" font-weight="600">
    zxcloli666/SoundCloud-Desktop Downloads
  </text>

  <!-- Stats -->
  <text x="780" y="25" text-anchor="end" fill="#58a6ff" font-family="system-ui, -apple-system, sans-serif" font-size="14" font-weight="600">
    228.8K total
  </text>
  <text x="780" y="42" text-anchor="end" fill="#3fb950" font-family="system-ui, -apple-system, sans-serif" font-size="12">
    +1.0K (+0.5%)
  </text>

  <!-- Grid lines -->
  <g opacity="0.1">
    
      <line x1="60" y1="340" x2="760" y2="340"
            stroke="#c9d1d9" stroke-width="1"/>
    
      <line x1="60" y1="268.75" x2="760" y2="268.75"
            stroke="#c9d1d9" stroke-width="1"/>
    
      <line x1="60" y1="197.5" x2="760" y2="197.5"
            stroke="#c9d1d9" stroke-width="1"/>
    
      <line x1="60" y1="126.25" x2="760" y2="126.25"
            stroke="#c9d1d9" stroke-width="1"/>
    
      <line x1="60" y1="55" x2="760" y2="55"
            stroke="#c9d1d9" stroke-width="1"/>
    
  </g>

  <!-- Y-axis labels -->
  
    <text x="50" y="344" text-anchor="end"
          fill="#8b949e" font-family="system-ui, -apple-system, sans-serif" font-size="11">
      60.2K
    </text>
  
    <text x="50" y="272.75" text-anchor="end"
          fill="#8b949e" font-family="system-ui, -apple-system, sans-serif" font-size="11">
      102.3K
    </text>
  
    <text x="50" y="201.5" text-anchor="end"
          fill="#8b949e" font-family="system-ui, -apple-system, sans-serif" font-size="11">
      144.5K
    </text>
  
    <text x="50" y="130.25" text-anchor="end"
          fill="#8b949e" font-family="system-ui, -apple-system, sans-serif" font-size="11">
      186.7K
    </text>
  
    <text x="50" y="59" text-anchor="end"
          fill="#8b949e" font-family="system-ui, -apple-system, sans-serif" font-size="11">
      228.8K
    </text>
  

  <!-- X-axis labels -->
  
    <text x="60" y="360" text-anchor="middle"
          fill="#8b949e" font-family="system-ui, -apple-system, sans-serif" font-size="11">
      Nov 25
    </text>
  
    <text x="147.97814207650273" y="360" text-anchor="middle"
          fill="#8b949e" font-family="system-ui, -apple-system, sans-serif" font-size="11">
      Dec 18
    </text>
  
    <text x="235.95628415300547" y="360" text-anchor="middle"
          fill="#8b949e" font-family="system-ui, -apple-system, sans-serif" font-size="11">
      Jan 10
    </text>
  
    <text x="323.9344262295082" y="360" text-anchor="middle"
          fill="#8b949e" font-family="system-ui, -apple-system, sans-serif" font-size="11">
      Feb 2
    </text>
  
    <text x="411.91256830601094" y="360" text-anchor="middle"
          fill="#8b949e" font-family="system-ui, -apple-system, sans-serif" font-size="11">
      Feb 25
    </text>
  
    <text x="499.8907103825137" y="360" text-anchor="middle"
          fill="#8b949e" font-family="system-ui, -apple-system, sans-serif" font-size="11">
      Mar 20
    </text>
  
    <text x="587.8688524590164" y="360" text-anchor="middle"
          fill="#8b949e" font-family="system-ui, -apple-system, sans-serif" font-size="11">
      Apr 12
    </text>
  
    <text x="675.8469945355191" y="360" text-anchor="middle"
          fill="#8b949e" font-family="system-ui, -apple-system, sans-serif" font-size="11">
      May 5
    </text>
  
    <text x="760" y="360" text-anchor="middle"
          fill="#8b949e" font-family="system-ui, -apple-system, sans-serif" font-size="11">
      May 27
    </text>
  

  <!-- Area under line -->
  <path d="M 60 340
    L 60.00 340.00 L 63.83 339.75 L 67.65 339.33 L 71.48 338.94 L 75.30 338.16 L 79.13 337.35 L 82.95 336.72 L 86.78 336.13 L 90.60 335.60 L 94.43 334.99 L 98.25 334.30 L 102.08 333.56 L 105.90 332.89 L 109.73 332.18 L 113.55 331.66 L 117.38 331.13 L 121.20 330.40 L 125.03 329.91 L 128.85 329.23 L 132.68 328.45 L 136.50 327.86 L 140.33 327.38 L 144.15 327.07 L 147.98 326.81 L 151.80 326.33 L 155.63 325.98 L 159.45 325.23 L 163.28 324.94 L 167.10 324.55 L 170.93 324.06 L 174.75 323.72 L 178.58 323.38 L 182.40 323.02 L 186.23 322.77 L 190.05 322.55 L 193.88 322.22 L 197.70 321.82 L 201.53 321.46 L 205.36 320.99 L 209.18 320.48 L 213.01 320.01 L 216.83 319.45 L 220.66 318.90 L 224.48 318.35 L 228.31 317.74 L 232.13 317.16 L 235.96 316.50 L 239.78 315.91 L 243.61 315.42 L 247.43 315.02 L 251.26 314.46 L 255.08 313.82 L 258.91 313.24 L 262.73 312.56 L 266.56 311.72 L 270.38 311.09 L 274.21 310.58 L 278.03 310.08 L 281.86 309.49 L 285.68 308.80 L 289.51 308.04 L 293.33 307.23 L 297.16 306.46 L 300.98 305.79 L 304.81 305.11 L 308.63 304.52 L 312.46 303.92 L 316.28 303.24 L 320.11 302.40 L 323.93 301.77 L 327.76 301.21 L 331.58 300.59 L 335.41 300.01 L 339.23 299.37 L 343.06 298.70 L 346.89 298.01 L 350.71 297.40 L 354.54 296.87 L 358.36 296.30 L 362.19 295.68 L 366.01 295.11 L 369.84 294.36 L 373.66 293.71 L 377.49 293.09 L 381.31 292.58 L 385.14 292.08 L 388.96 291.58 L 392.79 290.98 L 396.61 290.36 L 400.44 289.61 L 404.26 289.01 L 408.09 288.51 L 411.91 288.00 L 415.74 287.52 L 419.56 286.91 L 423.39 286.30 L 427.21 284.93 L 431.04 282.22 L 434.86 278.99 L 438.69 276.04 L 442.51 274.55 L 446.34 272.30 L 450.16 270.80 L 453.99 269.49 L 457.81 268.21 L 461.64 267.00 L 465.46 265.12 L 469.29 263.63 L 473.11 261.72 L 476.94 261.33 L 480.77 261.28 L 484.59 261.21 L 488.42 261.16 L 492.24 261.09 L 496.07 261.02 L 499.89 261.00 L 503.72 260.90 L 507.54 260.81 L 511.37 260.76 L 515.19 260.73 L 519.02 260.63 L 522.84 258.18 L 526.67 254.35 L 530.49 251.78 L 534.32 248.79 L 538.14 245.72 L 541.97 243.31 L 545.79 240.61 L 549.62 236.50 L 553.44 230.96 L 557.27 227.34 L 561.09 223.04 L 564.92 218.24 L 568.74 214.40 L 572.57 210.23 L 576.39 206.52 L 580.22 202.86 L 584.04 199.20 L 587.87 194.22 L 591.69 189.22 L 595.52 185.06 L 599.34 181.57 L 603.17 178.18 L 606.99 173.69 L 610.82 170.20 L 614.64 166.75 L 618.47 163.53 L 622.30 160.49 L 626.12 157.38 L 629.95 154.72 L 633.77 151.96 L 637.60 149.15 L 641.42 146.17 L 645.25 143.45 L 649.07 140.95 L 652.90 136.42 L 656.72 132.63 L 660.55 128.99 L 664.37 125.49 L 668.20 119.98 L 672.02 116.48 L 675.85 113.46 L 679.67 109.89 L 683.50 104.63 L 687.32 100.84 L 691.15 97.64 L 694.97 94.94 L 698.80 92.37 L 702.62 90.29 L 706.45 87.94 L 710.27 86.02 L 714.10 83.76 L 717.92 80.51 L 721.75 77.71 L 725.57 75.28 L 729.40 73.18 L 733.22 71.01 L 737.05 69.18 L 740.87 66.11 L 744.70 63.48 L 748.52 60.88 L 752.35 58.73 L 756.17 56.75 L 760.00 55.00
    L 760 340
    Z" fill="url(#areaGradient)" class="area-path"/>

  <!-- Main line with glow -->
  <path d="M 60.00 340.00 L 63.83 339.75 L 67.65 339.33 L 71.48 338.94 L 75.30 338.16 L 79.13 337.35 L 82.95 336.72 L 86.78 336.13 L 90.60 335.60 L 94.43 334.99 L 98.25 334.30 L 102.08 333.56 L 105.90 332.89 L 109.73 332.18 L 113.55 331.66 L 117.38 331.13 L 121.20 330.40 L 125.03 329.91 L 128.85 329.23 L 132.68 328.45 L 136.50 327.86 L 140.33 327.38 L 144.15 327.07 L 147.98 326.81 L 151.80 326.33 L 155.63 325.98 L 159.45 325.23 L 163.28 324.94 L 167.10 324.55 L 170.93 324.06 L 174.75 323.72 L 178.58 323.38 L 182.40 323.02 L 186.23 322.77 L 190.05 322.55 L 193.88 322.22 L 197.70 321.82 L 201.53 321.46 L 205.36 320.99 L 209.18 320.48 L 213.01 320.01 L 216.83 319.45 L 220.66 318.90 L 224.48 318.35 L 228.31 317.74 L 232.13 317.16 L 235.96 316.50 L 239.78 315.91 L 243.61 315.42 L 247.43 315.02 L 251.26 314.46 L 255.08 313.82 L 258.91 313.24 L 262.73 312.56 L 266.56 311.72 L 270.38 311.09 L 274.21 310.58 L 278.03 310.08 L 281.86 309.49 L 285.68 308.80 L 289.51 308.04 L 293.33 307.23 L 297.16 306.46 L 300.98 305.79 L 304.81 305.11 L 308.63 304.52 L 312.46 303.92 L 316.28 303.24 L 320.11 302.40 L 323.93 301.77 L 327.76 301.21 L 331.58 300.59 L 335.41 300.01 L 339.23 299.37 L 343.06 298.70 L 346.89 298.01 L 350.71 297.40 L 354.54 296.87 L 358.36 296.30 L 362.19 295.68 L 366.01 295.11 L 369.84 294.36 L 373.66 293.71 L 377.49 293.09 L 381.31 292.58 L 385.14 292.08 L 388.96 291.58 L 392.79 290.98 L 396.61 290.36 L 400.44 289.61 L 404.26 289.01 L 408.09 288.51 L 411.91 288.00 L 415.74 287.52 L 419.56 286.91 L 423.39 286.30 L 427.21 284.93 L 431.04 282.22 L 434.86 278.99 L 438.69 276.04 L 442.51 274.55 L 446.34 272.30 L 450.16 270.80 L 453.99 269.49 L 457.81 268.21 L 461.64 267.00 L 465.46 265.12 L 469.29 263.63 L 473.11 261.72 L 476.94 261.33 L 480.77 261.28 L 484.59 261.21 L 488.42 261.16 L 492.24 261.09 L 496.07 261.02 L 499.89 261.00 L 503.72 260.90 L 507.54 260.81 L 511.37 260.76 L 515.19 260.73 L 519.02 260.63 L 522.84 258.18 L 526.67 254.35 L 530.49 251.78 L 534.32 248.79 L 538.14 245.72 L 541.97 243.31 L 545.79 240.61 L 549.62 236.50 L 553.44 230.96 L 557.27 227.34 L 561.09 223.04 L 564.92 218.24 L 568.74 214.40 L 572.57 210.23 L 576.39 206.52 L 580.22 202.86 L 584.04 199.20 L 587.87 194.22 L 591.69 189.22 L 595.52 185.06 L 599.34 181.57 L 603.17 178.18 L 606.99 173.69 L 610.82 170.20 L 614.64 166.75 L 618.47 163.53 L 622.30 160.49 L 626.12 157.38 L 629.95 154.72 L 633.77 151.96 L 637.60 149.15 L 641.42 146.17 L 645.25 143.45 L 649.07 140.95 L 652.90 136.42 L 656.72 132.63 L 660.55 128.99 L 664.37 125.49 L 668.20 119.98 L 672.02 116.48 L 675.85 113.46 L 679.67 109.89 L 683.50 104.63 L 687.32 100.84 L 691.15 97.64 L 694.97 94.94 L 698.80 92.37 L 702.62 90.29 L 706.45 87.94 L 710.27 86.02 L 714.10 83.76 L 717.92 80.51 L 721.75 77.71 L 725.57 75.28 L 729.40 73.18 L 733.22 71.01 L 737.05 69.18 L 740.87 66.11 L 744.70 63.48 L 748.52 60.88 L 752.35 58.73 L 756.17 56.75 L 760.00 55.00" fill="none" stroke="#3b82f6" stroke-width="3"
        stroke-linecap="round" stroke-linejoin="round" filter="url(#glow)" class="line-path"/>

  <!-- Data points -->
  
    <circle cx="60" cy="340" r="4" fill="#3b82f6" stroke="#0d1117" stroke-width="2" class="data-point"/>
  
    <circle cx="63.82513661202186" cy="339.7516420847956" r="4" fill="#3b82f6" stroke="#0d1117" stroke-width="2" class="data-point"/>
  
    <circle cx="67.65027322404372" cy="339.3292646779854" r="4" fill="#3b82f6" stroke="#0d1117" stroke-width="2" class="data-point"/>
  
    <circle cx="71.47540983606558" cy="338.9372984444655" r="4" fill="#3b82f6" stroke="#0d1117" stroke-width="2" class="data-point"/>
  
    <circle cx="75.30054644808743" cy="338.1584345063075" r="4" fill="#3b82f6" stroke="#0d1117" stroke-width="2" class="data-point"/>
  
    <circle cx="79.12568306010928" cy="337.3542279237409" r="4" fill="#3b82f6" stroke="#0d1117" stroke-width="2" class="data-point"/>
  
    <circle cx="82.95081967213115" cy="336.72066181352557" r="4" fill="#3b82f6" stroke="#0d1117" stroke-width="2" class="data-point"/>
  
    <circle cx="86.77595628415301" cy="336.1293334439913" r="4" fill="#3b82f6" stroke="#0d1117" stroke-width="2" class="data-point"/>
  
    <circle cx="90.60109289617486" cy="335.6038959499194" r="4" fill="#3b82f6" stroke="#0d1117" stroke-width="2" class="data-point"/>
  
    <circle cx="94.42622950819671" cy="334.9872249359765" r="4" fill="#3b82f6" stroke="#0d1117" stroke-width="2" class="data-point"/>
  
    <circle cx="98.25136612021858" cy="334.29959451768946" r="4" fill="#3b82f6" stroke="#0d1117" stroke-width="2" class="data-point"/>
  
    <circle cx="102.07650273224044" cy="333.56296832021246" r="4" fill="#3b82f6" stroke="#0d1117" stroke-width="2" class="data-point"/>
  
    <circle cx="105.90163934426229" cy="332.8939225078251" r="4" fill="#3b82f6" stroke="#0d1117" stroke-width="2" class="data-point"/>
  
    <circle cx="109.72677595628414" cy="332.1826389547567" r="4" fill="#3b82f6" stroke="#0d1117" stroke-width="2" class="data-point"/>
  
    <circle cx="113.55191256830602" cy="331.66395949919377" r="4" fill="#3b82f6" stroke="#0d1117" stroke-width="2" class="data-point"/>
  
    <circle cx="117.37704918032787" cy="331.1266954377312" r="4" fill="#3b82f6" stroke="#0d1117" stroke-width="2" class="data-point"/>
  
    <circle cx="121.20218579234972" cy="330.39682727876317" r="4" fill="#3b82f6" stroke="#0d1117" stroke-width="2" class="data-point"/>
  
    <circle cx="125.02732240437159" cy="329.90855899649057" r="4" fill="#3b82f6" stroke="#0d1117" stroke-width="2" class="data-point"/>
  
    <circle cx="128.85245901639342" cy="329.23275514559424" r="4" fill="#3b82f6" stroke="#0d1117" stroke-width="2" class="data-point"/>
  
    <circle cx="132.6775956284153" cy="328.45220169780896" r="4" fill="#3b82f6" stroke="#0d1117" stroke-width="2" class="data-point"/>
  
    <circle cx="136.50273224043715" cy="327.86425234752915" r="4" fill="#3b82f6" stroke="#0d1117" stroke-width="2" class="data-point"/>
  
    <circle cx="140.327868852459" cy="327.3810525941383" r="4" fill="#3b82f6" stroke="#0d1117" stroke-width="2" class="data-point"/>
  
    <circle cx="144.15300546448088" cy="327.0684933130987" r="4" fill="#3b82f6" stroke="#0d1117" stroke-width="2" class="data-point"/>
  
    <circle cx="147.97814207650273" cy="326.8083088305037" r="4" fill="#3b82f6" stroke="#0d1117" stroke-width="2" class="data-point"/>
  
    <circle cx="151.80327868852459" cy="326.32679858674004" r="4" fill="#3b82f6" stroke="#0d1117" stroke-width="2" class="data-point"/>
  
    <circle cx="155.62841530054646" cy="325.9838281324101" r="4" fill="#3b82f6" stroke="#0d1117" stroke-width="2" class="data-point"/>
  
    <circle cx="159.4535519125683" cy="325.23199634828796" r="4" fill="#3b82f6" stroke="#0d1117" stroke-width="2" class="data-point"/>
  
    <circle cx="163.27868852459017" cy="324.93633216352083" r="4" fill="#3b82f6" stroke="#0d1117" stroke-width="2" class="data-point"/>
  
    <circle cx="167.10382513661204" cy="324.5545029877644" r="4" fill="#3b82f6" stroke="#0d1117" stroke-width="2" class="data-point"/>
  
    <circle cx="170.92896174863387" cy="324.0611661766101" r="4" fill="#3b82f6" stroke="#0d1117" stroke-width="2" class="data-point"/>
  
    <circle cx="174.75409836065575" cy="323.72326425116194" r="4" fill="#3b82f6" stroke="#0d1117" stroke-width="2" class="data-point"/>
  
    <circle cx="178.5792349726776" cy="323.380293796832" r="4" fill="#3b82f6" stroke="#0d1117" stroke-width="2" class="data-point"/>
  
    <circle cx="182.40437158469945" cy="323.0204282462297" r="4" fill="#3b82f6" stroke="#0d1117" stroke-width="2" class="data-point"/>
  
    <circle cx="186.22950819672133" cy="322.7703808213981" r="4" fill="#3b82f6" stroke="#0d1117" stroke-width="2" class="data-point"/>
  
    <circle cx="190.05464480874318" cy="322.55412358911127" r="4" fill="#3b82f6" stroke="#0d1117" stroke-width="2" class="data-point"/>
  
    <circle cx="193.87978142076503" cy="322.2246692117993" r="4" fill="#3b82f6" stroke="#0d1117" stroke-width="2" class="data-point"/>
  
    <circle cx="197.70491803278688" cy="321.82425543014324" r="4" fill="#3b82f6" stroke="#0d1117" stroke-width="2" class="data-point"/>
  
    <circle cx="201.53005464480876" cy="321.45594233140474" r="4" fill="#3b82f6" stroke="#0d1117" stroke-width="2" class="data-point"/>
  
    <circle cx="205.3551912568306" cy="320.98963767428626" r="4" fill="#3b82f6" stroke="#0d1117" stroke-width="2" class="data-point"/>
  
    <circle cx="209.18032786885246" cy="320.48109527648677" r="4" fill="#3b82f6" stroke="#0d1117" stroke-width="2" class="data-point"/>
  
    <circle cx="213.0054644808743" cy="320.0147906193683" r="4" fill="#3b82f6" stroke="#0d1117" stroke-width="2" class="data-point"/>
  
    <circle cx="216.8306010928962" cy="319.4521839134971" r="4" fill="#3b82f6" stroke="#0d1117" stroke-width="2" class="data-point"/>
  
    <circle cx="220.65573770491804" cy="318.8997142653894" r="4" fill="#3b82f6" stroke="#0d1117" stroke-width="2" class="data-point"/>
  
    <circle cx="224.4808743169399" cy="318.3472446172816" r="4" fill="#3b82f6" stroke="#0d1117" stroke-width="2" class="data-point"/>
  
    <circle cx="228.30601092896174" cy="317.7424001707294" r="4" fill="#3b82f6" stroke="#0d1117" stroke-width="2" class="data-point"/>
  
    <circle cx="232.1311475409836" cy="317.164587878213" r="4" fill="#3b82f6" stroke="#0d1117" stroke-width="2" class="data-point"/>
  
    <circle cx="235.95628415300547" cy="316.5039896139619" r="4" fill="#3b82f6" stroke="#0d1117" stroke-width="2" class="data-point"/>
  
    <circle cx="239.78142076502732" cy="315.9143507540548" r="4" fill="#3b82f6" stroke="#0d1117" stroke-width="2" class="data-point"/>
  
    <circle cx="243.6065573770492" cy="315.4159454140188" r="4" fill="#3b82f6" stroke="#0d1117" stroke-width="2" class="data-point"/>
  
    <circle cx="247.43169398907105" cy="315.0172211419899" r="4" fill="#3b82f6" stroke="#0d1117" stroke-width="2" class="data-point"/>
  
    <circle cx="251.2568306010929" cy="314.45968296500047" r="4" fill="#3b82f6" stroke="#0d1117" stroke-width="2" class="data-point"/>
  
    <circle cx="255.08196721311475" cy="313.8227378355307" r="4" fill="#3b82f6" stroke="#0d1117" stroke-width="2" class="data-point"/>
  
    <circle cx="258.9071038251366" cy="313.2398570141326" r="4" fill="#3b82f6" stroke="#0d1117" stroke-width="2" class="data-point"/>
  
    <circle cx="262.73224043715845" cy="312.55898463435454" r="4" fill="#3b82f6" stroke="#0d1117" stroke-width="2" class="data-point"/>
  
    <circle cx="266.55737704918033" cy="311.7192983496159" r="4" fill="#3b82f6" stroke="#0d1117" stroke-width="2" class="data-point"/>
  
    <circle cx="270.3825136612022" cy="311.09417978753675" r="4" fill="#3b82f6" stroke="#0d1117" stroke-width="2" class="data-point"/>
  
    <circle cx="274.2076502732241" cy="310.57550033197384" r="4" fill="#3b82f6" stroke="#0d1117" stroke-width="2" class="data-point"/>
  
    <circle cx="278.0327868852459" cy="310.0821635208195" r="4" fill="#3b82f6" stroke="#0d1117" stroke-width="2" class="data-point"/>
  
    <circle cx="281.85792349726773" cy="309.48914564165796" r="4" fill="#3b82f6" stroke="#0d1117" stroke-width="2" class="data-point"/>
  
    <circle cx="285.6830601092896" cy="308.7998257137437" r="4" fill="#3b82f6" stroke="#0d1117" stroke-width="2" class="data-point"/>
  
    <circle cx="289.5081967213115" cy="308.03616736223086" r="4" fill="#3b82f6" stroke="#0d1117" stroke-width="2" class="data-point"/>
  
    <circle cx="293.3333333333333" cy="307.23365028929146" r="4" fill="#3b82f6" stroke="#0d1117" stroke-width="2" class="data-point"/>
  
    <circle cx="297.1584699453552" cy="306.46323389926965" r="4" fill="#3b82f6" stroke="#0d1117" stroke-width="2" class="data-point"/>
  
    <circle cx="300.983606557377" cy="305.7857405387461" r="4" fill="#3b82f6" stroke="#0d1117" stroke-width="2" class="data-point"/>
  
    <circle cx="304.8087431693989" cy="305.1133157071042" r="4" fill="#3b82f6" stroke="#0d1117" stroke-width="2" class="data-point"/>
  
    <circle cx="308.6338797814208" cy="304.5202978279427" r="4" fill="#3b82f6" stroke="#0d1117" stroke-width="2" class="data-point"/>
  
    <circle cx="312.45901639344265" cy="303.9154533813905" r="4" fill="#3b82f6" stroke="#0d1117" stroke-width="2" class="data-point"/>
  
    <circle cx="316.2841530054645" cy="303.23964953049415" r="4" fill="#3b82f6" stroke="#0d1117" stroke-width="2" class="data-point"/>
  
    <circle cx="320.10928961748635" cy="302.39827373612826" r="4" fill="#3b82f6" stroke="#0d1117" stroke-width="2" class="data-point"/>
  
    <circle cx="323.9344262295082" cy="301.7714656644219" r="4" fill="#3b82f6" stroke="#0d1117" stroke-width="2" class="data-point"/>
  
    <circle cx="327.75956284153006" cy="301.21054846817793" r="4" fill="#3b82f6" stroke="#0d1117" stroke-width="2" class="data-point"/>
  
    <circle cx="331.5846994535519" cy="300.5871194157261" r="4" fill="#3b82f6" stroke="#0d1117" stroke-width="2" class="data-point"/>
  
    <circle cx="335.40983606557376" cy="300.0059281039552" r="4" fill="#3b82f6" stroke="#0d1117" stroke-width="2" class="data-point"/>
  
    <circle cx="339.23497267759564" cy="299.3672934648582" r="4" fill="#3b82f6" stroke="#0d1117" stroke-width="2" class="data-point"/>
  
    <circle cx="343.0601092896175" cy="298.7016266717253" r="4" fill="#3b82f6" stroke="#0d1117" stroke-width="2" class="data-point"/>
  
    <circle cx="346.88524590163934" cy="298.0055487053021" r="4" fill="#3b82f6" stroke="#0d1117" stroke-width="2" class="data-point"/>
  
    <circle cx="350.7103825136612" cy="297.39563572986816" r="4" fill="#3b82f6" stroke="#0d1117" stroke-width="2" class="data-point"/>
  
    <circle cx="354.5355191256831" cy="296.87357725505075" r="4" fill="#3b82f6" stroke="#0d1117" stroke-width="2" class="data-point"/>
  
    <circle cx="358.3606557377049" cy="296.3008334914161" r="4" fill="#3b82f6" stroke="#0d1117" stroke-width="2" class="data-point"/>
  
    <circle cx="362.18579234972674" cy="295.68078345821874" r="4" fill="#3b82f6" stroke="#0d1117" stroke-width="2" class="data-point"/>
  
    <circle cx="366.0109289617486" cy="295.10635018495685" r="4" fill="#3b82f6" stroke="#0d1117" stroke-width="2" class="data-point"/>
  
    <circle cx="369.8360655737705" cy="294.35789742008916" r="4" fill="#3b82f6" stroke="#0d1117" stroke-width="2" class="data-point"/>
  
    <circle cx="373.6612021857924" cy="293.7141942521104" r="4" fill="#3b82f6" stroke="#0d1117" stroke-width="2" class="data-point"/>
  
    <circle cx="377.4863387978142" cy="293.094144218913" r="4" fill="#3b82f6" stroke="#0d1117" stroke-width="2" class="data-point"/>
  
    <circle cx="381.3114754098361" cy="292.57884378260457" r="4" fill="#3b82f6" stroke="#0d1117" stroke-width="2" class="data-point"/>
  
    <circle cx="385.13661202185796" cy="292.07874893294127" r="4" fill="#3b82f6" stroke="#0d1117" stroke-width="2" class="data-point"/>
  
    <circle cx="388.9617486338798" cy="291.57696457365074" r="4" fill="#3b82f6" stroke="#0d1117" stroke-width="2" class="data-point"/>
  
    <circle cx="392.7868852459016" cy="290.9771886559803" r="4" fill="#3b82f6" stroke="#0d1117" stroke-width="2" class="data-point"/>
  
    <circle cx="396.6120218579235" cy="290.3605176420374" r="4" fill="#3b82f6" stroke="#0d1117" stroke-width="2" class="data-point"/>
  
    <circle cx="400.43715846994536" cy="289.6120648771697" r="4" fill="#3b82f6" stroke="#0d1117" stroke-width="2" class="data-point"/>
  
    <circle cx="404.2622950819672" cy="289.0055309209902" r="4" fill="#3b82f6" stroke="#0d1117" stroke-width="2" class="data-point"/>
  
    <circle cx="408.08743169398906" cy="288.51050460020866" r="4" fill="#3b82f6" stroke="#0d1117" stroke-width="2" class="data-point"/>
  
    <circle cx="411.91256830601094" cy="288.0019622024092" r="4" fill="#3b82f6" stroke="#0d1117" stroke-width="2" class="data-point"/>
  
    <circle cx="415.7377049180328" cy="287.5153834297638" r="4" fill="#3b82f6" stroke="#0d1117" stroke-width="2" class="data-point"/>
  
    <circle cx="419.56284153005464" cy="286.91391800246606" r="4" fill="#3b82f6" stroke="#0d1117" stroke-width="2" class="data-point"/>
  
    <circle cx="423.3879781420765" cy="286.29724698852317" r="4" fill="#3b82f6" stroke="#0d1117" stroke-width="2" class="data-point"/>
  
    <circle cx="427.2131147540984" cy="284.9338127193398" r="4" fill="#3b82f6" stroke="#0d1117" stroke-width="2" class="data-point"/>
  
    <circle cx="431.0382513661202" cy="282.2204602579911" r="4" fill="#3b82f6" stroke="#0d1117" stroke-width="2" class="data-point"/>
  
    <circle cx="434.8633879781421" cy="278.9884283410794" r="4" fill="#3b82f6" stroke="#0d1117" stroke-width="2" class="data-point"/>
  
    <circle cx="438.688524590164" cy="276.04361306079863" r="4" fill="#3b82f6" stroke="#0d1117" stroke-width="2" class="data-point"/>
  
    <circle cx="442.5136612021858" cy="274.55008655031776" r="4" fill="#3b82f6" stroke="#0d1117" stroke-width="2" class="data-point"/>
  
    <circle cx="446.3387978142076" cy="272.29965972683294" r="4" fill="#3b82f6" stroke="#0d1117" stroke-width="2" class="data-point"/>
  
    <circle cx="450.1639344262295" cy="270.80444370672484" r="4" fill="#3b82f6" stroke="#0d1117" stroke-width="2" class="data-point"/>
  
    <circle cx="453.9890710382513" cy="269.49338423598596" r="4" fill="#3b82f6" stroke="#0d1117" stroke-width="2" class="data-point"/>
  
    <circle cx="457.8142076502732" cy="268.2110464289102" r="4" fill="#3b82f6" stroke="#0d1117" stroke-width="2" class="data-point"/>
  
    <circle cx="461.6393442622951" cy="267.003047045433" r="4" fill="#3b82f6" stroke="#0d1117" stroke-width="2" class="data-point"/>
  
    <circle cx="465.4644808743169" cy="265.1243123399412" r="4" fill="#3b82f6" stroke="#0d1117" stroke-width="2" class="data-point"/>
  
    <circle cx="469.2896174863388" cy="263.6307858294603" r="4" fill="#3b82f6" stroke="#0d1117" stroke-width="2" class="data-point"/>
  
    <circle cx="473.11475409836066" cy="261.7216399506782" r="4" fill="#3b82f6" stroke="#0d1117" stroke-width="2" class="data-point"/>
  
    <circle cx="476.9398907103825" cy="261.3313632267855" r="4" fill="#3b82f6" stroke="#0d1117" stroke-width="2" class="data-point"/>
  
    <circle cx="480.76502732240436" cy="261.28067793796833" r="4" fill="#3b82f6" stroke="#0d1117" stroke-width="2" class="data-point"/>
  
    <circle cx="484.59016393442624" cy="261.21478706250593" r="4" fill="#3b82f6" stroke="#0d1117" stroke-width="2" class="data-point"/>
  
    <circle cx="488.4153005464481" cy="261.159033244807" r="4" fill="#3b82f6" stroke="#0d1117" stroke-width="2" class="data-point"/>
  
    <circle cx="492.24043715846994" cy="261.08638433083564" r="4" fill="#3b82f6" stroke="#0d1117" stroke-width="2" class="data-point"/>
  
    <circle cx="496.0655737704918" cy="261.02218296500047" r="4" fill="#3b82f6" stroke="#0d1117" stroke-width="2" class="data-point"/>
  
    <circle cx="499.8907103825137" cy="260.99684032059184" r="4" fill="#3b82f6" stroke="#0d1117" stroke-width="2" class="data-point"/>
  
    <circle cx="503.7158469945355" cy="260.90391729109365" r="4" fill="#3b82f6" stroke="#0d1117" stroke-width="2" class="data-point"/>
  
    <circle cx="507.5409836065574" cy="260.81437328084985" r="4" fill="#3b82f6" stroke="#0d1117" stroke-width="2" class="data-point"/>
  
    <circle cx="511.3661202185793" cy="260.7552404438964" r="4" fill="#3b82f6" stroke="#0d1117" stroke-width="2" class="data-point"/>
  
    <circle cx="515.1912568306011" cy="260.7332768187423" r="4" fill="#3b82f6" stroke="#0d1117" stroke-width="2" class="data-point"/>
  
    <circle cx="519.016393442623" cy="260.6335957507351" r="4" fill="#3b82f6" stroke="#0d1117" stroke-width="2" class="data-point"/>
  
    <circle cx="522.8415300546449" cy="258.1838067912359" r="4" fill="#3b82f6" stroke="#0d1117" stroke-width="2" class="data-point"/>
  
    <circle cx="526.6666666666666" cy="254.34693042777198" r="4" fill="#3b82f6" stroke="#0d1117" stroke-width="2" class="data-point"/>
  
    <circle cx="530.4918032786885" cy="251.7771862847387" r="4" fill="#3b82f6" stroke="#0d1117" stroke-width="2" class="data-point"/>
  
    <circle cx="534.3169398907104" cy="248.7935122830314" r="4" fill="#3b82f6" stroke="#0d1117" stroke-width="2" class="data-point"/>
  
    <circle cx="538.1420765027322" cy="245.7186047614531" r="4" fill="#3b82f6" stroke="#0d1117" stroke-width="2" class="data-point"/>
  
    <circle cx="541.967213114754" cy="243.3059850137532" r="4" fill="#3b82f6" stroke="#0d1117" stroke-width="2" class="data-point"/>
  
    <circle cx="545.7923497267759" cy="240.6078381390496" r="4" fill="#3b82f6" stroke="#0d1117" stroke-width="2" class="data-point"/>
  
    <circle cx="549.6174863387978" cy="236.49726121597269" r="4" fill="#3b82f6" stroke="#0d1117" stroke-width="2" class="data-point"/>
  
    <circle cx="553.4426229508197" cy="230.95735914825002" r="4" fill="#3b82f6" stroke="#0d1117" stroke-width="2" class="data-point"/>
  
    <circle cx="557.2677595628415" cy="227.34180854595468" r="4" fill="#3b82f6" stroke="#0d1117" stroke-width="2" class="data-point"/>
  
    <circle cx="561.0928961748634" cy="223.0386275253723" r="4" fill="#3b82f6" stroke="#0d1117" stroke-width="2" class="data-point"/>
  
    <circle cx="564.9180327868853" cy="218.24379920326282" r="4" fill="#3b82f6" stroke="#0d1117" stroke-width="2" class="data-point"/>
  
    <circle cx="568.7431693989072" cy="214.39847529166272" r="4" fill="#3b82f6" stroke="#0d1117" stroke-width="2" class="data-point"/>
  
    <circle cx="572.568306010929" cy="210.2253865123779" r="4" fill="#3b82f6" stroke="#0d1117" stroke-width="2" class="data-point"/>
  
    <circle cx="576.3934426229508" cy="206.52367091909323" r="4" fill="#3b82f6" stroke="#0d1117" stroke-width="2" class="data-point"/>
  
    <circle cx="580.2185792349727" cy="202.85574551835342" r="4" fill="#3b82f6" stroke="#0d1117" stroke-width="2" class="data-point"/>
  
    <circle cx="584.0437158469946" cy="199.19795717537704" r="4" fill="#3b82f6" stroke="#0d1117" stroke-width="2" class="data-point"/>
  
    <circle cx="587.8688524590164" cy="194.21728279427106" r="4" fill="#3b82f6" stroke="#0d1117" stroke-width="2" class="data-point"/>
  
    <circle cx="591.6939890710382" cy="189.22140282651995" r="4" fill="#3b82f6" stroke="#0d1117" stroke-width="2" class="data-point"/>
  
    <circle cx="595.5191256830601" cy="185.05676159537134" r="4" fill="#3b82f6" stroke="#0d1117" stroke-width="2" class="data-point"/>
  
    <circle cx="599.344262295082" cy="181.5662347054918" r="4" fill="#3b82f6" stroke="#0d1117" stroke-width="2" class="data-point"/>
  
    <circle cx="603.1693989071038" cy="178.1804574125012" r="4" fill="#3b82f6" stroke="#0d1117" stroke-width="2" class="data-point"/>
  
    <circle cx="606.9945355191256" cy="173.68636180404062" r="4" fill="#3b82f6" stroke="#0d1117" stroke-width="2" class="data-point"/>
  
    <circle cx="610.8196721311475" cy="170.20090344304276" r="4" fill="#3b82f6" stroke="#0d1117" stroke-width="2" class="data-point"/>
  
    <circle cx="614.6448087431694" cy="166.75261429384426" r="4" fill="#3b82f6" stroke="#0d1117" stroke-width="2" class="data-point"/>
  
    <circle cx="618.4699453551913" cy="163.52734041544153" r="4" fill="#3b82f6" stroke="#0d1117" stroke-width="2" class="data-point"/>
  
    <circle cx="622.2950819672132" cy="160.48960210566253" r="4" fill="#3b82f6" stroke="#0d1117" stroke-width="2" class="data-point"/>
  
    <circle cx="626.120218579235" cy="157.37752537228494" r="4" fill="#3b82f6" stroke="#0d1117" stroke-width="2" class="data-point"/>
  
    <circle cx="629.9453551912568" cy="154.71654770938062" r="4" fill="#3b82f6" stroke="#0d1117" stroke-width="2" class="data-point"/>
  
    <circle cx="633.7704918032787" cy="151.96095750735083" r="4" fill="#3b82f6" stroke="#0d1117" stroke-width="2" class="data-point"/>
  
    <circle cx="637.5956284153006" cy="149.14792397799488" r="4" fill="#3b82f6" stroke="#0d1117" stroke-width="2" class="data-point"/>
  
    <circle cx="641.4207650273224" cy="146.17438703405102" r="4" fill="#3b82f6" stroke="#0d1117" stroke-width="2" class="data-point"/>
  
    <circle cx="645.2459016393443" cy="143.4458289860571" r="4" fill="#3b82f6" stroke="#0d1117" stroke-width="2" class="data-point"/>
  
    <circle cx="649.0710382513662" cy="140.94704424736793" r="4" fill="#3b82f6" stroke="#0d1117" stroke-width="2" class="data-point"/>
  
    <circle cx="652.8961748633881" cy="136.41915844636253" r="4" fill="#3b82f6" stroke="#0d1117" stroke-width="2" class="data-point"/>
  
    <circle cx="656.7213114754098" cy="132.62958835246135" r="4" fill="#3b82f6" stroke="#0d1117" stroke-width="2" class="data-point"/>
  
    <circle cx="660.5464480874317" cy="128.9903846153846" r="4" fill="#3b82f6" stroke="#0d1117" stroke-width="2" class="data-point"/>
  
    <circle cx="664.3715846994535" cy="125.49478919662334" r="4" fill="#3b82f6" stroke="#0d1117" stroke-width="2" class="data-point"/>
  
    <circle cx="668.1967213114754" cy="119.97516124442757" r="4" fill="#3b82f6" stroke="#0d1117" stroke-width="2" class="data-point"/>
  
    <circle cx="672.0218579234972" cy="116.48294484492078" r="4" fill="#3b82f6" stroke="#0d1117" stroke-width="2" class="data-point"/>
  
    <circle cx="675.8469945355191" cy="113.46041212178699" r="4" fill="#3b82f6" stroke="#0d1117" stroke-width="2" class="data-point"/>
  
    <circle cx="679.672131147541" cy="109.89047827942713" r="4" fill="#3b82f6" stroke="#0d1117" stroke-width="2" class="data-point"/>
  
    <circle cx="683.4972677595629" cy="104.62765579057194" r="4" fill="#3b82f6" stroke="#0d1117" stroke-width="2" class="data-point"/>
  
    <circle cx="687.3224043715848" cy="100.84146471592527" r="4" fill="#3b82f6" stroke="#0d1117" stroke-width="2" class="data-point"/>
  
    <circle cx="691.1475409836065" cy="97.64491250118562" r="4" fill="#3b82f6" stroke="#0d1117" stroke-width="2" class="data-point"/>
  
    <circle cx="694.9726775956284" cy="94.94000758797307" r="4" fill="#3b82f6" stroke="#0d1117" stroke-width="2" class="data-point"/>
  
    <circle cx="698.7978142076503" cy="92.37364246419426" r="4" fill="#3b82f6" stroke="#0d1117" stroke-width="2" class="data-point"/>
  
    <circle cx="702.6229508196722" cy="90.28709807455184" r="4" fill="#3b82f6" stroke="#0d1117" stroke-width="2" class="data-point"/>
  
    <circle cx="706.448087431694" cy="87.93699018305986" r="4" fill="#3b82f6" stroke="#0d1117" stroke-width="2" class="data-point"/>
  
    <circle cx="710.2732240437159" cy="86.02108626576876" r="4" fill="#3b82f6" stroke="#0d1117" stroke-width="2" class="data-point"/>
  
    <circle cx="714.0983606557377" cy="83.76052238452053" r="4" fill="#3b82f6" stroke="#0d1117" stroke-width="2" class="data-point"/>
  
    <circle cx="717.9234972677596" cy="80.50652684245472" r="4" fill="#3b82f6" stroke="#0d1117" stroke-width="2" class="data-point"/>
  
    <circle cx="721.7486338797814" cy="77.71038840937115" r="4" fill="#3b82f6" stroke="#0d1117" stroke-width="2" class="data-point"/>
  
    <circle cx="725.5737704918032" cy="75.27918405577162" r="4" fill="#3b82f6" stroke="#0d1117" stroke-width="2" class="data-point"/>
  
    <circle cx="729.3989071038251" cy="73.17743407948404" r="4" fill="#3b82f6" stroke="#0d1117" stroke-width="2" class="data-point"/>
  
    <circle cx="733.224043715847" cy="71.00979322773401" r="4" fill="#3b82f6" stroke="#0d1117" stroke-width="2" class="data-point"/>
  
    <circle cx="737.0491803278688" cy="69.18174381105945" r="4" fill="#3b82f6" stroke="#0d1117" stroke-width="2" class="data-point"/>
  
    <circle cx="740.8743169398907" cy="66.1085257991084" r="4" fill="#3b82f6" stroke="#0d1117" stroke-width="2" class="data-point"/>
  
    <circle cx="744.6994535519126" cy="63.48133832874896" r="4" fill="#3b82f6" stroke="#0d1117" stroke-width="2" class="data-point"/>
  
    <circle cx="748.5245901639344" cy="60.876114483543574" r="4" fill="#3b82f6" stroke="#0d1117" stroke-width="2" class="data-point"/>
  
    <circle cx="752.3497267759562" cy="58.72536872806597" r="4" fill="#3b82f6" stroke="#0d1117" stroke-width="2" class="data-point"/>
  
    <circle cx="756.1748633879781" cy="56.75202148344874" r="4" fill="#3b82f6" stroke="#0d1117" stroke-width="2" class="data-point"/>
  
    <circle cx="760" cy="55" r="4" fill="#3b82f6" stroke="#0d1117" stroke-width="2" class="data-point"/>
  

  <!-- Axis lines -->
  <line x1="60" y1="55" x2="60" y2="340"
        stroke="#30363d" stroke-width="2"/>
  <line x1="60" y1="340" x2="760" y2="340"
        stroke="#30363d" stroke-width="2"/>
</svg>