<?xml version="1.0" encoding="UTF-8"?>
<svg width="800" height="400" xmlns="http://www.w3.org/2000/svg">
  <defs>
    <!-- Gradient for area fill -->
    <linearGradient id="areaGradient" x1="0%" y1="0%" x2="0%" y2="100%">
      <stop offset="0%" style="stop-color:#3b82f6;stop-opacity:0.3" />
      <stop offset="100%" style="stop-color:#3b82f6;stop-opacity:0.05" />
    </linearGradient>

    <!-- Glow filter for line -->
    <filter id="glow">
      <feGaussianBlur stdDeviation="2" result="coloredBlur"/>
      <feMerge>
        <feMergeNode in="coloredBlur"/>
        <feMergeNode in="SourceGraphic"/>
      </feMerge>
    </filter>

    <!-- Animation -->
    <style>
      @keyframes draw {
        from { stroke-dashoffset: 2000; }
        to { stroke-dashoffset: 0; }
      }
      @keyframes fadeIn {
        from { opacity: 0; }
        to { opacity: 1; }
      }
      .line-path {
        stroke-dasharray: 2000;
        stroke-dashoffset: 2000;
        animation: draw 1.5s ease-out forwards;
      }
      .area-path {
        opacity: 0;
        animation: fadeIn 1s ease-out 0.5s forwards;
      }
      .data-point {
        opacity: 0;
        animation: fadeIn 0.5s ease-out 1s forwards;
      }
    </style>
  </defs>

  <!-- Background -->
  <rect width="800" height="400" fill="#0d1117" rx="8"/>

  <!-- Title -->
  <text x="400" y="25" text-anchor="middle" fill="#c9d1d9" font-family="system-ui, -apple-system, sans-serif" font-size="16" font-weight="600">
    zxcloli666/SoundCloud-Desktop Downloads
  </text>

  <!-- Stats -->
  <text x="780" y="25" text-anchor="end" fill="#58a6ff" font-family="system-ui, -apple-system, sans-serif" font-size="14" font-weight="600">
    261.6K total
  </text>
  <text x="780" y="42" text-anchor="end" fill="#3fb950" font-family="system-ui, -apple-system, sans-serif" font-size="12">
    +1.4K (+0.5%)
  </text>

  <!-- Grid lines -->
  <g opacity="0.1">
    
      <line x1="60" y1="340" x2="760" y2="340"
            stroke="#c9d1d9" stroke-width="1"/>
    
      <line x1="60" y1="268.75" x2="760" y2="268.75"
            stroke="#c9d1d9" stroke-width="1"/>
    
      <line x1="60" y1="197.5" x2="760" y2="197.5"
            stroke="#c9d1d9" stroke-width="1"/>
    
      <line x1="60" y1="126.25" x2="760" y2="126.25"
            stroke="#c9d1d9" stroke-width="1"/>
    
      <line x1="60" y1="55" x2="760" y2="55"
            stroke="#c9d1d9" stroke-width="1"/>
    
  </g>

  <!-- Y-axis labels -->
  
    <text x="50" y="344" text-anchor="end"
          fill="#8b949e" font-family="system-ui, -apple-system, sans-serif" font-size="11">
      60.2K
    </text>
  
    <text x="50" y="272.75" text-anchor="end"
          fill="#8b949e" font-family="system-ui, -apple-system, sans-serif" font-size="11">
      110.5K
    </text>
  
    <text x="50" y="201.5" text-anchor="end"
          fill="#8b949e" font-family="system-ui, -apple-system, sans-serif" font-size="11">
      160.9K
    </text>
  
    <text x="50" y="130.25" text-anchor="end"
          fill="#8b949e" font-family="system-ui, -apple-system, sans-serif" font-size="11">
      211.2K
    </text>
  
    <text x="50" y="59" text-anchor="end"
          fill="#8b949e" font-family="system-ui, -apple-system, sans-serif" font-size="11">
      261.6K
    </text>
  

  <!-- X-axis labels -->
  
    <text x="60" y="360" text-anchor="middle"
          fill="#8b949e" font-family="system-ui, -apple-system, sans-serif" font-size="11">
      Nov 25
    </text>
  
    <text x="147.08133971291866" y="360" text-anchor="middle"
          fill="#8b949e" font-family="system-ui, -apple-system, sans-serif" font-size="11">
      Dec 21
    </text>
  
    <text x="234.16267942583733" y="360" text-anchor="middle"
          fill="#8b949e" font-family="system-ui, -apple-system, sans-serif" font-size="11">
      Jan 16
    </text>
  
    <text x="321.24401913875596" y="360" text-anchor="middle"
          fill="#8b949e" font-family="system-ui, -apple-system, sans-serif" font-size="11">
      Feb 11
    </text>
  
    <text x="408.32535885167465" y="360" text-anchor="middle"
          fill="#8b949e" font-family="system-ui, -apple-system, sans-serif" font-size="11">
      Mar 9
    </text>
  
    <text x="495.40669856459334" y="360" text-anchor="middle"
          fill="#8b949e" font-family="system-ui, -apple-system, sans-serif" font-size="11">
      Apr 4
    </text>
  
    <text x="582.4880382775119" y="360" text-anchor="middle"
          fill="#8b949e" font-family="system-ui, -apple-system, sans-serif" font-size="11">
      Apr 30
    </text>
  
    <text x="669.5693779904307" y="360" text-anchor="middle"
          fill="#8b949e" font-family="system-ui, -apple-system, sans-serif" font-size="11">
      May 26
    </text>
  
    <text x="756.6507177033493" y="360" text-anchor="middle"
          fill="#8b949e" font-family="system-ui, -apple-system, sans-serif" font-size="11">
      Jun 21
    </text>
  
    <text x="760" y="360" text-anchor="middle"
          fill="#8b949e" font-family="system-ui, -apple-system, sans-serif" font-size="11">
      Jun 22
    </text>
  

  <!-- Area under line -->
  <path d="M 60 340
    L 60.00 340.00 L 63.35 339.79 L 66.70 339.44 L 70.05 339.11 L 73.40 338.46 L 76.75 337.78 L 80.10 337.25 L 83.44 336.76 L 86.79 336.32 L 90.14 335.80 L 93.49 335.23 L 96.84 334.61 L 100.19 334.05 L 103.54 333.45 L 106.89 333.02 L 110.24 332.57 L 113.59 331.96 L 116.94 331.55 L 120.29 330.98 L 123.64 330.33 L 126.99 329.84 L 130.33 329.43 L 133.68 329.17 L 137.03 328.95 L 140.38 328.55 L 143.73 328.26 L 147.08 327.63 L 150.43 327.39 L 153.78 327.07 L 157.13 326.65 L 160.48 326.37 L 163.83 326.08 L 167.18 325.78 L 170.53 325.57 L 173.88 325.39 L 177.22 325.12 L 180.57 324.78 L 183.92 324.47 L 187.27 324.08 L 190.62 323.66 L 193.97 323.27 L 197.32 322.79 L 200.67 322.33 L 204.02 321.87 L 207.37 321.36 L 210.72 320.88 L 214.07 320.33 L 217.42 319.83 L 220.77 319.42 L 224.11 319.08 L 227.46 318.61 L 230.81 318.08 L 234.16 317.59 L 237.51 317.02 L 240.86 316.32 L 244.21 315.80 L 247.56 315.36 L 250.91 314.95 L 254.26 314.45 L 257.61 313.88 L 260.96 313.24 L 264.31 312.56 L 267.66 311.92 L 271.00 311.35 L 274.35 310.79 L 277.70 310.29 L 281.05 309.79 L 284.40 309.22 L 287.75 308.52 L 291.10 307.99 L 294.45 307.52 L 297.80 307.00 L 301.15 306.51 L 304.50 305.98 L 307.85 305.42 L 311.20 304.84 L 314.55 304.33 L 317.89 303.89 L 321.24 303.41 L 324.59 302.89 L 327.94 302.41 L 331.29 301.78 L 334.64 301.24 L 337.99 300.72 L 341.34 300.29 L 344.69 299.87 L 348.04 299.45 L 351.39 298.95 L 354.74 298.44 L 358.09 297.81 L 361.44 297.30 L 364.78 296.89 L 368.13 296.46 L 371.48 296.05 L 374.83 295.55 L 378.18 295.03 L 381.53 293.89 L 384.88 291.62 L 388.23 288.91 L 391.58 286.45 L 394.93 285.20 L 398.28 283.31 L 401.63 282.06 L 404.98 280.96 L 408.33 279.89 L 411.67 278.88 L 415.02 277.30 L 418.37 276.05 L 421.72 274.46 L 425.07 274.13 L 428.42 274.09 L 431.77 274.03 L 435.12 273.98 L 438.47 273.92 L 441.82 273.87 L 445.17 273.85 L 448.52 273.77 L 451.87 273.70 L 455.22 273.65 L 458.56 273.63 L 461.91 273.54 L 465.26 271.49 L 468.61 268.28 L 471.96 266.13 L 475.31 263.63 L 478.66 261.06 L 482.01 259.04 L 485.36 256.78 L 488.71 253.33 L 492.06 248.70 L 495.41 245.67 L 498.76 242.07 L 502.11 238.05 L 505.45 234.83 L 508.80 231.34 L 512.15 228.24 L 515.50 225.17 L 518.85 222.10 L 522.20 217.93 L 525.55 213.75 L 528.90 210.26 L 532.25 207.34 L 535.60 204.50 L 538.95 200.74 L 542.30 197.82 L 545.65 194.94 L 549.00 192.24 L 552.34 189.69 L 555.69 187.09 L 559.04 184.86 L 562.39 182.55 L 565.74 180.20 L 569.09 177.71 L 572.44 175.42 L 575.79 173.33 L 579.14 169.54 L 582.49 166.36 L 585.84 163.32 L 589.19 160.39 L 592.54 155.77 L 595.89 152.84 L 599.23 150.31 L 602.58 147.32 L 605.93 142.92 L 609.28 139.75 L 612.63 137.07 L 615.98 134.81 L 619.33 132.66 L 622.68 130.91 L 626.03 128.94 L 629.38 127.34 L 632.73 125.44 L 636.08 122.72 L 639.43 120.38 L 642.78 118.34 L 646.12 116.58 L 649.47 114.77 L 652.82 113.24 L 656.17 110.66 L 659.52 108.46 L 662.87 106.28 L 666.22 104.48 L 669.57 102.83 L 672.92 101.36 L 676.27 98.85 L 679.62 96.80 L 682.97 94.94 L 686.32 93.16 L 689.67 91.61 L 693.01 90.11 L 696.36 88.73 L 699.71 87.40 L 703.06 86.19 L 706.41 84.67 L 709.76 83.05 L 713.11 81.55 L 716.46 79.22 L 719.81 77.54 L 723.16 75.92 L 726.51 74.51 L 729.86 72.84 L 733.21 70.80 L 736.56 69.00 L 739.90 67.38 L 743.25 65.63 L 746.60 63.21 L 749.95 61.23 L 753.30 59.10 L 756.65 56.98 L 760.00 55.00
    L 760 340
    Z" fill="url(#areaGradient)" class="area-path"/>

  <!-- Main line with glow -->
  <path d="M 60.00 340.00 L 63.35 339.79 L 66.70 339.44 L 70.05 339.11 L 73.40 338.46 L 76.75 337.78 L 80.10 337.25 L 83.44 336.76 L 86.79 336.32 L 90.14 335.80 L 93.49 335.23 L 96.84 334.61 L 100.19 334.05 L 103.54 333.45 L 106.89 333.02 L 110.24 332.57 L 113.59 331.96 L 116.94 331.55 L 120.29 330.98 L 123.64 330.33 L 126.99 329.84 L 130.33 329.43 L 133.68 329.17 L 137.03 328.95 L 140.38 328.55 L 143.73 328.26 L 147.08 327.63 L 150.43 327.39 L 153.78 327.07 L 157.13 326.65 L 160.48 326.37 L 163.83 326.08 L 167.18 325.78 L 170.53 325.57 L 173.88 325.39 L 177.22 325.12 L 180.57 324.78 L 183.92 324.47 L 187.27 324.08 L 190.62 323.66 L 193.97 323.27 L 197.32 322.79 L 200.67 322.33 L 204.02 321.87 L 207.37 321.36 L 210.72 320.88 L 214.07 320.33 L 217.42 319.83 L 220.77 319.42 L 224.11 319.08 L 227.46 318.61 L 230.81 318.08 L 234.16 317.59 L 237.51 317.02 L 240.86 316.32 L 244.21 315.80 L 247.56 315.36 L 250.91 314.95 L 254.26 314.45 L 257.61 313.88 L 260.96 313.24 L 264.31 312.56 L 267.66 311.92 L 271.00 311.35 L 274.35 310.79 L 277.70 310.29 L 281.05 309.79 L 284.40 309.22 L 287.75 308.52 L 291.10 307.99 L 294.45 307.52 L 297.80 307.00 L 301.15 306.51 L 304.50 305.98 L 307.85 305.42 L 311.20 304.84 L 314.55 304.33 L 317.89 303.89 L 321.24 303.41 L 324.59 302.89 L 327.94 302.41 L 331.29 301.78 L 334.64 301.24 L 337.99 300.72 L 341.34 300.29 L 344.69 299.87 L 348.04 299.45 L 351.39 298.95 L 354.74 298.44 L 358.09 297.81 L 361.44 297.30 L 364.78 296.89 L 368.13 296.46 L 371.48 296.05 L 374.83 295.55 L 378.18 295.03 L 381.53 293.89 L 384.88 291.62 L 388.23 288.91 L 391.58 286.45 L 394.93 285.20 L 398.28 283.31 L 401.63 282.06 L 404.98 280.96 L 408.33 279.89 L 411.67 278.88 L 415.02 277.30 L 418.37 276.05 L 421.72 274.46 L 425.07 274.13 L 428.42 274.09 L 431.77 274.03 L 435.12 273.98 L 438.47 273.92 L 441.82 273.87 L 445.17 273.85 L 448.52 273.77 L 451.87 273.70 L 455.22 273.65 L 458.56 273.63 L 461.91 273.54 L 465.26 271.49 L 468.61 268.28 L 471.96 266.13 L 475.31 263.63 L 478.66 261.06 L 482.01 259.04 L 485.36 256.78 L 488.71 253.33 L 492.06 248.70 L 495.41 245.67 L 498.76 242.07 L 502.11 238.05 L 505.45 234.83 L 508.80 231.34 L 512.15 228.24 L 515.50 225.17 L 518.85 222.10 L 522.20 217.93 L 525.55 213.75 L 528.90 210.26 L 532.25 207.34 L 535.60 204.50 L 538.95 200.74 L 542.30 197.82 L 545.65 194.94 L 549.00 192.24 L 552.34 189.69 L 555.69 187.09 L 559.04 184.86 L 562.39 182.55 L 565.74 180.20 L 569.09 177.71 L 572.44 175.42 L 575.79 173.33 L 579.14 169.54 L 582.49 166.36 L 585.84 163.32 L 589.19 160.39 L 592.54 155.77 L 595.89 152.84 L 599.23 150.31 L 602.58 147.32 L 605.93 142.92 L 609.28 139.75 L 612.63 137.07 L 615.98 134.81 L 619.33 132.66 L 622.68 130.91 L 626.03 128.94 L 629.38 127.34 L 632.73 125.44 L 636.08 122.72 L 639.43 120.38 L 642.78 118.34 L 646.12 116.58 L 649.47 114.77 L 652.82 113.24 L 656.17 110.66 L 659.52 108.46 L 662.87 106.28 L 666.22 104.48 L 669.57 102.83 L 672.92 101.36 L 676.27 98.85 L 679.62 96.80 L 682.97 94.94 L 686.32 93.16 L 689.67 91.61 L 693.01 90.11 L 696.36 88.73 L 699.71 87.40 L 703.06 86.19 L 706.41 84.67 L 709.76 83.05 L 713.11 81.55 L 716.46 79.22 L 719.81 77.54 L 723.16 75.92 L 726.51 74.51 L 729.86 72.84 L 733.21 70.80 L 736.56 69.00 L 739.90 67.38 L 743.25 65.63 L 746.60 63.21 L 749.95 61.23 L 753.30 59.10 L 756.65 56.98 L 760.00 55.00" fill="none" stroke="#3b82f6" stroke-width="3"
        stroke-linecap="round" stroke-linejoin="round" filter="url(#glow)" class="line-path"/>

  <!-- Data points -->
  
    <circle cx="60" cy="340" r="4" fill="#3b82f6" stroke="#0d1117" stroke-width="2" class="data-point"/>
  
    <circle cx="63.34928229665072" cy="339.7920441177201" r="4" fill="#3b82f6" stroke="#0d1117" stroke-width="2" class="data-point"/>
  
    <circle cx="66.69856459330144" cy="339.43837765125755" r="4" fill="#3b82f6" stroke="#0d1117" stroke-width="2" class="data-point"/>
  
    <circle cx="70.04784688995215" cy="339.1101751703804" r="4" fill="#3b82f6" stroke="#0d1117" stroke-width="2" class="data-point"/>
  
    <circle cx="73.39712918660287" cy="338.45801420622354" r="4" fill="#3b82f6" stroke="#0d1117" stroke-width="2" class="data-point"/>
  
    <circle cx="76.74641148325358" cy="337.7846332540789" r="4" fill="#3b82f6" stroke="#0d1117" stroke-width="2" class="data-point"/>
  
    <circle cx="80.09569377990431" cy="337.2541335543852" r="4" fill="#3b82f6" stroke="#0d1117" stroke-width="2" class="data-point"/>
  
    <circle cx="83.44497607655502" cy="336.7590005013377" r="4" fill="#3b82f6" stroke="#0d1117" stroke-width="2" class="data-point"/>
  
    <circle cx="86.79425837320574" cy="336.3190394170584" r="4" fill="#3b82f6" stroke="#0d1117" stroke-width="2" class="data-point"/>
  
    <circle cx="90.14354066985646" cy="335.80268637602313" r="4" fill="#3b82f6" stroke="#0d1117" stroke-width="2" class="data-point"/>
  
    <circle cx="93.49282296650718" cy="335.2269173686222" r="4" fill="#3b82f6" stroke="#0d1117" stroke-width="2" class="data-point"/>
  
    <circle cx="96.84210526315789" cy="334.61012305111166" r="4" fill="#3b82f6" stroke="#0d1117" stroke-width="2" class="data-point"/>
  
    <circle cx="100.19138755980862" cy="334.049915368235" r="4" fill="#3b82f6" stroke="#0d1117" stroke-width="2" class="data-point"/>
  
    <circle cx="103.54066985645933" cy="333.4543410387122" r="4" fill="#3b82f6" stroke="#0d1117" stroke-width="2" class="data-point"/>
  
    <circle cx="106.88995215311004" cy="333.02003861789626" r="4" fill="#3b82f6" stroke="#0d1117" stroke-width="2" class="data-point"/>
  
    <circle cx="110.23923444976077" cy="332.570174872556" r="4" fill="#3b82f6" stroke="#0d1117" stroke-width="2" class="data-point"/>
  
    <circle cx="113.58851674641147" cy="331.9590392185088" r="4" fill="#3b82f6" stroke="#0d1117" stroke-width="2" class="data-point"/>
  
    <circle cx="116.9377990430622" cy="331.55020078327817" r="4" fill="#3b82f6" stroke="#0d1117" stroke-width="2" class="data-point"/>
  
    <circle cx="120.28708133971293" cy="330.9843344369382" r="4" fill="#3b82f6" stroke="#0d1117" stroke-width="2" class="data-point"/>
  
    <circle cx="123.63636363636364" cy="330.33075880691547" r="4" fill="#3b82f6" stroke="#0d1117" stroke-width="2" class="data-point"/>
  
    <circle cx="126.98564593301435" cy="329.8384550855997" r="4" fill="#3b82f6" stroke="#0d1117" stroke-width="2" class="data-point"/>
  
    <circle cx="130.33492822966508" cy="329.4338606479666" r="4" fill="#3b82f6" stroke="#0d1117" stroke-width="2" class="data-point"/>
  
    <circle cx="133.68421052631578" cy="329.1721474627844" r="4" fill="#3b82f6" stroke="#0d1117" stroke-width="2" class="data-point"/>
  
    <circle cx="137.0334928229665" cy="328.95428891944346" r="4" fill="#3b82f6" stroke="#0d1117" stroke-width="2" class="data-point"/>
  
    <circle cx="140.38277511961724" cy="328.55110914767624" r="4" fill="#3b82f6" stroke="#0d1117" stroke-width="2" class="data-point"/>
  
    <circle cx="143.73205741626793" cy="328.2639319769087" r="4" fill="#3b82f6" stroke="#0d1117" stroke-width="2" class="data-point"/>
  
    <circle cx="147.08133971291866" cy="327.63440566660546" r="4" fill="#3b82f6" stroke="#0d1117" stroke-width="2" class="data-point"/>
  
    <circle cx="150.4306220095694" cy="327.3868391400817" r="4" fill="#3b82f6" stroke="#0d1117" stroke-width="2" class="data-point"/>
  
    <circle cx="153.7799043062201" cy="327.0671246543996" r="4" fill="#3b82f6" stroke="#0d1117" stroke-width="2" class="data-point"/>
  
    <circle cx="157.12918660287082" cy="326.65404222157144" r="4" fill="#3b82f6" stroke="#0d1117" stroke-width="2" class="data-point"/>
  
    <circle cx="160.47846889952154" cy="326.3711090484014" r="4" fill="#3b82f6" stroke="#0d1117" stroke-width="2" class="data-point"/>
  
    <circle cx="163.82775119617224" cy="326.08393187763386" r="4" fill="#3b82f6" stroke="#0d1117" stroke-width="2" class="data-point"/>
  
    <circle cx="167.17703349282294" cy="325.78260804820786" r="4" fill="#3b82f6" stroke="#0d1117" stroke-width="2" class="data-point"/>
  
    <circle cx="170.5263157894737" cy="325.573237500062" r="4" fill="#3b82f6" stroke="#0d1117" stroke-width="2" class="data-point"/>
  
    <circle cx="173.8755980861244" cy="325.3921602692333" r="4" fill="#3b82f6" stroke="#0d1117" stroke-width="2" class="data-point"/>
  
    <circle cx="177.22488038277513" cy="325.1163004253925" r="4" fill="#3b82f6" stroke="#0d1117" stroke-width="2" class="data-point"/>
  
    <circle cx="180.57416267942585" cy="324.7810246151861" r="4" fill="#3b82f6" stroke="#0d1117" stroke-width="2" class="data-point"/>
  
    <circle cx="183.92344497607655" cy="324.47262745643076" r="4" fill="#3b82f6" stroke="#0d1117" stroke-width="2" class="data-point"/>
  
    <circle cx="187.27272727272728" cy="324.08217967745617" r="4" fill="#3b82f6" stroke="#0d1117" stroke-width="2" class="data-point"/>
  
    <circle cx="190.62200956937798" cy="323.6563652518353" r="4" fill="#3b82f6" stroke="#0d1117" stroke-width="2" class="data-point"/>
  
    <circle cx="193.9712918660287" cy="323.26591747286074" r="4" fill="#3b82f6" stroke="#0d1117" stroke-width="2" class="data-point"/>
  
    <circle cx="197.32057416267943" cy="322.7948337395327" r="4" fill="#3b82f6" stroke="#0d1117" stroke-width="2" class="data-point"/>
  
    <circle cx="200.66985645933013" cy="322.3322380013998" r="4" fill="#3b82f6" stroke="#0d1117" stroke-width="2" class="data-point"/>
  
    <circle cx="204.01913875598086" cy="321.8696422632668" r="4" fill="#3b82f6" stroke="#0d1117" stroke-width="2" class="data-point"/>
  
    <circle cx="207.36842105263156" cy="321.36319188329253" r="4" fill="#3b82f6" stroke="#0d1117" stroke-width="2" class="data-point"/>
  
    <circle cx="210.71770334928232" cy="320.87937615717186" r="4" fill="#3b82f6" stroke="#0d1117" stroke-width="2" class="data-point"/>
  
    <circle cx="214.06698564593302" cy="320.3262418036245" r="4" fill="#3b82f6" stroke="#0d1117" stroke-width="2" class="data-point"/>
  
    <circle cx="217.41626794258374" cy="319.8325234164429" r="4" fill="#3b82f6" stroke="#0d1117" stroke-width="2" class="data-point"/>
  
    <circle cx="220.76555023923444" cy="319.4151969860171" r="4" fill="#3b82f6" stroke="#0d1117" stroke-width="2" class="data-point"/>
  
    <circle cx="224.11483253588517" cy="319.08133584167655" r="4" fill="#3b82f6" stroke="#0d1117" stroke-width="2" class="data-point"/>
  
    <circle cx="227.4641148325359" cy="318.61449610594605" r="4" fill="#3b82f6" stroke="#0d1117" stroke-width="2" class="data-point"/>
  
    <circle cx="230.8133971291866" cy="318.08116707452064" r="4" fill="#3b82f6" stroke="#0d1117" stroke-width="2" class="data-point"/>
  
    <circle cx="234.16267942583733" cy="317.59310735080237" r="4" fill="#3b82f6" stroke="#0d1117" stroke-width="2" class="data-point"/>
  
    <circle cx="237.51196172248802" cy="317.02299700686484" r="4" fill="#3b82f6" stroke="#0d1117" stroke-width="2" class="data-point"/>
  
    <circle cx="240.86124401913878" cy="316.31990807153744" r="4" fill="#3b82f6" stroke="#0d1117" stroke-width="2" class="data-point"/>
  
    <circle cx="244.21052631578945" cy="315.7964817011729" r="4" fill="#3b82f6" stroke="#0d1117" stroke-width="2" class="data-point"/>
  
    <circle cx="247.5598086124402" cy="315.362179280357" r="4" fill="#3b82f6" stroke="#0d1117" stroke-width="2" class="data-point"/>
  
    <circle cx="250.9090909090909" cy="314.9490968475288" r="4" fill="#3b82f6" stroke="#0d1117" stroke-width="2" class="data-point"/>
  
    <circle cx="254.25837320574163" cy="314.4525491286155" r="4" fill="#3b82f6" stroke="#0d1117" stroke-width="2" class="data-point"/>
  
    <circle cx="257.60765550239233" cy="313.8753654553487" r="4" fill="#3b82f6" stroke="#0d1117" stroke-width="2" class="data-point"/>
  
    <circle cx="260.9569377990431" cy="313.2359364839845" r="4" fill="#3b82f6" stroke="#0d1117" stroke-width="2" class="data-point"/>
  
    <circle cx="264.3062200956938" cy="312.56397019770577" r="4" fill="#3b82f6" stroke="#0d1117" stroke-width="2" class="data-point"/>
  
    <circle cx="267.6555023923445" cy="311.9188825628782" r="4" fill="#3b82f6" stroke="#0d1117" stroke-width="2" class="data-point"/>
  
    <circle cx="271.0047846889952" cy="311.35160155067234" r="4" fill="#3b82f6" stroke="#0d1117" stroke-width="2" class="data-point"/>
  
    <circle cx="274.3540669856459" cy="310.78856453606403" r="4" fill="#3b82f6" stroke="#0d1117" stroke-width="2" class="data-point"/>
  
    <circle cx="277.7033492822967" cy="310.29201681715074" r="4" fill="#3b82f6" stroke="#0d1117" stroke-width="2" class="data-point"/>
  
    <circle cx="281.0526315789474" cy="309.78556643717644" r="4" fill="#3b82f6" stroke="#0d1117" stroke-width="2" class="data-point"/>
  
    <circle cx="284.4019138755981" cy="309.21970009083645" r="4" fill="#3b82f6" stroke="#0d1117" stroke-width="2" class="data-point"/>
  
    <circle cx="287.7511961722488" cy="308.51519648964313" r="4" fill="#3b82f6" stroke="#0d1117" stroke-width="2" class="data-point"/>
  
    <circle cx="291.1004784688995" cy="307.9903554534128" r="4" fill="#3b82f6" stroke="#0d1117" stroke-width="2" class="data-point"/>
  
    <circle cx="294.44976076555025" cy="307.5206863859506" r="4" fill="#3b82f6" stroke="#0d1117" stroke-width="2" class="data-point"/>
  
    <circle cx="297.79904306220095" cy="306.998674681452" r="4" fill="#3b82f6" stroke="#0d1117" stroke-width="2" class="data-point"/>
  
    <circle cx="301.1483253588517" cy="306.5120296235996" r="4" fill="#3b82f6" stroke="#0d1117" stroke-width="2" class="data-point"/>
  
    <circle cx="304.4976076555024" cy="305.9772859263083" r="4" fill="#3b82f6" stroke="#0d1117" stroke-width="2" class="data-point"/>
  
    <circle cx="307.8468899521531" cy="305.41990757516345" r="4" fill="#3b82f6" stroke="#0d1117" stroke-width="2" class="data-point"/>
  
    <circle cx="311.1961722488038" cy="304.83706523843324" r="4" fill="#3b82f6" stroke="#0d1117" stroke-width="2" class="data-point"/>
  
    <circle cx="314.54545454545456" cy="304.3263708608614" r="4" fill="#3b82f6" stroke="#0d1117" stroke-width="2" class="data-point"/>
  
    <circle cx="317.89473684210526" cy="303.88923910831375" r="4" fill="#3b82f6" stroke="#0d1117" stroke-width="2" class="data-point"/>
  
    <circle cx="321.24401913875596" cy="303.4096673797906" r="4" fill="#3b82f6" stroke="#0d1117" stroke-width="2" class="data-point"/>
  
    <circle cx="324.59330143540666" cy="302.8904850070237" r="4" fill="#3b82f6" stroke="#0d1117" stroke-width="2" class="data-point"/>
  
    <circle cx="327.9425837320574" cy="302.4094986126347" r="4" fill="#3b82f6" stroke="#0d1117" stroke-width="2" class="data-point"/>
  
    <circle cx="331.29186602870817" cy="301.78280163406316" r="4" fill="#3b82f6" stroke="#0d1117" stroke-width="2" class="data-point"/>
  
    <circle cx="334.64114832535887" cy="301.24381393917434" r="4" fill="#3b82f6" stroke="#0d1117" stroke-width="2" class="data-point"/>
  
    <circle cx="337.99043062200957" cy="300.72463156640737" r="4" fill="#3b82f6" stroke="#0d1117" stroke-width="2" class="data-point"/>
  
    <circle cx="341.33971291866027" cy="300.2931584773232" r="4" fill="#3b82f6" stroke="#0d1117" stroke-width="2" class="data-point"/>
  
    <circle cx="344.688995215311" cy="299.87441738103155" r="4" fill="#3b82f6" stroke="#0d1117" stroke-width="2" class="data-point"/>
  
    <circle cx="348.0382775119617" cy="299.4542616188741" r="4" fill="#3b82f6" stroke="#0d1117" stroke-width="2" class="data-point"/>
  
    <circle cx="351.3875598086124" cy="298.9520552364974" r="4" fill="#3b82f6" stroke="#0d1117" stroke-width="2" class="data-point"/>
  
    <circle cx="354.7368421052631" cy="298.43570219546217" r="4" fill="#3b82f6" stroke="#0d1117" stroke-width="2" class="data-point"/>
  
    <circle cx="358.0861244019139" cy="297.8090052168906" r="4" fill="#3b82f6" stroke="#0d1117" stroke-width="2" class="data-point"/>
  
    <circle cx="361.43540669856463" cy="297.30114017105046" r="4" fill="#3b82f6" stroke="#0d1117" stroke-width="2" class="data-point"/>
  
    <circle cx="364.78468899521533" cy="296.88664307235643" r="4" fill="#3b82f6" stroke="#0d1117" stroke-width="2" class="data-point"/>
  
    <circle cx="368.13397129186603" cy="296.4608286467356" r="4" fill="#3b82f6" stroke="#0d1117" stroke-width="2" class="data-point"/>
  
    <circle cx="371.48325358851673" cy="296.0534048773708" r="4" fill="#3b82f6" stroke="#0d1117" stroke-width="2" class="data-point"/>
  
    <circle cx="374.8325358851675" cy="295.5497838291282" r="4" fill="#3b82f6" stroke="#0d1117" stroke-width="2" class="data-point"/>
  
    <circle cx="378.1818181818182" cy="295.03343078809297" r="4" fill="#3b82f6" stroke="#0d1117" stroke-width="2" class="data-point"/>
  
    <circle cx="381.5311004784689" cy="293.89179543435205" r="4" fill="#3b82f6" stroke="#0d1117" stroke-width="2" class="data-point"/>
  
    <circle cx="384.8803827751196" cy="291.619842053797" r="4" fill="#3b82f6" stroke="#0d1117" stroke-width="2" class="data-point"/>
  
    <circle cx="388.22966507177034" cy="288.91358625242606" r="4" fill="#3b82f6" stroke="#0d1117" stroke-width="2" class="data-point"/>
  
    <circle cx="391.57894736842104" cy="286.44782364824954" r="4" fill="#3b82f6" stroke="#0d1117" stroke-width="2" class="data-point"/>
  
    <circle cx="394.9282296650718" cy="285.1972590228382" r="4" fill="#3b82f6" stroke="#0d1117" stroke-width="2" class="data-point"/>
  
    <circle cx="398.2775119617225" cy="283.312924089526" r="4" fill="#3b82f6" stroke="#0d1117" stroke-width="2" class="data-point"/>
  
    <circle cx="401.6267942583732" cy="282.0609447982488" r="4" fill="#3b82f6" stroke="#0d1117" stroke-width="2" class="data-point"/>
  
    <circle cx="404.97607655502395" cy="280.96316408634925" r="4" fill="#3b82f6" stroke="#0d1117" stroke-width="2" class="data-point"/>
  
    <circle cx="408.32535885167465" cy="279.8894326941691" r="4" fill="#3b82f6" stroke="#0d1117" stroke-width="2" class="data-point"/>
  
    <circle cx="411.67464114832535" cy="278.8779466000864" r="4" fill="#3b82f6" stroke="#0d1117" stroke-width="2" class="data-point"/>
  
    <circle cx="415.02392344497605" cy="277.3048381572612" r="4" fill="#3b82f6" stroke="#0d1117" stroke-width="2" class="data-point"/>
  
    <circle cx="418.3732057416268" cy="276.05427353184984" r="4" fill="#3b82f6" stroke="#0d1117" stroke-width="2" class="data-point"/>
  
    <circle cx="421.72248803827756" cy="274.45570110343937" r="4" fill="#3b82f6" stroke="#0d1117" stroke-width="2" class="data-point"/>
  
    <circle cx="425.0717703349282" cy="274.12891328842807" r="4" fill="#3b82f6" stroke="#0d1117" stroke-width="2" class="data-point"/>
  
    <circle cx="428.4210526315789" cy="274.08647331245254" r="4" fill="#3b82f6" stroke="#0d1117" stroke-width="2" class="data-point"/>
  
    <circle cx="431.77033492822966" cy="274.0313013436844" r="4" fill="#3b82f6" stroke="#0d1117" stroke-width="2" class="data-point"/>
  
    <circle cx="435.1196172248804" cy="273.9846173701113" r="4" fill="#3b82f6" stroke="#0d1117" stroke-width="2" class="data-point"/>
  
    <circle cx="438.4688995215311" cy="273.9237867378798" r="4" fill="#3b82f6" stroke="#0d1117" stroke-width="2" class="data-point"/>
  
    <circle cx="441.8181818181818" cy="273.8700294349775" r="4" fill="#3b82f6" stroke="#0d1117" stroke-width="2" class="data-point"/>
  
    <circle cx="445.1674641148325" cy="273.8488094469898" r="4" fill="#3b82f6" stroke="#0d1117" stroke-width="2" class="data-point"/>
  
    <circle cx="448.51674641148327" cy="273.771002824368" r="4" fill="#3b82f6" stroke="#0d1117" stroke-width="2" class="data-point"/>
  
    <circle cx="451.86602870813397" cy="273.69602553347795" r="4" fill="#3b82f6" stroke="#0d1117" stroke-width="2" class="data-point"/>
  
    <circle cx="455.21531100478467" cy="273.6465122281732" r="4" fill="#3b82f6" stroke="#0d1117" stroke-width="2" class="data-point"/>
  
    <circle cx="458.56459330143537" cy="273.6281215719172" r="4" fill="#3b82f6" stroke="#0d1117" stroke-width="2" class="data-point"/>
  
    <circle cx="461.9138755980861" cy="273.544656285832" r="4" fill="#3b82f6" stroke="#0d1117" stroke-width="2" class="data-point"/>
  
    <circle cx="465.2631578947369" cy="271.49339078034956" r="4" fill="#3b82f6" stroke="#0d1117" stroke-width="2" class="data-point"/>
  
    <circle cx="468.6124401913876" cy="268.2806845990043" r="4" fill="#3b82f6" stroke="#0d1117" stroke-width="2" class="data-point"/>
  
    <circle cx="471.9617224880383" cy="266.12897781704646" r="4" fill="#3b82f6" stroke="#0d1117" stroke-width="2" class="data-point"/>
  
    <circle cx="475.311004784689" cy="263.6306778979554" r="4" fill="#3b82f6" stroke="#0d1117" stroke-width="2" class="data-point"/>
  
    <circle cx="478.66028708133973" cy="261.0559860221085" r="4" fill="#3b82f6" stroke="#0d1117" stroke-width="2" class="data-point"/>
  
    <circle cx="482.00956937799043" cy="259.03584316567475" r="4" fill="#3b82f6" stroke="#0d1117" stroke-width="2" class="data-point"/>
  
    <circle cx="485.35885167464113" cy="256.77662177791234" r="4" fill="#3b82f6" stroke="#0d1117" stroke-width="2" class="data-point"/>
  
    <circle cx="488.70813397129183" cy="253.3347397262994" r="4" fill="#3b82f6" stroke="#0d1117" stroke-width="2" class="data-point"/>
  
    <circle cx="492.0574162679426" cy="248.69605035217734" r="4" fill="#3b82f6" stroke="#0d1117" stroke-width="2" class="data-point"/>
  
    <circle cx="495.40669856459334" cy="245.66866539925843" r="4" fill="#3b82f6" stroke="#0d1117" stroke-width="2" class="data-point"/>
  
    <circle cx="498.75598086124404" cy="242.06551143893856" r="4" fill="#3b82f6" stroke="#0d1117" stroke-width="2" class="data-point"/>
  
    <circle cx="502.10526315789474" cy="238.05068971165636" r="4" fill="#3b82f6" stroke="#0d1117" stroke-width="2" class="data-point"/>
  
    <circle cx="505.45454545454544" cy="234.83091020098183" r="4" fill="#3b82f6" stroke="#0d1117" stroke-width="2" class="data-point"/>
  
    <circle cx="508.8038277511962" cy="231.3366855123324" r="4" fill="#3b82f6" stroke="#0d1117" stroke-width="2" class="data-point"/>
  
    <circle cx="512.1531100478469" cy="228.23715260025514" r="4" fill="#3b82f6" stroke="#0d1117" stroke-width="2" class="data-point"/>
  
    <circle cx="515.5023923444976" cy="225.16591300549487" r="4" fill="#3b82f6" stroke="#0d1117" stroke-width="2" class="data-point"/>
  
    <circle cx="518.8516746411483" cy="222.10316140592968" r="4" fill="#3b82f6" stroke="#0d1117" stroke-width="2" class="data-point"/>
  
    <circle cx="522.200956937799" cy="217.93272643340399" r="4" fill="#3b82f6" stroke="#0d1117" stroke-width="2" class="data-point"/>
  
    <circle cx="525.5502392344498" cy="213.74955946808564" r="4" fill="#3b82f6" stroke="#0d1117" stroke-width="2" class="data-point"/>
  
    <circle cx="528.8995215311005" cy="210.26240810876547" r="4" fill="#3b82f6" stroke="#0d1117" stroke-width="2" class="data-point"/>
  
    <circle cx="532.2488038277511" cy="207.33970842991943" r="4" fill="#3b82f6" stroke="#0d1117" stroke-width="2" class="data-point"/>
  
    <circle cx="535.5980861244019" cy="204.5047180347561" r="4" fill="#3b82f6" stroke="#0d1117" stroke-width="2" class="data-point"/>
  
    <circle cx="538.9473684210527" cy="200.7417068315952" r="4" fill="#3b82f6" stroke="#0d1117" stroke-width="2" class="data-point"/>
  
    <circle cx="542.2966507177034" cy="197.82325115034672" r="4" fill="#3b82f6" stroke="#0d1117" stroke-width="2" class="data-point"/>
  
    <circle cx="545.6459330143541" cy="194.93591811814693" r="4" fill="#3b82f6" stroke="#0d1117" stroke-width="2" class="data-point"/>
  
    <circle cx="548.9952153110048" cy="192.23532098023935" r="4" fill="#3b82f6" stroke="#0d1117" stroke-width="2" class="data-point"/>
  
    <circle cx="552.3444976076555" cy="189.6917517534411" r="4" fill="#3b82f6" stroke="#0d1117" stroke-width="2" class="data-point"/>
  
    <circle cx="555.6937799043062" cy="187.08593722854548" r="4" fill="#3b82f6" stroke="#0d1117" stroke-width="2" class="data-point"/>
  
    <circle cx="559.0430622009569" cy="184.85783848983178" r="4" fill="#3b82f6" stroke="#0d1117" stroke-width="2" class="data-point"/>
  
    <circle cx="562.3923444976076" cy="182.5505184626305" r="4" fill="#3b82f6" stroke="#0d1117" stroke-width="2" class="data-point"/>
  
    <circle cx="565.7416267942583" cy="180.19509979599027" r="4" fill="#3b82f6" stroke="#0d1117" stroke-width="2" class="data-point"/>
  
    <circle cx="569.0909090909091" cy="177.70528787209435" r="4" fill="#3b82f6" stroke="#0d1117" stroke-width="2" class="data-point"/>
  
    <circle cx="572.4401913875598" cy="175.42060249874666" r="4" fill="#3b82f6" stroke="#0d1117" stroke-width="2" class="data-point"/>
  
    <circle cx="575.7894736842105" cy="173.32831168315454" r="4" fill="#3b82f6" stroke="#0d1117" stroke-width="2" class="data-point"/>
  
    <circle cx="579.1387559808612" cy="169.53700716267664" r="4" fill="#3b82f6" stroke="#0d1117" stroke-width="2" class="data-point"/>
  
    <circle cx="582.4880382775119" cy="166.36391162557516" r="4" fill="#3b82f6" stroke="#0d1117" stroke-width="2" class="data-point"/>
  
    <circle cx="585.8373205741627" cy="163.31672135053432" r="4" fill="#3b82f6" stroke="#0d1117" stroke-width="2" class="data-point"/>
  
    <circle cx="589.1866028708133" cy="160.38977767409077" r="4" fill="#3b82f6" stroke="#0d1117" stroke-width="2" class="data-point"/>
  
    <circle cx="592.5358851674641" cy="155.76806429035892" r="4" fill="#3b82f6" stroke="#0d1117" stroke-width="2" class="data-point"/>
  
    <circle cx="595.8851674641148" cy="152.84394994564707" r="4" fill="#3b82f6" stroke="#0d1117" stroke-width="2" class="data-point"/>
  
    <circle cx="599.2344497607655" cy="150.31311271164148" r="4" fill="#3b82f6" stroke="#0d1117" stroke-width="2" class="data-point"/>
  
    <circle cx="602.5837320574163" cy="147.32392373710047" r="4" fill="#3b82f6" stroke="#0d1117" stroke-width="2" class="data-point"/>
  
    <circle cx="605.9330143540669" cy="142.91723956497782" r="4" fill="#3b82f6" stroke="#0d1117" stroke-width="2" class="data-point"/>
  
    <circle cx="609.2822966507177" cy="139.74697335960806" r="4" fill="#3b82f6" stroke="#0d1117" stroke-width="2" class="data-point"/>
  
    <circle cx="612.6315789473684" cy="137.07042554141992" r="4" fill="#3b82f6" stroke="#0d1117" stroke-width="2" class="data-point"/>
  
    <circle cx="615.9808612440191" cy="134.80554549019413" r="4" fill="#3b82f6" stroke="#0d1117" stroke-width="2" class="data-point"/>
  
    <circle cx="619.3301435406698" cy="132.65666803996803" r="4" fill="#3b82f6" stroke="#0d1117" stroke-width="2" class="data-point"/>
  
    <circle cx="622.6794258373205" cy="130.90955569564332" r="4" fill="#3b82f6" stroke="#0d1117" stroke-width="2" class="data-point"/>
  
    <circle cx="626.0287081339712" cy="128.94175547624602" r="4" fill="#3b82f6" stroke="#0d1117" stroke-width="2" class="data-point"/>
  
    <circle cx="629.377990430622" cy="127.33752438437219" r="4" fill="#3b82f6" stroke="#0d1117" stroke-width="2" class="data-point"/>
  
    <circle cx="632.7272727272727" cy="125.4447014558649" r="4" fill="#3b82f6" stroke="#0d1117" stroke-width="2" class="data-point"/>
  
    <circle cx="636.0765550239234" cy="122.72005499823788" r="4" fill="#3b82f6" stroke="#0d1117" stroke-width="2" class="data-point"/>
  
    <circle cx="639.4258373205741" cy="120.37878299025618" r="4" fill="#3b82f6" stroke="#0d1117" stroke-width="2" class="data-point"/>
  
    <circle cx="642.7751196172248" cy="118.34307880929808" r="4" fill="#3b82f6" stroke="#0d1117" stroke-width="2" class="data-point"/>
  
    <circle cx="646.1244019138757" cy="116.58323447218072" r="4" fill="#3b82f6" stroke="#0d1117" stroke-width="2" class="data-point"/>
  
    <circle cx="649.4736842105262" cy="114.76821816629521" r="4" fill="#3b82f6" stroke="#0d1117" stroke-width="2" class="data-point"/>
  
    <circle cx="652.8229665071771" cy="113.23754969944554" r="4" fill="#3b82f6" stroke="#0d1117" stroke-width="2" class="data-point"/>
  
    <circle cx="656.1722488038278" cy="110.66427248946445" r="4" fill="#3b82f6" stroke="#0d1117" stroke-width="2" class="data-point"/>
  
    <circle cx="659.5215311004785" cy="108.46446706806776" r="4" fill="#3b82f6" stroke="#0d1117" stroke-width="2" class="data-point"/>
  
    <circle cx="662.8708133971293" cy="106.2830523029271" r="4" fill="#3b82f6" stroke="#0d1117" stroke-width="2" class="data-point"/>
  
    <circle cx="666.2200956937799" cy="104.48218265570011" r="4" fill="#3b82f6" stroke="#0d1117" stroke-width="2" class="data-point"/>
  
    <circle cx="669.5693779904307" cy="102.82985292438735" r="4" fill="#3b82f6" stroke="#0d1117" stroke-width="2" class="data-point"/>
  
    <circle cx="672.9186602870814" cy="101.36284442150094" r="4" fill="#3b82f6" stroke="#0d1117" stroke-width="2" class="data-point"/>
  
    <circle cx="676.2679425837321" cy="98.84756851201968" r="4" fill="#3b82f6" stroke="#0d1117" stroke-width="2" class="data-point"/>
  
    <circle cx="679.6172248803828" cy="96.80479100173233" r="4" fill="#3b82f6" stroke="#0d1117" stroke-width="2" class="data-point"/>
  
    <circle cx="682.9665071770335" cy="94.94309072227378" r="4" fill="#3b82f6" stroke="#0d1117" stroke-width="2" class="data-point"/>
  
    <circle cx="686.3157894736842" cy="93.16485572890039" r="4" fill="#3b82f6" stroke="#0d1117" stroke-width="2" class="data-point"/>
  
    <circle cx="689.665071770335" cy="91.61296727406295" r="4" fill="#3b82f6" stroke="#0d1117" stroke-width="2" class="data-point"/>
  
    <circle cx="693.0143540669856" cy="90.10634812693274" r="4" fill="#3b82f6" stroke="#0d1117" stroke-width="2" class="data-point"/>
  
    <circle cx="696.3636363636364" cy="88.72563424186319" r="4" fill="#3b82f6" stroke="#0d1117" stroke-width="2" class="data-point"/>
  
    <circle cx="699.7129186602871" cy="87.40150699142762" r="4" fill="#3b82f6" stroke="#0d1117" stroke-width="2" class="data-point"/>
  
    <circle cx="703.0622009569378" cy="86.18772367852833" r="4" fill="#3b82f6" stroke="#0d1117" stroke-width="2" class="data-point"/>
  
    <circle cx="706.4114832535886" cy="84.67261653620304" r="4" fill="#3b82f6" stroke="#0d1117" stroke-width="2" class="data-point"/>
  
    <circle cx="709.7607655502392" cy="83.04575079047555" r="4" fill="#3b82f6" stroke="#0d1117" stroke-width="2" class="data-point"/>
  
    <circle cx="713.11004784689" cy="81.54903430440629" r="4" fill="#3b82f6" stroke="#0d1117" stroke-width="2" class="data-point"/>
  
    <circle cx="716.4593301435407" cy="79.22332362094897" r="4" fill="#3b82f6" stroke="#0d1117" stroke-width="2" class="data-point"/>
  
    <circle cx="719.8086124401914" cy="77.53562724298996" r="4" fill="#3b82f6" stroke="#0d1117" stroke-width="2" class="data-point"/>
  
    <circle cx="723.1578947368421" cy="75.92149349005518" r="4" fill="#3b82f6" stroke="#0d1117" stroke-width="2" class="data-point"/>
  
    <circle cx="726.5071770334928" cy="74.50541295833932" r="4" fill="#3b82f6" stroke="#0d1117" stroke-width="2" class="data-point"/>
  
    <circle cx="729.8564593301436" cy="72.84459523183148" r="4" fill="#3b82f6" stroke="#0d1117" stroke-width="2" class="data-point"/>
  
    <circle cx="733.2057416267943" cy="70.8046470532758" r="4" fill="#3b82f6" stroke="#0d1117" stroke-width="2" class="data-point"/>
  
    <circle cx="736.555023923445" cy="68.9967040767196" r="4" fill="#3b82f6" stroke="#0d1117" stroke-width="2" class="data-point"/>
  
    <circle cx="739.9043062200957" cy="67.38257032378476" r="4" fill="#3b82f6" stroke="#0d1117" stroke-width="2" class="data-point"/>
  
    <circle cx="743.2535885167464" cy="65.62979931599665" r="4" fill="#3b82f6" stroke="#0d1117" stroke-width="2" class="data-point"/>
  
    <circle cx="746.6028708133971" cy="63.212135351259064" r="4" fill="#3b82f6" stroke="#0d1117" stroke-width="2" class="data-point"/>
  
    <circle cx="749.9521531100479" cy="61.22735914147154" r="4" fill="#3b82f6" stroke="#0d1117" stroke-width="2" class="data-point"/>
  
    <circle cx="753.3014354066985" cy="59.098287013367326" r="4" fill="#3b82f6" stroke="#0d1117" stroke-width="2" class="data-point"/>
  
    <circle cx="756.6507177033493" cy="56.97628821459239" r="4" fill="#3b82f6" stroke="#0d1117" stroke-width="2" class="data-point"/>
  
    <circle cx="760" cy="55" r="4" fill="#3b82f6" stroke="#0d1117" stroke-width="2" class="data-point"/>
  

  <!-- Axis lines -->
  <line x1="60" y1="55" x2="60" y2="340"
        stroke="#30363d" stroke-width="2"/>
  <line x1="60" y1="340" x2="760" y2="340"
        stroke="#30363d" stroke-width="2"/>
</svg>