<?xml version="1.0" encoding="UTF-8"?>
<svg width="800" height="400" xmlns="http://www.w3.org/2000/svg">
  <defs>
    <!-- Gradient for area fill -->
    <linearGradient id="areaGradient" x1="0%" y1="0%" x2="0%" y2="100%">
      <stop offset="0%" style="stop-color:#3b82f6;stop-opacity:0.3" />
      <stop offset="100%" style="stop-color:#3b82f6;stop-opacity:0.05" />
    </linearGradient>

    <!-- Glow filter for line -->
    <filter id="glow">
      <feGaussianBlur stdDeviation="2" result="coloredBlur"/>
      <feMerge>
        <feMergeNode in="coloredBlur"/>
        <feMergeNode in="SourceGraphic"/>
      </feMerge>
    </filter>

    <!-- Animation -->
    <style>
      @keyframes draw {
        from { stroke-dashoffset: 2000; }
        to { stroke-dashoffset: 0; }
      }
      @keyframes fadeIn {
        from { opacity: 0; }
        to { opacity: 1; }
      }
      .line-path {
        stroke-dasharray: 2000;
        stroke-dashoffset: 2000;
        animation: draw 1.5s ease-out forwards;
      }
      .area-path {
        opacity: 0;
        animation: fadeIn 1s ease-out 0.5s forwards;
      }
      .data-point {
        opacity: 0;
        animation: fadeIn 0.5s ease-out 1s forwards;
      }
    </style>
  </defs>

  <!-- Background -->
  <rect width="800" height="400" fill="#0d1117" rx="8"/>

  <!-- Title -->
  <text x="400" y="25" text-anchor="middle" fill="#c9d1d9" font-family="system-ui, -apple-system, sans-serif" font-size="16" font-weight="600">
    zxcloli666/SoundCloud-Desktop Downloads
  </text>

  <!-- Stats -->
  <text x="780" y="25" text-anchor="end" fill="#58a6ff" font-family="system-ui, -apple-system, sans-serif" font-size="14" font-weight="600">
    288.9K total
  </text>
  <text x="780" y="42" text-anchor="end" fill="#3fb950" font-family="system-ui, -apple-system, sans-serif" font-size="12">
    +917 (+0.3%)
  </text>

  <!-- Grid lines -->
  <g opacity="0.1">
    
      <line x1="60" y1="340" x2="760" y2="340"
            stroke="#c9d1d9" stroke-width="1"/>
    
      <line x1="60" y1="268.75" x2="760" y2="268.75"
            stroke="#c9d1d9" stroke-width="1"/>
    
      <line x1="60" y1="197.5" x2="760" y2="197.5"
            stroke="#c9d1d9" stroke-width="1"/>
    
      <line x1="60" y1="126.25" x2="760" y2="126.25"
            stroke="#c9d1d9" stroke-width="1"/>
    
      <line x1="60" y1="55" x2="760" y2="55"
            stroke="#c9d1d9" stroke-width="1"/>
    
  </g>

  <!-- Y-axis labels -->
  
    <text x="50" y="344" text-anchor="end"
          fill="#8b949e" font-family="system-ui, -apple-system, sans-serif" font-size="11">
      60.2K
    </text>
  
    <text x="50" y="272.75" text-anchor="end"
          fill="#8b949e" font-family="system-ui, -apple-system, sans-serif" font-size="11">
      117.3K
    </text>
  
    <text x="50" y="201.5" text-anchor="end"
          fill="#8b949e" font-family="system-ui, -apple-system, sans-serif" font-size="11">
      174.5K
    </text>
  
    <text x="50" y="130.25" text-anchor="end"
          fill="#8b949e" font-family="system-ui, -apple-system, sans-serif" font-size="11">
      231.7K
    </text>
  
    <text x="50" y="59" text-anchor="end"
          fill="#8b949e" font-family="system-ui, -apple-system, sans-serif" font-size="11">
      288.9K
    </text>
  

  <!-- X-axis labels -->
  
    <text x="60" y="360" text-anchor="middle"
          fill="#8b949e" font-family="system-ui, -apple-system, sans-serif" font-size="11">
      Nov 25
    </text>
  
    <text x="146.0169491525424" y="360" text-anchor="middle"
          fill="#8b949e" font-family="system-ui, -apple-system, sans-serif" font-size="11">
      Dec 24
    </text>
  
    <text x="232.03389830508476" y="360" text-anchor="middle"
          fill="#8b949e" font-family="system-ui, -apple-system, sans-serif" font-size="11">
      Jan 22
    </text>
  
    <text x="318.0508474576271" y="360" text-anchor="middle"
          fill="#8b949e" font-family="system-ui, -apple-system, sans-serif" font-size="11">
      Feb 20
    </text>
  
    <text x="404.0677966101695" y="360" text-anchor="middle"
          fill="#8b949e" font-family="system-ui, -apple-system, sans-serif" font-size="11">
      Mar 21
    </text>
  
    <text x="490.08474576271186" y="360" text-anchor="middle"
          fill="#8b949e" font-family="system-ui, -apple-system, sans-serif" font-size="11">
      Apr 19
    </text>
  
    <text x="576.1016949152543" y="360" text-anchor="middle"
          fill="#8b949e" font-family="system-ui, -apple-system, sans-serif" font-size="11">
      May 18
    </text>
  
    <text x="662.1186440677966" y="360" text-anchor="middle"
          fill="#8b949e" font-family="system-ui, -apple-system, sans-serif" font-size="11">
      Jun 16
    </text>
  
    <text x="748.135593220339" y="360" text-anchor="middle"
          fill="#8b949e" font-family="system-ui, -apple-system, sans-serif" font-size="11">
      Jul 15
    </text>
  
    <text x="760" y="360" text-anchor="middle"
          fill="#8b949e" font-family="system-ui, -apple-system, sans-serif" font-size="11">
      Jul 19
    </text>
  

  <!-- Area under line -->
  <path d="M 60 340
    L 60.00 340.00 L 62.97 339.82 L 65.93 339.51 L 68.90 339.22 L 71.86 338.64 L 74.83 338.05 L 77.80 337.58 L 80.76 337.15 L 83.73 336.76 L 86.69 336.30 L 89.66 335.80 L 92.63 335.25 L 95.59 334.76 L 98.56 334.24 L 101.53 333.85 L 104.49 333.46 L 107.46 332.92 L 110.42 332.56 L 113.39 332.06 L 116.36 331.48 L 119.32 331.05 L 122.29 330.69 L 125.25 330.46 L 128.22 330.27 L 131.19 329.92 L 134.15 329.66 L 137.12 329.11 L 140.08 328.89 L 143.05 328.61 L 146.02 328.25 L 148.98 328.00 L 151.95 327.74 L 154.92 327.48 L 157.88 327.29 L 160.85 327.13 L 163.81 326.89 L 166.78 326.60 L 169.75 326.32 L 172.71 325.98 L 175.68 325.61 L 178.64 325.26 L 181.61 324.85 L 184.58 324.44 L 187.54 324.03 L 190.51 323.59 L 193.47 323.16 L 196.44 322.67 L 199.41 322.24 L 202.37 321.87 L 205.34 321.58 L 208.31 321.17 L 211.27 320.70 L 214.24 320.27 L 217.20 319.76 L 220.17 319.14 L 223.14 318.68 L 226.10 318.30 L 229.07 317.94 L 232.03 317.50 L 235.00 316.99 L 237.97 316.43 L 240.93 315.84 L 243.90 315.27 L 246.86 314.77 L 249.83 314.27 L 252.80 313.84 L 255.76 313.39 L 258.73 312.89 L 261.69 312.27 L 264.66 311.81 L 267.63 311.40 L 270.59 310.94 L 273.56 310.51 L 276.53 310.04 L 279.49 309.55 L 282.46 309.03 L 285.42 308.58 L 288.39 308.20 L 291.36 307.77 L 294.32 307.32 L 297.29 306.89 L 300.25 306.34 L 303.22 305.87 L 306.19 305.41 L 309.15 305.03 L 312.12 304.66 L 315.08 304.29 L 318.05 303.85 L 321.02 303.39 L 323.98 302.84 L 326.95 302.39 L 329.92 302.03 L 332.88 301.65 L 335.85 301.30 L 338.81 300.85 L 341.78 300.40 L 344.75 299.39 L 347.71 297.39 L 350.68 295.01 L 353.64 292.84 L 356.61 291.73 L 359.58 290.08 L 362.54 288.97 L 365.51 288.01 L 368.47 287.06 L 371.44 286.17 L 374.41 284.78 L 377.37 283.68 L 380.34 282.27 L 383.31 281.99 L 386.27 281.95 L 389.24 281.90 L 392.20 281.86 L 395.17 281.81 L 398.14 281.76 L 401.10 281.74 L 404.07 281.67 L 407.03 281.61 L 410.00 281.56 L 412.97 281.55 L 415.93 281.47 L 418.90 279.67 L 421.86 276.84 L 424.83 274.94 L 427.80 272.74 L 430.76 270.47 L 433.73 268.69 L 436.69 266.70 L 439.66 263.67 L 442.63 259.59 L 445.59 256.92 L 448.56 253.75 L 451.53 250.21 L 454.49 247.38 L 457.46 244.30 L 460.42 241.57 L 463.39 238.86 L 466.36 236.17 L 469.32 232.49 L 472.29 228.81 L 475.25 225.74 L 478.22 223.17 L 481.19 220.67 L 484.15 217.35 L 487.12 214.78 L 490.08 212.24 L 493.05 209.86 L 496.02 207.62 L 498.98 205.33 L 501.95 203.37 L 504.92 201.33 L 507.88 199.26 L 510.85 197.07 L 513.81 195.05 L 516.78 193.21 L 519.75 189.87 L 522.71 187.08 L 525.68 184.39 L 528.64 181.82 L 531.61 177.75 L 534.58 175.17 L 537.54 172.94 L 540.51 170.31 L 543.47 166.43 L 546.44 163.64 L 549.41 161.28 L 552.37 159.28 L 555.34 157.39 L 558.31 155.85 L 561.27 154.12 L 564.24 152.71 L 567.20 151.04 L 570.17 148.64 L 573.14 146.58 L 576.10 144.79 L 579.07 143.24 L 582.03 141.64 L 585.00 140.29 L 587.97 138.02 L 590.93 136.08 L 593.90 134.16 L 596.86 132.58 L 599.83 131.12 L 602.80 129.83 L 605.76 127.62 L 608.73 125.82 L 611.69 124.18 L 614.66 122.61 L 617.63 121.24 L 620.59 119.92 L 623.56 118.70 L 626.53 117.53 L 629.49 116.47 L 632.46 115.13 L 635.42 113.70 L 638.39 112.38 L 641.36 110.33 L 644.32 108.85 L 647.29 107.42 L 650.25 106.18 L 653.22 104.71 L 656.19 102.92 L 659.15 101.33 L 662.12 99.90 L 665.08 98.36 L 668.05 96.23 L 671.02 94.48 L 673.98 92.61 L 676.95 90.74 L 679.92 89.00 L 682.88 87.29 L 685.85 85.48 L 688.81 83.86 L 691.78 82.44 L 694.75 81.13 L 697.71 79.73 L 700.68 78.38 L 703.64 77.15 L 706.61 75.92 L 709.58 74.74 L 712.54 73.57 L 715.51 72.40 L 718.47 71.37 L 721.44 70.18 L 724.41 68.94 L 727.37 67.53 L 730.34 66.17 L 733.31 64.96 L 736.27 63.89 L 739.24 62.79 L 742.20 61.79 L 745.17 60.64 L 748.14 59.51 L 751.10 58.43 L 754.07 57.32 L 757.03 56.14 L 760.00 55.00
    L 760 340
    Z" fill="url(#areaGradient)" class="area-path"/>

  <!-- Main line with glow -->
  <path d="M 60.00 340.00 L 62.97 339.82 L 65.93 339.51 L 68.90 339.22 L 71.86 338.64 L 74.83 338.05 L 77.80 337.58 L 80.76 337.15 L 83.73 336.76 L 86.69 336.30 L 89.66 335.80 L 92.63 335.25 L 95.59 334.76 L 98.56 334.24 L 101.53 333.85 L 104.49 333.46 L 107.46 332.92 L 110.42 332.56 L 113.39 332.06 L 116.36 331.48 L 119.32 331.05 L 122.29 330.69 L 125.25 330.46 L 128.22 330.27 L 131.19 329.92 L 134.15 329.66 L 137.12 329.11 L 140.08 328.89 L 143.05 328.61 L 146.02 328.25 L 148.98 328.00 L 151.95 327.74 L 154.92 327.48 L 157.88 327.29 L 160.85 327.13 L 163.81 326.89 L 166.78 326.60 L 169.75 326.32 L 172.71 325.98 L 175.68 325.61 L 178.64 325.26 L 181.61 324.85 L 184.58 324.44 L 187.54 324.03 L 190.51 323.59 L 193.47 323.16 L 196.44 322.67 L 199.41 322.24 L 202.37 321.87 L 205.34 321.58 L 208.31 321.17 L 211.27 320.70 L 214.24 320.27 L 217.20 319.76 L 220.17 319.14 L 223.14 318.68 L 226.10 318.30 L 229.07 317.94 L 232.03 317.50 L 235.00 316.99 L 237.97 316.43 L 240.93 315.84 L 243.90 315.27 L 246.86 314.77 L 249.83 314.27 L 252.80 313.84 L 255.76 313.39 L 258.73 312.89 L 261.69 312.27 L 264.66 311.81 L 267.63 311.40 L 270.59 310.94 L 273.56 310.51 L 276.53 310.04 L 279.49 309.55 L 282.46 309.03 L 285.42 308.58 L 288.39 308.20 L 291.36 307.77 L 294.32 307.32 L 297.29 306.89 L 300.25 306.34 L 303.22 305.87 L 306.19 305.41 L 309.15 305.03 L 312.12 304.66 L 315.08 304.29 L 318.05 303.85 L 321.02 303.39 L 323.98 302.84 L 326.95 302.39 L 329.92 302.03 L 332.88 301.65 L 335.85 301.30 L 338.81 300.85 L 341.78 300.40 L 344.75 299.39 L 347.71 297.39 L 350.68 295.01 L 353.64 292.84 L 356.61 291.73 L 359.58 290.08 L 362.54 288.97 L 365.51 288.01 L 368.47 287.06 L 371.44 286.17 L 374.41 284.78 L 377.37 283.68 L 380.34 282.27 L 383.31 281.99 L 386.27 281.95 L 389.24 281.90 L 392.20 281.86 L 395.17 281.81 L 398.14 281.76 L 401.10 281.74 L 404.07 281.67 L 407.03 281.61 L 410.00 281.56 L 412.97 281.55 L 415.93 281.47 L 418.90 279.67 L 421.86 276.84 L 424.83 274.94 L 427.80 272.74 L 430.76 270.47 L 433.73 268.69 L 436.69 266.70 L 439.66 263.67 L 442.63 259.59 L 445.59 256.92 L 448.56 253.75 L 451.53 250.21 L 454.49 247.38 L 457.46 244.30 L 460.42 241.57 L 463.39 238.86 L 466.36 236.17 L 469.32 232.49 L 472.29 228.81 L 475.25 225.74 L 478.22 223.17 L 481.19 220.67 L 484.15 217.35 L 487.12 214.78 L 490.08 212.24 L 493.05 209.86 L 496.02 207.62 L 498.98 205.33 L 501.95 203.37 L 504.92 201.33 L 507.88 199.26 L 510.85 197.07 L 513.81 195.05 L 516.78 193.21 L 519.75 189.87 L 522.71 187.08 L 525.68 184.39 L 528.64 181.82 L 531.61 177.75 L 534.58 175.17 L 537.54 172.94 L 540.51 170.31 L 543.47 166.43 L 546.44 163.64 L 549.41 161.28 L 552.37 159.28 L 555.34 157.39 L 558.31 155.85 L 561.27 154.12 L 564.24 152.71 L 567.20 151.04 L 570.17 148.64 L 573.14 146.58 L 576.10 144.79 L 579.07 143.24 L 582.03 141.64 L 585.00 140.29 L 587.97 138.02 L 590.93 136.08 L 593.90 134.16 L 596.86 132.58 L 599.83 131.12 L 602.80 129.83 L 605.76 127.62 L 608.73 125.82 L 611.69 124.18 L 614.66 122.61 L 617.63 121.24 L 620.59 119.92 L 623.56 118.70 L 626.53 117.53 L 629.49 116.47 L 632.46 115.13 L 635.42 113.70 L 638.39 112.38 L 641.36 110.33 L 644.32 108.85 L 647.29 107.42 L 650.25 106.18 L 653.22 104.71 L 656.19 102.92 L 659.15 101.33 L 662.12 99.90 L 665.08 98.36 L 668.05 96.23 L 671.02 94.48 L 673.98 92.61 L 676.95 90.74 L 679.92 89.00 L 682.88 87.29 L 685.85 85.48 L 688.81 83.86 L 691.78 82.44 L 694.75 81.13 L 697.71 79.73 L 700.68 78.38 L 703.64 77.15 L 706.61 75.92 L 709.58 74.74 L 712.54 73.57 L 715.51 72.40 L 718.47 71.37 L 721.44 70.18 L 724.41 68.94 L 727.37 67.53 L 730.34 66.17 L 733.31 64.96 L 736.27 63.89 L 739.24 62.79 L 742.20 61.79 L 745.17 60.64 L 748.14 59.51 L 751.10 58.43 L 754.07 57.32 L 757.03 56.14 L 760.00 55.00" fill="none" stroke="#3b82f6" stroke-width="3"
        stroke-linecap="round" stroke-linejoin="round" filter="url(#glow)" class="line-path"/>

  <!-- Data points -->
  
    <circle cx="60" cy="340" r="4" fill="#3b82f6" stroke="#0d1117" stroke-width="2" class="data-point"/>
  
    <circle cx="62.96610169491525" cy="339.8168516583679" r="4" fill="#3b82f6" stroke="#0d1117" stroke-width="2" class="data-point"/>
  
    <circle cx="65.9322033898305" cy="339.50537488688474" r="4" fill="#3b82f6" stroke="#0d1117" stroke-width="2" class="data-point"/>
  
    <circle cx="68.89830508474576" cy="339.2163244429484" r="4" fill="#3b82f6" stroke="#0d1117" stroke-width="2" class="data-point"/>
  
    <circle cx="71.86440677966101" cy="338.64196127633346" r="4" fill="#3b82f6" stroke="#0d1117" stroke-width="2" class="data-point"/>
  
    <circle cx="74.83050847457628" cy="338.0489095034295" r="4" fill="#3b82f6" stroke="#0d1117" stroke-width="2" class="data-point"/>
  
    <circle cx="77.79661016949153" cy="337.5816943462048" r="4" fill="#3b82f6" stroke="#0d1117" stroke-width="2" class="data-point"/>
  
    <circle cx="80.76271186440678" cy="337.1456268661284" r="4" fill="#3b82f6" stroke="#0d1117" stroke-width="2" class="data-point"/>
  
    <circle cx="83.72881355932203" cy="336.7581497624033" r="4" fill="#3b82f6" stroke="#0d1117" stroke-width="2" class="data-point"/>
  
    <circle cx="86.69491525423729" cy="336.30339367603796" r="4" fill="#3b82f6" stroke="#0d1117" stroke-width="2" class="data-point"/>
  
    <circle cx="89.66101694915254" cy="335.79630949206336" r="4" fill="#3b82f6" stroke="#0d1117" stroke-width="2" class="data-point"/>
  
    <circle cx="92.62711864406779" cy="335.25309400259675" r="4" fill="#3b82f6" stroke="#0d1117" stroke-width="2" class="data-point"/>
  
    <circle cx="95.59322033898306" cy="334.75971479656744" r="4" fill="#3b82f6" stroke="#0d1117" stroke-width="2" class="data-point"/>
  
    <circle cx="98.5593220338983" cy="334.2351879133898" r="4" fill="#3b82f6" stroke="#0d1117" stroke-width="2" class="data-point"/>
  
    <circle cx="101.52542372881356" cy="333.8526944380085" r="4" fill="#3b82f6" stroke="#0d1117" stroke-width="2" class="data-point"/>
  
    <circle cx="104.4915254237288" cy="333.4564959846819" r="4" fill="#3b82f6" stroke="#0d1117" stroke-width="2" class="data-point"/>
  
    <circle cx="107.45762711864407" cy="332.918264123559" r="4" fill="#3b82f6" stroke="#0d1117" stroke-width="2" class="data-point"/>
  
    <circle cx="110.42372881355932" cy="332.55819697572446" r="4" fill="#3b82f6" stroke="#0d1117" stroke-width="2" class="data-point"/>
  
    <circle cx="113.38983050847457" cy="332.0598341413514" r="4" fill="#3b82f6" stroke="#0d1117" stroke-width="2" class="data-point"/>
  
    <circle cx="116.35593220338983" cy="331.4842250676506" r="4" fill="#3b82f6" stroke="#0d1117" stroke-width="2" class="data-point"/>
  
    <circle cx="119.32203389830508" cy="331.050649401746" r="4" fill="#3b82f6" stroke="#0d1117" stroke-width="2" class="data-point"/>
  
    <circle cx="122.28813559322035" cy="330.69431997516926" r="4" fill="#3b82f6" stroke="#0d1117" stroke-width="2" class="data-point"/>
  
    <circle cx="125.2542372881356" cy="330.4638271642718" r="4" fill="#3b82f6" stroke="#0d1117" stroke-width="2" class="data-point"/>
  
    <circle cx="128.22033898305085" cy="330.2719574730381" r="4" fill="#3b82f6" stroke="#0d1117" stroke-width="2" class="data-point"/>
  
    <circle cx="131.18644067796612" cy="329.91687395354734" r="4" fill="#3b82f6" stroke="#0d1117" stroke-width="2" class="data-point"/>
  
    <circle cx="134.15254237288136" cy="329.663954815103" r="4" fill="#3b82f6" stroke="#0d1117" stroke-width="2" class="data-point"/>
  
    <circle cx="137.1186440677966" cy="329.109526161863" r="4" fill="#3b82f6" stroke="#0d1117" stroke-width="2" class="data-point"/>
  
    <circle cx="140.08474576271186" cy="328.8914924218248" r="4" fill="#3b82f6" stroke="#0d1117" stroke-width="2" class="data-point"/>
  
    <circle cx="143.05084745762713" cy="328.60991742040403" r="4" fill="#3b82f6" stroke="#0d1117" stroke-width="2" class="data-point"/>
  
    <circle cx="146.0169491525424" cy="328.2461125513117" r="4" fill="#3b82f6" stroke="#0d1117" stroke-width="2" class="data-point"/>
  
    <circle cx="148.9830508474576" cy="327.9969311341252" r="4" fill="#3b82f6" stroke="#0d1117" stroke-width="2" class="data-point"/>
  
    <circle cx="151.94915254237287" cy="327.74401199568086" r="4" fill="#3b82f6" stroke="#0d1117" stroke-width="2" class="data-point"/>
  
    <circle cx="154.91525423728814" cy="327.4786337863772" r="4" fill="#3b82f6" stroke="#0d1117" stroke-width="2" class="data-point"/>
  
    <circle cx="157.88135593220338" cy="327.29423953765917" r="4" fill="#3b82f6" stroke="#0d1117" stroke-width="2" class="data-point"/>
  
    <circle cx="160.84745762711864" cy="327.1347634306598" r="4" fill="#3b82f6" stroke="#0d1117" stroke-width="2" class="data-point"/>
  
    <circle cx="163.81355932203388" cy="326.8918115489029" r="4" fill="#3b82f6" stroke="#0d1117" stroke-width="2" class="data-point"/>
  
    <circle cx="166.77966101694915" cy="326.5965315695369" r="4" fill="#3b82f6" stroke="#0d1117" stroke-width="2" class="data-point"/>
  
    <circle cx="169.74576271186442" cy="326.3249238248036" r="4" fill="#3b82f6" stroke="#0d1117" stroke-width="2" class="data-point"/>
  
    <circle cx="172.71186440677965" cy="325.9810534690862" r="4" fill="#3b82f6" stroke="#0d1117" stroke-width="2" class="data-point"/>
  
    <circle cx="175.67796610169492" cy="325.6060354362205" r="4" fill="#3b82f6" stroke="#0d1117" stroke-width="2" class="data-point"/>
  
    <circle cx="178.64406779661016" cy="325.2621650805031" r="4" fill="#3b82f6" stroke="#0d1117" stroke-width="2" class="data-point"/>
  
    <circle cx="181.61016949152543" cy="324.84727802088753" r="4" fill="#3b82f6" stroke="#0d1117" stroke-width="2" class="data-point"/>
  
    <circle cx="184.5762711864407" cy="324.43986640378756" r="4" fill="#3b82f6" stroke="#0d1117" stroke-width="2" class="data-point"/>
  
    <circle cx="187.5423728813559" cy="324.0324547866876" r="4" fill="#3b82f6" stroke="#0d1117" stroke-width="2" class="data-point"/>
  
    <circle cx="190.5084745762712" cy="323.58642004992373" r="4" fill="#3b82f6" stroke="#0d1117" stroke-width="2" class="data-point"/>
  
    <circle cx="193.47457627118644" cy="323.16031982653476" r="4" fill="#3b82f6" stroke="#0d1117" stroke-width="2" class="data-point"/>
  
    <circle cx="196.4406779661017" cy="322.6731701559351" r="4" fill="#3b82f6" stroke="#0d1117" stroke-width="2" class="data-point"/>
  
    <circle cx="199.40677966101694" cy="322.23834858294464" r="4" fill="#3b82f6" stroke="#0d1117" stroke-width="2" class="data-point"/>
  
    <circle cx="202.3728813559322" cy="321.8708059925945" r="4" fill="#3b82f6" stroke="#0d1117" stroke-width="2" class="data-point"/>
  
    <circle cx="205.33898305084745" cy="321.5767719203144" r="4" fill="#3b82f6" stroke="#0d1117" stroke-width="2" class="data-point"/>
  
    <circle cx="208.3050847457627" cy="321.16562258195665" r="4" fill="#3b82f6" stroke="#0d1117" stroke-width="2" class="data-point"/>
  
    <circle cx="211.27118644067798" cy="320.69591561056006" r="4" fill="#3b82f6" stroke="#0d1117" stroke-width="2" class="data-point"/>
  
    <circle cx="214.23728813559322" cy="320.2660776659133" r="4" fill="#3b82f6" stroke="#0d1117" stroke-width="2" class="data-point"/>
  
    <circle cx="217.20338983050848" cy="319.76397711028244" r="4" fill="#3b82f6" stroke="#0d1117" stroke-width="2" class="data-point"/>
  
    <circle cx="220.16949152542372" cy="319.14476128857393" r="4" fill="#3b82f6" stroke="#0d1117" stroke-width="2" class="data-point"/>
  
    <circle cx="223.135593220339" cy="318.68377566677884" r="4" fill="#3b82f6" stroke="#0d1117" stroke-width="2" class="data-point"/>
  
    <circle cx="226.10169491525423" cy="318.30128219139755" r="4" fill="#3b82f6" stroke="#0d1117" stroke-width="2" class="data-point"/>
  
    <circle cx="229.0677966101695" cy="317.93747732230526" r="4" fill="#3b82f6" stroke="#0d1117" stroke-width="2" class="data-point"/>
  
    <circle cx="232.03389830508476" cy="317.5001639351429" r="4" fill="#3b82f6" stroke="#0d1117" stroke-width="2" class="data-point"/>
  
    <circle cx="235" cy="316.9918338440824" r="4" fill="#3b82f6" stroke="#0d1117" stroke-width="2" class="data-point"/>
  
    <circle cx="237.96610169491524" cy="316.42868384124085" r="4" fill="#3b82f6" stroke="#0d1117" stroke-width="2" class="data-point"/>
  
    <circle cx="240.9322033898305" cy="315.83687797542285" r="4" fill="#3b82f6" stroke="#0d1117" stroke-width="2" class="data-point"/>
  
    <circle cx="243.89830508474577" cy="315.2687443442376" r="4" fill="#3b82f6" stroke="#0d1117" stroke-width="2" class="data-point"/>
  
    <circle cx="246.864406779661" cy="314.7691356027786" r="4" fill="#3b82f6" stroke="#0d1117" stroke-width="2" class="data-point"/>
  
    <circle cx="249.83050847457628" cy="314.2732645825774" r="4" fill="#3b82f6" stroke="#0d1117" stroke-width="2" class="data-point"/>
  
    <circle cx="252.79661016949152" cy="313.8359511954151" r="4" fill="#3b82f6" stroke="#0d1117" stroke-width="2" class="data-point"/>
  
    <circle cx="255.76271186440675" cy="313.38991645865116" r="4" fill="#3b82f6" stroke="#0d1117" stroke-width="2" class="data-point"/>
  
    <circle cx="258.728813559322" cy="312.8915536242781" r="4" fill="#3b82f6" stroke="#0d1117" stroke-width="2" class="data-point"/>
  
    <circle cx="261.6949152542373" cy="312.2710918954837" r="4" fill="#3b82f6" stroke="#0d1117" stroke-width="2" class="data-point"/>
  
    <circle cx="264.66101694915255" cy="311.8088603666027" r="4" fill="#3b82f6" stroke="#0d1117" stroke-width="2" class="data-point"/>
  
    <circle cx="267.62711864406776" cy="311.39521921407305" r="4" fill="#3b82f6" stroke="#0d1117" stroke-width="2" class="data-point"/>
  
    <circle cx="270.59322033898303" cy="310.9354794993639" r="4" fill="#3b82f6" stroke="#0d1117" stroke-width="2" class="data-point"/>
  
    <circle cx="273.5593220338983" cy="310.5068874618031" r="4" fill="#3b82f6" stroke="#0d1117" stroke-width="2" class="data-point"/>
  
    <circle cx="276.52542372881356" cy="310.03593458332057" r="4" fill="#3b82f6" stroke="#0d1117" stroke-width="2" class="data-point"/>
  
    <circle cx="279.49152542372883" cy="309.54504719146314" r="4" fill="#3b82f6" stroke="#0d1117" stroke-width="2" class="data-point"/>
  
    <circle cx="282.45762711864404" cy="309.0317334720589" r="4" fill="#3b82f6" stroke="#0d1117" stroke-width="2" class="data-point"/>
  
    <circle cx="285.4237288135593" cy="308.58196101403723" r="4" fill="#3b82f6" stroke="#0d1117" stroke-width="2" class="data-point"/>
  
    <circle cx="288.3898305084746" cy="308.19697572448405" r="4" fill="#3b82f6" stroke="#0d1117" stroke-width="2" class="data-point"/>
  
    <circle cx="291.35593220338984" cy="307.77461322235285" r="4" fill="#3b82f6" stroke="#0d1117" stroke-width="2" class="data-point"/>
  
    <circle cx="294.3220338983051" cy="307.3173653218156" r="4" fill="#3b82f6" stroke="#0d1117" stroke-width="2" class="data-point"/>
  
    <circle cx="297.2881355932203" cy="306.8937569125985" r="4" fill="#3b82f6" stroke="#0d1117" stroke-width="2" class="data-point"/>
  
    <circle cx="300.2542372881356" cy="306.34182007353036" r="4" fill="#3b82f6" stroke="#0d1117" stroke-width="2" class="data-point"/>
  
    <circle cx="303.22033898305085" cy="305.86712947379004" r="4" fill="#3b82f6" stroke="#0d1117" stroke-width="2" class="data-point"/>
  
    <circle cx="306.1864406779661" cy="305.4098815732528" r="4" fill="#3b82f6" stroke="#0d1117" stroke-width="2" class="data-point"/>
  
    <circle cx="309.1525423728814" cy="305.0298799120433" r="4" fill="#3b82f6" stroke="#0d1117" stroke-width="2" class="data-point"/>
  
    <circle cx="312.1186440677966" cy="304.66109141460726" r="4" fill="#3b82f6" stroke="#0d1117" stroke-width="2" class="data-point"/>
  
    <circle cx="315.0847457627118" cy="304.2910570100853" r="4" fill="#3b82f6" stroke="#0d1117" stroke-width="2" class="data-point"/>
  
    <circle cx="318.0508474576271" cy="303.8487599945792" r="4" fill="#3b82f6" stroke="#0d1117" stroke-width="2" class="data-point"/>
  
    <circle cx="321.0169491525424" cy="303.3940039082138" r="4" fill="#3b82f6" stroke="#0d1117" stroke-width="2" class="data-point"/>
  
    <circle cx="323.9830508474576" cy="302.8420670691456" r="4" fill="#3b82f6" stroke="#0d1117" stroke-width="2" class="data-point"/>
  
    <circle cx="326.9491525423729" cy="302.3947864252958" r="4" fill="#3b82f6" stroke="#0d1117" stroke-width="2" class="data-point"/>
  
    <circle cx="329.91525423728814" cy="302.0297356491176" r="4" fill="#3b82f6" stroke="#0d1117" stroke-width="2" class="data-point"/>
  
    <circle cx="332.8813559322034" cy="301.6547176162519" r="4" fill="#3b82f6" stroke="#0d1117" stroke-width="2" class="data-point"/>
  
    <circle cx="335.8474576271187" cy="301.2958963755033" r="4" fill="#3b82f6" stroke="#0d1117" stroke-width="2" class="data-point"/>
  
    <circle cx="338.8135593220339" cy="300.8523534529113" r="4" fill="#3b82f6" stroke="#0d1117" stroke-width="2" class="data-point"/>
  
    <circle cx="341.77966101694915" cy="300.3975973665459" r="4" fill="#3b82f6" stroke="#0d1117" stroke-width="2" class="data-point"/>
  
    <circle cx="344.7457627118644" cy="299.39215034819824" r="4" fill="#3b82f6" stroke="#0d1117" stroke-width="2" class="data-point"/>
  
    <circle cx="347.7118644067797" cy="297.39122356819047" r="4" fill="#3b82f6" stroke="#0d1117" stroke-width="2" class="data-point"/>
  
    <circle cx="350.6779661016949" cy="295.00780331280134" r="4" fill="#3b82f6" stroke="#0d1117" stroke-width="2" class="data-point"/>
  
    <circle cx="353.64406779661016" cy="292.8361872620208" r="4" fill="#3b82f6" stroke="#0d1117" stroke-width="2" class="data-point"/>
  
    <circle cx="356.6101694915254" cy="291.7348053980564" r="4" fill="#3b82f6" stroke="#0d1117" stroke-width="2" class="data-point"/>
  
    <circle cx="359.5762711864407" cy="290.0752571595941" r="4" fill="#3b82f6" stroke="#0d1117" stroke-width="2" class="data-point"/>
  
    <circle cx="362.54237288135596" cy="288.9726293885438" r="4" fill="#3b82f6" stroke="#0d1117" stroke-width="2" class="data-point"/>
  
    <circle cx="365.50847457627117" cy="288.00580548986005" r="4" fill="#3b82f6" stroke="#0d1117" stroke-width="2" class="data-point"/>
  
    <circle cx="368.47457627118644" cy="287.0601620116372" r="4" fill="#3b82f6" stroke="#0d1117" stroke-width="2" class="data-point"/>
  
    <circle cx="371.4406779661017" cy="286.16933844519536" r="4" fill="#3b82f6" stroke="#0d1117" stroke-width="2" class="data-point"/>
  
    <circle cx="374.40677966101697" cy="284.7838897656383" r="4" fill="#3b82f6" stroke="#0d1117" stroke-width="2" class="data-point"/>
  
    <circle cx="377.37288135593224" cy="283.6825079016739" r="4" fill="#3b82f6" stroke="#0d1117" stroke-width="2" class="data-point"/>
  
    <circle cx="380.33898305084745" cy="282.27463289457" r="4" fill="#3b82f6" stroke="#0d1117" stroke-width="2" class="data-point"/>
  
    <circle cx="383.3050847457627" cy="281.9868283577196" r="4" fill="#3b82f6" stroke="#0d1117" stroke-width="2" class="data-point"/>
  
    <circle cx="386.271186440678" cy="281.9494511451416" r="4" fill="#3b82f6" stroke="#0d1117" stroke-width="2" class="data-point"/>
  
    <circle cx="389.23728813559325" cy="281.90086076879027" r="4" fill="#3b82f6" stroke="#0d1117" stroke-width="2" class="data-point"/>
  
    <circle cx="392.20338983050846" cy="281.8597458349545" r="4" fill="#3b82f6" stroke="#0d1117" stroke-width="2" class="data-point"/>
  
    <circle cx="395.1694915254237" cy="281.80617183025936" r="4" fill="#3b82f6" stroke="#0d1117" stroke-width="2" class="data-point"/>
  
    <circle cx="398.135593220339" cy="281.7588273609939" r="4" fill="#3b82f6" stroke="#0d1117" stroke-width="2" class="data-point"/>
  
    <circle cx="401.1016949152542" cy="281.74013875470496" r="4" fill="#3b82f6" stroke="#0d1117" stroke-width="2" class="data-point"/>
  
    <circle cx="404.0677966101695" cy="281.67161386497867" r="4" fill="#3b82f6" stroke="#0d1117" stroke-width="2" class="data-point"/>
  
    <circle cx="407.03389830508473" cy="281.6055807894242" r="4" fill="#3b82f6" stroke="#0d1117" stroke-width="2" class="data-point"/>
  
    <circle cx="410" cy="281.5619740414166" r="4" fill="#3b82f6" stroke="#0d1117" stroke-width="2" class="data-point"/>
  
    <circle cx="412.96610169491527" cy="281.5457772492995" r="4" fill="#3b82f6" stroke="#0d1117" stroke-width="2" class="data-point"/>
  
    <circle cx="415.9322033898305" cy="281.4722687312294" r="4" fill="#3b82f6" stroke="#0d1117" stroke-width="2" class="data-point"/>
  
    <circle cx="418.89830508474574" cy="279.6657034566271" r="4" fill="#3b82f6" stroke="#0d1117" stroke-width="2" class="data-point"/>
  
    <circle cx="421.864406779661" cy="276.8362484644742" r="4" fill="#3b82f6" stroke="#0d1117" stroke-width="2" class="data-point"/>
  
    <circle cx="424.83050847457633" cy="274.94122378677065" r="4" fill="#3b82f6" stroke="#0d1117" stroke-width="2" class="data-point"/>
  
    <circle cx="427.79661016949154" cy="272.74095187301367" r="4" fill="#3b82f6" stroke="#0d1117" stroke-width="2" class="data-point"/>
  
    <circle cx="430.7627118644068" cy="270.4734009766163" r="4" fill="#3b82f6" stroke="#0d1117" stroke-width="2" class="data-point"/>
  
    <circle cx="433.728813559322" cy="268.6942456579045" r="4" fill="#3b82f6" stroke="#0d1117" stroke-width="2" class="data-point"/>
  
    <circle cx="436.6949152542373" cy="266.7045320416701" r="4" fill="#3b82f6" stroke="#0d1117" stroke-width="2" class="data-point"/>
  
    <circle cx="439.66101694915255" cy="263.6732401015961" r="4" fill="#3b82f6" stroke="#0d1117" stroke-width="2" class="data-point"/>
  
    <circle cx="442.62711864406776" cy="259.58791076682303" r="4" fill="#3b82f6" stroke="#0d1117" stroke-width="2" class="data-point"/>
  
    <circle cx="445.59322033898303" cy="256.92166960292724" r="4" fill="#3b82f6" stroke="#0d1117" stroke-width="2" class="data-point"/>
  
    <circle cx="448.5593220338983" cy="253.74834425505685" r="4" fill="#3b82f6" stroke="#0d1117" stroke-width="2" class="data-point"/>
  
    <circle cx="451.5254237288135" cy="250.2124599451801" r="4" fill="#3b82f6" stroke="#0d1117" stroke-width="2" class="data-point"/>
  
    <circle cx="454.49152542372883" cy="247.37677541759746" r="4" fill="#3b82f6" stroke="#0d1117" stroke-width="2" class="data-point"/>
  
    <circle cx="457.4576271186441" cy="244.2993849153439" r="4" fill="#3b82f6" stroke="#0d1117" stroke-width="2" class="data-point"/>
  
    <circle cx="460.42372881355936" cy="241.56960249006553" r="4" fill="#3b82f6" stroke="#0d1117" stroke-width="2" class="data-point"/>
  
    <circle cx="463.3898305084746" cy="238.86473820650582" r="4" fill="#3b82f6" stroke="#0d1117" stroke-width="2" class="data-point"/>
  
    <circle cx="466.35593220338984" cy="236.1673493654617" r="4" fill="#3b82f6" stroke="#0d1117" stroke-width="2" class="data-point"/>
  
    <circle cx="469.3220338983051" cy="232.49441527613237" r="4" fill="#3b82f6" stroke="#0d1117" stroke-width="2" class="data-point"/>
  
    <circle cx="472.2881355932203" cy="228.8102680230296" r="4" fill="#3b82f6" stroke="#0d1117" stroke-width="2" class="data-point"/>
  
    <circle cx="475.2542372881356" cy="225.7391070562057" r="4" fill="#3b82f6" stroke="#0d1117" stroke-width="2" class="data-point"/>
  
    <circle cx="478.2203389830508" cy="223.1650630166689" r="4" fill="#3b82f6" stroke="#0d1117" stroke-width="2" class="data-point"/>
  
    <circle cx="481.18644067796606" cy="220.66826521646" r="4" fill="#3b82f6" stroke="#0d1117" stroke-width="2" class="data-point"/>
  
    <circle cx="484.1525423728814" cy="217.35415236787918" r="4" fill="#3b82f6" stroke="#0d1117" stroke-width="2" class="data-point"/>
  
    <circle cx="487.11864406779665" cy="214.7838460496002" r="4" fill="#3b82f6" stroke="#0d1117" stroke-width="2" class="data-point"/>
  
    <circle cx="490.08474576271186" cy="212.24094968721175" r="4" fill="#3b82f6" stroke="#0d1117" stroke-width="2" class="data-point"/>
  
    <circle cx="493.0508474576271" cy="209.86251306016638" r="4" fill="#3b82f6" stroke="#0d1117" stroke-width="2" class="data-point"/>
  
    <circle cx="496.0169491525424" cy="207.62237211965953" r="4" fill="#3b82f6" stroke="#0d1117" stroke-width="2" class="data-point"/>
  
    <circle cx="498.9830508474576" cy="205.32741126737167" r="4" fill="#3b82f6" stroke="#0d1117" stroke-width="2" class="data-point"/>
  
    <circle cx="501.9491525423729" cy="203.3651076070278" r="4" fill="#3b82f6" stroke="#0d1117" stroke-width="2" class="data-point"/>
  
    <circle cx="504.91525423728814" cy="201.33303314987168" r="4" fill="#3b82f6" stroke="#0d1117" stroke-width="2" class="data-point"/>
  
    <circle cx="507.88135593220335" cy="199.2585978517939" r="4" fill="#3b82f6" stroke="#0d1117" stroke-width="2" class="data-point"/>
  
    <circle cx="510.8474576271186" cy="197.06580138055247" r="4" fill="#3b82f6" stroke="#0d1117" stroke-width="2" class="data-point"/>
  
    <circle cx="513.8135593220339" cy="195.0536614367713" r="4" fill="#3b82f6" stroke="#0d1117" stroke-width="2" class="data-point"/>
  
    <circle cx="516.7796610169491" cy="193.21096485667695" r="4" fill="#3b82f6" stroke="#0d1117" stroke-width="2" class="data-point"/>
  
    <circle cx="519.7457627118645" cy="189.87193386637756" r="4" fill="#3b82f6" stroke="#0d1117" stroke-width="2" class="data-point"/>
  
    <circle cx="522.7118644067797" cy="187.07736427263072" r="4" fill="#3b82f6" stroke="#0d1117" stroke-width="2" class="data-point"/>
  
    <circle cx="525.6779661016949" cy="184.39368040953184" r="4" fill="#3b82f6" stroke="#0d1117" stroke-width="2" class="data-point"/>
  
    <circle cx="528.6440677966102" cy="181.81589864873726" r="4" fill="#3b82f6" stroke="#0d1117" stroke-width="2" class="data-point"/>
  
    <circle cx="531.6101694915254" cy="177.7455201989954" r="4" fill="#3b82f6" stroke="#0d1117" stroke-width="2" class="data-point"/>
  
    <circle cx="534.5762711864406" cy="175.17023025237268" r="4" fill="#3b82f6" stroke="#0d1117" stroke-width="2" class="data-point"/>
  
    <circle cx="537.542372881356" cy="172.94130247563925" r="4" fill="#3b82f6" stroke="#0d1117" stroke-width="2" class="data-point"/>
  
    <circle cx="540.5084745762712" cy="170.30870080306363" r="4" fill="#3b82f6" stroke="#0d1117" stroke-width="2" class="data-point"/>
  
    <circle cx="543.4745762711865" cy="166.42770023038352" r="4" fill="#3b82f6" stroke="#0d1117" stroke-width="2" class="data-point"/>
  
    <circle cx="546.4406779661017" cy="163.63562245080854" r="4" fill="#3b82f6" stroke="#0d1117" stroke-width="2" class="data-point"/>
  
    <circle cx="549.406779661017" cy="161.278366244224" r="4" fill="#3b82f6" stroke="#0d1117" stroke-width="2" class="data-point"/>
  
    <circle cx="552.3728813559322" cy="159.2836689996459" r="4" fill="#3b82f6" stroke="#0d1117" stroke-width="2" class="data-point"/>
  
    <circle cx="555.3389830508474" cy="157.39113613611426" r="4" fill="#3b82f6" stroke="#0d1117" stroke-width="2" class="data-point"/>
  
    <circle cx="558.3050847457628" cy="155.85244088498746" r="4" fill="#3b82f6" stroke="#0d1117" stroke-width="2" class="data-point"/>
  
    <circle cx="561.271186440678" cy="154.1193841284552" r="4" fill="#3b82f6" stroke="#0d1117" stroke-width="2" class="data-point"/>
  
    <circle cx="564.2372881355932" cy="152.70652549300763" r="4" fill="#3b82f6" stroke="#0d1117" stroke-width="2" class="data-point"/>
  
    <circle cx="567.2033898305085" cy="151.03950181202978" r="4" fill="#3b82f6" stroke="#0d1117" stroke-width="2" class="data-point"/>
  
    <circle cx="570.1694915254236" cy="148.63988476452357" r="4" fill="#3b82f6" stroke="#0d1117" stroke-width="2" class="data-point"/>
  
    <circle cx="573.135593220339" cy="146.5779085373051" r="4" fill="#3b82f6" stroke="#0d1117" stroke-width="2" class="data-point"/>
  
    <circle cx="576.1016949152543" cy="144.78504824064805" r="4" fill="#3b82f6" stroke="#0d1117" stroke-width="2" class="data-point"/>
  
    <circle cx="579.0677966101695" cy="143.23513982574786" r="4" fill="#3b82f6" stroke="#0d1117" stroke-width="2" class="data-point"/>
  
    <circle cx="582.0338983050848" cy="141.6366410344963" r="4" fill="#3b82f6" stroke="#0d1117" stroke-width="2" class="data-point"/>
  
    <circle cx="585" cy="140.28856956751724" r="4" fill="#3b82f6" stroke="#0d1117" stroke-width="2" class="data-point"/>
  
    <circle cx="587.9661016949152" cy="138.0222645782058" r="4" fill="#3b82f6" stroke="#0d1117" stroke-width="2" class="data-point"/>
  
    <circle cx="590.9322033898305" cy="136.0848790595806" r="4" fill="#3b82f6" stroke="#0d1117" stroke-width="2" class="data-point"/>
  
    <circle cx="593.8983050847457" cy="134.16369033307248" r="4" fill="#3b82f6" stroke="#0d1117" stroke-width="2" class="data-point"/>
  
    <circle cx="596.864406779661" cy="132.57765061268026" r="4" fill="#3b82f6" stroke="#0d1117" stroke-width="2" class="data-point"/>
  
    <circle cx="599.8305084745763" cy="131.12243113631098" r="4" fill="#3b82f6" stroke="#0d1117" stroke-width="2" class="data-point"/>
  
    <circle cx="602.7966101694916" cy="129.83042548819887" r="4" fill="#3b82f6" stroke="#0d1117" stroke-width="2" class="data-point"/>
  
    <circle cx="605.7627118644068" cy="127.61520268941067" r="4" fill="#3b82f6" stroke="#0d1117" stroke-width="2" class="data-point"/>
  
    <circle cx="608.728813559322" cy="125.81611285732399" r="4" fill="#3b82f6" stroke="#0d1117" stroke-width="2" class="data-point"/>
  
    <circle cx="611.6949152542373" cy="124.17649913223664" r="4" fill="#3b82f6" stroke="#0d1117" stroke-width="2" class="data-point"/>
  
    <circle cx="614.6610169491526" cy="122.61039392521934" r="4" fill="#3b82f6" stroke="#0d1117" stroke-width="2" class="data-point"/>
  
    <circle cx="617.6271186440678" cy="121.24363385195127" r="4" fill="#3b82f6" stroke="#0d1117" stroke-width="2" class="data-point"/>
  
    <circle cx="620.5932203389831" cy="119.91674280543305" r="4" fill="#3b82f6" stroke="#0d1117" stroke-width="2" class="data-point"/>
  
    <circle cx="623.5593220338983" cy="118.70073748956278" r="4" fill="#3b82f6" stroke="#0d1117" stroke-width="2" class="data-point"/>
  
    <circle cx="626.5254237288135" cy="117.5345684571299" r="4" fill="#3b82f6" stroke="#0d1117" stroke-width="2" class="data-point"/>
  
    <circle cx="629.4915254237288" cy="116.46558017739969" r="4" fill="#3b82f6" stroke="#0d1117" stroke-width="2" class="data-point"/>
  
    <circle cx="632.457627118644" cy="115.13121368836585" r="4" fill="#3b82f6" stroke="#0d1117" stroke-width="2" class="data-point"/>
  
    <circle cx="635.4237288135594" cy="113.69842053954335" r="4" fill="#3b82f6" stroke="#0d1117" stroke-width="2" class="data-point"/>
  
    <circle cx="638.3898305084746" cy="112.38025084262665" r="4" fill="#3b82f6" stroke="#0d1117" stroke-width="2" class="data-point"/>
  
    <circle cx="641.3559322033898" cy="110.33197959335342" r="4" fill="#3b82f6" stroke="#0d1117" stroke-width="2" class="data-point"/>
  
    <circle cx="644.3220338983051" cy="108.8456124398358" r="4" fill="#3b82f6" stroke="#0d1117" stroke-width="2" class="data-point"/>
  
    <circle cx="647.2881355932203" cy="107.4240324547867" r="4" fill="#3b82f6" stroke="#0d1117" stroke-width="2" class="data-point"/>
  
    <circle cx="650.2542372881355" cy="106.17687946176815" r="4" fill="#3b82f6" stroke="#0d1117" stroke-width="2" class="data-point"/>
  
    <circle cx="653.2203389830509" cy="104.71418454288323" r="4" fill="#3b82f6" stroke="#0d1117" stroke-width="2" class="data-point"/>
  
    <circle cx="656.1864406779661" cy="102.91758652496841" r="4" fill="#3b82f6" stroke="#0d1117" stroke-width="2" class="data-point"/>
  
    <circle cx="659.1525423728814" cy="101.32531726914652" r="4" fill="#3b82f6" stroke="#0d1117" stroke-width="2" class="data-point"/>
  
    <circle cx="662.1186440677966" cy="99.90373728409742" r="4" fill="#3b82f6" stroke="#0d1117" stroke-width="2" class="data-point"/>
  
    <circle cx="665.0847457627119" cy="98.3600584046269" r="4" fill="#3b82f6" stroke="#0d1117" stroke-width="2" class="data-point"/>
  
    <circle cx="668.0508474576271" cy="96.23080319476807" r="4" fill="#3b82f6" stroke="#0d1117" stroke-width="2" class="data-point"/>
  
    <circle cx="671.0169491525423" cy="94.4827955532046" r="4" fill="#3b82f6" stroke="#0d1117" stroke-width="2" class="data-point"/>
  
    <circle cx="673.9830508474577" cy="92.60770538887601" r="4" fill="#3b82f6" stroke="#0d1117" stroke-width="2" class="data-point"/>
  
    <circle cx="676.9491525423729" cy="90.7388447599771" r="4" fill="#3b82f6" stroke="#0d1117" stroke-width="2" class="data-point"/>
  
    <circle cx="679.9152542372881" cy="88.99831256092921" r="4" fill="#3b82f6" stroke="#0d1117" stroke-width="2" class="data-point"/>
  
    <circle cx="682.8813559322034" cy="87.29017394611563" r="4" fill="#3b82f6" stroke="#0d1117" stroke-width="2" class="data-point"/>
  
    <circle cx="685.8474576271186" cy="85.48236276442736" r="4" fill="#3b82f6" stroke="#0d1117" stroke-width="2" class="data-point"/>
  
    <circle cx="688.8135593220339" cy="83.86143764562905" r="4" fill="#3b82f6" stroke="#0d1117" stroke-width="2" class="data-point"/>
  
    <circle cx="691.7796610169491" cy="82.44110356766583" r="4" fill="#3b82f6" stroke="#0d1117" stroke-width="2" class="data-point"/>
  
    <circle cx="694.7457627118645" cy="81.12542568492103" r="4" fill="#3b82f6" stroke="#0d1117" stroke-width="2" class="data-point"/>
  
    <circle cx="697.7118644067797" cy="79.73374746993431" r="4" fill="#3b82f6" stroke="#0d1117" stroke-width="2" class="data-point"/>
  
    <circle cx="700.6779661016949" cy="78.37570874626772" r="4" fill="#3b82f6" stroke="#0d1117" stroke-width="2" class="data-point"/>
  
    <circle cx="703.6440677966102" cy="77.1484902666241" r="4" fill="#3b82f6" stroke="#0d1117" stroke-width="2" class="data-point"/>
  
    <circle cx="706.6101694915254" cy="75.91877997280864" r="4" fill="#3b82f6" stroke="#0d1117" stroke-width="2" class="data-point"/>
  
    <circle cx="709.5762711864406" cy="74.7413977766023" r="4" fill="#3b82f6" stroke="#0d1117" stroke-width="2" class="data-point"/>
  
    <circle cx="712.542372881356" cy="73.57149102291157" r="4" fill="#3b82f6" stroke="#0d1117" stroke-width="2" class="data-point"/>
  
    <circle cx="715.5084745762712" cy="72.40407608339274" r="4" fill="#3b82f6" stroke="#0d1117" stroke-width="2" class="data-point"/>
  
    <circle cx="718.4745762711865" cy="71.37371092332643" r="4" fill="#3b82f6" stroke="#0d1117" stroke-width="2" class="data-point"/>
  
    <circle cx="721.4406779661017" cy="70.17514830665925" r="4" fill="#3b82f6" stroke="#0d1117" stroke-width="2" class="data-point"/>
  
    <circle cx="724.4067796610169" cy="68.93920847741413" r="4" fill="#3b82f6" stroke="#0d1117" stroke-width="2" class="data-point"/>
  
    <circle cx="727.3728813559322" cy="67.53133347031024" r="4" fill="#3b82f6" stroke="#0d1117" stroke-width="2" class="data-point"/>
  
    <circle cx="730.3389830508474" cy="66.17454065372965" r="4" fill="#3b82f6" stroke="#0d1117" stroke-width="2" class="data-point"/>
  
    <circle cx="733.3050847457627" cy="64.95978124494536" r="4" fill="#3b82f6" stroke="#0d1117" stroke-width="2" class="data-point"/>
  
    <circle cx="736.271186440678" cy="63.89328477938699" r="4" fill="#3b82f6" stroke="#0d1117" stroke-width="2" class="data-point"/>
  
    <circle cx="739.2372881355932" cy="62.7931488225085" r="4" fill="#3b82f6" stroke="#0d1117" stroke-width="2" class="data-point"/>
  
    <circle cx="742.2033898305084" cy="61.79393133959053" r="4" fill="#3b82f6" stroke="#0d1117" stroke-width="2" class="data-point"/>
  
    <circle cx="745.1694915254237" cy="60.64022137801692" r="4" fill="#3b82f6" stroke="#0d1117" stroke-width="2" class="data-point"/>
  
    <circle cx="748.135593220339" cy="59.508937743990145" r="4" fill="#3b82f6" stroke="#0d1117" stroke-width="2" class="data-point"/>
  
    <circle cx="751.1016949152543" cy="58.426244486314715" r="4" fill="#3b82f6" stroke="#0d1117" stroke-width="2" class="data-point"/>
  
    <circle cx="754.0677966101695" cy="57.32486262235028" r="4" fill="#3b82f6" stroke="#0d1117" stroke-width="2" class="data-point"/>
  
    <circle cx="757.0338983050848" cy="56.14249679780022" r="4" fill="#3b82f6" stroke="#0d1117" stroke-width="2" class="data-point"/>
  
    <circle cx="760" cy="55" r="4" fill="#3b82f6" stroke="#0d1117" stroke-width="2" class="data-point"/>
  

  <!-- Axis lines -->
  <line x1="60" y1="55" x2="60" y2="340"
        stroke="#30363d" stroke-width="2"/>
  <line x1="60" y1="340" x2="760" y2="340"
        stroke="#30363d" stroke-width="2"/>
</svg>