<?xml version="1.0" encoding="UTF-8"?>
<svg width="800" height="400" xmlns="http://www.w3.org/2000/svg">
  <defs>
    <!-- Gradient for area fill -->
    <linearGradient id="areaGradient" x1="0%" y1="0%" x2="0%" y2="100%">
      <stop offset="0%" style="stop-color:#3b82f6;stop-opacity:0.3" />
      <stop offset="100%" style="stop-color:#3b82f6;stop-opacity:0.05" />
    </linearGradient>

    <!-- Glow filter for line -->
    <filter id="glow">
      <feGaussianBlur stdDeviation="2" result="coloredBlur"/>
      <feMerge>
        <feMergeNode in="coloredBlur"/>
        <feMergeNode in="SourceGraphic"/>
      </feMerge>
    </filter>

    <!-- Animation -->
    <style>
      @keyframes draw {
        from { stroke-dashoffset: 2000; }
        to { stroke-dashoffset: 0; }
      }
      @keyframes fadeIn {
        from { opacity: 0; }
        to { opacity: 1; }
      }
      .line-path {
        stroke-dasharray: 2000;
        stroke-dashoffset: 2000;
        animation: draw 1.5s ease-out forwards;
      }
      .area-path {
        opacity: 0;
        animation: fadeIn 1s ease-out 0.5s forwards;
      }
      .data-point {
        opacity: 0;
        animation: fadeIn 0.5s ease-out 1s forwards;
      }
    </style>
  </defs>

  <!-- Background -->
  <rect width="800" height="400" fill="#0d1117" rx="8"/>

  <!-- Title -->
  <text x="400" y="25" text-anchor="middle" fill="#c9d1d9" font-family="system-ui, -apple-system, sans-serif" font-size="16" font-weight="600">
    zxcloli666/SoundCloud-Desktop Downloads
  </text>

  <!-- Stats -->
  <text x="780" y="25" text-anchor="end" fill="#58a6ff" font-family="system-ui, -apple-system, sans-serif" font-size="14" font-weight="600">
    190.4K total
  </text>
  <text x="780" y="42" text-anchor="end" fill="#3fb950" font-family="system-ui, -apple-system, sans-serif" font-size="12">
    +3.3K (+1.7%)
  </text>

  <!-- Grid lines -->
  <g opacity="0.1">
    
      <line x1="60" y1="340" x2="760" y2="340"
            stroke="#c9d1d9" stroke-width="1"/>
    
      <line x1="60" y1="268.75" x2="760" y2="268.75"
            stroke="#c9d1d9" stroke-width="1"/>
    
      <line x1="60" y1="197.5" x2="760" y2="197.5"
            stroke="#c9d1d9" stroke-width="1"/>
    
      <line x1="60" y1="126.25" x2="760" y2="126.25"
            stroke="#c9d1d9" stroke-width="1"/>
    
      <line x1="60" y1="55" x2="760" y2="55"
            stroke="#c9d1d9" stroke-width="1"/>
    
  </g>

  <!-- Y-axis labels -->
  
    <text x="50" y="344" text-anchor="end"
          fill="#8b949e" font-family="system-ui, -apple-system, sans-serif" font-size="11">
      60.2K
    </text>
  
    <text x="50" y="272.75" text-anchor="end"
          fill="#8b949e" font-family="system-ui, -apple-system, sans-serif" font-size="11">
      92.7K
    </text>
  
    <text x="50" y="201.5" text-anchor="end"
          fill="#8b949e" font-family="system-ui, -apple-system, sans-serif" font-size="11">
      125.3K
    </text>
  
    <text x="50" y="130.25" text-anchor="end"
          fill="#8b949e" font-family="system-ui, -apple-system, sans-serif" font-size="11">
      157.8K
    </text>
  
    <text x="50" y="59" text-anchor="end"
          fill="#8b949e" font-family="system-ui, -apple-system, sans-serif" font-size="11">
      190.4K
    </text>
  

  <!-- X-axis labels -->
  
    <text x="60" y="360" text-anchor="middle"
          fill="#8b949e" font-family="system-ui, -apple-system, sans-serif" font-size="11">
      Nov 25
    </text>
  
    <text x="148.0503144654088" y="360" text-anchor="middle"
          fill="#8b949e" font-family="system-ui, -apple-system, sans-serif" font-size="11">
      Dec 15
    </text>
  
    <text x="236.1006289308176" y="360" text-anchor="middle"
          fill="#8b949e" font-family="system-ui, -apple-system, sans-serif" font-size="11">
      Jan 4
    </text>
  
    <text x="324.1509433962264" y="360" text-anchor="middle"
          fill="#8b949e" font-family="system-ui, -apple-system, sans-serif" font-size="11">
      Jan 24
    </text>
  
    <text x="412.2012578616352" y="360" text-anchor="middle"
          fill="#8b949e" font-family="system-ui, -apple-system, sans-serif" font-size="11">
      Feb 13
    </text>
  
    <text x="500.251572327044" y="360" text-anchor="middle"
          fill="#8b949e" font-family="system-ui, -apple-system, sans-serif" font-size="11">
      Mar 5
    </text>
  
    <text x="588.3018867924528" y="360" text-anchor="middle"
          fill="#8b949e" font-family="system-ui, -apple-system, sans-serif" font-size="11">
      Mar 25
    </text>
  
    <text x="676.3522012578617" y="360" text-anchor="middle"
          fill="#8b949e" font-family="system-ui, -apple-system, sans-serif" font-size="11">
      Apr 14
    </text>
  
    <text x="760" y="360" text-anchor="middle"
          fill="#8b949e" font-family="system-ui, -apple-system, sans-serif" font-size="11">
      May 3
    </text>
  

  <!-- Area under line -->
  <path d="M 60 340
    L 60.00 340.00 L 64.40 339.68 L 68.81 339.13 L 73.21 338.62 L 77.61 337.61 L 82.01 336.57 L 86.42 335.75 L 90.82 334.99 L 95.22 334.31 L 99.62 333.51 L 104.03 332.62 L 108.43 331.66 L 112.83 330.80 L 117.23 329.87 L 121.64 329.20 L 126.04 328.51 L 130.44 327.56 L 134.84 326.93 L 139.25 326.05 L 143.65 325.04 L 148.05 324.28 L 152.45 323.65 L 156.86 323.25 L 161.26 322.91 L 165.66 322.29 L 170.06 321.84 L 174.47 320.87 L 178.87 320.49 L 183.27 319.99 L 187.67 319.35 L 192.08 318.92 L 196.48 318.47 L 200.88 318.01 L 205.28 317.68 L 209.69 317.40 L 214.09 316.98 L 218.49 316.46 L 222.89 315.98 L 227.30 315.38 L 231.70 314.72 L 236.10 314.11 L 240.50 313.38 L 244.91 312.67 L 249.31 311.95 L 253.71 311.17 L 258.11 310.42 L 262.52 309.57 L 266.92 308.80 L 271.32 308.16 L 275.72 307.64 L 280.13 306.92 L 284.53 306.09 L 288.93 305.34 L 293.33 304.46 L 297.74 303.37 L 302.14 302.56 L 306.54 301.89 L 310.94 301.25 L 315.35 300.48 L 319.75 299.59 L 324.15 298.60 L 328.55 297.56 L 332.96 296.56 L 337.36 295.68 L 341.76 294.81 L 346.16 294.04 L 350.57 293.26 L 354.97 292.38 L 359.37 291.29 L 363.77 290.48 L 368.18 289.76 L 372.58 288.95 L 376.98 288.20 L 381.38 287.37 L 385.79 286.51 L 390.19 285.60 L 394.59 284.81 L 398.99 284.14 L 403.40 283.40 L 407.80 282.59 L 412.20 281.85 L 416.60 280.88 L 421.01 280.05 L 425.41 279.24 L 429.81 278.57 L 434.21 277.93 L 438.62 277.28 L 443.02 276.50 L 447.42 275.70 L 451.82 274.73 L 456.23 273.95 L 460.63 273.31 L 465.03 272.65 L 469.43 272.02 L 473.84 271.24 L 478.24 270.44 L 482.64 268.67 L 487.04 265.16 L 491.45 260.97 L 495.85 257.16 L 500.25 255.22 L 504.65 252.31 L 509.06 250.37 L 513.46 248.67 L 517.86 247.01 L 522.26 245.45 L 526.67 243.01 L 531.07 241.08 L 535.47 238.61 L 539.87 238.10 L 544.28 238.03 L 548.68 237.95 L 553.08 237.88 L 557.48 237.78 L 561.89 237.70 L 566.29 237.67 L 570.69 237.55 L 575.09 237.43 L 579.50 237.35 L 583.90 237.33 L 588.30 237.20 L 592.70 234.02 L 597.11 229.05 L 601.51 225.72 L 605.91 221.86 L 610.31 217.88 L 614.72 214.75 L 619.12 211.26 L 623.52 205.93 L 627.92 198.76 L 632.33 194.07 L 636.73 188.50 L 641.13 182.29 L 645.53 177.31 L 649.94 171.90 L 654.34 167.11 L 658.74 162.36 L 663.14 157.62 L 667.55 151.17 L 671.95 144.70 L 676.35 139.30 L 680.75 134.78 L 685.16 130.39 L 689.56 124.57 L 693.96 120.06 L 698.36 115.59 L 702.77 111.41 L 707.17 107.48 L 711.57 103.45 L 715.97 100.00 L 720.38 96.43 L 724.78 92.79 L 729.18 88.94 L 733.58 85.40 L 737.99 82.17 L 742.39 76.30 L 746.79 71.39 L 751.19 66.68 L 755.60 62.15 L 760.00 55.00
    L 760 340
    Z" fill="url(#areaGradient)" class="area-path"/>

  <!-- Main line with glow -->
  <path d="M 60.00 340.00 L 64.40 339.68 L 68.81 339.13 L 73.21 338.62 L 77.61 337.61 L 82.01 336.57 L 86.42 335.75 L 90.82 334.99 L 95.22 334.31 L 99.62 333.51 L 104.03 332.62 L 108.43 331.66 L 112.83 330.80 L 117.23 329.87 L 121.64 329.20 L 126.04 328.51 L 130.44 327.56 L 134.84 326.93 L 139.25 326.05 L 143.65 325.04 L 148.05 324.28 L 152.45 323.65 L 156.86 323.25 L 161.26 322.91 L 165.66 322.29 L 170.06 321.84 L 174.47 320.87 L 178.87 320.49 L 183.27 319.99 L 187.67 319.35 L 192.08 318.92 L 196.48 318.47 L 200.88 318.01 L 205.28 317.68 L 209.69 317.40 L 214.09 316.98 L 218.49 316.46 L 222.89 315.98 L 227.30 315.38 L 231.70 314.72 L 236.10 314.11 L 240.50 313.38 L 244.91 312.67 L 249.31 311.95 L 253.71 311.17 L 258.11 310.42 L 262.52 309.57 L 266.92 308.80 L 271.32 308.16 L 275.72 307.64 L 280.13 306.92 L 284.53 306.09 L 288.93 305.34 L 293.33 304.46 L 297.74 303.37 L 302.14 302.56 L 306.54 301.89 L 310.94 301.25 L 315.35 300.48 L 319.75 299.59 L 324.15 298.60 L 328.55 297.56 L 332.96 296.56 L 337.36 295.68 L 341.76 294.81 L 346.16 294.04 L 350.57 293.26 L 354.97 292.38 L 359.37 291.29 L 363.77 290.48 L 368.18 289.76 L 372.58 288.95 L 376.98 288.20 L 381.38 287.37 L 385.79 286.51 L 390.19 285.60 L 394.59 284.81 L 398.99 284.14 L 403.40 283.40 L 407.80 282.59 L 412.20 281.85 L 416.60 280.88 L 421.01 280.05 L 425.41 279.24 L 429.81 278.57 L 434.21 277.93 L 438.62 277.28 L 443.02 276.50 L 447.42 275.70 L 451.82 274.73 L 456.23 273.95 L 460.63 273.31 L 465.03 272.65 L 469.43 272.02 L 473.84 271.24 L 478.24 270.44 L 482.64 268.67 L 487.04 265.16 L 491.45 260.97 L 495.85 257.16 L 500.25 255.22 L 504.65 252.31 L 509.06 250.37 L 513.46 248.67 L 517.86 247.01 L 522.26 245.45 L 526.67 243.01 L 531.07 241.08 L 535.47 238.61 L 539.87 238.10 L 544.28 238.03 L 548.68 237.95 L 553.08 237.88 L 557.48 237.78 L 561.89 237.70 L 566.29 237.67 L 570.69 237.55 L 575.09 237.43 L 579.50 237.35 L 583.90 237.33 L 588.30 237.20 L 592.70 234.02 L 597.11 229.05 L 601.51 225.72 L 605.91 221.86 L 610.31 217.88 L 614.72 214.75 L 619.12 211.26 L 623.52 205.93 L 627.92 198.76 L 632.33 194.07 L 636.73 188.50 L 641.13 182.29 L 645.53 177.31 L 649.94 171.90 L 654.34 167.11 L 658.74 162.36 L 663.14 157.62 L 667.55 151.17 L 671.95 144.70 L 676.35 139.30 L 680.75 134.78 L 685.16 130.39 L 689.56 124.57 L 693.96 120.06 L 698.36 115.59 L 702.77 111.41 L 707.17 107.48 L 711.57 103.45 L 715.97 100.00 L 720.38 96.43 L 724.78 92.79 L 729.18 88.94 L 733.58 85.40 L 737.99 82.17 L 742.39 76.30 L 746.79 71.39 L 751.19 66.68 L 755.60 62.15 L 760.00 55.00" fill="none" stroke="#3b82f6" stroke-width="3"
        stroke-linecap="round" stroke-linejoin="round" filter="url(#glow)" class="line-path"/>

  <!-- Data points -->
  
    <circle cx="60" cy="340" r="4" fill="#3b82f6" stroke="#0d1117" stroke-width="2" class="data-point"/>
  
    <circle cx="64.40251572327044" cy="339.6782999308915" r="4" fill="#3b82f6" stroke="#0d1117" stroke-width="2" class="data-point"/>
  
    <circle cx="68.80503144654088" cy="339.1311909698226" r="4" fill="#3b82f6" stroke="#0d1117" stroke-width="2" class="data-point"/>
  
    <circle cx="73.20754716981132" cy="338.6234738539507" r="4" fill="#3b82f6" stroke="#0d1117" stroke-width="2" class="data-point"/>
  
    <circle cx="77.61006289308176" cy="337.6146049297397" r="4" fill="#3b82f6" stroke="#0d1117" stroke-width="2" class="data-point"/>
  
    <circle cx="82.0125786163522" cy="336.5729094678645" r="4" fill="#3b82f6" stroke="#0d1117" stroke-width="2" class="data-point"/>
  
    <circle cx="86.41509433962264" cy="335.7522460262612" r="4" fill="#3b82f6" stroke="#0d1117" stroke-width="2" class="data-point"/>
  
    <circle cx="90.81761006289308" cy="334.9862934807648" r="4" fill="#3b82f6" stroke="#0d1117" stroke-width="2" class="data-point"/>
  
    <circle cx="95.22012578616352" cy="334.30568993319514" r="4" fill="#3b82f6" stroke="#0d1117" stroke-width="2" class="data-point"/>
  
    <circle cx="99.62264150943396" cy="333.50691085003456" r="4" fill="#3b82f6" stroke="#0d1117" stroke-width="2" class="data-point"/>
  
    <circle cx="104.0251572327044" cy="332.6162174614144" r="4" fill="#3b82f6" stroke="#0d1117" stroke-width="2" class="data-point"/>
  
    <circle cx="108.42767295597484" cy="331.6620594333103" r="4" fill="#3b82f6" stroke="#0d1117" stroke-width="2" class="data-point"/>
  
    <circle cx="112.83018867924528" cy="330.7954388389772" r="4" fill="#3b82f6" stroke="#0d1117" stroke-width="2" class="data-point"/>
  
    <circle cx="117.23270440251572" cy="329.8741073485372" r="4" fill="#3b82f6" stroke="#0d1117" stroke-width="2" class="data-point"/>
  
    <circle cx="121.63522012578616" cy="329.2022575443446" r="4" fill="#3b82f6" stroke="#0d1117" stroke-width="2" class="data-point"/>
  
    <circle cx="126.0377358490566" cy="328.50633494586504" r="4" fill="#3b82f6" stroke="#0d1117" stroke-width="2" class="data-point"/>
  
    <circle cx="130.44025157232704" cy="327.560930661138" r="4" fill="#3b82f6" stroke="#0d1117" stroke-width="2" class="data-point"/>
  
    <circle cx="134.84276729559747" cy="326.92847270214236" r="4" fill="#3b82f6" stroke="#0d1117" stroke-width="2" class="data-point"/>
  
    <circle cx="139.24528301886792" cy="326.0530983644322" r="4" fill="#3b82f6" stroke="#0d1117" stroke-width="2" class="data-point"/>
  
    <circle cx="143.64779874213838" cy="325.04204100437687" r="4" fill="#3b82f6" stroke="#0d1117" stroke-width="2" class="data-point"/>
  
    <circle cx="148.0503144654088" cy="324.280465330569" r="4" fill="#3b82f6" stroke="#0d1117" stroke-width="2" class="data-point"/>
  
    <circle cx="152.45283018867923" cy="323.6545726791062" r="4" fill="#3b82f6" stroke="#0d1117" stroke-width="2" class="data-point"/>
  
    <circle cx="156.85534591194968" cy="323.24971204791524" r="4" fill="#3b82f6" stroke="#0d1117" stroke-width="2" class="data-point"/>
  
    <circle cx="161.25786163522014" cy="322.9126929278968" r="4" fill="#3b82f6" stroke="#0d1117" stroke-width="2" class="data-point"/>
  
    <circle cx="165.66037735849056" cy="322.2889887122783" r="4" fill="#3b82f6" stroke="#0d1117" stroke-width="2" class="data-point"/>
  
    <circle cx="170.062893081761" cy="321.84473623589037" r="4" fill="#3b82f6" stroke="#0d1117" stroke-width="2" class="data-point"/>
  
    <circle cx="174.46540880503144" cy="320.87088228518775" r="4" fill="#3b82f6" stroke="#0d1117" stroke-width="2" class="data-point"/>
  
    <circle cx="178.8679245283019" cy="320.4879060124395" r="4" fill="#3b82f6" stroke="#0d1117" stroke-width="2" class="data-point"/>
  
    <circle cx="183.27044025157232" cy="319.9933195116333" r="4" fill="#3b82f6" stroke="#0d1117" stroke-width="2" class="data-point"/>
  
    <circle cx="187.67295597484275" cy="319.3542962451048" r="4" fill="#3b82f6" stroke="#0d1117" stroke-width="2" class="data-point"/>
  
    <circle cx="192.0754716981132" cy="318.9166090762497" r="4" fill="#3b82f6" stroke="#0d1117" stroke-width="2" class="data-point"/>
  
    <circle cx="196.47798742138366" cy="318.47235659986177" r="4" fill="#3b82f6" stroke="#0d1117" stroke-width="2" class="data-point"/>
  
    <circle cx="200.88050314465409" cy="318.0062197650311" r="4" fill="#3b82f6" stroke="#0d1117" stroke-width="2" class="data-point"/>
  
    <circle cx="205.28301886792454" cy="317.68233126007834" r="4" fill="#3b82f6" stroke="#0d1117" stroke-width="2" class="data-point"/>
  
    <circle cx="209.68553459119497" cy="317.40221147201106" r="4" fill="#3b82f6" stroke="#0d1117" stroke-width="2" class="data-point"/>
  
    <circle cx="214.08805031446542" cy="316.9754664823773" r="4" fill="#3b82f6" stroke="#0d1117" stroke-width="2" class="data-point"/>
  
    <circle cx="218.49056603773585" cy="316.456807187284" r="4" fill="#3b82f6" stroke="#0d1117" stroke-width="2" class="data-point"/>
  
    <circle cx="222.8930817610063" cy="315.979728173232" r="4" fill="#3b82f6" stroke="#0d1117" stroke-width="2" class="data-point"/>
  
    <circle cx="227.29559748427673" cy="315.37571988021193" r="4" fill="#3b82f6" stroke="#0d1117" stroke-width="2" class="data-point"/>
  
    <circle cx="231.69811320754718" cy="314.717000691085" r="4" fill="#3b82f6" stroke="#0d1117" stroke-width="2" class="data-point"/>
  
    <circle cx="236.1006289308176" cy="314.112992398065" r="4" fill="#3b82f6" stroke="#0d1117" stroke-width="2" class="data-point"/>
  
    <circle cx="240.50314465408806" cy="313.3842432619212" r="4" fill="#3b82f6" stroke="#0d1117" stroke-width="2" class="data-point"/>
  
    <circle cx="244.9056603773585" cy="312.66862474084314" r="4" fill="#3b82f6" stroke="#0d1117" stroke-width="2" class="data-point"/>
  
    <circle cx="249.30817610062894" cy="311.95300621976503" r="4" fill="#3b82f6" stroke="#0d1117" stroke-width="2" class="data-point"/>
  
    <circle cx="253.71069182389937" cy="311.1695461875144" r="4" fill="#3b82f6" stroke="#0d1117" stroke-width="2" class="data-point"/>
  
    <circle cx="258.1132075471698" cy="310.4211011287722" r="4" fill="#3b82f6" stroke="#0d1117" stroke-width="2" class="data-point"/>
  
    <circle cx="262.5157232704403" cy="309.56542271366044" r="4" fill="#3b82f6" stroke="#0d1117" stroke-width="2" class="data-point"/>
  
    <circle cx="266.9182389937107" cy="308.8016586040083" r="4" fill="#3b82f6" stroke="#0d1117" stroke-width="2" class="data-point"/>
  
    <circle cx="271.3207547169811" cy="308.15607002994705" r="4" fill="#3b82f6" stroke="#0d1117" stroke-width="2" class="data-point"/>
  
    <circle cx="275.72327044025155" cy="307.639599170698" r="4" fill="#3b82f6" stroke="#0d1117" stroke-width="2" class="data-point"/>
  
    <circle cx="280.125786163522" cy="306.91741534208705" r="4" fill="#3b82f6" stroke="#0d1117" stroke-width="2" class="data-point"/>
  
    <circle cx="284.5283018867924" cy="306.09237502879523" r="4" fill="#3b82f6" stroke="#0d1117" stroke-width="2" class="data-point"/>
  
    <circle cx="288.9308176100629" cy="305.33736466252014" r="4" fill="#3b82f6" stroke="#0d1117" stroke-width="2" class="data-point"/>
  
    <circle cx="293.3333333333333" cy="304.45542501727715" r="4" fill="#3b82f6" stroke="#0d1117" stroke-width="2" class="data-point"/>
  
    <circle cx="297.7358490566038" cy="303.3677724026722" r="4" fill="#3b82f6" stroke="#0d1117" stroke-width="2" class="data-point"/>
  
    <circle cx="302.1383647798742" cy="302.5580511402903" r="4" fill="#3b82f6" stroke="#0d1117" stroke-width="2" class="data-point"/>
  
    <circle cx="306.54088050314465" cy="301.88620133609766" r="4" fill="#3b82f6" stroke="#0d1117" stroke-width="2" class="data-point"/>
  
    <circle cx="310.9433962264151" cy="301.2471780695692" r="4" fill="#3b82f6" stroke="#0d1117" stroke-width="2" class="data-point"/>
  
    <circle cx="315.3459119496855" cy="300.4790370882285" r="4" fill="#3b82f6" stroke="#0d1117" stroke-width="2" class="data-point"/>
  
    <circle cx="319.748427672956" cy="299.5861552637641" r="4" fill="#3b82f6" stroke="#0d1117" stroke-width="2" class="data-point"/>
  
    <circle cx="324.1509433962264" cy="298.5969822621516" r="4" fill="#3b82f6" stroke="#0d1117" stroke-width="2" class="data-point"/>
  
    <circle cx="328.5534591194969" cy="297.5574752361207" r="4" fill="#3b82f6" stroke="#0d1117" stroke-width="2" class="data-point"/>
  
    <circle cx="332.9559748427673" cy="296.55954849113107" r="4" fill="#3b82f6" stroke="#0d1117" stroke-width="2" class="data-point"/>
  
    <circle cx="337.35849056603774" cy="295.6819857175766" r="4" fill="#3b82f6" stroke="#0d1117" stroke-width="2" class="data-point"/>
  
    <circle cx="341.76100628930817" cy="294.81098825155493" r="4" fill="#3b82f6" stroke="#0d1117" stroke-width="2" class="data-point"/>
  
    <circle cx="346.16352201257865" cy="294.0428472702142" r="4" fill="#3b82f6" stroke="#0d1117" stroke-width="2" class="data-point"/>
  
    <circle cx="350.5660377358491" cy="293.2593872379636" r="4" fill="#3b82f6" stroke="#0d1117" stroke-width="2" class="data-point"/>
  
    <circle cx="354.9685534591195" cy="292.3840129002534" r="4" fill="#3b82f6" stroke="#0d1117" stroke-width="2" class="data-point"/>
  
    <circle cx="359.37106918238993" cy="291.2941718498042" r="4" fill="#3b82f6" stroke="#0d1117" stroke-width="2" class="data-point"/>
  
    <circle cx="363.7735849056604" cy="290.48226215157797" r="4" fill="#3b82f6" stroke="#0d1117" stroke-width="2" class="data-point"/>
  
    <circle cx="368.17610062893084" cy="289.7557014512785" r="4" fill="#3b82f6" stroke="#0d1117" stroke-width="2" class="data-point"/>
  
    <circle cx="372.57861635220127" cy="288.94816862474084" r="4" fill="#3b82f6" stroke="#0d1117" stroke-width="2" class="data-point"/>
  
    <circle cx="376.9811320754717" cy="288.19534669431005" r="4" fill="#3b82f6" stroke="#0d1117" stroke-width="2" class="data-point"/>
  
    <circle cx="381.3836477987421" cy="287.36811794517394" r="4" fill="#3b82f6" stroke="#0d1117" stroke-width="2" class="data-point"/>
  
    <circle cx="385.7861635220126" cy="286.50587422252937" r="4" fill="#3b82f6" stroke="#0d1117" stroke-width="2" class="data-point"/>
  
    <circle cx="390.188679245283" cy="285.60423865468783" r="4" fill="#3b82f6" stroke="#0d1117" stroke-width="2" class="data-point"/>
  
    <circle cx="394.59119496855345" cy="284.8142133149044" r="4" fill="#3b82f6" stroke="#0d1117" stroke-width="2" class="data-point"/>
  
    <circle cx="398.9937106918239" cy="284.13798663902327" r="4" fill="#3b82f6" stroke="#0d1117" stroke-width="2" class="data-point"/>
  
    <circle cx="403.39622641509436" cy="283.39610688781386" r="4" fill="#3b82f6" stroke="#0d1117" stroke-width="2" class="data-point"/>
  
    <circle cx="407.7987421383648" cy="282.59295093296475" r="4" fill="#3b82f6" stroke="#0d1117" stroke-width="2" class="data-point"/>
  
    <circle cx="412.2012578616352" cy="281.84888274591106" r="4" fill="#3b82f6" stroke="#0d1117" stroke-width="2" class="data-point"/>
  
    <circle cx="416.60377358490564" cy="280.879405666897" r="4" fill="#3b82f6" stroke="#0d1117" stroke-width="2" class="data-point"/>
  
    <circle cx="421.0062893081761" cy="280.0456116102281" r="4" fill="#3b82f6" stroke="#0d1117" stroke-width="2" class="data-point"/>
  
    <circle cx="425.40880503144655" cy="279.24245565537893" r="4" fill="#3b82f6" stroke="#0d1117" stroke-width="2" class="data-point"/>
  
    <circle cx="429.811320754717" cy="278.5749827228749" r="4" fill="#3b82f6" stroke="#0d1117" stroke-width="2" class="data-point"/>
  
    <circle cx="434.2138364779874" cy="277.92720571296934" r="4" fill="#3b82f6" stroke="#0d1117" stroke-width="2" class="data-point"/>
  
    <circle cx="438.6163522012579" cy="277.27724026721955" r="4" fill="#3b82f6" stroke="#0d1117" stroke-width="2" class="data-point"/>
  
    <circle cx="443.0188679245283" cy="276.50034554250175" r="4" fill="#3b82f6" stroke="#0d1117" stroke-width="2" class="data-point"/>
  
    <circle cx="447.42138364779873" cy="275.70156645934117" r="4" fill="#3b82f6" stroke="#0d1117" stroke-width="2" class="data-point"/>
  
    <circle cx="451.82389937106916" cy="274.7320893803271" r="4" fill="#3b82f6" stroke="#0d1117" stroke-width="2" class="data-point"/>
  
    <circle cx="456.2264150943396" cy="273.9464409122322" r="4" fill="#3b82f6" stroke="#0d1117" stroke-width="2" class="data-point"/>
  
    <circle cx="460.62893081761007" cy="273.3052292098595" r="4" fill="#3b82f6" stroke="#0d1117" stroke-width="2" class="data-point"/>
  
    <circle cx="465.0314465408805" cy="272.64651002073253" r="4" fill="#3b82f6" stroke="#0d1117" stroke-width="2" class="data-point"/>
  
    <circle cx="469.4339622641509" cy="272.0162404975812" r="4" fill="#3b82f6" stroke="#0d1117" stroke-width="2" class="data-point"/>
  
    <circle cx="473.83647798742135" cy="271.2371573370191" r="4" fill="#3b82f6" stroke="#0d1117" stroke-width="2" class="data-point"/>
  
    <circle cx="478.23899371069183" cy="270.43837825385856" r="4" fill="#3b82f6" stroke="#0d1117" stroke-width="2" class="data-point"/>
  
    <circle cx="482.64150943396226" cy="268.6723105275282" r="4" fill="#3b82f6" stroke="#0d1117" stroke-width="2" class="data-point"/>
  
    <circle cx="487.0440251572327" cy="265.15768256162175" r="4" fill="#3b82f6" stroke="#0d1117" stroke-width="2" class="data-point"/>
  
    <circle cx="491.4465408805031" cy="260.9712047915227" r="4" fill="#3b82f6" stroke="#0d1117" stroke-width="2" class="data-point"/>
  
    <circle cx="495.8490566037736" cy="257.1567611149505" r="4" fill="#3b82f6" stroke="#0d1117" stroke-width="2" class="data-point"/>
  
    <circle cx="500.251572327044" cy="255.22218382861092" r="4" fill="#3b82f6" stroke="#0d1117" stroke-width="2" class="data-point"/>
  
    <circle cx="504.65408805031444" cy="252.30718728403593" r="4" fill="#3b82f6" stroke="#0d1117" stroke-width="2" class="data-point"/>
  
    <circle cx="509.05660377358487" cy="250.3704215618521" r="4" fill="#3b82f6" stroke="#0d1117" stroke-width="2" class="data-point"/>
  
    <circle cx="513.4591194968554" cy="248.6721953466943" r="4" fill="#3b82f6" stroke="#0d1117" stroke-width="2" class="data-point"/>
  
    <circle cx="517.8616352201258" cy="247.0111725408892" r="4" fill="#3b82f6" stroke="#0d1117" stroke-width="2" class="data-point"/>
  
    <circle cx="522.2641509433962" cy="245.44644091223222" r="4" fill="#3b82f6" stroke="#0d1117" stroke-width="2" class="data-point"/>
  
    <circle cx="526.6666666666666" cy="243.01290025339785" r="4" fill="#3b82f6" stroke="#0d1117" stroke-width="2" class="data-point"/>
  
    <circle cx="531.069182389937" cy="241.07832296705828" r="4" fill="#3b82f6" stroke="#0d1117" stroke-width="2" class="data-point"/>
  
    <circle cx="535.4716981132076" cy="238.60539046302694" r="4" fill="#3b82f6" stroke="#0d1117" stroke-width="2" class="data-point"/>
  
    <circle cx="539.874213836478" cy="238.0998617829993" r="4" fill="#3b82f6" stroke="#0d1117" stroke-width="2" class="data-point"/>
  
    <circle cx="544.2767295597484" cy="238.03420870767104" r="4" fill="#3b82f6" stroke="#0d1117" stroke-width="2" class="data-point"/>
  
    <circle cx="548.6792452830189" cy="237.94885970974428" r="4" fill="#3b82f6" stroke="#0d1117" stroke-width="2" class="data-point"/>
  
    <circle cx="553.0817610062893" cy="237.8766413268832" r="4" fill="#3b82f6" stroke="#0d1117" stroke-width="2" class="data-point"/>
  
    <circle cx="557.4842767295597" cy="237.78253858557935" r="4" fill="#3b82f6" stroke="#0d1117" stroke-width="2" class="data-point"/>
  
    <circle cx="561.8867924528302" cy="237.69937802349688" r="4" fill="#3b82f6" stroke="#0d1117" stroke-width="2" class="data-point"/>
  
    <circle cx="566.2893081761006" cy="237.66655148583277" r="4" fill="#3b82f6" stroke="#0d1117" stroke-width="2" class="data-point"/>
  
    <circle cx="570.691823899371" cy="237.54618751439762" r="4" fill="#3b82f6" stroke="#0d1117" stroke-width="2" class="data-point"/>
  
    <circle cx="575.0943396226414" cy="237.430200414651" r="4" fill="#3b82f6" stroke="#0d1117" stroke-width="2" class="data-point"/>
  
    <circle cx="579.496855345912" cy="237.35360516010138" r="4" fill="#3b82f6" stroke="#0d1117" stroke-width="2" class="data-point"/>
  
    <circle cx="583.8993710691824" cy="237.3251554941258" r="4" fill="#3b82f6" stroke="#0d1117" stroke-width="2" class="data-point"/>
  
    <circle cx="588.3018867924528" cy="237.19603777931354" r="4" fill="#3b82f6" stroke="#0d1117" stroke-width="2" class="data-point"/>
  
    <circle cx="592.7044025157234" cy="234.02280580511405" r="4" fill="#3b82f6" stroke="#0d1117" stroke-width="2" class="data-point"/>
  
    <circle cx="597.1069182389938" cy="229.05286800276434" r="4" fill="#3b82f6" stroke="#0d1117" stroke-width="2" class="data-point"/>
  
    <circle cx="601.5094339622642" cy="225.7242570836213" r="4" fill="#3b82f6" stroke="#0d1117" stroke-width="2" class="data-point"/>
  
    <circle cx="605.9119496855346" cy="221.85947938263075" r="4" fill="#3b82f6" stroke="#0d1117" stroke-width="2" class="data-point"/>
  
    <circle cx="610.3144654088051" cy="217.8765261460493" r="4" fill="#3b82f6" stroke="#0d1117" stroke-width="2" class="data-point"/>
  
    <circle cx="614.7169811320755" cy="214.75143976042386" r="4" fill="#3b82f6" stroke="#0d1117" stroke-width="2" class="data-point"/>
  
    <circle cx="619.1194968553459" cy="211.25650771711588" r="4" fill="#3b82f6" stroke="#0d1117" stroke-width="2" class="data-point"/>
  
    <circle cx="623.5220125786163" cy="205.93204330799355" r="4" fill="#3b82f6" stroke="#0d1117" stroke-width="2" class="data-point"/>
  
    <circle cx="627.9245283018868" cy="198.75616217461413" r="4" fill="#3b82f6" stroke="#0d1117" stroke-width="2" class="data-point"/>
  
    <circle cx="632.3270440251573" cy="194.07290946786455" r="4" fill="#3b82f6" stroke="#0d1117" stroke-width="2" class="data-point"/>
  
    <circle cx="636.7295597484277" cy="188.4989633724948" r="4" fill="#3b82f6" stroke="#0d1117" stroke-width="2" class="data-point"/>
  
    <circle cx="641.1320754716982" cy="182.2881824464409" r="4" fill="#3b82f6" stroke="#0d1117" stroke-width="2" class="data-point"/>
  
    <circle cx="645.5345911949686" cy="177.30730246486985" r="4" fill="#3b82f6" stroke="#0d1117" stroke-width="2" class="data-point"/>
  
    <circle cx="649.937106918239" cy="171.9018659295093" r="4" fill="#3b82f6" stroke="#0d1117" stroke-width="2" class="data-point"/>
  
    <circle cx="654.3396226415094" cy="167.10700299470167" r="4" fill="#3b82f6" stroke="#0d1117" stroke-width="2" class="data-point"/>
  
    <circle cx="658.7421383647799" cy="162.35590877677953" r="4" fill="#3b82f6" stroke="#0d1117" stroke-width="2" class="data-point"/>
  
    <circle cx="663.1446540880503" cy="157.61794517392306" r="4" fill="#3b82f6" stroke="#0d1117" stroke-width="2" class="data-point"/>
  
    <circle cx="667.5471698113208" cy="151.16643630499885" r="4" fill="#3b82f6" stroke="#0d1117" stroke-width="2" class="data-point"/>
  
    <circle cx="671.9496855345913" cy="144.69523151347613" r="4" fill="#3b82f6" stroke="#0d1117" stroke-width="2" class="data-point"/>
  
    <circle cx="676.3522012578617" cy="139.300737157337" r="4" fill="#3b82f6" stroke="#0d1117" stroke-width="2" class="data-point"/>
  
    <circle cx="680.7547169811321" cy="134.77942870306381" r="4" fill="#3b82f6" stroke="#0d1117" stroke-width="2" class="data-point"/>
  
    <circle cx="685.1572327044025" cy="130.39380327113568" r="4" fill="#3b82f6" stroke="#0d1117" stroke-width="2" class="data-point"/>
  
    <circle cx="689.559748427673" cy="124.57256392536283" r="4" fill="#3b82f6" stroke="#0d1117" stroke-width="2" class="data-point"/>
  
    <circle cx="693.9622641509434" cy="120.05782077862244" r="4" fill="#3b82f6" stroke="#0d1117" stroke-width="2" class="data-point"/>
  
    <circle cx="698.3647798742138" cy="115.5912232204561" r="4" fill="#3b82f6" stroke="#0d1117" stroke-width="2" class="data-point"/>
  
    <circle cx="702.7672955974842" cy="111.41349919373417" r="4" fill="#3b82f6" stroke="#0d1117" stroke-width="2" class="data-point"/>
  
    <circle cx="707.1698113207548" cy="107.47869154572678" r="4" fill="#3b82f6" stroke="#0d1117" stroke-width="2" class="data-point"/>
  
    <circle cx="711.5723270440252" cy="103.4475927205713" r="4" fill="#3b82f6" stroke="#0d1117" stroke-width="2" class="data-point"/>
  
    <circle cx="715.9748427672956" cy="100.00080626583735" r="4" fill="#3b82f6" stroke="#0d1117" stroke-width="2" class="data-point"/>
  
    <circle cx="720.377358490566" cy="96.431467403824" r="4" fill="#3b82f6" stroke="#0d1117" stroke-width="2" class="data-point"/>
  
    <circle cx="724.7798742138365" cy="92.78772172310528" r="4" fill="#3b82f6" stroke="#0d1117" stroke-width="2" class="data-point"/>
  
    <circle cx="729.1823899371069" cy="88.93607463718035" r="4" fill="#3b82f6" stroke="#0d1117" stroke-width="2" class="data-point"/>
  
    <circle cx="733.5849056603773" cy="85.4017507486754" r="4" fill="#3b82f6" stroke="#0d1117" stroke-width="2" class="data-point"/>
  
    <circle cx="737.9874213836478" cy="82.16505413499192" r="4" fill="#3b82f6" stroke="#0d1117" stroke-width="2" class="data-point"/>
  
    <circle cx="742.3899371069183" cy="76.30004607233354" r="4" fill="#3b82f6" stroke="#0d1117" stroke-width="2" class="data-point"/>
  
    <circle cx="746.7924528301887" cy="71.39138447362359" r="4" fill="#3b82f6" stroke="#0d1117" stroke-width="2" class="data-point"/>
  
    <circle cx="751.1949685534591" cy="66.67749366505416" r="4" fill="#3b82f6" stroke="#0d1117" stroke-width="2" class="data-point"/>
  
    <circle cx="755.5974842767296" cy="62.149619903248094" r="4" fill="#3b82f6" stroke="#0d1117" stroke-width="2" class="data-point"/>
  
    <circle cx="760" cy="55" r="4" fill="#3b82f6" stroke="#0d1117" stroke-width="2" class="data-point"/>
  

  <!-- Axis lines -->
  <line x1="60" y1="55" x2="60" y2="340"
        stroke="#30363d" stroke-width="2"/>
  <line x1="60" y1="340" x2="760" y2="340"
        stroke="#30363d" stroke-width="2"/>
</svg>