<?xml version="1.0" encoding="UTF-8"?>
<svg width="800" height="400" xmlns="http://www.w3.org/2000/svg">
  <defs>
    <!-- Gradient for area fill -->
    <linearGradient id="areaGradient" x1="0%" y1="0%" x2="0%" y2="100%">
      <stop offset="0%" style="stop-color:#3b82f6;stop-opacity:0.3" />
      <stop offset="100%" style="stop-color:#3b82f6;stop-opacity:0.05" />
    </linearGradient>

    <!-- Glow filter for line -->
    <filter id="glow">
      <feGaussianBlur stdDeviation="2" result="coloredBlur"/>
      <feMerge>
        <feMergeNode in="coloredBlur"/>
        <feMergeNode in="SourceGraphic"/>
      </feMerge>
    </filter>

    <!-- Animation -->
    <style>
      @keyframes draw {
        from { stroke-dashoffset: 2000; }
        to { stroke-dashoffset: 0; }
      }
      @keyframes fadeIn {
        from { opacity: 0; }
        to { opacity: 1; }
      }
      .line-path {
        stroke-dasharray: 2000;
        stroke-dashoffset: 2000;
        animation: draw 1.5s ease-out forwards;
      }
      .area-path {
        opacity: 0;
        animation: fadeIn 1s ease-out 0.5s forwards;
      }
      .data-point {
        opacity: 0;
        animation: fadeIn 0.5s ease-out 1s forwards;
      }
    </style>
  </defs>

  <!-- Background -->
  <rect width="800" height="400" fill="#0d1117" rx="8"/>

  <!-- Title -->
  <text x="400" y="25" text-anchor="middle" fill="#c9d1d9" font-family="system-ui, -apple-system, sans-serif" font-size="16" font-weight="600">
    zxcloli666/SoundCloud-Desktop Downloads
  </text>

  <!-- Stats -->
  <text x="780" y="25" text-anchor="end" fill="#58a6ff" font-family="system-ui, -apple-system, sans-serif" font-size="14" font-weight="600">
    91.9K total
  </text>
  <text x="780" y="42" text-anchor="end" fill="#3fb950" font-family="system-ui, -apple-system, sans-serif" font-size="12">
    +365 (+0.4%)
  </text>

  <!-- Grid lines -->
  <g opacity="0.1">
    
      <line x1="60" y1="340" x2="760" y2="340"
            stroke="#c9d1d9" stroke-width="1"/>
    
      <line x1="60" y1="268.75" x2="760" y2="268.75"
            stroke="#c9d1d9" stroke-width="1"/>
    
      <line x1="60" y1="197.5" x2="760" y2="197.5"
            stroke="#c9d1d9" stroke-width="1"/>
    
      <line x1="60" y1="126.25" x2="760" y2="126.25"
            stroke="#c9d1d9" stroke-width="1"/>
    
      <line x1="60" y1="55" x2="760" y2="55"
            stroke="#c9d1d9" stroke-width="1"/>
    
  </g>

  <!-- Y-axis labels -->
  
    <text x="50" y="344" text-anchor="end"
          fill="#8b949e" font-family="system-ui, -apple-system, sans-serif" font-size="11">
      60.2K
    </text>
  
    <text x="50" y="272.75" text-anchor="end"
          fill="#8b949e" font-family="system-ui, -apple-system, sans-serif" font-size="11">
      68.1K
    </text>
  
    <text x="50" y="201.5" text-anchor="end"
          fill="#8b949e" font-family="system-ui, -apple-system, sans-serif" font-size="11">
      76.0K
    </text>
  
    <text x="50" y="130.25" text-anchor="end"
          fill="#8b949e" font-family="system-ui, -apple-system, sans-serif" font-size="11">
      84.0K
    </text>
  
    <text x="50" y="59" text-anchor="end"
          fill="#8b949e" font-family="system-ui, -apple-system, sans-serif" font-size="11">
      91.9K
    </text>
  

  <!-- X-axis labels -->
  
    <text x="60" y="360" text-anchor="middle"
          fill="#8b949e" font-family="system-ui, -apple-system, sans-serif" font-size="11">
      Nov 25
    </text>
  
    <text x="148.42105263157896" y="360" text-anchor="middle"
          fill="#8b949e" font-family="system-ui, -apple-system, sans-serif" font-size="11">
      Dec 7
    </text>
  
    <text x="236.8421052631579" y="360" text-anchor="middle"
          fill="#8b949e" font-family="system-ui, -apple-system, sans-serif" font-size="11">
      Dec 19
    </text>
  
    <text x="325.2631578947369" y="360" text-anchor="middle"
          fill="#8b949e" font-family="system-ui, -apple-system, sans-serif" font-size="11">
      Dec 31
    </text>
  
    <text x="413.6842105263158" y="360" text-anchor="middle"
          fill="#8b949e" font-family="system-ui, -apple-system, sans-serif" font-size="11">
      Jan 12
    </text>
  
    <text x="502.10526315789474" y="360" text-anchor="middle"
          fill="#8b949e" font-family="system-ui, -apple-system, sans-serif" font-size="11">
      Jan 24
    </text>
  
    <text x="590.5263157894738" y="360" text-anchor="middle"
          fill="#8b949e" font-family="system-ui, -apple-system, sans-serif" font-size="11">
      Feb 5
    </text>
  
    <text x="678.9473684210526" y="360" text-anchor="middle"
          fill="#8b949e" font-family="system-ui, -apple-system, sans-serif" font-size="11">
      Feb 17
    </text>
  
    <text x="760" y="360" text-anchor="middle"
          fill="#8b949e" font-family="system-ui, -apple-system, sans-serif" font-size="11">
      Feb 28
    </text>
  

  <!-- Area under line -->
  <path d="M 60 340
    L 60.00 340.00 L 67.37 338.68 L 74.74 336.44 L 82.11 334.36 L 89.47 330.23 L 96.84 325.96 L 104.21 322.60 L 111.58 319.46 L 118.95 316.67 L 126.32 313.40 L 133.68 309.75 L 141.05 305.84 L 148.42 302.29 L 155.79 298.51 L 163.16 295.76 L 170.53 292.91 L 177.89 289.04 L 185.26 286.44 L 192.63 282.86 L 200.00 278.72 L 207.37 275.60 L 214.74 273.03 L 222.11 271.37 L 229.47 269.99 L 236.84 267.44 L 244.21 265.62 L 251.58 261.63 L 258.95 260.06 L 266.32 258.03 L 273.68 255.41 L 281.05 253.62 L 288.42 251.80 L 295.79 249.89 L 303.16 248.56 L 310.53 247.41 L 317.89 245.67 L 325.26 243.54 L 332.63 241.59 L 340.00 239.11 L 347.37 236.41 L 354.74 233.94 L 362.11 230.95 L 369.47 228.02 L 376.84 225.09 L 384.21 221.88 L 391.58 218.81 L 398.95 215.31 L 406.32 212.18 L 413.68 209.53 L 421.05 207.42 L 428.42 204.46 L 435.79 201.08 L 443.16 197.98 L 450.53 194.37 L 457.89 189.91 L 465.26 186.60 L 472.63 183.84 L 480.00 181.23 L 487.37 178.08 L 494.74 174.42 L 502.11 170.37 L 509.47 166.11 L 516.84 162.02 L 524.21 158.43 L 531.58 154.86 L 538.95 151.71 L 546.32 148.50 L 553.68 144.91 L 561.05 140.45 L 568.42 137.12 L 575.79 134.14 L 583.16 130.84 L 590.53 127.75 L 597.89 124.36 L 605.26 120.83 L 612.63 117.14 L 620.00 113.90 L 627.37 111.13 L 634.74 108.09 L 642.11 104.80 L 649.47 101.75 L 656.84 97.78 L 664.21 94.36 L 671.58 91.07 L 678.95 88.34 L 686.32 85.68 L 693.68 83.02 L 701.05 79.84 L 708.42 76.56 L 715.79 72.59 L 723.16 69.37 L 730.53 66.75 L 737.89 64.05 L 745.26 61.46 L 752.63 58.27 L 760.00 55.00
    L 760 340
    Z" fill="url(#areaGradient)" class="area-path"/>

  <!-- Main line with glow -->
  <path d="M 60.00 340.00 L 67.37 338.68 L 74.74 336.44 L 82.11 334.36 L 89.47 330.23 L 96.84 325.96 L 104.21 322.60 L 111.58 319.46 L 118.95 316.67 L 126.32 313.40 L 133.68 309.75 L 141.05 305.84 L 148.42 302.29 L 155.79 298.51 L 163.16 295.76 L 170.53 292.91 L 177.89 289.04 L 185.26 286.44 L 192.63 282.86 L 200.00 278.72 L 207.37 275.60 L 214.74 273.03 L 222.11 271.37 L 229.47 269.99 L 236.84 267.44 L 244.21 265.62 L 251.58 261.63 L 258.95 260.06 L 266.32 258.03 L 273.68 255.41 L 281.05 253.62 L 288.42 251.80 L 295.79 249.89 L 303.16 248.56 L 310.53 247.41 L 317.89 245.67 L 325.26 243.54 L 332.63 241.59 L 340.00 239.11 L 347.37 236.41 L 354.74 233.94 L 362.11 230.95 L 369.47 228.02 L 376.84 225.09 L 384.21 221.88 L 391.58 218.81 L 398.95 215.31 L 406.32 212.18 L 413.68 209.53 L 421.05 207.42 L 428.42 204.46 L 435.79 201.08 L 443.16 197.98 L 450.53 194.37 L 457.89 189.91 L 465.26 186.60 L 472.63 183.84 L 480.00 181.23 L 487.37 178.08 L 494.74 174.42 L 502.11 170.37 L 509.47 166.11 L 516.84 162.02 L 524.21 158.43 L 531.58 154.86 L 538.95 151.71 L 546.32 148.50 L 553.68 144.91 L 561.05 140.45 L 568.42 137.12 L 575.79 134.14 L 583.16 130.84 L 590.53 127.75 L 597.89 124.36 L 605.26 120.83 L 612.63 117.14 L 620.00 113.90 L 627.37 111.13 L 634.74 108.09 L 642.11 104.80 L 649.47 101.75 L 656.84 97.78 L 664.21 94.36 L 671.58 91.07 L 678.95 88.34 L 686.32 85.68 L 693.68 83.02 L 701.05 79.84 L 708.42 76.56 L 715.79 72.59 L 723.16 69.37 L 730.53 66.75 L 737.89 64.05 L 745.26 61.46 L 752.63 58.27 L 760.00 55.00" fill="none" stroke="#3b82f6" stroke-width="3"
        stroke-linecap="round" stroke-linejoin="round" filter="url(#glow)" class="line-path"/>

  <!-- Data points -->
  
    <circle cx="60" cy="340" r="4" fill="#3b82f6" stroke="#0d1117" stroke-width="2" class="data-point"/>
  
    <circle cx="67.36842105263158" cy="338.6819669036683" r="4" fill="#3b82f6" stroke="#0d1117" stroke-width="2" class="data-point"/>
  
    <circle cx="74.73684210526315" cy="336.4404140187504" r="4" fill="#3b82f6" stroke="#0d1117" stroke-width="2" class="data-point"/>
  
    <circle cx="82.10526315789474" cy="334.3602529415466" r="4" fill="#3b82f6" stroke="#0d1117" stroke-width="2" class="data-point"/>
  
    <circle cx="89.47368421052632" cy="330.226829421758" r="4" fill="#3b82f6" stroke="#0d1117" stroke-width="2" class="data-point"/>
  
    <circle cx="96.84210526315789" cy="325.95891272887434" r="4" fill="#3b82f6" stroke="#0d1117" stroke-width="2" class="data-point"/>
  
    <circle cx="104.21052631578948" cy="322.5965834014975" r="4" fill="#3b82f6" stroke="#0d1117" stroke-width="2" class="data-point"/>
  
    <circle cx="111.57894736842104" cy="319.4584093626125" r="4" fill="#3b82f6" stroke="#0d1117" stroke-width="2" class="data-point"/>
  
    <circle cx="118.94736842105263" cy="316.6699175737746" r="4" fill="#3b82f6" stroke="#0d1117" stroke-width="2" class="data-point"/>
  
    <circle cx="126.31578947368422" cy="313.3972503617945" r="4" fill="#3b82f6" stroke="#0d1117" stroke-width="2" class="data-point"/>
  
    <circle cx="133.68421052631578" cy="309.74800226514816" r="4" fill="#3b82f6" stroke="#0d1117" stroke-width="2" class="data-point"/>
  
    <circle cx="141.05263157894737" cy="305.8387340338514" r="4" fill="#3b82f6" stroke="#0d1117" stroke-width="2" class="data-point"/>
  
    <circle cx="148.42105263157896" cy="302.2881142641414" r="4" fill="#3b82f6" stroke="#0d1117" stroke-width="2" class="data-point"/>
  
    <circle cx="155.78947368421052" cy="298.5133392059397" r="4" fill="#3b82f6" stroke="#0d1117" stroke-width="2" class="data-point"/>
  
    <circle cx="163.15789473684208" cy="295.76071226326053" r="4" fill="#3b82f6" stroke="#0d1117" stroke-width="2" class="data-point"/>
  
    <circle cx="170.5263157894737" cy="292.909456993645" r="4" fill="#3b82f6" stroke="#0d1117" stroke-width="2" class="data-point"/>
  
    <circle cx="177.89473684210526" cy="289.0360536085069" r="4" fill="#3b82f6" stroke="#0d1117" stroke-width="2" class="data-point"/>
  
    <circle cx="185.26315789473685" cy="286.44481847354183" r="4" fill="#3b82f6" stroke="#0d1117" stroke-width="2" class="data-point"/>
  
    <circle cx="192.63157894736844" cy="282.8583338576732" r="4" fill="#3b82f6" stroke="#0d1117" stroke-width="2" class="data-point"/>
  
    <circle cx="200" cy="278.71594412634494" r="4" fill="#3b82f6" stroke="#0d1117" stroke-width="2" class="data-point"/>
  
    <circle cx="207.36842105263156" cy="275.59570251053924" r="4" fill="#3b82f6" stroke="#0d1117" stroke-width="2" class="data-point"/>
  
    <circle cx="214.73684210526315" cy="273.03136601019315" r="4" fill="#3b82f6" stroke="#0d1117" stroke-width="2" class="data-point"/>
  
    <circle cx="222.10526315789474" cy="271.3726168753539" r="4" fill="#3b82f6" stroke="#0d1117" stroke-width="2" class="data-point"/>
  
    <circle cx="229.47368421052633" cy="269.99182029824453" r="4" fill="#3b82f6" stroke="#0d1117" stroke-width="2" class="data-point"/>
  
    <circle cx="236.8421052631579" cy="267.4364500094381" r="4" fill="#3b82f6" stroke="#0d1117" stroke-width="2" class="data-point"/>
  
    <circle cx="244.21052631578945" cy="265.6163090668848" r="4" fill="#3b82f6" stroke="#0d1117" stroke-width="2" class="data-point"/>
  
    <circle cx="251.57894736842107" cy="261.62634493173096" r="4" fill="#3b82f6" stroke="#0d1117" stroke-width="2" class="data-point"/>
  
    <circle cx="258.9473684210526" cy="260.05725791228843" r="4" fill="#3b82f6" stroke="#0d1117" stroke-width="2" class="data-point"/>
  
    <circle cx="266.31578947368416" cy="258.03089410432267" r="4" fill="#3b82f6" stroke="#0d1117" stroke-width="2" class="data-point"/>
  
    <circle cx="273.6842105263158" cy="255.41276033473855" r="4" fill="#3b82f6" stroke="#0d1117" stroke-width="2" class="data-point"/>
  
    <circle cx="281.0526315789474" cy="253.61951802680426" r="4" fill="#3b82f6" stroke="#0d1117" stroke-width="2" class="data-point"/>
  
    <circle cx="288.42105263157896" cy="251.79937708425092" r="4" fill="#3b82f6" stroke="#0d1117" stroke-width="2" class="data-point"/>
  
    <circle cx="295.7894736842105" cy="249.8895740263009" r="4" fill="#3b82f6" stroke="#0d1117" stroke-width="2" class="data-point"/>
  
    <circle cx="303.1578947368421" cy="248.56257471842952" r="4" fill="#3b82f6" stroke="#0d1117" stroke-width="2" class="data-point"/>
  
    <circle cx="310.5263157894737" cy="247.41489964135155" r="4" fill="#3b82f6" stroke="#0d1117" stroke-width="2" class="data-point"/>
  
    <circle cx="317.89473684210526" cy="245.6664883911156" r="4" fill="#3b82f6" stroke="#0d1117" stroke-width="2" class="data-point"/>
  
    <circle cx="325.2631578947369" cy="243.5414962562134" r="4" fill="#3b82f6" stroke="#0d1117" stroke-width="2" class="data-point"/>
  
    <circle cx="332.63157894736844" cy="241.58686214056502" r="4" fill="#3b82f6" stroke="#0d1117" stroke-width="2" class="data-point"/>
  
    <circle cx="340" cy="239.11218775561568" r="4" fill="#3b82f6" stroke="#0d1117" stroke-width="2" class="data-point"/>
  
    <circle cx="347.36842105263156" cy="236.41335808217454" r="4" fill="#3b82f6" stroke="#0d1117" stroke-width="2" class="data-point"/>
  
    <circle cx="354.7368421052631" cy="233.9386836972252" r="4" fill="#3b82f6" stroke="#0d1117" stroke-width="2" class="data-point"/>
  
    <circle cx="362.10526315789474" cy="230.95293525451456" r="4" fill="#3b82f6" stroke="#0d1117" stroke-width="2" class="data-point"/>
  
    <circle cx="369.4736842105263" cy="228.02098408104197" r="4" fill="#3b82f6" stroke="#0d1117" stroke-width="2" class="data-point"/>
  
    <circle cx="376.8421052631579" cy="225.08903290756936" r="4" fill="#3b82f6" stroke="#0d1117" stroke-width="2" class="data-point"/>
  
    <circle cx="384.2105263157895" cy="221.87912917636697" r="4" fill="#3b82f6" stroke="#0d1117" stroke-width="2" class="data-point"/>
  
    <circle cx="391.57894736842104" cy="218.81268482979928" r="4" fill="#3b82f6" stroke="#0d1117" stroke-width="2" class="data-point"/>
  
    <circle cx="398.94736842105266" cy="215.30689611778772" r="4" fill="#3b82f6" stroke="#0d1117" stroke-width="2" class="data-point"/>
  
    <circle cx="406.3157894736842" cy="212.17768829044235" r="4" fill="#3b82f6" stroke="#0d1117" stroke-width="2" class="data-point"/>
  
    <circle cx="413.6842105263158" cy="209.53265588623924" r="4" fill="#3b82f6" stroke="#0d1117" stroke-width="2" class="data-point"/>
  
    <circle cx="421.0526315789474" cy="207.41662996287673" r="4" fill="#3b82f6" stroke="#0d1117" stroke-width="2" class="data-point"/>
  
    <circle cx="428.4210526315789" cy="204.45778015478513" r="4" fill="#3b82f6" stroke="#0d1117" stroke-width="2" class="data-point"/>
  
    <circle cx="435.7894736842105" cy="201.07751840432894" r="4" fill="#3b82f6" stroke="#0d1117" stroke-width="2" class="data-point"/>
  
    <circle cx="443.15789473684214" cy="197.98417542314226" r="4" fill="#3b82f6" stroke="#0d1117" stroke-width="2" class="data-point"/>
  
    <circle cx="450.52631578947364" cy="194.37079217265463" r="4" fill="#3b82f6" stroke="#0d1117" stroke-width="2" class="data-point"/>
  
    <circle cx="457.89473684210526" cy="189.91458503743786" r="4" fill="#3b82f6" stroke="#0d1117" stroke-width="2" class="data-point"/>
  
    <circle cx="465.2631578947369" cy="186.59708676775938" r="4" fill="#3b82f6" stroke="#0d1117" stroke-width="2" class="data-point"/>
  
    <circle cx="472.6315789473684" cy="183.84445982508024" r="4" fill="#3b82f6" stroke="#0d1117" stroke-width="2" class="data-point"/>
  
    <circle cx="480" cy="181.22632605549612" r="4" fill="#3b82f6" stroke="#0d1117" stroke-width="2" class="data-point"/>
  
    <circle cx="487.36842105263156" cy="178.0791858050714" r="4" fill="#3b82f6" stroke="#0d1117" stroke-width="2" class="data-point"/>
  
    <circle cx="494.7368421052632" cy="174.42097149688544" r="4" fill="#3b82f6" stroke="#0d1117" stroke-width="2" class="data-point"/>
  
    <circle cx="502.10526315789474" cy="170.36824388095388" r="4" fill="#3b82f6" stroke="#0d1117" stroke-width="2" class="data-point"/>
  
    <circle cx="509.4736842105263" cy="166.1092933996099" r="4" fill="#3b82f6" stroke="#0d1117" stroke-width="2" class="data-point"/>
  
    <circle cx="516.8421052631579" cy="162.02070093751965" r="4" fill="#3b82f6" stroke="#0d1117" stroke-width="2" class="data-point"/>
  
    <circle cx="524.2105263157894" cy="158.42525011011136" r="4" fill="#3b82f6" stroke="#0d1117" stroke-width="2" class="data-point"/>
  
    <circle cx="531.578947368421" cy="154.8566979173221" r="4" fill="#3b82f6" stroke="#0d1117" stroke-width="2" class="data-point"/>
  
    <circle cx="538.9473684210527" cy="151.70955766689738" r="4" fill="#3b82f6" stroke="#0d1117" stroke-width="2" class="data-point"/>
  
    <circle cx="546.3157894736842" cy="148.49965393569497" r="4" fill="#3b82f6" stroke="#0d1117" stroke-width="2" class="data-point"/>
  
    <circle cx="553.6842105263158" cy="144.91316931982635" r="4" fill="#3b82f6" stroke="#0d1117" stroke-width="2" class="data-point"/>
  
    <circle cx="561.0526315789474" cy="140.4479959730699" r="4" fill="#3b82f6" stroke="#0d1117" stroke-width="2" class="data-point"/>
  
    <circle cx="568.421052631579" cy="137.12153149185175" r="4" fill="#3b82f6" stroke="#0d1117" stroke-width="2" class="data-point"/>
  
    <circle cx="575.7894736842105" cy="134.1447492606808" r="4" fill="#3b82f6" stroke="#0d1117" stroke-width="2" class="data-point"/>
  
    <circle cx="583.1578947368421" cy="130.836217202542" r="4" fill="#3b82f6" stroke="#0d1117" stroke-width="2" class="data-point"/>
  
    <circle cx="590.5263157894738" cy="127.751840432895" r="4" fill="#3b82f6" stroke="#0d1117" stroke-width="2" class="data-point"/>
  
    <circle cx="597.8947368421052" cy="124.36261247089914" r="4" fill="#3b82f6" stroke="#0d1117" stroke-width="2" class="data-point"/>
  
    <circle cx="605.2631578947369" cy="120.82992512426856" r="4" fill="#3b82f6" stroke="#0d1117" stroke-width="2" class="data-point"/>
  
    <circle cx="612.6315789473684" cy="117.13584596992388" r="4" fill="#3b82f6" stroke="#0d1117" stroke-width="2" class="data-point"/>
  
    <circle cx="620" cy="113.89904360410245" r="4" fill="#3b82f6" stroke="#0d1117" stroke-width="2" class="data-point"/>
  
    <circle cx="627.3684210526316" cy="111.12848423834393" r="4" fill="#3b82f6" stroke="#0d1117" stroke-width="2" class="data-point"/>
  
    <circle cx="634.7368421052631" cy="108.08893852639528" r="4" fill="#3b82f6" stroke="#0d1117" stroke-width="2" class="data-point"/>
  
    <circle cx="642.1052631578948" cy="104.79833889133579" r="4" fill="#3b82f6" stroke="#0d1117" stroke-width="2" class="data-point"/>
  
    <circle cx="649.4736842105262" cy="101.7498269678475" r="4" fill="#3b82f6" stroke="#0d1117" stroke-width="2" class="data-point"/>
  
    <circle cx="656.8421052631579" cy="97.77779525577299" r="4" fill="#3b82f6" stroke="#0d1117" stroke-width="2" class="data-point"/>
  
    <circle cx="664.2105263157895" cy="94.36166865915811" r="4" fill="#3b82f6" stroke="#0d1117" stroke-width="2" class="data-point"/>
  
    <circle cx="671.578947368421" cy="91.07106902409868" r="4" fill="#3b82f6" stroke="#0d1117" stroke-width="2" class="data-point"/>
  
    <circle cx="678.9473684210526" cy="88.33637450449885" r="4" fill="#3b82f6" stroke="#0d1117" stroke-width="2" class="data-point"/>
  
    <circle cx="686.3157894736842" cy="85.68237588875607" r="4" fill="#3b82f6" stroke="#0d1117" stroke-width="2" class="data-point"/>
  
    <circle cx="693.6842105263158" cy="83.01941106147359" r="4" fill="#3b82f6" stroke="#0d1117" stroke-width="2" class="data-point"/>
  
    <circle cx="701.0526315789473" cy="79.83640596489022" r="4" fill="#3b82f6" stroke="#0d1117" stroke-width="2" class="data-point"/>
  
    <circle cx="708.421052631579" cy="76.56373875291007" r="4" fill="#3b82f6" stroke="#0d1117" stroke-width="2" class="data-point"/>
  
    <circle cx="715.7894736842105" cy="72.59170704083562" r="4" fill="#3b82f6" stroke="#0d1117" stroke-width="2" class="data-point"/>
  
    <circle cx="723.1578947368421" cy="69.3728370980935" r="4" fill="#3b82f6" stroke="#0d1117" stroke-width="2" class="data-point"/>
  
    <circle cx="730.5263157894736" cy="66.74573711696974" r="4" fill="#3b82f6" stroke="#0d1117" stroke-width="2" class="data-point"/>
  
    <circle cx="737.8947368421053" cy="64.0469074435286" r="4" fill="#3b82f6" stroke="#0d1117" stroke-width="2" class="data-point"/>
  
    <circle cx="745.2631578947369" cy="61.46463852010322" r="4" fill="#3b82f6" stroke="#0d1117" stroke-width="2" class="data-point"/>
  
    <circle cx="752.6315789473684" cy="58.27266721198009" r="4" fill="#3b82f6" stroke="#0d1117" stroke-width="2" class="data-point"/>
  
    <circle cx="760" cy="55" r="4" fill="#3b82f6" stroke="#0d1117" stroke-width="2" class="data-point"/>
  

  <!-- Axis lines -->
  <line x1="60" y1="55" x2="60" y2="340"
        stroke="#30363d" stroke-width="2"/>
  <line x1="60" y1="340" x2="760" y2="340"
        stroke="#30363d" stroke-width="2"/>
</svg>