<?xml version="1.0" encoding="UTF-8"?>
<svg width="800" height="400" xmlns="http://www.w3.org/2000/svg">
  <defs>
    <!-- Gradient for area fill -->
    <linearGradient id="areaGradient" x1="0%" y1="0%" x2="0%" y2="100%">
      <stop offset="0%" style="stop-color:#3b82f6;stop-opacity:0.3" />
      <stop offset="100%" style="stop-color:#3b82f6;stop-opacity:0.05" />
    </linearGradient>

    <!-- Glow filter for line -->
    <filter id="glow">
      <feGaussianBlur stdDeviation="2" result="coloredBlur"/>
      <feMerge>
        <feMergeNode in="coloredBlur"/>
        <feMergeNode in="SourceGraphic"/>
      </feMerge>
    </filter>

    <!-- Animation -->
    <style>
      @keyframes draw {
        from { stroke-dashoffset: 2000; }
        to { stroke-dashoffset: 0; }
      }
      @keyframes fadeIn {
        from { opacity: 0; }
        to { opacity: 1; }
      }
      .line-path {
        stroke-dasharray: 2000;
        stroke-dashoffset: 2000;
        animation: draw 1.5s ease-out forwards;
      }
      .area-path {
        opacity: 0;
        animation: fadeIn 1s ease-out 0.5s forwards;
      }
      .data-point {
        opacity: 0;
        animation: fadeIn 0.5s ease-out 1s forwards;
      }
    </style>
  </defs>

  <!-- Background -->
  <rect width="800" height="400" fill="#0d1117" rx="8"/>

  <!-- Title -->
  <text x="400" y="25" text-anchor="middle" fill="#c9d1d9" font-family="system-ui, -apple-system, sans-serif" font-size="16" font-weight="600">
    zxcloli666/SoundCloud-Desktop Downloads
  </text>

  <!-- Stats -->
  <text x="780" y="25" text-anchor="end" fill="#58a6ff" font-family="system-ui, -apple-system, sans-serif" font-size="14" font-weight="600">
    91.2K total
  </text>
  <text x="780" y="42" text-anchor="end" fill="#3fb950" font-family="system-ui, -apple-system, sans-serif" font-size="12">
    +288 (+0.3%)
  </text>

  <!-- Grid lines -->
  <g opacity="0.1">
    
      <line x1="60" y1="340" x2="760" y2="340"
            stroke="#c9d1d9" stroke-width="1"/>
    
      <line x1="60" y1="268.75" x2="760" y2="268.75"
            stroke="#c9d1d9" stroke-width="1"/>
    
      <line x1="60" y1="197.5" x2="760" y2="197.5"
            stroke="#c9d1d9" stroke-width="1"/>
    
      <line x1="60" y1="126.25" x2="760" y2="126.25"
            stroke="#c9d1d9" stroke-width="1"/>
    
      <line x1="60" y1="55" x2="760" y2="55"
            stroke="#c9d1d9" stroke-width="1"/>
    
  </g>

  <!-- Y-axis labels -->
  
    <text x="50" y="344" text-anchor="end"
          fill="#8b949e" font-family="system-ui, -apple-system, sans-serif" font-size="11">
      60.2K
    </text>
  
    <text x="50" y="272.75" text-anchor="end"
          fill="#8b949e" font-family="system-ui, -apple-system, sans-serif" font-size="11">
      67.9K
    </text>
  
    <text x="50" y="201.5" text-anchor="end"
          fill="#8b949e" font-family="system-ui, -apple-system, sans-serif" font-size="11">
      75.7K
    </text>
  
    <text x="50" y="130.25" text-anchor="end"
          fill="#8b949e" font-family="system-ui, -apple-system, sans-serif" font-size="11">
      83.5K
    </text>
  
    <text x="50" y="59" text-anchor="end"
          fill="#8b949e" font-family="system-ui, -apple-system, sans-serif" font-size="11">
      91.2K
    </text>
  

  <!-- X-axis labels -->
  
    <text x="60" y="360" text-anchor="middle"
          fill="#8b949e" font-family="system-ui, -apple-system, sans-serif" font-size="11">
      Nov 25
    </text>
  
    <text x="142.7956989247312" y="360" text-anchor="middle"
          fill="#8b949e" font-family="system-ui, -apple-system, sans-serif" font-size="11">
      Dec 6
    </text>
  
    <text x="225.59139784946237" y="360" text-anchor="middle"
          fill="#8b949e" font-family="system-ui, -apple-system, sans-serif" font-size="11">
      Dec 17
    </text>
  
    <text x="308.38709677419354" y="360" text-anchor="middle"
          fill="#8b949e" font-family="system-ui, -apple-system, sans-serif" font-size="11">
      Dec 28
    </text>
  
    <text x="391.18279569892474" y="360" text-anchor="middle"
          fill="#8b949e" font-family="system-ui, -apple-system, sans-serif" font-size="11">
      Jan 8
    </text>
  
    <text x="473.97849462365593" y="360" text-anchor="middle"
          fill="#8b949e" font-family="system-ui, -apple-system, sans-serif" font-size="11">
      Jan 19
    </text>
  
    <text x="556.7741935483871" y="360" text-anchor="middle"
          fill="#8b949e" font-family="system-ui, -apple-system, sans-serif" font-size="11">
      Jan 30
    </text>
  
    <text x="639.5698924731183" y="360" text-anchor="middle"
          fill="#8b949e" font-family="system-ui, -apple-system, sans-serif" font-size="11">
      Feb 10
    </text>
  
    <text x="722.3655913978495" y="360" text-anchor="middle"
          fill="#8b949e" font-family="system-ui, -apple-system, sans-serif" font-size="11">
      Feb 21
    </text>
  
    <text x="760" y="360" text-anchor="middle"
          fill="#8b949e" font-family="system-ui, -apple-system, sans-serif" font-size="11">
      Feb 26
    </text>
  

  <!-- Area under line -->
  <path d="M 60 340
    L 60.00 340.00 L 67.53 338.65 L 75.05 336.36 L 82.58 334.23 L 90.11 330.00 L 97.63 325.63 L 105.16 322.19 L 112.69 318.98 L 120.22 316.13 L 127.74 312.78 L 135.27 309.05 L 142.80 305.05 L 150.32 301.41 L 157.85 297.55 L 165.38 294.73 L 172.90 291.82 L 180.43 287.85 L 187.96 285.20 L 195.48 281.53 L 203.01 277.29 L 210.54 274.10 L 218.06 271.48 L 225.59 269.78 L 233.12 268.37 L 240.65 265.75 L 248.17 263.89 L 255.70 259.81 L 263.23 258.20 L 270.75 256.13 L 278.28 253.45 L 285.81 251.61 L 293.33 249.75 L 300.86 247.80 L 308.39 246.44 L 315.91 245.27 L 323.44 243.48 L 330.97 241.30 L 338.49 239.30 L 346.02 236.77 L 353.55 234.01 L 361.08 231.48 L 368.60 228.42 L 376.13 225.42 L 383.66 222.42 L 391.18 219.14 L 398.71 216.00 L 406.24 212.41 L 413.76 209.21 L 421.29 206.50 L 428.82 204.34 L 436.34 201.31 L 443.87 197.85 L 451.40 194.69 L 458.92 190.99 L 466.45 186.43 L 473.98 183.04 L 481.51 180.22 L 489.03 177.54 L 496.56 174.32 L 504.09 170.58 L 511.61 166.43 L 519.14 162.07 L 526.67 157.89 L 534.19 154.21 L 541.72 150.56 L 549.25 147.34 L 556.77 144.06 L 564.30 140.39 L 571.83 135.82 L 579.35 132.41 L 586.88 129.37 L 594.41 125.98 L 601.94 122.83 L 609.46 119.36 L 616.99 115.74 L 624.52 111.96 L 632.04 108.65 L 639.57 105.82 L 647.10 102.71 L 654.62 99.34 L 662.15 96.22 L 669.68 92.16 L 677.20 88.66 L 684.73 85.29 L 692.26 82.50 L 699.78 79.78 L 707.31 77.06 L 714.84 73.80 L 722.37 70.45 L 729.89 66.39 L 737.42 63.09 L 744.95 60.40 L 752.47 57.64 L 760.00 55.00
    L 760 340
    Z" fill="url(#areaGradient)" class="area-path"/>

  <!-- Main line with glow -->
  <path d="M 60.00 340.00 L 67.53 338.65 L 75.05 336.36 L 82.58 334.23 L 90.11 330.00 L 97.63 325.63 L 105.16 322.19 L 112.69 318.98 L 120.22 316.13 L 127.74 312.78 L 135.27 309.05 L 142.80 305.05 L 150.32 301.41 L 157.85 297.55 L 165.38 294.73 L 172.90 291.82 L 180.43 287.85 L 187.96 285.20 L 195.48 281.53 L 203.01 277.29 L 210.54 274.10 L 218.06 271.48 L 225.59 269.78 L 233.12 268.37 L 240.65 265.75 L 248.17 263.89 L 255.70 259.81 L 263.23 258.20 L 270.75 256.13 L 278.28 253.45 L 285.81 251.61 L 293.33 249.75 L 300.86 247.80 L 308.39 246.44 L 315.91 245.27 L 323.44 243.48 L 330.97 241.30 L 338.49 239.30 L 346.02 236.77 L 353.55 234.01 L 361.08 231.48 L 368.60 228.42 L 376.13 225.42 L 383.66 222.42 L 391.18 219.14 L 398.71 216.00 L 406.24 212.41 L 413.76 209.21 L 421.29 206.50 L 428.82 204.34 L 436.34 201.31 L 443.87 197.85 L 451.40 194.69 L 458.92 190.99 L 466.45 186.43 L 473.98 183.04 L 481.51 180.22 L 489.03 177.54 L 496.56 174.32 L 504.09 170.58 L 511.61 166.43 L 519.14 162.07 L 526.67 157.89 L 534.19 154.21 L 541.72 150.56 L 549.25 147.34 L 556.77 144.06 L 564.30 140.39 L 571.83 135.82 L 579.35 132.41 L 586.88 129.37 L 594.41 125.98 L 601.94 122.83 L 609.46 119.36 L 616.99 115.74 L 624.52 111.96 L 632.04 108.65 L 639.57 105.82 L 647.10 102.71 L 654.62 99.34 L 662.15 96.22 L 669.68 92.16 L 677.20 88.66 L 684.73 85.29 L 692.26 82.50 L 699.78 79.78 L 707.31 77.06 L 714.84 73.80 L 722.37 70.45 L 729.89 66.39 L 737.42 63.09 L 744.95 60.40 L 752.47 57.64 L 760.00 55.00" fill="none" stroke="#3b82f6" stroke-width="3"
        stroke-linecap="round" stroke-linejoin="round" filter="url(#glow)" class="line-path"/>

  <!-- Data points -->
  
    <circle cx="60" cy="340" r="4" fill="#3b82f6" stroke="#0d1117" stroke-width="2" class="data-point"/>
  
    <circle cx="67.52688172043011" cy="338.651376146789" r="4" fill="#3b82f6" stroke="#0d1117" stroke-width="2" class="data-point"/>
  
    <circle cx="75.05376344086022" cy="336.35779816513764" r="4" fill="#3b82f6" stroke="#0d1117" stroke-width="2" class="data-point"/>
  
    <circle cx="82.58064516129032" cy="334.22935779816515" r="4" fill="#3b82f6" stroke="#0d1117" stroke-width="2" class="data-point"/>
  
    <circle cx="90.10752688172043" cy="330" r="4" fill="#3b82f6" stroke="#0d1117" stroke-width="2" class="data-point"/>
  
    <circle cx="97.63440860215053" cy="325.6330275229358" r="4" fill="#3b82f6" stroke="#0d1117" stroke-width="2" class="data-point"/>
  
    <circle cx="105.16129032258064" cy="322.1926605504587" r="4" fill="#3b82f6" stroke="#0d1117" stroke-width="2" class="data-point"/>
  
    <circle cx="112.68817204301075" cy="318.9816513761468" r="4" fill="#3b82f6" stroke="#0d1117" stroke-width="2" class="data-point"/>
  
    <circle cx="120.21505376344086" cy="316.1284403669725" r="4" fill="#3b82f6" stroke="#0d1117" stroke-width="2" class="data-point"/>
  
    <circle cx="127.74193548387096" cy="312.7798165137615" r="4" fill="#3b82f6" stroke="#0d1117" stroke-width="2" class="data-point"/>
  
    <circle cx="135.26881720430106" cy="309.04587155963304" r="4" fill="#3b82f6" stroke="#0d1117" stroke-width="2" class="data-point"/>
  
    <circle cx="142.7956989247312" cy="305.04587155963304" r="4" fill="#3b82f6" stroke="#0d1117" stroke-width="2" class="data-point"/>
  
    <circle cx="150.32258064516128" cy="301.41284403669727" r="4" fill="#3b82f6" stroke="#0d1117" stroke-width="2" class="data-point"/>
  
    <circle cx="157.8494623655914" cy="297.55045871559633" r="4" fill="#3b82f6" stroke="#0d1117" stroke-width="2" class="data-point"/>
  
    <circle cx="165.3763440860215" cy="294.73394495412845" r="4" fill="#3b82f6" stroke="#0d1117" stroke-width="2" class="data-point"/>
  
    <circle cx="172.90322580645162" cy="291.8165137614679" r="4" fill="#3b82f6" stroke="#0d1117" stroke-width="2" class="data-point"/>
  
    <circle cx="180.43010752688173" cy="287.8532110091743" r="4" fill="#3b82f6" stroke="#0d1117" stroke-width="2" class="data-point"/>
  
    <circle cx="187.9569892473118" cy="285.20183486238534" r="4" fill="#3b82f6" stroke="#0d1117" stroke-width="2" class="data-point"/>
  
    <circle cx="195.48387096774192" cy="281.5321100917431" r="4" fill="#3b82f6" stroke="#0d1117" stroke-width="2" class="data-point"/>
  
    <circle cx="203.01075268817206" cy="277.29357798165137" r="4" fill="#3b82f6" stroke="#0d1117" stroke-width="2" class="data-point"/>
  
    <circle cx="210.53763440860214" cy="274.10091743119267" r="4" fill="#3b82f6" stroke="#0d1117" stroke-width="2" class="data-point"/>
  
    <circle cx="218.06451612903226" cy="271.4770642201835" r="4" fill="#3b82f6" stroke="#0d1117" stroke-width="2" class="data-point"/>
  
    <circle cx="225.59139784946237" cy="269.7798165137615" r="4" fill="#3b82f6" stroke="#0d1117" stroke-width="2" class="data-point"/>
  
    <circle cx="233.11827956989248" cy="268.3669724770642" r="4" fill="#3b82f6" stroke="#0d1117" stroke-width="2" class="data-point"/>
  
    <circle cx="240.64516129032256" cy="265.7522935779817" r="4" fill="#3b82f6" stroke="#0d1117" stroke-width="2" class="data-point"/>
  
    <circle cx="248.17204301075267" cy="263.88990825688074" r="4" fill="#3b82f6" stroke="#0d1117" stroke-width="2" class="data-point"/>
  
    <circle cx="255.69892473118279" cy="259.8073394495413" r="4" fill="#3b82f6" stroke="#0d1117" stroke-width="2" class="data-point"/>
  
    <circle cx="263.2258064516129" cy="258.20183486238534" r="4" fill="#3b82f6" stroke="#0d1117" stroke-width="2" class="data-point"/>
  
    <circle cx="270.752688172043" cy="256.1284403669725" r="4" fill="#3b82f6" stroke="#0d1117" stroke-width="2" class="data-point"/>
  
    <circle cx="278.2795698924731" cy="253.44954128440367" r="4" fill="#3b82f6" stroke="#0d1117" stroke-width="2" class="data-point"/>
  
    <circle cx="285.80645161290323" cy="251.61467889908258" r="4" fill="#3b82f6" stroke="#0d1117" stroke-width="2" class="data-point"/>
  
    <circle cx="293.3333333333333" cy="249.75229357798167" r="4" fill="#3b82f6" stroke="#0d1117" stroke-width="2" class="data-point"/>
  
    <circle cx="300.86021505376345" cy="247.79816513761466" r="4" fill="#3b82f6" stroke="#0d1117" stroke-width="2" class="data-point"/>
  
    <circle cx="308.38709677419354" cy="246.44036697247708" r="4" fill="#3b82f6" stroke="#0d1117" stroke-width="2" class="data-point"/>
  
    <circle cx="315.9139784946236" cy="245.26605504587155" r="4" fill="#3b82f6" stroke="#0d1117" stroke-width="2" class="data-point"/>
  
    <circle cx="323.44086021505376" cy="243.47706422018348" r="4" fill="#3b82f6" stroke="#0d1117" stroke-width="2" class="data-point"/>
  
    <circle cx="330.96774193548384" cy="241.30275229357798" r="4" fill="#3b82f6" stroke="#0d1117" stroke-width="2" class="data-point"/>
  
    <circle cx="338.494623655914" cy="239.30275229357798" r="4" fill="#3b82f6" stroke="#0d1117" stroke-width="2" class="data-point"/>
  
    <circle cx="346.0215053763441" cy="236.77064220183485" r="4" fill="#3b82f6" stroke="#0d1117" stroke-width="2" class="data-point"/>
  
    <circle cx="353.5483870967742" cy="234.00917431192659" r="4" fill="#3b82f6" stroke="#0d1117" stroke-width="2" class="data-point"/>
  
    <circle cx="361.0752688172043" cy="231.47706422018348" r="4" fill="#3b82f6" stroke="#0d1117" stroke-width="2" class="data-point"/>
  
    <circle cx="368.60215053763443" cy="228.42201834862385" r="4" fill="#3b82f6" stroke="#0d1117" stroke-width="2" class="data-point"/>
  
    <circle cx="376.1290322580645" cy="225.42201834862385" r="4" fill="#3b82f6" stroke="#0d1117" stroke-width="2" class="data-point"/>
  
    <circle cx="383.6559139784946" cy="222.42201834862385" r="4" fill="#3b82f6" stroke="#0d1117" stroke-width="2" class="data-point"/>
  
    <circle cx="391.18279569892474" cy="219.13761467889907" r="4" fill="#3b82f6" stroke="#0d1117" stroke-width="2" class="data-point"/>
  
    <circle cx="398.7096774193549" cy="216" r="4" fill="#3b82f6" stroke="#0d1117" stroke-width="2" class="data-point"/>
  
    <circle cx="406.23655913978496" cy="212.41284403669727" r="4" fill="#3b82f6" stroke="#0d1117" stroke-width="2" class="data-point"/>
  
    <circle cx="413.76344086021504" cy="209.21100917431193" r="4" fill="#3b82f6" stroke="#0d1117" stroke-width="2" class="data-point"/>
  
    <circle cx="421.2903225806451" cy="206.5045871559633" r="4" fill="#3b82f6" stroke="#0d1117" stroke-width="2" class="data-point"/>
  
    <circle cx="428.81720430107526" cy="204.3394495412844" r="4" fill="#3b82f6" stroke="#0d1117" stroke-width="2" class="data-point"/>
  
    <circle cx="436.34408602150535" cy="201.3119266055046" r="4" fill="#3b82f6" stroke="#0d1117" stroke-width="2" class="data-point"/>
  
    <circle cx="443.87096774193543" cy="197.85321100917432" r="4" fill="#3b82f6" stroke="#0d1117" stroke-width="2" class="data-point"/>
  
    <circle cx="451.39784946236557" cy="194.68807339449543" r="4" fill="#3b82f6" stroke="#0d1117" stroke-width="2" class="data-point"/>
  
    <circle cx="458.9247311827957" cy="190.9908256880734" r="4" fill="#3b82f6" stroke="#0d1117" stroke-width="2" class="data-point"/>
  
    <circle cx="466.45161290322585" cy="186.43119266055044" r="4" fill="#3b82f6" stroke="#0d1117" stroke-width="2" class="data-point"/>
  
    <circle cx="473.97849462365593" cy="183.0366972477064" r="4" fill="#3b82f6" stroke="#0d1117" stroke-width="2" class="data-point"/>
  
    <circle cx="481.505376344086" cy="180.22018348623854" r="4" fill="#3b82f6" stroke="#0d1117" stroke-width="2" class="data-point"/>
  
    <circle cx="489.03225806451616" cy="177.54128440366972" r="4" fill="#3b82f6" stroke="#0d1117" stroke-width="2" class="data-point"/>
  
    <circle cx="496.55913978494624" cy="174.32110091743118" r="4" fill="#3b82f6" stroke="#0d1117" stroke-width="2" class="data-point"/>
  
    <circle cx="504.0860215053763" cy="170.57798165137615" r="4" fill="#3b82f6" stroke="#0d1117" stroke-width="2" class="data-point"/>
  
    <circle cx="511.61290322580646" cy="166.43119266055044" r="4" fill="#3b82f6" stroke="#0d1117" stroke-width="2" class="data-point"/>
  
    <circle cx="519.1397849462365" cy="162.07339449541283" r="4" fill="#3b82f6" stroke="#0d1117" stroke-width="2" class="data-point"/>
  
    <circle cx="526.6666666666666" cy="157.88990825688072" r="4" fill="#3b82f6" stroke="#0d1117" stroke-width="2" class="data-point"/>
  
    <circle cx="534.1935483870968" cy="154.21100917431193" r="4" fill="#3b82f6" stroke="#0d1117" stroke-width="2" class="data-point"/>
  
    <circle cx="541.7204301075269" cy="150.55963302752292" r="4" fill="#3b82f6" stroke="#0d1117" stroke-width="2" class="data-point"/>
  
    <circle cx="549.247311827957" cy="147.3394495412844" r="4" fill="#3b82f6" stroke="#0d1117" stroke-width="2" class="data-point"/>
  
    <circle cx="556.7741935483871" cy="144.05504587155966" r="4" fill="#3b82f6" stroke="#0d1117" stroke-width="2" class="data-point"/>
  
    <circle cx="564.3010752688172" cy="140.38532110091742" r="4" fill="#3b82f6" stroke="#0d1117" stroke-width="2" class="data-point"/>
  
    <circle cx="571.8279569892472" cy="135.8165137614679" r="4" fill="#3b82f6" stroke="#0d1117" stroke-width="2" class="data-point"/>
  
    <circle cx="579.3548387096774" cy="132.41284403669724" r="4" fill="#3b82f6" stroke="#0d1117" stroke-width="2" class="data-point"/>
  
    <circle cx="586.8817204301075" cy="129.36697247706422" r="4" fill="#3b82f6" stroke="#0d1117" stroke-width="2" class="data-point"/>
  
    <circle cx="594.4086021505376" cy="125.9816513761468" r="4" fill="#3b82f6" stroke="#0d1117" stroke-width="2" class="data-point"/>
  
    <circle cx="601.9354838709677" cy="122.8256880733945" r="4" fill="#3b82f6" stroke="#0d1117" stroke-width="2" class="data-point"/>
  
    <circle cx="609.4623655913979" cy="119.35779816513761" r="4" fill="#3b82f6" stroke="#0d1117" stroke-width="2" class="data-point"/>
  
    <circle cx="616.989247311828" cy="115.74311926605506" r="4" fill="#3b82f6" stroke="#0d1117" stroke-width="2" class="data-point"/>
  
    <circle cx="624.516129032258" cy="111.9633027522936" r="4" fill="#3b82f6" stroke="#0d1117" stroke-width="2" class="data-point"/>
  
    <circle cx="632.0430107526882" cy="108.65137614678898" r="4" fill="#3b82f6" stroke="#0d1117" stroke-width="2" class="data-point"/>
  
    <circle cx="639.5698924731183" cy="105.81651376146789" r="4" fill="#3b82f6" stroke="#0d1117" stroke-width="2" class="data-point"/>
  
    <circle cx="647.0967741935484" cy="102.7064220183486" r="4" fill="#3b82f6" stroke="#0d1117" stroke-width="2" class="data-point"/>
  
    <circle cx="654.6236559139785" cy="99.33944954128441" r="4" fill="#3b82f6" stroke="#0d1117" stroke-width="2" class="data-point"/>
  
    <circle cx="662.1505376344086" cy="96.22018348623851" r="4" fill="#3b82f6" stroke="#0d1117" stroke-width="2" class="data-point"/>
  
    <circle cx="669.6774193548387" cy="92.1559633027523" r="4" fill="#3b82f6" stroke="#0d1117" stroke-width="2" class="data-point"/>
  
    <circle cx="677.2043010752689" cy="88.66055045871562" r="4" fill="#3b82f6" stroke="#0d1117" stroke-width="2" class="data-point"/>
  
    <circle cx="684.7311827956989" cy="85.29357798165137" r="4" fill="#3b82f6" stroke="#0d1117" stroke-width="2" class="data-point"/>
  
    <circle cx="692.258064516129" cy="82.49541284403671" r="4" fill="#3b82f6" stroke="#0d1117" stroke-width="2" class="data-point"/>
  
    <circle cx="699.7849462365591" cy="79.77981651376143" r="4" fill="#3b82f6" stroke="#0d1117" stroke-width="2" class="data-point"/>
  
    <circle cx="707.3118279569892" cy="77.05504587155963" r="4" fill="#3b82f6" stroke="#0d1117" stroke-width="2" class="data-point"/>
  
    <circle cx="714.8387096774193" cy="73.79816513761466" r="4" fill="#3b82f6" stroke="#0d1117" stroke-width="2" class="data-point"/>
  
    <circle cx="722.3655913978495" cy="70.44954128440367" r="4" fill="#3b82f6" stroke="#0d1117" stroke-width="2" class="data-point"/>
  
    <circle cx="729.8924731182796" cy="66.38532110091745" r="4" fill="#3b82f6" stroke="#0d1117" stroke-width="2" class="data-point"/>
  
    <circle cx="737.4193548387098" cy="63.09174311926603" r="4" fill="#3b82f6" stroke="#0d1117" stroke-width="2" class="data-point"/>
  
    <circle cx="744.9462365591398" cy="60.40366972477062" r="4" fill="#3b82f6" stroke="#0d1117" stroke-width="2" class="data-point"/>
  
    <circle cx="752.4731182795699" cy="57.64220183486236" r="4" fill="#3b82f6" stroke="#0d1117" stroke-width="2" class="data-point"/>
  
    <circle cx="760" cy="55" r="4" fill="#3b82f6" stroke="#0d1117" stroke-width="2" class="data-point"/>
  

  <!-- Axis lines -->
  <line x1="60" y1="55" x2="60" y2="340"
        stroke="#30363d" stroke-width="2"/>
  <line x1="60" y1="340" x2="760" y2="340"
        stroke="#30363d" stroke-width="2"/>
</svg>