<?xml version="1.0" encoding="UTF-8"?>
<svg width="800" height="400" xmlns="http://www.w3.org/2000/svg">
  <defs>
    <!-- Gradient for area fill -->
    <linearGradient id="areaGradient" x1="0%" y1="0%" x2="0%" y2="100%">
      <stop offset="0%" style="stop-color:#3b82f6;stop-opacity:0.3" />
      <stop offset="100%" style="stop-color:#3b82f6;stop-opacity:0.05" />
    </linearGradient>

    <!-- Glow filter for line -->
    <filter id="glow">
      <feGaussianBlur stdDeviation="2" result="coloredBlur"/>
      <feMerge>
        <feMergeNode in="coloredBlur"/>
        <feMergeNode in="SourceGraphic"/>
      </feMerge>
    </filter>

    <!-- Animation -->
    <style>
      @keyframes draw {
        from { stroke-dashoffset: 2000; }
        to { stroke-dashoffset: 0; }
      }
      @keyframes fadeIn {
        from { opacity: 0; }
        to { opacity: 1; }
      }
      .line-path {
        stroke-dasharray: 2000;
        stroke-dashoffset: 2000;
        animation: draw 1.5s ease-out forwards;
      }
      .area-path {
        opacity: 0;
        animation: fadeIn 1s ease-out 0.5s forwards;
      }
      .data-point {
        opacity: 0;
        animation: fadeIn 0.5s ease-out 1s forwards;
      }
    </style>
  </defs>

  <!-- Background -->
  <rect width="800" height="400" fill="#0d1117" rx="8"/>

  <!-- Title -->
  <text x="400" y="25" text-anchor="middle" fill="#c9d1d9" font-family="system-ui, -apple-system, sans-serif" font-size="16" font-weight="600">
    zxcloli666/SoundCloud-Desktop Downloads
  </text>

  <!-- Stats -->
  <text x="780" y="25" text-anchor="end" fill="#58a6ff" font-family="system-ui, -apple-system, sans-serif" font-size="14" font-weight="600">
    100.2K total
  </text>
  <text x="780" y="42" text-anchor="end" fill="#3fb950" font-family="system-ui, -apple-system, sans-serif" font-size="12">
    +1.3K (+1.3%)
  </text>

  <!-- Grid lines -->
  <g opacity="0.1">
    
      <line x1="60" y1="340" x2="760" y2="340"
            stroke="#c9d1d9" stroke-width="1"/>
    
      <line x1="60" y1="268.75" x2="760" y2="268.75"
            stroke="#c9d1d9" stroke-width="1"/>
    
      <line x1="60" y1="197.5" x2="760" y2="197.5"
            stroke="#c9d1d9" stroke-width="1"/>
    
      <line x1="60" y1="126.25" x2="760" y2="126.25"
            stroke="#c9d1d9" stroke-width="1"/>
    
      <line x1="60" y1="55" x2="760" y2="55"
            stroke="#c9d1d9" stroke-width="1"/>
    
  </g>

  <!-- Y-axis labels -->
  
    <text x="50" y="344" text-anchor="end"
          fill="#8b949e" font-family="system-ui, -apple-system, sans-serif" font-size="11">
      60.2K
    </text>
  
    <text x="50" y="272.75" text-anchor="end"
          fill="#8b949e" font-family="system-ui, -apple-system, sans-serif" font-size="11">
      70.2K
    </text>
  
    <text x="50" y="201.5" text-anchor="end"
          fill="#8b949e" font-family="system-ui, -apple-system, sans-serif" font-size="11">
      80.2K
    </text>
  
    <text x="50" y="130.25" text-anchor="end"
          fill="#8b949e" font-family="system-ui, -apple-system, sans-serif" font-size="11">
      90.2K
    </text>
  
    <text x="50" y="59" text-anchor="end"
          fill="#8b949e" font-family="system-ui, -apple-system, sans-serif" font-size="11">
      100.2K
    </text>
  

  <!-- X-axis labels -->
  
    <text x="60" y="360" text-anchor="middle"
          fill="#8b949e" font-family="system-ui, -apple-system, sans-serif" font-size="11">
      Nov 25
    </text>
  
    <text x="143.16831683168317" y="360" text-anchor="middle"
          fill="#8b949e" font-family="system-ui, -apple-system, sans-serif" font-size="11">
      Dec 7
    </text>
  
    <text x="226.33663366336634" y="360" text-anchor="middle"
          fill="#8b949e" font-family="system-ui, -apple-system, sans-serif" font-size="11">
      Dec 19
    </text>
  
    <text x="309.50495049504946" y="360" text-anchor="middle"
          fill="#8b949e" font-family="system-ui, -apple-system, sans-serif" font-size="11">
      Dec 31
    </text>
  
    <text x="392.6732673267327" y="360" text-anchor="middle"
          fill="#8b949e" font-family="system-ui, -apple-system, sans-serif" font-size="11">
      Jan 12
    </text>
  
    <text x="475.8415841584158" y="360" text-anchor="middle"
          fill="#8b949e" font-family="system-ui, -apple-system, sans-serif" font-size="11">
      Jan 24
    </text>
  
    <text x="559.0099009900989" y="360" text-anchor="middle"
          fill="#8b949e" font-family="system-ui, -apple-system, sans-serif" font-size="11">
      Feb 5
    </text>
  
    <text x="642.1782178217821" y="360" text-anchor="middle"
          fill="#8b949e" font-family="system-ui, -apple-system, sans-serif" font-size="11">
      Feb 17
    </text>
  
    <text x="725.3465346534654" y="360" text-anchor="middle"
          fill="#8b949e" font-family="system-ui, -apple-system, sans-serif" font-size="11">
      Mar 1
    </text>
  
    <text x="760" y="360" text-anchor="middle"
          fill="#8b949e" font-family="system-ui, -apple-system, sans-serif" font-size="11">
      Mar 6
    </text>
  

  <!-- Area under line -->
  <path d="M 60 340
    L 60.00 340.00 L 66.93 338.95 L 73.86 337.18 L 80.79 335.53 L 87.72 332.25 L 94.65 328.86 L 101.58 326.19 L 108.51 323.71 L 115.45 321.49 L 122.38 318.90 L 129.31 316.00 L 136.24 312.90 L 143.17 310.09 L 150.10 307.09 L 157.03 304.91 L 163.96 302.65 L 170.89 299.57 L 177.82 297.52 L 184.75 294.67 L 191.68 291.39 L 198.61 288.91 L 205.54 286.88 L 212.48 285.56 L 219.41 284.47 L 226.34 282.44 L 233.27 281.00 L 240.20 277.83 L 247.13 276.59 L 254.06 274.98 L 260.99 272.90 L 267.92 271.48 L 274.85 270.04 L 281.78 268.52 L 288.71 267.47 L 295.64 266.56 L 302.57 265.17 L 309.50 263.49 L 316.44 261.93 L 323.37 259.97 L 330.30 257.83 L 337.23 255.87 L 344.16 253.50 L 351.09 251.17 L 358.02 248.85 L 364.95 246.30 L 371.88 243.87 L 378.81 241.09 L 385.74 238.61 L 392.67 236.51 L 399.60 234.83 L 406.53 232.48 L 413.47 229.80 L 420.40 227.35 L 427.33 224.48 L 434.26 220.95 L 441.19 218.31 L 448.12 216.13 L 455.05 214.05 L 461.98 211.56 L 468.91 208.66 L 475.84 205.44 L 482.77 202.06 L 489.70 198.82 L 496.63 195.97 L 503.56 193.14 L 510.50 190.64 L 517.43 188.09 L 524.36 185.25 L 531.29 181.71 L 538.22 179.07 L 545.15 176.71 L 552.08 174.08 L 559.01 171.64 L 565.94 168.95 L 572.87 166.15 L 579.80 163.21 L 586.73 160.65 L 593.66 158.45 L 600.59 156.04 L 607.52 153.43 L 614.46 151.01 L 621.39 147.86 L 628.32 145.15 L 635.25 142.54 L 642.18 140.37 L 649.11 138.26 L 656.04 136.15 L 662.97 133.63 L 669.90 131.03 L 676.83 127.88 L 683.76 125.33 L 690.69 123.24 L 697.62 121.10 L 704.55 119.05 L 711.49 116.52 L 718.42 113.93 L 725.35 108.19 L 732.28 96.76 L 739.21 83.16 L 746.14 70.76 L 753.07 64.47 L 760.00 55.00
    L 760 340
    Z" fill="url(#areaGradient)" class="area-path"/>

  <!-- Main line with glow -->
  <path d="M 60.00 340.00 L 66.93 338.95 L 73.86 337.18 L 80.79 335.53 L 87.72 332.25 L 94.65 328.86 L 101.58 326.19 L 108.51 323.71 L 115.45 321.49 L 122.38 318.90 L 129.31 316.00 L 136.24 312.90 L 143.17 310.09 L 150.10 307.09 L 157.03 304.91 L 163.96 302.65 L 170.89 299.57 L 177.82 297.52 L 184.75 294.67 L 191.68 291.39 L 198.61 288.91 L 205.54 286.88 L 212.48 285.56 L 219.41 284.47 L 226.34 282.44 L 233.27 281.00 L 240.20 277.83 L 247.13 276.59 L 254.06 274.98 L 260.99 272.90 L 267.92 271.48 L 274.85 270.04 L 281.78 268.52 L 288.71 267.47 L 295.64 266.56 L 302.57 265.17 L 309.50 263.49 L 316.44 261.93 L 323.37 259.97 L 330.30 257.83 L 337.23 255.87 L 344.16 253.50 L 351.09 251.17 L 358.02 248.85 L 364.95 246.30 L 371.88 243.87 L 378.81 241.09 L 385.74 238.61 L 392.67 236.51 L 399.60 234.83 L 406.53 232.48 L 413.47 229.80 L 420.40 227.35 L 427.33 224.48 L 434.26 220.95 L 441.19 218.31 L 448.12 216.13 L 455.05 214.05 L 461.98 211.56 L 468.91 208.66 L 475.84 205.44 L 482.77 202.06 L 489.70 198.82 L 496.63 195.97 L 503.56 193.14 L 510.50 190.64 L 517.43 188.09 L 524.36 185.25 L 531.29 181.71 L 538.22 179.07 L 545.15 176.71 L 552.08 174.08 L 559.01 171.64 L 565.94 168.95 L 572.87 166.15 L 579.80 163.21 L 586.73 160.65 L 593.66 158.45 L 600.59 156.04 L 607.52 153.43 L 614.46 151.01 L 621.39 147.86 L 628.32 145.15 L 635.25 142.54 L 642.18 140.37 L 649.11 138.26 L 656.04 136.15 L 662.97 133.63 L 669.90 131.03 L 676.83 127.88 L 683.76 125.33 L 690.69 123.24 L 697.62 121.10 L 704.55 119.05 L 711.49 116.52 L 718.42 113.93 L 725.35 108.19 L 732.28 96.76 L 739.21 83.16 L 746.14 70.76 L 753.07 64.47 L 760.00 55.00" fill="none" stroke="#3b82f6" stroke-width="3"
        stroke-linecap="round" stroke-linejoin="round" filter="url(#glow)" class="line-path"/>

  <!-- Data points -->
  
    <circle cx="60" cy="340" r="4" fill="#3b82f6" stroke="#0d1117" stroke-width="2" class="data-point"/>
  
    <circle cx="66.93069306930693" cy="338.95448079658604" r="4" fill="#3b82f6" stroke="#0d1117" stroke-width="2" class="data-point"/>
  
    <circle cx="73.86138613861387" cy="337.176386913229" r="4" fill="#3b82f6" stroke="#0d1117" stroke-width="2" class="data-point"/>
  
    <circle cx="80.79207920792079" cy="335.5263157894737" r="4" fill="#3b82f6" stroke="#0d1117" stroke-width="2" class="data-point"/>
  
    <circle cx="87.72277227722772" cy="332.2475106685633" r="4" fill="#3b82f6" stroke="#0d1117" stroke-width="2" class="data-point"/>
  
    <circle cx="94.65346534653466" cy="328.8620199146515" r="4" fill="#3b82f6" stroke="#0d1117" stroke-width="2" class="data-point"/>
  
    <circle cx="101.58415841584159" cy="326.19487908961594" r="4" fill="#3b82f6" stroke="#0d1117" stroke-width="2" class="data-point"/>
  
    <circle cx="108.51485148514851" cy="323.7055476529161" r="4" fill="#3b82f6" stroke="#0d1117" stroke-width="2" class="data-point"/>
  
    <circle cx="115.44554455445544" cy="321.4935988620199" r="4" fill="#3b82f6" stroke="#0d1117" stroke-width="2" class="data-point"/>
  
    <circle cx="122.37623762376236" cy="318.89758179231865" r="4" fill="#3b82f6" stroke="#0d1117" stroke-width="2" class="data-point"/>
  
    <circle cx="129.30693069306932" cy="316.0028449502134" r="4" fill="#3b82f6" stroke="#0d1117" stroke-width="2" class="data-point"/>
  
    <circle cx="136.23762376237624" cy="312.9018492176387" r="4" fill="#3b82f6" stroke="#0d1117" stroke-width="2" class="data-point"/>
  
    <circle cx="143.16831683168317" cy="310.08534850640115" r="4" fill="#3b82f6" stroke="#0d1117" stroke-width="2" class="data-point"/>
  
    <circle cx="150.0990099009901" cy="307.09103840682786" r="4" fill="#3b82f6" stroke="#0d1117" stroke-width="2" class="data-point"/>
  
    <circle cx="157.02970297029702" cy="304.9075391180654" r="4" fill="#3b82f6" stroke="#0d1117" stroke-width="2" class="data-point"/>
  
    <circle cx="163.96039603960395" cy="302.64580369843526" r="4" fill="#3b82f6" stroke="#0d1117" stroke-width="2" class="data-point"/>
  
    <circle cx="170.89108910891088" cy="299.5732574679943" r="4" fill="#3b82f6" stroke="#0d1117" stroke-width="2" class="data-point"/>
  
    <circle cx="177.82178217821783" cy="297.5177809388336" r="4" fill="#3b82f6" stroke="#0d1117" stroke-width="2" class="data-point"/>
  
    <circle cx="184.75247524752473" cy="294.6728307254623" r="4" fill="#3b82f6" stroke="#0d1117" stroke-width="2" class="data-point"/>
  
    <circle cx="191.68316831683168" cy="291.3869132290185" r="4" fill="#3b82f6" stroke="#0d1117" stroke-width="2" class="data-point"/>
  
    <circle cx="198.6138613861386" cy="288.91180654338547" r="4" fill="#3b82f6" stroke="#0d1117" stroke-width="2" class="data-point"/>
  
    <circle cx="205.54455445544554" cy="286.87766714082505" r="4" fill="#3b82f6" stroke="#0d1117" stroke-width="2" class="data-point"/>
  
    <circle cx="212.47524752475246" cy="285.56187766714083" r="4" fill="#3b82f6" stroke="#0d1117" stroke-width="2" class="data-point"/>
  
    <circle cx="219.40594059405942" cy="284.46657183499286" r="4" fill="#3b82f6" stroke="#0d1117" stroke-width="2" class="data-point"/>
  
    <circle cx="226.33663366336634" cy="282.43954480796583" r="4" fill="#3b82f6" stroke="#0d1117" stroke-width="2" class="data-point"/>
  
    <circle cx="233.26732673267327" cy="280.99573257467995" r="4" fill="#3b82f6" stroke="#0d1117" stroke-width="2" class="data-point"/>
  
    <circle cx="240.1980198019802" cy="277.83072546230443" r="4" fill="#3b82f6" stroke="#0d1117" stroke-width="2" class="data-point"/>
  
    <circle cx="247.12871287128715" cy="276.5860597439545" r="4" fill="#3b82f6" stroke="#0d1117" stroke-width="2" class="data-point"/>
  
    <circle cx="254.05940594059408" cy="274.9786628733997" r="4" fill="#3b82f6" stroke="#0d1117" stroke-width="2" class="data-point"/>
  
    <circle cx="260.990099009901" cy="272.9018492176387" r="4" fill="#3b82f6" stroke="#0d1117" stroke-width="2" class="data-point"/>
  
    <circle cx="267.9207920792079" cy="271.4793741109531" r="4" fill="#3b82f6" stroke="#0d1117" stroke-width="2" class="data-point"/>
  
    <circle cx="274.8514851485148" cy="270.03556187766713" r="4" fill="#3b82f6" stroke="#0d1117" stroke-width="2" class="data-point"/>
  
    <circle cx="281.78217821782175" cy="268.5206258890469" r="4" fill="#3b82f6" stroke="#0d1117" stroke-width="2" class="data-point"/>
  
    <circle cx="288.71287128712873" cy="267.4679943100996" r="4" fill="#3b82f6" stroke="#0d1117" stroke-width="2" class="data-point"/>
  
    <circle cx="295.64356435643566" cy="266.5576102418208" r="4" fill="#3b82f6" stroke="#0d1117" stroke-width="2" class="data-point"/>
  
    <circle cx="302.57425742574253" cy="265.1706970128023" r="4" fill="#3b82f6" stroke="#0d1117" stroke-width="2" class="data-point"/>
  
    <circle cx="309.50495049504946" cy="263.4850640113798" r="4" fill="#3b82f6" stroke="#0d1117" stroke-width="2" class="data-point"/>
  
    <circle cx="316.43564356435644" cy="261.9345661450925" r="4" fill="#3b82f6" stroke="#0d1117" stroke-width="2" class="data-point"/>
  
    <circle cx="323.36633663366337" cy="259.9715504978663" r="4" fill="#3b82f6" stroke="#0d1117" stroke-width="2" class="data-point"/>
  
    <circle cx="330.2970297029703" cy="257.83072546230443" r="4" fill="#3b82f6" stroke="#0d1117" stroke-width="2" class="data-point"/>
  
    <circle cx="337.2277227722772" cy="255.86770981507823" r="4" fill="#3b82f6" stroke="#0d1117" stroke-width="2" class="data-point"/>
  
    <circle cx="344.1584158415842" cy="253.49928876244667" r="4" fill="#3b82f6" stroke="#0d1117" stroke-width="2" class="data-point"/>
  
    <circle cx="351.08910891089107" cy="251.17354196301565" r="4" fill="#3b82f6" stroke="#0d1117" stroke-width="2" class="data-point"/>
  
    <circle cx="358.019801980198" cy="248.84779516358464" r="4" fill="#3b82f6" stroke="#0d1117" stroke-width="2" class="data-point"/>
  
    <circle cx="364.9504950495049" cy="246.30156472261734" r="4" fill="#3b82f6" stroke="#0d1117" stroke-width="2" class="data-point"/>
  
    <circle cx="371.8811881188119" cy="243.86913229018492" r="4" fill="#3b82f6" stroke="#0d1117" stroke-width="2" class="data-point"/>
  
    <circle cx="378.81188118811883" cy="241.0881934566145" r="4" fill="#3b82f6" stroke="#0d1117" stroke-width="2" class="data-point"/>
  
    <circle cx="385.74257425742576" cy="238.60597439544807" r="4" fill="#3b82f6" stroke="#0d1117" stroke-width="2" class="data-point"/>
  
    <circle cx="392.6732673267327" cy="236.50782361308677" r="4" fill="#3b82f6" stroke="#0d1117" stroke-width="2" class="data-point"/>
  
    <circle cx="399.6039603960396" cy="234.8293029871977" r="4" fill="#3b82f6" stroke="#0d1117" stroke-width="2" class="data-point"/>
  
    <circle cx="406.53465346534654" cy="232.48221906116643" r="4" fill="#3b82f6" stroke="#0d1117" stroke-width="2" class="data-point"/>
  
    <circle cx="413.46534653465346" cy="229.800853485064" r="4" fill="#3b82f6" stroke="#0d1117" stroke-width="2" class="data-point"/>
  
    <circle cx="420.3960396039604" cy="227.3470839260313" r="4" fill="#3b82f6" stroke="#0d1117" stroke-width="2" class="data-point"/>
  
    <circle cx="427.3267326732673" cy="224.48079658605974" r="4" fill="#3b82f6" stroke="#0d1117" stroke-width="2" class="data-point"/>
  
    <circle cx="434.2574257425743" cy="220.94594594594594" r="4" fill="#3b82f6" stroke="#0d1117" stroke-width="2" class="data-point"/>
  
    <circle cx="441.1881188118812" cy="218.31436699857753" r="4" fill="#3b82f6" stroke="#0d1117" stroke-width="2" class="data-point"/>
  
    <circle cx="448.11881188118815" cy="216.13086770981508" r="4" fill="#3b82f6" stroke="#0d1117" stroke-width="2" class="data-point"/>
  
    <circle cx="455.049504950495" cy="214.05405405405406" r="4" fill="#3b82f6" stroke="#0d1117" stroke-width="2" class="data-point"/>
  
    <circle cx="461.98019801980195" cy="211.55761024182075" r="4" fill="#3b82f6" stroke="#0d1117" stroke-width="2" class="data-point"/>
  
    <circle cx="468.9108910891089" cy="208.65576102418208" r="4" fill="#3b82f6" stroke="#0d1117" stroke-width="2" class="data-point"/>
  
    <circle cx="475.8415841584158" cy="205.44096728307255" r="4" fill="#3b82f6" stroke="#0d1117" stroke-width="2" class="data-point"/>
  
    <circle cx="482.7722772277228" cy="202.06258890469417" r="4" fill="#3b82f6" stroke="#0d1117" stroke-width="2" class="data-point"/>
  
    <circle cx="489.7029702970297" cy="198.8193456614509" r="4" fill="#3b82f6" stroke="#0d1117" stroke-width="2" class="data-point"/>
  
    <circle cx="496.63366336633663" cy="195.96728307254622" r="4" fill="#3b82f6" stroke="#0d1117" stroke-width="2" class="data-point"/>
  
    <circle cx="503.56435643564356" cy="193.13655761024182" r="4" fill="#3b82f6" stroke="#0d1117" stroke-width="2" class="data-point"/>
  
    <circle cx="510.4950495049505" cy="190.6401137980085" r="4" fill="#3b82f6" stroke="#0d1117" stroke-width="2" class="data-point"/>
  
    <circle cx="517.4257425742575" cy="188.09388335704125" r="4" fill="#3b82f6" stroke="#0d1117" stroke-width="2" class="data-point"/>
  
    <circle cx="524.3564356435644" cy="185.24893314367" r="4" fill="#3b82f6" stroke="#0d1117" stroke-width="2" class="data-point"/>
  
    <circle cx="531.2871287128713" cy="181.70697012802276" r="4" fill="#3b82f6" stroke="#0d1117" stroke-width="2" class="data-point"/>
  
    <circle cx="538.2178217821782" cy="179.0682788051209" r="4" fill="#3b82f6" stroke="#0d1117" stroke-width="2" class="data-point"/>
  
    <circle cx="545.1485148514851" cy="176.70697012802276" r="4" fill="#3b82f6" stroke="#0d1117" stroke-width="2" class="data-point"/>
  
    <circle cx="552.079207920792" cy="174.08250355618776" r="4" fill="#3b82f6" stroke="#0d1117" stroke-width="2" class="data-point"/>
  
    <circle cx="559.0099009900989" cy="171.6358463726885" r="4" fill="#3b82f6" stroke="#0d1117" stroke-width="2" class="data-point"/>
  
    <circle cx="565.9405940594058" cy="168.94736842105263" r="4" fill="#3b82f6" stroke="#0d1117" stroke-width="2" class="data-point"/>
  
    <circle cx="572.8712871287129" cy="166.14509246088193" r="4" fill="#3b82f6" stroke="#0d1117" stroke-width="2" class="data-point"/>
  
    <circle cx="579.8019801980198" cy="163.21479374110953" r="4" fill="#3b82f6" stroke="#0d1117" stroke-width="2" class="data-point"/>
  
    <circle cx="586.7326732673267" cy="160.64722617354198" r="4" fill="#3b82f6" stroke="#0d1117" stroke-width="2" class="data-point"/>
  
    <circle cx="593.6633663366337" cy="158.44950213371266" r="4" fill="#3b82f6" stroke="#0d1117" stroke-width="2" class="data-point"/>
  
    <circle cx="600.5940594059406" cy="156.03840682788052" r="4" fill="#3b82f6" stroke="#0d1117" stroke-width="2" class="data-point"/>
  
    <circle cx="607.5247524752475" cy="153.42816500711237" r="4" fill="#3b82f6" stroke="#0d1117" stroke-width="2" class="data-point"/>
  
    <circle cx="614.4554455445544" cy="151.0099573257468" r="4" fill="#3b82f6" stroke="#0d1117" stroke-width="2" class="data-point"/>
  
    <circle cx="621.3861386138614" cy="147.85917496443813" r="4" fill="#3b82f6" stroke="#0d1117" stroke-width="2" class="data-point"/>
  
    <circle cx="628.3168316831684" cy="145.149359886202" r="4" fill="#3b82f6" stroke="#0d1117" stroke-width="2" class="data-point"/>
  
    <circle cx="635.2475247524752" cy="142.53911806543385" r="4" fill="#3b82f6" stroke="#0d1117" stroke-width="2" class="data-point"/>
  
    <circle cx="642.1782178217821" cy="140.36984352773825" r="4" fill="#3b82f6" stroke="#0d1117" stroke-width="2" class="data-point"/>
  
    <circle cx="649.1089108910891" cy="138.26458036984351" r="4" fill="#3b82f6" stroke="#0d1117" stroke-width="2" class="data-point"/>
  
    <circle cx="656.039603960396" cy="136.15220483641536" r="4" fill="#3b82f6" stroke="#0d1117" stroke-width="2" class="data-point"/>
  
    <circle cx="662.9702970297029" cy="133.62731152204836" r="4" fill="#3b82f6" stroke="#0d1117" stroke-width="2" class="data-point"/>
  
    <circle cx="669.9009900990098" cy="131.03129445234708" r="4" fill="#3b82f6" stroke="#0d1117" stroke-width="2" class="data-point"/>
  
    <circle cx="676.8316831683169" cy="127.88051209103841" r="4" fill="#3b82f6" stroke="#0d1117" stroke-width="2" class="data-point"/>
  
    <circle cx="683.7623762376238" cy="125.32716927453768" r="4" fill="#3b82f6" stroke="#0d1117" stroke-width="2" class="data-point"/>
  
    <circle cx="690.6930693069307" cy="123.24324324324323" r="4" fill="#3b82f6" stroke="#0d1117" stroke-width="2" class="data-point"/>
  
    <circle cx="697.6237623762377" cy="121.10241820768135" r="4" fill="#3b82f6" stroke="#0d1117" stroke-width="2" class="data-point"/>
  
    <circle cx="704.5544554455446" cy="119.05405405405406" r="4" fill="#3b82f6" stroke="#0d1117" stroke-width="2" class="data-point"/>
  
    <circle cx="711.4851485148515" cy="116.52204836415362" r="4" fill="#3b82f6" stroke="#0d1117" stroke-width="2" class="data-point"/>
  
    <circle cx="718.4158415841583" cy="113.92603129445234" r="4" fill="#3b82f6" stroke="#0d1117" stroke-width="2" class="data-point"/>
  
    <circle cx="725.3465346534654" cy="108.18634423897583" r="4" fill="#3b82f6" stroke="#0d1117" stroke-width="2" class="data-point"/>
  
    <circle cx="732.2772277227723" cy="96.76386913229018" r="4" fill="#3b82f6" stroke="#0d1117" stroke-width="2" class="data-point"/>
  
    <circle cx="739.2079207920792" cy="83.15789473684208" r="4" fill="#3b82f6" stroke="#0d1117" stroke-width="2" class="data-point"/>
  
    <circle cx="746.1386138613861" cy="70.76102418207682" r="4" fill="#3b82f6" stroke="#0d1117" stroke-width="2" class="data-point"/>
  
    <circle cx="753.0693069306931" cy="64.4736842105263" r="4" fill="#3b82f6" stroke="#0d1117" stroke-width="2" class="data-point"/>
  
    <circle cx="760" cy="55" r="4" fill="#3b82f6" stroke="#0d1117" stroke-width="2" class="data-point"/>
  

  <!-- Axis lines -->
  <line x1="60" y1="55" x2="60" y2="340"
        stroke="#30363d" stroke-width="2"/>
  <line x1="60" y1="340" x2="760" y2="340"
        stroke="#30363d" stroke-width="2"/>
</svg>