<?xml version="1.0" encoding="UTF-8"?>
<svg width="800" height="400" xmlns="http://www.w3.org/2000/svg">
  <defs>
    <!-- Gradient for area fill -->
    <linearGradient id="areaGradient" x1="0%" y1="0%" x2="0%" y2="100%">
      <stop offset="0%" style="stop-color:#3b82f6;stop-opacity:0.3" />
      <stop offset="100%" style="stop-color:#3b82f6;stop-opacity:0.05" />
    </linearGradient>

    <!-- Glow filter for line -->
    <filter id="glow">
      <feGaussianBlur stdDeviation="2" result="coloredBlur"/>
      <feMerge>
        <feMergeNode in="coloredBlur"/>
        <feMergeNode in="SourceGraphic"/>
      </feMerge>
    </filter>

    <!-- Animation -->
    <style>
      @keyframes draw {
        from { stroke-dashoffset: 2000; }
        to { stroke-dashoffset: 0; }
      }
      @keyframes fadeIn {
        from { opacity: 0; }
        to { opacity: 1; }
      }
      .line-path {
        stroke-dasharray: 2000;
        stroke-dashoffset: 2000;
        animation: draw 1.5s ease-out forwards;
      }
      .area-path {
        opacity: 0;
        animation: fadeIn 1s ease-out 0.5s forwards;
      }
      .data-point {
        opacity: 0;
        animation: fadeIn 0.5s ease-out 1s forwards;
      }
    </style>
  </defs>

  <!-- Background -->
  <rect width="800" height="400" fill="#0d1117" rx="8"/>

  <!-- Title -->
  <text x="400" y="25" text-anchor="middle" fill="#c9d1d9" font-family="system-ui, -apple-system, sans-serif" font-size="16" font-weight="600">
    zxcloli666/SoundCloud-Desktop Downloads
  </text>

  <!-- Stats -->
  <text x="780" y="25" text-anchor="end" fill="#58a6ff" font-family="system-ui, -apple-system, sans-serif" font-size="14" font-weight="600">
    282.6K total
  </text>
  <text x="780" y="42" text-anchor="end" fill="#3fb950" font-family="system-ui, -apple-system, sans-serif" font-size="12">
    +883 (+0.3%)
  </text>

  <!-- Grid lines -->
  <g opacity="0.1">
    
      <line x1="60" y1="340" x2="760" y2="340"
            stroke="#c9d1d9" stroke-width="1"/>
    
      <line x1="60" y1="268.75" x2="760" y2="268.75"
            stroke="#c9d1d9" stroke-width="1"/>
    
      <line x1="60" y1="197.5" x2="760" y2="197.5"
            stroke="#c9d1d9" stroke-width="1"/>
    
      <line x1="60" y1="126.25" x2="760" y2="126.25"
            stroke="#c9d1d9" stroke-width="1"/>
    
      <line x1="60" y1="55" x2="760" y2="55"
            stroke="#c9d1d9" stroke-width="1"/>
    
  </g>

  <!-- Y-axis labels -->
  
    <text x="50" y="344" text-anchor="end"
          fill="#8b949e" font-family="system-ui, -apple-system, sans-serif" font-size="11">
      60.2K
    </text>
  
    <text x="50" y="272.75" text-anchor="end"
          fill="#8b949e" font-family="system-ui, -apple-system, sans-serif" font-size="11">
      115.8K
    </text>
  
    <text x="50" y="201.5" text-anchor="end"
          fill="#8b949e" font-family="system-ui, -apple-system, sans-serif" font-size="11">
      171.4K
    </text>
  
    <text x="50" y="130.25" text-anchor="end"
          fill="#8b949e" font-family="system-ui, -apple-system, sans-serif" font-size="11">
      227.0K
    </text>
  
    <text x="50" y="59" text-anchor="end"
          fill="#8b949e" font-family="system-ui, -apple-system, sans-serif" font-size="11">
      282.6K
    </text>
  

  <!-- X-axis labels -->
  
    <text x="60" y="360" text-anchor="middle"
          fill="#8b949e" font-family="system-ui, -apple-system, sans-serif" font-size="11">
      Nov 25
    </text>
  
    <text x="145.589519650655" y="360" text-anchor="middle"
          fill="#8b949e" font-family="system-ui, -apple-system, sans-serif" font-size="11">
      Dec 23
    </text>
  
    <text x="231.17903930131004" y="360" text-anchor="middle"
          fill="#8b949e" font-family="system-ui, -apple-system, sans-serif" font-size="11">
      Jan 20
    </text>
  
    <text x="316.7685589519651" y="360" text-anchor="middle"
          fill="#8b949e" font-family="system-ui, -apple-system, sans-serif" font-size="11">
      Feb 17
    </text>
  
    <text x="402.3580786026201" y="360" text-anchor="middle"
          fill="#8b949e" font-family="system-ui, -apple-system, sans-serif" font-size="11">
      Mar 17
    </text>
  
    <text x="487.9475982532751" y="360" text-anchor="middle"
          fill="#8b949e" font-family="system-ui, -apple-system, sans-serif" font-size="11">
      Apr 14
    </text>
  
    <text x="573.5371179039302" y="360" text-anchor="middle"
          fill="#8b949e" font-family="system-ui, -apple-system, sans-serif" font-size="11">
      May 12
    </text>
  
    <text x="659.1266375545852" y="360" text-anchor="middle"
          fill="#8b949e" font-family="system-ui, -apple-system, sans-serif" font-size="11">
      Jun 9
    </text>
  
    <text x="744.7161572052402" y="360" text-anchor="middle"
          fill="#8b949e" font-family="system-ui, -apple-system, sans-serif" font-size="11">
      Jul 7
    </text>
  
    <text x="760" y="360" text-anchor="middle"
          fill="#8b949e" font-family="system-ui, -apple-system, sans-serif" font-size="11">
      Jul 12
    </text>
  

  <!-- Area under line -->
  <path d="M 60 340
    L 60.00 340.00 L 63.06 339.81 L 66.11 339.49 L 69.17 339.19 L 72.23 338.60 L 75.28 337.99 L 78.34 337.51 L 81.40 337.07 L 84.45 336.67 L 87.51 336.20 L 90.57 335.68 L 93.62 335.12 L 96.68 334.61 L 99.74 334.07 L 102.79 333.68 L 105.85 333.27 L 108.91 332.72 L 111.97 332.35 L 115.02 331.84 L 118.08 331.24 L 121.14 330.80 L 124.19 330.43 L 127.25 330.20 L 130.31 330.00 L 133.36 329.63 L 136.42 329.37 L 139.48 328.80 L 142.53 328.58 L 145.59 328.29 L 148.65 327.92 L 151.70 327.66 L 154.76 327.40 L 157.82 327.13 L 160.87 326.94 L 163.93 326.77 L 166.99 326.52 L 170.04 326.22 L 173.10 325.94 L 176.16 325.59 L 179.21 325.20 L 182.27 324.85 L 185.33 324.42 L 188.38 324.00 L 191.44 323.58 L 194.50 323.12 L 197.55 322.69 L 200.61 322.19 L 203.67 321.74 L 206.72 321.36 L 209.78 321.06 L 212.84 320.64 L 215.90 320.15 L 218.95 319.71 L 222.01 319.20 L 225.07 318.56 L 228.12 318.08 L 231.18 317.69 L 234.24 317.32 L 237.29 316.87 L 240.35 316.35 L 243.41 315.77 L 246.46 315.16 L 249.52 314.57 L 252.58 314.06 L 255.63 313.55 L 258.69 313.10 L 261.75 312.64 L 264.80 312.13 L 267.86 311.49 L 270.92 311.02 L 273.97 310.59 L 277.03 310.12 L 280.09 309.68 L 283.14 309.19 L 286.20 308.69 L 289.26 308.16 L 292.31 307.70 L 295.37 307.30 L 298.43 306.87 L 301.48 306.40 L 304.54 305.96 L 307.60 305.40 L 310.66 304.91 L 313.71 304.44 L 316.77 304.05 L 319.83 303.67 L 322.88 303.29 L 325.94 302.83 L 329.00 302.36 L 332.05 301.80 L 335.11 301.34 L 338.17 300.96 L 341.22 300.58 L 344.28 300.21 L 347.34 299.75 L 350.39 299.28 L 353.45 298.25 L 356.51 296.19 L 359.56 293.74 L 362.62 291.51 L 365.68 290.38 L 368.73 288.67 L 371.79 287.54 L 374.85 286.54 L 377.90 285.57 L 380.96 284.66 L 384.02 283.23 L 387.07 282.10 L 390.13 280.65 L 393.19 280.36 L 396.24 280.32 L 399.30 280.27 L 402.36 280.23 L 405.41 280.17 L 408.47 280.12 L 411.53 280.10 L 414.59 280.03 L 417.64 279.96 L 420.70 279.92 L 423.76 279.90 L 426.81 279.83 L 429.87 277.97 L 432.93 275.06 L 435.98 273.11 L 439.04 270.85 L 442.10 268.52 L 445.15 266.69 L 448.21 264.64 L 451.27 261.53 L 454.32 257.33 L 457.38 254.59 L 460.44 251.32 L 463.49 247.69 L 466.55 244.77 L 469.61 241.61 L 472.66 238.80 L 475.72 236.02 L 478.78 233.25 L 481.83 229.47 L 484.89 225.68 L 487.95 222.53 L 491.00 219.88 L 494.06 217.31 L 497.12 213.91 L 500.17 211.26 L 503.23 208.65 L 506.29 206.20 L 509.34 203.90 L 512.40 201.54 L 515.46 199.52 L 518.52 197.43 L 521.57 195.30 L 524.63 193.05 L 527.69 190.98 L 530.74 189.08 L 533.80 185.65 L 536.86 182.78 L 539.91 180.02 L 542.97 177.37 L 546.03 173.18 L 549.08 170.54 L 552.14 168.24 L 555.20 165.54 L 558.25 161.55 L 561.31 158.68 L 564.37 156.25 L 567.42 154.20 L 570.48 152.26 L 573.54 150.68 L 576.59 148.89 L 579.65 147.44 L 582.71 145.73 L 585.76 143.26 L 588.82 141.14 L 591.88 139.30 L 594.93 137.70 L 597.99 136.06 L 601.05 134.67 L 604.10 132.34 L 607.16 130.35 L 610.22 128.38 L 613.28 126.75 L 616.33 125.25 L 619.39 123.92 L 622.45 121.64 L 625.50 119.79 L 628.56 118.11 L 631.62 116.50 L 634.67 115.09 L 637.73 113.73 L 640.79 112.48 L 643.84 111.28 L 646.90 110.18 L 649.96 108.81 L 653.01 107.34 L 656.07 105.98 L 659.13 103.88 L 662.18 102.35 L 665.24 100.89 L 668.30 99.60 L 671.35 98.10 L 674.41 96.25 L 677.47 94.62 L 680.52 93.15 L 683.58 91.57 L 686.64 89.38 L 689.69 87.58 L 692.75 85.65 L 695.81 83.73 L 698.86 81.94 L 701.92 80.19 L 704.98 78.33 L 708.03 76.66 L 711.09 75.20 L 714.15 73.85 L 717.21 72.42 L 720.26 71.02 L 723.32 69.76 L 726.38 68.49 L 729.43 67.28 L 732.49 66.08 L 735.55 64.88 L 738.60 63.82 L 741.66 62.59 L 744.72 61.32 L 747.77 59.87 L 750.83 58.48 L 753.89 57.23 L 756.94 56.13 L 760.00 55.00
    L 760 340
    Z" fill="url(#areaGradient)" class="area-path"/>

  <!-- Main line with glow -->
  <path d="M 60.00 340.00 L 63.06 339.81 L 66.11 339.49 L 69.17 339.19 L 72.23 338.60 L 75.28 337.99 L 78.34 337.51 L 81.40 337.07 L 84.45 336.67 L 87.51 336.20 L 90.57 335.68 L 93.62 335.12 L 96.68 334.61 L 99.74 334.07 L 102.79 333.68 L 105.85 333.27 L 108.91 332.72 L 111.97 332.35 L 115.02 331.84 L 118.08 331.24 L 121.14 330.80 L 124.19 330.43 L 127.25 330.20 L 130.31 330.00 L 133.36 329.63 L 136.42 329.37 L 139.48 328.80 L 142.53 328.58 L 145.59 328.29 L 148.65 327.92 L 151.70 327.66 L 154.76 327.40 L 157.82 327.13 L 160.87 326.94 L 163.93 326.77 L 166.99 326.52 L 170.04 326.22 L 173.10 325.94 L 176.16 325.59 L 179.21 325.20 L 182.27 324.85 L 185.33 324.42 L 188.38 324.00 L 191.44 323.58 L 194.50 323.12 L 197.55 322.69 L 200.61 322.19 L 203.67 321.74 L 206.72 321.36 L 209.78 321.06 L 212.84 320.64 L 215.90 320.15 L 218.95 319.71 L 222.01 319.20 L 225.07 318.56 L 228.12 318.08 L 231.18 317.69 L 234.24 317.32 L 237.29 316.87 L 240.35 316.35 L 243.41 315.77 L 246.46 315.16 L 249.52 314.57 L 252.58 314.06 L 255.63 313.55 L 258.69 313.10 L 261.75 312.64 L 264.80 312.13 L 267.86 311.49 L 270.92 311.02 L 273.97 310.59 L 277.03 310.12 L 280.09 309.68 L 283.14 309.19 L 286.20 308.69 L 289.26 308.16 L 292.31 307.70 L 295.37 307.30 L 298.43 306.87 L 301.48 306.40 L 304.54 305.96 L 307.60 305.40 L 310.66 304.91 L 313.71 304.44 L 316.77 304.05 L 319.83 303.67 L 322.88 303.29 L 325.94 302.83 L 329.00 302.36 L 332.05 301.80 L 335.11 301.34 L 338.17 300.96 L 341.22 300.58 L 344.28 300.21 L 347.34 299.75 L 350.39 299.28 L 353.45 298.25 L 356.51 296.19 L 359.56 293.74 L 362.62 291.51 L 365.68 290.38 L 368.73 288.67 L 371.79 287.54 L 374.85 286.54 L 377.90 285.57 L 380.96 284.66 L 384.02 283.23 L 387.07 282.10 L 390.13 280.65 L 393.19 280.36 L 396.24 280.32 L 399.30 280.27 L 402.36 280.23 L 405.41 280.17 L 408.47 280.12 L 411.53 280.10 L 414.59 280.03 L 417.64 279.96 L 420.70 279.92 L 423.76 279.90 L 426.81 279.83 L 429.87 277.97 L 432.93 275.06 L 435.98 273.11 L 439.04 270.85 L 442.10 268.52 L 445.15 266.69 L 448.21 264.64 L 451.27 261.53 L 454.32 257.33 L 457.38 254.59 L 460.44 251.32 L 463.49 247.69 L 466.55 244.77 L 469.61 241.61 L 472.66 238.80 L 475.72 236.02 L 478.78 233.25 L 481.83 229.47 L 484.89 225.68 L 487.95 222.53 L 491.00 219.88 L 494.06 217.31 L 497.12 213.91 L 500.17 211.26 L 503.23 208.65 L 506.29 206.20 L 509.34 203.90 L 512.40 201.54 L 515.46 199.52 L 518.52 197.43 L 521.57 195.30 L 524.63 193.05 L 527.69 190.98 L 530.74 189.08 L 533.80 185.65 L 536.86 182.78 L 539.91 180.02 L 542.97 177.37 L 546.03 173.18 L 549.08 170.54 L 552.14 168.24 L 555.20 165.54 L 558.25 161.55 L 561.31 158.68 L 564.37 156.25 L 567.42 154.20 L 570.48 152.26 L 573.54 150.68 L 576.59 148.89 L 579.65 147.44 L 582.71 145.73 L 585.76 143.26 L 588.82 141.14 L 591.88 139.30 L 594.93 137.70 L 597.99 136.06 L 601.05 134.67 L 604.10 132.34 L 607.16 130.35 L 610.22 128.38 L 613.28 126.75 L 616.33 125.25 L 619.39 123.92 L 622.45 121.64 L 625.50 119.79 L 628.56 118.11 L 631.62 116.50 L 634.67 115.09 L 637.73 113.73 L 640.79 112.48 L 643.84 111.28 L 646.90 110.18 L 649.96 108.81 L 653.01 107.34 L 656.07 105.98 L 659.13 103.88 L 662.18 102.35 L 665.24 100.89 L 668.30 99.60 L 671.35 98.10 L 674.41 96.25 L 677.47 94.62 L 680.52 93.15 L 683.58 91.57 L 686.64 89.38 L 689.69 87.58 L 692.75 85.65 L 695.81 83.73 L 698.86 81.94 L 701.92 80.19 L 704.98 78.33 L 708.03 76.66 L 711.09 75.20 L 714.15 73.85 L 717.21 72.42 L 720.26 71.02 L 723.32 69.76 L 726.38 68.49 L 729.43 67.28 L 732.49 66.08 L 735.55 64.88 L 738.60 63.82 L 741.66 62.59 L 744.72 61.32 L 747.77 59.87 L 750.83 58.48 L 753.89 57.23 L 756.94 56.13 L 760.00 55.00" fill="none" stroke="#3b82f6" stroke-width="3"
        stroke-linecap="round" stroke-linejoin="round" filter="url(#glow)" class="line-path"/>

  <!-- Data points -->
  
    <circle cx="60" cy="340" r="4" fill="#3b82f6" stroke="#0d1117" stroke-width="2" class="data-point"/>
  
    <circle cx="63.056768558951966" cy="339.8117027874909" r="4" fill="#3b82f6" stroke="#0d1117" stroke-width="2" class="data-point"/>
  
    <circle cx="66.11353711790393" cy="339.4914694328836" r="4" fill="#3b82f6" stroke="#0d1117" stroke-width="2" class="data-point"/>
  
    <circle cx="69.17030567685589" cy="339.194292879808" r="4" fill="#3b82f6" stroke="#0d1117" stroke-width="2" class="data-point"/>
  
    <circle cx="72.22707423580786" cy="338.6037825739121" r="4" fill="#3b82f6" stroke="#0d1117" stroke-width="2" class="data-point"/>
  
    <circle cx="75.28384279475982" cy="337.9940582667398" r="4" fill="#3b82f6" stroke="#0d1117" stroke-width="2" class="data-point"/>
  
    <circle cx="78.3406113537118" cy="337.5137082348288" r="4" fill="#3b82f6" stroke="#0d1117" stroke-width="2" class="data-point"/>
  
    <circle cx="81.39737991266375" cy="337.0653815383786" r="4" fill="#3b82f6" stroke="#0d1117" stroke-width="2" class="data-point"/>
  
    <circle cx="84.45414847161572" cy="336.66701124524707" r="4" fill="#3b82f6" stroke="#0d1117" stroke-width="2" class="data-point"/>
  
    <circle cx="87.51091703056768" cy="336.1994705475204" r="4" fill="#3b82f6" stroke="#0d1117" stroke-width="2" class="data-point"/>
  
    <circle cx="90.56768558951964" cy="335.6781306462197" r="4" fill="#3b82f6" stroke="#0d1117" stroke-width="2" class="data-point"/>
  
    <circle cx="93.62445414847161" cy="335.1196436757845" r="4" fill="#3b82f6" stroke="#0d1117" stroke-width="2" class="data-point"/>
  
    <circle cx="96.68122270742359" cy="334.6123940420865" r="4" fill="#3b82f6" stroke="#0d1117" stroke-width="2" class="data-point"/>
  
    <circle cx="99.73799126637554" cy="334.0731210729278" r="4" fill="#3b82f6" stroke="#0d1117" stroke-width="2" class="data-point"/>
  
    <circle cx="102.7947598253275" cy="333.67987451347005" r="4" fill="#3b82f6" stroke="#0d1117" stroke-width="2" class="data-point"/>
  
    <circle cx="105.85152838427948" cy="333.2725376864095" r="4" fill="#3b82f6" stroke="#0d1117" stroke-width="2" class="data-point"/>
  
    <circle cx="108.90829694323145" cy="332.7191744496481" r="4" fill="#3b82f6" stroke="#0d1117" stroke-width="2" class="data-point"/>
  
    <circle cx="111.96506550218342" cy="332.348984691722" r="4" fill="#3b82f6" stroke="#0d1117" stroke-width="2" class="data-point"/>
  
    <circle cx="115.02183406113537" cy="331.8366113243503" r="4" fill="#3b82f6" stroke="#0d1117" stroke-width="2" class="data-point"/>
  
    <circle cx="118.07860262008734" cy="331.244820085036" r="4" fill="#3b82f6" stroke="#0d1117" stroke-width="2" class="data-point"/>
  
    <circle cx="121.1353711790393" cy="330.7990552554226" r="4" fill="#3b82f6" stroke="#0d1117" stroke-width="2" class="data-point"/>
  
    <circle cx="124.19213973799127" cy="330.43270829775184" r="4" fill="#3b82f6" stroke="#0d1117" stroke-width="2" class="data-point"/>
  
    <circle cx="127.24890829694323" cy="330.1957356153424" r="4" fill="#3b82f6" stroke="#0d1117" stroke-width="2" class="data-point"/>
  
    <circle cx="130.3056768558952" cy="329.99847186890435" r="4" fill="#3b82f6" stroke="#0d1117" stroke-width="2" class="data-point"/>
  
    <circle cx="133.36244541484717" cy="329.633405844652" r="4" fill="#3b82f6" stroke="#0d1117" stroke-width="2" class="data-point"/>
  
    <circle cx="136.41921397379912" cy="329.37337636071084" r="4" fill="#3b82f6" stroke="#0d1117" stroke-width="2" class="data-point"/>
  
    <circle cx="139.4759825327511" cy="328.8033609895098" r="4" fill="#3b82f6" stroke="#0d1117" stroke-width="2" class="data-point"/>
  
    <circle cx="142.53275109170306" cy="328.57919764128474" r="4" fill="#3b82f6" stroke="#0d1117" stroke-width="2" class="data-point"/>
  
    <circle cx="145.589519650655" cy="328.2897066887197" r="4" fill="#3b82f6" stroke="#0d1117" stroke-width="2" class="data-point"/>
  
    <circle cx="148.64628820960698" cy="327.9156741305384" r="4" fill="#3b82f6" stroke="#0d1117" stroke-width="2" class="data-point"/>
  
    <circle cx="151.70305676855895" cy="327.6594874468525" r="4" fill="#3b82f6" stroke="#0d1117" stroke-width="2" class="data-point"/>
  
    <circle cx="154.75982532751092" cy="327.39945796291136" r="4" fill="#3b82f6" stroke="#0d1117" stroke-width="2" class="data-point"/>
  
    <circle cx="157.8165938864629" cy="327.12661914478593" r="4" fill="#3b82f6" stroke="#0d1117" stroke-width="2" class="data-point"/>
  
    <circle cx="160.87336244541484" cy="326.9370409988584" r="4" fill="#3b82f6" stroke="#0d1117" stroke-width="2" class="data-point"/>
  
    <circle cx="163.93013100436684" cy="326.77308152129945" r="4" fill="#3b82f6" stroke="#0d1117" stroke-width="2" class="data-point"/>
  
    <circle cx="166.9868995633188" cy="326.52329950470573" r="4" fill="#3b82f6" stroke="#0d1117" stroke-width="2" class="data-point"/>
  
    <circle cx="170.04366812227073" cy="326.21971828453803" r="4" fill="#3b82f6" stroke="#0d1117" stroke-width="2" class="data-point"/>
  
    <circle cx="173.1004366812227" cy="325.94047479932044" r="4" fill="#3b82f6" stroke="#0d1117" stroke-width="2" class="data-point"/>
  
    <circle cx="176.15720524017468" cy="325.58693717583395" r="4" fill="#3b82f6" stroke="#0d1117" stroke-width="2" class="data-point"/>
  
    <circle cx="179.21397379912665" cy="325.20137621688673" r="4" fill="#3b82f6" stroke="#0d1117" stroke-width="2" class="data-point"/>
  
    <circle cx="182.2707423580786" cy="324.8478385934003" r="4" fill="#3b82f6" stroke="#0d1117" stroke-width="2" class="data-point"/>
  
    <circle cx="185.32751091703057" cy="324.4212877650633" r="4" fill="#3b82f6" stroke="#0d1117" stroke-width="2" class="data-point"/>
  
    <circle cx="188.38427947598254" cy="324.00242253723695" r="4" fill="#3b82f6" stroke="#0d1117" stroke-width="2" class="data-point"/>
  
    <circle cx="191.44104803493448" cy="323.5835573094106" r="4" fill="#3b82f6" stroke="#0d1117" stroke-width="2" class="data-point"/>
  
    <circle cx="194.49781659388645" cy="323.12498314561293" r="4" fill="#3b82f6" stroke="#0d1117" stroke-width="2" class="data-point"/>
  
    <circle cx="197.55458515283843" cy="322.6869039165101" r="4" fill="#3b82f6" stroke="#0d1117" stroke-width="2" class="data-point"/>
  
    <circle cx="200.6113537117904" cy="322.1860589499043" r="4" fill="#3b82f6" stroke="#0d1117" stroke-width="2" class="data-point"/>
  
    <circle cx="203.66812227074237" cy="321.73901318687246" r="4" fill="#3b82f6" stroke="#0d1117" stroke-width="2" class="data-point"/>
  
    <circle cx="206.72489082969432" cy="321.3611378284358" r="4" fill="#3b82f6" stroke="#0d1117" stroke-width="2" class="data-point"/>
  
    <circle cx="209.7816593886463" cy="321.0588375416865" r="4" fill="#3b82f6" stroke="#0d1117" stroke-width="2" class="data-point"/>
  
    <circle cx="212.83842794759826" cy="320.6361295136049" r="4" fill="#3b82f6" stroke="#0d1117" stroke-width="2" class="data-point"/>
  
    <circle cx="215.8951965065502" cy="320.153217614857" r="4" fill="#3b82f6" stroke="#0d1117" stroke-width="2" class="data-point"/>
  
    <circle cx="218.95196506550218" cy="319.71129558549893" r="4" fill="#3b82f6" stroke="#0d1117" stroke-width="2" class="data-point"/>
  
    <circle cx="222.00873362445415" cy="319.19507941787197" r="4" fill="#3b82f6" stroke="#0d1117" stroke-width="2" class="data-point"/>
  
    <circle cx="225.0655021834061" cy="318.55845550891263" r="4" fill="#3b82f6" stroke="#0d1117" stroke-width="2" class="data-point"/>
  
    <circle cx="228.12227074235807" cy="318.08451014409377" r="4" fill="#3b82f6" stroke="#0d1117" stroke-width="2" class="data-point"/>
  
    <circle cx="231.17903930131004" cy="317.691263584636" r="4" fill="#3b82f6" stroke="#0d1117" stroke-width="2" class="data-point"/>
  
    <circle cx="234.235807860262" cy="317.31723102645464" r="4" fill="#3b82f6" stroke="#0d1117" stroke-width="2" class="data-point"/>
  
    <circle cx="237.29257641921396" cy="316.867623396586" r="4" fill="#3b82f6" stroke="#0d1117" stroke-width="2" class="data-point"/>
  
    <circle cx="240.34934497816593" cy="316.34500256186686" r="4" fill="#3b82f6" stroke="#0d1117" stroke-width="2" class="data-point"/>
  
    <circle cx="243.4061135371179" cy="315.7660206567368" r="4" fill="#3b82f6" stroke="#0d1117" stroke-width="2" class="data-point"/>
  
    <circle cx="246.46288209606988" cy="315.1575772829829" r="4" fill="#3b82f6" stroke="#0d1117" stroke-width="2" class="data-point"/>
  
    <circle cx="249.51965065502185" cy="314.57347164417916" r="4" fill="#3b82f6" stroke="#0d1117" stroke-width="2" class="data-point"/>
  
    <circle cx="252.5764192139738" cy="314.05981734338906" r="4" fill="#3b82f6" stroke="#0d1117" stroke-width="2" class="data-point"/>
  
    <circle cx="255.63318777292577" cy="313.5500058428542" r="4" fill="#3b82f6" stroke="#0d1117" stroke-width="2" class="data-point"/>
  
    <circle cx="258.68995633187774" cy="313.1003982129855" r="4" fill="#3b82f6" stroke="#0d1117" stroke-width="2" class="data-point"/>
  
    <circle cx="261.7467248908297" cy="312.64182404918785" r="4" fill="#3b82f6" stroke="#0d1117" stroke-width="2" class="data-point"/>
  
    <circle cx="264.8034934497817" cy="312.12945068181614" r="4" fill="#3b82f6" stroke="#0d1117" stroke-width="2" class="data-point"/>
  
    <circle cx="267.8602620087337" cy="311.49154583943834" r="4" fill="#3b82f6" stroke="#0d1117" stroke-width="2" class="data-point"/>
  
    <circle cx="270.9170305676856" cy="311.01631954120114" r="4" fill="#3b82f6" stroke="#0d1117" stroke-width="2" class="data-point"/>
  
    <circle cx="273.9737991266376" cy="310.5910496462826" r="4" fill="#3b82f6" stroke="#0d1117" stroke-width="2" class="data-point"/>
  
    <circle cx="277.0305676855895" cy="310.1183852148822" r="4" fill="#3b82f6" stroke="#0d1117" stroke-width="2" class="data-point"/>
  
    <circle cx="280.08733624454146" cy="309.67774411894254" r="4" fill="#3b82f6" stroke="#0d1117" stroke-width="2" class="data-point"/>
  
    <circle cx="283.14410480349346" cy="309.19355128677626" r="4" fill="#3b82f6" stroke="#0d1117" stroke-width="2" class="data-point"/>
  
    <circle cx="286.2008733624454" cy="308.6888635199151" r="4" fill="#3b82f6" stroke="#0d1117" stroke-width="2" class="data-point"/>
  
    <circle cx="289.2576419213974" cy="308.16111895152227" r="4" fill="#3b82f6" stroke="#0d1117" stroke-width="2" class="data-point"/>
  
    <circle cx="292.31441048034935" cy="307.69870198746935" r="4" fill="#3b82f6" stroke="#0d1117" stroke-width="2" class="data-point"/>
  
    <circle cx="295.3711790393013" cy="307.3028935611747" r="4" fill="#3b82f6" stroke="#0d1117" stroke-width="2" class="data-point"/>
  
    <circle cx="298.4279475982533" cy="306.86865713232714" r="4" fill="#3b82f6" stroke="#0d1117" stroke-width="2" class="data-point"/>
  
    <circle cx="301.4847161572053" cy="306.39855456776365" r="4" fill="#3b82f6" stroke="#0d1117" stroke-width="2" class="data-point"/>
  
    <circle cx="304.5414847161572" cy="305.9630372054977" r="4" fill="#3b82f6" stroke="#0d1117" stroke-width="2" class="data-point"/>
  
    <circle cx="307.5982532751092" cy="305.3955837011335" r="4" fill="#3b82f6" stroke="#0d1117" stroke-width="2" class="data-point"/>
  
    <circle cx="310.65502183406113" cy="304.90754806871195" r="4" fill="#3b82f6" stroke="#0d1117" stroke-width="2" class="data-point"/>
  
    <circle cx="313.7117903930131" cy="304.4374455041484" r="4" fill="#3b82f6" stroke="#0d1117" stroke-width="2" class="data-point"/>
  
    <circle cx="316.7685589519651" cy="304.0467608115275" r="4" fill="#3b82f6" stroke="#0d1117" stroke-width="2" class="data-point"/>
  
    <circle cx="319.825327510917" cy="303.6676045196724" r="4" fill="#3b82f6" stroke="#0d1117" stroke-width="2" class="data-point"/>
  
    <circle cx="322.88209606986896" cy="303.28716729439896" r="4" fill="#3b82f6" stroke="#0d1117" stroke-width="2" class="data-point"/>
  
    <circle cx="325.93886462882097" cy="302.83243593085655" r="4" fill="#3b82f6" stroke="#0d1117" stroke-width="2" class="data-point"/>
  
    <circle cx="328.9956331877729" cy="302.36489523312986" r="4" fill="#3b82f6" stroke="#0d1117" stroke-width="2" class="data-point"/>
  
    <circle cx="332.0524017467249" cy="301.7974417287657" r="4" fill="#3b82f6" stroke="#0d1117" stroke-width="2" class="data-point"/>
  
    <circle cx="335.10917030567686" cy="301.3375866315496" r="4" fill="#3b82f6" stroke="#0d1117" stroke-width="2" class="data-point"/>
  
    <circle cx="338.1659388646288" cy="300.96227313994984" r="4" fill="#3b82f6" stroke="#0d1117" stroke-width="2" class="data-point"/>
  
    <circle cx="341.2227074235808" cy="300.5767121810026" r="4" fill="#3b82f6" stroke="#0d1117" stroke-width="2" class="data-point"/>
  
    <circle cx="344.27947598253274" cy="300.207803356495" r="4" fill="#3b82f6" stroke="#0d1117" stroke-width="2" class="data-point"/>
  
    <circle cx="347.33624454148475" cy="299.7517910595342" r="4" fill="#3b82f6" stroke="#0d1117" stroke-width="2" class="data-point"/>
  
    <circle cx="350.3930131004367" cy="299.2842503618075" r="4" fill="#3b82f6" stroke="#0d1117" stroke-width="2" class="data-point"/>
  
    <circle cx="353.44978165938863" cy="298.2505370931351" r="4" fill="#3b82f6" stroke="#0d1117" stroke-width="2" class="data-point"/>
  
    <circle cx="356.5065502183406" cy="296.1933580231377" r="4" fill="#3b82f6" stroke="#0d1117" stroke-width="2" class="data-point"/>
  
    <circle cx="359.5633187772926" cy="293.7429323936825" r="4" fill="#3b82f6" stroke="#0d1117" stroke-width="2" class="data-point"/>
  
    <circle cx="362.6200873362445" cy="291.51026544536035" r="4" fill="#3b82f6" stroke="#0d1117" stroke-width="2" class="data-point"/>
  
    <circle cx="365.6768558951965" cy="290.37792030346884" r="4" fill="#3b82f6" stroke="#0d1117" stroke-width="2" class="data-point"/>
  
    <circle cx="368.73362445414847" cy="288.67171699012107" r="4" fill="#3b82f6" stroke="#0d1117" stroke-width="2" class="data-point"/>
  
    <circle cx="371.7903930131004" cy="287.53809091481116" r="4" fill="#3b82f6" stroke="#0d1117" stroke-width="2" class="data-point"/>
  
    <circle cx="374.8471615720524" cy="286.5440865821101" r="4" fill="#3b82f6" stroke="#0d1117" stroke-width="2" class="data-point"/>
  
    <circle cx="377.90393013100436" cy="285.57185811752225" r="4" fill="#3b82f6" stroke="#0d1117" stroke-width="2" class="data-point"/>
  
    <circle cx="380.96069868995636" cy="284.6559907233453" r="4" fill="#3b82f6" stroke="#0d1117" stroke-width="2" class="data-point"/>
  
    <circle cx="384.0174672489083" cy="283.231592762052" r="4" fill="#3b82f6" stroke="#0d1117" stroke-width="2" class="data-point"/>
  
    <circle cx="387.07423580786025" cy="282.09924762016055" r="4" fill="#3b82f6" stroke="#0d1117" stroke-width="2" class="data-point"/>
  
    <circle cx="390.1310043668122" cy="280.65179285733547" r="4" fill="#3b82f6" stroke="#0d1117" stroke-width="2" class="data-point"/>
  
    <circle cx="393.1877729257642" cy="280.35589723767833" r="4" fill="#3b82f6" stroke="#0d1117" stroke-width="2" class="data-point"/>
  
    <circle cx="396.24454148471614" cy="280.31746923512543" r="4" fill="#3b82f6" stroke="#0d1117" stroke-width="2" class="data-point"/>
  
    <circle cx="399.30131004366814" cy="280.2675128318067" r="4" fill="#3b82f6" stroke="#0d1117" stroke-width="2" class="data-point"/>
  
    <circle cx="402.3580786026201" cy="280.22524202899854" r="4" fill="#3b82f6" stroke="#0d1117" stroke-width="2" class="data-point"/>
  
    <circle cx="405.414847161572" cy="280.1701618920061" r="4" fill="#3b82f6" stroke="#0d1117" stroke-width="2" class="data-point"/>
  
    <circle cx="408.471615720524" cy="280.12148642210576" r="4" fill="#3b82f6" stroke="#0d1117" stroke-width="2" class="data-point"/>
  
    <circle cx="411.528384279476" cy="280.1022724208293" r="4" fill="#3b82f6" stroke="#0d1117" stroke-width="2" class="data-point"/>
  
    <circle cx="414.5851528384279" cy="280.0318210828157" r="4" fill="#3b82f6" stroke="#0d1117" stroke-width="2" class="data-point"/>
  
    <circle cx="417.6419213973799" cy="279.96393161163894" r="4" fill="#3b82f6" stroke="#0d1117" stroke-width="2" class="data-point"/>
  
    <circle cx="420.69868995633186" cy="279.9190989419939" r="4" fill="#3b82f6" stroke="#0d1117" stroke-width="2" class="data-point"/>
  
    <circle cx="423.75545851528386" cy="279.9024468075544" r="4" fill="#3b82f6" stroke="#0d1117" stroke-width="2" class="data-point"/>
  
    <circle cx="426.8122270742358" cy="279.82687173586703" r="4" fill="#3b82f6" stroke="#0d1117" stroke-width="2" class="data-point"/>
  
    <circle cx="429.8689956331878" cy="277.9695182791446" r="4" fill="#3b82f6" stroke="#0d1117" stroke-width="2" class="data-point"/>
  
    <circle cx="432.92576419213975" cy="275.06051848589175" r="4" fill="#3b82f6" stroke="#0d1117" stroke-width="2" class="data-point"/>
  
    <circle cx="435.98253275109175" cy="273.11221875646083" r="4" fill="#3b82f6" stroke="#0d1117" stroke-width="2" class="data-point"/>
  
    <circle cx="439.0393013100437" cy="270.8500903395148" r="4" fill="#3b82f6" stroke="#0d1117" stroke-width="2" class="data-point"/>
  
    <circle cx="442.09606986899564" cy="268.5187915179735" r="4" fill="#3b82f6" stroke="#0d1117" stroke-width="2" class="data-point"/>
  
    <circle cx="445.1528384279476" cy="266.6896185964565" r="4" fill="#3b82f6" stroke="#0d1117" stroke-width="2" class="data-point"/>
  
    <circle cx="448.20960698689953" cy="264.643967927225" r="4" fill="#3b82f6" stroke="#0d1117" stroke-width="2" class="data-point"/>
  
    <circle cx="451.26637554585153" cy="261.52745692018664" r="4" fill="#3b82f6" stroke="#0d1117" stroke-width="2" class="data-point"/>
  
    <circle cx="454.3231441048035" cy="257.32727624115705" r="4" fill="#3b82f6" stroke="#0d1117" stroke-width="2" class="data-point"/>
  
    <circle cx="457.3799126637555" cy="254.58607872571844" r="4" fill="#3b82f6" stroke="#0d1117" stroke-width="2" class="data-point"/>
  
    <circle cx="460.4366812227074" cy="251.32354130897912" r="4" fill="#3b82f6" stroke="#0d1117" stroke-width="2" class="data-point"/>
  
    <circle cx="463.4934497816594" cy="247.68825226747688" r="4" fill="#3b82f6" stroke="#0d1117" stroke-width="2" class="data-point"/>
  
    <circle cx="466.55021834061137" cy="244.77284780713188" r="4" fill="#3b82f6" stroke="#0d1117" stroke-width="2" class="data-point"/>
  
    <circle cx="469.60698689956337" cy="241.6089422636116" r="4" fill="#3b82f6" stroke="#0d1117" stroke-width="2" class="data-point"/>
  
    <circle cx="472.6637554585153" cy="238.8024171438331" r="4" fill="#3b82f6" stroke="#0d1117" stroke-width="2" class="data-point"/>
  
    <circle cx="475.7205240174673" cy="236.02151069242316" r="4" fill="#3b82f6" stroke="#0d1117" stroke-width="2" class="data-point"/>
  
    <circle cx="478.7772925764192" cy="233.24828984152384" r="4" fill="#3b82f6" stroke="#0d1117" stroke-width="2" class="data-point"/>
  
    <circle cx="481.83406113537114" cy="229.47209812399436" r="4" fill="#3b82f6" stroke="#0d1117" stroke-width="2" class="data-point"/>
  
    <circle cx="484.89082969432314" cy="225.68437800569905" r="4" fill="#3b82f6" stroke="#0d1117" stroke-width="2" class="data-point"/>
  
    <circle cx="487.9475982532751" cy="222.5268771292709" r="4" fill="#3b82f6" stroke="#0d1117" stroke-width="2" class="data-point"/>
  
    <circle cx="491.0043668122271" cy="219.88046868679606" r="4" fill="#3b82f6" stroke="#0d1117" stroke-width="2" class="data-point"/>
  
    <circle cx="494.06113537117903" cy="217.3134781162638" r="4" fill="#3b82f6" stroke="#0d1117" stroke-width="2" class="data-point"/>
  
    <circle cx="497.11790393013104" cy="213.90619522324198" r="4" fill="#3b82f6" stroke="#0d1117" stroke-width="2" class="data-point"/>
  
    <circle cx="500.174672489083" cy="211.26362958102243" r="4" fill="#3b82f6" stroke="#0d1117" stroke-width="2" class="data-point"/>
  
    <circle cx="503.231441048035" cy="208.64924447400827" r="4" fill="#3b82f6" stroke="#0d1117" stroke-width="2" class="data-point"/>
  
    <circle cx="506.2882096069869" cy="206.20394257822682" r="4" fill="#3b82f6" stroke="#0d1117" stroke-width="2" class="data-point"/>
  
    <circle cx="509.3449781659389" cy="203.900824291891" r="4" fill="#3b82f6" stroke="#0d1117" stroke-width="2" class="data-point"/>
  
    <circle cx="512.4017467248908" cy="201.54134493514434" r="4" fill="#3b82f6" stroke="#0d1117" stroke-width="2" class="data-point"/>
  
    <circle cx="515.4585152838428" cy="199.52387480111824" r="4" fill="#3b82f6" stroke="#0d1117" stroke-width="2" class="data-point"/>
  
    <circle cx="518.5152838427948" cy="197.4346723956601" r="4" fill="#3b82f6" stroke="#0d1117" stroke-width="2" class="data-point"/>
  
    <circle cx="521.5720524017468" cy="195.3019182539754" r="4" fill="#3b82f6" stroke="#0d1117" stroke-width="2" class="data-point"/>
  
    <circle cx="524.6288209606987" cy="193.04747543753987" r="4" fill="#3b82f6" stroke="#0d1117" stroke-width="2" class="data-point"/>
  
    <circle cx="527.6855895196506" cy="190.97876796677662" r="4" fill="#3b82f6" stroke="#0d1117" stroke-width="2" class="data-point"/>
  
    <circle cx="530.7423580786026" cy="189.08426744091975" r="4" fill="#3b82f6" stroke="#0d1117" stroke-width="2" class="data-point"/>
  
    <circle cx="533.7991266375545" cy="185.65136587952932" r="4" fill="#3b82f6" stroke="#0d1117" stroke-width="2" class="data-point"/>
  
    <circle cx="536.8558951965066" cy="182.7782322219925" r="4" fill="#3b82f6" stroke="#0d1117" stroke-width="2" class="data-point"/>
  
    <circle cx="539.9126637554585" cy="180.01910163869587" r="4" fill="#3b82f6" stroke="#0d1117" stroke-width="2" class="data-point"/>
  
    <circle cx="542.9694323144106" cy="177.36885039596572" r="4" fill="#3b82f6" stroke="#0d1117" stroke-width="2" class="data-point"/>
  
    <circle cx="546.0262008733624" cy="173.18404091795733" r="4" fill="#3b82f6" stroke="#0d1117" stroke-width="2" class="data-point"/>
  
    <circle cx="549.0829694323144" cy="170.53635154206407" r="4" fill="#3b82f6" stroke="#0d1117" stroke-width="2" class="data-point"/>
  
    <circle cx="552.1397379912664" cy="168.2447616564941" r="4" fill="#3b82f6" stroke="#0d1117" stroke-width="2" class="data-point"/>
  
    <circle cx="555.1965065502184" cy="165.53814934335307" r="4" fill="#3b82f6" stroke="#0d1117" stroke-width="2" class="data-point"/>
  
    <circle cx="558.2532751091703" cy="161.54804174494595" r="4" fill="#3b82f6" stroke="#0d1117" stroke-width="2" class="data-point"/>
  
    <circle cx="561.3100436681223" cy="158.67746995424596" r="4" fill="#3b82f6" stroke="#0d1117" stroke-width="2" class="data-point"/>
  
    <circle cx="564.3668122270742" cy="156.2539439265778" r="4" fill="#3b82f6" stroke="#0d1117" stroke-width="2" class="data-point"/>
  
    <circle cx="567.4235807860262" cy="154.20316952367256" r="4" fill="#3b82f6" stroke="#0d1117" stroke-width="2" class="data-point"/>
  
    <circle cx="570.4803493449782" cy="152.2574316610785" r="4" fill="#3b82f6" stroke="#0d1117" stroke-width="2" class="data-point"/>
  
    <circle cx="573.5371179039302" cy="150.67547888931836" r="4" fill="#3b82f6" stroke="#0d1117" stroke-width="2" class="data-point"/>
  
    <circle cx="576.5938864628821" cy="148.89370050428326" r="4" fill="#3b82f6" stroke="#0d1117" stroke-width="2" class="data-point"/>
  
    <circle cx="579.650655021834" cy="147.44112200778446" r="4" fill="#3b82f6" stroke="#0d1117" stroke-width="2" class="data-point"/>
  
    <circle cx="582.707423580786" cy="145.72723309392615" r="4" fill="#3b82f6" stroke="#0d1117" stroke-width="2" class="data-point"/>
  
    <circle cx="585.7641921397379" cy="143.26015533003135" r="4" fill="#3b82f6" stroke="#0d1117" stroke-width="2" class="data-point"/>
  
    <circle cx="588.82096069869" cy="141.14021052253096" r="4" fill="#3b82f6" stroke="#0d1117" stroke-width="2" class="data-point"/>
  
    <circle cx="591.8777292576419" cy="139.29694733341123" r="4" fill="#3b82f6" stroke="#0d1117" stroke-width="2" class="data-point"/>
  
    <circle cx="594.9344978165939" cy="137.70346616088526" r="4" fill="#3b82f6" stroke="#0d1117" stroke-width="2" class="data-point"/>
  
    <circle cx="597.9912663755458" cy="136.0600285850405" r="4" fill="#3b82f6" stroke="#0d1117" stroke-width="2" class="data-point"/>
  
    <circle cx="601.0480349344979" cy="134.67405862630002" r="4" fill="#3b82f6" stroke="#0d1117" stroke-width="2" class="data-point"/>
  
    <circle cx="604.1048034934498" cy="132.34404073817723" r="4" fill="#3b82f6" stroke="#0d1117" stroke-width="2" class="data-point"/>
  
    <circle cx="607.1615720524018" cy="130.3521892725197" r="4" fill="#3b82f6" stroke="#0d1117" stroke-width="2" class="data-point"/>
  
    <circle cx="610.2183406113537" cy="128.3769899413018" r="4" fill="#3b82f6" stroke="#0d1117" stroke-width="2" class="data-point"/>
  
    <circle cx="613.2751091703057" cy="126.74636169964134" r="4" fill="#3b82f6" stroke="#0d1117" stroke-width="2" class="data-point"/>
  
    <circle cx="616.3318777292576" cy="125.25023146691598" r="4" fill="#3b82f6" stroke="#0d1117" stroke-width="2" class="data-point"/>
  
    <circle cx="619.3886462882095" cy="123.92190351200483" r="4" fill="#3b82f6" stroke="#0d1117" stroke-width="2" class="data-point"/>
  
    <circle cx="622.4454148471616" cy="121.6444038940376" r="4" fill="#3b82f6" stroke="#0d1117" stroke-width="2" class="data-point"/>
  
    <circle cx="625.5021834061135" cy="119.79473603782574" r="4" fill="#3b82f6" stroke="#0d1117" stroke-width="2" class="data-point"/>
  
    <circle cx="628.5589519650655" cy="118.10902765917282" r="4" fill="#3b82f6" stroke="#0d1117" stroke-width="2" class="data-point"/>
  
    <circle cx="631.6157205240174" cy="116.49889435220726" r="4" fill="#3b82f6" stroke="#0d1117" stroke-width="2" class="data-point"/>
  
    <circle cx="634.6724890829695" cy="115.09371039219036" r="4" fill="#3b82f6" stroke="#0d1117" stroke-width="2" class="data-point"/>
  
    <circle cx="637.7292576419214" cy="113.72951630156317" r="4" fill="#3b82f6" stroke="#0d1117" stroke-width="2" class="data-point"/>
  
    <circle cx="640.7860262008734" cy="112.47932528517623" r="4" fill="#3b82f6" stroke="#0d1117" stroke-width="2" class="data-point"/>
  
    <circle cx="643.8427947598253" cy="111.28037160552643" r="4" fill="#3b82f6" stroke="#0d1117" stroke-width="2" class="data-point"/>
  
    <circle cx="646.8995633187773" cy="110.18133073251414" r="4" fill="#3b82f6" stroke="#0d1117" stroke-width="2" class="data-point"/>
  
    <circle cx="649.9563318777292" cy="108.8094510413764" r="4" fill="#3b82f6" stroke="#0d1117" stroke-width="2" class="data-point"/>
  
    <circle cx="653.0131004366812" cy="107.33637761018275" r="4" fill="#3b82f6" stroke="#0d1117" stroke-width="2" class="data-point"/>
  
    <circle cx="656.0698689956332" cy="105.98115005348461" r="4" fill="#3b82f6" stroke="#0d1117" stroke-width="2" class="data-point"/>
  
    <circle cx="659.1266375545852" cy="103.87529551358688" r="4" fill="#3b82f6" stroke="#0d1117" stroke-width="2" class="data-point"/>
  
    <circle cx="662.1834061135371" cy="102.34714194540078" r="4" fill="#3b82f6" stroke="#0d1117" stroke-width="2" class="data-point"/>
  
    <circle cx="665.240174672489" cy="100.88559691497298" r="4" fill="#3b82f6" stroke="#0d1117" stroke-width="2" class="data-point"/>
  
    <circle cx="668.2969432314411" cy="99.60338256312531" r="4" fill="#3b82f6" stroke="#0d1117" stroke-width="2" class="data-point"/>
  
    <circle cx="671.353711790393" cy="98.09956672988935" r="4" fill="#3b82f6" stroke="#0d1117" stroke-width="2" class="data-point"/>
  
    <circle cx="674.410480349345" cy="96.25246074051435" r="4" fill="#3b82f6" stroke="#0d1117" stroke-width="2" class="data-point"/>
  
    <circle cx="677.4672489082969" cy="94.61542783176174" r="4" fill="#3b82f6" stroke="#0d1117" stroke-width="2" class="data-point"/>
  
    <circle cx="680.5240174672489" cy="93.15388280133396" r="4" fill="#3b82f6" stroke="#0d1117" stroke-width="2" class="data-point"/>
  
    <circle cx="683.5807860262008" cy="91.56680629590011" r="4" fill="#3b82f6" stroke="#0d1117" stroke-width="2" class="data-point"/>
  
    <circle cx="686.6375545851528" cy="89.3776910838045" r="4" fill="#3b82f6" stroke="#0d1117" stroke-width="2" class="data-point"/>
  
    <circle cx="689.6943231441048" cy="87.58054149774824" r="4" fill="#3b82f6" stroke="#0d1117" stroke-width="2" class="data-point"/>
  
    <circle cx="692.7510917030568" cy="85.65273670301224" r="4" fill="#3b82f6" stroke="#0d1117" stroke-width="2" class="data-point"/>
  
    <circle cx="695.8078602620087" cy="83.73133657536829" r="4" fill="#3b82f6" stroke="#0d1117" stroke-width="2" class="data-point"/>
  
    <circle cx="698.8646288209607" cy="81.94187258982265" r="4" fill="#3b82f6" stroke="#0d1117" stroke-width="2" class="data-point"/>
  
    <circle cx="701.9213973799127" cy="80.18571287315615" r="4" fill="#3b82f6" stroke="#0d1117" stroke-width="2" class="data-point"/>
  
    <circle cx="704.9781659388647" cy="78.32707848301527" r="4" fill="#3b82f6" stroke="#0d1117" stroke-width="2" class="data-point"/>
  
    <circle cx="708.0349344978166" cy="76.6605841056388" r="4" fill="#3b82f6" stroke="#0d1117" stroke-width="2" class="data-point"/>
  
    <circle cx="711.0917030567686" cy="75.20032000862943" r="4" fill="#3b82f6" stroke="#0d1117" stroke-width="2" class="data-point"/>
  
    <circle cx="714.1484716157205" cy="73.84765431876815" r="4" fill="#3b82f6" stroke="#0d1117" stroke-width="2" class="data-point"/>
  
    <circle cx="717.2052401746724" cy="72.41685169038266" r="4" fill="#3b82f6" stroke="#0d1117" stroke-width="2" class="data-point"/>
  
    <circle cx="720.2620087336244" cy="71.02063426429476" r="4" fill="#3b82f6" stroke="#0d1117" stroke-width="2" class="data-point"/>
  
    <circle cx="723.3187772925764" cy="69.75891484714197" r="4" fill="#3b82f6" stroke="#0d1117" stroke-width="2" class="data-point"/>
  
    <circle cx="726.3755458515284" cy="68.49463356315226" r="4" fill="#3b82f6" stroke="#0d1117" stroke-width="2" class="data-point"/>
  
    <circle cx="729.4323144104803" cy="67.2841514827366" r="4" fill="#3b82f6" stroke="#0d1117" stroke-width="2" class="data-point"/>
  
    <circle cx="732.4890829694323" cy="66.08135500283151" r="4" fill="#3b82f6" stroke="#0d1117" stroke-width="2" class="data-point"/>
  
    <circle cx="735.5458515283843" cy="64.88112038976334" r="4" fill="#3b82f6" stroke="#0d1117" stroke-width="2" class="data-point"/>
  
    <circle cx="738.6026200873363" cy="63.82178845272233" r="4" fill="#3b82f6" stroke="#0d1117" stroke-width="2" class="data-point"/>
  
    <circle cx="741.6593886462882" cy="62.58953050419336" r="4" fill="#3b82f6" stroke="#0d1117" stroke-width="2" class="data-point"/>
  
    <circle cx="744.7161572052402" cy="61.318844553111546" r="4" fill="#3b82f6" stroke="#0d1117" stroke-width="2" class="data-point"/>
  
    <circle cx="747.7729257641921" cy="59.87138979028646" r="4" fill="#3b82f6" stroke="#0d1117" stroke-width="2" class="data-point"/>
  
    <circle cx="750.829694323144" cy="58.47645329761701" r="4" fill="#3b82f6" stroke="#0d1117" stroke-width="2" class="data-point"/>
  
    <circle cx="753.8864628820961" cy="57.22754321464845" r="4" fill="#3b82f6" stroke="#0d1117" stroke-width="2" class="data-point"/>
  
    <circle cx="756.943231441048" cy="56.13106420847305" r="4" fill="#3b82f6" stroke="#0d1117" stroke-width="2" class="data-point"/>
  
    <circle cx="760" cy="55" r="4" fill="#3b82f6" stroke="#0d1117" stroke-width="2" class="data-point"/>
  

  <!-- Axis lines -->
  <line x1="60" y1="55" x2="60" y2="340"
        stroke="#30363d" stroke-width="2"/>
  <line x1="60" y1="340" x2="760" y2="340"
        stroke="#30363d" stroke-width="2"/>
</svg>