<?xml version="1.0" encoding="UTF-8"?>
<svg width="800" height="400" xmlns="http://www.w3.org/2000/svg">
  <defs>
    <!-- Gradient for area fill -->
    <linearGradient id="areaGradient" x1="0%" y1="0%" x2="0%" y2="100%">
      <stop offset="0%" style="stop-color:#3b82f6;stop-opacity:0.3" />
      <stop offset="100%" style="stop-color:#3b82f6;stop-opacity:0.05" />
    </linearGradient>

    <!-- Glow filter for line -->
    <filter id="glow">
      <feGaussianBlur stdDeviation="2" result="coloredBlur"/>
      <feMerge>
        <feMergeNode in="coloredBlur"/>
        <feMergeNode in="SourceGraphic"/>
      </feMerge>
    </filter>

    <!-- Animation -->
    <style>
      @keyframes draw {
        from { stroke-dashoffset: 2000; }
        to { stroke-dashoffset: 0; }
      }
      @keyframes fadeIn {
        from { opacity: 0; }
        to { opacity: 1; }
      }
      .line-path {
        stroke-dasharray: 2000;
        stroke-dashoffset: 2000;
        animation: draw 1.5s ease-out forwards;
      }
      .area-path {
        opacity: 0;
        animation: fadeIn 1s ease-out 0.5s forwards;
      }
      .data-point {
        opacity: 0;
        animation: fadeIn 0.5s ease-out 1s forwards;
      }
    </style>
  </defs>

  <!-- Background -->
  <rect width="800" height="400" fill="#0d1117" rx="8"/>

  <!-- Title -->
  <text x="400" y="25" text-anchor="middle" fill="#c9d1d9" font-family="system-ui, -apple-system, sans-serif" font-size="16" font-weight="600">
    zxcloli666/SoundCloud-Desktop Downloads
  </text>

  <!-- Stats -->
  <text x="780" y="25" text-anchor="end" fill="#58a6ff" font-family="system-ui, -apple-system, sans-serif" font-size="14" font-weight="600">
    273.1K total
  </text>
  <text x="780" y="42" text-anchor="end" fill="#3fb950" font-family="system-ui, -apple-system, sans-serif" font-size="12">
    +945 (+0.3%)
  </text>

  <!-- Grid lines -->
  <g opacity="0.1">
    
      <line x1="60" y1="340" x2="760" y2="340"
            stroke="#c9d1d9" stroke-width="1"/>
    
      <line x1="60" y1="268.75" x2="760" y2="268.75"
            stroke="#c9d1d9" stroke-width="1"/>
    
      <line x1="60" y1="197.5" x2="760" y2="197.5"
            stroke="#c9d1d9" stroke-width="1"/>
    
      <line x1="60" y1="126.25" x2="760" y2="126.25"
            stroke="#c9d1d9" stroke-width="1"/>
    
      <line x1="60" y1="55" x2="760" y2="55"
            stroke="#c9d1d9" stroke-width="1"/>
    
  </g>

  <!-- Y-axis labels -->
  
    <text x="50" y="344" text-anchor="end"
          fill="#8b949e" font-family="system-ui, -apple-system, sans-serif" font-size="11">
      60.2K
    </text>
  
    <text x="50" y="272.75" text-anchor="end"
          fill="#8b949e" font-family="system-ui, -apple-system, sans-serif" font-size="11">
      113.4K
    </text>
  
    <text x="50" y="201.5" text-anchor="end"
          fill="#8b949e" font-family="system-ui, -apple-system, sans-serif" font-size="11">
      166.6K
    </text>
  
    <text x="50" y="130.25" text-anchor="end"
          fill="#8b949e" font-family="system-ui, -apple-system, sans-serif" font-size="11">
      219.8K
    </text>
  
    <text x="50" y="59" text-anchor="end"
          fill="#8b949e" font-family="system-ui, -apple-system, sans-serif" font-size="11">
      273.1K
    </text>
  

  <!-- X-axis labels -->
  
    <text x="60" y="360" text-anchor="middle"
          fill="#8b949e" font-family="system-ui, -apple-system, sans-serif" font-size="11">
      Nov 25
    </text>
  
    <text x="146.3013698630137" y="360" text-anchor="middle"
          fill="#8b949e" font-family="system-ui, -apple-system, sans-serif" font-size="11">
      Dec 22
    </text>
  
    <text x="232.60273972602738" y="360" text-anchor="middle"
          fill="#8b949e" font-family="system-ui, -apple-system, sans-serif" font-size="11">
      Jan 18
    </text>
  
    <text x="318.90410958904107" y="360" text-anchor="middle"
          fill="#8b949e" font-family="system-ui, -apple-system, sans-serif" font-size="11">
      Feb 14
    </text>
  
    <text x="405.20547945205476" y="360" text-anchor="middle"
          fill="#8b949e" font-family="system-ui, -apple-system, sans-serif" font-size="11">
      Mar 13
    </text>
  
    <text x="491.5068493150685" y="360" text-anchor="middle"
          fill="#8b949e" font-family="system-ui, -apple-system, sans-serif" font-size="11">
      Apr 9
    </text>
  
    <text x="577.8082191780821" y="360" text-anchor="middle"
          fill="#8b949e" font-family="system-ui, -apple-system, sans-serif" font-size="11">
      May 6
    </text>
  
    <text x="664.1095890410959" y="360" text-anchor="middle"
          fill="#8b949e" font-family="system-ui, -apple-system, sans-serif" font-size="11">
      Jun 2
    </text>
  
    <text x="750.4109589041095" y="360" text-anchor="middle"
          fill="#8b949e" font-family="system-ui, -apple-system, sans-serif" font-size="11">
      Jun 29
    </text>
  
    <text x="760" y="360" text-anchor="middle"
          fill="#8b949e" font-family="system-ui, -apple-system, sans-serif" font-size="11">
      Jul 2
    </text>
  

  <!-- Area under line -->
  <path d="M 60 340
    L 60.00 340.00 L 63.20 339.80 L 66.39 339.47 L 69.59 339.16 L 72.79 338.54 L 75.98 337.90 L 79.18 337.40 L 82.37 336.93 L 85.57 336.52 L 88.77 336.03 L 91.96 335.48 L 95.16 334.90 L 98.36 334.37 L 101.55 333.81 L 104.75 333.40 L 107.95 332.97 L 111.14 332.39 L 114.34 332.00 L 117.53 331.47 L 120.73 330.85 L 123.93 330.38 L 127.12 330.00 L 130.32 329.75 L 133.52 329.55 L 136.71 329.17 L 139.91 328.89 L 143.11 328.30 L 146.30 328.06 L 149.50 327.76 L 152.69 327.37 L 155.89 327.10 L 159.09 326.83 L 162.28 326.55 L 165.48 326.35 L 168.68 326.18 L 171.87 325.92 L 175.07 325.60 L 178.26 325.31 L 181.46 324.94 L 184.66 324.53 L 187.85 324.17 L 191.05 323.72 L 194.25 323.28 L 197.44 322.84 L 200.64 322.36 L 203.84 321.91 L 207.03 321.38 L 210.23 320.92 L 213.42 320.52 L 216.62 320.21 L 219.82 319.76 L 223.01 319.26 L 226.21 318.80 L 229.41 318.26 L 232.60 317.59 L 235.80 317.10 L 239.00 316.69 L 242.19 316.30 L 245.39 315.83 L 248.58 315.28 L 251.78 314.67 L 254.98 314.04 L 258.17 313.43 L 261.37 312.89 L 264.57 312.36 L 267.76 311.89 L 270.96 311.41 L 274.16 310.87 L 277.35 310.21 L 280.55 309.71 L 283.74 309.27 L 286.94 308.77 L 290.14 308.31 L 293.33 307.81 L 296.53 307.28 L 299.73 306.73 L 302.92 306.24 L 306.12 305.83 L 309.32 305.38 L 312.51 304.89 L 315.71 304.43 L 318.90 303.84 L 322.10 303.33 L 325.30 302.84 L 328.49 302.43 L 331.69 302.03 L 334.89 301.63 L 338.08 301.16 L 341.28 300.67 L 344.47 300.08 L 347.67 299.60 L 350.87 299.20 L 354.06 298.80 L 357.26 298.42 L 360.46 297.94 L 363.65 297.45 L 366.85 296.37 L 370.05 294.22 L 373.24 291.66 L 376.44 289.33 L 379.63 288.14 L 382.83 286.36 L 386.03 285.18 L 389.22 284.14 L 392.42 283.12 L 395.62 282.16 L 398.81 280.67 L 402.01 279.49 L 405.21 277.98 L 408.40 277.67 L 411.60 277.63 L 414.79 277.58 L 417.99 277.53 L 421.19 277.48 L 424.38 277.42 L 427.58 277.40 L 430.78 277.33 L 433.97 277.26 L 437.17 277.21 L 440.37 277.20 L 443.56 277.12 L 446.76 275.18 L 449.95 272.14 L 453.15 270.10 L 456.35 267.74 L 459.54 265.30 L 462.74 263.39 L 465.94 261.25 L 469.13 257.99 L 472.33 253.60 L 475.53 250.74 L 478.72 247.33 L 481.92 243.53 L 485.11 240.48 L 488.31 237.18 L 491.51 234.24 L 494.70 231.34 L 497.90 228.44 L 501.10 224.49 L 504.29 220.54 L 507.49 217.24 L 510.68 214.47 L 513.88 211.79 L 517.08 208.23 L 520.27 205.46 L 523.47 202.73 L 526.67 200.18 L 529.86 197.77 L 533.06 195.30 L 536.26 193.20 L 539.45 191.01 L 542.65 188.78 L 545.84 186.43 L 549.04 184.27 L 552.24 182.29 L 555.43 178.70 L 558.63 175.70 L 561.83 172.81 L 565.02 170.04 L 568.22 165.67 L 571.42 162.90 L 574.61 160.51 L 577.81 157.68 L 581.00 153.51 L 584.20 150.51 L 587.40 147.98 L 590.59 145.83 L 593.79 143.80 L 596.99 142.15 L 600.18 140.29 L 603.38 138.77 L 606.58 136.98 L 609.77 134.40 L 612.97 132.18 L 616.16 130.26 L 619.36 128.59 L 622.56 126.87 L 625.75 125.43 L 628.95 122.99 L 632.15 120.91 L 635.34 118.84 L 638.54 117.14 L 641.74 115.58 L 644.93 114.19 L 648.13 111.81 L 651.32 109.88 L 654.52 108.11 L 657.72 106.43 L 660.91 104.96 L 664.11 103.54 L 667.31 102.23 L 670.50 100.98 L 673.70 99.83 L 676.89 98.40 L 680.09 96.86 L 683.29 95.44 L 686.48 93.24 L 689.68 91.64 L 692.88 90.11 L 696.07 88.78 L 699.27 87.20 L 702.47 85.27 L 705.66 83.56 L 708.86 82.04 L 712.05 80.38 L 715.25 78.09 L 718.45 76.21 L 721.64 74.20 L 724.84 72.19 L 728.04 70.32 L 731.23 68.48 L 734.43 66.54 L 737.63 64.80 L 740.82 63.27 L 744.02 61.86 L 747.21 60.36 L 750.41 58.90 L 753.61 57.59 L 756.80 56.27 L 760.00 55.00
    L 760 340
    Z" fill="url(#areaGradient)" class="area-path"/>

  <!-- Main line with glow -->
  <path d="M 60.00 340.00 L 63.20 339.80 L 66.39 339.47 L 69.59 339.16 L 72.79 338.54 L 75.98 337.90 L 79.18 337.40 L 82.37 336.93 L 85.57 336.52 L 88.77 336.03 L 91.96 335.48 L 95.16 334.90 L 98.36 334.37 L 101.55 333.81 L 104.75 333.40 L 107.95 332.97 L 111.14 332.39 L 114.34 332.00 L 117.53 331.47 L 120.73 330.85 L 123.93 330.38 L 127.12 330.00 L 130.32 329.75 L 133.52 329.55 L 136.71 329.17 L 139.91 328.89 L 143.11 328.30 L 146.30 328.06 L 149.50 327.76 L 152.69 327.37 L 155.89 327.10 L 159.09 326.83 L 162.28 326.55 L 165.48 326.35 L 168.68 326.18 L 171.87 325.92 L 175.07 325.60 L 178.26 325.31 L 181.46 324.94 L 184.66 324.53 L 187.85 324.17 L 191.05 323.72 L 194.25 323.28 L 197.44 322.84 L 200.64 322.36 L 203.84 321.91 L 207.03 321.38 L 210.23 320.92 L 213.42 320.52 L 216.62 320.21 L 219.82 319.76 L 223.01 319.26 L 226.21 318.80 L 229.41 318.26 L 232.60 317.59 L 235.80 317.10 L 239.00 316.69 L 242.19 316.30 L 245.39 315.83 L 248.58 315.28 L 251.78 314.67 L 254.98 314.04 L 258.17 313.43 L 261.37 312.89 L 264.57 312.36 L 267.76 311.89 L 270.96 311.41 L 274.16 310.87 L 277.35 310.21 L 280.55 309.71 L 283.74 309.27 L 286.94 308.77 L 290.14 308.31 L 293.33 307.81 L 296.53 307.28 L 299.73 306.73 L 302.92 306.24 L 306.12 305.83 L 309.32 305.38 L 312.51 304.89 L 315.71 304.43 L 318.90 303.84 L 322.10 303.33 L 325.30 302.84 L 328.49 302.43 L 331.69 302.03 L 334.89 301.63 L 338.08 301.16 L 341.28 300.67 L 344.47 300.08 L 347.67 299.60 L 350.87 299.20 L 354.06 298.80 L 357.26 298.42 L 360.46 297.94 L 363.65 297.45 L 366.85 296.37 L 370.05 294.22 L 373.24 291.66 L 376.44 289.33 L 379.63 288.14 L 382.83 286.36 L 386.03 285.18 L 389.22 284.14 L 392.42 283.12 L 395.62 282.16 L 398.81 280.67 L 402.01 279.49 L 405.21 277.98 L 408.40 277.67 L 411.60 277.63 L 414.79 277.58 L 417.99 277.53 L 421.19 277.48 L 424.38 277.42 L 427.58 277.40 L 430.78 277.33 L 433.97 277.26 L 437.17 277.21 L 440.37 277.20 L 443.56 277.12 L 446.76 275.18 L 449.95 272.14 L 453.15 270.10 L 456.35 267.74 L 459.54 265.30 L 462.74 263.39 L 465.94 261.25 L 469.13 257.99 L 472.33 253.60 L 475.53 250.74 L 478.72 247.33 L 481.92 243.53 L 485.11 240.48 L 488.31 237.18 L 491.51 234.24 L 494.70 231.34 L 497.90 228.44 L 501.10 224.49 L 504.29 220.54 L 507.49 217.24 L 510.68 214.47 L 513.88 211.79 L 517.08 208.23 L 520.27 205.46 L 523.47 202.73 L 526.67 200.18 L 529.86 197.77 L 533.06 195.30 L 536.26 193.20 L 539.45 191.01 L 542.65 188.78 L 545.84 186.43 L 549.04 184.27 L 552.24 182.29 L 555.43 178.70 L 558.63 175.70 L 561.83 172.81 L 565.02 170.04 L 568.22 165.67 L 571.42 162.90 L 574.61 160.51 L 577.81 157.68 L 581.00 153.51 L 584.20 150.51 L 587.40 147.98 L 590.59 145.83 L 593.79 143.80 L 596.99 142.15 L 600.18 140.29 L 603.38 138.77 L 606.58 136.98 L 609.77 134.40 L 612.97 132.18 L 616.16 130.26 L 619.36 128.59 L 622.56 126.87 L 625.75 125.43 L 628.95 122.99 L 632.15 120.91 L 635.34 118.84 L 638.54 117.14 L 641.74 115.58 L 644.93 114.19 L 648.13 111.81 L 651.32 109.88 L 654.52 108.11 L 657.72 106.43 L 660.91 104.96 L 664.11 103.54 L 667.31 102.23 L 670.50 100.98 L 673.70 99.83 L 676.89 98.40 L 680.09 96.86 L 683.29 95.44 L 686.48 93.24 L 689.68 91.64 L 692.88 90.11 L 696.07 88.78 L 699.27 87.20 L 702.47 85.27 L 705.66 83.56 L 708.86 82.04 L 712.05 80.38 L 715.25 78.09 L 718.45 76.21 L 721.64 74.20 L 724.84 72.19 L 728.04 70.32 L 731.23 68.48 L 734.43 66.54 L 737.63 64.80 L 740.82 63.27 L 744.02 61.86 L 747.21 60.36 L 750.41 58.90 L 753.61 57.59 L 756.80 56.27 L 760.00 55.00" fill="none" stroke="#3b82f6" stroke-width="3"
        stroke-linecap="round" stroke-linejoin="round" filter="url(#glow)" class="line-path"/>

  <!-- Data points -->
  
    <circle cx="60" cy="340" r="4" fill="#3b82f6" stroke="#0d1117" stroke-width="2" class="data-point"/>
  
    <circle cx="63.19634703196347" cy="339.80322117010485" r="4" fill="#3b82f6" stroke="#0d1117" stroke-width="2" class="data-point"/>
  
    <circle cx="66.39269406392694" cy="339.4685632961335" r="4" fill="#3b82f6" stroke="#0d1117" stroke-width="2" class="data-point"/>
  
    <circle cx="69.58904109589041" cy="339.158000789088" r="4" fill="#3b82f6" stroke="#0d1117" stroke-width="2" class="data-point"/>
  
    <circle cx="72.78538812785388" cy="338.54089166948484" r="4" fill="#3b82f6" stroke="#0d1117" stroke-width="2" class="data-point"/>
  
    <circle cx="75.98173515981735" cy="337.90370307744337" r="4" fill="#3b82f6" stroke="#0d1117" stroke-width="2" class="data-point"/>
  
    <circle cx="79.17808219178082" cy="337.4017162664863" r="4" fill="#3b82f6" stroke="#0d1117" stroke-width="2" class="data-point"/>
  
    <circle cx="82.37442922374429" cy="336.9331952429264" r="4" fill="#3b82f6" stroke="#0d1117" stroke-width="2" class="data-point"/>
  
    <circle cx="85.57077625570776" cy="336.51688084770603" r="4" fill="#3b82f6" stroke="#0d1117" stroke-width="2" class="data-point"/>
  
    <circle cx="88.76712328767124" cy="336.0282803517078" r="4" fill="#3b82f6" stroke="#0d1117" stroke-width="2" class="data-point"/>
  
    <circle cx="91.9634703196347" cy="335.48345733288244" r="4" fill="#3b82f6" stroke="#0d1117" stroke-width="2" class="data-point"/>
  
    <circle cx="95.15981735159818" cy="334.8998140006764" r="4" fill="#3b82f6" stroke="#0d1117" stroke-width="2" class="data-point"/>
  
    <circle cx="98.35616438356163" cy="334.3697159283057" r="4" fill="#3b82f6" stroke="#0d1117" stroke-width="2" class="data-point"/>
  
    <circle cx="101.55251141552512" cy="333.8061520685379" r="4" fill="#3b82f6" stroke="#0d1117" stroke-width="2" class="data-point"/>
  
    <circle cx="104.74885844748857" cy="333.3951921993011" r="4" fill="#3b82f6" stroke="#0d1117" stroke-width="2" class="data-point"/>
  
    <circle cx="107.94520547945206" cy="332.96950738360954" r="4" fill="#3b82f6" stroke="#0d1117" stroke-width="2" class="data-point"/>
  
    <circle cx="111.14155251141553" cy="332.391218577387" r="4" fill="#3b82f6" stroke="#0d1117" stroke-width="2" class="data-point"/>
  
    <circle cx="114.337899543379" cy="332.0043540750761" r="4" fill="#3b82f6" stroke="#0d1117" stroke-width="2" class="data-point"/>
  
    <circle cx="117.53424657534246" cy="331.4689014767219" r="4" fill="#3b82f6" stroke="#0d1117" stroke-width="2" class="data-point"/>
  
    <circle cx="120.73059360730593" cy="330.8504537256228" r="4" fill="#3b82f6" stroke="#0d1117" stroke-width="2" class="data-point"/>
  
    <circle cx="123.9269406392694" cy="330.38460996505466" r="4" fill="#3b82f6" stroke="#0d1117" stroke-width="2" class="data-point"/>
  
    <circle cx="127.12328767123287" cy="330.00176135723143" r="4" fill="#3b82f6" stroke="#0d1117" stroke-width="2" class="data-point"/>
  
    <circle cx="130.31963470319636" cy="329.75411453049264" r="4" fill="#3b82f6" stroke="#0d1117" stroke-width="2" class="data-point"/>
  
    <circle cx="133.5159817351598" cy="329.5479652801263" r="4" fill="#3b82f6" stroke="#0d1117" stroke-width="2" class="data-point"/>
  
    <circle cx="136.71232876712327" cy="329.1664553037989" r="4" fill="#3b82f6" stroke="#0d1117" stroke-width="2" class="data-point"/>
  
    <circle cx="139.90867579908675" cy="328.89471311013415" r="4" fill="#3b82f6" stroke="#0d1117" stroke-width="2" class="data-point"/>
  
    <circle cx="143.10502283105023" cy="328.2990220944651" r="4" fill="#3b82f6" stroke="#0d1117" stroke-width="2" class="data-point"/>
  
    <circle cx="146.3013698630137" cy="328.06476158268515" r="4" fill="#3b82f6" stroke="#0d1117" stroke-width="2" class="data-point"/>
  
    <circle cx="149.49771689497715" cy="327.76223086461505" r="4" fill="#3b82f6" stroke="#0d1117" stroke-width="2" class="data-point"/>
  
    <circle cx="152.69406392694063" cy="327.37135046781646" r="4" fill="#3b82f6" stroke="#0d1117" stroke-width="2" class="data-point"/>
  
    <circle cx="155.8904109589041" cy="327.1036241686394" r="4" fill="#3b82f6" stroke="#0d1117" stroke-width="2" class="data-point"/>
  
    <circle cx="159.08675799086757" cy="326.83188197497464" r="4" fill="#3b82f6" stroke="#0d1117" stroke-width="2" class="data-point"/>
  
    <circle cx="162.28310502283105" cy="326.54675346635105" r="4" fill="#3b82f6" stroke="#0d1117" stroke-width="2" class="data-point"/>
  
    <circle cx="165.47945205479454" cy="326.34863600496" r="4" fill="#3b82f6" stroke="#0d1117" stroke-width="2" class="data-point"/>
  
    <circle cx="168.675799086758" cy="326.17729117348665" r="4" fill="#3b82f6" stroke="#0d1117" stroke-width="2" class="data-point"/>
  
    <circle cx="171.87214611872145" cy="325.91625803178897" r="4" fill="#3b82f6" stroke="#0d1117" stroke-width="2" class="data-point"/>
  
    <circle cx="175.06849315068493" cy="325.5990023672641" r="4" fill="#3b82f6" stroke="#0d1117" stroke-width="2" class="data-point"/>
  
    <circle cx="178.2648401826484" cy="325.3071807011611" r="4" fill="#3b82f6" stroke="#0d1117" stroke-width="2" class="data-point"/>
  
    <circle cx="181.46118721461187" cy="324.9377184082967" r="4" fill="#3b82f6" stroke="#0d1117" stroke-width="2" class="data-point"/>
  
    <circle cx="184.65753424657532" cy="324.53479032803517" r="4" fill="#3b82f6" stroke="#0d1117" stroke-width="2" class="data-point"/>
  
    <circle cx="187.8538812785388" cy="324.1653280351708" r="4" fill="#3b82f6" stroke="#0d1117" stroke-width="2" class="data-point"/>
  
    <circle cx="191.05022831050226" cy="323.7195637470409" r="4" fill="#3b82f6" stroke="#0d1117" stroke-width="2" class="data-point"/>
  
    <circle cx="194.24657534246575" cy="323.2818312478864" r="4" fill="#3b82f6" stroke="#0d1117" stroke-width="2" class="data-point"/>
  
    <circle cx="197.44292237442923" cy="322.8440987487318" r="4" fill="#3b82f6" stroke="#0d1117" stroke-width="2" class="data-point"/>
  
    <circle cx="200.63926940639269" cy="322.3648686732048" r="4" fill="#3b82f6" stroke="#0d1117" stroke-width="2" class="data-point"/>
  
    <circle cx="203.83561643835617" cy="321.90705670161196" r="4" fill="#3b82f6" stroke="#0d1117" stroke-width="2" class="data-point"/>
  
    <circle cx="207.03196347031962" cy="321.38365178672075" r="4" fill="#3b82f6" stroke="#0d1117" stroke-width="2" class="data-point"/>
  
    <circle cx="210.2283105022831" cy="320.91646939465676" r="4" fill="#3b82f6" stroke="#0d1117" stroke-width="2" class="data-point"/>
  
    <circle cx="213.42465753424656" cy="320.52157310337054" r="4" fill="#3b82f6" stroke="#0d1117" stroke-width="2" class="data-point"/>
  
    <circle cx="216.62100456621005" cy="320.20565607034155" r="4" fill="#3b82f6" stroke="#0d1117" stroke-width="2" class="data-point"/>
  
    <circle cx="219.8173515981735" cy="319.7639076766994" r="4" fill="#3b82f6" stroke="#0d1117" stroke-width="2" class="data-point"/>
  
    <circle cx="223.013698630137" cy="319.25924360275053" r="4" fill="#3b82f6" stroke="#0d1117" stroke-width="2" class="data-point"/>
  
    <circle cx="226.21004566210044" cy="318.79741573667" r="4" fill="#3b82f6" stroke="#0d1117" stroke-width="2" class="data-point"/>
  
    <circle cx="229.40639269406392" cy="318.2579472438282" r="4" fill="#3b82f6" stroke="#0d1117" stroke-width="2" class="data-point"/>
  
    <circle cx="232.60273972602738" cy="317.59264739037314" r="4" fill="#3b82f6" stroke="#0d1117" stroke-width="2" class="data-point"/>
  
    <circle cx="235.79908675799086" cy="317.0973537368955" r="4" fill="#3b82f6" stroke="#0d1117" stroke-width="2" class="data-point"/>
  
    <circle cx="238.99543378995432" cy="316.68639386765864" r="4" fill="#3b82f6" stroke="#0d1117" stroke-width="2" class="data-point"/>
  
    <circle cx="242.1917808219178" cy="316.2955134708601" r="4" fill="#3b82f6" stroke="#0d1117" stroke-width="2" class="data-point"/>
  
    <circle cx="245.38812785388126" cy="315.8256538158043" r="4" fill="#3b82f6" stroke="#0d1117" stroke-width="2" class="data-point"/>
  
    <circle cx="248.58447488584474" cy="315.279492165483" r="4" fill="#3b82f6" stroke="#0d1117" stroke-width="2" class="data-point"/>
  
    <circle cx="251.7808219178082" cy="314.6744307293428" r="4" fill="#3b82f6" stroke="#0d1117" stroke-width="2" class="data-point"/>
  
    <circle cx="254.97716894977168" cy="314.0385807687972" r="4" fill="#3b82f6" stroke="#0d1117" stroke-width="2" class="data-point"/>
  
    <circle cx="258.17351598173514" cy="313.4281648066734" r="4" fill="#3b82f6" stroke="#0d1117" stroke-width="2" class="data-point"/>
  
    <circle cx="261.3698630136986" cy="312.89137357682336" r="4" fill="#3b82f6" stroke="#0d1117" stroke-width="2" class="data-point"/>
  
    <circle cx="264.5662100456621" cy="312.3585982414609" r="4" fill="#3b82f6" stroke="#0d1117" stroke-width="2" class="data-point"/>
  
    <circle cx="267.76255707762556" cy="311.8887385864051" r="4" fill="#3b82f6" stroke="#0d1117" stroke-width="2" class="data-point"/>
  
    <circle cx="270.95890410958907" cy="311.40950851087814" r="4" fill="#3b82f6" stroke="#0d1117" stroke-width="2" class="data-point"/>
  
    <circle cx="274.1552511415525" cy="310.87405591252394" r="4" fill="#3b82f6" stroke="#0d1117" stroke-width="2" class="data-point"/>
  
    <circle cx="277.351598173516" cy="310.207417427573" r="4" fill="#3b82f6" stroke="#0d1117" stroke-width="2" class="data-point"/>
  
    <circle cx="280.54794520547944" cy="309.7107851425995" r="4" fill="#3b82f6" stroke="#0d1117" stroke-width="2" class="data-point"/>
  
    <circle cx="283.7442922374429" cy="309.2663594859655" r="4" fill="#3b82f6" stroke="#0d1117" stroke-width="2" class="data-point"/>
  
    <circle cx="286.94063926940635" cy="308.7724044639838" r="4" fill="#3b82f6" stroke="#0d1117" stroke-width="2" class="data-point"/>
  
    <circle cx="290.13698630136986" cy="308.3119152293992" r="4" fill="#3b82f6" stroke="#0d1117" stroke-width="2" class="data-point"/>
  
    <circle cx="293.3333333333333" cy="307.8059125239545" r="4" fill="#3b82f6" stroke="#0d1117" stroke-width="2" class="data-point"/>
  
    <circle cx="296.5296803652968" cy="307.2784917145756" r="4" fill="#3b82f6" stroke="#0d1117" stroke-width="2" class="data-point"/>
  
    <circle cx="299.7260273972603" cy="306.7269755382708" r="4" fill="#3b82f6" stroke="#0d1117" stroke-width="2" class="data-point"/>
  
    <circle cx="302.92237442922374" cy="306.24372956825613" r="4" fill="#3b82f6" stroke="#0d1117" stroke-width="2" class="data-point"/>
  
    <circle cx="306.1187214611872" cy="305.8300924360275" r="4" fill="#3b82f6" stroke="#0d1117" stroke-width="2" class="data-point"/>
  
    <circle cx="309.31506849315065" cy="305.37629635892233" r="4" fill="#3b82f6" stroke="#0d1117" stroke-width="2" class="data-point"/>
  
    <circle cx="312.5114155251141" cy="304.8850185999324" r="4" fill="#3b82f6" stroke="#0d1117" stroke-width="2" class="data-point"/>
  
    <circle cx="315.7077625570776" cy="304.4298838913313" r="4" fill="#3b82f6" stroke="#0d1117" stroke-width="2" class="data-point"/>
  
    <circle cx="318.90410958904107" cy="303.83687013865404" r="4" fill="#3b82f6" stroke="#0d1117" stroke-width="2" class="data-point"/>
  
    <circle cx="322.1004566210045" cy="303.32685153872166" r="4" fill="#3b82f6" stroke="#0d1117" stroke-width="2" class="data-point"/>
  
    <circle cx="325.29680365296804" cy="302.8355737797317" r="4" fill="#3b82f6" stroke="#0d1117" stroke-width="2" class="data-point"/>
  
    <circle cx="328.4931506849315" cy="302.42729117348665" r="4" fill="#3b82f6" stroke="#0d1117" stroke-width="2" class="data-point"/>
  
    <circle cx="331.68949771689495" cy="302.0310562507045" r="4" fill="#3b82f6" stroke="#0d1117" stroke-width="2" class="data-point"/>
  
    <circle cx="334.88584474885846" cy="301.63348269642654" r="4" fill="#3b82f6" stroke="#0d1117" stroke-width="2" class="data-point"/>
  
    <circle cx="338.0821917808219" cy="301.1582685153872" r="4" fill="#3b82f6" stroke="#0d1117" stroke-width="2" class="data-point"/>
  
    <circle cx="341.27853881278537" cy="300.669668019389" r="4" fill="#3b82f6" stroke="#0d1117" stroke-width="2" class="data-point"/>
  
    <circle cx="344.4748858447488" cy="300.0766542667118" r="4" fill="#3b82f6" stroke="#0d1117" stroke-width="2" class="data-point"/>
  
    <circle cx="347.67123287671234" cy="299.59608555968885" r="4" fill="#3b82f6" stroke="#0d1117" stroke-width="2" class="data-point"/>
  
    <circle cx="350.8675799086758" cy="299.2038665313944" r="4" fill="#3b82f6" stroke="#0d1117" stroke-width="2" class="data-point"/>
  
    <circle cx="354.06392694063925" cy="298.8009384511329" r="4" fill="#3b82f6" stroke="#0d1117" stroke-width="2" class="data-point"/>
  
    <circle cx="357.2602739726027" cy="298.4154125803179" r="4" fill="#3b82f6" stroke="#0d1117" stroke-width="2" class="data-point"/>
  
    <circle cx="360.4566210045662" cy="297.9388597677827" r="4" fill="#3b82f6" stroke="#0d1117" stroke-width="2" class="data-point"/>
  
    <circle cx="363.65296803652967" cy="297.4502592717845" r="4" fill="#3b82f6" stroke="#0d1117" stroke-width="2" class="data-point"/>
  
    <circle cx="366.8493150684931" cy="296.3699836546049" r="4" fill="#3b82f6" stroke="#0d1117" stroke-width="2" class="data-point"/>
  
    <circle cx="370.0456621004566" cy="294.22014147221284" r="4" fill="#3b82f6" stroke="#0d1117" stroke-width="2" class="data-point"/>
  
    <circle cx="373.2420091324201" cy="291.65933942058393" r="4" fill="#3b82f6" stroke="#0d1117" stroke-width="2" class="data-point"/>
  
    <circle cx="376.43835616438355" cy="289.3261047232555" r="4" fill="#3b82f6" stroke="#0d1117" stroke-width="2" class="data-point"/>
  
    <circle cx="379.634703196347" cy="288.1427544808928" r="4" fill="#3b82f6" stroke="#0d1117" stroke-width="2" class="data-point"/>
  
    <circle cx="382.83105022831046" cy="286.35969732837333" r="4" fill="#3b82f6" stroke="#0d1117" stroke-width="2" class="data-point"/>
  
    <circle cx="386.027397260274" cy="285.1750084545147" r="4" fill="#3b82f6" stroke="#0d1117" stroke-width="2" class="data-point"/>
  
    <circle cx="389.2237442922374" cy="284.1362304137076" r="4" fill="#3b82f6" stroke="#0d1117" stroke-width="2" class="data-point"/>
  
    <circle cx="392.4200913242009" cy="283.1202091083305" r="4" fill="#3b82f6" stroke="#0d1117" stroke-width="2" class="data-point"/>
  
    <circle cx="395.61643835616434" cy="282.1630875887724" r="4" fill="#3b82f6" stroke="#0d1117" stroke-width="2" class="data-point"/>
  
    <circle cx="398.81278538812785" cy="280.6745293653478" r="4" fill="#3b82f6" stroke="#0d1117" stroke-width="2" class="data-point"/>
  
    <circle cx="402.0091324200913" cy="279.491179122985" r="4" fill="#3b82f6" stroke="#0d1117" stroke-width="2" class="data-point"/>
  
    <circle cx="405.20547945205476" cy="277.9785255326344" r="4" fill="#3b82f6" stroke="#0d1117" stroke-width="2" class="data-point"/>
  
    <circle cx="408.4018264840183" cy="277.6693016570849" r="4" fill="#3b82f6" stroke="#0d1117" stroke-width="2" class="data-point"/>
  
    <circle cx="411.5981735159817" cy="277.6291427122083" r="4" fill="#3b82f6" stroke="#0d1117" stroke-width="2" class="data-point"/>
  
    <circle cx="414.79452054794524" cy="277.57693608386876" r="4" fill="#3b82f6" stroke="#0d1117" stroke-width="2" class="data-point"/>
  
    <circle cx="417.99086757990864" cy="277.53276124450457" r="4" fill="#3b82f6" stroke="#0d1117" stroke-width="2" class="data-point"/>
  
    <circle cx="421.18721461187215" cy="277.4752000901815" r="4" fill="#3b82f6" stroke="#0d1117" stroke-width="2" class="data-point"/>
  
    <circle cx="424.3835616438356" cy="277.42433209333785" r="4" fill="#3b82f6" stroke="#0d1117" stroke-width="2" class="data-point"/>
  
    <circle cx="427.5799086757991" cy="277.40425262089957" r="4" fill="#3b82f6" stroke="#0d1117" stroke-width="2" class="data-point"/>
  
    <circle cx="430.7762557077625" cy="277.3306278886259" r="4" fill="#3b82f6" stroke="#0d1117" stroke-width="2" class="data-point"/>
  
    <circle cx="433.972602739726" cy="277.2596804193439" r="4" fill="#3b82f6" stroke="#0d1117" stroke-width="2" class="data-point"/>
  
    <circle cx="437.1689497716895" cy="277.21282831698795" r="4" fill="#3b82f6" stroke="#0d1117" stroke-width="2" class="data-point"/>
  
    <circle cx="440.365296803653" cy="277.19542610754144" r="4" fill="#3b82f6" stroke="#0d1117" stroke-width="2" class="data-point"/>
  
    <circle cx="443.5616438356164" cy="277.1164468492842" r="4" fill="#3b82f6" stroke="#0d1117" stroke-width="2" class="data-point"/>
  
    <circle cx="446.7579908675799" cy="275.17543118025026" r="4" fill="#3b82f6" stroke="#0d1117" stroke-width="2" class="data-point"/>
  
    <circle cx="449.95433789954336" cy="272.1353990530944" r="4" fill="#3b82f6" stroke="#0d1117" stroke-width="2" class="data-point"/>
  
    <circle cx="453.1506849315069" cy="270.09934054785253" r="4" fill="#3b82f6" stroke="#0d1117" stroke-width="2" class="data-point"/>
  
    <circle cx="456.3470319634703" cy="267.7353173261188" r="4" fill="#3b82f6" stroke="#0d1117" stroke-width="2" class="data-point"/>
  
    <circle cx="459.5433789954338" cy="265.29900800360724" r="4" fill="#3b82f6" stroke="#0d1117" stroke-width="2" class="data-point"/>
  
    <circle cx="462.73972602739724" cy="263.38744222748284" r="4" fill="#3b82f6" stroke="#0d1117" stroke-width="2" class="data-point"/>
  
    <circle cx="465.93607305936075" cy="261.2496477285537" r="4" fill="#3b82f6" stroke="#0d1117" stroke-width="2" class="data-point"/>
  
    <circle cx="469.1324200913242" cy="257.99275729906435" r="4" fill="#3b82f6" stroke="#0d1117" stroke-width="2" class="data-point"/>
  
    <circle cx="472.32876712328766" cy="253.6033846240559" r="4" fill="#3b82f6" stroke="#0d1117" stroke-width="2" class="data-point"/>
  
    <circle cx="475.5251141552511" cy="250.738713222861" r="4" fill="#3b82f6" stroke="#0d1117" stroke-width="2" class="data-point"/>
  
    <circle cx="478.72146118721463" cy="247.32921880284073" r="4" fill="#3b82f6" stroke="#0d1117" stroke-width="2" class="data-point"/>
  
    <circle cx="481.9178082191781" cy="243.53018261751777" r="4" fill="#3b82f6" stroke="#0d1117" stroke-width="2" class="data-point"/>
  
    <circle cx="485.11415525114154" cy="240.48345733288244" r="4" fill="#3b82f6" stroke="#0d1117" stroke-width="2" class="data-point"/>
  
    <circle cx="488.310502283105" cy="237.1770375380453" r="4" fill="#3b82f6" stroke="#0d1117" stroke-width="2" class="data-point"/>
  
    <circle cx="491.5068493150685" cy="234.24409593056026" r="4" fill="#3b82f6" stroke="#0d1117" stroke-width="2" class="data-point"/>
  
    <circle cx="494.70319634703196" cy="231.3379269529929" r="4" fill="#3b82f6" stroke="#0d1117" stroke-width="2" class="data-point"/>
  
    <circle cx="497.8995433789955" cy="228.43978976440087" r="4" fill="#3b82f6" stroke="#0d1117" stroke-width="2" class="data-point"/>
  
    <circle cx="501.0958904109589" cy="224.49350411453048" r="4" fill="#3b82f6" stroke="#0d1117" stroke-width="2" class="data-point"/>
  
    <circle cx="504.2922374429224" cy="220.53517078119717" r="4" fill="#3b82f6" stroke="#0d1117" stroke-width="2" class="data-point"/>
  
    <circle cx="507.48858447488584" cy="217.2354441438395" r="4" fill="#3b82f6" stroke="#0d1117" stroke-width="2" class="data-point"/>
  
    <circle cx="510.68493150684935" cy="214.4698314733401" r="4" fill="#3b82f6" stroke="#0d1117" stroke-width="2" class="data-point"/>
  
    <circle cx="513.8812785388127" cy="211.78721395558563" r="4" fill="#3b82f6" stroke="#0d1117" stroke-width="2" class="data-point"/>
  
    <circle cx="517.0776255707763" cy="208.22645417653027" r="4" fill="#3b82f6" stroke="#0d1117" stroke-width="2" class="data-point"/>
  
    <circle cx="520.2739726027397" cy="205.46485740051853" r="4" fill="#3b82f6" stroke="#0d1117" stroke-width="2" class="data-point"/>
  
    <circle cx="523.4703196347032" cy="202.7327105174163" r="4" fill="#3b82f6" stroke="#0d1117" stroke-width="2" class="data-point"/>
  
    <circle cx="526.6666666666666" cy="200.17726299177093" r="4" fill="#3b82f6" stroke="#0d1117" stroke-width="2" class="data-point"/>
  
    <circle cx="529.8630136986301" cy="197.77040356216887" r="4" fill="#3b82f6" stroke="#0d1117" stroke-width="2" class="data-point"/>
  
    <circle cx="533.0593607305937" cy="195.30464434674784" r="4" fill="#3b82f6" stroke="#0d1117" stroke-width="2" class="data-point"/>
  
    <circle cx="536.2557077625571" cy="193.1962997407282" r="4" fill="#3b82f6" stroke="#0d1117" stroke-width="2" class="data-point"/>
  
    <circle cx="539.4520547945206" cy="191.012991770939" r="4" fill="#3b82f6" stroke="#0d1117" stroke-width="2" class="data-point"/>
  
    <circle cx="542.648401826484" cy="188.7841703302897" r="4" fill="#3b82f6" stroke="#0d1117" stroke-width="2" class="data-point"/>
  
    <circle cx="545.8447488584475" cy="186.4281788975313" r="4" fill="#3b82f6" stroke="#0d1117" stroke-width="2" class="data-point"/>
  
    <circle cx="549.041095890411" cy="184.26628903167622" r="4" fill="#3b82f6" stroke="#0d1117" stroke-width="2" class="data-point"/>
  
    <circle cx="552.2374429223744" cy="182.28645304926164" r="4" fill="#3b82f6" stroke="#0d1117" stroke-width="2" class="data-point"/>
  
    <circle cx="555.433789954338" cy="178.69892064028858" r="4" fill="#3b82f6" stroke="#0d1117" stroke-width="2" class="data-point"/>
  
    <circle cx="558.6301369863013" cy="175.69637019501747" r="4" fill="#3b82f6" stroke="#0d1117" stroke-width="2" class="data-point"/>
  
    <circle cx="561.8264840182649" cy="172.81295795288017" r="4" fill="#3b82f6" stroke="#0d1117" stroke-width="2" class="data-point"/>
  
    <circle cx="565.0228310502282" cy="170.04332938789315" r="4" fill="#3b82f6" stroke="#0d1117" stroke-width="2" class="data-point"/>
  
    <circle cx="568.2191780821918" cy="165.6700202908353" r="4" fill="#3b82f6" stroke="#0d1117" stroke-width="2" class="data-point"/>
  
    <circle cx="571.4155251141552" cy="162.90306898884006" r="4" fill="#3b82f6" stroke="#0d1117" stroke-width="2" class="data-point"/>
  
    <circle cx="574.6118721461187" cy="160.50825724270095" r="4" fill="#3b82f6" stroke="#0d1117" stroke-width="2" class="data-point"/>
  
    <circle cx="577.8082191780821" cy="157.67972889189494" r="4" fill="#3b82f6" stroke="#0d1117" stroke-width="2" class="data-point"/>
  
    <circle cx="581.0045662100457" cy="153.5098917822117" r="4" fill="#3b82f6" stroke="#0d1117" stroke-width="2" class="data-point"/>
  
    <circle cx="584.200913242009" cy="150.51001859993238" r="4" fill="#3b82f6" stroke="#0d1117" stroke-width="2" class="data-point"/>
  
    <circle cx="587.3972602739726" cy="147.97732780971708" r="4" fill="#3b82f6" stroke="#0d1117" stroke-width="2" class="data-point"/>
  
    <circle cx="590.5936073059361" cy="145.83417878480444" r="4" fill="#3b82f6" stroke="#0d1117" stroke-width="2" class="data-point"/>
  
    <circle cx="593.7899543378995" cy="143.8007975425544" r="4" fill="#3b82f6" stroke="#0d1117" stroke-width="2" class="data-point"/>
  
    <circle cx="596.986301369863" cy="142.14758764513584" r="4" fill="#3b82f6" stroke="#0d1117" stroke-width="2" class="data-point"/>
  
    <circle cx="600.1826484018264" cy="140.28555123435913" r="4" fill="#3b82f6" stroke="#0d1117" stroke-width="2" class="data-point"/>
  
    <circle cx="603.3789954337899" cy="138.767543118025" r="4" fill="#3b82f6" stroke="#0d1117" stroke-width="2" class="data-point"/>
  
    <circle cx="606.5753424657535" cy="136.97645417653027" r="4" fill="#3b82f6" stroke="#0d1117" stroke-width="2" class="data-point"/>
  
    <circle cx="609.7716894977169" cy="134.39824991545487" r="4" fill="#3b82f6" stroke="#0d1117" stroke-width="2" class="data-point"/>
  
    <circle cx="612.9680365296804" cy="132.1828147897644" r="4" fill="#3b82f6" stroke="#0d1117" stroke-width="2" class="data-point"/>
  
    <circle cx="616.1643835616438" cy="130.2565240671852" r="4" fill="#3b82f6" stroke="#0d1117" stroke-width="2" class="data-point"/>
  
    <circle cx="619.3607305936073" cy="128.59126648630368" r="4" fill="#3b82f6" stroke="#0d1117" stroke-width="2" class="data-point"/>
  
    <circle cx="622.5570776255707" cy="126.87380227708263" r="4" fill="#3b82f6" stroke="#0d1117" stroke-width="2" class="data-point"/>
  
    <circle cx="625.7534246575343" cy="125.42540299853454" r="4" fill="#3b82f6" stroke="#0d1117" stroke-width="2" class="data-point"/>
  
    <circle cx="628.9497716894977" cy="122.99043230751889" r="4" fill="#3b82f6" stroke="#0d1117" stroke-width="2" class="data-point"/>
  
    <circle cx="632.1461187214612" cy="120.90886033141697" r="4" fill="#3b82f6" stroke="#0d1117" stroke-width="2" class="data-point"/>
  
    <circle cx="635.3424657534247" cy="118.84469056476158" r="4" fill="#3b82f6" stroke="#0d1117" stroke-width="2" class="data-point"/>
  
    <circle cx="638.5388127853881" cy="117.1406126704994" r="4" fill="#3b82f6" stroke="#0d1117" stroke-width="2" class="data-point"/>
  
    <circle cx="641.7351598173516" cy="115.57709108330516" r="4" fill="#3b82f6" stroke="#0d1117" stroke-width="2" class="data-point"/>
  
    <circle cx="644.931506849315" cy="114.18893022207192" r="4" fill="#3b82f6" stroke="#0d1117" stroke-width="2" class="data-point"/>
  
    <circle cx="648.1278538812785" cy="111.80884342238755" r="4" fill="#3b82f6" stroke="#0d1117" stroke-width="2" class="data-point"/>
  
    <circle cx="651.3242009132421" cy="109.87585954232893" r="4" fill="#3b82f6" stroke="#0d1117" stroke-width="2" class="data-point"/>
  
    <circle cx="654.5205479452054" cy="108.11422049374366" r="4" fill="#3b82f6" stroke="#0d1117" stroke-width="2" class="data-point"/>
  
    <circle cx="657.716894977169" cy="106.43156070341561" r="4" fill="#3b82f6" stroke="#0d1117" stroke-width="2" class="data-point"/>
  
    <circle cx="660.9132420091324" cy="104.96308195242926" r="4" fill="#3b82f6" stroke="#0d1117" stroke-width="2" class="data-point"/>
  
    <circle cx="664.1095890410959" cy="103.53743940931125" r="4" fill="#3b82f6" stroke="#0d1117" stroke-width="2" class="data-point"/>
  
    <circle cx="667.3059360730593" cy="102.23093506932705" r="4" fill="#3b82f6" stroke="#0d1117" stroke-width="2" class="data-point"/>
  
    <circle cx="670.5022831050228" cy="100.97797598917822" r="4" fill="#3b82f6" stroke="#0d1117" stroke-width="2" class="data-point"/>
  
    <circle cx="673.6986301369863" cy="99.82943016570849" r="4" fill="#3b82f6" stroke="#0d1117" stroke-width="2" class="data-point"/>
  
    <circle cx="676.8949771689498" cy="98.39575583361514" r="4" fill="#3b82f6" stroke="#0d1117" stroke-width="2" class="data-point"/>
  
    <circle cx="680.0913242009132" cy="96.85632961334687" r="4" fill="#3b82f6" stroke="#0d1117" stroke-width="2" class="data-point"/>
  
    <circle cx="683.2876712328767" cy="95.44005749070004" r="4" fill="#3b82f6" stroke="#0d1117" stroke-width="2" class="data-point"/>
  
    <circle cx="686.4840182648402" cy="93.23934731146434" r="4" fill="#3b82f6" stroke="#0d1117" stroke-width="2" class="data-point"/>
  
    <circle cx="689.6803652968036" cy="91.64235993687296" r="4" fill="#3b82f6" stroke="#0d1117" stroke-width="2" class="data-point"/>
  
    <circle cx="692.8767123287671" cy="90.11498140006765" r="4" fill="#3b82f6" stroke="#0d1117" stroke-width="2" class="data-point"/>
  
    <circle cx="696.0730593607306" cy="88.77501127268627" r="4" fill="#3b82f6" stroke="#0d1117" stroke-width="2" class="data-point"/>
  
    <circle cx="699.269406392694" cy="87.20345789651674" r="4" fill="#3b82f6" stroke="#0d1117" stroke-width="2" class="data-point"/>
  
    <circle cx="702.4657534246576" cy="85.2731512794499" r="4" fill="#3b82f6" stroke="#0d1117" stroke-width="2" class="data-point"/>
  
    <circle cx="705.6621004566209" cy="83.56238022770827" r="4" fill="#3b82f6" stroke="#0d1117" stroke-width="2" class="data-point"/>
  
    <circle cx="708.8584474885845" cy="82.03500169090296" r="4" fill="#3b82f6" stroke="#0d1117" stroke-width="2" class="data-point"/>
  
    <circle cx="712.054794520548" cy="80.37643726750082" r="4" fill="#3b82f6" stroke="#0d1117" stroke-width="2" class="data-point"/>
  
    <circle cx="715.2511415525114" cy="78.08871604103257" r="4" fill="#3b82f6" stroke="#0d1117" stroke-width="2" class="data-point"/>
  
    <circle cx="718.4474885844749" cy="76.21061605230528" r="4" fill="#3b82f6" stroke="#0d1117" stroke-width="2" class="data-point"/>
  
    <circle cx="721.6438356164383" cy="74.19597565099764" r="4" fill="#3b82f6" stroke="#0d1117" stroke-width="2" class="data-point"/>
  
    <circle cx="724.8401826484018" cy="72.18802840716944" r="4" fill="#3b82f6" stroke="#0d1117" stroke-width="2" class="data-point"/>
  
    <circle cx="728.0365296803653" cy="70.31796020741746" r="4" fill="#3b82f6" stroke="#0d1117" stroke-width="2" class="data-point"/>
  
    <circle cx="731.2328767123287" cy="68.48269642655845" r="4" fill="#3b82f6" stroke="#0d1117" stroke-width="2" class="data-point"/>
  
    <circle cx="734.4292237442922" cy="66.54034212602863" r="4" fill="#3b82f6" stroke="#0d1117" stroke-width="2" class="data-point"/>
  
    <circle cx="737.6255707762557" cy="64.79878254988165" r="4" fill="#3b82f6" stroke="#0d1117" stroke-width="2" class="data-point"/>
  
    <circle cx="740.8219178082192" cy="63.27274264457219" r="4" fill="#3b82f6" stroke="#0d1117" stroke-width="2" class="data-point"/>
  
    <circle cx="744.0182648401826" cy="61.859147784917184" r="4" fill="#3b82f6" stroke="#0d1117" stroke-width="2" class="data-point"/>
  
    <circle cx="747.2146118721461" cy="60.363896404013076" r="4" fill="#3b82f6" stroke="#0d1117" stroke-width="2" class="data-point"/>
  
    <circle cx="750.4109589041095" cy="58.90478807349791" r="4" fill="#3b82f6" stroke="#0d1117" stroke-width="2" class="data-point"/>
  
    <circle cx="753.6073059360731" cy="57.58623605005073" r="4" fill="#3b82f6" stroke="#0d1117" stroke-width="2" class="data-point"/>
  
    <circle cx="756.8036529680365" cy="56.26500676361178" r="4" fill="#3b82f6" stroke="#0d1117" stroke-width="2" class="data-point"/>
  
    <circle cx="760" cy="55" r="4" fill="#3b82f6" stroke="#0d1117" stroke-width="2" class="data-point"/>
  

  <!-- Axis lines -->
  <line x1="60" y1="55" x2="60" y2="340"
        stroke="#30363d" stroke-width="2"/>
  <line x1="60" y1="340" x2="760" y2="340"
        stroke="#30363d" stroke-width="2"/>
</svg>