<?xml version="1.0" encoding="UTF-8"?>
<svg width="800" height="400" xmlns="http://www.w3.org/2000/svg">
  <defs>
    <!-- Gradient for area fill -->
    <linearGradient id="areaGradient" x1="0%" y1="0%" x2="0%" y2="100%">
      <stop offset="0%" style="stop-color:#3b82f6;stop-opacity:0.3" />
      <stop offset="100%" style="stop-color:#3b82f6;stop-opacity:0.05" />
    </linearGradient>

    <!-- Glow filter for line -->
    <filter id="glow">
      <feGaussianBlur stdDeviation="2" result="coloredBlur"/>
      <feMerge>
        <feMergeNode in="coloredBlur"/>
        <feMergeNode in="SourceGraphic"/>
      </feMerge>
    </filter>

    <!-- Animation -->
    <style>
      @keyframes draw {
        from { stroke-dashoffset: 2000; }
        to { stroke-dashoffset: 0; }
      }
      @keyframes fadeIn {
        from { opacity: 0; }
        to { opacity: 1; }
      }
      .line-path {
        stroke-dasharray: 2000;
        stroke-dashoffset: 2000;
        animation: draw 1.5s ease-out forwards;
      }
      .area-path {
        opacity: 0;
        animation: fadeIn 1s ease-out 0.5s forwards;
      }
      .data-point {
        opacity: 0;
        animation: fadeIn 0.5s ease-out 1s forwards;
      }
    </style>
  </defs>

  <!-- Background -->
  <rect width="800" height="400" fill="#0d1117" rx="8"/>

  <!-- Title -->
  <text x="400" y="25" text-anchor="middle" fill="#c9d1d9" font-family="system-ui, -apple-system, sans-serif" font-size="16" font-weight="600">
    zxcloli666/SoundCloud-Desktop Downloads
  </text>

  <!-- Stats -->
  <text x="780" y="25" text-anchor="end" fill="#58a6ff" font-family="system-ui, -apple-system, sans-serif" font-size="14" font-weight="600">
    101.1K total
  </text>
  <text x="780" y="42" text-anchor="end" fill="#3fb950" font-family="system-ui, -apple-system, sans-serif" font-size="12">
    +885 (+0.9%)
  </text>

  <!-- Grid lines -->
  <g opacity="0.1">
    
      <line x1="60" y1="340" x2="760" y2="340"
            stroke="#c9d1d9" stroke-width="1"/>
    
      <line x1="60" y1="268.75" x2="760" y2="268.75"
            stroke="#c9d1d9" stroke-width="1"/>
    
      <line x1="60" y1="197.5" x2="760" y2="197.5"
            stroke="#c9d1d9" stroke-width="1"/>
    
      <line x1="60" y1="126.25" x2="760" y2="126.25"
            stroke="#c9d1d9" stroke-width="1"/>
    
      <line x1="60" y1="55" x2="760" y2="55"
            stroke="#c9d1d9" stroke-width="1"/>
    
  </g>

  <!-- Y-axis labels -->
  
    <text x="50" y="344" text-anchor="end"
          fill="#8b949e" font-family="system-ui, -apple-system, sans-serif" font-size="11">
      60.2K
    </text>
  
    <text x="50" y="272.75" text-anchor="end"
          fill="#8b949e" font-family="system-ui, -apple-system, sans-serif" font-size="11">
      70.4K
    </text>
  
    <text x="50" y="201.5" text-anchor="end"
          fill="#8b949e" font-family="system-ui, -apple-system, sans-serif" font-size="11">
      80.6K
    </text>
  
    <text x="50" y="130.25" text-anchor="end"
          fill="#8b949e" font-family="system-ui, -apple-system, sans-serif" font-size="11">
      90.9K
    </text>
  
    <text x="50" y="59" text-anchor="end"
          fill="#8b949e" font-family="system-ui, -apple-system, sans-serif" font-size="11">
      101.1K
    </text>
  

  <!-- X-axis labels -->
  
    <text x="60" y="360" text-anchor="middle"
          fill="#8b949e" font-family="system-ui, -apple-system, sans-serif" font-size="11">
      Nov 25
    </text>
  
    <text x="142.3529411764706" y="360" text-anchor="middle"
          fill="#8b949e" font-family="system-ui, -apple-system, sans-serif" font-size="11">
      Dec 7
    </text>
  
    <text x="224.7058823529412" y="360" text-anchor="middle"
          fill="#8b949e" font-family="system-ui, -apple-system, sans-serif" font-size="11">
      Dec 19
    </text>
  
    <text x="307.05882352941177" y="360" text-anchor="middle"
          fill="#8b949e" font-family="system-ui, -apple-system, sans-serif" font-size="11">
      Dec 31
    </text>
  
    <text x="389.4117647058824" y="360" text-anchor="middle"
          fill="#8b949e" font-family="system-ui, -apple-system, sans-serif" font-size="11">
      Jan 12
    </text>
  
    <text x="471.7647058823529" y="360" text-anchor="middle"
          fill="#8b949e" font-family="system-ui, -apple-system, sans-serif" font-size="11">
      Jan 24
    </text>
  
    <text x="554.1176470588235" y="360" text-anchor="middle"
          fill="#8b949e" font-family="system-ui, -apple-system, sans-serif" font-size="11">
      Feb 5
    </text>
  
    <text x="636.4705882352941" y="360" text-anchor="middle"
          fill="#8b949e" font-family="system-ui, -apple-system, sans-serif" font-size="11">
      Feb 17
    </text>
  
    <text x="718.8235294117648" y="360" text-anchor="middle"
          fill="#8b949e" font-family="system-ui, -apple-system, sans-serif" font-size="11">
      Mar 1
    </text>
  
    <text x="760" y="360" text-anchor="middle"
          fill="#8b949e" font-family="system-ui, -apple-system, sans-serif" font-size="11">
      Mar 7
    </text>
  

  <!-- Area under line -->
  <path d="M 60 340
    L 60.00 340.00 L 66.86 338.98 L 73.73 337.24 L 80.59 335.62 L 87.45 332.42 L 94.31 329.10 L 101.18 326.49 L 108.04 324.06 L 114.90 321.89 L 121.76 319.35 L 128.63 316.52 L 135.49 313.49 L 142.35 310.73 L 149.22 307.80 L 156.08 305.67 L 162.94 303.45 L 169.80 300.45 L 176.67 298.44 L 183.53 295.65 L 190.39 292.44 L 197.25 290.02 L 204.12 288.03 L 210.98 286.74 L 217.84 285.67 L 224.71 283.68 L 231.57 282.27 L 238.43 279.17 L 245.29 277.96 L 252.16 276.38 L 259.02 274.35 L 265.88 272.96 L 272.75 271.55 L 279.61 270.07 L 286.47 269.04 L 293.33 268.14 L 300.20 266.79 L 307.06 265.14 L 313.92 263.62 L 320.78 261.70 L 327.65 259.61 L 334.51 257.69 L 341.37 255.37 L 348.24 253.09 L 355.10 250.82 L 361.96 248.33 L 368.82 245.95 L 375.69 243.23 L 382.55 240.80 L 389.41 238.74 L 396.27 237.10 L 403.14 234.81 L 410.00 232.18 L 416.86 229.78 L 423.73 226.98 L 430.59 223.52 L 437.45 220.94 L 444.31 218.81 L 451.18 216.78 L 458.04 214.33 L 464.90 211.49 L 471.76 208.35 L 478.63 205.04 L 485.49 201.87 L 492.35 199.08 L 499.22 196.31 L 506.08 193.87 L 512.94 191.38 L 519.80 188.59 L 526.67 185.13 L 533.53 182.55 L 540.39 180.24 L 547.25 177.67 L 554.12 175.27 L 560.98 172.64 L 567.84 169.90 L 574.71 167.03 L 581.57 164.52 L 588.43 162.37 L 595.29 160.01 L 602.16 157.46 L 609.02 155.09 L 615.88 152.01 L 622.75 149.36 L 629.61 146.81 L 636.47 144.68 L 643.33 142.62 L 650.20 140.56 L 657.06 138.09 L 663.92 135.55 L 670.78 132.46 L 677.65 129.97 L 684.51 127.93 L 691.37 125.83 L 698.24 123.83 L 705.10 121.35 L 711.96 118.81 L 718.82 113.20 L 725.69 102.02 L 732.55 88.71 L 739.41 76.58 L 746.27 70.43 L 753.14 61.16 L 760.00 55.00
    L 760 340
    Z" fill="url(#areaGradient)" class="area-path"/>

  <!-- Main line with glow -->
  <path d="M 60.00 340.00 L 66.86 338.98 L 73.73 337.24 L 80.59 335.62 L 87.45 332.42 L 94.31 329.10 L 101.18 326.49 L 108.04 324.06 L 114.90 321.89 L 121.76 319.35 L 128.63 316.52 L 135.49 313.49 L 142.35 310.73 L 149.22 307.80 L 156.08 305.67 L 162.94 303.45 L 169.80 300.45 L 176.67 298.44 L 183.53 295.65 L 190.39 292.44 L 197.25 290.02 L 204.12 288.03 L 210.98 286.74 L 217.84 285.67 L 224.71 283.68 L 231.57 282.27 L 238.43 279.17 L 245.29 277.96 L 252.16 276.38 L 259.02 274.35 L 265.88 272.96 L 272.75 271.55 L 279.61 270.07 L 286.47 269.04 L 293.33 268.14 L 300.20 266.79 L 307.06 265.14 L 313.92 263.62 L 320.78 261.70 L 327.65 259.61 L 334.51 257.69 L 341.37 255.37 L 348.24 253.09 L 355.10 250.82 L 361.96 248.33 L 368.82 245.95 L 375.69 243.23 L 382.55 240.80 L 389.41 238.74 L 396.27 237.10 L 403.14 234.81 L 410.00 232.18 L 416.86 229.78 L 423.73 226.98 L 430.59 223.52 L 437.45 220.94 L 444.31 218.81 L 451.18 216.78 L 458.04 214.33 L 464.90 211.49 L 471.76 208.35 L 478.63 205.04 L 485.49 201.87 L 492.35 199.08 L 499.22 196.31 L 506.08 193.87 L 512.94 191.38 L 519.80 188.59 L 526.67 185.13 L 533.53 182.55 L 540.39 180.24 L 547.25 177.67 L 554.12 175.27 L 560.98 172.64 L 567.84 169.90 L 574.71 167.03 L 581.57 164.52 L 588.43 162.37 L 595.29 160.01 L 602.16 157.46 L 609.02 155.09 L 615.88 152.01 L 622.75 149.36 L 629.61 146.81 L 636.47 144.68 L 643.33 142.62 L 650.20 140.56 L 657.06 138.09 L 663.92 135.55 L 670.78 132.46 L 677.65 129.97 L 684.51 127.93 L 691.37 125.83 L 698.24 123.83 L 705.10 121.35 L 711.96 118.81 L 718.82 113.20 L 725.69 102.02 L 732.55 88.71 L 739.41 76.58 L 746.27 70.43 L 753.14 61.16 L 760.00 55.00" fill="none" stroke="#3b82f6" stroke-width="3"
        stroke-linecap="round" stroke-linejoin="round" filter="url(#glow)" class="line-path"/>

  <!-- Data points -->
  
    <circle cx="60" cy="340" r="4" fill="#3b82f6" stroke="#0d1117" stroke-width="2" class="data-point"/>
  
    <circle cx="66.86274509803921" cy="338.9770729563434" r="4" fill="#3b82f6" stroke="#0d1117" stroke-width="2" class="data-point"/>
  
    <circle cx="73.72549019607843" cy="337.23740111339" r="4" fill="#3b82f6" stroke="#0d1117" stroke-width="2" class="data-point"/>
  
    <circle cx="80.58823529411765" cy="335.6229856431292" r="4" fill="#3b82f6" stroke="#0d1117" stroke-width="2" class="data-point"/>
  
    <circle cx="87.45098039215686" cy="332.4150307647231" r="4" fill="#3b82f6" stroke="#0d1117" stroke-width="2" class="data-point"/>
  
    <circle cx="94.31372549019608" cy="329.1026955757398" r="4" fill="#3b82f6" stroke="#0d1117" stroke-width="2" class="data-point"/>
  
    <circle cx="101.1764705882353" cy="326.4931878113097" r="4" fill="#3b82f6" stroke="#0d1117" stroke-width="2" class="data-point"/>
  
    <circle cx="108.03921568627452" cy="324.05764723117494" r="4" fill="#3b82f6" stroke="#0d1117" stroke-width="2" class="data-point"/>
  
    <circle cx="114.90196078431373" cy="321.8934954585409" r="4" fill="#3b82f6" stroke="#0d1117" stroke-width="2" class="data-point"/>
  
    <circle cx="121.76470588235294" cy="319.3535745678289" r="4" fill="#3b82f6" stroke="#0d1117" stroke-width="2" class="data-point"/>
  
    <circle cx="128.62745098039215" cy="316.5213888075007" r="4" fill="#3b82f6" stroke="#0d1117" stroke-width="2" class="data-point"/>
  
    <circle cx="135.49019607843138" cy="313.48740111339" r="4" fill="#3b82f6" stroke="#0d1117" stroke-width="2" class="data-point"/>
  
    <circle cx="142.3529411764706" cy="310.7317609141518" r="4" fill="#3b82f6" stroke="#0d1117" stroke-width="2" class="data-point"/>
  
    <circle cx="149.21568627450978" cy="307.8021535306182" r="4" fill="#3b82f6" stroke="#0d1117" stroke-width="2" class="data-point"/>
  
    <circle cx="156.07843137254903" cy="305.66583650747145" r="4" fill="#3b82f6" stroke="#0d1117" stroke-width="2" class="data-point"/>
  
    <circle cx="162.94117647058823" cy="303.4529739232347" r="4" fill="#3b82f6" stroke="#0d1117" stroke-width="2" class="data-point"/>
  
    <circle cx="169.80392156862746" cy="300.4468209786112" r="4" fill="#3b82f6" stroke="#0d1117" stroke-width="2" class="data-point"/>
  
    <circle cx="176.66666666666666" cy="298.435760328157" r="4" fill="#3b82f6" stroke="#0d1117" stroke-width="2" class="data-point"/>
  
    <circle cx="183.52941176470588" cy="295.6522853794316" r="4" fill="#3b82f6" stroke="#0d1117" stroke-width="2" class="data-point"/>
  
    <circle cx="190.3921568627451" cy="292.43737181365367" r="4" fill="#3b82f6" stroke="#0d1117" stroke-width="2" class="data-point"/>
  
    <circle cx="197.2549019607843" cy="290.0157486082625" r="4" fill="#3b82f6" stroke="#0d1117" stroke-width="2" class="data-point"/>
  
    <circle cx="204.11764705882354" cy="288.0255640199238" r="4" fill="#3b82f6" stroke="#0d1117" stroke-width="2" class="data-point"/>
  
    <circle cx="210.98039215686276" cy="286.7382068561383" r="4" fill="#3b82f6" stroke="#0d1117" stroke-width="2" class="data-point"/>
  
    <circle cx="217.84313725490196" cy="285.666569000879" r="4" fill="#3b82f6" stroke="#0d1117" stroke-width="2" class="data-point"/>
  
    <circle cx="224.7058823529412" cy="283.6833430999121" r="4" fill="#3b82f6" stroke="#0d1117" stroke-width="2" class="data-point"/>
  
    <circle cx="231.5686274509804" cy="282.2707295634339" r="4" fill="#3b82f6" stroke="#0d1117" stroke-width="2" class="data-point"/>
  
    <circle cx="238.43137254901958" cy="279.17411368297684" r="4" fill="#3b82f6" stroke="#0d1117" stroke-width="2" class="data-point"/>
  
    <circle cx="245.2941176470588" cy="277.95634339290945" r="4" fill="#3b82f6" stroke="#0d1117" stroke-width="2" class="data-point"/>
  
    <circle cx="252.15686274509807" cy="276.3836800468796" r="4" fill="#3b82f6" stroke="#0d1117" stroke-width="2" class="data-point"/>
  
    <circle cx="259.01960784313724" cy="274.35174333431" r="4" fill="#3b82f6" stroke="#0d1117" stroke-width="2" class="data-point"/>
  
    <circle cx="265.88235294117646" cy="272.9600058599473" r="4" fill="#3b82f6" stroke="#0d1117" stroke-width="2" class="data-point"/>
  
    <circle cx="272.7450980392157" cy="271.54739232346907" r="4" fill="#3b82f6" stroke="#0d1117" stroke-width="2" class="data-point"/>
  
    <circle cx="279.6078431372549" cy="270.06519191327277" r="4" fill="#3b82f6" stroke="#0d1117" stroke-width="2" class="data-point"/>
  
    <circle cx="286.47058823529414" cy="269.03530618224437" r="4" fill="#3b82f6" stroke="#0d1117" stroke-width="2" class="data-point"/>
  
    <circle cx="293.3333333333333" cy="268.1445941986522" r="4" fill="#3b82f6" stroke="#0d1117" stroke-width="2" class="data-point"/>
  
    <circle cx="300.19607843137254" cy="266.7876501611486" r="4" fill="#3b82f6" stroke="#0d1117" stroke-width="2" class="data-point"/>
  
    <circle cx="307.05882352941177" cy="265.13844125402875" r="4" fill="#3b82f6" stroke="#0d1117" stroke-width="2" class="data-point"/>
  
    <circle cx="313.92156862745094" cy="263.62144740697335" r="4" fill="#3b82f6" stroke="#0d1117" stroke-width="2" class="data-point"/>
  
    <circle cx="320.7843137254902" cy="261.7008496923528" r="4" fill="#3b82f6" stroke="#0d1117" stroke-width="2" class="data-point"/>
  
    <circle cx="327.6470588235294" cy="259.6062847934369" r="4" fill="#3b82f6" stroke="#0d1117" stroke-width="2" class="data-point"/>
  
    <circle cx="334.5098039215686" cy="257.6856870788163" r="4" fill="#3b82f6" stroke="#0d1117" stroke-width="2" class="data-point"/>
  
    <circle cx="341.37254901960785" cy="255.36844418400233" r="4" fill="#3b82f6" stroke="#0d1117" stroke-width="2" class="data-point"/>
  
    <circle cx="348.2352941176471" cy="253.09295341341928" r="4" fill="#3b82f6" stroke="#0d1117" stroke-width="2" class="data-point"/>
  
    <circle cx="355.0980392156863" cy="250.8174626428362" r="4" fill="#3b82f6" stroke="#0d1117" stroke-width="2" class="data-point"/>
  
    <circle cx="361.9607843137255" cy="248.32625256372694" r="4" fill="#3b82f6" stroke="#0d1117" stroke-width="2" class="data-point"/>
  
    <circle cx="368.8235294117647" cy="245.94638148256666" r="4" fill="#3b82f6" stroke="#0d1117" stroke-width="2" class="data-point"/>
  
    <circle cx="375.6862745098039" cy="243.2255347201875" r="4" fill="#3b82f6" stroke="#0d1117" stroke-width="2" class="data-point"/>
  
    <circle cx="382.5490196078431" cy="240.79695282742455" r="4" fill="#3b82f6" stroke="#0d1117" stroke-width="2" class="data-point"/>
  
    <circle cx="389.4117647058824" cy="238.7441400527395" r="4" fill="#3b82f6" stroke="#0d1117" stroke-width="2" class="data-point"/>
  
    <circle cx="396.2745098039216" cy="237.1018898329915" r="4" fill="#3b82f6" stroke="#0d1117" stroke-width="2" class="data-point"/>
  
    <circle cx="403.1372549019608" cy="234.80552300029302" r="4" fill="#3b82f6" stroke="#0d1117" stroke-width="2" class="data-point"/>
  
    <circle cx="410" cy="232.18209786111925" r="4" fill="#3b82f6" stroke="#0d1117" stroke-width="2" class="data-point"/>
  
    <circle cx="416.86274509803917" cy="229.78135071784357" r="4" fill="#3b82f6" stroke="#0d1117" stroke-width="2" class="data-point"/>
  
    <circle cx="423.72549019607845" cy="226.97699970700262" r="4" fill="#3b82f6" stroke="#0d1117" stroke-width="2" class="data-point"/>
  
    <circle cx="430.5882352941176" cy="223.51853208321126" r="4" fill="#3b82f6" stroke="#0d1117" stroke-width="2" class="data-point"/>
  
    <circle cx="437.45098039215685" cy="220.9438177556402" r="4" fill="#3b82f6" stroke="#0d1117" stroke-width="2" class="data-point"/>
  
    <circle cx="444.31372549019613" cy="218.8075007324934" r="4" fill="#3b82f6" stroke="#0d1117" stroke-width="2" class="data-point"/>
  
    <circle cx="451.1764705882353" cy="216.77556401992382" r="4" fill="#3b82f6" stroke="#0d1117" stroke-width="2" class="data-point"/>
  
    <circle cx="458.0392156862745" cy="214.33306475241722" r="4" fill="#3b82f6" stroke="#0d1117" stroke-width="2" class="data-point"/>
  
    <circle cx="464.90196078431376" cy="211.49392030471725" r="4" fill="#3b82f6" stroke="#0d1117" stroke-width="2" class="data-point"/>
  
    <circle cx="471.7647058823529" cy="208.34859361265748" r="4" fill="#3b82f6" stroke="#0d1117" stroke-width="2" class="data-point"/>
  
    <circle cx="478.62745098039215" cy="205.043217111046" r="4" fill="#3b82f6" stroke="#0d1117" stroke-width="2" class="data-point"/>
  
    <circle cx="485.4901960784313" cy="201.87005566949898" r="4" fill="#3b82f6" stroke="#0d1117" stroke-width="2" class="data-point"/>
  
    <circle cx="492.3529411764706" cy="199.0796220334017" r="4" fill="#3b82f6" stroke="#0d1117" stroke-width="2" class="data-point"/>
  
    <circle cx="499.2156862745098" cy="196.31006445941986" r="4" fill="#3b82f6" stroke="#0d1117" stroke-width="2" class="data-point"/>
  
    <circle cx="506.078431372549" cy="193.8675651919133" r="4" fill="#3b82f6" stroke="#0d1117" stroke-width="2" class="data-point"/>
  
    <circle cx="512.9411764705883" cy="191.376355112804" r="4" fill="#3b82f6" stroke="#0d1117" stroke-width="2" class="data-point"/>
  
    <circle cx="519.8039215686274" cy="188.59288016407854" r="4" fill="#3b82f6" stroke="#0d1117" stroke-width="2" class="data-point"/>
  
    <circle cx="526.6666666666666" cy="185.12745385291535" r="4" fill="#3b82f6" stroke="#0d1117" stroke-width="2" class="data-point"/>
  
    <circle cx="533.5294117647059" cy="182.54578083797247" r="4" fill="#3b82f6" stroke="#0d1117" stroke-width="2" class="data-point"/>
  
    <circle cx="540.3921568627451" cy="180.23549663053035" r="4" fill="#3b82f6" stroke="#0d1117" stroke-width="2" class="data-point"/>
  
    <circle cx="547.2549019607843" cy="177.66774099033108" r="4" fill="#3b82f6" stroke="#0d1117" stroke-width="2" class="data-point"/>
  
    <circle cx="554.1176470588235" cy="175.27395253442717" r="4" fill="#3b82f6" stroke="#0d1117" stroke-width="2" class="data-point"/>
  
    <circle cx="560.9803921568628" cy="172.64356870788163" r="4" fill="#3b82f6" stroke="#0d1117" stroke-width="2" class="data-point"/>
  
    <circle cx="567.8431372549019" cy="169.90184588338704" r="4" fill="#3b82f6" stroke="#0d1117" stroke-width="2" class="data-point"/>
  
    <circle cx="574.7058823529412" cy="167.03486668619982" r="4" fill="#3b82f6" stroke="#0d1117" stroke-width="2" class="data-point"/>
  
    <circle cx="581.5686274509804" cy="164.52278054497512" r="4" fill="#3b82f6" stroke="#0d1117" stroke-width="2" class="data-point"/>
  
    <circle cx="588.4313725490196" cy="162.37254614708468" r="4" fill="#3b82f6" stroke="#0d1117" stroke-width="2" class="data-point"/>
  
    <circle cx="595.2941176470588" cy="160.01355112803986" r="4" fill="#3b82f6" stroke="#0d1117" stroke-width="2" class="data-point"/>
  
    <circle cx="602.156862745098" cy="157.45971286258424" r="4" fill="#3b82f6" stroke="#0d1117" stroke-width="2" class="data-point"/>
  
    <circle cx="609.0196078431372" cy="155.0937591561676" r="4" fill="#3b82f6" stroke="#0d1117" stroke-width="2" class="data-point"/>
  
    <circle cx="615.8823529411765" cy="152.01106065045414" r="4" fill="#3b82f6" stroke="#0d1117" stroke-width="2" class="data-point"/>
  
    <circle cx="622.7450980392157" cy="149.35980076179314" r="4" fill="#3b82f6" stroke="#0d1117" stroke-width="2" class="data-point"/>
  
    <circle cx="629.6078431372549" cy="146.80596249633754" r="4" fill="#3b82f6" stroke="#0d1117" stroke-width="2" class="data-point"/>
  
    <circle cx="636.4705882352941" cy="144.68356284793438" r="4" fill="#3b82f6" stroke="#0d1117" stroke-width="2" class="data-point"/>
  
    <circle cx="643.3333333333334" cy="142.62379138587755" r="4" fill="#3b82f6" stroke="#0d1117" stroke-width="2" class="data-point"/>
  
    <circle cx="650.1960784313726" cy="140.55706123644887" r="4" fill="#3b82f6" stroke="#0d1117" stroke-width="2" class="data-point"/>
  
    <circle cx="657.0588235294117" cy="138.08672721945504" r="4" fill="#3b82f6" stroke="#0d1117" stroke-width="2" class="data-point"/>
  
    <circle cx="663.921568627451" cy="135.54680632874303" r="4" fill="#3b82f6" stroke="#0d1117" stroke-width="2" class="data-point"/>
  
    <circle cx="670.7843137254902" cy="132.4641078230296" r="4" fill="#3b82f6" stroke="#0d1117" stroke-width="2" class="data-point"/>
  
    <circle cx="677.6470588235294" cy="129.9659390565485" r="4" fill="#3b82f6" stroke="#0d1117" stroke-width="2" class="data-point"/>
  
    <circle cx="684.5098039215686" cy="127.92704365660708" r="4" fill="#3b82f6" stroke="#0d1117" stroke-width="2" class="data-point"/>
  
    <circle cx="691.3725490196078" cy="125.83247875769118" r="4" fill="#3b82f6" stroke="#0d1117" stroke-width="2" class="data-point"/>
  
    <circle cx="698.2352941176471" cy="123.82837679460883" r="4" fill="#3b82f6" stroke="#0d1117" stroke-width="2" class="data-point"/>
  
    <circle cx="705.0980392156862" cy="121.35108409024318" r="4" fill="#3b82f6" stroke="#0d1117" stroke-width="2" class="data-point"/>
  
    <circle cx="711.9607843137255" cy="118.81116319953122" r="4" fill="#3b82f6" stroke="#0d1117" stroke-width="2" class="data-point"/>
  
    <circle cx="718.8235294117648" cy="113.1955024904776" r="4" fill="#3b82f6" stroke="#0d1117" stroke-width="2" class="data-point"/>
  
    <circle cx="725.6862745098039" cy="102.01985057134488" r="4" fill="#3b82f6" stroke="#0d1117" stroke-width="2" class="data-point"/>
  
    <circle cx="732.5490196078432" cy="88.70788162906533" r="4" fill="#3b82f6" stroke="#0d1117" stroke-width="2" class="data-point"/>
  
    <circle cx="739.4117647058823" cy="76.57888953999412" r="4" fill="#3b82f6" stroke="#0d1117" stroke-width="2" class="data-point"/>
  
    <circle cx="746.2745098039215" cy="70.42740990331089" r="4" fill="#3b82f6" stroke="#0d1117" stroke-width="2" class="data-point"/>
  
    <circle cx="753.1372549019608" cy="61.15843832405511" r="4" fill="#3b82f6" stroke="#0d1117" stroke-width="2" class="data-point"/>
  
    <circle cx="760" cy="55" r="4" fill="#3b82f6" stroke="#0d1117" stroke-width="2" class="data-point"/>
  

  <!-- Axis lines -->
  <line x1="60" y1="55" x2="60" y2="340"
        stroke="#30363d" stroke-width="2"/>
  <line x1="60" y1="340" x2="760" y2="340"
        stroke="#30363d" stroke-width="2"/>
</svg>