<?xml version="1.0" encoding="UTF-8"?>
<svg width="800" height="400" xmlns="http://www.w3.org/2000/svg">
  <defs>
    <!-- Gradient for area fill -->
    <linearGradient id="areaGradient" x1="0%" y1="0%" x2="0%" y2="100%">
      <stop offset="0%" style="stop-color:#3b82f6;stop-opacity:0.3" />
      <stop offset="100%" style="stop-color:#3b82f6;stop-opacity:0.05" />
    </linearGradient>

    <!-- Glow filter for line -->
    <filter id="glow">
      <feGaussianBlur stdDeviation="2" result="coloredBlur"/>
      <feMerge>
        <feMergeNode in="coloredBlur"/>
        <feMergeNode in="SourceGraphic"/>
      </feMerge>
    </filter>

    <!-- Animation -->
    <style>
      @keyframes draw {
        from { stroke-dashoffset: 2000; }
        to { stroke-dashoffset: 0; }
      }
      @keyframes fadeIn {
        from { opacity: 0; }
        to { opacity: 1; }
      }
      .line-path {
        stroke-dasharray: 2000;
        stroke-dashoffset: 2000;
        animation: draw 1.5s ease-out forwards;
      }
      .area-path {
        opacity: 0;
        animation: fadeIn 1s ease-out 0.5s forwards;
      }
      .data-point {
        opacity: 0;
        animation: fadeIn 0.5s ease-out 1s forwards;
      }
    </style>
  </defs>

  <!-- Background -->
  <rect width="800" height="400" fill="#0d1117" rx="8"/>

  <!-- Title -->
  <text x="400" y="25" text-anchor="middle" fill="#c9d1d9" font-family="system-ui, -apple-system, sans-serif" font-size="16" font-weight="600">
    zxcloli666/SoundCloud-Desktop Downloads
  </text>

  <!-- Stats -->
  <text x="780" y="25" text-anchor="end" fill="#58a6ff" font-family="system-ui, -apple-system, sans-serif" font-size="14" font-weight="600">
    240.6K total
  </text>
  <text x="780" y="42" text-anchor="end" fill="#3fb950" font-family="system-ui, -apple-system, sans-serif" font-size="12">
    +1.1K (+0.4%)
  </text>

  <!-- Grid lines -->
  <g opacity="0.1">
    
      <line x1="60" y1="340" x2="760" y2="340"
            stroke="#c9d1d9" stroke-width="1"/>
    
      <line x1="60" y1="268.75" x2="760" y2="268.75"
            stroke="#c9d1d9" stroke-width="1"/>
    
      <line x1="60" y1="197.5" x2="760" y2="197.5"
            stroke="#c9d1d9" stroke-width="1"/>
    
      <line x1="60" y1="126.25" x2="760" y2="126.25"
            stroke="#c9d1d9" stroke-width="1"/>
    
      <line x1="60" y1="55" x2="760" y2="55"
            stroke="#c9d1d9" stroke-width="1"/>
    
  </g>

  <!-- Y-axis labels -->
  
    <text x="50" y="344" text-anchor="end"
          fill="#8b949e" font-family="system-ui, -apple-system, sans-serif" font-size="11">
      60.2K
    </text>
  
    <text x="50" y="272.75" text-anchor="end"
          fill="#8b949e" font-family="system-ui, -apple-system, sans-serif" font-size="11">
      105.3K
    </text>
  
    <text x="50" y="201.5" text-anchor="end"
          fill="#8b949e" font-family="system-ui, -apple-system, sans-serif" font-size="11">
      150.4K
    </text>
  
    <text x="50" y="130.25" text-anchor="end"
          fill="#8b949e" font-family="system-ui, -apple-system, sans-serif" font-size="11">
      195.5K
    </text>
  
    <text x="50" y="59" text-anchor="end"
          fill="#8b949e" font-family="system-ui, -apple-system, sans-serif" font-size="11">
      240.6K
    </text>
  

  <!-- X-axis labels -->
  
    <text x="60" y="360" text-anchor="middle"
          fill="#8b949e" font-family="system-ui, -apple-system, sans-serif" font-size="11">
      Nov 25
    </text>
  
    <text x="147.04663212435233" y="360" text-anchor="middle"
          fill="#8b949e" font-family="system-ui, -apple-system, sans-serif" font-size="11">
      Dec 19
    </text>
  
    <text x="234.09326424870466" y="360" text-anchor="middle"
          fill="#8b949e" font-family="system-ui, -apple-system, sans-serif" font-size="11">
      Jan 12
    </text>
  
    <text x="321.139896373057" y="360" text-anchor="middle"
          fill="#8b949e" font-family="system-ui, -apple-system, sans-serif" font-size="11">
      Feb 5
    </text>
  
    <text x="408.1865284974093" y="360" text-anchor="middle"
          fill="#8b949e" font-family="system-ui, -apple-system, sans-serif" font-size="11">
      Mar 1
    </text>
  
    <text x="495.23316062176167" y="360" text-anchor="middle"
          fill="#8b949e" font-family="system-ui, -apple-system, sans-serif" font-size="11">
      Mar 25
    </text>
  
    <text x="582.279792746114" y="360" text-anchor="middle"
          fill="#8b949e" font-family="system-ui, -apple-system, sans-serif" font-size="11">
      Apr 18
    </text>
  
    <text x="669.3264248704663" y="360" text-anchor="middle"
          fill="#8b949e" font-family="system-ui, -apple-system, sans-serif" font-size="11">
      May 12
    </text>
  
    <text x="756.3730569948186" y="360" text-anchor="middle"
          fill="#8b949e" font-family="system-ui, -apple-system, sans-serif" font-size="11">
      Jun 5
    </text>
  
    <text x="760" y="360" text-anchor="middle"
          fill="#8b949e" font-family="system-ui, -apple-system, sans-serif" font-size="11">
      Jun 6
    </text>
  

  <!-- Area under line -->
  <path d="M 60 340
    L 60.00 340.00 L 63.63 339.77 L 67.25 339.37 L 70.88 339.01 L 74.51 338.28 L 78.13 337.53 L 81.76 336.94 L 85.39 336.38 L 89.02 335.89 L 92.64 335.31 L 96.27 334.67 L 99.90 333.98 L 103.52 333.36 L 107.15 332.69 L 110.78 332.21 L 114.40 331.71 L 118.03 331.02 L 121.66 330.57 L 125.28 329.94 L 128.91 329.21 L 132.54 328.66 L 136.17 328.21 L 139.79 327.91 L 143.42 327.67 L 147.05 327.22 L 150.67 326.90 L 154.30 326.20 L 157.93 325.92 L 161.55 325.56 L 165.18 325.10 L 168.81 324.79 L 172.44 324.47 L 176.06 324.13 L 179.69 323.90 L 183.32 323.69 L 186.94 323.39 L 190.57 323.01 L 194.20 322.67 L 197.82 322.23 L 201.45 321.76 L 205.08 321.32 L 208.70 320.80 L 212.33 320.28 L 215.96 319.76 L 219.59 319.20 L 223.21 318.66 L 226.84 318.04 L 230.47 317.49 L 234.09 317.02 L 237.72 316.65 L 241.35 316.13 L 244.97 315.53 L 248.60 314.99 L 252.23 314.35 L 255.85 313.57 L 259.48 312.98 L 263.11 312.50 L 266.74 312.04 L 270.36 311.48 L 273.99 310.84 L 277.62 310.13 L 281.24 309.38 L 284.87 308.66 L 288.50 308.02 L 292.12 307.39 L 295.75 306.84 L 299.38 306.27 L 303.01 305.64 L 306.63 304.86 L 310.26 304.27 L 313.89 303.75 L 317.51 303.16 L 321.14 302.62 L 324.77 302.02 L 328.39 301.40 L 332.02 300.75 L 335.65 300.18 L 339.27 299.69 L 342.90 299.16 L 346.53 298.58 L 350.16 298.04 L 353.78 297.34 L 357.41 296.74 L 361.04 296.16 L 364.66 295.68 L 368.29 295.21 L 371.92 294.74 L 375.54 294.18 L 379.17 293.61 L 382.80 292.91 L 386.42 292.34 L 390.05 291.88 L 393.68 291.40 L 397.31 290.95 L 400.93 290.38 L 404.56 289.81 L 408.19 288.53 L 411.81 286.00 L 415.44 282.98 L 419.07 280.22 L 422.69 278.83 L 426.32 276.73 L 429.95 275.33 L 433.58 274.10 L 437.20 272.90 L 440.83 271.77 L 444.46 270.02 L 448.08 268.62 L 451.71 266.84 L 455.34 266.47 L 458.96 266.43 L 462.59 266.36 L 466.22 266.31 L 469.84 266.24 L 473.47 266.18 L 477.10 266.16 L 480.73 266.07 L 484.35 265.99 L 487.98 265.94 L 491.61 265.91 L 495.23 265.82 L 498.86 263.53 L 502.49 259.95 L 506.11 257.54 L 509.74 254.76 L 513.37 251.88 L 516.99 249.63 L 520.62 247.10 L 524.25 243.26 L 527.88 238.09 L 531.50 234.71 L 535.13 230.68 L 538.76 226.20 L 542.38 222.61 L 546.01 218.71 L 549.64 215.25 L 553.26 211.82 L 556.89 208.40 L 560.52 203.75 L 564.15 199.08 L 567.77 195.19 L 571.40 191.92 L 575.03 188.76 L 578.65 184.56 L 582.28 181.30 L 585.91 178.08 L 589.53 175.06 L 593.16 172.22 L 596.79 169.32 L 600.41 166.83 L 604.04 164.25 L 607.67 161.62 L 611.30 158.84 L 614.92 156.29 L 618.55 153.96 L 622.18 149.73 L 625.80 146.18 L 629.43 142.78 L 633.06 139.52 L 636.68 134.36 L 640.31 131.09 L 643.94 128.27 L 647.56 124.93 L 651.19 120.01 L 654.82 116.47 L 658.45 113.49 L 662.07 110.96 L 665.70 108.56 L 669.33 106.61 L 672.95 104.41 L 676.58 102.62 L 680.21 100.51 L 683.83 97.47 L 687.46 94.86 L 691.09 92.58 L 694.72 90.62 L 698.34 88.59 L 701.97 86.88 L 705.60 84.01 L 709.22 81.56 L 712.85 79.12 L 716.48 77.11 L 720.10 75.27 L 723.73 73.63 L 727.36 70.82 L 730.98 68.54 L 734.61 66.46 L 738.24 64.48 L 741.87 62.75 L 745.49 61.07 L 749.12 59.52 L 752.75 58.05 L 756.37 56.69 L 760.00 55.00
    L 760 340
    Z" fill="url(#areaGradient)" class="area-path"/>

  <!-- Main line with glow -->
  <path d="M 60.00 340.00 L 63.63 339.77 L 67.25 339.37 L 70.88 339.01 L 74.51 338.28 L 78.13 337.53 L 81.76 336.94 L 85.39 336.38 L 89.02 335.89 L 92.64 335.31 L 96.27 334.67 L 99.90 333.98 L 103.52 333.36 L 107.15 332.69 L 110.78 332.21 L 114.40 331.71 L 118.03 331.02 L 121.66 330.57 L 125.28 329.94 L 128.91 329.21 L 132.54 328.66 L 136.17 328.21 L 139.79 327.91 L 143.42 327.67 L 147.05 327.22 L 150.67 326.90 L 154.30 326.20 L 157.93 325.92 L 161.55 325.56 L 165.18 325.10 L 168.81 324.79 L 172.44 324.47 L 176.06 324.13 L 179.69 323.90 L 183.32 323.69 L 186.94 323.39 L 190.57 323.01 L 194.20 322.67 L 197.82 322.23 L 201.45 321.76 L 205.08 321.32 L 208.70 320.80 L 212.33 320.28 L 215.96 319.76 L 219.59 319.20 L 223.21 318.66 L 226.84 318.04 L 230.47 317.49 L 234.09 317.02 L 237.72 316.65 L 241.35 316.13 L 244.97 315.53 L 248.60 314.99 L 252.23 314.35 L 255.85 313.57 L 259.48 312.98 L 263.11 312.50 L 266.74 312.04 L 270.36 311.48 L 273.99 310.84 L 277.62 310.13 L 281.24 309.38 L 284.87 308.66 L 288.50 308.02 L 292.12 307.39 L 295.75 306.84 L 299.38 306.27 L 303.01 305.64 L 306.63 304.86 L 310.26 304.27 L 313.89 303.75 L 317.51 303.16 L 321.14 302.62 L 324.77 302.02 L 328.39 301.40 L 332.02 300.75 L 335.65 300.18 L 339.27 299.69 L 342.90 299.16 L 346.53 298.58 L 350.16 298.04 L 353.78 297.34 L 357.41 296.74 L 361.04 296.16 L 364.66 295.68 L 368.29 295.21 L 371.92 294.74 L 375.54 294.18 L 379.17 293.61 L 382.80 292.91 L 386.42 292.34 L 390.05 291.88 L 393.68 291.40 L 397.31 290.95 L 400.93 290.38 L 404.56 289.81 L 408.19 288.53 L 411.81 286.00 L 415.44 282.98 L 419.07 280.22 L 422.69 278.83 L 426.32 276.73 L 429.95 275.33 L 433.58 274.10 L 437.20 272.90 L 440.83 271.77 L 444.46 270.02 L 448.08 268.62 L 451.71 266.84 L 455.34 266.47 L 458.96 266.43 L 462.59 266.36 L 466.22 266.31 L 469.84 266.24 L 473.47 266.18 L 477.10 266.16 L 480.73 266.07 L 484.35 265.99 L 487.98 265.94 L 491.61 265.91 L 495.23 265.82 L 498.86 263.53 L 502.49 259.95 L 506.11 257.54 L 509.74 254.76 L 513.37 251.88 L 516.99 249.63 L 520.62 247.10 L 524.25 243.26 L 527.88 238.09 L 531.50 234.71 L 535.13 230.68 L 538.76 226.20 L 542.38 222.61 L 546.01 218.71 L 549.64 215.25 L 553.26 211.82 L 556.89 208.40 L 560.52 203.75 L 564.15 199.08 L 567.77 195.19 L 571.40 191.92 L 575.03 188.76 L 578.65 184.56 L 582.28 181.30 L 585.91 178.08 L 589.53 175.06 L 593.16 172.22 L 596.79 169.32 L 600.41 166.83 L 604.04 164.25 L 607.67 161.62 L 611.30 158.84 L 614.92 156.29 L 618.55 153.96 L 622.18 149.73 L 625.80 146.18 L 629.43 142.78 L 633.06 139.52 L 636.68 134.36 L 640.31 131.09 L 643.94 128.27 L 647.56 124.93 L 651.19 120.01 L 654.82 116.47 L 658.45 113.49 L 662.07 110.96 L 665.70 108.56 L 669.33 106.61 L 672.95 104.41 L 676.58 102.62 L 680.21 100.51 L 683.83 97.47 L 687.46 94.86 L 691.09 92.58 L 694.72 90.62 L 698.34 88.59 L 701.97 86.88 L 705.60 84.01 L 709.22 81.56 L 712.85 79.12 L 716.48 77.11 L 720.10 75.27 L 723.73 73.63 L 727.36 70.82 L 730.98 68.54 L 734.61 66.46 L 738.24 64.48 L 741.87 62.75 L 745.49 61.07 L 749.12 59.52 L 752.75 58.05 L 756.37 56.69 L 760.00 55.00" fill="none" stroke="#3b82f6" stroke-width="3"
        stroke-linecap="round" stroke-linejoin="round" filter="url(#glow)" class="line-path"/>

  <!-- Data points -->
  
    <circle cx="60" cy="340" r="4" fill="#3b82f6" stroke="#0d1117" stroke-width="2" class="data-point"/>
  
    <circle cx="63.626943005181346" cy="339.7678767328214" r="4" fill="#3b82f6" stroke="#0d1117" stroke-width="2" class="data-point"/>
  
    <circle cx="67.25388601036269" cy="339.37310927163327" r="4" fill="#3b82f6" stroke="#0d1117" stroke-width="2" class="data-point"/>
  
    <circle cx="70.88082901554404" cy="339.0067650676507" r="4" fill="#3b82f6" stroke="#0d1117" stroke-width="2" class="data-point"/>
  
    <circle cx="74.50777202072538" cy="338.2788138692198" r="4" fill="#3b82f6" stroke="#0d1117" stroke-width="2" class="data-point"/>
  
    <circle cx="78.13471502590673" cy="337.52717662311755" r="4" fill="#3b82f6" stroke="#0d1117" stroke-width="2" class="data-point"/>
  
    <circle cx="81.76165803108807" cy="336.9350254313354" r="4" fill="#3b82f6" stroke="#0d1117" stroke-width="2" class="data-point"/>
  
    <circle cx="85.38860103626942" cy="336.382350985672" r="4" fill="#3b82f6" stroke="#0d1117" stroke-width="2" class="data-point"/>
  
    <circle cx="89.01554404145078" cy="335.891260263954" r="4" fill="#3b82f6" stroke="#0d1117" stroke-width="2" class="data-point"/>
  
    <circle cx="92.64248704663213" cy="335.3148997706193" r="4" fill="#3b82f6" stroke="#0d1117" stroke-width="2" class="data-point"/>
  
    <circle cx="96.26943005181347" cy="334.67221834380507" r="4" fill="#3b82f6" stroke="#0d1117" stroke-width="2" class="data-point"/>
  
    <circle cx="99.89637305699482" cy="333.98374389149296" r="4" fill="#3b82f6" stroke="#0d1117" stroke-width="2" class="data-point"/>
  
    <circle cx="103.52331606217616" cy="333.358432232971" r="4" fill="#3b82f6" stroke="#0d1117" stroke-width="2" class="data-point"/>
  
    <circle cx="107.15025906735752" cy="332.69364382833015" r="4" fill="#3b82f6" stroke="#0d1117" stroke-width="2" class="data-point"/>
  
    <circle cx="110.77720207253886" cy="332.20886938599114" r="4" fill="#3b82f6" stroke="#0d1117" stroke-width="2" class="data-point"/>
  
    <circle cx="114.40414507772022" cy="331.70672517535985" r="4" fill="#3b82f6" stroke="#0d1117" stroke-width="2" class="data-point"/>
  
    <circle cx="118.03108808290156" cy="331.0245670024268" r="4" fill="#3b82f6" stroke="#0d1117" stroke-width="2" class="data-point"/>
  
    <circle cx="121.65803108808291" cy="330.5682158172933" r="4" fill="#3b82f6" stroke="#0d1117" stroke-width="2" class="data-point"/>
  
    <circle cx="125.28497409326425" cy="329.93658787939233" r="4" fill="#3b82f6" stroke="#0d1117" stroke-width="2" class="data-point"/>
  
    <circle cx="128.9119170984456" cy="329.2070576111166" r="4" fill="#3b82f6" stroke="#0d1117" stroke-width="2" class="data-point"/>
  
    <circle cx="132.53886010362694" cy="328.6575413051428" r="4" fill="#3b82f6" stroke="#0d1117" stroke-width="2" class="data-point"/>
  
    <circle cx="136.1658031088083" cy="328.20592732954356" r="4" fill="#3b82f6" stroke="#0d1117" stroke-width="2" class="data-point"/>
  
    <circle cx="139.79274611398964" cy="327.91379940826437" r="4" fill="#3b82f6" stroke="#0d1117" stroke-width="2" class="data-point"/>
  
    <circle cx="143.41968911917098" cy="327.6706226521725" r="4" fill="#3b82f6" stroke="#0d1117" stroke-width="2" class="data-point"/>
  
    <circle cx="147.04663212435233" cy="327.220587746418" r="4" fill="#3b82f6" stroke="#0d1117" stroke-width="2" class="data-point"/>
  
    <circle cx="150.67357512953367" cy="326.9000365679332" r="4" fill="#3b82f6" stroke="#0d1117" stroke-width="2" class="data-point"/>
  
    <circle cx="154.30051813471505" cy="326.1973504870184" r="4" fill="#3b82f6" stroke="#0d1117" stroke-width="2" class="data-point"/>
  
    <circle cx="157.92746113989637" cy="325.9210132641867" r="4" fill="#3b82f6" stroke="#0d1117" stroke-width="2" class="data-point"/>
  
    <circle cx="161.5544041450777" cy="325.5641434792726" r="4" fill="#3b82f6" stroke="#0d1117" stroke-width="2" class="data-point"/>
  
    <circle cx="165.18134715025906" cy="325.1030550846049" r="4" fill="#3b82f6" stroke="#0d1117" stroke-width="2" class="data-point"/>
  
    <circle cx="168.80829015544043" cy="324.7872411156544" r="4" fill="#3b82f6" stroke="#0d1117" stroke-width="2" class="data-point"/>
  
    <circle cx="172.43523316062175" cy="324.46668993716963" r="4" fill="#3b82f6" stroke="#0d1117" stroke-width="2" class="data-point"/>
  
    <circle cx="176.06217616580312" cy="324.13034806023734" r="4" fill="#3b82f6" stroke="#0d1117" stroke-width="2" class="data-point"/>
  
    <circle cx="179.68911917098444" cy="323.89664572321396" r="4" fill="#3b82f6" stroke="#0d1117" stroke-width="2" class="data-point"/>
  
    <circle cx="183.31606217616581" cy="323.6945247830857" r="4" fill="#3b82f6" stroke="#0d1117" stroke-width="2" class="data-point"/>
  
    <circle cx="186.94300518134716" cy="323.3866061633589" r="4" fill="#3b82f6" stroke="#0d1117" stroke-width="2" class="data-point"/>
  
    <circle cx="190.5699481865285" cy="323.0123666101526" r="4" fill="#3b82f6" stroke="#0d1117" stroke-width="2" class="data-point"/>
  
    <circle cx="194.19689119170982" cy="322.66812938399653" r="4" fill="#3b82f6" stroke="#0d1117" stroke-width="2" class="data-point"/>
  
    <circle cx="197.8238341968912" cy="322.2323061068449" r="4" fill="#3b82f6" stroke="#0d1117" stroke-width="2" class="data-point"/>
  
    <circle cx="201.45077720207254" cy="321.75700608357437" r="4" fill="#3b82f6" stroke="#0d1117" stroke-width="2" class="data-point"/>
  
    <circle cx="205.0777202072539" cy="321.32118280642266" r="4" fill="#3b82f6" stroke="#0d1117" stroke-width="2" class="data-point"/>
  
    <circle cx="208.70466321243524" cy="320.7953525481201" r="4" fill="#3b82f6" stroke="#0d1117" stroke-width="2" class="data-point"/>
  
    <circle cx="212.33160621761658" cy="320.278996708886" r="4" fill="#3b82f6" stroke="#0d1117" stroke-width="2" class="data-point"/>
  
    <circle cx="215.95854922279793" cy="319.76264086965193" r="4" fill="#3b82f6" stroke="#0d1117" stroke-width="2" class="data-point"/>
  
    <circle cx="219.58549222797927" cy="319.1973338652306" r="4" fill="#3b82f6" stroke="#0d1117" stroke-width="2" class="data-point"/>
  
    <circle cx="223.21243523316062" cy="318.6572919783252" r="4" fill="#3b82f6" stroke="#0d1117" stroke-width="2" class="data-point"/>
  
    <circle cx="226.83937823834196" cy="318.03987566902697" r="4" fill="#3b82f6" stroke="#0d1117" stroke-width="2" class="data-point"/>
  
    <circle cx="230.4663212435233" cy="317.4887802932083" r="4" fill="#3b82f6" stroke="#0d1117" stroke-width="2" class="data-point"/>
  
    <circle cx="234.09326424870466" cy="317.0229546890063" r="4" fill="#3b82f6" stroke="#0d1117" stroke-width="2" class="data-point"/>
  
    <circle cx="237.72020725388603" cy="316.65029420564474" r="4" fill="#3b82f6" stroke="#0d1117" stroke-width="2" class="data-point"/>
  
    <circle cx="241.34715025906735" cy="316.12920115687643" r="4" fill="#3b82f6" stroke="#0d1117" stroke-width="2" class="data-point"/>
  
    <circle cx="244.9740932642487" cy="315.53389182540474" r="4" fill="#3b82f6" stroke="#0d1117" stroke-width="2" class="data-point"/>
  
    <circle cx="248.60103626943007" cy="314.98911272896515" r="4" fill="#3b82f6" stroke="#0d1117" stroke-width="2" class="data-point"/>
  
    <circle cx="252.22797927461139" cy="314.35274758152985" r="4" fill="#3b82f6" stroke="#0d1117" stroke-width="2" class="data-point"/>
  
    <circle cx="255.85492227979273" cy="313.5679498686879" r="4" fill="#3b82f6" stroke="#0d1117" stroke-width="2" class="data-point"/>
  
    <circle cx="259.4818652849741" cy="312.98369402612946" r="4" fill="#3b82f6" stroke="#0d1117" stroke-width="2" class="data-point"/>
  
    <circle cx="263.1088082901554" cy="312.49891958379044" r="4" fill="#3b82f6" stroke="#0d1117" stroke-width="2" class="data-point"/>
  
    <circle cx="266.7357512953368" cy="312.0378311891227" r="4" fill="#3b82f6" stroke="#0d1117" stroke-width="2" class="data-point"/>
  
    <circle cx="270.3626943005181" cy="311.48357767361455" r="4" fill="#3b82f6" stroke="#0d1117" stroke-width="2" class="data-point"/>
  
    <circle cx="273.9896373056995" cy="310.83931717695555" r="4" fill="#3b82f6" stroke="#0d1117" stroke-width="2" class="data-point"/>
  
    <circle cx="277.61658031088086" cy="310.1255776071274" r="4" fill="#3b82f6" stroke="#0d1117" stroke-width="2" class="data-point"/>
  
    <circle cx="281.2435233160622" cy="309.37551943087" r="4" fill="#3b82f6" stroke="#0d1117" stroke-width="2" class="data-point"/>
  
    <circle cx="284.8704663212435" cy="308.65546358166284" r="4" fill="#3b82f6" stroke="#0d1117" stroke-width="2" class="data-point"/>
  
    <circle cx="288.4974093264249" cy="308.0222565739171" r="4" fill="#3b82f6" stroke="#0d1117" stroke-width="2" class="data-point"/>
  
    <circle cx="292.12435233160625" cy="307.3937867757056" r="4" fill="#3b82f6" stroke="#0d1117" stroke-width="2" class="data-point"/>
  
    <circle cx="295.7512953367875" cy="306.83953326019747" r="4" fill="#3b82f6" stroke="#0d1117" stroke-width="2" class="data-point"/>
  
    <circle cx="299.3782383419689" cy="306.27422625577606" r="4" fill="#3b82f6" stroke="#0d1117" stroke-width="2" class="data-point"/>
  
    <circle cx="303.00518134715026" cy="305.64259831787507" r="4" fill="#3b82f6" stroke="#0d1117" stroke-width="2" class="data-point"/>
  
    <circle cx="306.63212435233163" cy="304.8562215351883" r="4" fill="#3b82f6" stroke="#0d1117" stroke-width="2" class="data-point"/>
  
    <circle cx="310.25906735751295" cy="304.27038662278517" r="4" fill="#3b82f6" stroke="#0d1117" stroke-width="2" class="data-point"/>
  
    <circle cx="313.8860103626943" cy="303.7461354343273" r="4" fill="#3b82f6" stroke="#0d1117" stroke-width="2" class="data-point"/>
  
    <circle cx="317.51295336787564" cy="303.1634586616136" r="4" fill="#3b82f6" stroke="#0d1117" stroke-width="2" class="data-point"/>
  
    <circle cx="321.139896373057" cy="302.6202586350188" r="4" fill="#3b82f6" stroke="#0d1117" stroke-width="2" class="data-point"/>
  
    <circle cx="324.76683937823833" cy="302.02337023370234" r="4" fill="#3b82f6" stroke="#0d1117" stroke-width="2" class="data-point"/>
  
    <circle cx="328.39378238341965" cy="301.40121671486986" r="4" fill="#3b82f6" stroke="#0d1117" stroke-width="2" class="data-point"/>
  
    <circle cx="332.020725388601" cy="300.7506399388318" r="4" fill="#3b82f6" stroke="#0d1117" stroke-width="2" class="data-point"/>
  
    <circle cx="335.6476683937824" cy="300.1805957248762" r="4" fill="#3b82f6" stroke="#0d1117" stroke-width="2" class="data-point"/>
  
    <circle cx="339.2746113989637" cy="299.69266314284766" r="4" fill="#3b82f6" stroke="#0d1117" stroke-width="2" class="data-point"/>
  
    <circle cx="342.9015544041451" cy="299.15735846547653" r="4" fill="#3b82f6" stroke="#0d1117" stroke-width="2" class="data-point"/>
  
    <circle cx="346.5284974093264" cy="298.57783983245236" r="4" fill="#3b82f6" stroke="#0d1117" stroke-width="2" class="data-point"/>
  
    <circle cx="350.1554404145078" cy="298.04095608523653" r="4" fill="#3b82f6" stroke="#0d1117" stroke-width="2" class="data-point"/>
  
    <circle cx="353.7823834196891" cy="297.34142814401116" r="4" fill="#3b82f6" stroke="#0d1117" stroke-width="2" class="data-point"/>
  
    <circle cx="357.40932642487047" cy="296.73980253316046" r="4" fill="#3b82f6" stroke="#0d1117" stroke-width="2" class="data-point"/>
  
    <circle cx="361.0362694300518" cy="296.1602839001363" r="4" fill="#3b82f6" stroke="#0d1117" stroke-width="2" class="data-point"/>
  
    <circle cx="364.66321243523316" cy="295.67866759748676" r="4" fill="#3b82f6" stroke="#0d1117" stroke-width="2" class="data-point"/>
  
    <circle cx="368.29015544041454" cy="295.21126292344" r="4" fill="#3b82f6" stroke="#0d1117" stroke-width="2" class="data-point"/>
  
    <circle cx="371.91709844559585" cy="294.7422791795486" r="4" fill="#3b82f6" stroke="#0d1117" stroke-width="2" class="data-point"/>
  
    <circle cx="375.5440414507772" cy="294.1817093846614" r="4" fill="#3b82f6" stroke="#0d1117" stroke-width="2" class="data-point"/>
  
    <circle cx="379.17098445595855" cy="293.60534889132674" r="4" fill="#3b82f6" stroke="#0d1117" stroke-width="2" class="data-point"/>
  
    <circle cx="382.79792746113986" cy="292.9058209501014" r="4" fill="#3b82f6" stroke="#0d1117" stroke-width="2" class="data-point"/>
  
    <circle cx="386.42487046632124" cy="292.33893487583526" r="4" fill="#3b82f6" stroke="#0d1117" stroke-width="2" class="data-point"/>
  
    <circle cx="390.0518134715026" cy="291.8762674113228" r="4" fill="#3b82f6" stroke="#0d1117" stroke-width="2" class="data-point"/>
  
    <circle cx="393.67875647668393" cy="291.40096738805227" r="4" fill="#3b82f6" stroke="#0d1117" stroke-width="2" class="data-point"/>
  
    <circle cx="397.3056994818653" cy="290.94619527276353" r="4" fill="#3b82f6" stroke="#0d1117" stroke-width="2" class="data-point"/>
  
    <circle cx="400.9326424870466" cy="290.3840464080316" r="4" fill="#3b82f6" stroke="#0d1117" stroke-width="2" class="data-point"/>
  
    <circle cx="404.55958549222794" cy="289.807685914697" r="4" fill="#3b82f6" stroke="#0d1117" stroke-width="2" class="data-point"/>
  
    <circle cx="408.1865284974093" cy="288.5333765499817" r="4" fill="#3b82f6" stroke="#0d1117" stroke-width="2" class="data-point"/>
  
    <circle cx="411.8134715025907" cy="285.9973903793092" r="4" fill="#3b82f6" stroke="#0d1117" stroke-width="2" class="data-point"/>
  
    <circle cx="415.44041450777206" cy="282.97662976629766" r="4" fill="#3b82f6" stroke="#0d1117" stroke-width="2" class="data-point"/>
  
    <circle cx="419.0673575129534" cy="280.22431102689404" r="4" fill="#3b82f6" stroke="#0d1117" stroke-width="2" class="data-point"/>
  
    <circle cx="422.6943005181347" cy="278.8284132841328" r="4" fill="#3b82f6" stroke="#0d1117" stroke-width="2" class="data-point"/>
  
    <circle cx="426.32124352331607" cy="276.7250922509225" r="4" fill="#3b82f6" stroke="#0d1117" stroke-width="2" class="data-point"/>
  
    <circle cx="429.9481865284974" cy="275.32761543831657" r="4" fill="#3b82f6" stroke="#0d1117" stroke-width="2" class="data-point"/>
  
    <circle cx="433.57512953367876" cy="274.1022572387886" r="4" fill="#3b82f6" stroke="#0d1117" stroke-width="2" class="data-point"/>
  
    <circle cx="437.20207253886014" cy="272.9037432266215" r="4" fill="#3b82f6" stroke="#0d1117" stroke-width="2" class="data-point"/>
  
    <circle cx="440.8290155440415" cy="271.7747082876234" r="4" fill="#3b82f6" stroke="#0d1117" stroke-width="2" class="data-point"/>
  
    <circle cx="444.45595854922277" cy="270.01878262025866" r="4" fill="#3b82f6" stroke="#0d1117" stroke-width="2" class="data-point"/>
  
    <circle cx="448.08290155440415" cy="268.6228848774974" r="4" fill="#3b82f6" stroke="#0d1117" stroke-width="2" class="data-point"/>
  
    <circle cx="451.70984455958546" cy="266.8385359529271" r="4" fill="#3b82f6" stroke="#0d1117" stroke-width="2" class="data-point"/>
  
    <circle cx="455.33678756476684" cy="266.47377081878926" r="4" fill="#3b82f6" stroke="#0d1117" stroke-width="2" class="data-point"/>
  
    <circle cx="458.9637305699482" cy="266.4263987234467" r="4" fill="#3b82f6" stroke="#0d1117" stroke-width="2" class="data-point"/>
  
    <circle cx="462.5906735751296" cy="266.36481499950133" r="4" fill="#3b82f6" stroke="#0d1117" stroke-width="2" class="data-point"/>
  
    <circle cx="466.21761658031085" cy="266.3127056946245" r="4" fill="#3b82f6" stroke="#0d1117" stroke-width="2" class="data-point"/>
  
    <circle cx="469.8445595854922" cy="266.24480569130014" r="4" fill="#3b82f6" stroke="#0d1117" stroke-width="2" class="data-point"/>
  
    <circle cx="473.4715025906736" cy="266.1848010371996" r="4" fill="#3b82f6" stroke="#0d1117" stroke-width="2" class="data-point"/>
  
    <circle cx="477.0984455958549" cy="266.1611149895283" r="4" fill="#3b82f6" stroke="#0d1117" stroke-width="2" class="data-point"/>
  
    <circle cx="480.7253886010363" cy="266.0742661480669" r="4" fill="#3b82f6" stroke="#0d1117" stroke-width="2" class="data-point"/>
  
    <circle cx="484.35233160621766" cy="265.990575446295" r="4" fill="#3b82f6" stroke="#0d1117" stroke-width="2" class="data-point"/>
  
    <circle cx="487.9792746113989" cy="265.9353080017287" r="4" fill="#3b82f6" stroke="#0d1117" stroke-width="2" class="data-point"/>
  
    <circle cx="491.6062176165803" cy="265.9147800937469" r="4" fill="#3b82f6" stroke="#0d1117" stroke-width="2" class="data-point"/>
  
    <circle cx="495.23316062176167" cy="265.8216149729065" r="4" fill="#3b82f6" stroke="#0d1117" stroke-width="2" class="data-point"/>
  
    <circle cx="498.860103626943" cy="263.5319636980154" r="4" fill="#3b82f6" stroke="#0d1117" stroke-width="2" class="data-point"/>
  
    <circle cx="502.48704663212436" cy="259.94589608058243" r="4" fill="#3b82f6" stroke="#0d1117" stroke-width="2" class="data-point"/>
  
    <circle cx="506.11398963730574" cy="257.54413084671387" r="4" fill="#3b82f6" stroke="#0d1117" stroke-width="2" class="data-point"/>
  
    <circle cx="509.740932642487" cy="254.75549350088096" r="4" fill="#3b82f6" stroke="#0d1117" stroke-width="2" class="data-point"/>
  
    <circle cx="513.3678756476684" cy="251.8815863834314" r="4" fill="#3b82f6" stroke="#0d1117" stroke-width="2" class="data-point"/>
  
    <circle cx="516.9948186528497" cy="249.62667464512484" r="4" fill="#3b82f6" stroke="#0d1117" stroke-width="2" class="data-point"/>
  
    <circle cx="520.6217616580311" cy="247.1049001030551" r="4" fill="#3b82f6" stroke="#0d1117" stroke-width="2" class="data-point"/>
  
    <circle cx="524.2487046632125" cy="243.26302317077224" r="4" fill="#3b82f6" stroke="#0d1117" stroke-width="2" class="data-point"/>
  
    <circle cx="527.8756476683939" cy="238.0852531498288" r="4" fill="#3b82f6" stroke="#0d1117" stroke-width="2" class="data-point"/>
  
    <circle cx="531.502590673575" cy="234.70604368205844" r="4" fill="#3b82f6" stroke="#0d1117" stroke-width="2" class="data-point"/>
  
    <circle cx="535.1295336787564" cy="230.6841527874738" r="4" fill="#3b82f6" stroke="#0d1117" stroke-width="2" class="data-point"/>
  
    <circle cx="538.7564766839378" cy="226.20275256806622" r="4" fill="#3b82f6" stroke="#0d1117" stroke-width="2" class="data-point"/>
  
    <circle cx="542.3834196891191" cy="222.6087896014095" r="4" fill="#3b82f6" stroke="#0d1117" stroke-width="2" class="data-point"/>
  
    <circle cx="546.0103626943005" cy="218.70848708487085" r="4" fill="#3b82f6" stroke="#0d1117" stroke-width="2" class="data-point"/>
  
    <circle cx="549.6373056994819" cy="215.2487450550181" r="4" fill="#3b82f6" stroke="#0d1117" stroke-width="2" class="data-point"/>
  
    <circle cx="553.2642487046633" cy="211.82058442206042" r="4" fill="#3b82f6" stroke="#0d1117" stroke-width="2" class="data-point"/>
  
    <circle cx="556.8911917098445" cy="208.40189820817127" r="4" fill="#3b82f6" stroke="#0d1117" stroke-width="2" class="data-point"/>
  
    <circle cx="560.5181347150259" cy="203.7468003058409" r="4" fill="#3b82f6" stroke="#0d1117" stroke-width="2" class="data-point"/>
  
    <circle cx="564.1450777202073" cy="199.07749077490774" r="4" fill="#3b82f6" stroke="#0d1117" stroke-width="2" class="data-point"/>
  
    <circle cx="567.7720207253886" cy="195.18508360759284" r="4" fill="#3b82f6" stroke="#0d1117" stroke-width="2" class="data-point"/>
  
    <circle cx="571.3989637305699" cy="191.92272530833415" r="4" fill="#3b82f6" stroke="#0d1117" stroke-width="2" class="data-point"/>
  
    <circle cx="575.0259067357513" cy="188.75826933945015" r="4" fill="#3b82f6" stroke="#0d1117" stroke-width="2" class="data-point"/>
  
    <circle cx="578.6528497409327" cy="184.5579435524085" r="4" fill="#3b82f6" stroke="#0d1117" stroke-width="2" class="data-point"/>
  
    <circle cx="582.279792746114" cy="181.3003224626841" r="4" fill="#3b82f6" stroke="#0d1117" stroke-width="2" class="data-point"/>
  
    <circle cx="585.9067357512953" cy="178.07744090954424" r="4" fill="#3b82f6" stroke="#0d1117" stroke-width="2" class="data-point"/>
  
    <circle cx="589.5336787564767" cy="175.06299657591168" r="4" fill="#3b82f6" stroke="#0d1117" stroke-width="2" class="data-point"/>
  
    <circle cx="593.160621761658" cy="172.22382899504672" r="4" fill="#3b82f6" stroke="#0d1117" stroke-width="2" class="data-point"/>
  
    <circle cx="596.7875647668393" cy="169.31518234101262" r="4" fill="#3b82f6" stroke="#0d1117" stroke-width="2" class="data-point"/>
  
    <circle cx="600.4145077720207" cy="166.8281473355274" r="4" fill="#3b82f6" stroke="#0d1117" stroke-width="2" class="data-point"/>
  
    <circle cx="604.041450777202" cy="164.25268441873607" r="4" fill="#3b82f6" stroke="#0d1117" stroke-width="2" class="data-point"/>
  
    <circle cx="607.6683937823834" cy="161.62353312722314" r="4" fill="#3b82f6" stroke="#0d1117" stroke-width="2" class="data-point"/>
  
    <circle cx="611.2953367875648" cy="158.84437020045874" r="4" fill="#3b82f6" stroke="#0d1117" stroke-width="2" class="data-point"/>
  
    <circle cx="614.9222797927462" cy="156.29417240118346" r="4" fill="#3b82f6" stroke="#0d1117" stroke-width="2" class="data-point"/>
  
    <circle cx="618.5492227979274" cy="153.95872810079453" r="4" fill="#3b82f6" stroke="#0d1117" stroke-width="2" class="data-point"/>
  
    <circle cx="622.1761658031088" cy="149.7268209168578" r="4" fill="#3b82f6" stroke="#0d1117" stroke-width="2" class="data-point"/>
  
    <circle cx="625.8031088082902" cy="146.18496725507796" r="4" fill="#3b82f6" stroke="#0d1117" stroke-width="2" class="data-point"/>
  
    <circle cx="629.4300518134716" cy="142.78365080948106" r="4" fill="#3b82f6" stroke="#0d1117" stroke-width="2" class="data-point"/>
  
    <circle cx="633.0569948186528" cy="139.51655530068814" r="4" fill="#3b82f6" stroke="#0d1117" stroke-width="2" class="data-point"/>
  
    <circle cx="636.6839378238342" cy="134.3577341178817" r="4" fill="#3b82f6" stroke="#0d1117" stroke-width="2" class="data-point"/>
  
    <circle cx="640.3108808290156" cy="131.09379674877832" r="4" fill="#3b82f6" stroke="#0d1117" stroke-width="2" class="data-point"/>
  
    <circle cx="643.9378238341968" cy="128.2688407965161" r="4" fill="#3b82f6" stroke="#0d1117" stroke-width="2" class="data-point"/>
  
    <circle cx="647.5647668393782" cy="124.93226621455406" r="4" fill="#3b82f6" stroke="#0d1117" stroke-width="2" class="data-point"/>
  
    <circle cx="651.1917098445596" cy="120.01346364815001" r="4" fill="#3b82f6" stroke="#0d1117" stroke-width="2" class="data-point"/>
  
    <circle cx="654.8186528497409" cy="116.47476812605964" r="4" fill="#3b82f6" stroke="#0d1117" stroke-width="2" class="data-point"/>
  
    <circle cx="658.4455958549223" cy="113.4871679797879" r="4" fill="#3b82f6" stroke="#0d1117" stroke-width="2" class="data-point"/>
  
    <circle cx="662.0725388601036" cy="110.95907715833914" r="4" fill="#3b82f6" stroke="#0d1117" stroke-width="2" class="data-point"/>
  
    <circle cx="665.699481865285" cy="108.56047006416011" r="4" fill="#3b82f6" stroke="#0d1117" stroke-width="2" class="data-point"/>
  
    <circle cx="669.3264248704663" cy="106.61031880589076" r="4" fill="#3b82f6" stroke="#0d1117" stroke-width="2" class="data-point"/>
  
    <circle cx="672.9533678756477" cy="104.41383265184004" r="4" fill="#3b82f6" stroke="#0d1117" stroke-width="2" class="data-point"/>
  
    <circle cx="676.5803108808291" cy="102.6231674478907" r="4" fill="#3b82f6" stroke="#0d1117" stroke-width="2" class="data-point"/>
  
    <circle cx="680.2072538860103" cy="100.51037199561185" r="4" fill="#3b82f6" stroke="#0d1117" stroke-width="2" class="data-point"/>
  
    <circle cx="683.8341968911917" cy="97.46908347461854" r="4" fill="#3b82f6" stroke="#0d1117" stroke-width="2" class="data-point"/>
  
    <circle cx="687.4611398963731" cy="94.85572288155313" r="4" fill="#3b82f6" stroke="#0d1117" stroke-width="2" class="data-point"/>
  
    <circle cx="691.0880829015543" cy="92.58344137495428" r="4" fill="#3b82f6" stroke="#0d1117" stroke-width="2" class="data-point"/>
  
    <circle cx="694.7150259067357" cy="90.61907848808215" r="4" fill="#3b82f6" stroke="#0d1117" stroke-width="2" class="data-point"/>
  
    <circle cx="698.3419689119171" cy="88.59313187726471" r="4" fill="#3b82f6" stroke="#0d1117" stroke-width="2" class="data-point"/>
  
    <circle cx="701.9689119170985" cy="86.88457830524251" r="4" fill="#3b82f6" stroke="#0d1117" stroke-width="2" class="data-point"/>
  
    <circle cx="705.5958549222797" cy="84.0122502576377" r="4" fill="#3b82f6" stroke="#0d1117" stroke-width="2" class="data-point"/>
  
    <circle cx="709.2227979274611" cy="81.55679664904756" r="4" fill="#3b82f6" stroke="#0d1117" stroke-width="2" class="data-point"/>
  
    <circle cx="712.8497409326425" cy="79.12187094843921" r="4" fill="#3b82f6" stroke="#0d1117" stroke-width="2" class="data-point"/>
  
    <circle cx="716.4766839378239" cy="77.11171503606931" r="4" fill="#3b82f6" stroke="#0d1117" stroke-width="2" class="data-point"/>
  
    <circle cx="720.1036269430052" cy="75.26736145739835" r="4" fill="#3b82f6" stroke="#0d1117" stroke-width="2" class="data-point"/>
  
    <circle cx="723.7305699481866" cy="73.62986602838998" r="4" fill="#3b82f6" stroke="#0d1117" stroke-width="2" class="data-point"/>
  
    <circle cx="727.3575129533679" cy="70.82227984442005" r="4" fill="#3b82f6" stroke="#0d1117" stroke-width="2" class="data-point"/>
  
    <circle cx="730.9844559585492" cy="68.54210298859743" r="4" fill="#3b82f6" stroke="#0d1117" stroke-width="2" class="data-point"/>
  
    <circle cx="734.6113989637306" cy="66.46404707290316" r="4" fill="#3b82f6" stroke="#0d1117" stroke-width="2" class="data-point"/>
  
    <circle cx="738.2383419689119" cy="64.47915627804923" r="4" fill="#3b82f6" stroke="#0d1117" stroke-width="2" class="data-point"/>
  
    <circle cx="741.8652849740932" cy="62.74691665835576" r="4" fill="#3b82f6" stroke="#0d1117" stroke-width="2" class="data-point"/>
  
    <circle cx="745.4922279792746" cy="61.0652072736944" r="4" fill="#3b82f6" stroke="#0d1117" stroke-width="2" class="data-point"/>
  
    <circle cx="749.1191709844559" cy="59.52403510521589" r="4" fill="#3b82f6" stroke="#0d1117" stroke-width="2" class="data-point"/>
  
    <circle cx="752.7461139896373" cy="58.04602573052756" r="4" fill="#3b82f6" stroke="#0d1117" stroke-width="2" class="data-point"/>
  
    <circle cx="756.3730569948186" cy="56.69118380372993" r="4" fill="#3b82f6" stroke="#0d1117" stroke-width="2" class="data-point"/>
  
    <circle cx="760" cy="55" r="4" fill="#3b82f6" stroke="#0d1117" stroke-width="2" class="data-point"/>
  

  <!-- Axis lines -->
  <line x1="60" y1="55" x2="60" y2="340"
        stroke="#30363d" stroke-width="2"/>
  <line x1="60" y1="340" x2="760" y2="340"
        stroke="#30363d" stroke-width="2"/>
</svg>